M48
; DRILL file {KiCad (5.1.0-0)} date Tuesday, December 31, 2019 at 10:17:04 AM
; FORMAT={-:-/ absolute / inch / decimal}
; #@! TF.CreationDate,2019-12-31T10:17:04-08:00
; #@! TF.GenerationSoftware,Kicad,Pcbnew,(5.1.0-0)
FMAT,2
INCH
T1C0.0118
T2C0.0295
T3C0.0315
T4C0.0354
T5C0.0374
T6C0.0394
T7C0.0433
T8C0.0512
T9C0.1260
T10C0.0630
%
G90
G05
T1
X6.81Y-11.89
X6.8905Y-9.7386
X6.9202Y-9.7266
X6.95Y-8.4
X6.95Y-11.045
X6.995Y-11.275
X7.01Y-9.685
X7.05Y-5.145
X7.05Y-8.355
X7.05Y-9.6641
X7.05Y-9.8703
X7.05Y-11.07
X7.095Y-11.25
X7.125Y-9.575
X7.15Y-5.165
X7.15Y-8.5
X7.15Y-9.685
X7.15Y-11.085
X7.1709Y-5.205
X7.195Y-11.225
X7.25Y-8.455
X7.25Y-9.8494
X7.265Y-9.6177
X7.2709Y-5.1859
X7.285Y-9.945
X7.305Y-7.9
X7.305Y-8.655
X7.3057Y-10.8361
X7.3291Y-7.925
X7.35Y-5.12
X7.35Y-11.155
X7.35Y-11.3
X7.3709Y-5.34
X7.39Y-9.5968
X7.39Y-11.13
X7.4Y-9.21
X7.45Y-4.855
X7.45Y-9.62
X7.45Y-9.7266
X7.45Y-10.905
X7.45Y-11.275
X7.455Y-9.26
X7.4709Y-5.4
X7.49Y-9.5614
X7.4901Y-11.1059
X7.5Y-9.24
X7.55Y-4.83
X7.55Y-7.925
X7.55Y-9.64
X7.55Y-9.7386
X7.55Y-10.915
X7.55Y-11.33
X7.59Y-9.54
X7.6146Y-11.1059
X7.64Y-9.08
X7.65Y-4.9927
X7.65Y-6.265
X7.65Y-7.9
X7.65Y-10.295
X7.65Y-10.905
X7.65Y-11.25
X7.662Y-9.138
X7.6709Y-5.5
X7.675Y-4.8
X7.6866Y-9.11
X7.6873Y-6.3973
X7.69Y-11.61
X7.6949Y-10.9359
X7.75Y-6.2232
X7.75Y-10.9094
X7.755Y-4.765
X7.7566Y-8.9934
X7.7692Y-6.0964
X7.787Y-5.574
X7.7886Y-9.1589
X7.8055Y-11.59
X7.85Y-4.74
X7.85Y-6.285
X7.85Y-11.225
X7.8566Y-8.9741
X7.8873Y-6.4177
X7.89Y-5.5531
X7.9Y-9.19
X7.925Y-5.525
X7.95Y-4.9718
X7.95Y-6.305
X7.9709Y-4.715
X7.9709Y-5.47
X7.9873Y-6.4427
X8.015Y-5.525
X8.03Y-9.455
X8.05Y-4.68
X8.05Y-6.355
X8.0527Y-9.4341
X8.0709Y-5.525
X8.08Y-9.4221
X8.0873Y-6.4623
X8.1Y-9.4
X8.11Y-5.495
X8.12Y-9.375
X8.127Y-9.3311
X8.145Y-9.2441
X8.15Y-4.66
X8.15Y-6.334
X8.1511Y-9.3136
X8.1623Y-9.2859
X8.1709Y-5.5531
X8.1873Y-6.4827
X8.19Y-5.47
X8.25Y-4.9718
X8.25Y-6.3758
X8.25Y-10.6334
X8.2709Y-5.5718
X8.2856Y-7.885
X8.31Y-5.525
X8.31Y-7.84
X8.31Y-11.2971
X8.35Y-5.5927
X8.35Y-6.95
X8.35Y-10.625
X8.39Y-4.405
X8.41Y-11.3091
X8.445Y-7.865
X8.45Y-9.4221
X8.45Y-9.5949
X8.45Y-9.6646
X8.45Y-9.8703
X8.45Y-10.6094
X8.455Y-6.885
X8.455Y-10.965
X8.4846Y-9.3985
X8.49Y-7.3259
X8.495Y-7.81
X8.5042Y-9.3199
X8.5082Y-7.6682
X8.51Y-11.355
X8.55Y-6.8073
X8.55Y-9.6108
X8.55Y-9.6766
X8.55Y-10.5974
X8.55Y-10.9454
X8.55Y-11.5006
X8.5601Y-7.6697
X8.58Y-9.3
X8.6044Y-7.2762
X8.605Y-10.745
X8.61Y-8.995
X8.65Y-6.75
X8.65Y-9.3196
X8.65Y-9.4101
X8.65Y-9.8494
X8.65Y-10.5854
X8.65Y-10.9214
X8.6526Y-7.7868
X8.6735Y-7.7615
X8.6868Y-9.253
X8.6946Y-7.7404
X8.695Y-4.945
X8.695Y-7.305
X8.705Y-8.9741
X8.75Y-6.69
X8.75Y-9.3981
X8.75Y-10.575
X8.75Y-11.155
X8.7563Y-10.9214
X8.79Y-9.5829
X8.7962Y-7.7118
X8.8Y-11.215
X8.8131Y-7.0481
X8.8291Y-9.3861
X8.85Y-6.65
X8.85Y-9.6228
X8.85Y-9.6886
X8.85Y-10.5614
X8.85Y-10.745
X8.89Y-7.45
X8.89Y-9.5709
X8.9Y-11.175
X8.91Y-9.3741
X8.95Y-6.505
X8.95Y-6.5819
X8.95Y-9.645
X8.95Y-9.705
X8.95Y-11.215
X8.99Y-9.55
X8.995Y-7.545
X8.995Y-11.1541
X9.01Y-9.3621
X9.0499Y-11.1349
X9.05Y-6.56
X9.05Y-10.3159
X9.05Y-10.7366
X9.09Y-10.67
X9.105Y-7.0272
X9.1114Y-9.705
X9.15Y-10.7246
X9.15Y-11.185
X9.155Y-8.065
X9.245Y-8.115
X9.25Y-10.7126
X9.2593Y-11.1179
X9.28Y-8.0882
X9.35Y-10.7006
X9.35Y-11.16
X9.355Y-8.13
X9.43Y-8.17
X9.4556Y-8.1491
X9.46Y-8.995
X9.4794Y-11.1059
X9.545Y-8.195
X9.55Y-10.6766
X9.5559Y-8.9741
X9.5772Y-5.8
X9.5772Y-6.15
X9.6Y-6.175
X9.61Y-5.76
X9.63Y-6.195
X9.6301Y-5.9
X9.6421Y-5.8
X9.645Y-8.225
X9.7297Y-6.0
X9.73Y-6.22
X9.7415Y-5.7771
X9.7825Y-10.6334
X9.83Y-7.67
X9.8579Y-5.6
X9.8661Y-7.6911
X9.87Y-10.6214
X9.88Y-6.08
X9.9Y-7.2
X9.95Y-7.22
X9.96Y-10.6094
X10.0Y-10.5974
X10.04Y-5.66
X10.0405Y-4.3805
X10.0421Y-5.975
X10.0659Y-10.6886
X10.0719Y-6.783
X10.0923Y-11.0158
X10.1075Y-10.5854
X10.1284Y-10.7006
X10.1421Y-5.95
X10.151Y-6.756
X10.165Y-11.1059
X10.1886Y-10.5734
X10.2Y-4.705
X10.2134Y-10.7126
X10.24Y-4.73
X10.2421Y-6.735
X10.2603Y-5.9553
X10.2719Y-6.712
X10.2886Y-10.5614
X10.3Y-4.75
X10.3Y-6.4101
X10.305Y-8.995
X10.3134Y-10.7246
X10.3281Y-6.6
X10.349Y-6.4221
X10.36Y-6.695
X10.3699Y-6.51
X10.3939Y-6.1009
X10.405Y-4.94
X10.405Y-8.98
X10.4134Y-10.7366
X10.4183Y-6.4137
X10.44Y-6.4341
X10.45Y-4.775
X10.475Y-4.8
X10.4839Y-6.1009
X10.5Y-4.83
X10.5Y-6.48
X10.5209Y-6.455
X10.535Y-4.85
X10.539Y-6.211
X10.55Y-10.8874
X10.5599Y-6.1884
X10.565Y-4.87
X10.565Y-6.3691
X10.5719Y-6.1611
X10.6Y-4.89
X10.6Y-6.39
X10.62Y-6.21
X10.635Y-6.3172
X10.65Y-4.505
X10.65Y-10.8754
X10.6539Y-6.2941
X10.6539Y-6.1811
X10.675Y-6.16
X10.676Y-6.2741
X10.7Y-4.925
X10.7Y-6.35
X10.735Y-6.255
X10.75Y-10.865
X10.7579Y-5.2
X10.765Y-6.255
X10.7699Y-5.3
X10.777Y-6.3291
X10.785Y-5.7
X10.8Y-4.695
X10.8068Y-5.8
X10.8188Y-5.9
X10.8188Y-6.3962
X10.8397Y-6.3497
X10.8397Y-7.295
X10.84Y-5.76
X10.85Y-4.7159
X10.87Y-5.86
X10.87Y-6.39
X10.87Y-7.405
X10.895Y-6.0
X10.895Y-6.435
X10.895Y-7.55
X10.905Y-4.6741
X10.935Y-5.84
X10.935Y-6.455
X10.935Y-7.485
X10.95Y-4.405
X10.9586Y-6.3686
X10.96Y-5.8
X10.98Y-5.66
X10.9809Y-6.3059
X11.04Y-6.068
X11.0841Y-7.0922
X11.105Y-6.06
X11.105Y-7.135
X11.4521Y-9.253
X11.47Y-10.7
X11.4731Y-9.2318
X11.4737Y-6.6422
X11.4751Y-6.6749
X11.4944Y-9.2109
X11.4991Y-6.6266
X11.515Y-9.94
X11.5191Y-4.7161
X11.5384Y-9.8409
X11.545Y-4.695
X11.5593Y-10.2957
X11.5652Y-6.8637
X11.5652Y-9.0811
X11.5713Y-9.7138
X11.5772Y-6.8339
X11.5772Y-9.1084
X11.5803Y-9.138
X11.5892Y-6.8041
X11.5895Y-10.315
X11.5922Y-9.6921
X11.6012Y-6.7744
X11.6012Y-9.1608
X11.61Y-10.4
X11.6132Y-6.745
X11.6132Y-9.6694
X11.62Y-9.1906
X11.6341Y-6.2
X11.6341Y-9.645
X11.6341Y-10.9509
X11.643Y-8.55
X11.655Y-6.96
X11.655Y-7.825
X11.655Y-11.4841
X11.6666Y-8.7566
X11.6677Y-9.6
X11.6886Y-7.245
X11.69Y-10.755
X11.75Y-9.86
X11.8114Y-8.845
X11.85Y-4.0701
X11.85Y-4.945
X11.85Y-5.305
X11.8595Y-5.5745
X11.9Y-5.4614
X11.9Y-5.99
X11.92Y-5.31
X11.945Y-4.705
X11.95Y-8.9225
X11.9659Y-4.3641
X11.98Y-5.323
X12.0Y-5.5282
X12.0Y-6.0146
X12.0Y-6.3059
X12.0Y-11.45
X12.0288Y-5.3162
X12.03Y-4.0821
X12.03Y-4.985
X12.0405Y-5.5909
X12.05Y-8.865
X12.05Y-9.31
X12.06Y-4.0941
X12.06Y-4.985
X12.09Y-11.915
X12.095Y-11.09
X12.1Y-5.5491
X12.1Y-6.03
X12.1Y-6.5986
X12.1405Y-5.6055
X12.15Y-8.865
X12.15Y-8.94
X12.155Y-4.1061
X12.155Y-4.99
X12.2Y-5.755
X12.2Y-6.0386
X12.2Y-6.5777
X12.2259Y-8.915
X12.2405Y-5.6155
X12.25Y-4.6614
X12.25Y-8.945
X12.295Y-6.285
X12.305Y-8.755
X12.35Y-8.925
X12.35Y-11.51
X12.395Y-6.3059
X12.4Y-4.445
X12.4095Y-11.0905
X12.4211Y-4.4232
X12.45Y-4.8552
X12.45Y-8.892
X12.4925Y-8.9675
X12.495Y-6.2614
X12.5Y-4.8134
X12.55Y-4.835
X12.565Y-10.85
X12.59Y-4.68
X12.595Y-8.715
X12.6114Y-4.7691
X12.6114Y-5.4614
X12.7Y-4.465
X12.7114Y-10.715
X12.7209Y-4.4023
X12.8Y-4.485
X12.8209Y-4.3814
X12.85Y-4.8792
X12.9Y-4.79
X12.95Y-4.845
X13.0Y-6.1386
X13.005Y-5.31
X13.05Y-4.1181
X13.05Y-5.0386
X13.1Y-4.505
X13.1Y-5.76
X13.1Y-6.056
X13.1Y-6.5568
X13.1405Y-5.6269
X13.155Y-4.1301
X13.155Y-4.4121
X13.155Y-5.0386
X13.2Y-5.7809
X13.2Y-6.068
X13.2Y-6.5359
X13.2405Y-5.6395
X13.255Y-4.1421
X13.255Y-5.0386
X13.3Y-5.805
X13.3Y-6.08
X13.3Y-6.515
X13.3405Y-5.6545
X13.355Y-4.1541
X13.355Y-5.0386
X13.36Y-7.185
X13.36Y-10.46
X13.385Y-7.215
X13.385Y-9.795
X13.395Y-6.1
X13.4Y-5.835
X13.4Y-6.4941
X13.41Y-7.245
X13.41Y-9.245
X13.435Y-7.275
X13.435Y-8.62
X13.4405Y-5.6645
X13.45Y-12.09
X13.4591Y-7.3044
X13.4591Y-7.995
X13.48Y-6.74
X13.48Y-10.435
X13.505Y-7.105
X13.505Y-9.77
X13.53Y-9.215
X13.5312Y-7.1271
X13.555Y-7.145
X13.555Y-8.645
X13.5789Y-8.0661
X13.5789Y-12.8211
X13.6Y-8.045
X13.6Y-12.8
X13.615Y-7.165
X13.6153Y-8.0194
X13.625Y-12.85
X13.6372Y-9.2981
X13.64Y-6.55
X13.655Y-12.77
X13.6691Y-8.9459
X13.6691Y-11.285
X13.6789Y-6.6561
X13.6791Y-8.4886
X13.688Y-8.898
X13.7Y-6.635
X13.7Y-8.515
X13.7089Y-8.8711
X13.73Y-8.85
X13.7492Y-11.5958
X13.755Y-8.925
X13.765Y-12.155
X13.8Y-4.12
X13.85Y-4.145
X13.9Y-5.195
X13.9211Y-5.2161
X13.955Y-5.2562
X14.0Y-4.933
X14.0Y-7.995
X14.0Y-8.62
X14.06Y-12.355
X14.1Y-4.0991
X14.1Y-11.515
X14.1Y-12.07
X14.1Y-12.575
X14.14Y-12.66
X14.15Y-4.17
X14.1614Y-12.3341
X14.2Y-4.0782
X14.2Y-5.3341
X14.2Y-7.45
X14.2Y-8.02
X14.2Y-11.535
X14.2Y-12.2614
X14.2Y-12.62
X14.245Y-12.6386
X14.2472Y-5.2522
X14.25Y-4.195
X14.2582Y-12.3221
X14.2614Y-12.5959
X14.3Y-4.91
X14.3Y-5.26
X14.3Y-5.6749
X14.3Y-6.4731
X14.3Y-10.7134
X14.3Y-11.555
X14.3Y-11.99
X14.3Y-12.325
X14.3295Y-5.0595
X14.3308Y-3.9431
X14.3378Y-6.0095
X14.3405Y-12.6155
X14.35Y-11.285
X14.3543Y-12.2982
X14.36Y-3.9551
X14.3644Y-12.2702
X14.4Y-4.885
X14.4Y-5.28
X14.4Y-5.6959
X14.4Y-6.4522
X14.4Y-11.5734
X14.4Y-12.6386
X14.4183Y-12.5886
X14.43Y-12.315
X14.435Y-11.285
X14.4397Y-6.0347
X14.46Y-3.9671
X14.4606Y-5.2374
X14.4614Y-12.0734
X14.5Y-4.0573
X14.5Y-5.295
X14.5Y-5.7168
X14.5Y-6.4313
X14.5Y-7.4366
X14.54Y-4.22
X14.545Y-6.055
X14.5673Y-3.9764
X14.6Y-5.3132
X14.6Y-5.7377
X14.6Y-6.4104
X14.6397Y-6.0647
X14.7Y-4.645
X14.7Y-6.1386
X14.74Y-12.02
X14.8Y-12.8209
X14.9Y-12.2721
X14.9059Y-7.1859
X14.91Y-6.795
X15.0Y-12.2841
X15.035Y-12.01
X15.1Y-5.675
X15.1Y-12.3386
X15.14Y-12.155
X15.1683Y-12.5526
X15.2Y-4.53
X15.2Y-5.695
X15.2Y-12.0734
X15.2386Y-12.4754
X15.2544Y-5.7156
X15.255Y-12.665
X15.3Y-4.5191
X15.3Y-12.05
X15.3074Y-12.2971
X15.314Y-12.5526
X15.355Y-12.465
X15.3587Y-5.7363
X15.4Y-4.5071
X15.4Y-12.265
X15.4019Y-12.0291
X15.435Y-12.285
X15.4467Y-5.7583
X15.455Y-12.49
X15.5Y-4.4951
X15.5Y-5.335
X15.5Y-6.08
X15.5Y-6.3895
X15.5Y-12.0117
X15.535Y-12.3309
X15.545Y-3.9161
X15.5467Y-5.7817
X15.55Y-12.515
X15.5993Y-6.0929
X15.6Y-4.4831
X15.6Y-5.335
X15.6Y-6.3686
X15.64Y-12.31
X15.645Y-3.9281
X15.6467Y-5.8017
X15.655Y-12.075
X15.7Y-4.4711
X15.7Y-6.1
X15.7Y-6.3477
X15.7201Y-5.3351
X15.7447Y-5.8353
X15.745Y-3.9401
X15.755Y-12.255
X15.8Y-4.4591
X15.8Y-5.3386
X15.8Y-6.115
X15.8Y-6.3268
X15.8Y-6.8488
X15.84Y-3.9521
X15.848Y-11.998
X15.9Y-6.8309
X15.9Y-12.58
X15.9028Y-12.0567
X15.995Y-12.2791
X16.0Y-6.81
X16.0Y-12.0341
X16.0Y-12.54
X16.0Y-12.605
X16.1Y-12.0221
X16.1Y-12.325
X16.1Y-12.6259
X16.1959Y-12.0009
X16.1994Y-7.3294
X16.2Y-12.3
X16.2Y-12.6386
X16.2686Y-11.6064
X16.297Y-6.007
X16.3179Y-6.0329
X16.3198Y-5.8148
X16.3388Y-6.0588
X16.3444Y-7.1844
X16.3597Y-6.0803
X16.36Y-12.6459
X16.3614Y-12.1168
X16.3622Y-11.5825
X16.3808Y-6.1058
X16.4Y-11.455
X16.4Y-11.615
X16.4Y-12.08
X16.4Y-12.845
X16.4017Y-6.1283
X16.4019Y-7.1269
X16.4226Y-6.1524
X16.4448Y-6.1752
X16.4499Y-12.6259
X16.46Y-6.775
X16.4697Y-11.5657
X16.4729Y-11.6413
X16.475Y-12.255
X16.5Y-11.455
X16.55Y-12.605
X16.555Y-6.75
X16.555Y-7.06
X16.5668Y-11.5963
X16.5734Y-12.0221
X16.596Y-6.85
X16.5999Y-11.9691
X16.6Y-11.455
X16.6Y-12.8209
X16.6038Y-11.5389
X16.6169Y-6.8932
X16.6358Y-5.2134
X16.6358Y-5.5621
X16.6378Y-6.955
X16.66Y-12.58
X16.7Y-11.455
X16.7Y-12.07
X16.7208Y-6.8723
X16.7358Y-5.2254
X16.7358Y-5.5741
X16.775Y-12.0491
X16.7781Y-11.5991
X16.8Y-7.125
X16.8Y-11.455
X16.8Y-12.35
X16.8358Y-5.2374
X16.8358Y-5.5861
X16.85Y-6.6386
X16.8645Y-11.989
X16.8791Y-12.015
X16.9Y-11.455
X16.9Y-12.325
X16.9049Y-11.6409
X16.9341Y-5.5981
X16.9358Y-5.2494
X16.94Y-6.8514
X16.95Y-6.66
X16.9625Y-12.0128
X16.965Y-12.1168
X16.9991Y-11.99
X17.0Y-6.62
X17.0Y-6.87
X17.0Y-11.455
X17.0Y-12.3
X17.0298Y-6.62
X17.0358Y-5.2614
X17.0358Y-5.6101
X17.04Y-11.62
X17.0734Y-11.9807
X17.1Y-6.59
X17.1Y-6.6409
X17.1Y-6.75
X17.1Y-7.175
X17.1Y-11.455
X17.1Y-12.005
X17.1Y-12.1
X17.1358Y-5.2734
X17.1358Y-5.6221
X17.1405Y-12.0745
X17.15Y-11.285
X17.2Y-6.62
X17.2Y-6.775
X17.2Y-7.325
X17.2Y-12.255
X17.2409Y-5.2854
X17.245Y-5.6341
X17.3386Y-5.3064
X17.34Y-5.655
T2
X12.0Y-12.05
X12.05Y-12.0
X12.1Y-12.05
T3
X11.2Y-4.3531
X11.2Y-4.55
X15.05Y-5.15
X15.05Y-5.3469
X10.65Y-12.4
X10.65Y-12.7
X9.8031Y-4.75
X10.0Y-4.75
X15.1Y-11.4
X16.25Y-5.15
X16.25Y-5.3469
X11.75Y-12.15
X11.75Y-12.45
X15.1Y-11.7
X15.2Y-11.4
X15.2Y-11.7
X15.3Y-11.4
X15.3Y-11.7
X15.4Y-11.4
X15.4Y-11.7
X15.5Y-11.4
X15.5Y-11.7
X15.6Y-11.4
X15.6Y-11.7
X15.7Y-11.4
X15.7Y-11.7
X15.8Y-11.4
X15.8Y-11.7
X9.65Y-11.55
X9.65Y-11.85
X9.75Y-11.55
X9.75Y-11.85
X9.85Y-11.55
X9.85Y-11.85
X9.95Y-11.55
X9.95Y-11.85
X10.05Y-11.55
X10.05Y-11.85
X10.15Y-11.55
X10.15Y-11.85
X10.25Y-11.55
X10.25Y-11.85
X8.45Y-10.8
X10.8Y-12.4
X10.8Y-12.7
X8.25Y-7.1
X8.25Y-7.4
X8.35Y-7.1
X8.35Y-7.4
X8.45Y-7.1
X8.45Y-7.4
X8.55Y-7.1
X8.55Y-7.4
X8.65Y-7.1
X8.65Y-7.4
X8.75Y-7.1
X8.75Y-7.4
X8.85Y-7.1
X8.95Y-7.1
X8.95Y-7.4
X9.05Y-7.1
X9.05Y-7.4
X9.15Y-7.1
X9.15Y-7.4
X15.05Y-6.75
X15.05Y-6.9469
X9.9Y-12.4
X9.9Y-12.7
X17.45Y-11.45
X17.45Y-11.6469
X10.1031Y-8.0
X10.3Y-8.0
X12.9Y-7.55
X12.9Y-7.7469
X13.45Y-4.35
X13.45Y-4.5469
X13.85Y-5.15
X13.85Y-5.3469
X13.85Y-5.95
X13.85Y-6.1469
X9.4Y-10.2531
X9.4Y-10.45
X11.75Y-6.7
X11.75Y-7.0
X11.85Y-6.7
X11.85Y-7.0
X11.95Y-6.7
X11.95Y-7.0
X12.05Y-6.7
X12.05Y-7.0
X12.15Y-6.7
X12.15Y-7.0
X12.25Y-6.7
X12.25Y-7.0
X12.35Y-6.7
X12.35Y-7.0
X12.45Y-6.7
X8.45Y-11.4
X8.85Y-7.4
X8.55Y-10.8
X8.55Y-11.4
X8.65Y-10.8
X8.65Y-11.4
X8.75Y-10.8
X8.75Y-11.4
X8.85Y-10.8
X8.85Y-11.4
X8.95Y-10.8
X8.95Y-11.4
X9.05Y-10.8
X9.05Y-11.4
X9.15Y-10.8
X9.15Y-11.4
X9.25Y-10.8
X9.25Y-11.4
X9.35Y-10.8
X9.35Y-11.4
X9.45Y-10.8
X9.45Y-11.4
X9.55Y-10.8
X12.45Y-7.0
X12.55Y-6.7
X12.55Y-7.0
X12.65Y-6.7
X12.65Y-7.0
X15.3Y-5.9
X15.3Y-6.2
X15.4Y-5.9
X15.4Y-6.2
X15.5Y-5.9
X15.5Y-6.2
X15.6Y-5.9
X15.6Y-6.2
X15.7Y-5.9
X15.7Y-6.2
X15.8Y-5.9
X15.8Y-6.2
X15.9Y-5.9
X15.9Y-6.2
X16.0Y-5.9
X16.0Y-6.2
X16.3Y-11.9
X16.3Y-12.2
X16.4Y-11.9
X16.4Y-12.2
X16.5Y-11.9
X16.5Y-12.2
X16.6Y-11.9
X16.6Y-12.2
X16.7Y-11.9
X16.7Y-12.2
X16.8Y-11.9
X16.8Y-12.2
X16.9Y-11.9
X16.9Y-12.2
X17.0Y-11.9
X17.0Y-12.2
X17.1Y-11.9
X17.1Y-12.2
X17.2Y-11.9
X17.2Y-12.2
X10.65Y-12.8
X10.65Y-12.9969
X10.2Y-12.8
X10.2Y-12.9969
X11.95Y-11.4
X11.95Y-11.7
X12.05Y-11.4
X12.05Y-11.7
X12.15Y-11.4
X12.15Y-11.7
X12.25Y-11.4
X12.25Y-11.7
X12.35Y-11.4
X12.35Y-11.7
X12.45Y-11.4
X12.45Y-11.7
X12.55Y-11.4
X12.55Y-11.7
X12.65Y-11.4
X12.65Y-11.7
X9.55Y-11.4
X14.1Y-5.1
X14.1Y-5.4
X14.2Y-5.1
X14.2Y-5.4
X14.3Y-5.1
X14.3Y-5.4
X14.4Y-5.1
X14.4Y-5.4
X14.5Y-5.1
X14.5Y-5.4
X14.6Y-5.1
X9.4Y-11.6031
X9.4Y-11.8
X14.6Y-5.4
X14.7Y-5.1
X14.7Y-5.4
X14.8Y-5.1
X14.8Y-5.4
X9.6504Y-9.4998
X9.9Y-12.8
X9.9Y-12.9969
X9.7504Y-9.4998
X9.7504Y-9.7998
X9.8504Y-9.4998
X9.8504Y-9.7998
X9.9504Y-9.4998
X9.9504Y-9.7998
X10.0504Y-9.4998
X10.0504Y-9.7998
X10.1504Y-9.4998
X10.1504Y-9.7998
X10.2504Y-9.4998
X10.2504Y-9.7998
X10.3504Y-9.4998
X10.3504Y-9.7998
X10.4504Y-9.4998
X10.4504Y-9.7998
X10.5504Y-9.4998
X17.65Y-4.35
X17.65Y-4.5469
X16.5Y-5.1
X16.5Y-5.4
X16.6Y-5.1
X16.6Y-5.4
X16.7Y-5.1
X16.7Y-5.4
X16.8Y-5.1
X16.8Y-5.4
X16.9Y-5.1
X16.9Y-5.4
X17.0Y-5.1
X17.0Y-5.4
X17.1Y-5.1
X17.1Y-5.4
X17.2Y-5.1
X17.2Y-5.4
X17.3Y-5.1
X17.3Y-5.4
X17.4Y-5.1
X17.4Y-5.4
X10.5Y-12.4
X10.5Y-12.7
X13.9Y-11.4
X13.9Y-11.7
X14.0Y-11.4
X14.0Y-11.7
X14.1Y-11.4
X14.1Y-11.7
X14.2Y-11.4
X14.2Y-11.7
X14.3Y-11.4
X14.3Y-11.7
X14.4Y-11.4
X14.4Y-11.7
X14.5Y-11.4
X14.5Y-11.7
X14.6Y-11.7
X16.25Y-4.35
X9.6504Y-9.7998
X16.25Y-4.5469
X10.5504Y-9.7998
X12.35Y-12.0
X12.65Y-12.0
X10.35Y-4.3
X10.35Y-4.6
X10.45Y-4.3
X10.45Y-4.6
X10.55Y-4.3
X10.55Y-4.6
X10.65Y-4.3
X10.65Y-4.6
X10.75Y-4.3
X10.75Y-4.6
X14.6Y-11.4
X10.85Y-4.3
X10.85Y-4.6
X10.95Y-4.3
X10.95Y-4.6
X10.2Y-12.4
X10.2Y-12.7
X8.7Y-4.35
X8.7Y-4.5469
X8.25Y-9.5
X8.25Y-9.8
X8.35Y-9.5
X8.35Y-9.8
X8.45Y-9.5
X8.45Y-9.8
X8.55Y-9.5
X8.55Y-9.8
X8.65Y-9.5
X8.65Y-9.8
X8.75Y-9.5
X8.75Y-9.8
X8.85Y-9.5
X8.85Y-9.8
X8.95Y-9.5
X8.95Y-9.8
X9.05Y-9.5
X9.05Y-9.8
X9.15Y-9.5
X9.15Y-9.8
X14.1Y-5.9
X14.1Y-6.2
X14.2Y-5.9
X14.2Y-6.2
X14.3Y-5.9
X14.3Y-6.2
X14.4Y-5.9
X14.4Y-6.2
X14.5Y-5.9
X14.5Y-6.2
X14.6Y-5.9
X14.6Y-6.2
X14.7Y-5.9
X14.7Y-6.2
X14.8Y-5.9
X14.8Y-6.2
X17.45Y-12.45
X17.45Y-12.6469
X8.4031Y-8.0
X8.6Y-8.0
X7.5531Y-8.0
X7.75Y-8.0
X14.85Y-4.35
X14.85Y-4.5469
X16.25Y-5.95
X16.25Y-6.1469
X8.0Y-9.5531
X8.0Y-9.75
X11.7Y-5.9
X11.7Y-6.2
X11.8Y-5.9
X11.8Y-6.2
X11.9Y-5.9
X11.9Y-6.2
X12.0Y-5.9
X12.0Y-6.2
X12.1Y-5.9
X12.1Y-6.2
X12.2Y-5.9
X12.2Y-6.2
X12.3Y-5.9
X12.3Y-6.2
X12.4Y-5.9
X12.4Y-6.2
X12.3Y-4.3
X12.3Y-4.6
X12.4Y-4.3
X12.4Y-4.6
X12.5Y-4.3
X12.5Y-4.6
X12.6Y-4.3
X12.6Y-4.6
X12.7Y-4.3
X12.7Y-4.6
X12.8Y-4.3
X12.8Y-4.6
X12.9Y-4.3
X12.9Y-4.6
X13.0Y-4.3
X13.0Y-4.6
X13.1Y-4.3
X13.1Y-4.6
X13.2Y-4.3
X13.2Y-4.6
X6.85Y-9.5
X6.85Y-9.8
X6.95Y-9.5
X6.95Y-9.8
X7.05Y-9.5
X7.05Y-9.8
X7.15Y-9.5
X7.15Y-9.8
X7.25Y-9.5
X7.25Y-9.8
X7.35Y-9.5
X7.35Y-9.8
X7.45Y-9.5
X7.45Y-9.8
X7.55Y-9.5
X7.55Y-9.8
X7.65Y-9.5
X7.65Y-9.8
X7.75Y-9.5
X7.75Y-9.8
X10.95Y-12.8
X10.5Y-12.8
X10.5Y-12.9969
X10.05Y-12.8
X10.05Y-12.9969
X6.85Y-10.8
X6.85Y-11.4
X6.95Y-10.8
X6.95Y-11.4
X7.05Y-10.8
X7.05Y-11.4
X7.15Y-10.8
X7.15Y-11.4
X7.25Y-10.8
X7.25Y-11.4
X7.35Y-10.8
X7.35Y-11.4
X7.45Y-10.8
X7.45Y-11.4
X7.55Y-10.8
X7.55Y-11.4
X7.65Y-10.8
X7.65Y-11.4
X7.75Y-10.8
X7.75Y-11.4
X7.85Y-10.8
X7.85Y-11.4
X7.95Y-10.8
X7.95Y-11.4
X9.8Y-11.0031
X9.8Y-11.2
X11.75Y-8.3
X11.75Y-8.6
X11.85Y-8.3
X11.85Y-8.6
X11.95Y-8.3
X11.95Y-8.6
X12.05Y-8.3
X12.05Y-8.6
X12.15Y-8.3
X12.15Y-8.6
X12.25Y-8.3
X12.25Y-8.6
X12.35Y-8.3
X12.35Y-8.6
X12.45Y-8.3
X12.45Y-8.6
X12.55Y-8.3
X12.55Y-8.6
X12.65Y-8.3
X12.65Y-8.6
X6.85Y-7.1
X6.85Y-7.4
X6.95Y-7.1
X6.95Y-7.4
X7.05Y-7.1
X7.05Y-7.4
X7.15Y-7.1
X7.15Y-7.4
X7.25Y-7.1
X7.25Y-7.4
X7.35Y-7.1
X7.35Y-7.4
X7.45Y-7.1
X7.45Y-7.4
X7.55Y-7.1
X7.55Y-7.4
X7.65Y-7.1
X7.65Y-7.4
X7.75Y-7.1
X7.75Y-7.4
X12.9Y-5.9
X12.9Y-6.2
X13.0Y-5.9
X13.0Y-6.2
X13.1Y-5.9
X13.1Y-6.2
X13.2Y-5.9
X13.2Y-6.2
X13.3Y-5.9
X13.3Y-6.2
X13.4Y-5.9
X13.4Y-6.2
X13.5Y-5.9
X13.5Y-6.2
X13.6Y-5.9
X13.6Y-6.2
X16.05Y-11.95
X16.05Y-12.1469
X15.65Y-12.4531
X15.65Y-12.65
X16.5Y-5.9
X16.5Y-6.2
X16.6Y-5.9
X16.6Y-6.2
X16.7Y-5.9
X16.7Y-6.2
X16.8Y-5.9
X16.8Y-6.2
X16.9Y-5.9
X16.9Y-6.2
X17.0Y-5.9
X17.0Y-6.2
X17.1Y-5.9
X17.1Y-6.2
X17.2Y-5.9
X17.2Y-6.2
X17.3Y-5.9
X17.3Y-6.2
X17.4Y-5.9
X17.4Y-6.2
X17.65Y-5.95
X17.65Y-6.1469
X12.05Y-9.9
X12.05Y-10.2
X12.15Y-9.9
X12.15Y-10.2
X9.2531Y-8.0
X9.45Y-8.0
X12.25Y-9.9
X12.25Y-10.2
X12.35Y-9.9
X12.35Y-10.2
X12.45Y-9.9
X12.45Y-10.2
X12.55Y-9.9
X12.55Y-10.2
X12.65Y-9.9
X12.65Y-10.2
X16.05Y-11.45
X16.05Y-11.6469
X14.85Y-11.95
X14.85Y-12.1469
X13.45Y-11.4
X13.6469Y-11.4
X9.7Y-6.65
X9.7Y-6.75
X9.7Y-6.85
X9.7Y-6.95
X10.95Y-12.9969
X9.7Y-7.05
X9.7Y-7.15
X9.7Y-7.25
X9.7Y-7.35
X9.7Y-7.45
X9.8Y-6.55
X9.8Y-6.65
X9.8Y-6.75
X9.8Y-6.85
X9.8Y-6.95
X9.8Y-7.05
X9.8Y-7.15
X9.8Y-7.25
X9.8Y-7.35
X9.8Y-7.45
X9.8Y-7.55
X9.9Y-6.55
X9.9Y-6.65
X9.9Y-7.45
X9.9Y-7.55
X10.0Y-6.55
X10.0Y-6.65
X10.0Y-7.45
X10.0Y-7.55
X10.1Y-6.55
X10.1Y-6.65
X10.1Y-7.45
X10.1Y-7.55
X10.2Y-6.55
X10.2Y-6.65
X10.2Y-7.45
X10.2Y-7.55
X10.3Y-6.55
X10.3Y-6.65
X10.3Y-7.45
X10.3Y-7.55
X10.4Y-6.55
X10.4Y-6.65
X10.4Y-7.45
X10.4Y-7.55
X10.5Y-6.55
X10.5Y-6.65
X10.5Y-7.45
X10.5Y-7.55
X10.6Y-6.55
X10.6Y-6.65
X10.6Y-6.75
X10.6Y-6.85
X10.6Y-6.95
X10.6Y-7.05
X10.6Y-7.15
X10.6Y-7.25
X10.6Y-7.35
X10.6Y-7.45
X10.6Y-7.55
X10.7Y-6.65
X10.7Y-6.75
X10.7Y-6.85
X10.7Y-6.95
X10.7Y-7.05
X10.7Y-7.15
X10.7Y-7.25
X10.7Y-7.35
X10.7Y-7.45
X12.9Y-9.15
X12.9Y-9.3469
X12.9Y-6.75
X12.9Y-6.9469
X10.8Y-9.5531
X10.8Y-9.75
X12.65Y-5.15
X12.65Y-5.3469
X16.3Y-6.75
X16.3Y-6.9469
X7.95Y-11.55
X7.95Y-11.85
X12.0Y-10.4
X12.0Y-10.7
X12.6Y-10.4
X12.6Y-10.7
X9.4Y-9.5531
X9.4Y-9.75
X8.0Y-10.2531
X8.0Y-10.45
X15.05Y-5.95
X15.05Y-6.1469
X10.35Y-12.4
X10.35Y-12.7
X10.05Y-12.4
X10.05Y-12.7
X16.3Y-11.4
X16.3Y-11.7
X16.4Y-11.4
X16.4Y-11.7
X16.5Y-11.4
X16.5Y-11.7
X16.6Y-11.4
X16.6Y-11.7
X16.7Y-11.4
X16.7Y-11.7
X16.8Y-11.4
X16.8Y-11.7
X16.9Y-11.4
X16.9Y-11.7
X17.0Y-11.4
X17.0Y-11.7
X17.1Y-11.4
X17.1Y-11.7
X17.2Y-11.4
X17.2Y-11.7
X11.75Y-7.5
X11.75Y-7.8
X11.85Y-7.5
X11.85Y-7.8
X11.95Y-7.5
X11.95Y-7.8
X12.05Y-7.5
X12.05Y-7.8
X12.15Y-7.5
X12.15Y-7.8
X12.25Y-7.5
X12.25Y-7.8
X12.35Y-7.5
X12.35Y-7.8
X12.45Y-7.5
X12.45Y-7.8
X12.55Y-7.5
X12.55Y-7.8
X12.65Y-7.5
X12.65Y-7.8
X10.15Y-12.25
X10.25Y-12.25
X10.35Y-12.25
X10.45Y-12.25
X10.55Y-12.25
X10.65Y-12.25
X10.75Y-12.25
X10.85Y-12.25
X10.95Y-12.25
X15.3Y-5.1
X8.2Y-11.0031
X8.2Y-11.2
X13.4Y-11.65
X13.4Y-11.75
X13.4Y-11.85
X13.4Y-11.95
X13.4Y-12.05
X13.4Y-12.15
X13.4Y-12.25
X13.4Y-12.35
X13.7Y-11.65
X13.7Y-11.85
X13.7Y-12.05
X13.7Y-12.15
X13.7Y-12.25
X13.7Y-12.35
X6.85Y-10.2
X6.85Y-10.5
X6.95Y-10.2
X6.95Y-10.5
X7.05Y-10.5
X7.15Y-10.2
X7.15Y-10.5
X7.25Y-10.2
X7.25Y-10.5
X7.35Y-10.2
X7.35Y-10.5
X7.45Y-10.2
X7.45Y-10.5
X15.3Y-5.4
X13.7Y-11.75
X15.4Y-5.1
X15.4Y-5.4
X15.5Y-5.1
X7.55Y-10.2
X7.55Y-10.5
X7.65Y-10.2
X7.65Y-10.5
X7.75Y-10.2
X7.75Y-10.5
X15.5Y-5.4
X7.05Y-10.2
X15.6Y-5.1
X13.7Y-11.95
X15.6Y-5.4
X15.7Y-5.1
X15.7Y-5.4
X15.8Y-5.1
X15.8Y-5.4
X15.9Y-5.1
X15.9Y-5.4
X16.0Y-5.1
X16.0Y-5.4
X10.8Y-12.8
X10.8Y-12.9969
X10.35Y-12.8
X10.35Y-12.9969
X11.2Y-11.0031
X11.2Y-11.2
X13.9Y-11.9
X13.9Y-12.2
X14.0Y-11.9
X14.0Y-12.2
X14.1Y-11.9
X14.1Y-12.2
X14.2Y-11.9
X14.2Y-12.2
X14.3Y-11.9
X14.3Y-12.2
X14.4Y-11.9
X14.4Y-12.2
X14.5Y-11.9
X14.5Y-12.2
X14.6Y-11.9
X14.6Y-12.2
X15.1Y-4.3
X15.1Y-4.6
X15.2Y-4.3
X15.2Y-4.6
X14.1Y-12.4
X14.1Y-12.7
X14.2Y-12.4
X14.2Y-12.7
X14.3Y-12.4
X14.3Y-12.7
X14.4Y-12.4
X14.4Y-12.7
X14.5Y-12.4
X14.5Y-12.7
X14.6Y-12.4
X14.6Y-12.7
X14.7Y-12.4
X14.7Y-12.7
X14.8Y-12.4
X14.8Y-12.7
X14.9Y-12.4
X14.9Y-12.7
X15.0Y-12.4
X15.0Y-12.7
X15.1Y-12.4
X15.1Y-12.7
X15.2Y-12.4
X15.2Y-12.7
X15.3Y-12.4
X15.3Y-12.7
X15.3Y-4.3
X15.3Y-4.6
X15.4Y-4.3
X15.4Y-4.6
X15.5Y-4.3
X15.5Y-4.6
X15.6Y-4.3
X15.6Y-4.6
X15.7Y-4.3
X15.7Y-4.6
X15.8Y-4.3
X15.8Y-4.6
X15.9Y-4.3
X15.9Y-4.6
X16.0Y-4.3
X16.0Y-4.6
X16.5Y-6.7
X16.5Y-7.0
X16.6Y-6.7
X16.6Y-7.0
X16.7Y-6.7
X16.7Y-7.0
X16.8Y-6.7
X16.8Y-7.0
X16.9Y-6.7
X16.9Y-7.0
X17.0Y-6.7
X17.0Y-7.0
X17.1Y-6.7
X17.1Y-7.0
X17.2Y-6.7
X17.2Y-7.0
X17.3Y-6.7
X17.3Y-7.0
X17.4Y-6.7
X17.4Y-7.0
X16.5Y-4.3
X16.5Y-4.6
X16.6Y-4.3
X16.6Y-4.6
X16.7Y-4.3
X16.7Y-4.6
X16.8Y-4.3
X16.8Y-4.6
X16.9Y-4.3
X16.9Y-4.6
X17.0Y-4.3
X17.0Y-4.6
X17.1Y-4.3
X17.1Y-4.6
X17.2Y-4.3
X17.2Y-4.6
X17.3Y-4.3
X17.3Y-4.6
X17.4Y-4.3
X17.4Y-4.6
X12.9Y-9.95
X12.9Y-10.1469
X15.4Y-12.4
X15.4Y-12.7
X9.15Y-6.3531
X9.15Y-6.55
X15.3Y-6.7
X14.1Y-6.7
X14.1Y-7.0
X14.2Y-6.7
X14.2Y-7.0
X14.3Y-6.7
X14.3Y-7.0
X14.4Y-6.7
X14.4Y-7.0
X14.5Y-6.7
X14.5Y-7.0
X14.6Y-6.7
X14.6Y-7.0
X14.7Y-7.0
X14.8Y-6.7
X14.8Y-7.0
X12.9Y-11.45
X12.9Y-11.6469
X8.25Y-11.85
X8.35Y-11.55
X8.35Y-11.85
X8.45Y-11.55
X8.45Y-11.85
X8.55Y-11.55
X8.55Y-11.85
X8.65Y-11.55
X8.65Y-11.85
X8.75Y-11.55
X8.75Y-11.85
X8.85Y-11.55
X8.85Y-11.85
X8.95Y-11.55
X8.95Y-11.85
X9.05Y-11.55
X9.05Y-11.85
X9.15Y-11.55
X15.3Y-7.0
X14.7Y-6.7
X15.4Y-6.7
X15.4Y-7.0
X8.25Y-11.55
X15.5Y-6.7
X15.5Y-7.0
X15.6Y-6.7
X15.6Y-7.0
X15.7Y-6.7
X15.7Y-7.0
X15.8Y-6.7
X15.8Y-7.0
X15.9Y-6.7
X15.9Y-7.0
X16.0Y-6.7
X16.0Y-7.0
X10.8Y-10.2531
X10.8Y-10.45
X10.95Y-12.4
X10.95Y-12.7
X9.15Y-11.85
X14.85Y-11.45
X14.85Y-11.6469
X17.45Y-11.95
X17.45Y-12.1469
X9.4Y-7.1531
X9.4Y-7.35
X17.65Y-5.15
X17.65Y-5.3469
X17.6016Y-11.15
X17.7Y-11.15
X12.9Y-10.95
X12.9Y-11.1469
X9.15Y-5.2531
X9.15Y-5.45
X8.0Y-7.15
X8.0Y-7.3469
X12.65Y-5.95
X12.65Y-6.1469
X17.65Y-6.75
X17.65Y-6.9469
X9.7Y-5.1
X9.7Y-5.2
X9.7Y-5.3
X13.7Y-4.3
X13.7Y-4.6
X13.8Y-4.3
X9.7Y-5.4
X13.8Y-4.6
X13.9Y-4.3
X13.9Y-4.6
X14.0Y-4.3
X9.7Y-5.5
X9.7Y-5.6
X9.7Y-5.7
X9.7Y-5.9
X9.8Y-5.0
X9.8Y-5.1
X9.8Y-5.2
X9.8Y-5.3
X14.0Y-4.6
X14.1Y-4.3
X14.1Y-4.6
X14.2Y-4.3
X14.2Y-4.6
X14.3Y-4.3
X14.4Y-4.3
X14.4Y-4.6
X14.5Y-4.3
X14.5Y-4.6
X14.6Y-4.3
X14.6Y-4.6
X11.7Y-5.1
X11.7Y-5.4
X11.8Y-5.1
X11.8Y-5.4
X11.9Y-5.1
X11.9Y-5.4
X12.0Y-5.1
X12.0Y-5.4
X12.1Y-5.1
X9.7Y-5.8
X12.1Y-5.4
X12.2Y-5.1
X12.2Y-5.4
X12.3Y-5.1
X12.3Y-5.4
X12.4Y-5.1
X12.4Y-5.4
X7.55Y-4.3
X7.55Y-4.6
X7.65Y-4.3
X7.65Y-4.6
X7.75Y-4.3
X7.75Y-4.6
X7.85Y-4.3
X7.85Y-4.6
X7.95Y-4.3
X7.95Y-4.6
X8.05Y-4.3
X8.05Y-4.6
X8.15Y-4.3
X8.15Y-4.6
X8.25Y-4.3
X8.25Y-4.6
X8.35Y-4.3
X8.35Y-4.6
X8.45Y-4.3
X8.45Y-4.6
X11.95Y-10.9
X11.95Y-11.2
X12.05Y-10.9
X12.05Y-11.2
X12.15Y-10.9
X12.15Y-11.2
X12.25Y-10.9
X12.25Y-11.2
X12.35Y-10.9
X12.35Y-11.2
X12.45Y-10.9
X12.45Y-11.2
X12.55Y-10.9
X12.55Y-11.2
X12.65Y-10.9
X12.65Y-11.2
X9.8Y-5.4
X9.8Y-5.5
X9.8Y-5.6
X9.8Y-5.7
X9.8Y-5.8
X9.8Y-5.9
X9.8Y-6.0
X9.9Y-5.0
X9.9Y-5.1
X9.9Y-5.9
X9.9Y-6.0
X10.0Y-5.0
X10.0Y-5.1
X10.0Y-5.9
X10.0Y-6.0
X10.1Y-5.0
X14.3Y-4.6
X10.1Y-5.1
X10.1Y-5.9
X10.1Y-6.0
X10.2Y-5.0
X10.2Y-5.1
X10.2Y-5.9
X10.2Y-6.0
X10.3Y-5.0
X10.3Y-5.1
X10.3Y-5.9
X10.4Y-5.0
X10.4Y-5.1
X10.4Y-5.9
X10.4Y-6.0
X10.5Y-5.0
X10.5Y-5.1
X10.5Y-5.9
X10.5Y-6.0
X10.6Y-5.0
X10.6Y-5.1
X10.6Y-5.2
X10.6Y-5.3
X10.6Y-5.4
X10.6Y-5.5
X10.6Y-5.6
X10.6Y-5.7
X10.6Y-5.8
X10.6Y-5.9
X10.7Y-5.1
X10.7Y-5.2
X10.7Y-5.3
X10.7Y-5.4
X10.7Y-5.5
X10.7Y-5.6
X10.7Y-5.7
X10.7Y-5.8
X10.7Y-5.9
X9.65Y-10.2
X9.65Y-10.5
X9.75Y-10.2
X9.75Y-10.5
X9.85Y-10.2
X9.85Y-10.5
X9.95Y-10.2
X9.95Y-10.5
X10.05Y-10.2
X10.05Y-10.5
X10.15Y-10.2
X10.15Y-10.5
X10.25Y-10.2
X10.25Y-10.5
X10.35Y-10.2
X10.35Y-10.5
X10.45Y-10.2
X10.45Y-10.5
X10.55Y-10.2
X10.55Y-10.5
X8.95Y-4.3
X8.95Y-4.6
X9.05Y-4.3
X9.05Y-4.6
X9.15Y-4.3
X9.15Y-4.6
X9.25Y-4.3
X9.25Y-4.6
X9.35Y-4.3
X9.35Y-4.6
X9.45Y-4.3
X9.45Y-4.6
X9.55Y-4.3
X9.55Y-4.6
X9.65Y-4.3
X9.65Y-4.6
X9.75Y-4.3
X9.75Y-4.6
X9.85Y-4.3
X9.85Y-4.6
X10.05Y-10.95
X10.05Y-11.25
X10.15Y-10.95
X10.15Y-11.25
X10.25Y-10.95
X10.25Y-11.25
X10.35Y-10.95
X10.35Y-11.25
X10.45Y-10.95
X10.45Y-11.25
X10.55Y-10.95
X10.55Y-11.25
X10.65Y-10.95
X10.65Y-11.25
X10.75Y-10.95
X10.75Y-11.25
X10.85Y-10.95
X10.85Y-11.25
X10.95Y-10.95
X10.95Y-11.25
X10.1Y-4.35
X10.1Y-4.5469
X8.25Y-10.2
X10.3Y-6.0
X8.25Y-10.5
X8.35Y-10.2
X10.6Y-6.0
X8.35Y-10.5
X8.45Y-10.2
X8.45Y-10.5
X8.55Y-10.2
X8.55Y-10.5
X8.65Y-10.2
X8.65Y-10.5
X8.75Y-10.2
X8.75Y-10.5
X8.85Y-10.2
X8.85Y-10.5
X8.95Y-10.2
X8.95Y-10.5
X9.05Y-10.2
X9.05Y-10.5
X9.15Y-10.2
X9.15Y-10.5
X15.9Y-12.4
X15.9Y-12.7
X16.0Y-12.4
X16.0Y-12.7
X16.1Y-12.4
X16.1Y-12.7
X16.2Y-12.4
X16.2Y-12.7
X16.3Y-12.4
X16.3Y-12.7
X16.4Y-12.4
X16.4Y-12.7
X16.5Y-12.4
X16.5Y-12.7
X16.6Y-12.4
X16.6Y-12.7
X16.7Y-12.4
X16.7Y-12.7
X16.8Y-12.4
X16.8Y-12.7
X16.9Y-12.4
X16.9Y-12.7
X17.0Y-12.4
X17.0Y-12.7
X17.1Y-12.4
X17.1Y-12.7
X17.2Y-12.4
X17.2Y-12.7
X12.9Y-10.45
X10.5Y-11.6031
X10.5Y-11.8
X15.1Y-11.9
X15.1Y-12.2
X15.2Y-11.9
X15.2Y-12.2
X15.3Y-11.9
X15.3Y-12.2
X12.9Y-10.6469
X15.4Y-11.9
X15.4Y-12.2
X15.5Y-11.9
X15.5Y-12.2
X15.6Y-11.9
X15.6Y-12.2
X15.7Y-11.9
X15.7Y-12.2
X15.8Y-11.9
X15.8Y-12.2
X9.8031Y-6.3
X10.0Y-6.3
X11.75Y-9.1
X11.75Y-9.4
X11.85Y-9.1
X11.85Y-9.4
X11.95Y-9.1
X11.95Y-9.4
X12.05Y-9.1
X12.05Y-9.4
X12.15Y-9.1
X12.15Y-9.4
X12.25Y-9.1
X12.25Y-9.4
X12.35Y-9.1
X12.35Y-9.4
X12.45Y-9.1
X12.45Y-9.4
X12.55Y-9.1
X12.55Y-9.4
X12.65Y-9.1
X12.65Y-9.4
X12.9Y-5.1
X12.9Y-5.4
X13.0Y-5.1
X13.0Y-5.4
X13.1Y-5.1
X13.1Y-5.4
X13.2Y-5.1
X13.2Y-5.4
X13.3Y-5.1
X13.3Y-5.4
X13.4Y-5.1
X13.4Y-5.4
X13.5Y-5.1
X13.5Y-5.4
X13.6Y-5.1
X13.6Y-5.4
X12.9Y-8.35
X12.9Y-8.5469
T4
X12.0Y-12.45
X12.1Y-12.45
T5
X9.95Y-8.4
X9.95Y-8.5
X9.95Y-8.6
X9.95Y-8.7
X9.95Y-8.8
X10.05Y-8.3
X10.05Y-8.4
X10.05Y-8.5
X10.05Y-8.6
X10.05Y-8.7
X10.05Y-8.8
X10.05Y-8.9
X10.15Y-8.3
X10.15Y-8.4
X10.15Y-8.8
X10.15Y-8.9
X10.25Y-8.3
X10.25Y-8.4
X10.25Y-8.8
X10.25Y-8.9
X10.35Y-8.3
X10.35Y-8.4
X10.35Y-8.5
X10.35Y-8.6
X10.35Y-8.7
X10.35Y-8.8
X10.35Y-8.9
X10.45Y-8.4
X10.45Y-8.4
X10.45Y-8.5
X10.45Y-8.6
X10.45Y-8.7
X10.45Y-8.8
X9.1Y-8.4
X9.1Y-8.5
X9.1Y-8.6
X9.1Y-8.7
X9.1Y-8.8
X9.2Y-8.3
X9.2Y-8.4
X9.2Y-8.5
X9.2Y-8.6
X9.2Y-8.7
X9.2Y-8.8
X9.2Y-8.9
X9.3Y-8.3
X9.3Y-8.4
X9.3Y-8.8
X9.3Y-8.9
X9.4Y-8.3
X9.4Y-8.4
X9.4Y-8.8
X9.4Y-8.9
X9.5Y-8.3
X9.5Y-8.4
X9.5Y-8.5
X9.5Y-8.6
X9.5Y-8.7
X9.5Y-8.8
X9.5Y-8.9
X9.6Y-8.4
X9.6Y-8.4
X9.6Y-8.5
X9.6Y-8.6
X9.6Y-8.7
X9.6Y-8.8
X8.25Y-8.4
X8.25Y-8.5
X8.25Y-8.6
X8.25Y-8.7
X8.25Y-8.8
X8.35Y-8.3
X8.35Y-8.4
X8.35Y-8.5
X8.35Y-8.6
X8.35Y-8.7
X8.35Y-8.8
X8.35Y-8.9
X8.45Y-8.3
X8.45Y-8.4
X8.45Y-8.8
X8.45Y-8.9
X8.55Y-8.3
X8.55Y-8.4
X8.55Y-8.8
X8.55Y-8.9
X8.65Y-8.3
X8.65Y-8.4
X8.65Y-8.5
X8.65Y-8.6
X8.65Y-8.7
X8.65Y-8.8
X8.65Y-8.9
X8.75Y-8.4
X8.75Y-8.4
X8.75Y-8.5
X8.75Y-8.6
X8.75Y-8.7
X8.75Y-8.8
X7.4Y-8.4
X7.4Y-8.5
X7.4Y-8.6
X7.4Y-8.7
X7.4Y-8.8
X7.5Y-8.3
X7.5Y-8.4
X7.5Y-8.5
X7.5Y-8.6
X7.5Y-8.7
X7.5Y-8.8
X7.5Y-8.9
X7.6Y-8.3
X7.6Y-8.4
X7.6Y-8.8
X7.6Y-8.9
X7.7Y-8.3
X7.7Y-8.4
X7.7Y-8.8
X7.7Y-8.9
X7.8Y-8.3
X7.8Y-8.4
X7.8Y-8.5
X7.8Y-8.6
X7.8Y-8.7
X7.8Y-8.8
X7.8Y-8.9
X7.9Y-8.4
X7.9Y-8.4
X7.9Y-8.5
X7.9Y-8.6
X7.9Y-8.7
X7.9Y-8.8
T6
X11.85Y-9.6
X11.95Y-9.6
X12.05Y-9.6
X12.15Y-9.6
X12.25Y-9.6
X12.35Y-9.6
X12.45Y-9.6
X12.55Y-9.6
X12.65Y-9.6
X16.6Y-6.5
X16.7Y-6.5
X16.8Y-6.5
X15.9Y-5.7
X13.8Y-9.35
X13.8Y-9.45
X11.2Y-9.75
X11.2Y-9.85
X11.2Y-9.95
X11.2Y-10.05
X11.2Y-10.15
X11.85Y-8.0
X11.95Y-8.0
X12.05Y-8.0
X12.15Y-8.0
X12.25Y-8.0
X12.35Y-8.0
X12.45Y-8.0
X12.55Y-8.0
X12.65Y-8.0
X16.0Y-5.7
X16.1Y-5.7
X16.2Y-5.7
X16.3Y-5.7
X16.4Y-5.7
X16.5Y-5.7
X16.6Y-5.7
X16.8Y-5.7
X16.9Y-5.7
X17.0Y-5.7
X17.1Y-5.7
X17.2Y-5.7
X8.85Y-12.05
X17.0Y-6.5
X17.1Y-6.5
X8.65Y-12.05
X8.75Y-12.05
X8.95Y-12.05
X9.05Y-12.05
X9.15Y-12.05
X17.3Y-5.7
X16.9Y-6.5
X8.35Y-12.05
X8.45Y-12.05
X8.55Y-12.05
X17.4Y-5.7
X17.2Y-6.5
X17.3Y-6.5
X17.4Y-6.5
X13.9Y-9.35
X16.7Y-5.7
X13.9Y-9.45
X14.0Y-9.35
X14.0Y-9.45
X14.1Y-9.35
X14.1Y-9.45
X14.2Y-9.35
X14.2Y-9.45
X14.3Y-9.35
X14.3Y-9.45
X14.4Y-9.35
X14.4Y-9.45
X14.5Y-9.35
X14.5Y-9.45
X14.6Y-9.35
X14.6Y-9.45
X14.7Y-9.35
X14.7Y-9.45
X14.8Y-9.35
X14.8Y-9.45
X14.9Y-9.35
X14.9Y-9.45
X15.0Y-9.35
X15.0Y-9.45
X15.1Y-9.35
X15.1Y-9.45
X15.2Y-9.35
X15.2Y-9.45
X15.8Y-5.7
X15.3Y-9.35
X15.3Y-9.45
X15.4Y-9.35
X15.4Y-9.45
X15.5Y-9.35
X15.5Y-9.45
X15.6Y-9.35
X15.6Y-9.45
X15.7Y-9.35
X15.7Y-9.45
X15.8Y-9.35
X15.8Y-9.45
X15.9Y-9.35
X15.9Y-9.45
X16.0Y-9.35
X16.0Y-9.45
X16.1Y-9.35
X16.1Y-9.45
X16.2Y-9.35
X16.2Y-9.45
X16.3Y-9.35
X16.3Y-9.45
X16.4Y-9.35
X16.4Y-9.45
X16.5Y-9.35
X16.5Y-9.45
X16.6Y-9.35
X16.6Y-9.45
X16.7Y-9.35
X16.7Y-9.45
X16.8Y-9.35
X16.8Y-9.45
X16.9Y-9.35
X16.9Y-9.45
X17.0Y-9.35
X17.0Y-9.45
X17.1Y-9.35
X17.1Y-9.45
X17.2Y-9.35
X17.2Y-9.45
X17.3Y-9.35
X17.3Y-9.45
X17.4Y-9.35
X17.4Y-9.45
X17.5Y-9.35
X17.5Y-9.45
X17.6Y-9.35
X17.6Y-9.45
X17.7Y-9.35
X17.7Y-9.45
X13.8Y-8.15
X13.8Y-8.25
X13.9Y-8.15
X13.9Y-8.25
X14.0Y-8.15
X14.0Y-8.25
X14.1Y-8.15
X14.1Y-8.25
X14.2Y-8.15
X14.2Y-8.25
X14.3Y-8.15
X14.3Y-8.25
X14.4Y-8.15
X14.4Y-8.25
X14.5Y-8.15
X14.6Y-8.15
X14.6Y-8.25
X14.7Y-8.15
X14.7Y-8.25
X14.8Y-8.15
X14.8Y-8.25
X14.9Y-8.25
X15.0Y-8.15
X15.0Y-8.25
X15.1Y-8.15
X15.1Y-8.25
X15.2Y-8.15
X15.2Y-8.25
X15.3Y-8.15
X15.3Y-8.25
X15.4Y-8.15
X15.4Y-8.25
X7.05Y-6.15
X14.9Y-8.15
X7.05Y-6.75
X7.15Y-6.15
X7.15Y-6.75
X7.25Y-6.15
X7.25Y-6.75
X7.35Y-6.15
X7.35Y-6.75
X7.45Y-6.15
X7.45Y-6.75
X7.55Y-6.15
X7.55Y-6.75
X7.65Y-6.15
X14.5Y-8.25
X7.65Y-6.75
X7.75Y-6.15
X7.75Y-6.75
X7.85Y-6.15
X7.85Y-6.75
X7.95Y-6.15
X7.95Y-6.75
X8.05Y-6.15
X8.05Y-6.75
X8.15Y-6.15
X8.15Y-6.75
X15.5Y-8.15
X15.5Y-8.25
X15.6Y-8.15
X15.6Y-8.25
X15.7Y-8.15
X15.7Y-8.25
X15.8Y-8.15
X15.8Y-8.25
X15.9Y-8.15
X15.9Y-8.25
X16.0Y-8.15
X16.0Y-8.25
X16.1Y-8.15
X16.1Y-8.25
X16.2Y-8.15
X16.2Y-8.25
X16.3Y-8.15
X16.3Y-8.25
X16.4Y-8.15
X16.4Y-8.25
X16.5Y-8.15
X16.5Y-8.25
X16.6Y-8.15
X16.6Y-8.25
X16.7Y-8.15
X16.7Y-8.25
X16.8Y-8.15
X16.8Y-8.25
X16.9Y-8.15
X16.9Y-8.25
X17.0Y-8.15
X17.0Y-8.25
X17.1Y-8.15
X17.1Y-8.25
X17.2Y-8.15
X17.2Y-8.25
X17.3Y-8.15
X17.3Y-8.25
X17.4Y-8.15
X17.4Y-8.25
X17.5Y-8.15
X17.5Y-8.25
X17.6Y-8.15
X17.6Y-8.25
X17.7Y-8.15
X17.7Y-8.25
X11.85Y-7.2
X11.95Y-7.2
X12.05Y-7.2
X12.15Y-7.2
X12.25Y-7.2
X12.35Y-7.2
X12.45Y-7.2
X12.55Y-7.2
X12.65Y-7.2
X15.6Y-11.15
X15.7Y-11.15
X15.8Y-11.15
X15.9Y-11.15
X16.1Y-11.15
X16.2Y-11.15
X16.3Y-11.15
X16.4Y-11.15
X16.5Y-11.15
X16.6Y-11.15
X16.7Y-11.15
X16.8Y-11.15
X16.9Y-11.15
X17.0Y-11.15
X17.1Y-11.15
X17.2Y-11.15
X8.25Y-6.15
X8.25Y-6.75
X8.35Y-6.15
X8.35Y-6.75
X8.45Y-6.15
X8.45Y-6.75
X8.55Y-6.15
X8.55Y-6.75
X8.35Y-10.0
X8.45Y-10.0
X8.55Y-10.0
X8.65Y-10.0
X8.75Y-10.0
X8.85Y-10.0
X9.05Y-10.0
X9.15Y-10.0
X13.8Y-9.95
X13.8Y-10.05
X13.9Y-9.95
X13.9Y-10.05
X14.0Y-9.95
X14.0Y-10.05
X14.1Y-9.95
X14.1Y-10.05
X14.2Y-9.95
X14.2Y-10.05
X14.3Y-9.95
X14.3Y-10.05
X14.4Y-9.95
X7.05Y-5.05
X7.05Y-5.65
X7.15Y-5.05
X7.15Y-5.65
X7.25Y-5.05
X7.25Y-5.65
X7.35Y-5.05
X7.35Y-5.65
X7.45Y-5.05
X7.45Y-5.65
X7.55Y-5.05
X7.55Y-5.65
X7.65Y-5.05
X7.65Y-5.65
X7.75Y-5.05
X7.75Y-5.65
X7.85Y-5.05
X7.85Y-5.65
X7.95Y-5.05
X7.95Y-5.65
X8.05Y-5.05
X8.05Y-5.65
X8.15Y-5.05
X8.15Y-5.65
X8.25Y-5.05
X8.25Y-5.65
X8.35Y-5.05
X8.35Y-5.65
X8.45Y-5.05
X8.45Y-5.65
X8.55Y-5.05
X8.55Y-5.65
X11.85Y-8.8
X11.95Y-8.8
X12.05Y-8.8
X12.15Y-8.8
X12.25Y-8.8
X12.35Y-8.8
X12.45Y-8.8
X12.55Y-8.8
X12.65Y-8.8
X9.75Y-10.0
X9.85Y-10.0
X9.95Y-10.0
X10.05Y-10.0
X10.15Y-10.0
X10.25Y-10.0
X10.35Y-10.0
X10.45Y-10.0
X10.55Y-10.0
X13.8Y-10.55
X13.8Y-10.65
X13.9Y-10.55
X13.9Y-10.65
X14.0Y-10.55
X14.0Y-10.65
X14.1Y-10.55
X14.1Y-10.65
X14.2Y-10.55
X14.2Y-10.65
X14.3Y-10.55
X14.3Y-10.65
X14.4Y-10.55
X14.4Y-10.65
X14.5Y-10.55
X14.5Y-10.65
X14.6Y-10.55
X14.6Y-10.65
X14.7Y-10.55
X14.7Y-10.65
X14.8Y-10.55
X14.8Y-10.65
X14.9Y-10.55
X14.9Y-10.65
X15.0Y-10.55
X15.0Y-10.65
X15.1Y-10.55
X15.1Y-10.65
X15.2Y-10.55
X15.2Y-10.65
X15.3Y-10.55
X15.3Y-10.65
X15.4Y-10.55
X15.4Y-10.65
X15.5Y-10.55
X15.5Y-10.65
X15.6Y-10.55
X15.6Y-10.65
X15.7Y-10.55
X15.7Y-10.65
X15.8Y-10.55
X15.8Y-10.65
X15.9Y-10.55
X15.9Y-10.65
X16.0Y-10.55
X16.0Y-10.65
X16.1Y-10.55
X16.1Y-10.65
X16.2Y-10.55
X16.2Y-10.65
X16.3Y-10.55
X16.3Y-10.65
X16.4Y-10.55
X16.4Y-10.65
X16.5Y-10.55
X16.5Y-10.65
X16.6Y-10.55
X16.6Y-10.65
X16.7Y-10.55
X16.7Y-10.65
X16.8Y-10.55
X16.8Y-10.65
X16.9Y-10.55
X16.9Y-10.65
X17.0Y-10.55
X17.0Y-10.65
X17.1Y-10.55
X17.1Y-10.65
X17.2Y-10.55
X17.2Y-10.65
X17.3Y-10.55
X17.3Y-10.65
X17.4Y-10.55
X17.4Y-10.65
X17.5Y-10.55
X17.5Y-10.65
X17.6Y-10.55
X17.6Y-10.65
X17.7Y-10.55
X17.7Y-10.65
X13.8Y-8.75
X13.8Y-8.85
X13.9Y-8.75
X13.9Y-8.85
X14.0Y-8.75
X14.0Y-8.85
X14.1Y-8.75
X14.1Y-8.85
X14.2Y-8.75
X14.2Y-8.85
X14.3Y-8.75
X14.3Y-8.85
X14.4Y-8.75
X14.4Y-8.85
X14.5Y-8.75
X14.5Y-8.85
X14.6Y-8.75
X14.6Y-8.85
X14.7Y-8.75
X14.7Y-8.85
X14.8Y-8.75
X14.8Y-8.85
X14.9Y-8.75
X14.9Y-8.85
X15.0Y-8.75
X15.0Y-8.85
X15.1Y-8.75
X15.1Y-8.85
X15.2Y-8.75
X15.2Y-8.85
X15.3Y-8.75
X15.3Y-8.85
X15.4Y-8.75
X15.4Y-8.85
X15.5Y-8.75
X15.5Y-8.85
X15.6Y-8.75
X15.6Y-8.85
X15.7Y-8.75
X15.7Y-8.85
X15.8Y-8.75
X15.8Y-8.85
X15.9Y-8.75
X15.9Y-8.85
X16.0Y-8.75
X16.0Y-8.85
X16.1Y-8.75
X16.1Y-8.85
X16.2Y-8.75
X16.2Y-8.85
X16.3Y-8.75
X16.3Y-8.85
X16.4Y-8.75
X16.4Y-8.85
X16.5Y-8.75
X16.5Y-8.85
X16.6Y-8.75
X16.6Y-8.85
X16.7Y-8.75
X16.7Y-8.85
X16.8Y-8.75
X16.8Y-8.85
X16.9Y-8.75
X16.9Y-8.85
X17.0Y-8.75
X17.0Y-8.85
X17.1Y-8.75
X17.1Y-8.85
X8.95Y-10.0
X17.2Y-8.75
X17.3Y-8.75
X17.3Y-8.85
X17.4Y-8.75
X17.4Y-8.85
X17.5Y-8.75
X17.5Y-8.85
X17.6Y-8.75
X17.6Y-8.85
X17.7Y-8.75
X17.7Y-8.85
X10.15Y-12.05
X10.25Y-12.05
X10.35Y-12.05
X14.4Y-10.05
X17.2Y-8.85
X14.5Y-9.95
X14.5Y-10.05
X14.6Y-9.95
X14.6Y-10.05
X14.7Y-9.95
X14.7Y-10.05
X14.8Y-9.95
X14.8Y-10.05
X14.9Y-9.95
X14.9Y-10.05
X15.0Y-9.95
X15.0Y-10.05
X15.1Y-9.95
X10.45Y-12.05
X16.0Y-11.15
X10.55Y-12.05
X10.65Y-12.05
X10.75Y-12.05
X10.85Y-12.05
X10.95Y-12.05
X15.8Y-4.1
X15.9Y-4.1
X16.0Y-4.1
X16.1Y-4.1
X16.2Y-4.1
X16.3Y-4.1
X16.4Y-4.1
X16.5Y-4.1
X16.6Y-4.1
X16.7Y-4.1
X16.8Y-4.1
X16.9Y-4.1
X17.0Y-4.1
X17.1Y-4.1
X17.2Y-4.1
X17.3Y-4.1
X17.4Y-4.1
X15.1Y-10.05
X15.2Y-9.95
X15.2Y-10.05
X15.3Y-9.95
X15.3Y-10.05
X15.4Y-9.95
X15.4Y-10.05
X15.5Y-9.95
X15.5Y-10.05
X15.6Y-9.95
X15.6Y-10.05
X15.7Y-9.95
X15.7Y-10.05
X15.8Y-9.95
X15.8Y-10.05
X15.9Y-9.95
X15.9Y-10.05
X16.0Y-9.95
X16.0Y-10.05
X16.1Y-9.95
X16.1Y-10.05
X16.2Y-9.95
X16.2Y-10.05
X16.3Y-9.95
X16.3Y-10.05
X16.4Y-9.95
X16.4Y-10.05
X16.5Y-9.95
X16.5Y-10.05
X16.6Y-9.95
X16.6Y-10.05
X16.7Y-9.95
X16.7Y-10.05
X16.8Y-9.95
X16.8Y-10.05
X16.9Y-9.95
X16.9Y-10.05
X17.0Y-9.95
X17.0Y-10.05
X17.1Y-9.95
X17.1Y-10.05
X17.2Y-9.95
X17.2Y-10.05
X17.3Y-9.95
X17.3Y-10.05
X17.4Y-9.95
X17.4Y-10.05
X17.5Y-9.95
X17.5Y-10.05
X17.6Y-9.95
X17.6Y-10.05
X17.7Y-9.95
X17.7Y-10.05
X15.8Y-4.9
X15.9Y-4.9
X16.0Y-4.9
X16.1Y-4.9
X16.2Y-4.9
X16.3Y-4.9
X16.4Y-4.9
X16.5Y-4.9
X16.6Y-4.9
X16.7Y-4.9
X16.8Y-4.9
X16.9Y-4.9
X17.0Y-4.9
X17.1Y-4.9
X17.2Y-4.9
X17.3Y-4.9
X17.4Y-4.9
X10.15Y-10.8
X10.25Y-10.8
X10.35Y-10.8
X10.45Y-10.8
X13.8Y-7.5
X13.9Y-7.5
X13.9Y-7.6
X14.0Y-7.5
X14.0Y-7.6
X14.1Y-7.5
X14.1Y-7.6
X14.2Y-7.5
X14.2Y-7.6
X14.3Y-7.5
X14.3Y-7.6
X14.4Y-7.5
X10.55Y-10.8
X13.8Y-7.6
X10.65Y-10.8
X10.75Y-10.8
X10.85Y-10.8
X10.95Y-10.8
X8.35Y-7.6
X8.45Y-7.6
X8.55Y-7.6
X8.65Y-7.6
X8.75Y-7.6
X8.85Y-7.6
X8.95Y-7.6
X9.05Y-7.6
X9.15Y-7.6
X14.4Y-7.6
X14.5Y-7.5
X14.5Y-7.6
X14.6Y-7.5
X14.6Y-7.6
X14.7Y-7.5
X14.7Y-7.6
X14.8Y-7.5
X14.8Y-7.6
X14.9Y-7.5
X14.9Y-7.6
X15.0Y-7.5
X15.0Y-7.6
X15.1Y-7.5
X15.1Y-7.6
X15.2Y-7.5
X15.2Y-7.6
X15.3Y-7.5
X15.3Y-7.6
X15.4Y-7.5
X15.4Y-7.6
X15.5Y-7.5
X15.5Y-7.6
X15.6Y-7.5
X15.6Y-7.6
X15.7Y-7.5
X15.7Y-7.6
X15.8Y-7.5
X15.8Y-7.6
X15.9Y-7.5
X15.9Y-7.6
X16.0Y-7.5
X16.0Y-7.6
X16.1Y-7.5
X16.1Y-7.6
X16.2Y-7.5
X16.2Y-7.6
X16.3Y-7.5
X16.3Y-7.6
X16.4Y-7.5
X16.4Y-7.6
X16.5Y-7.5
X16.5Y-7.6
X16.6Y-7.5
X16.6Y-7.6
X16.7Y-7.5
X16.7Y-7.6
X16.8Y-7.5
X16.8Y-7.6
X16.9Y-7.5
X16.9Y-7.6
X17.0Y-7.5
X17.0Y-7.6
X17.1Y-7.5
X17.1Y-7.6
X17.2Y-7.5
X17.2Y-7.6
X17.3Y-7.5
X17.3Y-7.6
X17.4Y-7.5
X17.4Y-7.6
X17.5Y-7.5
X17.5Y-7.6
X17.6Y-7.5
X17.6Y-7.6
X17.7Y-7.5
X17.7Y-7.6
X6.95Y-7.6
X7.05Y-7.6
X7.15Y-7.6
X7.25Y-7.6
X7.35Y-7.6
X7.45Y-7.6
X7.55Y-7.6
X7.65Y-7.6
X7.75Y-7.6
X6.95Y-10.0
X7.05Y-10.0
X7.15Y-10.0
X7.25Y-10.0
X7.35Y-10.0
X7.45Y-10.0
X7.55Y-10.0
X7.65Y-10.0
X7.75Y-10.0
T7
X12.35Y-12.3957
X12.35Y-12.5728
X12.6059Y-12.3957
X12.6059Y-12.5728
T8
X18.0242Y-11.5531
X18.0242Y-11.75
T9
X17.9992Y-12.95
X12.3Y-12.95
X13.15Y-8.68
X6.6Y-12.95
X6.6Y-8.7
X18.0Y-3.85
X12.3Y-3.85
X18.0Y-8.7
X6.6Y-3.85
T10
X18.0637Y-12.27
T6
G00X17.7093Y-12.3094
M15
G01X17.7093Y-12.2306
M16
G05
G00X17.9456Y-12.2956
M15
G01X17.9456Y-12.2444
M16
G05
G00X17.9554Y-12.0928
M15
G01X18.0144Y-12.0928
M16
G05
G00X17.9554Y-12.4472
M15
G01X18.0144Y-12.4472
M16
G05
T0
M30
