G04 #@! TF.GenerationSoftware,KiCad,Pcbnew,(5.1.0-0)*
G04 #@! TF.CreationDate,2019-12-02T00:29:50-08:00*
G04 #@! TF.ProjectId,MainBoard,4d61696e-426f-4617-9264-2e6b69636164,rev?*
G04 #@! TF.SameCoordinates,Original*
G04 #@! TF.FileFunction,Soldermask,Top*
G04 #@! TF.FilePolarity,Negative*
%FSLAX46Y46*%
G04 Gerber Fmt 4.6, Leading zero omitted, Abs format (unit mm)*
G04 Created by KiCad (PCBNEW (5.1.0-0)) date 2019-12-02 00:29:50*
%MOMM*%
%LPD*%
G04 APERTURE LIST*
%ADD10O,1.600000X1.600000*%
%ADD11C,1.600000*%
%ADD12C,6.400000*%
%ADD13O,1.700000X1.700000*%
%ADD14R,1.700000X1.700000*%
%ADD15R,1.600000X1.600000*%
%ADD16O,2.000000X1.440000*%
%ADD17R,2.000000X1.440000*%
%ADD18R,1.300000X1.300000*%
%ADD19C,1.300000*%
%ADD20C,2.000000*%
%ADD21C,1.800000*%
%ADD22R,1.800000X1.800000*%
%ADD23R,4.000000X2.000000*%
%ADD24O,3.300000X2.000000*%
%ADD25O,2.000000X3.500000*%
%ADD26C,2.500000*%
%ADD27R,2.500000X2.500000*%
%ADD28C,1.422400*%
%ADD29R,1.422400X1.422400*%
G04 APERTURE END LIST*
D10*
X308610000Y-91440000D03*
D11*
X308610000Y-99060000D03*
D10*
X237490000Y-123190000D03*
D11*
X237490000Y-115570000D03*
X314960000Y-97710000D03*
X314960000Y-92710000D03*
X237490000Y-130730000D03*
X237490000Y-125730000D03*
D12*
X373380000Y-45720000D03*
X373380000Y-267970000D03*
D13*
X394970000Y-72390000D03*
X394970000Y-74930000D03*
X397510000Y-72390000D03*
X397510000Y-74930000D03*
X400050000Y-72390000D03*
X400050000Y-74930000D03*
X402590000Y-72390000D03*
X402590000Y-74930000D03*
X405130000Y-72390000D03*
X405130000Y-74930000D03*
X407670000Y-72390000D03*
X407670000Y-74930000D03*
X410210000Y-72390000D03*
X410210000Y-74930000D03*
X412750000Y-72390000D03*
X412750000Y-74930000D03*
X415290000Y-72390000D03*
X415290000Y-74930000D03*
X417830000Y-72390000D03*
X417830000Y-74930000D03*
X420370000Y-72390000D03*
X420370000Y-74930000D03*
X422910000Y-72390000D03*
X422910000Y-74930000D03*
X425450000Y-72390000D03*
X425450000Y-74930000D03*
X427990000Y-72390000D03*
X427990000Y-74930000D03*
X430530000Y-72390000D03*
X430530000Y-74930000D03*
X433070000Y-72390000D03*
X433070000Y-74930000D03*
X435610000Y-72390000D03*
X435610000Y-74930000D03*
X438150000Y-72390000D03*
X438150000Y-74930000D03*
X440690000Y-72390000D03*
X440690000Y-74930000D03*
X443230000Y-72390000D03*
X443230000Y-74930000D03*
X445770000Y-72390000D03*
X445770000Y-74930000D03*
X448310000Y-72390000D03*
X448310000Y-74930000D03*
X450850000Y-72390000D03*
X450850000Y-74930000D03*
X453390000Y-72390000D03*
X453390000Y-74930000D03*
X455930000Y-72390000D03*
X455930000Y-74930000D03*
X458470000Y-72390000D03*
X458470000Y-74930000D03*
X461010000Y-72390000D03*
X461010000Y-74930000D03*
X463550000Y-72390000D03*
X463550000Y-74930000D03*
X466090000Y-72390000D03*
X466090000Y-74930000D03*
X468630000Y-72390000D03*
X468630000Y-74930000D03*
X471170000Y-72390000D03*
X471170000Y-74930000D03*
X473710000Y-72390000D03*
X473710000Y-74930000D03*
X476250000Y-72390000D03*
X476250000Y-74930000D03*
X478790000Y-72390000D03*
X478790000Y-74930000D03*
X481330000Y-72390000D03*
X481330000Y-74930000D03*
X483870000Y-72390000D03*
X483870000Y-74930000D03*
X486410000Y-72390000D03*
X486410000Y-74930000D03*
X488950000Y-72390000D03*
X488950000Y-74930000D03*
X491490000Y-72390000D03*
X491490000Y-74930000D03*
X494030000Y-72390000D03*
D14*
X494030000Y-74930000D03*
D10*
X417830000Y-115570000D03*
X394970000Y-107950000D03*
X415290000Y-115570000D03*
X397510000Y-107950000D03*
X412750000Y-115570000D03*
X400050000Y-107950000D03*
X410210000Y-115570000D03*
X402590000Y-107950000D03*
X407670000Y-115570000D03*
X405130000Y-107950000D03*
X405130000Y-115570000D03*
X407670000Y-107950000D03*
X402590000Y-115570000D03*
X410210000Y-107950000D03*
X400050000Y-115570000D03*
X412750000Y-107950000D03*
X397510000Y-115570000D03*
X415290000Y-107950000D03*
X394970000Y-115570000D03*
D15*
X417830000Y-107950000D03*
D10*
X417830000Y-64770000D03*
X394970000Y-57150000D03*
X415290000Y-64770000D03*
X397510000Y-57150000D03*
X412750000Y-64770000D03*
X400050000Y-57150000D03*
X410210000Y-64770000D03*
X402590000Y-57150000D03*
X407670000Y-64770000D03*
X405130000Y-57150000D03*
X405130000Y-64770000D03*
X407670000Y-57150000D03*
X402590000Y-64770000D03*
X410210000Y-57150000D03*
X400050000Y-64770000D03*
X412750000Y-57150000D03*
X397510000Y-64770000D03*
X415290000Y-57150000D03*
X394970000Y-64770000D03*
D15*
X417830000Y-57150000D03*
D10*
X453390000Y-156210000D03*
X430530000Y-148590000D03*
X450850000Y-156210000D03*
X433070000Y-148590000D03*
X448310000Y-156210000D03*
X435610000Y-148590000D03*
X445770000Y-156210000D03*
X438150000Y-148590000D03*
X443230000Y-156210000D03*
X440690000Y-148590000D03*
X440690000Y-156210000D03*
X443230000Y-148590000D03*
X438150000Y-156210000D03*
X445770000Y-148590000D03*
X435610000Y-156210000D03*
X448310000Y-148590000D03*
X433070000Y-156210000D03*
X450850000Y-148590000D03*
X430530000Y-156210000D03*
D15*
X453390000Y-148590000D03*
D10*
X417830000Y-156210000D03*
X394970000Y-148590000D03*
X415290000Y-156210000D03*
X397510000Y-148590000D03*
X412750000Y-156210000D03*
X400050000Y-148590000D03*
X410210000Y-156210000D03*
X402590000Y-148590000D03*
X407670000Y-156210000D03*
X405130000Y-148590000D03*
X405130000Y-156210000D03*
X407670000Y-148590000D03*
X402590000Y-156210000D03*
X410210000Y-148590000D03*
X400050000Y-156210000D03*
X412750000Y-148590000D03*
X397510000Y-156210000D03*
X415290000Y-148590000D03*
X394970000Y-156210000D03*
D15*
X417830000Y-148590000D03*
D13*
X433070000Y-143510000D03*
X435610000Y-143510000D03*
X438150000Y-143510000D03*
X440690000Y-143510000D03*
X443230000Y-143510000D03*
X445770000Y-143510000D03*
X448310000Y-143510000D03*
X450850000Y-143510000D03*
D14*
X453390000Y-143510000D03*
D11*
X424180000Y-149940000D03*
X424180000Y-154940000D03*
X459740000Y-149940000D03*
X459740000Y-154940000D03*
D10*
X347980000Y-241300000D03*
D11*
X347980000Y-233680000D03*
D10*
X373380000Y-248920000D03*
D11*
X373380000Y-256540000D03*
X367030000Y-253920000D03*
X367030000Y-248920000D03*
D10*
X285750000Y-64770000D03*
X267970000Y-57150000D03*
X283210000Y-64770000D03*
X270510000Y-57150000D03*
X280670000Y-64770000D03*
X273050000Y-57150000D03*
X278130000Y-64770000D03*
X275590000Y-57150000D03*
X275590000Y-64770000D03*
X278130000Y-57150000D03*
X273050000Y-64770000D03*
X280670000Y-57150000D03*
X270510000Y-64770000D03*
X283210000Y-57150000D03*
X267970000Y-64770000D03*
D15*
X285750000Y-57150000D03*
D12*
X373380000Y-158750000D03*
D13*
X314960000Y-266700000D03*
X314960000Y-264160000D03*
X314960000Y-261620000D03*
X314960000Y-259080000D03*
X314960000Y-256540000D03*
X314960000Y-254000000D03*
X314960000Y-251460000D03*
X314960000Y-248920000D03*
D14*
X314960000Y-246380000D03*
D13*
X295910000Y-266700000D03*
X295910000Y-264160000D03*
X295910000Y-261620000D03*
X295910000Y-259080000D03*
X295910000Y-256540000D03*
X295910000Y-254000000D03*
X295910000Y-251460000D03*
X295910000Y-248920000D03*
D14*
X295910000Y-246380000D03*
D13*
X276860000Y-266700000D03*
X276860000Y-264160000D03*
X276860000Y-261620000D03*
X276860000Y-259080000D03*
X276860000Y-256540000D03*
X276860000Y-254000000D03*
X276860000Y-251460000D03*
X276860000Y-248920000D03*
D14*
X276860000Y-246380000D03*
D13*
X257810000Y-266700000D03*
X257810000Y-264160000D03*
X257810000Y-261620000D03*
X257810000Y-259080000D03*
X257810000Y-256540000D03*
X257810000Y-254000000D03*
X257810000Y-251460000D03*
X257810000Y-248920000D03*
D14*
X257810000Y-246380000D03*
D10*
X309880000Y-246380000D03*
X302260000Y-269240000D03*
X309880000Y-248920000D03*
X302260000Y-266700000D03*
X309880000Y-251460000D03*
X302260000Y-264160000D03*
X309880000Y-254000000D03*
X302260000Y-261620000D03*
X309880000Y-256540000D03*
X302260000Y-259080000D03*
X309880000Y-259080000D03*
X302260000Y-256540000D03*
X309880000Y-261620000D03*
X302260000Y-254000000D03*
X309880000Y-264160000D03*
X302260000Y-251460000D03*
X309880000Y-266700000D03*
X302260000Y-248920000D03*
X309880000Y-269240000D03*
D15*
X302260000Y-246380000D03*
D10*
X290830000Y-246380000D03*
X283210000Y-269240000D03*
X290830000Y-248920000D03*
X283210000Y-266700000D03*
X290830000Y-251460000D03*
X283210000Y-264160000D03*
X290830000Y-254000000D03*
X283210000Y-261620000D03*
X290830000Y-256540000D03*
X283210000Y-259080000D03*
X290830000Y-259080000D03*
X283210000Y-256540000D03*
X290830000Y-261620000D03*
X283210000Y-254000000D03*
X290830000Y-264160000D03*
X283210000Y-251460000D03*
X290830000Y-266700000D03*
X283210000Y-248920000D03*
X290830000Y-269240000D03*
D15*
X283210000Y-246380000D03*
D10*
X271780000Y-246380000D03*
X264160000Y-269240000D03*
X271780000Y-248920000D03*
X264160000Y-266700000D03*
X271780000Y-251460000D03*
X264160000Y-264160000D03*
X271780000Y-254000000D03*
X264160000Y-261620000D03*
X271780000Y-256540000D03*
X264160000Y-259080000D03*
X271780000Y-259080000D03*
X264160000Y-256540000D03*
X271780000Y-261620000D03*
X264160000Y-254000000D03*
X271780000Y-264160000D03*
X264160000Y-251460000D03*
X271780000Y-266700000D03*
X264160000Y-248920000D03*
X271780000Y-269240000D03*
D15*
X264160000Y-246380000D03*
D10*
X252730000Y-246380000D03*
X245110000Y-269240000D03*
X252730000Y-248920000D03*
X245110000Y-266700000D03*
X252730000Y-251460000D03*
X245110000Y-264160000D03*
X252730000Y-254000000D03*
X245110000Y-261620000D03*
X252730000Y-256540000D03*
X245110000Y-259080000D03*
X252730000Y-259080000D03*
X245110000Y-256540000D03*
X252730000Y-261620000D03*
X245110000Y-254000000D03*
X252730000Y-264160000D03*
X245110000Y-251460000D03*
X252730000Y-266700000D03*
X245110000Y-248920000D03*
X252730000Y-269240000D03*
D15*
X245110000Y-246380000D03*
D10*
X334010000Y-210820000D03*
X295910000Y-195580000D03*
X331470000Y-210820000D03*
X298450000Y-195580000D03*
X328930000Y-210820000D03*
X300990000Y-195580000D03*
X326390000Y-210820000D03*
X303530000Y-195580000D03*
X323850000Y-210820000D03*
X306070000Y-195580000D03*
X321310000Y-210820000D03*
X308610000Y-195580000D03*
X318770000Y-210820000D03*
X311150000Y-195580000D03*
X316230000Y-210820000D03*
X313690000Y-195580000D03*
X313690000Y-210820000D03*
X316230000Y-195580000D03*
X311150000Y-210820000D03*
X318770000Y-195580000D03*
X308610000Y-210820000D03*
X321310000Y-195580000D03*
X306070000Y-210820000D03*
X323850000Y-195580000D03*
X303530000Y-210820000D03*
X326390000Y-195580000D03*
X300990000Y-210820000D03*
X328930000Y-195580000D03*
X298450000Y-210820000D03*
X331470000Y-195580000D03*
X295910000Y-210820000D03*
D15*
X334010000Y-195580000D03*
D10*
X334010000Y-233680000D03*
X295910000Y-218440000D03*
X331470000Y-233680000D03*
X298450000Y-218440000D03*
X328930000Y-233680000D03*
X300990000Y-218440000D03*
X326390000Y-233680000D03*
X303530000Y-218440000D03*
X323850000Y-233680000D03*
X306070000Y-218440000D03*
X321310000Y-233680000D03*
X308610000Y-218440000D03*
X318770000Y-233680000D03*
X311150000Y-218440000D03*
X316230000Y-233680000D03*
X313690000Y-218440000D03*
X313690000Y-233680000D03*
X316230000Y-218440000D03*
X311150000Y-233680000D03*
X318770000Y-218440000D03*
X308610000Y-233680000D03*
X321310000Y-218440000D03*
X306070000Y-233680000D03*
X323850000Y-218440000D03*
X303530000Y-233680000D03*
X326390000Y-218440000D03*
X300990000Y-233680000D03*
X328930000Y-218440000D03*
X298450000Y-233680000D03*
X331470000Y-218440000D03*
X295910000Y-233680000D03*
D15*
X334010000Y-218440000D03*
D10*
X283210000Y-210820000D03*
X245110000Y-195580000D03*
X280670000Y-210820000D03*
X247650000Y-195580000D03*
X278130000Y-210820000D03*
X250190000Y-195580000D03*
X275590000Y-210820000D03*
X252730000Y-195580000D03*
X273050000Y-210820000D03*
X255270000Y-195580000D03*
X270510000Y-210820000D03*
X257810000Y-195580000D03*
X267970000Y-210820000D03*
X260350000Y-195580000D03*
X265430000Y-210820000D03*
X262890000Y-195580000D03*
X262890000Y-210820000D03*
X265430000Y-195580000D03*
X260350000Y-210820000D03*
X267970000Y-195580000D03*
X257810000Y-210820000D03*
X270510000Y-195580000D03*
X255270000Y-210820000D03*
X273050000Y-195580000D03*
X252730000Y-210820000D03*
X275590000Y-195580000D03*
X250190000Y-210820000D03*
X278130000Y-195580000D03*
X247650000Y-210820000D03*
X280670000Y-195580000D03*
X245110000Y-210820000D03*
D15*
X283210000Y-195580000D03*
D10*
X283210000Y-233680000D03*
X245110000Y-218440000D03*
X280670000Y-233680000D03*
X247650000Y-218440000D03*
X278130000Y-233680000D03*
X250190000Y-218440000D03*
X275590000Y-233680000D03*
X252730000Y-218440000D03*
X273050000Y-233680000D03*
X255270000Y-218440000D03*
X270510000Y-233680000D03*
X257810000Y-218440000D03*
X267970000Y-233680000D03*
X260350000Y-218440000D03*
X265430000Y-233680000D03*
X262890000Y-218440000D03*
X262890000Y-233680000D03*
X265430000Y-218440000D03*
X260350000Y-233680000D03*
X267970000Y-218440000D03*
X257810000Y-233680000D03*
X270510000Y-218440000D03*
X255270000Y-233680000D03*
X273050000Y-218440000D03*
X252730000Y-233680000D03*
X275590000Y-218440000D03*
X250190000Y-233680000D03*
X278130000Y-218440000D03*
X247650000Y-233680000D03*
X280670000Y-218440000D03*
X245110000Y-233680000D03*
D15*
X283210000Y-218440000D03*
D11*
X289560000Y-223600000D03*
X289560000Y-228600000D03*
X303610000Y-240030000D03*
X308610000Y-240030000D03*
X340360000Y-223600000D03*
X340360000Y-228600000D03*
X340360000Y-200740000D03*
X340360000Y-205740000D03*
X284560000Y-240030000D03*
X289560000Y-240030000D03*
X265510000Y-240030000D03*
X270510000Y-240030000D03*
X289560000Y-200740000D03*
X289560000Y-205740000D03*
X251380000Y-240030000D03*
X246380000Y-240030000D03*
D10*
X382270000Y-64770000D03*
X359410000Y-57150000D03*
X379730000Y-64770000D03*
X361950000Y-57150000D03*
X377190000Y-64770000D03*
X364490000Y-57150000D03*
X374650000Y-64770000D03*
X367030000Y-57150000D03*
X372110000Y-64770000D03*
X369570000Y-57150000D03*
X369570000Y-64770000D03*
X372110000Y-57150000D03*
X367030000Y-64770000D03*
X374650000Y-57150000D03*
X364490000Y-64770000D03*
X377190000Y-57150000D03*
X361950000Y-64770000D03*
X379730000Y-57150000D03*
X359410000Y-64770000D03*
D15*
X382270000Y-57150000D03*
D16*
X300990000Y-184150000D03*
X285750000Y-184150000D03*
X300990000Y-181610000D03*
X285750000Y-181610000D03*
X300990000Y-179070000D03*
X285750000Y-179070000D03*
X300990000Y-176530000D03*
X285750000Y-176530000D03*
X300990000Y-173990000D03*
X285750000Y-173990000D03*
X300990000Y-171450000D03*
X285750000Y-171450000D03*
X300990000Y-168910000D03*
X285750000Y-168910000D03*
X300990000Y-166370000D03*
X285750000Y-166370000D03*
X300990000Y-163830000D03*
X285750000Y-163830000D03*
X300990000Y-161290000D03*
X285750000Y-161290000D03*
X300990000Y-158750000D03*
X285750000Y-158750000D03*
X300990000Y-156210000D03*
X285750000Y-156210000D03*
X300990000Y-153670000D03*
X285750000Y-153670000D03*
X300990000Y-151130000D03*
X285750000Y-151130000D03*
X300990000Y-148590000D03*
X285750000Y-148590000D03*
X300990000Y-146050000D03*
D17*
X285750000Y-146050000D03*
D16*
X328930000Y-184150000D03*
X313690000Y-184150000D03*
X328930000Y-181610000D03*
X313690000Y-181610000D03*
X328930000Y-179070000D03*
X313690000Y-179070000D03*
X328930000Y-176530000D03*
X313690000Y-176530000D03*
X328930000Y-173990000D03*
X313690000Y-173990000D03*
X328930000Y-171450000D03*
X313690000Y-171450000D03*
X328930000Y-168910000D03*
X313690000Y-168910000D03*
X328930000Y-166370000D03*
X313690000Y-166370000D03*
X328930000Y-163830000D03*
X313690000Y-163830000D03*
X328930000Y-161290000D03*
X313690000Y-161290000D03*
X328930000Y-158750000D03*
X313690000Y-158750000D03*
X328930000Y-156210000D03*
X313690000Y-156210000D03*
X328930000Y-153670000D03*
X313690000Y-153670000D03*
X328930000Y-151130000D03*
X313690000Y-151130000D03*
X328930000Y-148590000D03*
X313690000Y-148590000D03*
X328930000Y-146050000D03*
D17*
X313690000Y-146050000D03*
D15*
X364490000Y-208280000D03*
D10*
X346710000Y-215900000D03*
X361950000Y-208280000D03*
X349250000Y-215900000D03*
X359410000Y-208280000D03*
X351790000Y-215900000D03*
X356870000Y-208280000D03*
X354330000Y-215900000D03*
X354330000Y-208280000D03*
X356870000Y-215900000D03*
X351790000Y-208280000D03*
X359410000Y-215900000D03*
X349250000Y-208280000D03*
X361950000Y-215900000D03*
X346710000Y-208280000D03*
X364490000Y-215900000D03*
D15*
X364490000Y-220980000D03*
D10*
X349250000Y-228600000D03*
X361950000Y-220980000D03*
X351790000Y-228600000D03*
X359410000Y-220980000D03*
X354330000Y-228600000D03*
X356870000Y-220980000D03*
X356870000Y-228600000D03*
X354330000Y-220980000D03*
X359410000Y-228600000D03*
X351790000Y-220980000D03*
X361950000Y-228600000D03*
X349250000Y-220980000D03*
X364490000Y-228600000D03*
D15*
X364490000Y-195580000D03*
D10*
X349250000Y-203200000D03*
X361950000Y-195580000D03*
X351790000Y-203200000D03*
X359410000Y-195580000D03*
X354330000Y-203200000D03*
X356870000Y-195580000D03*
X356870000Y-203200000D03*
X354330000Y-195580000D03*
X359410000Y-203200000D03*
X351790000Y-195580000D03*
X361950000Y-203200000D03*
X349250000Y-195580000D03*
X364490000Y-203200000D03*
D18*
X342900000Y-257810000D03*
D19*
X342900000Y-255270000D03*
X341630000Y-256540000D03*
D10*
X364490000Y-241300000D03*
X356870000Y-233680000D03*
X361950000Y-241300000D03*
X359410000Y-233680000D03*
X359410000Y-241300000D03*
X361950000Y-233680000D03*
X356870000Y-241300000D03*
D15*
X364490000Y-233680000D03*
D20*
X336400000Y-248920000D03*
X336400000Y-244420000D03*
X342900000Y-248920000D03*
X342900000Y-244420000D03*
D10*
X351790000Y-255270000D03*
D11*
X351790000Y-247650000D03*
D21*
X360680000Y-251460000D03*
D22*
X358140000Y-251460000D03*
D11*
X370840000Y-209630000D03*
X370840000Y-214630000D03*
X370840000Y-222330000D03*
X370840000Y-227330000D03*
X370840000Y-235030000D03*
X370840000Y-240030000D03*
X370840000Y-196930000D03*
X370840000Y-201930000D03*
X340360000Y-233760000D03*
X340360000Y-238760000D03*
D23*
X353060000Y-270510000D03*
D24*
X353060000Y-264510000D03*
D25*
X357560000Y-263510000D03*
X348560000Y-263510000D03*
D11*
X353060000Y-261510000D03*
D26*
X337773000Y-267462000D03*
D27*
X342773000Y-267462000D03*
D11*
X334550000Y-256540000D03*
D15*
X336550000Y-256540000D03*
D12*
X494030000Y-267970000D03*
X494030000Y-158750000D03*
D13*
X486410000Y-170180000D03*
X483870000Y-170180000D03*
X486410000Y-172720000D03*
X483870000Y-172720000D03*
X486410000Y-175260000D03*
X483870000Y-175260000D03*
X486410000Y-177800000D03*
X483870000Y-177800000D03*
X486410000Y-180340000D03*
X483870000Y-180340000D03*
X486410000Y-182880000D03*
X483870000Y-182880000D03*
X486410000Y-185420000D03*
X483870000Y-185420000D03*
X486410000Y-187960000D03*
X483870000Y-187960000D03*
X486410000Y-190500000D03*
X483870000Y-190500000D03*
X486410000Y-193040000D03*
X483870000Y-193040000D03*
X486410000Y-195580000D03*
X483870000Y-195580000D03*
X486410000Y-198120000D03*
X483870000Y-198120000D03*
X486410000Y-200660000D03*
X483870000Y-200660000D03*
X486410000Y-203200000D03*
X483870000Y-203200000D03*
X486410000Y-205740000D03*
X483870000Y-205740000D03*
X486410000Y-208280000D03*
X483870000Y-208280000D03*
X486410000Y-210820000D03*
X483870000Y-210820000D03*
X486410000Y-213360000D03*
X483870000Y-213360000D03*
X486410000Y-215900000D03*
X483870000Y-215900000D03*
X486410000Y-218440000D03*
X483870000Y-218440000D03*
X486410000Y-220980000D03*
X483870000Y-220980000D03*
X486410000Y-223520000D03*
X483870000Y-223520000D03*
X486410000Y-226060000D03*
X483870000Y-226060000D03*
X486410000Y-228600000D03*
X483870000Y-228600000D03*
X486410000Y-231140000D03*
X483870000Y-231140000D03*
X486410000Y-233680000D03*
X483870000Y-233680000D03*
X486410000Y-236220000D03*
X483870000Y-236220000D03*
X486410000Y-238760000D03*
X483870000Y-238760000D03*
X486410000Y-241300000D03*
X483870000Y-241300000D03*
X486410000Y-243840000D03*
X483870000Y-243840000D03*
X486410000Y-246380000D03*
X483870000Y-246380000D03*
X486410000Y-248920000D03*
X483870000Y-248920000D03*
X486410000Y-251460000D03*
X483870000Y-251460000D03*
X486410000Y-254000000D03*
X483870000Y-254000000D03*
X486410000Y-256540000D03*
X483870000Y-256540000D03*
X486410000Y-259080000D03*
X483870000Y-259080000D03*
X486410000Y-261620000D03*
X483870000Y-261620000D03*
X486410000Y-264160000D03*
X483870000Y-264160000D03*
X486410000Y-266700000D03*
X483870000Y-266700000D03*
X486410000Y-269240000D03*
D14*
X483870000Y-269240000D03*
D13*
X440690000Y-170180000D03*
X438150000Y-170180000D03*
X440690000Y-172720000D03*
X438150000Y-172720000D03*
X440690000Y-175260000D03*
X438150000Y-175260000D03*
X440690000Y-177800000D03*
X438150000Y-177800000D03*
X440690000Y-180340000D03*
X438150000Y-180340000D03*
X440690000Y-182880000D03*
X438150000Y-182880000D03*
X440690000Y-185420000D03*
X438150000Y-185420000D03*
X440690000Y-187960000D03*
X438150000Y-187960000D03*
X440690000Y-190500000D03*
X438150000Y-190500000D03*
X440690000Y-193040000D03*
X438150000Y-193040000D03*
X440690000Y-195580000D03*
X438150000Y-195580000D03*
X440690000Y-198120000D03*
X438150000Y-198120000D03*
X440690000Y-200660000D03*
X438150000Y-200660000D03*
X440690000Y-203200000D03*
X438150000Y-203200000D03*
X440690000Y-205740000D03*
X438150000Y-205740000D03*
X440690000Y-208280000D03*
X438150000Y-208280000D03*
X440690000Y-210820000D03*
X438150000Y-210820000D03*
X440690000Y-213360000D03*
X438150000Y-213360000D03*
X440690000Y-215900000D03*
X438150000Y-215900000D03*
X440690000Y-218440000D03*
X438150000Y-218440000D03*
X440690000Y-220980000D03*
X438150000Y-220980000D03*
X440690000Y-223520000D03*
X438150000Y-223520000D03*
X440690000Y-226060000D03*
X438150000Y-226060000D03*
X440690000Y-228600000D03*
X438150000Y-228600000D03*
X440690000Y-231140000D03*
X438150000Y-231140000D03*
X440690000Y-233680000D03*
X438150000Y-233680000D03*
X440690000Y-236220000D03*
X438150000Y-236220000D03*
X440690000Y-238760000D03*
X438150000Y-238760000D03*
X440690000Y-241300000D03*
X438150000Y-241300000D03*
X440690000Y-243840000D03*
X438150000Y-243840000D03*
X440690000Y-246380000D03*
X438150000Y-246380000D03*
X440690000Y-248920000D03*
X438150000Y-248920000D03*
X440690000Y-251460000D03*
X438150000Y-251460000D03*
X440690000Y-254000000D03*
X438150000Y-254000000D03*
X440690000Y-256540000D03*
X438150000Y-256540000D03*
X440690000Y-259080000D03*
X438150000Y-259080000D03*
X440690000Y-261620000D03*
X438150000Y-261620000D03*
X440690000Y-264160000D03*
X438150000Y-264160000D03*
X440690000Y-266700000D03*
X438150000Y-266700000D03*
X440690000Y-269240000D03*
D14*
X438150000Y-269240000D03*
D13*
X471170000Y-170180000D03*
X468630000Y-170180000D03*
X471170000Y-172720000D03*
X468630000Y-172720000D03*
X471170000Y-175260000D03*
X468630000Y-175260000D03*
X471170000Y-177800000D03*
X468630000Y-177800000D03*
X471170000Y-180340000D03*
X468630000Y-180340000D03*
X471170000Y-182880000D03*
X468630000Y-182880000D03*
X471170000Y-185420000D03*
X468630000Y-185420000D03*
X471170000Y-187960000D03*
X468630000Y-187960000D03*
X471170000Y-190500000D03*
X468630000Y-190500000D03*
X471170000Y-193040000D03*
X468630000Y-193040000D03*
X471170000Y-195580000D03*
X468630000Y-195580000D03*
X471170000Y-198120000D03*
X468630000Y-198120000D03*
X471170000Y-200660000D03*
X468630000Y-200660000D03*
X471170000Y-203200000D03*
X468630000Y-203200000D03*
X471170000Y-205740000D03*
X468630000Y-205740000D03*
X471170000Y-208280000D03*
X468630000Y-208280000D03*
X471170000Y-210820000D03*
X468630000Y-210820000D03*
X471170000Y-213360000D03*
X468630000Y-213360000D03*
X471170000Y-215900000D03*
X468630000Y-215900000D03*
X471170000Y-218440000D03*
X468630000Y-218440000D03*
X471170000Y-220980000D03*
X468630000Y-220980000D03*
X471170000Y-223520000D03*
X468630000Y-223520000D03*
X471170000Y-226060000D03*
X468630000Y-226060000D03*
X471170000Y-228600000D03*
X468630000Y-228600000D03*
X471170000Y-231140000D03*
X468630000Y-231140000D03*
X471170000Y-233680000D03*
X468630000Y-233680000D03*
X471170000Y-236220000D03*
X468630000Y-236220000D03*
X471170000Y-238760000D03*
X468630000Y-238760000D03*
X471170000Y-241300000D03*
X468630000Y-241300000D03*
X471170000Y-243840000D03*
X468630000Y-243840000D03*
X471170000Y-246380000D03*
X468630000Y-246380000D03*
X471170000Y-248920000D03*
X468630000Y-248920000D03*
X471170000Y-251460000D03*
X468630000Y-251460000D03*
X471170000Y-254000000D03*
X468630000Y-254000000D03*
X471170000Y-256540000D03*
X468630000Y-256540000D03*
X471170000Y-259080000D03*
X468630000Y-259080000D03*
X471170000Y-261620000D03*
X468630000Y-261620000D03*
X471170000Y-264160000D03*
X468630000Y-264160000D03*
X471170000Y-266700000D03*
X468630000Y-266700000D03*
X471170000Y-269240000D03*
D14*
X468630000Y-269240000D03*
D13*
X425450000Y-170180000D03*
X422910000Y-170180000D03*
X425450000Y-172720000D03*
X422910000Y-172720000D03*
X425450000Y-175260000D03*
X422910000Y-175260000D03*
X425450000Y-177800000D03*
X422910000Y-177800000D03*
X425450000Y-180340000D03*
X422910000Y-180340000D03*
X425450000Y-182880000D03*
X422910000Y-182880000D03*
X425450000Y-185420000D03*
X422910000Y-185420000D03*
X425450000Y-187960000D03*
X422910000Y-187960000D03*
X425450000Y-190500000D03*
X422910000Y-190500000D03*
X425450000Y-193040000D03*
X422910000Y-193040000D03*
X425450000Y-195580000D03*
X422910000Y-195580000D03*
X425450000Y-198120000D03*
X422910000Y-198120000D03*
X425450000Y-200660000D03*
X422910000Y-200660000D03*
X425450000Y-203200000D03*
X422910000Y-203200000D03*
X425450000Y-205740000D03*
X422910000Y-205740000D03*
X425450000Y-208280000D03*
X422910000Y-208280000D03*
X425450000Y-210820000D03*
X422910000Y-210820000D03*
X425450000Y-213360000D03*
X422910000Y-213360000D03*
X425450000Y-215900000D03*
X422910000Y-215900000D03*
X425450000Y-218440000D03*
X422910000Y-218440000D03*
X425450000Y-220980000D03*
X422910000Y-220980000D03*
X425450000Y-223520000D03*
X422910000Y-223520000D03*
X425450000Y-226060000D03*
X422910000Y-226060000D03*
X425450000Y-228600000D03*
X422910000Y-228600000D03*
X425450000Y-231140000D03*
X422910000Y-231140000D03*
X425450000Y-233680000D03*
X422910000Y-233680000D03*
X425450000Y-236220000D03*
X422910000Y-236220000D03*
X425450000Y-238760000D03*
X422910000Y-238760000D03*
X425450000Y-241300000D03*
X422910000Y-241300000D03*
X425450000Y-243840000D03*
X422910000Y-243840000D03*
X425450000Y-246380000D03*
X422910000Y-246380000D03*
X425450000Y-248920000D03*
X422910000Y-248920000D03*
X425450000Y-251460000D03*
X422910000Y-251460000D03*
X425450000Y-254000000D03*
X422910000Y-254000000D03*
X425450000Y-256540000D03*
X422910000Y-256540000D03*
X425450000Y-259080000D03*
X422910000Y-259080000D03*
X425450000Y-261620000D03*
X422910000Y-261620000D03*
X425450000Y-264160000D03*
X422910000Y-264160000D03*
X425450000Y-266700000D03*
X422910000Y-266700000D03*
X425450000Y-269240000D03*
D14*
X422910000Y-269240000D03*
D13*
X455930000Y-170180000D03*
X453390000Y-170180000D03*
X455930000Y-172720000D03*
X453390000Y-172720000D03*
X455930000Y-175260000D03*
X453390000Y-175260000D03*
X455930000Y-177800000D03*
X453390000Y-177800000D03*
X455930000Y-180340000D03*
X453390000Y-180340000D03*
X455930000Y-182880000D03*
X453390000Y-182880000D03*
X455930000Y-185420000D03*
X453390000Y-185420000D03*
X455930000Y-187960000D03*
X453390000Y-187960000D03*
X455930000Y-190500000D03*
X453390000Y-190500000D03*
X455930000Y-193040000D03*
X453390000Y-193040000D03*
X455930000Y-195580000D03*
X453390000Y-195580000D03*
X455930000Y-198120000D03*
X453390000Y-198120000D03*
X455930000Y-200660000D03*
X453390000Y-200660000D03*
X455930000Y-203200000D03*
X453390000Y-203200000D03*
X455930000Y-205740000D03*
X453390000Y-205740000D03*
X455930000Y-208280000D03*
X453390000Y-208280000D03*
X455930000Y-210820000D03*
X453390000Y-210820000D03*
X455930000Y-213360000D03*
X453390000Y-213360000D03*
X455930000Y-215900000D03*
X453390000Y-215900000D03*
X455930000Y-218440000D03*
X453390000Y-218440000D03*
X455930000Y-220980000D03*
X453390000Y-220980000D03*
X455930000Y-223520000D03*
X453390000Y-223520000D03*
X455930000Y-226060000D03*
X453390000Y-226060000D03*
X455930000Y-228600000D03*
X453390000Y-228600000D03*
X455930000Y-231140000D03*
X453390000Y-231140000D03*
X455930000Y-233680000D03*
X453390000Y-233680000D03*
X455930000Y-236220000D03*
X453390000Y-236220000D03*
X455930000Y-238760000D03*
X453390000Y-238760000D03*
X455930000Y-241300000D03*
X453390000Y-241300000D03*
X455930000Y-243840000D03*
X453390000Y-243840000D03*
X455930000Y-246380000D03*
X453390000Y-246380000D03*
X455930000Y-248920000D03*
X453390000Y-248920000D03*
X455930000Y-251460000D03*
X453390000Y-251460000D03*
X455930000Y-254000000D03*
X453390000Y-254000000D03*
X455930000Y-256540000D03*
X453390000Y-256540000D03*
X455930000Y-259080000D03*
X453390000Y-259080000D03*
X455930000Y-261620000D03*
X453390000Y-261620000D03*
X455930000Y-264160000D03*
X453390000Y-264160000D03*
X455930000Y-266700000D03*
X453390000Y-266700000D03*
X455930000Y-269240000D03*
D14*
X453390000Y-269240000D03*
D13*
X410210000Y-170180000D03*
X407670000Y-170180000D03*
X410210000Y-172720000D03*
X407670000Y-172720000D03*
X410210000Y-175260000D03*
X407670000Y-175260000D03*
X410210000Y-177800000D03*
X407670000Y-177800000D03*
X410210000Y-180340000D03*
X407670000Y-180340000D03*
X410210000Y-182880000D03*
X407670000Y-182880000D03*
X410210000Y-185420000D03*
X407670000Y-185420000D03*
X410210000Y-187960000D03*
X407670000Y-187960000D03*
X410210000Y-190500000D03*
X407670000Y-190500000D03*
X410210000Y-193040000D03*
X407670000Y-193040000D03*
X410210000Y-195580000D03*
X407670000Y-195580000D03*
X410210000Y-198120000D03*
X407670000Y-198120000D03*
X410210000Y-200660000D03*
X407670000Y-200660000D03*
X410210000Y-203200000D03*
X407670000Y-203200000D03*
X410210000Y-205740000D03*
X407670000Y-205740000D03*
X410210000Y-208280000D03*
X407670000Y-208280000D03*
X410210000Y-210820000D03*
X407670000Y-210820000D03*
X410210000Y-213360000D03*
X407670000Y-213360000D03*
X410210000Y-215900000D03*
X407670000Y-215900000D03*
X410210000Y-218440000D03*
X407670000Y-218440000D03*
X410210000Y-220980000D03*
X407670000Y-220980000D03*
X410210000Y-223520000D03*
X407670000Y-223520000D03*
X410210000Y-226060000D03*
X407670000Y-226060000D03*
X410210000Y-228600000D03*
X407670000Y-228600000D03*
X410210000Y-231140000D03*
X407670000Y-231140000D03*
X410210000Y-233680000D03*
X407670000Y-233680000D03*
X410210000Y-236220000D03*
X407670000Y-236220000D03*
X410210000Y-238760000D03*
X407670000Y-238760000D03*
X410210000Y-241300000D03*
X407670000Y-241300000D03*
X410210000Y-243840000D03*
X407670000Y-243840000D03*
X410210000Y-246380000D03*
X407670000Y-246380000D03*
X410210000Y-248920000D03*
X407670000Y-248920000D03*
X410210000Y-251460000D03*
X407670000Y-251460000D03*
X410210000Y-254000000D03*
X407670000Y-254000000D03*
X410210000Y-256540000D03*
X407670000Y-256540000D03*
X410210000Y-259080000D03*
X407670000Y-259080000D03*
X410210000Y-261620000D03*
X407670000Y-261620000D03*
X410210000Y-264160000D03*
X407670000Y-264160000D03*
X410210000Y-266700000D03*
X407670000Y-266700000D03*
X410210000Y-269240000D03*
D14*
X407670000Y-269240000D03*
D11*
X347980000Y-156210000D03*
X342980000Y-156210000D03*
D15*
X392430000Y-128270000D03*
D10*
X377190000Y-135890000D03*
X389890000Y-128270000D03*
X379730000Y-135890000D03*
X387350000Y-128270000D03*
X382270000Y-135890000D03*
X384810000Y-128270000D03*
X384810000Y-135890000D03*
X382270000Y-128270000D03*
X387350000Y-135890000D03*
X379730000Y-128270000D03*
X389890000Y-135890000D03*
X377190000Y-128270000D03*
X392430000Y-135890000D03*
D28*
X353060000Y-165100000D03*
X350520000Y-165100000D03*
X347980000Y-165100000D03*
X345440000Y-165100000D03*
X355600000Y-165100000D03*
X358140000Y-165100000D03*
X360680000Y-165100000D03*
X363220000Y-165100000D03*
D29*
X353060000Y-162560000D03*
D28*
X350520000Y-162560000D03*
X347980000Y-162560000D03*
X345440000Y-162560000D03*
X342900000Y-162560000D03*
X355600000Y-162560000D03*
X358140000Y-162560000D03*
X360680000Y-162560000D03*
X342900000Y-165100000D03*
X342900000Y-167640000D03*
X342900000Y-170180000D03*
X342900000Y-172720000D03*
X342900000Y-175260000D03*
X342900000Y-177800000D03*
X342900000Y-180340000D03*
X342900000Y-182880000D03*
X340360000Y-165100000D03*
X340360000Y-167640000D03*
X340360000Y-170180000D03*
X340360000Y-172720000D03*
X340360000Y-175260000D03*
X340360000Y-177800000D03*
X340360000Y-180340000D03*
X340360000Y-182880000D03*
X340360000Y-185420000D03*
X342900000Y-185420000D03*
X345440000Y-185420000D03*
X347980000Y-185420000D03*
X350520000Y-185420000D03*
X353060000Y-185420000D03*
X355600000Y-185420000D03*
X358140000Y-185420000D03*
X360680000Y-185420000D03*
X365760000Y-185420000D03*
X342900000Y-187960000D03*
X345440000Y-187960000D03*
X347980000Y-187960000D03*
X350520000Y-187960000D03*
X353060000Y-187960000D03*
X355600000Y-187960000D03*
X358140000Y-187960000D03*
X360680000Y-187960000D03*
X363220000Y-187960000D03*
X363220000Y-185420000D03*
X363220000Y-182880000D03*
X363220000Y-180340000D03*
X363220000Y-177800000D03*
X363220000Y-175260000D03*
X363220000Y-172720000D03*
X363220000Y-170180000D03*
X363220000Y-167640000D03*
X363220000Y-162560000D03*
X365760000Y-182880000D03*
X365760000Y-180340000D03*
X365760000Y-177800000D03*
X365760000Y-175260000D03*
X365760000Y-172720000D03*
X365760000Y-170180000D03*
X365760000Y-167640000D03*
X365760000Y-165100000D03*
X353060000Y-125730000D03*
X350520000Y-125730000D03*
X347980000Y-125730000D03*
X345440000Y-125730000D03*
X355600000Y-125730000D03*
X358140000Y-125730000D03*
X360680000Y-125730000D03*
X363220000Y-125730000D03*
D29*
X353060000Y-123190000D03*
D28*
X350520000Y-123190000D03*
X347980000Y-123190000D03*
X345440000Y-123190000D03*
X342900000Y-123190000D03*
X355600000Y-123190000D03*
X358140000Y-123190000D03*
X360680000Y-123190000D03*
X342900000Y-125730000D03*
X342900000Y-128270000D03*
X342900000Y-130810000D03*
X342900000Y-133350000D03*
X342900000Y-135890000D03*
X342900000Y-138430000D03*
X342900000Y-140970000D03*
X342900000Y-143510000D03*
X340360000Y-125730000D03*
X340360000Y-128270000D03*
X340360000Y-130810000D03*
X340360000Y-133350000D03*
X340360000Y-135890000D03*
X340360000Y-138430000D03*
X340360000Y-140970000D03*
X340360000Y-143510000D03*
X340360000Y-146050000D03*
X342900000Y-146050000D03*
X345440000Y-146050000D03*
X347980000Y-146050000D03*
X350520000Y-146050000D03*
X353060000Y-146050000D03*
X355600000Y-146050000D03*
X358140000Y-146050000D03*
X360680000Y-146050000D03*
X365760000Y-146050000D03*
X342900000Y-148590000D03*
X345440000Y-148590000D03*
X347980000Y-148590000D03*
X350520000Y-148590000D03*
X353060000Y-148590000D03*
X355600000Y-148590000D03*
X358140000Y-148590000D03*
X360680000Y-148590000D03*
X363220000Y-148590000D03*
X363220000Y-146050000D03*
X363220000Y-143510000D03*
X363220000Y-140970000D03*
X363220000Y-138430000D03*
X363220000Y-135890000D03*
X363220000Y-133350000D03*
X363220000Y-130810000D03*
X363220000Y-128270000D03*
X363220000Y-123190000D03*
X365760000Y-143510000D03*
X365760000Y-140970000D03*
X365760000Y-138430000D03*
X365760000Y-135890000D03*
X365760000Y-133350000D03*
X365760000Y-130810000D03*
X365760000Y-128270000D03*
X365760000Y-125730000D03*
D14*
X494030000Y-90170000D03*
D13*
X494030000Y-87630000D03*
X491490000Y-90170000D03*
X491490000Y-87630000D03*
X488950000Y-90170000D03*
X488950000Y-87630000D03*
X486410000Y-90170000D03*
X486410000Y-87630000D03*
X483870000Y-90170000D03*
X483870000Y-87630000D03*
X481330000Y-90170000D03*
X481330000Y-87630000D03*
X478790000Y-90170000D03*
X478790000Y-87630000D03*
X476250000Y-90170000D03*
X476250000Y-87630000D03*
X473710000Y-90170000D03*
X473710000Y-87630000D03*
X471170000Y-90170000D03*
X471170000Y-87630000D03*
X468630000Y-90170000D03*
X468630000Y-87630000D03*
X466090000Y-90170000D03*
X466090000Y-87630000D03*
X463550000Y-90170000D03*
X463550000Y-87630000D03*
X461010000Y-90170000D03*
X461010000Y-87630000D03*
X458470000Y-90170000D03*
X458470000Y-87630000D03*
X455930000Y-90170000D03*
X455930000Y-87630000D03*
X453390000Y-90170000D03*
X453390000Y-87630000D03*
X450850000Y-90170000D03*
X450850000Y-87630000D03*
X448310000Y-90170000D03*
X448310000Y-87630000D03*
X445770000Y-90170000D03*
X445770000Y-87630000D03*
X443230000Y-90170000D03*
X443230000Y-87630000D03*
X440690000Y-90170000D03*
X440690000Y-87630000D03*
X438150000Y-90170000D03*
X438150000Y-87630000D03*
X435610000Y-90170000D03*
X435610000Y-87630000D03*
X433070000Y-90170000D03*
X433070000Y-87630000D03*
X430530000Y-90170000D03*
X430530000Y-87630000D03*
X427990000Y-90170000D03*
X427990000Y-87630000D03*
X425450000Y-90170000D03*
X425450000Y-87630000D03*
X422910000Y-90170000D03*
X422910000Y-87630000D03*
X420370000Y-90170000D03*
X420370000Y-87630000D03*
X417830000Y-90170000D03*
X417830000Y-87630000D03*
X415290000Y-90170000D03*
X415290000Y-87630000D03*
X412750000Y-90170000D03*
X412750000Y-87630000D03*
X410210000Y-90170000D03*
X410210000Y-87630000D03*
X407670000Y-90170000D03*
X407670000Y-87630000D03*
X405130000Y-90170000D03*
X405130000Y-87630000D03*
X402590000Y-90170000D03*
X402590000Y-87630000D03*
X400050000Y-90170000D03*
X400050000Y-87630000D03*
X397510000Y-90170000D03*
X397510000Y-87630000D03*
X394970000Y-90170000D03*
X394970000Y-87630000D03*
D11*
X290910000Y-130810000D03*
X295910000Y-130810000D03*
X318850000Y-130810000D03*
X323850000Y-130810000D03*
D14*
X392430000Y-269240000D03*
D13*
X394970000Y-269240000D03*
X392430000Y-266700000D03*
X394970000Y-266700000D03*
X392430000Y-264160000D03*
X394970000Y-264160000D03*
X392430000Y-261620000D03*
X394970000Y-261620000D03*
X392430000Y-259080000D03*
X394970000Y-259080000D03*
X392430000Y-256540000D03*
X394970000Y-256540000D03*
X392430000Y-254000000D03*
X394970000Y-254000000D03*
X392430000Y-251460000D03*
X394970000Y-251460000D03*
X392430000Y-248920000D03*
X394970000Y-248920000D03*
X392430000Y-246380000D03*
X394970000Y-246380000D03*
X392430000Y-243840000D03*
X394970000Y-243840000D03*
X392430000Y-241300000D03*
X394970000Y-241300000D03*
X392430000Y-238760000D03*
X394970000Y-238760000D03*
X392430000Y-236220000D03*
X394970000Y-236220000D03*
X392430000Y-233680000D03*
X394970000Y-233680000D03*
X392430000Y-231140000D03*
X394970000Y-231140000D03*
X392430000Y-228600000D03*
X394970000Y-228600000D03*
X392430000Y-226060000D03*
X394970000Y-226060000D03*
X392430000Y-223520000D03*
X394970000Y-223520000D03*
X392430000Y-220980000D03*
X394970000Y-220980000D03*
X379730000Y-220980000D03*
X379730000Y-223520000D03*
X379730000Y-226060000D03*
X379730000Y-228600000D03*
X379730000Y-231140000D03*
X379730000Y-233680000D03*
X379730000Y-236220000D03*
X379730000Y-238760000D03*
D14*
X379730000Y-241300000D03*
D15*
X382270000Y-99060000D03*
D10*
X359410000Y-106680000D03*
X379730000Y-99060000D03*
X361950000Y-106680000D03*
X377190000Y-99060000D03*
X364490000Y-106680000D03*
X374650000Y-99060000D03*
X367030000Y-106680000D03*
X372110000Y-99060000D03*
X369570000Y-106680000D03*
X369570000Y-99060000D03*
X372110000Y-106680000D03*
X367030000Y-99060000D03*
X374650000Y-106680000D03*
X364490000Y-99060000D03*
X377190000Y-106680000D03*
X361950000Y-99060000D03*
X379730000Y-106680000D03*
X359410000Y-99060000D03*
X382270000Y-106680000D03*
D15*
X346710000Y-99060000D03*
D10*
X323850000Y-106680000D03*
X344170000Y-99060000D03*
X326390000Y-106680000D03*
X341630000Y-99060000D03*
X328930000Y-106680000D03*
X339090000Y-99060000D03*
X331470000Y-106680000D03*
X336550000Y-99060000D03*
X334010000Y-106680000D03*
X334010000Y-99060000D03*
X336550000Y-106680000D03*
X331470000Y-99060000D03*
X339090000Y-106680000D03*
X328930000Y-99060000D03*
X341630000Y-106680000D03*
X326390000Y-99060000D03*
X344170000Y-106680000D03*
X323850000Y-99060000D03*
X346710000Y-106680000D03*
X295910000Y-113030000D03*
X273050000Y-105410000D03*
X293370000Y-113030000D03*
X275590000Y-105410000D03*
X290830000Y-113030000D03*
X278130000Y-105410000D03*
X288290000Y-113030000D03*
X280670000Y-105410000D03*
X285750000Y-113030000D03*
X283210000Y-105410000D03*
X283210000Y-113030000D03*
X285750000Y-105410000D03*
X280670000Y-113030000D03*
X288290000Y-105410000D03*
X278130000Y-113030000D03*
X290830000Y-105410000D03*
X275590000Y-113030000D03*
X293370000Y-105410000D03*
X273050000Y-113030000D03*
D15*
X295910000Y-105410000D03*
D10*
X260350000Y-113030000D03*
X237490000Y-105410000D03*
X257810000Y-113030000D03*
X240030000Y-105410000D03*
X255270000Y-113030000D03*
X242570000Y-105410000D03*
X252730000Y-113030000D03*
X245110000Y-105410000D03*
X250190000Y-113030000D03*
X247650000Y-105410000D03*
X247650000Y-113030000D03*
X250190000Y-105410000D03*
X245110000Y-113030000D03*
X252730000Y-105410000D03*
X242570000Y-113030000D03*
X255270000Y-105410000D03*
X240030000Y-113030000D03*
X257810000Y-105410000D03*
X237490000Y-113030000D03*
D15*
X260350000Y-105410000D03*
D13*
X341550000Y-93980000D03*
X344090000Y-93980000D03*
X346630000Y-93980000D03*
X349170000Y-93980000D03*
X351710000Y-93980000D03*
X354250000Y-93980000D03*
X356790000Y-93980000D03*
X359330000Y-93980000D03*
X361870000Y-93980000D03*
X364410000Y-93980000D03*
X366950000Y-93980000D03*
X369490000Y-93980000D03*
X372030000Y-93980000D03*
X374570000Y-93980000D03*
X377110000Y-93980000D03*
X379650000Y-93980000D03*
D14*
X382190000Y-93980000D03*
D11*
X302260000Y-97790000D03*
X302260000Y-92790000D03*
X266700000Y-97790000D03*
X266700000Y-92790000D03*
X388620000Y-100410000D03*
X388620000Y-105410000D03*
X353060000Y-100410000D03*
X353060000Y-105410000D03*
D13*
X341630000Y-53340000D03*
X344170000Y-53340000D03*
X346710000Y-53340000D03*
X349250000Y-53340000D03*
X351790000Y-53340000D03*
X354330000Y-53340000D03*
X356870000Y-53340000D03*
X359410000Y-53340000D03*
X361950000Y-53340000D03*
X364490000Y-53340000D03*
X367030000Y-53340000D03*
X369570000Y-53340000D03*
X372110000Y-53340000D03*
X374650000Y-53340000D03*
X377190000Y-53340000D03*
X379730000Y-53340000D03*
D14*
X382270000Y-53340000D03*
D15*
X255270000Y-57150000D03*
D10*
X237490000Y-64770000D03*
X252730000Y-57150000D03*
X240030000Y-64770000D03*
X250190000Y-57150000D03*
X242570000Y-64770000D03*
X247650000Y-57150000D03*
X245110000Y-64770000D03*
X245110000Y-57150000D03*
X247650000Y-64770000D03*
X242570000Y-57150000D03*
X250190000Y-64770000D03*
X240030000Y-57150000D03*
X252730000Y-64770000D03*
X237490000Y-57150000D03*
X255270000Y-64770000D03*
X316230000Y-64770000D03*
X298450000Y-57150000D03*
X313690000Y-64770000D03*
X300990000Y-57150000D03*
X311150000Y-64770000D03*
X303530000Y-57150000D03*
X308610000Y-64770000D03*
X306070000Y-57150000D03*
X306070000Y-64770000D03*
X308610000Y-57150000D03*
X303530000Y-64770000D03*
X311150000Y-57150000D03*
X300990000Y-64770000D03*
X313690000Y-57150000D03*
X298450000Y-64770000D03*
D15*
X316230000Y-57150000D03*
D10*
X382270000Y-85090000D03*
X359410000Y-77470000D03*
X379730000Y-85090000D03*
X361950000Y-77470000D03*
X377190000Y-85090000D03*
X364490000Y-77470000D03*
X374650000Y-85090000D03*
X367030000Y-77470000D03*
X372110000Y-85090000D03*
X369570000Y-77470000D03*
X369570000Y-85090000D03*
X372110000Y-77470000D03*
X367030000Y-85090000D03*
X374650000Y-77470000D03*
X364490000Y-85090000D03*
X377190000Y-77470000D03*
X361950000Y-85090000D03*
X379730000Y-77470000D03*
X359410000Y-85090000D03*
D15*
X382270000Y-77470000D03*
D10*
X346710000Y-64770000D03*
X328930000Y-57150000D03*
X344170000Y-64770000D03*
X331470000Y-57150000D03*
X341630000Y-64770000D03*
X334010000Y-57150000D03*
X339090000Y-64770000D03*
X336550000Y-57150000D03*
X336550000Y-64770000D03*
X339090000Y-57150000D03*
X334010000Y-64770000D03*
X341630000Y-57150000D03*
X331470000Y-64770000D03*
X344170000Y-57150000D03*
X328930000Y-64770000D03*
D15*
X346710000Y-57150000D03*
D11*
X388620000Y-58500000D03*
X388620000Y-63500000D03*
X388493000Y-78820000D03*
X388493000Y-83820000D03*
X495300000Y-109300000D03*
X495300000Y-114300000D03*
D13*
X250190000Y-146050000D03*
X252730000Y-146050000D03*
X255270000Y-146050000D03*
X257810000Y-146050000D03*
X260350000Y-146050000D03*
X262890000Y-146050000D03*
X265430000Y-146050000D03*
X267970000Y-146050000D03*
D14*
X270510000Y-146050000D03*
X270510000Y-170180000D03*
D13*
X267970000Y-170180000D03*
X265430000Y-170180000D03*
X262890000Y-170180000D03*
X260350000Y-170180000D03*
X257810000Y-170180000D03*
X255270000Y-170180000D03*
X252730000Y-170180000D03*
X250190000Y-170180000D03*
D10*
X453390000Y-115570000D03*
X430530000Y-107950000D03*
X450850000Y-115570000D03*
X433070000Y-107950000D03*
X448310000Y-115570000D03*
X435610000Y-107950000D03*
X445770000Y-115570000D03*
X438150000Y-107950000D03*
X443230000Y-115570000D03*
X440690000Y-107950000D03*
X440690000Y-115570000D03*
X443230000Y-107950000D03*
X438150000Y-115570000D03*
X445770000Y-107950000D03*
X435610000Y-115570000D03*
X448310000Y-107950000D03*
X433070000Y-115570000D03*
X450850000Y-107950000D03*
X430530000Y-115570000D03*
D15*
X453390000Y-107950000D03*
D10*
X488950000Y-115570000D03*
X466090000Y-107950000D03*
X486410000Y-115570000D03*
X468630000Y-107950000D03*
X483870000Y-115570000D03*
X471170000Y-107950000D03*
X481330000Y-115570000D03*
X473710000Y-107950000D03*
X478790000Y-115570000D03*
X476250000Y-107950000D03*
X476250000Y-115570000D03*
X478790000Y-107950000D03*
X473710000Y-115570000D03*
X481330000Y-107950000D03*
X471170000Y-115570000D03*
X483870000Y-107950000D03*
X468630000Y-115570000D03*
X486410000Y-107950000D03*
X466090000Y-115570000D03*
D15*
X488950000Y-107950000D03*
D10*
X422910000Y-135890000D03*
X405130000Y-128270000D03*
X420370000Y-135890000D03*
X407670000Y-128270000D03*
X417830000Y-135890000D03*
X410210000Y-128270000D03*
X415290000Y-135890000D03*
X412750000Y-128270000D03*
X412750000Y-135890000D03*
X415290000Y-128270000D03*
X410210000Y-135890000D03*
X417830000Y-128270000D03*
X407670000Y-135890000D03*
X420370000Y-128270000D03*
X405130000Y-135890000D03*
D15*
X422910000Y-128270000D03*
D12*
X494030000Y-45720000D03*
X238760000Y-267970000D03*
X238760000Y-158750000D03*
X238760000Y-45720000D03*
D11*
X429260000Y-129570000D03*
X429260000Y-134570000D03*
D10*
X453390000Y-64770000D03*
X430530000Y-57150000D03*
X450850000Y-64770000D03*
X433070000Y-57150000D03*
X448310000Y-64770000D03*
X435610000Y-57150000D03*
X445770000Y-64770000D03*
X438150000Y-57150000D03*
X443230000Y-64770000D03*
X440690000Y-57150000D03*
X440690000Y-64770000D03*
X443230000Y-57150000D03*
X438150000Y-64770000D03*
X445770000Y-57150000D03*
X435610000Y-64770000D03*
X448310000Y-57150000D03*
X433070000Y-64770000D03*
X450850000Y-57150000D03*
X430530000Y-64770000D03*
D15*
X453390000Y-57150000D03*
D10*
X488959000Y-64765800D03*
X466099000Y-57145800D03*
X486419000Y-64765800D03*
X468639000Y-57145800D03*
X483879000Y-64765800D03*
X471179000Y-57145800D03*
X481339000Y-64765800D03*
X473719000Y-57145800D03*
X478799000Y-64765800D03*
X476259000Y-57145800D03*
X476259000Y-64765800D03*
X478799000Y-57145800D03*
X473719000Y-64765800D03*
X481339000Y-57145800D03*
X471179000Y-64765800D03*
X483879000Y-57145800D03*
X468639000Y-64765800D03*
X486419000Y-57145800D03*
X466099000Y-64765800D03*
D15*
X488959000Y-57145800D03*
X270510000Y-157480000D03*
D10*
X247650000Y-165100000D03*
X267970000Y-157480000D03*
X250190000Y-165100000D03*
X265430000Y-157480000D03*
X252730000Y-165100000D03*
X262890000Y-157480000D03*
X255270000Y-165100000D03*
X260350000Y-157480000D03*
X257810000Y-165100000D03*
X257810000Y-157480000D03*
X260350000Y-165100000D03*
X255270000Y-157480000D03*
X262890000Y-165100000D03*
X252730000Y-157480000D03*
X265430000Y-165100000D03*
X250190000Y-157480000D03*
X267970000Y-165100000D03*
X247650000Y-157480000D03*
X270510000Y-165100000D03*
D15*
X270510000Y-133350000D03*
D10*
X247650000Y-140970000D03*
X267970000Y-133350000D03*
X250190000Y-140970000D03*
X265430000Y-133350000D03*
X252730000Y-140970000D03*
X262890000Y-133350000D03*
X255270000Y-140970000D03*
X260350000Y-133350000D03*
X257810000Y-140970000D03*
X257810000Y-133350000D03*
X260350000Y-140970000D03*
X255270000Y-133350000D03*
X262890000Y-140970000D03*
X252730000Y-133350000D03*
X265430000Y-140970000D03*
X250190000Y-133350000D03*
X267970000Y-140970000D03*
X247650000Y-133350000D03*
X270510000Y-140970000D03*
D15*
X260344000Y-91446000D03*
D10*
X237484000Y-99066000D03*
X257804000Y-91446000D03*
X240024000Y-99066000D03*
X255264000Y-91446000D03*
X242564000Y-99066000D03*
X252724000Y-91446000D03*
X245104000Y-99066000D03*
X250184000Y-91446000D03*
X247644000Y-99066000D03*
X247644000Y-91446000D03*
X250184000Y-99066000D03*
X245104000Y-91446000D03*
X252724000Y-99066000D03*
X242564000Y-91446000D03*
X255264000Y-99066000D03*
X240024000Y-91446000D03*
X257804000Y-99066000D03*
X237484000Y-91446000D03*
X260344000Y-99066000D03*
D15*
X295904000Y-91446000D03*
D10*
X273044000Y-99066000D03*
X293364000Y-91446000D03*
X275584000Y-99066000D03*
X290824000Y-91446000D03*
X278124000Y-99066000D03*
X288284000Y-91446000D03*
X280664000Y-99066000D03*
X285744000Y-91446000D03*
X283204000Y-99066000D03*
X283204000Y-91446000D03*
X285744000Y-99066000D03*
X280664000Y-91446000D03*
X288284000Y-99066000D03*
X278124000Y-91446000D03*
X290824000Y-99066000D03*
X275584000Y-91446000D03*
X293364000Y-99066000D03*
X273044000Y-91446000D03*
X295904000Y-99066000D03*
X255270000Y-85090000D03*
X237490000Y-77470000D03*
X252730000Y-85090000D03*
X240030000Y-77470000D03*
X250190000Y-85090000D03*
X242570000Y-77470000D03*
X247650000Y-85090000D03*
X245110000Y-77470000D03*
X245110000Y-85090000D03*
X247650000Y-77470000D03*
X242570000Y-85090000D03*
X250190000Y-77470000D03*
X240030000Y-85090000D03*
X252730000Y-77470000D03*
X237490000Y-85090000D03*
D15*
X255270000Y-77470000D03*
X285750000Y-77470000D03*
D10*
X267970000Y-85090000D03*
X283210000Y-77470000D03*
X270510000Y-85090000D03*
X280670000Y-77470000D03*
X273050000Y-85090000D03*
X278130000Y-77470000D03*
X275590000Y-85090000D03*
X275590000Y-77470000D03*
X278130000Y-85090000D03*
X273050000Y-77470000D03*
X280670000Y-85090000D03*
X270510000Y-77470000D03*
X283210000Y-85090000D03*
X267970000Y-77470000D03*
X285750000Y-85090000D03*
D15*
X316230000Y-77470000D03*
D10*
X298450000Y-85090000D03*
X313690000Y-77470000D03*
X300990000Y-85090000D03*
X311150000Y-77470000D03*
X303530000Y-85090000D03*
X308610000Y-77470000D03*
X306070000Y-85090000D03*
X306070000Y-77470000D03*
X308610000Y-85090000D03*
X303530000Y-77470000D03*
X311150000Y-85090000D03*
X300990000Y-77470000D03*
X313690000Y-85090000D03*
X298450000Y-77470000D03*
X316230000Y-85090000D03*
X346710000Y-85090000D03*
X328930000Y-77470000D03*
X344170000Y-85090000D03*
X331470000Y-77470000D03*
X341630000Y-85090000D03*
X334010000Y-77470000D03*
X339090000Y-85090000D03*
X336550000Y-77470000D03*
X336550000Y-85090000D03*
X339090000Y-77470000D03*
X334010000Y-85090000D03*
X341630000Y-77470000D03*
X331470000Y-85090000D03*
X344170000Y-77470000D03*
X328930000Y-85090000D03*
D15*
X346710000Y-77470000D03*
D10*
X453390000Y-135890000D03*
X435610000Y-128270000D03*
X450850000Y-135890000D03*
X438150000Y-128270000D03*
X448310000Y-135890000D03*
X440690000Y-128270000D03*
X445770000Y-135890000D03*
X443230000Y-128270000D03*
X443230000Y-135890000D03*
X445770000Y-128270000D03*
X440690000Y-135890000D03*
X448310000Y-128270000D03*
X438150000Y-135890000D03*
X450850000Y-128270000D03*
X435610000Y-135890000D03*
D15*
X453390000Y-128270000D03*
X488950000Y-128270000D03*
D10*
X466090000Y-135890000D03*
X486410000Y-128270000D03*
X468630000Y-135890000D03*
X483870000Y-128270000D03*
X471170000Y-135890000D03*
X481330000Y-128270000D03*
X473710000Y-135890000D03*
X478790000Y-128270000D03*
X476250000Y-135890000D03*
X476250000Y-128270000D03*
X478790000Y-135890000D03*
X473710000Y-128270000D03*
X481330000Y-135890000D03*
X471170000Y-128270000D03*
X483870000Y-135890000D03*
X468630000Y-128270000D03*
X486410000Y-135890000D03*
X466090000Y-128270000D03*
X488950000Y-135890000D03*
X468630000Y-148590000D03*
X471170000Y-148590000D03*
X473710000Y-148590000D03*
X476250000Y-148590000D03*
X478790000Y-148590000D03*
X481330000Y-148590000D03*
X483870000Y-148590000D03*
X486410000Y-148590000D03*
D15*
X488950000Y-148590000D03*
D13*
X468630000Y-143510000D03*
X471170000Y-143510000D03*
X473710000Y-143510000D03*
X476250000Y-143510000D03*
X478790000Y-143510000D03*
X481330000Y-143510000D03*
X483870000Y-143510000D03*
X486410000Y-143510000D03*
D14*
X488950000Y-143510000D03*
D13*
X433070000Y-102870000D03*
X435610000Y-102870000D03*
X438150000Y-102870000D03*
X440690000Y-102870000D03*
X443230000Y-102870000D03*
X445770000Y-102870000D03*
X448310000Y-102870000D03*
X450850000Y-102870000D03*
D14*
X453390000Y-102870000D03*
D13*
X397510000Y-102870000D03*
X400050000Y-102870000D03*
X402590000Y-102870000D03*
X405130000Y-102870000D03*
X407670000Y-102870000D03*
X410210000Y-102870000D03*
X412750000Y-102870000D03*
X415290000Y-102870000D03*
D14*
X417830000Y-102870000D03*
D13*
X468630000Y-102870000D03*
X471170000Y-102870000D03*
X473710000Y-102870000D03*
X476250000Y-102870000D03*
X478790000Y-102870000D03*
X481330000Y-102870000D03*
X483870000Y-102870000D03*
X486410000Y-102870000D03*
D14*
X488950000Y-102870000D03*
D13*
X341630000Y-73660000D03*
X344170000Y-73660000D03*
X346710000Y-73660000D03*
X349250000Y-73660000D03*
X351790000Y-73660000D03*
X354330000Y-73660000D03*
X356870000Y-73660000D03*
X359410000Y-73660000D03*
X361950000Y-73660000D03*
X364490000Y-73660000D03*
X367030000Y-73660000D03*
X369570000Y-73660000D03*
X372110000Y-73660000D03*
X374650000Y-73660000D03*
X377190000Y-73660000D03*
X379730000Y-73660000D03*
D14*
X382270000Y-73660000D03*
X488950000Y-123190000D03*
D13*
X486410000Y-123190000D03*
X483870000Y-123190000D03*
X481330000Y-123190000D03*
X478790000Y-123190000D03*
X476250000Y-123190000D03*
X473710000Y-123190000D03*
X471170000Y-123190000D03*
X468630000Y-123190000D03*
D11*
X459740000Y-58500000D03*
X459740000Y-63500000D03*
X459740000Y-109300000D03*
X459740000Y-114300000D03*
X424180000Y-58500000D03*
X424180000Y-63500000D03*
X424180000Y-109300000D03*
X424180000Y-114300000D03*
X495300000Y-58500000D03*
X495300000Y-63500000D03*
X276860000Y-158750000D03*
X276860000Y-163750000D03*
X276860000Y-139700000D03*
X276860000Y-134700000D03*
X398780000Y-129620000D03*
X398780000Y-134620000D03*
X347980000Y-116840000D03*
X342980000Y-116840000D03*
X266700000Y-111680000D03*
X266700000Y-106680000D03*
X302260000Y-111760000D03*
X302260000Y-106760000D03*
X261620000Y-83820000D03*
X261620000Y-78820000D03*
X292100000Y-78740000D03*
X292100000Y-83740000D03*
X322580000Y-78740000D03*
X322580000Y-83740000D03*
X353060000Y-83740000D03*
X353060000Y-78740000D03*
X292100000Y-58500000D03*
X292100000Y-63500000D03*
X353060000Y-58500000D03*
X353060000Y-63500000D03*
X261620000Y-58500000D03*
X261620000Y-63500000D03*
X322580000Y-58500000D03*
X322580000Y-63500000D03*
X459740000Y-129570000D03*
X459740000Y-134570000D03*
X495300000Y-129570000D03*
X495300000Y-134570000D03*
M02*
