M48
; DRILL file {KiCad (5.1.0-0)} date Monday, December 02, 2019 at 12:29:28 AM
; FORMAT={-:-/ absolute / inch / decimal}
; #@! TF.CreationDate,2019-12-02T00:29:28-08:00
; #@! TF.GenerationSoftware,Kicad,Pcbnew,(5.1.0-0)
FMAT,2
INCH
T1C0.0118
T2C0.0295
T3C0.0315
T4C0.0354
T5C0.0394
T6C0.0433
T7C0.0512
T8C0.1260
T9C0.0630
%
G90
G05
T1
X9.285Y-5.55
X9.41Y-4.365
X9.45Y-3.3964
X9.45Y-4.04
X9.49Y-4.01
X9.51Y-4.385
X9.51Y-9.945
X9.53Y-9.2
X9.53Y-10.1
X9.55Y-2.48
X9.55Y-3.4
X9.55Y-4.965
X9.55Y-8.69
X9.55Y-9.8
X9.57Y-8.67
X9.57Y-9.9
X9.59Y-1.85
X9.59Y-8.65
X9.59Y-10.0
X9.595Y-4.945
X9.6Y-2.84
X9.605Y-3.74
X9.65Y-2.46
X9.65Y-3.3964
X9.65Y-4.985
X9.69Y-9.36
X9.695Y-1.87
X9.695Y-5.005
X9.7Y-2.8221
X9.705Y-3.72
X9.71Y-4.405
X9.71Y-9.11
X9.725Y-10.6
X9.75Y-2.44
X9.75Y-3.3964
X9.75Y-4.0529
X9.75Y-10.2
X9.79Y-1.89
X9.795Y-9.3779
X9.8Y-2.8
X9.8Y-4.0
X9.81Y-3.7
X9.815Y-9.13
X9.85Y-2.425
X9.85Y-3.405
X9.85Y-4.09
X9.85Y-7.51
X9.85Y-10.3
X9.88Y-10.5
X9.89Y-4.0679
X9.89Y-4.625
X9.89Y-9.3929
X9.895Y-2.78
X9.9Y-1.91
X9.9Y-10.4
X9.91Y-3.975
X9.91Y-4.645
X9.925Y-9.26
X9.95Y-3.425
X9.95Y-4.1036
X9.95Y-5.025
X9.95Y-7.53
X9.95Y-9.145
X9.99Y-10.355
X10.01Y-5.045
X10.05Y-3.44
X10.05Y-4.1036
X10.05Y-5.065
X10.05Y-7.55
X10.075Y-4.68
X10.09Y-10.455
X10.1Y-3.975
X10.1Y-5.085
X10.1498Y-4.0998
X10.15Y-3.435
X10.15Y-7.585
X10.15Y-7.62
X10.15Y-7.76
X10.15Y-8.66
X10.19Y-4.7
X10.2Y-10.675
X10.205Y-4.0799
X10.205Y-4.255
X10.225Y-10.695
X10.25Y-7.5679
X10.25Y-7.6037
X10.25Y-7.78
X10.25Y-8.68
X10.3Y-4.72
X10.3Y-10.1
X10.3029Y-9.355
X10.325Y-9.37
X10.325Y-10.2
X10.345Y-9.39
X10.35Y-7.6029
X10.35Y-7.8
X10.35Y-8.7
X10.3707Y-7.5679
X10.3933Y-4.742
X10.4Y-9.145
X10.43Y-7.585
X10.45Y-7.62
X10.45Y-7.82
X10.45Y-8.72
X10.475Y-2.99
X10.475Y-3.785
X10.4993Y-9.1279
X10.5Y-4.765
X10.5Y-9.9
X10.52Y-9.11
X10.52Y-10.0
X10.53Y-7.55
X10.55Y-3.29
X10.55Y-7.64
X10.55Y-7.84
X10.55Y-8.74
X10.59Y-4.775
X10.65Y-3.185
X10.65Y-7.53
X10.65Y-7.86
X10.65Y-8.76
X10.685Y-4.15
X10.7093Y-3.5393
X10.75Y-2.405
X10.75Y-3.265
X10.75Y-7.51
X10.75Y-7.88
X10.75Y-8.78
X10.79Y-4.605
X10.795Y-1.93
X10.8093Y-4.3679
X10.85Y-3.245
X10.85Y-3.45
X10.85Y-4.275
X10.85Y-4.32
X10.855Y-2.385
X10.89Y-4.585
X10.9Y-1.955
X10.91Y-4.385
X10.95Y-2.365
X10.95Y-3.225
X10.95Y-3.47
X10.955Y-4.56
X10.955Y-6.45
X10.955Y-10.44
X10.975Y-4.525
X10.98Y-6.55
X10.99Y-1.975
X11.0021Y-6.3421
X11.01Y-8.375
X11.02Y-6.65
X11.02Y-8.4
X11.04Y-5.25
X11.04Y-6.805
X11.0407Y-6.047
X11.05Y-2.345
X11.05Y-3.205
X11.05Y-3.44
X11.06Y-4.815
X11.06Y-6.9
X11.0604Y-6.0603
X11.085Y-4.925
X11.085Y-6.075
X11.085Y-7.0
X11.1Y-1.995
X11.105Y-4.505
X11.105Y-4.905
X11.105Y-6.09
X11.11Y-7.1
X11.1229Y-4.405
X11.13Y-4.865
X11.13Y-6.1
X11.13Y-7.205
X11.15Y-3.45
X11.15Y-4.2672
X11.15Y-4.315
X11.15Y-4.885
X11.15Y-6.12
X11.17Y-4.8471
X11.17Y-6.135
X11.19Y-4.8329
X11.19Y-6.155
X11.25Y-3.465
X11.25Y-4.0916
X11.25Y-4.25
X11.25Y-4.3321
X11.25Y-9.15
X11.25Y-9.8
X11.3102Y-6.7352
X11.33Y-6.45
X11.335Y-4.965
X11.3371Y-6.0127
X11.3477Y-6.2127
X11.35Y-3.485
X11.35Y-4.1036
X11.3557Y-4.947
X11.41Y-6.85
X11.445Y-2.61
X11.45Y-3.5
X11.45Y-4.1036
X11.4977Y-6.1127
X11.55Y-3.52
X11.55Y-4.1
X11.55Y-4.2401
X11.55Y-4.34
X11.55Y-10.13
X11.555Y-5.065
X11.555Y-5.95
X11.555Y-6.55
X11.57Y-8.555
X11.57Y-9.86
X11.5896Y-10.0404
X11.605Y-10.06
X11.655Y-2.63
X11.655Y-8.375
X11.7Y-10.025
X11.705Y-2.61
X11.7104Y-10.0
X11.7129Y-4.985
X11.7129Y-6.15
X11.715Y-9.33
X11.72Y-10.08
X11.73Y-5.005
X11.7489Y-10.1511
X11.75Y-5.025
X11.75Y-6.05
X11.77Y-5.045
X11.77Y-9.95
X11.785Y-8.4
X11.79Y-5.09
X11.79Y-9.33
X11.7927Y-10.1973
X11.8021Y-9.9
X11.82Y-10.305
X11.83Y-9.26
X11.8379Y-10.2724
X11.95Y-3.185
X11.95Y-5.325
X11.95Y-9.15
X11.9515Y-10.3271
X11.9527Y-2.4771
X11.99Y-2.01
X11.99Y-10.4
X12.01Y-4.455
X12.0425Y-2.4402
X12.05Y-3.165
X12.0542Y-10.4584
X12.09Y-10.5
X12.1Y-2.03
X12.11Y-4.435
X12.13Y-5.95
X12.13Y-6.55
X12.1385Y-2.4223
X12.15Y-3.145
X12.15Y-5.46
X12.15Y-6.8
X12.17Y-5.44
X12.17Y-6.9
X12.19Y-2.05
X12.19Y-5.425
X12.19Y-7.0
X12.21Y-4.415
X12.215Y-5.41
X12.215Y-7.1
X12.235Y-5.395
X12.235Y-7.2
X12.25Y-2.425
X12.255Y-5.38
X12.275Y-5.365
X12.275Y-6.4
X12.295Y-5.35
X12.295Y-6.475
X12.3Y-2.9916
X12.305Y-2.07
X12.35Y-3.125
X12.425Y-6.505
X12.455Y-6.155
X12.455Y-6.58
X12.472Y-10.2579
X12.475Y-9.71
X12.495Y-9.96
X12.495Y-10.35
X12.52Y-9.56
X12.52Y-10.24
X12.54Y-10.5
X12.55Y-8.055
X12.6Y-2.67
X12.645Y-3.74
X12.6498Y-8.0371
X12.65Y-5.91
X12.65Y-5.95
X12.65Y-6.555
X12.665Y-3.72
X12.665Y-5.715
X12.685Y-3.695
X12.685Y-5.6971
X12.75Y-3.975
X12.795Y-3.445
X12.795Y-10.4
X12.81Y-5.405
X12.82Y-10.455
X12.85Y-3.7
X12.85Y-3.995
X12.95Y-2.4916
X12.95Y-3.29
X12.95Y-3.7425
X12.95Y-4.015
X13.05Y-3.7604
X13.05Y-2.63
X13.05Y-4.035
X13.06Y-5.09
X13.09Y-10.6
X13.11Y-4.3971
X13.15Y-2.405
X13.15Y-3.4629
X13.15Y-3.7792
X13.15Y-4.055
X13.1804Y-6.4821
X13.19Y-2.145
X13.205Y-2.9791
X13.21Y-4.3821
X13.23Y-8.16
X13.245Y-6.45
X13.25Y-2.385
X13.25Y-3.48
X13.25Y-3.7971
X13.25Y-4.075
X13.265Y-6.355
X13.265Y-6.645
X13.2895Y-6.6555
X13.29Y-6.95
X13.3Y-2.165
X13.305Y-2.9665
X13.31Y-4.3671
X13.31Y-7.05
X13.3122Y-6.5764
X13.32Y-4.905
X13.33Y-7.15
X13.3316Y-6.5947
X13.35Y-2.365
X13.35Y-3.495
X13.35Y-3.815
X13.35Y-4.095
X13.35Y-6.46
X13.35Y-7.25
X13.395Y-2.175
X13.4Y-2.9545
X13.4079Y-4.35
X13.45Y-1.85
X13.45Y-2.345
X13.45Y-2.8371
X13.45Y-3.515
X13.45Y-3.8329
X13.45Y-4.115
X13.49Y-2.185
X13.495Y-2.69
X13.4975Y-2.9425
X13.54Y-4.8
X13.55Y-1.87
X13.55Y-2.82
X13.5514Y-7.1284
X13.5549Y-6.6101
X13.5571Y-6.4408
X13.565Y-5.485
X13.59Y-2.715
X13.59Y-4.485
X13.5957Y-6.7576
X13.5985Y-5.5049
X13.62Y-6.775
X13.6371Y-5.45
X13.6379Y-6.9656
X13.645Y-3.76
X13.65Y-1.89
X13.65Y-2.8
X13.655Y-5.35
X13.663Y-6.937
X13.7Y-2.735
X13.7Y-9.25
X13.745Y-3.775
X13.75Y-1.91
X13.75Y-2.755
X13.75Y-2.78
X13.8Y-7.555
X13.8407Y-7.5371
X13.845Y-3.795
X13.85Y-1.93
X13.85Y-2.775
X13.85Y-3.265
X13.851Y-6.104
X13.863Y-6.053
X13.92Y-4.56
X13.94Y-7.5221
X13.945Y-3.81
X13.945Y-5.78
X13.9452Y-4.5598
X13.95Y-1.95
X13.95Y-2.795
X13.95Y-3.245
X13.9537Y-5.7162
X13.963Y-6.007
X14.0Y-5.25
X14.0Y-6.8
X14.0Y-7.505
X14.03Y-4.525
X14.03Y-5.79
X14.04Y-7.4871
X14.045Y-3.83
X14.05Y-1.9721
X14.05Y-2.82
X14.05Y-3.225
X14.05Y-4.505
X14.05Y-9.355
X14.0511Y-5.7212
X14.1Y-7.4721
X14.1Y-9.75
X14.11Y-2.8371
X14.11Y-3.205
X14.145Y-3.85
X14.15Y-1.99
X14.15Y-2.44
X14.15Y-8.325
X14.17Y-6.445
X14.173Y-6.253
X14.175Y-5.31
X14.19Y-7.75
X14.1905Y-3.9745
X14.2Y-4.3321
X14.2Y-10.15
X14.2129Y-2.69
X14.249Y-6.336
X14.249Y-2.4187
X14.25Y-2.01
X14.25Y-3.185
X14.25Y-8.3071
X14.25Y-9.8
X14.2905Y-3.9955
X14.3Y-2.715
X14.3Y-6.19
X14.31Y-4.325
X14.35Y-2.0276
X14.35Y-2.4008
X14.35Y-3.165
X14.39Y-5.2
X14.39Y-8.145
X14.39Y-8.645
X14.3905Y-4.0155
X14.395Y-5.85
X14.395Y-7.42
X14.4Y-2.735
X14.4Y-4.31
X14.415Y-6.305
X14.4434Y-2.0396
X14.45Y-2.3829
X14.455Y-3.145
X14.455Y-7.2
X14.47Y-7.1
X14.485Y-6.7
X14.49Y-5.045
X14.4905Y-4.0345
X14.495Y-2.755
X14.5Y-6.6
X14.51Y-4.31
X14.515Y-4.95
X14.515Y-6.5
X14.535Y-5.11
X14.535Y-6.655
X14.55Y-2.3629
X14.55Y-2.9964
X14.5521Y-5.07
X14.555Y-6.555
X14.57Y-4.345
X14.5721Y-5.55
X14.59Y-4.3671
X14.59Y-5.61
X14.5905Y-4.0555
X14.6Y-2.775
X14.6Y-4.295
X14.61Y-4.3821
X14.61Y-5.655
X14.63Y-4.3971
X14.63Y-5.7
X14.65Y-2.3619
X14.65Y-2.9844
X14.65Y-4.415
X14.65Y-5.75
X14.67Y-4.435
X14.67Y-5.85
X14.69Y-4.455
X14.69Y-5.795
X14.6905Y-4.0755
X14.695Y-2.795
X14.71Y-4.275
X14.75Y-2.344
X14.75Y-2.9724
X14.775Y-8.91
X14.775Y-10.33
X14.7905Y-4.0895
X14.795Y-4.265
X14.8Y-2.815
X14.8488Y-2.3261
X14.85Y-2.9604
X14.85Y-7.36
X14.8879Y-8.325
X14.8905Y-4.1105
X14.9Y-2.835
X14.9Y-4.26
X14.9Y-10.295
X14.9002Y-8.3046
X14.95Y-3.535
X15.1366Y-10.1966
X15.145Y-10.505
X15.29Y-8.035
X15.31Y-8.055
X15.325Y-9.5
X15.335Y-3.02
X15.3379Y-6.15
X15.3499Y-7.4549
X15.35Y-9.5
X15.355Y-3.0
X15.355Y-3.445
X15.355Y-7.27
X15.3679Y-9.445
X15.375Y-3.04
X15.38Y-7.23
X15.3829Y-9.3
X15.3979Y-9.2421
X15.4Y-5.45
X15.4Y-6.775
X15.4008Y-7.2416
X15.405Y-10.17
X15.42Y-5.4679
X15.42Y-6.755
X15.51Y-2.19
X15.55Y-4.35
X15.604Y-7.1451
X15.61Y-9.655
X15.615Y-9.16
X15.615Y-9.4
X15.62Y-9.44
X15.625Y-6.975
X15.63Y-9.55
X15.63Y-9.8
X15.635Y-9.0
X15.635Y-9.255
X15.645Y-6.955
X15.6492Y-2.3829
X15.65Y-4.37
X15.65Y-6.045
X15.65Y-8.94
X15.65Y-9.355
X15.65Y-9.6
X15.6506Y-2.4067
X15.655Y-9.2
X15.67Y-6.935
X15.67Y-8.8
X15.675Y-6.065
X15.675Y-9.055
X15.69Y-7.095
X15.69Y-9.0
X15.71Y-8.855
X15.715Y-7.155
X15.73Y-7.2
X15.73Y-8.8
X15.7407Y-2.3629
X15.75Y-2.4107
X15.75Y-2.675
X15.75Y-4.395
X15.75Y-5.99
X15.75Y-7.34
X15.75Y-8.655
X15.77Y-7.3
X15.77Y-8.6
X15.79Y-8.46
X15.7921Y-7.4
X15.81Y-7.36
X15.81Y-8.4
X15.83Y-7.44
X15.83Y-8.255
X15.85Y-2.345
X15.85Y-2.42
X15.85Y-3.655
X15.85Y-4.425
X15.85Y-6.1
X15.85Y-7.38
X15.85Y-8.2
X15.87Y-7.4721
X15.87Y-8.055
X15.89Y-3.1546
X15.89Y-7.455
X15.89Y-7.4871
X15.89Y-8.0
X15.905Y-3.04
X15.9079Y-6.48
X15.91Y-7.505
X15.91Y-7.855
X15.93Y-7.5221
X15.93Y-7.8
X15.95Y-2.33
X15.95Y-4.445
X15.95Y-7.655
X15.9507Y-7.5371
X15.9521Y-6.0172
X15.955Y-2.435
X15.97Y-6.065
X15.97Y-6.195
X15.97Y-7.25
X15.97Y-8.15
X15.9925Y-3.1725
X16.0Y-2.74
X16.01Y-6.505
X16.05Y-2.32
X16.05Y-2.4471
X16.05Y-4.465
X16.05Y-5.61
X16.05Y-5.96
X16.085Y-6.46
X16.1Y-3.02
X16.11Y-6.53
X16.15Y-2.31
X16.15Y-2.465
X16.15Y-4.465
X16.15Y-5.9
X16.15Y-5.99
X16.185Y-5.4
X16.205Y-6.62
X16.2095Y-6.5595
X16.25Y-4.47
X16.25Y-5.925
X16.25Y-5.98
X16.295Y-2.61
X16.305Y-3.86
X16.34Y-9.94
X16.35Y-5.585
X16.35Y-5.9429
X16.4005Y-2.4421
X16.405Y-10.67
X16.445Y-9.87
X16.45Y-3.88
X16.45Y-5.45
X16.505Y-3.9
X16.55Y-5.4821
X16.5551Y-2.4421
X16.6Y-6.58
X16.6161Y-2.4151
X16.65Y-3.92
X16.705Y-3.94
X16.774Y-2.4151
X16.805Y-6.6
X16.8442Y-2.3751
X16.85Y-3.96
X16.905Y-3.98
X16.9073Y-2.3752
X16.95Y-4.35
X16.95Y-5.9971
X17.0Y-2.215
X17.05Y-2.8
X17.05Y-4.0
X17.05Y-4.37
X17.05Y-5.9429
X17.05Y-5.9929
X17.1289Y-2.4271
X17.147Y-5.9972
X17.1492Y-2.4148
X17.1498Y-5.9494
X17.15Y-2.76
X17.15Y-4.395
X17.165Y-6.53
X17.195Y-6.56
X17.2207Y-6.0445
X17.25Y-4.425
X17.2501Y-2.4416
X17.253Y-2.3829
X17.2538Y-6.0266
X17.295Y-6.58
X17.305Y-2.78
X17.315Y-6.54
X17.3247Y-6.0548
X17.35Y-4.445
X17.35Y-6.0289
X17.3801Y-5.785
X17.4Y-2.8
X17.4172Y-5.8172
X17.42Y-5.89
X17.4329Y-6.0593
X17.45Y-2.78
X17.45Y-4.4571
X17.45Y-9.265
X17.4504Y-6.0409
X17.4871Y-5.805
X17.49Y-2.74
X17.505Y-6.6
X17.5229Y-6.055
X17.5417Y-2.3622
X17.5495Y-2.4571
X17.55Y-4.475
X17.57Y-5.905
X17.595Y-6.62
X17.6Y-2.3242
X17.65Y-2.3421
X17.65Y-2.475
X17.65Y-5.465
X17.65Y-5.925
X17.7Y-2.325
X17.725Y-10.65
X17.75Y-2.76
X17.75Y-5.14
X17.75Y-5.5
X17.75Y-10.145
X17.77Y-6.505
X17.78Y-2.74
X17.795Y-6.58
X17.85Y-4.965
X17.8888Y-4.6427
X17.905Y-2.21
X17.92Y-2.255
X17.925Y-3.4
X17.925Y-3.5
X17.95Y-2.66
X18.005Y-2.18
X18.005Y-4.05
X18.02Y-10.045
X18.0379Y-4.6573
X18.05Y-3.975
X18.055Y-4.68
X18.0998Y-2.6798
X18.15Y-2.16
X18.15Y-2.7
X18.1871Y-3.955
X18.205Y-2.14
X18.205Y-4.7
X18.25Y-3.935
X18.29Y-3.595
X18.3Y-2.72
X18.3154Y-5.185
X18.35Y-2.74
X18.35Y-4.35
X18.35Y-7.265
X18.375Y-6.485
X18.3871Y-3.915
X18.39Y-5.205
X18.395Y-4.795
X18.405Y-2.285
X18.405Y-4.72
X18.405Y-6.56
X18.41Y-5.23
X18.445Y-4.37
X18.45Y-2.66
X18.45Y-3.895
X18.45Y-4.795
X18.45Y-4.965
X18.45Y-5.3
X18.45Y-5.445
X18.45Y-5.965
X18.495Y-5.28
X18.5Y-4.625
X18.505Y-2.76
X18.5129Y-5.255
X18.525Y-5.135
X18.55Y-2.68
X18.55Y-2.78
X18.55Y-3.975
X18.55Y-4.395
X18.55Y-5.12
X18.55Y-5.28
X18.55Y-5.3962
X18.55Y-5.42
X18.55Y-5.9721
X18.595Y-3.875
X18.595Y-4.605
X18.61Y-5.275
X18.65Y-2.7
X18.65Y-3.855
X18.65Y-3.955
X18.65Y-4.425
X18.65Y-4.625
X18.65Y-5.1
X18.65Y-5.145
X18.65Y-5.9841
X18.695Y-4.625
X18.7Y-2.465
X18.7Y-2.8
X18.705Y-4.35
X18.71Y-5.3
X18.75Y-2.72
X18.75Y-3.935
X18.75Y-4.445
X18.75Y-4.6021
X18.75Y-4.985
X18.75Y-5.275
X18.75Y-5.4
X18.75Y-6.0
X18.8Y-2.4519
X18.8Y-4.37
X18.81Y-5.12
X18.8497Y-6.0089
X18.85Y-2.74
X18.85Y-3.915
X18.85Y-4.465
X18.85Y-4.62
X18.85Y-4.965
X18.85Y-5.005
X18.85Y-5.255
X18.8721Y-6.625
X18.875Y-10.25
X18.88Y-2.6
X18.885Y-5.465
X18.89Y-10.23
X18.8971Y-4.395
X18.91Y-5.1
X18.9123Y-4.7371
X18.918Y-2.4199
X18.95Y-2.76
X18.95Y-3.895
X18.95Y-4.485
X18.95Y-4.985
X18.95Y-5.205
X18.95Y-5.42
X18.95Y-6.0268
X18.9679Y-6.4593
X19.0Y-2.3979
X19.0Y-6.54
X19.005Y-4.425
X19.0488Y-5.9151
X19.05Y-2.78
X19.05Y-3.875
X19.05Y-5.0036
X19.05Y-5.185
X19.05Y-5.445
X19.07Y-5.1
X19.095Y-2.38
X19.1Y-4.445
X19.1Y-6.625
X19.115Y-4.755
X19.1424Y-5.9271
X19.145Y-3.855
X19.15Y-2.8
X19.15Y-5.23
X19.19Y-9.755
X19.2Y-2.38
X19.2Y-4.775
X19.205Y-5.9221
X19.2104Y-9.7
X19.23Y-9.555
X19.2303Y-6.0268
X19.247Y-6.0088
X19.25Y-9.5
X19.2649Y-5.993
X19.27Y-9.35
X19.2832Y-5.9779
X19.285Y-9.3
X19.295Y-4.465
X19.3Y-5.9579
X19.305Y-9.15
X19.32Y-5.94
X19.32Y-9.1
X19.33Y-4.605
X19.33Y-5.465
X19.35Y-2.36
X19.4Y-2.34
X19.41Y-4.48
X19.445Y-4.5
T2
X13.45Y-10.1
X13.5Y-10.05
X13.5Y-10.15
T3
X11.9531Y-9.45
X12.15Y-9.45
X11.2031Y-9.45
X12.15Y-3.6
X12.15Y-3.9
X9.35Y-5.1469
X11.4531Y-5.15
X11.65Y-5.15
X18.35Y-4.25
X18.35Y-4.55
X18.45Y-4.25
X18.45Y-4.55
X18.55Y-4.25
X18.55Y-4.55
X18.65Y-4.25
X18.65Y-4.55
X18.75Y-4.25
X18.75Y-4.55
X18.85Y-4.25
X18.85Y-4.55
X18.95Y-4.25
X18.95Y-4.55
X19.05Y-4.25
X19.05Y-4.55
X19.15Y-4.25
X19.15Y-4.55
X19.25Y-4.25
X19.25Y-4.55
X17.15Y-5.05
X17.15Y-5.35
X17.25Y-5.05
X17.25Y-5.35
X17.35Y-5.05
X17.35Y-5.35
X17.45Y-5.05
X17.45Y-5.35
X17.55Y-5.05
X17.55Y-5.35
X17.65Y-5.05
X17.65Y-5.35
X17.75Y-5.05
X17.75Y-5.35
X17.85Y-5.05
X17.85Y-5.35
X16.7Y-5.9031
X16.7Y-6.1
X16.95Y-2.25
X16.95Y-2.55
X17.05Y-2.25
X17.05Y-2.55
X17.15Y-2.25
X17.15Y-2.55
X17.25Y-2.25
X17.25Y-2.55
X17.35Y-2.25
X17.35Y-2.55
X17.45Y-2.25
X17.45Y-2.55
X17.55Y-2.25
X17.55Y-2.55
X17.65Y-2.25
X17.65Y-2.55
X17.75Y-2.25
X17.75Y-2.55
X17.85Y-2.25
X17.85Y-2.55
X12.95Y-3.05
X12.95Y-3.35
X13.05Y-3.05
X13.05Y-3.35
X13.15Y-3.05
X13.15Y-3.35
X13.25Y-3.05
X13.25Y-3.35
X13.35Y-3.05
X13.35Y-3.35
X13.45Y-3.05
X13.45Y-3.35
X13.55Y-3.05
X13.55Y-3.35
X13.65Y-3.05
X13.65Y-3.35
X10.4531Y-9.45
X10.65Y-9.45
X15.3Y-3.9531
X15.3Y-4.15
X9.65Y-9.7
X9.65Y-9.8
X9.65Y-9.9
X9.65Y-10.0
X9.65Y-10.1
X11.4Y-9.45
X10.5Y-3.6531
X10.5Y-3.85
X11.5Y-2.3031
X11.5Y-2.5
X12.7Y-2.3031
X12.7Y-2.5
X14.6Y-8.7531
X14.6Y-8.95
X18.45Y-5.85
X18.55Y-5.85
X18.65Y-5.85
X18.75Y-5.85
X18.85Y-5.85
X18.95Y-5.85
X19.05Y-5.85
X19.15Y-5.85
X19.25Y-5.85
X14.05Y-9.2
X14.05Y-9.5
X14.15Y-9.2
X14.15Y-9.5
X14.25Y-9.2
X14.25Y-9.5
X14.35Y-9.2
X10.55Y-3.05
X10.55Y-3.35
X10.65Y-3.05
X10.65Y-3.35
X10.75Y-3.05
X10.75Y-3.35
X10.85Y-3.05
X10.85Y-3.35
X10.95Y-3.05
X10.95Y-3.35
X11.05Y-3.05
X11.05Y-3.35
X9.35Y-4.95
X11.15Y-3.05
X11.15Y-3.35
X11.25Y-3.05
X11.25Y-3.35
X18.1Y-5.9031
X18.1Y-6.1
X13.65Y-8.2
X13.65Y-8.5
X13.75Y-8.2
X13.75Y-8.5
X13.85Y-8.2
X13.85Y-8.5
X13.95Y-8.2
X13.95Y-8.5
X14.05Y-8.2
X14.05Y-8.5
X14.15Y-8.2
X14.15Y-8.5
X14.25Y-8.2
X14.25Y-8.5
X14.35Y-8.2
X14.35Y-8.5
X11.4Y-8.8031
X11.4Y-9.0
X11.4Y-7.9031
X11.4Y-8.1
X10.9Y-6.25
X10.9Y-6.4469
X13.5031Y-4.6
X13.7Y-4.6
X10.3Y-2.3031
X10.3Y-2.5
X19.5Y-5.1012
X9.65Y-10.2
X9.65Y-10.3
X9.65Y-10.4
X9.65Y-10.5
X9.65Y-10.6
X9.95Y-9.7
X9.95Y-9.8
X9.95Y-9.9
X9.95Y-10.0
X9.95Y-10.1
X9.95Y-10.2
X9.95Y-10.3
X9.95Y-10.4
X9.95Y-10.5
X9.95Y-10.6
X15.7Y-5.1031
X15.7Y-5.3
X13.9Y-2.3031
X13.9Y-2.5
X18.1Y-5.1012
X18.1Y-5.298
X15.55Y-4.25
X15.55Y-4.55
X15.65Y-4.25
X15.65Y-4.55
X15.75Y-4.25
X15.75Y-4.55
X15.85Y-4.25
X15.85Y-4.55
X15.95Y-4.25
X15.95Y-4.55
X16.05Y-4.25
X16.05Y-4.55
X16.15Y-4.25
X16.15Y-4.55
X16.25Y-4.25
X16.25Y-4.55
X16.35Y-4.25
X16.35Y-4.55
X16.45Y-4.25
X14.35Y-9.5
X16.45Y-4.55
X13.4Y-6.5
X13.4Y-6.6
X13.4Y-6.7
X13.4Y-6.8
X13.4Y-6.9
X13.4Y-7.0
X13.4Y-7.1
X13.4Y-7.2
X13.4Y-7.3
X13.5Y-6.4
X13.5Y-6.5
X13.5Y-6.6
X13.5Y-6.7
X13.5Y-6.8
X13.5Y-6.9
X13.5Y-7.0
X13.5Y-7.1
X13.5Y-7.2
X13.5Y-7.3
X13.5Y-7.4
X13.6Y-6.4
X13.6Y-6.5
X13.6Y-7.3
X13.6Y-7.4
X13.7Y-6.4
X13.7Y-6.5
X13.7Y-7.3
X13.7Y-7.4
X13.8Y-6.4
X13.8Y-6.5
X13.8Y-7.3
X13.8Y-7.4
X13.9Y-6.4
X13.9Y-6.5
X13.9Y-7.3
X13.9Y-7.4
X14.0Y-6.4
X14.0Y-6.5
X14.0Y-7.3
X14.0Y-7.4
X14.1Y-6.4
X14.1Y-6.5
X14.1Y-7.3
X14.1Y-7.4
X14.2Y-6.4
X14.2Y-6.5
X14.2Y-7.3
X14.2Y-7.4
X14.3Y-6.4
X14.3Y-6.5
X14.3Y-6.6
X14.3Y-6.7
X14.3Y-6.8
X14.3Y-6.9
X14.3Y-7.0
X14.3Y-7.1
X14.3Y-7.2
X14.3Y-7.3
X14.3Y-7.4
X14.4Y-6.5
X14.4Y-6.6
X14.4Y-6.7
X14.4Y-6.8
X14.4Y-6.9
X14.4Y-7.0
X14.4Y-7.1
X14.4Y-7.2
X14.4Y-7.3
X14.6Y-9.2531
X14.6Y-9.45
X13.7Y-9.2
X13.7Y-9.5
X10.75Y-4.15
X10.75Y-4.45
X10.85Y-4.15
X10.85Y-4.45
X10.95Y-4.15
X10.95Y-4.45
X11.05Y-4.15
X11.05Y-4.45
X11.15Y-4.15
X11.15Y-4.45
X11.25Y-4.15
X11.25Y-4.45
X11.35Y-4.15
X11.35Y-4.45
X11.45Y-4.15
X11.45Y-4.45
X11.55Y-4.15
X11.55Y-4.45
X11.65Y-4.15
X11.65Y-4.45
X9.75Y-5.25
X9.75Y-5.55
X9.85Y-5.25
X9.85Y-5.55
X9.95Y-5.25
X9.95Y-5.55
X10.05Y-5.25
X10.05Y-5.55
X10.15Y-5.25
X10.15Y-5.55
X10.25Y-5.25
X10.25Y-5.55
X10.35Y-5.25
X12.45Y-2.55
X10.35Y-5.55
X10.45Y-5.25
X10.45Y-5.55
X10.55Y-5.25
X11.95Y-2.25
X10.55Y-5.55
X10.65Y-5.25
X10.65Y-5.55
X15.55Y-2.25
X15.55Y-2.55
X15.65Y-2.25
X15.65Y-2.55
X15.75Y-2.25
X15.75Y-2.55
X15.85Y-2.25
X15.85Y-2.55
X15.95Y-2.25
X15.95Y-2.55
X16.05Y-2.25
X16.05Y-2.55
X16.15Y-2.25
X16.15Y-2.55
X16.25Y-2.25
X16.25Y-2.55
X16.35Y-2.25
X16.35Y-2.55
X16.45Y-2.25
X16.45Y-2.55
X9.7Y-9.45
X9.8969Y-9.45
X18.1Y-2.3031
X18.1Y-2.5
X10.9Y-5.3031
X10.9Y-5.5
X10.5Y-4.2
X10.5Y-4.3969
X15.3Y-2.3031
X15.3Y-2.5
X15.95Y-5.05
X15.95Y-5.35
X16.05Y-5.05
X13.15Y-9.2
X16.05Y-5.35
X16.15Y-5.05
X16.15Y-5.35
X16.25Y-5.05
X16.25Y-5.35
X16.35Y-5.05
X16.35Y-5.35
X16.45Y-5.05
X16.45Y-5.35
X16.55Y-5.05
X16.55Y-5.35
X16.65Y-5.05
X16.65Y-5.35
X10.7498Y-3.6002
X10.7498Y-3.9002
X10.8498Y-3.6002
X10.8498Y-3.9002
X10.9498Y-3.6002
X10.9498Y-3.9002
X11.0498Y-3.6002
X11.0498Y-3.9002
X11.1498Y-3.6002
X12.75Y-8.6
X12.7Y-3.1
X12.7Y-3.2969
X15.55Y-5.85
X15.55Y-6.15
X15.65Y-5.85
X15.65Y-6.15
X15.75Y-5.85
X15.75Y-6.15
X15.85Y-5.85
X15.85Y-6.15
X15.95Y-5.85
X15.95Y-6.15
X16.05Y-5.85
X16.05Y-6.15
X16.15Y-5.85
X16.15Y-6.15
X16.25Y-5.85
X16.25Y-6.15
X16.35Y-5.85
X16.35Y-6.15
X16.45Y-5.85
X16.45Y-6.15
X19.5Y-4.3031
X19.5Y-4.5
X12.4Y-3.65
X12.4Y-3.8469
X9.65Y-7.7
X9.65Y-8.3
X9.75Y-7.7
X9.75Y-8.3
X9.85Y-7.7
X9.85Y-8.3
X9.95Y-7.7
X9.95Y-8.3
X10.05Y-7.7
X10.05Y-8.3
X10.15Y-7.7
X10.15Y-8.3
X10.25Y-7.7
X10.25Y-8.3
X10.35Y-7.7
X10.35Y-8.3
X10.45Y-7.7
X10.45Y-8.3
X10.55Y-7.7
X10.55Y-8.3
X10.65Y-7.7
X10.65Y-8.3
X10.75Y-7.7
X10.75Y-8.3
X10.85Y-7.7
X10.85Y-8.3
X10.95Y-7.7
X10.95Y-8.3
X11.05Y-7.7
X11.05Y-8.3
X11.15Y-7.7
X11.15Y-8.3
X12.75Y-3.9
X12.75Y-4.2
X12.85Y-3.9
X12.85Y-4.2
X12.95Y-3.9
X12.95Y-4.2
X13.05Y-3.9
X13.05Y-4.2
X13.15Y-3.9
X13.15Y-4.2
X13.25Y-3.9
X13.25Y-4.2
X13.35Y-3.9
X13.35Y-4.2
X13.45Y-3.9
X13.45Y-4.2
X13.55Y-3.9
X13.55Y-4.2
X13.65Y-3.9
X13.65Y-4.2
X11.65Y-8.6
X11.65Y-9.2
X11.75Y-8.6
X11.75Y-9.2
X11.85Y-8.6
X11.85Y-9.2
X11.95Y-8.6
X11.95Y-9.2
X11.1498Y-3.9002
X11.2498Y-3.6002
X11.2498Y-3.9002
X11.3498Y-3.6002
X12.85Y-9.2
X11.3498Y-3.9002
X11.4498Y-3.6002
X11.4498Y-3.9002
X11.5498Y-3.6002
X11.5498Y-3.9002
X11.6498Y-3.6002
X11.6498Y-3.9002
X11.75Y-3.05
X11.75Y-2.25
X11.75Y-3.35
X11.85Y-3.05
X11.85Y-3.35
X11.95Y-3.05
X11.95Y-3.35
X12.25Y-2.55
X12.05Y-3.05
X12.05Y-3.35
X12.15Y-3.05
X12.15Y-3.35
X12.25Y-8.6
X12.25Y-3.05
X12.25Y-3.35
X12.35Y-3.05
X12.35Y-3.35
X12.45Y-3.05
X12.45Y-3.35
X13.75Y-7.7
X13.75Y-8.0
X12.05Y-9.2
X13.85Y-7.7
X13.85Y-8.0
X13.95Y-7.7
X13.95Y-8.0
X12.65Y-8.6
X12.05Y-8.6
X12.15Y-8.6
X12.15Y-9.2
X12.25Y-9.2
X12.35Y-8.6
X12.35Y-9.2
X12.45Y-8.6
X12.45Y-9.2
X12.55Y-8.6
X12.55Y-9.2
X12.65Y-9.2
X12.75Y-9.2
X12.85Y-8.6
X12.95Y-8.6
X12.95Y-9.2
X13.05Y-8.6
X13.05Y-9.2
X13.15Y-8.6
X16.9Y-5.1012
X16.9Y-5.298
X11.75Y-2.55
X11.85Y-2.25
X11.85Y-2.55
X11.95Y-2.55
X12.05Y-2.25
X12.05Y-2.55
X12.15Y-2.25
X12.15Y-2.55
X12.25Y-2.25
X12.35Y-2.25
X12.35Y-2.55
X14.35Y-7.7
X14.25Y-7.7
X12.45Y-2.25
X14.05Y-7.7
X14.05Y-8.0
X14.15Y-7.7
X14.15Y-8.0
X14.25Y-8.0
X14.35Y-8.0
X19.5Y-5.298
X10.4Y-9.7
X10.4Y-9.8
X10.4Y-9.9
X10.4Y-10.0
X10.4Y-10.1
X10.4Y-10.2
X10.4Y-10.3
X10.4Y-10.4
X10.4Y-10.5
X10.4Y-10.6
X10.7Y-9.7
X10.7Y-9.8
X10.7Y-9.9
X10.7Y-10.0
X10.7Y-10.1
X10.7Y-10.2
X10.7Y-10.3
X10.7Y-10.4
X10.7Y-10.5
X10.7Y-10.6
X18.3504Y-2.2498
X18.3504Y-2.5498
X18.4504Y-2.2498
X18.4504Y-2.5498
X18.5504Y-2.2498
X18.5504Y-2.5498
X18.6504Y-2.2498
X18.6504Y-2.5498
X18.7504Y-2.2498
X18.7504Y-2.5498
X18.8504Y-2.2498
X18.8504Y-2.5498
X18.9504Y-2.2498
X18.9504Y-2.5498
X19.0504Y-2.2498
X19.0504Y-2.5498
X19.1504Y-2.2498
X19.1504Y-2.5498
X19.2504Y-2.2498
X19.2504Y-2.5498
X9.35Y-4.45
X14.6Y-7.95
X11.15Y-9.7
X11.15Y-9.8
X11.15Y-9.9
X11.15Y-10.0
X11.15Y-10.1
X9.45Y-4.15
X14.6Y-7.7531
X9.45Y-4.45
X9.55Y-4.15
X9.55Y-4.45
X11.15Y-10.2
X9.35Y-4.15
X11.15Y-10.3
X11.15Y-10.4
X11.15Y-10.5
X11.15Y-10.6
X11.45Y-9.7
X11.45Y-9.8
X11.45Y-9.9
X11.45Y-10.0
X11.45Y-10.1
X11.45Y-10.2
X11.45Y-10.3
X11.45Y-10.4
X11.45Y-10.5
X11.45Y-10.6
X9.65Y-4.15
X9.65Y-4.45
X9.75Y-4.15
X9.75Y-4.45
X9.85Y-4.15
X9.85Y-4.45
X9.95Y-4.15
X9.95Y-4.45
X10.05Y-4.15
X10.05Y-4.45
X10.15Y-4.15
X10.15Y-4.45
X10.25Y-4.15
X10.25Y-4.45
X10.55Y-2.25
X10.55Y-2.55
X10.65Y-2.25
X10.65Y-2.55
X10.75Y-2.25
X10.75Y-2.55
X10.85Y-2.25
X10.95Y-2.25
X10.95Y-2.55
X11.05Y-2.25
X11.05Y-2.55
X11.15Y-2.25
X13.75Y-8.7
X13.75Y-9.0
X13.85Y-8.7
X13.85Y-9.0
X11.15Y-2.55
X11.25Y-2.25
X11.25Y-2.55
X11.65Y-7.7
X11.65Y-8.3
X11.75Y-7.7
X11.75Y-8.3
X11.85Y-7.7
X11.85Y-8.3
X11.95Y-7.7
X11.95Y-8.3
X12.05Y-7.7
X12.05Y-8.3
X12.15Y-7.7
X12.15Y-8.3
X12.25Y-7.7
X12.25Y-8.3
X12.35Y-7.7
X13.95Y-8.7
X10.85Y-2.55
X13.95Y-9.0
X14.05Y-8.7
X14.05Y-9.0
X14.15Y-8.7
X14.15Y-9.0
X14.25Y-8.7
X14.25Y-9.0
X14.35Y-8.7
X14.35Y-9.0
X12.35Y-8.3
X12.45Y-7.7
X12.45Y-8.3
X12.55Y-7.7
X12.55Y-8.3
X12.65Y-7.7
X12.65Y-8.3
X12.75Y-7.7
X12.75Y-8.3
X12.85Y-7.7
X12.85Y-8.3
X12.95Y-7.7
X12.95Y-8.3
X13.05Y-7.7
X13.05Y-8.3
X13.15Y-7.7
X13.15Y-8.3
X13.4Y-4.95
X13.4Y-5.05
X13.4Y-5.15
X13.4Y-5.25
X13.4Y-5.35
X13.4Y-5.45
X13.4Y-5.55
X13.4Y-5.65
X13.4Y-5.75
X13.5Y-4.85
X13.5Y-4.95
X13.5Y-5.05
X13.5Y-5.15
X13.5Y-5.25
X13.5Y-5.35
X13.5Y-5.45
X13.5Y-5.55
X13.5Y-5.65
X13.5Y-5.75
X13.5Y-5.85
X13.6Y-4.85
X13.6Y-4.95
X13.6Y-5.75
X13.6Y-5.85
X13.7Y-4.85
X13.7Y-4.95
X13.7Y-5.75
X13.7Y-5.85
X13.8Y-4.85
X13.8Y-4.95
X13.8Y-5.75
X13.8Y-5.85
X13.9Y-4.85
X13.9Y-4.95
X13.9Y-5.75
X13.9Y-5.85
X14.0Y-4.85
X14.0Y-4.95
X14.0Y-5.75
X14.0Y-5.85
X14.1Y-4.85
X14.1Y-4.95
X14.1Y-5.75
X14.1Y-5.85
X14.2Y-4.85
X14.2Y-4.95
X14.2Y-5.75
X14.2Y-5.85
X14.3Y-4.85
X14.3Y-4.95
X14.3Y-5.05
X14.3Y-5.15
X14.3Y-5.25
X14.3Y-5.35
X14.3Y-5.45
X14.3Y-5.55
X14.3Y-5.65
X14.3Y-5.75
X14.3Y-5.85
X14.4Y-4.95
X14.4Y-5.05
X14.4Y-5.15
X14.4Y-5.25
X14.4Y-5.35
X14.4Y-5.45
X14.4Y-5.55
X14.4Y-5.65
X14.4Y-5.75
X16.95Y-4.25
X16.95Y-4.55
X13.1713Y-10.1
X13.25Y-10.1
X17.05Y-4.25
X17.05Y-4.55
X17.15Y-4.25
X17.15Y-4.55
X17.25Y-4.25
X17.25Y-4.55
X17.35Y-4.25
X17.35Y-4.55
X17.45Y-4.25
X17.45Y-4.55
X17.55Y-4.25
X17.55Y-4.55
X17.65Y-4.25
X17.65Y-4.55
X17.75Y-4.25
X17.75Y-4.55
X17.85Y-4.25
X17.85Y-4.55
X13.4Y-9.2031
X13.4Y-9.4
X9.35Y-4.55
X9.35Y-4.85
X16.7Y-2.3031
X16.7Y-2.5
X13.4Y-8.8031
X10.3Y-3.1031
X10.3Y-3.3
X13.4Y-9.0
X11.5Y-3.1
X11.5Y-3.2969
X15.295Y-3.1031
X14.85Y-5.05
X14.85Y-5.35
X14.95Y-5.05
X14.95Y-5.35
X15.05Y-5.35
X15.15Y-5.05
X15.15Y-5.35
X15.25Y-5.05
X15.25Y-5.35
X15.35Y-5.05
X15.35Y-5.35
X15.45Y-5.05
X15.45Y-5.35
X16.7Y-4.3031
X16.7Y-4.5
X15.295Y-3.3
X12.95Y-2.25
X12.95Y-2.55
X15.05Y-5.05
X13.05Y-2.25
X13.05Y-2.55
X13.15Y-2.25
X13.15Y-2.55
X13.25Y-2.25
X13.25Y-2.55
X13.35Y-2.25
X13.35Y-2.55
X13.45Y-2.25
X13.45Y-2.55
X13.55Y-2.25
X13.55Y-2.55
X13.65Y-2.25
X13.65Y-2.55
X16.95Y-5.85
X16.95Y-6.15
X17.05Y-5.85
X17.05Y-6.15
X17.15Y-5.85
X17.15Y-6.15
X17.25Y-5.85
X17.25Y-6.15
X17.35Y-5.85
X17.35Y-6.15
X17.45Y-5.85
X17.45Y-6.15
X17.55Y-5.85
X17.55Y-6.15
X17.65Y-5.85
X17.65Y-6.15
X17.75Y-5.85
X17.75Y-6.15
X17.85Y-5.85
X17.85Y-6.15
X14.15Y-3.9
X14.15Y-4.2
X14.25Y-3.9
X14.25Y-4.2
X14.35Y-3.9
X14.35Y-4.2
X14.45Y-3.9
X14.45Y-4.2
X14.55Y-3.9
X14.55Y-4.2
X14.65Y-3.9
X14.65Y-4.2
X14.75Y-3.9
X14.75Y-4.2
X14.85Y-3.9
X14.85Y-4.2
X14.95Y-3.9
X14.95Y-4.2
X15.05Y-3.9
X15.05Y-4.2
X14.15Y-3.05
X14.15Y-3.35
X14.25Y-3.05
X14.25Y-3.35
X14.35Y-3.05
X14.35Y-3.35
X14.45Y-3.05
X14.45Y-3.35
X14.55Y-3.05
X14.55Y-3.35
X14.65Y-3.05
X14.65Y-3.35
X14.75Y-3.05
X14.75Y-3.35
X14.85Y-3.05
X14.85Y-3.35
X14.95Y-3.05
X14.95Y-3.35
X15.05Y-3.05
X15.05Y-3.35
X9.35Y-3.05
X9.35Y-3.35
X9.45Y-3.05
X9.45Y-3.35
X9.55Y-3.05
X9.55Y-3.35
X9.65Y-3.05
X9.65Y-3.35
X9.75Y-3.05
X9.75Y-3.35
X9.85Y-3.05
X9.85Y-3.35
X9.95Y-3.05
X9.95Y-3.35
X10.05Y-3.05
X10.05Y-3.35
X13.4Y-7.9031
X13.4Y-8.1
X9.75Y-6.2
X9.75Y-6.5
X9.85Y-6.2
X9.85Y-6.5
X9.95Y-6.2
X9.95Y-6.5
X10.05Y-6.2
X10.05Y-6.5
X10.15Y-6.2
X10.15Y-6.5
X10.25Y-6.2
X10.25Y-6.5
X10.35Y-6.2
X10.35Y-6.5
X10.45Y-6.2
X10.45Y-6.5
X10.55Y-6.2
X10.55Y-6.5
X10.65Y-6.2
X10.65Y-6.5
X11.9Y-3.6531
X11.9Y-3.85
X13.9Y-3.9531
X13.9Y-4.15
X11.9Y-9.7
X11.9Y-9.8
X11.9Y-9.9
X11.9Y-10.0
X11.9Y-10.1
X11.9Y-10.2
X11.9Y-10.3
X11.9Y-10.4
X11.9Y-10.5
X11.9Y-10.6
X12.2Y-9.7
X12.2Y-9.8
X12.2Y-9.9
X12.2Y-10.0
X12.2Y-10.1
X12.2Y-10.2
X12.2Y-10.3
X12.2Y-10.4
X12.2Y-10.5
X9.3498Y-3.6002
X9.3498Y-3.9002
X9.4498Y-3.6002
X9.4498Y-3.9002
X9.5498Y-3.6002
X9.5498Y-3.9002
X9.6498Y-3.6002
X9.6498Y-3.9002
X9.7498Y-3.6002
X9.7498Y-3.9002
X9.8498Y-3.6002
X9.8498Y-3.9002
X9.9498Y-3.6002
X9.9498Y-3.9002
X10.0498Y-3.6002
X10.0498Y-3.9002
X10.1498Y-3.6002
X10.1498Y-3.9002
X10.2498Y-3.6002
X10.2498Y-3.9002
X9.35Y-2.25
X9.35Y-2.55
X9.45Y-2.25
X9.45Y-2.55
X9.55Y-2.25
X9.55Y-2.55
X9.65Y-2.25
X9.65Y-2.55
X9.75Y-2.25
X9.75Y-2.55
X9.85Y-2.25
X9.85Y-2.55
X9.95Y-2.25
X9.95Y-2.55
X10.05Y-2.25
X10.05Y-2.55
X14.45Y-9.8
X14.45Y-9.9969
X14.6Y-8.2531
X14.6Y-8.45
X14.15Y-2.25
X14.15Y-2.55
X14.25Y-2.25
X14.25Y-2.55
X14.35Y-2.25
X14.35Y-2.55
X14.45Y-2.25
X14.45Y-2.55
X14.55Y-2.25
X14.55Y-2.55
X14.65Y-2.25
X14.65Y-2.55
X14.75Y-2.25
X14.75Y-2.55
X14.85Y-2.25
X14.85Y-2.55
X14.95Y-2.25
X14.95Y-2.55
X15.05Y-2.25
X15.05Y-2.55
X12.5531Y-5.15
X12.75Y-5.15
X13.5031Y-6.15
X13.7Y-6.15
X18.1Y-4.3031
X18.1Y-4.5
X19.5Y-2.3031
X19.5Y-2.5
X11.9Y-4.2031
X11.9Y-4.4
X14.7Y-9.8
X14.7Y-10.1
X9.65Y-8.6
X9.65Y-9.2
X9.75Y-8.6
X9.75Y-9.2
X9.85Y-8.6
X9.85Y-9.2
X9.95Y-8.6
X9.95Y-9.2
X10.05Y-8.6
X10.05Y-9.2
X10.15Y-8.6
X10.15Y-9.2
X10.25Y-8.6
X10.25Y-9.2
X10.35Y-8.6
X10.35Y-9.2
X10.45Y-8.6
X10.45Y-9.2
X10.55Y-8.6
X10.55Y-9.2
X10.65Y-8.6
X10.65Y-9.2
X10.75Y-8.6
X10.75Y-9.2
X18.35Y-5.35
X10.85Y-8.6
X10.85Y-9.2
X10.95Y-8.6
X10.95Y-9.2
X11.05Y-9.2
X13.85Y-9.75
X19.25Y-5.05
X11.05Y-8.6
X11.15Y-9.2
X18.85Y-5.05
X11.15Y-8.6
X12.2Y-10.6
X18.55Y-5.35
X18.65Y-5.35
X18.95Y-5.05
X13.85Y-10.05
X13.9Y-3.1
X13.9Y-3.2969
X18.35Y-5.05
X18.45Y-5.05
X18.45Y-5.35
X18.55Y-5.05
X18.65Y-5.05
X18.75Y-5.05
X18.75Y-5.35
X18.85Y-5.35
X18.95Y-5.35
X19.05Y-5.05
X19.05Y-5.35
X19.15Y-5.05
X19.15Y-5.35
X19.25Y-5.35
T4
X14.1Y-9.9
X14.2Y-9.9
T5
X10.9Y-9.7
X10.9Y-9.8
X10.9Y-9.9
X10.9Y-10.0
X10.9Y-10.1
X10.9Y-10.2
X10.9Y-10.3
X10.9Y-10.4
X10.9Y-10.5
X15.55Y-2.85
X15.55Y-2.95
X15.65Y-2.85
X15.65Y-2.95
X15.75Y-2.85
X15.75Y-2.95
X15.85Y-2.85
X15.85Y-2.95
X15.95Y-2.85
X15.95Y-2.95
X16.05Y-2.85
X16.05Y-2.95
X16.15Y-2.85
X16.15Y-2.95
X16.25Y-2.85
X16.25Y-2.95
X16.35Y-2.85
X16.35Y-2.95
X16.45Y-2.85
X16.45Y-2.95
X16.55Y-2.85
X16.55Y-2.95
X16.65Y-2.85
X16.65Y-2.95
X16.75Y-2.85
X16.75Y-2.95
X16.85Y-2.85
X16.85Y-2.95
X16.95Y-2.85
X16.95Y-2.95
X17.05Y-2.85
X17.05Y-2.95
X17.15Y-2.85
X17.15Y-2.95
X17.25Y-2.85
X17.25Y-2.95
X17.35Y-2.85
X17.35Y-2.95
X17.45Y-2.85
X17.45Y-2.95
X17.55Y-2.85
X17.55Y-2.95
X17.65Y-2.85
X17.65Y-2.95
X17.75Y-2.85
X17.75Y-2.95
X17.85Y-2.85
X17.85Y-2.95
X17.95Y-2.85
X17.95Y-2.95
X18.05Y-2.85
X18.05Y-2.95
X18.15Y-2.85
X18.15Y-2.95
X18.25Y-2.85
X18.25Y-2.95
X18.35Y-2.85
X18.35Y-2.95
X18.45Y-2.85
X18.45Y-2.95
X18.55Y-2.85
X18.55Y-2.95
X18.65Y-2.85
X18.65Y-2.95
X18.75Y-2.85
X18.75Y-2.95
X18.85Y-2.85
X18.85Y-2.95
X18.95Y-2.85
X18.95Y-2.95
X19.05Y-2.85
X19.05Y-2.95
X19.15Y-2.85
X19.15Y-2.95
X19.25Y-2.85
X19.25Y-2.95
X19.35Y-2.85
X19.35Y-2.95
X19.45Y-2.85
X19.45Y-2.95
X17.05Y-5.65
X17.15Y-5.65
X17.25Y-5.65
X17.35Y-5.65
X17.45Y-5.65
X9.85Y-6.7
X9.95Y-6.7
X10.05Y-6.7
X10.15Y-6.7
X10.25Y-6.7
X10.35Y-6.7
X10.45Y-6.7
X10.55Y-6.7
X10.65Y-6.7
X15.55Y-3.45
X17.55Y-5.65
X15.55Y-3.55
X15.65Y-3.45
X17.65Y-5.65
X17.75Y-5.65
X17.85Y-5.65
X11.25Y-5.75
X11.25Y-5.85
X11.25Y-5.95
X11.25Y-6.05
X11.25Y-6.15
X11.25Y-6.25
X11.25Y-6.35
X11.25Y-6.45
X15.65Y-3.55
X15.75Y-3.45
X15.75Y-3.55
X15.85Y-3.45
X15.85Y-3.55
X15.95Y-3.45
X15.95Y-3.55
X16.05Y-3.45
X16.05Y-3.55
X16.15Y-3.45
X16.15Y-3.55
X16.25Y-3.45
X16.25Y-3.55
X16.35Y-3.45
X16.35Y-3.55
X16.45Y-3.45
X16.45Y-3.55
X16.55Y-3.45
X16.55Y-3.55
X16.65Y-3.45
X16.65Y-3.55
X16.75Y-3.45
X16.75Y-3.55
X16.85Y-3.45
X16.85Y-3.55
X16.95Y-3.45
X16.95Y-3.55
X17.05Y-3.45
X17.05Y-3.55
X17.15Y-3.45
X17.15Y-3.55
X17.25Y-3.45
X17.25Y-3.55
X17.35Y-3.45
X17.35Y-3.55
X17.45Y-3.45
X17.45Y-3.55
X17.55Y-3.45
X17.55Y-3.55
X17.65Y-3.45
X17.65Y-3.55
X17.75Y-3.45
X17.75Y-3.55
X17.85Y-3.55
X17.95Y-3.45
X17.95Y-3.55
X18.05Y-3.45
X18.05Y-3.55
X18.15Y-3.45
X18.15Y-3.55
X18.25Y-3.45
X18.35Y-3.45
X18.35Y-3.55
X18.45Y-3.45
X18.45Y-3.55
X18.55Y-3.45
X18.55Y-3.55
X18.65Y-3.45
X18.65Y-3.55
X18.75Y-3.45
X18.75Y-3.55
X18.85Y-3.45
X18.85Y-3.55
X18.95Y-3.45
X18.95Y-3.55
X19.05Y-3.45
X19.05Y-3.55
X19.15Y-3.45
X19.15Y-3.55
X19.25Y-3.45
X19.25Y-3.55
X19.35Y-3.45
X19.35Y-3.55
X19.45Y-3.45
X19.45Y-3.55
X13.45Y-2.1
X13.55Y-2.1
X13.65Y-2.1
X13.75Y-2.1
X13.85Y-2.1
X13.95Y-2.1
X14.05Y-2.1
X14.15Y-2.1
X14.25Y-2.1
X14.35Y-2.1
X14.45Y-2.1
X14.55Y-2.1
X14.65Y-2.1
X14.75Y-2.1
X14.85Y-2.1
X14.95Y-2.1
X15.05Y-2.1
X16.65Y-6.7
X16.65Y-6.8
X16.65Y-6.9
X16.65Y-7.0
X16.65Y-7.1
X16.65Y-7.2
X16.65Y-7.3
X16.65Y-7.4
X16.65Y-7.5
X16.65Y-7.6
X16.65Y-7.7
X16.65Y-7.8
X16.65Y-7.9
X16.65Y-8.0
X16.65Y-8.1
X16.65Y-8.2
X16.65Y-8.3
X16.65Y-8.4
X16.65Y-8.5
X16.65Y-8.6
X16.65Y-8.7
X16.65Y-8.8
X16.65Y-8.9
X16.65Y-9.0
X16.65Y-9.1
X16.65Y-9.2
X16.65Y-9.3
X16.65Y-9.4
X16.65Y-9.5
X16.65Y-9.6
X16.65Y-9.7
X16.65Y-9.8
X16.65Y-9.9
X16.65Y-10.0
X16.65Y-10.1
X16.65Y-10.3
X16.65Y-10.4
X16.65Y-10.5
X16.65Y-10.6
X16.75Y-6.7
X16.75Y-6.8
X16.75Y-6.9
X16.75Y-7.0
X16.75Y-7.1
X16.75Y-7.2
X16.75Y-7.3
X16.75Y-7.4
X16.75Y-7.5
X16.75Y-7.6
X16.75Y-7.7
X16.75Y-7.8
X16.75Y-7.9
X16.75Y-8.0
X16.75Y-8.1
X16.75Y-8.2
X16.75Y-8.3
X16.75Y-8.4
X11.25Y-6.55
X11.25Y-6.65
X11.25Y-6.75
X11.25Y-6.85
X11.25Y-6.95
X11.25Y-7.05
X11.25Y-7.15
X11.25Y-7.25
X11.85Y-5.75
X11.85Y-5.85
X11.85Y-5.95
X11.85Y-6.05
X11.85Y-6.15
X11.85Y-6.25
X11.85Y-6.35
X11.85Y-6.45
X11.85Y-6.55
X11.85Y-6.65
X11.85Y-6.75
X11.85Y-6.85
X11.85Y-6.95
X11.85Y-7.05
X11.85Y-7.15
X11.85Y-7.25
X14.95Y-8.7
X14.95Y-8.8
X14.95Y-8.9
X14.95Y-9.0
X14.95Y-9.1
X14.95Y-9.2
X14.95Y-9.3
X14.95Y-9.4
X14.95Y-9.5
X17.85Y-3.45
X16.05Y-6.7
X16.05Y-6.8
X16.05Y-6.9
X16.05Y-7.0
X16.05Y-7.1
X16.05Y-7.2
X16.05Y-7.3
X16.05Y-7.4
X16.05Y-7.5
X16.05Y-7.6
X16.05Y-7.7
X16.05Y-7.8
X16.05Y-7.9
X16.05Y-8.0
X16.05Y-8.1
X16.05Y-8.2
X16.05Y-8.3
X16.05Y-8.4
X16.05Y-8.5
X16.05Y-8.6
X16.05Y-8.7
X16.05Y-8.8
X16.05Y-8.9
X16.05Y-9.0
X16.05Y-9.1
X16.05Y-9.2
X16.05Y-9.3
X16.05Y-9.4
X16.05Y-9.5
X16.05Y-9.6
X16.05Y-9.7
X16.05Y-9.8
X16.05Y-9.9
X16.05Y-10.0
X16.05Y-10.1
X16.05Y-10.2
X16.05Y-10.3
X16.05Y-10.4
X16.05Y-10.5
X16.05Y-10.6
X16.15Y-6.7
X16.15Y-6.8
X16.15Y-6.9
X16.15Y-7.0
X16.15Y-7.1
X16.15Y-7.2
X16.15Y-7.3
X16.15Y-7.4
X16.15Y-7.5
X16.15Y-7.6
X16.15Y-7.7
X16.15Y-7.8
X16.15Y-7.9
X16.15Y-8.0
X16.15Y-8.1
X16.15Y-8.2
X16.15Y-8.3
X16.15Y-8.4
X16.15Y-8.5
X16.15Y-8.6
X16.15Y-8.7
X16.15Y-8.8
X16.15Y-8.9
X16.15Y-9.0
X16.15Y-9.1
X16.15Y-9.2
X16.15Y-9.3
X16.15Y-9.4
X16.15Y-9.5
X16.15Y-9.6
X16.15Y-9.7
X16.15Y-9.8
X16.15Y-9.9
X16.15Y-10.0
X16.15Y-10.1
X16.15Y-10.2
X16.15Y-10.3
X16.15Y-10.4
X16.15Y-10.5
X16.15Y-10.6
X17.25Y-6.7
X17.25Y-6.8
X17.25Y-6.9
X17.25Y-7.0
X17.25Y-7.1
X17.25Y-7.2
X17.25Y-7.3
X17.25Y-7.4
X17.25Y-7.5
X17.25Y-7.6
X17.25Y-7.7
X17.25Y-7.8
X17.25Y-7.9
X17.25Y-8.0
X17.25Y-8.1
X17.25Y-8.2
X17.25Y-8.3
X17.25Y-8.4
X17.25Y-8.5
X17.25Y-8.6
X17.25Y-8.7
X17.25Y-8.8
X17.25Y-8.9
X17.25Y-9.0
X17.25Y-9.1
X17.25Y-9.2
X17.25Y-9.3
X17.25Y-9.4
X17.25Y-9.5
X17.25Y-9.6
X17.25Y-9.7
X17.25Y-9.8
X17.25Y-9.9
X17.25Y-10.0
X17.25Y-10.1
X17.25Y-10.2
X17.25Y-10.3
X17.25Y-10.4
X17.25Y-10.5
X17.25Y-10.6
X17.35Y-6.7
X17.35Y-6.8
X17.35Y-6.9
X17.35Y-7.0
X17.35Y-7.1
X17.35Y-7.2
X17.35Y-7.3
X17.35Y-7.4
X17.35Y-7.5
X17.35Y-7.6
X17.35Y-7.7
X17.35Y-7.8
X17.35Y-7.9
X17.35Y-8.0
X17.35Y-8.1
X17.35Y-8.2
X17.35Y-8.3
X17.35Y-8.4
X17.35Y-8.5
X17.35Y-8.6
X17.35Y-8.7
X17.35Y-8.8
X17.35Y-8.9
X17.35Y-9.0
X17.35Y-9.1
X17.35Y-9.2
X17.35Y-9.3
X17.35Y-9.4
X17.35Y-9.5
X17.35Y-9.6
X17.35Y-9.7
X17.35Y-9.8
X17.35Y-9.9
X17.35Y-10.0
X17.35Y-10.1
X17.35Y-10.2
X17.35Y-10.3
X17.35Y-10.4
X17.35Y-10.5
X17.35Y-10.6
X18.45Y-6.7
X18.45Y-6.8
X18.45Y-6.9
X18.45Y-7.0
X18.45Y-7.1
X18.45Y-7.2
X18.45Y-7.3
X18.45Y-7.4
X18.45Y-7.5
X18.45Y-7.6
X18.45Y-7.7
X18.45Y-7.8
X18.45Y-7.9
X15.0469Y-3.7
X18.45Y-8.0
X18.45Y-8.1
X18.45Y-8.2
X18.45Y-8.3
X18.45Y-8.4
X18.45Y-8.5
X18.45Y-8.6
X18.45Y-8.7
X18.45Y-8.8
X18.45Y-8.9
X18.45Y-9.0
X18.45Y-9.1
X18.45Y-9.2
X18.45Y-9.3
X18.45Y-9.4
X18.45Y-9.5
X18.45Y-9.6
X18.45Y-9.7
X18.45Y-9.8
X18.45Y-9.9
X18.45Y-10.0
X18.45Y-10.1
X18.45Y-10.2
X18.45Y-10.3
X18.45Y-10.4
X18.45Y-10.5
X18.45Y-10.6
X18.55Y-6.7
X18.55Y-6.8
X18.55Y-6.9
X18.55Y-7.0
X18.55Y-7.1
X18.55Y-7.2
X18.55Y-7.3
X18.55Y-7.4
X18.55Y-7.5
X18.55Y-7.6
X18.55Y-7.7
X18.55Y-7.8
X18.55Y-7.9
X18.55Y-8.0
X18.55Y-8.1
X18.55Y-8.2
X18.55Y-8.3
X18.55Y-8.4
X18.55Y-8.5
X18.55Y-8.6
X18.55Y-8.7
X18.55Y-8.8
X18.55Y-8.9
X18.55Y-9.0
X18.55Y-9.1
X18.55Y-9.2
X18.55Y-9.3
X18.55Y-9.4
X18.55Y-9.5
X18.55Y-9.6
X18.55Y-9.7
X18.55Y-9.8
X18.55Y-9.9
X18.55Y-10.0
X18.55Y-10.1
X18.55Y-10.2
X18.55Y-10.3
X18.55Y-10.4
X18.55Y-10.5
X18.55Y-10.6
X15.65Y-4.05
X15.75Y-4.05
X15.85Y-4.05
X15.95Y-4.05
X16.05Y-4.05
X16.15Y-4.05
X16.25Y-4.05
X16.35Y-4.05
X16.45Y-4.05
X9.85Y-5.75
X9.95Y-5.75
X10.05Y-5.75
X10.15Y-5.75
X10.25Y-5.75
X10.35Y-5.75
X10.65Y-5.75
X13.4469Y-3.7
X13.5469Y-3.7
X13.6469Y-3.7
X13.7469Y-3.7
X13.8469Y-3.7
X13.9469Y-3.7
X14.0469Y-3.7
X14.1469Y-3.7
X14.2469Y-3.7
X14.3469Y-3.7
X14.4469Y-3.7
X14.5469Y-3.7
X14.6469Y-3.7
X14.7469Y-3.7
X14.8469Y-3.7
X14.9469Y-3.7
X10.45Y-5.75
X16.65Y-10.2
X10.55Y-5.75
X16.75Y-8.5
X12.35Y-5.75
X12.35Y-5.85
X12.35Y-5.95
X12.35Y-6.05
X12.35Y-6.15
X12.35Y-6.25
X12.35Y-6.35
X12.35Y-6.45
X12.35Y-6.55
X12.35Y-6.65
X12.35Y-6.75
X12.35Y-6.85
X12.35Y-6.95
X12.35Y-7.05
X12.35Y-7.15
X12.35Y-7.25
X12.95Y-5.75
X12.95Y-5.85
X12.95Y-5.95
X12.95Y-6.05
X12.95Y-6.15
X12.95Y-6.25
X12.95Y-6.35
X12.95Y-6.45
X12.95Y-6.55
X12.95Y-6.65
X12.95Y-6.75
X12.95Y-6.85
X12.95Y-6.95
X12.95Y-7.05
X12.95Y-7.15
X12.95Y-7.25
X18.45Y-4.85
X18.55Y-4.85
X18.65Y-4.85
X18.75Y-4.85
X18.85Y-4.85
X18.95Y-4.85
X19.05Y-4.85
X19.15Y-4.85
X19.25Y-4.85
X18.45Y-4.05
X18.55Y-4.05
X17.05Y-4.05
X17.15Y-4.05
X17.25Y-4.05
X17.35Y-4.05
X17.45Y-4.05
X17.55Y-4.05
X17.65Y-4.05
X17.75Y-4.05
X17.85Y-4.05
X19.05Y-6.7
X19.05Y-6.8
X19.05Y-6.9
X19.05Y-7.0
X19.05Y-7.1
X19.05Y-7.2
X19.05Y-7.3
X19.05Y-7.4
X19.05Y-7.5
X19.05Y-7.6
X19.05Y-7.7
X19.05Y-7.8
X19.05Y-7.9
X19.05Y-8.0
X19.05Y-8.1
X19.05Y-8.2
X19.05Y-8.3
X19.05Y-8.4
X19.05Y-8.5
X19.05Y-8.6
X19.05Y-8.7
X19.05Y-8.8
X19.05Y-8.9
X19.05Y-9.0
X19.05Y-9.1
X19.05Y-9.2
X19.05Y-9.3
X19.05Y-9.4
X19.05Y-9.5
X19.05Y-9.6
X19.05Y-9.7
X19.05Y-9.8
X19.05Y-9.9
X19.05Y-10.0
X19.05Y-10.1
X19.05Y-10.2
X19.05Y-10.3
X19.05Y-10.4
X19.05Y-10.5
X19.05Y-10.6
X19.15Y-6.7
X19.15Y-6.8
X19.15Y-6.9
X19.15Y-7.0
X19.15Y-7.1
X19.15Y-7.2
X19.15Y-7.3
X19.15Y-7.4
X19.15Y-7.5
X19.15Y-7.6
X19.15Y-7.7
X19.15Y-7.8
X19.15Y-7.9
X19.15Y-8.0
X19.15Y-8.1
X19.15Y-8.2
X19.15Y-8.3
X19.15Y-8.4
X19.15Y-8.5
X19.15Y-8.6
X19.15Y-8.7
X19.15Y-8.8
X19.15Y-8.9
X19.15Y-9.0
X19.15Y-9.1
X19.15Y-9.2
X19.15Y-9.3
X19.15Y-9.4
X19.15Y-9.5
X19.15Y-9.6
X19.15Y-9.7
X19.15Y-9.8
X19.15Y-9.9
X19.15Y-10.0
X19.15Y-10.1
X19.15Y-10.2
X19.15Y-10.3
X19.15Y-10.4
X19.15Y-10.6
X18.65Y-4.05
X19.15Y-10.5
X18.75Y-4.05
X18.85Y-4.05
X18.95Y-4.05
X19.05Y-4.05
X19.15Y-4.05
X19.25Y-4.05
X12.4Y-9.7
X12.4Y-9.8
X12.4Y-9.9
X12.4Y-10.0
X12.4Y-10.1
X12.4Y-10.2
X12.4Y-10.3
X12.4Y-10.4
X12.4Y-10.5
X10.15Y-9.7
X10.15Y-9.8
X10.15Y-9.9
X10.15Y-10.0
X10.15Y-10.1
X10.15Y-10.2
X10.15Y-10.3
X10.15Y-10.4
X10.15Y-10.5
X15.45Y-8.7
X15.45Y-8.8
X15.45Y-8.9
X15.45Y-9.0
X15.45Y-9.1
X15.45Y-9.2
X15.45Y-9.3
X15.45Y-9.4
X15.45Y-9.5
X15.45Y-9.6
X15.45Y-9.7
X15.45Y-9.8
X15.45Y-9.9
X15.45Y-10.0
X15.45Y-10.1
X15.45Y-10.2
X15.45Y-10.3
X15.45Y-10.4
X15.45Y-10.5
X15.45Y-10.6
X15.55Y-8.7
X18.25Y-3.55
X16.75Y-8.6
X15.55Y-8.8
X15.55Y-8.9
X15.55Y-9.0
X15.55Y-9.1
X15.55Y-9.2
X15.55Y-9.3
X15.55Y-9.4
X15.55Y-9.5
X15.55Y-9.6
X15.55Y-9.7
X15.55Y-9.8
X15.55Y-9.9
X15.55Y-10.0
X15.55Y-10.1
X15.55Y-10.2
X15.55Y-10.3
X15.55Y-10.4
X15.55Y-10.5
X15.55Y-10.6
X17.85Y-6.7
X17.85Y-6.8
X17.85Y-6.9
X17.85Y-7.0
X17.85Y-7.1
X17.85Y-7.2
X17.85Y-7.3
X17.85Y-7.4
X17.85Y-7.5
X17.85Y-7.6
X17.85Y-7.7
X17.85Y-7.8
X17.85Y-7.9
X17.85Y-8.0
X17.85Y-8.1
X17.85Y-8.2
X17.85Y-8.3
X17.85Y-8.4
X17.85Y-8.5
X17.85Y-8.6
X17.85Y-8.7
X17.85Y-8.8
X17.85Y-8.9
X17.85Y-9.0
X17.85Y-9.1
X17.85Y-9.2
X17.85Y-9.3
X17.85Y-9.4
X17.85Y-9.5
X16.75Y-8.7
X16.75Y-8.8
X16.75Y-8.9
X16.75Y-9.0
X16.75Y-9.1
X16.75Y-9.2
X16.75Y-9.3
X16.75Y-9.4
X16.75Y-9.5
X16.75Y-9.6
X16.75Y-9.7
X16.75Y-9.8
X16.75Y-9.9
X16.75Y-10.0
X16.75Y-10.1
X16.75Y-10.2
X16.75Y-10.3
X16.75Y-10.4
X16.75Y-10.5
X16.75Y-10.6
X13.45Y-2.9
X13.55Y-2.9
X13.65Y-2.9
X13.75Y-2.9
X13.85Y-2.9
X13.95Y-2.9
X14.05Y-2.9
X17.95Y-7.1
X17.85Y-9.6
X17.85Y-9.7
X17.85Y-9.8
X17.85Y-9.9
X17.85Y-10.0
X17.85Y-10.1
X17.85Y-10.2
X17.85Y-10.3
X17.85Y-10.4
X17.85Y-10.5
X17.85Y-10.6
X17.95Y-6.7
X17.95Y-6.8
X17.95Y-6.9
X17.95Y-7.0
X17.95Y-7.2
X17.95Y-7.3
X17.95Y-7.4
X17.95Y-7.5
X17.95Y-7.6
X17.95Y-7.7
X17.95Y-7.8
X17.95Y-7.9
X17.95Y-8.0
X17.95Y-8.1
X17.95Y-8.2
X17.95Y-8.3
X17.95Y-8.4
X17.95Y-8.5
X17.95Y-8.6
X17.95Y-8.7
X17.95Y-8.8
X17.95Y-8.9
X17.95Y-9.0
X17.95Y-9.1
X17.95Y-9.2
X17.95Y-9.3
X17.95Y-9.4
X14.65Y-2.9
X17.95Y-9.5
X17.95Y-9.6
X17.95Y-9.7
X17.95Y-9.8
X17.95Y-9.9
X17.95Y-10.0
X17.95Y-10.1
X17.95Y-10.2
X14.45Y-2.9
X14.15Y-2.9
X14.25Y-2.9
X14.35Y-2.9
X17.95Y-10.5
X14.55Y-2.9
X14.75Y-2.9
X14.85Y-2.9
X14.95Y-2.9
X19.25Y-5.65
X17.95Y-10.4
X18.65Y-5.65
X18.75Y-5.65
X18.85Y-5.65
X18.95Y-5.65
X19.05Y-5.65
X19.15Y-5.65
X17.95Y-10.3
X15.05Y-2.9
X18.45Y-5.65
X18.55Y-5.65
X17.95Y-10.6
X11.65Y-9.7
X11.65Y-9.8
X11.65Y-9.9
X11.65Y-10.0
X11.65Y-10.1
X11.65Y-10.2
X11.65Y-10.3
X11.65Y-10.4
X11.65Y-10.5
T6
X13.2441Y-9.6228
X13.2441Y-9.8
X13.5Y-9.6228
X13.5Y-9.8
T7
X13.2981Y-10.53
X13.495Y-10.53
T8
X9.4Y-10.55
X14.7Y-1.8
X19.45Y-6.25
X9.4Y-6.25
X14.7Y-10.55
X19.45Y-10.55
X19.45Y-1.8
X9.4Y-1.8
X14.7Y-6.25
T9
X13.9Y-10.2957
T5
G00X13.7228Y-10.4039
M15
G01X13.7228Y-10.3449
M16
G05
G00X13.9256Y-10.4138
M15
G01X13.8744Y-10.4138
M16
G05
G00X13.9394Y-10.65
M15
G01X13.8606Y-10.65
M16
G05
G00X14.0772Y-10.4039
M15
G01X14.0772Y-10.3449
M16
G05
T0
M30
