G04 #@! TF.GenerationSoftware,KiCad,Pcbnew,(5.1.0-0)*
G04 #@! TF.CreationDate,2019-09-18T19:58:45-07:00*
G04 #@! TF.ProjectId,LEDRiser16,4c454452-6973-4657-9231-362e6b696361,rev?*
G04 #@! TF.SameCoordinates,Original*
G04 #@! TF.FileFunction,Soldermask,Top*
G04 #@! TF.FilePolarity,Negative*
%FSLAX46Y46*%
G04 Gerber Fmt 4.6, Leading zero omitted, Abs format (unit mm)*
G04 Created by KiCad (PCBNEW (5.1.0-0)) date 2019-09-18 19:58:45*
%MOMM*%
%LPD*%
G04 APERTURE LIST*
%ADD10C,0.100000*%
G04 APERTURE END LIST*
D10*
G36*
X124803000Y-83909000D02*
G01*
X123101000Y-83909000D01*
X123101000Y-82207000D01*
X124803000Y-82207000D01*
X124803000Y-83909000D01*
X124803000Y-83909000D01*
G37*
G36*
X121578823Y-82219313D02*
G01*
X121739242Y-82267976D01*
X121871906Y-82338886D01*
X121887078Y-82346996D01*
X122016659Y-82453341D01*
X122123004Y-82582922D01*
X122123005Y-82582924D01*
X122202024Y-82730758D01*
X122250687Y-82891177D01*
X122267117Y-83058000D01*
X122250687Y-83224823D01*
X122202024Y-83385242D01*
X122131114Y-83517906D01*
X122123004Y-83533078D01*
X122016659Y-83662659D01*
X121887078Y-83769004D01*
X121887076Y-83769005D01*
X121739242Y-83848024D01*
X121578823Y-83896687D01*
X121453804Y-83909000D01*
X121370196Y-83909000D01*
X121245177Y-83896687D01*
X121084758Y-83848024D01*
X120936924Y-83769005D01*
X120936922Y-83769004D01*
X120807341Y-83662659D01*
X120700996Y-83533078D01*
X120692886Y-83517906D01*
X120621976Y-83385242D01*
X120573313Y-83224823D01*
X120556883Y-83058000D01*
X120573313Y-82891177D01*
X120621976Y-82730758D01*
X120700995Y-82582924D01*
X120700996Y-82582922D01*
X120807341Y-82453341D01*
X120936922Y-82346996D01*
X120952094Y-82338886D01*
X121084758Y-82267976D01*
X121245177Y-82219313D01*
X121370196Y-82207000D01*
X121453804Y-82207000D01*
X121578823Y-82219313D01*
X121578823Y-82219313D01*
G37*
G36*
X119038823Y-82219313D02*
G01*
X119199242Y-82267976D01*
X119331906Y-82338886D01*
X119347078Y-82346996D01*
X119476659Y-82453341D01*
X119583004Y-82582922D01*
X119583005Y-82582924D01*
X119662024Y-82730758D01*
X119710687Y-82891177D01*
X119727117Y-83058000D01*
X119710687Y-83224823D01*
X119662024Y-83385242D01*
X119591114Y-83517906D01*
X119583004Y-83533078D01*
X119476659Y-83662659D01*
X119347078Y-83769004D01*
X119347076Y-83769005D01*
X119199242Y-83848024D01*
X119038823Y-83896687D01*
X118913804Y-83909000D01*
X118830196Y-83909000D01*
X118705177Y-83896687D01*
X118544758Y-83848024D01*
X118396924Y-83769005D01*
X118396922Y-83769004D01*
X118267341Y-83662659D01*
X118160996Y-83533078D01*
X118152886Y-83517906D01*
X118081976Y-83385242D01*
X118033313Y-83224823D01*
X118016883Y-83058000D01*
X118033313Y-82891177D01*
X118081976Y-82730758D01*
X118160995Y-82582924D01*
X118160996Y-82582922D01*
X118267341Y-82453341D01*
X118396922Y-82346996D01*
X118412094Y-82338886D01*
X118544758Y-82267976D01*
X118705177Y-82219313D01*
X118830196Y-82207000D01*
X118913804Y-82207000D01*
X119038823Y-82219313D01*
X119038823Y-82219313D01*
G37*
G36*
X116498823Y-82219313D02*
G01*
X116659242Y-82267976D01*
X116791906Y-82338886D01*
X116807078Y-82346996D01*
X116936659Y-82453341D01*
X117043004Y-82582922D01*
X117043005Y-82582924D01*
X117122024Y-82730758D01*
X117170687Y-82891177D01*
X117187117Y-83058000D01*
X117170687Y-83224823D01*
X117122024Y-83385242D01*
X117051114Y-83517906D01*
X117043004Y-83533078D01*
X116936659Y-83662659D01*
X116807078Y-83769004D01*
X116807076Y-83769005D01*
X116659242Y-83848024D01*
X116498823Y-83896687D01*
X116373804Y-83909000D01*
X116290196Y-83909000D01*
X116165177Y-83896687D01*
X116004758Y-83848024D01*
X115856924Y-83769005D01*
X115856922Y-83769004D01*
X115727341Y-83662659D01*
X115620996Y-83533078D01*
X115612886Y-83517906D01*
X115541976Y-83385242D01*
X115493313Y-83224823D01*
X115476883Y-83058000D01*
X115493313Y-82891177D01*
X115541976Y-82730758D01*
X115620995Y-82582924D01*
X115620996Y-82582922D01*
X115727341Y-82453341D01*
X115856922Y-82346996D01*
X115872094Y-82338886D01*
X116004758Y-82267976D01*
X116165177Y-82219313D01*
X116290196Y-82207000D01*
X116373804Y-82207000D01*
X116498823Y-82219313D01*
X116498823Y-82219313D01*
G37*
G36*
X113958823Y-82219313D02*
G01*
X114119242Y-82267976D01*
X114251906Y-82338886D01*
X114267078Y-82346996D01*
X114396659Y-82453341D01*
X114503004Y-82582922D01*
X114503005Y-82582924D01*
X114582024Y-82730758D01*
X114630687Y-82891177D01*
X114647117Y-83058000D01*
X114630687Y-83224823D01*
X114582024Y-83385242D01*
X114511114Y-83517906D01*
X114503004Y-83533078D01*
X114396659Y-83662659D01*
X114267078Y-83769004D01*
X114267076Y-83769005D01*
X114119242Y-83848024D01*
X113958823Y-83896687D01*
X113833804Y-83909000D01*
X113750196Y-83909000D01*
X113625177Y-83896687D01*
X113464758Y-83848024D01*
X113316924Y-83769005D01*
X113316922Y-83769004D01*
X113187341Y-83662659D01*
X113080996Y-83533078D01*
X113072886Y-83517906D01*
X113001976Y-83385242D01*
X112953313Y-83224823D01*
X112936883Y-83058000D01*
X112953313Y-82891177D01*
X113001976Y-82730758D01*
X113080995Y-82582924D01*
X113080996Y-82582922D01*
X113187341Y-82453341D01*
X113316922Y-82346996D01*
X113332094Y-82338886D01*
X113464758Y-82267976D01*
X113625177Y-82219313D01*
X113750196Y-82207000D01*
X113833804Y-82207000D01*
X113958823Y-82219313D01*
X113958823Y-82219313D01*
G37*
G36*
X111418823Y-82219313D02*
G01*
X111579242Y-82267976D01*
X111711906Y-82338886D01*
X111727078Y-82346996D01*
X111856659Y-82453341D01*
X111963004Y-82582922D01*
X111963005Y-82582924D01*
X112042024Y-82730758D01*
X112090687Y-82891177D01*
X112107117Y-83058000D01*
X112090687Y-83224823D01*
X112042024Y-83385242D01*
X111971114Y-83517906D01*
X111963004Y-83533078D01*
X111856659Y-83662659D01*
X111727078Y-83769004D01*
X111727076Y-83769005D01*
X111579242Y-83848024D01*
X111418823Y-83896687D01*
X111293804Y-83909000D01*
X111210196Y-83909000D01*
X111085177Y-83896687D01*
X110924758Y-83848024D01*
X110776924Y-83769005D01*
X110776922Y-83769004D01*
X110647341Y-83662659D01*
X110540996Y-83533078D01*
X110532886Y-83517906D01*
X110461976Y-83385242D01*
X110413313Y-83224823D01*
X110396883Y-83058000D01*
X110413313Y-82891177D01*
X110461976Y-82730758D01*
X110540995Y-82582924D01*
X110540996Y-82582922D01*
X110647341Y-82453341D01*
X110776922Y-82346996D01*
X110792094Y-82338886D01*
X110924758Y-82267976D01*
X111085177Y-82219313D01*
X111210196Y-82207000D01*
X111293804Y-82207000D01*
X111418823Y-82219313D01*
X111418823Y-82219313D01*
G37*
G36*
X108878823Y-82219313D02*
G01*
X109039242Y-82267976D01*
X109171906Y-82338886D01*
X109187078Y-82346996D01*
X109316659Y-82453341D01*
X109423004Y-82582922D01*
X109423005Y-82582924D01*
X109502024Y-82730758D01*
X109550687Y-82891177D01*
X109567117Y-83058000D01*
X109550687Y-83224823D01*
X109502024Y-83385242D01*
X109431114Y-83517906D01*
X109423004Y-83533078D01*
X109316659Y-83662659D01*
X109187078Y-83769004D01*
X109187076Y-83769005D01*
X109039242Y-83848024D01*
X108878823Y-83896687D01*
X108753804Y-83909000D01*
X108670196Y-83909000D01*
X108545177Y-83896687D01*
X108384758Y-83848024D01*
X108236924Y-83769005D01*
X108236922Y-83769004D01*
X108107341Y-83662659D01*
X108000996Y-83533078D01*
X107992886Y-83517906D01*
X107921976Y-83385242D01*
X107873313Y-83224823D01*
X107856883Y-83058000D01*
X107873313Y-82891177D01*
X107921976Y-82730758D01*
X108000995Y-82582924D01*
X108000996Y-82582922D01*
X108107341Y-82453341D01*
X108236922Y-82346996D01*
X108252094Y-82338886D01*
X108384758Y-82267976D01*
X108545177Y-82219313D01*
X108670196Y-82207000D01*
X108753804Y-82207000D01*
X108878823Y-82219313D01*
X108878823Y-82219313D01*
G37*
G36*
X106338823Y-82219313D02*
G01*
X106499242Y-82267976D01*
X106631906Y-82338886D01*
X106647078Y-82346996D01*
X106776659Y-82453341D01*
X106883004Y-82582922D01*
X106883005Y-82582924D01*
X106962024Y-82730758D01*
X107010687Y-82891177D01*
X107027117Y-83058000D01*
X107010687Y-83224823D01*
X106962024Y-83385242D01*
X106891114Y-83517906D01*
X106883004Y-83533078D01*
X106776659Y-83662659D01*
X106647078Y-83769004D01*
X106647076Y-83769005D01*
X106499242Y-83848024D01*
X106338823Y-83896687D01*
X106213804Y-83909000D01*
X106130196Y-83909000D01*
X106005177Y-83896687D01*
X105844758Y-83848024D01*
X105696924Y-83769005D01*
X105696922Y-83769004D01*
X105567341Y-83662659D01*
X105460996Y-83533078D01*
X105452886Y-83517906D01*
X105381976Y-83385242D01*
X105333313Y-83224823D01*
X105316883Y-83058000D01*
X105333313Y-82891177D01*
X105381976Y-82730758D01*
X105460995Y-82582924D01*
X105460996Y-82582922D01*
X105567341Y-82453341D01*
X105696922Y-82346996D01*
X105712094Y-82338886D01*
X105844758Y-82267976D01*
X106005177Y-82219313D01*
X106130196Y-82207000D01*
X106213804Y-82207000D01*
X106338823Y-82219313D01*
X106338823Y-82219313D01*
G37*
G36*
X103798823Y-82219313D02*
G01*
X103959242Y-82267976D01*
X104091906Y-82338886D01*
X104107078Y-82346996D01*
X104236659Y-82453341D01*
X104343004Y-82582922D01*
X104343005Y-82582924D01*
X104422024Y-82730758D01*
X104470687Y-82891177D01*
X104487117Y-83058000D01*
X104470687Y-83224823D01*
X104422024Y-83385242D01*
X104351114Y-83517906D01*
X104343004Y-83533078D01*
X104236659Y-83662659D01*
X104107078Y-83769004D01*
X104107076Y-83769005D01*
X103959242Y-83848024D01*
X103798823Y-83896687D01*
X103673804Y-83909000D01*
X103590196Y-83909000D01*
X103465177Y-83896687D01*
X103304758Y-83848024D01*
X103156924Y-83769005D01*
X103156922Y-83769004D01*
X103027341Y-83662659D01*
X102920996Y-83533078D01*
X102912886Y-83517906D01*
X102841976Y-83385242D01*
X102793313Y-83224823D01*
X102776883Y-83058000D01*
X102793313Y-82891177D01*
X102841976Y-82730758D01*
X102920995Y-82582924D01*
X102920996Y-82582922D01*
X103027341Y-82453341D01*
X103156922Y-82346996D01*
X103172094Y-82338886D01*
X103304758Y-82267976D01*
X103465177Y-82219313D01*
X103590196Y-82207000D01*
X103673804Y-82207000D01*
X103798823Y-82219313D01*
X103798823Y-82219313D01*
G37*
G36*
X100927000Y-83909000D02*
G01*
X99225000Y-83909000D01*
X99225000Y-82207000D01*
X100927000Y-82207000D01*
X100927000Y-83909000D01*
X100927000Y-83909000D01*
G37*
G36*
X97702823Y-82219313D02*
G01*
X97863242Y-82267976D01*
X97995906Y-82338886D01*
X98011078Y-82346996D01*
X98140659Y-82453341D01*
X98247004Y-82582922D01*
X98247005Y-82582924D01*
X98326024Y-82730758D01*
X98374687Y-82891177D01*
X98391117Y-83058000D01*
X98374687Y-83224823D01*
X98326024Y-83385242D01*
X98255114Y-83517906D01*
X98247004Y-83533078D01*
X98140659Y-83662659D01*
X98011078Y-83769004D01*
X98011076Y-83769005D01*
X97863242Y-83848024D01*
X97702823Y-83896687D01*
X97577804Y-83909000D01*
X97494196Y-83909000D01*
X97369177Y-83896687D01*
X97208758Y-83848024D01*
X97060924Y-83769005D01*
X97060922Y-83769004D01*
X96931341Y-83662659D01*
X96824996Y-83533078D01*
X96816886Y-83517906D01*
X96745976Y-83385242D01*
X96697313Y-83224823D01*
X96680883Y-83058000D01*
X96697313Y-82891177D01*
X96745976Y-82730758D01*
X96824995Y-82582924D01*
X96824996Y-82582922D01*
X96931341Y-82453341D01*
X97060922Y-82346996D01*
X97076094Y-82338886D01*
X97208758Y-82267976D01*
X97369177Y-82219313D01*
X97494196Y-82207000D01*
X97577804Y-82207000D01*
X97702823Y-82219313D01*
X97702823Y-82219313D01*
G37*
G36*
X95162823Y-82219313D02*
G01*
X95323242Y-82267976D01*
X95455906Y-82338886D01*
X95471078Y-82346996D01*
X95600659Y-82453341D01*
X95707004Y-82582922D01*
X95707005Y-82582924D01*
X95786024Y-82730758D01*
X95834687Y-82891177D01*
X95851117Y-83058000D01*
X95834687Y-83224823D01*
X95786024Y-83385242D01*
X95715114Y-83517906D01*
X95707004Y-83533078D01*
X95600659Y-83662659D01*
X95471078Y-83769004D01*
X95471076Y-83769005D01*
X95323242Y-83848024D01*
X95162823Y-83896687D01*
X95037804Y-83909000D01*
X94954196Y-83909000D01*
X94829177Y-83896687D01*
X94668758Y-83848024D01*
X94520924Y-83769005D01*
X94520922Y-83769004D01*
X94391341Y-83662659D01*
X94284996Y-83533078D01*
X94276886Y-83517906D01*
X94205976Y-83385242D01*
X94157313Y-83224823D01*
X94140883Y-83058000D01*
X94157313Y-82891177D01*
X94205976Y-82730758D01*
X94284995Y-82582924D01*
X94284996Y-82582922D01*
X94391341Y-82453341D01*
X94520922Y-82346996D01*
X94536094Y-82338886D01*
X94668758Y-82267976D01*
X94829177Y-82219313D01*
X94954196Y-82207000D01*
X95037804Y-82207000D01*
X95162823Y-82219313D01*
X95162823Y-82219313D01*
G37*
G36*
X92622823Y-82219313D02*
G01*
X92783242Y-82267976D01*
X92915906Y-82338886D01*
X92931078Y-82346996D01*
X93060659Y-82453341D01*
X93167004Y-82582922D01*
X93167005Y-82582924D01*
X93246024Y-82730758D01*
X93294687Y-82891177D01*
X93311117Y-83058000D01*
X93294687Y-83224823D01*
X93246024Y-83385242D01*
X93175114Y-83517906D01*
X93167004Y-83533078D01*
X93060659Y-83662659D01*
X92931078Y-83769004D01*
X92931076Y-83769005D01*
X92783242Y-83848024D01*
X92622823Y-83896687D01*
X92497804Y-83909000D01*
X92414196Y-83909000D01*
X92289177Y-83896687D01*
X92128758Y-83848024D01*
X91980924Y-83769005D01*
X91980922Y-83769004D01*
X91851341Y-83662659D01*
X91744996Y-83533078D01*
X91736886Y-83517906D01*
X91665976Y-83385242D01*
X91617313Y-83224823D01*
X91600883Y-83058000D01*
X91617313Y-82891177D01*
X91665976Y-82730758D01*
X91744995Y-82582924D01*
X91744996Y-82582922D01*
X91851341Y-82453341D01*
X91980922Y-82346996D01*
X91996094Y-82338886D01*
X92128758Y-82267976D01*
X92289177Y-82219313D01*
X92414196Y-82207000D01*
X92497804Y-82207000D01*
X92622823Y-82219313D01*
X92622823Y-82219313D01*
G37*
G36*
X90082823Y-82219313D02*
G01*
X90243242Y-82267976D01*
X90375906Y-82338886D01*
X90391078Y-82346996D01*
X90520659Y-82453341D01*
X90627004Y-82582922D01*
X90627005Y-82582924D01*
X90706024Y-82730758D01*
X90754687Y-82891177D01*
X90771117Y-83058000D01*
X90754687Y-83224823D01*
X90706024Y-83385242D01*
X90635114Y-83517906D01*
X90627004Y-83533078D01*
X90520659Y-83662659D01*
X90391078Y-83769004D01*
X90391076Y-83769005D01*
X90243242Y-83848024D01*
X90082823Y-83896687D01*
X89957804Y-83909000D01*
X89874196Y-83909000D01*
X89749177Y-83896687D01*
X89588758Y-83848024D01*
X89440924Y-83769005D01*
X89440922Y-83769004D01*
X89311341Y-83662659D01*
X89204996Y-83533078D01*
X89196886Y-83517906D01*
X89125976Y-83385242D01*
X89077313Y-83224823D01*
X89060883Y-83058000D01*
X89077313Y-82891177D01*
X89125976Y-82730758D01*
X89204995Y-82582924D01*
X89204996Y-82582922D01*
X89311341Y-82453341D01*
X89440922Y-82346996D01*
X89456094Y-82338886D01*
X89588758Y-82267976D01*
X89749177Y-82219313D01*
X89874196Y-82207000D01*
X89957804Y-82207000D01*
X90082823Y-82219313D01*
X90082823Y-82219313D01*
G37*
G36*
X87542823Y-82219313D02*
G01*
X87703242Y-82267976D01*
X87835906Y-82338886D01*
X87851078Y-82346996D01*
X87980659Y-82453341D01*
X88087004Y-82582922D01*
X88087005Y-82582924D01*
X88166024Y-82730758D01*
X88214687Y-82891177D01*
X88231117Y-83058000D01*
X88214687Y-83224823D01*
X88166024Y-83385242D01*
X88095114Y-83517906D01*
X88087004Y-83533078D01*
X87980659Y-83662659D01*
X87851078Y-83769004D01*
X87851076Y-83769005D01*
X87703242Y-83848024D01*
X87542823Y-83896687D01*
X87417804Y-83909000D01*
X87334196Y-83909000D01*
X87209177Y-83896687D01*
X87048758Y-83848024D01*
X86900924Y-83769005D01*
X86900922Y-83769004D01*
X86771341Y-83662659D01*
X86664996Y-83533078D01*
X86656886Y-83517906D01*
X86585976Y-83385242D01*
X86537313Y-83224823D01*
X86520883Y-83058000D01*
X86537313Y-82891177D01*
X86585976Y-82730758D01*
X86664995Y-82582924D01*
X86664996Y-82582922D01*
X86771341Y-82453341D01*
X86900922Y-82346996D01*
X86916094Y-82338886D01*
X87048758Y-82267976D01*
X87209177Y-82219313D01*
X87334196Y-82207000D01*
X87417804Y-82207000D01*
X87542823Y-82219313D01*
X87542823Y-82219313D01*
G37*
G36*
X85002823Y-82219313D02*
G01*
X85163242Y-82267976D01*
X85295906Y-82338886D01*
X85311078Y-82346996D01*
X85440659Y-82453341D01*
X85547004Y-82582922D01*
X85547005Y-82582924D01*
X85626024Y-82730758D01*
X85674687Y-82891177D01*
X85691117Y-83058000D01*
X85674687Y-83224823D01*
X85626024Y-83385242D01*
X85555114Y-83517906D01*
X85547004Y-83533078D01*
X85440659Y-83662659D01*
X85311078Y-83769004D01*
X85311076Y-83769005D01*
X85163242Y-83848024D01*
X85002823Y-83896687D01*
X84877804Y-83909000D01*
X84794196Y-83909000D01*
X84669177Y-83896687D01*
X84508758Y-83848024D01*
X84360924Y-83769005D01*
X84360922Y-83769004D01*
X84231341Y-83662659D01*
X84124996Y-83533078D01*
X84116886Y-83517906D01*
X84045976Y-83385242D01*
X83997313Y-83224823D01*
X83980883Y-83058000D01*
X83997313Y-82891177D01*
X84045976Y-82730758D01*
X84124995Y-82582924D01*
X84124996Y-82582922D01*
X84231341Y-82453341D01*
X84360922Y-82346996D01*
X84376094Y-82338886D01*
X84508758Y-82267976D01*
X84669177Y-82219313D01*
X84794196Y-82207000D01*
X84877804Y-82207000D01*
X85002823Y-82219313D01*
X85002823Y-82219313D01*
G37*
G36*
X82462823Y-82219313D02*
G01*
X82623242Y-82267976D01*
X82755906Y-82338886D01*
X82771078Y-82346996D01*
X82900659Y-82453341D01*
X83007004Y-82582922D01*
X83007005Y-82582924D01*
X83086024Y-82730758D01*
X83134687Y-82891177D01*
X83151117Y-83058000D01*
X83134687Y-83224823D01*
X83086024Y-83385242D01*
X83015114Y-83517906D01*
X83007004Y-83533078D01*
X82900659Y-83662659D01*
X82771078Y-83769004D01*
X82771076Y-83769005D01*
X82623242Y-83848024D01*
X82462823Y-83896687D01*
X82337804Y-83909000D01*
X82254196Y-83909000D01*
X82129177Y-83896687D01*
X81968758Y-83848024D01*
X81820924Y-83769005D01*
X81820922Y-83769004D01*
X81691341Y-83662659D01*
X81584996Y-83533078D01*
X81576886Y-83517906D01*
X81505976Y-83385242D01*
X81457313Y-83224823D01*
X81440883Y-83058000D01*
X81457313Y-82891177D01*
X81505976Y-82730758D01*
X81584995Y-82582924D01*
X81584996Y-82582922D01*
X81691341Y-82453341D01*
X81820922Y-82346996D01*
X81836094Y-82338886D01*
X81968758Y-82267976D01*
X82129177Y-82219313D01*
X82254196Y-82207000D01*
X82337804Y-82207000D01*
X82462823Y-82219313D01*
X82462823Y-82219313D01*
G37*
G36*
X79922823Y-82219313D02*
G01*
X80083242Y-82267976D01*
X80215906Y-82338886D01*
X80231078Y-82346996D01*
X80360659Y-82453341D01*
X80467004Y-82582922D01*
X80467005Y-82582924D01*
X80546024Y-82730758D01*
X80594687Y-82891177D01*
X80611117Y-83058000D01*
X80594687Y-83224823D01*
X80546024Y-83385242D01*
X80475114Y-83517906D01*
X80467004Y-83533078D01*
X80360659Y-83662659D01*
X80231078Y-83769004D01*
X80231076Y-83769005D01*
X80083242Y-83848024D01*
X79922823Y-83896687D01*
X79797804Y-83909000D01*
X79714196Y-83909000D01*
X79589177Y-83896687D01*
X79428758Y-83848024D01*
X79280924Y-83769005D01*
X79280922Y-83769004D01*
X79151341Y-83662659D01*
X79044996Y-83533078D01*
X79036886Y-83517906D01*
X78965976Y-83385242D01*
X78917313Y-83224823D01*
X78900883Y-83058000D01*
X78917313Y-82891177D01*
X78965976Y-82730758D01*
X79044995Y-82582924D01*
X79044996Y-82582922D01*
X79151341Y-82453341D01*
X79280922Y-82346996D01*
X79296094Y-82338886D01*
X79428758Y-82267976D01*
X79589177Y-82219313D01*
X79714196Y-82207000D01*
X79797804Y-82207000D01*
X79922823Y-82219313D01*
X79922823Y-82219313D01*
G37*
G36*
X78289231Y-78730003D02*
G01*
X78483412Y-78810436D01*
X78483414Y-78810437D01*
X78658173Y-78927207D01*
X78806793Y-79075827D01*
X78923563Y-79250586D01*
X78923564Y-79250588D01*
X79003997Y-79444769D01*
X79045000Y-79650908D01*
X79045000Y-79861092D01*
X79003997Y-80067231D01*
X78923564Y-80261412D01*
X78923563Y-80261414D01*
X78806793Y-80436173D01*
X78658173Y-80584793D01*
X78483414Y-80701563D01*
X78483413Y-80701564D01*
X78483412Y-80701564D01*
X78289231Y-80781997D01*
X78083092Y-80823000D01*
X77872908Y-80823000D01*
X77666769Y-80781997D01*
X77472588Y-80701564D01*
X77472587Y-80701564D01*
X77472586Y-80701563D01*
X77297827Y-80584793D01*
X77149207Y-80436173D01*
X77032437Y-80261414D01*
X77032436Y-80261412D01*
X76952003Y-80067231D01*
X76911000Y-79861092D01*
X76911000Y-79650908D01*
X76952003Y-79444769D01*
X77032436Y-79250588D01*
X77032437Y-79250586D01*
X77149207Y-79075827D01*
X77297827Y-78927207D01*
X77472586Y-78810437D01*
X77472588Y-78810436D01*
X77666769Y-78730003D01*
X77872908Y-78689000D01*
X78083092Y-78689000D01*
X78289231Y-78730003D01*
X78289231Y-78730003D01*
G37*
G36*
X75749231Y-78730003D02*
G01*
X75943412Y-78810436D01*
X75943414Y-78810437D01*
X76118173Y-78927207D01*
X76266793Y-79075827D01*
X76383563Y-79250586D01*
X76383564Y-79250588D01*
X76463997Y-79444769D01*
X76505000Y-79650908D01*
X76505000Y-79861092D01*
X76463997Y-80067231D01*
X76383564Y-80261412D01*
X76383563Y-80261414D01*
X76266793Y-80436173D01*
X76118173Y-80584793D01*
X75943414Y-80701563D01*
X75943413Y-80701564D01*
X75943412Y-80701564D01*
X75749231Y-80781997D01*
X75543092Y-80823000D01*
X75332908Y-80823000D01*
X75126769Y-80781997D01*
X74932588Y-80701564D01*
X74932587Y-80701564D01*
X74932586Y-80701563D01*
X74757827Y-80584793D01*
X74609207Y-80436173D01*
X74492437Y-80261414D01*
X74492436Y-80261412D01*
X74412003Y-80067231D01*
X74371000Y-79861092D01*
X74371000Y-79650908D01*
X74412003Y-79444769D01*
X74492436Y-79250588D01*
X74492437Y-79250586D01*
X74609207Y-79075827D01*
X74757827Y-78927207D01*
X74932586Y-78810437D01*
X74932588Y-78810436D01*
X75126769Y-78730003D01*
X75332908Y-78689000D01*
X75543092Y-78689000D01*
X75749231Y-78730003D01*
X75749231Y-78730003D01*
G37*
G36*
X106737231Y-78730003D02*
G01*
X106931412Y-78810436D01*
X106931414Y-78810437D01*
X107106173Y-78927207D01*
X107254793Y-79075827D01*
X107371563Y-79250586D01*
X107371564Y-79250588D01*
X107451997Y-79444769D01*
X107493000Y-79650908D01*
X107493000Y-79861092D01*
X107451997Y-80067231D01*
X107371564Y-80261412D01*
X107371563Y-80261414D01*
X107254793Y-80436173D01*
X107106173Y-80584793D01*
X106931414Y-80701563D01*
X106931413Y-80701564D01*
X106931412Y-80701564D01*
X106737231Y-80781997D01*
X106531092Y-80823000D01*
X106320908Y-80823000D01*
X106114769Y-80781997D01*
X105920588Y-80701564D01*
X105920587Y-80701564D01*
X105920586Y-80701563D01*
X105745827Y-80584793D01*
X105597207Y-80436173D01*
X105480437Y-80261414D01*
X105480436Y-80261412D01*
X105400003Y-80067231D01*
X105359000Y-79861092D01*
X105359000Y-79650908D01*
X105400003Y-79444769D01*
X105480436Y-79250588D01*
X105480437Y-79250586D01*
X105597207Y-79075827D01*
X105745827Y-78927207D01*
X105920586Y-78810437D01*
X105920588Y-78810436D01*
X106114769Y-78730003D01*
X106320908Y-78689000D01*
X106531092Y-78689000D01*
X106737231Y-78730003D01*
X106737231Y-78730003D01*
G37*
G36*
X109277231Y-78730003D02*
G01*
X109471412Y-78810436D01*
X109471414Y-78810437D01*
X109646173Y-78927207D01*
X109794793Y-79075827D01*
X109911563Y-79250586D01*
X109911564Y-79250588D01*
X109991997Y-79444769D01*
X110033000Y-79650908D01*
X110033000Y-79861092D01*
X109991997Y-80067231D01*
X109911564Y-80261412D01*
X109911563Y-80261414D01*
X109794793Y-80436173D01*
X109646173Y-80584793D01*
X109471414Y-80701563D01*
X109471413Y-80701564D01*
X109471412Y-80701564D01*
X109277231Y-80781997D01*
X109071092Y-80823000D01*
X108860908Y-80823000D01*
X108654769Y-80781997D01*
X108460588Y-80701564D01*
X108460587Y-80701564D01*
X108460586Y-80701563D01*
X108285827Y-80584793D01*
X108137207Y-80436173D01*
X108020437Y-80261414D01*
X108020436Y-80261412D01*
X107940003Y-80067231D01*
X107899000Y-79861092D01*
X107899000Y-79650908D01*
X107940003Y-79444769D01*
X108020436Y-79250588D01*
X108020437Y-79250586D01*
X108137207Y-79075827D01*
X108285827Y-78927207D01*
X108460586Y-78810437D01*
X108460588Y-78810436D01*
X108654769Y-78730003D01*
X108860908Y-78689000D01*
X109071092Y-78689000D01*
X109277231Y-78730003D01*
X109277231Y-78730003D01*
G37*
G36*
X111817231Y-78730003D02*
G01*
X112011412Y-78810436D01*
X112011414Y-78810437D01*
X112186173Y-78927207D01*
X112334793Y-79075827D01*
X112451563Y-79250586D01*
X112451564Y-79250588D01*
X112531997Y-79444769D01*
X112573000Y-79650908D01*
X112573000Y-79861092D01*
X112531997Y-80067231D01*
X112451564Y-80261412D01*
X112451563Y-80261414D01*
X112334793Y-80436173D01*
X112186173Y-80584793D01*
X112011414Y-80701563D01*
X112011413Y-80701564D01*
X112011412Y-80701564D01*
X111817231Y-80781997D01*
X111611092Y-80823000D01*
X111400908Y-80823000D01*
X111194769Y-80781997D01*
X111000588Y-80701564D01*
X111000587Y-80701564D01*
X111000586Y-80701563D01*
X110825827Y-80584793D01*
X110677207Y-80436173D01*
X110560437Y-80261414D01*
X110560436Y-80261412D01*
X110480003Y-80067231D01*
X110439000Y-79861092D01*
X110439000Y-79650908D01*
X110480003Y-79444769D01*
X110560436Y-79250588D01*
X110560437Y-79250586D01*
X110677207Y-79075827D01*
X110825827Y-78927207D01*
X111000586Y-78810437D01*
X111000588Y-78810436D01*
X111194769Y-78730003D01*
X111400908Y-78689000D01*
X111611092Y-78689000D01*
X111817231Y-78730003D01*
X111817231Y-78730003D01*
G37*
G36*
X114357231Y-78730003D02*
G01*
X114551412Y-78810436D01*
X114551414Y-78810437D01*
X114726173Y-78927207D01*
X114874793Y-79075827D01*
X114991563Y-79250586D01*
X114991564Y-79250588D01*
X115071997Y-79444769D01*
X115113000Y-79650908D01*
X115113000Y-79861092D01*
X115071997Y-80067231D01*
X114991564Y-80261412D01*
X114991563Y-80261414D01*
X114874793Y-80436173D01*
X114726173Y-80584793D01*
X114551414Y-80701563D01*
X114551413Y-80701564D01*
X114551412Y-80701564D01*
X114357231Y-80781997D01*
X114151092Y-80823000D01*
X113940908Y-80823000D01*
X113734769Y-80781997D01*
X113540588Y-80701564D01*
X113540587Y-80701564D01*
X113540586Y-80701563D01*
X113365827Y-80584793D01*
X113217207Y-80436173D01*
X113100437Y-80261414D01*
X113100436Y-80261412D01*
X113020003Y-80067231D01*
X112979000Y-79861092D01*
X112979000Y-79650908D01*
X113020003Y-79444769D01*
X113100436Y-79250588D01*
X113100437Y-79250586D01*
X113217207Y-79075827D01*
X113365827Y-78927207D01*
X113540586Y-78810437D01*
X113540588Y-78810436D01*
X113734769Y-78730003D01*
X113940908Y-78689000D01*
X114151092Y-78689000D01*
X114357231Y-78730003D01*
X114357231Y-78730003D01*
G37*
G36*
X104197231Y-78730003D02*
G01*
X104391412Y-78810436D01*
X104391414Y-78810437D01*
X104566173Y-78927207D01*
X104714793Y-79075827D01*
X104831563Y-79250586D01*
X104831564Y-79250588D01*
X104911997Y-79444769D01*
X104953000Y-79650908D01*
X104953000Y-79861092D01*
X104911997Y-80067231D01*
X104831564Y-80261412D01*
X104831563Y-80261414D01*
X104714793Y-80436173D01*
X104566173Y-80584793D01*
X104391414Y-80701563D01*
X104391413Y-80701564D01*
X104391412Y-80701564D01*
X104197231Y-80781997D01*
X103991092Y-80823000D01*
X103780908Y-80823000D01*
X103574769Y-80781997D01*
X103380588Y-80701564D01*
X103380587Y-80701564D01*
X103380586Y-80701563D01*
X103205827Y-80584793D01*
X103057207Y-80436173D01*
X102940437Y-80261414D01*
X102940436Y-80261412D01*
X102860003Y-80067231D01*
X102819000Y-79861092D01*
X102819000Y-79650908D01*
X102860003Y-79444769D01*
X102940436Y-79250588D01*
X102940437Y-79250586D01*
X103057207Y-79075827D01*
X103205827Y-78927207D01*
X103380586Y-78810437D01*
X103380588Y-78810436D01*
X103574769Y-78730003D01*
X103780908Y-78689000D01*
X103991092Y-78689000D01*
X104197231Y-78730003D01*
X104197231Y-78730003D01*
G37*
G36*
X101657231Y-78730003D02*
G01*
X101851412Y-78810436D01*
X101851414Y-78810437D01*
X102026173Y-78927207D01*
X102174793Y-79075827D01*
X102291563Y-79250586D01*
X102291564Y-79250588D01*
X102371997Y-79444769D01*
X102413000Y-79650908D01*
X102413000Y-79861092D01*
X102371997Y-80067231D01*
X102291564Y-80261412D01*
X102291563Y-80261414D01*
X102174793Y-80436173D01*
X102026173Y-80584793D01*
X101851414Y-80701563D01*
X101851413Y-80701564D01*
X101851412Y-80701564D01*
X101657231Y-80781997D01*
X101451092Y-80823000D01*
X101240908Y-80823000D01*
X101034769Y-80781997D01*
X100840588Y-80701564D01*
X100840587Y-80701564D01*
X100840586Y-80701563D01*
X100665827Y-80584793D01*
X100517207Y-80436173D01*
X100400437Y-80261414D01*
X100400436Y-80261412D01*
X100320003Y-80067231D01*
X100279000Y-79861092D01*
X100279000Y-79650908D01*
X100320003Y-79444769D01*
X100400436Y-79250588D01*
X100400437Y-79250586D01*
X100517207Y-79075827D01*
X100665827Y-78927207D01*
X100840586Y-78810437D01*
X100840588Y-78810436D01*
X101034769Y-78730003D01*
X101240908Y-78689000D01*
X101451092Y-78689000D01*
X101657231Y-78730003D01*
X101657231Y-78730003D01*
G37*
G36*
X116897231Y-78730003D02*
G01*
X117091412Y-78810436D01*
X117091414Y-78810437D01*
X117266173Y-78927207D01*
X117414793Y-79075827D01*
X117531563Y-79250586D01*
X117531564Y-79250588D01*
X117611997Y-79444769D01*
X117653000Y-79650908D01*
X117653000Y-79861092D01*
X117611997Y-80067231D01*
X117531564Y-80261412D01*
X117531563Y-80261414D01*
X117414793Y-80436173D01*
X117266173Y-80584793D01*
X117091414Y-80701563D01*
X117091413Y-80701564D01*
X117091412Y-80701564D01*
X116897231Y-80781997D01*
X116691092Y-80823000D01*
X116480908Y-80823000D01*
X116274769Y-80781997D01*
X116080588Y-80701564D01*
X116080587Y-80701564D01*
X116080586Y-80701563D01*
X115905827Y-80584793D01*
X115757207Y-80436173D01*
X115640437Y-80261414D01*
X115640436Y-80261412D01*
X115560003Y-80067231D01*
X115519000Y-79861092D01*
X115519000Y-79650908D01*
X115560003Y-79444769D01*
X115640436Y-79250588D01*
X115640437Y-79250586D01*
X115757207Y-79075827D01*
X115905827Y-78927207D01*
X116080586Y-78810437D01*
X116080588Y-78810436D01*
X116274769Y-78730003D01*
X116480908Y-78689000D01*
X116691092Y-78689000D01*
X116897231Y-78730003D01*
X116897231Y-78730003D01*
G37*
G36*
X119437231Y-78730003D02*
G01*
X119631412Y-78810436D01*
X119631414Y-78810437D01*
X119806173Y-78927207D01*
X119954793Y-79075827D01*
X120071563Y-79250586D01*
X120071564Y-79250588D01*
X120151997Y-79444769D01*
X120193000Y-79650908D01*
X120193000Y-79861092D01*
X120151997Y-80067231D01*
X120071564Y-80261412D01*
X120071563Y-80261414D01*
X119954793Y-80436173D01*
X119806173Y-80584793D01*
X119631414Y-80701563D01*
X119631413Y-80701564D01*
X119631412Y-80701564D01*
X119437231Y-80781997D01*
X119231092Y-80823000D01*
X119020908Y-80823000D01*
X118814769Y-80781997D01*
X118620588Y-80701564D01*
X118620587Y-80701564D01*
X118620586Y-80701563D01*
X118445827Y-80584793D01*
X118297207Y-80436173D01*
X118180437Y-80261414D01*
X118180436Y-80261412D01*
X118100003Y-80067231D01*
X118059000Y-79861092D01*
X118059000Y-79650908D01*
X118100003Y-79444769D01*
X118180436Y-79250588D01*
X118180437Y-79250586D01*
X118297207Y-79075827D01*
X118445827Y-78927207D01*
X118620586Y-78810437D01*
X118620588Y-78810436D01*
X118814769Y-78730003D01*
X119020908Y-78689000D01*
X119231092Y-78689000D01*
X119437231Y-78730003D01*
X119437231Y-78730003D01*
G37*
G36*
X121977231Y-78730003D02*
G01*
X122171412Y-78810436D01*
X122171414Y-78810437D01*
X122346173Y-78927207D01*
X122494793Y-79075827D01*
X122611563Y-79250586D01*
X122611564Y-79250588D01*
X122691997Y-79444769D01*
X122733000Y-79650908D01*
X122733000Y-79861092D01*
X122691997Y-80067231D01*
X122611564Y-80261412D01*
X122611563Y-80261414D01*
X122494793Y-80436173D01*
X122346173Y-80584793D01*
X122171414Y-80701563D01*
X122171413Y-80701564D01*
X122171412Y-80701564D01*
X121977231Y-80781997D01*
X121771092Y-80823000D01*
X121560908Y-80823000D01*
X121354769Y-80781997D01*
X121160588Y-80701564D01*
X121160587Y-80701564D01*
X121160586Y-80701563D01*
X120985827Y-80584793D01*
X120837207Y-80436173D01*
X120720437Y-80261414D01*
X120720436Y-80261412D01*
X120640003Y-80067231D01*
X120599000Y-79861092D01*
X120599000Y-79650908D01*
X120640003Y-79444769D01*
X120720436Y-79250588D01*
X120720437Y-79250586D01*
X120837207Y-79075827D01*
X120985827Y-78927207D01*
X121160586Y-78810437D01*
X121160588Y-78810436D01*
X121354769Y-78730003D01*
X121560908Y-78689000D01*
X121771092Y-78689000D01*
X121977231Y-78730003D01*
X121977231Y-78730003D01*
G37*
G36*
X124517231Y-78730003D02*
G01*
X124711412Y-78810436D01*
X124711414Y-78810437D01*
X124886173Y-78927207D01*
X125034793Y-79075827D01*
X125151563Y-79250586D01*
X125151564Y-79250588D01*
X125231997Y-79444769D01*
X125273000Y-79650908D01*
X125273000Y-79861092D01*
X125231997Y-80067231D01*
X125151564Y-80261412D01*
X125151563Y-80261414D01*
X125034793Y-80436173D01*
X124886173Y-80584793D01*
X124711414Y-80701563D01*
X124711413Y-80701564D01*
X124711412Y-80701564D01*
X124517231Y-80781997D01*
X124311092Y-80823000D01*
X124100908Y-80823000D01*
X123894769Y-80781997D01*
X123700588Y-80701564D01*
X123700587Y-80701564D01*
X123700586Y-80701563D01*
X123525827Y-80584793D01*
X123377207Y-80436173D01*
X123260437Y-80261414D01*
X123260436Y-80261412D01*
X123180003Y-80067231D01*
X123139000Y-79861092D01*
X123139000Y-79650908D01*
X123180003Y-79444769D01*
X123260436Y-79250588D01*
X123260437Y-79250586D01*
X123377207Y-79075827D01*
X123525827Y-78927207D01*
X123700586Y-78810437D01*
X123700588Y-78810436D01*
X123894769Y-78730003D01*
X124100908Y-78689000D01*
X124311092Y-78689000D01*
X124517231Y-78730003D01*
X124517231Y-78730003D01*
G37*
G36*
X98609231Y-78730003D02*
G01*
X98803412Y-78810436D01*
X98803414Y-78810437D01*
X98978173Y-78927207D01*
X99126793Y-79075827D01*
X99243563Y-79250586D01*
X99243564Y-79250588D01*
X99323997Y-79444769D01*
X99365000Y-79650908D01*
X99365000Y-79861092D01*
X99323997Y-80067231D01*
X99243564Y-80261412D01*
X99243563Y-80261414D01*
X99126793Y-80436173D01*
X98978173Y-80584793D01*
X98803414Y-80701563D01*
X98803413Y-80701564D01*
X98803412Y-80701564D01*
X98609231Y-80781997D01*
X98403092Y-80823000D01*
X98192908Y-80823000D01*
X97986769Y-80781997D01*
X97792588Y-80701564D01*
X97792587Y-80701564D01*
X97792586Y-80701563D01*
X97617827Y-80584793D01*
X97469207Y-80436173D01*
X97352437Y-80261414D01*
X97352436Y-80261412D01*
X97272003Y-80067231D01*
X97231000Y-79861092D01*
X97231000Y-79650908D01*
X97272003Y-79444769D01*
X97352436Y-79250588D01*
X97352437Y-79250586D01*
X97469207Y-79075827D01*
X97617827Y-78927207D01*
X97792586Y-78810437D01*
X97792588Y-78810436D01*
X97986769Y-78730003D01*
X98192908Y-78689000D01*
X98403092Y-78689000D01*
X98609231Y-78730003D01*
X98609231Y-78730003D01*
G37*
G36*
X96069231Y-78730003D02*
G01*
X96263412Y-78810436D01*
X96263414Y-78810437D01*
X96438173Y-78927207D01*
X96586793Y-79075827D01*
X96703563Y-79250586D01*
X96703564Y-79250588D01*
X96783997Y-79444769D01*
X96825000Y-79650908D01*
X96825000Y-79861092D01*
X96783997Y-80067231D01*
X96703564Y-80261412D01*
X96703563Y-80261414D01*
X96586793Y-80436173D01*
X96438173Y-80584793D01*
X96263414Y-80701563D01*
X96263413Y-80701564D01*
X96263412Y-80701564D01*
X96069231Y-80781997D01*
X95863092Y-80823000D01*
X95652908Y-80823000D01*
X95446769Y-80781997D01*
X95252588Y-80701564D01*
X95252587Y-80701564D01*
X95252586Y-80701563D01*
X95077827Y-80584793D01*
X94929207Y-80436173D01*
X94812437Y-80261414D01*
X94812436Y-80261412D01*
X94732003Y-80067231D01*
X94691000Y-79861092D01*
X94691000Y-79650908D01*
X94732003Y-79444769D01*
X94812436Y-79250588D01*
X94812437Y-79250586D01*
X94929207Y-79075827D01*
X95077827Y-78927207D01*
X95252586Y-78810437D01*
X95252588Y-78810436D01*
X95446769Y-78730003D01*
X95652908Y-78689000D01*
X95863092Y-78689000D01*
X96069231Y-78730003D01*
X96069231Y-78730003D01*
G37*
G36*
X93529231Y-78730003D02*
G01*
X93723412Y-78810436D01*
X93723414Y-78810437D01*
X93898173Y-78927207D01*
X94046793Y-79075827D01*
X94163563Y-79250586D01*
X94163564Y-79250588D01*
X94243997Y-79444769D01*
X94285000Y-79650908D01*
X94285000Y-79861092D01*
X94243997Y-80067231D01*
X94163564Y-80261412D01*
X94163563Y-80261414D01*
X94046793Y-80436173D01*
X93898173Y-80584793D01*
X93723414Y-80701563D01*
X93723413Y-80701564D01*
X93723412Y-80701564D01*
X93529231Y-80781997D01*
X93323092Y-80823000D01*
X93112908Y-80823000D01*
X92906769Y-80781997D01*
X92712588Y-80701564D01*
X92712587Y-80701564D01*
X92712586Y-80701563D01*
X92537827Y-80584793D01*
X92389207Y-80436173D01*
X92272437Y-80261414D01*
X92272436Y-80261412D01*
X92192003Y-80067231D01*
X92151000Y-79861092D01*
X92151000Y-79650908D01*
X92192003Y-79444769D01*
X92272436Y-79250588D01*
X92272437Y-79250586D01*
X92389207Y-79075827D01*
X92537827Y-78927207D01*
X92712586Y-78810437D01*
X92712588Y-78810436D01*
X92906769Y-78730003D01*
X93112908Y-78689000D01*
X93323092Y-78689000D01*
X93529231Y-78730003D01*
X93529231Y-78730003D01*
G37*
G36*
X90989231Y-78730003D02*
G01*
X91183412Y-78810436D01*
X91183414Y-78810437D01*
X91358173Y-78927207D01*
X91506793Y-79075827D01*
X91623563Y-79250586D01*
X91623564Y-79250588D01*
X91703997Y-79444769D01*
X91745000Y-79650908D01*
X91745000Y-79861092D01*
X91703997Y-80067231D01*
X91623564Y-80261412D01*
X91623563Y-80261414D01*
X91506793Y-80436173D01*
X91358173Y-80584793D01*
X91183414Y-80701563D01*
X91183413Y-80701564D01*
X91183412Y-80701564D01*
X90989231Y-80781997D01*
X90783092Y-80823000D01*
X90572908Y-80823000D01*
X90366769Y-80781997D01*
X90172588Y-80701564D01*
X90172587Y-80701564D01*
X90172586Y-80701563D01*
X89997827Y-80584793D01*
X89849207Y-80436173D01*
X89732437Y-80261414D01*
X89732436Y-80261412D01*
X89652003Y-80067231D01*
X89611000Y-79861092D01*
X89611000Y-79650908D01*
X89652003Y-79444769D01*
X89732436Y-79250588D01*
X89732437Y-79250586D01*
X89849207Y-79075827D01*
X89997827Y-78927207D01*
X90172586Y-78810437D01*
X90172588Y-78810436D01*
X90366769Y-78730003D01*
X90572908Y-78689000D01*
X90783092Y-78689000D01*
X90989231Y-78730003D01*
X90989231Y-78730003D01*
G37*
G36*
X88449231Y-78730003D02*
G01*
X88643412Y-78810436D01*
X88643414Y-78810437D01*
X88818173Y-78927207D01*
X88966793Y-79075827D01*
X89083563Y-79250586D01*
X89083564Y-79250588D01*
X89163997Y-79444769D01*
X89205000Y-79650908D01*
X89205000Y-79861092D01*
X89163997Y-80067231D01*
X89083564Y-80261412D01*
X89083563Y-80261414D01*
X88966793Y-80436173D01*
X88818173Y-80584793D01*
X88643414Y-80701563D01*
X88643413Y-80701564D01*
X88643412Y-80701564D01*
X88449231Y-80781997D01*
X88243092Y-80823000D01*
X88032908Y-80823000D01*
X87826769Y-80781997D01*
X87632588Y-80701564D01*
X87632587Y-80701564D01*
X87632586Y-80701563D01*
X87457827Y-80584793D01*
X87309207Y-80436173D01*
X87192437Y-80261414D01*
X87192436Y-80261412D01*
X87112003Y-80067231D01*
X87071000Y-79861092D01*
X87071000Y-79650908D01*
X87112003Y-79444769D01*
X87192436Y-79250588D01*
X87192437Y-79250586D01*
X87309207Y-79075827D01*
X87457827Y-78927207D01*
X87632586Y-78810437D01*
X87632588Y-78810436D01*
X87826769Y-78730003D01*
X88032908Y-78689000D01*
X88243092Y-78689000D01*
X88449231Y-78730003D01*
X88449231Y-78730003D01*
G37*
G36*
X85909231Y-78730003D02*
G01*
X86103412Y-78810436D01*
X86103414Y-78810437D01*
X86278173Y-78927207D01*
X86426793Y-79075827D01*
X86543563Y-79250586D01*
X86543564Y-79250588D01*
X86623997Y-79444769D01*
X86665000Y-79650908D01*
X86665000Y-79861092D01*
X86623997Y-80067231D01*
X86543564Y-80261412D01*
X86543563Y-80261414D01*
X86426793Y-80436173D01*
X86278173Y-80584793D01*
X86103414Y-80701563D01*
X86103413Y-80701564D01*
X86103412Y-80701564D01*
X85909231Y-80781997D01*
X85703092Y-80823000D01*
X85492908Y-80823000D01*
X85286769Y-80781997D01*
X85092588Y-80701564D01*
X85092587Y-80701564D01*
X85092586Y-80701563D01*
X84917827Y-80584793D01*
X84769207Y-80436173D01*
X84652437Y-80261414D01*
X84652436Y-80261412D01*
X84572003Y-80067231D01*
X84531000Y-79861092D01*
X84531000Y-79650908D01*
X84572003Y-79444769D01*
X84652436Y-79250588D01*
X84652437Y-79250586D01*
X84769207Y-79075827D01*
X84917827Y-78927207D01*
X85092586Y-78810437D01*
X85092588Y-78810436D01*
X85286769Y-78730003D01*
X85492908Y-78689000D01*
X85703092Y-78689000D01*
X85909231Y-78730003D01*
X85909231Y-78730003D01*
G37*
G36*
X83369231Y-78730003D02*
G01*
X83563412Y-78810436D01*
X83563414Y-78810437D01*
X83738173Y-78927207D01*
X83886793Y-79075827D01*
X84003563Y-79250586D01*
X84003564Y-79250588D01*
X84083997Y-79444769D01*
X84125000Y-79650908D01*
X84125000Y-79861092D01*
X84083997Y-80067231D01*
X84003564Y-80261412D01*
X84003563Y-80261414D01*
X83886793Y-80436173D01*
X83738173Y-80584793D01*
X83563414Y-80701563D01*
X83563413Y-80701564D01*
X83563412Y-80701564D01*
X83369231Y-80781997D01*
X83163092Y-80823000D01*
X82952908Y-80823000D01*
X82746769Y-80781997D01*
X82552588Y-80701564D01*
X82552587Y-80701564D01*
X82552586Y-80701563D01*
X82377827Y-80584793D01*
X82229207Y-80436173D01*
X82112437Y-80261414D01*
X82112436Y-80261412D01*
X82032003Y-80067231D01*
X81991000Y-79861092D01*
X81991000Y-79650908D01*
X82032003Y-79444769D01*
X82112436Y-79250588D01*
X82112437Y-79250586D01*
X82229207Y-79075827D01*
X82377827Y-78927207D01*
X82552586Y-78810437D01*
X82552588Y-78810436D01*
X82746769Y-78730003D01*
X82952908Y-78689000D01*
X83163092Y-78689000D01*
X83369231Y-78730003D01*
X83369231Y-78730003D01*
G37*
G36*
X80829231Y-78730003D02*
G01*
X81023412Y-78810436D01*
X81023414Y-78810437D01*
X81198173Y-78927207D01*
X81346793Y-79075827D01*
X81463563Y-79250586D01*
X81463564Y-79250588D01*
X81543997Y-79444769D01*
X81585000Y-79650908D01*
X81585000Y-79861092D01*
X81543997Y-80067231D01*
X81463564Y-80261412D01*
X81463563Y-80261414D01*
X81346793Y-80436173D01*
X81198173Y-80584793D01*
X81023414Y-80701563D01*
X81023413Y-80701564D01*
X81023412Y-80701564D01*
X80829231Y-80781997D01*
X80623092Y-80823000D01*
X80412908Y-80823000D01*
X80206769Y-80781997D01*
X80012588Y-80701564D01*
X80012587Y-80701564D01*
X80012586Y-80701563D01*
X79837827Y-80584793D01*
X79689207Y-80436173D01*
X79572437Y-80261414D01*
X79572436Y-80261412D01*
X79492003Y-80067231D01*
X79451000Y-79861092D01*
X79451000Y-79650908D01*
X79492003Y-79444769D01*
X79572436Y-79250588D01*
X79572437Y-79250586D01*
X79689207Y-79075827D01*
X79837827Y-78927207D01*
X80012586Y-78810437D01*
X80012588Y-78810436D01*
X80206769Y-78730003D01*
X80412908Y-78689000D01*
X80623092Y-78689000D01*
X80829231Y-78730003D01*
X80829231Y-78730003D01*
G37*
G36*
X99365000Y-73203000D02*
G01*
X97231000Y-73203000D01*
X97231000Y-71069000D01*
X99365000Y-71069000D01*
X99365000Y-73203000D01*
X99365000Y-73203000D01*
G37*
G36*
X101657231Y-71110003D02*
G01*
X101851412Y-71190436D01*
X101851414Y-71190437D01*
X102026173Y-71307207D01*
X102174793Y-71455827D01*
X102291563Y-71630586D01*
X102291564Y-71630588D01*
X102371997Y-71824769D01*
X102413000Y-72030908D01*
X102413000Y-72241092D01*
X102371997Y-72447231D01*
X102291564Y-72641412D01*
X102291563Y-72641414D01*
X102174793Y-72816173D01*
X102026173Y-72964793D01*
X101851414Y-73081563D01*
X101851413Y-73081564D01*
X101851412Y-73081564D01*
X101657231Y-73161997D01*
X101451092Y-73203000D01*
X101240908Y-73203000D01*
X101034769Y-73161997D01*
X100840588Y-73081564D01*
X100840587Y-73081564D01*
X100840586Y-73081563D01*
X100665827Y-72964793D01*
X100517207Y-72816173D01*
X100400437Y-72641414D01*
X100400436Y-72641412D01*
X100320003Y-72447231D01*
X100279000Y-72241092D01*
X100279000Y-72030908D01*
X100320003Y-71824769D01*
X100400436Y-71630588D01*
X100400437Y-71630586D01*
X100517207Y-71455827D01*
X100665827Y-71307207D01*
X100840586Y-71190437D01*
X100840588Y-71190436D01*
X101034769Y-71110003D01*
X101240908Y-71069000D01*
X101451092Y-71069000D01*
X101657231Y-71110003D01*
X101657231Y-71110003D01*
G37*
G36*
X125273000Y-73203000D02*
G01*
X123139000Y-73203000D01*
X123139000Y-71069000D01*
X125273000Y-71069000D01*
X125273000Y-73203000D01*
X125273000Y-73203000D01*
G37*
G36*
X121977231Y-71110003D02*
G01*
X122171412Y-71190436D01*
X122171414Y-71190437D01*
X122346173Y-71307207D01*
X122494793Y-71455827D01*
X122611563Y-71630586D01*
X122611564Y-71630588D01*
X122691997Y-71824769D01*
X122733000Y-72030908D01*
X122733000Y-72241092D01*
X122691997Y-72447231D01*
X122611564Y-72641412D01*
X122611563Y-72641414D01*
X122494793Y-72816173D01*
X122346173Y-72964793D01*
X122171414Y-73081563D01*
X122171413Y-73081564D01*
X122171412Y-73081564D01*
X121977231Y-73161997D01*
X121771092Y-73203000D01*
X121560908Y-73203000D01*
X121354769Y-73161997D01*
X121160588Y-73081564D01*
X121160587Y-73081564D01*
X121160586Y-73081563D01*
X120985827Y-72964793D01*
X120837207Y-72816173D01*
X120720437Y-72641414D01*
X120720436Y-72641412D01*
X120640003Y-72447231D01*
X120599000Y-72241092D01*
X120599000Y-72030908D01*
X120640003Y-71824769D01*
X120720436Y-71630588D01*
X120720437Y-71630586D01*
X120837207Y-71455827D01*
X120985827Y-71307207D01*
X121160586Y-71190437D01*
X121160588Y-71190436D01*
X121354769Y-71110003D01*
X121560908Y-71069000D01*
X121771092Y-71069000D01*
X121977231Y-71110003D01*
X121977231Y-71110003D01*
G37*
G36*
X119437231Y-71110003D02*
G01*
X119631412Y-71190436D01*
X119631414Y-71190437D01*
X119806173Y-71307207D01*
X119954793Y-71455827D01*
X120071563Y-71630586D01*
X120071564Y-71630588D01*
X120151997Y-71824769D01*
X120193000Y-72030908D01*
X120193000Y-72241092D01*
X120151997Y-72447231D01*
X120071564Y-72641412D01*
X120071563Y-72641414D01*
X119954793Y-72816173D01*
X119806173Y-72964793D01*
X119631414Y-73081563D01*
X119631413Y-73081564D01*
X119631412Y-73081564D01*
X119437231Y-73161997D01*
X119231092Y-73203000D01*
X119020908Y-73203000D01*
X118814769Y-73161997D01*
X118620588Y-73081564D01*
X118620587Y-73081564D01*
X118620586Y-73081563D01*
X118445827Y-72964793D01*
X118297207Y-72816173D01*
X118180437Y-72641414D01*
X118180436Y-72641412D01*
X118100003Y-72447231D01*
X118059000Y-72241092D01*
X118059000Y-72030908D01*
X118100003Y-71824769D01*
X118180436Y-71630588D01*
X118180437Y-71630586D01*
X118297207Y-71455827D01*
X118445827Y-71307207D01*
X118620586Y-71190437D01*
X118620588Y-71190436D01*
X118814769Y-71110003D01*
X119020908Y-71069000D01*
X119231092Y-71069000D01*
X119437231Y-71110003D01*
X119437231Y-71110003D01*
G37*
G36*
X116897231Y-71110003D02*
G01*
X117091412Y-71190436D01*
X117091414Y-71190437D01*
X117266173Y-71307207D01*
X117414793Y-71455827D01*
X117531563Y-71630586D01*
X117531564Y-71630588D01*
X117611997Y-71824769D01*
X117653000Y-72030908D01*
X117653000Y-72241092D01*
X117611997Y-72447231D01*
X117531564Y-72641412D01*
X117531563Y-72641414D01*
X117414793Y-72816173D01*
X117266173Y-72964793D01*
X117091414Y-73081563D01*
X117091413Y-73081564D01*
X117091412Y-73081564D01*
X116897231Y-73161997D01*
X116691092Y-73203000D01*
X116480908Y-73203000D01*
X116274769Y-73161997D01*
X116080588Y-73081564D01*
X116080587Y-73081564D01*
X116080586Y-73081563D01*
X115905827Y-72964793D01*
X115757207Y-72816173D01*
X115640437Y-72641414D01*
X115640436Y-72641412D01*
X115560003Y-72447231D01*
X115519000Y-72241092D01*
X115519000Y-72030908D01*
X115560003Y-71824769D01*
X115640436Y-71630588D01*
X115640437Y-71630586D01*
X115757207Y-71455827D01*
X115905827Y-71307207D01*
X116080586Y-71190437D01*
X116080588Y-71190436D01*
X116274769Y-71110003D01*
X116480908Y-71069000D01*
X116691092Y-71069000D01*
X116897231Y-71110003D01*
X116897231Y-71110003D01*
G37*
G36*
X114357231Y-71110003D02*
G01*
X114551412Y-71190436D01*
X114551414Y-71190437D01*
X114726173Y-71307207D01*
X114874793Y-71455827D01*
X114991563Y-71630586D01*
X114991564Y-71630588D01*
X115071997Y-71824769D01*
X115113000Y-72030908D01*
X115113000Y-72241092D01*
X115071997Y-72447231D01*
X114991564Y-72641412D01*
X114991563Y-72641414D01*
X114874793Y-72816173D01*
X114726173Y-72964793D01*
X114551414Y-73081563D01*
X114551413Y-73081564D01*
X114551412Y-73081564D01*
X114357231Y-73161997D01*
X114151092Y-73203000D01*
X113940908Y-73203000D01*
X113734769Y-73161997D01*
X113540588Y-73081564D01*
X113540587Y-73081564D01*
X113540586Y-73081563D01*
X113365827Y-72964793D01*
X113217207Y-72816173D01*
X113100437Y-72641414D01*
X113100436Y-72641412D01*
X113020003Y-72447231D01*
X112979000Y-72241092D01*
X112979000Y-72030908D01*
X113020003Y-71824769D01*
X113100436Y-71630588D01*
X113100437Y-71630586D01*
X113217207Y-71455827D01*
X113365827Y-71307207D01*
X113540586Y-71190437D01*
X113540588Y-71190436D01*
X113734769Y-71110003D01*
X113940908Y-71069000D01*
X114151092Y-71069000D01*
X114357231Y-71110003D01*
X114357231Y-71110003D01*
G37*
G36*
X111817231Y-71110003D02*
G01*
X112011412Y-71190436D01*
X112011414Y-71190437D01*
X112186173Y-71307207D01*
X112334793Y-71455827D01*
X112451563Y-71630586D01*
X112451564Y-71630588D01*
X112531997Y-71824769D01*
X112573000Y-72030908D01*
X112573000Y-72241092D01*
X112531997Y-72447231D01*
X112451564Y-72641412D01*
X112451563Y-72641414D01*
X112334793Y-72816173D01*
X112186173Y-72964793D01*
X112011414Y-73081563D01*
X112011413Y-73081564D01*
X112011412Y-73081564D01*
X111817231Y-73161997D01*
X111611092Y-73203000D01*
X111400908Y-73203000D01*
X111194769Y-73161997D01*
X111000588Y-73081564D01*
X111000587Y-73081564D01*
X111000586Y-73081563D01*
X110825827Y-72964793D01*
X110677207Y-72816173D01*
X110560437Y-72641414D01*
X110560436Y-72641412D01*
X110480003Y-72447231D01*
X110439000Y-72241092D01*
X110439000Y-72030908D01*
X110480003Y-71824769D01*
X110560436Y-71630588D01*
X110560437Y-71630586D01*
X110677207Y-71455827D01*
X110825827Y-71307207D01*
X111000586Y-71190437D01*
X111000588Y-71190436D01*
X111194769Y-71110003D01*
X111400908Y-71069000D01*
X111611092Y-71069000D01*
X111817231Y-71110003D01*
X111817231Y-71110003D01*
G37*
G36*
X109277231Y-71110003D02*
G01*
X109471412Y-71190436D01*
X109471414Y-71190437D01*
X109646173Y-71307207D01*
X109794793Y-71455827D01*
X109911563Y-71630586D01*
X109911564Y-71630588D01*
X109991997Y-71824769D01*
X110033000Y-72030908D01*
X110033000Y-72241092D01*
X109991997Y-72447231D01*
X109911564Y-72641412D01*
X109911563Y-72641414D01*
X109794793Y-72816173D01*
X109646173Y-72964793D01*
X109471414Y-73081563D01*
X109471413Y-73081564D01*
X109471412Y-73081564D01*
X109277231Y-73161997D01*
X109071092Y-73203000D01*
X108860908Y-73203000D01*
X108654769Y-73161997D01*
X108460588Y-73081564D01*
X108460587Y-73081564D01*
X108460586Y-73081563D01*
X108285827Y-72964793D01*
X108137207Y-72816173D01*
X108020437Y-72641414D01*
X108020436Y-72641412D01*
X107940003Y-72447231D01*
X107899000Y-72241092D01*
X107899000Y-72030908D01*
X107940003Y-71824769D01*
X108020436Y-71630588D01*
X108020437Y-71630586D01*
X108137207Y-71455827D01*
X108285827Y-71307207D01*
X108460586Y-71190437D01*
X108460588Y-71190436D01*
X108654769Y-71110003D01*
X108860908Y-71069000D01*
X109071092Y-71069000D01*
X109277231Y-71110003D01*
X109277231Y-71110003D01*
G37*
G36*
X106737231Y-71110003D02*
G01*
X106931412Y-71190436D01*
X106931414Y-71190437D01*
X107106173Y-71307207D01*
X107254793Y-71455827D01*
X107371563Y-71630586D01*
X107371564Y-71630588D01*
X107451997Y-71824769D01*
X107493000Y-72030908D01*
X107493000Y-72241092D01*
X107451997Y-72447231D01*
X107371564Y-72641412D01*
X107371563Y-72641414D01*
X107254793Y-72816173D01*
X107106173Y-72964793D01*
X106931414Y-73081563D01*
X106931413Y-73081564D01*
X106931412Y-73081564D01*
X106737231Y-73161997D01*
X106531092Y-73203000D01*
X106320908Y-73203000D01*
X106114769Y-73161997D01*
X105920588Y-73081564D01*
X105920587Y-73081564D01*
X105920586Y-73081563D01*
X105745827Y-72964793D01*
X105597207Y-72816173D01*
X105480437Y-72641414D01*
X105480436Y-72641412D01*
X105400003Y-72447231D01*
X105359000Y-72241092D01*
X105359000Y-72030908D01*
X105400003Y-71824769D01*
X105480436Y-71630588D01*
X105480437Y-71630586D01*
X105597207Y-71455827D01*
X105745827Y-71307207D01*
X105920586Y-71190437D01*
X105920588Y-71190436D01*
X106114769Y-71110003D01*
X106320908Y-71069000D01*
X106531092Y-71069000D01*
X106737231Y-71110003D01*
X106737231Y-71110003D01*
G37*
G36*
X104197231Y-71110003D02*
G01*
X104391412Y-71190436D01*
X104391414Y-71190437D01*
X104566173Y-71307207D01*
X104714793Y-71455827D01*
X104831563Y-71630586D01*
X104831564Y-71630588D01*
X104911997Y-71824769D01*
X104953000Y-72030908D01*
X104953000Y-72241092D01*
X104911997Y-72447231D01*
X104831564Y-72641412D01*
X104831563Y-72641414D01*
X104714793Y-72816173D01*
X104566173Y-72964793D01*
X104391414Y-73081563D01*
X104391413Y-73081564D01*
X104391412Y-73081564D01*
X104197231Y-73161997D01*
X103991092Y-73203000D01*
X103780908Y-73203000D01*
X103574769Y-73161997D01*
X103380588Y-73081564D01*
X103380587Y-73081564D01*
X103380586Y-73081563D01*
X103205827Y-72964793D01*
X103057207Y-72816173D01*
X102940437Y-72641414D01*
X102940436Y-72641412D01*
X102860003Y-72447231D01*
X102819000Y-72241092D01*
X102819000Y-72030908D01*
X102860003Y-71824769D01*
X102940436Y-71630588D01*
X102940437Y-71630586D01*
X103057207Y-71455827D01*
X103205827Y-71307207D01*
X103380586Y-71190437D01*
X103380588Y-71190436D01*
X103574769Y-71110003D01*
X103780908Y-71069000D01*
X103991092Y-71069000D01*
X104197231Y-71110003D01*
X104197231Y-71110003D01*
G37*
G36*
X96069231Y-71110003D02*
G01*
X96263412Y-71190436D01*
X96263414Y-71190437D01*
X96438173Y-71307207D01*
X96586793Y-71455827D01*
X96703563Y-71630586D01*
X96703564Y-71630588D01*
X96783997Y-71824769D01*
X96825000Y-72030908D01*
X96825000Y-72241092D01*
X96783997Y-72447231D01*
X96703564Y-72641412D01*
X96703563Y-72641414D01*
X96586793Y-72816173D01*
X96438173Y-72964793D01*
X96263414Y-73081563D01*
X96263413Y-73081564D01*
X96263412Y-73081564D01*
X96069231Y-73161997D01*
X95863092Y-73203000D01*
X95652908Y-73203000D01*
X95446769Y-73161997D01*
X95252588Y-73081564D01*
X95252587Y-73081564D01*
X95252586Y-73081563D01*
X95077827Y-72964793D01*
X94929207Y-72816173D01*
X94812437Y-72641414D01*
X94812436Y-72641412D01*
X94732003Y-72447231D01*
X94691000Y-72241092D01*
X94691000Y-72030908D01*
X94732003Y-71824769D01*
X94812436Y-71630588D01*
X94812437Y-71630586D01*
X94929207Y-71455827D01*
X95077827Y-71307207D01*
X95252586Y-71190437D01*
X95252588Y-71190436D01*
X95446769Y-71110003D01*
X95652908Y-71069000D01*
X95863092Y-71069000D01*
X96069231Y-71110003D01*
X96069231Y-71110003D01*
G37*
G36*
X93529231Y-71110003D02*
G01*
X93723412Y-71190436D01*
X93723414Y-71190437D01*
X93898173Y-71307207D01*
X94046793Y-71455827D01*
X94163563Y-71630586D01*
X94163564Y-71630588D01*
X94243997Y-71824769D01*
X94285000Y-72030908D01*
X94285000Y-72241092D01*
X94243997Y-72447231D01*
X94163564Y-72641412D01*
X94163563Y-72641414D01*
X94046793Y-72816173D01*
X93898173Y-72964793D01*
X93723414Y-73081563D01*
X93723413Y-73081564D01*
X93723412Y-73081564D01*
X93529231Y-73161997D01*
X93323092Y-73203000D01*
X93112908Y-73203000D01*
X92906769Y-73161997D01*
X92712588Y-73081564D01*
X92712587Y-73081564D01*
X92712586Y-73081563D01*
X92537827Y-72964793D01*
X92389207Y-72816173D01*
X92272437Y-72641414D01*
X92272436Y-72641412D01*
X92192003Y-72447231D01*
X92151000Y-72241092D01*
X92151000Y-72030908D01*
X92192003Y-71824769D01*
X92272436Y-71630588D01*
X92272437Y-71630586D01*
X92389207Y-71455827D01*
X92537827Y-71307207D01*
X92712586Y-71190437D01*
X92712588Y-71190436D01*
X92906769Y-71110003D01*
X93112908Y-71069000D01*
X93323092Y-71069000D01*
X93529231Y-71110003D01*
X93529231Y-71110003D01*
G37*
G36*
X90989231Y-71110003D02*
G01*
X91183412Y-71190436D01*
X91183414Y-71190437D01*
X91358173Y-71307207D01*
X91506793Y-71455827D01*
X91623563Y-71630586D01*
X91623564Y-71630588D01*
X91703997Y-71824769D01*
X91745000Y-72030908D01*
X91745000Y-72241092D01*
X91703997Y-72447231D01*
X91623564Y-72641412D01*
X91623563Y-72641414D01*
X91506793Y-72816173D01*
X91358173Y-72964793D01*
X91183414Y-73081563D01*
X91183413Y-73081564D01*
X91183412Y-73081564D01*
X90989231Y-73161997D01*
X90783092Y-73203000D01*
X90572908Y-73203000D01*
X90366769Y-73161997D01*
X90172588Y-73081564D01*
X90172587Y-73081564D01*
X90172586Y-73081563D01*
X89997827Y-72964793D01*
X89849207Y-72816173D01*
X89732437Y-72641414D01*
X89732436Y-72641412D01*
X89652003Y-72447231D01*
X89611000Y-72241092D01*
X89611000Y-72030908D01*
X89652003Y-71824769D01*
X89732436Y-71630588D01*
X89732437Y-71630586D01*
X89849207Y-71455827D01*
X89997827Y-71307207D01*
X90172586Y-71190437D01*
X90172588Y-71190436D01*
X90366769Y-71110003D01*
X90572908Y-71069000D01*
X90783092Y-71069000D01*
X90989231Y-71110003D01*
X90989231Y-71110003D01*
G37*
G36*
X75749231Y-71110003D02*
G01*
X75943412Y-71190436D01*
X75943414Y-71190437D01*
X76118173Y-71307207D01*
X76266793Y-71455827D01*
X76383563Y-71630586D01*
X76383564Y-71630588D01*
X76463997Y-71824769D01*
X76505000Y-72030908D01*
X76505000Y-72241092D01*
X76463997Y-72447231D01*
X76383564Y-72641412D01*
X76383563Y-72641414D01*
X76266793Y-72816173D01*
X76118173Y-72964793D01*
X75943414Y-73081563D01*
X75943413Y-73081564D01*
X75943412Y-73081564D01*
X75749231Y-73161997D01*
X75543092Y-73203000D01*
X75332908Y-73203000D01*
X75126769Y-73161997D01*
X74932588Y-73081564D01*
X74932587Y-73081564D01*
X74932586Y-73081563D01*
X74757827Y-72964793D01*
X74609207Y-72816173D01*
X74492437Y-72641414D01*
X74492436Y-72641412D01*
X74412003Y-72447231D01*
X74371000Y-72241092D01*
X74371000Y-72030908D01*
X74412003Y-71824769D01*
X74492436Y-71630588D01*
X74492437Y-71630586D01*
X74609207Y-71455827D01*
X74757827Y-71307207D01*
X74932586Y-71190437D01*
X74932588Y-71190436D01*
X75126769Y-71110003D01*
X75332908Y-71069000D01*
X75543092Y-71069000D01*
X75749231Y-71110003D01*
X75749231Y-71110003D01*
G37*
G36*
X78289231Y-71110003D02*
G01*
X78483412Y-71190436D01*
X78483414Y-71190437D01*
X78658173Y-71307207D01*
X78806793Y-71455827D01*
X78923563Y-71630586D01*
X78923564Y-71630588D01*
X79003997Y-71824769D01*
X79045000Y-72030908D01*
X79045000Y-72241092D01*
X79003997Y-72447231D01*
X78923564Y-72641412D01*
X78923563Y-72641414D01*
X78806793Y-72816173D01*
X78658173Y-72964793D01*
X78483414Y-73081563D01*
X78483413Y-73081564D01*
X78483412Y-73081564D01*
X78289231Y-73161997D01*
X78083092Y-73203000D01*
X77872908Y-73203000D01*
X77666769Y-73161997D01*
X77472588Y-73081564D01*
X77472587Y-73081564D01*
X77472586Y-73081563D01*
X77297827Y-72964793D01*
X77149207Y-72816173D01*
X77032437Y-72641414D01*
X77032436Y-72641412D01*
X76952003Y-72447231D01*
X76911000Y-72241092D01*
X76911000Y-72030908D01*
X76952003Y-71824769D01*
X77032436Y-71630588D01*
X77032437Y-71630586D01*
X77149207Y-71455827D01*
X77297827Y-71307207D01*
X77472586Y-71190437D01*
X77472588Y-71190436D01*
X77666769Y-71110003D01*
X77872908Y-71069000D01*
X78083092Y-71069000D01*
X78289231Y-71110003D01*
X78289231Y-71110003D01*
G37*
G36*
X80829231Y-71110003D02*
G01*
X81023412Y-71190436D01*
X81023414Y-71190437D01*
X81198173Y-71307207D01*
X81346793Y-71455827D01*
X81463563Y-71630586D01*
X81463564Y-71630588D01*
X81543997Y-71824769D01*
X81585000Y-72030908D01*
X81585000Y-72241092D01*
X81543997Y-72447231D01*
X81463564Y-72641412D01*
X81463563Y-72641414D01*
X81346793Y-72816173D01*
X81198173Y-72964793D01*
X81023414Y-73081563D01*
X81023413Y-73081564D01*
X81023412Y-73081564D01*
X80829231Y-73161997D01*
X80623092Y-73203000D01*
X80412908Y-73203000D01*
X80206769Y-73161997D01*
X80012588Y-73081564D01*
X80012587Y-73081564D01*
X80012586Y-73081563D01*
X79837827Y-72964793D01*
X79689207Y-72816173D01*
X79572437Y-72641414D01*
X79572436Y-72641412D01*
X79492003Y-72447231D01*
X79451000Y-72241092D01*
X79451000Y-72030908D01*
X79492003Y-71824769D01*
X79572436Y-71630588D01*
X79572437Y-71630586D01*
X79689207Y-71455827D01*
X79837827Y-71307207D01*
X80012586Y-71190437D01*
X80012588Y-71190436D01*
X80206769Y-71110003D01*
X80412908Y-71069000D01*
X80623092Y-71069000D01*
X80829231Y-71110003D01*
X80829231Y-71110003D01*
G37*
G36*
X83369231Y-71110003D02*
G01*
X83563412Y-71190436D01*
X83563414Y-71190437D01*
X83738173Y-71307207D01*
X83886793Y-71455827D01*
X84003563Y-71630586D01*
X84003564Y-71630588D01*
X84083997Y-71824769D01*
X84125000Y-72030908D01*
X84125000Y-72241092D01*
X84083997Y-72447231D01*
X84003564Y-72641412D01*
X84003563Y-72641414D01*
X83886793Y-72816173D01*
X83738173Y-72964793D01*
X83563414Y-73081563D01*
X83563413Y-73081564D01*
X83563412Y-73081564D01*
X83369231Y-73161997D01*
X83163092Y-73203000D01*
X82952908Y-73203000D01*
X82746769Y-73161997D01*
X82552588Y-73081564D01*
X82552587Y-73081564D01*
X82552586Y-73081563D01*
X82377827Y-72964793D01*
X82229207Y-72816173D01*
X82112437Y-72641414D01*
X82112436Y-72641412D01*
X82032003Y-72447231D01*
X81991000Y-72241092D01*
X81991000Y-72030908D01*
X82032003Y-71824769D01*
X82112436Y-71630588D01*
X82112437Y-71630586D01*
X82229207Y-71455827D01*
X82377827Y-71307207D01*
X82552586Y-71190437D01*
X82552588Y-71190436D01*
X82746769Y-71110003D01*
X82952908Y-71069000D01*
X83163092Y-71069000D01*
X83369231Y-71110003D01*
X83369231Y-71110003D01*
G37*
G36*
X88449231Y-71110003D02*
G01*
X88643412Y-71190436D01*
X88643414Y-71190437D01*
X88818173Y-71307207D01*
X88966793Y-71455827D01*
X89083563Y-71630586D01*
X89083564Y-71630588D01*
X89163997Y-71824769D01*
X89205000Y-72030908D01*
X89205000Y-72241092D01*
X89163997Y-72447231D01*
X89083564Y-72641412D01*
X89083563Y-72641414D01*
X88966793Y-72816173D01*
X88818173Y-72964793D01*
X88643414Y-73081563D01*
X88643413Y-73081564D01*
X88643412Y-73081564D01*
X88449231Y-73161997D01*
X88243092Y-73203000D01*
X88032908Y-73203000D01*
X87826769Y-73161997D01*
X87632588Y-73081564D01*
X87632587Y-73081564D01*
X87632586Y-73081563D01*
X87457827Y-72964793D01*
X87309207Y-72816173D01*
X87192437Y-72641414D01*
X87192436Y-72641412D01*
X87112003Y-72447231D01*
X87071000Y-72241092D01*
X87071000Y-72030908D01*
X87112003Y-71824769D01*
X87192436Y-71630588D01*
X87192437Y-71630586D01*
X87309207Y-71455827D01*
X87457827Y-71307207D01*
X87632586Y-71190437D01*
X87632588Y-71190436D01*
X87826769Y-71110003D01*
X88032908Y-71069000D01*
X88243092Y-71069000D01*
X88449231Y-71110003D01*
X88449231Y-71110003D01*
G37*
G36*
X85909231Y-71110003D02*
G01*
X86103412Y-71190436D01*
X86103414Y-71190437D01*
X86278173Y-71307207D01*
X86426793Y-71455827D01*
X86543563Y-71630586D01*
X86543564Y-71630588D01*
X86623997Y-71824769D01*
X86665000Y-72030908D01*
X86665000Y-72241092D01*
X86623997Y-72447231D01*
X86543564Y-72641412D01*
X86543563Y-72641414D01*
X86426793Y-72816173D01*
X86278173Y-72964793D01*
X86103414Y-73081563D01*
X86103413Y-73081564D01*
X86103412Y-73081564D01*
X85909231Y-73161997D01*
X85703092Y-73203000D01*
X85492908Y-73203000D01*
X85286769Y-73161997D01*
X85092588Y-73081564D01*
X85092587Y-73081564D01*
X85092586Y-73081563D01*
X84917827Y-72964793D01*
X84769207Y-72816173D01*
X84652437Y-72641414D01*
X84652436Y-72641412D01*
X84572003Y-72447231D01*
X84531000Y-72241092D01*
X84531000Y-72030908D01*
X84572003Y-71824769D01*
X84652436Y-71630588D01*
X84652437Y-71630586D01*
X84769207Y-71455827D01*
X84917827Y-71307207D01*
X85092586Y-71190437D01*
X85092588Y-71190436D01*
X85286769Y-71110003D01*
X85492908Y-71069000D01*
X85703092Y-71069000D01*
X85909231Y-71110003D01*
X85909231Y-71110003D01*
G37*
G36*
X86151442Y-67939518D02*
G01*
X86217627Y-67946037D01*
X86387466Y-67997557D01*
X86543991Y-68081222D01*
X86579729Y-68110552D01*
X86681186Y-68193814D01*
X86764448Y-68295271D01*
X86793778Y-68331009D01*
X86877443Y-68487534D01*
X86928963Y-68657373D01*
X86946359Y-68834000D01*
X86928963Y-69010627D01*
X86877443Y-69180466D01*
X86793778Y-69336991D01*
X86764448Y-69372729D01*
X86681186Y-69474186D01*
X86579729Y-69557448D01*
X86543991Y-69586778D01*
X86387466Y-69670443D01*
X86217627Y-69721963D01*
X86151443Y-69728481D01*
X86085260Y-69735000D01*
X85996740Y-69735000D01*
X85930557Y-69728481D01*
X85864373Y-69721963D01*
X85694534Y-69670443D01*
X85538009Y-69586778D01*
X85502271Y-69557448D01*
X85400814Y-69474186D01*
X85317552Y-69372729D01*
X85288222Y-69336991D01*
X85204557Y-69180466D01*
X85153037Y-69010627D01*
X85135641Y-68834000D01*
X85153037Y-68657373D01*
X85204557Y-68487534D01*
X85288222Y-68331009D01*
X85317552Y-68295271D01*
X85400814Y-68193814D01*
X85502271Y-68110552D01*
X85538009Y-68081222D01*
X85694534Y-67997557D01*
X85864373Y-67946037D01*
X85930558Y-67939518D01*
X85996740Y-67933000D01*
X86085260Y-67933000D01*
X86151442Y-67939518D01*
X86151442Y-67939518D01*
G37*
G36*
X83611442Y-67939518D02*
G01*
X83677627Y-67946037D01*
X83847466Y-67997557D01*
X84003991Y-68081222D01*
X84039729Y-68110552D01*
X84141186Y-68193814D01*
X84224448Y-68295271D01*
X84253778Y-68331009D01*
X84337443Y-68487534D01*
X84388963Y-68657373D01*
X84406359Y-68834000D01*
X84388963Y-69010627D01*
X84337443Y-69180466D01*
X84253778Y-69336991D01*
X84224448Y-69372729D01*
X84141186Y-69474186D01*
X84039729Y-69557448D01*
X84003991Y-69586778D01*
X83847466Y-69670443D01*
X83677627Y-69721963D01*
X83611443Y-69728481D01*
X83545260Y-69735000D01*
X83456740Y-69735000D01*
X83390557Y-69728481D01*
X83324373Y-69721963D01*
X83154534Y-69670443D01*
X82998009Y-69586778D01*
X82962271Y-69557448D01*
X82860814Y-69474186D01*
X82777552Y-69372729D01*
X82748222Y-69336991D01*
X82664557Y-69180466D01*
X82613037Y-69010627D01*
X82595641Y-68834000D01*
X82613037Y-68657373D01*
X82664557Y-68487534D01*
X82748222Y-68331009D01*
X82777552Y-68295271D01*
X82860814Y-68193814D01*
X82962271Y-68110552D01*
X82998009Y-68081222D01*
X83154534Y-67997557D01*
X83324373Y-67946037D01*
X83390558Y-67939518D01*
X83456740Y-67933000D01*
X83545260Y-67933000D01*
X83611442Y-67939518D01*
X83611442Y-67939518D01*
G37*
G36*
X125042000Y-69735000D02*
G01*
X123240000Y-69735000D01*
X123240000Y-67933000D01*
X125042000Y-67933000D01*
X125042000Y-69735000D01*
X125042000Y-69735000D01*
G37*
G36*
X121711442Y-67939518D02*
G01*
X121777627Y-67946037D01*
X121947466Y-67997557D01*
X122103991Y-68081222D01*
X122139729Y-68110552D01*
X122241186Y-68193814D01*
X122324448Y-68295271D01*
X122353778Y-68331009D01*
X122437443Y-68487534D01*
X122488963Y-68657373D01*
X122506359Y-68834000D01*
X122488963Y-69010627D01*
X122437443Y-69180466D01*
X122353778Y-69336991D01*
X122324448Y-69372729D01*
X122241186Y-69474186D01*
X122139729Y-69557448D01*
X122103991Y-69586778D01*
X121947466Y-69670443D01*
X121777627Y-69721963D01*
X121711443Y-69728481D01*
X121645260Y-69735000D01*
X121556740Y-69735000D01*
X121490557Y-69728481D01*
X121424373Y-69721963D01*
X121254534Y-69670443D01*
X121098009Y-69586778D01*
X121062271Y-69557448D01*
X120960814Y-69474186D01*
X120877552Y-69372729D01*
X120848222Y-69336991D01*
X120764557Y-69180466D01*
X120713037Y-69010627D01*
X120695641Y-68834000D01*
X120713037Y-68657373D01*
X120764557Y-68487534D01*
X120848222Y-68331009D01*
X120877552Y-68295271D01*
X120960814Y-68193814D01*
X121062271Y-68110552D01*
X121098009Y-68081222D01*
X121254534Y-67997557D01*
X121424373Y-67946037D01*
X121490558Y-67939518D01*
X121556740Y-67933000D01*
X121645260Y-67933000D01*
X121711442Y-67939518D01*
X121711442Y-67939518D01*
G37*
G36*
X119171442Y-67939518D02*
G01*
X119237627Y-67946037D01*
X119407466Y-67997557D01*
X119563991Y-68081222D01*
X119599729Y-68110552D01*
X119701186Y-68193814D01*
X119784448Y-68295271D01*
X119813778Y-68331009D01*
X119897443Y-68487534D01*
X119948963Y-68657373D01*
X119966359Y-68834000D01*
X119948963Y-69010627D01*
X119897443Y-69180466D01*
X119813778Y-69336991D01*
X119784448Y-69372729D01*
X119701186Y-69474186D01*
X119599729Y-69557448D01*
X119563991Y-69586778D01*
X119407466Y-69670443D01*
X119237627Y-69721963D01*
X119171443Y-69728481D01*
X119105260Y-69735000D01*
X119016740Y-69735000D01*
X118950557Y-69728481D01*
X118884373Y-69721963D01*
X118714534Y-69670443D01*
X118558009Y-69586778D01*
X118522271Y-69557448D01*
X118420814Y-69474186D01*
X118337552Y-69372729D01*
X118308222Y-69336991D01*
X118224557Y-69180466D01*
X118173037Y-69010627D01*
X118155641Y-68834000D01*
X118173037Y-68657373D01*
X118224557Y-68487534D01*
X118308222Y-68331009D01*
X118337552Y-68295271D01*
X118420814Y-68193814D01*
X118522271Y-68110552D01*
X118558009Y-68081222D01*
X118714534Y-67997557D01*
X118884373Y-67946037D01*
X118950558Y-67939518D01*
X119016740Y-67933000D01*
X119105260Y-67933000D01*
X119171442Y-67939518D01*
X119171442Y-67939518D01*
G37*
G36*
X116631442Y-67939518D02*
G01*
X116697627Y-67946037D01*
X116867466Y-67997557D01*
X117023991Y-68081222D01*
X117059729Y-68110552D01*
X117161186Y-68193814D01*
X117244448Y-68295271D01*
X117273778Y-68331009D01*
X117357443Y-68487534D01*
X117408963Y-68657373D01*
X117426359Y-68834000D01*
X117408963Y-69010627D01*
X117357443Y-69180466D01*
X117273778Y-69336991D01*
X117244448Y-69372729D01*
X117161186Y-69474186D01*
X117059729Y-69557448D01*
X117023991Y-69586778D01*
X116867466Y-69670443D01*
X116697627Y-69721963D01*
X116631443Y-69728481D01*
X116565260Y-69735000D01*
X116476740Y-69735000D01*
X116410557Y-69728481D01*
X116344373Y-69721963D01*
X116174534Y-69670443D01*
X116018009Y-69586778D01*
X115982271Y-69557448D01*
X115880814Y-69474186D01*
X115797552Y-69372729D01*
X115768222Y-69336991D01*
X115684557Y-69180466D01*
X115633037Y-69010627D01*
X115615641Y-68834000D01*
X115633037Y-68657373D01*
X115684557Y-68487534D01*
X115768222Y-68331009D01*
X115797552Y-68295271D01*
X115880814Y-68193814D01*
X115982271Y-68110552D01*
X116018009Y-68081222D01*
X116174534Y-67997557D01*
X116344373Y-67946037D01*
X116410558Y-67939518D01*
X116476740Y-67933000D01*
X116565260Y-67933000D01*
X116631442Y-67939518D01*
X116631442Y-67939518D01*
G37*
G36*
X114091442Y-67939518D02*
G01*
X114157627Y-67946037D01*
X114327466Y-67997557D01*
X114483991Y-68081222D01*
X114519729Y-68110552D01*
X114621186Y-68193814D01*
X114704448Y-68295271D01*
X114733778Y-68331009D01*
X114817443Y-68487534D01*
X114868963Y-68657373D01*
X114886359Y-68834000D01*
X114868963Y-69010627D01*
X114817443Y-69180466D01*
X114733778Y-69336991D01*
X114704448Y-69372729D01*
X114621186Y-69474186D01*
X114519729Y-69557448D01*
X114483991Y-69586778D01*
X114327466Y-69670443D01*
X114157627Y-69721963D01*
X114091443Y-69728481D01*
X114025260Y-69735000D01*
X113936740Y-69735000D01*
X113870557Y-69728481D01*
X113804373Y-69721963D01*
X113634534Y-69670443D01*
X113478009Y-69586778D01*
X113442271Y-69557448D01*
X113340814Y-69474186D01*
X113257552Y-69372729D01*
X113228222Y-69336991D01*
X113144557Y-69180466D01*
X113093037Y-69010627D01*
X113075641Y-68834000D01*
X113093037Y-68657373D01*
X113144557Y-68487534D01*
X113228222Y-68331009D01*
X113257552Y-68295271D01*
X113340814Y-68193814D01*
X113442271Y-68110552D01*
X113478009Y-68081222D01*
X113634534Y-67997557D01*
X113804373Y-67946037D01*
X113870558Y-67939518D01*
X113936740Y-67933000D01*
X114025260Y-67933000D01*
X114091442Y-67939518D01*
X114091442Y-67939518D01*
G37*
G36*
X111551442Y-67939518D02*
G01*
X111617627Y-67946037D01*
X111787466Y-67997557D01*
X111943991Y-68081222D01*
X111979729Y-68110552D01*
X112081186Y-68193814D01*
X112164448Y-68295271D01*
X112193778Y-68331009D01*
X112277443Y-68487534D01*
X112328963Y-68657373D01*
X112346359Y-68834000D01*
X112328963Y-69010627D01*
X112277443Y-69180466D01*
X112193778Y-69336991D01*
X112164448Y-69372729D01*
X112081186Y-69474186D01*
X111979729Y-69557448D01*
X111943991Y-69586778D01*
X111787466Y-69670443D01*
X111617627Y-69721963D01*
X111551443Y-69728481D01*
X111485260Y-69735000D01*
X111396740Y-69735000D01*
X111330557Y-69728481D01*
X111264373Y-69721963D01*
X111094534Y-69670443D01*
X110938009Y-69586778D01*
X110902271Y-69557448D01*
X110800814Y-69474186D01*
X110717552Y-69372729D01*
X110688222Y-69336991D01*
X110604557Y-69180466D01*
X110553037Y-69010627D01*
X110535641Y-68834000D01*
X110553037Y-68657373D01*
X110604557Y-68487534D01*
X110688222Y-68331009D01*
X110717552Y-68295271D01*
X110800814Y-68193814D01*
X110902271Y-68110552D01*
X110938009Y-68081222D01*
X111094534Y-67997557D01*
X111264373Y-67946037D01*
X111330558Y-67939518D01*
X111396740Y-67933000D01*
X111485260Y-67933000D01*
X111551442Y-67939518D01*
X111551442Y-67939518D01*
G37*
G36*
X109011442Y-67939518D02*
G01*
X109077627Y-67946037D01*
X109247466Y-67997557D01*
X109403991Y-68081222D01*
X109439729Y-68110552D01*
X109541186Y-68193814D01*
X109624448Y-68295271D01*
X109653778Y-68331009D01*
X109737443Y-68487534D01*
X109788963Y-68657373D01*
X109806359Y-68834000D01*
X109788963Y-69010627D01*
X109737443Y-69180466D01*
X109653778Y-69336991D01*
X109624448Y-69372729D01*
X109541186Y-69474186D01*
X109439729Y-69557448D01*
X109403991Y-69586778D01*
X109247466Y-69670443D01*
X109077627Y-69721963D01*
X109011443Y-69728481D01*
X108945260Y-69735000D01*
X108856740Y-69735000D01*
X108790557Y-69728481D01*
X108724373Y-69721963D01*
X108554534Y-69670443D01*
X108398009Y-69586778D01*
X108362271Y-69557448D01*
X108260814Y-69474186D01*
X108177552Y-69372729D01*
X108148222Y-69336991D01*
X108064557Y-69180466D01*
X108013037Y-69010627D01*
X107995641Y-68834000D01*
X108013037Y-68657373D01*
X108064557Y-68487534D01*
X108148222Y-68331009D01*
X108177552Y-68295271D01*
X108260814Y-68193814D01*
X108362271Y-68110552D01*
X108398009Y-68081222D01*
X108554534Y-67997557D01*
X108724373Y-67946037D01*
X108790558Y-67939518D01*
X108856740Y-67933000D01*
X108945260Y-67933000D01*
X109011442Y-67939518D01*
X109011442Y-67939518D01*
G37*
G36*
X106471442Y-67939518D02*
G01*
X106537627Y-67946037D01*
X106707466Y-67997557D01*
X106863991Y-68081222D01*
X106899729Y-68110552D01*
X107001186Y-68193814D01*
X107084448Y-68295271D01*
X107113778Y-68331009D01*
X107197443Y-68487534D01*
X107248963Y-68657373D01*
X107266359Y-68834000D01*
X107248963Y-69010627D01*
X107197443Y-69180466D01*
X107113778Y-69336991D01*
X107084448Y-69372729D01*
X107001186Y-69474186D01*
X106899729Y-69557448D01*
X106863991Y-69586778D01*
X106707466Y-69670443D01*
X106537627Y-69721963D01*
X106471443Y-69728481D01*
X106405260Y-69735000D01*
X106316740Y-69735000D01*
X106250557Y-69728481D01*
X106184373Y-69721963D01*
X106014534Y-69670443D01*
X105858009Y-69586778D01*
X105822271Y-69557448D01*
X105720814Y-69474186D01*
X105637552Y-69372729D01*
X105608222Y-69336991D01*
X105524557Y-69180466D01*
X105473037Y-69010627D01*
X105455641Y-68834000D01*
X105473037Y-68657373D01*
X105524557Y-68487534D01*
X105608222Y-68331009D01*
X105637552Y-68295271D01*
X105720814Y-68193814D01*
X105822271Y-68110552D01*
X105858009Y-68081222D01*
X106014534Y-67997557D01*
X106184373Y-67946037D01*
X106250558Y-67939518D01*
X106316740Y-67933000D01*
X106405260Y-67933000D01*
X106471442Y-67939518D01*
X106471442Y-67939518D01*
G37*
G36*
X103931442Y-67939518D02*
G01*
X103997627Y-67946037D01*
X104167466Y-67997557D01*
X104323991Y-68081222D01*
X104359729Y-68110552D01*
X104461186Y-68193814D01*
X104544448Y-68295271D01*
X104573778Y-68331009D01*
X104657443Y-68487534D01*
X104708963Y-68657373D01*
X104726359Y-68834000D01*
X104708963Y-69010627D01*
X104657443Y-69180466D01*
X104573778Y-69336991D01*
X104544448Y-69372729D01*
X104461186Y-69474186D01*
X104359729Y-69557448D01*
X104323991Y-69586778D01*
X104167466Y-69670443D01*
X103997627Y-69721963D01*
X103931443Y-69728481D01*
X103865260Y-69735000D01*
X103776740Y-69735000D01*
X103710557Y-69728481D01*
X103644373Y-69721963D01*
X103474534Y-69670443D01*
X103318009Y-69586778D01*
X103282271Y-69557448D01*
X103180814Y-69474186D01*
X103097552Y-69372729D01*
X103068222Y-69336991D01*
X102984557Y-69180466D01*
X102933037Y-69010627D01*
X102915641Y-68834000D01*
X102933037Y-68657373D01*
X102984557Y-68487534D01*
X103068222Y-68331009D01*
X103097552Y-68295271D01*
X103180814Y-68193814D01*
X103282271Y-68110552D01*
X103318009Y-68081222D01*
X103474534Y-67997557D01*
X103644373Y-67946037D01*
X103710558Y-67939518D01*
X103776740Y-67933000D01*
X103865260Y-67933000D01*
X103931442Y-67939518D01*
X103931442Y-67939518D01*
G37*
G36*
X101391442Y-67939518D02*
G01*
X101457627Y-67946037D01*
X101627466Y-67997557D01*
X101783991Y-68081222D01*
X101819729Y-68110552D01*
X101921186Y-68193814D01*
X102004448Y-68295271D01*
X102033778Y-68331009D01*
X102117443Y-68487534D01*
X102168963Y-68657373D01*
X102186359Y-68834000D01*
X102168963Y-69010627D01*
X102117443Y-69180466D01*
X102033778Y-69336991D01*
X102004448Y-69372729D01*
X101921186Y-69474186D01*
X101819729Y-69557448D01*
X101783991Y-69586778D01*
X101627466Y-69670443D01*
X101457627Y-69721963D01*
X101391443Y-69728481D01*
X101325260Y-69735000D01*
X101236740Y-69735000D01*
X101170557Y-69728481D01*
X101104373Y-69721963D01*
X100934534Y-69670443D01*
X100778009Y-69586778D01*
X100742271Y-69557448D01*
X100640814Y-69474186D01*
X100557552Y-69372729D01*
X100528222Y-69336991D01*
X100444557Y-69180466D01*
X100393037Y-69010627D01*
X100375641Y-68834000D01*
X100393037Y-68657373D01*
X100444557Y-68487534D01*
X100528222Y-68331009D01*
X100557552Y-68295271D01*
X100640814Y-68193814D01*
X100742271Y-68110552D01*
X100778009Y-68081222D01*
X100934534Y-67997557D01*
X101104373Y-67946037D01*
X101170558Y-67939518D01*
X101236740Y-67933000D01*
X101325260Y-67933000D01*
X101391442Y-67939518D01*
X101391442Y-67939518D01*
G37*
G36*
X98851442Y-67939518D02*
G01*
X98917627Y-67946037D01*
X99087466Y-67997557D01*
X99243991Y-68081222D01*
X99279729Y-68110552D01*
X99381186Y-68193814D01*
X99464448Y-68295271D01*
X99493778Y-68331009D01*
X99577443Y-68487534D01*
X99628963Y-68657373D01*
X99646359Y-68834000D01*
X99628963Y-69010627D01*
X99577443Y-69180466D01*
X99493778Y-69336991D01*
X99464448Y-69372729D01*
X99381186Y-69474186D01*
X99279729Y-69557448D01*
X99243991Y-69586778D01*
X99087466Y-69670443D01*
X98917627Y-69721963D01*
X98851443Y-69728481D01*
X98785260Y-69735000D01*
X98696740Y-69735000D01*
X98630557Y-69728481D01*
X98564373Y-69721963D01*
X98394534Y-69670443D01*
X98238009Y-69586778D01*
X98202271Y-69557448D01*
X98100814Y-69474186D01*
X98017552Y-69372729D01*
X97988222Y-69336991D01*
X97904557Y-69180466D01*
X97853037Y-69010627D01*
X97835641Y-68834000D01*
X97853037Y-68657373D01*
X97904557Y-68487534D01*
X97988222Y-68331009D01*
X98017552Y-68295271D01*
X98100814Y-68193814D01*
X98202271Y-68110552D01*
X98238009Y-68081222D01*
X98394534Y-67997557D01*
X98564373Y-67946037D01*
X98630558Y-67939518D01*
X98696740Y-67933000D01*
X98785260Y-67933000D01*
X98851442Y-67939518D01*
X98851442Y-67939518D01*
G37*
G36*
X96311442Y-67939518D02*
G01*
X96377627Y-67946037D01*
X96547466Y-67997557D01*
X96703991Y-68081222D01*
X96739729Y-68110552D01*
X96841186Y-68193814D01*
X96924448Y-68295271D01*
X96953778Y-68331009D01*
X97037443Y-68487534D01*
X97088963Y-68657373D01*
X97106359Y-68834000D01*
X97088963Y-69010627D01*
X97037443Y-69180466D01*
X96953778Y-69336991D01*
X96924448Y-69372729D01*
X96841186Y-69474186D01*
X96739729Y-69557448D01*
X96703991Y-69586778D01*
X96547466Y-69670443D01*
X96377627Y-69721963D01*
X96311443Y-69728481D01*
X96245260Y-69735000D01*
X96156740Y-69735000D01*
X96090557Y-69728481D01*
X96024373Y-69721963D01*
X95854534Y-69670443D01*
X95698009Y-69586778D01*
X95662271Y-69557448D01*
X95560814Y-69474186D01*
X95477552Y-69372729D01*
X95448222Y-69336991D01*
X95364557Y-69180466D01*
X95313037Y-69010627D01*
X95295641Y-68834000D01*
X95313037Y-68657373D01*
X95364557Y-68487534D01*
X95448222Y-68331009D01*
X95477552Y-68295271D01*
X95560814Y-68193814D01*
X95662271Y-68110552D01*
X95698009Y-68081222D01*
X95854534Y-67997557D01*
X96024373Y-67946037D01*
X96090558Y-67939518D01*
X96156740Y-67933000D01*
X96245260Y-67933000D01*
X96311442Y-67939518D01*
X96311442Y-67939518D01*
G37*
G36*
X93771442Y-67939518D02*
G01*
X93837627Y-67946037D01*
X94007466Y-67997557D01*
X94163991Y-68081222D01*
X94199729Y-68110552D01*
X94301186Y-68193814D01*
X94384448Y-68295271D01*
X94413778Y-68331009D01*
X94497443Y-68487534D01*
X94548963Y-68657373D01*
X94566359Y-68834000D01*
X94548963Y-69010627D01*
X94497443Y-69180466D01*
X94413778Y-69336991D01*
X94384448Y-69372729D01*
X94301186Y-69474186D01*
X94199729Y-69557448D01*
X94163991Y-69586778D01*
X94007466Y-69670443D01*
X93837627Y-69721963D01*
X93771443Y-69728481D01*
X93705260Y-69735000D01*
X93616740Y-69735000D01*
X93550557Y-69728481D01*
X93484373Y-69721963D01*
X93314534Y-69670443D01*
X93158009Y-69586778D01*
X93122271Y-69557448D01*
X93020814Y-69474186D01*
X92937552Y-69372729D01*
X92908222Y-69336991D01*
X92824557Y-69180466D01*
X92773037Y-69010627D01*
X92755641Y-68834000D01*
X92773037Y-68657373D01*
X92824557Y-68487534D01*
X92908222Y-68331009D01*
X92937552Y-68295271D01*
X93020814Y-68193814D01*
X93122271Y-68110552D01*
X93158009Y-68081222D01*
X93314534Y-67997557D01*
X93484373Y-67946037D01*
X93550558Y-67939518D01*
X93616740Y-67933000D01*
X93705260Y-67933000D01*
X93771442Y-67939518D01*
X93771442Y-67939518D01*
G37*
G36*
X91231442Y-67939518D02*
G01*
X91297627Y-67946037D01*
X91467466Y-67997557D01*
X91623991Y-68081222D01*
X91659729Y-68110552D01*
X91761186Y-68193814D01*
X91844448Y-68295271D01*
X91873778Y-68331009D01*
X91957443Y-68487534D01*
X92008963Y-68657373D01*
X92026359Y-68834000D01*
X92008963Y-69010627D01*
X91957443Y-69180466D01*
X91873778Y-69336991D01*
X91844448Y-69372729D01*
X91761186Y-69474186D01*
X91659729Y-69557448D01*
X91623991Y-69586778D01*
X91467466Y-69670443D01*
X91297627Y-69721963D01*
X91231443Y-69728481D01*
X91165260Y-69735000D01*
X91076740Y-69735000D01*
X91010557Y-69728481D01*
X90944373Y-69721963D01*
X90774534Y-69670443D01*
X90618009Y-69586778D01*
X90582271Y-69557448D01*
X90480814Y-69474186D01*
X90397552Y-69372729D01*
X90368222Y-69336991D01*
X90284557Y-69180466D01*
X90233037Y-69010627D01*
X90215641Y-68834000D01*
X90233037Y-68657373D01*
X90284557Y-68487534D01*
X90368222Y-68331009D01*
X90397552Y-68295271D01*
X90480814Y-68193814D01*
X90582271Y-68110552D01*
X90618009Y-68081222D01*
X90774534Y-67997557D01*
X90944373Y-67946037D01*
X91010558Y-67939518D01*
X91076740Y-67933000D01*
X91165260Y-67933000D01*
X91231442Y-67939518D01*
X91231442Y-67939518D01*
G37*
G36*
X88691442Y-67939518D02*
G01*
X88757627Y-67946037D01*
X88927466Y-67997557D01*
X89083991Y-68081222D01*
X89119729Y-68110552D01*
X89221186Y-68193814D01*
X89304448Y-68295271D01*
X89333778Y-68331009D01*
X89417443Y-68487534D01*
X89468963Y-68657373D01*
X89486359Y-68834000D01*
X89468963Y-69010627D01*
X89417443Y-69180466D01*
X89333778Y-69336991D01*
X89304448Y-69372729D01*
X89221186Y-69474186D01*
X89119729Y-69557448D01*
X89083991Y-69586778D01*
X88927466Y-69670443D01*
X88757627Y-69721963D01*
X88691443Y-69728481D01*
X88625260Y-69735000D01*
X88536740Y-69735000D01*
X88470557Y-69728481D01*
X88404373Y-69721963D01*
X88234534Y-69670443D01*
X88078009Y-69586778D01*
X88042271Y-69557448D01*
X87940814Y-69474186D01*
X87857552Y-69372729D01*
X87828222Y-69336991D01*
X87744557Y-69180466D01*
X87693037Y-69010627D01*
X87675641Y-68834000D01*
X87693037Y-68657373D01*
X87744557Y-68487534D01*
X87828222Y-68331009D01*
X87857552Y-68295271D01*
X87940814Y-68193814D01*
X88042271Y-68110552D01*
X88078009Y-68081222D01*
X88234534Y-67997557D01*
X88404373Y-67946037D01*
X88470558Y-67939518D01*
X88536740Y-67933000D01*
X88625260Y-67933000D01*
X88691442Y-67939518D01*
X88691442Y-67939518D01*
G37*
M02*
