G04 #@! TF.GenerationSoftware,KiCad,Pcbnew,(5.1.0-0)*
G04 #@! TF.CreationDate,2019-09-18T19:58:45-07:00*
G04 #@! TF.ProjectId,LEDRiser16,4c454452-6973-4657-9231-362e6b696361,rev?*
G04 #@! TF.SameCoordinates,Original*
G04 #@! TF.FileFunction,Copper,L2,Bot*
G04 #@! TF.FilePolarity,Positive*
%FSLAX46Y46*%
G04 Gerber Fmt 4.6, Leading zero omitted, Abs format (unit mm)*
G04 Created by KiCad (PCBNEW (5.1.0-0)) date 2019-09-18 19:58:45*
%MOMM*%
%LPD*%
G04 APERTURE LIST*
%ADD10O,1.600000X1.600000*%
%ADD11R,1.600000X1.600000*%
%ADD12R,2.032000X2.032000*%
%ADD13C,2.032000*%
%ADD14O,1.700000X1.700000*%
%ADD15R,1.700000X1.700000*%
%ADD16C,0.250000*%
G04 APERTURE END LIST*
D10*
X79756000Y-83058000D03*
X82296000Y-83058000D03*
X84836000Y-83058000D03*
X87376000Y-83058000D03*
X89916000Y-83058000D03*
X92456000Y-83058000D03*
X94996000Y-83058000D03*
X97536000Y-83058000D03*
D11*
X100076000Y-83058000D03*
D10*
X103632000Y-83058000D03*
X106172000Y-83058000D03*
X108712000Y-83058000D03*
X111252000Y-83058000D03*
X113792000Y-83058000D03*
X116332000Y-83058000D03*
X118872000Y-83058000D03*
X121412000Y-83058000D03*
D11*
X123952000Y-83058000D03*
D12*
X98298000Y-72136000D03*
D13*
X95758000Y-72136000D03*
X93218000Y-72136000D03*
X90678000Y-72136000D03*
X80518000Y-79756000D03*
X83058000Y-79756000D03*
X85598000Y-79756000D03*
X88138000Y-79756000D03*
X88138000Y-72136000D03*
X85598000Y-72136000D03*
X83058000Y-72136000D03*
X80518000Y-72136000D03*
X77978000Y-79756000D03*
X75438000Y-79756000D03*
X75438000Y-72136000D03*
X77978000Y-72136000D03*
X90678000Y-79756000D03*
X93218000Y-79756000D03*
X95758000Y-79756000D03*
X98298000Y-79756000D03*
X124206000Y-79756000D03*
X121666000Y-79756000D03*
X119126000Y-79756000D03*
X116586000Y-79756000D03*
X103886000Y-72136000D03*
X101346000Y-72136000D03*
X101346000Y-79756000D03*
X103886000Y-79756000D03*
X106426000Y-72136000D03*
X108966000Y-72136000D03*
X111506000Y-72136000D03*
X114046000Y-72136000D03*
X114046000Y-79756000D03*
X111506000Y-79756000D03*
X108966000Y-79756000D03*
X106426000Y-79756000D03*
X116586000Y-72136000D03*
X119126000Y-72136000D03*
X121666000Y-72136000D03*
D12*
X124206000Y-72136000D03*
D14*
X83501000Y-68834000D03*
X86041000Y-68834000D03*
X88581000Y-68834000D03*
X91121000Y-68834000D03*
X93661000Y-68834000D03*
X96201000Y-68834000D03*
X98741000Y-68834000D03*
X101281000Y-68834000D03*
X103821000Y-68834000D03*
X106361000Y-68834000D03*
X108901000Y-68834000D03*
X111441000Y-68834000D03*
X113981000Y-68834000D03*
X116521000Y-68834000D03*
X119061000Y-68834000D03*
X121601000Y-68834000D03*
D15*
X124141000Y-68834000D03*
D16*
X123952000Y-82008000D02*
X123952000Y-83058000D01*
X125547001Y-69140001D02*
X125547001Y-80412999D01*
X125241000Y-68834000D02*
X125547001Y-69140001D01*
X124141000Y-68834000D02*
X125241000Y-68834000D01*
X102413000Y-81771000D02*
X124189000Y-81771000D01*
X101126000Y-83058000D02*
X102413000Y-81771000D01*
X100076000Y-83058000D02*
X101126000Y-83058000D01*
X124189000Y-81771000D02*
X123952000Y-82008000D01*
X125547001Y-80412999D02*
X124189000Y-81771000D01*
M02*
