G04 #@! TF.GenerationSoftware,KiCad,Pcbnew,(5.1.0-0)*
G04 #@! TF.CreationDate,2019-12-24T12:01:03-08:00*
G04 #@! TF.ProjectId,SerialCard,53657269-616c-4436-9172-642e6b696361,rev?*
G04 #@! TF.SameCoordinates,Original*
G04 #@! TF.FileFunction,Copper,L4,Bot*
G04 #@! TF.FilePolarity,Positive*
%FSLAX46Y46*%
G04 Gerber Fmt 4.6, Leading zero omitted, Abs format (unit mm)*
G04 Created by KiCad (PCBNEW (5.1.0-0)) date 2019-12-24 12:01:03*
%MOMM*%
%LPD*%
G04 APERTURE LIST*
%ADD10O,1.700000X1.700000*%
%ADD11R,1.700000X1.700000*%
%ADD12O,1.600000X1.600000*%
%ADD13R,1.600000X1.600000*%
%ADD14C,1.600000*%
%ADD15C,0.450000*%
%ADD16C,0.127000*%
G04 APERTURE END LIST*
D10*
X64770000Y-133350000D03*
X64770000Y-130810000D03*
X67310000Y-133350000D03*
X67310000Y-130810000D03*
X69850000Y-133350000D03*
X69850000Y-130810000D03*
X72390000Y-133350000D03*
X72390000Y-130810000D03*
X74930000Y-133350000D03*
X74930000Y-130810000D03*
X77470000Y-133350000D03*
X77470000Y-130810000D03*
X80010000Y-133350000D03*
X80010000Y-130810000D03*
X82550000Y-133350000D03*
X82550000Y-130810000D03*
X85090000Y-133350000D03*
X85090000Y-130810000D03*
X87630000Y-133350000D03*
X87630000Y-130810000D03*
X90170000Y-133350000D03*
X90170000Y-130810000D03*
X92710000Y-133350000D03*
X92710000Y-130810000D03*
X95250000Y-133350000D03*
X95250000Y-130810000D03*
X97790000Y-133350000D03*
X97790000Y-130810000D03*
X100330000Y-133350000D03*
X100330000Y-130810000D03*
X102870000Y-133350000D03*
X102870000Y-130810000D03*
X105410000Y-133350000D03*
X105410000Y-130810000D03*
X107950000Y-133350000D03*
X107950000Y-130810000D03*
X110490000Y-133350000D03*
X110490000Y-130810000D03*
X113030000Y-133350000D03*
X113030000Y-130810000D03*
X115570000Y-133350000D03*
X115570000Y-130810000D03*
X118110000Y-133350000D03*
X118110000Y-130810000D03*
X120650000Y-133350000D03*
X120650000Y-130810000D03*
X123190000Y-133350000D03*
X123190000Y-130810000D03*
X125730000Y-133350000D03*
X125730000Y-130810000D03*
X128270000Y-133350000D03*
X128270000Y-130810000D03*
X130810000Y-133350000D03*
X130810000Y-130810000D03*
X133350000Y-133350000D03*
X133350000Y-130810000D03*
X135890000Y-133350000D03*
X135890000Y-130810000D03*
X138430000Y-133350000D03*
X138430000Y-130810000D03*
X140970000Y-133350000D03*
X140970000Y-130810000D03*
X143510000Y-133350000D03*
X143510000Y-130810000D03*
X146050000Y-133350000D03*
X146050000Y-130810000D03*
X148590000Y-133350000D03*
X148590000Y-130810000D03*
X151130000Y-133350000D03*
X151130000Y-130810000D03*
X153670000Y-133350000D03*
X153670000Y-130810000D03*
X156210000Y-133350000D03*
X156210000Y-130810000D03*
X158750000Y-133350000D03*
X158750000Y-130810000D03*
X161290000Y-133350000D03*
X161290000Y-130810000D03*
X163830000Y-133350000D03*
D11*
X163830000Y-130810000D03*
D12*
X111760000Y-101600000D03*
X104140000Y-124460000D03*
X111760000Y-104140000D03*
X104140000Y-121920000D03*
X111760000Y-106680000D03*
X104140000Y-119380000D03*
X111760000Y-109220000D03*
X104140000Y-116840000D03*
X111760000Y-111760000D03*
X104140000Y-114300000D03*
X111760000Y-114300000D03*
X104140000Y-111760000D03*
X111760000Y-116840000D03*
X104140000Y-109220000D03*
X111760000Y-119380000D03*
X104140000Y-106680000D03*
X111760000Y-121920000D03*
X104140000Y-104140000D03*
X111760000Y-124460000D03*
D13*
X104140000Y-101600000D03*
D12*
X88900000Y-101600000D03*
X81280000Y-124460000D03*
X88900000Y-104140000D03*
X81280000Y-121920000D03*
X88900000Y-106680000D03*
X81280000Y-119380000D03*
X88900000Y-109220000D03*
X81280000Y-116840000D03*
X88900000Y-111760000D03*
X81280000Y-114300000D03*
X88900000Y-114300000D03*
X81280000Y-111760000D03*
X88900000Y-116840000D03*
X81280000Y-109220000D03*
X88900000Y-119380000D03*
X81280000Y-106680000D03*
X88900000Y-121920000D03*
X81280000Y-104140000D03*
X88900000Y-124460000D03*
D13*
X81280000Y-101600000D03*
D12*
X100330000Y-101600000D03*
X92710000Y-124460000D03*
X100330000Y-104140000D03*
X92710000Y-121920000D03*
X100330000Y-106680000D03*
X92710000Y-119380000D03*
X100330000Y-109220000D03*
X92710000Y-116840000D03*
X100330000Y-111760000D03*
X92710000Y-114300000D03*
X100330000Y-114300000D03*
X92710000Y-111760000D03*
X100330000Y-116840000D03*
X92710000Y-109220000D03*
X100330000Y-119380000D03*
X92710000Y-106680000D03*
X100330000Y-121920000D03*
X92710000Y-104140000D03*
X100330000Y-124460000D03*
D13*
X92710000Y-101600000D03*
D12*
X77470000Y-101600000D03*
X69850000Y-119380000D03*
X77470000Y-104140000D03*
X69850000Y-116840000D03*
X77470000Y-106680000D03*
X69850000Y-114300000D03*
X77470000Y-109220000D03*
X69850000Y-111760000D03*
X77470000Y-111760000D03*
X69850000Y-109220000D03*
X77470000Y-114300000D03*
X69850000Y-106680000D03*
X77470000Y-116840000D03*
X69850000Y-104140000D03*
X77470000Y-119380000D03*
D13*
X69850000Y-101600000D03*
D14*
X156940000Y-124460000D03*
D13*
X154940000Y-124460000D03*
D14*
X71200000Y-95250000D03*
X76200000Y-95250000D03*
X105490000Y-95250000D03*
X110490000Y-95250000D03*
X93980000Y-95250000D03*
X98980000Y-95250000D03*
X82550000Y-95250000D03*
X87550000Y-95250000D03*
D12*
X158750000Y-101600000D03*
X158750000Y-116840000D03*
X123190000Y-101600000D03*
X156210000Y-116840000D03*
X125730000Y-101600000D03*
X153670000Y-116840000D03*
X128270000Y-101600000D03*
X151130000Y-116840000D03*
X130810000Y-101600000D03*
X148590000Y-116840000D03*
X133350000Y-101600000D03*
X146050000Y-116840000D03*
X135890000Y-101600000D03*
X143510000Y-116840000D03*
X138430000Y-101600000D03*
X140970000Y-116840000D03*
X140970000Y-101600000D03*
X138430000Y-116840000D03*
X143510000Y-101600000D03*
X135890000Y-116840000D03*
X146050000Y-101600000D03*
X133350000Y-116840000D03*
X148590000Y-101600000D03*
X130810000Y-116840000D03*
X151130000Y-101600000D03*
X128270000Y-116840000D03*
X153670000Y-101600000D03*
X125730000Y-116840000D03*
X156210000Y-101600000D03*
D13*
X123190000Y-116840000D03*
D15*
X158750000Y-108204000D03*
X159165500Y-105664000D03*
X156210000Y-105273999D03*
X101727000Y-107813999D03*
X153670000Y-107696000D03*
X101854000Y-117602000D03*
X101346000Y-117973999D03*
X146050000Y-122936000D03*
X143510000Y-123351500D03*
X140970000Y-112868500D03*
X105537000Y-102616000D03*
X138430000Y-110353999D03*
X105952500Y-103132086D03*
X105952500Y-119380000D03*
X95250000Y-115433999D03*
X95250000Y-104140000D03*
X106540639Y-103285500D03*
X106553000Y-116840000D03*
X133350000Y-105019989D03*
X148590000Y-113284000D03*
X151130000Y-110744000D03*
X79037503Y-102616000D03*
X77470000Y-126399500D03*
X128270000Y-126365000D03*
X106956139Y-106680000D03*
X106959489Y-107813999D03*
X139827000Y-106680000D03*
X103124000Y-125984000D03*
X76073000Y-125984000D03*
X70993000Y-126873000D03*
X123190000Y-126873000D03*
X98840500Y-118364000D03*
X127000000Y-119380000D03*
X98425000Y-119380000D03*
X98425000Y-115062000D03*
X132080000Y-114300000D03*
X94361000Y-116840000D03*
X94361000Y-110617000D03*
X137160000Y-109220000D03*
X94361000Y-102733999D03*
X142240000Y-104140000D03*
X80674573Y-125568500D03*
X98044000Y-121031000D03*
X124460000Y-121920000D03*
X129540000Y-115824000D03*
X94776500Y-112776000D03*
X94742000Y-119380000D03*
X134620000Y-111760000D03*
D16*
X158750000Y-108204000D02*
X158750000Y-101600000D01*
X159165500Y-105664000D02*
X159165500Y-115154500D01*
X158750000Y-115570000D02*
X158750000Y-116840000D01*
X159165500Y-115154500D02*
X158750000Y-115570000D01*
X156210000Y-105273999D02*
X156210000Y-105664000D01*
X156210000Y-105664000D02*
X156210000Y-116840000D01*
X156210000Y-105156000D02*
X156210000Y-105664000D01*
X101727000Y-105537000D02*
X101727000Y-107813999D01*
X100330000Y-104140000D02*
X101727000Y-105537000D01*
X153670000Y-107696000D02*
X153670000Y-116840000D01*
X101854000Y-113284000D02*
X101854000Y-117602000D01*
X100330000Y-111760000D02*
X101854000Y-113284000D01*
X101320501Y-117948500D02*
X101346000Y-117973999D01*
X101320501Y-115290501D02*
X101320501Y-117948500D01*
X100330000Y-114300000D02*
X101320501Y-115290501D01*
X146050000Y-122936000D02*
X146050000Y-116840000D01*
X143510000Y-123351500D02*
X143510000Y-116840000D01*
X140970000Y-112868500D02*
X140970000Y-116840000D01*
X105537000Y-120523000D02*
X104140000Y-121920000D01*
X105537000Y-102616000D02*
X105537000Y-120523000D01*
X138430000Y-110353999D02*
X138430000Y-116840000D01*
X105952500Y-103132086D02*
X105952500Y-119380000D01*
X95250000Y-115433999D02*
X95250000Y-104140000D01*
X106540639Y-103285500D02*
X106540639Y-109588639D01*
X106553000Y-109601000D02*
X106553000Y-116840000D01*
X106540639Y-109588639D02*
X106553000Y-109601000D01*
X133350000Y-105019989D02*
X133350000Y-116840000D01*
X148590000Y-113284000D02*
X148590000Y-101600000D01*
X151130000Y-101600000D02*
X151130000Y-110363000D01*
X151130000Y-110363000D02*
X151130000Y-110744000D01*
X78486000Y-104140000D02*
X77470000Y-104140000D01*
X78622003Y-104003997D02*
X78549500Y-104076500D01*
X78549500Y-104076500D02*
X78613000Y-104013000D01*
X78486000Y-104140000D02*
X78549500Y-104076500D01*
X81280000Y-101600000D02*
X78758006Y-101600000D01*
X78622003Y-101736003D02*
X78622003Y-104003997D01*
X78758006Y-101600000D02*
X78622003Y-101736003D01*
X79037503Y-102616000D02*
X79037503Y-106509497D01*
X78867000Y-106680000D02*
X77470000Y-106680000D01*
X79037503Y-106509497D02*
X78867000Y-106680000D01*
X128270000Y-101600000D02*
X128270000Y-116840000D01*
X77470000Y-130810000D02*
X77470000Y-126399500D01*
X128270000Y-126365000D02*
X128270000Y-116840000D01*
X106956139Y-107810649D02*
X106959489Y-107813999D01*
X106956139Y-106680000D02*
X106956139Y-107810649D01*
X139827000Y-132207000D02*
X140970000Y-133350000D01*
X139827000Y-106680000D02*
X139827000Y-132207000D01*
X69050001Y-112559999D02*
X69850000Y-111760000D01*
X68809499Y-112800501D02*
X69050001Y-112559999D01*
X68809499Y-132309499D02*
X68809499Y-112800501D01*
X69850000Y-133350000D02*
X68809499Y-132309499D01*
X69850000Y-110628630D02*
X69850000Y-109220000D01*
X69850000Y-111760000D02*
X69850000Y-110628630D01*
X103124000Y-103543000D02*
X103124000Y-125984000D01*
X104140000Y-102527000D02*
X103124000Y-103543000D01*
X104140000Y-101600000D02*
X104140000Y-102527000D01*
X75970501Y-132309499D02*
X75970501Y-126262501D01*
X74930000Y-133350000D02*
X75970501Y-132309499D01*
X76073000Y-126160002D02*
X76073000Y-125984000D01*
X75970501Y-126262501D02*
X76073000Y-126160002D01*
X69850000Y-102527000D02*
X70993000Y-103670000D01*
X70993000Y-103670000D02*
X70993000Y-126873000D01*
X69850000Y-101600000D02*
X69850000Y-102527000D01*
X123190000Y-126873000D02*
X123190000Y-130810000D01*
X98840500Y-110709500D02*
X100330000Y-109220000D01*
X98840500Y-118364000D02*
X98840500Y-110709500D01*
X127000000Y-129540000D02*
X128270000Y-130810000D01*
X127000000Y-119380000D02*
X127000000Y-129540000D01*
X98425000Y-115062000D02*
X98425000Y-115697000D01*
X98425000Y-115697000D02*
X98425000Y-119380000D01*
X98425000Y-115316000D02*
X98425000Y-115697000D01*
X132080000Y-129540000D02*
X133350000Y-130810000D01*
X132080000Y-114300000D02*
X132080000Y-129540000D01*
X94361000Y-110617000D02*
X94361000Y-116840000D01*
X137160000Y-129540000D02*
X138430000Y-130810000D01*
X137160000Y-109220000D02*
X137160000Y-129540000D01*
X94234000Y-106680000D02*
X92710000Y-106680000D01*
X94361000Y-106553000D02*
X94234000Y-106680000D01*
X94361000Y-102733999D02*
X94361000Y-106553000D01*
X142240000Y-129540000D02*
X143510000Y-130810000D01*
X142240000Y-104140000D02*
X142240000Y-129540000D01*
X80859999Y-132500001D02*
X80010000Y-133350000D01*
X81050501Y-132309499D02*
X80859999Y-132500001D01*
X81050501Y-125944428D02*
X81050501Y-132309499D01*
X80674573Y-125568500D02*
X81050501Y-125944428D01*
X99530001Y-107479999D02*
X100330000Y-106680000D01*
X98009499Y-109000501D02*
X99530001Y-107479999D01*
X98009499Y-120678301D02*
X98009499Y-109000501D01*
X98044000Y-120712802D02*
X98009499Y-120678301D01*
X98044000Y-121031000D02*
X98044000Y-120712802D01*
X124460000Y-132080000D02*
X125730000Y-133350000D01*
X124460000Y-121920000D02*
X124460000Y-132080000D01*
X129960001Y-132500001D02*
X130810000Y-133350000D01*
X129769499Y-116053499D02*
X129769499Y-132309499D01*
X129769499Y-132309499D02*
X129960001Y-132500001D01*
X129540000Y-115824000D02*
X129769499Y-116053499D01*
X94776500Y-119345500D02*
X94742000Y-119380000D01*
X94776500Y-112776000D02*
X94776500Y-119345500D01*
X134849499Y-132309499D02*
X135040001Y-132500001D01*
X134849499Y-111989499D02*
X134849499Y-132309499D01*
X135040001Y-132500001D02*
X135890000Y-133350000D01*
X134620000Y-111760000D02*
X134849499Y-111989499D01*
M02*
