G04 #@! TF.GenerationSoftware,KiCad,Pcbnew,(5.1.0-0)*
G04 #@! TF.CreationDate,2019-12-31T10:13:30-08:00*
G04 #@! TF.ProjectId,SerialCard,53657269-616c-4436-9172-642e6b696361,rev?*
G04 #@! TF.SameCoordinates,Original*
G04 #@! TF.FileFunction,Legend,Top*
G04 #@! TF.FilePolarity,Positive*
%FSLAX46Y46*%
G04 Gerber Fmt 4.6, Leading zero omitted, Abs format (unit mm)*
G04 Created by KiCad (PCBNEW (5.1.0-0)) date 2019-12-31 10:13:30*
%MOMM*%
%LPD*%
G04 APERTURE LIST*
%ADD10C,0.150000*%
%ADD11C,0.300000*%
%ADD12C,0.120000*%
G04 APERTURE END LIST*
D10*
X73112380Y-115109047D02*
X73826666Y-115109047D01*
X73969523Y-115156666D01*
X74064761Y-115251904D01*
X74112380Y-115394761D01*
X74112380Y-115490000D01*
X74112380Y-114156666D02*
X74112380Y-114632857D01*
X73112380Y-114632857D01*
X74017142Y-113251904D02*
X74064761Y-113299523D01*
X74112380Y-113442380D01*
X74112380Y-113537619D01*
X74064761Y-113680476D01*
X73969523Y-113775714D01*
X73874285Y-113823333D01*
X73683809Y-113870952D01*
X73540952Y-113870952D01*
X73350476Y-113823333D01*
X73255238Y-113775714D01*
X73160000Y-113680476D01*
X73112380Y-113537619D01*
X73112380Y-113442380D01*
X73160000Y-113299523D01*
X73207619Y-113251904D01*
X73112380Y-112537619D02*
X73826666Y-112537619D01*
X73969523Y-112585238D01*
X74064761Y-112680476D01*
X74112380Y-112823333D01*
X74112380Y-112918571D01*
X74112380Y-111585238D02*
X74112380Y-112061428D01*
X73112380Y-112061428D01*
X74017142Y-110680476D02*
X74064761Y-110728095D01*
X74112380Y-110870952D01*
X74112380Y-110966190D01*
X74064761Y-111109047D01*
X73969523Y-111204285D01*
X73874285Y-111251904D01*
X73683809Y-111299523D01*
X73540952Y-111299523D01*
X73350476Y-111251904D01*
X73255238Y-111204285D01*
X73160000Y-111109047D01*
X73112380Y-110966190D01*
X73112380Y-110870952D01*
X73160000Y-110728095D01*
X73207619Y-110680476D01*
X73112380Y-109966190D02*
X73826666Y-109966190D01*
X73969523Y-110013809D01*
X74064761Y-110109047D01*
X74112380Y-110251904D01*
X74112380Y-110347142D01*
X74112380Y-109013809D02*
X74112380Y-109490000D01*
X73112380Y-109490000D01*
X74017142Y-108109047D02*
X74064761Y-108156666D01*
X74112380Y-108299523D01*
X74112380Y-108394761D01*
X74064761Y-108537619D01*
X73969523Y-108632857D01*
X73874285Y-108680476D01*
X73683809Y-108728095D01*
X73540952Y-108728095D01*
X73350476Y-108680476D01*
X73255238Y-108632857D01*
X73160000Y-108537619D01*
X73112380Y-108394761D01*
X73112380Y-108299523D01*
X73160000Y-108156666D01*
X73207619Y-108109047D01*
X73112380Y-107394761D02*
X73826666Y-107394761D01*
X73969523Y-107442380D01*
X74064761Y-107537619D01*
X74112380Y-107680476D01*
X74112380Y-107775714D01*
X74112380Y-106442380D02*
X74112380Y-106918571D01*
X73112380Y-106918571D01*
X74017142Y-105537619D02*
X74064761Y-105585238D01*
X74112380Y-105728095D01*
X74112380Y-105823333D01*
X74064761Y-105966190D01*
X73969523Y-106061428D01*
X73874285Y-106109047D01*
X73683809Y-106156666D01*
X73540952Y-106156666D01*
X73350476Y-106109047D01*
X73255238Y-106061428D01*
X73160000Y-105966190D01*
X73112380Y-105823333D01*
X73112380Y-105728095D01*
X73160000Y-105585238D01*
X73207619Y-105537619D01*
D11*
X117164285Y-93317142D02*
X117378571Y-93388571D01*
X117735714Y-93388571D01*
X117878571Y-93317142D01*
X117950000Y-93245714D01*
X118021428Y-93102857D01*
X118021428Y-92960000D01*
X117950000Y-92817142D01*
X117878571Y-92745714D01*
X117735714Y-92674285D01*
X117450000Y-92602857D01*
X117307142Y-92531428D01*
X117235714Y-92460000D01*
X117164285Y-92317142D01*
X117164285Y-92174285D01*
X117235714Y-92031428D01*
X117307142Y-91960000D01*
X117450000Y-91888571D01*
X117807142Y-91888571D01*
X118021428Y-91960000D01*
X119235714Y-93317142D02*
X119092857Y-93388571D01*
X118807142Y-93388571D01*
X118664285Y-93317142D01*
X118592857Y-93174285D01*
X118592857Y-92602857D01*
X118664285Y-92460000D01*
X118807142Y-92388571D01*
X119092857Y-92388571D01*
X119235714Y-92460000D01*
X119307142Y-92602857D01*
X119307142Y-92745714D01*
X118592857Y-92888571D01*
X119950000Y-93388571D02*
X119950000Y-92388571D01*
X119950000Y-92674285D02*
X120021428Y-92531428D01*
X120092857Y-92460000D01*
X120235714Y-92388571D01*
X120378571Y-92388571D01*
X120878571Y-93388571D02*
X120878571Y-92388571D01*
X120878571Y-91888571D02*
X120807142Y-91960000D01*
X120878571Y-92031428D01*
X120950000Y-91960000D01*
X120878571Y-91888571D01*
X120878571Y-92031428D01*
X122235714Y-93388571D02*
X122235714Y-92602857D01*
X122164285Y-92460000D01*
X122021428Y-92388571D01*
X121735714Y-92388571D01*
X121592857Y-92460000D01*
X122235714Y-93317142D02*
X122092857Y-93388571D01*
X121735714Y-93388571D01*
X121592857Y-93317142D01*
X121521428Y-93174285D01*
X121521428Y-93031428D01*
X121592857Y-92888571D01*
X121735714Y-92817142D01*
X122092857Y-92817142D01*
X122235714Y-92745714D01*
X123164285Y-93388571D02*
X123021428Y-93317142D01*
X122950000Y-93174285D01*
X122950000Y-91888571D01*
X125735714Y-93245714D02*
X125664285Y-93317142D01*
X125450000Y-93388571D01*
X125307142Y-93388571D01*
X125092857Y-93317142D01*
X124950000Y-93174285D01*
X124878571Y-93031428D01*
X124807142Y-92745714D01*
X124807142Y-92531428D01*
X124878571Y-92245714D01*
X124950000Y-92102857D01*
X125092857Y-91960000D01*
X125307142Y-91888571D01*
X125450000Y-91888571D01*
X125664285Y-91960000D01*
X125735714Y-92031428D01*
X127021428Y-93388571D02*
X127021428Y-92602857D01*
X126950000Y-92460000D01*
X126807142Y-92388571D01*
X126521428Y-92388571D01*
X126378571Y-92460000D01*
X127021428Y-93317142D02*
X126878571Y-93388571D01*
X126521428Y-93388571D01*
X126378571Y-93317142D01*
X126307142Y-93174285D01*
X126307142Y-93031428D01*
X126378571Y-92888571D01*
X126521428Y-92817142D01*
X126878571Y-92817142D01*
X127021428Y-92745714D01*
X127735714Y-93388571D02*
X127735714Y-92388571D01*
X127735714Y-92674285D02*
X127807142Y-92531428D01*
X127878571Y-92460000D01*
X128021428Y-92388571D01*
X128164285Y-92388571D01*
X129307142Y-93388571D02*
X129307142Y-91888571D01*
X129307142Y-93317142D02*
X129164285Y-93388571D01*
X128878571Y-93388571D01*
X128735714Y-93317142D01*
X128664285Y-93245714D01*
X128592857Y-93102857D01*
X128592857Y-92674285D01*
X128664285Y-92531428D01*
X128735714Y-92460000D01*
X128878571Y-92388571D01*
X129164285Y-92388571D01*
X129307142Y-92460000D01*
X132378571Y-92245714D02*
X132235714Y-92174285D01*
X131950000Y-92174285D01*
X131807142Y-92245714D01*
X131664285Y-92388571D01*
X131592857Y-92531428D01*
X131592857Y-92817142D01*
X131664285Y-92960000D01*
X131807142Y-93102857D01*
X131950000Y-93174285D01*
X132235714Y-93174285D01*
X132378571Y-93102857D01*
X132092857Y-91674285D02*
X131735714Y-91745714D01*
X131378571Y-91960000D01*
X131164285Y-92317142D01*
X131092857Y-92674285D01*
X131164285Y-93031428D01*
X131378571Y-93388571D01*
X131735714Y-93602857D01*
X132092857Y-93674285D01*
X132450000Y-93602857D01*
X132807142Y-93388571D01*
X133021428Y-93031428D01*
X133092857Y-92674285D01*
X133021428Y-92317142D01*
X132807142Y-91960000D01*
X132450000Y-91745714D01*
X132092857Y-91674285D01*
X134807142Y-92031428D02*
X134878571Y-91960000D01*
X135021428Y-91888571D01*
X135378571Y-91888571D01*
X135521428Y-91960000D01*
X135592857Y-92031428D01*
X135664285Y-92174285D01*
X135664285Y-92317142D01*
X135592857Y-92531428D01*
X134735714Y-93388571D01*
X135664285Y-93388571D01*
X136592857Y-91888571D02*
X136735714Y-91888571D01*
X136878571Y-91960000D01*
X136950000Y-92031428D01*
X137021428Y-92174285D01*
X137092857Y-92460000D01*
X137092857Y-92817142D01*
X137021428Y-93102857D01*
X136950000Y-93245714D01*
X136878571Y-93317142D01*
X136735714Y-93388571D01*
X136592857Y-93388571D01*
X136450000Y-93317142D01*
X136378571Y-93245714D01*
X136307142Y-93102857D01*
X136235714Y-92817142D01*
X136235714Y-92460000D01*
X136307142Y-92174285D01*
X136378571Y-92031428D01*
X136450000Y-91960000D01*
X136592857Y-91888571D01*
X138521428Y-93388571D02*
X137664285Y-93388571D01*
X138092857Y-93388571D02*
X138092857Y-91888571D01*
X137950000Y-92102857D01*
X137807142Y-92245714D01*
X137664285Y-92317142D01*
X139235714Y-93388571D02*
X139521428Y-93388571D01*
X139664285Y-93317142D01*
X139735714Y-93245714D01*
X139878571Y-93031428D01*
X139950000Y-92745714D01*
X139950000Y-92174285D01*
X139878571Y-92031428D01*
X139807142Y-91960000D01*
X139664285Y-91888571D01*
X139378571Y-91888571D01*
X139235714Y-91960000D01*
X139164285Y-92031428D01*
X139092857Y-92174285D01*
X139092857Y-92531428D01*
X139164285Y-92674285D01*
X139235714Y-92745714D01*
X139378571Y-92817142D01*
X139664285Y-92817142D01*
X139807142Y-92745714D01*
X139878571Y-92674285D01*
X139950000Y-92531428D01*
X141664285Y-92960000D02*
X142378571Y-92960000D01*
X141521428Y-93388571D02*
X142021428Y-91888571D01*
X142521428Y-93388571D01*
X143021428Y-92388571D02*
X143021428Y-93388571D01*
X143021428Y-92531428D02*
X143092857Y-92460000D01*
X143235714Y-92388571D01*
X143450000Y-92388571D01*
X143592857Y-92460000D01*
X143664285Y-92602857D01*
X143664285Y-93388571D01*
X145021428Y-93388571D02*
X145021428Y-91888571D01*
X145021428Y-93317142D02*
X144878571Y-93388571D01*
X144592857Y-93388571D01*
X144450000Y-93317142D01*
X144378571Y-93245714D01*
X144307142Y-93102857D01*
X144307142Y-92674285D01*
X144378571Y-92531428D01*
X144450000Y-92460000D01*
X144592857Y-92388571D01*
X144878571Y-92388571D01*
X145021428Y-92460000D01*
X145735714Y-93388571D02*
X145735714Y-92388571D01*
X145735714Y-92674285D02*
X145807142Y-92531428D01*
X145878571Y-92460000D01*
X146021428Y-92388571D01*
X146164285Y-92388571D01*
X147235714Y-93317142D02*
X147092857Y-93388571D01*
X146807142Y-93388571D01*
X146664285Y-93317142D01*
X146592857Y-93174285D01*
X146592857Y-92602857D01*
X146664285Y-92460000D01*
X146807142Y-92388571D01*
X147092857Y-92388571D01*
X147235714Y-92460000D01*
X147307142Y-92602857D01*
X147307142Y-92745714D01*
X146592857Y-92888571D01*
X147807142Y-92388571D02*
X148092857Y-93388571D01*
X148378571Y-92674285D01*
X148664285Y-93388571D01*
X148950000Y-92388571D01*
X151164285Y-92602857D02*
X150664285Y-92602857D01*
X150664285Y-93388571D02*
X150664285Y-91888571D01*
X151378571Y-91888571D01*
X152164285Y-93388571D02*
X152021428Y-93317142D01*
X151950000Y-93245714D01*
X151878571Y-93102857D01*
X151878571Y-92674285D01*
X151950000Y-92531428D01*
X152021428Y-92460000D01*
X152164285Y-92388571D01*
X152378571Y-92388571D01*
X152521428Y-92460000D01*
X152592857Y-92531428D01*
X152664285Y-92674285D01*
X152664285Y-93102857D01*
X152592857Y-93245714D01*
X152521428Y-93317142D01*
X152378571Y-93388571D01*
X152164285Y-93388571D01*
X153164285Y-93388571D02*
X153950000Y-92388571D01*
X153164285Y-92388571D02*
X153950000Y-93388571D01*
X154592857Y-93317142D02*
X154592857Y-93388571D01*
X154521428Y-93531428D01*
X154450000Y-93602857D01*
X157235714Y-93388571D02*
X156735714Y-92674285D01*
X156378571Y-93388571D02*
X156378571Y-91888571D01*
X156950000Y-91888571D01*
X157092857Y-91960000D01*
X157164285Y-92031428D01*
X157235714Y-92174285D01*
X157235714Y-92388571D01*
X157164285Y-92531428D01*
X157092857Y-92602857D01*
X156950000Y-92674285D01*
X156378571Y-92674285D01*
X158450000Y-93317142D02*
X158307142Y-93388571D01*
X158021428Y-93388571D01*
X157878571Y-93317142D01*
X157807142Y-93174285D01*
X157807142Y-92602857D01*
X157878571Y-92460000D01*
X158021428Y-92388571D01*
X158307142Y-92388571D01*
X158450000Y-92460000D01*
X158521428Y-92602857D01*
X158521428Y-92745714D01*
X157807142Y-92888571D01*
X159021428Y-92388571D02*
X159378571Y-93388571D01*
X159735714Y-92388571D01*
X162092857Y-92388571D02*
X162092857Y-93388571D01*
X161735714Y-91817142D02*
X161378571Y-92888571D01*
X162307142Y-92888571D01*
D12*
X165100000Y-129540000D02*
X165100000Y-130810000D01*
X163830000Y-129540000D02*
X165100000Y-129540000D01*
X64390000Y-131852929D02*
X64390000Y-132307071D01*
X65150000Y-131852929D02*
X65150000Y-132307071D01*
X64390000Y-134392929D02*
X64390000Y-134790000D01*
X65150000Y-134392929D02*
X65150000Y-134790000D01*
X64390000Y-143450000D02*
X64390000Y-137450000D01*
X65150000Y-143450000D02*
X64390000Y-143450000D01*
X65150000Y-137450000D02*
X65150000Y-143450000D01*
X66040000Y-134790000D02*
X66040000Y-137450000D01*
X66930000Y-131852929D02*
X66930000Y-132307071D01*
X67690000Y-131852929D02*
X67690000Y-132307071D01*
X66930000Y-134392929D02*
X66930000Y-134790000D01*
X67690000Y-134392929D02*
X67690000Y-134790000D01*
X66930000Y-143450000D02*
X66930000Y-137450000D01*
X67690000Y-143450000D02*
X66930000Y-143450000D01*
X67690000Y-137450000D02*
X67690000Y-143450000D01*
X68580000Y-134790000D02*
X68580000Y-137450000D01*
X69470000Y-131852929D02*
X69470000Y-132307071D01*
X70230000Y-131852929D02*
X70230000Y-132307071D01*
X69470000Y-134392929D02*
X69470000Y-134790000D01*
X70230000Y-134392929D02*
X70230000Y-134790000D01*
X69470000Y-143450000D02*
X69470000Y-137450000D01*
X70230000Y-143450000D02*
X69470000Y-143450000D01*
X70230000Y-137450000D02*
X70230000Y-143450000D01*
X71120000Y-134790000D02*
X71120000Y-137450000D01*
X72010000Y-131852929D02*
X72010000Y-132307071D01*
X72770000Y-131852929D02*
X72770000Y-132307071D01*
X72010000Y-134392929D02*
X72010000Y-134790000D01*
X72770000Y-134392929D02*
X72770000Y-134790000D01*
X72010000Y-143450000D02*
X72010000Y-137450000D01*
X72770000Y-143450000D02*
X72010000Y-143450000D01*
X72770000Y-137450000D02*
X72770000Y-143450000D01*
X73660000Y-134790000D02*
X73660000Y-137450000D01*
X74550000Y-131852929D02*
X74550000Y-132307071D01*
X75310000Y-131852929D02*
X75310000Y-132307071D01*
X74550000Y-134392929D02*
X74550000Y-134790000D01*
X75310000Y-134392929D02*
X75310000Y-134790000D01*
X74550000Y-143450000D02*
X74550000Y-137450000D01*
X75310000Y-143450000D02*
X74550000Y-143450000D01*
X75310000Y-137450000D02*
X75310000Y-143450000D01*
X76200000Y-134790000D02*
X76200000Y-137450000D01*
X77090000Y-131852929D02*
X77090000Y-132307071D01*
X77850000Y-131852929D02*
X77850000Y-132307071D01*
X77090000Y-134392929D02*
X77090000Y-134790000D01*
X77850000Y-134392929D02*
X77850000Y-134790000D01*
X77090000Y-143450000D02*
X77090000Y-137450000D01*
X77850000Y-143450000D02*
X77090000Y-143450000D01*
X77850000Y-137450000D02*
X77850000Y-143450000D01*
X78740000Y-134790000D02*
X78740000Y-137450000D01*
X79630000Y-131852929D02*
X79630000Y-132307071D01*
X80390000Y-131852929D02*
X80390000Y-132307071D01*
X79630000Y-134392929D02*
X79630000Y-134790000D01*
X80390000Y-134392929D02*
X80390000Y-134790000D01*
X79630000Y-143450000D02*
X79630000Y-137450000D01*
X80390000Y-143450000D02*
X79630000Y-143450000D01*
X80390000Y-137450000D02*
X80390000Y-143450000D01*
X81280000Y-134790000D02*
X81280000Y-137450000D01*
X82170000Y-131852929D02*
X82170000Y-132307071D01*
X82930000Y-131852929D02*
X82930000Y-132307071D01*
X82170000Y-134392929D02*
X82170000Y-134790000D01*
X82930000Y-134392929D02*
X82930000Y-134790000D01*
X82170000Y-143450000D02*
X82170000Y-137450000D01*
X82930000Y-143450000D02*
X82170000Y-143450000D01*
X82930000Y-137450000D02*
X82930000Y-143450000D01*
X83820000Y-134790000D02*
X83820000Y-137450000D01*
X84710000Y-131852929D02*
X84710000Y-132307071D01*
X85470000Y-131852929D02*
X85470000Y-132307071D01*
X84710000Y-134392929D02*
X84710000Y-134790000D01*
X85470000Y-134392929D02*
X85470000Y-134790000D01*
X84710000Y-143450000D02*
X84710000Y-137450000D01*
X85470000Y-143450000D02*
X84710000Y-143450000D01*
X85470000Y-137450000D02*
X85470000Y-143450000D01*
X86360000Y-134790000D02*
X86360000Y-137450000D01*
X87250000Y-131852929D02*
X87250000Y-132307071D01*
X88010000Y-131852929D02*
X88010000Y-132307071D01*
X87250000Y-134392929D02*
X87250000Y-134790000D01*
X88010000Y-134392929D02*
X88010000Y-134790000D01*
X87250000Y-143450000D02*
X87250000Y-137450000D01*
X88010000Y-143450000D02*
X87250000Y-143450000D01*
X88010000Y-137450000D02*
X88010000Y-143450000D01*
X88900000Y-134790000D02*
X88900000Y-137450000D01*
X89790000Y-131852929D02*
X89790000Y-132307071D01*
X90550000Y-131852929D02*
X90550000Y-132307071D01*
X89790000Y-134392929D02*
X89790000Y-134790000D01*
X90550000Y-134392929D02*
X90550000Y-134790000D01*
X89790000Y-143450000D02*
X89790000Y-137450000D01*
X90550000Y-143450000D02*
X89790000Y-143450000D01*
X90550000Y-137450000D02*
X90550000Y-143450000D01*
X91440000Y-134790000D02*
X91440000Y-137450000D01*
X92330000Y-131852929D02*
X92330000Y-132307071D01*
X93090000Y-131852929D02*
X93090000Y-132307071D01*
X92330000Y-134392929D02*
X92330000Y-134790000D01*
X93090000Y-134392929D02*
X93090000Y-134790000D01*
X92330000Y-143450000D02*
X92330000Y-137450000D01*
X93090000Y-143450000D02*
X92330000Y-143450000D01*
X93090000Y-137450000D02*
X93090000Y-143450000D01*
X93980000Y-134790000D02*
X93980000Y-137450000D01*
X94870000Y-131852929D02*
X94870000Y-132307071D01*
X95630000Y-131852929D02*
X95630000Y-132307071D01*
X94870000Y-134392929D02*
X94870000Y-134790000D01*
X95630000Y-134392929D02*
X95630000Y-134790000D01*
X94870000Y-143450000D02*
X94870000Y-137450000D01*
X95630000Y-143450000D02*
X94870000Y-143450000D01*
X95630000Y-137450000D02*
X95630000Y-143450000D01*
X96520000Y-134790000D02*
X96520000Y-137450000D01*
X97410000Y-131852929D02*
X97410000Y-132307071D01*
X98170000Y-131852929D02*
X98170000Y-132307071D01*
X97410000Y-134392929D02*
X97410000Y-134790000D01*
X98170000Y-134392929D02*
X98170000Y-134790000D01*
X97410000Y-143450000D02*
X97410000Y-137450000D01*
X98170000Y-143450000D02*
X97410000Y-143450000D01*
X98170000Y-137450000D02*
X98170000Y-143450000D01*
X99060000Y-134790000D02*
X99060000Y-137450000D01*
X99950000Y-131852929D02*
X99950000Y-132307071D01*
X100710000Y-131852929D02*
X100710000Y-132307071D01*
X99950000Y-134392929D02*
X99950000Y-134790000D01*
X100710000Y-134392929D02*
X100710000Y-134790000D01*
X99950000Y-143450000D02*
X99950000Y-137450000D01*
X100710000Y-143450000D02*
X99950000Y-143450000D01*
X100710000Y-137450000D02*
X100710000Y-143450000D01*
X101600000Y-134790000D02*
X101600000Y-137450000D01*
X102490000Y-131852929D02*
X102490000Y-132307071D01*
X103250000Y-131852929D02*
X103250000Y-132307071D01*
X102490000Y-134392929D02*
X102490000Y-134790000D01*
X103250000Y-134392929D02*
X103250000Y-134790000D01*
X102490000Y-143450000D02*
X102490000Y-137450000D01*
X103250000Y-143450000D02*
X102490000Y-143450000D01*
X103250000Y-137450000D02*
X103250000Y-143450000D01*
X104140000Y-134790000D02*
X104140000Y-137450000D01*
X105030000Y-131852929D02*
X105030000Y-132307071D01*
X105790000Y-131852929D02*
X105790000Y-132307071D01*
X105030000Y-134392929D02*
X105030000Y-134790000D01*
X105790000Y-134392929D02*
X105790000Y-134790000D01*
X105030000Y-143450000D02*
X105030000Y-137450000D01*
X105790000Y-143450000D02*
X105030000Y-143450000D01*
X105790000Y-137450000D02*
X105790000Y-143450000D01*
X106680000Y-134790000D02*
X106680000Y-137450000D01*
X107570000Y-131852929D02*
X107570000Y-132307071D01*
X108330000Y-131852929D02*
X108330000Y-132307071D01*
X107570000Y-134392929D02*
X107570000Y-134790000D01*
X108330000Y-134392929D02*
X108330000Y-134790000D01*
X107570000Y-143450000D02*
X107570000Y-137450000D01*
X108330000Y-143450000D02*
X107570000Y-143450000D01*
X108330000Y-137450000D02*
X108330000Y-143450000D01*
X109220000Y-134790000D02*
X109220000Y-137450000D01*
X110110000Y-131852929D02*
X110110000Y-132307071D01*
X110870000Y-131852929D02*
X110870000Y-132307071D01*
X110110000Y-134392929D02*
X110110000Y-134790000D01*
X110870000Y-134392929D02*
X110870000Y-134790000D01*
X110110000Y-143450000D02*
X110110000Y-137450000D01*
X110870000Y-143450000D02*
X110110000Y-143450000D01*
X110870000Y-137450000D02*
X110870000Y-143450000D01*
X111760000Y-134790000D02*
X111760000Y-137450000D01*
X112650000Y-131852929D02*
X112650000Y-132307071D01*
X113410000Y-131852929D02*
X113410000Y-132307071D01*
X112650000Y-134392929D02*
X112650000Y-134790000D01*
X113410000Y-134392929D02*
X113410000Y-134790000D01*
X112650000Y-143450000D02*
X112650000Y-137450000D01*
X113410000Y-143450000D02*
X112650000Y-143450000D01*
X113410000Y-137450000D02*
X113410000Y-143450000D01*
X114300000Y-134790000D02*
X114300000Y-137450000D01*
X115190000Y-131852929D02*
X115190000Y-132307071D01*
X115950000Y-131852929D02*
X115950000Y-132307071D01*
X115190000Y-134392929D02*
X115190000Y-134790000D01*
X115950000Y-134392929D02*
X115950000Y-134790000D01*
X115190000Y-143450000D02*
X115190000Y-137450000D01*
X115950000Y-143450000D02*
X115190000Y-143450000D01*
X115950000Y-137450000D02*
X115950000Y-143450000D01*
X116840000Y-134790000D02*
X116840000Y-137450000D01*
X117730000Y-131852929D02*
X117730000Y-132307071D01*
X118490000Y-131852929D02*
X118490000Y-132307071D01*
X117730000Y-134392929D02*
X117730000Y-134790000D01*
X118490000Y-134392929D02*
X118490000Y-134790000D01*
X117730000Y-143450000D02*
X117730000Y-137450000D01*
X118490000Y-143450000D02*
X117730000Y-143450000D01*
X118490000Y-137450000D02*
X118490000Y-143450000D01*
X119380000Y-134790000D02*
X119380000Y-137450000D01*
X120270000Y-131852929D02*
X120270000Y-132307071D01*
X121030000Y-131852929D02*
X121030000Y-132307071D01*
X120270000Y-134392929D02*
X120270000Y-134790000D01*
X121030000Y-134392929D02*
X121030000Y-134790000D01*
X120270000Y-143450000D02*
X120270000Y-137450000D01*
X121030000Y-143450000D02*
X120270000Y-143450000D01*
X121030000Y-137450000D02*
X121030000Y-143450000D01*
X121920000Y-134790000D02*
X121920000Y-137450000D01*
X122810000Y-131852929D02*
X122810000Y-132307071D01*
X123570000Y-131852929D02*
X123570000Y-132307071D01*
X122810000Y-134392929D02*
X122810000Y-134790000D01*
X123570000Y-134392929D02*
X123570000Y-134790000D01*
X122810000Y-143450000D02*
X122810000Y-137450000D01*
X123570000Y-143450000D02*
X122810000Y-143450000D01*
X123570000Y-137450000D02*
X123570000Y-143450000D01*
X124460000Y-134790000D02*
X124460000Y-137450000D01*
X125350000Y-131852929D02*
X125350000Y-132307071D01*
X126110000Y-131852929D02*
X126110000Y-132307071D01*
X125350000Y-134392929D02*
X125350000Y-134790000D01*
X126110000Y-134392929D02*
X126110000Y-134790000D01*
X125350000Y-143450000D02*
X125350000Y-137450000D01*
X126110000Y-143450000D02*
X125350000Y-143450000D01*
X126110000Y-137450000D02*
X126110000Y-143450000D01*
X127000000Y-134790000D02*
X127000000Y-137450000D01*
X127890000Y-131852929D02*
X127890000Y-132307071D01*
X128650000Y-131852929D02*
X128650000Y-132307071D01*
X127890000Y-134392929D02*
X127890000Y-134790000D01*
X128650000Y-134392929D02*
X128650000Y-134790000D01*
X127890000Y-143450000D02*
X127890000Y-137450000D01*
X128650000Y-143450000D02*
X127890000Y-143450000D01*
X128650000Y-137450000D02*
X128650000Y-143450000D01*
X129540000Y-134790000D02*
X129540000Y-137450000D01*
X130430000Y-131852929D02*
X130430000Y-132307071D01*
X131190000Y-131852929D02*
X131190000Y-132307071D01*
X130430000Y-134392929D02*
X130430000Y-134790000D01*
X131190000Y-134392929D02*
X131190000Y-134790000D01*
X130430000Y-143450000D02*
X130430000Y-137450000D01*
X131190000Y-143450000D02*
X130430000Y-143450000D01*
X131190000Y-137450000D02*
X131190000Y-143450000D01*
X132080000Y-134790000D02*
X132080000Y-137450000D01*
X132970000Y-131852929D02*
X132970000Y-132307071D01*
X133730000Y-131852929D02*
X133730000Y-132307071D01*
X132970000Y-134392929D02*
X132970000Y-134790000D01*
X133730000Y-134392929D02*
X133730000Y-134790000D01*
X132970000Y-143450000D02*
X132970000Y-137450000D01*
X133730000Y-143450000D02*
X132970000Y-143450000D01*
X133730000Y-137450000D02*
X133730000Y-143450000D01*
X134620000Y-134790000D02*
X134620000Y-137450000D01*
X135510000Y-131852929D02*
X135510000Y-132307071D01*
X136270000Y-131852929D02*
X136270000Y-132307071D01*
X135510000Y-134392929D02*
X135510000Y-134790000D01*
X136270000Y-134392929D02*
X136270000Y-134790000D01*
X135510000Y-143450000D02*
X135510000Y-137450000D01*
X136270000Y-143450000D02*
X135510000Y-143450000D01*
X136270000Y-137450000D02*
X136270000Y-143450000D01*
X137160000Y-134790000D02*
X137160000Y-137450000D01*
X138050000Y-131852929D02*
X138050000Y-132307071D01*
X138810000Y-131852929D02*
X138810000Y-132307071D01*
X138050000Y-134392929D02*
X138050000Y-134790000D01*
X138810000Y-134392929D02*
X138810000Y-134790000D01*
X138050000Y-143450000D02*
X138050000Y-137450000D01*
X138810000Y-143450000D02*
X138050000Y-143450000D01*
X138810000Y-137450000D02*
X138810000Y-143450000D01*
X139700000Y-134790000D02*
X139700000Y-137450000D01*
X140590000Y-131852929D02*
X140590000Y-132307071D01*
X141350000Y-131852929D02*
X141350000Y-132307071D01*
X140590000Y-134392929D02*
X140590000Y-134790000D01*
X141350000Y-134392929D02*
X141350000Y-134790000D01*
X140590000Y-143450000D02*
X140590000Y-137450000D01*
X141350000Y-143450000D02*
X140590000Y-143450000D01*
X141350000Y-137450000D02*
X141350000Y-143450000D01*
X142240000Y-134790000D02*
X142240000Y-137450000D01*
X143130000Y-131852929D02*
X143130000Y-132307071D01*
X143890000Y-131852929D02*
X143890000Y-132307071D01*
X143130000Y-134392929D02*
X143130000Y-134790000D01*
X143890000Y-134392929D02*
X143890000Y-134790000D01*
X143130000Y-143450000D02*
X143130000Y-137450000D01*
X143890000Y-143450000D02*
X143130000Y-143450000D01*
X143890000Y-137450000D02*
X143890000Y-143450000D01*
X144780000Y-134790000D02*
X144780000Y-137450000D01*
X145670000Y-131852929D02*
X145670000Y-132307071D01*
X146430000Y-131852929D02*
X146430000Y-132307071D01*
X145670000Y-134392929D02*
X145670000Y-134790000D01*
X146430000Y-134392929D02*
X146430000Y-134790000D01*
X145670000Y-143450000D02*
X145670000Y-137450000D01*
X146430000Y-143450000D02*
X145670000Y-143450000D01*
X146430000Y-137450000D02*
X146430000Y-143450000D01*
X147320000Y-134790000D02*
X147320000Y-137450000D01*
X148210000Y-131852929D02*
X148210000Y-132307071D01*
X148970000Y-131852929D02*
X148970000Y-132307071D01*
X148210000Y-134392929D02*
X148210000Y-134790000D01*
X148970000Y-134392929D02*
X148970000Y-134790000D01*
X148210000Y-143450000D02*
X148210000Y-137450000D01*
X148970000Y-143450000D02*
X148210000Y-143450000D01*
X148970000Y-137450000D02*
X148970000Y-143450000D01*
X149860000Y-134790000D02*
X149860000Y-137450000D01*
X150750000Y-131852929D02*
X150750000Y-132307071D01*
X151510000Y-131852929D02*
X151510000Y-132307071D01*
X150750000Y-134392929D02*
X150750000Y-134790000D01*
X151510000Y-134392929D02*
X151510000Y-134790000D01*
X150750000Y-143450000D02*
X150750000Y-137450000D01*
X151510000Y-143450000D02*
X150750000Y-143450000D01*
X151510000Y-137450000D02*
X151510000Y-143450000D01*
X152400000Y-134790000D02*
X152400000Y-137450000D01*
X153290000Y-131852929D02*
X153290000Y-132307071D01*
X154050000Y-131852929D02*
X154050000Y-132307071D01*
X153290000Y-134392929D02*
X153290000Y-134790000D01*
X154050000Y-134392929D02*
X154050000Y-134790000D01*
X153290000Y-143450000D02*
X153290000Y-137450000D01*
X154050000Y-143450000D02*
X153290000Y-143450000D01*
X154050000Y-137450000D02*
X154050000Y-143450000D01*
X154940000Y-134790000D02*
X154940000Y-137450000D01*
X155830000Y-131852929D02*
X155830000Y-132307071D01*
X156590000Y-131852929D02*
X156590000Y-132307071D01*
X155830000Y-134392929D02*
X155830000Y-134790000D01*
X156590000Y-134392929D02*
X156590000Y-134790000D01*
X155830000Y-143450000D02*
X155830000Y-137450000D01*
X156590000Y-143450000D02*
X155830000Y-143450000D01*
X156590000Y-137450000D02*
X156590000Y-143450000D01*
X157480000Y-134790000D02*
X157480000Y-137450000D01*
X158370000Y-131852929D02*
X158370000Y-132307071D01*
X159130000Y-131852929D02*
X159130000Y-132307071D01*
X158370000Y-134392929D02*
X158370000Y-134790000D01*
X159130000Y-134392929D02*
X159130000Y-134790000D01*
X158370000Y-143450000D02*
X158370000Y-137450000D01*
X159130000Y-143450000D02*
X158370000Y-143450000D01*
X159130000Y-137450000D02*
X159130000Y-143450000D01*
X160020000Y-134790000D02*
X160020000Y-137450000D01*
X160910000Y-131852929D02*
X160910000Y-132307071D01*
X161670000Y-131852929D02*
X161670000Y-132307071D01*
X160910000Y-134392929D02*
X160910000Y-134790000D01*
X161670000Y-134392929D02*
X161670000Y-134790000D01*
X160910000Y-143450000D02*
X160910000Y-137450000D01*
X161670000Y-143450000D02*
X160910000Y-143450000D01*
X161670000Y-137450000D02*
X161670000Y-143450000D01*
X162560000Y-134790000D02*
X162560000Y-137450000D01*
X163450000Y-131920000D02*
X163450000Y-132307071D01*
X164210000Y-131920000D02*
X164210000Y-132307071D01*
X163450000Y-134392929D02*
X163450000Y-134790000D01*
X164210000Y-134392929D02*
X164210000Y-134790000D01*
X163550000Y-137450000D02*
X163550000Y-143450000D01*
X163670000Y-137450000D02*
X163670000Y-143450000D01*
X163790000Y-137450000D02*
X163790000Y-143450000D01*
X163910000Y-137450000D02*
X163910000Y-143450000D01*
X164030000Y-137450000D02*
X164030000Y-143450000D01*
X164150000Y-137450000D02*
X164150000Y-143450000D01*
X163450000Y-143450000D02*
X163450000Y-137450000D01*
X164210000Y-143450000D02*
X163450000Y-143450000D01*
X164210000Y-137450000D02*
X164210000Y-143450000D01*
X165160000Y-137450000D02*
X165160000Y-134790000D01*
X63440000Y-137450000D02*
X165160000Y-137450000D01*
X63440000Y-134790000D02*
X63440000Y-137450000D01*
X165160000Y-134790000D02*
X63440000Y-134790000D01*
X110600000Y-100270000D02*
X108950000Y-100270000D01*
X110600000Y-125790000D02*
X110600000Y-100270000D01*
X105300000Y-125790000D02*
X110600000Y-125790000D01*
X105300000Y-100270000D02*
X105300000Y-125790000D01*
X106950000Y-100270000D02*
X105300000Y-100270000D01*
X108950000Y-100270000D02*
G75*
G02X106950000Y-100270000I-1000000J0D01*
G01*
X87740000Y-100270000D02*
X86090000Y-100270000D01*
X87740000Y-125790000D02*
X87740000Y-100270000D01*
X82440000Y-125790000D02*
X87740000Y-125790000D01*
X82440000Y-100270000D02*
X82440000Y-125790000D01*
X84090000Y-100270000D02*
X82440000Y-100270000D01*
X86090000Y-100270000D02*
G75*
G02X84090000Y-100270000I-1000000J0D01*
G01*
X99170000Y-100270000D02*
X97520000Y-100270000D01*
X99170000Y-125790000D02*
X99170000Y-100270000D01*
X93870000Y-125790000D02*
X99170000Y-125790000D01*
X93870000Y-100270000D02*
X93870000Y-125790000D01*
X95520000Y-100270000D02*
X93870000Y-100270000D01*
X97520000Y-100270000D02*
G75*
G02X95520000Y-100270000I-1000000J0D01*
G01*
X76310000Y-100270000D02*
X74660000Y-100270000D01*
X76310000Y-120710000D02*
X76310000Y-100270000D01*
X71010000Y-120710000D02*
X76310000Y-120710000D01*
X71010000Y-100270000D02*
X71010000Y-120710000D01*
X72660000Y-100270000D02*
X71010000Y-100270000D01*
X74660000Y-100270000D02*
G75*
G02X72660000Y-100270000I-1000000J0D01*
G01*
X153385225Y-122735000D02*
X153385225Y-123235000D01*
X153135225Y-122985000D02*
X153635225Y-122985000D01*
X158541000Y-124176000D02*
X158541000Y-124744000D01*
X158501000Y-123942000D02*
X158501000Y-124978000D01*
X158461000Y-123783000D02*
X158461000Y-125137000D01*
X158421000Y-123655000D02*
X158421000Y-125265000D01*
X158381000Y-123545000D02*
X158381000Y-125375000D01*
X158341000Y-123449000D02*
X158341000Y-125471000D01*
X158301000Y-123362000D02*
X158301000Y-125558000D01*
X158261000Y-123282000D02*
X158261000Y-125638000D01*
X158221000Y-123209000D02*
X158221000Y-125711000D01*
X158181000Y-123141000D02*
X158181000Y-125779000D01*
X158141000Y-123077000D02*
X158141000Y-125843000D01*
X158101000Y-123017000D02*
X158101000Y-125903000D01*
X158061000Y-122960000D02*
X158061000Y-125960000D01*
X158021000Y-122906000D02*
X158021000Y-126014000D01*
X157981000Y-122855000D02*
X157981000Y-126065000D01*
X157941000Y-125500000D02*
X157941000Y-126113000D01*
X157941000Y-122807000D02*
X157941000Y-123420000D01*
X157901000Y-125500000D02*
X157901000Y-126159000D01*
X157901000Y-122761000D02*
X157901000Y-123420000D01*
X157861000Y-125500000D02*
X157861000Y-126203000D01*
X157861000Y-122717000D02*
X157861000Y-123420000D01*
X157821000Y-125500000D02*
X157821000Y-126245000D01*
X157821000Y-122675000D02*
X157821000Y-123420000D01*
X157781000Y-125500000D02*
X157781000Y-126286000D01*
X157781000Y-122634000D02*
X157781000Y-123420000D01*
X157741000Y-125500000D02*
X157741000Y-126324000D01*
X157741000Y-122596000D02*
X157741000Y-123420000D01*
X157701000Y-125500000D02*
X157701000Y-126361000D01*
X157701000Y-122559000D02*
X157701000Y-123420000D01*
X157661000Y-125500000D02*
X157661000Y-126397000D01*
X157661000Y-122523000D02*
X157661000Y-123420000D01*
X157621000Y-125500000D02*
X157621000Y-126431000D01*
X157621000Y-122489000D02*
X157621000Y-123420000D01*
X157581000Y-125500000D02*
X157581000Y-126464000D01*
X157581000Y-122456000D02*
X157581000Y-123420000D01*
X157541000Y-125500000D02*
X157541000Y-126495000D01*
X157541000Y-122425000D02*
X157541000Y-123420000D01*
X157501000Y-125500000D02*
X157501000Y-126525000D01*
X157501000Y-122395000D02*
X157501000Y-123420000D01*
X157461000Y-125500000D02*
X157461000Y-126555000D01*
X157461000Y-122365000D02*
X157461000Y-123420000D01*
X157421000Y-125500000D02*
X157421000Y-126582000D01*
X157421000Y-122338000D02*
X157421000Y-123420000D01*
X157381000Y-125500000D02*
X157381000Y-126609000D01*
X157381000Y-122311000D02*
X157381000Y-123420000D01*
X157341000Y-125500000D02*
X157341000Y-126635000D01*
X157341000Y-122285000D02*
X157341000Y-123420000D01*
X157301000Y-125500000D02*
X157301000Y-126660000D01*
X157301000Y-122260000D02*
X157301000Y-123420000D01*
X157261000Y-125500000D02*
X157261000Y-126684000D01*
X157261000Y-122236000D02*
X157261000Y-123420000D01*
X157221000Y-125500000D02*
X157221000Y-126707000D01*
X157221000Y-122213000D02*
X157221000Y-123420000D01*
X157181000Y-125500000D02*
X157181000Y-126728000D01*
X157181000Y-122192000D02*
X157181000Y-123420000D01*
X157141000Y-125500000D02*
X157141000Y-126750000D01*
X157141000Y-122170000D02*
X157141000Y-123420000D01*
X157101000Y-125500000D02*
X157101000Y-126770000D01*
X157101000Y-122150000D02*
X157101000Y-123420000D01*
X157061000Y-125500000D02*
X157061000Y-126789000D01*
X157061000Y-122131000D02*
X157061000Y-123420000D01*
X157021000Y-125500000D02*
X157021000Y-126808000D01*
X157021000Y-122112000D02*
X157021000Y-123420000D01*
X156981000Y-125500000D02*
X156981000Y-126825000D01*
X156981000Y-122095000D02*
X156981000Y-123420000D01*
X156941000Y-125500000D02*
X156941000Y-126842000D01*
X156941000Y-122078000D02*
X156941000Y-123420000D01*
X156901000Y-125500000D02*
X156901000Y-126858000D01*
X156901000Y-122062000D02*
X156901000Y-123420000D01*
X156861000Y-125500000D02*
X156861000Y-126874000D01*
X156861000Y-122046000D02*
X156861000Y-123420000D01*
X156821000Y-125500000D02*
X156821000Y-126888000D01*
X156821000Y-122032000D02*
X156821000Y-123420000D01*
X156781000Y-125500000D02*
X156781000Y-126902000D01*
X156781000Y-122018000D02*
X156781000Y-123420000D01*
X156741000Y-125500000D02*
X156741000Y-126915000D01*
X156741000Y-122005000D02*
X156741000Y-123420000D01*
X156701000Y-125500000D02*
X156701000Y-126928000D01*
X156701000Y-121992000D02*
X156701000Y-123420000D01*
X156661000Y-125500000D02*
X156661000Y-126940000D01*
X156661000Y-121980000D02*
X156661000Y-123420000D01*
X156620000Y-125500000D02*
X156620000Y-126951000D01*
X156620000Y-121969000D02*
X156620000Y-123420000D01*
X156580000Y-125500000D02*
X156580000Y-126961000D01*
X156580000Y-121959000D02*
X156580000Y-123420000D01*
X156540000Y-125500000D02*
X156540000Y-126971000D01*
X156540000Y-121949000D02*
X156540000Y-123420000D01*
X156500000Y-125500000D02*
X156500000Y-126980000D01*
X156500000Y-121940000D02*
X156500000Y-123420000D01*
X156460000Y-125500000D02*
X156460000Y-126988000D01*
X156460000Y-121932000D02*
X156460000Y-123420000D01*
X156420000Y-125500000D02*
X156420000Y-126996000D01*
X156420000Y-121924000D02*
X156420000Y-123420000D01*
X156380000Y-125500000D02*
X156380000Y-127003000D01*
X156380000Y-121917000D02*
X156380000Y-123420000D01*
X156340000Y-125500000D02*
X156340000Y-127010000D01*
X156340000Y-121910000D02*
X156340000Y-123420000D01*
X156300000Y-125500000D02*
X156300000Y-127016000D01*
X156300000Y-121904000D02*
X156300000Y-123420000D01*
X156260000Y-125500000D02*
X156260000Y-127021000D01*
X156260000Y-121899000D02*
X156260000Y-123420000D01*
X156220000Y-125500000D02*
X156220000Y-127025000D01*
X156220000Y-121895000D02*
X156220000Y-123420000D01*
X156180000Y-125500000D02*
X156180000Y-127029000D01*
X156180000Y-121891000D02*
X156180000Y-123420000D01*
X156140000Y-125500000D02*
X156140000Y-127033000D01*
X156140000Y-121887000D02*
X156140000Y-123420000D01*
X156100000Y-125500000D02*
X156100000Y-127036000D01*
X156100000Y-121884000D02*
X156100000Y-123420000D01*
X156060000Y-125500000D02*
X156060000Y-127038000D01*
X156060000Y-121882000D02*
X156060000Y-123420000D01*
X156020000Y-125500000D02*
X156020000Y-127039000D01*
X156020000Y-121881000D02*
X156020000Y-123420000D01*
X155980000Y-121880000D02*
X155980000Y-123420000D01*
X155980000Y-125500000D02*
X155980000Y-127040000D01*
X155940000Y-121880000D02*
X155940000Y-123420000D01*
X155940000Y-125500000D02*
X155940000Y-127040000D01*
X158560000Y-124460000D02*
G75*
G03X158560000Y-124460000I-2620000J0D01*
G01*
X71430000Y-94195000D02*
X71430000Y-94180000D01*
X71430000Y-96320000D02*
X71430000Y-96305000D01*
X75970000Y-94195000D02*
X75970000Y-94180000D01*
X75970000Y-96320000D02*
X75970000Y-96305000D01*
X75970000Y-94180000D02*
X71430000Y-94180000D01*
X75970000Y-96320000D02*
X71430000Y-96320000D01*
X105720000Y-94195000D02*
X105720000Y-94180000D01*
X105720000Y-96320000D02*
X105720000Y-96305000D01*
X110260000Y-94195000D02*
X110260000Y-94180000D01*
X110260000Y-96320000D02*
X110260000Y-96305000D01*
X110260000Y-94180000D02*
X105720000Y-94180000D01*
X110260000Y-96320000D02*
X105720000Y-96320000D01*
X94210000Y-94195000D02*
X94210000Y-94180000D01*
X94210000Y-96320000D02*
X94210000Y-96305000D01*
X98750000Y-94195000D02*
X98750000Y-94180000D01*
X98750000Y-96320000D02*
X98750000Y-96305000D01*
X98750000Y-94180000D02*
X94210000Y-94180000D01*
X98750000Y-96320000D02*
X94210000Y-96320000D01*
X82780000Y-94195000D02*
X82780000Y-94180000D01*
X82780000Y-96320000D02*
X82780000Y-96305000D01*
X87320000Y-94195000D02*
X87320000Y-94180000D01*
X87320000Y-96320000D02*
X87320000Y-96305000D01*
X87320000Y-94180000D02*
X82780000Y-94180000D01*
X87320000Y-96320000D02*
X82780000Y-96320000D01*
X119250000Y-100200000D02*
X119250000Y-118240000D01*
X162690000Y-100200000D02*
X119250000Y-100200000D01*
X162690000Y-118240000D02*
X162690000Y-100200000D01*
X160020000Y-115570000D02*
X160020000Y-118240000D01*
X124460000Y-115570000D02*
X160020000Y-115570000D01*
X124460000Y-115570000D02*
X124460000Y-118240000D01*
X160020000Y-102870000D02*
X160020000Y-100200000D01*
X121920000Y-102870000D02*
X160020000Y-102870000D01*
X121920000Y-102870000D02*
X121920000Y-100200000D01*
X119250000Y-118240000D02*
X121920000Y-118240000D01*
X124460000Y-118240000D02*
X162690000Y-118240000D01*
X121920000Y-115570000D02*
X121920000Y-118240000D01*
X124460000Y-115570000D02*
X121920000Y-115570000D01*
D10*
X107188095Y-98722380D02*
X107188095Y-99531904D01*
X107235714Y-99627142D01*
X107283333Y-99674761D01*
X107378571Y-99722380D01*
X107569047Y-99722380D01*
X107664285Y-99674761D01*
X107711904Y-99627142D01*
X107759523Y-99531904D01*
X107759523Y-98722380D01*
X108664285Y-99055714D02*
X108664285Y-99722380D01*
X108426190Y-98674761D02*
X108188095Y-99389047D01*
X108807142Y-99389047D01*
X105283333Y-126242380D02*
X105950000Y-126242380D01*
X105521428Y-127242380D01*
X106759523Y-126575714D02*
X106759523Y-127242380D01*
X106521428Y-126194761D02*
X106283333Y-126909047D01*
X106902380Y-126909047D01*
X107616666Y-126718571D02*
X107283333Y-126718571D01*
X107283333Y-127242380D02*
X107283333Y-126242380D01*
X107759523Y-126242380D01*
X108616666Y-126242380D02*
X108140476Y-126242380D01*
X108092857Y-126718571D01*
X108140476Y-126670952D01*
X108235714Y-126623333D01*
X108473809Y-126623333D01*
X108569047Y-126670952D01*
X108616666Y-126718571D01*
X108664285Y-126813809D01*
X108664285Y-127051904D01*
X108616666Y-127147142D01*
X108569047Y-127194761D01*
X108473809Y-127242380D01*
X108235714Y-127242380D01*
X108140476Y-127194761D01*
X108092857Y-127147142D01*
X108997619Y-126242380D02*
X109664285Y-126242380D01*
X109235714Y-127242380D01*
X110473809Y-126575714D02*
X110473809Y-127242380D01*
X110235714Y-126194761D02*
X109997619Y-126909047D01*
X110616666Y-126909047D01*
X84328095Y-98722380D02*
X84328095Y-99531904D01*
X84375714Y-99627142D01*
X84423333Y-99674761D01*
X84518571Y-99722380D01*
X84709047Y-99722380D01*
X84804285Y-99674761D01*
X84851904Y-99627142D01*
X84899523Y-99531904D01*
X84899523Y-98722380D01*
X85280476Y-98722380D02*
X85899523Y-98722380D01*
X85566190Y-99103333D01*
X85709047Y-99103333D01*
X85804285Y-99150952D01*
X85851904Y-99198571D01*
X85899523Y-99293809D01*
X85899523Y-99531904D01*
X85851904Y-99627142D01*
X85804285Y-99674761D01*
X85709047Y-99722380D01*
X85423333Y-99722380D01*
X85328095Y-99674761D01*
X85280476Y-99627142D01*
X82423333Y-126242380D02*
X83090000Y-126242380D01*
X82661428Y-127242380D01*
X83899523Y-126575714D02*
X83899523Y-127242380D01*
X83661428Y-126194761D02*
X83423333Y-126909047D01*
X84042380Y-126909047D01*
X84756666Y-126718571D02*
X84423333Y-126718571D01*
X84423333Y-127242380D02*
X84423333Y-126242380D01*
X84899523Y-126242380D01*
X85185238Y-126242380D02*
X85804285Y-126242380D01*
X85470952Y-126623333D01*
X85613809Y-126623333D01*
X85709047Y-126670952D01*
X85756666Y-126718571D01*
X85804285Y-126813809D01*
X85804285Y-127051904D01*
X85756666Y-127147142D01*
X85709047Y-127194761D01*
X85613809Y-127242380D01*
X85328095Y-127242380D01*
X85232857Y-127194761D01*
X85185238Y-127147142D01*
X86137619Y-126242380D02*
X86804285Y-126242380D01*
X86375714Y-127242380D01*
X87090000Y-126242380D02*
X87756666Y-126242380D01*
X87328095Y-127242380D01*
X95758095Y-98722380D02*
X95758095Y-99531904D01*
X95805714Y-99627142D01*
X95853333Y-99674761D01*
X95948571Y-99722380D01*
X96139047Y-99722380D01*
X96234285Y-99674761D01*
X96281904Y-99627142D01*
X96329523Y-99531904D01*
X96329523Y-98722380D01*
X96758095Y-98817619D02*
X96805714Y-98770000D01*
X96900952Y-98722380D01*
X97139047Y-98722380D01*
X97234285Y-98770000D01*
X97281904Y-98817619D01*
X97329523Y-98912857D01*
X97329523Y-99008095D01*
X97281904Y-99150952D01*
X96710476Y-99722380D01*
X97329523Y-99722380D01*
X93853333Y-126242380D02*
X94520000Y-126242380D01*
X94091428Y-127242380D01*
X95329523Y-126575714D02*
X95329523Y-127242380D01*
X95091428Y-126194761D02*
X94853333Y-126909047D01*
X95472380Y-126909047D01*
X96186666Y-126718571D02*
X95853333Y-126718571D01*
X95853333Y-127242380D02*
X95853333Y-126242380D01*
X96329523Y-126242380D01*
X96615238Y-126242380D02*
X97234285Y-126242380D01*
X96900952Y-126623333D01*
X97043809Y-126623333D01*
X97139047Y-126670952D01*
X97186666Y-126718571D01*
X97234285Y-126813809D01*
X97234285Y-127051904D01*
X97186666Y-127147142D01*
X97139047Y-127194761D01*
X97043809Y-127242380D01*
X96758095Y-127242380D01*
X96662857Y-127194761D01*
X96615238Y-127147142D01*
X97567619Y-126242380D02*
X98234285Y-126242380D01*
X97805714Y-127242380D01*
X98520000Y-126242380D02*
X99186666Y-126242380D01*
X98758095Y-127242380D01*
X72898095Y-98722380D02*
X72898095Y-99531904D01*
X72945714Y-99627142D01*
X72993333Y-99674761D01*
X73088571Y-99722380D01*
X73279047Y-99722380D01*
X73374285Y-99674761D01*
X73421904Y-99627142D01*
X73469523Y-99531904D01*
X73469523Y-98722380D01*
X74469523Y-99722380D02*
X73898095Y-99722380D01*
X74183809Y-99722380D02*
X74183809Y-98722380D01*
X74088571Y-98865238D01*
X73993333Y-98960476D01*
X73898095Y-99008095D01*
X70993333Y-121162380D02*
X71660000Y-121162380D01*
X71231428Y-122162380D01*
X72469523Y-121495714D02*
X72469523Y-122162380D01*
X72231428Y-121114761D02*
X71993333Y-121829047D01*
X72612380Y-121829047D01*
X73326666Y-121638571D02*
X72993333Y-121638571D01*
X72993333Y-122162380D02*
X72993333Y-121162380D01*
X73469523Y-121162380D01*
X74374285Y-122162380D02*
X73802857Y-122162380D01*
X74088571Y-122162380D02*
X74088571Y-121162380D01*
X73993333Y-121305238D01*
X73898095Y-121400476D01*
X73802857Y-121448095D01*
X74707619Y-121162380D02*
X75326666Y-121162380D01*
X74993333Y-121543333D01*
X75136190Y-121543333D01*
X75231428Y-121590952D01*
X75279047Y-121638571D01*
X75326666Y-121733809D01*
X75326666Y-121971904D01*
X75279047Y-122067142D01*
X75231428Y-122114761D01*
X75136190Y-122162380D01*
X74850476Y-122162380D01*
X74755238Y-122114761D01*
X74707619Y-122067142D01*
X75898095Y-121590952D02*
X75802857Y-121543333D01*
X75755238Y-121495714D01*
X75707619Y-121400476D01*
X75707619Y-121352857D01*
X75755238Y-121257619D01*
X75802857Y-121210000D01*
X75898095Y-121162380D01*
X76088571Y-121162380D01*
X76183809Y-121210000D01*
X76231428Y-121257619D01*
X76279047Y-121352857D01*
X76279047Y-121400476D01*
X76231428Y-121495714D01*
X76183809Y-121543333D01*
X76088571Y-121590952D01*
X75898095Y-121590952D01*
X75802857Y-121638571D01*
X75755238Y-121686190D01*
X75707619Y-121781428D01*
X75707619Y-121971904D01*
X75755238Y-122067142D01*
X75802857Y-122114761D01*
X75898095Y-122162380D01*
X76088571Y-122162380D01*
X76183809Y-122114761D01*
X76231428Y-122067142D01*
X76279047Y-121971904D01*
X76279047Y-121781428D01*
X76231428Y-121686190D01*
X76183809Y-121638571D01*
X76088571Y-121590952D01*
X155773333Y-121067142D02*
X155725714Y-121114761D01*
X155582857Y-121162380D01*
X155487619Y-121162380D01*
X155344761Y-121114761D01*
X155249523Y-121019523D01*
X155201904Y-120924285D01*
X155154285Y-120733809D01*
X155154285Y-120590952D01*
X155201904Y-120400476D01*
X155249523Y-120305238D01*
X155344761Y-120210000D01*
X155487619Y-120162380D01*
X155582857Y-120162380D01*
X155725714Y-120210000D01*
X155773333Y-120257619D01*
X156678095Y-120162380D02*
X156201904Y-120162380D01*
X156154285Y-120638571D01*
X156201904Y-120590952D01*
X156297142Y-120543333D01*
X156535238Y-120543333D01*
X156630476Y-120590952D01*
X156678095Y-120638571D01*
X156725714Y-120733809D01*
X156725714Y-120971904D01*
X156678095Y-121067142D01*
X156630476Y-121114761D01*
X156535238Y-121162380D01*
X156297142Y-121162380D01*
X156201904Y-121114761D01*
X156154285Y-121067142D01*
X154797142Y-128662380D02*
X154225714Y-128662380D01*
X154511428Y-128662380D02*
X154511428Y-127662380D01*
X154416190Y-127805238D01*
X154320952Y-127900476D01*
X154225714Y-127948095D01*
X155416190Y-127662380D02*
X155511428Y-127662380D01*
X155606666Y-127710000D01*
X155654285Y-127757619D01*
X155701904Y-127852857D01*
X155749523Y-128043333D01*
X155749523Y-128281428D01*
X155701904Y-128471904D01*
X155654285Y-128567142D01*
X155606666Y-128614761D01*
X155511428Y-128662380D01*
X155416190Y-128662380D01*
X155320952Y-128614761D01*
X155273333Y-128567142D01*
X155225714Y-128471904D01*
X155178095Y-128281428D01*
X155178095Y-128043333D01*
X155225714Y-127852857D01*
X155273333Y-127757619D01*
X155320952Y-127710000D01*
X155416190Y-127662380D01*
X156178095Y-127995714D02*
X156178095Y-128995714D01*
X156654285Y-128519523D02*
X156701904Y-128614761D01*
X156797142Y-128662380D01*
X156178095Y-128519523D02*
X156225714Y-128614761D01*
X156320952Y-128662380D01*
X156511428Y-128662380D01*
X156606666Y-128614761D01*
X156654285Y-128519523D01*
X156654285Y-127995714D01*
X157559047Y-128138571D02*
X157225714Y-128138571D01*
X157225714Y-128662380D02*
X157225714Y-127662380D01*
X157701904Y-127662380D01*
X73533333Y-97807142D02*
X73485714Y-97854761D01*
X73342857Y-97902380D01*
X73247619Y-97902380D01*
X73104761Y-97854761D01*
X73009523Y-97759523D01*
X72961904Y-97664285D01*
X72914285Y-97473809D01*
X72914285Y-97330952D01*
X72961904Y-97140476D01*
X73009523Y-97045238D01*
X73104761Y-96950000D01*
X73247619Y-96902380D01*
X73342857Y-96902380D01*
X73485714Y-96950000D01*
X73533333Y-96997619D01*
X74390476Y-97235714D02*
X74390476Y-97902380D01*
X74152380Y-96854761D02*
X73914285Y-97569047D01*
X74533333Y-97569047D01*
X72152380Y-93502380D02*
X71580952Y-93502380D01*
X71866666Y-93502380D02*
X71866666Y-92502380D01*
X71771428Y-92645238D01*
X71676190Y-92740476D01*
X71580952Y-92788095D01*
X72771428Y-92502380D02*
X72866666Y-92502380D01*
X72961904Y-92550000D01*
X73009523Y-92597619D01*
X73057142Y-92692857D01*
X73104761Y-92883333D01*
X73104761Y-93121428D01*
X73057142Y-93311904D01*
X73009523Y-93407142D01*
X72961904Y-93454761D01*
X72866666Y-93502380D01*
X72771428Y-93502380D01*
X72676190Y-93454761D01*
X72628571Y-93407142D01*
X72580952Y-93311904D01*
X72533333Y-93121428D01*
X72533333Y-92883333D01*
X72580952Y-92692857D01*
X72628571Y-92597619D01*
X72676190Y-92550000D01*
X72771428Y-92502380D01*
X73723809Y-92502380D02*
X73819047Y-92502380D01*
X73914285Y-92550000D01*
X73961904Y-92597619D01*
X74009523Y-92692857D01*
X74057142Y-92883333D01*
X74057142Y-93121428D01*
X74009523Y-93311904D01*
X73961904Y-93407142D01*
X73914285Y-93454761D01*
X73819047Y-93502380D01*
X73723809Y-93502380D01*
X73628571Y-93454761D01*
X73580952Y-93407142D01*
X73533333Y-93311904D01*
X73485714Y-93121428D01*
X73485714Y-92883333D01*
X73533333Y-92692857D01*
X73580952Y-92597619D01*
X73628571Y-92550000D01*
X73723809Y-92502380D01*
X74485714Y-92835714D02*
X74485714Y-93502380D01*
X74485714Y-92930952D02*
X74533333Y-92883333D01*
X74628571Y-92835714D01*
X74771428Y-92835714D01*
X74866666Y-92883333D01*
X74914285Y-92978571D01*
X74914285Y-93502380D01*
X75723809Y-92978571D02*
X75390476Y-92978571D01*
X75390476Y-93502380D02*
X75390476Y-92502380D01*
X75866666Y-92502380D01*
X107823333Y-97807142D02*
X107775714Y-97854761D01*
X107632857Y-97902380D01*
X107537619Y-97902380D01*
X107394761Y-97854761D01*
X107299523Y-97759523D01*
X107251904Y-97664285D01*
X107204285Y-97473809D01*
X107204285Y-97330952D01*
X107251904Y-97140476D01*
X107299523Y-97045238D01*
X107394761Y-96950000D01*
X107537619Y-96902380D01*
X107632857Y-96902380D01*
X107775714Y-96950000D01*
X107823333Y-96997619D01*
X108156666Y-96902380D02*
X108775714Y-96902380D01*
X108442380Y-97283333D01*
X108585238Y-97283333D01*
X108680476Y-97330952D01*
X108728095Y-97378571D01*
X108775714Y-97473809D01*
X108775714Y-97711904D01*
X108728095Y-97807142D01*
X108680476Y-97854761D01*
X108585238Y-97902380D01*
X108299523Y-97902380D01*
X108204285Y-97854761D01*
X108156666Y-97807142D01*
X106442380Y-93502380D02*
X105870952Y-93502380D01*
X106156666Y-93502380D02*
X106156666Y-92502380D01*
X106061428Y-92645238D01*
X105966190Y-92740476D01*
X105870952Y-92788095D01*
X107061428Y-92502380D02*
X107156666Y-92502380D01*
X107251904Y-92550000D01*
X107299523Y-92597619D01*
X107347142Y-92692857D01*
X107394761Y-92883333D01*
X107394761Y-93121428D01*
X107347142Y-93311904D01*
X107299523Y-93407142D01*
X107251904Y-93454761D01*
X107156666Y-93502380D01*
X107061428Y-93502380D01*
X106966190Y-93454761D01*
X106918571Y-93407142D01*
X106870952Y-93311904D01*
X106823333Y-93121428D01*
X106823333Y-92883333D01*
X106870952Y-92692857D01*
X106918571Y-92597619D01*
X106966190Y-92550000D01*
X107061428Y-92502380D01*
X108013809Y-92502380D02*
X108109047Y-92502380D01*
X108204285Y-92550000D01*
X108251904Y-92597619D01*
X108299523Y-92692857D01*
X108347142Y-92883333D01*
X108347142Y-93121428D01*
X108299523Y-93311904D01*
X108251904Y-93407142D01*
X108204285Y-93454761D01*
X108109047Y-93502380D01*
X108013809Y-93502380D01*
X107918571Y-93454761D01*
X107870952Y-93407142D01*
X107823333Y-93311904D01*
X107775714Y-93121428D01*
X107775714Y-92883333D01*
X107823333Y-92692857D01*
X107870952Y-92597619D01*
X107918571Y-92550000D01*
X108013809Y-92502380D01*
X108775714Y-92835714D02*
X108775714Y-93502380D01*
X108775714Y-92930952D02*
X108823333Y-92883333D01*
X108918571Y-92835714D01*
X109061428Y-92835714D01*
X109156666Y-92883333D01*
X109204285Y-92978571D01*
X109204285Y-93502380D01*
X110013809Y-92978571D02*
X109680476Y-92978571D01*
X109680476Y-93502380D02*
X109680476Y-92502380D01*
X110156666Y-92502380D01*
X96313333Y-97807142D02*
X96265714Y-97854761D01*
X96122857Y-97902380D01*
X96027619Y-97902380D01*
X95884761Y-97854761D01*
X95789523Y-97759523D01*
X95741904Y-97664285D01*
X95694285Y-97473809D01*
X95694285Y-97330952D01*
X95741904Y-97140476D01*
X95789523Y-97045238D01*
X95884761Y-96950000D01*
X96027619Y-96902380D01*
X96122857Y-96902380D01*
X96265714Y-96950000D01*
X96313333Y-96997619D01*
X96694285Y-96997619D02*
X96741904Y-96950000D01*
X96837142Y-96902380D01*
X97075238Y-96902380D01*
X97170476Y-96950000D01*
X97218095Y-96997619D01*
X97265714Y-97092857D01*
X97265714Y-97188095D01*
X97218095Y-97330952D01*
X96646666Y-97902380D01*
X97265714Y-97902380D01*
X94932380Y-93502380D02*
X94360952Y-93502380D01*
X94646666Y-93502380D02*
X94646666Y-92502380D01*
X94551428Y-92645238D01*
X94456190Y-92740476D01*
X94360952Y-92788095D01*
X95551428Y-92502380D02*
X95646666Y-92502380D01*
X95741904Y-92550000D01*
X95789523Y-92597619D01*
X95837142Y-92692857D01*
X95884761Y-92883333D01*
X95884761Y-93121428D01*
X95837142Y-93311904D01*
X95789523Y-93407142D01*
X95741904Y-93454761D01*
X95646666Y-93502380D01*
X95551428Y-93502380D01*
X95456190Y-93454761D01*
X95408571Y-93407142D01*
X95360952Y-93311904D01*
X95313333Y-93121428D01*
X95313333Y-92883333D01*
X95360952Y-92692857D01*
X95408571Y-92597619D01*
X95456190Y-92550000D01*
X95551428Y-92502380D01*
X96503809Y-92502380D02*
X96599047Y-92502380D01*
X96694285Y-92550000D01*
X96741904Y-92597619D01*
X96789523Y-92692857D01*
X96837142Y-92883333D01*
X96837142Y-93121428D01*
X96789523Y-93311904D01*
X96741904Y-93407142D01*
X96694285Y-93454761D01*
X96599047Y-93502380D01*
X96503809Y-93502380D01*
X96408571Y-93454761D01*
X96360952Y-93407142D01*
X96313333Y-93311904D01*
X96265714Y-93121428D01*
X96265714Y-92883333D01*
X96313333Y-92692857D01*
X96360952Y-92597619D01*
X96408571Y-92550000D01*
X96503809Y-92502380D01*
X97265714Y-92835714D02*
X97265714Y-93502380D01*
X97265714Y-92930952D02*
X97313333Y-92883333D01*
X97408571Y-92835714D01*
X97551428Y-92835714D01*
X97646666Y-92883333D01*
X97694285Y-92978571D01*
X97694285Y-93502380D01*
X98503809Y-92978571D02*
X98170476Y-92978571D01*
X98170476Y-93502380D02*
X98170476Y-92502380D01*
X98646666Y-92502380D01*
X84883333Y-97807142D02*
X84835714Y-97854761D01*
X84692857Y-97902380D01*
X84597619Y-97902380D01*
X84454761Y-97854761D01*
X84359523Y-97759523D01*
X84311904Y-97664285D01*
X84264285Y-97473809D01*
X84264285Y-97330952D01*
X84311904Y-97140476D01*
X84359523Y-97045238D01*
X84454761Y-96950000D01*
X84597619Y-96902380D01*
X84692857Y-96902380D01*
X84835714Y-96950000D01*
X84883333Y-96997619D01*
X85835714Y-97902380D02*
X85264285Y-97902380D01*
X85550000Y-97902380D02*
X85550000Y-96902380D01*
X85454761Y-97045238D01*
X85359523Y-97140476D01*
X85264285Y-97188095D01*
X83502380Y-93502380D02*
X82930952Y-93502380D01*
X83216666Y-93502380D02*
X83216666Y-92502380D01*
X83121428Y-92645238D01*
X83026190Y-92740476D01*
X82930952Y-92788095D01*
X84121428Y-92502380D02*
X84216666Y-92502380D01*
X84311904Y-92550000D01*
X84359523Y-92597619D01*
X84407142Y-92692857D01*
X84454761Y-92883333D01*
X84454761Y-93121428D01*
X84407142Y-93311904D01*
X84359523Y-93407142D01*
X84311904Y-93454761D01*
X84216666Y-93502380D01*
X84121428Y-93502380D01*
X84026190Y-93454761D01*
X83978571Y-93407142D01*
X83930952Y-93311904D01*
X83883333Y-93121428D01*
X83883333Y-92883333D01*
X83930952Y-92692857D01*
X83978571Y-92597619D01*
X84026190Y-92550000D01*
X84121428Y-92502380D01*
X85073809Y-92502380D02*
X85169047Y-92502380D01*
X85264285Y-92550000D01*
X85311904Y-92597619D01*
X85359523Y-92692857D01*
X85407142Y-92883333D01*
X85407142Y-93121428D01*
X85359523Y-93311904D01*
X85311904Y-93407142D01*
X85264285Y-93454761D01*
X85169047Y-93502380D01*
X85073809Y-93502380D01*
X84978571Y-93454761D01*
X84930952Y-93407142D01*
X84883333Y-93311904D01*
X84835714Y-93121428D01*
X84835714Y-92883333D01*
X84883333Y-92692857D01*
X84930952Y-92597619D01*
X84978571Y-92550000D01*
X85073809Y-92502380D01*
X85835714Y-92835714D02*
X85835714Y-93502380D01*
X85835714Y-92930952D02*
X85883333Y-92883333D01*
X85978571Y-92835714D01*
X86121428Y-92835714D01*
X86216666Y-92883333D01*
X86264285Y-92978571D01*
X86264285Y-93502380D01*
X87073809Y-92978571D02*
X86740476Y-92978571D01*
X86740476Y-93502380D02*
X86740476Y-92502380D01*
X87216666Y-92502380D01*
X118276666Y-109934285D02*
X118276666Y-109458095D01*
X118562380Y-110029523D02*
X117562380Y-109696190D01*
X118562380Y-109362857D01*
X118562380Y-108505714D02*
X118562380Y-109077142D01*
X118562380Y-108791428D02*
X117562380Y-108791428D01*
X117705238Y-108886666D01*
X117800476Y-108981904D01*
X117848095Y-109077142D01*
M02*
