M48
; DRILL file {KiCad (5.1.0-0)} date Tuesday, December 24, 2019 at 12:01:06 PM
; FORMAT={-:-/ absolute / inch / decimal}
; #@! TF.CreationDate,2019-12-24T12:01:06-08:00
; #@! TF.GenerationSoftware,Kicad,Pcbnew,(5.1.0-0)
FMAT,2
INCH
T1C0.0079
T2C0.0315
T3C0.0394
%
G90
G05
T1
X2.795Y-4.995
X2.995Y-4.96
X3.05Y-4.9764
X3.1117Y-4.04
X3.1762Y-4.9436
X3.715Y-4.0446
X3.715Y-4.355
X3.715Y-4.6
X3.73Y-4.7
X3.7314Y-4.44
X3.75Y-4.1
X3.75Y-4.5446
X3.86Y-4.765
X3.875Y-4.53
X3.875Y-4.7
X3.8914Y-4.66
X3.99Y-4.6446
X4.005Y-4.2446
X4.01Y-4.63
X4.06Y-4.96
X4.155Y-4.04
X4.1714Y-4.0603
X4.1714Y-4.7
X4.1945Y-4.0664
X4.195Y-4.6
X4.2109Y-4.2
X4.211Y-4.2446
X4.85Y-4.995
X4.9Y-4.8
X5.0Y-4.7
X5.05Y-4.975
X5.1Y-4.56
X5.2Y-4.5
X5.25Y-4.1346
X5.3Y-4.4
X5.4Y-4.3
X5.45Y-4.3446
X5.505Y-4.2
X5.55Y-4.4436
X5.6Y-4.1
X5.65Y-4.8564
X5.75Y-4.84
X5.85Y-4.46
X5.95Y-4.36
X6.05Y-4.24
X6.15Y-4.1446
X6.25Y-4.26
X6.2664Y-4.16
T2
X3.2Y-4.0
X3.2Y-4.1
X3.2Y-4.2
X3.2Y-4.3
X3.2Y-4.4
X3.2Y-4.5
X3.2Y-4.6
X3.2Y-4.7
X3.2Y-4.8
X3.2Y-4.9
X3.5Y-4.0
X3.5Y-4.1
X3.5Y-4.2
X3.5Y-4.3
X3.5Y-4.4
X3.5Y-4.5
X3.5Y-4.6
X3.5Y-4.7
X3.5Y-4.8
X3.5Y-4.9
X4.1531Y-3.75
X4.35Y-3.75
X3.65Y-4.0
X3.65Y-4.1
X3.7Y-3.75
X3.8969Y-3.75
X3.65Y-4.2
X3.65Y-4.3
X3.65Y-4.4
X3.65Y-4.5
X3.65Y-4.6
X3.65Y-4.7
X3.65Y-4.8
X3.65Y-4.9
X3.95Y-4.0
X3.95Y-4.1
X3.95Y-4.2
X3.95Y-4.3
X3.95Y-4.4
X3.95Y-4.5
X3.95Y-4.6
X3.95Y-4.7
X3.95Y-4.8
X3.95Y-4.9
X6.1Y-4.9
X6.1787Y-4.9
X4.85Y-4.0
X4.85Y-4.6
X4.95Y-4.0
X4.95Y-4.6
X5.05Y-4.0
X5.05Y-4.6
X5.15Y-4.0
X5.15Y-4.6
X5.25Y-4.0
X5.25Y-4.6
X5.35Y-4.0
X5.35Y-4.6
X5.45Y-4.0
X5.45Y-4.6
X5.55Y-4.0
X5.55Y-4.6
X5.65Y-4.0
X5.65Y-4.6
X5.75Y-4.0
X5.75Y-4.6
X5.85Y-4.0
X5.85Y-4.6
X5.95Y-4.0
X5.95Y-4.6
X6.05Y-4.0
X6.05Y-4.6
X6.15Y-4.0
X6.15Y-4.6
X6.25Y-4.0
X6.25Y-4.6
X2.75Y-4.0
X2.75Y-4.1
X2.75Y-4.2
X2.75Y-4.3
X2.75Y-4.4
X2.75Y-4.5
X2.75Y-4.6
X2.75Y-4.7
X3.05Y-4.0
X3.05Y-4.1
X3.05Y-4.2
X3.05Y-4.3
X3.05Y-4.4
X3.05Y-4.5
X3.05Y-4.6
X3.05Y-4.7
X4.1Y-4.0
X4.1Y-4.1
X4.1Y-4.2
X4.1Y-4.3
X4.1Y-4.4
X4.1Y-4.5
X4.1Y-4.6
X4.1Y-4.7
X4.1Y-4.8
X4.1Y-4.9
X4.4Y-4.0
X4.4Y-4.1
X4.4Y-4.2
X4.4Y-4.3
X4.4Y-4.4
X4.4Y-4.5
X4.4Y-4.6
X4.4Y-4.7
X4.4Y-4.8
X4.4Y-4.9
X2.8031Y-3.75
X3.0Y-3.75
X3.25Y-3.75
X3.4469Y-3.75
T3
X2.55Y-5.15
X2.55Y-5.25
X2.65Y-5.15
X2.65Y-5.25
X2.75Y-5.15
X2.75Y-5.25
X2.85Y-5.15
X2.85Y-5.25
X2.95Y-5.15
X2.95Y-5.25
X3.05Y-5.15
X3.05Y-5.25
X3.15Y-5.15
X3.15Y-5.25
X3.25Y-5.15
X3.25Y-5.25
X3.35Y-5.15
X3.35Y-5.25
X3.45Y-5.15
X3.45Y-5.25
X3.55Y-5.15
X3.55Y-5.25
X3.65Y-5.15
X3.65Y-5.25
X3.75Y-5.15
X3.75Y-5.25
X3.85Y-5.15
X3.85Y-5.25
X3.95Y-5.15
X3.95Y-5.25
X4.05Y-5.15
X4.05Y-5.25
X4.15Y-5.15
X4.15Y-5.25
X4.25Y-5.15
X4.25Y-5.25
X4.35Y-5.15
X4.35Y-5.25
X4.45Y-5.15
X4.45Y-5.25
X4.55Y-5.15
X4.55Y-5.25
X4.65Y-5.15
X4.65Y-5.25
X4.75Y-5.15
X4.75Y-5.25
X4.85Y-5.15
X4.85Y-5.25
X4.95Y-5.15
X4.95Y-5.25
X5.05Y-5.15
X5.05Y-5.25
X5.15Y-5.15
X5.15Y-5.25
X5.25Y-5.15
X5.25Y-5.25
X5.35Y-5.15
X5.35Y-5.25
X5.45Y-5.15
X5.45Y-5.25
X5.55Y-5.15
X5.55Y-5.25
X5.65Y-5.15
X5.65Y-5.25
X5.75Y-5.15
X5.75Y-5.25
X5.85Y-5.15
X5.85Y-5.25
X5.95Y-5.15
X5.95Y-5.25
X6.05Y-5.15
X6.05Y-5.25
X6.15Y-5.15
X6.15Y-5.25
X6.25Y-5.15
X6.25Y-5.25
X6.35Y-5.15
X6.35Y-5.25
X6.45Y-5.15
X6.45Y-5.25
T0
M30
