G04 #@! TF.GenerationSoftware,KiCad,Pcbnew,(5.1.0-0)*
G04 #@! TF.CreationDate,2019-10-13T08:18:26-07:00*
G04 #@! TF.ProjectId,InstructionROMDaughterBoard,496e7374-7275-4637-9469-6f6e524f4d44,rev?*
G04 #@! TF.SameCoordinates,Original*
G04 #@! TF.FileFunction,Legend,Bot*
G04 #@! TF.FilePolarity,Positive*
%FSLAX46Y46*%
G04 Gerber Fmt 4.6, Leading zero omitted, Abs format (unit mm)*
G04 Created by KiCad (PCBNEW (5.1.0-0)) date 2019-10-13 08:18:26*
%MOMM*%
%LPD*%
G04 APERTURE LIST*
%ADD10C,0.150000*%
%ADD11C,0.120000*%
G04 APERTURE END LIST*
D10*
X168982380Y-69136666D02*
X167982380Y-69136666D01*
X168315714Y-69612857D02*
X168982380Y-69612857D01*
X168410952Y-69612857D02*
X168363333Y-69660476D01*
X168315714Y-69755714D01*
X168315714Y-69898571D01*
X168363333Y-69993809D01*
X168458571Y-70041428D01*
X168982380Y-70041428D01*
X168934761Y-70470000D02*
X168982380Y-70565238D01*
X168982380Y-70755714D01*
X168934761Y-70850952D01*
X168839523Y-70898571D01*
X168791904Y-70898571D01*
X168696666Y-70850952D01*
X168649047Y-70755714D01*
X168649047Y-70612857D01*
X168601428Y-70517619D01*
X168506190Y-70470000D01*
X168458571Y-70470000D01*
X168363333Y-70517619D01*
X168315714Y-70612857D01*
X168315714Y-70755714D01*
X168363333Y-70850952D01*
X168315714Y-71184285D02*
X168315714Y-71565238D01*
X167982380Y-71327142D02*
X168839523Y-71327142D01*
X168934761Y-71374761D01*
X168982380Y-71470000D01*
X168982380Y-71565238D01*
X168982380Y-71898571D02*
X168315714Y-71898571D01*
X168506190Y-71898571D02*
X168410952Y-71946190D01*
X168363333Y-71993809D01*
X168315714Y-72089047D01*
X168315714Y-72184285D01*
X168315714Y-72946190D02*
X168982380Y-72946190D01*
X168315714Y-72517619D02*
X168839523Y-72517619D01*
X168934761Y-72565238D01*
X168982380Y-72660476D01*
X168982380Y-72803333D01*
X168934761Y-72898571D01*
X168887142Y-72946190D01*
X168934761Y-73850952D02*
X168982380Y-73755714D01*
X168982380Y-73565238D01*
X168934761Y-73470000D01*
X168887142Y-73422380D01*
X168791904Y-73374761D01*
X168506190Y-73374761D01*
X168410952Y-73422380D01*
X168363333Y-73470000D01*
X168315714Y-73565238D01*
X168315714Y-73755714D01*
X168363333Y-73850952D01*
X168315714Y-74136666D02*
X168315714Y-74517619D01*
X167982380Y-74279523D02*
X168839523Y-74279523D01*
X168934761Y-74327142D01*
X168982380Y-74422380D01*
X168982380Y-74517619D01*
X168982380Y-74850952D02*
X168315714Y-74850952D01*
X167982380Y-74850952D02*
X168030000Y-74803333D01*
X168077619Y-74850952D01*
X168030000Y-74898571D01*
X167982380Y-74850952D01*
X168077619Y-74850952D01*
X168982380Y-75470000D02*
X168934761Y-75374761D01*
X168887142Y-75327142D01*
X168791904Y-75279523D01*
X168506190Y-75279523D01*
X168410952Y-75327142D01*
X168363333Y-75374761D01*
X168315714Y-75470000D01*
X168315714Y-75612857D01*
X168363333Y-75708095D01*
X168410952Y-75755714D01*
X168506190Y-75803333D01*
X168791904Y-75803333D01*
X168887142Y-75755714D01*
X168934761Y-75708095D01*
X168982380Y-75612857D01*
X168982380Y-75470000D01*
X168315714Y-76231904D02*
X168982380Y-76231904D01*
X168410952Y-76231904D02*
X168363333Y-76279523D01*
X168315714Y-76374761D01*
X168315714Y-76517619D01*
X168363333Y-76612857D01*
X168458571Y-76660476D01*
X168982380Y-76660476D01*
X168982380Y-78470000D02*
X168506190Y-78136666D01*
X168982380Y-77898571D02*
X167982380Y-77898571D01*
X167982380Y-78279523D01*
X168030000Y-78374761D01*
X168077619Y-78422380D01*
X168172857Y-78470000D01*
X168315714Y-78470000D01*
X168410952Y-78422380D01*
X168458571Y-78374761D01*
X168506190Y-78279523D01*
X168506190Y-77898571D01*
X167982380Y-79089047D02*
X167982380Y-79279523D01*
X168030000Y-79374761D01*
X168125238Y-79470000D01*
X168315714Y-79517619D01*
X168649047Y-79517619D01*
X168839523Y-79470000D01*
X168934761Y-79374761D01*
X168982380Y-79279523D01*
X168982380Y-79089047D01*
X168934761Y-78993809D01*
X168839523Y-78898571D01*
X168649047Y-78850952D01*
X168315714Y-78850952D01*
X168125238Y-78898571D01*
X168030000Y-78993809D01*
X167982380Y-79089047D01*
X168982380Y-79946190D02*
X167982380Y-79946190D01*
X168696666Y-80279523D01*
X167982380Y-80612857D01*
X168982380Y-80612857D01*
X168934761Y-81136666D02*
X168982380Y-81136666D01*
X169077619Y-81089047D01*
X169125238Y-81041428D01*
X168982380Y-82327142D02*
X168315714Y-82327142D01*
X168506190Y-82327142D02*
X168410952Y-82374761D01*
X168363333Y-82422380D01*
X168315714Y-82517619D01*
X168315714Y-82612857D01*
X168934761Y-83327142D02*
X168982380Y-83231904D01*
X168982380Y-83041428D01*
X168934761Y-82946190D01*
X168839523Y-82898571D01*
X168458571Y-82898571D01*
X168363333Y-82946190D01*
X168315714Y-83041428D01*
X168315714Y-83231904D01*
X168363333Y-83327142D01*
X168458571Y-83374761D01*
X168553809Y-83374761D01*
X168649047Y-82898571D01*
X168315714Y-83708095D02*
X168982380Y-83946190D01*
X168315714Y-84184285D01*
X168982380Y-85850952D02*
X168982380Y-85279523D01*
X168982380Y-85565238D02*
X167982380Y-85565238D01*
X168125238Y-85470000D01*
X168220476Y-85374761D01*
X168268095Y-85279523D01*
X170346666Y-73398571D02*
X170346666Y-73874761D01*
X170632380Y-73303333D02*
X169632380Y-73636666D01*
X170632380Y-73970000D01*
X169965714Y-74303333D02*
X170632380Y-74303333D01*
X170060952Y-74303333D02*
X170013333Y-74350952D01*
X169965714Y-74446190D01*
X169965714Y-74589047D01*
X170013333Y-74684285D01*
X170108571Y-74731904D01*
X170632380Y-74731904D01*
X170632380Y-75636666D02*
X169632380Y-75636666D01*
X170584761Y-75636666D02*
X170632380Y-75541428D01*
X170632380Y-75350952D01*
X170584761Y-75255714D01*
X170537142Y-75208095D01*
X170441904Y-75160476D01*
X170156190Y-75160476D01*
X170060952Y-75208095D01*
X170013333Y-75255714D01*
X169965714Y-75350952D01*
X169965714Y-75541428D01*
X170013333Y-75636666D01*
X170632380Y-76112857D02*
X169965714Y-76112857D01*
X170156190Y-76112857D02*
X170060952Y-76160476D01*
X170013333Y-76208095D01*
X169965714Y-76303333D01*
X169965714Y-76398571D01*
X170584761Y-77112857D02*
X170632380Y-77017619D01*
X170632380Y-76827142D01*
X170584761Y-76731904D01*
X170489523Y-76684285D01*
X170108571Y-76684285D01*
X170013333Y-76731904D01*
X169965714Y-76827142D01*
X169965714Y-77017619D01*
X170013333Y-77112857D01*
X170108571Y-77160476D01*
X170203809Y-77160476D01*
X170299047Y-76684285D01*
X169965714Y-77493809D02*
X170632380Y-77684285D01*
X170156190Y-77874761D01*
X170632380Y-78065238D01*
X169965714Y-78255714D01*
X170108571Y-79731904D02*
X170108571Y-79398571D01*
X170632380Y-79398571D02*
X169632380Y-79398571D01*
X169632380Y-79874761D01*
X170632380Y-80398571D02*
X170584761Y-80303333D01*
X170537142Y-80255714D01*
X170441904Y-80208095D01*
X170156190Y-80208095D01*
X170060952Y-80255714D01*
X170013333Y-80303333D01*
X169965714Y-80398571D01*
X169965714Y-80541428D01*
X170013333Y-80636666D01*
X170060952Y-80684285D01*
X170156190Y-80731904D01*
X170441904Y-80731904D01*
X170537142Y-80684285D01*
X170584761Y-80636666D01*
X170632380Y-80541428D01*
X170632380Y-80398571D01*
X170632380Y-81065238D02*
X169965714Y-81589047D01*
X169965714Y-81065238D02*
X170632380Y-81589047D01*
X171377619Y-75755714D02*
X171330000Y-75803333D01*
X171282380Y-75898571D01*
X171282380Y-76136666D01*
X171330000Y-76231904D01*
X171377619Y-76279523D01*
X171472857Y-76327142D01*
X171568095Y-76327142D01*
X171710952Y-76279523D01*
X172282380Y-75708095D01*
X172282380Y-76327142D01*
X171282380Y-76946190D02*
X171282380Y-77041428D01*
X171330000Y-77136666D01*
X171377619Y-77184285D01*
X171472857Y-77231904D01*
X171663333Y-77279523D01*
X171901428Y-77279523D01*
X172091904Y-77231904D01*
X172187142Y-77184285D01*
X172234761Y-77136666D01*
X172282380Y-77041428D01*
X172282380Y-76946190D01*
X172234761Y-76850952D01*
X172187142Y-76803333D01*
X172091904Y-76755714D01*
X171901428Y-76708095D01*
X171663333Y-76708095D01*
X171472857Y-76755714D01*
X171377619Y-76803333D01*
X171330000Y-76850952D01*
X171282380Y-76946190D01*
X172282380Y-78231904D02*
X172282380Y-77660476D01*
X172282380Y-77946190D02*
X171282380Y-77946190D01*
X171425238Y-77850952D01*
X171520476Y-77755714D01*
X171568095Y-77660476D01*
X172282380Y-78708095D02*
X172282380Y-78898571D01*
X172234761Y-78993809D01*
X172187142Y-79041428D01*
X172044285Y-79136666D01*
X171853809Y-79184285D01*
X171472857Y-79184285D01*
X171377619Y-79136666D01*
X171330000Y-79089047D01*
X171282380Y-78993809D01*
X171282380Y-78803333D01*
X171330000Y-78708095D01*
X171377619Y-78660476D01*
X171472857Y-78612857D01*
X171710952Y-78612857D01*
X171806190Y-78660476D01*
X171853809Y-78708095D01*
X171901428Y-78803333D01*
X171901428Y-78993809D01*
X171853809Y-79089047D01*
X171806190Y-79136666D01*
X171710952Y-79184285D01*
D11*
X133410000Y-100390000D02*
X133410000Y-99060000D01*
X132080000Y-100390000D02*
X133410000Y-100390000D01*
X130810000Y-100390000D02*
X130810000Y-97730000D01*
X130810000Y-97730000D02*
X112970000Y-97730000D01*
X130810000Y-100390000D02*
X112970000Y-100390000D01*
X112970000Y-100390000D02*
X112970000Y-97730000D01*
X168970000Y-100390000D02*
X168970000Y-99060000D01*
X167640000Y-100390000D02*
X168970000Y-100390000D01*
X166370000Y-100390000D02*
X166370000Y-97730000D01*
X166370000Y-97730000D02*
X148530000Y-97730000D01*
X166370000Y-100390000D02*
X148530000Y-100390000D01*
X148530000Y-100390000D02*
X148530000Y-97730000D01*
X135950000Y-57210000D02*
X135950000Y-55880000D01*
X134620000Y-57210000D02*
X135950000Y-57210000D01*
X133350000Y-57210000D02*
X133350000Y-54550000D01*
X133350000Y-54550000D02*
X112970000Y-54550000D01*
X133350000Y-57210000D02*
X112970000Y-57210000D01*
X112970000Y-57210000D02*
X112970000Y-54550000D01*
X171510000Y-57210000D02*
X171510000Y-55880000D01*
X170180000Y-57210000D02*
X171510000Y-57210000D01*
X168910000Y-57210000D02*
X168910000Y-54550000D01*
X168910000Y-54550000D02*
X148530000Y-54550000D01*
X168910000Y-57210000D02*
X148530000Y-57210000D01*
X148530000Y-57210000D02*
X148530000Y-54550000D01*
D10*
X133862380Y-98726666D02*
X134576666Y-98726666D01*
X134719523Y-98679047D01*
X134814761Y-98583809D01*
X134862380Y-98440952D01*
X134862380Y-98345714D01*
X134195714Y-99631428D02*
X134862380Y-99631428D01*
X133814761Y-99393333D02*
X134529047Y-99155238D01*
X134529047Y-99774285D01*
X130483476Y-96972380D02*
X130483476Y-95972380D01*
X129435857Y-96972380D02*
X129769190Y-96496190D01*
X130007285Y-96972380D02*
X130007285Y-95972380D01*
X129626333Y-95972380D01*
X129531095Y-96020000D01*
X129483476Y-96067619D01*
X129435857Y-96162857D01*
X129435857Y-96305714D01*
X129483476Y-96400952D01*
X129531095Y-96448571D01*
X129626333Y-96496190D01*
X130007285Y-96496190D01*
X128816809Y-95972380D02*
X128626333Y-95972380D01*
X128531095Y-96020000D01*
X128435857Y-96115238D01*
X128388238Y-96305714D01*
X128388238Y-96639047D01*
X128435857Y-96829523D01*
X128531095Y-96924761D01*
X128626333Y-96972380D01*
X128816809Y-96972380D01*
X128912047Y-96924761D01*
X129007285Y-96829523D01*
X129054904Y-96639047D01*
X129054904Y-96305714D01*
X129007285Y-96115238D01*
X128912047Y-96020000D01*
X128816809Y-95972380D01*
X127959666Y-96972380D02*
X127959666Y-95972380D01*
X127626333Y-96686666D01*
X127293000Y-95972380D01*
X127293000Y-96972380D01*
X125483476Y-96877142D02*
X125531095Y-96924761D01*
X125673952Y-96972380D01*
X125769190Y-96972380D01*
X125912047Y-96924761D01*
X126007285Y-96829523D01*
X126054904Y-96734285D01*
X126102523Y-96543809D01*
X126102523Y-96400952D01*
X126054904Y-96210476D01*
X126007285Y-96115238D01*
X125912047Y-96020000D01*
X125769190Y-95972380D01*
X125673952Y-95972380D01*
X125531095Y-96020000D01*
X125483476Y-96067619D01*
X124912047Y-96972380D02*
X125007285Y-96924761D01*
X125054904Y-96877142D01*
X125102523Y-96781904D01*
X125102523Y-96496190D01*
X125054904Y-96400952D01*
X125007285Y-96353333D01*
X124912047Y-96305714D01*
X124769190Y-96305714D01*
X124673952Y-96353333D01*
X124626333Y-96400952D01*
X124578714Y-96496190D01*
X124578714Y-96781904D01*
X124626333Y-96877142D01*
X124673952Y-96924761D01*
X124769190Y-96972380D01*
X124912047Y-96972380D01*
X124150142Y-96305714D02*
X124150142Y-96972380D01*
X124150142Y-96400952D02*
X124102523Y-96353333D01*
X124007285Y-96305714D01*
X123864428Y-96305714D01*
X123769190Y-96353333D01*
X123721571Y-96448571D01*
X123721571Y-96972380D01*
X123245380Y-96305714D02*
X123245380Y-96972380D01*
X123245380Y-96400952D02*
X123197761Y-96353333D01*
X123102523Y-96305714D01*
X122959666Y-96305714D01*
X122864428Y-96353333D01*
X122816809Y-96448571D01*
X122816809Y-96972380D01*
X121959666Y-96924761D02*
X122054904Y-96972380D01*
X122245380Y-96972380D01*
X122340619Y-96924761D01*
X122388238Y-96829523D01*
X122388238Y-96448571D01*
X122340619Y-96353333D01*
X122245380Y-96305714D01*
X122054904Y-96305714D01*
X121959666Y-96353333D01*
X121912047Y-96448571D01*
X121912047Y-96543809D01*
X122388238Y-96639047D01*
X121054904Y-96924761D02*
X121150142Y-96972380D01*
X121340619Y-96972380D01*
X121435857Y-96924761D01*
X121483476Y-96877142D01*
X121531095Y-96781904D01*
X121531095Y-96496190D01*
X121483476Y-96400952D01*
X121435857Y-96353333D01*
X121340619Y-96305714D01*
X121150142Y-96305714D01*
X121054904Y-96353333D01*
X120769190Y-96305714D02*
X120388238Y-96305714D01*
X120626333Y-95972380D02*
X120626333Y-96829523D01*
X120578714Y-96924761D01*
X120483476Y-96972380D01*
X120388238Y-96972380D01*
X119912047Y-96972380D02*
X120007285Y-96924761D01*
X120054904Y-96877142D01*
X120102523Y-96781904D01*
X120102523Y-96496190D01*
X120054904Y-96400952D01*
X120007285Y-96353333D01*
X119912047Y-96305714D01*
X119769190Y-96305714D01*
X119673952Y-96353333D01*
X119626333Y-96400952D01*
X119578714Y-96496190D01*
X119578714Y-96781904D01*
X119626333Y-96877142D01*
X119673952Y-96924761D01*
X119769190Y-96972380D01*
X119912047Y-96972380D01*
X119150142Y-96972380D02*
X119150142Y-96305714D01*
X119150142Y-96496190D02*
X119102523Y-96400952D01*
X119054904Y-96353333D01*
X118959666Y-96305714D01*
X118864428Y-96305714D01*
X117483476Y-97305714D02*
X117721571Y-97305714D01*
X117721571Y-95877142D01*
X117483476Y-95877142D01*
X116959666Y-96400952D02*
X117054904Y-96353333D01*
X117102523Y-96305714D01*
X117150142Y-96210476D01*
X117150142Y-96162857D01*
X117102523Y-96067619D01*
X117054904Y-96020000D01*
X116959666Y-95972380D01*
X116769190Y-95972380D01*
X116673952Y-96020000D01*
X116626333Y-96067619D01*
X116578714Y-96162857D01*
X116578714Y-96210476D01*
X116626333Y-96305714D01*
X116673952Y-96353333D01*
X116769190Y-96400952D01*
X116959666Y-96400952D01*
X117054904Y-96448571D01*
X117102523Y-96496190D01*
X117150142Y-96591428D01*
X117150142Y-96781904D01*
X117102523Y-96877142D01*
X117054904Y-96924761D01*
X116959666Y-96972380D01*
X116769190Y-96972380D01*
X116673952Y-96924761D01*
X116626333Y-96877142D01*
X116578714Y-96781904D01*
X116578714Y-96591428D01*
X116626333Y-96496190D01*
X116673952Y-96448571D01*
X116769190Y-96400952D01*
X116150142Y-96877142D02*
X116102523Y-96924761D01*
X116150142Y-96972380D01*
X116197761Y-96924761D01*
X116150142Y-96877142D01*
X116150142Y-96972380D01*
X115673952Y-96877142D02*
X115626333Y-96924761D01*
X115673952Y-96972380D01*
X115721571Y-96924761D01*
X115673952Y-96877142D01*
X115673952Y-96972380D01*
X114673952Y-96972380D02*
X115245380Y-96972380D01*
X114959666Y-96972380D02*
X114959666Y-95972380D01*
X115054904Y-96115238D01*
X115150142Y-96210476D01*
X115245380Y-96258095D01*
X113769190Y-95972380D02*
X114245380Y-95972380D01*
X114293000Y-96448571D01*
X114245380Y-96400952D01*
X114150142Y-96353333D01*
X113912047Y-96353333D01*
X113816809Y-96400952D01*
X113769190Y-96448571D01*
X113721571Y-96543809D01*
X113721571Y-96781904D01*
X113769190Y-96877142D01*
X113816809Y-96924761D01*
X113912047Y-96972380D01*
X114150142Y-96972380D01*
X114245380Y-96924761D01*
X114293000Y-96877142D01*
X113388238Y-97305714D02*
X113150142Y-97305714D01*
X113150142Y-95877142D01*
X113388238Y-95877142D01*
X169422380Y-98726666D02*
X170136666Y-98726666D01*
X170279523Y-98679047D01*
X170374761Y-98583809D01*
X170422380Y-98440952D01*
X170422380Y-98345714D01*
X169422380Y-99107619D02*
X169422380Y-99726666D01*
X169803333Y-99393333D01*
X169803333Y-99536190D01*
X169850952Y-99631428D01*
X169898571Y-99679047D01*
X169993809Y-99726666D01*
X170231904Y-99726666D01*
X170327142Y-99679047D01*
X170374761Y-99631428D01*
X170422380Y-99536190D01*
X170422380Y-99250476D01*
X170374761Y-99155238D01*
X170327142Y-99107619D01*
X165059285Y-96972380D02*
X165059285Y-95972380D01*
X164011666Y-96972380D02*
X164345000Y-96496190D01*
X164583095Y-96972380D02*
X164583095Y-95972380D01*
X164202142Y-95972380D01*
X164106904Y-96020000D01*
X164059285Y-96067619D01*
X164011666Y-96162857D01*
X164011666Y-96305714D01*
X164059285Y-96400952D01*
X164106904Y-96448571D01*
X164202142Y-96496190D01*
X164583095Y-96496190D01*
X163392619Y-95972380D02*
X163202142Y-95972380D01*
X163106904Y-96020000D01*
X163011666Y-96115238D01*
X162964047Y-96305714D01*
X162964047Y-96639047D01*
X163011666Y-96829523D01*
X163106904Y-96924761D01*
X163202142Y-96972380D01*
X163392619Y-96972380D01*
X163487857Y-96924761D01*
X163583095Y-96829523D01*
X163630714Y-96639047D01*
X163630714Y-96305714D01*
X163583095Y-96115238D01*
X163487857Y-96020000D01*
X163392619Y-95972380D01*
X162535476Y-96972380D02*
X162535476Y-95972380D01*
X162202142Y-96686666D01*
X161868809Y-95972380D01*
X161868809Y-96972380D01*
X160059285Y-96877142D02*
X160106904Y-96924761D01*
X160249761Y-96972380D01*
X160345000Y-96972380D01*
X160487857Y-96924761D01*
X160583095Y-96829523D01*
X160630714Y-96734285D01*
X160678333Y-96543809D01*
X160678333Y-96400952D01*
X160630714Y-96210476D01*
X160583095Y-96115238D01*
X160487857Y-96020000D01*
X160345000Y-95972380D01*
X160249761Y-95972380D01*
X160106904Y-96020000D01*
X160059285Y-96067619D01*
X159487857Y-96972380D02*
X159583095Y-96924761D01*
X159630714Y-96877142D01*
X159678333Y-96781904D01*
X159678333Y-96496190D01*
X159630714Y-96400952D01*
X159583095Y-96353333D01*
X159487857Y-96305714D01*
X159345000Y-96305714D01*
X159249761Y-96353333D01*
X159202142Y-96400952D01*
X159154523Y-96496190D01*
X159154523Y-96781904D01*
X159202142Y-96877142D01*
X159249761Y-96924761D01*
X159345000Y-96972380D01*
X159487857Y-96972380D01*
X158725952Y-96305714D02*
X158725952Y-96972380D01*
X158725952Y-96400952D02*
X158678333Y-96353333D01*
X158583095Y-96305714D01*
X158440238Y-96305714D01*
X158345000Y-96353333D01*
X158297380Y-96448571D01*
X158297380Y-96972380D01*
X157821190Y-96305714D02*
X157821190Y-96972380D01*
X157821190Y-96400952D02*
X157773571Y-96353333D01*
X157678333Y-96305714D01*
X157535476Y-96305714D01*
X157440238Y-96353333D01*
X157392619Y-96448571D01*
X157392619Y-96972380D01*
X156535476Y-96924761D02*
X156630714Y-96972380D01*
X156821190Y-96972380D01*
X156916428Y-96924761D01*
X156964047Y-96829523D01*
X156964047Y-96448571D01*
X156916428Y-96353333D01*
X156821190Y-96305714D01*
X156630714Y-96305714D01*
X156535476Y-96353333D01*
X156487857Y-96448571D01*
X156487857Y-96543809D01*
X156964047Y-96639047D01*
X155630714Y-96924761D02*
X155725952Y-96972380D01*
X155916428Y-96972380D01*
X156011666Y-96924761D01*
X156059285Y-96877142D01*
X156106904Y-96781904D01*
X156106904Y-96496190D01*
X156059285Y-96400952D01*
X156011666Y-96353333D01*
X155916428Y-96305714D01*
X155725952Y-96305714D01*
X155630714Y-96353333D01*
X155345000Y-96305714D02*
X154964047Y-96305714D01*
X155202142Y-95972380D02*
X155202142Y-96829523D01*
X155154523Y-96924761D01*
X155059285Y-96972380D01*
X154964047Y-96972380D01*
X154487857Y-96972380D02*
X154583095Y-96924761D01*
X154630714Y-96877142D01*
X154678333Y-96781904D01*
X154678333Y-96496190D01*
X154630714Y-96400952D01*
X154583095Y-96353333D01*
X154487857Y-96305714D01*
X154345000Y-96305714D01*
X154249761Y-96353333D01*
X154202142Y-96400952D01*
X154154523Y-96496190D01*
X154154523Y-96781904D01*
X154202142Y-96877142D01*
X154249761Y-96924761D01*
X154345000Y-96972380D01*
X154487857Y-96972380D01*
X153725952Y-96972380D02*
X153725952Y-96305714D01*
X153725952Y-96496190D02*
X153678333Y-96400952D01*
X153630714Y-96353333D01*
X153535476Y-96305714D01*
X153440238Y-96305714D01*
X152059285Y-97305714D02*
X152297380Y-97305714D01*
X152297380Y-95877142D01*
X152059285Y-95877142D01*
X151487857Y-95972380D02*
X151392619Y-95972380D01*
X151297380Y-96020000D01*
X151249761Y-96067619D01*
X151202142Y-96162857D01*
X151154523Y-96353333D01*
X151154523Y-96591428D01*
X151202142Y-96781904D01*
X151249761Y-96877142D01*
X151297380Y-96924761D01*
X151392619Y-96972380D01*
X151487857Y-96972380D01*
X151583095Y-96924761D01*
X151630714Y-96877142D01*
X151678333Y-96781904D01*
X151725952Y-96591428D01*
X151725952Y-96353333D01*
X151678333Y-96162857D01*
X151630714Y-96067619D01*
X151583095Y-96020000D01*
X151487857Y-95972380D01*
X150725952Y-96877142D02*
X150678333Y-96924761D01*
X150725952Y-96972380D01*
X150773571Y-96924761D01*
X150725952Y-96877142D01*
X150725952Y-96972380D01*
X150249761Y-96877142D02*
X150202142Y-96924761D01*
X150249761Y-96972380D01*
X150297380Y-96924761D01*
X150249761Y-96877142D01*
X150249761Y-96972380D01*
X149868809Y-95972380D02*
X149202142Y-95972380D01*
X149630714Y-96972380D01*
X148916428Y-97305714D02*
X148678333Y-97305714D01*
X148678333Y-95877142D01*
X148916428Y-95877142D01*
X136402380Y-55546666D02*
X137116666Y-55546666D01*
X137259523Y-55499047D01*
X137354761Y-55403809D01*
X137402380Y-55260952D01*
X137402380Y-55165714D01*
X136497619Y-55975238D02*
X136450000Y-56022857D01*
X136402380Y-56118095D01*
X136402380Y-56356190D01*
X136450000Y-56451428D01*
X136497619Y-56499047D01*
X136592857Y-56546666D01*
X136688095Y-56546666D01*
X136830952Y-56499047D01*
X137402380Y-55927619D01*
X137402380Y-56546666D01*
X131221619Y-58872380D02*
X131221619Y-57872380D01*
X130840666Y-57872380D01*
X130745428Y-57920000D01*
X130697809Y-57967619D01*
X130650190Y-58062857D01*
X130650190Y-58205714D01*
X130697809Y-58300952D01*
X130745428Y-58348571D01*
X130840666Y-58396190D01*
X131221619Y-58396190D01*
X129650190Y-58777142D02*
X129697809Y-58824761D01*
X129840666Y-58872380D01*
X129935904Y-58872380D01*
X130078761Y-58824761D01*
X130174000Y-58729523D01*
X130221619Y-58634285D01*
X130269238Y-58443809D01*
X130269238Y-58300952D01*
X130221619Y-58110476D01*
X130174000Y-58015238D01*
X130078761Y-57920000D01*
X129935904Y-57872380D01*
X129840666Y-57872380D01*
X129697809Y-57920000D01*
X129650190Y-57967619D01*
X128507333Y-57824761D02*
X129364476Y-59110476D01*
X128174000Y-58872380D02*
X128174000Y-57872380D01*
X127364476Y-58348571D02*
X127697809Y-58348571D01*
X127697809Y-58872380D02*
X127697809Y-57872380D01*
X127221619Y-57872380D01*
X125507333Y-58777142D02*
X125554952Y-58824761D01*
X125697809Y-58872380D01*
X125793047Y-58872380D01*
X125935904Y-58824761D01*
X126031142Y-58729523D01*
X126078761Y-58634285D01*
X126126380Y-58443809D01*
X126126380Y-58300952D01*
X126078761Y-58110476D01*
X126031142Y-58015238D01*
X125935904Y-57920000D01*
X125793047Y-57872380D01*
X125697809Y-57872380D01*
X125554952Y-57920000D01*
X125507333Y-57967619D01*
X124935904Y-58872380D02*
X125031142Y-58824761D01*
X125078761Y-58777142D01*
X125126380Y-58681904D01*
X125126380Y-58396190D01*
X125078761Y-58300952D01*
X125031142Y-58253333D01*
X124935904Y-58205714D01*
X124793047Y-58205714D01*
X124697809Y-58253333D01*
X124650190Y-58300952D01*
X124602571Y-58396190D01*
X124602571Y-58681904D01*
X124650190Y-58777142D01*
X124697809Y-58824761D01*
X124793047Y-58872380D01*
X124935904Y-58872380D01*
X124174000Y-58205714D02*
X124174000Y-58872380D01*
X124174000Y-58300952D02*
X124126380Y-58253333D01*
X124031142Y-58205714D01*
X123888285Y-58205714D01*
X123793047Y-58253333D01*
X123745428Y-58348571D01*
X123745428Y-58872380D01*
X123269238Y-58205714D02*
X123269238Y-58872380D01*
X123269238Y-58300952D02*
X123221619Y-58253333D01*
X123126380Y-58205714D01*
X122983523Y-58205714D01*
X122888285Y-58253333D01*
X122840666Y-58348571D01*
X122840666Y-58872380D01*
X121983523Y-58824761D02*
X122078761Y-58872380D01*
X122269238Y-58872380D01*
X122364476Y-58824761D01*
X122412095Y-58729523D01*
X122412095Y-58348571D01*
X122364476Y-58253333D01*
X122269238Y-58205714D01*
X122078761Y-58205714D01*
X121983523Y-58253333D01*
X121935904Y-58348571D01*
X121935904Y-58443809D01*
X122412095Y-58539047D01*
X121078761Y-58824761D02*
X121174000Y-58872380D01*
X121364476Y-58872380D01*
X121459714Y-58824761D01*
X121507333Y-58777142D01*
X121554952Y-58681904D01*
X121554952Y-58396190D01*
X121507333Y-58300952D01*
X121459714Y-58253333D01*
X121364476Y-58205714D01*
X121174000Y-58205714D01*
X121078761Y-58253333D01*
X120793047Y-58205714D02*
X120412095Y-58205714D01*
X120650190Y-57872380D02*
X120650190Y-58729523D01*
X120602571Y-58824761D01*
X120507333Y-58872380D01*
X120412095Y-58872380D01*
X119935904Y-58872380D02*
X120031142Y-58824761D01*
X120078761Y-58777142D01*
X120126380Y-58681904D01*
X120126380Y-58396190D01*
X120078761Y-58300952D01*
X120031142Y-58253333D01*
X119935904Y-58205714D01*
X119793047Y-58205714D01*
X119697809Y-58253333D01*
X119650190Y-58300952D01*
X119602571Y-58396190D01*
X119602571Y-58681904D01*
X119650190Y-58777142D01*
X119697809Y-58824761D01*
X119793047Y-58872380D01*
X119935904Y-58872380D01*
X119174000Y-58872380D02*
X119174000Y-58205714D01*
X119174000Y-58396190D02*
X119126380Y-58300952D01*
X119078761Y-58253333D01*
X118983523Y-58205714D01*
X118888285Y-58205714D01*
X117507333Y-59205714D02*
X117745428Y-59205714D01*
X117745428Y-57777142D01*
X117507333Y-57777142D01*
X116983523Y-58300952D02*
X117078761Y-58253333D01*
X117126380Y-58205714D01*
X117174000Y-58110476D01*
X117174000Y-58062857D01*
X117126380Y-57967619D01*
X117078761Y-57920000D01*
X116983523Y-57872380D01*
X116793047Y-57872380D01*
X116697809Y-57920000D01*
X116650190Y-57967619D01*
X116602571Y-58062857D01*
X116602571Y-58110476D01*
X116650190Y-58205714D01*
X116697809Y-58253333D01*
X116793047Y-58300952D01*
X116983523Y-58300952D01*
X117078761Y-58348571D01*
X117126380Y-58396190D01*
X117174000Y-58491428D01*
X117174000Y-58681904D01*
X117126380Y-58777142D01*
X117078761Y-58824761D01*
X116983523Y-58872380D01*
X116793047Y-58872380D01*
X116697809Y-58824761D01*
X116650190Y-58777142D01*
X116602571Y-58681904D01*
X116602571Y-58491428D01*
X116650190Y-58396190D01*
X116697809Y-58348571D01*
X116793047Y-58300952D01*
X116174000Y-58777142D02*
X116126380Y-58824761D01*
X116174000Y-58872380D01*
X116221619Y-58824761D01*
X116174000Y-58777142D01*
X116174000Y-58872380D01*
X115697809Y-58777142D02*
X115650190Y-58824761D01*
X115697809Y-58872380D01*
X115745428Y-58824761D01*
X115697809Y-58777142D01*
X115697809Y-58872380D01*
X114697809Y-58872380D02*
X115269238Y-58872380D01*
X114983523Y-58872380D02*
X114983523Y-57872380D01*
X115078761Y-58015238D01*
X115174000Y-58110476D01*
X115269238Y-58158095D01*
X113793047Y-57872380D02*
X114269238Y-57872380D01*
X114316857Y-58348571D01*
X114269238Y-58300952D01*
X114174000Y-58253333D01*
X113935904Y-58253333D01*
X113840666Y-58300952D01*
X113793047Y-58348571D01*
X113745428Y-58443809D01*
X113745428Y-58681904D01*
X113793047Y-58777142D01*
X113840666Y-58824761D01*
X113935904Y-58872380D01*
X114174000Y-58872380D01*
X114269238Y-58824761D01*
X114316857Y-58777142D01*
X113412095Y-59205714D02*
X113174000Y-59205714D01*
X113174000Y-57777142D01*
X113412095Y-57777142D01*
X171962380Y-55546666D02*
X172676666Y-55546666D01*
X172819523Y-55499047D01*
X172914761Y-55403809D01*
X172962380Y-55260952D01*
X172962380Y-55165714D01*
X172962380Y-56546666D02*
X172962380Y-55975238D01*
X172962380Y-56260952D02*
X171962380Y-56260952D01*
X172105238Y-56165714D01*
X172200476Y-56070476D01*
X172248095Y-55975238D01*
X165797428Y-58872380D02*
X165797428Y-57872380D01*
X165416476Y-57872380D01*
X165321238Y-57920000D01*
X165273619Y-57967619D01*
X165226000Y-58062857D01*
X165226000Y-58205714D01*
X165273619Y-58300952D01*
X165321238Y-58348571D01*
X165416476Y-58396190D01*
X165797428Y-58396190D01*
X164226000Y-58777142D02*
X164273619Y-58824761D01*
X164416476Y-58872380D01*
X164511714Y-58872380D01*
X164654571Y-58824761D01*
X164749809Y-58729523D01*
X164797428Y-58634285D01*
X164845047Y-58443809D01*
X164845047Y-58300952D01*
X164797428Y-58110476D01*
X164749809Y-58015238D01*
X164654571Y-57920000D01*
X164511714Y-57872380D01*
X164416476Y-57872380D01*
X164273619Y-57920000D01*
X164226000Y-57967619D01*
X163083142Y-57824761D02*
X163940285Y-59110476D01*
X162749809Y-58872380D02*
X162749809Y-57872380D01*
X161940285Y-58348571D02*
X162273619Y-58348571D01*
X162273619Y-58872380D02*
X162273619Y-57872380D01*
X161797428Y-57872380D01*
X160083142Y-58777142D02*
X160130761Y-58824761D01*
X160273619Y-58872380D01*
X160368857Y-58872380D01*
X160511714Y-58824761D01*
X160606952Y-58729523D01*
X160654571Y-58634285D01*
X160702190Y-58443809D01*
X160702190Y-58300952D01*
X160654571Y-58110476D01*
X160606952Y-58015238D01*
X160511714Y-57920000D01*
X160368857Y-57872380D01*
X160273619Y-57872380D01*
X160130761Y-57920000D01*
X160083142Y-57967619D01*
X159511714Y-58872380D02*
X159606952Y-58824761D01*
X159654571Y-58777142D01*
X159702190Y-58681904D01*
X159702190Y-58396190D01*
X159654571Y-58300952D01*
X159606952Y-58253333D01*
X159511714Y-58205714D01*
X159368857Y-58205714D01*
X159273619Y-58253333D01*
X159226000Y-58300952D01*
X159178380Y-58396190D01*
X159178380Y-58681904D01*
X159226000Y-58777142D01*
X159273619Y-58824761D01*
X159368857Y-58872380D01*
X159511714Y-58872380D01*
X158749809Y-58205714D02*
X158749809Y-58872380D01*
X158749809Y-58300952D02*
X158702190Y-58253333D01*
X158606952Y-58205714D01*
X158464095Y-58205714D01*
X158368857Y-58253333D01*
X158321238Y-58348571D01*
X158321238Y-58872380D01*
X157845047Y-58205714D02*
X157845047Y-58872380D01*
X157845047Y-58300952D02*
X157797428Y-58253333D01*
X157702190Y-58205714D01*
X157559333Y-58205714D01*
X157464095Y-58253333D01*
X157416476Y-58348571D01*
X157416476Y-58872380D01*
X156559333Y-58824761D02*
X156654571Y-58872380D01*
X156845047Y-58872380D01*
X156940285Y-58824761D01*
X156987904Y-58729523D01*
X156987904Y-58348571D01*
X156940285Y-58253333D01*
X156845047Y-58205714D01*
X156654571Y-58205714D01*
X156559333Y-58253333D01*
X156511714Y-58348571D01*
X156511714Y-58443809D01*
X156987904Y-58539047D01*
X155654571Y-58824761D02*
X155749809Y-58872380D01*
X155940285Y-58872380D01*
X156035523Y-58824761D01*
X156083142Y-58777142D01*
X156130761Y-58681904D01*
X156130761Y-58396190D01*
X156083142Y-58300952D01*
X156035523Y-58253333D01*
X155940285Y-58205714D01*
X155749809Y-58205714D01*
X155654571Y-58253333D01*
X155368857Y-58205714D02*
X154987904Y-58205714D01*
X155226000Y-57872380D02*
X155226000Y-58729523D01*
X155178380Y-58824761D01*
X155083142Y-58872380D01*
X154987904Y-58872380D01*
X154511714Y-58872380D02*
X154606952Y-58824761D01*
X154654571Y-58777142D01*
X154702190Y-58681904D01*
X154702190Y-58396190D01*
X154654571Y-58300952D01*
X154606952Y-58253333D01*
X154511714Y-58205714D01*
X154368857Y-58205714D01*
X154273619Y-58253333D01*
X154226000Y-58300952D01*
X154178380Y-58396190D01*
X154178380Y-58681904D01*
X154226000Y-58777142D01*
X154273619Y-58824761D01*
X154368857Y-58872380D01*
X154511714Y-58872380D01*
X153749809Y-58872380D02*
X153749809Y-58205714D01*
X153749809Y-58396190D02*
X153702190Y-58300952D01*
X153654571Y-58253333D01*
X153559333Y-58205714D01*
X153464095Y-58205714D01*
X152083142Y-59205714D02*
X152321238Y-59205714D01*
X152321238Y-57777142D01*
X152083142Y-57777142D01*
X151511714Y-57872380D02*
X151416476Y-57872380D01*
X151321238Y-57920000D01*
X151273619Y-57967619D01*
X151226000Y-58062857D01*
X151178380Y-58253333D01*
X151178380Y-58491428D01*
X151226000Y-58681904D01*
X151273619Y-58777142D01*
X151321238Y-58824761D01*
X151416476Y-58872380D01*
X151511714Y-58872380D01*
X151606952Y-58824761D01*
X151654571Y-58777142D01*
X151702190Y-58681904D01*
X151749809Y-58491428D01*
X151749809Y-58253333D01*
X151702190Y-58062857D01*
X151654571Y-57967619D01*
X151606952Y-57920000D01*
X151511714Y-57872380D01*
X150749809Y-58777142D02*
X150702190Y-58824761D01*
X150749809Y-58872380D01*
X150797428Y-58824761D01*
X150749809Y-58777142D01*
X150749809Y-58872380D01*
X150273619Y-58777142D02*
X150226000Y-58824761D01*
X150273619Y-58872380D01*
X150321238Y-58824761D01*
X150273619Y-58777142D01*
X150273619Y-58872380D01*
X149892666Y-57872380D02*
X149226000Y-57872380D01*
X149654571Y-58872380D01*
X148940285Y-59205714D02*
X148702190Y-59205714D01*
X148702190Y-57777142D01*
X148940285Y-57777142D01*
M02*
