G04 #@! TF.GenerationSoftware,KiCad,Pcbnew,(5.1.0-0)*
G04 #@! TF.CreationDate,2020-09-03T22:49:36-07:00*
G04 #@! TF.ProjectId,SoundCard,536f756e-6443-4617-9264-2e6b69636164,rev?*
G04 #@! TF.SameCoordinates,Original*
G04 #@! TF.FileFunction,Legend,Bot*
G04 #@! TF.FilePolarity,Positive*
%FSLAX46Y46*%
G04 Gerber Fmt 4.6, Leading zero omitted, Abs format (unit mm)*
G04 Created by KiCad (PCBNEW (5.1.0-0)) date 2020-09-03 22:49:36*
%MOMM*%
%LPD*%
G04 APERTURE LIST*
%ADD10C,0.300000*%
%ADD11C,0.120000*%
%ADD12C,0.150000*%
G04 APERTURE END LIST*
D10*
X89140171Y-104386914D02*
X89283028Y-104315485D01*
X89568742Y-104315485D01*
X89711600Y-104386914D01*
X89854457Y-104529771D01*
X89925885Y-104672628D01*
X89925885Y-104958342D01*
X89854457Y-105101200D01*
X89711600Y-105244057D01*
X89568742Y-105315485D01*
X89283028Y-105315485D01*
X89140171Y-105244057D01*
X89425885Y-103815485D02*
X89783028Y-103886914D01*
X90140171Y-104101200D01*
X90354457Y-104458342D01*
X90425885Y-104815485D01*
X90354457Y-105172628D01*
X90140171Y-105529771D01*
X89783028Y-105744057D01*
X89425885Y-105815485D01*
X89068742Y-105744057D01*
X88711600Y-105529771D01*
X88497314Y-105172628D01*
X88425885Y-104815485D01*
X88497314Y-104458342D01*
X88711600Y-104101200D01*
X89068742Y-103886914D01*
X89425885Y-103815485D01*
X86711600Y-104172628D02*
X86640171Y-104101200D01*
X86497314Y-104029771D01*
X86140171Y-104029771D01*
X85997314Y-104101200D01*
X85925885Y-104172628D01*
X85854457Y-104315485D01*
X85854457Y-104458342D01*
X85925885Y-104672628D01*
X86783028Y-105529771D01*
X85854457Y-105529771D01*
X84925885Y-104029771D02*
X84783028Y-104029771D01*
X84640171Y-104101200D01*
X84568742Y-104172628D01*
X84497314Y-104315485D01*
X84425885Y-104601200D01*
X84425885Y-104958342D01*
X84497314Y-105244057D01*
X84568742Y-105386914D01*
X84640171Y-105458342D01*
X84783028Y-105529771D01*
X84925885Y-105529771D01*
X85068742Y-105458342D01*
X85140171Y-105386914D01*
X85211600Y-105244057D01*
X85283028Y-104958342D01*
X85283028Y-104601200D01*
X85211600Y-104315485D01*
X85140171Y-104172628D01*
X85068742Y-104101200D01*
X84925885Y-104029771D01*
X83854457Y-104172628D02*
X83783028Y-104101200D01*
X83640171Y-104029771D01*
X83283028Y-104029771D01*
X83140171Y-104101200D01*
X83068742Y-104172628D01*
X82997314Y-104315485D01*
X82997314Y-104458342D01*
X83068742Y-104672628D01*
X83925885Y-105529771D01*
X82997314Y-105529771D01*
X82068742Y-104029771D02*
X81925885Y-104029771D01*
X81783028Y-104101200D01*
X81711600Y-104172628D01*
X81640171Y-104315485D01*
X81568742Y-104601200D01*
X81568742Y-104958342D01*
X81640171Y-105244057D01*
X81711600Y-105386914D01*
X81783028Y-105458342D01*
X81925885Y-105529771D01*
X82068742Y-105529771D01*
X82211600Y-105458342D01*
X82283028Y-105386914D01*
X82354457Y-105244057D01*
X82425885Y-104958342D01*
X82425885Y-104601200D01*
X82354457Y-104315485D01*
X82283028Y-104172628D01*
X82211600Y-104101200D01*
X82068742Y-104029771D01*
X79854457Y-105101200D02*
X79140171Y-105101200D01*
X79997314Y-105529771D02*
X79497314Y-104029771D01*
X78997314Y-105529771D01*
X78497314Y-104529771D02*
X78497314Y-105529771D01*
X78497314Y-104672628D02*
X78425885Y-104601200D01*
X78283028Y-104529771D01*
X78068742Y-104529771D01*
X77925885Y-104601200D01*
X77854457Y-104744057D01*
X77854457Y-105529771D01*
X76497314Y-105529771D02*
X76497314Y-104029771D01*
X76497314Y-105458342D02*
X76640171Y-105529771D01*
X76925885Y-105529771D01*
X77068742Y-105458342D01*
X77140171Y-105386914D01*
X77211600Y-105244057D01*
X77211600Y-104815485D01*
X77140171Y-104672628D01*
X77068742Y-104601200D01*
X76925885Y-104529771D01*
X76640171Y-104529771D01*
X76497314Y-104601200D01*
X75783028Y-105529771D02*
X75783028Y-104529771D01*
X75783028Y-104815485D02*
X75711600Y-104672628D01*
X75640171Y-104601200D01*
X75497314Y-104529771D01*
X75354457Y-104529771D01*
X74283028Y-105458342D02*
X74425885Y-105529771D01*
X74711600Y-105529771D01*
X74854457Y-105458342D01*
X74925885Y-105315485D01*
X74925885Y-104744057D01*
X74854457Y-104601200D01*
X74711600Y-104529771D01*
X74425885Y-104529771D01*
X74283028Y-104601200D01*
X74211600Y-104744057D01*
X74211600Y-104886914D01*
X74925885Y-105029771D01*
X73711600Y-104529771D02*
X73425885Y-105529771D01*
X73140171Y-104815485D01*
X72854457Y-105529771D01*
X72568742Y-104529771D01*
X70354457Y-104744057D02*
X70854457Y-104744057D01*
X70854457Y-105529771D02*
X70854457Y-104029771D01*
X70140171Y-104029771D01*
X69354457Y-105529771D02*
X69497314Y-105458342D01*
X69568742Y-105386914D01*
X69640171Y-105244057D01*
X69640171Y-104815485D01*
X69568742Y-104672628D01*
X69497314Y-104601200D01*
X69354457Y-104529771D01*
X69140171Y-104529771D01*
X68997314Y-104601200D01*
X68925885Y-104672628D01*
X68854457Y-104815485D01*
X68854457Y-105244057D01*
X68925885Y-105386914D01*
X68997314Y-105458342D01*
X69140171Y-105529771D01*
X69354457Y-105529771D01*
X68354457Y-105529771D02*
X67568742Y-104529771D01*
X68354457Y-104529771D02*
X67568742Y-105529771D01*
X90425885Y-107998342D02*
X90211600Y-108069771D01*
X89854457Y-108069771D01*
X89711600Y-107998342D01*
X89640171Y-107926914D01*
X89568742Y-107784057D01*
X89568742Y-107641200D01*
X89640171Y-107498342D01*
X89711600Y-107426914D01*
X89854457Y-107355485D01*
X90140171Y-107284057D01*
X90283028Y-107212628D01*
X90354457Y-107141200D01*
X90425885Y-106998342D01*
X90425885Y-106855485D01*
X90354457Y-106712628D01*
X90283028Y-106641200D01*
X90140171Y-106569771D01*
X89783028Y-106569771D01*
X89568742Y-106641200D01*
X88711600Y-108069771D02*
X88854457Y-107998342D01*
X88925885Y-107926914D01*
X88997314Y-107784057D01*
X88997314Y-107355485D01*
X88925885Y-107212628D01*
X88854457Y-107141200D01*
X88711600Y-107069771D01*
X88497314Y-107069771D01*
X88354457Y-107141200D01*
X88283028Y-107212628D01*
X88211600Y-107355485D01*
X88211600Y-107784057D01*
X88283028Y-107926914D01*
X88354457Y-107998342D01*
X88497314Y-108069771D01*
X88711600Y-108069771D01*
X86925885Y-107069771D02*
X86925885Y-108069771D01*
X87568742Y-107069771D02*
X87568742Y-107855485D01*
X87497314Y-107998342D01*
X87354457Y-108069771D01*
X87140171Y-108069771D01*
X86997314Y-107998342D01*
X86925885Y-107926914D01*
X86211600Y-107069771D02*
X86211600Y-108069771D01*
X86211600Y-107212628D02*
X86140171Y-107141200D01*
X85997314Y-107069771D01*
X85783028Y-107069771D01*
X85640171Y-107141200D01*
X85568742Y-107284057D01*
X85568742Y-108069771D01*
X84211600Y-108069771D02*
X84211600Y-106569771D01*
X84211600Y-107998342D02*
X84354457Y-108069771D01*
X84640171Y-108069771D01*
X84783028Y-107998342D01*
X84854457Y-107926914D01*
X84925885Y-107784057D01*
X84925885Y-107355485D01*
X84854457Y-107212628D01*
X84783028Y-107141200D01*
X84640171Y-107069771D01*
X84354457Y-107069771D01*
X84211600Y-107141200D01*
X81497314Y-107926914D02*
X81568742Y-107998342D01*
X81783028Y-108069771D01*
X81925885Y-108069771D01*
X82140171Y-107998342D01*
X82283028Y-107855485D01*
X82354457Y-107712628D01*
X82425885Y-107426914D01*
X82425885Y-107212628D01*
X82354457Y-106926914D01*
X82283028Y-106784057D01*
X82140171Y-106641200D01*
X81925885Y-106569771D01*
X81783028Y-106569771D01*
X81568742Y-106641200D01*
X81497314Y-106712628D01*
X80211600Y-108069771D02*
X80211600Y-107284057D01*
X80283028Y-107141200D01*
X80425885Y-107069771D01*
X80711600Y-107069771D01*
X80854457Y-107141200D01*
X80211600Y-107998342D02*
X80354457Y-108069771D01*
X80711600Y-108069771D01*
X80854457Y-107998342D01*
X80925885Y-107855485D01*
X80925885Y-107712628D01*
X80854457Y-107569771D01*
X80711600Y-107498342D01*
X80354457Y-107498342D01*
X80211600Y-107426914D01*
X79497314Y-108069771D02*
X79497314Y-107069771D01*
X79497314Y-107355485D02*
X79425885Y-107212628D01*
X79354457Y-107141200D01*
X79211600Y-107069771D01*
X79068742Y-107069771D01*
X77925885Y-108069771D02*
X77925885Y-106569771D01*
X77925885Y-107998342D02*
X78068742Y-108069771D01*
X78354457Y-108069771D01*
X78497314Y-107998342D01*
X78568742Y-107926914D01*
X78640171Y-107784057D01*
X78640171Y-107355485D01*
X78568742Y-107212628D01*
X78497314Y-107141200D01*
X78354457Y-107069771D01*
X78068742Y-107069771D01*
X77925885Y-107141200D01*
X77140171Y-107998342D02*
X77140171Y-108069771D01*
X77211600Y-108212628D01*
X77283028Y-108284057D01*
X74497314Y-108069771D02*
X74997314Y-107355485D01*
X75354457Y-108069771D02*
X75354457Y-106569771D01*
X74783028Y-106569771D01*
X74640171Y-106641200D01*
X74568742Y-106712628D01*
X74497314Y-106855485D01*
X74497314Y-107069771D01*
X74568742Y-107212628D01*
X74640171Y-107284057D01*
X74783028Y-107355485D01*
X75354457Y-107355485D01*
X73283028Y-107998342D02*
X73425885Y-108069771D01*
X73711600Y-108069771D01*
X73854457Y-107998342D01*
X73925885Y-107855485D01*
X73925885Y-107284057D01*
X73854457Y-107141200D01*
X73711600Y-107069771D01*
X73425885Y-107069771D01*
X73283028Y-107141200D01*
X73211600Y-107284057D01*
X73211600Y-107426914D01*
X73925885Y-107569771D01*
X72711600Y-107069771D02*
X72354457Y-108069771D01*
X71997314Y-107069771D01*
X70425885Y-106569771D02*
X69497314Y-106569771D01*
X69997314Y-107141200D01*
X69783028Y-107141200D01*
X69640171Y-107212628D01*
X69568742Y-107284057D01*
X69497314Y-107426914D01*
X69497314Y-107784057D01*
X69568742Y-107926914D01*
X69640171Y-107998342D01*
X69783028Y-108069771D01*
X70211600Y-108069771D01*
X70354457Y-107998342D01*
X70425885Y-107926914D01*
D11*
X118573733Y-122934000D02*
X118916267Y-122934000D01*
X118573733Y-123954000D02*
X118916267Y-123954000D01*
X133051733Y-123188000D02*
X133394267Y-123188000D01*
X133051733Y-124208000D02*
X133394267Y-124208000D01*
X143846733Y-123315000D02*
X144189267Y-123315000D01*
X143846733Y-124335000D02*
X144189267Y-124335000D01*
D12*
X119387857Y-125325142D02*
X119435476Y-125372761D01*
X119578333Y-125420380D01*
X119673571Y-125420380D01*
X119816428Y-125372761D01*
X119911666Y-125277523D01*
X119959285Y-125182285D01*
X120006904Y-124991809D01*
X120006904Y-124848952D01*
X119959285Y-124658476D01*
X119911666Y-124563238D01*
X119816428Y-124468000D01*
X119673571Y-124420380D01*
X119578333Y-124420380D01*
X119435476Y-124468000D01*
X119387857Y-124515619D01*
X118435476Y-125420380D02*
X119006904Y-125420380D01*
X118721190Y-125420380D02*
X118721190Y-124420380D01*
X118816428Y-124563238D01*
X118911666Y-124658476D01*
X119006904Y-124706095D01*
X117816428Y-124420380D02*
X117721190Y-124420380D01*
X117625952Y-124468000D01*
X117578333Y-124515619D01*
X117530714Y-124610857D01*
X117483095Y-124801333D01*
X117483095Y-125039428D01*
X117530714Y-125229904D01*
X117578333Y-125325142D01*
X117625952Y-125372761D01*
X117721190Y-125420380D01*
X117816428Y-125420380D01*
X117911666Y-125372761D01*
X117959285Y-125325142D01*
X118006904Y-125229904D01*
X118054523Y-125039428D01*
X118054523Y-124801333D01*
X118006904Y-124610857D01*
X117959285Y-124515619D01*
X117911666Y-124468000D01*
X117816428Y-124420380D01*
X133389666Y-125485142D02*
X133437285Y-125532761D01*
X133580142Y-125580380D01*
X133675380Y-125580380D01*
X133818238Y-125532761D01*
X133913476Y-125437523D01*
X133961095Y-125342285D01*
X134008714Y-125151809D01*
X134008714Y-125008952D01*
X133961095Y-124818476D01*
X133913476Y-124723238D01*
X133818238Y-124628000D01*
X133675380Y-124580380D01*
X133580142Y-124580380D01*
X133437285Y-124628000D01*
X133389666Y-124675619D01*
X133056333Y-124580380D02*
X132437285Y-124580380D01*
X132770619Y-124961333D01*
X132627761Y-124961333D01*
X132532523Y-125008952D01*
X132484904Y-125056571D01*
X132437285Y-125151809D01*
X132437285Y-125389904D01*
X132484904Y-125485142D01*
X132532523Y-125532761D01*
X132627761Y-125580380D01*
X132913476Y-125580380D01*
X133008714Y-125532761D01*
X133056333Y-125485142D01*
X144184666Y-125612142D02*
X144232285Y-125659761D01*
X144375142Y-125707380D01*
X144470380Y-125707380D01*
X144613238Y-125659761D01*
X144708476Y-125564523D01*
X144756095Y-125469285D01*
X144803714Y-125278809D01*
X144803714Y-125135952D01*
X144756095Y-124945476D01*
X144708476Y-124850238D01*
X144613238Y-124755000D01*
X144470380Y-124707380D01*
X144375142Y-124707380D01*
X144232285Y-124755000D01*
X144184666Y-124802619D01*
X143803714Y-124802619D02*
X143756095Y-124755000D01*
X143660857Y-124707380D01*
X143422761Y-124707380D01*
X143327523Y-124755000D01*
X143279904Y-124802619D01*
X143232285Y-124897857D01*
X143232285Y-124993095D01*
X143279904Y-125135952D01*
X143851333Y-125707380D01*
X143232285Y-125707380D01*
M02*
