G04 #@! TF.GenerationSoftware,KiCad,Pcbnew,(5.1.0-0)*
G04 #@! TF.CreationDate,2020-05-13T15:52:23-07:00*
G04 #@! TF.ProjectId,SoundCard,536f756e-6443-4617-9264-2e6b69636164,rev?*
G04 #@! TF.SameCoordinates,Original*
G04 #@! TF.FileFunction,Copper,L1,Top*
G04 #@! TF.FilePolarity,Positive*
%FSLAX46Y46*%
G04 Gerber Fmt 4.6, Leading zero omitted, Abs format (unit mm)*
G04 Created by KiCad (PCBNEW (5.1.0-0)) date 2020-05-13 15:52:23*
%MOMM*%
%LPD*%
G04 APERTURE LIST*
%ADD10O,1.700000X1.700000*%
%ADD11R,1.700000X1.700000*%
%ADD12O,1.600000X1.600000*%
%ADD13R,1.600000X1.600000*%
%ADD14C,1.620000*%
%ADD15C,1.600000*%
%ADD16R,1.050000X1.500000*%
%ADD17O,1.050000X1.500000*%
%ADD18C,2.500000*%
%ADD19R,2.500000X2.500000*%
%ADD20O,1.800000X2.800000*%
%ADD21C,0.450000*%
%ADD22C,0.254000*%
G04 APERTURE END LIST*
D10*
X64770000Y-135890000D03*
X64770000Y-133350000D03*
X67310000Y-135890000D03*
X67310000Y-133350000D03*
X69850000Y-135890000D03*
X69850000Y-133350000D03*
X72390000Y-135890000D03*
X72390000Y-133350000D03*
X74930000Y-135890000D03*
X74930000Y-133350000D03*
X77470000Y-135890000D03*
X77470000Y-133350000D03*
X80010000Y-135890000D03*
X80010000Y-133350000D03*
X82550000Y-135890000D03*
X82550000Y-133350000D03*
X85090000Y-135890000D03*
X85090000Y-133350000D03*
X87630000Y-135890000D03*
X87630000Y-133350000D03*
X90170000Y-135890000D03*
X90170000Y-133350000D03*
X92710000Y-135890000D03*
X92710000Y-133350000D03*
X95250000Y-135890000D03*
X95250000Y-133350000D03*
X97790000Y-135890000D03*
X97790000Y-133350000D03*
X100330000Y-135890000D03*
X100330000Y-133350000D03*
X102870000Y-135890000D03*
X102870000Y-133350000D03*
X105410000Y-135890000D03*
X105410000Y-133350000D03*
X107950000Y-135890000D03*
X107950000Y-133350000D03*
X110490000Y-135890000D03*
X110490000Y-133350000D03*
X113030000Y-135890000D03*
X113030000Y-133350000D03*
X115570000Y-135890000D03*
X115570000Y-133350000D03*
X118110000Y-135890000D03*
X118110000Y-133350000D03*
X120650000Y-135890000D03*
X120650000Y-133350000D03*
X123190000Y-135890000D03*
X123190000Y-133350000D03*
X125730000Y-135890000D03*
X125730000Y-133350000D03*
X128270000Y-135890000D03*
X128270000Y-133350000D03*
X130810000Y-135890000D03*
X130810000Y-133350000D03*
X133350000Y-135890000D03*
X133350000Y-133350000D03*
X135890000Y-135890000D03*
X135890000Y-133350000D03*
X138430000Y-135890000D03*
X138430000Y-133350000D03*
X140970000Y-135890000D03*
X140970000Y-133350000D03*
X143510000Y-135890000D03*
X143510000Y-133350000D03*
X146050000Y-135890000D03*
X146050000Y-133350000D03*
X148590000Y-135890000D03*
X148590000Y-133350000D03*
X151130000Y-135890000D03*
X151130000Y-133350000D03*
X153670000Y-135890000D03*
X153670000Y-133350000D03*
X156210000Y-135890000D03*
X156210000Y-133350000D03*
X158750000Y-135890000D03*
X158750000Y-133350000D03*
X161290000Y-135890000D03*
X161290000Y-133350000D03*
X163830000Y-135890000D03*
D11*
X163830000Y-133350000D03*
D12*
X121285000Y-102235000D03*
X113665000Y-109855000D03*
X121285000Y-104775000D03*
X113665000Y-107315000D03*
X121285000Y-107315000D03*
X113665000Y-104775000D03*
X121285000Y-109855000D03*
D13*
X113665000Y-102235000D03*
D12*
X102870000Y-102235000D03*
X95250000Y-109855000D03*
X102870000Y-104775000D03*
X95250000Y-107315000D03*
X102870000Y-107315000D03*
X95250000Y-104775000D03*
X102870000Y-109855000D03*
D13*
X95250000Y-102235000D03*
X76200000Y-111760000D03*
D12*
X83820000Y-129540000D03*
X76200000Y-114300000D03*
X83820000Y-127000000D03*
X76200000Y-116840000D03*
X83820000Y-124460000D03*
X76200000Y-119380000D03*
X83820000Y-121920000D03*
X76200000Y-121920000D03*
X83820000Y-119380000D03*
X76200000Y-124460000D03*
X83820000Y-116840000D03*
X76200000Y-127000000D03*
X83820000Y-114300000D03*
X76200000Y-129540000D03*
X83820000Y-111760000D03*
X105410000Y-121920000D03*
X133350000Y-129540000D03*
X107950000Y-121920000D03*
X130810000Y-129540000D03*
X110490000Y-121920000D03*
X128270000Y-129540000D03*
X113030000Y-121920000D03*
X125730000Y-129540000D03*
X115570000Y-121920000D03*
X123190000Y-129540000D03*
X118110000Y-121920000D03*
X120650000Y-129540000D03*
X120650000Y-121920000D03*
X118110000Y-129540000D03*
X123190000Y-121920000D03*
X115570000Y-129540000D03*
X125730000Y-121920000D03*
X113030000Y-129540000D03*
X128270000Y-121920000D03*
X110490000Y-129540000D03*
X130810000Y-121920000D03*
X107950000Y-129540000D03*
X133350000Y-121920000D03*
D13*
X105410000Y-129540000D03*
D12*
X132715000Y-102235000D03*
X125095000Y-109855000D03*
X132715000Y-104775000D03*
X125095000Y-107315000D03*
X132715000Y-107315000D03*
X125095000Y-104775000D03*
X132715000Y-109855000D03*
D13*
X125095000Y-102235000D03*
D14*
X70485000Y-101600000D03*
X67985000Y-104100000D03*
X65485000Y-101600000D03*
D12*
X123190000Y-118110000D03*
D15*
X115570000Y-118110000D03*
D12*
X113030000Y-114935000D03*
D15*
X105410000Y-114935000D03*
D12*
X113030000Y-118110000D03*
D15*
X105410000Y-118110000D03*
D12*
X123190000Y-114935000D03*
D15*
X115570000Y-114935000D03*
D12*
X94615000Y-116840000D03*
D15*
X86995000Y-116840000D03*
D12*
X97790000Y-113665000D03*
D15*
X97790000Y-121285000D03*
D12*
X100965000Y-113665000D03*
D15*
X100965000Y-121285000D03*
D12*
X94615000Y-113665000D03*
D15*
X86995000Y-113665000D03*
D12*
X72390000Y-120015000D03*
D15*
X64770000Y-120015000D03*
D12*
X83820000Y-104140000D03*
D15*
X76200000Y-104140000D03*
D12*
X72390000Y-116840000D03*
D15*
X64770000Y-116840000D03*
D12*
X72390000Y-113665000D03*
D15*
X64770000Y-113665000D03*
D12*
X72390000Y-126365000D03*
D15*
X64770000Y-126365000D03*
D12*
X76200000Y-100965000D03*
D15*
X83820000Y-100965000D03*
D12*
X86995000Y-123190000D03*
D15*
X94615000Y-123190000D03*
D12*
X86995000Y-129540000D03*
D15*
X94615000Y-129540000D03*
D12*
X86995000Y-126365000D03*
D15*
X94615000Y-126365000D03*
D12*
X64770000Y-107315000D03*
D15*
X72390000Y-107315000D03*
D12*
X86995000Y-120015000D03*
D15*
X94615000Y-120015000D03*
D12*
X143510000Y-118110000D03*
D15*
X135890000Y-118110000D03*
D12*
X143510000Y-122555000D03*
D15*
X143510000Y-130175000D03*
D12*
X143510000Y-102235000D03*
D15*
X135890000Y-102235000D03*
D12*
X143510000Y-105410000D03*
D15*
X135890000Y-105410000D03*
D12*
X133350000Y-118110000D03*
D15*
X125730000Y-118110000D03*
D12*
X133350000Y-114935000D03*
D15*
X125730000Y-114935000D03*
D16*
X106807000Y-106680000D03*
D17*
X109347000Y-106680000D03*
X108077000Y-106680000D03*
D16*
X106807000Y-101854000D03*
D17*
X109347000Y-101854000D03*
X108077000Y-101854000D03*
D16*
X88265000Y-106680000D03*
D17*
X90805000Y-106680000D03*
X89535000Y-106680000D03*
D16*
X88265000Y-101854000D03*
D17*
X90805000Y-101854000D03*
X89535000Y-101854000D03*
D15*
X69770000Y-123190000D03*
X64770000Y-123190000D03*
X82550000Y-107315000D03*
X77550000Y-107315000D03*
X64850000Y-129540000D03*
X69850000Y-129540000D03*
X67390000Y-110490000D03*
X72390000Y-110490000D03*
X100965000Y-129460000D03*
X100965000Y-124460000D03*
D13*
X138430000Y-111125000D03*
D15*
X140930000Y-111125000D03*
D18*
X160782000Y-118110000D03*
X160782000Y-123110000D03*
D19*
X160782000Y-128110000D03*
D20*
X150850000Y-106140000D03*
X156350000Y-106140000D03*
X158750000Y-104140000D03*
D13*
X149860000Y-120650000D03*
D15*
X152360000Y-120650000D03*
D13*
X149860000Y-127635000D03*
D15*
X152360000Y-127635000D03*
D21*
X127000000Y-114935000D03*
X95631000Y-124841000D03*
X102870000Y-116840000D03*
X103907205Y-119739795D03*
X111633000Y-127635000D03*
X124460000Y-119126000D03*
X106807000Y-113665000D03*
X121285000Y-114935000D03*
X126365000Y-107061000D03*
X134620000Y-119126000D03*
X92837000Y-108331000D03*
X131562979Y-119624979D03*
X104394000Y-105283000D03*
X92358000Y-110490000D03*
X73787000Y-128533001D03*
D22*
X133350000Y-114935000D02*
X127000000Y-114935000D01*
X143510000Y-105410000D02*
X140081000Y-105410000D01*
X133350000Y-112141000D02*
X133350000Y-114935000D01*
X140081000Y-105410000D02*
X133350000Y-112141000D01*
X100165001Y-112865001D02*
X100965000Y-113665000D01*
X99910999Y-112610999D02*
X100165001Y-112865001D01*
X95669001Y-112610999D02*
X99910999Y-112610999D01*
X94615000Y-113665000D02*
X95669001Y-112610999D01*
X85979000Y-124841000D02*
X83820000Y-127000000D01*
X95631000Y-124841000D02*
X85979000Y-124841000D01*
X91186000Y-102235000D02*
X90805000Y-101854000D01*
X95250000Y-102235000D02*
X91186000Y-102235000D01*
X91440000Y-113665000D02*
X94615000Y-116840000D01*
X86995000Y-113665000D02*
X91440000Y-113665000D01*
X94615000Y-116840000D02*
X102870000Y-116840000D01*
X82260078Y-129540000D02*
X83314079Y-128485999D01*
X83314079Y-128485999D02*
X94109079Y-128485999D01*
X76200000Y-129540000D02*
X82260078Y-129540000D01*
X94109079Y-128485999D02*
X94960078Y-127635000D01*
X111400205Y-119739795D02*
X113030000Y-118110000D01*
X103907205Y-119739795D02*
X111400205Y-119739795D01*
X94960078Y-127635000D02*
X111633000Y-127635000D01*
X124421999Y-119164001D02*
X124460000Y-119126000D01*
X114084001Y-119164001D02*
X124421999Y-119164001D01*
X113030000Y-118110000D02*
X114084001Y-119164001D01*
X109728000Y-102235000D02*
X109347000Y-101854000D01*
X113665000Y-102235000D02*
X109728000Y-102235000D01*
X114300000Y-113665000D02*
X115570000Y-114935000D01*
X106807000Y-113665000D02*
X114300000Y-113665000D01*
X115570000Y-114935000D02*
X121285000Y-114935000D01*
X125564999Y-106260999D02*
X126365000Y-107061000D01*
X113591077Y-106260999D02*
X125564999Y-106260999D01*
X112105078Y-104775000D02*
X113591077Y-106260999D01*
X102870000Y-104775000D02*
X112105078Y-104775000D01*
X124930001Y-117310001D02*
X125730000Y-118110000D01*
X107530999Y-117055999D02*
X124675999Y-117055999D01*
X124675999Y-117055999D02*
X124930001Y-117310001D01*
X105410000Y-114935000D02*
X107530999Y-117055999D01*
X132844079Y-119164001D02*
X134581999Y-119164001D01*
X132826056Y-119145978D02*
X132844079Y-119164001D01*
X126405271Y-119145978D02*
X132826056Y-119145978D01*
X134581999Y-119164001D02*
X134620000Y-119126000D01*
X124685250Y-120865999D02*
X126405271Y-119145978D01*
X109004001Y-120865999D02*
X124685250Y-120865999D01*
X107950000Y-121920000D02*
X109004001Y-120865999D01*
X92798999Y-108369001D02*
X92837000Y-108331000D01*
X65824001Y-108369001D02*
X92798999Y-108369001D01*
X64770000Y-107315000D02*
X65824001Y-108369001D01*
X131229001Y-108369001D02*
X132715000Y-109855000D01*
X94744079Y-108369001D02*
X131229001Y-108369001D01*
X94706078Y-108331000D02*
X94744079Y-108369001D01*
X92837000Y-108331000D02*
X94706078Y-108331000D01*
X74295000Y-113665000D02*
X76200000Y-111760000D01*
X72390000Y-113665000D02*
X74295000Y-113665000D01*
X74930000Y-114300000D02*
X76200000Y-114300000D01*
X72390000Y-116840000D02*
X74930000Y-114300000D01*
X109004001Y-128485999D02*
X118615921Y-128485999D01*
X124675999Y-122425921D02*
X124675999Y-121414079D01*
X124675999Y-121414079D02*
X126465099Y-119624979D01*
X118615921Y-128485999D02*
X124675999Y-122425921D01*
X107950000Y-129540000D02*
X109004001Y-128485999D01*
X126465099Y-119624979D02*
X131562979Y-119624979D01*
X111633000Y-105283000D02*
X113665000Y-107315000D01*
X104394000Y-105283000D02*
X111633000Y-105283000D01*
X155196000Y-106140000D02*
X150850000Y-106140000D01*
X156350000Y-106140000D02*
X155196000Y-106140000D01*
X145915000Y-106140000D02*
X140930000Y-111125000D01*
X150850000Y-106140000D02*
X145915000Y-106140000D01*
X135890000Y-116165000D02*
X135890000Y-118110000D01*
X140930000Y-111125000D02*
X135890000Y-116165000D01*
X126149000Y-102235000D02*
X125095000Y-102235000D01*
X134835999Y-101180999D02*
X127203001Y-101180999D01*
X127203001Y-101180999D02*
X126149000Y-102235000D01*
X135890000Y-102235000D02*
X134835999Y-101180999D01*
X72390000Y-110490000D02*
X92358000Y-110490000D01*
X71335999Y-128054001D02*
X80225999Y-128054001D01*
X80225999Y-128054001D02*
X83820000Y-124460000D01*
X69850000Y-129540000D02*
X71335999Y-128054001D01*
X131915001Y-103975001D02*
X132715000Y-104775000D01*
X131660999Y-103720999D02*
X131915001Y-103975001D01*
X94678797Y-103720999D02*
X131660999Y-103720999D01*
X80219079Y-103085999D02*
X94043797Y-103085999D01*
X94043797Y-103085999D02*
X94678797Y-103720999D01*
X75990078Y-107315000D02*
X80219079Y-103085999D01*
X72390000Y-107315000D02*
X75990078Y-107315000D01*
X94615000Y-126365000D02*
X92875011Y-128104989D01*
X92875011Y-128104989D02*
X83820000Y-128104989D01*
X80383817Y-128435011D02*
X76073000Y-128435011D01*
X80713839Y-128104989D02*
X80383817Y-128435011D01*
X83820000Y-128104989D02*
X80713839Y-128104989D01*
X73884990Y-128435011D02*
X73787000Y-128533001D01*
X76073000Y-128435011D02*
X73884990Y-128435011D01*
X83020001Y-120179999D02*
X83820000Y-119380000D01*
X77634999Y-125565001D02*
X83020001Y-120179999D01*
X73189999Y-125565001D02*
X77634999Y-125565001D01*
X72390000Y-126365000D02*
X73189999Y-125565001D01*
X66294999Y-102409999D02*
X67985000Y-104100000D01*
X65485000Y-101600000D02*
X66294999Y-102409999D01*
X75565000Y-116840000D02*
X76200000Y-116840000D01*
X72390000Y-120015000D02*
X75565000Y-116840000D01*
X69215000Y-116840000D02*
X72390000Y-120015000D01*
X64770000Y-116840000D02*
X69215000Y-116840000D01*
X124625999Y-134785999D02*
X124880001Y-135040001D01*
X124880001Y-135040001D02*
X125730000Y-135890000D01*
X124625999Y-130644001D02*
X124625999Y-134785999D01*
X125730000Y-129540000D02*
X124625999Y-130644001D01*
X128270000Y-129540000D02*
X128270000Y-133350000D01*
X129705999Y-134785999D02*
X129960001Y-135040001D01*
X129960001Y-135040001D02*
X130810000Y-135890000D01*
X129705999Y-130644001D02*
X129705999Y-134785999D01*
X130810000Y-129540000D02*
X129705999Y-130644001D01*
X133350000Y-130671370D02*
X133350000Y-133350000D01*
X133350000Y-129540000D02*
X133350000Y-130671370D01*
X136739999Y-135040001D02*
X135890000Y-135890000D01*
X136994001Y-134785999D02*
X136739999Y-135040001D01*
X136994001Y-125564001D02*
X136994001Y-134785999D01*
X133350000Y-121920000D02*
X136994001Y-125564001D01*
X138430000Y-125440078D02*
X138430000Y-132147919D01*
X133855921Y-120865999D02*
X138430000Y-125440078D01*
X131864001Y-120865999D02*
X133855921Y-120865999D01*
X138430000Y-132147919D02*
X138430000Y-133350000D01*
X130810000Y-121920000D02*
X131864001Y-120865999D01*
X139865999Y-134785999D02*
X140970000Y-135890000D01*
X134013740Y-120484989D02*
X139865999Y-126337248D01*
X139865999Y-126337248D02*
X139865999Y-134785999D01*
X129705011Y-120484989D02*
X134013740Y-120484989D01*
X128270000Y-121920000D02*
X129705011Y-120484989D01*
X134171559Y-120103979D02*
X141986000Y-127918420D01*
X127546021Y-120103979D02*
X134171559Y-120103979D01*
X125730000Y-121920000D02*
X127546021Y-120103979D01*
X141986000Y-131826000D02*
X143510000Y-133350000D01*
X141986000Y-127918420D02*
X141986000Y-131826000D01*
M02*
