M48
; DRILL file {KiCad (5.1.0-0)} date Wednesday, May 13, 2020 at 09:38:28 PM
; FORMAT={-:-/ absolute / inch / decimal}
; #@! TF.CreationDate,2020-05-13T21:38:28-07:00
; #@! TF.GenerationSoftware,Kicad,Pcbnew,(5.1.0-0)
FMAT,2
INCH
T1C0.0079
T2C0.0197
T3C0.0295
T4C0.0315
T5C0.0354
T6C0.0394
T7C0.0472
T8C0.0512
%
G90
G05
T1
X2.905Y-5.0604
X3.6361Y-4.35
X3.655Y-4.265
X3.765Y-4.915
X4.05Y-4.6
X4.0908Y-4.7142
X4.11Y-4.145
X4.205Y-4.475
X4.395Y-5.025
X4.775Y-4.525
X4.9Y-4.69
X4.975Y-4.215
X5.0Y-4.525
X5.1796Y-4.7096
X5.3Y-4.69
T3
X4.205Y-4.2
X4.255Y-4.2
X4.305Y-4.2
X3.475Y-4.01
X3.525Y-4.01
X3.575Y-4.01
X3.475Y-4.2
X3.525Y-4.2
X3.575Y-4.2
X4.205Y-4.01
X4.255Y-4.01
X4.305Y-4.01
T4
X2.55Y-4.725
X2.85Y-4.725
X3.0531Y-4.225
X3.25Y-4.225
X5.45Y-4.375
X5.5484Y-4.375
X3.85Y-4.475
X3.85Y-4.775
X2.6531Y-4.35
X2.85Y-4.35
X4.95Y-4.65
X5.25Y-4.65
X3.425Y-4.975
X3.725Y-4.975
X4.55Y-4.65
X4.85Y-4.65
X5.65Y-4.825
X5.65Y-5.125
X3.975Y-4.475
X3.975Y-4.775
X3.425Y-5.1
X3.725Y-5.1
X4.925Y-4.025
X4.925Y-4.125
X4.925Y-4.225
X4.925Y-4.325
X5.225Y-4.025
X5.225Y-4.125
X5.225Y-4.225
X5.225Y-4.325
X3.975Y-4.9
X2.55Y-4.225
X2.85Y-4.225
X2.5531Y-5.1
X2.75Y-5.1
X4.15Y-4.525
X4.45Y-4.525
X5.35Y-4.025
X5.65Y-4.025
X3.975Y-5.0969
X2.55Y-4.6
X2.85Y-4.6
X3.0Y-4.4
X3.0Y-4.5
X3.0Y-4.6
X2.55Y-4.975
X2.85Y-4.975
X3.0Y-4.7
X3.0Y-4.8
X3.0Y-4.9
X3.0Y-5.0
X3.0Y-5.1
X3.3Y-4.4
X3.3Y-4.5
X3.3Y-4.6
X3.3Y-4.7
X3.3Y-4.8
X3.3Y-4.9
X3.3Y-5.0
X3.3Y-5.1
X3.75Y-4.025
X3.75Y-4.125
X3.75Y-4.225
X3.0Y-4.1
X3.3Y-4.1
X4.95Y-4.525
X5.25Y-4.525
X2.55Y-4.475
X2.85Y-4.475
X4.55Y-4.525
X4.85Y-4.525
X4.475Y-4.025
X4.475Y-4.125
X4.475Y-4.225
X4.475Y-4.325
X4.775Y-4.025
X4.775Y-4.125
X4.775Y-4.225
X4.775Y-4.325
X3.75Y-4.325
X4.05Y-4.025
X4.05Y-4.125
X4.05Y-4.225
X4.05Y-4.325
X5.9Y-4.75
X5.9984Y-4.75
X3.425Y-4.475
X3.725Y-4.475
X3.425Y-4.725
X3.725Y-4.725
X4.15Y-4.65
X4.45Y-4.65
X3.425Y-4.6
X3.725Y-4.6
X5.35Y-4.15
X5.65Y-4.15
X3.0Y-3.975
X3.3Y-3.975
X4.15Y-4.8
X4.25Y-4.8
X2.55Y-4.85
X2.7469Y-4.85
X4.25Y-5.1
X4.35Y-4.8
X4.35Y-5.1
X4.45Y-4.8
X4.45Y-5.1
X4.55Y-4.8
X4.55Y-5.1
X4.65Y-4.8
X4.65Y-5.1
X4.75Y-4.8
X4.75Y-5.1
X5.35Y-4.65
X5.65Y-4.65
X4.85Y-4.8
X4.85Y-5.1
X4.95Y-4.8
X6.0Y-5.025
X4.15Y-5.1
X4.95Y-5.1
X5.05Y-4.8
X5.9016Y-5.025
X5.05Y-5.1
X5.15Y-4.8
X5.15Y-5.1
X5.25Y-4.8
X5.25Y-5.1
X3.425Y-4.85
X3.725Y-4.85
T5
X2.5781Y-4.0
X2.6766Y-4.0984
X2.775Y-4.0
T6
X2.55Y-5.25
X2.55Y-5.35
X2.65Y-5.25
X2.65Y-5.35
X2.75Y-5.25
X2.75Y-5.35
X2.85Y-5.25
X2.85Y-5.35
X2.95Y-5.25
X2.95Y-5.35
X3.05Y-5.25
X3.05Y-5.35
X3.15Y-5.25
X3.15Y-5.35
X3.25Y-5.25
X3.25Y-5.35
X3.35Y-5.25
X3.35Y-5.35
X3.45Y-5.25
X3.45Y-5.35
X3.55Y-5.25
X3.55Y-5.35
X3.65Y-5.25
X3.65Y-5.35
X3.75Y-5.25
X3.75Y-5.35
X3.85Y-5.25
X3.85Y-5.35
X3.95Y-5.25
X3.95Y-5.35
X4.05Y-5.25
X4.05Y-5.35
X4.15Y-5.25
X4.15Y-5.35
X4.25Y-5.25
X4.25Y-5.35
X4.35Y-5.25
X4.35Y-5.35
X4.45Y-5.25
X4.45Y-5.35
X4.55Y-5.25
X4.55Y-5.35
X4.65Y-5.25
X4.65Y-5.35
X4.75Y-5.25
X4.75Y-5.35
X4.85Y-5.25
X4.85Y-5.35
X4.95Y-5.25
X4.95Y-5.35
X5.05Y-5.25
X5.05Y-5.35
X5.15Y-5.25
X5.15Y-5.35
X5.25Y-5.25
X5.25Y-5.35
X5.35Y-5.25
X5.35Y-5.35
X5.45Y-5.25
X5.45Y-5.35
X5.55Y-5.25
X5.55Y-5.35
X5.65Y-5.25
X5.65Y-5.35
X5.75Y-5.25
X5.75Y-5.35
X5.85Y-5.25
X5.85Y-5.35
X5.95Y-5.25
X5.95Y-5.35
X6.05Y-5.25
X6.05Y-5.35
X6.15Y-5.25
X6.15Y-5.35
X6.25Y-5.25
X6.25Y-5.35
X6.35Y-5.25
X6.35Y-5.35
X6.45Y-5.25
X6.45Y-5.35
T7
X6.1122Y-4.2
X6.3091Y-4.0031
X6.3091Y-4.3969
X6.4075Y-4.0031
X6.4075Y-4.3969
T8
X6.33Y-4.65
X6.33Y-4.8469
X6.33Y-5.0437
T2
G00X6.1319Y-4.0031
M15
G01X6.0925Y-4.0031
M16
G05
G00X6.1319Y-4.3969
M15
G01X6.0925Y-4.3969
M16
G05
G00X6.3091Y-4.1803
M15
G01X6.3091Y-4.2197
M16
G05
T0
M30
