G04 #@! TF.GenerationSoftware,KiCad,Pcbnew,(5.1.0-0)*
G04 #@! TF.CreationDate,2020-05-13T19:17:17-07:00*
G04 #@! TF.ProjectId,SoundCard,536f756e-6443-4617-9264-2e6b69636164,rev?*
G04 #@! TF.SameCoordinates,Original*
G04 #@! TF.FileFunction,Copper,L6,Bot*
G04 #@! TF.FilePolarity,Positive*
%FSLAX46Y46*%
G04 Gerber Fmt 4.6, Leading zero omitted, Abs format (unit mm)*
G04 Created by KiCad (PCBNEW (5.1.0-0)) date 2020-05-13 19:17:17*
%MOMM*%
%LPD*%
G04 APERTURE LIST*
%ADD10C,1.450000*%
%ADD11O,2.250000X1.000000*%
%ADD12O,1.000000X2.250000*%
%ADD13O,1.700000X1.700000*%
%ADD14R,1.700000X1.700000*%
%ADD15O,1.600000X1.600000*%
%ADD16R,1.600000X1.600000*%
%ADD17C,1.620000*%
%ADD18C,1.600000*%
%ADD19R,1.050000X1.500000*%
%ADD20O,1.050000X1.500000*%
%ADD21C,2.500000*%
%ADD22R,2.500000X2.500000*%
%ADD23C,0.450000*%
%ADD24C,0.254000*%
G04 APERTURE END LIST*
D10*
X162750000Y-101680000D03*
X162750000Y-111680000D03*
X160250000Y-101680000D03*
X160250000Y-111680000D03*
X155250000Y-106680000D03*
D11*
X155250000Y-111680000D03*
X155250000Y-101680000D03*
D12*
X160250000Y-106680000D03*
D13*
X64770000Y-135890000D03*
X64770000Y-133350000D03*
X67310000Y-135890000D03*
X67310000Y-133350000D03*
X69850000Y-135890000D03*
X69850000Y-133350000D03*
X72390000Y-135890000D03*
X72390000Y-133350000D03*
X74930000Y-135890000D03*
X74930000Y-133350000D03*
X77470000Y-135890000D03*
X77470000Y-133350000D03*
X80010000Y-135890000D03*
X80010000Y-133350000D03*
X82550000Y-135890000D03*
X82550000Y-133350000D03*
X85090000Y-135890000D03*
X85090000Y-133350000D03*
X87630000Y-135890000D03*
X87630000Y-133350000D03*
X90170000Y-135890000D03*
X90170000Y-133350000D03*
X92710000Y-135890000D03*
X92710000Y-133350000D03*
X95250000Y-135890000D03*
X95250000Y-133350000D03*
X97790000Y-135890000D03*
X97790000Y-133350000D03*
X100330000Y-135890000D03*
X100330000Y-133350000D03*
X102870000Y-135890000D03*
X102870000Y-133350000D03*
X105410000Y-135890000D03*
X105410000Y-133350000D03*
X107950000Y-135890000D03*
X107950000Y-133350000D03*
X110490000Y-135890000D03*
X110490000Y-133350000D03*
X113030000Y-135890000D03*
X113030000Y-133350000D03*
X115570000Y-135890000D03*
X115570000Y-133350000D03*
X118110000Y-135890000D03*
X118110000Y-133350000D03*
X120650000Y-135890000D03*
X120650000Y-133350000D03*
X123190000Y-135890000D03*
X123190000Y-133350000D03*
X125730000Y-135890000D03*
X125730000Y-133350000D03*
X128270000Y-135890000D03*
X128270000Y-133350000D03*
X130810000Y-135890000D03*
X130810000Y-133350000D03*
X133350000Y-135890000D03*
X133350000Y-133350000D03*
X135890000Y-135890000D03*
X135890000Y-133350000D03*
X138430000Y-135890000D03*
X138430000Y-133350000D03*
X140970000Y-135890000D03*
X140970000Y-133350000D03*
X143510000Y-135890000D03*
X143510000Y-133350000D03*
X146050000Y-135890000D03*
X146050000Y-133350000D03*
X148590000Y-135890000D03*
X148590000Y-133350000D03*
X151130000Y-135890000D03*
X151130000Y-133350000D03*
X153670000Y-135890000D03*
X153670000Y-133350000D03*
X156210000Y-135890000D03*
X156210000Y-133350000D03*
X158750000Y-135890000D03*
X158750000Y-133350000D03*
X161290000Y-135890000D03*
X161290000Y-133350000D03*
X163830000Y-135890000D03*
D14*
X163830000Y-133350000D03*
D15*
X121285000Y-102235000D03*
X113665000Y-109855000D03*
X121285000Y-104775000D03*
X113665000Y-107315000D03*
X121285000Y-107315000D03*
X113665000Y-104775000D03*
X121285000Y-109855000D03*
D16*
X113665000Y-102235000D03*
D15*
X102870000Y-102235000D03*
X95250000Y-109855000D03*
X102870000Y-104775000D03*
X95250000Y-107315000D03*
X102870000Y-107315000D03*
X95250000Y-104775000D03*
X102870000Y-109855000D03*
D16*
X95250000Y-102235000D03*
X76200000Y-111760000D03*
D15*
X83820000Y-129540000D03*
X76200000Y-114300000D03*
X83820000Y-127000000D03*
X76200000Y-116840000D03*
X83820000Y-124460000D03*
X76200000Y-119380000D03*
X83820000Y-121920000D03*
X76200000Y-121920000D03*
X83820000Y-119380000D03*
X76200000Y-124460000D03*
X83820000Y-116840000D03*
X76200000Y-127000000D03*
X83820000Y-114300000D03*
X76200000Y-129540000D03*
X83820000Y-111760000D03*
X105410000Y-121920000D03*
X133350000Y-129540000D03*
X107950000Y-121920000D03*
X130810000Y-129540000D03*
X110490000Y-121920000D03*
X128270000Y-129540000D03*
X113030000Y-121920000D03*
X125730000Y-129540000D03*
X115570000Y-121920000D03*
X123190000Y-129540000D03*
X118110000Y-121920000D03*
X120650000Y-129540000D03*
X120650000Y-121920000D03*
X118110000Y-129540000D03*
X123190000Y-121920000D03*
X115570000Y-129540000D03*
X125730000Y-121920000D03*
X113030000Y-129540000D03*
X128270000Y-121920000D03*
X110490000Y-129540000D03*
X130810000Y-121920000D03*
X107950000Y-129540000D03*
X133350000Y-121920000D03*
D16*
X105410000Y-129540000D03*
D15*
X132715000Y-102235000D03*
X125095000Y-109855000D03*
X132715000Y-104775000D03*
X125095000Y-107315000D03*
X132715000Y-107315000D03*
X125095000Y-104775000D03*
X132715000Y-109855000D03*
D16*
X125095000Y-102235000D03*
D17*
X70485000Y-101600000D03*
X67985000Y-104100000D03*
X65485000Y-101600000D03*
D15*
X123190000Y-118110000D03*
D18*
X115570000Y-118110000D03*
D15*
X113030000Y-114935000D03*
D18*
X105410000Y-114935000D03*
D15*
X113030000Y-118110000D03*
D18*
X105410000Y-118110000D03*
D15*
X123190000Y-114935000D03*
D18*
X115570000Y-114935000D03*
D15*
X94615000Y-116840000D03*
D18*
X86995000Y-116840000D03*
D15*
X97790000Y-113665000D03*
D18*
X97790000Y-121285000D03*
D15*
X100965000Y-113665000D03*
D18*
X100965000Y-121285000D03*
D15*
X94615000Y-113665000D03*
D18*
X86995000Y-113665000D03*
D15*
X72390000Y-120015000D03*
D18*
X64770000Y-120015000D03*
D15*
X83820000Y-104140000D03*
D18*
X76200000Y-104140000D03*
D15*
X72390000Y-116840000D03*
D18*
X64770000Y-116840000D03*
D15*
X72390000Y-113665000D03*
D18*
X64770000Y-113665000D03*
D15*
X72390000Y-126365000D03*
D18*
X64770000Y-126365000D03*
D15*
X76200000Y-100965000D03*
D18*
X83820000Y-100965000D03*
D15*
X86995000Y-123190000D03*
D18*
X94615000Y-123190000D03*
D15*
X86995000Y-129540000D03*
D18*
X94615000Y-129540000D03*
D15*
X86995000Y-126365000D03*
D18*
X94615000Y-126365000D03*
D15*
X64770000Y-107315000D03*
D18*
X72390000Y-107315000D03*
D15*
X86995000Y-120015000D03*
D18*
X94615000Y-120015000D03*
D15*
X143510000Y-118110000D03*
D18*
X135890000Y-118110000D03*
D15*
X143510000Y-122555000D03*
D18*
X143510000Y-130175000D03*
D15*
X143510000Y-102235000D03*
D18*
X135890000Y-102235000D03*
D15*
X143510000Y-105410000D03*
D18*
X135890000Y-105410000D03*
D15*
X133350000Y-118110000D03*
D18*
X125730000Y-118110000D03*
D15*
X133350000Y-114935000D03*
D18*
X125730000Y-114935000D03*
D19*
X106807000Y-106680000D03*
D20*
X109347000Y-106680000D03*
X108077000Y-106680000D03*
D19*
X106807000Y-101854000D03*
D20*
X109347000Y-101854000D03*
X108077000Y-101854000D03*
D19*
X88265000Y-106680000D03*
D20*
X90805000Y-106680000D03*
X89535000Y-106680000D03*
D19*
X88265000Y-101854000D03*
D20*
X90805000Y-101854000D03*
X89535000Y-101854000D03*
D18*
X69770000Y-123190000D03*
X64770000Y-123190000D03*
X82550000Y-107315000D03*
X77550000Y-107315000D03*
X64850000Y-129540000D03*
X69850000Y-129540000D03*
X67390000Y-110490000D03*
X72390000Y-110490000D03*
X100965000Y-129460000D03*
X100965000Y-124460000D03*
D16*
X138430000Y-111125000D03*
D18*
X140930000Y-111125000D03*
D21*
X160782000Y-118110000D03*
X160782000Y-123110000D03*
D22*
X160782000Y-128110000D03*
D16*
X149860000Y-120650000D03*
D18*
X152360000Y-120650000D03*
D16*
X149860000Y-127635000D03*
D18*
X152360000Y-127635000D03*
D23*
X127000000Y-114935000D03*
X95631000Y-124841000D03*
X102870000Y-116840000D03*
X103907205Y-119739795D03*
X111633000Y-127635000D03*
X124460000Y-119126000D03*
X106807000Y-113665000D03*
X121285000Y-114935000D03*
X126365000Y-107061000D03*
X134620000Y-119126000D03*
X92837000Y-108331000D03*
X131562979Y-119624979D03*
X104394000Y-105283000D03*
X92358000Y-110490000D03*
X73787000Y-128533001D03*
D24*
X143510000Y-102235000D02*
X143510000Y-105410000D01*
X133350000Y-118110000D02*
X133350000Y-114935000D01*
X127000000Y-106680000D02*
X125095000Y-104775000D01*
X127000000Y-114935000D02*
X127000000Y-106680000D01*
X121754989Y-120484989D02*
X123190000Y-121920000D01*
X117985089Y-120484989D02*
X121754989Y-120484989D01*
X117055999Y-126926077D02*
X117055999Y-121414079D01*
X119164989Y-129035067D02*
X117055999Y-126926077D01*
X117055999Y-121414079D02*
X117985089Y-120484989D01*
X119164989Y-130136011D02*
X119164989Y-129035067D01*
X116674001Y-132626999D02*
X119164989Y-130136011D01*
X115767923Y-134785999D02*
X116674001Y-133879921D01*
X116674001Y-133879921D02*
X116674001Y-132626999D01*
X70954001Y-134785999D02*
X115767923Y-134785999D01*
X69850000Y-135890000D02*
X70954001Y-134785999D01*
X93815001Y-112865001D02*
X94615000Y-113665000D01*
X93815001Y-107629001D02*
X93815001Y-112865001D01*
X88265000Y-102079000D02*
X93815001Y-107629001D01*
X88265000Y-101854000D02*
X88265000Y-102079000D01*
X95669001Y-124802999D02*
X95631000Y-124841000D01*
X95669001Y-114719001D02*
X95669001Y-124802999D01*
X94615000Y-113665000D02*
X95669001Y-114719001D01*
X95250000Y-102235000D02*
X95250000Y-104775000D01*
X87486000Y-106680000D02*
X88265000Y-106680000D01*
X86995000Y-107171000D02*
X87486000Y-106680000D01*
X86995000Y-113665000D02*
X86995000Y-107171000D01*
X102870000Y-116840000D02*
X102870000Y-109855000D01*
X106807000Y-101854000D02*
X106807000Y-103759000D01*
X104737009Y-108085570D02*
X104491578Y-108331000D01*
X104737009Y-105828991D02*
X104737009Y-108085570D01*
X106807000Y-103759000D02*
X104737009Y-105828991D01*
X104491578Y-108331000D02*
X104305011Y-108517567D01*
X104305011Y-110518740D02*
X104079750Y-110744000D01*
X104305011Y-108517567D02*
X104305011Y-110518740D01*
X104079750Y-110744000D02*
X103730011Y-111093739D01*
X103730011Y-119562601D02*
X103907205Y-119739795D01*
X103730011Y-111093739D02*
X103730011Y-119562601D01*
X111633000Y-119507000D02*
X111633000Y-127635000D01*
X113030000Y-118110000D02*
X111633000Y-119507000D01*
X123190000Y-116550078D02*
X123190000Y-116066370D01*
X124460000Y-117820078D02*
X123190000Y-116550078D01*
X123190000Y-116066370D02*
X123190000Y-114935000D01*
X124460000Y-119126000D02*
X124460000Y-117820078D01*
X113665000Y-102235000D02*
X113665000Y-104775000D01*
X106807000Y-106680000D02*
X106807000Y-113665000D01*
X121285000Y-114935000D02*
X121285000Y-109855000D01*
X121285000Y-116205000D02*
X123190000Y-118110000D01*
X121285000Y-114935000D02*
X121285000Y-116205000D01*
X98589999Y-120485001D02*
X97790000Y-121285000D01*
X98844001Y-120230999D02*
X98589999Y-120485001D01*
X98844001Y-112321077D02*
X98844001Y-120230999D01*
X102364079Y-108800999D02*
X98844001Y-112321077D01*
X102943923Y-108800999D02*
X102364079Y-108800999D01*
X103924001Y-107820921D02*
X102943923Y-108800999D01*
X103924001Y-105829001D02*
X103924001Y-107820921D01*
X102870000Y-104775000D02*
X103924001Y-105829001D01*
X126365000Y-114300000D02*
X125730000Y-114935000D01*
X126365000Y-107061000D02*
X126365000Y-114300000D01*
X124930001Y-117310001D02*
X125730000Y-118110000D01*
X124675999Y-117055999D02*
X124930001Y-117310001D01*
X124675999Y-113332919D02*
X124675999Y-117055999D01*
X124040999Y-112697919D02*
X124675999Y-113332919D01*
X124040999Y-107530999D02*
X124040999Y-112697919D01*
X121285000Y-104775000D02*
X124040999Y-107530999D01*
X134620000Y-106680000D02*
X135890000Y-105410000D01*
X134620000Y-119126000D02*
X134620000Y-106680000D01*
X92837000Y-118237000D02*
X94615000Y-120015000D01*
X92837000Y-108331000D02*
X92837000Y-118237000D01*
X65569999Y-112865001D02*
X64770000Y-113665000D01*
X65824001Y-112610999D02*
X65569999Y-112865001D01*
X65824001Y-103847999D02*
X65824001Y-112610999D01*
X68072000Y-101600000D02*
X65824001Y-103847999D01*
X70485000Y-101600000D02*
X68072000Y-101600000D01*
X131915001Y-108114999D02*
X132715000Y-107315000D01*
X131660999Y-108369001D02*
X131915001Y-108114999D01*
X131660999Y-116751001D02*
X131660999Y-119526959D01*
X131660999Y-119526959D02*
X131562979Y-119624979D01*
X131660999Y-116751001D02*
X131660999Y-108369001D01*
X104355999Y-105321001D02*
X104394000Y-105283000D01*
X103924001Y-110360921D02*
X103924001Y-108359749D01*
X104355999Y-107927751D02*
X104355999Y-105321001D01*
X103924001Y-108359749D02*
X104355999Y-107927751D01*
X103375921Y-110909001D02*
X103924001Y-110360921D01*
X103349001Y-110909001D02*
X103375921Y-110909001D01*
X103349001Y-119859001D02*
X103349001Y-110909001D01*
X105410000Y-121920000D02*
X103349001Y-119859001D01*
X96304001Y-110782001D02*
X96304001Y-108369001D01*
X96139000Y-110947002D02*
X96304001Y-110782001D01*
X96139000Y-127762000D02*
X96139000Y-110947002D01*
X96304001Y-108369001D02*
X95250000Y-107315000D01*
X98891001Y-130514001D02*
X96139000Y-127762000D01*
X103381999Y-130514001D02*
X98891001Y-130514001D01*
X104356000Y-129540000D02*
X103381999Y-130514001D01*
X105410000Y-129540000D02*
X104356000Y-129540000D01*
X117310001Y-128740001D02*
X118110000Y-129540000D01*
X114515999Y-119164001D02*
X114515999Y-125945999D01*
X114515999Y-125945999D02*
X117310001Y-128740001D01*
X115570000Y-118110000D02*
X114515999Y-119164001D01*
X140930000Y-113070000D02*
X135890000Y-118110000D01*
X140930000Y-111125000D02*
X140930000Y-113070000D01*
X138430000Y-104775000D02*
X138430000Y-111125000D01*
X135890000Y-102235000D02*
X138430000Y-104775000D01*
X92358000Y-120933000D02*
X94615000Y-123190000D01*
X92358000Y-110490000D02*
X92358000Y-120933000D01*
X73787000Y-108712000D02*
X72390000Y-107315000D01*
X73787000Y-128533001D02*
X73787000Y-108712000D01*
X91440000Y-126365000D02*
X94615000Y-129540000D01*
X86995000Y-126365000D02*
X91440000Y-126365000D01*
X86995000Y-124321370D02*
X86995000Y-126365000D01*
X86995000Y-123190000D02*
X86995000Y-124321370D01*
X82765999Y-115354001D02*
X83020001Y-115099999D01*
X82765999Y-119885921D02*
X82765999Y-115354001D01*
X83314079Y-120434001D02*
X82765999Y-119885921D01*
X83020001Y-115099999D02*
X83820000Y-114300000D01*
X84239001Y-120434001D02*
X83314079Y-120434001D01*
X86995000Y-123190000D02*
X84239001Y-120434001D01*
X85255011Y-117944989D02*
X83820000Y-119380000D01*
X85255011Y-102400011D02*
X85255011Y-117944989D01*
X83820000Y-100965000D02*
X85255011Y-102400011D01*
X65569999Y-116040001D02*
X64770000Y-116840000D01*
X66205011Y-115404989D02*
X65569999Y-116040001D01*
X66205011Y-105879989D02*
X66205011Y-115404989D01*
X67985000Y-104100000D02*
X66205011Y-105879989D01*
X84619999Y-116040001D02*
X83820000Y-116840000D01*
X84874001Y-105194001D02*
X84874001Y-115785999D01*
X84874001Y-115785999D02*
X84619999Y-116040001D01*
X83820000Y-104140000D02*
X84874001Y-105194001D01*
X97790000Y-112395000D02*
X97790000Y-113665000D01*
X102870000Y-107315000D02*
X97790000Y-112395000D01*
X100165001Y-122084999D02*
X100965000Y-121285000D01*
X99910999Y-122339001D02*
X100165001Y-122084999D01*
X97284079Y-122339001D02*
X99910999Y-122339001D01*
X96520010Y-121574932D02*
X97284079Y-122339001D01*
X96520010Y-114934990D02*
X96520010Y-121574932D01*
X97790000Y-113665000D02*
X96520010Y-114934990D01*
X120153630Y-107315000D02*
X121285000Y-107315000D01*
X113030000Y-112049922D02*
X117764922Y-107315000D01*
X117764922Y-107315000D02*
X120153630Y-107315000D01*
X113030000Y-114935000D02*
X113030000Y-112049922D01*
X108585000Y-114935000D02*
X113030000Y-114935000D01*
X105410000Y-118110000D02*
X108585000Y-114935000D01*
X119800001Y-135040001D02*
X120650000Y-135890000D01*
X119545999Y-134785999D02*
X119800001Y-135040001D01*
X119545999Y-129084079D02*
X119545999Y-134785999D01*
X120650000Y-127980078D02*
X119545999Y-129084079D01*
X120650000Y-121920000D02*
X120650000Y-127980078D01*
X122135999Y-132295999D02*
X122340001Y-132500001D01*
X118110000Y-121920000D02*
X119164001Y-120865999D01*
X122340001Y-132500001D02*
X123190000Y-133350000D01*
X119164001Y-120865999D02*
X121155921Y-120865999D01*
X121155921Y-120865999D02*
X122135999Y-121846077D01*
X122135999Y-121846077D02*
X122135999Y-132295999D01*
M02*
