G04 #@! TF.GenerationSoftware,KiCad,Pcbnew,(5.1.0-0)*
G04 #@! TF.CreationDate,2020-09-03T22:43:08-07:00*
G04 #@! TF.ProjectId,SoundCard,536f756e-6443-4617-9264-2e6b69636164,rev?*
G04 #@! TF.SameCoordinates,Original*
G04 #@! TF.FileFunction,Legend,Bot*
G04 #@! TF.FilePolarity,Positive*
%FSLAX46Y46*%
G04 Gerber Fmt 4.6, Leading zero omitted, Abs format (unit mm)*
G04 Created by KiCad (PCBNEW (5.1.0-0)) date 2020-09-03 22:43:08*
%MOMM*%
%LPD*%
G04 APERTURE LIST*
%ADD10C,0.300000*%
%ADD11C,0.120000*%
%ADD12C,0.150000*%
G04 APERTURE END LIST*
D10*
X85990571Y-104437714D02*
X86133428Y-104366285D01*
X86419142Y-104366285D01*
X86562000Y-104437714D01*
X86704857Y-104580571D01*
X86776285Y-104723428D01*
X86776285Y-105009142D01*
X86704857Y-105152000D01*
X86562000Y-105294857D01*
X86419142Y-105366285D01*
X86133428Y-105366285D01*
X85990571Y-105294857D01*
X86276285Y-103866285D02*
X86633428Y-103937714D01*
X86990571Y-104152000D01*
X87204857Y-104509142D01*
X87276285Y-104866285D01*
X87204857Y-105223428D01*
X86990571Y-105580571D01*
X86633428Y-105794857D01*
X86276285Y-105866285D01*
X85919142Y-105794857D01*
X85562000Y-105580571D01*
X85347714Y-105223428D01*
X85276285Y-104866285D01*
X85347714Y-104509142D01*
X85562000Y-104152000D01*
X85919142Y-103937714D01*
X86276285Y-103866285D01*
X83562000Y-104223428D02*
X83490571Y-104152000D01*
X83347714Y-104080571D01*
X82990571Y-104080571D01*
X82847714Y-104152000D01*
X82776285Y-104223428D01*
X82704857Y-104366285D01*
X82704857Y-104509142D01*
X82776285Y-104723428D01*
X83633428Y-105580571D01*
X82704857Y-105580571D01*
X81776285Y-104080571D02*
X81633428Y-104080571D01*
X81490571Y-104152000D01*
X81419142Y-104223428D01*
X81347714Y-104366285D01*
X81276285Y-104652000D01*
X81276285Y-105009142D01*
X81347714Y-105294857D01*
X81419142Y-105437714D01*
X81490571Y-105509142D01*
X81633428Y-105580571D01*
X81776285Y-105580571D01*
X81919142Y-105509142D01*
X81990571Y-105437714D01*
X82062000Y-105294857D01*
X82133428Y-105009142D01*
X82133428Y-104652000D01*
X82062000Y-104366285D01*
X81990571Y-104223428D01*
X81919142Y-104152000D01*
X81776285Y-104080571D01*
X80704857Y-104223428D02*
X80633428Y-104152000D01*
X80490571Y-104080571D01*
X80133428Y-104080571D01*
X79990571Y-104152000D01*
X79919142Y-104223428D01*
X79847714Y-104366285D01*
X79847714Y-104509142D01*
X79919142Y-104723428D01*
X80776285Y-105580571D01*
X79847714Y-105580571D01*
X78919142Y-104080571D02*
X78776285Y-104080571D01*
X78633428Y-104152000D01*
X78562000Y-104223428D01*
X78490571Y-104366285D01*
X78419142Y-104652000D01*
X78419142Y-105009142D01*
X78490571Y-105294857D01*
X78562000Y-105437714D01*
X78633428Y-105509142D01*
X78776285Y-105580571D01*
X78919142Y-105580571D01*
X79062000Y-105509142D01*
X79133428Y-105437714D01*
X79204857Y-105294857D01*
X79276285Y-105009142D01*
X79276285Y-104652000D01*
X79204857Y-104366285D01*
X79133428Y-104223428D01*
X79062000Y-104152000D01*
X78919142Y-104080571D01*
X76704857Y-105152000D02*
X75990571Y-105152000D01*
X76847714Y-105580571D02*
X76347714Y-104080571D01*
X75847714Y-105580571D01*
X75347714Y-104580571D02*
X75347714Y-105580571D01*
X75347714Y-104723428D02*
X75276285Y-104652000D01*
X75133428Y-104580571D01*
X74919142Y-104580571D01*
X74776285Y-104652000D01*
X74704857Y-104794857D01*
X74704857Y-105580571D01*
X73347714Y-105580571D02*
X73347714Y-104080571D01*
X73347714Y-105509142D02*
X73490571Y-105580571D01*
X73776285Y-105580571D01*
X73919142Y-105509142D01*
X73990571Y-105437714D01*
X74062000Y-105294857D01*
X74062000Y-104866285D01*
X73990571Y-104723428D01*
X73919142Y-104652000D01*
X73776285Y-104580571D01*
X73490571Y-104580571D01*
X73347714Y-104652000D01*
X72633428Y-105580571D02*
X72633428Y-104580571D01*
X72633428Y-104866285D02*
X72562000Y-104723428D01*
X72490571Y-104652000D01*
X72347714Y-104580571D01*
X72204857Y-104580571D01*
X71133428Y-105509142D02*
X71276285Y-105580571D01*
X71562000Y-105580571D01*
X71704857Y-105509142D01*
X71776285Y-105366285D01*
X71776285Y-104794857D01*
X71704857Y-104652000D01*
X71562000Y-104580571D01*
X71276285Y-104580571D01*
X71133428Y-104652000D01*
X71062000Y-104794857D01*
X71062000Y-104937714D01*
X71776285Y-105080571D01*
X70562000Y-104580571D02*
X70276285Y-105580571D01*
X69990571Y-104866285D01*
X69704857Y-105580571D01*
X69419142Y-104580571D01*
X67204857Y-104794857D02*
X67704857Y-104794857D01*
X67704857Y-105580571D02*
X67704857Y-104080571D01*
X66990571Y-104080571D01*
X66204857Y-105580571D02*
X66347714Y-105509142D01*
X66419142Y-105437714D01*
X66490571Y-105294857D01*
X66490571Y-104866285D01*
X66419142Y-104723428D01*
X66347714Y-104652000D01*
X66204857Y-104580571D01*
X65990571Y-104580571D01*
X65847714Y-104652000D01*
X65776285Y-104723428D01*
X65704857Y-104866285D01*
X65704857Y-105294857D01*
X65776285Y-105437714D01*
X65847714Y-105509142D01*
X65990571Y-105580571D01*
X66204857Y-105580571D01*
X65204857Y-105580571D02*
X64419142Y-104580571D01*
X65204857Y-104580571D02*
X64419142Y-105580571D01*
X87276285Y-108049142D02*
X87062000Y-108120571D01*
X86704857Y-108120571D01*
X86562000Y-108049142D01*
X86490571Y-107977714D01*
X86419142Y-107834857D01*
X86419142Y-107692000D01*
X86490571Y-107549142D01*
X86562000Y-107477714D01*
X86704857Y-107406285D01*
X86990571Y-107334857D01*
X87133428Y-107263428D01*
X87204857Y-107192000D01*
X87276285Y-107049142D01*
X87276285Y-106906285D01*
X87204857Y-106763428D01*
X87133428Y-106692000D01*
X86990571Y-106620571D01*
X86633428Y-106620571D01*
X86419142Y-106692000D01*
X85562000Y-108120571D02*
X85704857Y-108049142D01*
X85776285Y-107977714D01*
X85847714Y-107834857D01*
X85847714Y-107406285D01*
X85776285Y-107263428D01*
X85704857Y-107192000D01*
X85562000Y-107120571D01*
X85347714Y-107120571D01*
X85204857Y-107192000D01*
X85133428Y-107263428D01*
X85062000Y-107406285D01*
X85062000Y-107834857D01*
X85133428Y-107977714D01*
X85204857Y-108049142D01*
X85347714Y-108120571D01*
X85562000Y-108120571D01*
X83776285Y-107120571D02*
X83776285Y-108120571D01*
X84419142Y-107120571D02*
X84419142Y-107906285D01*
X84347714Y-108049142D01*
X84204857Y-108120571D01*
X83990571Y-108120571D01*
X83847714Y-108049142D01*
X83776285Y-107977714D01*
X83062000Y-107120571D02*
X83062000Y-108120571D01*
X83062000Y-107263428D02*
X82990571Y-107192000D01*
X82847714Y-107120571D01*
X82633428Y-107120571D01*
X82490571Y-107192000D01*
X82419142Y-107334857D01*
X82419142Y-108120571D01*
X81062000Y-108120571D02*
X81062000Y-106620571D01*
X81062000Y-108049142D02*
X81204857Y-108120571D01*
X81490571Y-108120571D01*
X81633428Y-108049142D01*
X81704857Y-107977714D01*
X81776285Y-107834857D01*
X81776285Y-107406285D01*
X81704857Y-107263428D01*
X81633428Y-107192000D01*
X81490571Y-107120571D01*
X81204857Y-107120571D01*
X81062000Y-107192000D01*
X78347714Y-107977714D02*
X78419142Y-108049142D01*
X78633428Y-108120571D01*
X78776285Y-108120571D01*
X78990571Y-108049142D01*
X79133428Y-107906285D01*
X79204857Y-107763428D01*
X79276285Y-107477714D01*
X79276285Y-107263428D01*
X79204857Y-106977714D01*
X79133428Y-106834857D01*
X78990571Y-106692000D01*
X78776285Y-106620571D01*
X78633428Y-106620571D01*
X78419142Y-106692000D01*
X78347714Y-106763428D01*
X77062000Y-108120571D02*
X77062000Y-107334857D01*
X77133428Y-107192000D01*
X77276285Y-107120571D01*
X77562000Y-107120571D01*
X77704857Y-107192000D01*
X77062000Y-108049142D02*
X77204857Y-108120571D01*
X77562000Y-108120571D01*
X77704857Y-108049142D01*
X77776285Y-107906285D01*
X77776285Y-107763428D01*
X77704857Y-107620571D01*
X77562000Y-107549142D01*
X77204857Y-107549142D01*
X77062000Y-107477714D01*
X76347714Y-108120571D02*
X76347714Y-107120571D01*
X76347714Y-107406285D02*
X76276285Y-107263428D01*
X76204857Y-107192000D01*
X76062000Y-107120571D01*
X75919142Y-107120571D01*
X74776285Y-108120571D02*
X74776285Y-106620571D01*
X74776285Y-108049142D02*
X74919142Y-108120571D01*
X75204857Y-108120571D01*
X75347714Y-108049142D01*
X75419142Y-107977714D01*
X75490571Y-107834857D01*
X75490571Y-107406285D01*
X75419142Y-107263428D01*
X75347714Y-107192000D01*
X75204857Y-107120571D01*
X74919142Y-107120571D01*
X74776285Y-107192000D01*
X73990571Y-108049142D02*
X73990571Y-108120571D01*
X74062000Y-108263428D01*
X74133428Y-108334857D01*
X71347714Y-108120571D02*
X71847714Y-107406285D01*
X72204857Y-108120571D02*
X72204857Y-106620571D01*
X71633428Y-106620571D01*
X71490571Y-106692000D01*
X71419142Y-106763428D01*
X71347714Y-106906285D01*
X71347714Y-107120571D01*
X71419142Y-107263428D01*
X71490571Y-107334857D01*
X71633428Y-107406285D01*
X72204857Y-107406285D01*
X70133428Y-108049142D02*
X70276285Y-108120571D01*
X70562000Y-108120571D01*
X70704857Y-108049142D01*
X70776285Y-107906285D01*
X70776285Y-107334857D01*
X70704857Y-107192000D01*
X70562000Y-107120571D01*
X70276285Y-107120571D01*
X70133428Y-107192000D01*
X70062000Y-107334857D01*
X70062000Y-107477714D01*
X70776285Y-107620571D01*
X69562000Y-107120571D02*
X69204857Y-108120571D01*
X68847714Y-107120571D01*
X67276285Y-106620571D02*
X66347714Y-106620571D01*
X66847714Y-107192000D01*
X66633428Y-107192000D01*
X66490571Y-107263428D01*
X66419142Y-107334857D01*
X66347714Y-107477714D01*
X66347714Y-107834857D01*
X66419142Y-107977714D01*
X66490571Y-108049142D01*
X66633428Y-108120571D01*
X67062000Y-108120571D01*
X67204857Y-108049142D01*
X67276285Y-107977714D01*
D11*
X118573733Y-122934000D02*
X118916267Y-122934000D01*
X118573733Y-123954000D02*
X118916267Y-123954000D01*
X133051733Y-123188000D02*
X133394267Y-123188000D01*
X133051733Y-124208000D02*
X133394267Y-124208000D01*
X143846733Y-123315000D02*
X144189267Y-123315000D01*
X143846733Y-124335000D02*
X144189267Y-124335000D01*
D12*
X119387857Y-125325142D02*
X119435476Y-125372761D01*
X119578333Y-125420380D01*
X119673571Y-125420380D01*
X119816428Y-125372761D01*
X119911666Y-125277523D01*
X119959285Y-125182285D01*
X120006904Y-124991809D01*
X120006904Y-124848952D01*
X119959285Y-124658476D01*
X119911666Y-124563238D01*
X119816428Y-124468000D01*
X119673571Y-124420380D01*
X119578333Y-124420380D01*
X119435476Y-124468000D01*
X119387857Y-124515619D01*
X118435476Y-125420380D02*
X119006904Y-125420380D01*
X118721190Y-125420380D02*
X118721190Y-124420380D01*
X118816428Y-124563238D01*
X118911666Y-124658476D01*
X119006904Y-124706095D01*
X117816428Y-124420380D02*
X117721190Y-124420380D01*
X117625952Y-124468000D01*
X117578333Y-124515619D01*
X117530714Y-124610857D01*
X117483095Y-124801333D01*
X117483095Y-125039428D01*
X117530714Y-125229904D01*
X117578333Y-125325142D01*
X117625952Y-125372761D01*
X117721190Y-125420380D01*
X117816428Y-125420380D01*
X117911666Y-125372761D01*
X117959285Y-125325142D01*
X118006904Y-125229904D01*
X118054523Y-125039428D01*
X118054523Y-124801333D01*
X118006904Y-124610857D01*
X117959285Y-124515619D01*
X117911666Y-124468000D01*
X117816428Y-124420380D01*
X133389666Y-125485142D02*
X133437285Y-125532761D01*
X133580142Y-125580380D01*
X133675380Y-125580380D01*
X133818238Y-125532761D01*
X133913476Y-125437523D01*
X133961095Y-125342285D01*
X134008714Y-125151809D01*
X134008714Y-125008952D01*
X133961095Y-124818476D01*
X133913476Y-124723238D01*
X133818238Y-124628000D01*
X133675380Y-124580380D01*
X133580142Y-124580380D01*
X133437285Y-124628000D01*
X133389666Y-124675619D01*
X133056333Y-124580380D02*
X132437285Y-124580380D01*
X132770619Y-124961333D01*
X132627761Y-124961333D01*
X132532523Y-125008952D01*
X132484904Y-125056571D01*
X132437285Y-125151809D01*
X132437285Y-125389904D01*
X132484904Y-125485142D01*
X132532523Y-125532761D01*
X132627761Y-125580380D01*
X132913476Y-125580380D01*
X133008714Y-125532761D01*
X133056333Y-125485142D01*
X144184666Y-125612142D02*
X144232285Y-125659761D01*
X144375142Y-125707380D01*
X144470380Y-125707380D01*
X144613238Y-125659761D01*
X144708476Y-125564523D01*
X144756095Y-125469285D01*
X144803714Y-125278809D01*
X144803714Y-125135952D01*
X144756095Y-124945476D01*
X144708476Y-124850238D01*
X144613238Y-124755000D01*
X144470380Y-124707380D01*
X144375142Y-124707380D01*
X144232285Y-124755000D01*
X144184666Y-124802619D01*
X143803714Y-124802619D02*
X143756095Y-124755000D01*
X143660857Y-124707380D01*
X143422761Y-124707380D01*
X143327523Y-124755000D01*
X143279904Y-124802619D01*
X143232285Y-124897857D01*
X143232285Y-124993095D01*
X143279904Y-125135952D01*
X143851333Y-125707380D01*
X143232285Y-125707380D01*
M02*
