G04 #@! TF.GenerationSoftware,KiCad,Pcbnew,(5.1.0-0)*
G04 #@! TF.CreationDate,2020-05-13T21:38:30-07:00*
G04 #@! TF.ProjectId,SoundCard,536f756e-6443-4617-9264-2e6b69636164,rev?*
G04 #@! TF.SameCoordinates,Original*
G04 #@! TF.FileFunction,Legend,Bot*
G04 #@! TF.FilePolarity,Positive*
%FSLAX46Y46*%
G04 Gerber Fmt 4.6, Leading zero omitted, Abs format (unit mm)*
G04 Created by KiCad (PCBNEW (5.1.0-0)) date 2020-05-13 21:38:30*
%MOMM*%
%LPD*%
G04 APERTURE LIST*
%ADD10C,0.300000*%
G04 APERTURE END LIST*
D10*
X129170571Y-124249714D02*
X129313428Y-124178285D01*
X129599142Y-124178285D01*
X129742000Y-124249714D01*
X129884857Y-124392571D01*
X129956285Y-124535428D01*
X129956285Y-124821142D01*
X129884857Y-124964000D01*
X129742000Y-125106857D01*
X129599142Y-125178285D01*
X129313428Y-125178285D01*
X129170571Y-125106857D01*
X129456285Y-123678285D02*
X129813428Y-123749714D01*
X130170571Y-123964000D01*
X130384857Y-124321142D01*
X130456285Y-124678285D01*
X130384857Y-125035428D01*
X130170571Y-125392571D01*
X129813428Y-125606857D01*
X129456285Y-125678285D01*
X129099142Y-125606857D01*
X128742000Y-125392571D01*
X128527714Y-125035428D01*
X128456285Y-124678285D01*
X128527714Y-124321142D01*
X128742000Y-123964000D01*
X129099142Y-123749714D01*
X129456285Y-123678285D01*
X126742000Y-124035428D02*
X126670571Y-123964000D01*
X126527714Y-123892571D01*
X126170571Y-123892571D01*
X126027714Y-123964000D01*
X125956285Y-124035428D01*
X125884857Y-124178285D01*
X125884857Y-124321142D01*
X125956285Y-124535428D01*
X126813428Y-125392571D01*
X125884857Y-125392571D01*
X124956285Y-123892571D02*
X124813428Y-123892571D01*
X124670571Y-123964000D01*
X124599142Y-124035428D01*
X124527714Y-124178285D01*
X124456285Y-124464000D01*
X124456285Y-124821142D01*
X124527714Y-125106857D01*
X124599142Y-125249714D01*
X124670571Y-125321142D01*
X124813428Y-125392571D01*
X124956285Y-125392571D01*
X125099142Y-125321142D01*
X125170571Y-125249714D01*
X125242000Y-125106857D01*
X125313428Y-124821142D01*
X125313428Y-124464000D01*
X125242000Y-124178285D01*
X125170571Y-124035428D01*
X125099142Y-123964000D01*
X124956285Y-123892571D01*
X123884857Y-124035428D02*
X123813428Y-123964000D01*
X123670571Y-123892571D01*
X123313428Y-123892571D01*
X123170571Y-123964000D01*
X123099142Y-124035428D01*
X123027714Y-124178285D01*
X123027714Y-124321142D01*
X123099142Y-124535428D01*
X123956285Y-125392571D01*
X123027714Y-125392571D01*
X122099142Y-123892571D02*
X121956285Y-123892571D01*
X121813428Y-123964000D01*
X121742000Y-124035428D01*
X121670571Y-124178285D01*
X121599142Y-124464000D01*
X121599142Y-124821142D01*
X121670571Y-125106857D01*
X121742000Y-125249714D01*
X121813428Y-125321142D01*
X121956285Y-125392571D01*
X122099142Y-125392571D01*
X122242000Y-125321142D01*
X122313428Y-125249714D01*
X122384857Y-125106857D01*
X122456285Y-124821142D01*
X122456285Y-124464000D01*
X122384857Y-124178285D01*
X122313428Y-124035428D01*
X122242000Y-123964000D01*
X122099142Y-123892571D01*
X119884857Y-124964000D02*
X119170571Y-124964000D01*
X120027714Y-125392571D02*
X119527714Y-123892571D01*
X119027714Y-125392571D01*
X118527714Y-124392571D02*
X118527714Y-125392571D01*
X118527714Y-124535428D02*
X118456285Y-124464000D01*
X118313428Y-124392571D01*
X118099142Y-124392571D01*
X117956285Y-124464000D01*
X117884857Y-124606857D01*
X117884857Y-125392571D01*
X116527714Y-125392571D02*
X116527714Y-123892571D01*
X116527714Y-125321142D02*
X116670571Y-125392571D01*
X116956285Y-125392571D01*
X117099142Y-125321142D01*
X117170571Y-125249714D01*
X117242000Y-125106857D01*
X117242000Y-124678285D01*
X117170571Y-124535428D01*
X117099142Y-124464000D01*
X116956285Y-124392571D01*
X116670571Y-124392571D01*
X116527714Y-124464000D01*
X115813428Y-125392571D02*
X115813428Y-124392571D01*
X115813428Y-124678285D02*
X115742000Y-124535428D01*
X115670571Y-124464000D01*
X115527714Y-124392571D01*
X115384857Y-124392571D01*
X114313428Y-125321142D02*
X114456285Y-125392571D01*
X114742000Y-125392571D01*
X114884857Y-125321142D01*
X114956285Y-125178285D01*
X114956285Y-124606857D01*
X114884857Y-124464000D01*
X114742000Y-124392571D01*
X114456285Y-124392571D01*
X114313428Y-124464000D01*
X114242000Y-124606857D01*
X114242000Y-124749714D01*
X114956285Y-124892571D01*
X113742000Y-124392571D02*
X113456285Y-125392571D01*
X113170571Y-124678285D01*
X112884857Y-125392571D01*
X112599142Y-124392571D01*
X110384857Y-124606857D02*
X110884857Y-124606857D01*
X110884857Y-125392571D02*
X110884857Y-123892571D01*
X110170571Y-123892571D01*
X109384857Y-125392571D02*
X109527714Y-125321142D01*
X109599142Y-125249714D01*
X109670571Y-125106857D01*
X109670571Y-124678285D01*
X109599142Y-124535428D01*
X109527714Y-124464000D01*
X109384857Y-124392571D01*
X109170571Y-124392571D01*
X109027714Y-124464000D01*
X108956285Y-124535428D01*
X108884857Y-124678285D01*
X108884857Y-125106857D01*
X108956285Y-125249714D01*
X109027714Y-125321142D01*
X109170571Y-125392571D01*
X109384857Y-125392571D01*
X108384857Y-125392571D02*
X107599142Y-124392571D01*
X108384857Y-124392571D02*
X107599142Y-125392571D01*
X130456285Y-127861142D02*
X130242000Y-127932571D01*
X129884857Y-127932571D01*
X129742000Y-127861142D01*
X129670571Y-127789714D01*
X129599142Y-127646857D01*
X129599142Y-127504000D01*
X129670571Y-127361142D01*
X129742000Y-127289714D01*
X129884857Y-127218285D01*
X130170571Y-127146857D01*
X130313428Y-127075428D01*
X130384857Y-127004000D01*
X130456285Y-126861142D01*
X130456285Y-126718285D01*
X130384857Y-126575428D01*
X130313428Y-126504000D01*
X130170571Y-126432571D01*
X129813428Y-126432571D01*
X129599142Y-126504000D01*
X128742000Y-127932571D02*
X128884857Y-127861142D01*
X128956285Y-127789714D01*
X129027714Y-127646857D01*
X129027714Y-127218285D01*
X128956285Y-127075428D01*
X128884857Y-127004000D01*
X128742000Y-126932571D01*
X128527714Y-126932571D01*
X128384857Y-127004000D01*
X128313428Y-127075428D01*
X128242000Y-127218285D01*
X128242000Y-127646857D01*
X128313428Y-127789714D01*
X128384857Y-127861142D01*
X128527714Y-127932571D01*
X128742000Y-127932571D01*
X126956285Y-126932571D02*
X126956285Y-127932571D01*
X127599142Y-126932571D02*
X127599142Y-127718285D01*
X127527714Y-127861142D01*
X127384857Y-127932571D01*
X127170571Y-127932571D01*
X127027714Y-127861142D01*
X126956285Y-127789714D01*
X126242000Y-126932571D02*
X126242000Y-127932571D01*
X126242000Y-127075428D02*
X126170571Y-127004000D01*
X126027714Y-126932571D01*
X125813428Y-126932571D01*
X125670571Y-127004000D01*
X125599142Y-127146857D01*
X125599142Y-127932571D01*
X124242000Y-127932571D02*
X124242000Y-126432571D01*
X124242000Y-127861142D02*
X124384857Y-127932571D01*
X124670571Y-127932571D01*
X124813428Y-127861142D01*
X124884857Y-127789714D01*
X124956285Y-127646857D01*
X124956285Y-127218285D01*
X124884857Y-127075428D01*
X124813428Y-127004000D01*
X124670571Y-126932571D01*
X124384857Y-126932571D01*
X124242000Y-127004000D01*
X121527714Y-127789714D02*
X121599142Y-127861142D01*
X121813428Y-127932571D01*
X121956285Y-127932571D01*
X122170571Y-127861142D01*
X122313428Y-127718285D01*
X122384857Y-127575428D01*
X122456285Y-127289714D01*
X122456285Y-127075428D01*
X122384857Y-126789714D01*
X122313428Y-126646857D01*
X122170571Y-126504000D01*
X121956285Y-126432571D01*
X121813428Y-126432571D01*
X121599142Y-126504000D01*
X121527714Y-126575428D01*
X120242000Y-127932571D02*
X120242000Y-127146857D01*
X120313428Y-127004000D01*
X120456285Y-126932571D01*
X120742000Y-126932571D01*
X120884857Y-127004000D01*
X120242000Y-127861142D02*
X120384857Y-127932571D01*
X120742000Y-127932571D01*
X120884857Y-127861142D01*
X120956285Y-127718285D01*
X120956285Y-127575428D01*
X120884857Y-127432571D01*
X120742000Y-127361142D01*
X120384857Y-127361142D01*
X120242000Y-127289714D01*
X119527714Y-127932571D02*
X119527714Y-126932571D01*
X119527714Y-127218285D02*
X119456285Y-127075428D01*
X119384857Y-127004000D01*
X119242000Y-126932571D01*
X119099142Y-126932571D01*
X117956285Y-127932571D02*
X117956285Y-126432571D01*
X117956285Y-127861142D02*
X118099142Y-127932571D01*
X118384857Y-127932571D01*
X118527714Y-127861142D01*
X118599142Y-127789714D01*
X118670571Y-127646857D01*
X118670571Y-127218285D01*
X118599142Y-127075428D01*
X118527714Y-127004000D01*
X118384857Y-126932571D01*
X118099142Y-126932571D01*
X117956285Y-127004000D01*
X117170571Y-127861142D02*
X117170571Y-127932571D01*
X117242000Y-128075428D01*
X117313428Y-128146857D01*
X114527714Y-127932571D02*
X115027714Y-127218285D01*
X115384857Y-127932571D02*
X115384857Y-126432571D01*
X114813428Y-126432571D01*
X114670571Y-126504000D01*
X114599142Y-126575428D01*
X114527714Y-126718285D01*
X114527714Y-126932571D01*
X114599142Y-127075428D01*
X114670571Y-127146857D01*
X114813428Y-127218285D01*
X115384857Y-127218285D01*
X113313428Y-127861142D02*
X113456285Y-127932571D01*
X113742000Y-127932571D01*
X113884857Y-127861142D01*
X113956285Y-127718285D01*
X113956285Y-127146857D01*
X113884857Y-127004000D01*
X113742000Y-126932571D01*
X113456285Y-126932571D01*
X113313428Y-127004000D01*
X113242000Y-127146857D01*
X113242000Y-127289714D01*
X113956285Y-127432571D01*
X112742000Y-126932571D02*
X112384857Y-127932571D01*
X112027714Y-126932571D01*
X109527714Y-127932571D02*
X110384857Y-127932571D01*
X109956285Y-127932571D02*
X109956285Y-126432571D01*
X110099142Y-126646857D01*
X110242000Y-126789714D01*
X110384857Y-126861142D01*
M02*
