M48
; DRILL file {KiCad (5.1.0-0)} date Thursday, September 03, 2020 at 10:43:06 PM
; FORMAT={-:-/ absolute / inch / decimal}
; #@! TF.CreationDate,2020-09-03T22:43:06-07:00
; #@! TF.GenerationSoftware,Kicad,Pcbnew,(5.1.0-0)
FMAT,2
INCH
T1C0.0079
T2C0.0197
T3C0.0315
T4C0.0394
T5C0.0472
T6C0.0512
%
G90
G05
T1
X2.8087Y-4.715
X2.8103Y-4.1835
X2.8103Y-4.2335
X2.8103Y-4.3835
X2.97Y-4.6743
X3.0213Y-4.665
X3.0213Y-4.715
X3.0213Y-4.765
X3.0213Y-4.865
X3.0229Y-4.1835
X3.0229Y-4.3835
X3.095Y-4.825
X3.1006Y-4.665
X3.1306Y-4.385
X3.1644Y-4.525
X3.1694Y-4.295
X3.1694Y-4.895
X3.1694Y-5.01
X3.17Y-4.78
X3.2356Y-4.295
X3.2356Y-4.41
X3.2356Y-4.78
X3.2356Y-4.895
X3.2994Y-4.525
X3.3039Y-5.01
X3.3044Y-4.665
X3.305Y-4.18
X3.31Y-4.24
X3.3311Y-4.565
X3.37Y-4.895
X3.3706Y-4.41
X3.3711Y-4.18
X3.4339Y-4.525
X3.49Y-4.145
X3.518Y-4.6811
X3.545Y-4.6811
X3.5787Y-4.295
X3.5856Y-4.415
X3.5856Y-4.53
X3.65Y-4.85
X3.65Y-5.0
X3.765Y-4.45
X3.7671Y-4.85
X3.7671Y-5.0
X3.7894Y-4.53
X3.7913Y-4.145
X3.7913Y-4.195
X3.9087Y-4.145
X3.9087Y-4.195
X3.9087Y-4.295
X3.915Y-4.415
X3.915Y-4.53
X3.98Y-4.25
X4.1189Y-4.53
X4.12Y-4.4111
X4.1213Y-4.145
X4.1213Y-4.195
X4.185Y-4.5677
X4.2156Y-4.52
X4.2206Y-4.285
X4.3687Y-4.15
X4.3687Y-4.2
X4.3687Y-4.45
X4.5813Y-4.15
X4.5994Y-4.6
X4.605Y-4.91
X4.6348Y-4.861
X4.6756Y-4.6
X4.71Y-4.9
X4.7348Y-5.109
X4.7444Y-4.14
X4.7444Y-4.485
X4.7444Y-4.6
X4.745Y-4.325
X4.745Y-4.91
X4.75Y-4.2473
X4.85Y-4.418
X4.85Y-4.532
X4.8517Y-4.245
X4.8517Y-4.295
X4.8852Y-5.109
X4.9852Y-5.109
X5.0049Y-4.38
X5.055Y-4.38
X5.057Y-4.735
X5.06Y-4.98
X5.06Y-5.0027
X5.0611Y-5.0254
X5.0643Y-4.145
X5.0643Y-4.295
X5.0935Y-5.1165
X5.1139Y-4.98
X5.1139Y-5.0027
X5.115Y-4.5771
X5.115Y-4.6476
X5.116Y-5.0253
X5.134Y-4.735
X5.165Y-5.0442
X5.186Y-5.066
X5.2125Y-4.9065
X5.237Y-5.066
X5.2461Y-4.9072
X5.2729Y-4.9338
X5.288Y-5.066
X5.3067Y-4.899
X5.3087Y-4.145
X5.3087Y-4.445
X5.3316Y-4.598
X5.339Y-5.1167
X5.34Y-5.0176
X5.3651Y-5.1173
X5.3902Y-5.1167
X5.4Y-4.375
X5.4Y-4.415
X5.4157Y-5.1177
X5.5068Y-5.0132
X5.5213Y-4.145
X5.523Y-5.1676
X5.545Y-4.899
X5.55Y-5.1748
X5.57Y-4.22
X5.57Y-4.39
X5.5727Y-5.175
X5.595Y-4.899
X5.615Y-4.935
X5.621Y-5.065
X5.622Y-4.908
X5.65Y-5.1748
X5.6724Y-4.368
X5.6744Y-4.255
X5.6764Y-4.598
X5.685Y-4.935
X5.705Y-4.9101
X5.723Y-5.065
X5.74Y-4.9407
X5.74Y-4.9634
X5.74Y-4.9861
X5.755Y-5.049
X5.7587Y-4.42
X5.7685Y-4.9085
X5.8Y-5.067
X5.825Y-5.067
X5.8324Y-4.656
X5.851Y-5.066
X5.9589Y-4.14
X5.9706Y-4.78
X5.9706Y-4.8894
X5.9713Y-4.27
X5.9713Y-4.42
X6.0389Y-5.005
T3
X2.66Y-4.25
X2.66Y-4.35
X2.66Y-4.45
X4.1Y-4.8
X4.1Y-5.1
X4.2Y-4.8
X4.2Y-5.1
X4.3Y-4.8
X4.3Y-5.1
X4.4Y-4.8
X4.4Y-5.1
X2.655Y-4.73
X2.655Y-4.83
X2.655Y-4.93
T4
X2.55Y-5.25
X2.55Y-5.35
X2.65Y-5.25
X2.65Y-5.35
X2.75Y-5.25
X2.75Y-5.35
X2.85Y-5.25
X2.85Y-5.35
X2.95Y-5.25
X2.95Y-5.35
X3.05Y-5.25
X3.05Y-5.35
X3.15Y-5.25
X3.15Y-5.35
X3.25Y-5.25
X3.25Y-5.35
X3.35Y-5.25
X3.35Y-5.35
X3.45Y-5.25
X3.45Y-5.35
X3.55Y-5.25
X3.55Y-5.35
X3.65Y-5.25
X3.65Y-5.35
X3.75Y-5.25
X3.75Y-5.35
X3.85Y-5.25
X3.85Y-5.35
X3.95Y-5.25
X3.95Y-5.35
X4.05Y-5.25
X4.05Y-5.35
X4.15Y-5.25
X4.15Y-5.35
X4.25Y-5.25
X4.25Y-5.35
X4.35Y-5.25
X4.35Y-5.35
X4.45Y-5.25
X4.45Y-5.35
X4.55Y-5.25
X4.55Y-5.35
X4.65Y-5.25
X4.65Y-5.35
X4.75Y-5.25
X4.75Y-5.35
X4.85Y-5.25
X4.85Y-5.35
X4.95Y-5.25
X4.95Y-5.35
X5.05Y-5.25
X5.05Y-5.35
X5.15Y-5.25
X5.15Y-5.35
X5.25Y-5.25
X5.25Y-5.35
X5.35Y-5.25
X5.35Y-5.35
X5.45Y-5.25
X5.45Y-5.35
X5.55Y-5.25
X5.55Y-5.35
X5.65Y-5.25
X5.65Y-5.35
X5.75Y-5.25
X5.75Y-5.35
X5.85Y-5.25
X5.85Y-5.35
X5.95Y-5.25
X5.95Y-5.35
X6.05Y-5.25
X6.05Y-5.35
X6.15Y-5.25
X6.15Y-5.35
X6.25Y-5.25
X6.25Y-5.35
X6.35Y-5.25
X6.35Y-5.35
X6.45Y-5.25
X6.45Y-5.35
T5
X6.1272Y-4.29
X6.3241Y-4.0931
X6.3241Y-4.4869
X6.4225Y-4.0931
X6.4225Y-4.4869
T6
X6.33Y-4.65
X6.33Y-4.8469
X6.33Y-5.0437
T2
G00X6.1469Y-4.0931
M15
G01X6.1075Y-4.0931
M16
G05
G00X6.1469Y-4.4869
M15
G01X6.1075Y-4.4869
M16
G05
G00X6.3241Y-4.2703
M15
G01X6.3241Y-4.3097
M16
G05
T0
M30
