G04 #@! TF.GenerationSoftware,KiCad,Pcbnew,(5.1.0-0)*
G04 #@! TF.CreationDate,2020-09-03T22:43:08-07:00*
G04 #@! TF.ProjectId,SoundCard,536f756e-6443-4617-9264-2e6b69636164,rev?*
G04 #@! TF.SameCoordinates,Original*
G04 #@! TF.FileFunction,Copper,L4,Bot*
G04 #@! TF.FilePolarity,Positive*
%FSLAX46Y46*%
G04 Gerber Fmt 4.6, Leading zero omitted, Abs format (unit mm)*
G04 Created by KiCad (PCBNEW (5.1.0-0)) date 2020-09-03 22:43:08*
%MOMM*%
%LPD*%
G04 APERTURE LIST*
%ADD10C,0.100000*%
%ADD11C,0.950000*%
%ADD12C,1.440000*%
%ADD13O,1.600000X1.600000*%
%ADD14R,1.600000X1.600000*%
%ADD15C,1.450000*%
%ADD16O,2.250000X1.000000*%
%ADD17O,1.000000X2.250000*%
%ADD18C,2.500000*%
%ADD19R,2.500000X2.500000*%
%ADD20O,1.700000X1.700000*%
%ADD21R,1.700000X1.700000*%
%ADD22C,0.450000*%
%ADD23C,0.254000*%
G04 APERTURE END LIST*
D10*
G36*
X119930779Y-122970144D02*
G01*
X119953834Y-122973563D01*
X119976443Y-122979227D01*
X119998387Y-122987079D01*
X120019457Y-122997044D01*
X120039448Y-123009026D01*
X120058168Y-123022910D01*
X120075438Y-123038562D01*
X120091090Y-123055832D01*
X120104974Y-123074552D01*
X120116956Y-123094543D01*
X120126921Y-123115613D01*
X120134773Y-123137557D01*
X120140437Y-123160166D01*
X120143856Y-123183221D01*
X120145000Y-123206500D01*
X120145000Y-123681500D01*
X120143856Y-123704779D01*
X120140437Y-123727834D01*
X120134773Y-123750443D01*
X120126921Y-123772387D01*
X120116956Y-123793457D01*
X120104974Y-123813448D01*
X120091090Y-123832168D01*
X120075438Y-123849438D01*
X120058168Y-123865090D01*
X120039448Y-123878974D01*
X120019457Y-123890956D01*
X119998387Y-123900921D01*
X119976443Y-123908773D01*
X119953834Y-123914437D01*
X119930779Y-123917856D01*
X119907500Y-123919000D01*
X119332500Y-123919000D01*
X119309221Y-123917856D01*
X119286166Y-123914437D01*
X119263557Y-123908773D01*
X119241613Y-123900921D01*
X119220543Y-123890956D01*
X119200552Y-123878974D01*
X119181832Y-123865090D01*
X119164562Y-123849438D01*
X119148910Y-123832168D01*
X119135026Y-123813448D01*
X119123044Y-123793457D01*
X119113079Y-123772387D01*
X119105227Y-123750443D01*
X119099563Y-123727834D01*
X119096144Y-123704779D01*
X119095000Y-123681500D01*
X119095000Y-123206500D01*
X119096144Y-123183221D01*
X119099563Y-123160166D01*
X119105227Y-123137557D01*
X119113079Y-123115613D01*
X119123044Y-123094543D01*
X119135026Y-123074552D01*
X119148910Y-123055832D01*
X119164562Y-123038562D01*
X119181832Y-123022910D01*
X119200552Y-123009026D01*
X119220543Y-122997044D01*
X119241613Y-122987079D01*
X119263557Y-122979227D01*
X119286166Y-122973563D01*
X119309221Y-122970144D01*
X119332500Y-122969000D01*
X119907500Y-122969000D01*
X119930779Y-122970144D01*
X119930779Y-122970144D01*
G37*
D11*
X119620000Y-123444000D03*
D10*
G36*
X118180779Y-122970144D02*
G01*
X118203834Y-122973563D01*
X118226443Y-122979227D01*
X118248387Y-122987079D01*
X118269457Y-122997044D01*
X118289448Y-123009026D01*
X118308168Y-123022910D01*
X118325438Y-123038562D01*
X118341090Y-123055832D01*
X118354974Y-123074552D01*
X118366956Y-123094543D01*
X118376921Y-123115613D01*
X118384773Y-123137557D01*
X118390437Y-123160166D01*
X118393856Y-123183221D01*
X118395000Y-123206500D01*
X118395000Y-123681500D01*
X118393856Y-123704779D01*
X118390437Y-123727834D01*
X118384773Y-123750443D01*
X118376921Y-123772387D01*
X118366956Y-123793457D01*
X118354974Y-123813448D01*
X118341090Y-123832168D01*
X118325438Y-123849438D01*
X118308168Y-123865090D01*
X118289448Y-123878974D01*
X118269457Y-123890956D01*
X118248387Y-123900921D01*
X118226443Y-123908773D01*
X118203834Y-123914437D01*
X118180779Y-123917856D01*
X118157500Y-123919000D01*
X117582500Y-123919000D01*
X117559221Y-123917856D01*
X117536166Y-123914437D01*
X117513557Y-123908773D01*
X117491613Y-123900921D01*
X117470543Y-123890956D01*
X117450552Y-123878974D01*
X117431832Y-123865090D01*
X117414562Y-123849438D01*
X117398910Y-123832168D01*
X117385026Y-123813448D01*
X117373044Y-123793457D01*
X117363079Y-123772387D01*
X117355227Y-123750443D01*
X117349563Y-123727834D01*
X117346144Y-123704779D01*
X117345000Y-123681500D01*
X117345000Y-123206500D01*
X117346144Y-123183221D01*
X117349563Y-123160166D01*
X117355227Y-123137557D01*
X117363079Y-123115613D01*
X117373044Y-123094543D01*
X117385026Y-123074552D01*
X117398910Y-123055832D01*
X117414562Y-123038562D01*
X117431832Y-123022910D01*
X117450552Y-123009026D01*
X117470543Y-122997044D01*
X117491613Y-122987079D01*
X117513557Y-122979227D01*
X117536166Y-122973563D01*
X117559221Y-122970144D01*
X117582500Y-122969000D01*
X118157500Y-122969000D01*
X118180779Y-122970144D01*
X118180779Y-122970144D01*
G37*
D11*
X117870000Y-123444000D03*
D10*
G36*
X134408779Y-123224144D02*
G01*
X134431834Y-123227563D01*
X134454443Y-123233227D01*
X134476387Y-123241079D01*
X134497457Y-123251044D01*
X134517448Y-123263026D01*
X134536168Y-123276910D01*
X134553438Y-123292562D01*
X134569090Y-123309832D01*
X134582974Y-123328552D01*
X134594956Y-123348543D01*
X134604921Y-123369613D01*
X134612773Y-123391557D01*
X134618437Y-123414166D01*
X134621856Y-123437221D01*
X134623000Y-123460500D01*
X134623000Y-123935500D01*
X134621856Y-123958779D01*
X134618437Y-123981834D01*
X134612773Y-124004443D01*
X134604921Y-124026387D01*
X134594956Y-124047457D01*
X134582974Y-124067448D01*
X134569090Y-124086168D01*
X134553438Y-124103438D01*
X134536168Y-124119090D01*
X134517448Y-124132974D01*
X134497457Y-124144956D01*
X134476387Y-124154921D01*
X134454443Y-124162773D01*
X134431834Y-124168437D01*
X134408779Y-124171856D01*
X134385500Y-124173000D01*
X133810500Y-124173000D01*
X133787221Y-124171856D01*
X133764166Y-124168437D01*
X133741557Y-124162773D01*
X133719613Y-124154921D01*
X133698543Y-124144956D01*
X133678552Y-124132974D01*
X133659832Y-124119090D01*
X133642562Y-124103438D01*
X133626910Y-124086168D01*
X133613026Y-124067448D01*
X133601044Y-124047457D01*
X133591079Y-124026387D01*
X133583227Y-124004443D01*
X133577563Y-123981834D01*
X133574144Y-123958779D01*
X133573000Y-123935500D01*
X133573000Y-123460500D01*
X133574144Y-123437221D01*
X133577563Y-123414166D01*
X133583227Y-123391557D01*
X133591079Y-123369613D01*
X133601044Y-123348543D01*
X133613026Y-123328552D01*
X133626910Y-123309832D01*
X133642562Y-123292562D01*
X133659832Y-123276910D01*
X133678552Y-123263026D01*
X133698543Y-123251044D01*
X133719613Y-123241079D01*
X133741557Y-123233227D01*
X133764166Y-123227563D01*
X133787221Y-123224144D01*
X133810500Y-123223000D01*
X134385500Y-123223000D01*
X134408779Y-123224144D01*
X134408779Y-123224144D01*
G37*
D11*
X134098000Y-123698000D03*
D10*
G36*
X132658779Y-123224144D02*
G01*
X132681834Y-123227563D01*
X132704443Y-123233227D01*
X132726387Y-123241079D01*
X132747457Y-123251044D01*
X132767448Y-123263026D01*
X132786168Y-123276910D01*
X132803438Y-123292562D01*
X132819090Y-123309832D01*
X132832974Y-123328552D01*
X132844956Y-123348543D01*
X132854921Y-123369613D01*
X132862773Y-123391557D01*
X132868437Y-123414166D01*
X132871856Y-123437221D01*
X132873000Y-123460500D01*
X132873000Y-123935500D01*
X132871856Y-123958779D01*
X132868437Y-123981834D01*
X132862773Y-124004443D01*
X132854921Y-124026387D01*
X132844956Y-124047457D01*
X132832974Y-124067448D01*
X132819090Y-124086168D01*
X132803438Y-124103438D01*
X132786168Y-124119090D01*
X132767448Y-124132974D01*
X132747457Y-124144956D01*
X132726387Y-124154921D01*
X132704443Y-124162773D01*
X132681834Y-124168437D01*
X132658779Y-124171856D01*
X132635500Y-124173000D01*
X132060500Y-124173000D01*
X132037221Y-124171856D01*
X132014166Y-124168437D01*
X131991557Y-124162773D01*
X131969613Y-124154921D01*
X131948543Y-124144956D01*
X131928552Y-124132974D01*
X131909832Y-124119090D01*
X131892562Y-124103438D01*
X131876910Y-124086168D01*
X131863026Y-124067448D01*
X131851044Y-124047457D01*
X131841079Y-124026387D01*
X131833227Y-124004443D01*
X131827563Y-123981834D01*
X131824144Y-123958779D01*
X131823000Y-123935500D01*
X131823000Y-123460500D01*
X131824144Y-123437221D01*
X131827563Y-123414166D01*
X131833227Y-123391557D01*
X131841079Y-123369613D01*
X131851044Y-123348543D01*
X131863026Y-123328552D01*
X131876910Y-123309832D01*
X131892562Y-123292562D01*
X131909832Y-123276910D01*
X131928552Y-123263026D01*
X131948543Y-123251044D01*
X131969613Y-123241079D01*
X131991557Y-123233227D01*
X132014166Y-123227563D01*
X132037221Y-123224144D01*
X132060500Y-123223000D01*
X132635500Y-123223000D01*
X132658779Y-123224144D01*
X132658779Y-123224144D01*
G37*
D11*
X132348000Y-123698000D03*
D10*
G36*
X145203779Y-123351144D02*
G01*
X145226834Y-123354563D01*
X145249443Y-123360227D01*
X145271387Y-123368079D01*
X145292457Y-123378044D01*
X145312448Y-123390026D01*
X145331168Y-123403910D01*
X145348438Y-123419562D01*
X145364090Y-123436832D01*
X145377974Y-123455552D01*
X145389956Y-123475543D01*
X145399921Y-123496613D01*
X145407773Y-123518557D01*
X145413437Y-123541166D01*
X145416856Y-123564221D01*
X145418000Y-123587500D01*
X145418000Y-124062500D01*
X145416856Y-124085779D01*
X145413437Y-124108834D01*
X145407773Y-124131443D01*
X145399921Y-124153387D01*
X145389956Y-124174457D01*
X145377974Y-124194448D01*
X145364090Y-124213168D01*
X145348438Y-124230438D01*
X145331168Y-124246090D01*
X145312448Y-124259974D01*
X145292457Y-124271956D01*
X145271387Y-124281921D01*
X145249443Y-124289773D01*
X145226834Y-124295437D01*
X145203779Y-124298856D01*
X145180500Y-124300000D01*
X144605500Y-124300000D01*
X144582221Y-124298856D01*
X144559166Y-124295437D01*
X144536557Y-124289773D01*
X144514613Y-124281921D01*
X144493543Y-124271956D01*
X144473552Y-124259974D01*
X144454832Y-124246090D01*
X144437562Y-124230438D01*
X144421910Y-124213168D01*
X144408026Y-124194448D01*
X144396044Y-124174457D01*
X144386079Y-124153387D01*
X144378227Y-124131443D01*
X144372563Y-124108834D01*
X144369144Y-124085779D01*
X144368000Y-124062500D01*
X144368000Y-123587500D01*
X144369144Y-123564221D01*
X144372563Y-123541166D01*
X144378227Y-123518557D01*
X144386079Y-123496613D01*
X144396044Y-123475543D01*
X144408026Y-123455552D01*
X144421910Y-123436832D01*
X144437562Y-123419562D01*
X144454832Y-123403910D01*
X144473552Y-123390026D01*
X144493543Y-123378044D01*
X144514613Y-123368079D01*
X144536557Y-123360227D01*
X144559166Y-123354563D01*
X144582221Y-123351144D01*
X144605500Y-123350000D01*
X145180500Y-123350000D01*
X145203779Y-123351144D01*
X145203779Y-123351144D01*
G37*
D11*
X144893000Y-123825000D03*
D10*
G36*
X143453779Y-123351144D02*
G01*
X143476834Y-123354563D01*
X143499443Y-123360227D01*
X143521387Y-123368079D01*
X143542457Y-123378044D01*
X143562448Y-123390026D01*
X143581168Y-123403910D01*
X143598438Y-123419562D01*
X143614090Y-123436832D01*
X143627974Y-123455552D01*
X143639956Y-123475543D01*
X143649921Y-123496613D01*
X143657773Y-123518557D01*
X143663437Y-123541166D01*
X143666856Y-123564221D01*
X143668000Y-123587500D01*
X143668000Y-124062500D01*
X143666856Y-124085779D01*
X143663437Y-124108834D01*
X143657773Y-124131443D01*
X143649921Y-124153387D01*
X143639956Y-124174457D01*
X143627974Y-124194448D01*
X143614090Y-124213168D01*
X143598438Y-124230438D01*
X143581168Y-124246090D01*
X143562448Y-124259974D01*
X143542457Y-124271956D01*
X143521387Y-124281921D01*
X143499443Y-124289773D01*
X143476834Y-124295437D01*
X143453779Y-124298856D01*
X143430500Y-124300000D01*
X142855500Y-124300000D01*
X142832221Y-124298856D01*
X142809166Y-124295437D01*
X142786557Y-124289773D01*
X142764613Y-124281921D01*
X142743543Y-124271956D01*
X142723552Y-124259974D01*
X142704832Y-124246090D01*
X142687562Y-124230438D01*
X142671910Y-124213168D01*
X142658026Y-124194448D01*
X142646044Y-124174457D01*
X142636079Y-124153387D01*
X142628227Y-124131443D01*
X142622563Y-124108834D01*
X142619144Y-124085779D01*
X142618000Y-124062500D01*
X142618000Y-123587500D01*
X142619144Y-123564221D01*
X142622563Y-123541166D01*
X142628227Y-123518557D01*
X142636079Y-123496613D01*
X142646044Y-123475543D01*
X142658026Y-123455552D01*
X142671910Y-123436832D01*
X142687562Y-123419562D01*
X142704832Y-123403910D01*
X142723552Y-123390026D01*
X142743543Y-123378044D01*
X142764613Y-123368079D01*
X142786557Y-123360227D01*
X142809166Y-123354563D01*
X142832221Y-123351144D01*
X142855500Y-123350000D01*
X143430500Y-123350000D01*
X143453779Y-123351144D01*
X143453779Y-123351144D01*
G37*
D11*
X143143000Y-123825000D03*
D12*
X67564000Y-107950000D03*
X67564000Y-110490000D03*
X67564000Y-113030000D03*
D13*
X104140000Y-121920000D03*
X111760000Y-129540000D03*
X106680000Y-121920000D03*
X109220000Y-129540000D03*
X109220000Y-121920000D03*
X106680000Y-129540000D03*
X111760000Y-121920000D03*
D14*
X104140000Y-129540000D03*
D12*
X67437000Y-120142000D03*
X67437000Y-122682000D03*
X67437000Y-125222000D03*
D15*
X163131000Y-103966000D03*
X163131000Y-113966000D03*
X160631000Y-103966000D03*
X160631000Y-113966000D03*
X155631000Y-108966000D03*
D16*
X155631000Y-113966000D03*
X155631000Y-103966000D03*
D17*
X160631000Y-108966000D03*
D18*
X160782000Y-118110000D03*
X160782000Y-123110000D03*
D19*
X160782000Y-128110000D03*
D20*
X64770000Y-135890000D03*
X64770000Y-133350000D03*
X67310000Y-135890000D03*
X67310000Y-133350000D03*
X69850000Y-135890000D03*
X69850000Y-133350000D03*
X72390000Y-135890000D03*
X72390000Y-133350000D03*
X74930000Y-135890000D03*
X74930000Y-133350000D03*
X77470000Y-135890000D03*
X77470000Y-133350000D03*
X80010000Y-135890000D03*
X80010000Y-133350000D03*
X82550000Y-135890000D03*
X82550000Y-133350000D03*
X85090000Y-135890000D03*
X85090000Y-133350000D03*
X87630000Y-135890000D03*
X87630000Y-133350000D03*
X90170000Y-135890000D03*
X90170000Y-133350000D03*
X92710000Y-135890000D03*
X92710000Y-133350000D03*
X95250000Y-135890000D03*
X95250000Y-133350000D03*
X97790000Y-135890000D03*
X97790000Y-133350000D03*
X100330000Y-135890000D03*
X100330000Y-133350000D03*
X102870000Y-135890000D03*
X102870000Y-133350000D03*
X105410000Y-135890000D03*
X105410000Y-133350000D03*
X107950000Y-135890000D03*
X107950000Y-133350000D03*
X110490000Y-135890000D03*
X110490000Y-133350000D03*
X113030000Y-135890000D03*
X113030000Y-133350000D03*
X115570000Y-135890000D03*
X115570000Y-133350000D03*
X118110000Y-135890000D03*
X118110000Y-133350000D03*
X120650000Y-135890000D03*
X120650000Y-133350000D03*
X123190000Y-135890000D03*
X123190000Y-133350000D03*
X125730000Y-135890000D03*
X125730000Y-133350000D03*
X128270000Y-135890000D03*
X128270000Y-133350000D03*
X130810000Y-135890000D03*
X130810000Y-133350000D03*
X133350000Y-135890000D03*
X133350000Y-133350000D03*
X135890000Y-135890000D03*
X135890000Y-133350000D03*
X138430000Y-135890000D03*
X138430000Y-133350000D03*
X140970000Y-135890000D03*
X140970000Y-133350000D03*
X143510000Y-135890000D03*
X143510000Y-133350000D03*
X146050000Y-135890000D03*
X146050000Y-133350000D03*
X148590000Y-135890000D03*
X148590000Y-133350000D03*
X151130000Y-135890000D03*
X151130000Y-133350000D03*
X153670000Y-135890000D03*
X153670000Y-133350000D03*
X156210000Y-135890000D03*
X156210000Y-133350000D03*
X158750000Y-135890000D03*
X158750000Y-133350000D03*
X161290000Y-135890000D03*
X161290000Y-133350000D03*
X163830000Y-135890000D03*
D21*
X163830000Y-133350000D03*
D22*
X117724000Y-123469000D03*
X124084000Y-129769000D03*
X151652000Y-124192000D03*
X142798800Y-124663200D03*
X133019800Y-128676400D03*
X132397500Y-124625100D03*
X151652000Y-121412000D03*
X153388000Y-127127000D03*
X144907000Y-124717002D03*
X148144200Y-118262400D03*
X144181800Y-116789200D03*
X151671000Y-112268000D03*
X151356000Y-105156000D03*
X144080200Y-110947200D03*
X134841000Y-105283000D03*
X123190000Y-112217200D03*
X123190000Y-115112800D03*
X126624000Y-129769000D03*
X120264000Y-129769000D03*
X119634000Y-124460000D03*
X120509000Y-105156000D03*
X110965000Y-105410000D03*
X120509000Y-116840000D03*
X116826000Y-116840000D03*
X99441000Y-115062000D03*
X99441000Y-112141000D03*
X76741000Y-123571000D03*
X80504000Y-127254000D03*
X82183000Y-124333000D03*
X82183000Y-121412000D03*
X87221000Y-114935000D03*
X91073000Y-115062000D03*
X91073000Y-112141000D03*
X82183000Y-112014000D03*
X83806000Y-114935000D03*
X82183000Y-109093000D03*
X76780759Y-111342000D03*
X80377000Y-114935000D03*
X83919000Y-127254000D03*
X95685000Y-123190000D03*
X95685000Y-127000000D03*
X145364200Y-128651000D03*
X142773400Y-128651000D03*
X131724400Y-128676400D03*
X134315200Y-128676400D03*
X134789000Y-124434500D03*
X116365000Y-105410000D03*
X128633200Y-105283000D03*
X140241000Y-105283000D03*
X151671000Y-108458000D03*
X104681000Y-105283000D03*
X83947000Y-106172000D03*
X80504000Y-109093000D03*
X76780759Y-106262000D03*
X83933000Y-118491000D03*
X80518000Y-121412000D03*
X76741000Y-118491000D03*
X92710000Y-127000000D03*
X96299000Y-105283000D03*
X146271000Y-112268000D03*
X134841000Y-112903000D03*
X123233200Y-109093000D03*
X110965000Y-113030000D03*
X99281000Y-109093000D03*
X85612000Y-112014000D03*
X90899000Y-109093000D03*
X85598000Y-124333000D03*
X92710000Y-123190000D03*
X75438000Y-118727999D03*
X76741000Y-119761000D03*
X133930938Y-125318471D03*
X133250800Y-124643790D03*
X146177011Y-128244600D03*
X135610000Y-129965000D03*
X147320000Y-128701800D03*
X136273705Y-129978705D03*
X147955000Y-128701800D03*
X136910000Y-129965000D03*
X148615400Y-128676400D03*
X137560000Y-129990011D03*
X145796000Y-126648000D03*
X140970000Y-131441051D03*
X145796000Y-126070997D03*
X140283344Y-131257939D03*
X141546984Y-131445536D03*
X145796000Y-125493994D03*
X143510000Y-131441051D03*
X146521045Y-124677045D03*
X84611000Y-115951000D03*
X85626000Y-106172000D03*
X106299000Y-116020001D03*
X95631000Y-113030000D03*
X107075000Y-114808000D03*
X96252000Y-115062000D03*
X96299000Y-106553000D03*
X127124990Y-111252000D03*
X128397000Y-111252000D03*
X104648000Y-112043000D03*
X99281000Y-105283000D03*
X129921000Y-116259400D03*
X129921000Y-118048010D03*
X104681000Y-106553000D03*
X104620000Y-115062000D03*
X78754000Y-118491000D03*
X129374900Y-129959100D03*
X80504000Y-124333000D03*
X71341000Y-119761000D03*
X78613000Y-122555000D03*
X76741000Y-121031000D03*
X90043000Y-118901000D03*
X88646000Y-105283000D03*
X71380759Y-106262000D03*
X84074000Y-107696000D03*
X71380759Y-107532000D03*
X79517000Y-111379000D03*
X139871766Y-127336233D03*
X135636000Y-127446969D03*
X129945402Y-127643529D03*
X128553000Y-127645275D03*
X116967000Y-124714000D03*
X107202000Y-108839000D03*
X129892000Y-127069003D03*
X128524000Y-127069003D03*
X120523000Y-124714000D03*
X120650000Y-107880999D03*
X120523000Y-109855000D03*
X120509000Y-113919000D03*
X118759000Y-116840000D03*
X110965000Y-106680000D03*
X99281000Y-106553000D03*
X101092000Y-107950000D03*
X140843000Y-124434500D03*
X135421400Y-116789200D03*
X137160000Y-112141000D03*
X137160000Y-111125000D03*
X144131000Y-108077000D03*
X142113000Y-124434500D03*
X141478000Y-111506000D03*
X141478000Y-107188000D03*
X131191000Y-128122529D03*
X128633200Y-109093000D03*
X123233200Y-107823000D03*
X130403600Y-120269000D03*
X128447800Y-120269000D03*
X128524000Y-126492000D03*
X129892000Y-126492000D03*
X142621000Y-125349000D03*
X144399000Y-125349000D03*
X71380759Y-111342000D03*
X89356539Y-118901000D03*
D23*
X142798800Y-124169200D02*
X143143000Y-123825000D01*
X142798800Y-124663200D02*
X142798800Y-124169200D01*
X132348000Y-124575600D02*
X132397500Y-124625100D01*
X132348000Y-123698000D02*
X132348000Y-124575600D01*
X144893000Y-124703002D02*
X144907000Y-124717002D01*
X144893000Y-123825000D02*
X144893000Y-124703002D01*
X119620000Y-124446000D02*
X119634000Y-124460000D01*
X119620000Y-123444000D02*
X119620000Y-124446000D01*
X134098000Y-123743500D02*
X134789000Y-124434500D01*
X134098000Y-123698000D02*
X134098000Y-123743500D01*
X75707999Y-118727999D02*
X76741000Y-119761000D01*
X75438000Y-118727999D02*
X75707999Y-118727999D01*
X133925481Y-125318471D02*
X133250800Y-124643790D01*
X133930938Y-125318471D02*
X133925481Y-125318471D01*
X140970000Y-131441051D02*
X140970000Y-130205828D01*
X140970000Y-131441051D02*
X140970000Y-129062828D01*
X143384828Y-126648000D02*
X145796000Y-126648000D01*
X140970000Y-129062828D02*
X143384828Y-126648000D01*
X145796000Y-126070997D02*
X143423003Y-126070997D01*
X140283344Y-129210656D02*
X140283344Y-130607656D01*
X143423003Y-126070997D02*
X140283344Y-129210656D01*
X140283344Y-130607656D02*
X140283344Y-131257939D01*
X146275001Y-125654797D02*
X146275001Y-126901999D01*
X141546984Y-129024672D02*
X143444655Y-127127001D01*
X143444655Y-127127001D02*
X146049999Y-127127001D01*
X146049999Y-127127001D02*
X146275001Y-126901999D01*
X141546984Y-131445536D02*
X141546984Y-129024672D01*
X145796000Y-125493994D02*
X146114198Y-125493994D01*
X146114198Y-125493994D02*
X146275001Y-125654797D01*
X146656011Y-125496978D02*
X146521045Y-125362012D01*
X143510000Y-131441051D02*
X144524026Y-130427026D01*
X146656011Y-129949989D02*
X146656011Y-125496978D01*
X146178974Y-130427026D02*
X146656011Y-129949989D01*
X146521045Y-125362012D02*
X146521045Y-124677045D01*
X144524026Y-130427026D02*
X146178974Y-130427026D01*
X84611000Y-107187000D02*
X85626000Y-106172000D01*
X84611000Y-115951000D02*
X84611000Y-107187000D01*
X95631000Y-115149922D02*
X95631000Y-113030000D01*
X96501079Y-116020001D02*
X95631000Y-115149922D01*
X106299000Y-116020001D02*
X96501079Y-116020001D01*
X106341999Y-115541001D02*
X96731001Y-115541001D01*
X96731001Y-115541001D02*
X96252000Y-115062000D01*
X107075000Y-114808000D02*
X106341999Y-115541001D01*
X96252000Y-115062000D02*
X96252000Y-110631000D01*
X96252000Y-110631000D02*
X97409000Y-109474000D01*
X97409000Y-107663000D02*
X96299000Y-106553000D01*
X97409000Y-109474000D02*
X97409000Y-107663000D01*
X127124990Y-111252000D02*
X128397000Y-111252000D01*
X104648000Y-110650000D02*
X99281000Y-105283000D01*
X104648000Y-112043000D02*
X104648000Y-110650000D01*
X129921000Y-116259400D02*
X129921000Y-118048010D01*
X105710000Y-113972000D02*
X104620000Y-115062000D01*
X105156000Y-106553000D02*
X105710000Y-107107000D01*
X105710000Y-107107000D02*
X105710000Y-113972000D01*
X104681000Y-106553000D02*
X105156000Y-106553000D01*
X79643000Y-119380000D02*
X96647000Y-119380000D01*
X78754000Y-118491000D02*
X79643000Y-119380000D01*
X96647000Y-119380000D02*
X99949000Y-122682000D01*
X99949000Y-127406202D02*
X103860798Y-131318000D01*
X99949000Y-122682000D02*
X99949000Y-127406202D01*
X104788797Y-132245999D02*
X127088001Y-132245999D01*
X103860798Y-131318000D02*
X104788797Y-132245999D01*
X127088001Y-132245999D02*
X129374900Y-129959100D01*
X75913000Y-124333000D02*
X71341000Y-119761000D01*
X80504000Y-124333000D02*
X75913000Y-124333000D01*
X78265000Y-122555000D02*
X76741000Y-121031000D01*
X78613000Y-122555000D02*
X78265000Y-122555000D01*
X89281000Y-105918000D02*
X89281000Y-118139000D01*
X89281000Y-118139000D02*
X90043000Y-118901000D01*
X88646000Y-105283000D02*
X89281000Y-105918000D01*
X71830759Y-106262000D02*
X72502759Y-106934000D01*
X71380759Y-106262000D02*
X71830759Y-106262000D01*
X83312000Y-106934000D02*
X84074000Y-107696000D01*
X72502759Y-106934000D02*
X83312000Y-106934000D01*
X77526681Y-111379000D02*
X79517000Y-111379000D01*
X73679681Y-107532000D02*
X77526681Y-111379000D01*
X71380759Y-107532000D02*
X73679681Y-107532000D01*
X135746736Y-127336233D02*
X135636000Y-127446969D01*
X139871766Y-127336233D02*
X135746736Y-127336233D01*
X128554746Y-127643529D02*
X128553000Y-127645275D01*
X129945402Y-127643529D02*
X128554746Y-127643529D01*
X116967000Y-124714000D02*
X107950000Y-115697000D01*
X107950000Y-109587000D02*
X107202000Y-108839000D01*
X107950000Y-115697000D02*
X107950000Y-109587000D01*
X129892000Y-127069003D02*
X128524000Y-127069003D01*
X120747999Y-124489001D02*
X120523000Y-124714000D01*
X121002001Y-124234999D02*
X120747999Y-124489001D01*
X121002001Y-108233000D02*
X121002001Y-108867999D01*
X120650000Y-107880999D02*
X121002001Y-108233000D01*
X121002001Y-108867999D02*
X121002001Y-124234999D01*
X121002001Y-108706198D02*
X121002001Y-108867999D01*
X120523000Y-113905000D02*
X120509000Y-113919000D01*
X120523000Y-109855000D02*
X120523000Y-113905000D01*
X118759000Y-116840000D02*
X118759000Y-111647000D01*
X113792000Y-106680000D02*
X110965000Y-106680000D01*
X118759000Y-111647000D02*
X113792000Y-106680000D01*
X101092000Y-107950000D02*
X99822000Y-106680000D01*
X99408000Y-106680000D02*
X99281000Y-106553000D01*
X99822000Y-106680000D02*
X99408000Y-106680000D01*
X135421400Y-119012900D02*
X135421400Y-116789200D01*
X140843000Y-124434500D02*
X135421400Y-119012900D01*
X137160000Y-112141000D02*
X137160000Y-111125000D01*
X142240000Y-109968000D02*
X142423500Y-109784500D01*
X144131000Y-108077000D02*
X142423500Y-109784500D01*
X142113000Y-124434500D02*
X142240000Y-124307500D01*
X142240000Y-124180600D02*
X142240000Y-109968000D01*
X142240000Y-124307500D02*
X142240000Y-124180600D01*
X141478000Y-111506000D02*
X141478000Y-107188000D01*
X131191000Y-128122529D02*
X131191000Y-118237000D01*
X131191000Y-118237000D02*
X131826000Y-117602000D01*
X131826000Y-117602000D02*
X131826000Y-109982000D01*
X130937000Y-109093000D02*
X128633200Y-109093000D01*
X131826000Y-109982000D02*
X130937000Y-109093000D01*
X110274001Y-128485999D02*
X110019999Y-128740001D01*
X117459923Y-128485999D02*
X110274001Y-128485999D01*
X121383011Y-124562911D02*
X117459923Y-128485999D01*
X121383011Y-110227189D02*
X121383011Y-124562911D01*
X110019999Y-128740001D02*
X109220000Y-129540000D01*
X123233200Y-108377000D02*
X121383011Y-110227189D01*
X123233200Y-107823000D02*
X123233200Y-108377000D01*
X130403600Y-120269000D02*
X128447800Y-120269000D01*
X128524000Y-126492000D02*
X129892000Y-126492000D01*
X142621000Y-125349000D02*
X144399000Y-125349000D01*
X71830759Y-111342000D02*
X77963759Y-117475000D01*
X71380759Y-111342000D02*
X71830759Y-111342000D01*
X87930539Y-117475000D02*
X89356539Y-118901000D01*
X77963759Y-117475000D02*
X87930539Y-117475000D01*
M02*
