G04 #@! TF.GenerationSoftware,KiCad,Pcbnew,(5.1.0-0)*
G04 #@! TF.CreationDate,2020-07-19T14:59:49-07:00*
G04 #@! TF.ProjectId,SoundCard,536f756e-6443-4617-9264-2e6b69636164,rev?*
G04 #@! TF.SameCoordinates,Original*
G04 #@! TF.FileFunction,Legend,Bot*
G04 #@! TF.FilePolarity,Positive*
%FSLAX46Y46*%
G04 Gerber Fmt 4.6, Leading zero omitted, Abs format (unit mm)*
G04 Created by KiCad (PCBNEW (5.1.0-0)) date 2020-07-19 14:59:49*
%MOMM*%
%LPD*%
G04 APERTURE LIST*
%ADD10C,0.300000*%
%ADD11C,0.120000*%
%ADD12C,0.150000*%
G04 APERTURE END LIST*
D10*
X93610571Y-104437714D02*
X93753428Y-104366285D01*
X94039142Y-104366285D01*
X94182000Y-104437714D01*
X94324857Y-104580571D01*
X94396285Y-104723428D01*
X94396285Y-105009142D01*
X94324857Y-105152000D01*
X94182000Y-105294857D01*
X94039142Y-105366285D01*
X93753428Y-105366285D01*
X93610571Y-105294857D01*
X93896285Y-103866285D02*
X94253428Y-103937714D01*
X94610571Y-104152000D01*
X94824857Y-104509142D01*
X94896285Y-104866285D01*
X94824857Y-105223428D01*
X94610571Y-105580571D01*
X94253428Y-105794857D01*
X93896285Y-105866285D01*
X93539142Y-105794857D01*
X93182000Y-105580571D01*
X92967714Y-105223428D01*
X92896285Y-104866285D01*
X92967714Y-104509142D01*
X93182000Y-104152000D01*
X93539142Y-103937714D01*
X93896285Y-103866285D01*
X91182000Y-104223428D02*
X91110571Y-104152000D01*
X90967714Y-104080571D01*
X90610571Y-104080571D01*
X90467714Y-104152000D01*
X90396285Y-104223428D01*
X90324857Y-104366285D01*
X90324857Y-104509142D01*
X90396285Y-104723428D01*
X91253428Y-105580571D01*
X90324857Y-105580571D01*
X89396285Y-104080571D02*
X89253428Y-104080571D01*
X89110571Y-104152000D01*
X89039142Y-104223428D01*
X88967714Y-104366285D01*
X88896285Y-104652000D01*
X88896285Y-105009142D01*
X88967714Y-105294857D01*
X89039142Y-105437714D01*
X89110571Y-105509142D01*
X89253428Y-105580571D01*
X89396285Y-105580571D01*
X89539142Y-105509142D01*
X89610571Y-105437714D01*
X89682000Y-105294857D01*
X89753428Y-105009142D01*
X89753428Y-104652000D01*
X89682000Y-104366285D01*
X89610571Y-104223428D01*
X89539142Y-104152000D01*
X89396285Y-104080571D01*
X88324857Y-104223428D02*
X88253428Y-104152000D01*
X88110571Y-104080571D01*
X87753428Y-104080571D01*
X87610571Y-104152000D01*
X87539142Y-104223428D01*
X87467714Y-104366285D01*
X87467714Y-104509142D01*
X87539142Y-104723428D01*
X88396285Y-105580571D01*
X87467714Y-105580571D01*
X86539142Y-104080571D02*
X86396285Y-104080571D01*
X86253428Y-104152000D01*
X86182000Y-104223428D01*
X86110571Y-104366285D01*
X86039142Y-104652000D01*
X86039142Y-105009142D01*
X86110571Y-105294857D01*
X86182000Y-105437714D01*
X86253428Y-105509142D01*
X86396285Y-105580571D01*
X86539142Y-105580571D01*
X86682000Y-105509142D01*
X86753428Y-105437714D01*
X86824857Y-105294857D01*
X86896285Y-105009142D01*
X86896285Y-104652000D01*
X86824857Y-104366285D01*
X86753428Y-104223428D01*
X86682000Y-104152000D01*
X86539142Y-104080571D01*
X84324857Y-105152000D02*
X83610571Y-105152000D01*
X84467714Y-105580571D02*
X83967714Y-104080571D01*
X83467714Y-105580571D01*
X82967714Y-104580571D02*
X82967714Y-105580571D01*
X82967714Y-104723428D02*
X82896285Y-104652000D01*
X82753428Y-104580571D01*
X82539142Y-104580571D01*
X82396285Y-104652000D01*
X82324857Y-104794857D01*
X82324857Y-105580571D01*
X80967714Y-105580571D02*
X80967714Y-104080571D01*
X80967714Y-105509142D02*
X81110571Y-105580571D01*
X81396285Y-105580571D01*
X81539142Y-105509142D01*
X81610571Y-105437714D01*
X81682000Y-105294857D01*
X81682000Y-104866285D01*
X81610571Y-104723428D01*
X81539142Y-104652000D01*
X81396285Y-104580571D01*
X81110571Y-104580571D01*
X80967714Y-104652000D01*
X80253428Y-105580571D02*
X80253428Y-104580571D01*
X80253428Y-104866285D02*
X80182000Y-104723428D01*
X80110571Y-104652000D01*
X79967714Y-104580571D01*
X79824857Y-104580571D01*
X78753428Y-105509142D02*
X78896285Y-105580571D01*
X79182000Y-105580571D01*
X79324857Y-105509142D01*
X79396285Y-105366285D01*
X79396285Y-104794857D01*
X79324857Y-104652000D01*
X79182000Y-104580571D01*
X78896285Y-104580571D01*
X78753428Y-104652000D01*
X78682000Y-104794857D01*
X78682000Y-104937714D01*
X79396285Y-105080571D01*
X78182000Y-104580571D02*
X77896285Y-105580571D01*
X77610571Y-104866285D01*
X77324857Y-105580571D01*
X77039142Y-104580571D01*
X74824857Y-104794857D02*
X75324857Y-104794857D01*
X75324857Y-105580571D02*
X75324857Y-104080571D01*
X74610571Y-104080571D01*
X73824857Y-105580571D02*
X73967714Y-105509142D01*
X74039142Y-105437714D01*
X74110571Y-105294857D01*
X74110571Y-104866285D01*
X74039142Y-104723428D01*
X73967714Y-104652000D01*
X73824857Y-104580571D01*
X73610571Y-104580571D01*
X73467714Y-104652000D01*
X73396285Y-104723428D01*
X73324857Y-104866285D01*
X73324857Y-105294857D01*
X73396285Y-105437714D01*
X73467714Y-105509142D01*
X73610571Y-105580571D01*
X73824857Y-105580571D01*
X72824857Y-105580571D02*
X72039142Y-104580571D01*
X72824857Y-104580571D02*
X72039142Y-105580571D01*
X94896285Y-108049142D02*
X94682000Y-108120571D01*
X94324857Y-108120571D01*
X94182000Y-108049142D01*
X94110571Y-107977714D01*
X94039142Y-107834857D01*
X94039142Y-107692000D01*
X94110571Y-107549142D01*
X94182000Y-107477714D01*
X94324857Y-107406285D01*
X94610571Y-107334857D01*
X94753428Y-107263428D01*
X94824857Y-107192000D01*
X94896285Y-107049142D01*
X94896285Y-106906285D01*
X94824857Y-106763428D01*
X94753428Y-106692000D01*
X94610571Y-106620571D01*
X94253428Y-106620571D01*
X94039142Y-106692000D01*
X93182000Y-108120571D02*
X93324857Y-108049142D01*
X93396285Y-107977714D01*
X93467714Y-107834857D01*
X93467714Y-107406285D01*
X93396285Y-107263428D01*
X93324857Y-107192000D01*
X93182000Y-107120571D01*
X92967714Y-107120571D01*
X92824857Y-107192000D01*
X92753428Y-107263428D01*
X92682000Y-107406285D01*
X92682000Y-107834857D01*
X92753428Y-107977714D01*
X92824857Y-108049142D01*
X92967714Y-108120571D01*
X93182000Y-108120571D01*
X91396285Y-107120571D02*
X91396285Y-108120571D01*
X92039142Y-107120571D02*
X92039142Y-107906285D01*
X91967714Y-108049142D01*
X91824857Y-108120571D01*
X91610571Y-108120571D01*
X91467714Y-108049142D01*
X91396285Y-107977714D01*
X90682000Y-107120571D02*
X90682000Y-108120571D01*
X90682000Y-107263428D02*
X90610571Y-107192000D01*
X90467714Y-107120571D01*
X90253428Y-107120571D01*
X90110571Y-107192000D01*
X90039142Y-107334857D01*
X90039142Y-108120571D01*
X88682000Y-108120571D02*
X88682000Y-106620571D01*
X88682000Y-108049142D02*
X88824857Y-108120571D01*
X89110571Y-108120571D01*
X89253428Y-108049142D01*
X89324857Y-107977714D01*
X89396285Y-107834857D01*
X89396285Y-107406285D01*
X89324857Y-107263428D01*
X89253428Y-107192000D01*
X89110571Y-107120571D01*
X88824857Y-107120571D01*
X88682000Y-107192000D01*
X85967714Y-107977714D02*
X86039142Y-108049142D01*
X86253428Y-108120571D01*
X86396285Y-108120571D01*
X86610571Y-108049142D01*
X86753428Y-107906285D01*
X86824857Y-107763428D01*
X86896285Y-107477714D01*
X86896285Y-107263428D01*
X86824857Y-106977714D01*
X86753428Y-106834857D01*
X86610571Y-106692000D01*
X86396285Y-106620571D01*
X86253428Y-106620571D01*
X86039142Y-106692000D01*
X85967714Y-106763428D01*
X84682000Y-108120571D02*
X84682000Y-107334857D01*
X84753428Y-107192000D01*
X84896285Y-107120571D01*
X85182000Y-107120571D01*
X85324857Y-107192000D01*
X84682000Y-108049142D02*
X84824857Y-108120571D01*
X85182000Y-108120571D01*
X85324857Y-108049142D01*
X85396285Y-107906285D01*
X85396285Y-107763428D01*
X85324857Y-107620571D01*
X85182000Y-107549142D01*
X84824857Y-107549142D01*
X84682000Y-107477714D01*
X83967714Y-108120571D02*
X83967714Y-107120571D01*
X83967714Y-107406285D02*
X83896285Y-107263428D01*
X83824857Y-107192000D01*
X83682000Y-107120571D01*
X83539142Y-107120571D01*
X82396285Y-108120571D02*
X82396285Y-106620571D01*
X82396285Y-108049142D02*
X82539142Y-108120571D01*
X82824857Y-108120571D01*
X82967714Y-108049142D01*
X83039142Y-107977714D01*
X83110571Y-107834857D01*
X83110571Y-107406285D01*
X83039142Y-107263428D01*
X82967714Y-107192000D01*
X82824857Y-107120571D01*
X82539142Y-107120571D01*
X82396285Y-107192000D01*
X81610571Y-108049142D02*
X81610571Y-108120571D01*
X81682000Y-108263428D01*
X81753428Y-108334857D01*
X78967714Y-108120571D02*
X79467714Y-107406285D01*
X79824857Y-108120571D02*
X79824857Y-106620571D01*
X79253428Y-106620571D01*
X79110571Y-106692000D01*
X79039142Y-106763428D01*
X78967714Y-106906285D01*
X78967714Y-107120571D01*
X79039142Y-107263428D01*
X79110571Y-107334857D01*
X79253428Y-107406285D01*
X79824857Y-107406285D01*
X77753428Y-108049142D02*
X77896285Y-108120571D01*
X78182000Y-108120571D01*
X78324857Y-108049142D01*
X78396285Y-107906285D01*
X78396285Y-107334857D01*
X78324857Y-107192000D01*
X78182000Y-107120571D01*
X77896285Y-107120571D01*
X77753428Y-107192000D01*
X77682000Y-107334857D01*
X77682000Y-107477714D01*
X78396285Y-107620571D01*
X77182000Y-107120571D02*
X76824857Y-108120571D01*
X76467714Y-107120571D01*
X74824857Y-106763428D02*
X74753428Y-106692000D01*
X74610571Y-106620571D01*
X74253428Y-106620571D01*
X74110571Y-106692000D01*
X74039142Y-106763428D01*
X73967714Y-106906285D01*
X73967714Y-107049142D01*
X74039142Y-107263428D01*
X74896285Y-108120571D01*
X73967714Y-108120571D01*
D11*
X118573733Y-122934000D02*
X118916267Y-122934000D01*
X118573733Y-123954000D02*
X118916267Y-123954000D01*
X133051733Y-123188000D02*
X133394267Y-123188000D01*
X133051733Y-124208000D02*
X133394267Y-124208000D01*
X143846733Y-123315000D02*
X144189267Y-123315000D01*
X143846733Y-124335000D02*
X144189267Y-124335000D01*
D12*
X119387857Y-125325142D02*
X119435476Y-125372761D01*
X119578333Y-125420380D01*
X119673571Y-125420380D01*
X119816428Y-125372761D01*
X119911666Y-125277523D01*
X119959285Y-125182285D01*
X120006904Y-124991809D01*
X120006904Y-124848952D01*
X119959285Y-124658476D01*
X119911666Y-124563238D01*
X119816428Y-124468000D01*
X119673571Y-124420380D01*
X119578333Y-124420380D01*
X119435476Y-124468000D01*
X119387857Y-124515619D01*
X118435476Y-125420380D02*
X119006904Y-125420380D01*
X118721190Y-125420380D02*
X118721190Y-124420380D01*
X118816428Y-124563238D01*
X118911666Y-124658476D01*
X119006904Y-124706095D01*
X117816428Y-124420380D02*
X117721190Y-124420380D01*
X117625952Y-124468000D01*
X117578333Y-124515619D01*
X117530714Y-124610857D01*
X117483095Y-124801333D01*
X117483095Y-125039428D01*
X117530714Y-125229904D01*
X117578333Y-125325142D01*
X117625952Y-125372761D01*
X117721190Y-125420380D01*
X117816428Y-125420380D01*
X117911666Y-125372761D01*
X117959285Y-125325142D01*
X118006904Y-125229904D01*
X118054523Y-125039428D01*
X118054523Y-124801333D01*
X118006904Y-124610857D01*
X117959285Y-124515619D01*
X117911666Y-124468000D01*
X117816428Y-124420380D01*
X133389666Y-125485142D02*
X133437285Y-125532761D01*
X133580142Y-125580380D01*
X133675380Y-125580380D01*
X133818238Y-125532761D01*
X133913476Y-125437523D01*
X133961095Y-125342285D01*
X134008714Y-125151809D01*
X134008714Y-125008952D01*
X133961095Y-124818476D01*
X133913476Y-124723238D01*
X133818238Y-124628000D01*
X133675380Y-124580380D01*
X133580142Y-124580380D01*
X133437285Y-124628000D01*
X133389666Y-124675619D01*
X133056333Y-124580380D02*
X132437285Y-124580380D01*
X132770619Y-124961333D01*
X132627761Y-124961333D01*
X132532523Y-125008952D01*
X132484904Y-125056571D01*
X132437285Y-125151809D01*
X132437285Y-125389904D01*
X132484904Y-125485142D01*
X132532523Y-125532761D01*
X132627761Y-125580380D01*
X132913476Y-125580380D01*
X133008714Y-125532761D01*
X133056333Y-125485142D01*
X144184666Y-125612142D02*
X144232285Y-125659761D01*
X144375142Y-125707380D01*
X144470380Y-125707380D01*
X144613238Y-125659761D01*
X144708476Y-125564523D01*
X144756095Y-125469285D01*
X144803714Y-125278809D01*
X144803714Y-125135952D01*
X144756095Y-124945476D01*
X144708476Y-124850238D01*
X144613238Y-124755000D01*
X144470380Y-124707380D01*
X144375142Y-124707380D01*
X144232285Y-124755000D01*
X144184666Y-124802619D01*
X143803714Y-124802619D02*
X143756095Y-124755000D01*
X143660857Y-124707380D01*
X143422761Y-124707380D01*
X143327523Y-124755000D01*
X143279904Y-124802619D01*
X143232285Y-124897857D01*
X143232285Y-124993095D01*
X143279904Y-125135952D01*
X143851333Y-125707380D01*
X143232285Y-125707380D01*
M02*
