G04 #@! TF.GenerationSoftware,KiCad,Pcbnew,(5.1.0-0)*
G04 #@! TF.CreationDate,2020-09-03T22:43:08-07:00*
G04 #@! TF.ProjectId,SoundCard,536f756e-6443-4617-9264-2e6b69636164,rev?*
G04 #@! TF.SameCoordinates,Original*
G04 #@! TF.FileFunction,Soldermask,Bot*
G04 #@! TF.FilePolarity,Negative*
%FSLAX46Y46*%
G04 Gerber Fmt 4.6, Leading zero omitted, Abs format (unit mm)*
G04 Created by KiCad (PCBNEW (5.1.0-0)) date 2020-09-03 22:43:08*
%MOMM*%
%LPD*%
G04 APERTURE LIST*
%ADD10C,0.100000*%
G04 APERTURE END LIST*
D10*
G36*
X163940442Y-134995518D02*
G01*
X164006627Y-135002037D01*
X164176466Y-135053557D01*
X164332991Y-135137222D01*
X164368729Y-135166552D01*
X164470186Y-135249814D01*
X164553448Y-135351271D01*
X164582778Y-135387009D01*
X164666443Y-135543534D01*
X164717963Y-135713373D01*
X164735359Y-135890000D01*
X164717963Y-136066627D01*
X164666443Y-136236466D01*
X164582778Y-136392991D01*
X164553448Y-136428729D01*
X164470186Y-136530186D01*
X164368729Y-136613448D01*
X164332991Y-136642778D01*
X164176466Y-136726443D01*
X164006627Y-136777963D01*
X163940442Y-136784482D01*
X163874260Y-136791000D01*
X163785740Y-136791000D01*
X163719558Y-136784482D01*
X163653373Y-136777963D01*
X163483534Y-136726443D01*
X163327009Y-136642778D01*
X163291271Y-136613448D01*
X163189814Y-136530186D01*
X163106552Y-136428729D01*
X163077222Y-136392991D01*
X162993557Y-136236466D01*
X162942037Y-136066627D01*
X162924641Y-135890000D01*
X162942037Y-135713373D01*
X162993557Y-135543534D01*
X163077222Y-135387009D01*
X163106552Y-135351271D01*
X163189814Y-135249814D01*
X163291271Y-135166552D01*
X163327009Y-135137222D01*
X163483534Y-135053557D01*
X163653373Y-135002037D01*
X163719558Y-134995518D01*
X163785740Y-134989000D01*
X163874260Y-134989000D01*
X163940442Y-134995518D01*
X163940442Y-134995518D01*
G37*
G36*
X161400442Y-134995518D02*
G01*
X161466627Y-135002037D01*
X161636466Y-135053557D01*
X161792991Y-135137222D01*
X161828729Y-135166552D01*
X161930186Y-135249814D01*
X162013448Y-135351271D01*
X162042778Y-135387009D01*
X162126443Y-135543534D01*
X162177963Y-135713373D01*
X162195359Y-135890000D01*
X162177963Y-136066627D01*
X162126443Y-136236466D01*
X162042778Y-136392991D01*
X162013448Y-136428729D01*
X161930186Y-136530186D01*
X161828729Y-136613448D01*
X161792991Y-136642778D01*
X161636466Y-136726443D01*
X161466627Y-136777963D01*
X161400442Y-136784482D01*
X161334260Y-136791000D01*
X161245740Y-136791000D01*
X161179558Y-136784482D01*
X161113373Y-136777963D01*
X160943534Y-136726443D01*
X160787009Y-136642778D01*
X160751271Y-136613448D01*
X160649814Y-136530186D01*
X160566552Y-136428729D01*
X160537222Y-136392991D01*
X160453557Y-136236466D01*
X160402037Y-136066627D01*
X160384641Y-135890000D01*
X160402037Y-135713373D01*
X160453557Y-135543534D01*
X160537222Y-135387009D01*
X160566552Y-135351271D01*
X160649814Y-135249814D01*
X160751271Y-135166552D01*
X160787009Y-135137222D01*
X160943534Y-135053557D01*
X161113373Y-135002037D01*
X161179558Y-134995518D01*
X161245740Y-134989000D01*
X161334260Y-134989000D01*
X161400442Y-134995518D01*
X161400442Y-134995518D01*
G37*
G36*
X158860442Y-134995518D02*
G01*
X158926627Y-135002037D01*
X159096466Y-135053557D01*
X159252991Y-135137222D01*
X159288729Y-135166552D01*
X159390186Y-135249814D01*
X159473448Y-135351271D01*
X159502778Y-135387009D01*
X159586443Y-135543534D01*
X159637963Y-135713373D01*
X159655359Y-135890000D01*
X159637963Y-136066627D01*
X159586443Y-136236466D01*
X159502778Y-136392991D01*
X159473448Y-136428729D01*
X159390186Y-136530186D01*
X159288729Y-136613448D01*
X159252991Y-136642778D01*
X159096466Y-136726443D01*
X158926627Y-136777963D01*
X158860442Y-136784482D01*
X158794260Y-136791000D01*
X158705740Y-136791000D01*
X158639558Y-136784482D01*
X158573373Y-136777963D01*
X158403534Y-136726443D01*
X158247009Y-136642778D01*
X158211271Y-136613448D01*
X158109814Y-136530186D01*
X158026552Y-136428729D01*
X157997222Y-136392991D01*
X157913557Y-136236466D01*
X157862037Y-136066627D01*
X157844641Y-135890000D01*
X157862037Y-135713373D01*
X157913557Y-135543534D01*
X157997222Y-135387009D01*
X158026552Y-135351271D01*
X158109814Y-135249814D01*
X158211271Y-135166552D01*
X158247009Y-135137222D01*
X158403534Y-135053557D01*
X158573373Y-135002037D01*
X158639558Y-134995518D01*
X158705740Y-134989000D01*
X158794260Y-134989000D01*
X158860442Y-134995518D01*
X158860442Y-134995518D01*
G37*
G36*
X156320442Y-134995518D02*
G01*
X156386627Y-135002037D01*
X156556466Y-135053557D01*
X156712991Y-135137222D01*
X156748729Y-135166552D01*
X156850186Y-135249814D01*
X156933448Y-135351271D01*
X156962778Y-135387009D01*
X157046443Y-135543534D01*
X157097963Y-135713373D01*
X157115359Y-135890000D01*
X157097963Y-136066627D01*
X157046443Y-136236466D01*
X156962778Y-136392991D01*
X156933448Y-136428729D01*
X156850186Y-136530186D01*
X156748729Y-136613448D01*
X156712991Y-136642778D01*
X156556466Y-136726443D01*
X156386627Y-136777963D01*
X156320442Y-136784482D01*
X156254260Y-136791000D01*
X156165740Y-136791000D01*
X156099558Y-136784482D01*
X156033373Y-136777963D01*
X155863534Y-136726443D01*
X155707009Y-136642778D01*
X155671271Y-136613448D01*
X155569814Y-136530186D01*
X155486552Y-136428729D01*
X155457222Y-136392991D01*
X155373557Y-136236466D01*
X155322037Y-136066627D01*
X155304641Y-135890000D01*
X155322037Y-135713373D01*
X155373557Y-135543534D01*
X155457222Y-135387009D01*
X155486552Y-135351271D01*
X155569814Y-135249814D01*
X155671271Y-135166552D01*
X155707009Y-135137222D01*
X155863534Y-135053557D01*
X156033373Y-135002037D01*
X156099558Y-134995518D01*
X156165740Y-134989000D01*
X156254260Y-134989000D01*
X156320442Y-134995518D01*
X156320442Y-134995518D01*
G37*
G36*
X153780442Y-134995518D02*
G01*
X153846627Y-135002037D01*
X154016466Y-135053557D01*
X154172991Y-135137222D01*
X154208729Y-135166552D01*
X154310186Y-135249814D01*
X154393448Y-135351271D01*
X154422778Y-135387009D01*
X154506443Y-135543534D01*
X154557963Y-135713373D01*
X154575359Y-135890000D01*
X154557963Y-136066627D01*
X154506443Y-136236466D01*
X154422778Y-136392991D01*
X154393448Y-136428729D01*
X154310186Y-136530186D01*
X154208729Y-136613448D01*
X154172991Y-136642778D01*
X154016466Y-136726443D01*
X153846627Y-136777963D01*
X153780442Y-136784482D01*
X153714260Y-136791000D01*
X153625740Y-136791000D01*
X153559558Y-136784482D01*
X153493373Y-136777963D01*
X153323534Y-136726443D01*
X153167009Y-136642778D01*
X153131271Y-136613448D01*
X153029814Y-136530186D01*
X152946552Y-136428729D01*
X152917222Y-136392991D01*
X152833557Y-136236466D01*
X152782037Y-136066627D01*
X152764641Y-135890000D01*
X152782037Y-135713373D01*
X152833557Y-135543534D01*
X152917222Y-135387009D01*
X152946552Y-135351271D01*
X153029814Y-135249814D01*
X153131271Y-135166552D01*
X153167009Y-135137222D01*
X153323534Y-135053557D01*
X153493373Y-135002037D01*
X153559558Y-134995518D01*
X153625740Y-134989000D01*
X153714260Y-134989000D01*
X153780442Y-134995518D01*
X153780442Y-134995518D01*
G37*
G36*
X151240442Y-134995518D02*
G01*
X151306627Y-135002037D01*
X151476466Y-135053557D01*
X151632991Y-135137222D01*
X151668729Y-135166552D01*
X151770186Y-135249814D01*
X151853448Y-135351271D01*
X151882778Y-135387009D01*
X151966443Y-135543534D01*
X152017963Y-135713373D01*
X152035359Y-135890000D01*
X152017963Y-136066627D01*
X151966443Y-136236466D01*
X151882778Y-136392991D01*
X151853448Y-136428729D01*
X151770186Y-136530186D01*
X151668729Y-136613448D01*
X151632991Y-136642778D01*
X151476466Y-136726443D01*
X151306627Y-136777963D01*
X151240442Y-136784482D01*
X151174260Y-136791000D01*
X151085740Y-136791000D01*
X151019558Y-136784482D01*
X150953373Y-136777963D01*
X150783534Y-136726443D01*
X150627009Y-136642778D01*
X150591271Y-136613448D01*
X150489814Y-136530186D01*
X150406552Y-136428729D01*
X150377222Y-136392991D01*
X150293557Y-136236466D01*
X150242037Y-136066627D01*
X150224641Y-135890000D01*
X150242037Y-135713373D01*
X150293557Y-135543534D01*
X150377222Y-135387009D01*
X150406552Y-135351271D01*
X150489814Y-135249814D01*
X150591271Y-135166552D01*
X150627009Y-135137222D01*
X150783534Y-135053557D01*
X150953373Y-135002037D01*
X151019558Y-134995518D01*
X151085740Y-134989000D01*
X151174260Y-134989000D01*
X151240442Y-134995518D01*
X151240442Y-134995518D01*
G37*
G36*
X148700442Y-134995518D02*
G01*
X148766627Y-135002037D01*
X148936466Y-135053557D01*
X149092991Y-135137222D01*
X149128729Y-135166552D01*
X149230186Y-135249814D01*
X149313448Y-135351271D01*
X149342778Y-135387009D01*
X149426443Y-135543534D01*
X149477963Y-135713373D01*
X149495359Y-135890000D01*
X149477963Y-136066627D01*
X149426443Y-136236466D01*
X149342778Y-136392991D01*
X149313448Y-136428729D01*
X149230186Y-136530186D01*
X149128729Y-136613448D01*
X149092991Y-136642778D01*
X148936466Y-136726443D01*
X148766627Y-136777963D01*
X148700442Y-136784482D01*
X148634260Y-136791000D01*
X148545740Y-136791000D01*
X148479558Y-136784482D01*
X148413373Y-136777963D01*
X148243534Y-136726443D01*
X148087009Y-136642778D01*
X148051271Y-136613448D01*
X147949814Y-136530186D01*
X147866552Y-136428729D01*
X147837222Y-136392991D01*
X147753557Y-136236466D01*
X147702037Y-136066627D01*
X147684641Y-135890000D01*
X147702037Y-135713373D01*
X147753557Y-135543534D01*
X147837222Y-135387009D01*
X147866552Y-135351271D01*
X147949814Y-135249814D01*
X148051271Y-135166552D01*
X148087009Y-135137222D01*
X148243534Y-135053557D01*
X148413373Y-135002037D01*
X148479558Y-134995518D01*
X148545740Y-134989000D01*
X148634260Y-134989000D01*
X148700442Y-134995518D01*
X148700442Y-134995518D01*
G37*
G36*
X146160442Y-134995518D02*
G01*
X146226627Y-135002037D01*
X146396466Y-135053557D01*
X146552991Y-135137222D01*
X146588729Y-135166552D01*
X146690186Y-135249814D01*
X146773448Y-135351271D01*
X146802778Y-135387009D01*
X146886443Y-135543534D01*
X146937963Y-135713373D01*
X146955359Y-135890000D01*
X146937963Y-136066627D01*
X146886443Y-136236466D01*
X146802778Y-136392991D01*
X146773448Y-136428729D01*
X146690186Y-136530186D01*
X146588729Y-136613448D01*
X146552991Y-136642778D01*
X146396466Y-136726443D01*
X146226627Y-136777963D01*
X146160442Y-136784482D01*
X146094260Y-136791000D01*
X146005740Y-136791000D01*
X145939558Y-136784482D01*
X145873373Y-136777963D01*
X145703534Y-136726443D01*
X145547009Y-136642778D01*
X145511271Y-136613448D01*
X145409814Y-136530186D01*
X145326552Y-136428729D01*
X145297222Y-136392991D01*
X145213557Y-136236466D01*
X145162037Y-136066627D01*
X145144641Y-135890000D01*
X145162037Y-135713373D01*
X145213557Y-135543534D01*
X145297222Y-135387009D01*
X145326552Y-135351271D01*
X145409814Y-135249814D01*
X145511271Y-135166552D01*
X145547009Y-135137222D01*
X145703534Y-135053557D01*
X145873373Y-135002037D01*
X145939558Y-134995518D01*
X146005740Y-134989000D01*
X146094260Y-134989000D01*
X146160442Y-134995518D01*
X146160442Y-134995518D01*
G37*
G36*
X143620442Y-134995518D02*
G01*
X143686627Y-135002037D01*
X143856466Y-135053557D01*
X144012991Y-135137222D01*
X144048729Y-135166552D01*
X144150186Y-135249814D01*
X144233448Y-135351271D01*
X144262778Y-135387009D01*
X144346443Y-135543534D01*
X144397963Y-135713373D01*
X144415359Y-135890000D01*
X144397963Y-136066627D01*
X144346443Y-136236466D01*
X144262778Y-136392991D01*
X144233448Y-136428729D01*
X144150186Y-136530186D01*
X144048729Y-136613448D01*
X144012991Y-136642778D01*
X143856466Y-136726443D01*
X143686627Y-136777963D01*
X143620442Y-136784482D01*
X143554260Y-136791000D01*
X143465740Y-136791000D01*
X143399558Y-136784482D01*
X143333373Y-136777963D01*
X143163534Y-136726443D01*
X143007009Y-136642778D01*
X142971271Y-136613448D01*
X142869814Y-136530186D01*
X142786552Y-136428729D01*
X142757222Y-136392991D01*
X142673557Y-136236466D01*
X142622037Y-136066627D01*
X142604641Y-135890000D01*
X142622037Y-135713373D01*
X142673557Y-135543534D01*
X142757222Y-135387009D01*
X142786552Y-135351271D01*
X142869814Y-135249814D01*
X142971271Y-135166552D01*
X143007009Y-135137222D01*
X143163534Y-135053557D01*
X143333373Y-135002037D01*
X143399558Y-134995518D01*
X143465740Y-134989000D01*
X143554260Y-134989000D01*
X143620442Y-134995518D01*
X143620442Y-134995518D01*
G37*
G36*
X141080442Y-134995518D02*
G01*
X141146627Y-135002037D01*
X141316466Y-135053557D01*
X141472991Y-135137222D01*
X141508729Y-135166552D01*
X141610186Y-135249814D01*
X141693448Y-135351271D01*
X141722778Y-135387009D01*
X141806443Y-135543534D01*
X141857963Y-135713373D01*
X141875359Y-135890000D01*
X141857963Y-136066627D01*
X141806443Y-136236466D01*
X141722778Y-136392991D01*
X141693448Y-136428729D01*
X141610186Y-136530186D01*
X141508729Y-136613448D01*
X141472991Y-136642778D01*
X141316466Y-136726443D01*
X141146627Y-136777963D01*
X141080442Y-136784482D01*
X141014260Y-136791000D01*
X140925740Y-136791000D01*
X140859558Y-136784482D01*
X140793373Y-136777963D01*
X140623534Y-136726443D01*
X140467009Y-136642778D01*
X140431271Y-136613448D01*
X140329814Y-136530186D01*
X140246552Y-136428729D01*
X140217222Y-136392991D01*
X140133557Y-136236466D01*
X140082037Y-136066627D01*
X140064641Y-135890000D01*
X140082037Y-135713373D01*
X140133557Y-135543534D01*
X140217222Y-135387009D01*
X140246552Y-135351271D01*
X140329814Y-135249814D01*
X140431271Y-135166552D01*
X140467009Y-135137222D01*
X140623534Y-135053557D01*
X140793373Y-135002037D01*
X140859558Y-134995518D01*
X140925740Y-134989000D01*
X141014260Y-134989000D01*
X141080442Y-134995518D01*
X141080442Y-134995518D01*
G37*
G36*
X138540442Y-134995518D02*
G01*
X138606627Y-135002037D01*
X138776466Y-135053557D01*
X138932991Y-135137222D01*
X138968729Y-135166552D01*
X139070186Y-135249814D01*
X139153448Y-135351271D01*
X139182778Y-135387009D01*
X139266443Y-135543534D01*
X139317963Y-135713373D01*
X139335359Y-135890000D01*
X139317963Y-136066627D01*
X139266443Y-136236466D01*
X139182778Y-136392991D01*
X139153448Y-136428729D01*
X139070186Y-136530186D01*
X138968729Y-136613448D01*
X138932991Y-136642778D01*
X138776466Y-136726443D01*
X138606627Y-136777963D01*
X138540442Y-136784482D01*
X138474260Y-136791000D01*
X138385740Y-136791000D01*
X138319558Y-136784482D01*
X138253373Y-136777963D01*
X138083534Y-136726443D01*
X137927009Y-136642778D01*
X137891271Y-136613448D01*
X137789814Y-136530186D01*
X137706552Y-136428729D01*
X137677222Y-136392991D01*
X137593557Y-136236466D01*
X137542037Y-136066627D01*
X137524641Y-135890000D01*
X137542037Y-135713373D01*
X137593557Y-135543534D01*
X137677222Y-135387009D01*
X137706552Y-135351271D01*
X137789814Y-135249814D01*
X137891271Y-135166552D01*
X137927009Y-135137222D01*
X138083534Y-135053557D01*
X138253373Y-135002037D01*
X138319558Y-134995518D01*
X138385740Y-134989000D01*
X138474260Y-134989000D01*
X138540442Y-134995518D01*
X138540442Y-134995518D01*
G37*
G36*
X136000442Y-134995518D02*
G01*
X136066627Y-135002037D01*
X136236466Y-135053557D01*
X136392991Y-135137222D01*
X136428729Y-135166552D01*
X136530186Y-135249814D01*
X136613448Y-135351271D01*
X136642778Y-135387009D01*
X136726443Y-135543534D01*
X136777963Y-135713373D01*
X136795359Y-135890000D01*
X136777963Y-136066627D01*
X136726443Y-136236466D01*
X136642778Y-136392991D01*
X136613448Y-136428729D01*
X136530186Y-136530186D01*
X136428729Y-136613448D01*
X136392991Y-136642778D01*
X136236466Y-136726443D01*
X136066627Y-136777963D01*
X136000442Y-136784482D01*
X135934260Y-136791000D01*
X135845740Y-136791000D01*
X135779558Y-136784482D01*
X135713373Y-136777963D01*
X135543534Y-136726443D01*
X135387009Y-136642778D01*
X135351271Y-136613448D01*
X135249814Y-136530186D01*
X135166552Y-136428729D01*
X135137222Y-136392991D01*
X135053557Y-136236466D01*
X135002037Y-136066627D01*
X134984641Y-135890000D01*
X135002037Y-135713373D01*
X135053557Y-135543534D01*
X135137222Y-135387009D01*
X135166552Y-135351271D01*
X135249814Y-135249814D01*
X135351271Y-135166552D01*
X135387009Y-135137222D01*
X135543534Y-135053557D01*
X135713373Y-135002037D01*
X135779558Y-134995518D01*
X135845740Y-134989000D01*
X135934260Y-134989000D01*
X136000442Y-134995518D01*
X136000442Y-134995518D01*
G37*
G36*
X133460442Y-134995518D02*
G01*
X133526627Y-135002037D01*
X133696466Y-135053557D01*
X133852991Y-135137222D01*
X133888729Y-135166552D01*
X133990186Y-135249814D01*
X134073448Y-135351271D01*
X134102778Y-135387009D01*
X134186443Y-135543534D01*
X134237963Y-135713373D01*
X134255359Y-135890000D01*
X134237963Y-136066627D01*
X134186443Y-136236466D01*
X134102778Y-136392991D01*
X134073448Y-136428729D01*
X133990186Y-136530186D01*
X133888729Y-136613448D01*
X133852991Y-136642778D01*
X133696466Y-136726443D01*
X133526627Y-136777963D01*
X133460442Y-136784482D01*
X133394260Y-136791000D01*
X133305740Y-136791000D01*
X133239558Y-136784482D01*
X133173373Y-136777963D01*
X133003534Y-136726443D01*
X132847009Y-136642778D01*
X132811271Y-136613448D01*
X132709814Y-136530186D01*
X132626552Y-136428729D01*
X132597222Y-136392991D01*
X132513557Y-136236466D01*
X132462037Y-136066627D01*
X132444641Y-135890000D01*
X132462037Y-135713373D01*
X132513557Y-135543534D01*
X132597222Y-135387009D01*
X132626552Y-135351271D01*
X132709814Y-135249814D01*
X132811271Y-135166552D01*
X132847009Y-135137222D01*
X133003534Y-135053557D01*
X133173373Y-135002037D01*
X133239558Y-134995518D01*
X133305740Y-134989000D01*
X133394260Y-134989000D01*
X133460442Y-134995518D01*
X133460442Y-134995518D01*
G37*
G36*
X130920442Y-134995518D02*
G01*
X130986627Y-135002037D01*
X131156466Y-135053557D01*
X131312991Y-135137222D01*
X131348729Y-135166552D01*
X131450186Y-135249814D01*
X131533448Y-135351271D01*
X131562778Y-135387009D01*
X131646443Y-135543534D01*
X131697963Y-135713373D01*
X131715359Y-135890000D01*
X131697963Y-136066627D01*
X131646443Y-136236466D01*
X131562778Y-136392991D01*
X131533448Y-136428729D01*
X131450186Y-136530186D01*
X131348729Y-136613448D01*
X131312991Y-136642778D01*
X131156466Y-136726443D01*
X130986627Y-136777963D01*
X130920442Y-136784482D01*
X130854260Y-136791000D01*
X130765740Y-136791000D01*
X130699558Y-136784482D01*
X130633373Y-136777963D01*
X130463534Y-136726443D01*
X130307009Y-136642778D01*
X130271271Y-136613448D01*
X130169814Y-136530186D01*
X130086552Y-136428729D01*
X130057222Y-136392991D01*
X129973557Y-136236466D01*
X129922037Y-136066627D01*
X129904641Y-135890000D01*
X129922037Y-135713373D01*
X129973557Y-135543534D01*
X130057222Y-135387009D01*
X130086552Y-135351271D01*
X130169814Y-135249814D01*
X130271271Y-135166552D01*
X130307009Y-135137222D01*
X130463534Y-135053557D01*
X130633373Y-135002037D01*
X130699558Y-134995518D01*
X130765740Y-134989000D01*
X130854260Y-134989000D01*
X130920442Y-134995518D01*
X130920442Y-134995518D01*
G37*
G36*
X128380442Y-134995518D02*
G01*
X128446627Y-135002037D01*
X128616466Y-135053557D01*
X128772991Y-135137222D01*
X128808729Y-135166552D01*
X128910186Y-135249814D01*
X128993448Y-135351271D01*
X129022778Y-135387009D01*
X129106443Y-135543534D01*
X129157963Y-135713373D01*
X129175359Y-135890000D01*
X129157963Y-136066627D01*
X129106443Y-136236466D01*
X129022778Y-136392991D01*
X128993448Y-136428729D01*
X128910186Y-136530186D01*
X128808729Y-136613448D01*
X128772991Y-136642778D01*
X128616466Y-136726443D01*
X128446627Y-136777963D01*
X128380442Y-136784482D01*
X128314260Y-136791000D01*
X128225740Y-136791000D01*
X128159558Y-136784482D01*
X128093373Y-136777963D01*
X127923534Y-136726443D01*
X127767009Y-136642778D01*
X127731271Y-136613448D01*
X127629814Y-136530186D01*
X127546552Y-136428729D01*
X127517222Y-136392991D01*
X127433557Y-136236466D01*
X127382037Y-136066627D01*
X127364641Y-135890000D01*
X127382037Y-135713373D01*
X127433557Y-135543534D01*
X127517222Y-135387009D01*
X127546552Y-135351271D01*
X127629814Y-135249814D01*
X127731271Y-135166552D01*
X127767009Y-135137222D01*
X127923534Y-135053557D01*
X128093373Y-135002037D01*
X128159558Y-134995518D01*
X128225740Y-134989000D01*
X128314260Y-134989000D01*
X128380442Y-134995518D01*
X128380442Y-134995518D01*
G37*
G36*
X125840442Y-134995518D02*
G01*
X125906627Y-135002037D01*
X126076466Y-135053557D01*
X126232991Y-135137222D01*
X126268729Y-135166552D01*
X126370186Y-135249814D01*
X126453448Y-135351271D01*
X126482778Y-135387009D01*
X126566443Y-135543534D01*
X126617963Y-135713373D01*
X126635359Y-135890000D01*
X126617963Y-136066627D01*
X126566443Y-136236466D01*
X126482778Y-136392991D01*
X126453448Y-136428729D01*
X126370186Y-136530186D01*
X126268729Y-136613448D01*
X126232991Y-136642778D01*
X126076466Y-136726443D01*
X125906627Y-136777963D01*
X125840442Y-136784482D01*
X125774260Y-136791000D01*
X125685740Y-136791000D01*
X125619558Y-136784482D01*
X125553373Y-136777963D01*
X125383534Y-136726443D01*
X125227009Y-136642778D01*
X125191271Y-136613448D01*
X125089814Y-136530186D01*
X125006552Y-136428729D01*
X124977222Y-136392991D01*
X124893557Y-136236466D01*
X124842037Y-136066627D01*
X124824641Y-135890000D01*
X124842037Y-135713373D01*
X124893557Y-135543534D01*
X124977222Y-135387009D01*
X125006552Y-135351271D01*
X125089814Y-135249814D01*
X125191271Y-135166552D01*
X125227009Y-135137222D01*
X125383534Y-135053557D01*
X125553373Y-135002037D01*
X125619558Y-134995518D01*
X125685740Y-134989000D01*
X125774260Y-134989000D01*
X125840442Y-134995518D01*
X125840442Y-134995518D01*
G37*
G36*
X123300442Y-134995518D02*
G01*
X123366627Y-135002037D01*
X123536466Y-135053557D01*
X123692991Y-135137222D01*
X123728729Y-135166552D01*
X123830186Y-135249814D01*
X123913448Y-135351271D01*
X123942778Y-135387009D01*
X124026443Y-135543534D01*
X124077963Y-135713373D01*
X124095359Y-135890000D01*
X124077963Y-136066627D01*
X124026443Y-136236466D01*
X123942778Y-136392991D01*
X123913448Y-136428729D01*
X123830186Y-136530186D01*
X123728729Y-136613448D01*
X123692991Y-136642778D01*
X123536466Y-136726443D01*
X123366627Y-136777963D01*
X123300442Y-136784482D01*
X123234260Y-136791000D01*
X123145740Y-136791000D01*
X123079558Y-136784482D01*
X123013373Y-136777963D01*
X122843534Y-136726443D01*
X122687009Y-136642778D01*
X122651271Y-136613448D01*
X122549814Y-136530186D01*
X122466552Y-136428729D01*
X122437222Y-136392991D01*
X122353557Y-136236466D01*
X122302037Y-136066627D01*
X122284641Y-135890000D01*
X122302037Y-135713373D01*
X122353557Y-135543534D01*
X122437222Y-135387009D01*
X122466552Y-135351271D01*
X122549814Y-135249814D01*
X122651271Y-135166552D01*
X122687009Y-135137222D01*
X122843534Y-135053557D01*
X123013373Y-135002037D01*
X123079558Y-134995518D01*
X123145740Y-134989000D01*
X123234260Y-134989000D01*
X123300442Y-134995518D01*
X123300442Y-134995518D01*
G37*
G36*
X120760442Y-134995518D02*
G01*
X120826627Y-135002037D01*
X120996466Y-135053557D01*
X121152991Y-135137222D01*
X121188729Y-135166552D01*
X121290186Y-135249814D01*
X121373448Y-135351271D01*
X121402778Y-135387009D01*
X121486443Y-135543534D01*
X121537963Y-135713373D01*
X121555359Y-135890000D01*
X121537963Y-136066627D01*
X121486443Y-136236466D01*
X121402778Y-136392991D01*
X121373448Y-136428729D01*
X121290186Y-136530186D01*
X121188729Y-136613448D01*
X121152991Y-136642778D01*
X120996466Y-136726443D01*
X120826627Y-136777963D01*
X120760442Y-136784482D01*
X120694260Y-136791000D01*
X120605740Y-136791000D01*
X120539558Y-136784482D01*
X120473373Y-136777963D01*
X120303534Y-136726443D01*
X120147009Y-136642778D01*
X120111271Y-136613448D01*
X120009814Y-136530186D01*
X119926552Y-136428729D01*
X119897222Y-136392991D01*
X119813557Y-136236466D01*
X119762037Y-136066627D01*
X119744641Y-135890000D01*
X119762037Y-135713373D01*
X119813557Y-135543534D01*
X119897222Y-135387009D01*
X119926552Y-135351271D01*
X120009814Y-135249814D01*
X120111271Y-135166552D01*
X120147009Y-135137222D01*
X120303534Y-135053557D01*
X120473373Y-135002037D01*
X120539558Y-134995518D01*
X120605740Y-134989000D01*
X120694260Y-134989000D01*
X120760442Y-134995518D01*
X120760442Y-134995518D01*
G37*
G36*
X118220442Y-134995518D02*
G01*
X118286627Y-135002037D01*
X118456466Y-135053557D01*
X118612991Y-135137222D01*
X118648729Y-135166552D01*
X118750186Y-135249814D01*
X118833448Y-135351271D01*
X118862778Y-135387009D01*
X118946443Y-135543534D01*
X118997963Y-135713373D01*
X119015359Y-135890000D01*
X118997963Y-136066627D01*
X118946443Y-136236466D01*
X118862778Y-136392991D01*
X118833448Y-136428729D01*
X118750186Y-136530186D01*
X118648729Y-136613448D01*
X118612991Y-136642778D01*
X118456466Y-136726443D01*
X118286627Y-136777963D01*
X118220442Y-136784482D01*
X118154260Y-136791000D01*
X118065740Y-136791000D01*
X117999558Y-136784482D01*
X117933373Y-136777963D01*
X117763534Y-136726443D01*
X117607009Y-136642778D01*
X117571271Y-136613448D01*
X117469814Y-136530186D01*
X117386552Y-136428729D01*
X117357222Y-136392991D01*
X117273557Y-136236466D01*
X117222037Y-136066627D01*
X117204641Y-135890000D01*
X117222037Y-135713373D01*
X117273557Y-135543534D01*
X117357222Y-135387009D01*
X117386552Y-135351271D01*
X117469814Y-135249814D01*
X117571271Y-135166552D01*
X117607009Y-135137222D01*
X117763534Y-135053557D01*
X117933373Y-135002037D01*
X117999558Y-134995518D01*
X118065740Y-134989000D01*
X118154260Y-134989000D01*
X118220442Y-134995518D01*
X118220442Y-134995518D01*
G37*
G36*
X115680442Y-134995518D02*
G01*
X115746627Y-135002037D01*
X115916466Y-135053557D01*
X116072991Y-135137222D01*
X116108729Y-135166552D01*
X116210186Y-135249814D01*
X116293448Y-135351271D01*
X116322778Y-135387009D01*
X116406443Y-135543534D01*
X116457963Y-135713373D01*
X116475359Y-135890000D01*
X116457963Y-136066627D01*
X116406443Y-136236466D01*
X116322778Y-136392991D01*
X116293448Y-136428729D01*
X116210186Y-136530186D01*
X116108729Y-136613448D01*
X116072991Y-136642778D01*
X115916466Y-136726443D01*
X115746627Y-136777963D01*
X115680442Y-136784482D01*
X115614260Y-136791000D01*
X115525740Y-136791000D01*
X115459558Y-136784482D01*
X115393373Y-136777963D01*
X115223534Y-136726443D01*
X115067009Y-136642778D01*
X115031271Y-136613448D01*
X114929814Y-136530186D01*
X114846552Y-136428729D01*
X114817222Y-136392991D01*
X114733557Y-136236466D01*
X114682037Y-136066627D01*
X114664641Y-135890000D01*
X114682037Y-135713373D01*
X114733557Y-135543534D01*
X114817222Y-135387009D01*
X114846552Y-135351271D01*
X114929814Y-135249814D01*
X115031271Y-135166552D01*
X115067009Y-135137222D01*
X115223534Y-135053557D01*
X115393373Y-135002037D01*
X115459558Y-134995518D01*
X115525740Y-134989000D01*
X115614260Y-134989000D01*
X115680442Y-134995518D01*
X115680442Y-134995518D01*
G37*
G36*
X113140442Y-134995518D02*
G01*
X113206627Y-135002037D01*
X113376466Y-135053557D01*
X113532991Y-135137222D01*
X113568729Y-135166552D01*
X113670186Y-135249814D01*
X113753448Y-135351271D01*
X113782778Y-135387009D01*
X113866443Y-135543534D01*
X113917963Y-135713373D01*
X113935359Y-135890000D01*
X113917963Y-136066627D01*
X113866443Y-136236466D01*
X113782778Y-136392991D01*
X113753448Y-136428729D01*
X113670186Y-136530186D01*
X113568729Y-136613448D01*
X113532991Y-136642778D01*
X113376466Y-136726443D01*
X113206627Y-136777963D01*
X113140442Y-136784482D01*
X113074260Y-136791000D01*
X112985740Y-136791000D01*
X112919558Y-136784482D01*
X112853373Y-136777963D01*
X112683534Y-136726443D01*
X112527009Y-136642778D01*
X112491271Y-136613448D01*
X112389814Y-136530186D01*
X112306552Y-136428729D01*
X112277222Y-136392991D01*
X112193557Y-136236466D01*
X112142037Y-136066627D01*
X112124641Y-135890000D01*
X112142037Y-135713373D01*
X112193557Y-135543534D01*
X112277222Y-135387009D01*
X112306552Y-135351271D01*
X112389814Y-135249814D01*
X112491271Y-135166552D01*
X112527009Y-135137222D01*
X112683534Y-135053557D01*
X112853373Y-135002037D01*
X112919558Y-134995518D01*
X112985740Y-134989000D01*
X113074260Y-134989000D01*
X113140442Y-134995518D01*
X113140442Y-134995518D01*
G37*
G36*
X110600442Y-134995518D02*
G01*
X110666627Y-135002037D01*
X110836466Y-135053557D01*
X110992991Y-135137222D01*
X111028729Y-135166552D01*
X111130186Y-135249814D01*
X111213448Y-135351271D01*
X111242778Y-135387009D01*
X111326443Y-135543534D01*
X111377963Y-135713373D01*
X111395359Y-135890000D01*
X111377963Y-136066627D01*
X111326443Y-136236466D01*
X111242778Y-136392991D01*
X111213448Y-136428729D01*
X111130186Y-136530186D01*
X111028729Y-136613448D01*
X110992991Y-136642778D01*
X110836466Y-136726443D01*
X110666627Y-136777963D01*
X110600442Y-136784482D01*
X110534260Y-136791000D01*
X110445740Y-136791000D01*
X110379558Y-136784482D01*
X110313373Y-136777963D01*
X110143534Y-136726443D01*
X109987009Y-136642778D01*
X109951271Y-136613448D01*
X109849814Y-136530186D01*
X109766552Y-136428729D01*
X109737222Y-136392991D01*
X109653557Y-136236466D01*
X109602037Y-136066627D01*
X109584641Y-135890000D01*
X109602037Y-135713373D01*
X109653557Y-135543534D01*
X109737222Y-135387009D01*
X109766552Y-135351271D01*
X109849814Y-135249814D01*
X109951271Y-135166552D01*
X109987009Y-135137222D01*
X110143534Y-135053557D01*
X110313373Y-135002037D01*
X110379558Y-134995518D01*
X110445740Y-134989000D01*
X110534260Y-134989000D01*
X110600442Y-134995518D01*
X110600442Y-134995518D01*
G37*
G36*
X108060442Y-134995518D02*
G01*
X108126627Y-135002037D01*
X108296466Y-135053557D01*
X108452991Y-135137222D01*
X108488729Y-135166552D01*
X108590186Y-135249814D01*
X108673448Y-135351271D01*
X108702778Y-135387009D01*
X108786443Y-135543534D01*
X108837963Y-135713373D01*
X108855359Y-135890000D01*
X108837963Y-136066627D01*
X108786443Y-136236466D01*
X108702778Y-136392991D01*
X108673448Y-136428729D01*
X108590186Y-136530186D01*
X108488729Y-136613448D01*
X108452991Y-136642778D01*
X108296466Y-136726443D01*
X108126627Y-136777963D01*
X108060442Y-136784482D01*
X107994260Y-136791000D01*
X107905740Y-136791000D01*
X107839558Y-136784482D01*
X107773373Y-136777963D01*
X107603534Y-136726443D01*
X107447009Y-136642778D01*
X107411271Y-136613448D01*
X107309814Y-136530186D01*
X107226552Y-136428729D01*
X107197222Y-136392991D01*
X107113557Y-136236466D01*
X107062037Y-136066627D01*
X107044641Y-135890000D01*
X107062037Y-135713373D01*
X107113557Y-135543534D01*
X107197222Y-135387009D01*
X107226552Y-135351271D01*
X107309814Y-135249814D01*
X107411271Y-135166552D01*
X107447009Y-135137222D01*
X107603534Y-135053557D01*
X107773373Y-135002037D01*
X107839558Y-134995518D01*
X107905740Y-134989000D01*
X107994260Y-134989000D01*
X108060442Y-134995518D01*
X108060442Y-134995518D01*
G37*
G36*
X105520442Y-134995518D02*
G01*
X105586627Y-135002037D01*
X105756466Y-135053557D01*
X105912991Y-135137222D01*
X105948729Y-135166552D01*
X106050186Y-135249814D01*
X106133448Y-135351271D01*
X106162778Y-135387009D01*
X106246443Y-135543534D01*
X106297963Y-135713373D01*
X106315359Y-135890000D01*
X106297963Y-136066627D01*
X106246443Y-136236466D01*
X106162778Y-136392991D01*
X106133448Y-136428729D01*
X106050186Y-136530186D01*
X105948729Y-136613448D01*
X105912991Y-136642778D01*
X105756466Y-136726443D01*
X105586627Y-136777963D01*
X105520442Y-136784482D01*
X105454260Y-136791000D01*
X105365740Y-136791000D01*
X105299558Y-136784482D01*
X105233373Y-136777963D01*
X105063534Y-136726443D01*
X104907009Y-136642778D01*
X104871271Y-136613448D01*
X104769814Y-136530186D01*
X104686552Y-136428729D01*
X104657222Y-136392991D01*
X104573557Y-136236466D01*
X104522037Y-136066627D01*
X104504641Y-135890000D01*
X104522037Y-135713373D01*
X104573557Y-135543534D01*
X104657222Y-135387009D01*
X104686552Y-135351271D01*
X104769814Y-135249814D01*
X104871271Y-135166552D01*
X104907009Y-135137222D01*
X105063534Y-135053557D01*
X105233373Y-135002037D01*
X105299558Y-134995518D01*
X105365740Y-134989000D01*
X105454260Y-134989000D01*
X105520442Y-134995518D01*
X105520442Y-134995518D01*
G37*
G36*
X102980442Y-134995518D02*
G01*
X103046627Y-135002037D01*
X103216466Y-135053557D01*
X103372991Y-135137222D01*
X103408729Y-135166552D01*
X103510186Y-135249814D01*
X103593448Y-135351271D01*
X103622778Y-135387009D01*
X103706443Y-135543534D01*
X103757963Y-135713373D01*
X103775359Y-135890000D01*
X103757963Y-136066627D01*
X103706443Y-136236466D01*
X103622778Y-136392991D01*
X103593448Y-136428729D01*
X103510186Y-136530186D01*
X103408729Y-136613448D01*
X103372991Y-136642778D01*
X103216466Y-136726443D01*
X103046627Y-136777963D01*
X102980442Y-136784482D01*
X102914260Y-136791000D01*
X102825740Y-136791000D01*
X102759558Y-136784482D01*
X102693373Y-136777963D01*
X102523534Y-136726443D01*
X102367009Y-136642778D01*
X102331271Y-136613448D01*
X102229814Y-136530186D01*
X102146552Y-136428729D01*
X102117222Y-136392991D01*
X102033557Y-136236466D01*
X101982037Y-136066627D01*
X101964641Y-135890000D01*
X101982037Y-135713373D01*
X102033557Y-135543534D01*
X102117222Y-135387009D01*
X102146552Y-135351271D01*
X102229814Y-135249814D01*
X102331271Y-135166552D01*
X102367009Y-135137222D01*
X102523534Y-135053557D01*
X102693373Y-135002037D01*
X102759558Y-134995518D01*
X102825740Y-134989000D01*
X102914260Y-134989000D01*
X102980442Y-134995518D01*
X102980442Y-134995518D01*
G37*
G36*
X100440442Y-134995518D02*
G01*
X100506627Y-135002037D01*
X100676466Y-135053557D01*
X100832991Y-135137222D01*
X100868729Y-135166552D01*
X100970186Y-135249814D01*
X101053448Y-135351271D01*
X101082778Y-135387009D01*
X101166443Y-135543534D01*
X101217963Y-135713373D01*
X101235359Y-135890000D01*
X101217963Y-136066627D01*
X101166443Y-136236466D01*
X101082778Y-136392991D01*
X101053448Y-136428729D01*
X100970186Y-136530186D01*
X100868729Y-136613448D01*
X100832991Y-136642778D01*
X100676466Y-136726443D01*
X100506627Y-136777963D01*
X100440442Y-136784482D01*
X100374260Y-136791000D01*
X100285740Y-136791000D01*
X100219558Y-136784482D01*
X100153373Y-136777963D01*
X99983534Y-136726443D01*
X99827009Y-136642778D01*
X99791271Y-136613448D01*
X99689814Y-136530186D01*
X99606552Y-136428729D01*
X99577222Y-136392991D01*
X99493557Y-136236466D01*
X99442037Y-136066627D01*
X99424641Y-135890000D01*
X99442037Y-135713373D01*
X99493557Y-135543534D01*
X99577222Y-135387009D01*
X99606552Y-135351271D01*
X99689814Y-135249814D01*
X99791271Y-135166552D01*
X99827009Y-135137222D01*
X99983534Y-135053557D01*
X100153373Y-135002037D01*
X100219558Y-134995518D01*
X100285740Y-134989000D01*
X100374260Y-134989000D01*
X100440442Y-134995518D01*
X100440442Y-134995518D01*
G37*
G36*
X97900442Y-134995518D02*
G01*
X97966627Y-135002037D01*
X98136466Y-135053557D01*
X98292991Y-135137222D01*
X98328729Y-135166552D01*
X98430186Y-135249814D01*
X98513448Y-135351271D01*
X98542778Y-135387009D01*
X98626443Y-135543534D01*
X98677963Y-135713373D01*
X98695359Y-135890000D01*
X98677963Y-136066627D01*
X98626443Y-136236466D01*
X98542778Y-136392991D01*
X98513448Y-136428729D01*
X98430186Y-136530186D01*
X98328729Y-136613448D01*
X98292991Y-136642778D01*
X98136466Y-136726443D01*
X97966627Y-136777963D01*
X97900442Y-136784482D01*
X97834260Y-136791000D01*
X97745740Y-136791000D01*
X97679558Y-136784482D01*
X97613373Y-136777963D01*
X97443534Y-136726443D01*
X97287009Y-136642778D01*
X97251271Y-136613448D01*
X97149814Y-136530186D01*
X97066552Y-136428729D01*
X97037222Y-136392991D01*
X96953557Y-136236466D01*
X96902037Y-136066627D01*
X96884641Y-135890000D01*
X96902037Y-135713373D01*
X96953557Y-135543534D01*
X97037222Y-135387009D01*
X97066552Y-135351271D01*
X97149814Y-135249814D01*
X97251271Y-135166552D01*
X97287009Y-135137222D01*
X97443534Y-135053557D01*
X97613373Y-135002037D01*
X97679558Y-134995518D01*
X97745740Y-134989000D01*
X97834260Y-134989000D01*
X97900442Y-134995518D01*
X97900442Y-134995518D01*
G37*
G36*
X95360442Y-134995518D02*
G01*
X95426627Y-135002037D01*
X95596466Y-135053557D01*
X95752991Y-135137222D01*
X95788729Y-135166552D01*
X95890186Y-135249814D01*
X95973448Y-135351271D01*
X96002778Y-135387009D01*
X96086443Y-135543534D01*
X96137963Y-135713373D01*
X96155359Y-135890000D01*
X96137963Y-136066627D01*
X96086443Y-136236466D01*
X96002778Y-136392991D01*
X95973448Y-136428729D01*
X95890186Y-136530186D01*
X95788729Y-136613448D01*
X95752991Y-136642778D01*
X95596466Y-136726443D01*
X95426627Y-136777963D01*
X95360442Y-136784482D01*
X95294260Y-136791000D01*
X95205740Y-136791000D01*
X95139558Y-136784482D01*
X95073373Y-136777963D01*
X94903534Y-136726443D01*
X94747009Y-136642778D01*
X94711271Y-136613448D01*
X94609814Y-136530186D01*
X94526552Y-136428729D01*
X94497222Y-136392991D01*
X94413557Y-136236466D01*
X94362037Y-136066627D01*
X94344641Y-135890000D01*
X94362037Y-135713373D01*
X94413557Y-135543534D01*
X94497222Y-135387009D01*
X94526552Y-135351271D01*
X94609814Y-135249814D01*
X94711271Y-135166552D01*
X94747009Y-135137222D01*
X94903534Y-135053557D01*
X95073373Y-135002037D01*
X95139558Y-134995518D01*
X95205740Y-134989000D01*
X95294260Y-134989000D01*
X95360442Y-134995518D01*
X95360442Y-134995518D01*
G37*
G36*
X92820442Y-134995518D02*
G01*
X92886627Y-135002037D01*
X93056466Y-135053557D01*
X93212991Y-135137222D01*
X93248729Y-135166552D01*
X93350186Y-135249814D01*
X93433448Y-135351271D01*
X93462778Y-135387009D01*
X93546443Y-135543534D01*
X93597963Y-135713373D01*
X93615359Y-135890000D01*
X93597963Y-136066627D01*
X93546443Y-136236466D01*
X93462778Y-136392991D01*
X93433448Y-136428729D01*
X93350186Y-136530186D01*
X93248729Y-136613448D01*
X93212991Y-136642778D01*
X93056466Y-136726443D01*
X92886627Y-136777963D01*
X92820442Y-136784482D01*
X92754260Y-136791000D01*
X92665740Y-136791000D01*
X92599558Y-136784482D01*
X92533373Y-136777963D01*
X92363534Y-136726443D01*
X92207009Y-136642778D01*
X92171271Y-136613448D01*
X92069814Y-136530186D01*
X91986552Y-136428729D01*
X91957222Y-136392991D01*
X91873557Y-136236466D01*
X91822037Y-136066627D01*
X91804641Y-135890000D01*
X91822037Y-135713373D01*
X91873557Y-135543534D01*
X91957222Y-135387009D01*
X91986552Y-135351271D01*
X92069814Y-135249814D01*
X92171271Y-135166552D01*
X92207009Y-135137222D01*
X92363534Y-135053557D01*
X92533373Y-135002037D01*
X92599558Y-134995518D01*
X92665740Y-134989000D01*
X92754260Y-134989000D01*
X92820442Y-134995518D01*
X92820442Y-134995518D01*
G37*
G36*
X90280442Y-134995518D02*
G01*
X90346627Y-135002037D01*
X90516466Y-135053557D01*
X90672991Y-135137222D01*
X90708729Y-135166552D01*
X90810186Y-135249814D01*
X90893448Y-135351271D01*
X90922778Y-135387009D01*
X91006443Y-135543534D01*
X91057963Y-135713373D01*
X91075359Y-135890000D01*
X91057963Y-136066627D01*
X91006443Y-136236466D01*
X90922778Y-136392991D01*
X90893448Y-136428729D01*
X90810186Y-136530186D01*
X90708729Y-136613448D01*
X90672991Y-136642778D01*
X90516466Y-136726443D01*
X90346627Y-136777963D01*
X90280442Y-136784482D01*
X90214260Y-136791000D01*
X90125740Y-136791000D01*
X90059558Y-136784482D01*
X89993373Y-136777963D01*
X89823534Y-136726443D01*
X89667009Y-136642778D01*
X89631271Y-136613448D01*
X89529814Y-136530186D01*
X89446552Y-136428729D01*
X89417222Y-136392991D01*
X89333557Y-136236466D01*
X89282037Y-136066627D01*
X89264641Y-135890000D01*
X89282037Y-135713373D01*
X89333557Y-135543534D01*
X89417222Y-135387009D01*
X89446552Y-135351271D01*
X89529814Y-135249814D01*
X89631271Y-135166552D01*
X89667009Y-135137222D01*
X89823534Y-135053557D01*
X89993373Y-135002037D01*
X90059558Y-134995518D01*
X90125740Y-134989000D01*
X90214260Y-134989000D01*
X90280442Y-134995518D01*
X90280442Y-134995518D01*
G37*
G36*
X87740442Y-134995518D02*
G01*
X87806627Y-135002037D01*
X87976466Y-135053557D01*
X88132991Y-135137222D01*
X88168729Y-135166552D01*
X88270186Y-135249814D01*
X88353448Y-135351271D01*
X88382778Y-135387009D01*
X88466443Y-135543534D01*
X88517963Y-135713373D01*
X88535359Y-135890000D01*
X88517963Y-136066627D01*
X88466443Y-136236466D01*
X88382778Y-136392991D01*
X88353448Y-136428729D01*
X88270186Y-136530186D01*
X88168729Y-136613448D01*
X88132991Y-136642778D01*
X87976466Y-136726443D01*
X87806627Y-136777963D01*
X87740442Y-136784482D01*
X87674260Y-136791000D01*
X87585740Y-136791000D01*
X87519558Y-136784482D01*
X87453373Y-136777963D01*
X87283534Y-136726443D01*
X87127009Y-136642778D01*
X87091271Y-136613448D01*
X86989814Y-136530186D01*
X86906552Y-136428729D01*
X86877222Y-136392991D01*
X86793557Y-136236466D01*
X86742037Y-136066627D01*
X86724641Y-135890000D01*
X86742037Y-135713373D01*
X86793557Y-135543534D01*
X86877222Y-135387009D01*
X86906552Y-135351271D01*
X86989814Y-135249814D01*
X87091271Y-135166552D01*
X87127009Y-135137222D01*
X87283534Y-135053557D01*
X87453373Y-135002037D01*
X87519558Y-134995518D01*
X87585740Y-134989000D01*
X87674260Y-134989000D01*
X87740442Y-134995518D01*
X87740442Y-134995518D01*
G37*
G36*
X85200442Y-134995518D02*
G01*
X85266627Y-135002037D01*
X85436466Y-135053557D01*
X85592991Y-135137222D01*
X85628729Y-135166552D01*
X85730186Y-135249814D01*
X85813448Y-135351271D01*
X85842778Y-135387009D01*
X85926443Y-135543534D01*
X85977963Y-135713373D01*
X85995359Y-135890000D01*
X85977963Y-136066627D01*
X85926443Y-136236466D01*
X85842778Y-136392991D01*
X85813448Y-136428729D01*
X85730186Y-136530186D01*
X85628729Y-136613448D01*
X85592991Y-136642778D01*
X85436466Y-136726443D01*
X85266627Y-136777963D01*
X85200442Y-136784482D01*
X85134260Y-136791000D01*
X85045740Y-136791000D01*
X84979558Y-136784482D01*
X84913373Y-136777963D01*
X84743534Y-136726443D01*
X84587009Y-136642778D01*
X84551271Y-136613448D01*
X84449814Y-136530186D01*
X84366552Y-136428729D01*
X84337222Y-136392991D01*
X84253557Y-136236466D01*
X84202037Y-136066627D01*
X84184641Y-135890000D01*
X84202037Y-135713373D01*
X84253557Y-135543534D01*
X84337222Y-135387009D01*
X84366552Y-135351271D01*
X84449814Y-135249814D01*
X84551271Y-135166552D01*
X84587009Y-135137222D01*
X84743534Y-135053557D01*
X84913373Y-135002037D01*
X84979558Y-134995518D01*
X85045740Y-134989000D01*
X85134260Y-134989000D01*
X85200442Y-134995518D01*
X85200442Y-134995518D01*
G37*
G36*
X82660442Y-134995518D02*
G01*
X82726627Y-135002037D01*
X82896466Y-135053557D01*
X83052991Y-135137222D01*
X83088729Y-135166552D01*
X83190186Y-135249814D01*
X83273448Y-135351271D01*
X83302778Y-135387009D01*
X83386443Y-135543534D01*
X83437963Y-135713373D01*
X83455359Y-135890000D01*
X83437963Y-136066627D01*
X83386443Y-136236466D01*
X83302778Y-136392991D01*
X83273448Y-136428729D01*
X83190186Y-136530186D01*
X83088729Y-136613448D01*
X83052991Y-136642778D01*
X82896466Y-136726443D01*
X82726627Y-136777963D01*
X82660442Y-136784482D01*
X82594260Y-136791000D01*
X82505740Y-136791000D01*
X82439558Y-136784482D01*
X82373373Y-136777963D01*
X82203534Y-136726443D01*
X82047009Y-136642778D01*
X82011271Y-136613448D01*
X81909814Y-136530186D01*
X81826552Y-136428729D01*
X81797222Y-136392991D01*
X81713557Y-136236466D01*
X81662037Y-136066627D01*
X81644641Y-135890000D01*
X81662037Y-135713373D01*
X81713557Y-135543534D01*
X81797222Y-135387009D01*
X81826552Y-135351271D01*
X81909814Y-135249814D01*
X82011271Y-135166552D01*
X82047009Y-135137222D01*
X82203534Y-135053557D01*
X82373373Y-135002037D01*
X82439558Y-134995518D01*
X82505740Y-134989000D01*
X82594260Y-134989000D01*
X82660442Y-134995518D01*
X82660442Y-134995518D01*
G37*
G36*
X80120442Y-134995518D02*
G01*
X80186627Y-135002037D01*
X80356466Y-135053557D01*
X80512991Y-135137222D01*
X80548729Y-135166552D01*
X80650186Y-135249814D01*
X80733448Y-135351271D01*
X80762778Y-135387009D01*
X80846443Y-135543534D01*
X80897963Y-135713373D01*
X80915359Y-135890000D01*
X80897963Y-136066627D01*
X80846443Y-136236466D01*
X80762778Y-136392991D01*
X80733448Y-136428729D01*
X80650186Y-136530186D01*
X80548729Y-136613448D01*
X80512991Y-136642778D01*
X80356466Y-136726443D01*
X80186627Y-136777963D01*
X80120442Y-136784482D01*
X80054260Y-136791000D01*
X79965740Y-136791000D01*
X79899558Y-136784482D01*
X79833373Y-136777963D01*
X79663534Y-136726443D01*
X79507009Y-136642778D01*
X79471271Y-136613448D01*
X79369814Y-136530186D01*
X79286552Y-136428729D01*
X79257222Y-136392991D01*
X79173557Y-136236466D01*
X79122037Y-136066627D01*
X79104641Y-135890000D01*
X79122037Y-135713373D01*
X79173557Y-135543534D01*
X79257222Y-135387009D01*
X79286552Y-135351271D01*
X79369814Y-135249814D01*
X79471271Y-135166552D01*
X79507009Y-135137222D01*
X79663534Y-135053557D01*
X79833373Y-135002037D01*
X79899558Y-134995518D01*
X79965740Y-134989000D01*
X80054260Y-134989000D01*
X80120442Y-134995518D01*
X80120442Y-134995518D01*
G37*
G36*
X77580442Y-134995518D02*
G01*
X77646627Y-135002037D01*
X77816466Y-135053557D01*
X77972991Y-135137222D01*
X78008729Y-135166552D01*
X78110186Y-135249814D01*
X78193448Y-135351271D01*
X78222778Y-135387009D01*
X78306443Y-135543534D01*
X78357963Y-135713373D01*
X78375359Y-135890000D01*
X78357963Y-136066627D01*
X78306443Y-136236466D01*
X78222778Y-136392991D01*
X78193448Y-136428729D01*
X78110186Y-136530186D01*
X78008729Y-136613448D01*
X77972991Y-136642778D01*
X77816466Y-136726443D01*
X77646627Y-136777963D01*
X77580442Y-136784482D01*
X77514260Y-136791000D01*
X77425740Y-136791000D01*
X77359558Y-136784482D01*
X77293373Y-136777963D01*
X77123534Y-136726443D01*
X76967009Y-136642778D01*
X76931271Y-136613448D01*
X76829814Y-136530186D01*
X76746552Y-136428729D01*
X76717222Y-136392991D01*
X76633557Y-136236466D01*
X76582037Y-136066627D01*
X76564641Y-135890000D01*
X76582037Y-135713373D01*
X76633557Y-135543534D01*
X76717222Y-135387009D01*
X76746552Y-135351271D01*
X76829814Y-135249814D01*
X76931271Y-135166552D01*
X76967009Y-135137222D01*
X77123534Y-135053557D01*
X77293373Y-135002037D01*
X77359558Y-134995518D01*
X77425740Y-134989000D01*
X77514260Y-134989000D01*
X77580442Y-134995518D01*
X77580442Y-134995518D01*
G37*
G36*
X75040442Y-134995518D02*
G01*
X75106627Y-135002037D01*
X75276466Y-135053557D01*
X75432991Y-135137222D01*
X75468729Y-135166552D01*
X75570186Y-135249814D01*
X75653448Y-135351271D01*
X75682778Y-135387009D01*
X75766443Y-135543534D01*
X75817963Y-135713373D01*
X75835359Y-135890000D01*
X75817963Y-136066627D01*
X75766443Y-136236466D01*
X75682778Y-136392991D01*
X75653448Y-136428729D01*
X75570186Y-136530186D01*
X75468729Y-136613448D01*
X75432991Y-136642778D01*
X75276466Y-136726443D01*
X75106627Y-136777963D01*
X75040442Y-136784482D01*
X74974260Y-136791000D01*
X74885740Y-136791000D01*
X74819558Y-136784482D01*
X74753373Y-136777963D01*
X74583534Y-136726443D01*
X74427009Y-136642778D01*
X74391271Y-136613448D01*
X74289814Y-136530186D01*
X74206552Y-136428729D01*
X74177222Y-136392991D01*
X74093557Y-136236466D01*
X74042037Y-136066627D01*
X74024641Y-135890000D01*
X74042037Y-135713373D01*
X74093557Y-135543534D01*
X74177222Y-135387009D01*
X74206552Y-135351271D01*
X74289814Y-135249814D01*
X74391271Y-135166552D01*
X74427009Y-135137222D01*
X74583534Y-135053557D01*
X74753373Y-135002037D01*
X74819558Y-134995518D01*
X74885740Y-134989000D01*
X74974260Y-134989000D01*
X75040442Y-134995518D01*
X75040442Y-134995518D01*
G37*
G36*
X72500442Y-134995518D02*
G01*
X72566627Y-135002037D01*
X72736466Y-135053557D01*
X72892991Y-135137222D01*
X72928729Y-135166552D01*
X73030186Y-135249814D01*
X73113448Y-135351271D01*
X73142778Y-135387009D01*
X73226443Y-135543534D01*
X73277963Y-135713373D01*
X73295359Y-135890000D01*
X73277963Y-136066627D01*
X73226443Y-136236466D01*
X73142778Y-136392991D01*
X73113448Y-136428729D01*
X73030186Y-136530186D01*
X72928729Y-136613448D01*
X72892991Y-136642778D01*
X72736466Y-136726443D01*
X72566627Y-136777963D01*
X72500442Y-136784482D01*
X72434260Y-136791000D01*
X72345740Y-136791000D01*
X72279558Y-136784482D01*
X72213373Y-136777963D01*
X72043534Y-136726443D01*
X71887009Y-136642778D01*
X71851271Y-136613448D01*
X71749814Y-136530186D01*
X71666552Y-136428729D01*
X71637222Y-136392991D01*
X71553557Y-136236466D01*
X71502037Y-136066627D01*
X71484641Y-135890000D01*
X71502037Y-135713373D01*
X71553557Y-135543534D01*
X71637222Y-135387009D01*
X71666552Y-135351271D01*
X71749814Y-135249814D01*
X71851271Y-135166552D01*
X71887009Y-135137222D01*
X72043534Y-135053557D01*
X72213373Y-135002037D01*
X72279558Y-134995518D01*
X72345740Y-134989000D01*
X72434260Y-134989000D01*
X72500442Y-134995518D01*
X72500442Y-134995518D01*
G37*
G36*
X69960442Y-134995518D02*
G01*
X70026627Y-135002037D01*
X70196466Y-135053557D01*
X70352991Y-135137222D01*
X70388729Y-135166552D01*
X70490186Y-135249814D01*
X70573448Y-135351271D01*
X70602778Y-135387009D01*
X70686443Y-135543534D01*
X70737963Y-135713373D01*
X70755359Y-135890000D01*
X70737963Y-136066627D01*
X70686443Y-136236466D01*
X70602778Y-136392991D01*
X70573448Y-136428729D01*
X70490186Y-136530186D01*
X70388729Y-136613448D01*
X70352991Y-136642778D01*
X70196466Y-136726443D01*
X70026627Y-136777963D01*
X69960442Y-136784482D01*
X69894260Y-136791000D01*
X69805740Y-136791000D01*
X69739558Y-136784482D01*
X69673373Y-136777963D01*
X69503534Y-136726443D01*
X69347009Y-136642778D01*
X69311271Y-136613448D01*
X69209814Y-136530186D01*
X69126552Y-136428729D01*
X69097222Y-136392991D01*
X69013557Y-136236466D01*
X68962037Y-136066627D01*
X68944641Y-135890000D01*
X68962037Y-135713373D01*
X69013557Y-135543534D01*
X69097222Y-135387009D01*
X69126552Y-135351271D01*
X69209814Y-135249814D01*
X69311271Y-135166552D01*
X69347009Y-135137222D01*
X69503534Y-135053557D01*
X69673373Y-135002037D01*
X69739558Y-134995518D01*
X69805740Y-134989000D01*
X69894260Y-134989000D01*
X69960442Y-134995518D01*
X69960442Y-134995518D01*
G37*
G36*
X67420442Y-134995518D02*
G01*
X67486627Y-135002037D01*
X67656466Y-135053557D01*
X67812991Y-135137222D01*
X67848729Y-135166552D01*
X67950186Y-135249814D01*
X68033448Y-135351271D01*
X68062778Y-135387009D01*
X68146443Y-135543534D01*
X68197963Y-135713373D01*
X68215359Y-135890000D01*
X68197963Y-136066627D01*
X68146443Y-136236466D01*
X68062778Y-136392991D01*
X68033448Y-136428729D01*
X67950186Y-136530186D01*
X67848729Y-136613448D01*
X67812991Y-136642778D01*
X67656466Y-136726443D01*
X67486627Y-136777963D01*
X67420442Y-136784482D01*
X67354260Y-136791000D01*
X67265740Y-136791000D01*
X67199558Y-136784482D01*
X67133373Y-136777963D01*
X66963534Y-136726443D01*
X66807009Y-136642778D01*
X66771271Y-136613448D01*
X66669814Y-136530186D01*
X66586552Y-136428729D01*
X66557222Y-136392991D01*
X66473557Y-136236466D01*
X66422037Y-136066627D01*
X66404641Y-135890000D01*
X66422037Y-135713373D01*
X66473557Y-135543534D01*
X66557222Y-135387009D01*
X66586552Y-135351271D01*
X66669814Y-135249814D01*
X66771271Y-135166552D01*
X66807009Y-135137222D01*
X66963534Y-135053557D01*
X67133373Y-135002037D01*
X67199558Y-134995518D01*
X67265740Y-134989000D01*
X67354260Y-134989000D01*
X67420442Y-134995518D01*
X67420442Y-134995518D01*
G37*
G36*
X64880442Y-134995518D02*
G01*
X64946627Y-135002037D01*
X65116466Y-135053557D01*
X65272991Y-135137222D01*
X65308729Y-135166552D01*
X65410186Y-135249814D01*
X65493448Y-135351271D01*
X65522778Y-135387009D01*
X65606443Y-135543534D01*
X65657963Y-135713373D01*
X65675359Y-135890000D01*
X65657963Y-136066627D01*
X65606443Y-136236466D01*
X65522778Y-136392991D01*
X65493448Y-136428729D01*
X65410186Y-136530186D01*
X65308729Y-136613448D01*
X65272991Y-136642778D01*
X65116466Y-136726443D01*
X64946627Y-136777963D01*
X64880442Y-136784482D01*
X64814260Y-136791000D01*
X64725740Y-136791000D01*
X64659558Y-136784482D01*
X64593373Y-136777963D01*
X64423534Y-136726443D01*
X64267009Y-136642778D01*
X64231271Y-136613448D01*
X64129814Y-136530186D01*
X64046552Y-136428729D01*
X64017222Y-136392991D01*
X63933557Y-136236466D01*
X63882037Y-136066627D01*
X63864641Y-135890000D01*
X63882037Y-135713373D01*
X63933557Y-135543534D01*
X64017222Y-135387009D01*
X64046552Y-135351271D01*
X64129814Y-135249814D01*
X64231271Y-135166552D01*
X64267009Y-135137222D01*
X64423534Y-135053557D01*
X64593373Y-135002037D01*
X64659558Y-134995518D01*
X64725740Y-134989000D01*
X64814260Y-134989000D01*
X64880442Y-134995518D01*
X64880442Y-134995518D01*
G37*
G36*
X164731000Y-134251000D02*
G01*
X162929000Y-134251000D01*
X162929000Y-132449000D01*
X164731000Y-132449000D01*
X164731000Y-134251000D01*
X164731000Y-134251000D01*
G37*
G36*
X75040442Y-132455518D02*
G01*
X75106627Y-132462037D01*
X75276466Y-132513557D01*
X75432991Y-132597222D01*
X75468729Y-132626552D01*
X75570186Y-132709814D01*
X75653448Y-132811271D01*
X75682778Y-132847009D01*
X75766443Y-133003534D01*
X75817963Y-133173373D01*
X75835359Y-133350000D01*
X75817963Y-133526627D01*
X75766443Y-133696466D01*
X75682778Y-133852991D01*
X75653448Y-133888729D01*
X75570186Y-133990186D01*
X75468729Y-134073448D01*
X75432991Y-134102778D01*
X75276466Y-134186443D01*
X75106627Y-134237963D01*
X75040443Y-134244481D01*
X74974260Y-134251000D01*
X74885740Y-134251000D01*
X74819557Y-134244481D01*
X74753373Y-134237963D01*
X74583534Y-134186443D01*
X74427009Y-134102778D01*
X74391271Y-134073448D01*
X74289814Y-133990186D01*
X74206552Y-133888729D01*
X74177222Y-133852991D01*
X74093557Y-133696466D01*
X74042037Y-133526627D01*
X74024641Y-133350000D01*
X74042037Y-133173373D01*
X74093557Y-133003534D01*
X74177222Y-132847009D01*
X74206552Y-132811271D01*
X74289814Y-132709814D01*
X74391271Y-132626552D01*
X74427009Y-132597222D01*
X74583534Y-132513557D01*
X74753373Y-132462037D01*
X74819558Y-132455518D01*
X74885740Y-132449000D01*
X74974260Y-132449000D01*
X75040442Y-132455518D01*
X75040442Y-132455518D01*
G37*
G36*
X161400442Y-132455518D02*
G01*
X161466627Y-132462037D01*
X161636466Y-132513557D01*
X161792991Y-132597222D01*
X161828729Y-132626552D01*
X161930186Y-132709814D01*
X162013448Y-132811271D01*
X162042778Y-132847009D01*
X162126443Y-133003534D01*
X162177963Y-133173373D01*
X162195359Y-133350000D01*
X162177963Y-133526627D01*
X162126443Y-133696466D01*
X162042778Y-133852991D01*
X162013448Y-133888729D01*
X161930186Y-133990186D01*
X161828729Y-134073448D01*
X161792991Y-134102778D01*
X161636466Y-134186443D01*
X161466627Y-134237963D01*
X161400443Y-134244481D01*
X161334260Y-134251000D01*
X161245740Y-134251000D01*
X161179557Y-134244481D01*
X161113373Y-134237963D01*
X160943534Y-134186443D01*
X160787009Y-134102778D01*
X160751271Y-134073448D01*
X160649814Y-133990186D01*
X160566552Y-133888729D01*
X160537222Y-133852991D01*
X160453557Y-133696466D01*
X160402037Y-133526627D01*
X160384641Y-133350000D01*
X160402037Y-133173373D01*
X160453557Y-133003534D01*
X160537222Y-132847009D01*
X160566552Y-132811271D01*
X160649814Y-132709814D01*
X160751271Y-132626552D01*
X160787009Y-132597222D01*
X160943534Y-132513557D01*
X161113373Y-132462037D01*
X161179558Y-132455518D01*
X161245740Y-132449000D01*
X161334260Y-132449000D01*
X161400442Y-132455518D01*
X161400442Y-132455518D01*
G37*
G36*
X158860442Y-132455518D02*
G01*
X158926627Y-132462037D01*
X159096466Y-132513557D01*
X159252991Y-132597222D01*
X159288729Y-132626552D01*
X159390186Y-132709814D01*
X159473448Y-132811271D01*
X159502778Y-132847009D01*
X159586443Y-133003534D01*
X159637963Y-133173373D01*
X159655359Y-133350000D01*
X159637963Y-133526627D01*
X159586443Y-133696466D01*
X159502778Y-133852991D01*
X159473448Y-133888729D01*
X159390186Y-133990186D01*
X159288729Y-134073448D01*
X159252991Y-134102778D01*
X159096466Y-134186443D01*
X158926627Y-134237963D01*
X158860443Y-134244481D01*
X158794260Y-134251000D01*
X158705740Y-134251000D01*
X158639557Y-134244481D01*
X158573373Y-134237963D01*
X158403534Y-134186443D01*
X158247009Y-134102778D01*
X158211271Y-134073448D01*
X158109814Y-133990186D01*
X158026552Y-133888729D01*
X157997222Y-133852991D01*
X157913557Y-133696466D01*
X157862037Y-133526627D01*
X157844641Y-133350000D01*
X157862037Y-133173373D01*
X157913557Y-133003534D01*
X157997222Y-132847009D01*
X158026552Y-132811271D01*
X158109814Y-132709814D01*
X158211271Y-132626552D01*
X158247009Y-132597222D01*
X158403534Y-132513557D01*
X158573373Y-132462037D01*
X158639558Y-132455518D01*
X158705740Y-132449000D01*
X158794260Y-132449000D01*
X158860442Y-132455518D01*
X158860442Y-132455518D01*
G37*
G36*
X156320442Y-132455518D02*
G01*
X156386627Y-132462037D01*
X156556466Y-132513557D01*
X156712991Y-132597222D01*
X156748729Y-132626552D01*
X156850186Y-132709814D01*
X156933448Y-132811271D01*
X156962778Y-132847009D01*
X157046443Y-133003534D01*
X157097963Y-133173373D01*
X157115359Y-133350000D01*
X157097963Y-133526627D01*
X157046443Y-133696466D01*
X156962778Y-133852991D01*
X156933448Y-133888729D01*
X156850186Y-133990186D01*
X156748729Y-134073448D01*
X156712991Y-134102778D01*
X156556466Y-134186443D01*
X156386627Y-134237963D01*
X156320443Y-134244481D01*
X156254260Y-134251000D01*
X156165740Y-134251000D01*
X156099557Y-134244481D01*
X156033373Y-134237963D01*
X155863534Y-134186443D01*
X155707009Y-134102778D01*
X155671271Y-134073448D01*
X155569814Y-133990186D01*
X155486552Y-133888729D01*
X155457222Y-133852991D01*
X155373557Y-133696466D01*
X155322037Y-133526627D01*
X155304641Y-133350000D01*
X155322037Y-133173373D01*
X155373557Y-133003534D01*
X155457222Y-132847009D01*
X155486552Y-132811271D01*
X155569814Y-132709814D01*
X155671271Y-132626552D01*
X155707009Y-132597222D01*
X155863534Y-132513557D01*
X156033373Y-132462037D01*
X156099558Y-132455518D01*
X156165740Y-132449000D01*
X156254260Y-132449000D01*
X156320442Y-132455518D01*
X156320442Y-132455518D01*
G37*
G36*
X153780442Y-132455518D02*
G01*
X153846627Y-132462037D01*
X154016466Y-132513557D01*
X154172991Y-132597222D01*
X154208729Y-132626552D01*
X154310186Y-132709814D01*
X154393448Y-132811271D01*
X154422778Y-132847009D01*
X154506443Y-133003534D01*
X154557963Y-133173373D01*
X154575359Y-133350000D01*
X154557963Y-133526627D01*
X154506443Y-133696466D01*
X154422778Y-133852991D01*
X154393448Y-133888729D01*
X154310186Y-133990186D01*
X154208729Y-134073448D01*
X154172991Y-134102778D01*
X154016466Y-134186443D01*
X153846627Y-134237963D01*
X153780443Y-134244481D01*
X153714260Y-134251000D01*
X153625740Y-134251000D01*
X153559557Y-134244481D01*
X153493373Y-134237963D01*
X153323534Y-134186443D01*
X153167009Y-134102778D01*
X153131271Y-134073448D01*
X153029814Y-133990186D01*
X152946552Y-133888729D01*
X152917222Y-133852991D01*
X152833557Y-133696466D01*
X152782037Y-133526627D01*
X152764641Y-133350000D01*
X152782037Y-133173373D01*
X152833557Y-133003534D01*
X152917222Y-132847009D01*
X152946552Y-132811271D01*
X153029814Y-132709814D01*
X153131271Y-132626552D01*
X153167009Y-132597222D01*
X153323534Y-132513557D01*
X153493373Y-132462037D01*
X153559558Y-132455518D01*
X153625740Y-132449000D01*
X153714260Y-132449000D01*
X153780442Y-132455518D01*
X153780442Y-132455518D01*
G37*
G36*
X151240442Y-132455518D02*
G01*
X151306627Y-132462037D01*
X151476466Y-132513557D01*
X151632991Y-132597222D01*
X151668729Y-132626552D01*
X151770186Y-132709814D01*
X151853448Y-132811271D01*
X151882778Y-132847009D01*
X151966443Y-133003534D01*
X152017963Y-133173373D01*
X152035359Y-133350000D01*
X152017963Y-133526627D01*
X151966443Y-133696466D01*
X151882778Y-133852991D01*
X151853448Y-133888729D01*
X151770186Y-133990186D01*
X151668729Y-134073448D01*
X151632991Y-134102778D01*
X151476466Y-134186443D01*
X151306627Y-134237963D01*
X151240443Y-134244481D01*
X151174260Y-134251000D01*
X151085740Y-134251000D01*
X151019557Y-134244481D01*
X150953373Y-134237963D01*
X150783534Y-134186443D01*
X150627009Y-134102778D01*
X150591271Y-134073448D01*
X150489814Y-133990186D01*
X150406552Y-133888729D01*
X150377222Y-133852991D01*
X150293557Y-133696466D01*
X150242037Y-133526627D01*
X150224641Y-133350000D01*
X150242037Y-133173373D01*
X150293557Y-133003534D01*
X150377222Y-132847009D01*
X150406552Y-132811271D01*
X150489814Y-132709814D01*
X150591271Y-132626552D01*
X150627009Y-132597222D01*
X150783534Y-132513557D01*
X150953373Y-132462037D01*
X151019558Y-132455518D01*
X151085740Y-132449000D01*
X151174260Y-132449000D01*
X151240442Y-132455518D01*
X151240442Y-132455518D01*
G37*
G36*
X148700442Y-132455518D02*
G01*
X148766627Y-132462037D01*
X148936466Y-132513557D01*
X149092991Y-132597222D01*
X149128729Y-132626552D01*
X149230186Y-132709814D01*
X149313448Y-132811271D01*
X149342778Y-132847009D01*
X149426443Y-133003534D01*
X149477963Y-133173373D01*
X149495359Y-133350000D01*
X149477963Y-133526627D01*
X149426443Y-133696466D01*
X149342778Y-133852991D01*
X149313448Y-133888729D01*
X149230186Y-133990186D01*
X149128729Y-134073448D01*
X149092991Y-134102778D01*
X148936466Y-134186443D01*
X148766627Y-134237963D01*
X148700443Y-134244481D01*
X148634260Y-134251000D01*
X148545740Y-134251000D01*
X148479557Y-134244481D01*
X148413373Y-134237963D01*
X148243534Y-134186443D01*
X148087009Y-134102778D01*
X148051271Y-134073448D01*
X147949814Y-133990186D01*
X147866552Y-133888729D01*
X147837222Y-133852991D01*
X147753557Y-133696466D01*
X147702037Y-133526627D01*
X147684641Y-133350000D01*
X147702037Y-133173373D01*
X147753557Y-133003534D01*
X147837222Y-132847009D01*
X147866552Y-132811271D01*
X147949814Y-132709814D01*
X148051271Y-132626552D01*
X148087009Y-132597222D01*
X148243534Y-132513557D01*
X148413373Y-132462037D01*
X148479558Y-132455518D01*
X148545740Y-132449000D01*
X148634260Y-132449000D01*
X148700442Y-132455518D01*
X148700442Y-132455518D01*
G37*
G36*
X146160442Y-132455518D02*
G01*
X146226627Y-132462037D01*
X146396466Y-132513557D01*
X146552991Y-132597222D01*
X146588729Y-132626552D01*
X146690186Y-132709814D01*
X146773448Y-132811271D01*
X146802778Y-132847009D01*
X146886443Y-133003534D01*
X146937963Y-133173373D01*
X146955359Y-133350000D01*
X146937963Y-133526627D01*
X146886443Y-133696466D01*
X146802778Y-133852991D01*
X146773448Y-133888729D01*
X146690186Y-133990186D01*
X146588729Y-134073448D01*
X146552991Y-134102778D01*
X146396466Y-134186443D01*
X146226627Y-134237963D01*
X146160443Y-134244481D01*
X146094260Y-134251000D01*
X146005740Y-134251000D01*
X145939557Y-134244481D01*
X145873373Y-134237963D01*
X145703534Y-134186443D01*
X145547009Y-134102778D01*
X145511271Y-134073448D01*
X145409814Y-133990186D01*
X145326552Y-133888729D01*
X145297222Y-133852991D01*
X145213557Y-133696466D01*
X145162037Y-133526627D01*
X145144641Y-133350000D01*
X145162037Y-133173373D01*
X145213557Y-133003534D01*
X145297222Y-132847009D01*
X145326552Y-132811271D01*
X145409814Y-132709814D01*
X145511271Y-132626552D01*
X145547009Y-132597222D01*
X145703534Y-132513557D01*
X145873373Y-132462037D01*
X145939558Y-132455518D01*
X146005740Y-132449000D01*
X146094260Y-132449000D01*
X146160442Y-132455518D01*
X146160442Y-132455518D01*
G37*
G36*
X143620442Y-132455518D02*
G01*
X143686627Y-132462037D01*
X143856466Y-132513557D01*
X144012991Y-132597222D01*
X144048729Y-132626552D01*
X144150186Y-132709814D01*
X144233448Y-132811271D01*
X144262778Y-132847009D01*
X144346443Y-133003534D01*
X144397963Y-133173373D01*
X144415359Y-133350000D01*
X144397963Y-133526627D01*
X144346443Y-133696466D01*
X144262778Y-133852991D01*
X144233448Y-133888729D01*
X144150186Y-133990186D01*
X144048729Y-134073448D01*
X144012991Y-134102778D01*
X143856466Y-134186443D01*
X143686627Y-134237963D01*
X143620443Y-134244481D01*
X143554260Y-134251000D01*
X143465740Y-134251000D01*
X143399557Y-134244481D01*
X143333373Y-134237963D01*
X143163534Y-134186443D01*
X143007009Y-134102778D01*
X142971271Y-134073448D01*
X142869814Y-133990186D01*
X142786552Y-133888729D01*
X142757222Y-133852991D01*
X142673557Y-133696466D01*
X142622037Y-133526627D01*
X142604641Y-133350000D01*
X142622037Y-133173373D01*
X142673557Y-133003534D01*
X142757222Y-132847009D01*
X142786552Y-132811271D01*
X142869814Y-132709814D01*
X142971271Y-132626552D01*
X143007009Y-132597222D01*
X143163534Y-132513557D01*
X143333373Y-132462037D01*
X143399558Y-132455518D01*
X143465740Y-132449000D01*
X143554260Y-132449000D01*
X143620442Y-132455518D01*
X143620442Y-132455518D01*
G37*
G36*
X141080442Y-132455518D02*
G01*
X141146627Y-132462037D01*
X141316466Y-132513557D01*
X141472991Y-132597222D01*
X141508729Y-132626552D01*
X141610186Y-132709814D01*
X141693448Y-132811271D01*
X141722778Y-132847009D01*
X141806443Y-133003534D01*
X141857963Y-133173373D01*
X141875359Y-133350000D01*
X141857963Y-133526627D01*
X141806443Y-133696466D01*
X141722778Y-133852991D01*
X141693448Y-133888729D01*
X141610186Y-133990186D01*
X141508729Y-134073448D01*
X141472991Y-134102778D01*
X141316466Y-134186443D01*
X141146627Y-134237963D01*
X141080443Y-134244481D01*
X141014260Y-134251000D01*
X140925740Y-134251000D01*
X140859557Y-134244481D01*
X140793373Y-134237963D01*
X140623534Y-134186443D01*
X140467009Y-134102778D01*
X140431271Y-134073448D01*
X140329814Y-133990186D01*
X140246552Y-133888729D01*
X140217222Y-133852991D01*
X140133557Y-133696466D01*
X140082037Y-133526627D01*
X140064641Y-133350000D01*
X140082037Y-133173373D01*
X140133557Y-133003534D01*
X140217222Y-132847009D01*
X140246552Y-132811271D01*
X140329814Y-132709814D01*
X140431271Y-132626552D01*
X140467009Y-132597222D01*
X140623534Y-132513557D01*
X140793373Y-132462037D01*
X140859558Y-132455518D01*
X140925740Y-132449000D01*
X141014260Y-132449000D01*
X141080442Y-132455518D01*
X141080442Y-132455518D01*
G37*
G36*
X138540442Y-132455518D02*
G01*
X138606627Y-132462037D01*
X138776466Y-132513557D01*
X138932991Y-132597222D01*
X138968729Y-132626552D01*
X139070186Y-132709814D01*
X139153448Y-132811271D01*
X139182778Y-132847009D01*
X139266443Y-133003534D01*
X139317963Y-133173373D01*
X139335359Y-133350000D01*
X139317963Y-133526627D01*
X139266443Y-133696466D01*
X139182778Y-133852991D01*
X139153448Y-133888729D01*
X139070186Y-133990186D01*
X138968729Y-134073448D01*
X138932991Y-134102778D01*
X138776466Y-134186443D01*
X138606627Y-134237963D01*
X138540443Y-134244481D01*
X138474260Y-134251000D01*
X138385740Y-134251000D01*
X138319557Y-134244481D01*
X138253373Y-134237963D01*
X138083534Y-134186443D01*
X137927009Y-134102778D01*
X137891271Y-134073448D01*
X137789814Y-133990186D01*
X137706552Y-133888729D01*
X137677222Y-133852991D01*
X137593557Y-133696466D01*
X137542037Y-133526627D01*
X137524641Y-133350000D01*
X137542037Y-133173373D01*
X137593557Y-133003534D01*
X137677222Y-132847009D01*
X137706552Y-132811271D01*
X137789814Y-132709814D01*
X137891271Y-132626552D01*
X137927009Y-132597222D01*
X138083534Y-132513557D01*
X138253373Y-132462037D01*
X138319558Y-132455518D01*
X138385740Y-132449000D01*
X138474260Y-132449000D01*
X138540442Y-132455518D01*
X138540442Y-132455518D01*
G37*
G36*
X136000442Y-132455518D02*
G01*
X136066627Y-132462037D01*
X136236466Y-132513557D01*
X136392991Y-132597222D01*
X136428729Y-132626552D01*
X136530186Y-132709814D01*
X136613448Y-132811271D01*
X136642778Y-132847009D01*
X136726443Y-133003534D01*
X136777963Y-133173373D01*
X136795359Y-133350000D01*
X136777963Y-133526627D01*
X136726443Y-133696466D01*
X136642778Y-133852991D01*
X136613448Y-133888729D01*
X136530186Y-133990186D01*
X136428729Y-134073448D01*
X136392991Y-134102778D01*
X136236466Y-134186443D01*
X136066627Y-134237963D01*
X136000443Y-134244481D01*
X135934260Y-134251000D01*
X135845740Y-134251000D01*
X135779557Y-134244481D01*
X135713373Y-134237963D01*
X135543534Y-134186443D01*
X135387009Y-134102778D01*
X135351271Y-134073448D01*
X135249814Y-133990186D01*
X135166552Y-133888729D01*
X135137222Y-133852991D01*
X135053557Y-133696466D01*
X135002037Y-133526627D01*
X134984641Y-133350000D01*
X135002037Y-133173373D01*
X135053557Y-133003534D01*
X135137222Y-132847009D01*
X135166552Y-132811271D01*
X135249814Y-132709814D01*
X135351271Y-132626552D01*
X135387009Y-132597222D01*
X135543534Y-132513557D01*
X135713373Y-132462037D01*
X135779558Y-132455518D01*
X135845740Y-132449000D01*
X135934260Y-132449000D01*
X136000442Y-132455518D01*
X136000442Y-132455518D01*
G37*
G36*
X133460442Y-132455518D02*
G01*
X133526627Y-132462037D01*
X133696466Y-132513557D01*
X133852991Y-132597222D01*
X133888729Y-132626552D01*
X133990186Y-132709814D01*
X134073448Y-132811271D01*
X134102778Y-132847009D01*
X134186443Y-133003534D01*
X134237963Y-133173373D01*
X134255359Y-133350000D01*
X134237963Y-133526627D01*
X134186443Y-133696466D01*
X134102778Y-133852991D01*
X134073448Y-133888729D01*
X133990186Y-133990186D01*
X133888729Y-134073448D01*
X133852991Y-134102778D01*
X133696466Y-134186443D01*
X133526627Y-134237963D01*
X133460443Y-134244481D01*
X133394260Y-134251000D01*
X133305740Y-134251000D01*
X133239557Y-134244481D01*
X133173373Y-134237963D01*
X133003534Y-134186443D01*
X132847009Y-134102778D01*
X132811271Y-134073448D01*
X132709814Y-133990186D01*
X132626552Y-133888729D01*
X132597222Y-133852991D01*
X132513557Y-133696466D01*
X132462037Y-133526627D01*
X132444641Y-133350000D01*
X132462037Y-133173373D01*
X132513557Y-133003534D01*
X132597222Y-132847009D01*
X132626552Y-132811271D01*
X132709814Y-132709814D01*
X132811271Y-132626552D01*
X132847009Y-132597222D01*
X133003534Y-132513557D01*
X133173373Y-132462037D01*
X133239558Y-132455518D01*
X133305740Y-132449000D01*
X133394260Y-132449000D01*
X133460442Y-132455518D01*
X133460442Y-132455518D01*
G37*
G36*
X130920442Y-132455518D02*
G01*
X130986627Y-132462037D01*
X131156466Y-132513557D01*
X131312991Y-132597222D01*
X131348729Y-132626552D01*
X131450186Y-132709814D01*
X131533448Y-132811271D01*
X131562778Y-132847009D01*
X131646443Y-133003534D01*
X131697963Y-133173373D01*
X131715359Y-133350000D01*
X131697963Y-133526627D01*
X131646443Y-133696466D01*
X131562778Y-133852991D01*
X131533448Y-133888729D01*
X131450186Y-133990186D01*
X131348729Y-134073448D01*
X131312991Y-134102778D01*
X131156466Y-134186443D01*
X130986627Y-134237963D01*
X130920443Y-134244481D01*
X130854260Y-134251000D01*
X130765740Y-134251000D01*
X130699557Y-134244481D01*
X130633373Y-134237963D01*
X130463534Y-134186443D01*
X130307009Y-134102778D01*
X130271271Y-134073448D01*
X130169814Y-133990186D01*
X130086552Y-133888729D01*
X130057222Y-133852991D01*
X129973557Y-133696466D01*
X129922037Y-133526627D01*
X129904641Y-133350000D01*
X129922037Y-133173373D01*
X129973557Y-133003534D01*
X130057222Y-132847009D01*
X130086552Y-132811271D01*
X130169814Y-132709814D01*
X130271271Y-132626552D01*
X130307009Y-132597222D01*
X130463534Y-132513557D01*
X130633373Y-132462037D01*
X130699558Y-132455518D01*
X130765740Y-132449000D01*
X130854260Y-132449000D01*
X130920442Y-132455518D01*
X130920442Y-132455518D01*
G37*
G36*
X128380442Y-132455518D02*
G01*
X128446627Y-132462037D01*
X128616466Y-132513557D01*
X128772991Y-132597222D01*
X128808729Y-132626552D01*
X128910186Y-132709814D01*
X128993448Y-132811271D01*
X129022778Y-132847009D01*
X129106443Y-133003534D01*
X129157963Y-133173373D01*
X129175359Y-133350000D01*
X129157963Y-133526627D01*
X129106443Y-133696466D01*
X129022778Y-133852991D01*
X128993448Y-133888729D01*
X128910186Y-133990186D01*
X128808729Y-134073448D01*
X128772991Y-134102778D01*
X128616466Y-134186443D01*
X128446627Y-134237963D01*
X128380443Y-134244481D01*
X128314260Y-134251000D01*
X128225740Y-134251000D01*
X128159557Y-134244481D01*
X128093373Y-134237963D01*
X127923534Y-134186443D01*
X127767009Y-134102778D01*
X127731271Y-134073448D01*
X127629814Y-133990186D01*
X127546552Y-133888729D01*
X127517222Y-133852991D01*
X127433557Y-133696466D01*
X127382037Y-133526627D01*
X127364641Y-133350000D01*
X127382037Y-133173373D01*
X127433557Y-133003534D01*
X127517222Y-132847009D01*
X127546552Y-132811271D01*
X127629814Y-132709814D01*
X127731271Y-132626552D01*
X127767009Y-132597222D01*
X127923534Y-132513557D01*
X128093373Y-132462037D01*
X128159558Y-132455518D01*
X128225740Y-132449000D01*
X128314260Y-132449000D01*
X128380442Y-132455518D01*
X128380442Y-132455518D01*
G37*
G36*
X125840442Y-132455518D02*
G01*
X125906627Y-132462037D01*
X126076466Y-132513557D01*
X126232991Y-132597222D01*
X126268729Y-132626552D01*
X126370186Y-132709814D01*
X126453448Y-132811271D01*
X126482778Y-132847009D01*
X126566443Y-133003534D01*
X126617963Y-133173373D01*
X126635359Y-133350000D01*
X126617963Y-133526627D01*
X126566443Y-133696466D01*
X126482778Y-133852991D01*
X126453448Y-133888729D01*
X126370186Y-133990186D01*
X126268729Y-134073448D01*
X126232991Y-134102778D01*
X126076466Y-134186443D01*
X125906627Y-134237963D01*
X125840443Y-134244481D01*
X125774260Y-134251000D01*
X125685740Y-134251000D01*
X125619557Y-134244481D01*
X125553373Y-134237963D01*
X125383534Y-134186443D01*
X125227009Y-134102778D01*
X125191271Y-134073448D01*
X125089814Y-133990186D01*
X125006552Y-133888729D01*
X124977222Y-133852991D01*
X124893557Y-133696466D01*
X124842037Y-133526627D01*
X124824641Y-133350000D01*
X124842037Y-133173373D01*
X124893557Y-133003534D01*
X124977222Y-132847009D01*
X125006552Y-132811271D01*
X125089814Y-132709814D01*
X125191271Y-132626552D01*
X125227009Y-132597222D01*
X125383534Y-132513557D01*
X125553373Y-132462037D01*
X125619558Y-132455518D01*
X125685740Y-132449000D01*
X125774260Y-132449000D01*
X125840442Y-132455518D01*
X125840442Y-132455518D01*
G37*
G36*
X123300442Y-132455518D02*
G01*
X123366627Y-132462037D01*
X123536466Y-132513557D01*
X123692991Y-132597222D01*
X123728729Y-132626552D01*
X123830186Y-132709814D01*
X123913448Y-132811271D01*
X123942778Y-132847009D01*
X124026443Y-133003534D01*
X124077963Y-133173373D01*
X124095359Y-133350000D01*
X124077963Y-133526627D01*
X124026443Y-133696466D01*
X123942778Y-133852991D01*
X123913448Y-133888729D01*
X123830186Y-133990186D01*
X123728729Y-134073448D01*
X123692991Y-134102778D01*
X123536466Y-134186443D01*
X123366627Y-134237963D01*
X123300443Y-134244481D01*
X123234260Y-134251000D01*
X123145740Y-134251000D01*
X123079557Y-134244481D01*
X123013373Y-134237963D01*
X122843534Y-134186443D01*
X122687009Y-134102778D01*
X122651271Y-134073448D01*
X122549814Y-133990186D01*
X122466552Y-133888729D01*
X122437222Y-133852991D01*
X122353557Y-133696466D01*
X122302037Y-133526627D01*
X122284641Y-133350000D01*
X122302037Y-133173373D01*
X122353557Y-133003534D01*
X122437222Y-132847009D01*
X122466552Y-132811271D01*
X122549814Y-132709814D01*
X122651271Y-132626552D01*
X122687009Y-132597222D01*
X122843534Y-132513557D01*
X123013373Y-132462037D01*
X123079558Y-132455518D01*
X123145740Y-132449000D01*
X123234260Y-132449000D01*
X123300442Y-132455518D01*
X123300442Y-132455518D01*
G37*
G36*
X120760442Y-132455518D02*
G01*
X120826627Y-132462037D01*
X120996466Y-132513557D01*
X121152991Y-132597222D01*
X121188729Y-132626552D01*
X121290186Y-132709814D01*
X121373448Y-132811271D01*
X121402778Y-132847009D01*
X121486443Y-133003534D01*
X121537963Y-133173373D01*
X121555359Y-133350000D01*
X121537963Y-133526627D01*
X121486443Y-133696466D01*
X121402778Y-133852991D01*
X121373448Y-133888729D01*
X121290186Y-133990186D01*
X121188729Y-134073448D01*
X121152991Y-134102778D01*
X120996466Y-134186443D01*
X120826627Y-134237963D01*
X120760443Y-134244481D01*
X120694260Y-134251000D01*
X120605740Y-134251000D01*
X120539557Y-134244481D01*
X120473373Y-134237963D01*
X120303534Y-134186443D01*
X120147009Y-134102778D01*
X120111271Y-134073448D01*
X120009814Y-133990186D01*
X119926552Y-133888729D01*
X119897222Y-133852991D01*
X119813557Y-133696466D01*
X119762037Y-133526627D01*
X119744641Y-133350000D01*
X119762037Y-133173373D01*
X119813557Y-133003534D01*
X119897222Y-132847009D01*
X119926552Y-132811271D01*
X120009814Y-132709814D01*
X120111271Y-132626552D01*
X120147009Y-132597222D01*
X120303534Y-132513557D01*
X120473373Y-132462037D01*
X120539558Y-132455518D01*
X120605740Y-132449000D01*
X120694260Y-132449000D01*
X120760442Y-132455518D01*
X120760442Y-132455518D01*
G37*
G36*
X118220442Y-132455518D02*
G01*
X118286627Y-132462037D01*
X118456466Y-132513557D01*
X118612991Y-132597222D01*
X118648729Y-132626552D01*
X118750186Y-132709814D01*
X118833448Y-132811271D01*
X118862778Y-132847009D01*
X118946443Y-133003534D01*
X118997963Y-133173373D01*
X119015359Y-133350000D01*
X118997963Y-133526627D01*
X118946443Y-133696466D01*
X118862778Y-133852991D01*
X118833448Y-133888729D01*
X118750186Y-133990186D01*
X118648729Y-134073448D01*
X118612991Y-134102778D01*
X118456466Y-134186443D01*
X118286627Y-134237963D01*
X118220443Y-134244481D01*
X118154260Y-134251000D01*
X118065740Y-134251000D01*
X117999557Y-134244481D01*
X117933373Y-134237963D01*
X117763534Y-134186443D01*
X117607009Y-134102778D01*
X117571271Y-134073448D01*
X117469814Y-133990186D01*
X117386552Y-133888729D01*
X117357222Y-133852991D01*
X117273557Y-133696466D01*
X117222037Y-133526627D01*
X117204641Y-133350000D01*
X117222037Y-133173373D01*
X117273557Y-133003534D01*
X117357222Y-132847009D01*
X117386552Y-132811271D01*
X117469814Y-132709814D01*
X117571271Y-132626552D01*
X117607009Y-132597222D01*
X117763534Y-132513557D01*
X117933373Y-132462037D01*
X117999558Y-132455518D01*
X118065740Y-132449000D01*
X118154260Y-132449000D01*
X118220442Y-132455518D01*
X118220442Y-132455518D01*
G37*
G36*
X115680442Y-132455518D02*
G01*
X115746627Y-132462037D01*
X115916466Y-132513557D01*
X116072991Y-132597222D01*
X116108729Y-132626552D01*
X116210186Y-132709814D01*
X116293448Y-132811271D01*
X116322778Y-132847009D01*
X116406443Y-133003534D01*
X116457963Y-133173373D01*
X116475359Y-133350000D01*
X116457963Y-133526627D01*
X116406443Y-133696466D01*
X116322778Y-133852991D01*
X116293448Y-133888729D01*
X116210186Y-133990186D01*
X116108729Y-134073448D01*
X116072991Y-134102778D01*
X115916466Y-134186443D01*
X115746627Y-134237963D01*
X115680443Y-134244481D01*
X115614260Y-134251000D01*
X115525740Y-134251000D01*
X115459557Y-134244481D01*
X115393373Y-134237963D01*
X115223534Y-134186443D01*
X115067009Y-134102778D01*
X115031271Y-134073448D01*
X114929814Y-133990186D01*
X114846552Y-133888729D01*
X114817222Y-133852991D01*
X114733557Y-133696466D01*
X114682037Y-133526627D01*
X114664641Y-133350000D01*
X114682037Y-133173373D01*
X114733557Y-133003534D01*
X114817222Y-132847009D01*
X114846552Y-132811271D01*
X114929814Y-132709814D01*
X115031271Y-132626552D01*
X115067009Y-132597222D01*
X115223534Y-132513557D01*
X115393373Y-132462037D01*
X115459558Y-132455518D01*
X115525740Y-132449000D01*
X115614260Y-132449000D01*
X115680442Y-132455518D01*
X115680442Y-132455518D01*
G37*
G36*
X113140442Y-132455518D02*
G01*
X113206627Y-132462037D01*
X113376466Y-132513557D01*
X113532991Y-132597222D01*
X113568729Y-132626552D01*
X113670186Y-132709814D01*
X113753448Y-132811271D01*
X113782778Y-132847009D01*
X113866443Y-133003534D01*
X113917963Y-133173373D01*
X113935359Y-133350000D01*
X113917963Y-133526627D01*
X113866443Y-133696466D01*
X113782778Y-133852991D01*
X113753448Y-133888729D01*
X113670186Y-133990186D01*
X113568729Y-134073448D01*
X113532991Y-134102778D01*
X113376466Y-134186443D01*
X113206627Y-134237963D01*
X113140443Y-134244481D01*
X113074260Y-134251000D01*
X112985740Y-134251000D01*
X112919557Y-134244481D01*
X112853373Y-134237963D01*
X112683534Y-134186443D01*
X112527009Y-134102778D01*
X112491271Y-134073448D01*
X112389814Y-133990186D01*
X112306552Y-133888729D01*
X112277222Y-133852991D01*
X112193557Y-133696466D01*
X112142037Y-133526627D01*
X112124641Y-133350000D01*
X112142037Y-133173373D01*
X112193557Y-133003534D01*
X112277222Y-132847009D01*
X112306552Y-132811271D01*
X112389814Y-132709814D01*
X112491271Y-132626552D01*
X112527009Y-132597222D01*
X112683534Y-132513557D01*
X112853373Y-132462037D01*
X112919558Y-132455518D01*
X112985740Y-132449000D01*
X113074260Y-132449000D01*
X113140442Y-132455518D01*
X113140442Y-132455518D01*
G37*
G36*
X110600442Y-132455518D02*
G01*
X110666627Y-132462037D01*
X110836466Y-132513557D01*
X110992991Y-132597222D01*
X111028729Y-132626552D01*
X111130186Y-132709814D01*
X111213448Y-132811271D01*
X111242778Y-132847009D01*
X111326443Y-133003534D01*
X111377963Y-133173373D01*
X111395359Y-133350000D01*
X111377963Y-133526627D01*
X111326443Y-133696466D01*
X111242778Y-133852991D01*
X111213448Y-133888729D01*
X111130186Y-133990186D01*
X111028729Y-134073448D01*
X110992991Y-134102778D01*
X110836466Y-134186443D01*
X110666627Y-134237963D01*
X110600443Y-134244481D01*
X110534260Y-134251000D01*
X110445740Y-134251000D01*
X110379557Y-134244481D01*
X110313373Y-134237963D01*
X110143534Y-134186443D01*
X109987009Y-134102778D01*
X109951271Y-134073448D01*
X109849814Y-133990186D01*
X109766552Y-133888729D01*
X109737222Y-133852991D01*
X109653557Y-133696466D01*
X109602037Y-133526627D01*
X109584641Y-133350000D01*
X109602037Y-133173373D01*
X109653557Y-133003534D01*
X109737222Y-132847009D01*
X109766552Y-132811271D01*
X109849814Y-132709814D01*
X109951271Y-132626552D01*
X109987009Y-132597222D01*
X110143534Y-132513557D01*
X110313373Y-132462037D01*
X110379558Y-132455518D01*
X110445740Y-132449000D01*
X110534260Y-132449000D01*
X110600442Y-132455518D01*
X110600442Y-132455518D01*
G37*
G36*
X108060442Y-132455518D02*
G01*
X108126627Y-132462037D01*
X108296466Y-132513557D01*
X108452991Y-132597222D01*
X108488729Y-132626552D01*
X108590186Y-132709814D01*
X108673448Y-132811271D01*
X108702778Y-132847009D01*
X108786443Y-133003534D01*
X108837963Y-133173373D01*
X108855359Y-133350000D01*
X108837963Y-133526627D01*
X108786443Y-133696466D01*
X108702778Y-133852991D01*
X108673448Y-133888729D01*
X108590186Y-133990186D01*
X108488729Y-134073448D01*
X108452991Y-134102778D01*
X108296466Y-134186443D01*
X108126627Y-134237963D01*
X108060443Y-134244481D01*
X107994260Y-134251000D01*
X107905740Y-134251000D01*
X107839557Y-134244481D01*
X107773373Y-134237963D01*
X107603534Y-134186443D01*
X107447009Y-134102778D01*
X107411271Y-134073448D01*
X107309814Y-133990186D01*
X107226552Y-133888729D01*
X107197222Y-133852991D01*
X107113557Y-133696466D01*
X107062037Y-133526627D01*
X107044641Y-133350000D01*
X107062037Y-133173373D01*
X107113557Y-133003534D01*
X107197222Y-132847009D01*
X107226552Y-132811271D01*
X107309814Y-132709814D01*
X107411271Y-132626552D01*
X107447009Y-132597222D01*
X107603534Y-132513557D01*
X107773373Y-132462037D01*
X107839558Y-132455518D01*
X107905740Y-132449000D01*
X107994260Y-132449000D01*
X108060442Y-132455518D01*
X108060442Y-132455518D01*
G37*
G36*
X105520442Y-132455518D02*
G01*
X105586627Y-132462037D01*
X105756466Y-132513557D01*
X105912991Y-132597222D01*
X105948729Y-132626552D01*
X106050186Y-132709814D01*
X106133448Y-132811271D01*
X106162778Y-132847009D01*
X106246443Y-133003534D01*
X106297963Y-133173373D01*
X106315359Y-133350000D01*
X106297963Y-133526627D01*
X106246443Y-133696466D01*
X106162778Y-133852991D01*
X106133448Y-133888729D01*
X106050186Y-133990186D01*
X105948729Y-134073448D01*
X105912991Y-134102778D01*
X105756466Y-134186443D01*
X105586627Y-134237963D01*
X105520443Y-134244481D01*
X105454260Y-134251000D01*
X105365740Y-134251000D01*
X105299557Y-134244481D01*
X105233373Y-134237963D01*
X105063534Y-134186443D01*
X104907009Y-134102778D01*
X104871271Y-134073448D01*
X104769814Y-133990186D01*
X104686552Y-133888729D01*
X104657222Y-133852991D01*
X104573557Y-133696466D01*
X104522037Y-133526627D01*
X104504641Y-133350000D01*
X104522037Y-133173373D01*
X104573557Y-133003534D01*
X104657222Y-132847009D01*
X104686552Y-132811271D01*
X104769814Y-132709814D01*
X104871271Y-132626552D01*
X104907009Y-132597222D01*
X105063534Y-132513557D01*
X105233373Y-132462037D01*
X105299558Y-132455518D01*
X105365740Y-132449000D01*
X105454260Y-132449000D01*
X105520442Y-132455518D01*
X105520442Y-132455518D01*
G37*
G36*
X102980442Y-132455518D02*
G01*
X103046627Y-132462037D01*
X103216466Y-132513557D01*
X103372991Y-132597222D01*
X103408729Y-132626552D01*
X103510186Y-132709814D01*
X103593448Y-132811271D01*
X103622778Y-132847009D01*
X103706443Y-133003534D01*
X103757963Y-133173373D01*
X103775359Y-133350000D01*
X103757963Y-133526627D01*
X103706443Y-133696466D01*
X103622778Y-133852991D01*
X103593448Y-133888729D01*
X103510186Y-133990186D01*
X103408729Y-134073448D01*
X103372991Y-134102778D01*
X103216466Y-134186443D01*
X103046627Y-134237963D01*
X102980443Y-134244481D01*
X102914260Y-134251000D01*
X102825740Y-134251000D01*
X102759557Y-134244481D01*
X102693373Y-134237963D01*
X102523534Y-134186443D01*
X102367009Y-134102778D01*
X102331271Y-134073448D01*
X102229814Y-133990186D01*
X102146552Y-133888729D01*
X102117222Y-133852991D01*
X102033557Y-133696466D01*
X101982037Y-133526627D01*
X101964641Y-133350000D01*
X101982037Y-133173373D01*
X102033557Y-133003534D01*
X102117222Y-132847009D01*
X102146552Y-132811271D01*
X102229814Y-132709814D01*
X102331271Y-132626552D01*
X102367009Y-132597222D01*
X102523534Y-132513557D01*
X102693373Y-132462037D01*
X102759558Y-132455518D01*
X102825740Y-132449000D01*
X102914260Y-132449000D01*
X102980442Y-132455518D01*
X102980442Y-132455518D01*
G37*
G36*
X100440442Y-132455518D02*
G01*
X100506627Y-132462037D01*
X100676466Y-132513557D01*
X100832991Y-132597222D01*
X100868729Y-132626552D01*
X100970186Y-132709814D01*
X101053448Y-132811271D01*
X101082778Y-132847009D01*
X101166443Y-133003534D01*
X101217963Y-133173373D01*
X101235359Y-133350000D01*
X101217963Y-133526627D01*
X101166443Y-133696466D01*
X101082778Y-133852991D01*
X101053448Y-133888729D01*
X100970186Y-133990186D01*
X100868729Y-134073448D01*
X100832991Y-134102778D01*
X100676466Y-134186443D01*
X100506627Y-134237963D01*
X100440443Y-134244481D01*
X100374260Y-134251000D01*
X100285740Y-134251000D01*
X100219557Y-134244481D01*
X100153373Y-134237963D01*
X99983534Y-134186443D01*
X99827009Y-134102778D01*
X99791271Y-134073448D01*
X99689814Y-133990186D01*
X99606552Y-133888729D01*
X99577222Y-133852991D01*
X99493557Y-133696466D01*
X99442037Y-133526627D01*
X99424641Y-133350000D01*
X99442037Y-133173373D01*
X99493557Y-133003534D01*
X99577222Y-132847009D01*
X99606552Y-132811271D01*
X99689814Y-132709814D01*
X99791271Y-132626552D01*
X99827009Y-132597222D01*
X99983534Y-132513557D01*
X100153373Y-132462037D01*
X100219558Y-132455518D01*
X100285740Y-132449000D01*
X100374260Y-132449000D01*
X100440442Y-132455518D01*
X100440442Y-132455518D01*
G37*
G36*
X97900442Y-132455518D02*
G01*
X97966627Y-132462037D01*
X98136466Y-132513557D01*
X98292991Y-132597222D01*
X98328729Y-132626552D01*
X98430186Y-132709814D01*
X98513448Y-132811271D01*
X98542778Y-132847009D01*
X98626443Y-133003534D01*
X98677963Y-133173373D01*
X98695359Y-133350000D01*
X98677963Y-133526627D01*
X98626443Y-133696466D01*
X98542778Y-133852991D01*
X98513448Y-133888729D01*
X98430186Y-133990186D01*
X98328729Y-134073448D01*
X98292991Y-134102778D01*
X98136466Y-134186443D01*
X97966627Y-134237963D01*
X97900443Y-134244481D01*
X97834260Y-134251000D01*
X97745740Y-134251000D01*
X97679557Y-134244481D01*
X97613373Y-134237963D01*
X97443534Y-134186443D01*
X97287009Y-134102778D01*
X97251271Y-134073448D01*
X97149814Y-133990186D01*
X97066552Y-133888729D01*
X97037222Y-133852991D01*
X96953557Y-133696466D01*
X96902037Y-133526627D01*
X96884641Y-133350000D01*
X96902037Y-133173373D01*
X96953557Y-133003534D01*
X97037222Y-132847009D01*
X97066552Y-132811271D01*
X97149814Y-132709814D01*
X97251271Y-132626552D01*
X97287009Y-132597222D01*
X97443534Y-132513557D01*
X97613373Y-132462037D01*
X97679558Y-132455518D01*
X97745740Y-132449000D01*
X97834260Y-132449000D01*
X97900442Y-132455518D01*
X97900442Y-132455518D01*
G37*
G36*
X95360442Y-132455518D02*
G01*
X95426627Y-132462037D01*
X95596466Y-132513557D01*
X95752991Y-132597222D01*
X95788729Y-132626552D01*
X95890186Y-132709814D01*
X95973448Y-132811271D01*
X96002778Y-132847009D01*
X96086443Y-133003534D01*
X96137963Y-133173373D01*
X96155359Y-133350000D01*
X96137963Y-133526627D01*
X96086443Y-133696466D01*
X96002778Y-133852991D01*
X95973448Y-133888729D01*
X95890186Y-133990186D01*
X95788729Y-134073448D01*
X95752991Y-134102778D01*
X95596466Y-134186443D01*
X95426627Y-134237963D01*
X95360443Y-134244481D01*
X95294260Y-134251000D01*
X95205740Y-134251000D01*
X95139557Y-134244481D01*
X95073373Y-134237963D01*
X94903534Y-134186443D01*
X94747009Y-134102778D01*
X94711271Y-134073448D01*
X94609814Y-133990186D01*
X94526552Y-133888729D01*
X94497222Y-133852991D01*
X94413557Y-133696466D01*
X94362037Y-133526627D01*
X94344641Y-133350000D01*
X94362037Y-133173373D01*
X94413557Y-133003534D01*
X94497222Y-132847009D01*
X94526552Y-132811271D01*
X94609814Y-132709814D01*
X94711271Y-132626552D01*
X94747009Y-132597222D01*
X94903534Y-132513557D01*
X95073373Y-132462037D01*
X95139558Y-132455518D01*
X95205740Y-132449000D01*
X95294260Y-132449000D01*
X95360442Y-132455518D01*
X95360442Y-132455518D01*
G37*
G36*
X92820442Y-132455518D02*
G01*
X92886627Y-132462037D01*
X93056466Y-132513557D01*
X93212991Y-132597222D01*
X93248729Y-132626552D01*
X93350186Y-132709814D01*
X93433448Y-132811271D01*
X93462778Y-132847009D01*
X93546443Y-133003534D01*
X93597963Y-133173373D01*
X93615359Y-133350000D01*
X93597963Y-133526627D01*
X93546443Y-133696466D01*
X93462778Y-133852991D01*
X93433448Y-133888729D01*
X93350186Y-133990186D01*
X93248729Y-134073448D01*
X93212991Y-134102778D01*
X93056466Y-134186443D01*
X92886627Y-134237963D01*
X92820443Y-134244481D01*
X92754260Y-134251000D01*
X92665740Y-134251000D01*
X92599557Y-134244481D01*
X92533373Y-134237963D01*
X92363534Y-134186443D01*
X92207009Y-134102778D01*
X92171271Y-134073448D01*
X92069814Y-133990186D01*
X91986552Y-133888729D01*
X91957222Y-133852991D01*
X91873557Y-133696466D01*
X91822037Y-133526627D01*
X91804641Y-133350000D01*
X91822037Y-133173373D01*
X91873557Y-133003534D01*
X91957222Y-132847009D01*
X91986552Y-132811271D01*
X92069814Y-132709814D01*
X92171271Y-132626552D01*
X92207009Y-132597222D01*
X92363534Y-132513557D01*
X92533373Y-132462037D01*
X92599558Y-132455518D01*
X92665740Y-132449000D01*
X92754260Y-132449000D01*
X92820442Y-132455518D01*
X92820442Y-132455518D01*
G37*
G36*
X90280442Y-132455518D02*
G01*
X90346627Y-132462037D01*
X90516466Y-132513557D01*
X90672991Y-132597222D01*
X90708729Y-132626552D01*
X90810186Y-132709814D01*
X90893448Y-132811271D01*
X90922778Y-132847009D01*
X91006443Y-133003534D01*
X91057963Y-133173373D01*
X91075359Y-133350000D01*
X91057963Y-133526627D01*
X91006443Y-133696466D01*
X90922778Y-133852991D01*
X90893448Y-133888729D01*
X90810186Y-133990186D01*
X90708729Y-134073448D01*
X90672991Y-134102778D01*
X90516466Y-134186443D01*
X90346627Y-134237963D01*
X90280443Y-134244481D01*
X90214260Y-134251000D01*
X90125740Y-134251000D01*
X90059557Y-134244481D01*
X89993373Y-134237963D01*
X89823534Y-134186443D01*
X89667009Y-134102778D01*
X89631271Y-134073448D01*
X89529814Y-133990186D01*
X89446552Y-133888729D01*
X89417222Y-133852991D01*
X89333557Y-133696466D01*
X89282037Y-133526627D01*
X89264641Y-133350000D01*
X89282037Y-133173373D01*
X89333557Y-133003534D01*
X89417222Y-132847009D01*
X89446552Y-132811271D01*
X89529814Y-132709814D01*
X89631271Y-132626552D01*
X89667009Y-132597222D01*
X89823534Y-132513557D01*
X89993373Y-132462037D01*
X90059558Y-132455518D01*
X90125740Y-132449000D01*
X90214260Y-132449000D01*
X90280442Y-132455518D01*
X90280442Y-132455518D01*
G37*
G36*
X87740442Y-132455518D02*
G01*
X87806627Y-132462037D01*
X87976466Y-132513557D01*
X88132991Y-132597222D01*
X88168729Y-132626552D01*
X88270186Y-132709814D01*
X88353448Y-132811271D01*
X88382778Y-132847009D01*
X88466443Y-133003534D01*
X88517963Y-133173373D01*
X88535359Y-133350000D01*
X88517963Y-133526627D01*
X88466443Y-133696466D01*
X88382778Y-133852991D01*
X88353448Y-133888729D01*
X88270186Y-133990186D01*
X88168729Y-134073448D01*
X88132991Y-134102778D01*
X87976466Y-134186443D01*
X87806627Y-134237963D01*
X87740443Y-134244481D01*
X87674260Y-134251000D01*
X87585740Y-134251000D01*
X87519557Y-134244481D01*
X87453373Y-134237963D01*
X87283534Y-134186443D01*
X87127009Y-134102778D01*
X87091271Y-134073448D01*
X86989814Y-133990186D01*
X86906552Y-133888729D01*
X86877222Y-133852991D01*
X86793557Y-133696466D01*
X86742037Y-133526627D01*
X86724641Y-133350000D01*
X86742037Y-133173373D01*
X86793557Y-133003534D01*
X86877222Y-132847009D01*
X86906552Y-132811271D01*
X86989814Y-132709814D01*
X87091271Y-132626552D01*
X87127009Y-132597222D01*
X87283534Y-132513557D01*
X87453373Y-132462037D01*
X87519558Y-132455518D01*
X87585740Y-132449000D01*
X87674260Y-132449000D01*
X87740442Y-132455518D01*
X87740442Y-132455518D01*
G37*
G36*
X64880442Y-132455518D02*
G01*
X64946627Y-132462037D01*
X65116466Y-132513557D01*
X65272991Y-132597222D01*
X65308729Y-132626552D01*
X65410186Y-132709814D01*
X65493448Y-132811271D01*
X65522778Y-132847009D01*
X65606443Y-133003534D01*
X65657963Y-133173373D01*
X65675359Y-133350000D01*
X65657963Y-133526627D01*
X65606443Y-133696466D01*
X65522778Y-133852991D01*
X65493448Y-133888729D01*
X65410186Y-133990186D01*
X65308729Y-134073448D01*
X65272991Y-134102778D01*
X65116466Y-134186443D01*
X64946627Y-134237963D01*
X64880443Y-134244481D01*
X64814260Y-134251000D01*
X64725740Y-134251000D01*
X64659557Y-134244481D01*
X64593373Y-134237963D01*
X64423534Y-134186443D01*
X64267009Y-134102778D01*
X64231271Y-134073448D01*
X64129814Y-133990186D01*
X64046552Y-133888729D01*
X64017222Y-133852991D01*
X63933557Y-133696466D01*
X63882037Y-133526627D01*
X63864641Y-133350000D01*
X63882037Y-133173373D01*
X63933557Y-133003534D01*
X64017222Y-132847009D01*
X64046552Y-132811271D01*
X64129814Y-132709814D01*
X64231271Y-132626552D01*
X64267009Y-132597222D01*
X64423534Y-132513557D01*
X64593373Y-132462037D01*
X64659558Y-132455518D01*
X64725740Y-132449000D01*
X64814260Y-132449000D01*
X64880442Y-132455518D01*
X64880442Y-132455518D01*
G37*
G36*
X67420442Y-132455518D02*
G01*
X67486627Y-132462037D01*
X67656466Y-132513557D01*
X67812991Y-132597222D01*
X67848729Y-132626552D01*
X67950186Y-132709814D01*
X68033448Y-132811271D01*
X68062778Y-132847009D01*
X68146443Y-133003534D01*
X68197963Y-133173373D01*
X68215359Y-133350000D01*
X68197963Y-133526627D01*
X68146443Y-133696466D01*
X68062778Y-133852991D01*
X68033448Y-133888729D01*
X67950186Y-133990186D01*
X67848729Y-134073448D01*
X67812991Y-134102778D01*
X67656466Y-134186443D01*
X67486627Y-134237963D01*
X67420443Y-134244481D01*
X67354260Y-134251000D01*
X67265740Y-134251000D01*
X67199557Y-134244481D01*
X67133373Y-134237963D01*
X66963534Y-134186443D01*
X66807009Y-134102778D01*
X66771271Y-134073448D01*
X66669814Y-133990186D01*
X66586552Y-133888729D01*
X66557222Y-133852991D01*
X66473557Y-133696466D01*
X66422037Y-133526627D01*
X66404641Y-133350000D01*
X66422037Y-133173373D01*
X66473557Y-133003534D01*
X66557222Y-132847009D01*
X66586552Y-132811271D01*
X66669814Y-132709814D01*
X66771271Y-132626552D01*
X66807009Y-132597222D01*
X66963534Y-132513557D01*
X67133373Y-132462037D01*
X67199558Y-132455518D01*
X67265740Y-132449000D01*
X67354260Y-132449000D01*
X67420442Y-132455518D01*
X67420442Y-132455518D01*
G37*
G36*
X69960442Y-132455518D02*
G01*
X70026627Y-132462037D01*
X70196466Y-132513557D01*
X70352991Y-132597222D01*
X70388729Y-132626552D01*
X70490186Y-132709814D01*
X70573448Y-132811271D01*
X70602778Y-132847009D01*
X70686443Y-133003534D01*
X70737963Y-133173373D01*
X70755359Y-133350000D01*
X70737963Y-133526627D01*
X70686443Y-133696466D01*
X70602778Y-133852991D01*
X70573448Y-133888729D01*
X70490186Y-133990186D01*
X70388729Y-134073448D01*
X70352991Y-134102778D01*
X70196466Y-134186443D01*
X70026627Y-134237963D01*
X69960443Y-134244481D01*
X69894260Y-134251000D01*
X69805740Y-134251000D01*
X69739557Y-134244481D01*
X69673373Y-134237963D01*
X69503534Y-134186443D01*
X69347009Y-134102778D01*
X69311271Y-134073448D01*
X69209814Y-133990186D01*
X69126552Y-133888729D01*
X69097222Y-133852991D01*
X69013557Y-133696466D01*
X68962037Y-133526627D01*
X68944641Y-133350000D01*
X68962037Y-133173373D01*
X69013557Y-133003534D01*
X69097222Y-132847009D01*
X69126552Y-132811271D01*
X69209814Y-132709814D01*
X69311271Y-132626552D01*
X69347009Y-132597222D01*
X69503534Y-132513557D01*
X69673373Y-132462037D01*
X69739558Y-132455518D01*
X69805740Y-132449000D01*
X69894260Y-132449000D01*
X69960442Y-132455518D01*
X69960442Y-132455518D01*
G37*
G36*
X72500442Y-132455518D02*
G01*
X72566627Y-132462037D01*
X72736466Y-132513557D01*
X72892991Y-132597222D01*
X72928729Y-132626552D01*
X73030186Y-132709814D01*
X73113448Y-132811271D01*
X73142778Y-132847009D01*
X73226443Y-133003534D01*
X73277963Y-133173373D01*
X73295359Y-133350000D01*
X73277963Y-133526627D01*
X73226443Y-133696466D01*
X73142778Y-133852991D01*
X73113448Y-133888729D01*
X73030186Y-133990186D01*
X72928729Y-134073448D01*
X72892991Y-134102778D01*
X72736466Y-134186443D01*
X72566627Y-134237963D01*
X72500443Y-134244481D01*
X72434260Y-134251000D01*
X72345740Y-134251000D01*
X72279557Y-134244481D01*
X72213373Y-134237963D01*
X72043534Y-134186443D01*
X71887009Y-134102778D01*
X71851271Y-134073448D01*
X71749814Y-133990186D01*
X71666552Y-133888729D01*
X71637222Y-133852991D01*
X71553557Y-133696466D01*
X71502037Y-133526627D01*
X71484641Y-133350000D01*
X71502037Y-133173373D01*
X71553557Y-133003534D01*
X71637222Y-132847009D01*
X71666552Y-132811271D01*
X71749814Y-132709814D01*
X71851271Y-132626552D01*
X71887009Y-132597222D01*
X72043534Y-132513557D01*
X72213373Y-132462037D01*
X72279558Y-132455518D01*
X72345740Y-132449000D01*
X72434260Y-132449000D01*
X72500442Y-132455518D01*
X72500442Y-132455518D01*
G37*
G36*
X77580442Y-132455518D02*
G01*
X77646627Y-132462037D01*
X77816466Y-132513557D01*
X77972991Y-132597222D01*
X78008729Y-132626552D01*
X78110186Y-132709814D01*
X78193448Y-132811271D01*
X78222778Y-132847009D01*
X78306443Y-133003534D01*
X78357963Y-133173373D01*
X78375359Y-133350000D01*
X78357963Y-133526627D01*
X78306443Y-133696466D01*
X78222778Y-133852991D01*
X78193448Y-133888729D01*
X78110186Y-133990186D01*
X78008729Y-134073448D01*
X77972991Y-134102778D01*
X77816466Y-134186443D01*
X77646627Y-134237963D01*
X77580443Y-134244481D01*
X77514260Y-134251000D01*
X77425740Y-134251000D01*
X77359557Y-134244481D01*
X77293373Y-134237963D01*
X77123534Y-134186443D01*
X76967009Y-134102778D01*
X76931271Y-134073448D01*
X76829814Y-133990186D01*
X76746552Y-133888729D01*
X76717222Y-133852991D01*
X76633557Y-133696466D01*
X76582037Y-133526627D01*
X76564641Y-133350000D01*
X76582037Y-133173373D01*
X76633557Y-133003534D01*
X76717222Y-132847009D01*
X76746552Y-132811271D01*
X76829814Y-132709814D01*
X76931271Y-132626552D01*
X76967009Y-132597222D01*
X77123534Y-132513557D01*
X77293373Y-132462037D01*
X77359558Y-132455518D01*
X77425740Y-132449000D01*
X77514260Y-132449000D01*
X77580442Y-132455518D01*
X77580442Y-132455518D01*
G37*
G36*
X80120442Y-132455518D02*
G01*
X80186627Y-132462037D01*
X80356466Y-132513557D01*
X80512991Y-132597222D01*
X80548729Y-132626552D01*
X80650186Y-132709814D01*
X80733448Y-132811271D01*
X80762778Y-132847009D01*
X80846443Y-133003534D01*
X80897963Y-133173373D01*
X80915359Y-133350000D01*
X80897963Y-133526627D01*
X80846443Y-133696466D01*
X80762778Y-133852991D01*
X80733448Y-133888729D01*
X80650186Y-133990186D01*
X80548729Y-134073448D01*
X80512991Y-134102778D01*
X80356466Y-134186443D01*
X80186627Y-134237963D01*
X80120443Y-134244481D01*
X80054260Y-134251000D01*
X79965740Y-134251000D01*
X79899557Y-134244481D01*
X79833373Y-134237963D01*
X79663534Y-134186443D01*
X79507009Y-134102778D01*
X79471271Y-134073448D01*
X79369814Y-133990186D01*
X79286552Y-133888729D01*
X79257222Y-133852991D01*
X79173557Y-133696466D01*
X79122037Y-133526627D01*
X79104641Y-133350000D01*
X79122037Y-133173373D01*
X79173557Y-133003534D01*
X79257222Y-132847009D01*
X79286552Y-132811271D01*
X79369814Y-132709814D01*
X79471271Y-132626552D01*
X79507009Y-132597222D01*
X79663534Y-132513557D01*
X79833373Y-132462037D01*
X79899558Y-132455518D01*
X79965740Y-132449000D01*
X80054260Y-132449000D01*
X80120442Y-132455518D01*
X80120442Y-132455518D01*
G37*
G36*
X82660442Y-132455518D02*
G01*
X82726627Y-132462037D01*
X82896466Y-132513557D01*
X83052991Y-132597222D01*
X83088729Y-132626552D01*
X83190186Y-132709814D01*
X83273448Y-132811271D01*
X83302778Y-132847009D01*
X83386443Y-133003534D01*
X83437963Y-133173373D01*
X83455359Y-133350000D01*
X83437963Y-133526627D01*
X83386443Y-133696466D01*
X83302778Y-133852991D01*
X83273448Y-133888729D01*
X83190186Y-133990186D01*
X83088729Y-134073448D01*
X83052991Y-134102778D01*
X82896466Y-134186443D01*
X82726627Y-134237963D01*
X82660443Y-134244481D01*
X82594260Y-134251000D01*
X82505740Y-134251000D01*
X82439557Y-134244481D01*
X82373373Y-134237963D01*
X82203534Y-134186443D01*
X82047009Y-134102778D01*
X82011271Y-134073448D01*
X81909814Y-133990186D01*
X81826552Y-133888729D01*
X81797222Y-133852991D01*
X81713557Y-133696466D01*
X81662037Y-133526627D01*
X81644641Y-133350000D01*
X81662037Y-133173373D01*
X81713557Y-133003534D01*
X81797222Y-132847009D01*
X81826552Y-132811271D01*
X81909814Y-132709814D01*
X82011271Y-132626552D01*
X82047009Y-132597222D01*
X82203534Y-132513557D01*
X82373373Y-132462037D01*
X82439558Y-132455518D01*
X82505740Y-132449000D01*
X82594260Y-132449000D01*
X82660442Y-132455518D01*
X82660442Y-132455518D01*
G37*
G36*
X85200442Y-132455518D02*
G01*
X85266627Y-132462037D01*
X85436466Y-132513557D01*
X85592991Y-132597222D01*
X85628729Y-132626552D01*
X85730186Y-132709814D01*
X85813448Y-132811271D01*
X85842778Y-132847009D01*
X85926443Y-133003534D01*
X85977963Y-133173373D01*
X85995359Y-133350000D01*
X85977963Y-133526627D01*
X85926443Y-133696466D01*
X85842778Y-133852991D01*
X85813448Y-133888729D01*
X85730186Y-133990186D01*
X85628729Y-134073448D01*
X85592991Y-134102778D01*
X85436466Y-134186443D01*
X85266627Y-134237963D01*
X85200443Y-134244481D01*
X85134260Y-134251000D01*
X85045740Y-134251000D01*
X84979557Y-134244481D01*
X84913373Y-134237963D01*
X84743534Y-134186443D01*
X84587009Y-134102778D01*
X84551271Y-134073448D01*
X84449814Y-133990186D01*
X84366552Y-133888729D01*
X84337222Y-133852991D01*
X84253557Y-133696466D01*
X84202037Y-133526627D01*
X84184641Y-133350000D01*
X84202037Y-133173373D01*
X84253557Y-133003534D01*
X84337222Y-132847009D01*
X84366552Y-132811271D01*
X84449814Y-132709814D01*
X84551271Y-132626552D01*
X84587009Y-132597222D01*
X84743534Y-132513557D01*
X84913373Y-132462037D01*
X84979558Y-132455518D01*
X85045740Y-132449000D01*
X85134260Y-132449000D01*
X85200442Y-132455518D01*
X85200442Y-132455518D01*
G37*
G36*
X109386823Y-128701313D02*
G01*
X109547242Y-128749976D01*
X109679906Y-128820886D01*
X109695078Y-128828996D01*
X109824659Y-128935341D01*
X109931004Y-129064922D01*
X109931005Y-129064924D01*
X110010024Y-129212758D01*
X110058687Y-129373177D01*
X110075117Y-129540000D01*
X110058687Y-129706823D01*
X110010024Y-129867242D01*
X109939114Y-129999906D01*
X109931004Y-130015078D01*
X109824659Y-130144659D01*
X109695078Y-130251004D01*
X109695076Y-130251005D01*
X109547242Y-130330024D01*
X109386823Y-130378687D01*
X109261804Y-130391000D01*
X109178196Y-130391000D01*
X109053177Y-130378687D01*
X108892758Y-130330024D01*
X108744924Y-130251005D01*
X108744922Y-130251004D01*
X108615341Y-130144659D01*
X108508996Y-130015078D01*
X108500886Y-129999906D01*
X108429976Y-129867242D01*
X108381313Y-129706823D01*
X108364883Y-129540000D01*
X108381313Y-129373177D01*
X108429976Y-129212758D01*
X108508995Y-129064924D01*
X108508996Y-129064922D01*
X108615341Y-128935341D01*
X108744922Y-128828996D01*
X108760094Y-128820886D01*
X108892758Y-128749976D01*
X109053177Y-128701313D01*
X109178196Y-128689000D01*
X109261804Y-128689000D01*
X109386823Y-128701313D01*
X109386823Y-128701313D01*
G37*
G36*
X111926823Y-128701313D02*
G01*
X112087242Y-128749976D01*
X112219906Y-128820886D01*
X112235078Y-128828996D01*
X112364659Y-128935341D01*
X112471004Y-129064922D01*
X112471005Y-129064924D01*
X112550024Y-129212758D01*
X112598687Y-129373177D01*
X112615117Y-129540000D01*
X112598687Y-129706823D01*
X112550024Y-129867242D01*
X112479114Y-129999906D01*
X112471004Y-130015078D01*
X112364659Y-130144659D01*
X112235078Y-130251004D01*
X112235076Y-130251005D01*
X112087242Y-130330024D01*
X111926823Y-130378687D01*
X111801804Y-130391000D01*
X111718196Y-130391000D01*
X111593177Y-130378687D01*
X111432758Y-130330024D01*
X111284924Y-130251005D01*
X111284922Y-130251004D01*
X111155341Y-130144659D01*
X111048996Y-130015078D01*
X111040886Y-129999906D01*
X110969976Y-129867242D01*
X110921313Y-129706823D01*
X110904883Y-129540000D01*
X110921313Y-129373177D01*
X110969976Y-129212758D01*
X111048995Y-129064924D01*
X111048996Y-129064922D01*
X111155341Y-128935341D01*
X111284922Y-128828996D01*
X111300094Y-128820886D01*
X111432758Y-128749976D01*
X111593177Y-128701313D01*
X111718196Y-128689000D01*
X111801804Y-128689000D01*
X111926823Y-128701313D01*
X111926823Y-128701313D01*
G37*
G36*
X106846823Y-128701313D02*
G01*
X107007242Y-128749976D01*
X107139906Y-128820886D01*
X107155078Y-128828996D01*
X107284659Y-128935341D01*
X107391004Y-129064922D01*
X107391005Y-129064924D01*
X107470024Y-129212758D01*
X107518687Y-129373177D01*
X107535117Y-129540000D01*
X107518687Y-129706823D01*
X107470024Y-129867242D01*
X107399114Y-129999906D01*
X107391004Y-130015078D01*
X107284659Y-130144659D01*
X107155078Y-130251004D01*
X107155076Y-130251005D01*
X107007242Y-130330024D01*
X106846823Y-130378687D01*
X106721804Y-130391000D01*
X106638196Y-130391000D01*
X106513177Y-130378687D01*
X106352758Y-130330024D01*
X106204924Y-130251005D01*
X106204922Y-130251004D01*
X106075341Y-130144659D01*
X105968996Y-130015078D01*
X105960886Y-129999906D01*
X105889976Y-129867242D01*
X105841313Y-129706823D01*
X105824883Y-129540000D01*
X105841313Y-129373177D01*
X105889976Y-129212758D01*
X105968995Y-129064924D01*
X105968996Y-129064922D01*
X106075341Y-128935341D01*
X106204922Y-128828996D01*
X106220094Y-128820886D01*
X106352758Y-128749976D01*
X106513177Y-128701313D01*
X106638196Y-128689000D01*
X106721804Y-128689000D01*
X106846823Y-128701313D01*
X106846823Y-128701313D01*
G37*
G36*
X104991000Y-130391000D02*
G01*
X103289000Y-130391000D01*
X103289000Y-128689000D01*
X104991000Y-128689000D01*
X104991000Y-130391000D01*
X104991000Y-130391000D01*
G37*
G36*
X162083000Y-129411000D02*
G01*
X159481000Y-129411000D01*
X159481000Y-126809000D01*
X162083000Y-126809000D01*
X162083000Y-129411000D01*
X162083000Y-129411000D01*
G37*
G36*
X67562589Y-124460876D02*
G01*
X67661893Y-124480629D01*
X67802206Y-124538748D01*
X67928484Y-124623125D01*
X68035875Y-124730516D01*
X68120252Y-124856794D01*
X68178371Y-124997107D01*
X68208000Y-125146063D01*
X68208000Y-125297937D01*
X68178371Y-125446893D01*
X68120252Y-125587206D01*
X68035875Y-125713484D01*
X67928484Y-125820875D01*
X67802206Y-125905252D01*
X67661893Y-125963371D01*
X67562589Y-125983124D01*
X67512938Y-125993000D01*
X67361062Y-125993000D01*
X67311411Y-125983124D01*
X67212107Y-125963371D01*
X67071794Y-125905252D01*
X66945516Y-125820875D01*
X66838125Y-125713484D01*
X66753748Y-125587206D01*
X66695629Y-125446893D01*
X66666000Y-125297937D01*
X66666000Y-125146063D01*
X66695629Y-124997107D01*
X66753748Y-124856794D01*
X66838125Y-124730516D01*
X66945516Y-124623125D01*
X67071794Y-124538748D01*
X67212107Y-124480629D01*
X67311411Y-124460876D01*
X67361062Y-124451000D01*
X67512938Y-124451000D01*
X67562589Y-124460876D01*
X67562589Y-124460876D01*
G37*
G36*
X161161487Y-121858996D02*
G01*
X161398253Y-121957068D01*
X161398255Y-121957069D01*
X161611339Y-122099447D01*
X161792553Y-122280661D01*
X161910452Y-122457109D01*
X161934932Y-122493747D01*
X162033004Y-122730513D01*
X162083000Y-122981861D01*
X162083000Y-123238139D01*
X162033004Y-123489487D01*
X162002968Y-123562000D01*
X161934931Y-123726255D01*
X161792553Y-123939339D01*
X161611339Y-124120553D01*
X161398255Y-124262931D01*
X161398254Y-124262932D01*
X161398253Y-124262932D01*
X161161487Y-124361004D01*
X160910139Y-124411000D01*
X160653861Y-124411000D01*
X160402513Y-124361004D01*
X160165747Y-124262932D01*
X160165746Y-124262932D01*
X160165745Y-124262931D01*
X159952661Y-124120553D01*
X159771447Y-123939339D01*
X159629069Y-123726255D01*
X159561032Y-123562000D01*
X159530996Y-123489487D01*
X159481000Y-123238139D01*
X159481000Y-122981861D01*
X159530996Y-122730513D01*
X159629068Y-122493747D01*
X159653549Y-122457109D01*
X159771447Y-122280661D01*
X159952661Y-122099447D01*
X160165745Y-121957069D01*
X160165747Y-121957068D01*
X160402513Y-121858996D01*
X160653861Y-121809000D01*
X160910139Y-121809000D01*
X161161487Y-121858996D01*
X161161487Y-121858996D01*
G37*
G36*
X143557499Y-123303445D02*
G01*
X143594995Y-123314820D01*
X143629554Y-123333292D01*
X143659847Y-123358153D01*
X143684708Y-123388446D01*
X143703180Y-123423005D01*
X143714555Y-123460501D01*
X143719000Y-123505638D01*
X143719000Y-124144362D01*
X143714555Y-124189499D01*
X143703180Y-124226995D01*
X143684708Y-124261554D01*
X143659847Y-124291847D01*
X143629554Y-124316708D01*
X143594995Y-124335180D01*
X143557499Y-124346555D01*
X143512362Y-124351000D01*
X142773638Y-124351000D01*
X142728501Y-124346555D01*
X142691005Y-124335180D01*
X142656446Y-124316708D01*
X142626153Y-124291847D01*
X142601292Y-124261554D01*
X142582820Y-124226995D01*
X142571445Y-124189499D01*
X142567000Y-124144362D01*
X142567000Y-123505638D01*
X142571445Y-123460501D01*
X142582820Y-123423005D01*
X142601292Y-123388446D01*
X142626153Y-123358153D01*
X142656446Y-123333292D01*
X142691005Y-123314820D01*
X142728501Y-123303445D01*
X142773638Y-123299000D01*
X143512362Y-123299000D01*
X143557499Y-123303445D01*
X143557499Y-123303445D01*
G37*
G36*
X145307499Y-123303445D02*
G01*
X145344995Y-123314820D01*
X145379554Y-123333292D01*
X145409847Y-123358153D01*
X145434708Y-123388446D01*
X145453180Y-123423005D01*
X145464555Y-123460501D01*
X145469000Y-123505638D01*
X145469000Y-124144362D01*
X145464555Y-124189499D01*
X145453180Y-124226995D01*
X145434708Y-124261554D01*
X145409847Y-124291847D01*
X145379554Y-124316708D01*
X145344995Y-124335180D01*
X145307499Y-124346555D01*
X145262362Y-124351000D01*
X144523638Y-124351000D01*
X144478501Y-124346555D01*
X144441005Y-124335180D01*
X144406446Y-124316708D01*
X144376153Y-124291847D01*
X144351292Y-124261554D01*
X144332820Y-124226995D01*
X144321445Y-124189499D01*
X144317000Y-124144362D01*
X144317000Y-123505638D01*
X144321445Y-123460501D01*
X144332820Y-123423005D01*
X144351292Y-123388446D01*
X144376153Y-123358153D01*
X144406446Y-123333292D01*
X144441005Y-123314820D01*
X144478501Y-123303445D01*
X144523638Y-123299000D01*
X145262362Y-123299000D01*
X145307499Y-123303445D01*
X145307499Y-123303445D01*
G37*
G36*
X134512499Y-123176445D02*
G01*
X134549995Y-123187820D01*
X134584554Y-123206292D01*
X134614847Y-123231153D01*
X134639708Y-123261446D01*
X134658180Y-123296005D01*
X134669555Y-123333501D01*
X134674000Y-123378638D01*
X134674000Y-124017362D01*
X134669555Y-124062499D01*
X134658180Y-124099995D01*
X134639708Y-124134554D01*
X134614847Y-124164847D01*
X134584554Y-124189708D01*
X134549995Y-124208180D01*
X134512499Y-124219555D01*
X134467362Y-124224000D01*
X133728638Y-124224000D01*
X133683501Y-124219555D01*
X133646005Y-124208180D01*
X133611446Y-124189708D01*
X133581153Y-124164847D01*
X133556292Y-124134554D01*
X133537820Y-124099995D01*
X133526445Y-124062499D01*
X133522000Y-124017362D01*
X133522000Y-123378638D01*
X133526445Y-123333501D01*
X133537820Y-123296005D01*
X133556292Y-123261446D01*
X133581153Y-123231153D01*
X133611446Y-123206292D01*
X133646005Y-123187820D01*
X133683501Y-123176445D01*
X133728638Y-123172000D01*
X134467362Y-123172000D01*
X134512499Y-123176445D01*
X134512499Y-123176445D01*
G37*
G36*
X132762499Y-123176445D02*
G01*
X132799995Y-123187820D01*
X132834554Y-123206292D01*
X132864847Y-123231153D01*
X132889708Y-123261446D01*
X132908180Y-123296005D01*
X132919555Y-123333501D01*
X132924000Y-123378638D01*
X132924000Y-124017362D01*
X132919555Y-124062499D01*
X132908180Y-124099995D01*
X132889708Y-124134554D01*
X132864847Y-124164847D01*
X132834554Y-124189708D01*
X132799995Y-124208180D01*
X132762499Y-124219555D01*
X132717362Y-124224000D01*
X131978638Y-124224000D01*
X131933501Y-124219555D01*
X131896005Y-124208180D01*
X131861446Y-124189708D01*
X131831153Y-124164847D01*
X131806292Y-124134554D01*
X131787820Y-124099995D01*
X131776445Y-124062499D01*
X131772000Y-124017362D01*
X131772000Y-123378638D01*
X131776445Y-123333501D01*
X131787820Y-123296005D01*
X131806292Y-123261446D01*
X131831153Y-123231153D01*
X131861446Y-123206292D01*
X131896005Y-123187820D01*
X131933501Y-123176445D01*
X131978638Y-123172000D01*
X132717362Y-123172000D01*
X132762499Y-123176445D01*
X132762499Y-123176445D01*
G37*
G36*
X120034499Y-122922445D02*
G01*
X120071995Y-122933820D01*
X120106554Y-122952292D01*
X120136847Y-122977153D01*
X120161708Y-123007446D01*
X120180180Y-123042005D01*
X120191555Y-123079501D01*
X120196000Y-123124638D01*
X120196000Y-123763362D01*
X120191555Y-123808499D01*
X120180180Y-123845995D01*
X120161708Y-123880554D01*
X120136847Y-123910847D01*
X120106554Y-123935708D01*
X120071995Y-123954180D01*
X120034499Y-123965555D01*
X119989362Y-123970000D01*
X119250638Y-123970000D01*
X119205501Y-123965555D01*
X119168005Y-123954180D01*
X119133446Y-123935708D01*
X119103153Y-123910847D01*
X119078292Y-123880554D01*
X119059820Y-123845995D01*
X119048445Y-123808499D01*
X119044000Y-123763362D01*
X119044000Y-123124638D01*
X119048445Y-123079501D01*
X119059820Y-123042005D01*
X119078292Y-123007446D01*
X119103153Y-122977153D01*
X119133446Y-122952292D01*
X119168005Y-122933820D01*
X119205501Y-122922445D01*
X119250638Y-122918000D01*
X119989362Y-122918000D01*
X120034499Y-122922445D01*
X120034499Y-122922445D01*
G37*
G36*
X118284499Y-122922445D02*
G01*
X118321995Y-122933820D01*
X118356554Y-122952292D01*
X118386847Y-122977153D01*
X118411708Y-123007446D01*
X118430180Y-123042005D01*
X118441555Y-123079501D01*
X118446000Y-123124638D01*
X118446000Y-123763362D01*
X118441555Y-123808499D01*
X118430180Y-123845995D01*
X118411708Y-123880554D01*
X118386847Y-123910847D01*
X118356554Y-123935708D01*
X118321995Y-123954180D01*
X118284499Y-123965555D01*
X118239362Y-123970000D01*
X117500638Y-123970000D01*
X117455501Y-123965555D01*
X117418005Y-123954180D01*
X117383446Y-123935708D01*
X117353153Y-123910847D01*
X117328292Y-123880554D01*
X117309820Y-123845995D01*
X117298445Y-123808499D01*
X117294000Y-123763362D01*
X117294000Y-123124638D01*
X117298445Y-123079501D01*
X117309820Y-123042005D01*
X117328292Y-123007446D01*
X117353153Y-122977153D01*
X117383446Y-122952292D01*
X117418005Y-122933820D01*
X117455501Y-122922445D01*
X117500638Y-122918000D01*
X118239362Y-122918000D01*
X118284499Y-122922445D01*
X118284499Y-122922445D01*
G37*
G36*
X67558183Y-121920000D02*
G01*
X67661893Y-121940629D01*
X67802206Y-121998748D01*
X67928484Y-122083125D01*
X68035875Y-122190516D01*
X68120252Y-122316794D01*
X68178371Y-122457107D01*
X68208000Y-122606063D01*
X68208000Y-122757937D01*
X68178371Y-122906893D01*
X68120252Y-123047206D01*
X68035875Y-123173484D01*
X67928484Y-123280875D01*
X67802206Y-123365252D01*
X67661893Y-123423371D01*
X67562589Y-123443124D01*
X67512938Y-123453000D01*
X67361062Y-123453000D01*
X67311411Y-123443124D01*
X67212107Y-123423371D01*
X67071794Y-123365252D01*
X66945516Y-123280875D01*
X66838125Y-123173484D01*
X66753748Y-123047206D01*
X66695629Y-122906893D01*
X66666000Y-122757937D01*
X66666000Y-122606063D01*
X66695629Y-122457107D01*
X66753748Y-122316794D01*
X66838125Y-122190516D01*
X66945516Y-122083125D01*
X67071794Y-121998748D01*
X67212107Y-121940629D01*
X67315817Y-121920000D01*
X67361062Y-121911000D01*
X67512938Y-121911000D01*
X67558183Y-121920000D01*
X67558183Y-121920000D01*
G37*
G36*
X106846823Y-121081313D02*
G01*
X107007242Y-121129976D01*
X107139906Y-121200886D01*
X107155078Y-121208996D01*
X107284659Y-121315341D01*
X107391004Y-121444922D01*
X107391005Y-121444924D01*
X107470024Y-121592758D01*
X107518687Y-121753177D01*
X107535117Y-121920000D01*
X107518687Y-122086823D01*
X107470024Y-122247242D01*
X107399114Y-122379906D01*
X107391004Y-122395078D01*
X107284659Y-122524659D01*
X107155078Y-122631004D01*
X107155076Y-122631005D01*
X107007242Y-122710024D01*
X106846823Y-122758687D01*
X106721804Y-122771000D01*
X106638196Y-122771000D01*
X106513177Y-122758687D01*
X106352758Y-122710024D01*
X106204924Y-122631005D01*
X106204922Y-122631004D01*
X106075341Y-122524659D01*
X105968996Y-122395078D01*
X105960886Y-122379906D01*
X105889976Y-122247242D01*
X105841313Y-122086823D01*
X105824883Y-121920000D01*
X105841313Y-121753177D01*
X105889976Y-121592758D01*
X105968995Y-121444924D01*
X105968996Y-121444922D01*
X106075341Y-121315341D01*
X106204922Y-121208996D01*
X106220094Y-121200886D01*
X106352758Y-121129976D01*
X106513177Y-121081313D01*
X106638196Y-121069000D01*
X106721804Y-121069000D01*
X106846823Y-121081313D01*
X106846823Y-121081313D01*
G37*
G36*
X109386823Y-121081313D02*
G01*
X109547242Y-121129976D01*
X109679906Y-121200886D01*
X109695078Y-121208996D01*
X109824659Y-121315341D01*
X109931004Y-121444922D01*
X109931005Y-121444924D01*
X110010024Y-121592758D01*
X110058687Y-121753177D01*
X110075117Y-121920000D01*
X110058687Y-122086823D01*
X110010024Y-122247242D01*
X109939114Y-122379906D01*
X109931004Y-122395078D01*
X109824659Y-122524659D01*
X109695078Y-122631004D01*
X109695076Y-122631005D01*
X109547242Y-122710024D01*
X109386823Y-122758687D01*
X109261804Y-122771000D01*
X109178196Y-122771000D01*
X109053177Y-122758687D01*
X108892758Y-122710024D01*
X108744924Y-122631005D01*
X108744922Y-122631004D01*
X108615341Y-122524659D01*
X108508996Y-122395078D01*
X108500886Y-122379906D01*
X108429976Y-122247242D01*
X108381313Y-122086823D01*
X108364883Y-121920000D01*
X108381313Y-121753177D01*
X108429976Y-121592758D01*
X108508995Y-121444924D01*
X108508996Y-121444922D01*
X108615341Y-121315341D01*
X108744922Y-121208996D01*
X108760094Y-121200886D01*
X108892758Y-121129976D01*
X109053177Y-121081313D01*
X109178196Y-121069000D01*
X109261804Y-121069000D01*
X109386823Y-121081313D01*
X109386823Y-121081313D01*
G37*
G36*
X104306823Y-121081313D02*
G01*
X104467242Y-121129976D01*
X104599906Y-121200886D01*
X104615078Y-121208996D01*
X104744659Y-121315341D01*
X104851004Y-121444922D01*
X104851005Y-121444924D01*
X104930024Y-121592758D01*
X104978687Y-121753177D01*
X104995117Y-121920000D01*
X104978687Y-122086823D01*
X104930024Y-122247242D01*
X104859114Y-122379906D01*
X104851004Y-122395078D01*
X104744659Y-122524659D01*
X104615078Y-122631004D01*
X104615076Y-122631005D01*
X104467242Y-122710024D01*
X104306823Y-122758687D01*
X104181804Y-122771000D01*
X104098196Y-122771000D01*
X103973177Y-122758687D01*
X103812758Y-122710024D01*
X103664924Y-122631005D01*
X103664922Y-122631004D01*
X103535341Y-122524659D01*
X103428996Y-122395078D01*
X103420886Y-122379906D01*
X103349976Y-122247242D01*
X103301313Y-122086823D01*
X103284883Y-121920000D01*
X103301313Y-121753177D01*
X103349976Y-121592758D01*
X103428995Y-121444924D01*
X103428996Y-121444922D01*
X103535341Y-121315341D01*
X103664922Y-121208996D01*
X103680094Y-121200886D01*
X103812758Y-121129976D01*
X103973177Y-121081313D01*
X104098196Y-121069000D01*
X104181804Y-121069000D01*
X104306823Y-121081313D01*
X104306823Y-121081313D01*
G37*
G36*
X111926823Y-121081313D02*
G01*
X112087242Y-121129976D01*
X112219906Y-121200886D01*
X112235078Y-121208996D01*
X112364659Y-121315341D01*
X112471004Y-121444922D01*
X112471005Y-121444924D01*
X112550024Y-121592758D01*
X112598687Y-121753177D01*
X112615117Y-121920000D01*
X112598687Y-122086823D01*
X112550024Y-122247242D01*
X112479114Y-122379906D01*
X112471004Y-122395078D01*
X112364659Y-122524659D01*
X112235078Y-122631004D01*
X112235076Y-122631005D01*
X112087242Y-122710024D01*
X111926823Y-122758687D01*
X111801804Y-122771000D01*
X111718196Y-122771000D01*
X111593177Y-122758687D01*
X111432758Y-122710024D01*
X111284924Y-122631005D01*
X111284922Y-122631004D01*
X111155341Y-122524659D01*
X111048996Y-122395078D01*
X111040886Y-122379906D01*
X110969976Y-122247242D01*
X110921313Y-122086823D01*
X110904883Y-121920000D01*
X110921313Y-121753177D01*
X110969976Y-121592758D01*
X111048995Y-121444924D01*
X111048996Y-121444922D01*
X111155341Y-121315341D01*
X111284922Y-121208996D01*
X111300094Y-121200886D01*
X111432758Y-121129976D01*
X111593177Y-121081313D01*
X111718196Y-121069000D01*
X111801804Y-121069000D01*
X111926823Y-121081313D01*
X111926823Y-121081313D01*
G37*
G36*
X67562589Y-119380876D02*
G01*
X67661893Y-119400629D01*
X67802206Y-119458748D01*
X67928484Y-119543125D01*
X68035875Y-119650516D01*
X68120252Y-119776794D01*
X68178371Y-119917107D01*
X68208000Y-120066063D01*
X68208000Y-120217937D01*
X68178371Y-120366893D01*
X68120252Y-120507206D01*
X68035875Y-120633484D01*
X67928484Y-120740875D01*
X67802206Y-120825252D01*
X67661893Y-120883371D01*
X67562589Y-120903124D01*
X67512938Y-120913000D01*
X67361062Y-120913000D01*
X67311411Y-120903124D01*
X67212107Y-120883371D01*
X67071794Y-120825252D01*
X66945516Y-120740875D01*
X66838125Y-120633484D01*
X66753748Y-120507206D01*
X66695629Y-120366893D01*
X66666000Y-120217937D01*
X66666000Y-120066063D01*
X66695629Y-119917107D01*
X66753748Y-119776794D01*
X66838125Y-119650516D01*
X66945516Y-119543125D01*
X67071794Y-119458748D01*
X67212107Y-119400629D01*
X67311411Y-119380876D01*
X67361062Y-119371000D01*
X67512938Y-119371000D01*
X67562589Y-119380876D01*
X67562589Y-119380876D01*
G37*
G36*
X161161487Y-116858996D02*
G01*
X161398253Y-116957068D01*
X161398255Y-116957069D01*
X161611339Y-117099447D01*
X161792553Y-117280661D01*
X161934932Y-117493747D01*
X162033004Y-117730513D01*
X162083000Y-117981861D01*
X162083000Y-118238139D01*
X162033004Y-118489487D01*
X161934932Y-118726253D01*
X161934931Y-118726255D01*
X161792553Y-118939339D01*
X161611339Y-119120553D01*
X161398255Y-119262931D01*
X161398254Y-119262932D01*
X161398253Y-119262932D01*
X161161487Y-119361004D01*
X160910139Y-119411000D01*
X160653861Y-119411000D01*
X160402513Y-119361004D01*
X160165747Y-119262932D01*
X160165746Y-119262932D01*
X160165745Y-119262931D01*
X159952661Y-119120553D01*
X159771447Y-118939339D01*
X159629069Y-118726255D01*
X159629068Y-118726253D01*
X159530996Y-118489487D01*
X159481000Y-118238139D01*
X159481000Y-117981861D01*
X159530996Y-117730513D01*
X159629068Y-117493747D01*
X159771447Y-117280661D01*
X159952661Y-117099447D01*
X160165745Y-116957069D01*
X160165747Y-116957068D01*
X160402513Y-116858996D01*
X160653861Y-116809000D01*
X160910139Y-116809000D01*
X161161487Y-116858996D01*
X161161487Y-116858996D01*
G37*
G36*
X160857348Y-113219820D02*
G01*
X160857350Y-113219821D01*
X160857351Y-113219821D01*
X160998574Y-113278317D01*
X160998577Y-113278319D01*
X161125669Y-113363239D01*
X161233761Y-113471331D01*
X161318681Y-113598423D01*
X161318683Y-113598426D01*
X161366245Y-113713252D01*
X161377180Y-113739652D01*
X161407000Y-113889569D01*
X161407000Y-114042431D01*
X161400718Y-114074015D01*
X161377179Y-114192351D01*
X161318683Y-114333574D01*
X161318681Y-114333577D01*
X161233761Y-114460669D01*
X161125669Y-114568761D01*
X160998577Y-114653681D01*
X160998574Y-114653683D01*
X160857351Y-114712179D01*
X160857350Y-114712179D01*
X160857348Y-114712180D01*
X160707431Y-114742000D01*
X160554569Y-114742000D01*
X160404652Y-114712180D01*
X160404650Y-114712179D01*
X160404649Y-114712179D01*
X160263426Y-114653683D01*
X160263423Y-114653681D01*
X160136331Y-114568761D01*
X160028239Y-114460669D01*
X159943319Y-114333577D01*
X159943317Y-114333574D01*
X159884821Y-114192351D01*
X159861283Y-114074015D01*
X159855000Y-114042431D01*
X159855000Y-113889569D01*
X159884820Y-113739652D01*
X159895755Y-113713252D01*
X159943317Y-113598426D01*
X159943319Y-113598423D01*
X160028239Y-113471331D01*
X160136331Y-113363239D01*
X160263423Y-113278319D01*
X160263426Y-113278317D01*
X160404649Y-113219821D01*
X160404650Y-113219821D01*
X160404652Y-113219820D01*
X160554569Y-113190000D01*
X160707431Y-113190000D01*
X160857348Y-113219820D01*
X160857348Y-113219820D01*
G37*
G36*
X163357348Y-113219820D02*
G01*
X163357350Y-113219821D01*
X163357351Y-113219821D01*
X163498574Y-113278317D01*
X163498577Y-113278319D01*
X163625669Y-113363239D01*
X163733761Y-113471331D01*
X163818681Y-113598423D01*
X163818683Y-113598426D01*
X163866245Y-113713252D01*
X163877180Y-113739652D01*
X163907000Y-113889569D01*
X163907000Y-114042431D01*
X163900718Y-114074015D01*
X163877179Y-114192351D01*
X163818683Y-114333574D01*
X163818681Y-114333577D01*
X163733761Y-114460669D01*
X163625669Y-114568761D01*
X163498577Y-114653681D01*
X163498574Y-114653683D01*
X163357351Y-114712179D01*
X163357350Y-114712179D01*
X163357348Y-114712180D01*
X163207431Y-114742000D01*
X163054569Y-114742000D01*
X162904652Y-114712180D01*
X162904650Y-114712179D01*
X162904649Y-114712179D01*
X162763426Y-114653683D01*
X162763423Y-114653681D01*
X162636331Y-114568761D01*
X162528239Y-114460669D01*
X162443319Y-114333577D01*
X162443317Y-114333574D01*
X162384821Y-114192351D01*
X162361283Y-114074015D01*
X162355000Y-114042431D01*
X162355000Y-113889569D01*
X162384820Y-113739652D01*
X162395755Y-113713252D01*
X162443317Y-113598426D01*
X162443319Y-113598423D01*
X162528239Y-113471331D01*
X162636331Y-113363239D01*
X162763423Y-113278319D01*
X162763426Y-113278317D01*
X162904649Y-113219821D01*
X162904650Y-113219821D01*
X162904652Y-113219820D01*
X163054569Y-113190000D01*
X163207431Y-113190000D01*
X163357348Y-113219820D01*
X163357348Y-113219820D01*
G37*
G36*
X156364015Y-113422973D02*
G01*
X156467879Y-113454479D01*
X156495055Y-113469005D01*
X156563600Y-113505643D01*
X156647501Y-113574499D01*
X156716357Y-113658400D01*
X156745676Y-113713252D01*
X156767521Y-113754121D01*
X156799027Y-113857985D01*
X156809666Y-113966000D01*
X156799027Y-114074015D01*
X156767521Y-114177879D01*
X156767519Y-114177882D01*
X156716357Y-114273600D01*
X156647501Y-114357501D01*
X156563600Y-114426357D01*
X156495055Y-114462995D01*
X156467879Y-114477521D01*
X156364015Y-114509027D01*
X156283067Y-114517000D01*
X154978933Y-114517000D01*
X154897985Y-114509027D01*
X154794121Y-114477521D01*
X154766945Y-114462995D01*
X154698400Y-114426357D01*
X154614499Y-114357501D01*
X154545643Y-114273600D01*
X154494481Y-114177882D01*
X154494479Y-114177879D01*
X154462973Y-114074015D01*
X154452334Y-113966000D01*
X154462973Y-113857985D01*
X154494479Y-113754121D01*
X154516324Y-113713252D01*
X154545643Y-113658400D01*
X154614499Y-113574499D01*
X154698400Y-113505643D01*
X154766945Y-113469005D01*
X154794121Y-113454479D01*
X154897985Y-113422973D01*
X154978933Y-113415000D01*
X156283067Y-113415000D01*
X156364015Y-113422973D01*
X156364015Y-113422973D01*
G37*
G36*
X67689589Y-112268876D02*
G01*
X67788893Y-112288629D01*
X67929206Y-112346748D01*
X68055484Y-112431125D01*
X68162875Y-112538516D01*
X68247252Y-112664794D01*
X68305371Y-112805107D01*
X68335000Y-112954063D01*
X68335000Y-113105937D01*
X68305371Y-113254893D01*
X68247252Y-113395206D01*
X68162875Y-113521484D01*
X68055484Y-113628875D01*
X67929206Y-113713252D01*
X67788893Y-113771371D01*
X67689589Y-113791124D01*
X67639938Y-113801000D01*
X67488062Y-113801000D01*
X67438411Y-113791124D01*
X67339107Y-113771371D01*
X67198794Y-113713252D01*
X67072516Y-113628875D01*
X66965125Y-113521484D01*
X66880748Y-113395206D01*
X66822629Y-113254893D01*
X66793000Y-113105937D01*
X66793000Y-112954063D01*
X66822629Y-112805107D01*
X66880748Y-112664794D01*
X66965125Y-112538516D01*
X67072516Y-112431125D01*
X67198794Y-112346748D01*
X67339107Y-112288629D01*
X67438411Y-112268876D01*
X67488062Y-112259000D01*
X67639938Y-112259000D01*
X67689589Y-112268876D01*
X67689589Y-112268876D01*
G37*
G36*
X67689589Y-109728876D02*
G01*
X67788893Y-109748629D01*
X67929206Y-109806748D01*
X68055484Y-109891125D01*
X68162875Y-109998516D01*
X68247252Y-110124794D01*
X68305371Y-110265107D01*
X68335000Y-110414063D01*
X68335000Y-110565937D01*
X68305371Y-110714893D01*
X68247252Y-110855206D01*
X68162875Y-110981484D01*
X68055484Y-111088875D01*
X67929206Y-111173252D01*
X67788893Y-111231371D01*
X67689589Y-111251124D01*
X67639938Y-111261000D01*
X67488062Y-111261000D01*
X67438411Y-111251124D01*
X67339107Y-111231371D01*
X67198794Y-111173252D01*
X67072516Y-111088875D01*
X66965125Y-110981484D01*
X66880748Y-110855206D01*
X66822629Y-110714893D01*
X66793000Y-110565937D01*
X66793000Y-110414063D01*
X66822629Y-110265107D01*
X66880748Y-110124794D01*
X66965125Y-109998516D01*
X67072516Y-109891125D01*
X67198794Y-109806748D01*
X67339107Y-109748629D01*
X67438411Y-109728876D01*
X67488062Y-109719000D01*
X67639938Y-109719000D01*
X67689589Y-109728876D01*
X67689589Y-109728876D01*
G37*
G36*
X160739014Y-107797973D02*
G01*
X160842878Y-107829479D01*
X160886907Y-107853013D01*
X160938599Y-107880643D01*
X160938601Y-107880644D01*
X160938600Y-107880644D01*
X161022501Y-107949499D01*
X161091356Y-108033400D01*
X161142521Y-108129121D01*
X161174027Y-108232985D01*
X161182000Y-108313933D01*
X161182000Y-109618067D01*
X161174027Y-109699015D01*
X161142521Y-109802879D01*
X161142519Y-109802882D01*
X161091357Y-109898600D01*
X161022501Y-109982501D01*
X160938600Y-110051357D01*
X160870055Y-110087995D01*
X160842879Y-110102521D01*
X160739015Y-110134027D01*
X160631000Y-110144666D01*
X160522986Y-110134027D01*
X160419122Y-110102521D01*
X160391946Y-110087995D01*
X160323401Y-110051357D01*
X160239500Y-109982501D01*
X160170644Y-109898600D01*
X160119482Y-109802882D01*
X160119480Y-109802879D01*
X160087974Y-109699015D01*
X160080001Y-109618067D01*
X160080000Y-108313934D01*
X160087973Y-108232986D01*
X160119479Y-108129122D01*
X160170644Y-108033400D01*
X160239499Y-107949499D01*
X160323400Y-107880644D01*
X160323399Y-107880644D01*
X160323401Y-107880643D01*
X160375093Y-107853013D01*
X160419121Y-107829479D01*
X160522985Y-107797973D01*
X160631000Y-107787334D01*
X160739014Y-107797973D01*
X160739014Y-107797973D01*
G37*
G36*
X155857348Y-108219820D02*
G01*
X155857350Y-108219821D01*
X155857351Y-108219821D01*
X155998574Y-108278317D01*
X155998577Y-108278319D01*
X156125669Y-108363239D01*
X156233761Y-108471331D01*
X156285574Y-108548875D01*
X156318683Y-108598426D01*
X156377179Y-108739649D01*
X156407000Y-108889571D01*
X156407000Y-109042429D01*
X156377179Y-109192351D01*
X156318683Y-109333574D01*
X156318681Y-109333577D01*
X156233761Y-109460669D01*
X156125669Y-109568761D01*
X156051886Y-109618061D01*
X155998574Y-109653683D01*
X155857351Y-109712179D01*
X155857350Y-109712179D01*
X155857348Y-109712180D01*
X155707431Y-109742000D01*
X155554569Y-109742000D01*
X155404652Y-109712180D01*
X155404650Y-109712179D01*
X155404649Y-109712179D01*
X155263426Y-109653683D01*
X155210114Y-109618061D01*
X155136331Y-109568761D01*
X155028239Y-109460669D01*
X154943319Y-109333577D01*
X154943317Y-109333574D01*
X154884821Y-109192351D01*
X154855000Y-109042429D01*
X154855000Y-108889571D01*
X154884821Y-108739649D01*
X154943317Y-108598426D01*
X154976426Y-108548875D01*
X155028239Y-108471331D01*
X155136331Y-108363239D01*
X155263423Y-108278319D01*
X155263426Y-108278317D01*
X155404649Y-108219821D01*
X155404650Y-108219821D01*
X155404652Y-108219820D01*
X155554569Y-108190000D01*
X155707431Y-108190000D01*
X155857348Y-108219820D01*
X155857348Y-108219820D01*
G37*
G36*
X67689589Y-107188876D02*
G01*
X67788893Y-107208629D01*
X67929206Y-107266748D01*
X68055484Y-107351125D01*
X68162875Y-107458516D01*
X68247252Y-107584794D01*
X68305371Y-107725107D01*
X68335000Y-107874063D01*
X68335000Y-108025937D01*
X68305371Y-108174893D01*
X68247252Y-108315206D01*
X68162875Y-108441484D01*
X68055484Y-108548875D01*
X67929206Y-108633252D01*
X67788893Y-108691371D01*
X67689589Y-108711124D01*
X67639938Y-108721000D01*
X67488062Y-108721000D01*
X67438411Y-108711124D01*
X67339107Y-108691371D01*
X67198794Y-108633252D01*
X67072516Y-108548875D01*
X66965125Y-108441484D01*
X66880748Y-108315206D01*
X66822629Y-108174893D01*
X66793000Y-108025937D01*
X66793000Y-107874063D01*
X66822629Y-107725107D01*
X66880748Y-107584794D01*
X66965125Y-107458516D01*
X67072516Y-107351125D01*
X67198794Y-107266748D01*
X67339107Y-107208629D01*
X67438411Y-107188876D01*
X67488062Y-107179000D01*
X67639938Y-107179000D01*
X67689589Y-107188876D01*
X67689589Y-107188876D01*
G37*
G36*
X163357348Y-103219820D02*
G01*
X163357350Y-103219821D01*
X163357351Y-103219821D01*
X163498574Y-103278317D01*
X163498577Y-103278319D01*
X163625669Y-103363239D01*
X163733761Y-103471331D01*
X163818681Y-103598423D01*
X163818683Y-103598426D01*
X163877179Y-103739649D01*
X163877180Y-103739652D01*
X163907000Y-103889569D01*
X163907000Y-104042431D01*
X163900718Y-104074015D01*
X163877179Y-104192351D01*
X163818683Y-104333574D01*
X163818681Y-104333577D01*
X163733761Y-104460669D01*
X163625669Y-104568761D01*
X163498577Y-104653681D01*
X163498574Y-104653683D01*
X163357351Y-104712179D01*
X163357350Y-104712179D01*
X163357348Y-104712180D01*
X163207431Y-104742000D01*
X163054569Y-104742000D01*
X162904652Y-104712180D01*
X162904650Y-104712179D01*
X162904649Y-104712179D01*
X162763426Y-104653683D01*
X162763423Y-104653681D01*
X162636331Y-104568761D01*
X162528239Y-104460669D01*
X162443319Y-104333577D01*
X162443317Y-104333574D01*
X162384821Y-104192351D01*
X162361283Y-104074015D01*
X162355000Y-104042431D01*
X162355000Y-103889569D01*
X162384820Y-103739652D01*
X162384821Y-103739649D01*
X162443317Y-103598426D01*
X162443319Y-103598423D01*
X162528239Y-103471331D01*
X162636331Y-103363239D01*
X162763423Y-103278319D01*
X162763426Y-103278317D01*
X162904649Y-103219821D01*
X162904650Y-103219821D01*
X162904652Y-103219820D01*
X163054569Y-103190000D01*
X163207431Y-103190000D01*
X163357348Y-103219820D01*
X163357348Y-103219820D01*
G37*
G36*
X160857348Y-103219820D02*
G01*
X160857350Y-103219821D01*
X160857351Y-103219821D01*
X160998574Y-103278317D01*
X160998577Y-103278319D01*
X161125669Y-103363239D01*
X161233761Y-103471331D01*
X161318681Y-103598423D01*
X161318683Y-103598426D01*
X161377179Y-103739649D01*
X161377180Y-103739652D01*
X161407000Y-103889569D01*
X161407000Y-104042431D01*
X161400718Y-104074015D01*
X161377179Y-104192351D01*
X161318683Y-104333574D01*
X161318681Y-104333577D01*
X161233761Y-104460669D01*
X161125669Y-104568761D01*
X160998577Y-104653681D01*
X160998574Y-104653683D01*
X160857351Y-104712179D01*
X160857350Y-104712179D01*
X160857348Y-104712180D01*
X160707431Y-104742000D01*
X160554569Y-104742000D01*
X160404652Y-104712180D01*
X160404650Y-104712179D01*
X160404649Y-104712179D01*
X160263426Y-104653683D01*
X160263423Y-104653681D01*
X160136331Y-104568761D01*
X160028239Y-104460669D01*
X159943319Y-104333577D01*
X159943317Y-104333574D01*
X159884821Y-104192351D01*
X159861283Y-104074015D01*
X159855000Y-104042431D01*
X159855000Y-103889569D01*
X159884820Y-103739652D01*
X159884821Y-103739649D01*
X159943317Y-103598426D01*
X159943319Y-103598423D01*
X160028239Y-103471331D01*
X160136331Y-103363239D01*
X160263423Y-103278319D01*
X160263426Y-103278317D01*
X160404649Y-103219821D01*
X160404650Y-103219821D01*
X160404652Y-103219820D01*
X160554569Y-103190000D01*
X160707431Y-103190000D01*
X160857348Y-103219820D01*
X160857348Y-103219820D01*
G37*
G36*
X156364015Y-103422973D02*
G01*
X156467879Y-103454479D01*
X156495055Y-103469005D01*
X156563600Y-103505643D01*
X156647501Y-103574499D01*
X156716357Y-103658400D01*
X156752995Y-103726945D01*
X156767521Y-103754121D01*
X156799027Y-103857985D01*
X156809666Y-103966000D01*
X156799027Y-104074015D01*
X156767521Y-104177879D01*
X156767519Y-104177882D01*
X156716357Y-104273600D01*
X156647501Y-104357501D01*
X156563600Y-104426357D01*
X156495055Y-104462995D01*
X156467879Y-104477521D01*
X156364015Y-104509027D01*
X156283067Y-104517000D01*
X154978933Y-104517000D01*
X154897985Y-104509027D01*
X154794121Y-104477521D01*
X154766945Y-104462995D01*
X154698400Y-104426357D01*
X154614499Y-104357501D01*
X154545643Y-104273600D01*
X154494481Y-104177882D01*
X154494479Y-104177879D01*
X154462973Y-104074015D01*
X154452334Y-103966000D01*
X154462973Y-103857985D01*
X154494479Y-103754121D01*
X154509005Y-103726945D01*
X154545643Y-103658400D01*
X154614499Y-103574499D01*
X154698400Y-103505643D01*
X154766945Y-103469005D01*
X154794121Y-103454479D01*
X154897985Y-103422973D01*
X154978933Y-103415000D01*
X156283067Y-103415000D01*
X156364015Y-103422973D01*
X156364015Y-103422973D01*
G37*
M02*
