G04 #@! TF.GenerationSoftware,KiCad,Pcbnew,(5.1.0-0)*
G04 #@! TF.CreationDate,2020-09-03T22:49:36-07:00*
G04 #@! TF.ProjectId,SoundCard,536f756e-6443-4617-9264-2e6b69636164,rev?*
G04 #@! TF.SameCoordinates,Original*
G04 #@! TF.FileFunction,Paste,Bot*
G04 #@! TF.FilePolarity,Positive*
%FSLAX46Y46*%
G04 Gerber Fmt 4.6, Leading zero omitted, Abs format (unit mm)*
G04 Created by KiCad (PCBNEW (5.1.0-0)) date 2020-09-03 22:49:36*
%MOMM*%
%LPD*%
G04 APERTURE LIST*
%ADD10C,0.100000*%
%ADD11C,0.950000*%
G04 APERTURE END LIST*
D10*
G36*
X119930779Y-122970144D02*
G01*
X119953834Y-122973563D01*
X119976443Y-122979227D01*
X119998387Y-122987079D01*
X120019457Y-122997044D01*
X120039448Y-123009026D01*
X120058168Y-123022910D01*
X120075438Y-123038562D01*
X120091090Y-123055832D01*
X120104974Y-123074552D01*
X120116956Y-123094543D01*
X120126921Y-123115613D01*
X120134773Y-123137557D01*
X120140437Y-123160166D01*
X120143856Y-123183221D01*
X120145000Y-123206500D01*
X120145000Y-123681500D01*
X120143856Y-123704779D01*
X120140437Y-123727834D01*
X120134773Y-123750443D01*
X120126921Y-123772387D01*
X120116956Y-123793457D01*
X120104974Y-123813448D01*
X120091090Y-123832168D01*
X120075438Y-123849438D01*
X120058168Y-123865090D01*
X120039448Y-123878974D01*
X120019457Y-123890956D01*
X119998387Y-123900921D01*
X119976443Y-123908773D01*
X119953834Y-123914437D01*
X119930779Y-123917856D01*
X119907500Y-123919000D01*
X119332500Y-123919000D01*
X119309221Y-123917856D01*
X119286166Y-123914437D01*
X119263557Y-123908773D01*
X119241613Y-123900921D01*
X119220543Y-123890956D01*
X119200552Y-123878974D01*
X119181832Y-123865090D01*
X119164562Y-123849438D01*
X119148910Y-123832168D01*
X119135026Y-123813448D01*
X119123044Y-123793457D01*
X119113079Y-123772387D01*
X119105227Y-123750443D01*
X119099563Y-123727834D01*
X119096144Y-123704779D01*
X119095000Y-123681500D01*
X119095000Y-123206500D01*
X119096144Y-123183221D01*
X119099563Y-123160166D01*
X119105227Y-123137557D01*
X119113079Y-123115613D01*
X119123044Y-123094543D01*
X119135026Y-123074552D01*
X119148910Y-123055832D01*
X119164562Y-123038562D01*
X119181832Y-123022910D01*
X119200552Y-123009026D01*
X119220543Y-122997044D01*
X119241613Y-122987079D01*
X119263557Y-122979227D01*
X119286166Y-122973563D01*
X119309221Y-122970144D01*
X119332500Y-122969000D01*
X119907500Y-122969000D01*
X119930779Y-122970144D01*
X119930779Y-122970144D01*
G37*
D11*
X119620000Y-123444000D03*
D10*
G36*
X118180779Y-122970144D02*
G01*
X118203834Y-122973563D01*
X118226443Y-122979227D01*
X118248387Y-122987079D01*
X118269457Y-122997044D01*
X118289448Y-123009026D01*
X118308168Y-123022910D01*
X118325438Y-123038562D01*
X118341090Y-123055832D01*
X118354974Y-123074552D01*
X118366956Y-123094543D01*
X118376921Y-123115613D01*
X118384773Y-123137557D01*
X118390437Y-123160166D01*
X118393856Y-123183221D01*
X118395000Y-123206500D01*
X118395000Y-123681500D01*
X118393856Y-123704779D01*
X118390437Y-123727834D01*
X118384773Y-123750443D01*
X118376921Y-123772387D01*
X118366956Y-123793457D01*
X118354974Y-123813448D01*
X118341090Y-123832168D01*
X118325438Y-123849438D01*
X118308168Y-123865090D01*
X118289448Y-123878974D01*
X118269457Y-123890956D01*
X118248387Y-123900921D01*
X118226443Y-123908773D01*
X118203834Y-123914437D01*
X118180779Y-123917856D01*
X118157500Y-123919000D01*
X117582500Y-123919000D01*
X117559221Y-123917856D01*
X117536166Y-123914437D01*
X117513557Y-123908773D01*
X117491613Y-123900921D01*
X117470543Y-123890956D01*
X117450552Y-123878974D01*
X117431832Y-123865090D01*
X117414562Y-123849438D01*
X117398910Y-123832168D01*
X117385026Y-123813448D01*
X117373044Y-123793457D01*
X117363079Y-123772387D01*
X117355227Y-123750443D01*
X117349563Y-123727834D01*
X117346144Y-123704779D01*
X117345000Y-123681500D01*
X117345000Y-123206500D01*
X117346144Y-123183221D01*
X117349563Y-123160166D01*
X117355227Y-123137557D01*
X117363079Y-123115613D01*
X117373044Y-123094543D01*
X117385026Y-123074552D01*
X117398910Y-123055832D01*
X117414562Y-123038562D01*
X117431832Y-123022910D01*
X117450552Y-123009026D01*
X117470543Y-122997044D01*
X117491613Y-122987079D01*
X117513557Y-122979227D01*
X117536166Y-122973563D01*
X117559221Y-122970144D01*
X117582500Y-122969000D01*
X118157500Y-122969000D01*
X118180779Y-122970144D01*
X118180779Y-122970144D01*
G37*
D11*
X117870000Y-123444000D03*
D10*
G36*
X134408779Y-123224144D02*
G01*
X134431834Y-123227563D01*
X134454443Y-123233227D01*
X134476387Y-123241079D01*
X134497457Y-123251044D01*
X134517448Y-123263026D01*
X134536168Y-123276910D01*
X134553438Y-123292562D01*
X134569090Y-123309832D01*
X134582974Y-123328552D01*
X134594956Y-123348543D01*
X134604921Y-123369613D01*
X134612773Y-123391557D01*
X134618437Y-123414166D01*
X134621856Y-123437221D01*
X134623000Y-123460500D01*
X134623000Y-123935500D01*
X134621856Y-123958779D01*
X134618437Y-123981834D01*
X134612773Y-124004443D01*
X134604921Y-124026387D01*
X134594956Y-124047457D01*
X134582974Y-124067448D01*
X134569090Y-124086168D01*
X134553438Y-124103438D01*
X134536168Y-124119090D01*
X134517448Y-124132974D01*
X134497457Y-124144956D01*
X134476387Y-124154921D01*
X134454443Y-124162773D01*
X134431834Y-124168437D01*
X134408779Y-124171856D01*
X134385500Y-124173000D01*
X133810500Y-124173000D01*
X133787221Y-124171856D01*
X133764166Y-124168437D01*
X133741557Y-124162773D01*
X133719613Y-124154921D01*
X133698543Y-124144956D01*
X133678552Y-124132974D01*
X133659832Y-124119090D01*
X133642562Y-124103438D01*
X133626910Y-124086168D01*
X133613026Y-124067448D01*
X133601044Y-124047457D01*
X133591079Y-124026387D01*
X133583227Y-124004443D01*
X133577563Y-123981834D01*
X133574144Y-123958779D01*
X133573000Y-123935500D01*
X133573000Y-123460500D01*
X133574144Y-123437221D01*
X133577563Y-123414166D01*
X133583227Y-123391557D01*
X133591079Y-123369613D01*
X133601044Y-123348543D01*
X133613026Y-123328552D01*
X133626910Y-123309832D01*
X133642562Y-123292562D01*
X133659832Y-123276910D01*
X133678552Y-123263026D01*
X133698543Y-123251044D01*
X133719613Y-123241079D01*
X133741557Y-123233227D01*
X133764166Y-123227563D01*
X133787221Y-123224144D01*
X133810500Y-123223000D01*
X134385500Y-123223000D01*
X134408779Y-123224144D01*
X134408779Y-123224144D01*
G37*
D11*
X134098000Y-123698000D03*
D10*
G36*
X132658779Y-123224144D02*
G01*
X132681834Y-123227563D01*
X132704443Y-123233227D01*
X132726387Y-123241079D01*
X132747457Y-123251044D01*
X132767448Y-123263026D01*
X132786168Y-123276910D01*
X132803438Y-123292562D01*
X132819090Y-123309832D01*
X132832974Y-123328552D01*
X132844956Y-123348543D01*
X132854921Y-123369613D01*
X132862773Y-123391557D01*
X132868437Y-123414166D01*
X132871856Y-123437221D01*
X132873000Y-123460500D01*
X132873000Y-123935500D01*
X132871856Y-123958779D01*
X132868437Y-123981834D01*
X132862773Y-124004443D01*
X132854921Y-124026387D01*
X132844956Y-124047457D01*
X132832974Y-124067448D01*
X132819090Y-124086168D01*
X132803438Y-124103438D01*
X132786168Y-124119090D01*
X132767448Y-124132974D01*
X132747457Y-124144956D01*
X132726387Y-124154921D01*
X132704443Y-124162773D01*
X132681834Y-124168437D01*
X132658779Y-124171856D01*
X132635500Y-124173000D01*
X132060500Y-124173000D01*
X132037221Y-124171856D01*
X132014166Y-124168437D01*
X131991557Y-124162773D01*
X131969613Y-124154921D01*
X131948543Y-124144956D01*
X131928552Y-124132974D01*
X131909832Y-124119090D01*
X131892562Y-124103438D01*
X131876910Y-124086168D01*
X131863026Y-124067448D01*
X131851044Y-124047457D01*
X131841079Y-124026387D01*
X131833227Y-124004443D01*
X131827563Y-123981834D01*
X131824144Y-123958779D01*
X131823000Y-123935500D01*
X131823000Y-123460500D01*
X131824144Y-123437221D01*
X131827563Y-123414166D01*
X131833227Y-123391557D01*
X131841079Y-123369613D01*
X131851044Y-123348543D01*
X131863026Y-123328552D01*
X131876910Y-123309832D01*
X131892562Y-123292562D01*
X131909832Y-123276910D01*
X131928552Y-123263026D01*
X131948543Y-123251044D01*
X131969613Y-123241079D01*
X131991557Y-123233227D01*
X132014166Y-123227563D01*
X132037221Y-123224144D01*
X132060500Y-123223000D01*
X132635500Y-123223000D01*
X132658779Y-123224144D01*
X132658779Y-123224144D01*
G37*
D11*
X132348000Y-123698000D03*
D10*
G36*
X145203779Y-123351144D02*
G01*
X145226834Y-123354563D01*
X145249443Y-123360227D01*
X145271387Y-123368079D01*
X145292457Y-123378044D01*
X145312448Y-123390026D01*
X145331168Y-123403910D01*
X145348438Y-123419562D01*
X145364090Y-123436832D01*
X145377974Y-123455552D01*
X145389956Y-123475543D01*
X145399921Y-123496613D01*
X145407773Y-123518557D01*
X145413437Y-123541166D01*
X145416856Y-123564221D01*
X145418000Y-123587500D01*
X145418000Y-124062500D01*
X145416856Y-124085779D01*
X145413437Y-124108834D01*
X145407773Y-124131443D01*
X145399921Y-124153387D01*
X145389956Y-124174457D01*
X145377974Y-124194448D01*
X145364090Y-124213168D01*
X145348438Y-124230438D01*
X145331168Y-124246090D01*
X145312448Y-124259974D01*
X145292457Y-124271956D01*
X145271387Y-124281921D01*
X145249443Y-124289773D01*
X145226834Y-124295437D01*
X145203779Y-124298856D01*
X145180500Y-124300000D01*
X144605500Y-124300000D01*
X144582221Y-124298856D01*
X144559166Y-124295437D01*
X144536557Y-124289773D01*
X144514613Y-124281921D01*
X144493543Y-124271956D01*
X144473552Y-124259974D01*
X144454832Y-124246090D01*
X144437562Y-124230438D01*
X144421910Y-124213168D01*
X144408026Y-124194448D01*
X144396044Y-124174457D01*
X144386079Y-124153387D01*
X144378227Y-124131443D01*
X144372563Y-124108834D01*
X144369144Y-124085779D01*
X144368000Y-124062500D01*
X144368000Y-123587500D01*
X144369144Y-123564221D01*
X144372563Y-123541166D01*
X144378227Y-123518557D01*
X144386079Y-123496613D01*
X144396044Y-123475543D01*
X144408026Y-123455552D01*
X144421910Y-123436832D01*
X144437562Y-123419562D01*
X144454832Y-123403910D01*
X144473552Y-123390026D01*
X144493543Y-123378044D01*
X144514613Y-123368079D01*
X144536557Y-123360227D01*
X144559166Y-123354563D01*
X144582221Y-123351144D01*
X144605500Y-123350000D01*
X145180500Y-123350000D01*
X145203779Y-123351144D01*
X145203779Y-123351144D01*
G37*
D11*
X144893000Y-123825000D03*
D10*
G36*
X143453779Y-123351144D02*
G01*
X143476834Y-123354563D01*
X143499443Y-123360227D01*
X143521387Y-123368079D01*
X143542457Y-123378044D01*
X143562448Y-123390026D01*
X143581168Y-123403910D01*
X143598438Y-123419562D01*
X143614090Y-123436832D01*
X143627974Y-123455552D01*
X143639956Y-123475543D01*
X143649921Y-123496613D01*
X143657773Y-123518557D01*
X143663437Y-123541166D01*
X143666856Y-123564221D01*
X143668000Y-123587500D01*
X143668000Y-124062500D01*
X143666856Y-124085779D01*
X143663437Y-124108834D01*
X143657773Y-124131443D01*
X143649921Y-124153387D01*
X143639956Y-124174457D01*
X143627974Y-124194448D01*
X143614090Y-124213168D01*
X143598438Y-124230438D01*
X143581168Y-124246090D01*
X143562448Y-124259974D01*
X143542457Y-124271956D01*
X143521387Y-124281921D01*
X143499443Y-124289773D01*
X143476834Y-124295437D01*
X143453779Y-124298856D01*
X143430500Y-124300000D01*
X142855500Y-124300000D01*
X142832221Y-124298856D01*
X142809166Y-124295437D01*
X142786557Y-124289773D01*
X142764613Y-124281921D01*
X142743543Y-124271956D01*
X142723552Y-124259974D01*
X142704832Y-124246090D01*
X142687562Y-124230438D01*
X142671910Y-124213168D01*
X142658026Y-124194448D01*
X142646044Y-124174457D01*
X142636079Y-124153387D01*
X142628227Y-124131443D01*
X142622563Y-124108834D01*
X142619144Y-124085779D01*
X142618000Y-124062500D01*
X142618000Y-123587500D01*
X142619144Y-123564221D01*
X142622563Y-123541166D01*
X142628227Y-123518557D01*
X142636079Y-123496613D01*
X142646044Y-123475543D01*
X142658026Y-123455552D01*
X142671910Y-123436832D01*
X142687562Y-123419562D01*
X142704832Y-123403910D01*
X142723552Y-123390026D01*
X142743543Y-123378044D01*
X142764613Y-123368079D01*
X142786557Y-123360227D01*
X142809166Y-123354563D01*
X142832221Y-123351144D01*
X142855500Y-123350000D01*
X143430500Y-123350000D01*
X143453779Y-123351144D01*
X143453779Y-123351144D01*
G37*
D11*
X143143000Y-123825000D03*
M02*
