G04 #@! TF.GenerationSoftware,KiCad,Pcbnew,(5.1.0-0)*
G04 #@! TF.CreationDate,2019-11-12T00:37:01-08:00*
G04 #@! TF.ProjectId,ArduinoSerialCard,41726475-696e-46f5-9365-7269616c4361,rev?*
G04 #@! TF.SameCoordinates,Original*
G04 #@! TF.FileFunction,Copper,L2,Inr*
G04 #@! TF.FilePolarity,Positive*
%FSLAX46Y46*%
G04 Gerber Fmt 4.6, Leading zero omitted, Abs format (unit mm)*
G04 Created by KiCad (PCBNEW (5.1.0-0)) date 2019-11-12 00:37:01*
%MOMM*%
%LPD*%
G04 APERTURE LIST*
%ADD10O,1.600000X1.600000*%
%ADD11R,1.600000X1.600000*%
%ADD12C,1.600000*%
%ADD13O,1.700000X1.700000*%
%ADD14R,1.700000X1.700000*%
%ADD15C,0.254000*%
G04 APERTURE END LIST*
D10*
X139700000Y-64770000D03*
X139700000Y-80010000D03*
X104140000Y-64770000D03*
X137160000Y-80010000D03*
X106680000Y-64770000D03*
X134620000Y-80010000D03*
X109220000Y-64770000D03*
X132080000Y-80010000D03*
X111760000Y-64770000D03*
X129540000Y-80010000D03*
X114300000Y-64770000D03*
X127000000Y-80010000D03*
X116840000Y-64770000D03*
X124460000Y-80010000D03*
X119380000Y-64770000D03*
X121920000Y-80010000D03*
X121920000Y-64770000D03*
X119380000Y-80010000D03*
X124460000Y-64770000D03*
X116840000Y-80010000D03*
X127000000Y-64770000D03*
X114300000Y-80010000D03*
X129540000Y-64770000D03*
X111760000Y-80010000D03*
X132080000Y-64770000D03*
X109220000Y-80010000D03*
X134620000Y-64770000D03*
X106680000Y-80010000D03*
X137160000Y-64770000D03*
D11*
X104140000Y-80010000D03*
D10*
X83820000Y-86360000D03*
X142240000Y-101600000D03*
X86360000Y-86360000D03*
X139700000Y-101600000D03*
X88900000Y-86360000D03*
X137160000Y-101600000D03*
X91440000Y-86360000D03*
X134620000Y-101600000D03*
X93980000Y-86360000D03*
X132080000Y-101600000D03*
X96520000Y-86360000D03*
X129540000Y-101600000D03*
X99060000Y-86360000D03*
X127000000Y-101600000D03*
X101600000Y-86360000D03*
X124460000Y-101600000D03*
X104140000Y-86360000D03*
X121920000Y-101600000D03*
X106680000Y-86360000D03*
X119380000Y-101600000D03*
X109220000Y-86360000D03*
X116840000Y-101600000D03*
X111760000Y-86360000D03*
X114300000Y-101600000D03*
X114300000Y-86360000D03*
X111760000Y-101600000D03*
X116840000Y-86360000D03*
X109220000Y-101600000D03*
X119380000Y-86360000D03*
X106680000Y-101600000D03*
X121920000Y-86360000D03*
X104140000Y-101600000D03*
X124460000Y-86360000D03*
X101600000Y-101600000D03*
X127000000Y-86360000D03*
X99060000Y-101600000D03*
X129540000Y-86360000D03*
X96520000Y-101600000D03*
X132080000Y-86360000D03*
X93980000Y-101600000D03*
X134620000Y-86360000D03*
X91440000Y-101600000D03*
X137160000Y-86360000D03*
X88900000Y-101600000D03*
X139700000Y-86360000D03*
X86360000Y-101600000D03*
X142240000Y-86360000D03*
D11*
X83820000Y-101600000D03*
D12*
X77470000Y-96440000D03*
X77470000Y-91440000D03*
D13*
X93980000Y-109220000D03*
X93980000Y-111760000D03*
X96520000Y-109220000D03*
X96520000Y-111760000D03*
X99060000Y-109220000D03*
X99060000Y-111760000D03*
X101600000Y-109220000D03*
X101600000Y-111760000D03*
X104140000Y-109220000D03*
X104140000Y-111760000D03*
X106680000Y-109220000D03*
X106680000Y-111760000D03*
X109220000Y-109220000D03*
X109220000Y-111760000D03*
X111760000Y-109220000D03*
X111760000Y-111760000D03*
X114300000Y-109220000D03*
X114300000Y-111760000D03*
X116840000Y-109220000D03*
X116840000Y-111760000D03*
X119380000Y-109220000D03*
X119380000Y-111760000D03*
X121920000Y-109220000D03*
X121920000Y-111760000D03*
X124460000Y-109220000D03*
X124460000Y-111760000D03*
X127000000Y-109220000D03*
X127000000Y-111760000D03*
X129540000Y-109220000D03*
X129540000Y-111760000D03*
X132080000Y-109220000D03*
X132080000Y-111760000D03*
X134620000Y-109220000D03*
X134620000Y-111760000D03*
X137160000Y-109220000D03*
X137160000Y-111760000D03*
X139700000Y-109220000D03*
X139700000Y-111760000D03*
X142240000Y-109220000D03*
D14*
X142240000Y-111760000D03*
D15*
G36*
X147930000Y-112370000D02*
G01*
X143726765Y-112370000D01*
X143725000Y-112045750D01*
X143566250Y-111887000D01*
X142367000Y-111887000D01*
X142367000Y-111907000D01*
X142113000Y-111907000D01*
X142113000Y-111887000D01*
X142093000Y-111887000D01*
X142093000Y-111633000D01*
X142113000Y-111633000D01*
X142113000Y-111613000D01*
X142367000Y-111613000D01*
X142367000Y-111633000D01*
X143566250Y-111633000D01*
X143725000Y-111474250D01*
X143728072Y-110910000D01*
X143715812Y-110785518D01*
X143679502Y-110665820D01*
X143620537Y-110555506D01*
X143541185Y-110458815D01*
X143444494Y-110379463D01*
X143334180Y-110320498D01*
X143265313Y-110299607D01*
X143295134Y-110275134D01*
X143480706Y-110049014D01*
X143618599Y-109791034D01*
X143703513Y-109511111D01*
X143732185Y-109220000D01*
X143703513Y-108928889D01*
X143618599Y-108648966D01*
X143480706Y-108390986D01*
X143295134Y-108164866D01*
X143069014Y-107979294D01*
X142811034Y-107841401D01*
X142531111Y-107756487D01*
X142312950Y-107735000D01*
X142167050Y-107735000D01*
X141948889Y-107756487D01*
X141668966Y-107841401D01*
X141410986Y-107979294D01*
X141184866Y-108164866D01*
X140999294Y-108390986D01*
X140970000Y-108445791D01*
X140940706Y-108390986D01*
X140755134Y-108164866D01*
X140529014Y-107979294D01*
X140271034Y-107841401D01*
X139991111Y-107756487D01*
X139772950Y-107735000D01*
X139627050Y-107735000D01*
X139408889Y-107756487D01*
X139128966Y-107841401D01*
X138870986Y-107979294D01*
X138644866Y-108164866D01*
X138459294Y-108390986D01*
X138430000Y-108445791D01*
X138400706Y-108390986D01*
X138215134Y-108164866D01*
X137989014Y-107979294D01*
X137731034Y-107841401D01*
X137451111Y-107756487D01*
X137232950Y-107735000D01*
X137087050Y-107735000D01*
X136868889Y-107756487D01*
X136588966Y-107841401D01*
X136330986Y-107979294D01*
X136104866Y-108164866D01*
X135919294Y-108390986D01*
X135890000Y-108445791D01*
X135860706Y-108390986D01*
X135675134Y-108164866D01*
X135449014Y-107979294D01*
X135191034Y-107841401D01*
X134911111Y-107756487D01*
X134692950Y-107735000D01*
X134547050Y-107735000D01*
X134328889Y-107756487D01*
X134048966Y-107841401D01*
X133790986Y-107979294D01*
X133564866Y-108164866D01*
X133379294Y-108390986D01*
X133350000Y-108445791D01*
X133320706Y-108390986D01*
X133135134Y-108164866D01*
X132909014Y-107979294D01*
X132651034Y-107841401D01*
X132371111Y-107756487D01*
X132152950Y-107735000D01*
X132007050Y-107735000D01*
X131788889Y-107756487D01*
X131508966Y-107841401D01*
X131250986Y-107979294D01*
X131024866Y-108164866D01*
X130839294Y-108390986D01*
X130810000Y-108445791D01*
X130780706Y-108390986D01*
X130595134Y-108164866D01*
X130369014Y-107979294D01*
X130111034Y-107841401D01*
X129831111Y-107756487D01*
X129612950Y-107735000D01*
X129467050Y-107735000D01*
X129248889Y-107756487D01*
X128968966Y-107841401D01*
X128710986Y-107979294D01*
X128484866Y-108164866D01*
X128299294Y-108390986D01*
X128270000Y-108445791D01*
X128240706Y-108390986D01*
X128055134Y-108164866D01*
X127829014Y-107979294D01*
X127571034Y-107841401D01*
X127291111Y-107756487D01*
X127072950Y-107735000D01*
X126927050Y-107735000D01*
X126708889Y-107756487D01*
X126428966Y-107841401D01*
X126170986Y-107979294D01*
X125944866Y-108164866D01*
X125759294Y-108390986D01*
X125730000Y-108445791D01*
X125700706Y-108390986D01*
X125515134Y-108164866D01*
X125289014Y-107979294D01*
X125031034Y-107841401D01*
X124751111Y-107756487D01*
X124532950Y-107735000D01*
X124387050Y-107735000D01*
X124168889Y-107756487D01*
X123888966Y-107841401D01*
X123630986Y-107979294D01*
X123404866Y-108164866D01*
X123219294Y-108390986D01*
X123190000Y-108445791D01*
X123160706Y-108390986D01*
X122975134Y-108164866D01*
X122749014Y-107979294D01*
X122491034Y-107841401D01*
X122211111Y-107756487D01*
X121992950Y-107735000D01*
X121847050Y-107735000D01*
X121628889Y-107756487D01*
X121348966Y-107841401D01*
X121090986Y-107979294D01*
X120864866Y-108164866D01*
X120679294Y-108390986D01*
X120650000Y-108445791D01*
X120620706Y-108390986D01*
X120435134Y-108164866D01*
X120209014Y-107979294D01*
X119951034Y-107841401D01*
X119671111Y-107756487D01*
X119452950Y-107735000D01*
X119307050Y-107735000D01*
X119088889Y-107756487D01*
X118808966Y-107841401D01*
X118550986Y-107979294D01*
X118324866Y-108164866D01*
X118139294Y-108390986D01*
X118110000Y-108445791D01*
X118080706Y-108390986D01*
X117895134Y-108164866D01*
X117669014Y-107979294D01*
X117411034Y-107841401D01*
X117131111Y-107756487D01*
X116912950Y-107735000D01*
X116767050Y-107735000D01*
X116548889Y-107756487D01*
X116268966Y-107841401D01*
X116010986Y-107979294D01*
X115784866Y-108164866D01*
X115599294Y-108390986D01*
X115570000Y-108445791D01*
X115540706Y-108390986D01*
X115355134Y-108164866D01*
X115129014Y-107979294D01*
X114871034Y-107841401D01*
X114591111Y-107756487D01*
X114372950Y-107735000D01*
X114227050Y-107735000D01*
X114008889Y-107756487D01*
X113728966Y-107841401D01*
X113470986Y-107979294D01*
X113244866Y-108164866D01*
X113059294Y-108390986D01*
X113030000Y-108445791D01*
X113000706Y-108390986D01*
X112815134Y-108164866D01*
X112589014Y-107979294D01*
X112331034Y-107841401D01*
X112051111Y-107756487D01*
X111832950Y-107735000D01*
X111687050Y-107735000D01*
X111468889Y-107756487D01*
X111188966Y-107841401D01*
X110930986Y-107979294D01*
X110704866Y-108164866D01*
X110519294Y-108390986D01*
X110490000Y-108445791D01*
X110460706Y-108390986D01*
X110275134Y-108164866D01*
X110049014Y-107979294D01*
X109791034Y-107841401D01*
X109511111Y-107756487D01*
X109292950Y-107735000D01*
X109147050Y-107735000D01*
X108928889Y-107756487D01*
X108648966Y-107841401D01*
X108390986Y-107979294D01*
X108164866Y-108164866D01*
X107979294Y-108390986D01*
X107950000Y-108445791D01*
X107920706Y-108390986D01*
X107735134Y-108164866D01*
X107509014Y-107979294D01*
X107251034Y-107841401D01*
X106971111Y-107756487D01*
X106752950Y-107735000D01*
X106607050Y-107735000D01*
X106388889Y-107756487D01*
X106108966Y-107841401D01*
X105850986Y-107979294D01*
X105624866Y-108164866D01*
X105439294Y-108390986D01*
X105404799Y-108455523D01*
X105335178Y-108338645D01*
X105140269Y-108122412D01*
X104906920Y-107948359D01*
X104644099Y-107823175D01*
X104496890Y-107778524D01*
X104267000Y-107899845D01*
X104267000Y-109093000D01*
X104287000Y-109093000D01*
X104287000Y-109347000D01*
X104267000Y-109347000D01*
X104267000Y-111633000D01*
X104287000Y-111633000D01*
X104287000Y-111887000D01*
X104267000Y-111887000D01*
X104267000Y-111907000D01*
X104013000Y-111907000D01*
X104013000Y-111887000D01*
X101727000Y-111887000D01*
X101727000Y-111907000D01*
X101473000Y-111907000D01*
X101473000Y-111887000D01*
X99187000Y-111887000D01*
X99187000Y-111907000D01*
X98933000Y-111907000D01*
X98933000Y-111887000D01*
X96647000Y-111887000D01*
X96647000Y-111907000D01*
X96393000Y-111907000D01*
X96393000Y-111887000D01*
X94107000Y-111887000D01*
X94107000Y-111907000D01*
X93853000Y-111907000D01*
X93853000Y-111887000D01*
X92659186Y-111887000D01*
X92538519Y-112116891D01*
X92628304Y-112370000D01*
X74320000Y-112370000D01*
X74320000Y-109576891D01*
X92538519Y-109576891D01*
X92635843Y-109851252D01*
X92784822Y-110101355D01*
X92979731Y-110317588D01*
X93210880Y-110490000D01*
X92979731Y-110662412D01*
X92784822Y-110878645D01*
X92635843Y-111128748D01*
X92538519Y-111403109D01*
X92659186Y-111633000D01*
X93853000Y-111633000D01*
X93853000Y-109347000D01*
X94107000Y-109347000D01*
X94107000Y-111633000D01*
X96393000Y-111633000D01*
X96393000Y-109347000D01*
X96647000Y-109347000D01*
X96647000Y-111633000D01*
X98933000Y-111633000D01*
X98933000Y-109347000D01*
X99187000Y-109347000D01*
X99187000Y-111633000D01*
X101473000Y-111633000D01*
X101473000Y-109347000D01*
X101727000Y-109347000D01*
X101727000Y-111633000D01*
X104013000Y-111633000D01*
X104013000Y-109347000D01*
X101727000Y-109347000D01*
X101473000Y-109347000D01*
X99187000Y-109347000D01*
X98933000Y-109347000D01*
X96647000Y-109347000D01*
X96393000Y-109347000D01*
X94107000Y-109347000D01*
X93853000Y-109347000D01*
X92659186Y-109347000D01*
X92538519Y-109576891D01*
X74320000Y-109576891D01*
X74320000Y-108863109D01*
X92538519Y-108863109D01*
X92659186Y-109093000D01*
X93853000Y-109093000D01*
X93853000Y-107899845D01*
X94107000Y-107899845D01*
X94107000Y-109093000D01*
X96393000Y-109093000D01*
X96393000Y-107899845D01*
X96647000Y-107899845D01*
X96647000Y-109093000D01*
X98933000Y-109093000D01*
X98933000Y-107899845D01*
X99187000Y-107899845D01*
X99187000Y-109093000D01*
X101473000Y-109093000D01*
X101473000Y-107899845D01*
X101727000Y-107899845D01*
X101727000Y-109093000D01*
X104013000Y-109093000D01*
X104013000Y-107899845D01*
X103783110Y-107778524D01*
X103635901Y-107823175D01*
X103373080Y-107948359D01*
X103139731Y-108122412D01*
X102944822Y-108338645D01*
X102870000Y-108464255D01*
X102795178Y-108338645D01*
X102600269Y-108122412D01*
X102366920Y-107948359D01*
X102104099Y-107823175D01*
X101956890Y-107778524D01*
X101727000Y-107899845D01*
X101473000Y-107899845D01*
X101243110Y-107778524D01*
X101095901Y-107823175D01*
X100833080Y-107948359D01*
X100599731Y-108122412D01*
X100404822Y-108338645D01*
X100330000Y-108464255D01*
X100255178Y-108338645D01*
X100060269Y-108122412D01*
X99826920Y-107948359D01*
X99564099Y-107823175D01*
X99416890Y-107778524D01*
X99187000Y-107899845D01*
X98933000Y-107899845D01*
X98703110Y-107778524D01*
X98555901Y-107823175D01*
X98293080Y-107948359D01*
X98059731Y-108122412D01*
X97864822Y-108338645D01*
X97790000Y-108464255D01*
X97715178Y-108338645D01*
X97520269Y-108122412D01*
X97286920Y-107948359D01*
X97024099Y-107823175D01*
X96876890Y-107778524D01*
X96647000Y-107899845D01*
X96393000Y-107899845D01*
X96163110Y-107778524D01*
X96015901Y-107823175D01*
X95753080Y-107948359D01*
X95519731Y-108122412D01*
X95324822Y-108338645D01*
X95250000Y-108464255D01*
X95175178Y-108338645D01*
X94980269Y-108122412D01*
X94746920Y-107948359D01*
X94484099Y-107823175D01*
X94336890Y-107778524D01*
X94107000Y-107899845D01*
X93853000Y-107899845D01*
X93623110Y-107778524D01*
X93475901Y-107823175D01*
X93213080Y-107948359D01*
X92979731Y-108122412D01*
X92784822Y-108338645D01*
X92635843Y-108588748D01*
X92538519Y-108863109D01*
X74320000Y-108863109D01*
X74320000Y-102400000D01*
X82381928Y-102400000D01*
X82394188Y-102524482D01*
X82430498Y-102644180D01*
X82489463Y-102754494D01*
X82568815Y-102851185D01*
X82665506Y-102930537D01*
X82775820Y-102989502D01*
X82895518Y-103025812D01*
X83020000Y-103038072D01*
X83534250Y-103035000D01*
X83693000Y-102876250D01*
X83693000Y-101727000D01*
X82543750Y-101727000D01*
X82385000Y-101885750D01*
X82381928Y-102400000D01*
X74320000Y-102400000D01*
X74320000Y-100800000D01*
X82381928Y-100800000D01*
X82385000Y-101314250D01*
X82543750Y-101473000D01*
X83693000Y-101473000D01*
X83693000Y-100323750D01*
X83947000Y-100323750D01*
X83947000Y-101473000D01*
X83967000Y-101473000D01*
X83967000Y-101727000D01*
X83947000Y-101727000D01*
X83947000Y-102876250D01*
X84105750Y-103035000D01*
X84620000Y-103038072D01*
X84744482Y-103025812D01*
X84864180Y-102989502D01*
X84974494Y-102930537D01*
X85071185Y-102851185D01*
X85150537Y-102754494D01*
X85209502Y-102644180D01*
X85245812Y-102524482D01*
X85247581Y-102506518D01*
X85340392Y-102619608D01*
X85558899Y-102798932D01*
X85808192Y-102932182D01*
X86078691Y-103014236D01*
X86289508Y-103035000D01*
X86430492Y-103035000D01*
X86641309Y-103014236D01*
X86911808Y-102932182D01*
X87161101Y-102798932D01*
X87379608Y-102619608D01*
X87558932Y-102401101D01*
X87632579Y-102263318D01*
X87747615Y-102455131D01*
X87936586Y-102663519D01*
X88162580Y-102831037D01*
X88416913Y-102951246D01*
X88550961Y-102991904D01*
X88773000Y-102869915D01*
X88773000Y-101727000D01*
X89027000Y-101727000D01*
X89027000Y-102869915D01*
X89249039Y-102991904D01*
X89383087Y-102951246D01*
X89637420Y-102831037D01*
X89863414Y-102663519D01*
X90052385Y-102455131D01*
X90170000Y-102259018D01*
X90287615Y-102455131D01*
X90476586Y-102663519D01*
X90702580Y-102831037D01*
X90956913Y-102951246D01*
X91090961Y-102991904D01*
X91313000Y-102869915D01*
X91313000Y-101727000D01*
X89027000Y-101727000D01*
X88773000Y-101727000D01*
X88753000Y-101727000D01*
X88753000Y-101473000D01*
X88773000Y-101473000D01*
X88773000Y-100330085D01*
X89027000Y-100330085D01*
X89027000Y-101473000D01*
X91313000Y-101473000D01*
X91313000Y-100330085D01*
X91567000Y-100330085D01*
X91567000Y-101473000D01*
X91587000Y-101473000D01*
X91587000Y-101727000D01*
X91567000Y-101727000D01*
X91567000Y-102869915D01*
X91789039Y-102991904D01*
X91923087Y-102951246D01*
X92177420Y-102831037D01*
X92403414Y-102663519D01*
X92592385Y-102455131D01*
X92707421Y-102263318D01*
X92781068Y-102401101D01*
X92960392Y-102619608D01*
X93178899Y-102798932D01*
X93428192Y-102932182D01*
X93698691Y-103014236D01*
X93909508Y-103035000D01*
X94050492Y-103035000D01*
X94261309Y-103014236D01*
X94531808Y-102932182D01*
X94781101Y-102798932D01*
X94999608Y-102619608D01*
X95178932Y-102401101D01*
X95250000Y-102268142D01*
X95321068Y-102401101D01*
X95500392Y-102619608D01*
X95718899Y-102798932D01*
X95968192Y-102932182D01*
X96238691Y-103014236D01*
X96449508Y-103035000D01*
X96590492Y-103035000D01*
X96801309Y-103014236D01*
X97071808Y-102932182D01*
X97321101Y-102798932D01*
X97539608Y-102619608D01*
X97718932Y-102401101D01*
X97790000Y-102268142D01*
X97861068Y-102401101D01*
X98040392Y-102619608D01*
X98258899Y-102798932D01*
X98508192Y-102932182D01*
X98778691Y-103014236D01*
X98989508Y-103035000D01*
X99130492Y-103035000D01*
X99341309Y-103014236D01*
X99611808Y-102932182D01*
X99861101Y-102798932D01*
X100079608Y-102619608D01*
X100258932Y-102401101D01*
X100330000Y-102268142D01*
X100401068Y-102401101D01*
X100580392Y-102619608D01*
X100798899Y-102798932D01*
X101048192Y-102932182D01*
X101318691Y-103014236D01*
X101529508Y-103035000D01*
X101670492Y-103035000D01*
X101881309Y-103014236D01*
X102151808Y-102932182D01*
X102401101Y-102798932D01*
X102619608Y-102619608D01*
X102798932Y-102401101D01*
X102870000Y-102268142D01*
X102941068Y-102401101D01*
X103120392Y-102619608D01*
X103338899Y-102798932D01*
X103588192Y-102932182D01*
X103858691Y-103014236D01*
X104069508Y-103035000D01*
X104210492Y-103035000D01*
X104421309Y-103014236D01*
X104691808Y-102932182D01*
X104941101Y-102798932D01*
X105159608Y-102619608D01*
X105338932Y-102401101D01*
X105410000Y-102268142D01*
X105481068Y-102401101D01*
X105660392Y-102619608D01*
X105878899Y-102798932D01*
X106128192Y-102932182D01*
X106398691Y-103014236D01*
X106609508Y-103035000D01*
X106750492Y-103035000D01*
X106961309Y-103014236D01*
X107231808Y-102932182D01*
X107481101Y-102798932D01*
X107699608Y-102619608D01*
X107878932Y-102401101D01*
X107950000Y-102268142D01*
X108021068Y-102401101D01*
X108200392Y-102619608D01*
X108418899Y-102798932D01*
X108668192Y-102932182D01*
X108938691Y-103014236D01*
X109149508Y-103035000D01*
X109290492Y-103035000D01*
X109501309Y-103014236D01*
X109771808Y-102932182D01*
X110021101Y-102798932D01*
X110239608Y-102619608D01*
X110418932Y-102401101D01*
X110490000Y-102268142D01*
X110561068Y-102401101D01*
X110740392Y-102619608D01*
X110958899Y-102798932D01*
X111208192Y-102932182D01*
X111478691Y-103014236D01*
X111689508Y-103035000D01*
X111830492Y-103035000D01*
X112041309Y-103014236D01*
X112311808Y-102932182D01*
X112561101Y-102798932D01*
X112779608Y-102619608D01*
X112958932Y-102401101D01*
X113030000Y-102268142D01*
X113101068Y-102401101D01*
X113280392Y-102619608D01*
X113498899Y-102798932D01*
X113748192Y-102932182D01*
X114018691Y-103014236D01*
X114229508Y-103035000D01*
X114370492Y-103035000D01*
X114581309Y-103014236D01*
X114851808Y-102932182D01*
X115101101Y-102798932D01*
X115319608Y-102619608D01*
X115498932Y-102401101D01*
X115570000Y-102268142D01*
X115641068Y-102401101D01*
X115820392Y-102619608D01*
X116038899Y-102798932D01*
X116288192Y-102932182D01*
X116558691Y-103014236D01*
X116769508Y-103035000D01*
X116910492Y-103035000D01*
X117121309Y-103014236D01*
X117391808Y-102932182D01*
X117641101Y-102798932D01*
X117859608Y-102619608D01*
X118038932Y-102401101D01*
X118110000Y-102268142D01*
X118181068Y-102401101D01*
X118360392Y-102619608D01*
X118578899Y-102798932D01*
X118828192Y-102932182D01*
X119098691Y-103014236D01*
X119309508Y-103035000D01*
X119450492Y-103035000D01*
X119661309Y-103014236D01*
X119931808Y-102932182D01*
X120181101Y-102798932D01*
X120399608Y-102619608D01*
X120578932Y-102401101D01*
X120650000Y-102268142D01*
X120721068Y-102401101D01*
X120900392Y-102619608D01*
X121118899Y-102798932D01*
X121368192Y-102932182D01*
X121638691Y-103014236D01*
X121849508Y-103035000D01*
X121990492Y-103035000D01*
X122201309Y-103014236D01*
X122471808Y-102932182D01*
X122721101Y-102798932D01*
X122939608Y-102619608D01*
X123118932Y-102401101D01*
X123190000Y-102268142D01*
X123261068Y-102401101D01*
X123440392Y-102619608D01*
X123658899Y-102798932D01*
X123908192Y-102932182D01*
X124178691Y-103014236D01*
X124389508Y-103035000D01*
X124530492Y-103035000D01*
X124741309Y-103014236D01*
X125011808Y-102932182D01*
X125261101Y-102798932D01*
X125479608Y-102619608D01*
X125658932Y-102401101D01*
X125730000Y-102268142D01*
X125801068Y-102401101D01*
X125980392Y-102619608D01*
X126198899Y-102798932D01*
X126448192Y-102932182D01*
X126718691Y-103014236D01*
X126929508Y-103035000D01*
X127070492Y-103035000D01*
X127281309Y-103014236D01*
X127551808Y-102932182D01*
X127801101Y-102798932D01*
X128019608Y-102619608D01*
X128198932Y-102401101D01*
X128270000Y-102268142D01*
X128341068Y-102401101D01*
X128520392Y-102619608D01*
X128738899Y-102798932D01*
X128988192Y-102932182D01*
X129258691Y-103014236D01*
X129469508Y-103035000D01*
X129610492Y-103035000D01*
X129821309Y-103014236D01*
X130091808Y-102932182D01*
X130341101Y-102798932D01*
X130559608Y-102619608D01*
X130738932Y-102401101D01*
X130810000Y-102268142D01*
X130881068Y-102401101D01*
X131060392Y-102619608D01*
X131278899Y-102798932D01*
X131528192Y-102932182D01*
X131798691Y-103014236D01*
X132009508Y-103035000D01*
X132150492Y-103035000D01*
X132361309Y-103014236D01*
X132631808Y-102932182D01*
X132881101Y-102798932D01*
X133099608Y-102619608D01*
X133278932Y-102401101D01*
X133350000Y-102268142D01*
X133421068Y-102401101D01*
X133600392Y-102619608D01*
X133818899Y-102798932D01*
X134068192Y-102932182D01*
X134338691Y-103014236D01*
X134549508Y-103035000D01*
X134690492Y-103035000D01*
X134901309Y-103014236D01*
X135171808Y-102932182D01*
X135421101Y-102798932D01*
X135639608Y-102619608D01*
X135818932Y-102401101D01*
X135890000Y-102268142D01*
X135961068Y-102401101D01*
X136140392Y-102619608D01*
X136358899Y-102798932D01*
X136608192Y-102932182D01*
X136878691Y-103014236D01*
X137089508Y-103035000D01*
X137230492Y-103035000D01*
X137441309Y-103014236D01*
X137711808Y-102932182D01*
X137961101Y-102798932D01*
X138179608Y-102619608D01*
X138358932Y-102401101D01*
X138430000Y-102268142D01*
X138501068Y-102401101D01*
X138680392Y-102619608D01*
X138898899Y-102798932D01*
X139148192Y-102932182D01*
X139418691Y-103014236D01*
X139629508Y-103035000D01*
X139770492Y-103035000D01*
X139981309Y-103014236D01*
X140251808Y-102932182D01*
X140501101Y-102798932D01*
X140719608Y-102619608D01*
X140898932Y-102401101D01*
X140972579Y-102263318D01*
X141087615Y-102455131D01*
X141276586Y-102663519D01*
X141502580Y-102831037D01*
X141756913Y-102951246D01*
X141890961Y-102991904D01*
X142113000Y-102869915D01*
X142113000Y-101727000D01*
X142367000Y-101727000D01*
X142367000Y-102869915D01*
X142589039Y-102991904D01*
X142723087Y-102951246D01*
X142977420Y-102831037D01*
X143203414Y-102663519D01*
X143392385Y-102455131D01*
X143537070Y-102213881D01*
X143631909Y-101949040D01*
X143510624Y-101727000D01*
X142367000Y-101727000D01*
X142113000Y-101727000D01*
X142093000Y-101727000D01*
X142093000Y-101473000D01*
X142113000Y-101473000D01*
X142113000Y-100330085D01*
X142367000Y-100330085D01*
X142367000Y-101473000D01*
X143510624Y-101473000D01*
X143631909Y-101250960D01*
X143537070Y-100986119D01*
X143392385Y-100744869D01*
X143203414Y-100536481D01*
X142977420Y-100368963D01*
X142723087Y-100248754D01*
X142589039Y-100208096D01*
X142367000Y-100330085D01*
X142113000Y-100330085D01*
X141890961Y-100208096D01*
X141756913Y-100248754D01*
X141502580Y-100368963D01*
X141276586Y-100536481D01*
X141087615Y-100744869D01*
X140972579Y-100936682D01*
X140898932Y-100798899D01*
X140719608Y-100580392D01*
X140501101Y-100401068D01*
X140251808Y-100267818D01*
X139981309Y-100185764D01*
X139770492Y-100165000D01*
X139629508Y-100165000D01*
X139418691Y-100185764D01*
X139148192Y-100267818D01*
X138898899Y-100401068D01*
X138680392Y-100580392D01*
X138501068Y-100798899D01*
X138430000Y-100931858D01*
X138358932Y-100798899D01*
X138179608Y-100580392D01*
X137961101Y-100401068D01*
X137711808Y-100267818D01*
X137441309Y-100185764D01*
X137230492Y-100165000D01*
X137089508Y-100165000D01*
X136878691Y-100185764D01*
X136608192Y-100267818D01*
X136358899Y-100401068D01*
X136140392Y-100580392D01*
X135961068Y-100798899D01*
X135890000Y-100931858D01*
X135818932Y-100798899D01*
X135639608Y-100580392D01*
X135421101Y-100401068D01*
X135171808Y-100267818D01*
X134901309Y-100185764D01*
X134690492Y-100165000D01*
X134549508Y-100165000D01*
X134338691Y-100185764D01*
X134068192Y-100267818D01*
X133818899Y-100401068D01*
X133600392Y-100580392D01*
X133421068Y-100798899D01*
X133350000Y-100931858D01*
X133278932Y-100798899D01*
X133099608Y-100580392D01*
X132881101Y-100401068D01*
X132631808Y-100267818D01*
X132361309Y-100185764D01*
X132150492Y-100165000D01*
X132009508Y-100165000D01*
X131798691Y-100185764D01*
X131528192Y-100267818D01*
X131278899Y-100401068D01*
X131060392Y-100580392D01*
X130881068Y-100798899D01*
X130810000Y-100931858D01*
X130738932Y-100798899D01*
X130559608Y-100580392D01*
X130341101Y-100401068D01*
X130091808Y-100267818D01*
X129821309Y-100185764D01*
X129610492Y-100165000D01*
X129469508Y-100165000D01*
X129258691Y-100185764D01*
X128988192Y-100267818D01*
X128738899Y-100401068D01*
X128520392Y-100580392D01*
X128341068Y-100798899D01*
X128270000Y-100931858D01*
X128198932Y-100798899D01*
X128019608Y-100580392D01*
X127801101Y-100401068D01*
X127551808Y-100267818D01*
X127281309Y-100185764D01*
X127070492Y-100165000D01*
X126929508Y-100165000D01*
X126718691Y-100185764D01*
X126448192Y-100267818D01*
X126198899Y-100401068D01*
X125980392Y-100580392D01*
X125801068Y-100798899D01*
X125730000Y-100931858D01*
X125658932Y-100798899D01*
X125479608Y-100580392D01*
X125261101Y-100401068D01*
X125011808Y-100267818D01*
X124741309Y-100185764D01*
X124530492Y-100165000D01*
X124389508Y-100165000D01*
X124178691Y-100185764D01*
X123908192Y-100267818D01*
X123658899Y-100401068D01*
X123440392Y-100580392D01*
X123261068Y-100798899D01*
X123190000Y-100931858D01*
X123118932Y-100798899D01*
X122939608Y-100580392D01*
X122721101Y-100401068D01*
X122471808Y-100267818D01*
X122201309Y-100185764D01*
X121990492Y-100165000D01*
X121849508Y-100165000D01*
X121638691Y-100185764D01*
X121368192Y-100267818D01*
X121118899Y-100401068D01*
X120900392Y-100580392D01*
X120721068Y-100798899D01*
X120650000Y-100931858D01*
X120578932Y-100798899D01*
X120399608Y-100580392D01*
X120181101Y-100401068D01*
X119931808Y-100267818D01*
X119661309Y-100185764D01*
X119450492Y-100165000D01*
X119309508Y-100165000D01*
X119098691Y-100185764D01*
X118828192Y-100267818D01*
X118578899Y-100401068D01*
X118360392Y-100580392D01*
X118181068Y-100798899D01*
X118110000Y-100931858D01*
X118038932Y-100798899D01*
X117859608Y-100580392D01*
X117641101Y-100401068D01*
X117391808Y-100267818D01*
X117121309Y-100185764D01*
X116910492Y-100165000D01*
X116769508Y-100165000D01*
X116558691Y-100185764D01*
X116288192Y-100267818D01*
X116038899Y-100401068D01*
X115820392Y-100580392D01*
X115641068Y-100798899D01*
X115570000Y-100931858D01*
X115498932Y-100798899D01*
X115319608Y-100580392D01*
X115101101Y-100401068D01*
X114851808Y-100267818D01*
X114581309Y-100185764D01*
X114370492Y-100165000D01*
X114229508Y-100165000D01*
X114018691Y-100185764D01*
X113748192Y-100267818D01*
X113498899Y-100401068D01*
X113280392Y-100580392D01*
X113101068Y-100798899D01*
X113030000Y-100931858D01*
X112958932Y-100798899D01*
X112779608Y-100580392D01*
X112561101Y-100401068D01*
X112311808Y-100267818D01*
X112041309Y-100185764D01*
X111830492Y-100165000D01*
X111689508Y-100165000D01*
X111478691Y-100185764D01*
X111208192Y-100267818D01*
X110958899Y-100401068D01*
X110740392Y-100580392D01*
X110561068Y-100798899D01*
X110490000Y-100931858D01*
X110418932Y-100798899D01*
X110239608Y-100580392D01*
X110021101Y-100401068D01*
X109771808Y-100267818D01*
X109501309Y-100185764D01*
X109290492Y-100165000D01*
X109149508Y-100165000D01*
X108938691Y-100185764D01*
X108668192Y-100267818D01*
X108418899Y-100401068D01*
X108200392Y-100580392D01*
X108021068Y-100798899D01*
X107950000Y-100931858D01*
X107878932Y-100798899D01*
X107699608Y-100580392D01*
X107481101Y-100401068D01*
X107231808Y-100267818D01*
X106961309Y-100185764D01*
X106750492Y-100165000D01*
X106609508Y-100165000D01*
X106398691Y-100185764D01*
X106128192Y-100267818D01*
X105878899Y-100401068D01*
X105660392Y-100580392D01*
X105481068Y-100798899D01*
X105410000Y-100931858D01*
X105338932Y-100798899D01*
X105159608Y-100580392D01*
X104941101Y-100401068D01*
X104691808Y-100267818D01*
X104421309Y-100185764D01*
X104210492Y-100165000D01*
X104069508Y-100165000D01*
X103858691Y-100185764D01*
X103588192Y-100267818D01*
X103338899Y-100401068D01*
X103120392Y-100580392D01*
X102941068Y-100798899D01*
X102870000Y-100931858D01*
X102798932Y-100798899D01*
X102619608Y-100580392D01*
X102401101Y-100401068D01*
X102151808Y-100267818D01*
X101881309Y-100185764D01*
X101670492Y-100165000D01*
X101529508Y-100165000D01*
X101318691Y-100185764D01*
X101048192Y-100267818D01*
X100798899Y-100401068D01*
X100580392Y-100580392D01*
X100401068Y-100798899D01*
X100330000Y-100931858D01*
X100258932Y-100798899D01*
X100079608Y-100580392D01*
X99861101Y-100401068D01*
X99611808Y-100267818D01*
X99341309Y-100185764D01*
X99130492Y-100165000D01*
X98989508Y-100165000D01*
X98778691Y-100185764D01*
X98508192Y-100267818D01*
X98258899Y-100401068D01*
X98040392Y-100580392D01*
X97861068Y-100798899D01*
X97790000Y-100931858D01*
X97718932Y-100798899D01*
X97539608Y-100580392D01*
X97321101Y-100401068D01*
X97071808Y-100267818D01*
X96801309Y-100185764D01*
X96590492Y-100165000D01*
X96449508Y-100165000D01*
X96238691Y-100185764D01*
X95968192Y-100267818D01*
X95718899Y-100401068D01*
X95500392Y-100580392D01*
X95321068Y-100798899D01*
X95250000Y-100931858D01*
X95178932Y-100798899D01*
X94999608Y-100580392D01*
X94781101Y-100401068D01*
X94531808Y-100267818D01*
X94261309Y-100185764D01*
X94050492Y-100165000D01*
X93909508Y-100165000D01*
X93698691Y-100185764D01*
X93428192Y-100267818D01*
X93178899Y-100401068D01*
X92960392Y-100580392D01*
X92781068Y-100798899D01*
X92707421Y-100936682D01*
X92592385Y-100744869D01*
X92403414Y-100536481D01*
X92177420Y-100368963D01*
X91923087Y-100248754D01*
X91789039Y-100208096D01*
X91567000Y-100330085D01*
X91313000Y-100330085D01*
X91090961Y-100208096D01*
X90956913Y-100248754D01*
X90702580Y-100368963D01*
X90476586Y-100536481D01*
X90287615Y-100744869D01*
X90170000Y-100940982D01*
X90052385Y-100744869D01*
X89863414Y-100536481D01*
X89637420Y-100368963D01*
X89383087Y-100248754D01*
X89249039Y-100208096D01*
X89027000Y-100330085D01*
X88773000Y-100330085D01*
X88550961Y-100208096D01*
X88416913Y-100248754D01*
X88162580Y-100368963D01*
X87936586Y-100536481D01*
X87747615Y-100744869D01*
X87632579Y-100936682D01*
X87558932Y-100798899D01*
X87379608Y-100580392D01*
X87161101Y-100401068D01*
X86911808Y-100267818D01*
X86641309Y-100185764D01*
X86430492Y-100165000D01*
X86289508Y-100165000D01*
X86078691Y-100185764D01*
X85808192Y-100267818D01*
X85558899Y-100401068D01*
X85340392Y-100580392D01*
X85247581Y-100693482D01*
X85245812Y-100675518D01*
X85209502Y-100555820D01*
X85150537Y-100445506D01*
X85071185Y-100348815D01*
X84974494Y-100269463D01*
X84864180Y-100210498D01*
X84744482Y-100174188D01*
X84620000Y-100161928D01*
X84105750Y-100165000D01*
X83947000Y-100323750D01*
X83693000Y-100323750D01*
X83534250Y-100165000D01*
X83020000Y-100161928D01*
X82895518Y-100174188D01*
X82775820Y-100210498D01*
X82665506Y-100269463D01*
X82568815Y-100348815D01*
X82489463Y-100445506D01*
X82430498Y-100555820D01*
X82394188Y-100675518D01*
X82381928Y-100800000D01*
X74320000Y-100800000D01*
X74320000Y-97432702D01*
X76656903Y-97432702D01*
X76728486Y-97676671D01*
X76983996Y-97797571D01*
X77258184Y-97866300D01*
X77540512Y-97880217D01*
X77820130Y-97838787D01*
X78086292Y-97743603D01*
X78211514Y-97676671D01*
X78283097Y-97432702D01*
X77470000Y-96619605D01*
X76656903Y-97432702D01*
X74320000Y-97432702D01*
X74320000Y-96510512D01*
X76029783Y-96510512D01*
X76071213Y-96790130D01*
X76166397Y-97056292D01*
X76233329Y-97181514D01*
X76477298Y-97253097D01*
X77290395Y-96440000D01*
X77649605Y-96440000D01*
X78462702Y-97253097D01*
X78706671Y-97181514D01*
X78827571Y-96926004D01*
X78896300Y-96651816D01*
X78910217Y-96369488D01*
X78868787Y-96089870D01*
X78773603Y-95823708D01*
X78706671Y-95698486D01*
X78462702Y-95626903D01*
X77649605Y-96440000D01*
X77290395Y-96440000D01*
X76477298Y-95626903D01*
X76233329Y-95698486D01*
X76112429Y-95953996D01*
X76043700Y-96228184D01*
X76029783Y-96510512D01*
X74320000Y-96510512D01*
X74320000Y-95447298D01*
X76656903Y-95447298D01*
X77470000Y-96260395D01*
X78283097Y-95447298D01*
X78211514Y-95203329D01*
X77956004Y-95082429D01*
X77681816Y-95013700D01*
X77399488Y-94999783D01*
X77119870Y-95041213D01*
X76853708Y-95136397D01*
X76728486Y-95203329D01*
X76656903Y-95447298D01*
X74320000Y-95447298D01*
X74320000Y-91298665D01*
X76035000Y-91298665D01*
X76035000Y-91581335D01*
X76090147Y-91858574D01*
X76198320Y-92119727D01*
X76355363Y-92354759D01*
X76555241Y-92554637D01*
X76790273Y-92711680D01*
X77051426Y-92819853D01*
X77328665Y-92875000D01*
X77611335Y-92875000D01*
X77888574Y-92819853D01*
X78149727Y-92711680D01*
X78384759Y-92554637D01*
X78584637Y-92354759D01*
X78741680Y-92119727D01*
X78849853Y-91858574D01*
X78905000Y-91581335D01*
X78905000Y-91298665D01*
X78849853Y-91021426D01*
X78741680Y-90760273D01*
X78584637Y-90525241D01*
X78384759Y-90325363D01*
X78149727Y-90168320D01*
X77888574Y-90060147D01*
X77611335Y-90005000D01*
X77328665Y-90005000D01*
X77051426Y-90060147D01*
X76790273Y-90168320D01*
X76555241Y-90325363D01*
X76355363Y-90525241D01*
X76198320Y-90760273D01*
X76090147Y-91021426D01*
X76035000Y-91298665D01*
X74320000Y-91298665D01*
X74320000Y-86360000D01*
X82378057Y-86360000D01*
X82405764Y-86641309D01*
X82487818Y-86911808D01*
X82621068Y-87161101D01*
X82800392Y-87379608D01*
X83018899Y-87558932D01*
X83268192Y-87692182D01*
X83538691Y-87774236D01*
X83749508Y-87795000D01*
X83890492Y-87795000D01*
X84101309Y-87774236D01*
X84371808Y-87692182D01*
X84621101Y-87558932D01*
X84839608Y-87379608D01*
X85018932Y-87161101D01*
X85092579Y-87023318D01*
X85207615Y-87215131D01*
X85396586Y-87423519D01*
X85622580Y-87591037D01*
X85876913Y-87711246D01*
X86010961Y-87751904D01*
X86233000Y-87629915D01*
X86233000Y-86487000D01*
X86213000Y-86487000D01*
X86213000Y-86233000D01*
X86233000Y-86233000D01*
X86233000Y-85090085D01*
X86487000Y-85090085D01*
X86487000Y-86233000D01*
X86507000Y-86233000D01*
X86507000Y-86487000D01*
X86487000Y-86487000D01*
X86487000Y-87629915D01*
X86709039Y-87751904D01*
X86843087Y-87711246D01*
X87097420Y-87591037D01*
X87323414Y-87423519D01*
X87512385Y-87215131D01*
X87627421Y-87023318D01*
X87701068Y-87161101D01*
X87880392Y-87379608D01*
X88098899Y-87558932D01*
X88348192Y-87692182D01*
X88618691Y-87774236D01*
X88829508Y-87795000D01*
X88970492Y-87795000D01*
X89181309Y-87774236D01*
X89451808Y-87692182D01*
X89701101Y-87558932D01*
X89919608Y-87379608D01*
X90098932Y-87161101D01*
X90172579Y-87023318D01*
X90287615Y-87215131D01*
X90476586Y-87423519D01*
X90702580Y-87591037D01*
X90956913Y-87711246D01*
X91090961Y-87751904D01*
X91313000Y-87629915D01*
X91313000Y-86487000D01*
X91567000Y-86487000D01*
X91567000Y-87629915D01*
X91789039Y-87751904D01*
X91923087Y-87711246D01*
X92177420Y-87591037D01*
X92403414Y-87423519D01*
X92592385Y-87215131D01*
X92710000Y-87019018D01*
X92827615Y-87215131D01*
X93016586Y-87423519D01*
X93242580Y-87591037D01*
X93496913Y-87711246D01*
X93630961Y-87751904D01*
X93853000Y-87629915D01*
X93853000Y-86487000D01*
X91567000Y-86487000D01*
X91313000Y-86487000D01*
X91293000Y-86487000D01*
X91293000Y-86233000D01*
X91313000Y-86233000D01*
X91313000Y-85090085D01*
X91567000Y-85090085D01*
X91567000Y-86233000D01*
X93853000Y-86233000D01*
X93853000Y-85090085D01*
X94107000Y-85090085D01*
X94107000Y-86233000D01*
X94127000Y-86233000D01*
X94127000Y-86487000D01*
X94107000Y-86487000D01*
X94107000Y-87629915D01*
X94329039Y-87751904D01*
X94463087Y-87711246D01*
X94717420Y-87591037D01*
X94943414Y-87423519D01*
X95132385Y-87215131D01*
X95247421Y-87023318D01*
X95321068Y-87161101D01*
X95500392Y-87379608D01*
X95718899Y-87558932D01*
X95968192Y-87692182D01*
X96238691Y-87774236D01*
X96449508Y-87795000D01*
X96590492Y-87795000D01*
X96801309Y-87774236D01*
X97071808Y-87692182D01*
X97321101Y-87558932D01*
X97539608Y-87379608D01*
X97718932Y-87161101D01*
X97790000Y-87028142D01*
X97861068Y-87161101D01*
X98040392Y-87379608D01*
X98258899Y-87558932D01*
X98508192Y-87692182D01*
X98778691Y-87774236D01*
X98989508Y-87795000D01*
X99130492Y-87795000D01*
X99341309Y-87774236D01*
X99611808Y-87692182D01*
X99861101Y-87558932D01*
X100079608Y-87379608D01*
X100258932Y-87161101D01*
X100330000Y-87028142D01*
X100401068Y-87161101D01*
X100580392Y-87379608D01*
X100798899Y-87558932D01*
X101048192Y-87692182D01*
X101318691Y-87774236D01*
X101529508Y-87795000D01*
X101670492Y-87795000D01*
X101881309Y-87774236D01*
X102151808Y-87692182D01*
X102401101Y-87558932D01*
X102619608Y-87379608D01*
X102798932Y-87161101D01*
X102870000Y-87028142D01*
X102941068Y-87161101D01*
X103120392Y-87379608D01*
X103338899Y-87558932D01*
X103588192Y-87692182D01*
X103858691Y-87774236D01*
X104069508Y-87795000D01*
X104210492Y-87795000D01*
X104421309Y-87774236D01*
X104691808Y-87692182D01*
X104941101Y-87558932D01*
X105159608Y-87379608D01*
X105338932Y-87161101D01*
X105410000Y-87028142D01*
X105481068Y-87161101D01*
X105660392Y-87379608D01*
X105878899Y-87558932D01*
X106128192Y-87692182D01*
X106398691Y-87774236D01*
X106609508Y-87795000D01*
X106750492Y-87795000D01*
X106961309Y-87774236D01*
X107231808Y-87692182D01*
X107481101Y-87558932D01*
X107699608Y-87379608D01*
X107878932Y-87161101D01*
X107950000Y-87028142D01*
X108021068Y-87161101D01*
X108200392Y-87379608D01*
X108418899Y-87558932D01*
X108668192Y-87692182D01*
X108938691Y-87774236D01*
X109149508Y-87795000D01*
X109290492Y-87795000D01*
X109501309Y-87774236D01*
X109771808Y-87692182D01*
X110021101Y-87558932D01*
X110239608Y-87379608D01*
X110418932Y-87161101D01*
X110490000Y-87028142D01*
X110561068Y-87161101D01*
X110740392Y-87379608D01*
X110958899Y-87558932D01*
X111208192Y-87692182D01*
X111478691Y-87774236D01*
X111689508Y-87795000D01*
X111830492Y-87795000D01*
X112041309Y-87774236D01*
X112311808Y-87692182D01*
X112561101Y-87558932D01*
X112779608Y-87379608D01*
X112958932Y-87161101D01*
X113030000Y-87028142D01*
X113101068Y-87161101D01*
X113280392Y-87379608D01*
X113498899Y-87558932D01*
X113748192Y-87692182D01*
X114018691Y-87774236D01*
X114229508Y-87795000D01*
X114370492Y-87795000D01*
X114581309Y-87774236D01*
X114851808Y-87692182D01*
X115101101Y-87558932D01*
X115319608Y-87379608D01*
X115498932Y-87161101D01*
X115570000Y-87028142D01*
X115641068Y-87161101D01*
X115820392Y-87379608D01*
X116038899Y-87558932D01*
X116288192Y-87692182D01*
X116558691Y-87774236D01*
X116769508Y-87795000D01*
X116910492Y-87795000D01*
X117121309Y-87774236D01*
X117391808Y-87692182D01*
X117641101Y-87558932D01*
X117859608Y-87379608D01*
X118038932Y-87161101D01*
X118110000Y-87028142D01*
X118181068Y-87161101D01*
X118360392Y-87379608D01*
X118578899Y-87558932D01*
X118828192Y-87692182D01*
X119098691Y-87774236D01*
X119309508Y-87795000D01*
X119450492Y-87795000D01*
X119661309Y-87774236D01*
X119931808Y-87692182D01*
X120181101Y-87558932D01*
X120399608Y-87379608D01*
X120578932Y-87161101D01*
X120650000Y-87028142D01*
X120721068Y-87161101D01*
X120900392Y-87379608D01*
X121118899Y-87558932D01*
X121368192Y-87692182D01*
X121638691Y-87774236D01*
X121849508Y-87795000D01*
X121990492Y-87795000D01*
X122201309Y-87774236D01*
X122471808Y-87692182D01*
X122721101Y-87558932D01*
X122939608Y-87379608D01*
X123118932Y-87161101D01*
X123190000Y-87028142D01*
X123261068Y-87161101D01*
X123440392Y-87379608D01*
X123658899Y-87558932D01*
X123908192Y-87692182D01*
X124178691Y-87774236D01*
X124389508Y-87795000D01*
X124530492Y-87795000D01*
X124741309Y-87774236D01*
X125011808Y-87692182D01*
X125261101Y-87558932D01*
X125479608Y-87379608D01*
X125658932Y-87161101D01*
X125730000Y-87028142D01*
X125801068Y-87161101D01*
X125980392Y-87379608D01*
X126198899Y-87558932D01*
X126448192Y-87692182D01*
X126718691Y-87774236D01*
X126929508Y-87795000D01*
X127070492Y-87795000D01*
X127281309Y-87774236D01*
X127551808Y-87692182D01*
X127801101Y-87558932D01*
X128019608Y-87379608D01*
X128198932Y-87161101D01*
X128270000Y-87028142D01*
X128341068Y-87161101D01*
X128520392Y-87379608D01*
X128738899Y-87558932D01*
X128988192Y-87692182D01*
X129258691Y-87774236D01*
X129469508Y-87795000D01*
X129610492Y-87795000D01*
X129821309Y-87774236D01*
X130091808Y-87692182D01*
X130341101Y-87558932D01*
X130559608Y-87379608D01*
X130738932Y-87161101D01*
X130810000Y-87028142D01*
X130881068Y-87161101D01*
X131060392Y-87379608D01*
X131278899Y-87558932D01*
X131528192Y-87692182D01*
X131798691Y-87774236D01*
X132009508Y-87795000D01*
X132150492Y-87795000D01*
X132361309Y-87774236D01*
X132631808Y-87692182D01*
X132881101Y-87558932D01*
X133099608Y-87379608D01*
X133278932Y-87161101D01*
X133350000Y-87028142D01*
X133421068Y-87161101D01*
X133600392Y-87379608D01*
X133818899Y-87558932D01*
X134068192Y-87692182D01*
X134338691Y-87774236D01*
X134549508Y-87795000D01*
X134690492Y-87795000D01*
X134901309Y-87774236D01*
X135171808Y-87692182D01*
X135421101Y-87558932D01*
X135639608Y-87379608D01*
X135818932Y-87161101D01*
X135890000Y-87028142D01*
X135961068Y-87161101D01*
X136140392Y-87379608D01*
X136358899Y-87558932D01*
X136608192Y-87692182D01*
X136878691Y-87774236D01*
X137089508Y-87795000D01*
X137230492Y-87795000D01*
X137441309Y-87774236D01*
X137711808Y-87692182D01*
X137961101Y-87558932D01*
X138179608Y-87379608D01*
X138358932Y-87161101D01*
X138430000Y-87028142D01*
X138501068Y-87161101D01*
X138680392Y-87379608D01*
X138898899Y-87558932D01*
X139148192Y-87692182D01*
X139418691Y-87774236D01*
X139629508Y-87795000D01*
X139770492Y-87795000D01*
X139981309Y-87774236D01*
X140251808Y-87692182D01*
X140501101Y-87558932D01*
X140719608Y-87379608D01*
X140898932Y-87161101D01*
X140970000Y-87028142D01*
X141041068Y-87161101D01*
X141220392Y-87379608D01*
X141438899Y-87558932D01*
X141688192Y-87692182D01*
X141958691Y-87774236D01*
X142169508Y-87795000D01*
X142310492Y-87795000D01*
X142521309Y-87774236D01*
X142791808Y-87692182D01*
X143041101Y-87558932D01*
X143259608Y-87379608D01*
X143438932Y-87161101D01*
X143572182Y-86911808D01*
X143654236Y-86641309D01*
X143681943Y-86360000D01*
X143654236Y-86078691D01*
X143572182Y-85808192D01*
X143438932Y-85558899D01*
X143259608Y-85340392D01*
X143041101Y-85161068D01*
X142791808Y-85027818D01*
X142521309Y-84945764D01*
X142310492Y-84925000D01*
X142169508Y-84925000D01*
X141958691Y-84945764D01*
X141688192Y-85027818D01*
X141438899Y-85161068D01*
X141220392Y-85340392D01*
X141041068Y-85558899D01*
X140970000Y-85691858D01*
X140898932Y-85558899D01*
X140719608Y-85340392D01*
X140501101Y-85161068D01*
X140251808Y-85027818D01*
X139981309Y-84945764D01*
X139770492Y-84925000D01*
X139629508Y-84925000D01*
X139418691Y-84945764D01*
X139148192Y-85027818D01*
X138898899Y-85161068D01*
X138680392Y-85340392D01*
X138501068Y-85558899D01*
X138430000Y-85691858D01*
X138358932Y-85558899D01*
X138179608Y-85340392D01*
X137961101Y-85161068D01*
X137711808Y-85027818D01*
X137441309Y-84945764D01*
X137230492Y-84925000D01*
X137089508Y-84925000D01*
X136878691Y-84945764D01*
X136608192Y-85027818D01*
X136358899Y-85161068D01*
X136140392Y-85340392D01*
X135961068Y-85558899D01*
X135890000Y-85691858D01*
X135818932Y-85558899D01*
X135639608Y-85340392D01*
X135421101Y-85161068D01*
X135171808Y-85027818D01*
X134901309Y-84945764D01*
X134690492Y-84925000D01*
X134549508Y-84925000D01*
X134338691Y-84945764D01*
X134068192Y-85027818D01*
X133818899Y-85161068D01*
X133600392Y-85340392D01*
X133421068Y-85558899D01*
X133350000Y-85691858D01*
X133278932Y-85558899D01*
X133099608Y-85340392D01*
X132881101Y-85161068D01*
X132631808Y-85027818D01*
X132361309Y-84945764D01*
X132150492Y-84925000D01*
X132009508Y-84925000D01*
X131798691Y-84945764D01*
X131528192Y-85027818D01*
X131278899Y-85161068D01*
X131060392Y-85340392D01*
X130881068Y-85558899D01*
X130810000Y-85691858D01*
X130738932Y-85558899D01*
X130559608Y-85340392D01*
X130341101Y-85161068D01*
X130091808Y-85027818D01*
X129821309Y-84945764D01*
X129610492Y-84925000D01*
X129469508Y-84925000D01*
X129258691Y-84945764D01*
X128988192Y-85027818D01*
X128738899Y-85161068D01*
X128520392Y-85340392D01*
X128341068Y-85558899D01*
X128270000Y-85691858D01*
X128198932Y-85558899D01*
X128019608Y-85340392D01*
X127801101Y-85161068D01*
X127551808Y-85027818D01*
X127281309Y-84945764D01*
X127070492Y-84925000D01*
X126929508Y-84925000D01*
X126718691Y-84945764D01*
X126448192Y-85027818D01*
X126198899Y-85161068D01*
X125980392Y-85340392D01*
X125801068Y-85558899D01*
X125730000Y-85691858D01*
X125658932Y-85558899D01*
X125479608Y-85340392D01*
X125261101Y-85161068D01*
X125011808Y-85027818D01*
X124741309Y-84945764D01*
X124530492Y-84925000D01*
X124389508Y-84925000D01*
X124178691Y-84945764D01*
X123908192Y-85027818D01*
X123658899Y-85161068D01*
X123440392Y-85340392D01*
X123261068Y-85558899D01*
X123190000Y-85691858D01*
X123118932Y-85558899D01*
X122939608Y-85340392D01*
X122721101Y-85161068D01*
X122471808Y-85027818D01*
X122201309Y-84945764D01*
X121990492Y-84925000D01*
X121849508Y-84925000D01*
X121638691Y-84945764D01*
X121368192Y-85027818D01*
X121118899Y-85161068D01*
X120900392Y-85340392D01*
X120721068Y-85558899D01*
X120650000Y-85691858D01*
X120578932Y-85558899D01*
X120399608Y-85340392D01*
X120181101Y-85161068D01*
X119931808Y-85027818D01*
X119661309Y-84945764D01*
X119450492Y-84925000D01*
X119309508Y-84925000D01*
X119098691Y-84945764D01*
X118828192Y-85027818D01*
X118578899Y-85161068D01*
X118360392Y-85340392D01*
X118181068Y-85558899D01*
X118110000Y-85691858D01*
X118038932Y-85558899D01*
X117859608Y-85340392D01*
X117641101Y-85161068D01*
X117391808Y-85027818D01*
X117121309Y-84945764D01*
X116910492Y-84925000D01*
X116769508Y-84925000D01*
X116558691Y-84945764D01*
X116288192Y-85027818D01*
X116038899Y-85161068D01*
X115820392Y-85340392D01*
X115641068Y-85558899D01*
X115570000Y-85691858D01*
X115498932Y-85558899D01*
X115319608Y-85340392D01*
X115101101Y-85161068D01*
X114851808Y-85027818D01*
X114581309Y-84945764D01*
X114370492Y-84925000D01*
X114229508Y-84925000D01*
X114018691Y-84945764D01*
X113748192Y-85027818D01*
X113498899Y-85161068D01*
X113280392Y-85340392D01*
X113101068Y-85558899D01*
X113030000Y-85691858D01*
X112958932Y-85558899D01*
X112779608Y-85340392D01*
X112561101Y-85161068D01*
X112311808Y-85027818D01*
X112041309Y-84945764D01*
X111830492Y-84925000D01*
X111689508Y-84925000D01*
X111478691Y-84945764D01*
X111208192Y-85027818D01*
X110958899Y-85161068D01*
X110740392Y-85340392D01*
X110561068Y-85558899D01*
X110490000Y-85691858D01*
X110418932Y-85558899D01*
X110239608Y-85340392D01*
X110021101Y-85161068D01*
X109771808Y-85027818D01*
X109501309Y-84945764D01*
X109290492Y-84925000D01*
X109149508Y-84925000D01*
X108938691Y-84945764D01*
X108668192Y-85027818D01*
X108418899Y-85161068D01*
X108200392Y-85340392D01*
X108021068Y-85558899D01*
X107950000Y-85691858D01*
X107878932Y-85558899D01*
X107699608Y-85340392D01*
X107481101Y-85161068D01*
X107231808Y-85027818D01*
X106961309Y-84945764D01*
X106750492Y-84925000D01*
X106609508Y-84925000D01*
X106398691Y-84945764D01*
X106128192Y-85027818D01*
X105878899Y-85161068D01*
X105660392Y-85340392D01*
X105481068Y-85558899D01*
X105410000Y-85691858D01*
X105338932Y-85558899D01*
X105159608Y-85340392D01*
X104941101Y-85161068D01*
X104691808Y-85027818D01*
X104421309Y-84945764D01*
X104210492Y-84925000D01*
X104069508Y-84925000D01*
X103858691Y-84945764D01*
X103588192Y-85027818D01*
X103338899Y-85161068D01*
X103120392Y-85340392D01*
X102941068Y-85558899D01*
X102870000Y-85691858D01*
X102798932Y-85558899D01*
X102619608Y-85340392D01*
X102401101Y-85161068D01*
X102151808Y-85027818D01*
X101881309Y-84945764D01*
X101670492Y-84925000D01*
X101529508Y-84925000D01*
X101318691Y-84945764D01*
X101048192Y-85027818D01*
X100798899Y-85161068D01*
X100580392Y-85340392D01*
X100401068Y-85558899D01*
X100330000Y-85691858D01*
X100258932Y-85558899D01*
X100079608Y-85340392D01*
X99861101Y-85161068D01*
X99611808Y-85027818D01*
X99341309Y-84945764D01*
X99130492Y-84925000D01*
X98989508Y-84925000D01*
X98778691Y-84945764D01*
X98508192Y-85027818D01*
X98258899Y-85161068D01*
X98040392Y-85340392D01*
X97861068Y-85558899D01*
X97790000Y-85691858D01*
X97718932Y-85558899D01*
X97539608Y-85340392D01*
X97321101Y-85161068D01*
X97071808Y-85027818D01*
X96801309Y-84945764D01*
X96590492Y-84925000D01*
X96449508Y-84925000D01*
X96238691Y-84945764D01*
X95968192Y-85027818D01*
X95718899Y-85161068D01*
X95500392Y-85340392D01*
X95321068Y-85558899D01*
X95247421Y-85696682D01*
X95132385Y-85504869D01*
X94943414Y-85296481D01*
X94717420Y-85128963D01*
X94463087Y-85008754D01*
X94329039Y-84968096D01*
X94107000Y-85090085D01*
X93853000Y-85090085D01*
X93630961Y-84968096D01*
X93496913Y-85008754D01*
X93242580Y-85128963D01*
X93016586Y-85296481D01*
X92827615Y-85504869D01*
X92710000Y-85700982D01*
X92592385Y-85504869D01*
X92403414Y-85296481D01*
X92177420Y-85128963D01*
X91923087Y-85008754D01*
X91789039Y-84968096D01*
X91567000Y-85090085D01*
X91313000Y-85090085D01*
X91090961Y-84968096D01*
X90956913Y-85008754D01*
X90702580Y-85128963D01*
X90476586Y-85296481D01*
X90287615Y-85504869D01*
X90172579Y-85696682D01*
X90098932Y-85558899D01*
X89919608Y-85340392D01*
X89701101Y-85161068D01*
X89451808Y-85027818D01*
X89181309Y-84945764D01*
X88970492Y-84925000D01*
X88829508Y-84925000D01*
X88618691Y-84945764D01*
X88348192Y-85027818D01*
X88098899Y-85161068D01*
X87880392Y-85340392D01*
X87701068Y-85558899D01*
X87627421Y-85696682D01*
X87512385Y-85504869D01*
X87323414Y-85296481D01*
X87097420Y-85128963D01*
X86843087Y-85008754D01*
X86709039Y-84968096D01*
X86487000Y-85090085D01*
X86233000Y-85090085D01*
X86010961Y-84968096D01*
X85876913Y-85008754D01*
X85622580Y-85128963D01*
X85396586Y-85296481D01*
X85207615Y-85504869D01*
X85092579Y-85696682D01*
X85018932Y-85558899D01*
X84839608Y-85340392D01*
X84621101Y-85161068D01*
X84371808Y-85027818D01*
X84101309Y-84945764D01*
X83890492Y-84925000D01*
X83749508Y-84925000D01*
X83538691Y-84945764D01*
X83268192Y-85027818D01*
X83018899Y-85161068D01*
X82800392Y-85340392D01*
X82621068Y-85558899D01*
X82487818Y-85808192D01*
X82405764Y-86078691D01*
X82378057Y-86360000D01*
X74320000Y-86360000D01*
X74320000Y-79210000D01*
X102701928Y-79210000D01*
X102701928Y-80810000D01*
X102714188Y-80934482D01*
X102750498Y-81054180D01*
X102809463Y-81164494D01*
X102888815Y-81261185D01*
X102985506Y-81340537D01*
X103095820Y-81399502D01*
X103215518Y-81435812D01*
X103340000Y-81448072D01*
X104940000Y-81448072D01*
X105064482Y-81435812D01*
X105184180Y-81399502D01*
X105294494Y-81340537D01*
X105391185Y-81261185D01*
X105470537Y-81164494D01*
X105529502Y-81054180D01*
X105565812Y-80934482D01*
X105567581Y-80916518D01*
X105660392Y-81029608D01*
X105878899Y-81208932D01*
X106128192Y-81342182D01*
X106398691Y-81424236D01*
X106609508Y-81445000D01*
X106750492Y-81445000D01*
X106961309Y-81424236D01*
X107231808Y-81342182D01*
X107481101Y-81208932D01*
X107699608Y-81029608D01*
X107878932Y-80811101D01*
X107950000Y-80678142D01*
X108021068Y-80811101D01*
X108200392Y-81029608D01*
X108418899Y-81208932D01*
X108668192Y-81342182D01*
X108938691Y-81424236D01*
X109149508Y-81445000D01*
X109290492Y-81445000D01*
X109501309Y-81424236D01*
X109771808Y-81342182D01*
X110021101Y-81208932D01*
X110239608Y-81029608D01*
X110418932Y-80811101D01*
X110492579Y-80673318D01*
X110607615Y-80865131D01*
X110796586Y-81073519D01*
X111022580Y-81241037D01*
X111276913Y-81361246D01*
X111410961Y-81401904D01*
X111633000Y-81279915D01*
X111633000Y-80137000D01*
X111613000Y-80137000D01*
X111613000Y-79883000D01*
X111633000Y-79883000D01*
X111633000Y-78740085D01*
X111887000Y-78740085D01*
X111887000Y-79883000D01*
X111907000Y-79883000D01*
X111907000Y-80137000D01*
X111887000Y-80137000D01*
X111887000Y-81279915D01*
X112109039Y-81401904D01*
X112243087Y-81361246D01*
X112497420Y-81241037D01*
X112723414Y-81073519D01*
X112912385Y-80865131D01*
X113027421Y-80673318D01*
X113101068Y-80811101D01*
X113280392Y-81029608D01*
X113498899Y-81208932D01*
X113748192Y-81342182D01*
X114018691Y-81424236D01*
X114229508Y-81445000D01*
X114370492Y-81445000D01*
X114581309Y-81424236D01*
X114851808Y-81342182D01*
X115101101Y-81208932D01*
X115319608Y-81029608D01*
X115498932Y-80811101D01*
X115570000Y-80678142D01*
X115641068Y-80811101D01*
X115820392Y-81029608D01*
X116038899Y-81208932D01*
X116288192Y-81342182D01*
X116558691Y-81424236D01*
X116769508Y-81445000D01*
X116910492Y-81445000D01*
X117121309Y-81424236D01*
X117391808Y-81342182D01*
X117641101Y-81208932D01*
X117859608Y-81029608D01*
X118038932Y-80811101D01*
X118110000Y-80678142D01*
X118181068Y-80811101D01*
X118360392Y-81029608D01*
X118578899Y-81208932D01*
X118828192Y-81342182D01*
X119098691Y-81424236D01*
X119309508Y-81445000D01*
X119450492Y-81445000D01*
X119661309Y-81424236D01*
X119931808Y-81342182D01*
X120181101Y-81208932D01*
X120399608Y-81029608D01*
X120578932Y-80811101D01*
X120650000Y-80678142D01*
X120721068Y-80811101D01*
X120900392Y-81029608D01*
X121118899Y-81208932D01*
X121368192Y-81342182D01*
X121638691Y-81424236D01*
X121849508Y-81445000D01*
X121990492Y-81445000D01*
X122201309Y-81424236D01*
X122471808Y-81342182D01*
X122721101Y-81208932D01*
X122939608Y-81029608D01*
X123118932Y-80811101D01*
X123190000Y-80678142D01*
X123261068Y-80811101D01*
X123440392Y-81029608D01*
X123658899Y-81208932D01*
X123908192Y-81342182D01*
X124178691Y-81424236D01*
X124389508Y-81445000D01*
X124530492Y-81445000D01*
X124741309Y-81424236D01*
X125011808Y-81342182D01*
X125261101Y-81208932D01*
X125479608Y-81029608D01*
X125658932Y-80811101D01*
X125730000Y-80678142D01*
X125801068Y-80811101D01*
X125980392Y-81029608D01*
X126198899Y-81208932D01*
X126448192Y-81342182D01*
X126718691Y-81424236D01*
X126929508Y-81445000D01*
X127070492Y-81445000D01*
X127281309Y-81424236D01*
X127551808Y-81342182D01*
X127801101Y-81208932D01*
X128019608Y-81029608D01*
X128198932Y-80811101D01*
X128270000Y-80678142D01*
X128341068Y-80811101D01*
X128520392Y-81029608D01*
X128738899Y-81208932D01*
X128988192Y-81342182D01*
X129258691Y-81424236D01*
X129469508Y-81445000D01*
X129610492Y-81445000D01*
X129821309Y-81424236D01*
X130091808Y-81342182D01*
X130341101Y-81208932D01*
X130559608Y-81029608D01*
X130738932Y-80811101D01*
X130810000Y-80678142D01*
X130881068Y-80811101D01*
X131060392Y-81029608D01*
X131278899Y-81208932D01*
X131528192Y-81342182D01*
X131798691Y-81424236D01*
X132009508Y-81445000D01*
X132150492Y-81445000D01*
X132361309Y-81424236D01*
X132631808Y-81342182D01*
X132881101Y-81208932D01*
X133099608Y-81029608D01*
X133278932Y-80811101D01*
X133350000Y-80678142D01*
X133421068Y-80811101D01*
X133600392Y-81029608D01*
X133818899Y-81208932D01*
X134068192Y-81342182D01*
X134338691Y-81424236D01*
X134549508Y-81445000D01*
X134690492Y-81445000D01*
X134901309Y-81424236D01*
X135171808Y-81342182D01*
X135421101Y-81208932D01*
X135639608Y-81029608D01*
X135818932Y-80811101D01*
X135890000Y-80678142D01*
X135961068Y-80811101D01*
X136140392Y-81029608D01*
X136358899Y-81208932D01*
X136608192Y-81342182D01*
X136878691Y-81424236D01*
X137089508Y-81445000D01*
X137230492Y-81445000D01*
X137441309Y-81424236D01*
X137711808Y-81342182D01*
X137961101Y-81208932D01*
X138179608Y-81029608D01*
X138358932Y-80811101D01*
X138430000Y-80678142D01*
X138501068Y-80811101D01*
X138680392Y-81029608D01*
X138898899Y-81208932D01*
X139148192Y-81342182D01*
X139418691Y-81424236D01*
X139629508Y-81445000D01*
X139770492Y-81445000D01*
X139981309Y-81424236D01*
X140251808Y-81342182D01*
X140501101Y-81208932D01*
X140719608Y-81029608D01*
X140898932Y-80811101D01*
X141032182Y-80561808D01*
X141114236Y-80291309D01*
X141141943Y-80010000D01*
X141114236Y-79728691D01*
X141032182Y-79458192D01*
X140898932Y-79208899D01*
X140719608Y-78990392D01*
X140501101Y-78811068D01*
X140251808Y-78677818D01*
X139981309Y-78595764D01*
X139770492Y-78575000D01*
X139629508Y-78575000D01*
X139418691Y-78595764D01*
X139148192Y-78677818D01*
X138898899Y-78811068D01*
X138680392Y-78990392D01*
X138501068Y-79208899D01*
X138430000Y-79341858D01*
X138358932Y-79208899D01*
X138179608Y-78990392D01*
X137961101Y-78811068D01*
X137711808Y-78677818D01*
X137441309Y-78595764D01*
X137230492Y-78575000D01*
X137089508Y-78575000D01*
X136878691Y-78595764D01*
X136608192Y-78677818D01*
X136358899Y-78811068D01*
X136140392Y-78990392D01*
X135961068Y-79208899D01*
X135890000Y-79341858D01*
X135818932Y-79208899D01*
X135639608Y-78990392D01*
X135421101Y-78811068D01*
X135171808Y-78677818D01*
X134901309Y-78595764D01*
X134690492Y-78575000D01*
X134549508Y-78575000D01*
X134338691Y-78595764D01*
X134068192Y-78677818D01*
X133818899Y-78811068D01*
X133600392Y-78990392D01*
X133421068Y-79208899D01*
X133350000Y-79341858D01*
X133278932Y-79208899D01*
X133099608Y-78990392D01*
X132881101Y-78811068D01*
X132631808Y-78677818D01*
X132361309Y-78595764D01*
X132150492Y-78575000D01*
X132009508Y-78575000D01*
X131798691Y-78595764D01*
X131528192Y-78677818D01*
X131278899Y-78811068D01*
X131060392Y-78990392D01*
X130881068Y-79208899D01*
X130810000Y-79341858D01*
X130738932Y-79208899D01*
X130559608Y-78990392D01*
X130341101Y-78811068D01*
X130091808Y-78677818D01*
X129821309Y-78595764D01*
X129610492Y-78575000D01*
X129469508Y-78575000D01*
X129258691Y-78595764D01*
X128988192Y-78677818D01*
X128738899Y-78811068D01*
X128520392Y-78990392D01*
X128341068Y-79208899D01*
X128270000Y-79341858D01*
X128198932Y-79208899D01*
X128019608Y-78990392D01*
X127801101Y-78811068D01*
X127551808Y-78677818D01*
X127281309Y-78595764D01*
X127070492Y-78575000D01*
X126929508Y-78575000D01*
X126718691Y-78595764D01*
X126448192Y-78677818D01*
X126198899Y-78811068D01*
X125980392Y-78990392D01*
X125801068Y-79208899D01*
X125730000Y-79341858D01*
X125658932Y-79208899D01*
X125479608Y-78990392D01*
X125261101Y-78811068D01*
X125011808Y-78677818D01*
X124741309Y-78595764D01*
X124530492Y-78575000D01*
X124389508Y-78575000D01*
X124178691Y-78595764D01*
X123908192Y-78677818D01*
X123658899Y-78811068D01*
X123440392Y-78990392D01*
X123261068Y-79208899D01*
X123190000Y-79341858D01*
X123118932Y-79208899D01*
X122939608Y-78990392D01*
X122721101Y-78811068D01*
X122471808Y-78677818D01*
X122201309Y-78595764D01*
X121990492Y-78575000D01*
X121849508Y-78575000D01*
X121638691Y-78595764D01*
X121368192Y-78677818D01*
X121118899Y-78811068D01*
X120900392Y-78990392D01*
X120721068Y-79208899D01*
X120650000Y-79341858D01*
X120578932Y-79208899D01*
X120399608Y-78990392D01*
X120181101Y-78811068D01*
X119931808Y-78677818D01*
X119661309Y-78595764D01*
X119450492Y-78575000D01*
X119309508Y-78575000D01*
X119098691Y-78595764D01*
X118828192Y-78677818D01*
X118578899Y-78811068D01*
X118360392Y-78990392D01*
X118181068Y-79208899D01*
X118110000Y-79341858D01*
X118038932Y-79208899D01*
X117859608Y-78990392D01*
X117641101Y-78811068D01*
X117391808Y-78677818D01*
X117121309Y-78595764D01*
X116910492Y-78575000D01*
X116769508Y-78575000D01*
X116558691Y-78595764D01*
X116288192Y-78677818D01*
X116038899Y-78811068D01*
X115820392Y-78990392D01*
X115641068Y-79208899D01*
X115570000Y-79341858D01*
X115498932Y-79208899D01*
X115319608Y-78990392D01*
X115101101Y-78811068D01*
X114851808Y-78677818D01*
X114581309Y-78595764D01*
X114370492Y-78575000D01*
X114229508Y-78575000D01*
X114018691Y-78595764D01*
X113748192Y-78677818D01*
X113498899Y-78811068D01*
X113280392Y-78990392D01*
X113101068Y-79208899D01*
X113027421Y-79346682D01*
X112912385Y-79154869D01*
X112723414Y-78946481D01*
X112497420Y-78778963D01*
X112243087Y-78658754D01*
X112109039Y-78618096D01*
X111887000Y-78740085D01*
X111633000Y-78740085D01*
X111410961Y-78618096D01*
X111276913Y-78658754D01*
X111022580Y-78778963D01*
X110796586Y-78946481D01*
X110607615Y-79154869D01*
X110492579Y-79346682D01*
X110418932Y-79208899D01*
X110239608Y-78990392D01*
X110021101Y-78811068D01*
X109771808Y-78677818D01*
X109501309Y-78595764D01*
X109290492Y-78575000D01*
X109149508Y-78575000D01*
X108938691Y-78595764D01*
X108668192Y-78677818D01*
X108418899Y-78811068D01*
X108200392Y-78990392D01*
X108021068Y-79208899D01*
X107950000Y-79341858D01*
X107878932Y-79208899D01*
X107699608Y-78990392D01*
X107481101Y-78811068D01*
X107231808Y-78677818D01*
X106961309Y-78595764D01*
X106750492Y-78575000D01*
X106609508Y-78575000D01*
X106398691Y-78595764D01*
X106128192Y-78677818D01*
X105878899Y-78811068D01*
X105660392Y-78990392D01*
X105567581Y-79103482D01*
X105565812Y-79085518D01*
X105529502Y-78965820D01*
X105470537Y-78855506D01*
X105391185Y-78758815D01*
X105294494Y-78679463D01*
X105184180Y-78620498D01*
X105064482Y-78584188D01*
X104940000Y-78571928D01*
X103340000Y-78571928D01*
X103215518Y-78584188D01*
X103095820Y-78620498D01*
X102985506Y-78679463D01*
X102888815Y-78758815D01*
X102809463Y-78855506D01*
X102750498Y-78965820D01*
X102714188Y-79085518D01*
X102701928Y-79210000D01*
X74320000Y-79210000D01*
X74320000Y-64770000D01*
X102698057Y-64770000D01*
X102725764Y-65051309D01*
X102807818Y-65321808D01*
X102941068Y-65571101D01*
X103120392Y-65789608D01*
X103338899Y-65968932D01*
X103588192Y-66102182D01*
X103858691Y-66184236D01*
X104069508Y-66205000D01*
X104210492Y-66205000D01*
X104421309Y-66184236D01*
X104691808Y-66102182D01*
X104941101Y-65968932D01*
X105159608Y-65789608D01*
X105338932Y-65571101D01*
X105412579Y-65433318D01*
X105527615Y-65625131D01*
X105716586Y-65833519D01*
X105942580Y-66001037D01*
X106196913Y-66121246D01*
X106330961Y-66161904D01*
X106553000Y-66039915D01*
X106553000Y-64897000D01*
X106533000Y-64897000D01*
X106533000Y-64643000D01*
X106553000Y-64643000D01*
X106553000Y-63500085D01*
X106807000Y-63500085D01*
X106807000Y-64643000D01*
X106827000Y-64643000D01*
X106827000Y-64897000D01*
X106807000Y-64897000D01*
X106807000Y-66039915D01*
X107029039Y-66161904D01*
X107163087Y-66121246D01*
X107417420Y-66001037D01*
X107643414Y-65833519D01*
X107832385Y-65625131D01*
X107947421Y-65433318D01*
X108021068Y-65571101D01*
X108200392Y-65789608D01*
X108418899Y-65968932D01*
X108668192Y-66102182D01*
X108938691Y-66184236D01*
X109149508Y-66205000D01*
X109290492Y-66205000D01*
X109501309Y-66184236D01*
X109771808Y-66102182D01*
X110021101Y-65968932D01*
X110239608Y-65789608D01*
X110418932Y-65571101D01*
X110490000Y-65438142D01*
X110561068Y-65571101D01*
X110740392Y-65789608D01*
X110958899Y-65968932D01*
X111208192Y-66102182D01*
X111478691Y-66184236D01*
X111689508Y-66205000D01*
X111830492Y-66205000D01*
X112041309Y-66184236D01*
X112311808Y-66102182D01*
X112561101Y-65968932D01*
X112779608Y-65789608D01*
X112958932Y-65571101D01*
X113030000Y-65438142D01*
X113101068Y-65571101D01*
X113280392Y-65789608D01*
X113498899Y-65968932D01*
X113748192Y-66102182D01*
X114018691Y-66184236D01*
X114229508Y-66205000D01*
X114370492Y-66205000D01*
X114581309Y-66184236D01*
X114851808Y-66102182D01*
X115101101Y-65968932D01*
X115319608Y-65789608D01*
X115498932Y-65571101D01*
X115570000Y-65438142D01*
X115641068Y-65571101D01*
X115820392Y-65789608D01*
X116038899Y-65968932D01*
X116288192Y-66102182D01*
X116558691Y-66184236D01*
X116769508Y-66205000D01*
X116910492Y-66205000D01*
X117121309Y-66184236D01*
X117391808Y-66102182D01*
X117641101Y-65968932D01*
X117859608Y-65789608D01*
X118038932Y-65571101D01*
X118110000Y-65438142D01*
X118181068Y-65571101D01*
X118360392Y-65789608D01*
X118578899Y-65968932D01*
X118828192Y-66102182D01*
X119098691Y-66184236D01*
X119309508Y-66205000D01*
X119450492Y-66205000D01*
X119661309Y-66184236D01*
X119931808Y-66102182D01*
X120181101Y-65968932D01*
X120399608Y-65789608D01*
X120578932Y-65571101D01*
X120650000Y-65438142D01*
X120721068Y-65571101D01*
X120900392Y-65789608D01*
X121118899Y-65968932D01*
X121368192Y-66102182D01*
X121638691Y-66184236D01*
X121849508Y-66205000D01*
X121990492Y-66205000D01*
X122201309Y-66184236D01*
X122471808Y-66102182D01*
X122721101Y-65968932D01*
X122939608Y-65789608D01*
X123118932Y-65571101D01*
X123190000Y-65438142D01*
X123261068Y-65571101D01*
X123440392Y-65789608D01*
X123658899Y-65968932D01*
X123908192Y-66102182D01*
X124178691Y-66184236D01*
X124389508Y-66205000D01*
X124530492Y-66205000D01*
X124741309Y-66184236D01*
X125011808Y-66102182D01*
X125261101Y-65968932D01*
X125479608Y-65789608D01*
X125658932Y-65571101D01*
X125730000Y-65438142D01*
X125801068Y-65571101D01*
X125980392Y-65789608D01*
X126198899Y-65968932D01*
X126448192Y-66102182D01*
X126718691Y-66184236D01*
X126929508Y-66205000D01*
X127070492Y-66205000D01*
X127281309Y-66184236D01*
X127551808Y-66102182D01*
X127801101Y-65968932D01*
X128019608Y-65789608D01*
X128198932Y-65571101D01*
X128270000Y-65438142D01*
X128341068Y-65571101D01*
X128520392Y-65789608D01*
X128738899Y-65968932D01*
X128988192Y-66102182D01*
X129258691Y-66184236D01*
X129469508Y-66205000D01*
X129610492Y-66205000D01*
X129821309Y-66184236D01*
X130091808Y-66102182D01*
X130341101Y-65968932D01*
X130559608Y-65789608D01*
X130738932Y-65571101D01*
X130810000Y-65438142D01*
X130881068Y-65571101D01*
X131060392Y-65789608D01*
X131278899Y-65968932D01*
X131528192Y-66102182D01*
X131798691Y-66184236D01*
X132009508Y-66205000D01*
X132150492Y-66205000D01*
X132361309Y-66184236D01*
X132631808Y-66102182D01*
X132881101Y-65968932D01*
X133099608Y-65789608D01*
X133278932Y-65571101D01*
X133352579Y-65433318D01*
X133467615Y-65625131D01*
X133656586Y-65833519D01*
X133882580Y-66001037D01*
X134136913Y-66121246D01*
X134270961Y-66161904D01*
X134493000Y-66039915D01*
X134493000Y-64897000D01*
X134473000Y-64897000D01*
X134473000Y-64643000D01*
X134493000Y-64643000D01*
X134493000Y-63500085D01*
X134747000Y-63500085D01*
X134747000Y-64643000D01*
X134767000Y-64643000D01*
X134767000Y-64897000D01*
X134747000Y-64897000D01*
X134747000Y-66039915D01*
X134969039Y-66161904D01*
X135103087Y-66121246D01*
X135357420Y-66001037D01*
X135583414Y-65833519D01*
X135772385Y-65625131D01*
X135887421Y-65433318D01*
X135961068Y-65571101D01*
X136140392Y-65789608D01*
X136358899Y-65968932D01*
X136608192Y-66102182D01*
X136878691Y-66184236D01*
X137089508Y-66205000D01*
X137230492Y-66205000D01*
X137441309Y-66184236D01*
X137711808Y-66102182D01*
X137961101Y-65968932D01*
X138179608Y-65789608D01*
X138358932Y-65571101D01*
X138430000Y-65438142D01*
X138501068Y-65571101D01*
X138680392Y-65789608D01*
X138898899Y-65968932D01*
X139148192Y-66102182D01*
X139418691Y-66184236D01*
X139629508Y-66205000D01*
X139770492Y-66205000D01*
X139981309Y-66184236D01*
X140251808Y-66102182D01*
X140501101Y-65968932D01*
X140719608Y-65789608D01*
X140898932Y-65571101D01*
X141032182Y-65321808D01*
X141114236Y-65051309D01*
X141141943Y-64770000D01*
X141114236Y-64488691D01*
X141032182Y-64218192D01*
X140898932Y-63968899D01*
X140719608Y-63750392D01*
X140501101Y-63571068D01*
X140251808Y-63437818D01*
X139981309Y-63355764D01*
X139770492Y-63335000D01*
X139629508Y-63335000D01*
X139418691Y-63355764D01*
X139148192Y-63437818D01*
X138898899Y-63571068D01*
X138680392Y-63750392D01*
X138501068Y-63968899D01*
X138430000Y-64101858D01*
X138358932Y-63968899D01*
X138179608Y-63750392D01*
X137961101Y-63571068D01*
X137711808Y-63437818D01*
X137441309Y-63355764D01*
X137230492Y-63335000D01*
X137089508Y-63335000D01*
X136878691Y-63355764D01*
X136608192Y-63437818D01*
X136358899Y-63571068D01*
X136140392Y-63750392D01*
X135961068Y-63968899D01*
X135887421Y-64106682D01*
X135772385Y-63914869D01*
X135583414Y-63706481D01*
X135357420Y-63538963D01*
X135103087Y-63418754D01*
X134969039Y-63378096D01*
X134747000Y-63500085D01*
X134493000Y-63500085D01*
X134270961Y-63378096D01*
X134136913Y-63418754D01*
X133882580Y-63538963D01*
X133656586Y-63706481D01*
X133467615Y-63914869D01*
X133352579Y-64106682D01*
X133278932Y-63968899D01*
X133099608Y-63750392D01*
X132881101Y-63571068D01*
X132631808Y-63437818D01*
X132361309Y-63355764D01*
X132150492Y-63335000D01*
X132009508Y-63335000D01*
X131798691Y-63355764D01*
X131528192Y-63437818D01*
X131278899Y-63571068D01*
X131060392Y-63750392D01*
X130881068Y-63968899D01*
X130810000Y-64101858D01*
X130738932Y-63968899D01*
X130559608Y-63750392D01*
X130341101Y-63571068D01*
X130091808Y-63437818D01*
X129821309Y-63355764D01*
X129610492Y-63335000D01*
X129469508Y-63335000D01*
X129258691Y-63355764D01*
X128988192Y-63437818D01*
X128738899Y-63571068D01*
X128520392Y-63750392D01*
X128341068Y-63968899D01*
X128270000Y-64101858D01*
X128198932Y-63968899D01*
X128019608Y-63750392D01*
X127801101Y-63571068D01*
X127551808Y-63437818D01*
X127281309Y-63355764D01*
X127070492Y-63335000D01*
X126929508Y-63335000D01*
X126718691Y-63355764D01*
X126448192Y-63437818D01*
X126198899Y-63571068D01*
X125980392Y-63750392D01*
X125801068Y-63968899D01*
X125730000Y-64101858D01*
X125658932Y-63968899D01*
X125479608Y-63750392D01*
X125261101Y-63571068D01*
X125011808Y-63437818D01*
X124741309Y-63355764D01*
X124530492Y-63335000D01*
X124389508Y-63335000D01*
X124178691Y-63355764D01*
X123908192Y-63437818D01*
X123658899Y-63571068D01*
X123440392Y-63750392D01*
X123261068Y-63968899D01*
X123190000Y-64101858D01*
X123118932Y-63968899D01*
X122939608Y-63750392D01*
X122721101Y-63571068D01*
X122471808Y-63437818D01*
X122201309Y-63355764D01*
X121990492Y-63335000D01*
X121849508Y-63335000D01*
X121638691Y-63355764D01*
X121368192Y-63437818D01*
X121118899Y-63571068D01*
X120900392Y-63750392D01*
X120721068Y-63968899D01*
X120650000Y-64101858D01*
X120578932Y-63968899D01*
X120399608Y-63750392D01*
X120181101Y-63571068D01*
X119931808Y-63437818D01*
X119661309Y-63355764D01*
X119450492Y-63335000D01*
X119309508Y-63335000D01*
X119098691Y-63355764D01*
X118828192Y-63437818D01*
X118578899Y-63571068D01*
X118360392Y-63750392D01*
X118181068Y-63968899D01*
X118110000Y-64101858D01*
X118038932Y-63968899D01*
X117859608Y-63750392D01*
X117641101Y-63571068D01*
X117391808Y-63437818D01*
X117121309Y-63355764D01*
X116910492Y-63335000D01*
X116769508Y-63335000D01*
X116558691Y-63355764D01*
X116288192Y-63437818D01*
X116038899Y-63571068D01*
X115820392Y-63750392D01*
X115641068Y-63968899D01*
X115570000Y-64101858D01*
X115498932Y-63968899D01*
X115319608Y-63750392D01*
X115101101Y-63571068D01*
X114851808Y-63437818D01*
X114581309Y-63355764D01*
X114370492Y-63335000D01*
X114229508Y-63335000D01*
X114018691Y-63355764D01*
X113748192Y-63437818D01*
X113498899Y-63571068D01*
X113280392Y-63750392D01*
X113101068Y-63968899D01*
X113030000Y-64101858D01*
X112958932Y-63968899D01*
X112779608Y-63750392D01*
X112561101Y-63571068D01*
X112311808Y-63437818D01*
X112041309Y-63355764D01*
X111830492Y-63335000D01*
X111689508Y-63335000D01*
X111478691Y-63355764D01*
X111208192Y-63437818D01*
X110958899Y-63571068D01*
X110740392Y-63750392D01*
X110561068Y-63968899D01*
X110490000Y-64101858D01*
X110418932Y-63968899D01*
X110239608Y-63750392D01*
X110021101Y-63571068D01*
X109771808Y-63437818D01*
X109501309Y-63355764D01*
X109290492Y-63335000D01*
X109149508Y-63335000D01*
X108938691Y-63355764D01*
X108668192Y-63437818D01*
X108418899Y-63571068D01*
X108200392Y-63750392D01*
X108021068Y-63968899D01*
X107947421Y-64106682D01*
X107832385Y-63914869D01*
X107643414Y-63706481D01*
X107417420Y-63538963D01*
X107163087Y-63418754D01*
X107029039Y-63378096D01*
X106807000Y-63500085D01*
X106553000Y-63500085D01*
X106330961Y-63378096D01*
X106196913Y-63418754D01*
X105942580Y-63538963D01*
X105716586Y-63706481D01*
X105527615Y-63914869D01*
X105412579Y-64106682D01*
X105338932Y-63968899D01*
X105159608Y-63750392D01*
X104941101Y-63571068D01*
X104691808Y-63437818D01*
X104421309Y-63355764D01*
X104210492Y-63335000D01*
X104069508Y-63335000D01*
X103858691Y-63355764D01*
X103588192Y-63437818D01*
X103338899Y-63571068D01*
X103120392Y-63750392D01*
X102941068Y-63968899D01*
X102807818Y-64218192D01*
X102725764Y-64488691D01*
X102698057Y-64770000D01*
X74320000Y-64770000D01*
X74320000Y-63532279D01*
X74334722Y-63382131D01*
X74368953Y-63268754D01*
X74424555Y-63164181D01*
X74499407Y-63072404D01*
X74590664Y-62996909D01*
X74694844Y-62940581D01*
X74807976Y-62905560D01*
X74956022Y-62890000D01*
X147930001Y-62890000D01*
X147930000Y-112370000D01*
X147930000Y-112370000D01*
G37*
X147930000Y-112370000D02*
X143726765Y-112370000D01*
X143725000Y-112045750D01*
X143566250Y-111887000D01*
X142367000Y-111887000D01*
X142367000Y-111907000D01*
X142113000Y-111907000D01*
X142113000Y-111887000D01*
X142093000Y-111887000D01*
X142093000Y-111633000D01*
X142113000Y-111633000D01*
X142113000Y-111613000D01*
X142367000Y-111613000D01*
X142367000Y-111633000D01*
X143566250Y-111633000D01*
X143725000Y-111474250D01*
X143728072Y-110910000D01*
X143715812Y-110785518D01*
X143679502Y-110665820D01*
X143620537Y-110555506D01*
X143541185Y-110458815D01*
X143444494Y-110379463D01*
X143334180Y-110320498D01*
X143265313Y-110299607D01*
X143295134Y-110275134D01*
X143480706Y-110049014D01*
X143618599Y-109791034D01*
X143703513Y-109511111D01*
X143732185Y-109220000D01*
X143703513Y-108928889D01*
X143618599Y-108648966D01*
X143480706Y-108390986D01*
X143295134Y-108164866D01*
X143069014Y-107979294D01*
X142811034Y-107841401D01*
X142531111Y-107756487D01*
X142312950Y-107735000D01*
X142167050Y-107735000D01*
X141948889Y-107756487D01*
X141668966Y-107841401D01*
X141410986Y-107979294D01*
X141184866Y-108164866D01*
X140999294Y-108390986D01*
X140970000Y-108445791D01*
X140940706Y-108390986D01*
X140755134Y-108164866D01*
X140529014Y-107979294D01*
X140271034Y-107841401D01*
X139991111Y-107756487D01*
X139772950Y-107735000D01*
X139627050Y-107735000D01*
X139408889Y-107756487D01*
X139128966Y-107841401D01*
X138870986Y-107979294D01*
X138644866Y-108164866D01*
X138459294Y-108390986D01*
X138430000Y-108445791D01*
X138400706Y-108390986D01*
X138215134Y-108164866D01*
X137989014Y-107979294D01*
X137731034Y-107841401D01*
X137451111Y-107756487D01*
X137232950Y-107735000D01*
X137087050Y-107735000D01*
X136868889Y-107756487D01*
X136588966Y-107841401D01*
X136330986Y-107979294D01*
X136104866Y-108164866D01*
X135919294Y-108390986D01*
X135890000Y-108445791D01*
X135860706Y-108390986D01*
X135675134Y-108164866D01*
X135449014Y-107979294D01*
X135191034Y-107841401D01*
X134911111Y-107756487D01*
X134692950Y-107735000D01*
X134547050Y-107735000D01*
X134328889Y-107756487D01*
X134048966Y-107841401D01*
X133790986Y-107979294D01*
X133564866Y-108164866D01*
X133379294Y-108390986D01*
X133350000Y-108445791D01*
X133320706Y-108390986D01*
X133135134Y-108164866D01*
X132909014Y-107979294D01*
X132651034Y-107841401D01*
X132371111Y-107756487D01*
X132152950Y-107735000D01*
X132007050Y-107735000D01*
X131788889Y-107756487D01*
X131508966Y-107841401D01*
X131250986Y-107979294D01*
X131024866Y-108164866D01*
X130839294Y-108390986D01*
X130810000Y-108445791D01*
X130780706Y-108390986D01*
X130595134Y-108164866D01*
X130369014Y-107979294D01*
X130111034Y-107841401D01*
X129831111Y-107756487D01*
X129612950Y-107735000D01*
X129467050Y-107735000D01*
X129248889Y-107756487D01*
X128968966Y-107841401D01*
X128710986Y-107979294D01*
X128484866Y-108164866D01*
X128299294Y-108390986D01*
X128270000Y-108445791D01*
X128240706Y-108390986D01*
X128055134Y-108164866D01*
X127829014Y-107979294D01*
X127571034Y-107841401D01*
X127291111Y-107756487D01*
X127072950Y-107735000D01*
X126927050Y-107735000D01*
X126708889Y-107756487D01*
X126428966Y-107841401D01*
X126170986Y-107979294D01*
X125944866Y-108164866D01*
X125759294Y-108390986D01*
X125730000Y-108445791D01*
X125700706Y-108390986D01*
X125515134Y-108164866D01*
X125289014Y-107979294D01*
X125031034Y-107841401D01*
X124751111Y-107756487D01*
X124532950Y-107735000D01*
X124387050Y-107735000D01*
X124168889Y-107756487D01*
X123888966Y-107841401D01*
X123630986Y-107979294D01*
X123404866Y-108164866D01*
X123219294Y-108390986D01*
X123190000Y-108445791D01*
X123160706Y-108390986D01*
X122975134Y-108164866D01*
X122749014Y-107979294D01*
X122491034Y-107841401D01*
X122211111Y-107756487D01*
X121992950Y-107735000D01*
X121847050Y-107735000D01*
X121628889Y-107756487D01*
X121348966Y-107841401D01*
X121090986Y-107979294D01*
X120864866Y-108164866D01*
X120679294Y-108390986D01*
X120650000Y-108445791D01*
X120620706Y-108390986D01*
X120435134Y-108164866D01*
X120209014Y-107979294D01*
X119951034Y-107841401D01*
X119671111Y-107756487D01*
X119452950Y-107735000D01*
X119307050Y-107735000D01*
X119088889Y-107756487D01*
X118808966Y-107841401D01*
X118550986Y-107979294D01*
X118324866Y-108164866D01*
X118139294Y-108390986D01*
X118110000Y-108445791D01*
X118080706Y-108390986D01*
X117895134Y-108164866D01*
X117669014Y-107979294D01*
X117411034Y-107841401D01*
X117131111Y-107756487D01*
X116912950Y-107735000D01*
X116767050Y-107735000D01*
X116548889Y-107756487D01*
X116268966Y-107841401D01*
X116010986Y-107979294D01*
X115784866Y-108164866D01*
X115599294Y-108390986D01*
X115570000Y-108445791D01*
X115540706Y-108390986D01*
X115355134Y-108164866D01*
X115129014Y-107979294D01*
X114871034Y-107841401D01*
X114591111Y-107756487D01*
X114372950Y-107735000D01*
X114227050Y-107735000D01*
X114008889Y-107756487D01*
X113728966Y-107841401D01*
X113470986Y-107979294D01*
X113244866Y-108164866D01*
X113059294Y-108390986D01*
X113030000Y-108445791D01*
X113000706Y-108390986D01*
X112815134Y-108164866D01*
X112589014Y-107979294D01*
X112331034Y-107841401D01*
X112051111Y-107756487D01*
X111832950Y-107735000D01*
X111687050Y-107735000D01*
X111468889Y-107756487D01*
X111188966Y-107841401D01*
X110930986Y-107979294D01*
X110704866Y-108164866D01*
X110519294Y-108390986D01*
X110490000Y-108445791D01*
X110460706Y-108390986D01*
X110275134Y-108164866D01*
X110049014Y-107979294D01*
X109791034Y-107841401D01*
X109511111Y-107756487D01*
X109292950Y-107735000D01*
X109147050Y-107735000D01*
X108928889Y-107756487D01*
X108648966Y-107841401D01*
X108390986Y-107979294D01*
X108164866Y-108164866D01*
X107979294Y-108390986D01*
X107950000Y-108445791D01*
X107920706Y-108390986D01*
X107735134Y-108164866D01*
X107509014Y-107979294D01*
X107251034Y-107841401D01*
X106971111Y-107756487D01*
X106752950Y-107735000D01*
X106607050Y-107735000D01*
X106388889Y-107756487D01*
X106108966Y-107841401D01*
X105850986Y-107979294D01*
X105624866Y-108164866D01*
X105439294Y-108390986D01*
X105404799Y-108455523D01*
X105335178Y-108338645D01*
X105140269Y-108122412D01*
X104906920Y-107948359D01*
X104644099Y-107823175D01*
X104496890Y-107778524D01*
X104267000Y-107899845D01*
X104267000Y-109093000D01*
X104287000Y-109093000D01*
X104287000Y-109347000D01*
X104267000Y-109347000D01*
X104267000Y-111633000D01*
X104287000Y-111633000D01*
X104287000Y-111887000D01*
X104267000Y-111887000D01*
X104267000Y-111907000D01*
X104013000Y-111907000D01*
X104013000Y-111887000D01*
X101727000Y-111887000D01*
X101727000Y-111907000D01*
X101473000Y-111907000D01*
X101473000Y-111887000D01*
X99187000Y-111887000D01*
X99187000Y-111907000D01*
X98933000Y-111907000D01*
X98933000Y-111887000D01*
X96647000Y-111887000D01*
X96647000Y-111907000D01*
X96393000Y-111907000D01*
X96393000Y-111887000D01*
X94107000Y-111887000D01*
X94107000Y-111907000D01*
X93853000Y-111907000D01*
X93853000Y-111887000D01*
X92659186Y-111887000D01*
X92538519Y-112116891D01*
X92628304Y-112370000D01*
X74320000Y-112370000D01*
X74320000Y-109576891D01*
X92538519Y-109576891D01*
X92635843Y-109851252D01*
X92784822Y-110101355D01*
X92979731Y-110317588D01*
X93210880Y-110490000D01*
X92979731Y-110662412D01*
X92784822Y-110878645D01*
X92635843Y-111128748D01*
X92538519Y-111403109D01*
X92659186Y-111633000D01*
X93853000Y-111633000D01*
X93853000Y-109347000D01*
X94107000Y-109347000D01*
X94107000Y-111633000D01*
X96393000Y-111633000D01*
X96393000Y-109347000D01*
X96647000Y-109347000D01*
X96647000Y-111633000D01*
X98933000Y-111633000D01*
X98933000Y-109347000D01*
X99187000Y-109347000D01*
X99187000Y-111633000D01*
X101473000Y-111633000D01*
X101473000Y-109347000D01*
X101727000Y-109347000D01*
X101727000Y-111633000D01*
X104013000Y-111633000D01*
X104013000Y-109347000D01*
X101727000Y-109347000D01*
X101473000Y-109347000D01*
X99187000Y-109347000D01*
X98933000Y-109347000D01*
X96647000Y-109347000D01*
X96393000Y-109347000D01*
X94107000Y-109347000D01*
X93853000Y-109347000D01*
X92659186Y-109347000D01*
X92538519Y-109576891D01*
X74320000Y-109576891D01*
X74320000Y-108863109D01*
X92538519Y-108863109D01*
X92659186Y-109093000D01*
X93853000Y-109093000D01*
X93853000Y-107899845D01*
X94107000Y-107899845D01*
X94107000Y-109093000D01*
X96393000Y-109093000D01*
X96393000Y-107899845D01*
X96647000Y-107899845D01*
X96647000Y-109093000D01*
X98933000Y-109093000D01*
X98933000Y-107899845D01*
X99187000Y-107899845D01*
X99187000Y-109093000D01*
X101473000Y-109093000D01*
X101473000Y-107899845D01*
X101727000Y-107899845D01*
X101727000Y-109093000D01*
X104013000Y-109093000D01*
X104013000Y-107899845D01*
X103783110Y-107778524D01*
X103635901Y-107823175D01*
X103373080Y-107948359D01*
X103139731Y-108122412D01*
X102944822Y-108338645D01*
X102870000Y-108464255D01*
X102795178Y-108338645D01*
X102600269Y-108122412D01*
X102366920Y-107948359D01*
X102104099Y-107823175D01*
X101956890Y-107778524D01*
X101727000Y-107899845D01*
X101473000Y-107899845D01*
X101243110Y-107778524D01*
X101095901Y-107823175D01*
X100833080Y-107948359D01*
X100599731Y-108122412D01*
X100404822Y-108338645D01*
X100330000Y-108464255D01*
X100255178Y-108338645D01*
X100060269Y-108122412D01*
X99826920Y-107948359D01*
X99564099Y-107823175D01*
X99416890Y-107778524D01*
X99187000Y-107899845D01*
X98933000Y-107899845D01*
X98703110Y-107778524D01*
X98555901Y-107823175D01*
X98293080Y-107948359D01*
X98059731Y-108122412D01*
X97864822Y-108338645D01*
X97790000Y-108464255D01*
X97715178Y-108338645D01*
X97520269Y-108122412D01*
X97286920Y-107948359D01*
X97024099Y-107823175D01*
X96876890Y-107778524D01*
X96647000Y-107899845D01*
X96393000Y-107899845D01*
X96163110Y-107778524D01*
X96015901Y-107823175D01*
X95753080Y-107948359D01*
X95519731Y-108122412D01*
X95324822Y-108338645D01*
X95250000Y-108464255D01*
X95175178Y-108338645D01*
X94980269Y-108122412D01*
X94746920Y-107948359D01*
X94484099Y-107823175D01*
X94336890Y-107778524D01*
X94107000Y-107899845D01*
X93853000Y-107899845D01*
X93623110Y-107778524D01*
X93475901Y-107823175D01*
X93213080Y-107948359D01*
X92979731Y-108122412D01*
X92784822Y-108338645D01*
X92635843Y-108588748D01*
X92538519Y-108863109D01*
X74320000Y-108863109D01*
X74320000Y-102400000D01*
X82381928Y-102400000D01*
X82394188Y-102524482D01*
X82430498Y-102644180D01*
X82489463Y-102754494D01*
X82568815Y-102851185D01*
X82665506Y-102930537D01*
X82775820Y-102989502D01*
X82895518Y-103025812D01*
X83020000Y-103038072D01*
X83534250Y-103035000D01*
X83693000Y-102876250D01*
X83693000Y-101727000D01*
X82543750Y-101727000D01*
X82385000Y-101885750D01*
X82381928Y-102400000D01*
X74320000Y-102400000D01*
X74320000Y-100800000D01*
X82381928Y-100800000D01*
X82385000Y-101314250D01*
X82543750Y-101473000D01*
X83693000Y-101473000D01*
X83693000Y-100323750D01*
X83947000Y-100323750D01*
X83947000Y-101473000D01*
X83967000Y-101473000D01*
X83967000Y-101727000D01*
X83947000Y-101727000D01*
X83947000Y-102876250D01*
X84105750Y-103035000D01*
X84620000Y-103038072D01*
X84744482Y-103025812D01*
X84864180Y-102989502D01*
X84974494Y-102930537D01*
X85071185Y-102851185D01*
X85150537Y-102754494D01*
X85209502Y-102644180D01*
X85245812Y-102524482D01*
X85247581Y-102506518D01*
X85340392Y-102619608D01*
X85558899Y-102798932D01*
X85808192Y-102932182D01*
X86078691Y-103014236D01*
X86289508Y-103035000D01*
X86430492Y-103035000D01*
X86641309Y-103014236D01*
X86911808Y-102932182D01*
X87161101Y-102798932D01*
X87379608Y-102619608D01*
X87558932Y-102401101D01*
X87632579Y-102263318D01*
X87747615Y-102455131D01*
X87936586Y-102663519D01*
X88162580Y-102831037D01*
X88416913Y-102951246D01*
X88550961Y-102991904D01*
X88773000Y-102869915D01*
X88773000Y-101727000D01*
X89027000Y-101727000D01*
X89027000Y-102869915D01*
X89249039Y-102991904D01*
X89383087Y-102951246D01*
X89637420Y-102831037D01*
X89863414Y-102663519D01*
X90052385Y-102455131D01*
X90170000Y-102259018D01*
X90287615Y-102455131D01*
X90476586Y-102663519D01*
X90702580Y-102831037D01*
X90956913Y-102951246D01*
X91090961Y-102991904D01*
X91313000Y-102869915D01*
X91313000Y-101727000D01*
X89027000Y-101727000D01*
X88773000Y-101727000D01*
X88753000Y-101727000D01*
X88753000Y-101473000D01*
X88773000Y-101473000D01*
X88773000Y-100330085D01*
X89027000Y-100330085D01*
X89027000Y-101473000D01*
X91313000Y-101473000D01*
X91313000Y-100330085D01*
X91567000Y-100330085D01*
X91567000Y-101473000D01*
X91587000Y-101473000D01*
X91587000Y-101727000D01*
X91567000Y-101727000D01*
X91567000Y-102869915D01*
X91789039Y-102991904D01*
X91923087Y-102951246D01*
X92177420Y-102831037D01*
X92403414Y-102663519D01*
X92592385Y-102455131D01*
X92707421Y-102263318D01*
X92781068Y-102401101D01*
X92960392Y-102619608D01*
X93178899Y-102798932D01*
X93428192Y-102932182D01*
X93698691Y-103014236D01*
X93909508Y-103035000D01*
X94050492Y-103035000D01*
X94261309Y-103014236D01*
X94531808Y-102932182D01*
X94781101Y-102798932D01*
X94999608Y-102619608D01*
X95178932Y-102401101D01*
X95250000Y-102268142D01*
X95321068Y-102401101D01*
X95500392Y-102619608D01*
X95718899Y-102798932D01*
X95968192Y-102932182D01*
X96238691Y-103014236D01*
X96449508Y-103035000D01*
X96590492Y-103035000D01*
X96801309Y-103014236D01*
X97071808Y-102932182D01*
X97321101Y-102798932D01*
X97539608Y-102619608D01*
X97718932Y-102401101D01*
X97790000Y-102268142D01*
X97861068Y-102401101D01*
X98040392Y-102619608D01*
X98258899Y-102798932D01*
X98508192Y-102932182D01*
X98778691Y-103014236D01*
X98989508Y-103035000D01*
X99130492Y-103035000D01*
X99341309Y-103014236D01*
X99611808Y-102932182D01*
X99861101Y-102798932D01*
X100079608Y-102619608D01*
X100258932Y-102401101D01*
X100330000Y-102268142D01*
X100401068Y-102401101D01*
X100580392Y-102619608D01*
X100798899Y-102798932D01*
X101048192Y-102932182D01*
X101318691Y-103014236D01*
X101529508Y-103035000D01*
X101670492Y-103035000D01*
X101881309Y-103014236D01*
X102151808Y-102932182D01*
X102401101Y-102798932D01*
X102619608Y-102619608D01*
X102798932Y-102401101D01*
X102870000Y-102268142D01*
X102941068Y-102401101D01*
X103120392Y-102619608D01*
X103338899Y-102798932D01*
X103588192Y-102932182D01*
X103858691Y-103014236D01*
X104069508Y-103035000D01*
X104210492Y-103035000D01*
X104421309Y-103014236D01*
X104691808Y-102932182D01*
X104941101Y-102798932D01*
X105159608Y-102619608D01*
X105338932Y-102401101D01*
X105410000Y-102268142D01*
X105481068Y-102401101D01*
X105660392Y-102619608D01*
X105878899Y-102798932D01*
X106128192Y-102932182D01*
X106398691Y-103014236D01*
X106609508Y-103035000D01*
X106750492Y-103035000D01*
X106961309Y-103014236D01*
X107231808Y-102932182D01*
X107481101Y-102798932D01*
X107699608Y-102619608D01*
X107878932Y-102401101D01*
X107950000Y-102268142D01*
X108021068Y-102401101D01*
X108200392Y-102619608D01*
X108418899Y-102798932D01*
X108668192Y-102932182D01*
X108938691Y-103014236D01*
X109149508Y-103035000D01*
X109290492Y-103035000D01*
X109501309Y-103014236D01*
X109771808Y-102932182D01*
X110021101Y-102798932D01*
X110239608Y-102619608D01*
X110418932Y-102401101D01*
X110490000Y-102268142D01*
X110561068Y-102401101D01*
X110740392Y-102619608D01*
X110958899Y-102798932D01*
X111208192Y-102932182D01*
X111478691Y-103014236D01*
X111689508Y-103035000D01*
X111830492Y-103035000D01*
X112041309Y-103014236D01*
X112311808Y-102932182D01*
X112561101Y-102798932D01*
X112779608Y-102619608D01*
X112958932Y-102401101D01*
X113030000Y-102268142D01*
X113101068Y-102401101D01*
X113280392Y-102619608D01*
X113498899Y-102798932D01*
X113748192Y-102932182D01*
X114018691Y-103014236D01*
X114229508Y-103035000D01*
X114370492Y-103035000D01*
X114581309Y-103014236D01*
X114851808Y-102932182D01*
X115101101Y-102798932D01*
X115319608Y-102619608D01*
X115498932Y-102401101D01*
X115570000Y-102268142D01*
X115641068Y-102401101D01*
X115820392Y-102619608D01*
X116038899Y-102798932D01*
X116288192Y-102932182D01*
X116558691Y-103014236D01*
X116769508Y-103035000D01*
X116910492Y-103035000D01*
X117121309Y-103014236D01*
X117391808Y-102932182D01*
X117641101Y-102798932D01*
X117859608Y-102619608D01*
X118038932Y-102401101D01*
X118110000Y-102268142D01*
X118181068Y-102401101D01*
X118360392Y-102619608D01*
X118578899Y-102798932D01*
X118828192Y-102932182D01*
X119098691Y-103014236D01*
X119309508Y-103035000D01*
X119450492Y-103035000D01*
X119661309Y-103014236D01*
X119931808Y-102932182D01*
X120181101Y-102798932D01*
X120399608Y-102619608D01*
X120578932Y-102401101D01*
X120650000Y-102268142D01*
X120721068Y-102401101D01*
X120900392Y-102619608D01*
X121118899Y-102798932D01*
X121368192Y-102932182D01*
X121638691Y-103014236D01*
X121849508Y-103035000D01*
X121990492Y-103035000D01*
X122201309Y-103014236D01*
X122471808Y-102932182D01*
X122721101Y-102798932D01*
X122939608Y-102619608D01*
X123118932Y-102401101D01*
X123190000Y-102268142D01*
X123261068Y-102401101D01*
X123440392Y-102619608D01*
X123658899Y-102798932D01*
X123908192Y-102932182D01*
X124178691Y-103014236D01*
X124389508Y-103035000D01*
X124530492Y-103035000D01*
X124741309Y-103014236D01*
X125011808Y-102932182D01*
X125261101Y-102798932D01*
X125479608Y-102619608D01*
X125658932Y-102401101D01*
X125730000Y-102268142D01*
X125801068Y-102401101D01*
X125980392Y-102619608D01*
X126198899Y-102798932D01*
X126448192Y-102932182D01*
X126718691Y-103014236D01*
X126929508Y-103035000D01*
X127070492Y-103035000D01*
X127281309Y-103014236D01*
X127551808Y-102932182D01*
X127801101Y-102798932D01*
X128019608Y-102619608D01*
X128198932Y-102401101D01*
X128270000Y-102268142D01*
X128341068Y-102401101D01*
X128520392Y-102619608D01*
X128738899Y-102798932D01*
X128988192Y-102932182D01*
X129258691Y-103014236D01*
X129469508Y-103035000D01*
X129610492Y-103035000D01*
X129821309Y-103014236D01*
X130091808Y-102932182D01*
X130341101Y-102798932D01*
X130559608Y-102619608D01*
X130738932Y-102401101D01*
X130810000Y-102268142D01*
X130881068Y-102401101D01*
X131060392Y-102619608D01*
X131278899Y-102798932D01*
X131528192Y-102932182D01*
X131798691Y-103014236D01*
X132009508Y-103035000D01*
X132150492Y-103035000D01*
X132361309Y-103014236D01*
X132631808Y-102932182D01*
X132881101Y-102798932D01*
X133099608Y-102619608D01*
X133278932Y-102401101D01*
X133350000Y-102268142D01*
X133421068Y-102401101D01*
X133600392Y-102619608D01*
X133818899Y-102798932D01*
X134068192Y-102932182D01*
X134338691Y-103014236D01*
X134549508Y-103035000D01*
X134690492Y-103035000D01*
X134901309Y-103014236D01*
X135171808Y-102932182D01*
X135421101Y-102798932D01*
X135639608Y-102619608D01*
X135818932Y-102401101D01*
X135890000Y-102268142D01*
X135961068Y-102401101D01*
X136140392Y-102619608D01*
X136358899Y-102798932D01*
X136608192Y-102932182D01*
X136878691Y-103014236D01*
X137089508Y-103035000D01*
X137230492Y-103035000D01*
X137441309Y-103014236D01*
X137711808Y-102932182D01*
X137961101Y-102798932D01*
X138179608Y-102619608D01*
X138358932Y-102401101D01*
X138430000Y-102268142D01*
X138501068Y-102401101D01*
X138680392Y-102619608D01*
X138898899Y-102798932D01*
X139148192Y-102932182D01*
X139418691Y-103014236D01*
X139629508Y-103035000D01*
X139770492Y-103035000D01*
X139981309Y-103014236D01*
X140251808Y-102932182D01*
X140501101Y-102798932D01*
X140719608Y-102619608D01*
X140898932Y-102401101D01*
X140972579Y-102263318D01*
X141087615Y-102455131D01*
X141276586Y-102663519D01*
X141502580Y-102831037D01*
X141756913Y-102951246D01*
X141890961Y-102991904D01*
X142113000Y-102869915D01*
X142113000Y-101727000D01*
X142367000Y-101727000D01*
X142367000Y-102869915D01*
X142589039Y-102991904D01*
X142723087Y-102951246D01*
X142977420Y-102831037D01*
X143203414Y-102663519D01*
X143392385Y-102455131D01*
X143537070Y-102213881D01*
X143631909Y-101949040D01*
X143510624Y-101727000D01*
X142367000Y-101727000D01*
X142113000Y-101727000D01*
X142093000Y-101727000D01*
X142093000Y-101473000D01*
X142113000Y-101473000D01*
X142113000Y-100330085D01*
X142367000Y-100330085D01*
X142367000Y-101473000D01*
X143510624Y-101473000D01*
X143631909Y-101250960D01*
X143537070Y-100986119D01*
X143392385Y-100744869D01*
X143203414Y-100536481D01*
X142977420Y-100368963D01*
X142723087Y-100248754D01*
X142589039Y-100208096D01*
X142367000Y-100330085D01*
X142113000Y-100330085D01*
X141890961Y-100208096D01*
X141756913Y-100248754D01*
X141502580Y-100368963D01*
X141276586Y-100536481D01*
X141087615Y-100744869D01*
X140972579Y-100936682D01*
X140898932Y-100798899D01*
X140719608Y-100580392D01*
X140501101Y-100401068D01*
X140251808Y-100267818D01*
X139981309Y-100185764D01*
X139770492Y-100165000D01*
X139629508Y-100165000D01*
X139418691Y-100185764D01*
X139148192Y-100267818D01*
X138898899Y-100401068D01*
X138680392Y-100580392D01*
X138501068Y-100798899D01*
X138430000Y-100931858D01*
X138358932Y-100798899D01*
X138179608Y-100580392D01*
X137961101Y-100401068D01*
X137711808Y-100267818D01*
X137441309Y-100185764D01*
X137230492Y-100165000D01*
X137089508Y-100165000D01*
X136878691Y-100185764D01*
X136608192Y-100267818D01*
X136358899Y-100401068D01*
X136140392Y-100580392D01*
X135961068Y-100798899D01*
X135890000Y-100931858D01*
X135818932Y-100798899D01*
X135639608Y-100580392D01*
X135421101Y-100401068D01*
X135171808Y-100267818D01*
X134901309Y-100185764D01*
X134690492Y-100165000D01*
X134549508Y-100165000D01*
X134338691Y-100185764D01*
X134068192Y-100267818D01*
X133818899Y-100401068D01*
X133600392Y-100580392D01*
X133421068Y-100798899D01*
X133350000Y-100931858D01*
X133278932Y-100798899D01*
X133099608Y-100580392D01*
X132881101Y-100401068D01*
X132631808Y-100267818D01*
X132361309Y-100185764D01*
X132150492Y-100165000D01*
X132009508Y-100165000D01*
X131798691Y-100185764D01*
X131528192Y-100267818D01*
X131278899Y-100401068D01*
X131060392Y-100580392D01*
X130881068Y-100798899D01*
X130810000Y-100931858D01*
X130738932Y-100798899D01*
X130559608Y-100580392D01*
X130341101Y-100401068D01*
X130091808Y-100267818D01*
X129821309Y-100185764D01*
X129610492Y-100165000D01*
X129469508Y-100165000D01*
X129258691Y-100185764D01*
X128988192Y-100267818D01*
X128738899Y-100401068D01*
X128520392Y-100580392D01*
X128341068Y-100798899D01*
X128270000Y-100931858D01*
X128198932Y-100798899D01*
X128019608Y-100580392D01*
X127801101Y-100401068D01*
X127551808Y-100267818D01*
X127281309Y-100185764D01*
X127070492Y-100165000D01*
X126929508Y-100165000D01*
X126718691Y-100185764D01*
X126448192Y-100267818D01*
X126198899Y-100401068D01*
X125980392Y-100580392D01*
X125801068Y-100798899D01*
X125730000Y-100931858D01*
X125658932Y-100798899D01*
X125479608Y-100580392D01*
X125261101Y-100401068D01*
X125011808Y-100267818D01*
X124741309Y-100185764D01*
X124530492Y-100165000D01*
X124389508Y-100165000D01*
X124178691Y-100185764D01*
X123908192Y-100267818D01*
X123658899Y-100401068D01*
X123440392Y-100580392D01*
X123261068Y-100798899D01*
X123190000Y-100931858D01*
X123118932Y-100798899D01*
X122939608Y-100580392D01*
X122721101Y-100401068D01*
X122471808Y-100267818D01*
X122201309Y-100185764D01*
X121990492Y-100165000D01*
X121849508Y-100165000D01*
X121638691Y-100185764D01*
X121368192Y-100267818D01*
X121118899Y-100401068D01*
X120900392Y-100580392D01*
X120721068Y-100798899D01*
X120650000Y-100931858D01*
X120578932Y-100798899D01*
X120399608Y-100580392D01*
X120181101Y-100401068D01*
X119931808Y-100267818D01*
X119661309Y-100185764D01*
X119450492Y-100165000D01*
X119309508Y-100165000D01*
X119098691Y-100185764D01*
X118828192Y-100267818D01*
X118578899Y-100401068D01*
X118360392Y-100580392D01*
X118181068Y-100798899D01*
X118110000Y-100931858D01*
X118038932Y-100798899D01*
X117859608Y-100580392D01*
X117641101Y-100401068D01*
X117391808Y-100267818D01*
X117121309Y-100185764D01*
X116910492Y-100165000D01*
X116769508Y-100165000D01*
X116558691Y-100185764D01*
X116288192Y-100267818D01*
X116038899Y-100401068D01*
X115820392Y-100580392D01*
X115641068Y-100798899D01*
X115570000Y-100931858D01*
X115498932Y-100798899D01*
X115319608Y-100580392D01*
X115101101Y-100401068D01*
X114851808Y-100267818D01*
X114581309Y-100185764D01*
X114370492Y-100165000D01*
X114229508Y-100165000D01*
X114018691Y-100185764D01*
X113748192Y-100267818D01*
X113498899Y-100401068D01*
X113280392Y-100580392D01*
X113101068Y-100798899D01*
X113030000Y-100931858D01*
X112958932Y-100798899D01*
X112779608Y-100580392D01*
X112561101Y-100401068D01*
X112311808Y-100267818D01*
X112041309Y-100185764D01*
X111830492Y-100165000D01*
X111689508Y-100165000D01*
X111478691Y-100185764D01*
X111208192Y-100267818D01*
X110958899Y-100401068D01*
X110740392Y-100580392D01*
X110561068Y-100798899D01*
X110490000Y-100931858D01*
X110418932Y-100798899D01*
X110239608Y-100580392D01*
X110021101Y-100401068D01*
X109771808Y-100267818D01*
X109501309Y-100185764D01*
X109290492Y-100165000D01*
X109149508Y-100165000D01*
X108938691Y-100185764D01*
X108668192Y-100267818D01*
X108418899Y-100401068D01*
X108200392Y-100580392D01*
X108021068Y-100798899D01*
X107950000Y-100931858D01*
X107878932Y-100798899D01*
X107699608Y-100580392D01*
X107481101Y-100401068D01*
X107231808Y-100267818D01*
X106961309Y-100185764D01*
X106750492Y-100165000D01*
X106609508Y-100165000D01*
X106398691Y-100185764D01*
X106128192Y-100267818D01*
X105878899Y-100401068D01*
X105660392Y-100580392D01*
X105481068Y-100798899D01*
X105410000Y-100931858D01*
X105338932Y-100798899D01*
X105159608Y-100580392D01*
X104941101Y-100401068D01*
X104691808Y-100267818D01*
X104421309Y-100185764D01*
X104210492Y-100165000D01*
X104069508Y-100165000D01*
X103858691Y-100185764D01*
X103588192Y-100267818D01*
X103338899Y-100401068D01*
X103120392Y-100580392D01*
X102941068Y-100798899D01*
X102870000Y-100931858D01*
X102798932Y-100798899D01*
X102619608Y-100580392D01*
X102401101Y-100401068D01*
X102151808Y-100267818D01*
X101881309Y-100185764D01*
X101670492Y-100165000D01*
X101529508Y-100165000D01*
X101318691Y-100185764D01*
X101048192Y-100267818D01*
X100798899Y-100401068D01*
X100580392Y-100580392D01*
X100401068Y-100798899D01*
X100330000Y-100931858D01*
X100258932Y-100798899D01*
X100079608Y-100580392D01*
X99861101Y-100401068D01*
X99611808Y-100267818D01*
X99341309Y-100185764D01*
X99130492Y-100165000D01*
X98989508Y-100165000D01*
X98778691Y-100185764D01*
X98508192Y-100267818D01*
X98258899Y-100401068D01*
X98040392Y-100580392D01*
X97861068Y-100798899D01*
X97790000Y-100931858D01*
X97718932Y-100798899D01*
X97539608Y-100580392D01*
X97321101Y-100401068D01*
X97071808Y-100267818D01*
X96801309Y-100185764D01*
X96590492Y-100165000D01*
X96449508Y-100165000D01*
X96238691Y-100185764D01*
X95968192Y-100267818D01*
X95718899Y-100401068D01*
X95500392Y-100580392D01*
X95321068Y-100798899D01*
X95250000Y-100931858D01*
X95178932Y-100798899D01*
X94999608Y-100580392D01*
X94781101Y-100401068D01*
X94531808Y-100267818D01*
X94261309Y-100185764D01*
X94050492Y-100165000D01*
X93909508Y-100165000D01*
X93698691Y-100185764D01*
X93428192Y-100267818D01*
X93178899Y-100401068D01*
X92960392Y-100580392D01*
X92781068Y-100798899D01*
X92707421Y-100936682D01*
X92592385Y-100744869D01*
X92403414Y-100536481D01*
X92177420Y-100368963D01*
X91923087Y-100248754D01*
X91789039Y-100208096D01*
X91567000Y-100330085D01*
X91313000Y-100330085D01*
X91090961Y-100208096D01*
X90956913Y-100248754D01*
X90702580Y-100368963D01*
X90476586Y-100536481D01*
X90287615Y-100744869D01*
X90170000Y-100940982D01*
X90052385Y-100744869D01*
X89863414Y-100536481D01*
X89637420Y-100368963D01*
X89383087Y-100248754D01*
X89249039Y-100208096D01*
X89027000Y-100330085D01*
X88773000Y-100330085D01*
X88550961Y-100208096D01*
X88416913Y-100248754D01*
X88162580Y-100368963D01*
X87936586Y-100536481D01*
X87747615Y-100744869D01*
X87632579Y-100936682D01*
X87558932Y-100798899D01*
X87379608Y-100580392D01*
X87161101Y-100401068D01*
X86911808Y-100267818D01*
X86641309Y-100185764D01*
X86430492Y-100165000D01*
X86289508Y-100165000D01*
X86078691Y-100185764D01*
X85808192Y-100267818D01*
X85558899Y-100401068D01*
X85340392Y-100580392D01*
X85247581Y-100693482D01*
X85245812Y-100675518D01*
X85209502Y-100555820D01*
X85150537Y-100445506D01*
X85071185Y-100348815D01*
X84974494Y-100269463D01*
X84864180Y-100210498D01*
X84744482Y-100174188D01*
X84620000Y-100161928D01*
X84105750Y-100165000D01*
X83947000Y-100323750D01*
X83693000Y-100323750D01*
X83534250Y-100165000D01*
X83020000Y-100161928D01*
X82895518Y-100174188D01*
X82775820Y-100210498D01*
X82665506Y-100269463D01*
X82568815Y-100348815D01*
X82489463Y-100445506D01*
X82430498Y-100555820D01*
X82394188Y-100675518D01*
X82381928Y-100800000D01*
X74320000Y-100800000D01*
X74320000Y-97432702D01*
X76656903Y-97432702D01*
X76728486Y-97676671D01*
X76983996Y-97797571D01*
X77258184Y-97866300D01*
X77540512Y-97880217D01*
X77820130Y-97838787D01*
X78086292Y-97743603D01*
X78211514Y-97676671D01*
X78283097Y-97432702D01*
X77470000Y-96619605D01*
X76656903Y-97432702D01*
X74320000Y-97432702D01*
X74320000Y-96510512D01*
X76029783Y-96510512D01*
X76071213Y-96790130D01*
X76166397Y-97056292D01*
X76233329Y-97181514D01*
X76477298Y-97253097D01*
X77290395Y-96440000D01*
X77649605Y-96440000D01*
X78462702Y-97253097D01*
X78706671Y-97181514D01*
X78827571Y-96926004D01*
X78896300Y-96651816D01*
X78910217Y-96369488D01*
X78868787Y-96089870D01*
X78773603Y-95823708D01*
X78706671Y-95698486D01*
X78462702Y-95626903D01*
X77649605Y-96440000D01*
X77290395Y-96440000D01*
X76477298Y-95626903D01*
X76233329Y-95698486D01*
X76112429Y-95953996D01*
X76043700Y-96228184D01*
X76029783Y-96510512D01*
X74320000Y-96510512D01*
X74320000Y-95447298D01*
X76656903Y-95447298D01*
X77470000Y-96260395D01*
X78283097Y-95447298D01*
X78211514Y-95203329D01*
X77956004Y-95082429D01*
X77681816Y-95013700D01*
X77399488Y-94999783D01*
X77119870Y-95041213D01*
X76853708Y-95136397D01*
X76728486Y-95203329D01*
X76656903Y-95447298D01*
X74320000Y-95447298D01*
X74320000Y-91298665D01*
X76035000Y-91298665D01*
X76035000Y-91581335D01*
X76090147Y-91858574D01*
X76198320Y-92119727D01*
X76355363Y-92354759D01*
X76555241Y-92554637D01*
X76790273Y-92711680D01*
X77051426Y-92819853D01*
X77328665Y-92875000D01*
X77611335Y-92875000D01*
X77888574Y-92819853D01*
X78149727Y-92711680D01*
X78384759Y-92554637D01*
X78584637Y-92354759D01*
X78741680Y-92119727D01*
X78849853Y-91858574D01*
X78905000Y-91581335D01*
X78905000Y-91298665D01*
X78849853Y-91021426D01*
X78741680Y-90760273D01*
X78584637Y-90525241D01*
X78384759Y-90325363D01*
X78149727Y-90168320D01*
X77888574Y-90060147D01*
X77611335Y-90005000D01*
X77328665Y-90005000D01*
X77051426Y-90060147D01*
X76790273Y-90168320D01*
X76555241Y-90325363D01*
X76355363Y-90525241D01*
X76198320Y-90760273D01*
X76090147Y-91021426D01*
X76035000Y-91298665D01*
X74320000Y-91298665D01*
X74320000Y-86360000D01*
X82378057Y-86360000D01*
X82405764Y-86641309D01*
X82487818Y-86911808D01*
X82621068Y-87161101D01*
X82800392Y-87379608D01*
X83018899Y-87558932D01*
X83268192Y-87692182D01*
X83538691Y-87774236D01*
X83749508Y-87795000D01*
X83890492Y-87795000D01*
X84101309Y-87774236D01*
X84371808Y-87692182D01*
X84621101Y-87558932D01*
X84839608Y-87379608D01*
X85018932Y-87161101D01*
X85092579Y-87023318D01*
X85207615Y-87215131D01*
X85396586Y-87423519D01*
X85622580Y-87591037D01*
X85876913Y-87711246D01*
X86010961Y-87751904D01*
X86233000Y-87629915D01*
X86233000Y-86487000D01*
X86213000Y-86487000D01*
X86213000Y-86233000D01*
X86233000Y-86233000D01*
X86233000Y-85090085D01*
X86487000Y-85090085D01*
X86487000Y-86233000D01*
X86507000Y-86233000D01*
X86507000Y-86487000D01*
X86487000Y-86487000D01*
X86487000Y-87629915D01*
X86709039Y-87751904D01*
X86843087Y-87711246D01*
X87097420Y-87591037D01*
X87323414Y-87423519D01*
X87512385Y-87215131D01*
X87627421Y-87023318D01*
X87701068Y-87161101D01*
X87880392Y-87379608D01*
X88098899Y-87558932D01*
X88348192Y-87692182D01*
X88618691Y-87774236D01*
X88829508Y-87795000D01*
X88970492Y-87795000D01*
X89181309Y-87774236D01*
X89451808Y-87692182D01*
X89701101Y-87558932D01*
X89919608Y-87379608D01*
X90098932Y-87161101D01*
X90172579Y-87023318D01*
X90287615Y-87215131D01*
X90476586Y-87423519D01*
X90702580Y-87591037D01*
X90956913Y-87711246D01*
X91090961Y-87751904D01*
X91313000Y-87629915D01*
X91313000Y-86487000D01*
X91567000Y-86487000D01*
X91567000Y-87629915D01*
X91789039Y-87751904D01*
X91923087Y-87711246D01*
X92177420Y-87591037D01*
X92403414Y-87423519D01*
X92592385Y-87215131D01*
X92710000Y-87019018D01*
X92827615Y-87215131D01*
X93016586Y-87423519D01*
X93242580Y-87591037D01*
X93496913Y-87711246D01*
X93630961Y-87751904D01*
X93853000Y-87629915D01*
X93853000Y-86487000D01*
X91567000Y-86487000D01*
X91313000Y-86487000D01*
X91293000Y-86487000D01*
X91293000Y-86233000D01*
X91313000Y-86233000D01*
X91313000Y-85090085D01*
X91567000Y-85090085D01*
X91567000Y-86233000D01*
X93853000Y-86233000D01*
X93853000Y-85090085D01*
X94107000Y-85090085D01*
X94107000Y-86233000D01*
X94127000Y-86233000D01*
X94127000Y-86487000D01*
X94107000Y-86487000D01*
X94107000Y-87629915D01*
X94329039Y-87751904D01*
X94463087Y-87711246D01*
X94717420Y-87591037D01*
X94943414Y-87423519D01*
X95132385Y-87215131D01*
X95247421Y-87023318D01*
X95321068Y-87161101D01*
X95500392Y-87379608D01*
X95718899Y-87558932D01*
X95968192Y-87692182D01*
X96238691Y-87774236D01*
X96449508Y-87795000D01*
X96590492Y-87795000D01*
X96801309Y-87774236D01*
X97071808Y-87692182D01*
X97321101Y-87558932D01*
X97539608Y-87379608D01*
X97718932Y-87161101D01*
X97790000Y-87028142D01*
X97861068Y-87161101D01*
X98040392Y-87379608D01*
X98258899Y-87558932D01*
X98508192Y-87692182D01*
X98778691Y-87774236D01*
X98989508Y-87795000D01*
X99130492Y-87795000D01*
X99341309Y-87774236D01*
X99611808Y-87692182D01*
X99861101Y-87558932D01*
X100079608Y-87379608D01*
X100258932Y-87161101D01*
X100330000Y-87028142D01*
X100401068Y-87161101D01*
X100580392Y-87379608D01*
X100798899Y-87558932D01*
X101048192Y-87692182D01*
X101318691Y-87774236D01*
X101529508Y-87795000D01*
X101670492Y-87795000D01*
X101881309Y-87774236D01*
X102151808Y-87692182D01*
X102401101Y-87558932D01*
X102619608Y-87379608D01*
X102798932Y-87161101D01*
X102870000Y-87028142D01*
X102941068Y-87161101D01*
X103120392Y-87379608D01*
X103338899Y-87558932D01*
X103588192Y-87692182D01*
X103858691Y-87774236D01*
X104069508Y-87795000D01*
X104210492Y-87795000D01*
X104421309Y-87774236D01*
X104691808Y-87692182D01*
X104941101Y-87558932D01*
X105159608Y-87379608D01*
X105338932Y-87161101D01*
X105410000Y-87028142D01*
X105481068Y-87161101D01*
X105660392Y-87379608D01*
X105878899Y-87558932D01*
X106128192Y-87692182D01*
X106398691Y-87774236D01*
X106609508Y-87795000D01*
X106750492Y-87795000D01*
X106961309Y-87774236D01*
X107231808Y-87692182D01*
X107481101Y-87558932D01*
X107699608Y-87379608D01*
X107878932Y-87161101D01*
X107950000Y-87028142D01*
X108021068Y-87161101D01*
X108200392Y-87379608D01*
X108418899Y-87558932D01*
X108668192Y-87692182D01*
X108938691Y-87774236D01*
X109149508Y-87795000D01*
X109290492Y-87795000D01*
X109501309Y-87774236D01*
X109771808Y-87692182D01*
X110021101Y-87558932D01*
X110239608Y-87379608D01*
X110418932Y-87161101D01*
X110490000Y-87028142D01*
X110561068Y-87161101D01*
X110740392Y-87379608D01*
X110958899Y-87558932D01*
X111208192Y-87692182D01*
X111478691Y-87774236D01*
X111689508Y-87795000D01*
X111830492Y-87795000D01*
X112041309Y-87774236D01*
X112311808Y-87692182D01*
X112561101Y-87558932D01*
X112779608Y-87379608D01*
X112958932Y-87161101D01*
X113030000Y-87028142D01*
X113101068Y-87161101D01*
X113280392Y-87379608D01*
X113498899Y-87558932D01*
X113748192Y-87692182D01*
X114018691Y-87774236D01*
X114229508Y-87795000D01*
X114370492Y-87795000D01*
X114581309Y-87774236D01*
X114851808Y-87692182D01*
X115101101Y-87558932D01*
X115319608Y-87379608D01*
X115498932Y-87161101D01*
X115570000Y-87028142D01*
X115641068Y-87161101D01*
X115820392Y-87379608D01*
X116038899Y-87558932D01*
X116288192Y-87692182D01*
X116558691Y-87774236D01*
X116769508Y-87795000D01*
X116910492Y-87795000D01*
X117121309Y-87774236D01*
X117391808Y-87692182D01*
X117641101Y-87558932D01*
X117859608Y-87379608D01*
X118038932Y-87161101D01*
X118110000Y-87028142D01*
X118181068Y-87161101D01*
X118360392Y-87379608D01*
X118578899Y-87558932D01*
X118828192Y-87692182D01*
X119098691Y-87774236D01*
X119309508Y-87795000D01*
X119450492Y-87795000D01*
X119661309Y-87774236D01*
X119931808Y-87692182D01*
X120181101Y-87558932D01*
X120399608Y-87379608D01*
X120578932Y-87161101D01*
X120650000Y-87028142D01*
X120721068Y-87161101D01*
X120900392Y-87379608D01*
X121118899Y-87558932D01*
X121368192Y-87692182D01*
X121638691Y-87774236D01*
X121849508Y-87795000D01*
X121990492Y-87795000D01*
X122201309Y-87774236D01*
X122471808Y-87692182D01*
X122721101Y-87558932D01*
X122939608Y-87379608D01*
X123118932Y-87161101D01*
X123190000Y-87028142D01*
X123261068Y-87161101D01*
X123440392Y-87379608D01*
X123658899Y-87558932D01*
X123908192Y-87692182D01*
X124178691Y-87774236D01*
X124389508Y-87795000D01*
X124530492Y-87795000D01*
X124741309Y-87774236D01*
X125011808Y-87692182D01*
X125261101Y-87558932D01*
X125479608Y-87379608D01*
X125658932Y-87161101D01*
X125730000Y-87028142D01*
X125801068Y-87161101D01*
X125980392Y-87379608D01*
X126198899Y-87558932D01*
X126448192Y-87692182D01*
X126718691Y-87774236D01*
X126929508Y-87795000D01*
X127070492Y-87795000D01*
X127281309Y-87774236D01*
X127551808Y-87692182D01*
X127801101Y-87558932D01*
X128019608Y-87379608D01*
X128198932Y-87161101D01*
X128270000Y-87028142D01*
X128341068Y-87161101D01*
X128520392Y-87379608D01*
X128738899Y-87558932D01*
X128988192Y-87692182D01*
X129258691Y-87774236D01*
X129469508Y-87795000D01*
X129610492Y-87795000D01*
X129821309Y-87774236D01*
X130091808Y-87692182D01*
X130341101Y-87558932D01*
X130559608Y-87379608D01*
X130738932Y-87161101D01*
X130810000Y-87028142D01*
X130881068Y-87161101D01*
X131060392Y-87379608D01*
X131278899Y-87558932D01*
X131528192Y-87692182D01*
X131798691Y-87774236D01*
X132009508Y-87795000D01*
X132150492Y-87795000D01*
X132361309Y-87774236D01*
X132631808Y-87692182D01*
X132881101Y-87558932D01*
X133099608Y-87379608D01*
X133278932Y-87161101D01*
X133350000Y-87028142D01*
X133421068Y-87161101D01*
X133600392Y-87379608D01*
X133818899Y-87558932D01*
X134068192Y-87692182D01*
X134338691Y-87774236D01*
X134549508Y-87795000D01*
X134690492Y-87795000D01*
X134901309Y-87774236D01*
X135171808Y-87692182D01*
X135421101Y-87558932D01*
X135639608Y-87379608D01*
X135818932Y-87161101D01*
X135890000Y-87028142D01*
X135961068Y-87161101D01*
X136140392Y-87379608D01*
X136358899Y-87558932D01*
X136608192Y-87692182D01*
X136878691Y-87774236D01*
X137089508Y-87795000D01*
X137230492Y-87795000D01*
X137441309Y-87774236D01*
X137711808Y-87692182D01*
X137961101Y-87558932D01*
X138179608Y-87379608D01*
X138358932Y-87161101D01*
X138430000Y-87028142D01*
X138501068Y-87161101D01*
X138680392Y-87379608D01*
X138898899Y-87558932D01*
X139148192Y-87692182D01*
X139418691Y-87774236D01*
X139629508Y-87795000D01*
X139770492Y-87795000D01*
X139981309Y-87774236D01*
X140251808Y-87692182D01*
X140501101Y-87558932D01*
X140719608Y-87379608D01*
X140898932Y-87161101D01*
X140970000Y-87028142D01*
X141041068Y-87161101D01*
X141220392Y-87379608D01*
X141438899Y-87558932D01*
X141688192Y-87692182D01*
X141958691Y-87774236D01*
X142169508Y-87795000D01*
X142310492Y-87795000D01*
X142521309Y-87774236D01*
X142791808Y-87692182D01*
X143041101Y-87558932D01*
X143259608Y-87379608D01*
X143438932Y-87161101D01*
X143572182Y-86911808D01*
X143654236Y-86641309D01*
X143681943Y-86360000D01*
X143654236Y-86078691D01*
X143572182Y-85808192D01*
X143438932Y-85558899D01*
X143259608Y-85340392D01*
X143041101Y-85161068D01*
X142791808Y-85027818D01*
X142521309Y-84945764D01*
X142310492Y-84925000D01*
X142169508Y-84925000D01*
X141958691Y-84945764D01*
X141688192Y-85027818D01*
X141438899Y-85161068D01*
X141220392Y-85340392D01*
X141041068Y-85558899D01*
X140970000Y-85691858D01*
X140898932Y-85558899D01*
X140719608Y-85340392D01*
X140501101Y-85161068D01*
X140251808Y-85027818D01*
X139981309Y-84945764D01*
X139770492Y-84925000D01*
X139629508Y-84925000D01*
X139418691Y-84945764D01*
X139148192Y-85027818D01*
X138898899Y-85161068D01*
X138680392Y-85340392D01*
X138501068Y-85558899D01*
X138430000Y-85691858D01*
X138358932Y-85558899D01*
X138179608Y-85340392D01*
X137961101Y-85161068D01*
X137711808Y-85027818D01*
X137441309Y-84945764D01*
X137230492Y-84925000D01*
X137089508Y-84925000D01*
X136878691Y-84945764D01*
X136608192Y-85027818D01*
X136358899Y-85161068D01*
X136140392Y-85340392D01*
X135961068Y-85558899D01*
X135890000Y-85691858D01*
X135818932Y-85558899D01*
X135639608Y-85340392D01*
X135421101Y-85161068D01*
X135171808Y-85027818D01*
X134901309Y-84945764D01*
X134690492Y-84925000D01*
X134549508Y-84925000D01*
X134338691Y-84945764D01*
X134068192Y-85027818D01*
X133818899Y-85161068D01*
X133600392Y-85340392D01*
X133421068Y-85558899D01*
X133350000Y-85691858D01*
X133278932Y-85558899D01*
X133099608Y-85340392D01*
X132881101Y-85161068D01*
X132631808Y-85027818D01*
X132361309Y-84945764D01*
X132150492Y-84925000D01*
X132009508Y-84925000D01*
X131798691Y-84945764D01*
X131528192Y-85027818D01*
X131278899Y-85161068D01*
X131060392Y-85340392D01*
X130881068Y-85558899D01*
X130810000Y-85691858D01*
X130738932Y-85558899D01*
X130559608Y-85340392D01*
X130341101Y-85161068D01*
X130091808Y-85027818D01*
X129821309Y-84945764D01*
X129610492Y-84925000D01*
X129469508Y-84925000D01*
X129258691Y-84945764D01*
X128988192Y-85027818D01*
X128738899Y-85161068D01*
X128520392Y-85340392D01*
X128341068Y-85558899D01*
X128270000Y-85691858D01*
X128198932Y-85558899D01*
X128019608Y-85340392D01*
X127801101Y-85161068D01*
X127551808Y-85027818D01*
X127281309Y-84945764D01*
X127070492Y-84925000D01*
X126929508Y-84925000D01*
X126718691Y-84945764D01*
X126448192Y-85027818D01*
X126198899Y-85161068D01*
X125980392Y-85340392D01*
X125801068Y-85558899D01*
X125730000Y-85691858D01*
X125658932Y-85558899D01*
X125479608Y-85340392D01*
X125261101Y-85161068D01*
X125011808Y-85027818D01*
X124741309Y-84945764D01*
X124530492Y-84925000D01*
X124389508Y-84925000D01*
X124178691Y-84945764D01*
X123908192Y-85027818D01*
X123658899Y-85161068D01*
X123440392Y-85340392D01*
X123261068Y-85558899D01*
X123190000Y-85691858D01*
X123118932Y-85558899D01*
X122939608Y-85340392D01*
X122721101Y-85161068D01*
X122471808Y-85027818D01*
X122201309Y-84945764D01*
X121990492Y-84925000D01*
X121849508Y-84925000D01*
X121638691Y-84945764D01*
X121368192Y-85027818D01*
X121118899Y-85161068D01*
X120900392Y-85340392D01*
X120721068Y-85558899D01*
X120650000Y-85691858D01*
X120578932Y-85558899D01*
X120399608Y-85340392D01*
X120181101Y-85161068D01*
X119931808Y-85027818D01*
X119661309Y-84945764D01*
X119450492Y-84925000D01*
X119309508Y-84925000D01*
X119098691Y-84945764D01*
X118828192Y-85027818D01*
X118578899Y-85161068D01*
X118360392Y-85340392D01*
X118181068Y-85558899D01*
X118110000Y-85691858D01*
X118038932Y-85558899D01*
X117859608Y-85340392D01*
X117641101Y-85161068D01*
X117391808Y-85027818D01*
X117121309Y-84945764D01*
X116910492Y-84925000D01*
X116769508Y-84925000D01*
X116558691Y-84945764D01*
X116288192Y-85027818D01*
X116038899Y-85161068D01*
X115820392Y-85340392D01*
X115641068Y-85558899D01*
X115570000Y-85691858D01*
X115498932Y-85558899D01*
X115319608Y-85340392D01*
X115101101Y-85161068D01*
X114851808Y-85027818D01*
X114581309Y-84945764D01*
X114370492Y-84925000D01*
X114229508Y-84925000D01*
X114018691Y-84945764D01*
X113748192Y-85027818D01*
X113498899Y-85161068D01*
X113280392Y-85340392D01*
X113101068Y-85558899D01*
X113030000Y-85691858D01*
X112958932Y-85558899D01*
X112779608Y-85340392D01*
X112561101Y-85161068D01*
X112311808Y-85027818D01*
X112041309Y-84945764D01*
X111830492Y-84925000D01*
X111689508Y-84925000D01*
X111478691Y-84945764D01*
X111208192Y-85027818D01*
X110958899Y-85161068D01*
X110740392Y-85340392D01*
X110561068Y-85558899D01*
X110490000Y-85691858D01*
X110418932Y-85558899D01*
X110239608Y-85340392D01*
X110021101Y-85161068D01*
X109771808Y-85027818D01*
X109501309Y-84945764D01*
X109290492Y-84925000D01*
X109149508Y-84925000D01*
X108938691Y-84945764D01*
X108668192Y-85027818D01*
X108418899Y-85161068D01*
X108200392Y-85340392D01*
X108021068Y-85558899D01*
X107950000Y-85691858D01*
X107878932Y-85558899D01*
X107699608Y-85340392D01*
X107481101Y-85161068D01*
X107231808Y-85027818D01*
X106961309Y-84945764D01*
X106750492Y-84925000D01*
X106609508Y-84925000D01*
X106398691Y-84945764D01*
X106128192Y-85027818D01*
X105878899Y-85161068D01*
X105660392Y-85340392D01*
X105481068Y-85558899D01*
X105410000Y-85691858D01*
X105338932Y-85558899D01*
X105159608Y-85340392D01*
X104941101Y-85161068D01*
X104691808Y-85027818D01*
X104421309Y-84945764D01*
X104210492Y-84925000D01*
X104069508Y-84925000D01*
X103858691Y-84945764D01*
X103588192Y-85027818D01*
X103338899Y-85161068D01*
X103120392Y-85340392D01*
X102941068Y-85558899D01*
X102870000Y-85691858D01*
X102798932Y-85558899D01*
X102619608Y-85340392D01*
X102401101Y-85161068D01*
X102151808Y-85027818D01*
X101881309Y-84945764D01*
X101670492Y-84925000D01*
X101529508Y-84925000D01*
X101318691Y-84945764D01*
X101048192Y-85027818D01*
X100798899Y-85161068D01*
X100580392Y-85340392D01*
X100401068Y-85558899D01*
X100330000Y-85691858D01*
X100258932Y-85558899D01*
X100079608Y-85340392D01*
X99861101Y-85161068D01*
X99611808Y-85027818D01*
X99341309Y-84945764D01*
X99130492Y-84925000D01*
X98989508Y-84925000D01*
X98778691Y-84945764D01*
X98508192Y-85027818D01*
X98258899Y-85161068D01*
X98040392Y-85340392D01*
X97861068Y-85558899D01*
X97790000Y-85691858D01*
X97718932Y-85558899D01*
X97539608Y-85340392D01*
X97321101Y-85161068D01*
X97071808Y-85027818D01*
X96801309Y-84945764D01*
X96590492Y-84925000D01*
X96449508Y-84925000D01*
X96238691Y-84945764D01*
X95968192Y-85027818D01*
X95718899Y-85161068D01*
X95500392Y-85340392D01*
X95321068Y-85558899D01*
X95247421Y-85696682D01*
X95132385Y-85504869D01*
X94943414Y-85296481D01*
X94717420Y-85128963D01*
X94463087Y-85008754D01*
X94329039Y-84968096D01*
X94107000Y-85090085D01*
X93853000Y-85090085D01*
X93630961Y-84968096D01*
X93496913Y-85008754D01*
X93242580Y-85128963D01*
X93016586Y-85296481D01*
X92827615Y-85504869D01*
X92710000Y-85700982D01*
X92592385Y-85504869D01*
X92403414Y-85296481D01*
X92177420Y-85128963D01*
X91923087Y-85008754D01*
X91789039Y-84968096D01*
X91567000Y-85090085D01*
X91313000Y-85090085D01*
X91090961Y-84968096D01*
X90956913Y-85008754D01*
X90702580Y-85128963D01*
X90476586Y-85296481D01*
X90287615Y-85504869D01*
X90172579Y-85696682D01*
X90098932Y-85558899D01*
X89919608Y-85340392D01*
X89701101Y-85161068D01*
X89451808Y-85027818D01*
X89181309Y-84945764D01*
X88970492Y-84925000D01*
X88829508Y-84925000D01*
X88618691Y-84945764D01*
X88348192Y-85027818D01*
X88098899Y-85161068D01*
X87880392Y-85340392D01*
X87701068Y-85558899D01*
X87627421Y-85696682D01*
X87512385Y-85504869D01*
X87323414Y-85296481D01*
X87097420Y-85128963D01*
X86843087Y-85008754D01*
X86709039Y-84968096D01*
X86487000Y-85090085D01*
X86233000Y-85090085D01*
X86010961Y-84968096D01*
X85876913Y-85008754D01*
X85622580Y-85128963D01*
X85396586Y-85296481D01*
X85207615Y-85504869D01*
X85092579Y-85696682D01*
X85018932Y-85558899D01*
X84839608Y-85340392D01*
X84621101Y-85161068D01*
X84371808Y-85027818D01*
X84101309Y-84945764D01*
X83890492Y-84925000D01*
X83749508Y-84925000D01*
X83538691Y-84945764D01*
X83268192Y-85027818D01*
X83018899Y-85161068D01*
X82800392Y-85340392D01*
X82621068Y-85558899D01*
X82487818Y-85808192D01*
X82405764Y-86078691D01*
X82378057Y-86360000D01*
X74320000Y-86360000D01*
X74320000Y-79210000D01*
X102701928Y-79210000D01*
X102701928Y-80810000D01*
X102714188Y-80934482D01*
X102750498Y-81054180D01*
X102809463Y-81164494D01*
X102888815Y-81261185D01*
X102985506Y-81340537D01*
X103095820Y-81399502D01*
X103215518Y-81435812D01*
X103340000Y-81448072D01*
X104940000Y-81448072D01*
X105064482Y-81435812D01*
X105184180Y-81399502D01*
X105294494Y-81340537D01*
X105391185Y-81261185D01*
X105470537Y-81164494D01*
X105529502Y-81054180D01*
X105565812Y-80934482D01*
X105567581Y-80916518D01*
X105660392Y-81029608D01*
X105878899Y-81208932D01*
X106128192Y-81342182D01*
X106398691Y-81424236D01*
X106609508Y-81445000D01*
X106750492Y-81445000D01*
X106961309Y-81424236D01*
X107231808Y-81342182D01*
X107481101Y-81208932D01*
X107699608Y-81029608D01*
X107878932Y-80811101D01*
X107950000Y-80678142D01*
X108021068Y-80811101D01*
X108200392Y-81029608D01*
X108418899Y-81208932D01*
X108668192Y-81342182D01*
X108938691Y-81424236D01*
X109149508Y-81445000D01*
X109290492Y-81445000D01*
X109501309Y-81424236D01*
X109771808Y-81342182D01*
X110021101Y-81208932D01*
X110239608Y-81029608D01*
X110418932Y-80811101D01*
X110492579Y-80673318D01*
X110607615Y-80865131D01*
X110796586Y-81073519D01*
X111022580Y-81241037D01*
X111276913Y-81361246D01*
X111410961Y-81401904D01*
X111633000Y-81279915D01*
X111633000Y-80137000D01*
X111613000Y-80137000D01*
X111613000Y-79883000D01*
X111633000Y-79883000D01*
X111633000Y-78740085D01*
X111887000Y-78740085D01*
X111887000Y-79883000D01*
X111907000Y-79883000D01*
X111907000Y-80137000D01*
X111887000Y-80137000D01*
X111887000Y-81279915D01*
X112109039Y-81401904D01*
X112243087Y-81361246D01*
X112497420Y-81241037D01*
X112723414Y-81073519D01*
X112912385Y-80865131D01*
X113027421Y-80673318D01*
X113101068Y-80811101D01*
X113280392Y-81029608D01*
X113498899Y-81208932D01*
X113748192Y-81342182D01*
X114018691Y-81424236D01*
X114229508Y-81445000D01*
X114370492Y-81445000D01*
X114581309Y-81424236D01*
X114851808Y-81342182D01*
X115101101Y-81208932D01*
X115319608Y-81029608D01*
X115498932Y-80811101D01*
X115570000Y-80678142D01*
X115641068Y-80811101D01*
X115820392Y-81029608D01*
X116038899Y-81208932D01*
X116288192Y-81342182D01*
X116558691Y-81424236D01*
X116769508Y-81445000D01*
X116910492Y-81445000D01*
X117121309Y-81424236D01*
X117391808Y-81342182D01*
X117641101Y-81208932D01*
X117859608Y-81029608D01*
X118038932Y-80811101D01*
X118110000Y-80678142D01*
X118181068Y-80811101D01*
X118360392Y-81029608D01*
X118578899Y-81208932D01*
X118828192Y-81342182D01*
X119098691Y-81424236D01*
X119309508Y-81445000D01*
X119450492Y-81445000D01*
X119661309Y-81424236D01*
X119931808Y-81342182D01*
X120181101Y-81208932D01*
X120399608Y-81029608D01*
X120578932Y-80811101D01*
X120650000Y-80678142D01*
X120721068Y-80811101D01*
X120900392Y-81029608D01*
X121118899Y-81208932D01*
X121368192Y-81342182D01*
X121638691Y-81424236D01*
X121849508Y-81445000D01*
X121990492Y-81445000D01*
X122201309Y-81424236D01*
X122471808Y-81342182D01*
X122721101Y-81208932D01*
X122939608Y-81029608D01*
X123118932Y-80811101D01*
X123190000Y-80678142D01*
X123261068Y-80811101D01*
X123440392Y-81029608D01*
X123658899Y-81208932D01*
X123908192Y-81342182D01*
X124178691Y-81424236D01*
X124389508Y-81445000D01*
X124530492Y-81445000D01*
X124741309Y-81424236D01*
X125011808Y-81342182D01*
X125261101Y-81208932D01*
X125479608Y-81029608D01*
X125658932Y-80811101D01*
X125730000Y-80678142D01*
X125801068Y-80811101D01*
X125980392Y-81029608D01*
X126198899Y-81208932D01*
X126448192Y-81342182D01*
X126718691Y-81424236D01*
X126929508Y-81445000D01*
X127070492Y-81445000D01*
X127281309Y-81424236D01*
X127551808Y-81342182D01*
X127801101Y-81208932D01*
X128019608Y-81029608D01*
X128198932Y-80811101D01*
X128270000Y-80678142D01*
X128341068Y-80811101D01*
X128520392Y-81029608D01*
X128738899Y-81208932D01*
X128988192Y-81342182D01*
X129258691Y-81424236D01*
X129469508Y-81445000D01*
X129610492Y-81445000D01*
X129821309Y-81424236D01*
X130091808Y-81342182D01*
X130341101Y-81208932D01*
X130559608Y-81029608D01*
X130738932Y-80811101D01*
X130810000Y-80678142D01*
X130881068Y-80811101D01*
X131060392Y-81029608D01*
X131278899Y-81208932D01*
X131528192Y-81342182D01*
X131798691Y-81424236D01*
X132009508Y-81445000D01*
X132150492Y-81445000D01*
X132361309Y-81424236D01*
X132631808Y-81342182D01*
X132881101Y-81208932D01*
X133099608Y-81029608D01*
X133278932Y-80811101D01*
X133350000Y-80678142D01*
X133421068Y-80811101D01*
X133600392Y-81029608D01*
X133818899Y-81208932D01*
X134068192Y-81342182D01*
X134338691Y-81424236D01*
X134549508Y-81445000D01*
X134690492Y-81445000D01*
X134901309Y-81424236D01*
X135171808Y-81342182D01*
X135421101Y-81208932D01*
X135639608Y-81029608D01*
X135818932Y-80811101D01*
X135890000Y-80678142D01*
X135961068Y-80811101D01*
X136140392Y-81029608D01*
X136358899Y-81208932D01*
X136608192Y-81342182D01*
X136878691Y-81424236D01*
X137089508Y-81445000D01*
X137230492Y-81445000D01*
X137441309Y-81424236D01*
X137711808Y-81342182D01*
X137961101Y-81208932D01*
X138179608Y-81029608D01*
X138358932Y-80811101D01*
X138430000Y-80678142D01*
X138501068Y-80811101D01*
X138680392Y-81029608D01*
X138898899Y-81208932D01*
X139148192Y-81342182D01*
X139418691Y-81424236D01*
X139629508Y-81445000D01*
X139770492Y-81445000D01*
X139981309Y-81424236D01*
X140251808Y-81342182D01*
X140501101Y-81208932D01*
X140719608Y-81029608D01*
X140898932Y-80811101D01*
X141032182Y-80561808D01*
X141114236Y-80291309D01*
X141141943Y-80010000D01*
X141114236Y-79728691D01*
X141032182Y-79458192D01*
X140898932Y-79208899D01*
X140719608Y-78990392D01*
X140501101Y-78811068D01*
X140251808Y-78677818D01*
X139981309Y-78595764D01*
X139770492Y-78575000D01*
X139629508Y-78575000D01*
X139418691Y-78595764D01*
X139148192Y-78677818D01*
X138898899Y-78811068D01*
X138680392Y-78990392D01*
X138501068Y-79208899D01*
X138430000Y-79341858D01*
X138358932Y-79208899D01*
X138179608Y-78990392D01*
X137961101Y-78811068D01*
X137711808Y-78677818D01*
X137441309Y-78595764D01*
X137230492Y-78575000D01*
X137089508Y-78575000D01*
X136878691Y-78595764D01*
X136608192Y-78677818D01*
X136358899Y-78811068D01*
X136140392Y-78990392D01*
X135961068Y-79208899D01*
X135890000Y-79341858D01*
X135818932Y-79208899D01*
X135639608Y-78990392D01*
X135421101Y-78811068D01*
X135171808Y-78677818D01*
X134901309Y-78595764D01*
X134690492Y-78575000D01*
X134549508Y-78575000D01*
X134338691Y-78595764D01*
X134068192Y-78677818D01*
X133818899Y-78811068D01*
X133600392Y-78990392D01*
X133421068Y-79208899D01*
X133350000Y-79341858D01*
X133278932Y-79208899D01*
X133099608Y-78990392D01*
X132881101Y-78811068D01*
X132631808Y-78677818D01*
X132361309Y-78595764D01*
X132150492Y-78575000D01*
X132009508Y-78575000D01*
X131798691Y-78595764D01*
X131528192Y-78677818D01*
X131278899Y-78811068D01*
X131060392Y-78990392D01*
X130881068Y-79208899D01*
X130810000Y-79341858D01*
X130738932Y-79208899D01*
X130559608Y-78990392D01*
X130341101Y-78811068D01*
X130091808Y-78677818D01*
X129821309Y-78595764D01*
X129610492Y-78575000D01*
X129469508Y-78575000D01*
X129258691Y-78595764D01*
X128988192Y-78677818D01*
X128738899Y-78811068D01*
X128520392Y-78990392D01*
X128341068Y-79208899D01*
X128270000Y-79341858D01*
X128198932Y-79208899D01*
X128019608Y-78990392D01*
X127801101Y-78811068D01*
X127551808Y-78677818D01*
X127281309Y-78595764D01*
X127070492Y-78575000D01*
X126929508Y-78575000D01*
X126718691Y-78595764D01*
X126448192Y-78677818D01*
X126198899Y-78811068D01*
X125980392Y-78990392D01*
X125801068Y-79208899D01*
X125730000Y-79341858D01*
X125658932Y-79208899D01*
X125479608Y-78990392D01*
X125261101Y-78811068D01*
X125011808Y-78677818D01*
X124741309Y-78595764D01*
X124530492Y-78575000D01*
X124389508Y-78575000D01*
X124178691Y-78595764D01*
X123908192Y-78677818D01*
X123658899Y-78811068D01*
X123440392Y-78990392D01*
X123261068Y-79208899D01*
X123190000Y-79341858D01*
X123118932Y-79208899D01*
X122939608Y-78990392D01*
X122721101Y-78811068D01*
X122471808Y-78677818D01*
X122201309Y-78595764D01*
X121990492Y-78575000D01*
X121849508Y-78575000D01*
X121638691Y-78595764D01*
X121368192Y-78677818D01*
X121118899Y-78811068D01*
X120900392Y-78990392D01*
X120721068Y-79208899D01*
X120650000Y-79341858D01*
X120578932Y-79208899D01*
X120399608Y-78990392D01*
X120181101Y-78811068D01*
X119931808Y-78677818D01*
X119661309Y-78595764D01*
X119450492Y-78575000D01*
X119309508Y-78575000D01*
X119098691Y-78595764D01*
X118828192Y-78677818D01*
X118578899Y-78811068D01*
X118360392Y-78990392D01*
X118181068Y-79208899D01*
X118110000Y-79341858D01*
X118038932Y-79208899D01*
X117859608Y-78990392D01*
X117641101Y-78811068D01*
X117391808Y-78677818D01*
X117121309Y-78595764D01*
X116910492Y-78575000D01*
X116769508Y-78575000D01*
X116558691Y-78595764D01*
X116288192Y-78677818D01*
X116038899Y-78811068D01*
X115820392Y-78990392D01*
X115641068Y-79208899D01*
X115570000Y-79341858D01*
X115498932Y-79208899D01*
X115319608Y-78990392D01*
X115101101Y-78811068D01*
X114851808Y-78677818D01*
X114581309Y-78595764D01*
X114370492Y-78575000D01*
X114229508Y-78575000D01*
X114018691Y-78595764D01*
X113748192Y-78677818D01*
X113498899Y-78811068D01*
X113280392Y-78990392D01*
X113101068Y-79208899D01*
X113027421Y-79346682D01*
X112912385Y-79154869D01*
X112723414Y-78946481D01*
X112497420Y-78778963D01*
X112243087Y-78658754D01*
X112109039Y-78618096D01*
X111887000Y-78740085D01*
X111633000Y-78740085D01*
X111410961Y-78618096D01*
X111276913Y-78658754D01*
X111022580Y-78778963D01*
X110796586Y-78946481D01*
X110607615Y-79154869D01*
X110492579Y-79346682D01*
X110418932Y-79208899D01*
X110239608Y-78990392D01*
X110021101Y-78811068D01*
X109771808Y-78677818D01*
X109501309Y-78595764D01*
X109290492Y-78575000D01*
X109149508Y-78575000D01*
X108938691Y-78595764D01*
X108668192Y-78677818D01*
X108418899Y-78811068D01*
X108200392Y-78990392D01*
X108021068Y-79208899D01*
X107950000Y-79341858D01*
X107878932Y-79208899D01*
X107699608Y-78990392D01*
X107481101Y-78811068D01*
X107231808Y-78677818D01*
X106961309Y-78595764D01*
X106750492Y-78575000D01*
X106609508Y-78575000D01*
X106398691Y-78595764D01*
X106128192Y-78677818D01*
X105878899Y-78811068D01*
X105660392Y-78990392D01*
X105567581Y-79103482D01*
X105565812Y-79085518D01*
X105529502Y-78965820D01*
X105470537Y-78855506D01*
X105391185Y-78758815D01*
X105294494Y-78679463D01*
X105184180Y-78620498D01*
X105064482Y-78584188D01*
X104940000Y-78571928D01*
X103340000Y-78571928D01*
X103215518Y-78584188D01*
X103095820Y-78620498D01*
X102985506Y-78679463D01*
X102888815Y-78758815D01*
X102809463Y-78855506D01*
X102750498Y-78965820D01*
X102714188Y-79085518D01*
X102701928Y-79210000D01*
X74320000Y-79210000D01*
X74320000Y-64770000D01*
X102698057Y-64770000D01*
X102725764Y-65051309D01*
X102807818Y-65321808D01*
X102941068Y-65571101D01*
X103120392Y-65789608D01*
X103338899Y-65968932D01*
X103588192Y-66102182D01*
X103858691Y-66184236D01*
X104069508Y-66205000D01*
X104210492Y-66205000D01*
X104421309Y-66184236D01*
X104691808Y-66102182D01*
X104941101Y-65968932D01*
X105159608Y-65789608D01*
X105338932Y-65571101D01*
X105412579Y-65433318D01*
X105527615Y-65625131D01*
X105716586Y-65833519D01*
X105942580Y-66001037D01*
X106196913Y-66121246D01*
X106330961Y-66161904D01*
X106553000Y-66039915D01*
X106553000Y-64897000D01*
X106533000Y-64897000D01*
X106533000Y-64643000D01*
X106553000Y-64643000D01*
X106553000Y-63500085D01*
X106807000Y-63500085D01*
X106807000Y-64643000D01*
X106827000Y-64643000D01*
X106827000Y-64897000D01*
X106807000Y-64897000D01*
X106807000Y-66039915D01*
X107029039Y-66161904D01*
X107163087Y-66121246D01*
X107417420Y-66001037D01*
X107643414Y-65833519D01*
X107832385Y-65625131D01*
X107947421Y-65433318D01*
X108021068Y-65571101D01*
X108200392Y-65789608D01*
X108418899Y-65968932D01*
X108668192Y-66102182D01*
X108938691Y-66184236D01*
X109149508Y-66205000D01*
X109290492Y-66205000D01*
X109501309Y-66184236D01*
X109771808Y-66102182D01*
X110021101Y-65968932D01*
X110239608Y-65789608D01*
X110418932Y-65571101D01*
X110490000Y-65438142D01*
X110561068Y-65571101D01*
X110740392Y-65789608D01*
X110958899Y-65968932D01*
X111208192Y-66102182D01*
X111478691Y-66184236D01*
X111689508Y-66205000D01*
X111830492Y-66205000D01*
X112041309Y-66184236D01*
X112311808Y-66102182D01*
X112561101Y-65968932D01*
X112779608Y-65789608D01*
X112958932Y-65571101D01*
X113030000Y-65438142D01*
X113101068Y-65571101D01*
X113280392Y-65789608D01*
X113498899Y-65968932D01*
X113748192Y-66102182D01*
X114018691Y-66184236D01*
X114229508Y-66205000D01*
X114370492Y-66205000D01*
X114581309Y-66184236D01*
X114851808Y-66102182D01*
X115101101Y-65968932D01*
X115319608Y-65789608D01*
X115498932Y-65571101D01*
X115570000Y-65438142D01*
X115641068Y-65571101D01*
X115820392Y-65789608D01*
X116038899Y-65968932D01*
X116288192Y-66102182D01*
X116558691Y-66184236D01*
X116769508Y-66205000D01*
X116910492Y-66205000D01*
X117121309Y-66184236D01*
X117391808Y-66102182D01*
X117641101Y-65968932D01*
X117859608Y-65789608D01*
X118038932Y-65571101D01*
X118110000Y-65438142D01*
X118181068Y-65571101D01*
X118360392Y-65789608D01*
X118578899Y-65968932D01*
X118828192Y-66102182D01*
X119098691Y-66184236D01*
X119309508Y-66205000D01*
X119450492Y-66205000D01*
X119661309Y-66184236D01*
X119931808Y-66102182D01*
X120181101Y-65968932D01*
X120399608Y-65789608D01*
X120578932Y-65571101D01*
X120650000Y-65438142D01*
X120721068Y-65571101D01*
X120900392Y-65789608D01*
X121118899Y-65968932D01*
X121368192Y-66102182D01*
X121638691Y-66184236D01*
X121849508Y-66205000D01*
X121990492Y-66205000D01*
X122201309Y-66184236D01*
X122471808Y-66102182D01*
X122721101Y-65968932D01*
X122939608Y-65789608D01*
X123118932Y-65571101D01*
X123190000Y-65438142D01*
X123261068Y-65571101D01*
X123440392Y-65789608D01*
X123658899Y-65968932D01*
X123908192Y-66102182D01*
X124178691Y-66184236D01*
X124389508Y-66205000D01*
X124530492Y-66205000D01*
X124741309Y-66184236D01*
X125011808Y-66102182D01*
X125261101Y-65968932D01*
X125479608Y-65789608D01*
X125658932Y-65571101D01*
X125730000Y-65438142D01*
X125801068Y-65571101D01*
X125980392Y-65789608D01*
X126198899Y-65968932D01*
X126448192Y-66102182D01*
X126718691Y-66184236D01*
X126929508Y-66205000D01*
X127070492Y-66205000D01*
X127281309Y-66184236D01*
X127551808Y-66102182D01*
X127801101Y-65968932D01*
X128019608Y-65789608D01*
X128198932Y-65571101D01*
X128270000Y-65438142D01*
X128341068Y-65571101D01*
X128520392Y-65789608D01*
X128738899Y-65968932D01*
X128988192Y-66102182D01*
X129258691Y-66184236D01*
X129469508Y-66205000D01*
X129610492Y-66205000D01*
X129821309Y-66184236D01*
X130091808Y-66102182D01*
X130341101Y-65968932D01*
X130559608Y-65789608D01*
X130738932Y-65571101D01*
X130810000Y-65438142D01*
X130881068Y-65571101D01*
X131060392Y-65789608D01*
X131278899Y-65968932D01*
X131528192Y-66102182D01*
X131798691Y-66184236D01*
X132009508Y-66205000D01*
X132150492Y-66205000D01*
X132361309Y-66184236D01*
X132631808Y-66102182D01*
X132881101Y-65968932D01*
X133099608Y-65789608D01*
X133278932Y-65571101D01*
X133352579Y-65433318D01*
X133467615Y-65625131D01*
X133656586Y-65833519D01*
X133882580Y-66001037D01*
X134136913Y-66121246D01*
X134270961Y-66161904D01*
X134493000Y-66039915D01*
X134493000Y-64897000D01*
X134473000Y-64897000D01*
X134473000Y-64643000D01*
X134493000Y-64643000D01*
X134493000Y-63500085D01*
X134747000Y-63500085D01*
X134747000Y-64643000D01*
X134767000Y-64643000D01*
X134767000Y-64897000D01*
X134747000Y-64897000D01*
X134747000Y-66039915D01*
X134969039Y-66161904D01*
X135103087Y-66121246D01*
X135357420Y-66001037D01*
X135583414Y-65833519D01*
X135772385Y-65625131D01*
X135887421Y-65433318D01*
X135961068Y-65571101D01*
X136140392Y-65789608D01*
X136358899Y-65968932D01*
X136608192Y-66102182D01*
X136878691Y-66184236D01*
X137089508Y-66205000D01*
X137230492Y-66205000D01*
X137441309Y-66184236D01*
X137711808Y-66102182D01*
X137961101Y-65968932D01*
X138179608Y-65789608D01*
X138358932Y-65571101D01*
X138430000Y-65438142D01*
X138501068Y-65571101D01*
X138680392Y-65789608D01*
X138898899Y-65968932D01*
X139148192Y-66102182D01*
X139418691Y-66184236D01*
X139629508Y-66205000D01*
X139770492Y-66205000D01*
X139981309Y-66184236D01*
X140251808Y-66102182D01*
X140501101Y-65968932D01*
X140719608Y-65789608D01*
X140898932Y-65571101D01*
X141032182Y-65321808D01*
X141114236Y-65051309D01*
X141141943Y-64770000D01*
X141114236Y-64488691D01*
X141032182Y-64218192D01*
X140898932Y-63968899D01*
X140719608Y-63750392D01*
X140501101Y-63571068D01*
X140251808Y-63437818D01*
X139981309Y-63355764D01*
X139770492Y-63335000D01*
X139629508Y-63335000D01*
X139418691Y-63355764D01*
X139148192Y-63437818D01*
X138898899Y-63571068D01*
X138680392Y-63750392D01*
X138501068Y-63968899D01*
X138430000Y-64101858D01*
X138358932Y-63968899D01*
X138179608Y-63750392D01*
X137961101Y-63571068D01*
X137711808Y-63437818D01*
X137441309Y-63355764D01*
X137230492Y-63335000D01*
X137089508Y-63335000D01*
X136878691Y-63355764D01*
X136608192Y-63437818D01*
X136358899Y-63571068D01*
X136140392Y-63750392D01*
X135961068Y-63968899D01*
X135887421Y-64106682D01*
X135772385Y-63914869D01*
X135583414Y-63706481D01*
X135357420Y-63538963D01*
X135103087Y-63418754D01*
X134969039Y-63378096D01*
X134747000Y-63500085D01*
X134493000Y-63500085D01*
X134270961Y-63378096D01*
X134136913Y-63418754D01*
X133882580Y-63538963D01*
X133656586Y-63706481D01*
X133467615Y-63914869D01*
X133352579Y-64106682D01*
X133278932Y-63968899D01*
X133099608Y-63750392D01*
X132881101Y-63571068D01*
X132631808Y-63437818D01*
X132361309Y-63355764D01*
X132150492Y-63335000D01*
X132009508Y-63335000D01*
X131798691Y-63355764D01*
X131528192Y-63437818D01*
X131278899Y-63571068D01*
X131060392Y-63750392D01*
X130881068Y-63968899D01*
X130810000Y-64101858D01*
X130738932Y-63968899D01*
X130559608Y-63750392D01*
X130341101Y-63571068D01*
X130091808Y-63437818D01*
X129821309Y-63355764D01*
X129610492Y-63335000D01*
X129469508Y-63335000D01*
X129258691Y-63355764D01*
X128988192Y-63437818D01*
X128738899Y-63571068D01*
X128520392Y-63750392D01*
X128341068Y-63968899D01*
X128270000Y-64101858D01*
X128198932Y-63968899D01*
X128019608Y-63750392D01*
X127801101Y-63571068D01*
X127551808Y-63437818D01*
X127281309Y-63355764D01*
X127070492Y-63335000D01*
X126929508Y-63335000D01*
X126718691Y-63355764D01*
X126448192Y-63437818D01*
X126198899Y-63571068D01*
X125980392Y-63750392D01*
X125801068Y-63968899D01*
X125730000Y-64101858D01*
X125658932Y-63968899D01*
X125479608Y-63750392D01*
X125261101Y-63571068D01*
X125011808Y-63437818D01*
X124741309Y-63355764D01*
X124530492Y-63335000D01*
X124389508Y-63335000D01*
X124178691Y-63355764D01*
X123908192Y-63437818D01*
X123658899Y-63571068D01*
X123440392Y-63750392D01*
X123261068Y-63968899D01*
X123190000Y-64101858D01*
X123118932Y-63968899D01*
X122939608Y-63750392D01*
X122721101Y-63571068D01*
X122471808Y-63437818D01*
X122201309Y-63355764D01*
X121990492Y-63335000D01*
X121849508Y-63335000D01*
X121638691Y-63355764D01*
X121368192Y-63437818D01*
X121118899Y-63571068D01*
X120900392Y-63750392D01*
X120721068Y-63968899D01*
X120650000Y-64101858D01*
X120578932Y-63968899D01*
X120399608Y-63750392D01*
X120181101Y-63571068D01*
X119931808Y-63437818D01*
X119661309Y-63355764D01*
X119450492Y-63335000D01*
X119309508Y-63335000D01*
X119098691Y-63355764D01*
X118828192Y-63437818D01*
X118578899Y-63571068D01*
X118360392Y-63750392D01*
X118181068Y-63968899D01*
X118110000Y-64101858D01*
X118038932Y-63968899D01*
X117859608Y-63750392D01*
X117641101Y-63571068D01*
X117391808Y-63437818D01*
X117121309Y-63355764D01*
X116910492Y-63335000D01*
X116769508Y-63335000D01*
X116558691Y-63355764D01*
X116288192Y-63437818D01*
X116038899Y-63571068D01*
X115820392Y-63750392D01*
X115641068Y-63968899D01*
X115570000Y-64101858D01*
X115498932Y-63968899D01*
X115319608Y-63750392D01*
X115101101Y-63571068D01*
X114851808Y-63437818D01*
X114581309Y-63355764D01*
X114370492Y-63335000D01*
X114229508Y-63335000D01*
X114018691Y-63355764D01*
X113748192Y-63437818D01*
X113498899Y-63571068D01*
X113280392Y-63750392D01*
X113101068Y-63968899D01*
X113030000Y-64101858D01*
X112958932Y-63968899D01*
X112779608Y-63750392D01*
X112561101Y-63571068D01*
X112311808Y-63437818D01*
X112041309Y-63355764D01*
X111830492Y-63335000D01*
X111689508Y-63335000D01*
X111478691Y-63355764D01*
X111208192Y-63437818D01*
X110958899Y-63571068D01*
X110740392Y-63750392D01*
X110561068Y-63968899D01*
X110490000Y-64101858D01*
X110418932Y-63968899D01*
X110239608Y-63750392D01*
X110021101Y-63571068D01*
X109771808Y-63437818D01*
X109501309Y-63355764D01*
X109290492Y-63335000D01*
X109149508Y-63335000D01*
X108938691Y-63355764D01*
X108668192Y-63437818D01*
X108418899Y-63571068D01*
X108200392Y-63750392D01*
X108021068Y-63968899D01*
X107947421Y-64106682D01*
X107832385Y-63914869D01*
X107643414Y-63706481D01*
X107417420Y-63538963D01*
X107163087Y-63418754D01*
X107029039Y-63378096D01*
X106807000Y-63500085D01*
X106553000Y-63500085D01*
X106330961Y-63378096D01*
X106196913Y-63418754D01*
X105942580Y-63538963D01*
X105716586Y-63706481D01*
X105527615Y-63914869D01*
X105412579Y-64106682D01*
X105338932Y-63968899D01*
X105159608Y-63750392D01*
X104941101Y-63571068D01*
X104691808Y-63437818D01*
X104421309Y-63355764D01*
X104210492Y-63335000D01*
X104069508Y-63335000D01*
X103858691Y-63355764D01*
X103588192Y-63437818D01*
X103338899Y-63571068D01*
X103120392Y-63750392D01*
X102941068Y-63968899D01*
X102807818Y-64218192D01*
X102725764Y-64488691D01*
X102698057Y-64770000D01*
X74320000Y-64770000D01*
X74320000Y-63532279D01*
X74334722Y-63382131D01*
X74368953Y-63268754D01*
X74424555Y-63164181D01*
X74499407Y-63072404D01*
X74590664Y-62996909D01*
X74694844Y-62940581D01*
X74807976Y-62905560D01*
X74956022Y-62890000D01*
X147930001Y-62890000D01*
X147930000Y-112370000D01*
M02*
