G04 #@! TF.GenerationSoftware,KiCad,Pcbnew,(5.1.0-0)*
G04 #@! TF.CreationDate,2019-09-18T19:57:21-07:00*
G04 #@! TF.ProjectId,LEDRiser8,4c454452-6973-4657-9238-2e6b69636164,rev?*
G04 #@! TF.SameCoordinates,Original*
G04 #@! TF.FileFunction,Legend,Bot*
G04 #@! TF.FilePolarity,Positive*
%FSLAX46Y46*%
G04 Gerber Fmt 4.6, Leading zero omitted, Abs format (unit mm)*
G04 Created by KiCad (PCBNEW (5.1.0-0)) date 2019-09-18 19:57:21*
%MOMM*%
%LPD*%
G04 APERTURE LIST*
%ADD10C,0.150000*%
%ADD11C,0.120000*%
G04 APERTURE END LIST*
D10*
X123371238Y-75001952D02*
X123466476Y-74954333D01*
X123514095Y-74906714D01*
X123561714Y-74811476D01*
X123561714Y-74763857D01*
X123514095Y-74668619D01*
X123466476Y-74621000D01*
X123371238Y-74573380D01*
X123180761Y-74573380D01*
X123085523Y-74621000D01*
X123037904Y-74668619D01*
X122990285Y-74763857D01*
X122990285Y-74811476D01*
X123037904Y-74906714D01*
X123085523Y-74954333D01*
X123180761Y-75001952D01*
X123371238Y-75001952D01*
X123466476Y-75049571D01*
X123514095Y-75097190D01*
X123561714Y-75192428D01*
X123561714Y-75382904D01*
X123514095Y-75478142D01*
X123466476Y-75525761D01*
X123371238Y-75573380D01*
X123180761Y-75573380D01*
X123085523Y-75525761D01*
X123037904Y-75478142D01*
X122990285Y-75382904D01*
X122990285Y-75192428D01*
X123037904Y-75097190D01*
X123085523Y-75049571D01*
X123180761Y-75001952D01*
X122561714Y-75192428D02*
X121799809Y-75192428D01*
X121323619Y-75573380D02*
X121323619Y-74573380D01*
X121323619Y-74954333D02*
X121228380Y-74906714D01*
X121037904Y-74906714D01*
X120942666Y-74954333D01*
X120895047Y-75001952D01*
X120847428Y-75097190D01*
X120847428Y-75382904D01*
X120895047Y-75478142D01*
X120942666Y-75525761D01*
X121037904Y-75573380D01*
X121228380Y-75573380D01*
X121323619Y-75525761D01*
X120418857Y-75573380D02*
X120418857Y-74906714D01*
X120418857Y-74573380D02*
X120466476Y-74621000D01*
X120418857Y-74668619D01*
X120371238Y-74621000D01*
X120418857Y-74573380D01*
X120418857Y-74668619D01*
X120085523Y-74906714D02*
X119704571Y-74906714D01*
X119942666Y-74573380D02*
X119942666Y-75430523D01*
X119895047Y-75525761D01*
X119799809Y-75573380D01*
X119704571Y-75573380D01*
X118133142Y-75573380D02*
X118609333Y-75573380D01*
X118609333Y-74573380D01*
X117799809Y-75049571D02*
X117466476Y-75049571D01*
X117323619Y-75573380D02*
X117799809Y-75573380D01*
X117799809Y-74573380D01*
X117323619Y-74573380D01*
X116895047Y-75573380D02*
X116895047Y-74573380D01*
X116656952Y-74573380D01*
X116514095Y-74621000D01*
X116418857Y-74716238D01*
X116371238Y-74811476D01*
X116323619Y-75001952D01*
X116323619Y-75144809D01*
X116371238Y-75335285D01*
X116418857Y-75430523D01*
X116514095Y-75525761D01*
X116656952Y-75573380D01*
X116895047Y-75573380D01*
X115133142Y-75573380D02*
X115133142Y-74906714D01*
X115133142Y-75097190D02*
X115085523Y-75001952D01*
X115037904Y-74954333D01*
X114942666Y-74906714D01*
X114847428Y-74906714D01*
X114514095Y-75573380D02*
X114514095Y-74906714D01*
X114514095Y-74573380D02*
X114561714Y-74621000D01*
X114514095Y-74668619D01*
X114466476Y-74621000D01*
X114514095Y-74573380D01*
X114514095Y-74668619D01*
X114085523Y-75525761D02*
X113990285Y-75573380D01*
X113799809Y-75573380D01*
X113704571Y-75525761D01*
X113656952Y-75430523D01*
X113656952Y-75382904D01*
X113704571Y-75287666D01*
X113799809Y-75240047D01*
X113942666Y-75240047D01*
X114037904Y-75192428D01*
X114085523Y-75097190D01*
X114085523Y-75049571D01*
X114037904Y-74954333D01*
X113942666Y-74906714D01*
X113799809Y-74906714D01*
X113704571Y-74954333D01*
X112847428Y-75525761D02*
X112942666Y-75573380D01*
X113133142Y-75573380D01*
X113228380Y-75525761D01*
X113276000Y-75430523D01*
X113276000Y-75049571D01*
X113228380Y-74954333D01*
X113133142Y-74906714D01*
X112942666Y-74906714D01*
X112847428Y-74954333D01*
X112799809Y-75049571D01*
X112799809Y-75144809D01*
X113276000Y-75240047D01*
X112371238Y-75573380D02*
X112371238Y-74906714D01*
X112371238Y-75097190D02*
X112323619Y-75001952D01*
X112276000Y-74954333D01*
X112180761Y-74906714D01*
X112085523Y-74906714D01*
X110990285Y-75573380D02*
X110990285Y-74573380D01*
X110990285Y-74954333D02*
X110895047Y-74906714D01*
X110704571Y-74906714D01*
X110609333Y-74954333D01*
X110561714Y-75001952D01*
X110514095Y-75097190D01*
X110514095Y-75382904D01*
X110561714Y-75478142D01*
X110609333Y-75525761D01*
X110704571Y-75573380D01*
X110895047Y-75573380D01*
X110990285Y-75525761D01*
X109942666Y-75573380D02*
X110037904Y-75525761D01*
X110085523Y-75478142D01*
X110133142Y-75382904D01*
X110133142Y-75097190D01*
X110085523Y-75001952D01*
X110037904Y-74954333D01*
X109942666Y-74906714D01*
X109799809Y-74906714D01*
X109704571Y-74954333D01*
X109656952Y-75001952D01*
X109609333Y-75097190D01*
X109609333Y-75382904D01*
X109656952Y-75478142D01*
X109704571Y-75525761D01*
X109799809Y-75573380D01*
X109942666Y-75573380D01*
X108752190Y-75573380D02*
X108752190Y-75049571D01*
X108799809Y-74954333D01*
X108895047Y-74906714D01*
X109085523Y-74906714D01*
X109180761Y-74954333D01*
X108752190Y-75525761D02*
X108847428Y-75573380D01*
X109085523Y-75573380D01*
X109180761Y-75525761D01*
X109228380Y-75430523D01*
X109228380Y-75335285D01*
X109180761Y-75240047D01*
X109085523Y-75192428D01*
X108847428Y-75192428D01*
X108752190Y-75144809D01*
X108276000Y-75573380D02*
X108276000Y-74906714D01*
X108276000Y-75097190D02*
X108228380Y-75001952D01*
X108180761Y-74954333D01*
X108085523Y-74906714D01*
X107990285Y-74906714D01*
X107228380Y-75573380D02*
X107228380Y-74573380D01*
X107228380Y-75525761D02*
X107323619Y-75573380D01*
X107514095Y-75573380D01*
X107609333Y-75525761D01*
X107656952Y-75478142D01*
X107704571Y-75382904D01*
X107704571Y-75097190D01*
X107656952Y-75001952D01*
X107609333Y-74954333D01*
X107514095Y-74906714D01*
X107323619Y-74906714D01*
X107228380Y-74954333D01*
X106704571Y-75525761D02*
X106704571Y-75573380D01*
X106752190Y-75668619D01*
X106799809Y-75716238D01*
X105514095Y-75573380D02*
X105514095Y-74906714D01*
X105514095Y-75097190D02*
X105466476Y-75001952D01*
X105418857Y-74954333D01*
X105323619Y-74906714D01*
X105228380Y-74906714D01*
X104514095Y-75525761D02*
X104609333Y-75573380D01*
X104799809Y-75573380D01*
X104895047Y-75525761D01*
X104942666Y-75430523D01*
X104942666Y-75049571D01*
X104895047Y-74954333D01*
X104799809Y-74906714D01*
X104609333Y-74906714D01*
X104514095Y-74954333D01*
X104466476Y-75049571D01*
X104466476Y-75144809D01*
X104942666Y-75240047D01*
X104133142Y-74906714D02*
X103895047Y-75573380D01*
X103656952Y-74906714D01*
X101990285Y-75573380D02*
X102561714Y-75573380D01*
X102276000Y-75573380D02*
X102276000Y-74573380D01*
X102371238Y-74716238D01*
X102466476Y-74811476D01*
X102561714Y-74859095D01*
X116847428Y-76937666D02*
X116371238Y-76937666D01*
X116942666Y-77223380D02*
X116609333Y-76223380D01*
X116276000Y-77223380D01*
X115942666Y-76556714D02*
X115942666Y-77223380D01*
X115942666Y-76651952D02*
X115895047Y-76604333D01*
X115799809Y-76556714D01*
X115656952Y-76556714D01*
X115561714Y-76604333D01*
X115514095Y-76699571D01*
X115514095Y-77223380D01*
X114609333Y-77223380D02*
X114609333Y-76223380D01*
X114609333Y-77175761D02*
X114704571Y-77223380D01*
X114895047Y-77223380D01*
X114990285Y-77175761D01*
X115037904Y-77128142D01*
X115085523Y-77032904D01*
X115085523Y-76747190D01*
X115037904Y-76651952D01*
X114990285Y-76604333D01*
X114895047Y-76556714D01*
X114704571Y-76556714D01*
X114609333Y-76604333D01*
X114133142Y-77223380D02*
X114133142Y-76556714D01*
X114133142Y-76747190D02*
X114085523Y-76651952D01*
X114037904Y-76604333D01*
X113942666Y-76556714D01*
X113847428Y-76556714D01*
X113133142Y-77175761D02*
X113228380Y-77223380D01*
X113418857Y-77223380D01*
X113514095Y-77175761D01*
X113561714Y-77080523D01*
X113561714Y-76699571D01*
X113514095Y-76604333D01*
X113418857Y-76556714D01*
X113228380Y-76556714D01*
X113133142Y-76604333D01*
X113085523Y-76699571D01*
X113085523Y-76794809D01*
X113561714Y-76890047D01*
X112752190Y-76556714D02*
X112561714Y-77223380D01*
X112371238Y-76747190D01*
X112180761Y-77223380D01*
X111990285Y-76556714D01*
X110514095Y-76699571D02*
X110847428Y-76699571D01*
X110847428Y-77223380D02*
X110847428Y-76223380D01*
X110371238Y-76223380D01*
X109847428Y-77223380D02*
X109942666Y-77175761D01*
X109990285Y-77128142D01*
X110037904Y-77032904D01*
X110037904Y-76747190D01*
X109990285Y-76651952D01*
X109942666Y-76604333D01*
X109847428Y-76556714D01*
X109704571Y-76556714D01*
X109609333Y-76604333D01*
X109561714Y-76651952D01*
X109514095Y-76747190D01*
X109514095Y-77032904D01*
X109561714Y-77128142D01*
X109609333Y-77175761D01*
X109704571Y-77223380D01*
X109847428Y-77223380D01*
X109180761Y-77223380D02*
X108656952Y-76556714D01*
X109180761Y-76556714D02*
X108656952Y-77223380D01*
D11*
X125471000Y-70164000D02*
X125471000Y-68834000D01*
X124141000Y-70164000D02*
X125471000Y-70164000D01*
X122871000Y-70164000D02*
X122871000Y-67504000D01*
X122871000Y-67504000D02*
X102491000Y-67504000D01*
X122871000Y-70164000D02*
X102491000Y-70164000D01*
X102491000Y-70164000D02*
X102491000Y-67504000D01*
D10*
X125923380Y-68500666D02*
X126637666Y-68500666D01*
X126780523Y-68453047D01*
X126875761Y-68357809D01*
X126923380Y-68214952D01*
X126923380Y-68119714D01*
X126923380Y-69500666D02*
X126923380Y-68929238D01*
X126923380Y-69214952D02*
X125923380Y-69214952D01*
X126066238Y-69119714D01*
X126161476Y-69024476D01*
X126209095Y-68929238D01*
M02*
