M48
; DRILL file {KiCad (5.1.0-0)} date Wednesday, September 18, 2019 at 07:57:15 PM
; FORMAT={-:-/ absolute / inch / decimal}
; #@! TF.CreationDate,2019-09-18T19:57:15-07:00
; #@! TF.GenerationSoftware,Kicad,Pcbnew,(5.1.0-0)
FMAT,2
INCH
T1C0.0315
T2C0.0360
T3C0.0394
%
G90
G05
T1
X4.08Y-3.27
X4.18Y-3.27
X4.28Y-3.27
X4.38Y-3.27
X4.48Y-3.27
X4.58Y-3.27
X4.68Y-3.27
X4.78Y-3.27
X4.88Y-3.27
T2
X3.99Y-2.84
X3.99Y-3.14
X4.09Y-2.84
X4.09Y-3.14
X4.19Y-2.84
X4.19Y-3.14
X4.29Y-2.84
X4.29Y-3.14
X4.39Y-2.84
X4.39Y-3.14
X4.49Y-2.84
X4.49Y-3.14
X4.59Y-2.84
X4.59Y-3.14
X4.69Y-2.84
X4.69Y-3.14
X4.79Y-2.84
X4.79Y-3.14
X4.89Y-2.84
X4.89Y-3.14
T3
X4.0874Y-2.71
X4.1874Y-2.71
X4.2874Y-2.71
X4.3874Y-2.71
X4.4874Y-2.71
X4.5874Y-2.71
X4.6874Y-2.71
X4.7874Y-2.71
X4.8874Y-2.71
T0
M30
