G04 #@! TF.GenerationSoftware,KiCad,Pcbnew,(5.1.0-0)*
G04 #@! TF.CreationDate,2019-09-18T19:57:21-07:00*
G04 #@! TF.ProjectId,LEDRiser8,4c454452-6973-4657-9238-2e6b69636164,rev?*
G04 #@! TF.SameCoordinates,Original*
G04 #@! TF.FileFunction,Legend,Top*
G04 #@! TF.FilePolarity,Positive*
%FSLAX46Y46*%
G04 Gerber Fmt 4.6, Leading zero omitted, Abs format (unit mm)*
G04 Created by KiCad (PCBNEW (5.1.0-0)) date 2019-09-18 19:57:21*
%MOMM*%
%LPD*%
G04 APERTURE LIST*
%ADD10C,0.120000*%
%ADD11C,0.150000*%
G04 APERTURE END LIST*
D10*
X122682000Y-84458000D02*
X122682000Y-81658000D01*
X102192000Y-84458000D02*
X125392000Y-84458000D01*
X102192000Y-81658000D02*
X102192000Y-84458000D01*
X125392000Y-81658000D02*
X102192000Y-81658000D01*
X125392000Y-84458000D02*
X125392000Y-81658000D01*
X125616000Y-81166000D02*
X99936000Y-81166000D01*
X125616000Y-70726000D02*
X125616000Y-81166000D01*
X99936000Y-70726000D02*
X125616000Y-70726000D01*
X99936000Y-81166000D02*
X99936000Y-70726000D01*
X125906000Y-70436000D02*
X124206000Y-70436000D01*
X125906000Y-72136000D02*
X125906000Y-70436000D01*
D11*
X111950666Y-75620571D02*
X112093523Y-75668190D01*
X112141142Y-75715809D01*
X112188761Y-75811047D01*
X112188761Y-75953904D01*
X112141142Y-76049142D01*
X112093523Y-76096761D01*
X111998285Y-76144380D01*
X111617333Y-76144380D01*
X111617333Y-75144380D01*
X111950666Y-75144380D01*
X112045904Y-75192000D01*
X112093523Y-75239619D01*
X112141142Y-75334857D01*
X112141142Y-75430095D01*
X112093523Y-75525333D01*
X112045904Y-75572952D01*
X111950666Y-75620571D01*
X111617333Y-75620571D01*
X112569714Y-75858666D02*
X113045904Y-75858666D01*
X112474476Y-76144380D02*
X112807809Y-75144380D01*
X113141142Y-76144380D01*
X114045904Y-76144380D02*
X113712571Y-75668190D01*
X113474476Y-76144380D02*
X113474476Y-75144380D01*
X113855428Y-75144380D01*
X113950666Y-75192000D01*
X113998285Y-75239619D01*
X114045904Y-75334857D01*
X114045904Y-75477714D01*
X113998285Y-75572952D01*
X113950666Y-75620571D01*
X113855428Y-75668190D01*
X113474476Y-75668190D01*
X114998285Y-76144380D02*
X114426857Y-76144380D01*
X114712571Y-76144380D02*
X114712571Y-75144380D01*
X114617333Y-75287238D01*
X114522095Y-75382476D01*
X114426857Y-75430095D01*
M02*
