G04 #@! TF.GenerationSoftware,KiCad,Pcbnew,(5.1.0-0)*
G04 #@! TF.CreationDate,2019-12-15T16:20:11-08:00*
G04 #@! TF.ProjectId,ArduinoSerialCard,41726475-696e-46f5-9365-7269616c4361,rev?*
G04 #@! TF.SameCoordinates,Original*
G04 #@! TF.FileFunction,Legend,Bot*
G04 #@! TF.FilePolarity,Positive*
%FSLAX46Y46*%
G04 Gerber Fmt 4.6, Leading zero omitted, Abs format (unit mm)*
G04 Created by KiCad (PCBNEW (5.1.0-0)) date 2019-12-15 16:20:11*
%MOMM*%
%LPD*%
G04 APERTURE LIST*
%ADD10C,0.300000*%
G04 APERTURE END LIST*
D10*
X150410000Y-78985000D02*
X149695714Y-78985000D01*
X150552857Y-79413571D02*
X150052857Y-77913571D01*
X149552857Y-79413571D01*
X149052857Y-79413571D02*
X149052857Y-78413571D01*
X149052857Y-78699285D02*
X148981428Y-78556428D01*
X148910000Y-78485000D01*
X148767142Y-78413571D01*
X148624285Y-78413571D01*
X147481428Y-79413571D02*
X147481428Y-77913571D01*
X147481428Y-79342142D02*
X147624285Y-79413571D01*
X147910000Y-79413571D01*
X148052857Y-79342142D01*
X148124285Y-79270714D01*
X148195714Y-79127857D01*
X148195714Y-78699285D01*
X148124285Y-78556428D01*
X148052857Y-78485000D01*
X147910000Y-78413571D01*
X147624285Y-78413571D01*
X147481428Y-78485000D01*
X146124285Y-78413571D02*
X146124285Y-79413571D01*
X146767142Y-78413571D02*
X146767142Y-79199285D01*
X146695714Y-79342142D01*
X146552857Y-79413571D01*
X146338571Y-79413571D01*
X146195714Y-79342142D01*
X146124285Y-79270714D01*
X145410000Y-79413571D02*
X145410000Y-78413571D01*
X145410000Y-77913571D02*
X145481428Y-77985000D01*
X145410000Y-78056428D01*
X145338571Y-77985000D01*
X145410000Y-77913571D01*
X145410000Y-78056428D01*
X144695714Y-78413571D02*
X144695714Y-79413571D01*
X144695714Y-78556428D02*
X144624285Y-78485000D01*
X144481428Y-78413571D01*
X144267142Y-78413571D01*
X144124285Y-78485000D01*
X144052857Y-78627857D01*
X144052857Y-79413571D01*
X143124285Y-79413571D02*
X143267142Y-79342142D01*
X143338571Y-79270714D01*
X143410000Y-79127857D01*
X143410000Y-78699285D01*
X143338571Y-78556428D01*
X143267142Y-78485000D01*
X143124285Y-78413571D01*
X142910000Y-78413571D01*
X142767142Y-78485000D01*
X142695714Y-78556428D01*
X142624285Y-78699285D01*
X142624285Y-79127857D01*
X142695714Y-79270714D01*
X142767142Y-79342142D01*
X142910000Y-79413571D01*
X143124285Y-79413571D01*
X140910000Y-79342142D02*
X140695714Y-79413571D01*
X140338571Y-79413571D01*
X140195714Y-79342142D01*
X140124285Y-79270714D01*
X140052857Y-79127857D01*
X140052857Y-78985000D01*
X140124285Y-78842142D01*
X140195714Y-78770714D01*
X140338571Y-78699285D01*
X140624285Y-78627857D01*
X140767142Y-78556428D01*
X140838571Y-78485000D01*
X140910000Y-78342142D01*
X140910000Y-78199285D01*
X140838571Y-78056428D01*
X140767142Y-77985000D01*
X140624285Y-77913571D01*
X140267142Y-77913571D01*
X140052857Y-77985000D01*
X138838571Y-79342142D02*
X138981428Y-79413571D01*
X139267142Y-79413571D01*
X139410000Y-79342142D01*
X139481428Y-79199285D01*
X139481428Y-78627857D01*
X139410000Y-78485000D01*
X139267142Y-78413571D01*
X138981428Y-78413571D01*
X138838571Y-78485000D01*
X138767142Y-78627857D01*
X138767142Y-78770714D01*
X139481428Y-78913571D01*
X138124285Y-79413571D02*
X138124285Y-78413571D01*
X138124285Y-78699285D02*
X138052857Y-78556428D01*
X137981428Y-78485000D01*
X137838571Y-78413571D01*
X137695714Y-78413571D01*
X137195714Y-79413571D02*
X137195714Y-78413571D01*
X137195714Y-77913571D02*
X137267142Y-77985000D01*
X137195714Y-78056428D01*
X137124285Y-77985000D01*
X137195714Y-77913571D01*
X137195714Y-78056428D01*
X135838571Y-79413571D02*
X135838571Y-78627857D01*
X135910000Y-78485000D01*
X136052857Y-78413571D01*
X136338571Y-78413571D01*
X136481428Y-78485000D01*
X135838571Y-79342142D02*
X135981428Y-79413571D01*
X136338571Y-79413571D01*
X136481428Y-79342142D01*
X136552857Y-79199285D01*
X136552857Y-79056428D01*
X136481428Y-78913571D01*
X136338571Y-78842142D01*
X135981428Y-78842142D01*
X135838571Y-78770714D01*
X134910000Y-79413571D02*
X135052857Y-79342142D01*
X135124285Y-79199285D01*
X135124285Y-77913571D01*
X133195714Y-79413571D02*
X133195714Y-77913571D01*
X132481428Y-78413571D02*
X132481428Y-79413571D01*
X132481428Y-78556428D02*
X132410000Y-78485000D01*
X132267142Y-78413571D01*
X132052857Y-78413571D01*
X131910000Y-78485000D01*
X131838571Y-78627857D01*
X131838571Y-79413571D01*
X131338571Y-78413571D02*
X130767142Y-78413571D01*
X131124285Y-77913571D02*
X131124285Y-79199285D01*
X131052857Y-79342142D01*
X130910000Y-79413571D01*
X130767142Y-79413571D01*
X129695714Y-79342142D02*
X129838571Y-79413571D01*
X130124285Y-79413571D01*
X130267142Y-79342142D01*
X130338571Y-79199285D01*
X130338571Y-78627857D01*
X130267142Y-78485000D01*
X130124285Y-78413571D01*
X129838571Y-78413571D01*
X129695714Y-78485000D01*
X129624285Y-78627857D01*
X129624285Y-78770714D01*
X130338571Y-78913571D01*
X128981428Y-79413571D02*
X128981428Y-78413571D01*
X128981428Y-78699285D02*
X128910000Y-78556428D01*
X128838571Y-78485000D01*
X128695714Y-78413571D01*
X128552857Y-78413571D01*
X128267142Y-78413571D02*
X127695714Y-78413571D01*
X128052857Y-79413571D02*
X128052857Y-78127857D01*
X127981428Y-77985000D01*
X127838571Y-77913571D01*
X127695714Y-77913571D01*
X126552857Y-79413571D02*
X126552857Y-78627857D01*
X126624285Y-78485000D01*
X126767142Y-78413571D01*
X127052857Y-78413571D01*
X127195714Y-78485000D01*
X126552857Y-79342142D02*
X126695714Y-79413571D01*
X127052857Y-79413571D01*
X127195714Y-79342142D01*
X127267142Y-79199285D01*
X127267142Y-79056428D01*
X127195714Y-78913571D01*
X127052857Y-78842142D01*
X126695714Y-78842142D01*
X126552857Y-78770714D01*
X125195714Y-79342142D02*
X125338571Y-79413571D01*
X125624285Y-79413571D01*
X125767142Y-79342142D01*
X125838571Y-79270714D01*
X125910000Y-79127857D01*
X125910000Y-78699285D01*
X125838571Y-78556428D01*
X125767142Y-78485000D01*
X125624285Y-78413571D01*
X125338571Y-78413571D01*
X125195714Y-78485000D01*
X123981428Y-79342142D02*
X124124285Y-79413571D01*
X124410000Y-79413571D01*
X124552857Y-79342142D01*
X124624285Y-79199285D01*
X124624285Y-78627857D01*
X124552857Y-78485000D01*
X124410000Y-78413571D01*
X124124285Y-78413571D01*
X123981428Y-78485000D01*
X123910000Y-78627857D01*
X123910000Y-78770714D01*
X124624285Y-78913571D01*
X151445714Y-80820714D02*
X151588571Y-80749285D01*
X151874285Y-80749285D01*
X152017142Y-80820714D01*
X152160000Y-80963571D01*
X152231428Y-81106428D01*
X152231428Y-81392142D01*
X152160000Y-81535000D01*
X152017142Y-81677857D01*
X151874285Y-81749285D01*
X151588571Y-81749285D01*
X151445714Y-81677857D01*
X151731428Y-80249285D02*
X152088571Y-80320714D01*
X152445714Y-80535000D01*
X152660000Y-80892142D01*
X152731428Y-81249285D01*
X152660000Y-81606428D01*
X152445714Y-81963571D01*
X152088571Y-82177857D01*
X151731428Y-82249285D01*
X151374285Y-82177857D01*
X151017142Y-81963571D01*
X150802857Y-81606428D01*
X150731428Y-81249285D01*
X150802857Y-80892142D01*
X151017142Y-80535000D01*
X151374285Y-80320714D01*
X151731428Y-80249285D01*
X149017142Y-80606428D02*
X148945714Y-80535000D01*
X148802857Y-80463571D01*
X148445714Y-80463571D01*
X148302857Y-80535000D01*
X148231428Y-80606428D01*
X148160000Y-80749285D01*
X148160000Y-80892142D01*
X148231428Y-81106428D01*
X149088571Y-81963571D01*
X148160000Y-81963571D01*
X147231428Y-80463571D02*
X147088571Y-80463571D01*
X146945714Y-80535000D01*
X146874285Y-80606428D01*
X146802857Y-80749285D01*
X146731428Y-81035000D01*
X146731428Y-81392142D01*
X146802857Y-81677857D01*
X146874285Y-81820714D01*
X146945714Y-81892142D01*
X147088571Y-81963571D01*
X147231428Y-81963571D01*
X147374285Y-81892142D01*
X147445714Y-81820714D01*
X147517142Y-81677857D01*
X147588571Y-81392142D01*
X147588571Y-81035000D01*
X147517142Y-80749285D01*
X147445714Y-80606428D01*
X147374285Y-80535000D01*
X147231428Y-80463571D01*
X145302857Y-81963571D02*
X146160000Y-81963571D01*
X145731428Y-81963571D02*
X145731428Y-80463571D01*
X145874285Y-80677857D01*
X146017142Y-80820714D01*
X146160000Y-80892142D01*
X144588571Y-81963571D02*
X144302857Y-81963571D01*
X144160000Y-81892142D01*
X144088571Y-81820714D01*
X143945714Y-81606428D01*
X143874285Y-81320714D01*
X143874285Y-80749285D01*
X143945714Y-80606428D01*
X144017142Y-80535000D01*
X144160000Y-80463571D01*
X144445714Y-80463571D01*
X144588571Y-80535000D01*
X144660000Y-80606428D01*
X144731428Y-80749285D01*
X144731428Y-81106428D01*
X144660000Y-81249285D01*
X144588571Y-81320714D01*
X144445714Y-81392142D01*
X144160000Y-81392142D01*
X144017142Y-81320714D01*
X143945714Y-81249285D01*
X143874285Y-81106428D01*
X142160000Y-81535000D02*
X141445714Y-81535000D01*
X142302857Y-81963571D02*
X141802857Y-80463571D01*
X141302857Y-81963571D01*
X140802857Y-80963571D02*
X140802857Y-81963571D01*
X140802857Y-81106428D02*
X140731428Y-81035000D01*
X140588571Y-80963571D01*
X140374285Y-80963571D01*
X140231428Y-81035000D01*
X140160000Y-81177857D01*
X140160000Y-81963571D01*
X138802857Y-81963571D02*
X138802857Y-80463571D01*
X138802857Y-81892142D02*
X138945714Y-81963571D01*
X139231428Y-81963571D01*
X139374285Y-81892142D01*
X139445714Y-81820714D01*
X139517142Y-81677857D01*
X139517142Y-81249285D01*
X139445714Y-81106428D01*
X139374285Y-81035000D01*
X139231428Y-80963571D01*
X138945714Y-80963571D01*
X138802857Y-81035000D01*
X138088571Y-81963571D02*
X138088571Y-80963571D01*
X138088571Y-81249285D02*
X138017142Y-81106428D01*
X137945714Y-81035000D01*
X137802857Y-80963571D01*
X137660000Y-80963571D01*
X136588571Y-81892142D02*
X136731428Y-81963571D01*
X137017142Y-81963571D01*
X137160000Y-81892142D01*
X137231428Y-81749285D01*
X137231428Y-81177857D01*
X137160000Y-81035000D01*
X137017142Y-80963571D01*
X136731428Y-80963571D01*
X136588571Y-81035000D01*
X136517142Y-81177857D01*
X136517142Y-81320714D01*
X137231428Y-81463571D01*
X136017142Y-80963571D02*
X135731428Y-81963571D01*
X135445714Y-81249285D01*
X135160000Y-81963571D01*
X134874285Y-80963571D01*
X132660000Y-81177857D02*
X133160000Y-81177857D01*
X133160000Y-81963571D02*
X133160000Y-80463571D01*
X132445714Y-80463571D01*
X131660000Y-81963571D02*
X131802857Y-81892142D01*
X131874285Y-81820714D01*
X131945714Y-81677857D01*
X131945714Y-81249285D01*
X131874285Y-81106428D01*
X131802857Y-81035000D01*
X131660000Y-80963571D01*
X131445714Y-80963571D01*
X131302857Y-81035000D01*
X131231428Y-81106428D01*
X131160000Y-81249285D01*
X131160000Y-81677857D01*
X131231428Y-81820714D01*
X131302857Y-81892142D01*
X131445714Y-81963571D01*
X131660000Y-81963571D01*
X130660000Y-81963571D02*
X129874285Y-80963571D01*
X130660000Y-80963571D02*
X129874285Y-81963571D01*
X129231428Y-81892142D02*
X129231428Y-81963571D01*
X129302857Y-82106428D01*
X129374285Y-82177857D01*
X126588571Y-81963571D02*
X127088571Y-81249285D01*
X127445714Y-81963571D02*
X127445714Y-80463571D01*
X126874285Y-80463571D01*
X126731428Y-80535000D01*
X126660000Y-80606428D01*
X126588571Y-80749285D01*
X126588571Y-80963571D01*
X126660000Y-81106428D01*
X126731428Y-81177857D01*
X126874285Y-81249285D01*
X127445714Y-81249285D01*
X125374285Y-81892142D02*
X125517142Y-81963571D01*
X125802857Y-81963571D01*
X125945714Y-81892142D01*
X126017142Y-81749285D01*
X126017142Y-81177857D01*
X125945714Y-81035000D01*
X125802857Y-80963571D01*
X125517142Y-80963571D01*
X125374285Y-81035000D01*
X125302857Y-81177857D01*
X125302857Y-81320714D01*
X126017142Y-81463571D01*
X124802857Y-80963571D02*
X124445714Y-81963571D01*
X124088571Y-80963571D01*
X122517142Y-80463571D02*
X121588571Y-80463571D01*
X122088571Y-81035000D01*
X121874285Y-81035000D01*
X121731428Y-81106428D01*
X121660000Y-81177857D01*
X121588571Y-81320714D01*
X121588571Y-81677857D01*
X121660000Y-81820714D01*
X121731428Y-81892142D01*
X121874285Y-81963571D01*
X122302857Y-81963571D01*
X122445714Y-81892142D01*
X122517142Y-81820714D01*
M02*
