M48
; DRILL file {KiCad (5.1.0-0)} date Sunday, December 15, 2019 at 04:20:13 PM
; FORMAT={-:-/ absolute / inch / decimal}
; #@! TF.CreationDate,2019-12-15T16:20:13-08:00
; #@! TF.GenerationSoftware,Kicad,Pcbnew,(5.1.0-0)
FMAT,2
INCH
T1C0.0079
T2C0.0315
T3C0.0394
%
G90
G05
T1
X4.685Y-4.24
X4.705Y-4.27
X4.99Y-4.5151
X5.0073Y-4.7246
X5.01Y-4.175
X5.05Y-4.24
X5.15Y-4.64
X5.19Y-4.46
X5.195Y-4.18
X5.195Y-4.585
X5.2759Y-4.7315
X5.29Y-4.18
X5.29Y-4.59
X5.351Y-4.339
X5.515Y-4.08
X5.54Y-4.14
X5.6Y-4.35
X5.6398Y-4.7386
X5.6413Y-4.5554
X5.7836Y-4.6587
X5.8Y-4.755
X5.86Y-4.55
X5.88Y-4.85
X5.905Y-4.435
X5.905Y-4.535
X6.04Y-4.455
X6.06Y-4.34
X6.1Y-4.355
X6.16Y-4.075
X6.3Y-4.06
X6.35Y-4.26
X6.365Y-4.16
T2
X4.9433Y-4.0
X4.9433Y-4.1
X4.9433Y-4.2
X4.5031Y-3.75
X4.9433Y-4.3
X4.9433Y-4.4
X4.9433Y-4.5
X4.9433Y-4.6
X4.9433Y-4.7
X4.9433Y-4.8
X4.9433Y-4.9
X5.2433Y-4.0
X5.2433Y-4.1
X5.2433Y-4.2
X5.2433Y-4.3
X5.2433Y-4.4
X5.2433Y-4.6
X4.7Y-3.75
X5.2433Y-4.5
X5.2433Y-4.7
X5.2433Y-4.8
X5.2433Y-4.9
X5.5031Y-3.75
X5.7Y-3.75
X5.95Y-4.0
X5.95Y-4.1
X5.95Y-4.2
X5.95Y-4.3
X5.95Y-4.4
X5.95Y-4.5
X5.95Y-4.6
X5.95Y-4.7
X6.25Y-4.0
X4.45Y-4.0
X4.45Y-4.1
X4.45Y-4.2
X4.45Y-4.3
X4.45Y-4.4
X4.45Y-4.5
X4.45Y-4.6
X4.45Y-4.7
X4.45Y-4.8
X4.45Y-4.9
X4.75Y-4.0
X4.75Y-4.1
X4.75Y-4.2
X4.75Y-4.3
X4.75Y-4.4
X4.75Y-4.5
X4.75Y-4.6
X4.75Y-4.7
X4.75Y-4.8
X4.75Y-4.9
X6.0031Y-3.75
X6.2Y-3.75
X6.25Y-4.1
X6.25Y-4.7
X6.35Y-4.9113
X6.35Y-4.99
X6.25Y-4.2
X6.25Y-4.3
X6.25Y-4.4
X6.25Y-4.5
X6.25Y-4.6
X5.0Y-2.85
X5.0Y-3.45
X5.1Y-2.85
X5.1Y-3.45
X5.2Y-2.85
X5.2Y-3.45
X5.3Y-2.85
X5.3Y-3.45
X5.4Y-2.85
X5.4Y-3.45
X5.5Y-2.85
X5.5Y-3.45
X5.6Y-2.85
X5.6Y-3.45
X5.7Y-2.85
X5.7Y-3.45
X5.8Y-2.85
X5.8Y-3.45
X5.9Y-2.85
X5.9Y-3.45
X6.0Y-2.85
X6.0Y-3.45
X6.1Y-2.85
X6.1Y-3.45
X6.2Y-2.85
X6.2Y-3.45
X6.3Y-2.85
X6.3Y-3.45
X6.4Y-2.85
X6.4Y-3.45
X5.45Y-4.0
X5.45Y-4.1
X5.45Y-4.2
X5.45Y-4.3
X5.45Y-4.4
X5.45Y-4.5
X5.45Y-4.6
X5.45Y-4.7
X5.45Y-4.8
X5.45Y-4.9
X5.75Y-4.0
X5.75Y-4.1
X5.75Y-4.2
X5.75Y-4.3
X5.75Y-4.4
X5.75Y-4.5
X5.75Y-4.6
X5.75Y-4.7
X5.75Y-4.8
X5.75Y-4.9
X5.0031Y-3.75
X5.2Y-3.75
T3
X4.45Y-5.15
X4.45Y-5.25
X4.55Y-5.15
X4.55Y-5.25
X4.65Y-5.15
X4.65Y-5.25
X4.75Y-5.15
X4.75Y-5.25
X4.85Y-5.15
X4.85Y-5.25
X4.95Y-5.15
X4.95Y-5.25
X5.05Y-5.15
X5.05Y-5.25
X5.15Y-5.15
X5.15Y-5.25
X5.25Y-5.15
X5.25Y-5.25
X5.35Y-5.15
X5.35Y-5.25
X5.45Y-5.15
X5.45Y-5.25
X5.55Y-5.15
X5.55Y-5.25
X5.65Y-5.15
X5.65Y-5.25
X5.75Y-5.15
X5.75Y-5.25
X5.85Y-5.15
X5.85Y-5.25
X5.95Y-5.15
X5.95Y-5.25
X6.05Y-5.15
X6.05Y-5.25
X6.15Y-5.15
X6.15Y-5.25
X6.25Y-5.15
X6.25Y-5.25
X6.35Y-5.15
X6.35Y-5.25
T0
M30
