G04 #@! TF.GenerationSoftware,KiCad,Pcbnew,(5.1.0-0)*
G04 #@! TF.CreationDate,2019-11-12T18:04:14-08:00*
G04 #@! TF.ProjectId,ArduinoSerialCard,41726475-696e-46f5-9365-7269616c4361,rev?*
G04 #@! TF.SameCoordinates,Original*
G04 #@! TF.FileFunction,Copper,L1,Top*
G04 #@! TF.FilePolarity,Positive*
%FSLAX46Y46*%
G04 Gerber Fmt 4.6, Leading zero omitted, Abs format (unit mm)*
G04 Created by KiCad (PCBNEW (5.1.0-0)) date 2019-11-12 18:04:14*
%MOMM*%
%LPD*%
G04 APERTURE LIST*
%ADD10O,1.700000X1.700000*%
%ADD11R,1.700000X1.700000*%
%ADD12O,1.600000X1.600000*%
%ADD13R,1.600000X1.600000*%
%ADD14C,0.250000*%
G04 APERTURE END LIST*
D10*
X137160000Y-78740000D03*
X137160000Y-81280000D03*
X139700000Y-78740000D03*
X139700000Y-81280000D03*
X142240000Y-78740000D03*
X142240000Y-81280000D03*
X144780000Y-78740000D03*
X144780000Y-81280000D03*
X147320000Y-78740000D03*
X147320000Y-81280000D03*
X149860000Y-78740000D03*
X149860000Y-81280000D03*
X152400000Y-78740000D03*
X152400000Y-81280000D03*
X154940000Y-78740000D03*
X154940000Y-81280000D03*
X157480000Y-78740000D03*
X157480000Y-81280000D03*
X160020000Y-78740000D03*
X160020000Y-81280000D03*
X162560000Y-78740000D03*
X162560000Y-81280000D03*
X165100000Y-78740000D03*
X165100000Y-81280000D03*
X167640000Y-78740000D03*
X167640000Y-81280000D03*
X170180000Y-78740000D03*
X170180000Y-81280000D03*
X172720000Y-78740000D03*
X172720000Y-81280000D03*
X175260000Y-78740000D03*
X175260000Y-81280000D03*
X177800000Y-78740000D03*
X177800000Y-81280000D03*
X180340000Y-78740000D03*
X180340000Y-81280000D03*
X182880000Y-78740000D03*
X182880000Y-81280000D03*
X185420000Y-78740000D03*
D11*
X185420000Y-81280000D03*
D12*
X182880000Y-58420000D03*
X182880000Y-73660000D03*
X147320000Y-58420000D03*
X180340000Y-73660000D03*
X149860000Y-58420000D03*
X177800000Y-73660000D03*
X152400000Y-58420000D03*
X175260000Y-73660000D03*
X154940000Y-58420000D03*
X172720000Y-73660000D03*
X157480000Y-58420000D03*
X170180000Y-73660000D03*
X160020000Y-58420000D03*
X167640000Y-73660000D03*
X162560000Y-58420000D03*
X165100000Y-73660000D03*
X165100000Y-58420000D03*
X162560000Y-73660000D03*
X167640000Y-58420000D03*
X160020000Y-73660000D03*
X170180000Y-58420000D03*
X157480000Y-73660000D03*
X172720000Y-58420000D03*
X154940000Y-73660000D03*
X175260000Y-58420000D03*
X152400000Y-73660000D03*
X177800000Y-58420000D03*
X149860000Y-73660000D03*
X180340000Y-58420000D03*
D13*
X147320000Y-73660000D03*
D14*
X185420000Y-78740000D02*
X185420000Y-74295000D01*
X147320000Y-66040000D02*
X147320000Y-58420000D01*
X150749000Y-69469000D02*
X147320000Y-66040000D01*
X180594000Y-69469000D02*
X150749000Y-69469000D01*
X185420000Y-74295000D02*
X180594000Y-69469000D01*
X182030001Y-80430001D02*
X182880000Y-81280000D01*
X181704999Y-80104999D02*
X182030001Y-80430001D01*
X181704999Y-74835001D02*
X181704999Y-80104999D01*
X182880000Y-73660000D02*
X181704999Y-74835001D01*
X161417000Y-74803000D02*
X162560000Y-73660000D01*
X159081399Y-75235011D02*
X159513410Y-74803000D01*
X157177809Y-75235011D02*
X159081399Y-75235011D01*
X156722159Y-75685021D02*
X156727799Y-75685021D01*
X155514190Y-76892990D02*
X156722159Y-75685021D01*
X154411598Y-76892990D02*
X155514190Y-76892990D01*
X154247009Y-76892991D02*
X154411598Y-76892990D01*
X159513410Y-74803000D02*
X161417000Y-74803000D01*
X156727799Y-75685021D02*
X157177809Y-75235011D01*
X152400000Y-78740000D02*
X154247009Y-76892991D01*
X163974999Y-74785001D02*
X165100000Y-73660000D01*
X162071409Y-74785001D02*
X163974999Y-74785001D01*
X161603400Y-75253010D02*
X162071409Y-74785001D01*
X159699810Y-75253010D02*
X161603400Y-75253010D01*
X159267799Y-75685021D02*
X159699810Y-75253010D01*
X155700590Y-77343000D02*
X156908561Y-76135029D01*
X154597998Y-77343000D02*
X155700590Y-77343000D01*
X153575001Y-78365997D02*
X154597998Y-77343000D01*
X156914201Y-76135029D02*
X157364209Y-75685021D01*
X156908561Y-76135029D02*
X156914201Y-76135029D01*
X157364209Y-75685021D02*
X159267799Y-75685021D01*
X153575001Y-79304001D02*
X153575001Y-78365997D01*
X152400000Y-80479002D02*
X153575001Y-79304001D01*
X152400000Y-81280000D02*
X152400000Y-80479002D01*
X159886210Y-75703020D02*
X159454201Y-76135029D01*
X157100602Y-76585038D02*
X157094962Y-76585038D01*
X162257809Y-75235011D02*
X161789800Y-75703020D01*
X164611409Y-74785001D02*
X164161399Y-75235011D01*
X164161399Y-75235011D02*
X162257809Y-75235011D01*
X157094962Y-76585038D02*
X154940000Y-78740000D01*
X166514999Y-74785001D02*
X164611409Y-74785001D01*
X157550611Y-76135029D02*
X157100602Y-76585038D01*
X159454201Y-76135029D02*
X157550611Y-76135029D01*
X161789800Y-75703020D02*
X159886210Y-75703020D01*
X167640000Y-73660000D02*
X166514999Y-74785001D01*
X156210000Y-80010000D02*
X154940000Y-81280000D01*
X156210000Y-78106410D02*
X156210000Y-80010000D01*
X157281362Y-77035048D02*
X156210000Y-78106410D01*
X157287003Y-77035047D02*
X157281362Y-77035048D01*
X162444207Y-75685021D02*
X161976200Y-76153030D01*
X159640601Y-76585039D02*
X157737011Y-76585039D01*
X157737011Y-76585039D02*
X157287003Y-77035047D01*
X160072610Y-76153030D02*
X159640601Y-76585039D01*
X164347800Y-75685020D02*
X162444207Y-75685021D01*
X164797809Y-75235011D02*
X164347800Y-75685020D01*
X170180000Y-73660000D02*
X169054999Y-74785001D01*
X169054999Y-74785001D02*
X167151409Y-74785001D01*
X167151409Y-74785001D02*
X166701400Y-75235010D01*
X161976200Y-76153030D02*
X160072610Y-76153030D01*
X166701400Y-75235010D02*
X164797809Y-75235011D01*
X159184951Y-77035049D02*
X157480000Y-78740000D01*
X162162600Y-76603040D02*
X160259010Y-76603040D01*
X160259010Y-76603040D02*
X159827001Y-77035049D01*
X166887799Y-75685019D02*
X164984211Y-75685019D01*
X164984211Y-75685019D02*
X164534199Y-76135029D01*
X162630609Y-76135029D02*
X162162600Y-76603040D01*
X169691409Y-74785001D02*
X169241399Y-75235011D01*
X164534199Y-76135029D02*
X162630609Y-76135029D01*
X159827001Y-77035049D02*
X159184951Y-77035049D01*
X169241399Y-75235011D02*
X167337809Y-75235011D01*
X167337809Y-75235011D02*
X166887799Y-75685019D01*
X172720000Y-73660000D02*
X171594999Y-74785001D01*
X171594999Y-74785001D02*
X169691409Y-74785001D01*
X158655001Y-80104999D02*
X158329999Y-80430001D01*
X158655001Y-78201409D02*
X158655001Y-80104999D01*
X159371351Y-77485059D02*
X158655001Y-78201409D01*
X162349000Y-77053050D02*
X160445410Y-77053050D01*
X158329999Y-80430001D02*
X157480000Y-81280000D01*
X164720599Y-76585039D02*
X162817009Y-76585039D01*
X160013401Y-77485059D02*
X159371351Y-77485059D01*
X162817009Y-76585039D02*
X162349000Y-77053050D01*
X173684989Y-75235011D02*
X169877809Y-75235011D01*
X165170610Y-76135029D02*
X164720599Y-76585039D01*
X169427799Y-75685021D02*
X167524208Y-75685021D01*
X167074199Y-76135029D02*
X165170610Y-76135029D01*
X167524208Y-75685021D02*
X167074199Y-76135029D01*
X169877809Y-75235011D02*
X169427799Y-75685021D01*
X160445410Y-77053050D02*
X160013401Y-77485059D01*
X175260000Y-73660000D02*
X173684989Y-75235011D01*
X176657000Y-74803000D02*
X177800000Y-73660000D01*
X170064209Y-75685021D02*
X173871389Y-75685021D01*
X167710607Y-76135031D02*
X169614199Y-76135031D01*
X173871389Y-75685021D02*
X174753410Y-74803000D01*
X164906999Y-77035049D02*
X165357009Y-76585039D01*
X169614199Y-76135031D02*
X170064209Y-75685021D01*
X167260599Y-76585039D02*
X167710607Y-76135031D01*
X160020000Y-78740000D02*
X161256940Y-77503060D01*
X165357009Y-76585039D02*
X167260599Y-76585039D01*
X163003409Y-77035049D02*
X164906999Y-77035049D01*
X162535400Y-77503060D02*
X163003409Y-77035049D01*
X174753410Y-74803000D02*
X176657000Y-74803000D01*
X161256940Y-77503060D02*
X162535400Y-77503060D01*
X160869999Y-80430001D02*
X160020000Y-81280000D01*
X161195001Y-80104999D02*
X160869999Y-80430001D01*
X162934003Y-80104999D02*
X161195001Y-80104999D01*
X163735001Y-79304001D02*
X162934003Y-80104999D01*
X164425941Y-77485059D02*
X163735001Y-78175999D01*
X163735001Y-78175999D02*
X163735001Y-79304001D01*
X167446999Y-77035049D02*
X165543409Y-77035049D01*
X169800599Y-76585041D02*
X167897007Y-76585041D01*
X165543409Y-77035049D02*
X165093399Y-77485059D01*
X170250609Y-76135031D02*
X169800599Y-76585041D01*
X174939810Y-75253010D02*
X174057789Y-76135031D01*
X167897007Y-76585041D02*
X167446999Y-77035049D01*
X178665003Y-74459999D02*
X178340001Y-74785001D01*
X177311409Y-74785001D02*
X176843400Y-75253010D01*
X178340001Y-74785001D02*
X177311409Y-74785001D01*
X174057789Y-76135031D02*
X170250609Y-76135031D01*
X165093399Y-77485059D02*
X164425941Y-77485059D01*
X180340000Y-73660000D02*
X179540001Y-74459999D01*
X179540001Y-74459999D02*
X178665003Y-74459999D01*
X176843400Y-75253010D02*
X174939810Y-75253010D01*
X151485010Y-77114990D02*
X151610601Y-77114989D01*
X149860000Y-78740000D02*
X151485010Y-77114990D01*
X152752191Y-77114989D02*
X153874210Y-75992970D01*
X151610601Y-77114989D02*
X152752191Y-77114989D01*
X156680001Y-74459999D02*
X157480000Y-73660000D01*
X156674361Y-74459999D02*
X156680001Y-74459999D01*
X155141390Y-75992970D02*
X156674361Y-74459999D01*
X153874210Y-75992970D02*
X155141390Y-75992970D01*
X158894999Y-74785001D02*
X159220001Y-74459999D01*
X156586770Y-75184000D02*
X156592410Y-75184000D01*
X156991409Y-74785001D02*
X158894999Y-74785001D01*
X156592410Y-75184000D02*
X156991409Y-74785001D01*
X154060610Y-76442980D02*
X155327790Y-76442980D01*
X151797001Y-77564999D02*
X152938591Y-77564999D01*
X159220001Y-74459999D02*
X160020000Y-73660000D01*
X151035001Y-78326999D02*
X151797001Y-77564999D01*
X155327790Y-76442980D02*
X156586770Y-75184000D01*
X152938591Y-77564999D02*
X154060610Y-76442980D01*
X151035001Y-80104999D02*
X151035001Y-78326999D01*
X149860000Y-81280000D02*
X151035001Y-80104999D01*
M02*
