G04 #@! TF.GenerationSoftware,KiCad,Pcbnew,(5.1.0-0)*
G04 #@! TF.CreationDate,2019-11-30T18:13:17-08:00*
G04 #@! TF.ProjectId,ArduinoSerialCard,41726475-696e-46f5-9365-7269616c4361,rev?*
G04 #@! TF.SameCoordinates,Original*
G04 #@! TF.FileFunction,Legend,Top*
G04 #@! TF.FilePolarity,Positive*
%FSLAX46Y46*%
G04 Gerber Fmt 4.6, Leading zero omitted, Abs format (unit mm)*
G04 Created by KiCad (PCBNEW (5.1.0-0)) date 2019-11-30 18:13:17*
%MOMM*%
%LPD*%
G04 APERTURE LIST*
%ADD10C,0.150000*%
%ADD11C,0.120000*%
G04 APERTURE END LIST*
D10*
X116292380Y-117649047D02*
X117006666Y-117649047D01*
X117149523Y-117696666D01*
X117244761Y-117791904D01*
X117292380Y-117934761D01*
X117292380Y-118030000D01*
X117292380Y-116696666D02*
X117292380Y-117172857D01*
X116292380Y-117172857D01*
X117197142Y-115791904D02*
X117244761Y-115839523D01*
X117292380Y-115982380D01*
X117292380Y-116077619D01*
X117244761Y-116220476D01*
X117149523Y-116315714D01*
X117054285Y-116363333D01*
X116863809Y-116410952D01*
X116720952Y-116410952D01*
X116530476Y-116363333D01*
X116435238Y-116315714D01*
X116340000Y-116220476D01*
X116292380Y-116077619D01*
X116292380Y-115982380D01*
X116340000Y-115839523D01*
X116387619Y-115791904D01*
X116292380Y-115077619D02*
X117006666Y-115077619D01*
X117149523Y-115125238D01*
X117244761Y-115220476D01*
X117292380Y-115363333D01*
X117292380Y-115458571D01*
X117292380Y-114125238D02*
X117292380Y-114601428D01*
X116292380Y-114601428D01*
X117197142Y-113220476D02*
X117244761Y-113268095D01*
X117292380Y-113410952D01*
X117292380Y-113506190D01*
X117244761Y-113649047D01*
X117149523Y-113744285D01*
X117054285Y-113791904D01*
X116863809Y-113839523D01*
X116720952Y-113839523D01*
X116530476Y-113791904D01*
X116435238Y-113744285D01*
X116340000Y-113649047D01*
X116292380Y-113506190D01*
X116292380Y-113410952D01*
X116340000Y-113268095D01*
X116387619Y-113220476D01*
X116292380Y-112506190D02*
X117006666Y-112506190D01*
X117149523Y-112553809D01*
X117244761Y-112649047D01*
X117292380Y-112791904D01*
X117292380Y-112887142D01*
X117292380Y-111553809D02*
X117292380Y-112030000D01*
X116292380Y-112030000D01*
X117197142Y-110649047D02*
X117244761Y-110696666D01*
X117292380Y-110839523D01*
X117292380Y-110934761D01*
X117244761Y-111077619D01*
X117149523Y-111172857D01*
X117054285Y-111220476D01*
X116863809Y-111268095D01*
X116720952Y-111268095D01*
X116530476Y-111220476D01*
X116435238Y-111172857D01*
X116340000Y-111077619D01*
X116292380Y-110934761D01*
X116292380Y-110839523D01*
X116340000Y-110696666D01*
X116387619Y-110649047D01*
X116292380Y-109934761D02*
X117006666Y-109934761D01*
X117149523Y-109982380D01*
X117244761Y-110077619D01*
X117292380Y-110220476D01*
X117292380Y-110315714D01*
X117292380Y-108982380D02*
X117292380Y-109458571D01*
X116292380Y-109458571D01*
X117197142Y-108077619D02*
X117244761Y-108125238D01*
X117292380Y-108268095D01*
X117292380Y-108363333D01*
X117244761Y-108506190D01*
X117149523Y-108601428D01*
X117054285Y-108649047D01*
X116863809Y-108696666D01*
X116720952Y-108696666D01*
X116530476Y-108649047D01*
X116435238Y-108601428D01*
X116340000Y-108506190D01*
X116292380Y-108363333D01*
X116292380Y-108268095D01*
X116340000Y-108125238D01*
X116387619Y-108077619D01*
D11*
X119490000Y-100270000D02*
X117840000Y-100270000D01*
X119490000Y-125790000D02*
X119490000Y-100270000D01*
X114190000Y-125790000D02*
X119490000Y-125790000D01*
X114190000Y-100270000D02*
X114190000Y-125790000D01*
X115840000Y-100270000D02*
X114190000Y-100270000D01*
X117840000Y-100270000D02*
G75*
G02X115840000Y-100270000I-1000000J0D01*
G01*
X144890000Y-100270000D02*
X143240000Y-100270000D01*
X144890000Y-125790000D02*
X144890000Y-100270000D01*
X139590000Y-125790000D02*
X144890000Y-125790000D01*
X139590000Y-100270000D02*
X139590000Y-125790000D01*
X141240000Y-100270000D02*
X139590000Y-100270000D01*
X143240000Y-100270000D02*
G75*
G02X141240000Y-100270000I-1000000J0D01*
G01*
X132020000Y-100270000D02*
X130370000Y-100270000D01*
X132020000Y-125790000D02*
X132020000Y-100270000D01*
X126720000Y-125790000D02*
X132020000Y-125790000D01*
X126720000Y-100270000D02*
X126720000Y-125790000D01*
X128370000Y-100270000D02*
X126720000Y-100270000D01*
X130370000Y-100270000D02*
G75*
G02X128370000Y-100270000I-1000000J0D01*
G01*
X157590000Y-100270000D02*
X155940000Y-100270000D01*
X157590000Y-120710000D02*
X157590000Y-100270000D01*
X152290000Y-120710000D02*
X157590000Y-120710000D01*
X152290000Y-100270000D02*
X152290000Y-120710000D01*
X153940000Y-100270000D02*
X152290000Y-100270000D01*
X155940000Y-100270000D02*
G75*
G02X153940000Y-100270000I-1000000J0D01*
G01*
X159565000Y-128300775D02*
X160065000Y-128300775D01*
X159815000Y-128550775D02*
X159815000Y-128050775D01*
X161006000Y-123145000D02*
X161574000Y-123145000D01*
X160772000Y-123185000D02*
X161808000Y-123185000D01*
X160613000Y-123225000D02*
X161967000Y-123225000D01*
X160485000Y-123265000D02*
X162095000Y-123265000D01*
X160375000Y-123305000D02*
X162205000Y-123305000D01*
X160279000Y-123345000D02*
X162301000Y-123345000D01*
X160192000Y-123385000D02*
X162388000Y-123385000D01*
X160112000Y-123425000D02*
X162468000Y-123425000D01*
X160039000Y-123465000D02*
X162541000Y-123465000D01*
X159971000Y-123505000D02*
X162609000Y-123505000D01*
X159907000Y-123545000D02*
X162673000Y-123545000D01*
X159847000Y-123585000D02*
X162733000Y-123585000D01*
X159790000Y-123625000D02*
X162790000Y-123625000D01*
X159736000Y-123665000D02*
X162844000Y-123665000D01*
X159685000Y-123705000D02*
X162895000Y-123705000D01*
X162330000Y-123745000D02*
X162943000Y-123745000D01*
X159637000Y-123745000D02*
X160250000Y-123745000D01*
X162330000Y-123785000D02*
X162989000Y-123785000D01*
X159591000Y-123785000D02*
X160250000Y-123785000D01*
X162330000Y-123825000D02*
X163033000Y-123825000D01*
X159547000Y-123825000D02*
X160250000Y-123825000D01*
X162330000Y-123865000D02*
X163075000Y-123865000D01*
X159505000Y-123865000D02*
X160250000Y-123865000D01*
X162330000Y-123905000D02*
X163116000Y-123905000D01*
X159464000Y-123905000D02*
X160250000Y-123905000D01*
X162330000Y-123945000D02*
X163154000Y-123945000D01*
X159426000Y-123945000D02*
X160250000Y-123945000D01*
X162330000Y-123985000D02*
X163191000Y-123985000D01*
X159389000Y-123985000D02*
X160250000Y-123985000D01*
X162330000Y-124025000D02*
X163227000Y-124025000D01*
X159353000Y-124025000D02*
X160250000Y-124025000D01*
X162330000Y-124065000D02*
X163261000Y-124065000D01*
X159319000Y-124065000D02*
X160250000Y-124065000D01*
X162330000Y-124105000D02*
X163294000Y-124105000D01*
X159286000Y-124105000D02*
X160250000Y-124105000D01*
X162330000Y-124145000D02*
X163325000Y-124145000D01*
X159255000Y-124145000D02*
X160250000Y-124145000D01*
X162330000Y-124185000D02*
X163355000Y-124185000D01*
X159225000Y-124185000D02*
X160250000Y-124185000D01*
X162330000Y-124225000D02*
X163385000Y-124225000D01*
X159195000Y-124225000D02*
X160250000Y-124225000D01*
X162330000Y-124265000D02*
X163412000Y-124265000D01*
X159168000Y-124265000D02*
X160250000Y-124265000D01*
X162330000Y-124305000D02*
X163439000Y-124305000D01*
X159141000Y-124305000D02*
X160250000Y-124305000D01*
X162330000Y-124345000D02*
X163465000Y-124345000D01*
X159115000Y-124345000D02*
X160250000Y-124345000D01*
X162330000Y-124385000D02*
X163490000Y-124385000D01*
X159090000Y-124385000D02*
X160250000Y-124385000D01*
X162330000Y-124425000D02*
X163514000Y-124425000D01*
X159066000Y-124425000D02*
X160250000Y-124425000D01*
X162330000Y-124465000D02*
X163537000Y-124465000D01*
X159043000Y-124465000D02*
X160250000Y-124465000D01*
X162330000Y-124505000D02*
X163558000Y-124505000D01*
X159022000Y-124505000D02*
X160250000Y-124505000D01*
X162330000Y-124545000D02*
X163580000Y-124545000D01*
X159000000Y-124545000D02*
X160250000Y-124545000D01*
X162330000Y-124585000D02*
X163600000Y-124585000D01*
X158980000Y-124585000D02*
X160250000Y-124585000D01*
X162330000Y-124625000D02*
X163619000Y-124625000D01*
X158961000Y-124625000D02*
X160250000Y-124625000D01*
X162330000Y-124665000D02*
X163638000Y-124665000D01*
X158942000Y-124665000D02*
X160250000Y-124665000D01*
X162330000Y-124705000D02*
X163655000Y-124705000D01*
X158925000Y-124705000D02*
X160250000Y-124705000D01*
X162330000Y-124745000D02*
X163672000Y-124745000D01*
X158908000Y-124745000D02*
X160250000Y-124745000D01*
X162330000Y-124785000D02*
X163688000Y-124785000D01*
X158892000Y-124785000D02*
X160250000Y-124785000D01*
X162330000Y-124825000D02*
X163704000Y-124825000D01*
X158876000Y-124825000D02*
X160250000Y-124825000D01*
X162330000Y-124865000D02*
X163718000Y-124865000D01*
X158862000Y-124865000D02*
X160250000Y-124865000D01*
X162330000Y-124905000D02*
X163732000Y-124905000D01*
X158848000Y-124905000D02*
X160250000Y-124905000D01*
X162330000Y-124945000D02*
X163745000Y-124945000D01*
X158835000Y-124945000D02*
X160250000Y-124945000D01*
X162330000Y-124985000D02*
X163758000Y-124985000D01*
X158822000Y-124985000D02*
X160250000Y-124985000D01*
X162330000Y-125025000D02*
X163770000Y-125025000D01*
X158810000Y-125025000D02*
X160250000Y-125025000D01*
X162330000Y-125066000D02*
X163781000Y-125066000D01*
X158799000Y-125066000D02*
X160250000Y-125066000D01*
X162330000Y-125106000D02*
X163791000Y-125106000D01*
X158789000Y-125106000D02*
X160250000Y-125106000D01*
X162330000Y-125146000D02*
X163801000Y-125146000D01*
X158779000Y-125146000D02*
X160250000Y-125146000D01*
X162330000Y-125186000D02*
X163810000Y-125186000D01*
X158770000Y-125186000D02*
X160250000Y-125186000D01*
X162330000Y-125226000D02*
X163818000Y-125226000D01*
X158762000Y-125226000D02*
X160250000Y-125226000D01*
X162330000Y-125266000D02*
X163826000Y-125266000D01*
X158754000Y-125266000D02*
X160250000Y-125266000D01*
X162330000Y-125306000D02*
X163833000Y-125306000D01*
X158747000Y-125306000D02*
X160250000Y-125306000D01*
X162330000Y-125346000D02*
X163840000Y-125346000D01*
X158740000Y-125346000D02*
X160250000Y-125346000D01*
X162330000Y-125386000D02*
X163846000Y-125386000D01*
X158734000Y-125386000D02*
X160250000Y-125386000D01*
X162330000Y-125426000D02*
X163851000Y-125426000D01*
X158729000Y-125426000D02*
X160250000Y-125426000D01*
X162330000Y-125466000D02*
X163855000Y-125466000D01*
X158725000Y-125466000D02*
X160250000Y-125466000D01*
X162330000Y-125506000D02*
X163859000Y-125506000D01*
X158721000Y-125506000D02*
X160250000Y-125506000D01*
X162330000Y-125546000D02*
X163863000Y-125546000D01*
X158717000Y-125546000D02*
X160250000Y-125546000D01*
X162330000Y-125586000D02*
X163866000Y-125586000D01*
X158714000Y-125586000D02*
X160250000Y-125586000D01*
X162330000Y-125626000D02*
X163868000Y-125626000D01*
X158712000Y-125626000D02*
X160250000Y-125626000D01*
X162330000Y-125666000D02*
X163869000Y-125666000D01*
X158711000Y-125666000D02*
X160250000Y-125666000D01*
X158710000Y-125706000D02*
X160250000Y-125706000D01*
X162330000Y-125706000D02*
X163870000Y-125706000D01*
X158710000Y-125746000D02*
X160250000Y-125746000D01*
X162330000Y-125746000D02*
X163870000Y-125746000D01*
X163910000Y-125746000D02*
G75*
G03X163910000Y-125746000I-2620000J0D01*
G01*
X114610000Y-94195000D02*
X114610000Y-94180000D01*
X114610000Y-96320000D02*
X114610000Y-96305000D01*
X119150000Y-94195000D02*
X119150000Y-94180000D01*
X119150000Y-96320000D02*
X119150000Y-96305000D01*
X119150000Y-94180000D02*
X114610000Y-94180000D01*
X119150000Y-96320000D02*
X114610000Y-96320000D01*
X140010000Y-94195000D02*
X140010000Y-94180000D01*
X140010000Y-96320000D02*
X140010000Y-96305000D01*
X144550000Y-94195000D02*
X144550000Y-94180000D01*
X144550000Y-96320000D02*
X144550000Y-96305000D01*
X144550000Y-94180000D02*
X140010000Y-94180000D01*
X144550000Y-96320000D02*
X140010000Y-96320000D01*
X127310000Y-94195000D02*
X127310000Y-94180000D01*
X127310000Y-96320000D02*
X127310000Y-96305000D01*
X131850000Y-94195000D02*
X131850000Y-94180000D01*
X131850000Y-96320000D02*
X131850000Y-96305000D01*
X131850000Y-94180000D02*
X127310000Y-94180000D01*
X131850000Y-96320000D02*
X127310000Y-96320000D01*
X152710000Y-94195000D02*
X152710000Y-94180000D01*
X152710000Y-96320000D02*
X152710000Y-96305000D01*
X157250000Y-94195000D02*
X157250000Y-94180000D01*
X157250000Y-96320000D02*
X157250000Y-96305000D01*
X157250000Y-94180000D02*
X152710000Y-94180000D01*
X157250000Y-96320000D02*
X152710000Y-96320000D01*
X162620000Y-133350000D02*
X162620000Y-134680000D01*
X162620000Y-134680000D02*
X161290000Y-134680000D01*
X162620000Y-132080000D02*
X160020000Y-132080000D01*
X160020000Y-132080000D02*
X160020000Y-134680000D01*
X160020000Y-134680000D02*
X111700000Y-134680000D01*
X111700000Y-129480000D02*
X111700000Y-134680000D01*
X162620000Y-129480000D02*
X111700000Y-129480000D01*
X162620000Y-129480000D02*
X162620000Y-132080000D01*
X123060000Y-70990000D02*
X123060000Y-89030000D01*
X166500000Y-70990000D02*
X123060000Y-70990000D01*
X166500000Y-89030000D02*
X166500000Y-70990000D01*
X163830000Y-86360000D02*
X163830000Y-89030000D01*
X128270000Y-86360000D02*
X163830000Y-86360000D01*
X128270000Y-86360000D02*
X128270000Y-89030000D01*
X163830000Y-73660000D02*
X163830000Y-70990000D01*
X125730000Y-73660000D02*
X163830000Y-73660000D01*
X125730000Y-73660000D02*
X125730000Y-70990000D01*
X123060000Y-89030000D02*
X125730000Y-89030000D01*
X128270000Y-89030000D02*
X166500000Y-89030000D01*
X125730000Y-86360000D02*
X125730000Y-89030000D01*
X128270000Y-86360000D02*
X125730000Y-86360000D01*
D10*
X116078095Y-98722380D02*
X116078095Y-99531904D01*
X116125714Y-99627142D01*
X116173333Y-99674761D01*
X116268571Y-99722380D01*
X116459047Y-99722380D01*
X116554285Y-99674761D01*
X116601904Y-99627142D01*
X116649523Y-99531904D01*
X116649523Y-98722380D01*
X117554285Y-99055714D02*
X117554285Y-99722380D01*
X117316190Y-98674761D02*
X117078095Y-99389047D01*
X117697142Y-99389047D01*
X114173333Y-126242380D02*
X114840000Y-126242380D01*
X114411428Y-127242380D01*
X115649523Y-126575714D02*
X115649523Y-127242380D01*
X115411428Y-126194761D02*
X115173333Y-126909047D01*
X115792380Y-126909047D01*
X116506666Y-126718571D02*
X116173333Y-126718571D01*
X116173333Y-127242380D02*
X116173333Y-126242380D01*
X116649523Y-126242380D01*
X117506666Y-126242380D02*
X117030476Y-126242380D01*
X116982857Y-126718571D01*
X117030476Y-126670952D01*
X117125714Y-126623333D01*
X117363809Y-126623333D01*
X117459047Y-126670952D01*
X117506666Y-126718571D01*
X117554285Y-126813809D01*
X117554285Y-127051904D01*
X117506666Y-127147142D01*
X117459047Y-127194761D01*
X117363809Y-127242380D01*
X117125714Y-127242380D01*
X117030476Y-127194761D01*
X116982857Y-127147142D01*
X117887619Y-126242380D02*
X118554285Y-126242380D01*
X118125714Y-127242380D01*
X119363809Y-126575714D02*
X119363809Y-127242380D01*
X119125714Y-126194761D02*
X118887619Y-126909047D01*
X119506666Y-126909047D01*
X141478095Y-98722380D02*
X141478095Y-99531904D01*
X141525714Y-99627142D01*
X141573333Y-99674761D01*
X141668571Y-99722380D01*
X141859047Y-99722380D01*
X141954285Y-99674761D01*
X142001904Y-99627142D01*
X142049523Y-99531904D01*
X142049523Y-98722380D01*
X142430476Y-98722380D02*
X143049523Y-98722380D01*
X142716190Y-99103333D01*
X142859047Y-99103333D01*
X142954285Y-99150952D01*
X143001904Y-99198571D01*
X143049523Y-99293809D01*
X143049523Y-99531904D01*
X143001904Y-99627142D01*
X142954285Y-99674761D01*
X142859047Y-99722380D01*
X142573333Y-99722380D01*
X142478095Y-99674761D01*
X142430476Y-99627142D01*
X139573333Y-126242380D02*
X140240000Y-126242380D01*
X139811428Y-127242380D01*
X141049523Y-126575714D02*
X141049523Y-127242380D01*
X140811428Y-126194761D02*
X140573333Y-126909047D01*
X141192380Y-126909047D01*
X141906666Y-126718571D02*
X141573333Y-126718571D01*
X141573333Y-127242380D02*
X141573333Y-126242380D01*
X142049523Y-126242380D01*
X142335238Y-126242380D02*
X142954285Y-126242380D01*
X142620952Y-126623333D01*
X142763809Y-126623333D01*
X142859047Y-126670952D01*
X142906666Y-126718571D01*
X142954285Y-126813809D01*
X142954285Y-127051904D01*
X142906666Y-127147142D01*
X142859047Y-127194761D01*
X142763809Y-127242380D01*
X142478095Y-127242380D01*
X142382857Y-127194761D01*
X142335238Y-127147142D01*
X143287619Y-126242380D02*
X143954285Y-126242380D01*
X143525714Y-127242380D01*
X144240000Y-126242380D02*
X144906666Y-126242380D01*
X144478095Y-127242380D01*
X128608095Y-98722380D02*
X128608095Y-99531904D01*
X128655714Y-99627142D01*
X128703333Y-99674761D01*
X128798571Y-99722380D01*
X128989047Y-99722380D01*
X129084285Y-99674761D01*
X129131904Y-99627142D01*
X129179523Y-99531904D01*
X129179523Y-98722380D01*
X129608095Y-98817619D02*
X129655714Y-98770000D01*
X129750952Y-98722380D01*
X129989047Y-98722380D01*
X130084285Y-98770000D01*
X130131904Y-98817619D01*
X130179523Y-98912857D01*
X130179523Y-99008095D01*
X130131904Y-99150952D01*
X129560476Y-99722380D01*
X130179523Y-99722380D01*
X126703333Y-126242380D02*
X127370000Y-126242380D01*
X126941428Y-127242380D01*
X128179523Y-126575714D02*
X128179523Y-127242380D01*
X127941428Y-126194761D02*
X127703333Y-126909047D01*
X128322380Y-126909047D01*
X129036666Y-126718571D02*
X128703333Y-126718571D01*
X128703333Y-127242380D02*
X128703333Y-126242380D01*
X129179523Y-126242380D01*
X129465238Y-126242380D02*
X130084285Y-126242380D01*
X129750952Y-126623333D01*
X129893809Y-126623333D01*
X129989047Y-126670952D01*
X130036666Y-126718571D01*
X130084285Y-126813809D01*
X130084285Y-127051904D01*
X130036666Y-127147142D01*
X129989047Y-127194761D01*
X129893809Y-127242380D01*
X129608095Y-127242380D01*
X129512857Y-127194761D01*
X129465238Y-127147142D01*
X130417619Y-126242380D02*
X131084285Y-126242380D01*
X130655714Y-127242380D01*
X131370000Y-126242380D02*
X132036666Y-126242380D01*
X131608095Y-127242380D01*
X154178095Y-98722380D02*
X154178095Y-99531904D01*
X154225714Y-99627142D01*
X154273333Y-99674761D01*
X154368571Y-99722380D01*
X154559047Y-99722380D01*
X154654285Y-99674761D01*
X154701904Y-99627142D01*
X154749523Y-99531904D01*
X154749523Y-98722380D01*
X155749523Y-99722380D02*
X155178095Y-99722380D01*
X155463809Y-99722380D02*
X155463809Y-98722380D01*
X155368571Y-98865238D01*
X155273333Y-98960476D01*
X155178095Y-99008095D01*
X152273333Y-121162380D02*
X152940000Y-121162380D01*
X152511428Y-122162380D01*
X153749523Y-121495714D02*
X153749523Y-122162380D01*
X153511428Y-121114761D02*
X153273333Y-121829047D01*
X153892380Y-121829047D01*
X154606666Y-121638571D02*
X154273333Y-121638571D01*
X154273333Y-122162380D02*
X154273333Y-121162380D01*
X154749523Y-121162380D01*
X155654285Y-122162380D02*
X155082857Y-122162380D01*
X155368571Y-122162380D02*
X155368571Y-121162380D01*
X155273333Y-121305238D01*
X155178095Y-121400476D01*
X155082857Y-121448095D01*
X155987619Y-121162380D02*
X156606666Y-121162380D01*
X156273333Y-121543333D01*
X156416190Y-121543333D01*
X156511428Y-121590952D01*
X156559047Y-121638571D01*
X156606666Y-121733809D01*
X156606666Y-121971904D01*
X156559047Y-122067142D01*
X156511428Y-122114761D01*
X156416190Y-122162380D01*
X156130476Y-122162380D01*
X156035238Y-122114761D01*
X155987619Y-122067142D01*
X157178095Y-121590952D02*
X157082857Y-121543333D01*
X157035238Y-121495714D01*
X156987619Y-121400476D01*
X156987619Y-121352857D01*
X157035238Y-121257619D01*
X157082857Y-121210000D01*
X157178095Y-121162380D01*
X157368571Y-121162380D01*
X157463809Y-121210000D01*
X157511428Y-121257619D01*
X157559047Y-121352857D01*
X157559047Y-121400476D01*
X157511428Y-121495714D01*
X157463809Y-121543333D01*
X157368571Y-121590952D01*
X157178095Y-121590952D01*
X157082857Y-121638571D01*
X157035238Y-121686190D01*
X156987619Y-121781428D01*
X156987619Y-121971904D01*
X157035238Y-122067142D01*
X157082857Y-122114761D01*
X157178095Y-122162380D01*
X157368571Y-122162380D01*
X157463809Y-122114761D01*
X157511428Y-122067142D01*
X157559047Y-121971904D01*
X157559047Y-121781428D01*
X157511428Y-121686190D01*
X157463809Y-121638571D01*
X157368571Y-121590952D01*
X157897142Y-125912666D02*
X157944761Y-125960285D01*
X157992380Y-126103142D01*
X157992380Y-126198380D01*
X157944761Y-126341238D01*
X157849523Y-126436476D01*
X157754285Y-126484095D01*
X157563809Y-126531714D01*
X157420952Y-126531714D01*
X157230476Y-126484095D01*
X157135238Y-126436476D01*
X157040000Y-126341238D01*
X156992380Y-126198380D01*
X156992380Y-126103142D01*
X157040000Y-125960285D01*
X157087619Y-125912666D01*
X156992380Y-125007904D02*
X156992380Y-125484095D01*
X157468571Y-125531714D01*
X157420952Y-125484095D01*
X157373333Y-125388857D01*
X157373333Y-125150761D01*
X157420952Y-125055523D01*
X157468571Y-125007904D01*
X157563809Y-124960285D01*
X157801904Y-124960285D01*
X157897142Y-125007904D01*
X157944761Y-125055523D01*
X157992380Y-125150761D01*
X157992380Y-125388857D01*
X157944761Y-125484095D01*
X157897142Y-125531714D01*
X165492380Y-126888857D02*
X165492380Y-127460285D01*
X165492380Y-127174571D02*
X164492380Y-127174571D01*
X164635238Y-127269809D01*
X164730476Y-127365047D01*
X164778095Y-127460285D01*
X164492380Y-126269809D02*
X164492380Y-126174571D01*
X164540000Y-126079333D01*
X164587619Y-126031714D01*
X164682857Y-125984095D01*
X164873333Y-125936476D01*
X165111428Y-125936476D01*
X165301904Y-125984095D01*
X165397142Y-126031714D01*
X165444761Y-126079333D01*
X165492380Y-126174571D01*
X165492380Y-126269809D01*
X165444761Y-126365047D01*
X165397142Y-126412666D01*
X165301904Y-126460285D01*
X165111428Y-126507904D01*
X164873333Y-126507904D01*
X164682857Y-126460285D01*
X164587619Y-126412666D01*
X164540000Y-126365047D01*
X164492380Y-126269809D01*
X164825714Y-125507904D02*
X165825714Y-125507904D01*
X165349523Y-125031714D02*
X165444761Y-124984095D01*
X165492380Y-124888857D01*
X165349523Y-125507904D02*
X165444761Y-125460285D01*
X165492380Y-125365047D01*
X165492380Y-125174571D01*
X165444761Y-125079333D01*
X165349523Y-125031714D01*
X164825714Y-125031714D01*
X164968571Y-124126952D02*
X164968571Y-124460285D01*
X165492380Y-124460285D02*
X164492380Y-124460285D01*
X164492380Y-123984095D01*
X116713333Y-97807142D02*
X116665714Y-97854761D01*
X116522857Y-97902380D01*
X116427619Y-97902380D01*
X116284761Y-97854761D01*
X116189523Y-97759523D01*
X116141904Y-97664285D01*
X116094285Y-97473809D01*
X116094285Y-97330952D01*
X116141904Y-97140476D01*
X116189523Y-97045238D01*
X116284761Y-96950000D01*
X116427619Y-96902380D01*
X116522857Y-96902380D01*
X116665714Y-96950000D01*
X116713333Y-96997619D01*
X117570476Y-97235714D02*
X117570476Y-97902380D01*
X117332380Y-96854761D02*
X117094285Y-97569047D01*
X117713333Y-97569047D01*
X115332380Y-93502380D02*
X114760952Y-93502380D01*
X115046666Y-93502380D02*
X115046666Y-92502380D01*
X114951428Y-92645238D01*
X114856190Y-92740476D01*
X114760952Y-92788095D01*
X115951428Y-92502380D02*
X116046666Y-92502380D01*
X116141904Y-92550000D01*
X116189523Y-92597619D01*
X116237142Y-92692857D01*
X116284761Y-92883333D01*
X116284761Y-93121428D01*
X116237142Y-93311904D01*
X116189523Y-93407142D01*
X116141904Y-93454761D01*
X116046666Y-93502380D01*
X115951428Y-93502380D01*
X115856190Y-93454761D01*
X115808571Y-93407142D01*
X115760952Y-93311904D01*
X115713333Y-93121428D01*
X115713333Y-92883333D01*
X115760952Y-92692857D01*
X115808571Y-92597619D01*
X115856190Y-92550000D01*
X115951428Y-92502380D01*
X116903809Y-92502380D02*
X116999047Y-92502380D01*
X117094285Y-92550000D01*
X117141904Y-92597619D01*
X117189523Y-92692857D01*
X117237142Y-92883333D01*
X117237142Y-93121428D01*
X117189523Y-93311904D01*
X117141904Y-93407142D01*
X117094285Y-93454761D01*
X116999047Y-93502380D01*
X116903809Y-93502380D01*
X116808571Y-93454761D01*
X116760952Y-93407142D01*
X116713333Y-93311904D01*
X116665714Y-93121428D01*
X116665714Y-92883333D01*
X116713333Y-92692857D01*
X116760952Y-92597619D01*
X116808571Y-92550000D01*
X116903809Y-92502380D01*
X117665714Y-92835714D02*
X117665714Y-93502380D01*
X117665714Y-92930952D02*
X117713333Y-92883333D01*
X117808571Y-92835714D01*
X117951428Y-92835714D01*
X118046666Y-92883333D01*
X118094285Y-92978571D01*
X118094285Y-93502380D01*
X118903809Y-92978571D02*
X118570476Y-92978571D01*
X118570476Y-93502380D02*
X118570476Y-92502380D01*
X119046666Y-92502380D01*
X142113333Y-97807142D02*
X142065714Y-97854761D01*
X141922857Y-97902380D01*
X141827619Y-97902380D01*
X141684761Y-97854761D01*
X141589523Y-97759523D01*
X141541904Y-97664285D01*
X141494285Y-97473809D01*
X141494285Y-97330952D01*
X141541904Y-97140476D01*
X141589523Y-97045238D01*
X141684761Y-96950000D01*
X141827619Y-96902380D01*
X141922857Y-96902380D01*
X142065714Y-96950000D01*
X142113333Y-96997619D01*
X142446666Y-96902380D02*
X143065714Y-96902380D01*
X142732380Y-97283333D01*
X142875238Y-97283333D01*
X142970476Y-97330952D01*
X143018095Y-97378571D01*
X143065714Y-97473809D01*
X143065714Y-97711904D01*
X143018095Y-97807142D01*
X142970476Y-97854761D01*
X142875238Y-97902380D01*
X142589523Y-97902380D01*
X142494285Y-97854761D01*
X142446666Y-97807142D01*
X140732380Y-93502380D02*
X140160952Y-93502380D01*
X140446666Y-93502380D02*
X140446666Y-92502380D01*
X140351428Y-92645238D01*
X140256190Y-92740476D01*
X140160952Y-92788095D01*
X141351428Y-92502380D02*
X141446666Y-92502380D01*
X141541904Y-92550000D01*
X141589523Y-92597619D01*
X141637142Y-92692857D01*
X141684761Y-92883333D01*
X141684761Y-93121428D01*
X141637142Y-93311904D01*
X141589523Y-93407142D01*
X141541904Y-93454761D01*
X141446666Y-93502380D01*
X141351428Y-93502380D01*
X141256190Y-93454761D01*
X141208571Y-93407142D01*
X141160952Y-93311904D01*
X141113333Y-93121428D01*
X141113333Y-92883333D01*
X141160952Y-92692857D01*
X141208571Y-92597619D01*
X141256190Y-92550000D01*
X141351428Y-92502380D01*
X142303809Y-92502380D02*
X142399047Y-92502380D01*
X142494285Y-92550000D01*
X142541904Y-92597619D01*
X142589523Y-92692857D01*
X142637142Y-92883333D01*
X142637142Y-93121428D01*
X142589523Y-93311904D01*
X142541904Y-93407142D01*
X142494285Y-93454761D01*
X142399047Y-93502380D01*
X142303809Y-93502380D01*
X142208571Y-93454761D01*
X142160952Y-93407142D01*
X142113333Y-93311904D01*
X142065714Y-93121428D01*
X142065714Y-92883333D01*
X142113333Y-92692857D01*
X142160952Y-92597619D01*
X142208571Y-92550000D01*
X142303809Y-92502380D01*
X143065714Y-92835714D02*
X143065714Y-93502380D01*
X143065714Y-92930952D02*
X143113333Y-92883333D01*
X143208571Y-92835714D01*
X143351428Y-92835714D01*
X143446666Y-92883333D01*
X143494285Y-92978571D01*
X143494285Y-93502380D01*
X144303809Y-92978571D02*
X143970476Y-92978571D01*
X143970476Y-93502380D02*
X143970476Y-92502380D01*
X144446666Y-92502380D01*
X129413333Y-97807142D02*
X129365714Y-97854761D01*
X129222857Y-97902380D01*
X129127619Y-97902380D01*
X128984761Y-97854761D01*
X128889523Y-97759523D01*
X128841904Y-97664285D01*
X128794285Y-97473809D01*
X128794285Y-97330952D01*
X128841904Y-97140476D01*
X128889523Y-97045238D01*
X128984761Y-96950000D01*
X129127619Y-96902380D01*
X129222857Y-96902380D01*
X129365714Y-96950000D01*
X129413333Y-96997619D01*
X129794285Y-96997619D02*
X129841904Y-96950000D01*
X129937142Y-96902380D01*
X130175238Y-96902380D01*
X130270476Y-96950000D01*
X130318095Y-96997619D01*
X130365714Y-97092857D01*
X130365714Y-97188095D01*
X130318095Y-97330952D01*
X129746666Y-97902380D01*
X130365714Y-97902380D01*
X128032380Y-93502380D02*
X127460952Y-93502380D01*
X127746666Y-93502380D02*
X127746666Y-92502380D01*
X127651428Y-92645238D01*
X127556190Y-92740476D01*
X127460952Y-92788095D01*
X128651428Y-92502380D02*
X128746666Y-92502380D01*
X128841904Y-92550000D01*
X128889523Y-92597619D01*
X128937142Y-92692857D01*
X128984761Y-92883333D01*
X128984761Y-93121428D01*
X128937142Y-93311904D01*
X128889523Y-93407142D01*
X128841904Y-93454761D01*
X128746666Y-93502380D01*
X128651428Y-93502380D01*
X128556190Y-93454761D01*
X128508571Y-93407142D01*
X128460952Y-93311904D01*
X128413333Y-93121428D01*
X128413333Y-92883333D01*
X128460952Y-92692857D01*
X128508571Y-92597619D01*
X128556190Y-92550000D01*
X128651428Y-92502380D01*
X129603809Y-92502380D02*
X129699047Y-92502380D01*
X129794285Y-92550000D01*
X129841904Y-92597619D01*
X129889523Y-92692857D01*
X129937142Y-92883333D01*
X129937142Y-93121428D01*
X129889523Y-93311904D01*
X129841904Y-93407142D01*
X129794285Y-93454761D01*
X129699047Y-93502380D01*
X129603809Y-93502380D01*
X129508571Y-93454761D01*
X129460952Y-93407142D01*
X129413333Y-93311904D01*
X129365714Y-93121428D01*
X129365714Y-92883333D01*
X129413333Y-92692857D01*
X129460952Y-92597619D01*
X129508571Y-92550000D01*
X129603809Y-92502380D01*
X130365714Y-92835714D02*
X130365714Y-93502380D01*
X130365714Y-92930952D02*
X130413333Y-92883333D01*
X130508571Y-92835714D01*
X130651428Y-92835714D01*
X130746666Y-92883333D01*
X130794285Y-92978571D01*
X130794285Y-93502380D01*
X131603809Y-92978571D02*
X131270476Y-92978571D01*
X131270476Y-93502380D02*
X131270476Y-92502380D01*
X131746666Y-92502380D01*
X154813333Y-97807142D02*
X154765714Y-97854761D01*
X154622857Y-97902380D01*
X154527619Y-97902380D01*
X154384761Y-97854761D01*
X154289523Y-97759523D01*
X154241904Y-97664285D01*
X154194285Y-97473809D01*
X154194285Y-97330952D01*
X154241904Y-97140476D01*
X154289523Y-97045238D01*
X154384761Y-96950000D01*
X154527619Y-96902380D01*
X154622857Y-96902380D01*
X154765714Y-96950000D01*
X154813333Y-96997619D01*
X155765714Y-97902380D02*
X155194285Y-97902380D01*
X155480000Y-97902380D02*
X155480000Y-96902380D01*
X155384761Y-97045238D01*
X155289523Y-97140476D01*
X155194285Y-97188095D01*
X153432380Y-93502380D02*
X152860952Y-93502380D01*
X153146666Y-93502380D02*
X153146666Y-92502380D01*
X153051428Y-92645238D01*
X152956190Y-92740476D01*
X152860952Y-92788095D01*
X154051428Y-92502380D02*
X154146666Y-92502380D01*
X154241904Y-92550000D01*
X154289523Y-92597619D01*
X154337142Y-92692857D01*
X154384761Y-92883333D01*
X154384761Y-93121428D01*
X154337142Y-93311904D01*
X154289523Y-93407142D01*
X154241904Y-93454761D01*
X154146666Y-93502380D01*
X154051428Y-93502380D01*
X153956190Y-93454761D01*
X153908571Y-93407142D01*
X153860952Y-93311904D01*
X153813333Y-93121428D01*
X153813333Y-92883333D01*
X153860952Y-92692857D01*
X153908571Y-92597619D01*
X153956190Y-92550000D01*
X154051428Y-92502380D01*
X155003809Y-92502380D02*
X155099047Y-92502380D01*
X155194285Y-92550000D01*
X155241904Y-92597619D01*
X155289523Y-92692857D01*
X155337142Y-92883333D01*
X155337142Y-93121428D01*
X155289523Y-93311904D01*
X155241904Y-93407142D01*
X155194285Y-93454761D01*
X155099047Y-93502380D01*
X155003809Y-93502380D01*
X154908571Y-93454761D01*
X154860952Y-93407142D01*
X154813333Y-93311904D01*
X154765714Y-93121428D01*
X154765714Y-92883333D01*
X154813333Y-92692857D01*
X154860952Y-92597619D01*
X154908571Y-92550000D01*
X155003809Y-92502380D01*
X155765714Y-92835714D02*
X155765714Y-93502380D01*
X155765714Y-92930952D02*
X155813333Y-92883333D01*
X155908571Y-92835714D01*
X156051428Y-92835714D01*
X156146666Y-92883333D01*
X156194285Y-92978571D01*
X156194285Y-93502380D01*
X157003809Y-92978571D02*
X156670476Y-92978571D01*
X156670476Y-93502380D02*
X156670476Y-92502380D01*
X157146666Y-92502380D01*
X163512380Y-132413333D02*
X164226666Y-132413333D01*
X164369523Y-132460952D01*
X164464761Y-132556190D01*
X164512380Y-132699047D01*
X164512380Y-132794285D01*
X164512380Y-131413333D02*
X164512380Y-131984761D01*
X164512380Y-131699047D02*
X163512380Y-131699047D01*
X163655238Y-131794285D01*
X163750476Y-131889523D01*
X163798095Y-131984761D01*
X122086666Y-80724285D02*
X122086666Y-80248095D01*
X122372380Y-80819523D02*
X121372380Y-80486190D01*
X122372380Y-80152857D01*
X122372380Y-79295714D02*
X122372380Y-79867142D01*
X122372380Y-79581428D02*
X121372380Y-79581428D01*
X121515238Y-79676666D01*
X121610476Y-79771904D01*
X121658095Y-79867142D01*
M02*
