G04 #@! TF.GenerationSoftware,KiCad,Pcbnew,(5.1.0-0)*
G04 #@! TF.CreationDate,2019-09-18T19:58:45-07:00*
G04 #@! TF.ProjectId,LEDRiser16,4c454452-6973-4657-9231-362e6b696361,rev?*
G04 #@! TF.SameCoordinates,Original*
G04 #@! TF.FileFunction,Copper,L1,Top*
G04 #@! TF.FilePolarity,Positive*
%FSLAX46Y46*%
G04 Gerber Fmt 4.6, Leading zero omitted, Abs format (unit mm)*
G04 Created by KiCad (PCBNEW (5.1.0-0)) date 2019-09-18 19:58:45*
%MOMM*%
%LPD*%
G04 APERTURE LIST*
%ADD10O,1.600000X1.600000*%
%ADD11R,1.600000X1.600000*%
%ADD12R,2.032000X2.032000*%
%ADD13C,2.032000*%
%ADD14O,1.700000X1.700000*%
%ADD15R,1.700000X1.700000*%
%ADD16C,0.250000*%
G04 APERTURE END LIST*
D10*
X79756000Y-83058000D03*
X82296000Y-83058000D03*
X84836000Y-83058000D03*
X87376000Y-83058000D03*
X89916000Y-83058000D03*
X92456000Y-83058000D03*
X94996000Y-83058000D03*
X97536000Y-83058000D03*
D11*
X100076000Y-83058000D03*
D10*
X103632000Y-83058000D03*
X106172000Y-83058000D03*
X108712000Y-83058000D03*
X111252000Y-83058000D03*
X113792000Y-83058000D03*
X116332000Y-83058000D03*
X118872000Y-83058000D03*
X121412000Y-83058000D03*
D11*
X123952000Y-83058000D03*
D12*
X98298000Y-72136000D03*
D13*
X95758000Y-72136000D03*
X93218000Y-72136000D03*
X90678000Y-72136000D03*
X80518000Y-79756000D03*
X83058000Y-79756000D03*
X85598000Y-79756000D03*
X88138000Y-79756000D03*
X88138000Y-72136000D03*
X85598000Y-72136000D03*
X83058000Y-72136000D03*
X80518000Y-72136000D03*
X77978000Y-79756000D03*
X75438000Y-79756000D03*
X75438000Y-72136000D03*
X77978000Y-72136000D03*
X90678000Y-79756000D03*
X93218000Y-79756000D03*
X95758000Y-79756000D03*
X98298000Y-79756000D03*
X124206000Y-79756000D03*
X121666000Y-79756000D03*
X119126000Y-79756000D03*
X116586000Y-79756000D03*
X103886000Y-72136000D03*
X101346000Y-72136000D03*
X101346000Y-79756000D03*
X103886000Y-79756000D03*
X106426000Y-72136000D03*
X108966000Y-72136000D03*
X111506000Y-72136000D03*
X114046000Y-72136000D03*
X114046000Y-79756000D03*
X111506000Y-79756000D03*
X108966000Y-79756000D03*
X106426000Y-79756000D03*
X116586000Y-72136000D03*
X119126000Y-72136000D03*
X121666000Y-72136000D03*
D12*
X124206000Y-72136000D03*
D14*
X83501000Y-68834000D03*
X86041000Y-68834000D03*
X88581000Y-68834000D03*
X91121000Y-68834000D03*
X93661000Y-68834000D03*
X96201000Y-68834000D03*
X98741000Y-68834000D03*
X101281000Y-68834000D03*
X103821000Y-68834000D03*
X106361000Y-68834000D03*
X108901000Y-68834000D03*
X111441000Y-68834000D03*
X113981000Y-68834000D03*
X116521000Y-68834000D03*
X119061000Y-68834000D03*
X121601000Y-68834000D03*
D15*
X124141000Y-68834000D03*
D16*
X121412000Y-82550000D02*
X121412000Y-83058000D01*
X124206000Y-79756000D02*
X121412000Y-82550000D01*
X118872000Y-82550000D02*
X118872000Y-83058000D01*
X121666000Y-79756000D02*
X118872000Y-82550000D01*
X116332000Y-82550000D02*
X116332000Y-83058000D01*
X119126000Y-79756000D02*
X116332000Y-82550000D01*
X113792000Y-82550000D02*
X113792000Y-83058000D01*
X116586000Y-79756000D02*
X113792000Y-82550000D01*
X103886000Y-71439000D02*
X103886000Y-72136000D01*
X101281000Y-68834000D02*
X103886000Y-71439000D01*
X101346000Y-71439000D02*
X101346000Y-72136000D01*
X98741000Y-68834000D02*
X101346000Y-71439000D01*
X106426000Y-71439000D02*
X106426000Y-72136000D01*
X103821000Y-68834000D02*
X106426000Y-71439000D01*
X108966000Y-71439000D02*
X108966000Y-72136000D01*
X106361000Y-68834000D02*
X108966000Y-71439000D01*
X111506000Y-71439000D02*
X111506000Y-72136000D01*
X108901000Y-68834000D02*
X111506000Y-71439000D01*
X114046000Y-71439000D02*
X114046000Y-72136000D01*
X111441000Y-68834000D02*
X114046000Y-71439000D01*
X111252000Y-82550000D02*
X111252000Y-83058000D01*
X114046000Y-79756000D02*
X111252000Y-82550000D01*
X108712000Y-82550000D02*
X108712000Y-83058000D01*
X111506000Y-79756000D02*
X108712000Y-82550000D01*
X106172000Y-82550000D02*
X106172000Y-83058000D01*
X108966000Y-79756000D02*
X106172000Y-82550000D01*
X103632000Y-82550000D02*
X103632000Y-83058000D01*
X106426000Y-79756000D02*
X103632000Y-82550000D01*
X116586000Y-71439000D02*
X116586000Y-72136000D01*
X113981000Y-68834000D02*
X116586000Y-71439000D01*
X119126000Y-71439000D02*
X119126000Y-72136000D01*
X116521000Y-68834000D02*
X119126000Y-71439000D01*
X121666000Y-71439000D02*
X121666000Y-72136000D01*
X119061000Y-68834000D02*
X121666000Y-71439000D01*
X124206000Y-71439000D02*
X124206000Y-72136000D01*
X121601000Y-68834000D02*
X124206000Y-71439000D01*
X96774000Y-81280000D02*
X94870410Y-81280000D01*
X93092410Y-83058000D02*
X92456000Y-83058000D01*
X94870410Y-81280000D02*
X93092410Y-83058000D01*
X98298000Y-79756000D02*
X96774000Y-81280000D01*
X90715999Y-82258001D02*
X89916000Y-83058000D01*
X91041001Y-81932999D02*
X90715999Y-82258001D01*
X93581001Y-81932999D02*
X91041001Y-81932999D01*
X95758000Y-79756000D02*
X93581001Y-81932999D01*
X88012410Y-83058000D02*
X87376000Y-83058000D01*
X89973409Y-81097001D02*
X88012410Y-83058000D01*
X91876999Y-81097001D02*
X89973409Y-81097001D01*
X93218000Y-79756000D02*
X91876999Y-81097001D01*
X85472410Y-83058000D02*
X84836000Y-83058000D01*
X86597411Y-81932999D02*
X85472410Y-83058000D01*
X88501001Y-81932999D02*
X86597411Y-81932999D01*
X90678000Y-79756000D02*
X88501001Y-81932999D01*
X83501000Y-70039000D02*
X85598000Y-72136000D01*
X83501000Y-68834000D02*
X83501000Y-70039000D01*
X86041000Y-70039000D02*
X88138000Y-72136000D01*
X86041000Y-68834000D02*
X86041000Y-70039000D01*
X83095999Y-82258001D02*
X82296000Y-83058000D01*
X83421001Y-81932999D02*
X83095999Y-82258001D01*
X85961001Y-81932999D02*
X83421001Y-81932999D01*
X88138000Y-79756000D02*
X85961001Y-81932999D01*
X80555999Y-82258001D02*
X79756000Y-83058000D01*
X84256999Y-81097001D02*
X81716999Y-81097001D01*
X81716999Y-81097001D02*
X80555999Y-82258001D01*
X85598000Y-79756000D02*
X84256999Y-81097001D01*
X88581000Y-70039000D02*
X90678000Y-72136000D01*
X88581000Y-68834000D02*
X88581000Y-70039000D01*
X91121000Y-70039000D02*
X93218000Y-72136000D01*
X91121000Y-68834000D02*
X91121000Y-70039000D01*
X93661000Y-70039000D02*
X95758000Y-72136000D01*
X93661000Y-68834000D02*
X93661000Y-70039000D01*
X96201000Y-70039000D02*
X98298000Y-72136000D01*
X96201000Y-68834000D02*
X96201000Y-70039000D01*
X96121001Y-81932999D02*
X95795999Y-82258001D01*
X98105683Y-81932999D02*
X96121001Y-81932999D01*
X95795999Y-82258001D02*
X94996000Y-83058000D01*
X100282682Y-79756000D02*
X98105683Y-81932999D01*
X101346000Y-79756000D02*
X100282682Y-79756000D01*
X97617092Y-83058000D02*
X97536000Y-83058000D01*
X98742093Y-81932999D02*
X97617092Y-83058000D01*
X101709001Y-81932999D02*
X98742093Y-81932999D01*
X103886000Y-79756000D02*
X101709001Y-81932999D01*
M02*
