G04 #@! TF.GenerationSoftware,KiCad,Pcbnew,(5.1.0-0)*
G04 #@! TF.CreationDate,2019-10-09T20:03:15-07:00*
G04 #@! TF.ProjectId,RAMCard,52414d43-6172-4642-9e6b-696361645f70,rev?*
G04 #@! TF.SameCoordinates,Original*
G04 #@! TF.FileFunction,Legend,Top*
G04 #@! TF.FilePolarity,Positive*
%FSLAX46Y46*%
G04 Gerber Fmt 4.6, Leading zero omitted, Abs format (unit mm)*
G04 Created by KiCad (PCBNEW (5.1.0-0)) date 2019-10-09 20:03:15*
%MOMM*%
%LPD*%
G04 APERTURE LIST*
%ADD10C,0.300000*%
%ADD11C,0.120000*%
%ADD12C,0.150000*%
G04 APERTURE END LIST*
D10*
X103294571Y-100363142D02*
X102580285Y-100863142D01*
X103294571Y-101220285D02*
X101794571Y-101220285D01*
X101794571Y-100648857D01*
X101866000Y-100506000D01*
X101937428Y-100434571D01*
X102080285Y-100363142D01*
X102294571Y-100363142D01*
X102437428Y-100434571D01*
X102508857Y-100506000D01*
X102580285Y-100648857D01*
X102580285Y-101220285D01*
X102866000Y-99791714D02*
X102866000Y-99077428D01*
X103294571Y-99934571D02*
X101794571Y-99434571D01*
X103294571Y-98934571D01*
X103294571Y-98434571D02*
X101794571Y-98434571D01*
X102866000Y-97934571D01*
X101794571Y-97434571D01*
X103294571Y-97434571D01*
X103151714Y-94720285D02*
X103223142Y-94791714D01*
X103294571Y-95006000D01*
X103294571Y-95148857D01*
X103223142Y-95363142D01*
X103080285Y-95506000D01*
X102937428Y-95577428D01*
X102651714Y-95648857D01*
X102437428Y-95648857D01*
X102151714Y-95577428D01*
X102008857Y-95506000D01*
X101866000Y-95363142D01*
X101794571Y-95148857D01*
X101794571Y-95006000D01*
X101866000Y-94791714D01*
X101937428Y-94720285D01*
X103294571Y-93434571D02*
X102508857Y-93434571D01*
X102366000Y-93506000D01*
X102294571Y-93648857D01*
X102294571Y-93934571D01*
X102366000Y-94077428D01*
X103223142Y-93434571D02*
X103294571Y-93577428D01*
X103294571Y-93934571D01*
X103223142Y-94077428D01*
X103080285Y-94148857D01*
X102937428Y-94148857D01*
X102794571Y-94077428D01*
X102723142Y-93934571D01*
X102723142Y-93577428D01*
X102651714Y-93434571D01*
X103294571Y-92720285D02*
X102294571Y-92720285D01*
X102580285Y-92720285D02*
X102437428Y-92648857D01*
X102366000Y-92577428D01*
X102294571Y-92434571D01*
X102294571Y-92291714D01*
X103294571Y-91148857D02*
X101794571Y-91148857D01*
X103223142Y-91148857D02*
X103294571Y-91291714D01*
X103294571Y-91577428D01*
X103223142Y-91720285D01*
X103151714Y-91791714D01*
X103008857Y-91863142D01*
X102580285Y-91863142D01*
X102437428Y-91791714D01*
X102366000Y-91720285D01*
X102294571Y-91577428D01*
X102294571Y-91291714D01*
X102366000Y-91148857D01*
X102151714Y-88077428D02*
X102080285Y-88220285D01*
X102080285Y-88506000D01*
X102151714Y-88648857D01*
X102294571Y-88791714D01*
X102437428Y-88863142D01*
X102723142Y-88863142D01*
X102866000Y-88791714D01*
X103008857Y-88648857D01*
X103080285Y-88506000D01*
X103080285Y-88220285D01*
X103008857Y-88077428D01*
X101580285Y-88363142D02*
X101651714Y-88720285D01*
X101866000Y-89077428D01*
X102223142Y-89291714D01*
X102580285Y-89363142D01*
X102937428Y-89291714D01*
X103294571Y-89077428D01*
X103508857Y-88720285D01*
X103580285Y-88363142D01*
X103508857Y-88006000D01*
X103294571Y-87648857D01*
X102937428Y-87434571D01*
X102580285Y-87363142D01*
X102223142Y-87434571D01*
X101866000Y-87648857D01*
X101651714Y-88006000D01*
X101580285Y-88363142D01*
X101937428Y-85648857D02*
X101866000Y-85577428D01*
X101794571Y-85434571D01*
X101794571Y-85077428D01*
X101866000Y-84934571D01*
X101937428Y-84863142D01*
X102080285Y-84791714D01*
X102223142Y-84791714D01*
X102437428Y-84863142D01*
X103294571Y-85720285D01*
X103294571Y-84791714D01*
X101794571Y-83863142D02*
X101794571Y-83720285D01*
X101866000Y-83577428D01*
X101937428Y-83506000D01*
X102080285Y-83434571D01*
X102366000Y-83363142D01*
X102723142Y-83363142D01*
X103008857Y-83434571D01*
X103151714Y-83506000D01*
X103223142Y-83577428D01*
X103294571Y-83720285D01*
X103294571Y-83863142D01*
X103223142Y-84006000D01*
X103151714Y-84077428D01*
X103008857Y-84148857D01*
X102723142Y-84220285D01*
X102366000Y-84220285D01*
X102080285Y-84148857D01*
X101937428Y-84077428D01*
X101866000Y-84006000D01*
X101794571Y-83863142D01*
X103294571Y-81934571D02*
X103294571Y-82791714D01*
X103294571Y-82363142D02*
X101794571Y-82363142D01*
X102008857Y-82506000D01*
X102151714Y-82648857D01*
X102223142Y-82791714D01*
X103294571Y-81220285D02*
X103294571Y-80934571D01*
X103223142Y-80791714D01*
X103151714Y-80720285D01*
X102937428Y-80577428D01*
X102651714Y-80506000D01*
X102080285Y-80506000D01*
X101937428Y-80577428D01*
X101866000Y-80648857D01*
X101794571Y-80791714D01*
X101794571Y-81077428D01*
X101866000Y-81220285D01*
X101937428Y-81291714D01*
X102080285Y-81363142D01*
X102437428Y-81363142D01*
X102580285Y-81291714D01*
X102651714Y-81220285D01*
X102723142Y-81077428D01*
X102723142Y-80791714D01*
X102651714Y-80648857D01*
X102580285Y-80577428D01*
X102437428Y-80506000D01*
X102866000Y-78791714D02*
X102866000Y-78077428D01*
X103294571Y-78934571D02*
X101794571Y-78434571D01*
X103294571Y-77934571D01*
X102294571Y-77434571D02*
X103294571Y-77434571D01*
X102437428Y-77434571D02*
X102366000Y-77363142D01*
X102294571Y-77220285D01*
X102294571Y-77006000D01*
X102366000Y-76863142D01*
X102508857Y-76791714D01*
X103294571Y-76791714D01*
X103294571Y-75434571D02*
X101794571Y-75434571D01*
X103223142Y-75434571D02*
X103294571Y-75577428D01*
X103294571Y-75863142D01*
X103223142Y-76006000D01*
X103151714Y-76077428D01*
X103008857Y-76148857D01*
X102580285Y-76148857D01*
X102437428Y-76077428D01*
X102366000Y-76006000D01*
X102294571Y-75863142D01*
X102294571Y-75577428D01*
X102366000Y-75434571D01*
X103294571Y-74720285D02*
X102294571Y-74720285D01*
X102580285Y-74720285D02*
X102437428Y-74648857D01*
X102366000Y-74577428D01*
X102294571Y-74434571D01*
X102294571Y-74291714D01*
X103223142Y-73220285D02*
X103294571Y-73363142D01*
X103294571Y-73648857D01*
X103223142Y-73791714D01*
X103080285Y-73863142D01*
X102508857Y-73863142D01*
X102366000Y-73791714D01*
X102294571Y-73648857D01*
X102294571Y-73363142D01*
X102366000Y-73220285D01*
X102508857Y-73148857D01*
X102651714Y-73148857D01*
X102794571Y-73863142D01*
X102294571Y-72648857D02*
X103294571Y-72363142D01*
X102580285Y-72077428D01*
X103294571Y-71791714D01*
X102294571Y-71506000D01*
X102508857Y-69291714D02*
X102508857Y-69791714D01*
X103294571Y-69791714D02*
X101794571Y-69791714D01*
X101794571Y-69077428D01*
X103294571Y-68291714D02*
X103223142Y-68434571D01*
X103151714Y-68506000D01*
X103008857Y-68577428D01*
X102580285Y-68577428D01*
X102437428Y-68506000D01*
X102366000Y-68434571D01*
X102294571Y-68291714D01*
X102294571Y-68077428D01*
X102366000Y-67934571D01*
X102437428Y-67863142D01*
X102580285Y-67791714D01*
X103008857Y-67791714D01*
X103151714Y-67863142D01*
X103223142Y-67934571D01*
X103294571Y-68077428D01*
X103294571Y-68291714D01*
X103294571Y-67291714D02*
X102294571Y-66506000D01*
X102294571Y-67291714D02*
X103294571Y-66506000D01*
X103223142Y-65863142D02*
X103294571Y-65863142D01*
X103437428Y-65934571D01*
X103508857Y-66006000D01*
X103294571Y-63220285D02*
X102580285Y-63720285D01*
X103294571Y-64077428D02*
X101794571Y-64077428D01*
X101794571Y-63506000D01*
X101866000Y-63363142D01*
X101937428Y-63291714D01*
X102080285Y-63220285D01*
X102294571Y-63220285D01*
X102437428Y-63291714D01*
X102508857Y-63363142D01*
X102580285Y-63506000D01*
X102580285Y-64077428D01*
X103223142Y-62006000D02*
X103294571Y-62148857D01*
X103294571Y-62434571D01*
X103223142Y-62577428D01*
X103080285Y-62648857D01*
X102508857Y-62648857D01*
X102366000Y-62577428D01*
X102294571Y-62434571D01*
X102294571Y-62148857D01*
X102366000Y-62006000D01*
X102508857Y-61934571D01*
X102651714Y-61934571D01*
X102794571Y-62648857D01*
X102294571Y-61434571D02*
X103294571Y-61077428D01*
X102294571Y-60720285D01*
X103294571Y-58220285D02*
X103294571Y-59077428D01*
X103294571Y-58648857D02*
X101794571Y-58648857D01*
X102008857Y-58791714D01*
X102151714Y-58934571D01*
X102223142Y-59077428D01*
D11*
X151130000Y-106680000D02*
X151130000Y-107950000D01*
X149860000Y-106680000D02*
X151130000Y-106680000D01*
X101220000Y-108992929D02*
X101220000Y-109447071D01*
X101980000Y-108992929D02*
X101980000Y-109447071D01*
X101220000Y-111532929D02*
X101220000Y-111930000D01*
X101980000Y-111532929D02*
X101980000Y-111930000D01*
X101220000Y-120590000D02*
X101220000Y-114590000D01*
X101980000Y-120590000D02*
X101220000Y-120590000D01*
X101980000Y-114590000D02*
X101980000Y-120590000D01*
X102870000Y-111930000D02*
X102870000Y-114590000D01*
X103760000Y-108992929D02*
X103760000Y-109447071D01*
X104520000Y-108992929D02*
X104520000Y-109447071D01*
X103760000Y-111532929D02*
X103760000Y-111930000D01*
X104520000Y-111532929D02*
X104520000Y-111930000D01*
X103760000Y-120590000D02*
X103760000Y-114590000D01*
X104520000Y-120590000D02*
X103760000Y-120590000D01*
X104520000Y-114590000D02*
X104520000Y-120590000D01*
X105410000Y-111930000D02*
X105410000Y-114590000D01*
X106300000Y-108992929D02*
X106300000Y-109447071D01*
X107060000Y-108992929D02*
X107060000Y-109447071D01*
X106300000Y-111532929D02*
X106300000Y-111930000D01*
X107060000Y-111532929D02*
X107060000Y-111930000D01*
X106300000Y-120590000D02*
X106300000Y-114590000D01*
X107060000Y-120590000D02*
X106300000Y-120590000D01*
X107060000Y-114590000D02*
X107060000Y-120590000D01*
X107950000Y-111930000D02*
X107950000Y-114590000D01*
X108840000Y-108992929D02*
X108840000Y-109447071D01*
X109600000Y-108992929D02*
X109600000Y-109447071D01*
X108840000Y-111532929D02*
X108840000Y-111930000D01*
X109600000Y-111532929D02*
X109600000Y-111930000D01*
X108840000Y-120590000D02*
X108840000Y-114590000D01*
X109600000Y-120590000D02*
X108840000Y-120590000D01*
X109600000Y-114590000D02*
X109600000Y-120590000D01*
X110490000Y-111930000D02*
X110490000Y-114590000D01*
X111380000Y-108992929D02*
X111380000Y-109447071D01*
X112140000Y-108992929D02*
X112140000Y-109447071D01*
X111380000Y-111532929D02*
X111380000Y-111930000D01*
X112140000Y-111532929D02*
X112140000Y-111930000D01*
X111380000Y-120590000D02*
X111380000Y-114590000D01*
X112140000Y-120590000D02*
X111380000Y-120590000D01*
X112140000Y-114590000D02*
X112140000Y-120590000D01*
X113030000Y-111930000D02*
X113030000Y-114590000D01*
X113920000Y-108992929D02*
X113920000Y-109447071D01*
X114680000Y-108992929D02*
X114680000Y-109447071D01*
X113920000Y-111532929D02*
X113920000Y-111930000D01*
X114680000Y-111532929D02*
X114680000Y-111930000D01*
X113920000Y-120590000D02*
X113920000Y-114590000D01*
X114680000Y-120590000D02*
X113920000Y-120590000D01*
X114680000Y-114590000D02*
X114680000Y-120590000D01*
X115570000Y-111930000D02*
X115570000Y-114590000D01*
X116460000Y-108992929D02*
X116460000Y-109447071D01*
X117220000Y-108992929D02*
X117220000Y-109447071D01*
X116460000Y-111532929D02*
X116460000Y-111930000D01*
X117220000Y-111532929D02*
X117220000Y-111930000D01*
X116460000Y-120590000D02*
X116460000Y-114590000D01*
X117220000Y-120590000D02*
X116460000Y-120590000D01*
X117220000Y-114590000D02*
X117220000Y-120590000D01*
X118110000Y-111930000D02*
X118110000Y-114590000D01*
X119000000Y-108992929D02*
X119000000Y-109447071D01*
X119760000Y-108992929D02*
X119760000Y-109447071D01*
X119000000Y-111532929D02*
X119000000Y-111930000D01*
X119760000Y-111532929D02*
X119760000Y-111930000D01*
X119000000Y-120590000D02*
X119000000Y-114590000D01*
X119760000Y-120590000D02*
X119000000Y-120590000D01*
X119760000Y-114590000D02*
X119760000Y-120590000D01*
X120650000Y-111930000D02*
X120650000Y-114590000D01*
X121540000Y-108992929D02*
X121540000Y-109447071D01*
X122300000Y-108992929D02*
X122300000Y-109447071D01*
X121540000Y-111532929D02*
X121540000Y-111930000D01*
X122300000Y-111532929D02*
X122300000Y-111930000D01*
X121540000Y-120590000D02*
X121540000Y-114590000D01*
X122300000Y-120590000D02*
X121540000Y-120590000D01*
X122300000Y-114590000D02*
X122300000Y-120590000D01*
X123190000Y-111930000D02*
X123190000Y-114590000D01*
X124080000Y-108992929D02*
X124080000Y-109447071D01*
X124840000Y-108992929D02*
X124840000Y-109447071D01*
X124080000Y-111532929D02*
X124080000Y-111930000D01*
X124840000Y-111532929D02*
X124840000Y-111930000D01*
X124080000Y-120590000D02*
X124080000Y-114590000D01*
X124840000Y-120590000D02*
X124080000Y-120590000D01*
X124840000Y-114590000D02*
X124840000Y-120590000D01*
X125730000Y-111930000D02*
X125730000Y-114590000D01*
X126620000Y-108992929D02*
X126620000Y-109447071D01*
X127380000Y-108992929D02*
X127380000Y-109447071D01*
X126620000Y-111532929D02*
X126620000Y-111930000D01*
X127380000Y-111532929D02*
X127380000Y-111930000D01*
X126620000Y-120590000D02*
X126620000Y-114590000D01*
X127380000Y-120590000D02*
X126620000Y-120590000D01*
X127380000Y-114590000D02*
X127380000Y-120590000D01*
X128270000Y-111930000D02*
X128270000Y-114590000D01*
X129160000Y-108992929D02*
X129160000Y-109447071D01*
X129920000Y-108992929D02*
X129920000Y-109447071D01*
X129160000Y-111532929D02*
X129160000Y-111930000D01*
X129920000Y-111532929D02*
X129920000Y-111930000D01*
X129160000Y-120590000D02*
X129160000Y-114590000D01*
X129920000Y-120590000D02*
X129160000Y-120590000D01*
X129920000Y-114590000D02*
X129920000Y-120590000D01*
X130810000Y-111930000D02*
X130810000Y-114590000D01*
X131700000Y-108992929D02*
X131700000Y-109447071D01*
X132460000Y-108992929D02*
X132460000Y-109447071D01*
X131700000Y-111532929D02*
X131700000Y-111930000D01*
X132460000Y-111532929D02*
X132460000Y-111930000D01*
X131700000Y-120590000D02*
X131700000Y-114590000D01*
X132460000Y-120590000D02*
X131700000Y-120590000D01*
X132460000Y-114590000D02*
X132460000Y-120590000D01*
X133350000Y-111930000D02*
X133350000Y-114590000D01*
X134240000Y-108992929D02*
X134240000Y-109447071D01*
X135000000Y-108992929D02*
X135000000Y-109447071D01*
X134240000Y-111532929D02*
X134240000Y-111930000D01*
X135000000Y-111532929D02*
X135000000Y-111930000D01*
X134240000Y-120590000D02*
X134240000Y-114590000D01*
X135000000Y-120590000D02*
X134240000Y-120590000D01*
X135000000Y-114590000D02*
X135000000Y-120590000D01*
X135890000Y-111930000D02*
X135890000Y-114590000D01*
X136780000Y-108992929D02*
X136780000Y-109447071D01*
X137540000Y-108992929D02*
X137540000Y-109447071D01*
X136780000Y-111532929D02*
X136780000Y-111930000D01*
X137540000Y-111532929D02*
X137540000Y-111930000D01*
X136780000Y-120590000D02*
X136780000Y-114590000D01*
X137540000Y-120590000D02*
X136780000Y-120590000D01*
X137540000Y-114590000D02*
X137540000Y-120590000D01*
X138430000Y-111930000D02*
X138430000Y-114590000D01*
X139320000Y-108992929D02*
X139320000Y-109447071D01*
X140080000Y-108992929D02*
X140080000Y-109447071D01*
X139320000Y-111532929D02*
X139320000Y-111930000D01*
X140080000Y-111532929D02*
X140080000Y-111930000D01*
X139320000Y-120590000D02*
X139320000Y-114590000D01*
X140080000Y-120590000D02*
X139320000Y-120590000D01*
X140080000Y-114590000D02*
X140080000Y-120590000D01*
X140970000Y-111930000D02*
X140970000Y-114590000D01*
X141860000Y-108992929D02*
X141860000Y-109447071D01*
X142620000Y-108992929D02*
X142620000Y-109447071D01*
X141860000Y-111532929D02*
X141860000Y-111930000D01*
X142620000Y-111532929D02*
X142620000Y-111930000D01*
X141860000Y-120590000D02*
X141860000Y-114590000D01*
X142620000Y-120590000D02*
X141860000Y-120590000D01*
X142620000Y-114590000D02*
X142620000Y-120590000D01*
X143510000Y-111930000D02*
X143510000Y-114590000D01*
X144400000Y-108992929D02*
X144400000Y-109447071D01*
X145160000Y-108992929D02*
X145160000Y-109447071D01*
X144400000Y-111532929D02*
X144400000Y-111930000D01*
X145160000Y-111532929D02*
X145160000Y-111930000D01*
X144400000Y-120590000D02*
X144400000Y-114590000D01*
X145160000Y-120590000D02*
X144400000Y-120590000D01*
X145160000Y-114590000D02*
X145160000Y-120590000D01*
X146050000Y-111930000D02*
X146050000Y-114590000D01*
X146940000Y-108992929D02*
X146940000Y-109447071D01*
X147700000Y-108992929D02*
X147700000Y-109447071D01*
X146940000Y-111532929D02*
X146940000Y-111930000D01*
X147700000Y-111532929D02*
X147700000Y-111930000D01*
X146940000Y-120590000D02*
X146940000Y-114590000D01*
X147700000Y-120590000D02*
X146940000Y-120590000D01*
X147700000Y-114590000D02*
X147700000Y-120590000D01*
X148590000Y-111930000D02*
X148590000Y-114590000D01*
X149480000Y-109060000D02*
X149480000Y-109447071D01*
X150240000Y-109060000D02*
X150240000Y-109447071D01*
X149480000Y-111532929D02*
X149480000Y-111930000D01*
X150240000Y-111532929D02*
X150240000Y-111930000D01*
X149580000Y-114590000D02*
X149580000Y-120590000D01*
X149700000Y-114590000D02*
X149700000Y-120590000D01*
X149820000Y-114590000D02*
X149820000Y-120590000D01*
X149940000Y-114590000D02*
X149940000Y-120590000D01*
X150060000Y-114590000D02*
X150060000Y-120590000D01*
X150180000Y-114590000D02*
X150180000Y-120590000D01*
X149480000Y-120590000D02*
X149480000Y-114590000D01*
X150240000Y-120590000D02*
X149480000Y-120590000D01*
X150240000Y-114590000D02*
X150240000Y-120590000D01*
X151190000Y-114590000D02*
X151190000Y-111930000D01*
X100270000Y-114590000D02*
X151190000Y-114590000D01*
X100270000Y-111930000D02*
X100270000Y-114590000D01*
X151190000Y-111930000D02*
X100270000Y-111930000D01*
X118420000Y-73367000D02*
X118420000Y-73352000D01*
X118420000Y-75492000D02*
X118420000Y-75477000D01*
X122960000Y-73367000D02*
X122960000Y-73352000D01*
X122960000Y-75492000D02*
X122960000Y-75477000D01*
X122960000Y-73352000D02*
X118420000Y-73352000D01*
X122960000Y-75492000D02*
X118420000Y-75492000D01*
X151190000Y-59570000D02*
X140910000Y-59570000D01*
X151190000Y-95370000D02*
X151190000Y-59570000D01*
X140910000Y-95370000D02*
X151190000Y-95370000D01*
X140910000Y-59570000D02*
X140910000Y-95370000D01*
X148700000Y-59630000D02*
X147050000Y-59630000D01*
X148700000Y-95310000D02*
X148700000Y-59630000D01*
X143400000Y-95310000D02*
X148700000Y-95310000D01*
X143400000Y-59630000D02*
X143400000Y-95310000D01*
X145050000Y-59630000D02*
X143400000Y-59630000D01*
X147050000Y-59630000D02*
G75*
G02X145050000Y-59630000I-1000000J0D01*
G01*
X121650000Y-77410000D02*
G75*
G02X119650000Y-77410000I-1000000J0D01*
G01*
X119650000Y-77410000D02*
X118000000Y-77410000D01*
X118000000Y-77410000D02*
X118000000Y-95310000D01*
X118000000Y-95310000D02*
X123300000Y-95310000D01*
X123300000Y-95310000D02*
X123300000Y-77410000D01*
X123300000Y-77410000D02*
X121650000Y-77410000D01*
X138490000Y-59570000D02*
X128210000Y-59570000D01*
X138490000Y-95370000D02*
X138490000Y-59570000D01*
X128210000Y-95370000D02*
X138490000Y-95370000D01*
X128210000Y-59570000D02*
X128210000Y-95370000D01*
X136000000Y-59630000D02*
X134350000Y-59630000D01*
X136000000Y-95310000D02*
X136000000Y-59630000D01*
X130700000Y-95310000D02*
X136000000Y-95310000D01*
X130700000Y-59630000D02*
X130700000Y-95310000D01*
X132350000Y-59630000D02*
X130700000Y-59630000D01*
X134350000Y-59630000D02*
G75*
G02X132350000Y-59630000I-1000000J0D01*
G01*
X131120000Y-55587000D02*
X131120000Y-55572000D01*
X131120000Y-57712000D02*
X131120000Y-57697000D01*
X135660000Y-55587000D02*
X135660000Y-55572000D01*
X135660000Y-57712000D02*
X135660000Y-57697000D01*
X135660000Y-55572000D02*
X131120000Y-55572000D01*
X135660000Y-57712000D02*
X131120000Y-57712000D01*
X143820000Y-55587000D02*
X143820000Y-55572000D01*
X143820000Y-57712000D02*
X143820000Y-57697000D01*
X148360000Y-55587000D02*
X148360000Y-55572000D01*
X148360000Y-57712000D02*
X148360000Y-57697000D01*
X148360000Y-55572000D02*
X143820000Y-55572000D01*
X148360000Y-57712000D02*
X143820000Y-57712000D01*
D12*
X151582380Y-113938333D02*
X152296666Y-113938333D01*
X152439523Y-113985952D01*
X152534761Y-114081190D01*
X152582380Y-114224047D01*
X152582380Y-114319285D01*
X152582380Y-112938333D02*
X152582380Y-113509761D01*
X152582380Y-113224047D02*
X151582380Y-113224047D01*
X151725238Y-113319285D01*
X151820476Y-113414523D01*
X151868095Y-113509761D01*
X120523333Y-72747142D02*
X120475714Y-72794761D01*
X120332857Y-72842380D01*
X120237619Y-72842380D01*
X120094761Y-72794761D01*
X119999523Y-72699523D01*
X119951904Y-72604285D01*
X119904285Y-72413809D01*
X119904285Y-72270952D01*
X119951904Y-72080476D01*
X119999523Y-71985238D01*
X120094761Y-71890000D01*
X120237619Y-71842380D01*
X120332857Y-71842380D01*
X120475714Y-71890000D01*
X120523333Y-71937619D01*
X121475714Y-72842380D02*
X120904285Y-72842380D01*
X121190000Y-72842380D02*
X121190000Y-71842380D01*
X121094761Y-71985238D01*
X120999523Y-72080476D01*
X120904285Y-72128095D01*
X145288095Y-58082380D02*
X145288095Y-58891904D01*
X145335714Y-58987142D01*
X145383333Y-59034761D01*
X145478571Y-59082380D01*
X145669047Y-59082380D01*
X145764285Y-59034761D01*
X145811904Y-58987142D01*
X145859523Y-58891904D01*
X145859523Y-58082380D01*
X146764285Y-58082380D02*
X146573809Y-58082380D01*
X146478571Y-58130000D01*
X146430952Y-58177619D01*
X146335714Y-58320476D01*
X146288095Y-58510952D01*
X146288095Y-58891904D01*
X146335714Y-58987142D01*
X146383333Y-59034761D01*
X146478571Y-59082380D01*
X146669047Y-59082380D01*
X146764285Y-59034761D01*
X146811904Y-58987142D01*
X146859523Y-58891904D01*
X146859523Y-58653809D01*
X146811904Y-58558571D01*
X146764285Y-58510952D01*
X146669047Y-58463333D01*
X146478571Y-58463333D01*
X146383333Y-58510952D01*
X146335714Y-58558571D01*
X146288095Y-58653809D01*
X140152380Y-95400000D02*
X139152380Y-95400000D01*
X140152380Y-94923809D02*
X139152380Y-94923809D01*
X139152380Y-94685714D01*
X139200000Y-94542857D01*
X139295238Y-94447619D01*
X139390476Y-94400000D01*
X139580952Y-94352380D01*
X139723809Y-94352380D01*
X139914285Y-94400000D01*
X140009523Y-94447619D01*
X140104761Y-94542857D01*
X140152380Y-94685714D01*
X140152380Y-94923809D01*
X139152380Y-94066666D02*
X139152380Y-93495238D01*
X140152380Y-93780952D02*
X139152380Y-93780952D01*
X139152380Y-93257142D02*
X139152380Y-92590476D01*
X140152380Y-93019047D01*
X140152380Y-91685714D02*
X140152380Y-92257142D01*
X140152380Y-91971428D02*
X139152380Y-91971428D01*
X139295238Y-92066666D01*
X139390476Y-92161904D01*
X139438095Y-92257142D01*
X139247619Y-91304761D02*
X139200000Y-91257142D01*
X139152380Y-91161904D01*
X139152380Y-90923809D01*
X139200000Y-90828571D01*
X139247619Y-90780952D01*
X139342857Y-90733333D01*
X139438095Y-90733333D01*
X139580952Y-90780952D01*
X140152380Y-91352380D01*
X140152380Y-90733333D01*
X139152380Y-89828571D02*
X139152380Y-90304761D01*
X139628571Y-90352380D01*
X139580952Y-90304761D01*
X139533333Y-90209523D01*
X139533333Y-89971428D01*
X139580952Y-89876190D01*
X139628571Y-89828571D01*
X139723809Y-89780952D01*
X139961904Y-89780952D01*
X140057142Y-89828571D01*
X140104761Y-89876190D01*
X140152380Y-89971428D01*
X140152380Y-90209523D01*
X140104761Y-90304761D01*
X140057142Y-90352380D01*
X139152380Y-88923809D02*
X139152380Y-89114285D01*
X139200000Y-89209523D01*
X139247619Y-89257142D01*
X139390476Y-89352380D01*
X139580952Y-89400000D01*
X139961904Y-89400000D01*
X140057142Y-89352380D01*
X140104761Y-89304761D01*
X140152380Y-89209523D01*
X140152380Y-89019047D01*
X140104761Y-88923809D01*
X140057142Y-88876190D01*
X139961904Y-88828571D01*
X139723809Y-88828571D01*
X139628571Y-88876190D01*
X139580952Y-88923809D01*
X139533333Y-89019047D01*
X139533333Y-89209523D01*
X139580952Y-89304761D01*
X139628571Y-89352380D01*
X139723809Y-89400000D01*
X140104761Y-88447619D02*
X140152380Y-88304761D01*
X140152380Y-88066666D01*
X140104761Y-87971428D01*
X140057142Y-87923809D01*
X139961904Y-87876190D01*
X139866666Y-87876190D01*
X139771428Y-87923809D01*
X139723809Y-87971428D01*
X139676190Y-88066666D01*
X139628571Y-88257142D01*
X139580952Y-88352380D01*
X139533333Y-88400000D01*
X139438095Y-88447619D01*
X139342857Y-88447619D01*
X139247619Y-88400000D01*
X139200000Y-88352380D01*
X139152380Y-88257142D01*
X139152380Y-88019047D01*
X139200000Y-87876190D01*
X139866666Y-87495238D02*
X139866666Y-87019047D01*
X140152380Y-87590476D02*
X139152380Y-87257142D01*
X140152380Y-86923809D01*
X140152380Y-86066666D02*
X140152380Y-86638095D01*
X140152380Y-86352380D02*
X139152380Y-86352380D01*
X139295238Y-86447619D01*
X139390476Y-86542857D01*
X139438095Y-86638095D01*
X139247619Y-85685714D02*
X139200000Y-85638095D01*
X139152380Y-85542857D01*
X139152380Y-85304761D01*
X139200000Y-85209523D01*
X139247619Y-85161904D01*
X139342857Y-85114285D01*
X139438095Y-85114285D01*
X139580952Y-85161904D01*
X140152380Y-85733333D01*
X140152380Y-85114285D01*
X139152380Y-84828571D02*
X139152380Y-84257142D01*
X140152380Y-84542857D02*
X139152380Y-84542857D01*
X140152380Y-83923809D02*
X139152380Y-83923809D01*
X139152380Y-83542857D01*
X139200000Y-83447619D01*
X139247619Y-83400000D01*
X139342857Y-83352380D01*
X139485714Y-83352380D01*
X139580952Y-83400000D01*
X139628571Y-83447619D01*
X139676190Y-83542857D01*
X139676190Y-83923809D01*
X139200000Y-82400000D02*
X139152380Y-82495238D01*
X139152380Y-82638095D01*
X139200000Y-82780952D01*
X139295238Y-82876190D01*
X139390476Y-82923809D01*
X139580952Y-82971428D01*
X139723809Y-82971428D01*
X139914285Y-82923809D01*
X140009523Y-82876190D01*
X140104761Y-82780952D01*
X140152380Y-82638095D01*
X140152380Y-82542857D01*
X140104761Y-82400000D01*
X140057142Y-82352380D01*
X139723809Y-82352380D01*
X139723809Y-82542857D01*
X119888095Y-75862380D02*
X119888095Y-76671904D01*
X119935714Y-76767142D01*
X119983333Y-76814761D01*
X120078571Y-76862380D01*
X120269047Y-76862380D01*
X120364285Y-76814761D01*
X120411904Y-76767142D01*
X120459523Y-76671904D01*
X120459523Y-75862380D01*
X121459523Y-76862380D02*
X120888095Y-76862380D01*
X121173809Y-76862380D02*
X121173809Y-75862380D01*
X121078571Y-76005238D01*
X120983333Y-76100476D01*
X120888095Y-76148095D01*
X118007142Y-95762380D02*
X118673809Y-95762380D01*
X118245238Y-96762380D01*
X119483333Y-96095714D02*
X119483333Y-96762380D01*
X119245238Y-95714761D02*
X119007142Y-96429047D01*
X119626190Y-96429047D01*
X120483333Y-96762380D02*
X120007142Y-96762380D01*
X120007142Y-95762380D01*
X120769047Y-96714761D02*
X120911904Y-96762380D01*
X121150000Y-96762380D01*
X121245238Y-96714761D01*
X121292857Y-96667142D01*
X121340476Y-96571904D01*
X121340476Y-96476666D01*
X121292857Y-96381428D01*
X121245238Y-96333809D01*
X121150000Y-96286190D01*
X120959523Y-96238571D01*
X120864285Y-96190952D01*
X120816666Y-96143333D01*
X120769047Y-96048095D01*
X120769047Y-95952857D01*
X120816666Y-95857619D01*
X120864285Y-95810000D01*
X120959523Y-95762380D01*
X121197619Y-95762380D01*
X121340476Y-95810000D01*
X121959523Y-95762380D02*
X122054761Y-95762380D01*
X122150000Y-95810000D01*
X122197619Y-95857619D01*
X122245238Y-95952857D01*
X122292857Y-96143333D01*
X122292857Y-96381428D01*
X122245238Y-96571904D01*
X122197619Y-96667142D01*
X122150000Y-96714761D01*
X122054761Y-96762380D01*
X121959523Y-96762380D01*
X121864285Y-96714761D01*
X121816666Y-96667142D01*
X121769047Y-96571904D01*
X121721428Y-96381428D01*
X121721428Y-96143333D01*
X121769047Y-95952857D01*
X121816666Y-95857619D01*
X121864285Y-95810000D01*
X121959523Y-95762380D01*
X123150000Y-96095714D02*
X123150000Y-96762380D01*
X122911904Y-95714761D02*
X122673809Y-96429047D01*
X123292857Y-96429047D01*
X132588095Y-58082380D02*
X132588095Y-58891904D01*
X132635714Y-58987142D01*
X132683333Y-59034761D01*
X132778571Y-59082380D01*
X132969047Y-59082380D01*
X133064285Y-59034761D01*
X133111904Y-58987142D01*
X133159523Y-58891904D01*
X133159523Y-58082380D01*
X133540476Y-58082380D02*
X134207142Y-58082380D01*
X133778571Y-59082380D01*
X127452380Y-95400000D02*
X126452380Y-95400000D01*
X127452380Y-94923809D02*
X126452380Y-94923809D01*
X126452380Y-94685714D01*
X126500000Y-94542857D01*
X126595238Y-94447619D01*
X126690476Y-94400000D01*
X126880952Y-94352380D01*
X127023809Y-94352380D01*
X127214285Y-94400000D01*
X127309523Y-94447619D01*
X127404761Y-94542857D01*
X127452380Y-94685714D01*
X127452380Y-94923809D01*
X126452380Y-94066666D02*
X126452380Y-93495238D01*
X127452380Y-93780952D02*
X126452380Y-93780952D01*
X126452380Y-93257142D02*
X126452380Y-92590476D01*
X127452380Y-93019047D01*
X127452380Y-91685714D02*
X127452380Y-92257142D01*
X127452380Y-91971428D02*
X126452380Y-91971428D01*
X126595238Y-92066666D01*
X126690476Y-92161904D01*
X126738095Y-92257142D01*
X126547619Y-91304761D02*
X126500000Y-91257142D01*
X126452380Y-91161904D01*
X126452380Y-90923809D01*
X126500000Y-90828571D01*
X126547619Y-90780952D01*
X126642857Y-90733333D01*
X126738095Y-90733333D01*
X126880952Y-90780952D01*
X127452380Y-91352380D01*
X127452380Y-90733333D01*
X126452380Y-89828571D02*
X126452380Y-90304761D01*
X126928571Y-90352380D01*
X126880952Y-90304761D01*
X126833333Y-90209523D01*
X126833333Y-89971428D01*
X126880952Y-89876190D01*
X126928571Y-89828571D01*
X127023809Y-89780952D01*
X127261904Y-89780952D01*
X127357142Y-89828571D01*
X127404761Y-89876190D01*
X127452380Y-89971428D01*
X127452380Y-90209523D01*
X127404761Y-90304761D01*
X127357142Y-90352380D01*
X126452380Y-88923809D02*
X126452380Y-89114285D01*
X126500000Y-89209523D01*
X126547619Y-89257142D01*
X126690476Y-89352380D01*
X126880952Y-89400000D01*
X127261904Y-89400000D01*
X127357142Y-89352380D01*
X127404761Y-89304761D01*
X127452380Y-89209523D01*
X127452380Y-89019047D01*
X127404761Y-88923809D01*
X127357142Y-88876190D01*
X127261904Y-88828571D01*
X127023809Y-88828571D01*
X126928571Y-88876190D01*
X126880952Y-88923809D01*
X126833333Y-89019047D01*
X126833333Y-89209523D01*
X126880952Y-89304761D01*
X126928571Y-89352380D01*
X127023809Y-89400000D01*
X127404761Y-88447619D02*
X127452380Y-88304761D01*
X127452380Y-88066666D01*
X127404761Y-87971428D01*
X127357142Y-87923809D01*
X127261904Y-87876190D01*
X127166666Y-87876190D01*
X127071428Y-87923809D01*
X127023809Y-87971428D01*
X126976190Y-88066666D01*
X126928571Y-88257142D01*
X126880952Y-88352380D01*
X126833333Y-88400000D01*
X126738095Y-88447619D01*
X126642857Y-88447619D01*
X126547619Y-88400000D01*
X126500000Y-88352380D01*
X126452380Y-88257142D01*
X126452380Y-88019047D01*
X126500000Y-87876190D01*
X127166666Y-87495238D02*
X127166666Y-87019047D01*
X127452380Y-87590476D02*
X126452380Y-87257142D01*
X127452380Y-86923809D01*
X127452380Y-86066666D02*
X127452380Y-86638095D01*
X127452380Y-86352380D02*
X126452380Y-86352380D01*
X126595238Y-86447619D01*
X126690476Y-86542857D01*
X126738095Y-86638095D01*
X126547619Y-85685714D02*
X126500000Y-85638095D01*
X126452380Y-85542857D01*
X126452380Y-85304761D01*
X126500000Y-85209523D01*
X126547619Y-85161904D01*
X126642857Y-85114285D01*
X126738095Y-85114285D01*
X126880952Y-85161904D01*
X127452380Y-85733333D01*
X127452380Y-85114285D01*
X126452380Y-84828571D02*
X126452380Y-84257142D01*
X127452380Y-84542857D02*
X126452380Y-84542857D01*
X127452380Y-83923809D02*
X126452380Y-83923809D01*
X126452380Y-83542857D01*
X126500000Y-83447619D01*
X126547619Y-83400000D01*
X126642857Y-83352380D01*
X126785714Y-83352380D01*
X126880952Y-83400000D01*
X126928571Y-83447619D01*
X126976190Y-83542857D01*
X126976190Y-83923809D01*
X126500000Y-82400000D02*
X126452380Y-82495238D01*
X126452380Y-82638095D01*
X126500000Y-82780952D01*
X126595238Y-82876190D01*
X126690476Y-82923809D01*
X126880952Y-82971428D01*
X127023809Y-82971428D01*
X127214285Y-82923809D01*
X127309523Y-82876190D01*
X127404761Y-82780952D01*
X127452380Y-82638095D01*
X127452380Y-82542857D01*
X127404761Y-82400000D01*
X127357142Y-82352380D01*
X127023809Y-82352380D01*
X127023809Y-82542857D01*
X133223333Y-55135142D02*
X133175714Y-55182761D01*
X133032857Y-55230380D01*
X132937619Y-55230380D01*
X132794761Y-55182761D01*
X132699523Y-55087523D01*
X132651904Y-54992285D01*
X132604285Y-54801809D01*
X132604285Y-54658952D01*
X132651904Y-54468476D01*
X132699523Y-54373238D01*
X132794761Y-54278000D01*
X132937619Y-54230380D01*
X133032857Y-54230380D01*
X133175714Y-54278000D01*
X133223333Y-54325619D01*
X133556666Y-54230380D02*
X134175714Y-54230380D01*
X133842380Y-54611333D01*
X133985238Y-54611333D01*
X134080476Y-54658952D01*
X134128095Y-54706571D01*
X134175714Y-54801809D01*
X134175714Y-55039904D01*
X134128095Y-55135142D01*
X134080476Y-55182761D01*
X133985238Y-55230380D01*
X133699523Y-55230380D01*
X133604285Y-55182761D01*
X133556666Y-55135142D01*
X145923333Y-55135142D02*
X145875714Y-55182761D01*
X145732857Y-55230380D01*
X145637619Y-55230380D01*
X145494761Y-55182761D01*
X145399523Y-55087523D01*
X145351904Y-54992285D01*
X145304285Y-54801809D01*
X145304285Y-54658952D01*
X145351904Y-54468476D01*
X145399523Y-54373238D01*
X145494761Y-54278000D01*
X145637619Y-54230380D01*
X145732857Y-54230380D01*
X145875714Y-54278000D01*
X145923333Y-54325619D01*
X146304285Y-54325619D02*
X146351904Y-54278000D01*
X146447142Y-54230380D01*
X146685238Y-54230380D01*
X146780476Y-54278000D01*
X146828095Y-54325619D01*
X146875714Y-54420857D01*
X146875714Y-54516095D01*
X146828095Y-54658952D01*
X146256666Y-55230380D01*
X146875714Y-55230380D01*
M02*
