M48
; DRILL file {KiCad (5.1.0-0)} date Tuesday, October 08, 2019 at 10:16:14 PM
; FORMAT={-:-/ absolute / inch / decimal}
; #@! TF.CreationDate,2019-10-08T22:16:14-07:00
; #@! TF.GenerationSoftware,Kicad,Pcbnew,(5.1.0-0)
FMAT,2
INCH
T1C0.0079
T2C0.0315
T3C0.0394
%
G90
G05
T1
X4.5Y-4.115
X4.555Y-4.16
X4.6Y-4.17
X4.65Y-4.1536
X4.75Y-4.1736
X4.8Y-4.01
X4.85Y-4.2064
X4.9Y-4.095
X4.95Y-3.9936
X5.1Y-3.975
X5.15Y-4.1436
X5.1988Y-4.0564
X5.255Y-4.1236
X5.3Y-4.1336
X5.355Y-4.1136
X5.405Y-4.1036
X5.455Y-4.1036
X5.51Y-4.03
X5.55Y-4.0464
X5.605Y-3.995
X5.6427Y-4.0114
X5.645Y-3.875
X5.655Y-3.9
X5.665Y-3.925
X5.675Y-3.95
T2
X5.6Y-2.4
X5.6Y-2.5
X5.6Y-2.6
X5.6Y-2.7
X5.6Y-2.8
X5.6Y-2.9
X5.6Y-3.0
X5.6Y-3.1
X5.6Y-3.2
X5.6Y-3.3
X5.6Y-3.4
X5.6Y-3.5
X5.6Y-3.7
X5.9Y-2.4
X5.9Y-2.5
X5.9Y-2.6
X5.9Y-2.7
X5.9Y-2.8
X5.9Y-2.9
X5.9Y-3.0
X5.9Y-3.1
X5.9Y-3.2
X5.9Y-3.3
X5.9Y-3.4
X5.9Y-3.5
X5.9Y-3.6
X4.6531Y-2.93
X5.9Y-3.7
X4.85Y-2.93
X5.6531Y-2.23
X5.85Y-2.23
X5.1Y-2.4
X5.1Y-2.5
X5.1Y-2.6
X5.1Y-2.7
X5.1Y-2.8
X5.1Y-2.9
X5.1Y-3.0
X5.1Y-3.1
X5.1Y-3.2
X5.1Y-3.3
X5.1Y-3.4
X5.1Y-3.5
X5.1Y-3.6
X5.1Y-3.7
X5.4Y-2.4
X5.4Y-2.5
X5.4Y-2.6
X5.4Y-2.7
X5.4Y-2.8
X5.4Y-2.9
X5.4Y-3.0
X5.4Y-3.1
X5.4Y-3.2
X5.4Y-3.3
X5.4Y-3.4
X5.4Y-3.5
X5.4Y-3.6
X5.4Y-3.7
X5.6Y-3.6
X4.6Y-3.1
X4.6Y-3.2
X4.6Y-3.3
X4.6Y-3.4
X4.6Y-3.5
X4.6Y-3.6
X4.6Y-3.7
X4.9Y-3.1
X4.9Y-3.2
X4.9Y-3.3
X4.9Y-3.4
X4.9Y-3.5
X5.1531Y-2.23
X5.35Y-2.23
X4.9Y-3.6
X4.9Y-3.7
T3
X4.0Y-4.25
X4.0Y-4.35
X4.1Y-4.25
X4.1Y-4.35
X4.2Y-4.25
X4.2Y-4.35
X4.3Y-4.25
X4.3Y-4.35
X4.4Y-4.25
X4.4Y-4.35
X4.5Y-4.25
X4.5Y-4.35
X4.6Y-4.25
X4.6Y-4.35
X4.7Y-4.25
X4.7Y-4.35
X4.8Y-4.25
X4.8Y-4.35
X4.9Y-4.25
X4.9Y-4.35
X5.0Y-4.25
X5.0Y-4.35
X5.1Y-4.25
X5.1Y-4.35
X5.2Y-4.25
X5.2Y-4.35
X5.3Y-4.25
X5.3Y-4.35
X5.4Y-4.25
X5.4Y-4.35
X5.5Y-4.25
X5.5Y-4.35
X5.6Y-4.25
X5.6Y-4.35
X5.7Y-4.25
X5.7Y-4.35
X5.8Y-4.25
X5.8Y-4.35
X5.9Y-4.25
X5.9Y-4.35
T0
M30
