G04 #@! TF.GenerationSoftware,KiCad,Pcbnew,(5.1.0-0)*
G04 #@! TF.CreationDate,2019-10-13T08:18:26-07:00*
G04 #@! TF.ProjectId,InstructionROMDaughterBoard,496e7374-7275-4637-9469-6f6e524f4d44,rev?*
G04 #@! TF.SameCoordinates,Original*
G04 #@! TF.FileFunction,Copper,L3,Inr*
G04 #@! TF.FilePolarity,Positive*
%FSLAX46Y46*%
G04 Gerber Fmt 4.6, Leading zero omitted, Abs format (unit mm)*
G04 Created by KiCad (PCBNEW (5.1.0-0)) date 2019-10-13 08:18:26*
%MOMM*%
%LPD*%
G04 APERTURE LIST*
%ADD10C,1.600000*%
%ADD11R,1.600000X1.600000*%
%ADD12O,1.600000X1.600000*%
%ADD13O,1.700000X1.700000*%
%ADD14R,1.700000X1.700000*%
%ADD15C,0.450000*%
%ADD16C,0.254000*%
G04 APERTURE END LIST*
D10*
X170180000Y-63087000D03*
D11*
X170180000Y-61087000D03*
D12*
X124460000Y-80010000D03*
X162560000Y-95250000D03*
X127000000Y-80010000D03*
X160020000Y-95250000D03*
X129540000Y-80010000D03*
X157480000Y-95250000D03*
X132080000Y-80010000D03*
X154940000Y-95250000D03*
X134620000Y-80010000D03*
X152400000Y-95250000D03*
X137160000Y-80010000D03*
X149860000Y-95250000D03*
X139700000Y-80010000D03*
X147320000Y-95250000D03*
X142240000Y-80010000D03*
X144780000Y-95250000D03*
X144780000Y-80010000D03*
X142240000Y-95250000D03*
X147320000Y-80010000D03*
X139700000Y-95250000D03*
X149860000Y-80010000D03*
X137160000Y-95250000D03*
X152400000Y-80010000D03*
X134620000Y-95250000D03*
X154940000Y-80010000D03*
X132080000Y-95250000D03*
X157480000Y-80010000D03*
X129540000Y-95250000D03*
X160020000Y-80010000D03*
X127000000Y-95250000D03*
X162560000Y-80010000D03*
D11*
X124460000Y-95250000D03*
D12*
X124460000Y-59690000D03*
X162560000Y-74930000D03*
X127000000Y-59690000D03*
X160020000Y-74930000D03*
X129540000Y-59690000D03*
X157480000Y-74930000D03*
X132080000Y-59690000D03*
X154940000Y-74930000D03*
X134620000Y-59690000D03*
X152400000Y-74930000D03*
X137160000Y-59690000D03*
X149860000Y-74930000D03*
X139700000Y-59690000D03*
X147320000Y-74930000D03*
X142240000Y-59690000D03*
X144780000Y-74930000D03*
X144780000Y-59690000D03*
X142240000Y-74930000D03*
X147320000Y-59690000D03*
X139700000Y-74930000D03*
X149860000Y-59690000D03*
X137160000Y-74930000D03*
X152400000Y-59690000D03*
X134620000Y-74930000D03*
X154940000Y-59690000D03*
X132080000Y-74930000D03*
X157480000Y-59690000D03*
X129540000Y-74930000D03*
X160020000Y-59690000D03*
X127000000Y-74930000D03*
X162560000Y-59690000D03*
D11*
X124460000Y-74930000D03*
D13*
X114300000Y-99060000D03*
X116840000Y-99060000D03*
X119380000Y-99060000D03*
X121920000Y-99060000D03*
X124460000Y-99060000D03*
X127000000Y-99060000D03*
X129540000Y-99060000D03*
D14*
X132080000Y-99060000D03*
D13*
X149860000Y-99060000D03*
X152400000Y-99060000D03*
X154940000Y-99060000D03*
X157480000Y-99060000D03*
X160020000Y-99060000D03*
X162560000Y-99060000D03*
X165100000Y-99060000D03*
D14*
X167640000Y-99060000D03*
D13*
X114300000Y-55880000D03*
X116840000Y-55880000D03*
X119380000Y-55880000D03*
X121920000Y-55880000D03*
X124460000Y-55880000D03*
X127000000Y-55880000D03*
X129540000Y-55880000D03*
X132080000Y-55880000D03*
D14*
X134620000Y-55880000D03*
D13*
X149860000Y-55880000D03*
X152400000Y-55880000D03*
X154940000Y-55880000D03*
X157480000Y-55880000D03*
X160020000Y-55880000D03*
X162560000Y-55880000D03*
X165100000Y-55880000D03*
X167640000Y-55880000D03*
D14*
X170180000Y-55880000D03*
D10*
X118110000Y-90090000D03*
X118110000Y-85090000D03*
X118110000Y-69770000D03*
X118110000Y-64770000D03*
D15*
X139700000Y-57150000D03*
X137160000Y-56896000D03*
X156464000Y-72136000D03*
X157480000Y-72390000D03*
X157988000Y-72009000D03*
X160020000Y-71882000D03*
X162560000Y-71628000D03*
D16*
G36*
X172837869Y-54014722D02*
G01*
X172951246Y-54048953D01*
X173055819Y-54104555D01*
X173147596Y-54179407D01*
X173223091Y-54270664D01*
X173279419Y-54374844D01*
X173314440Y-54487976D01*
X173330001Y-54636031D01*
X173330000Y-100297721D01*
X173315278Y-100447869D01*
X173281047Y-100561246D01*
X173225446Y-100665817D01*
X173150594Y-100757595D01*
X173059335Y-100833091D01*
X172955160Y-100889419D01*
X172842024Y-100924440D01*
X172693979Y-100940000D01*
X113062279Y-100940000D01*
X112912131Y-100925278D01*
X112798754Y-100891047D01*
X112694183Y-100835446D01*
X112602405Y-100760594D01*
X112526909Y-100669335D01*
X112470581Y-100565160D01*
X112435560Y-100452024D01*
X112420000Y-100303979D01*
X112420000Y-99060000D01*
X112807815Y-99060000D01*
X112836487Y-99351111D01*
X112921401Y-99631034D01*
X113059294Y-99889014D01*
X113244866Y-100115134D01*
X113470986Y-100300706D01*
X113728966Y-100438599D01*
X114008889Y-100523513D01*
X114227050Y-100545000D01*
X114372950Y-100545000D01*
X114591111Y-100523513D01*
X114871034Y-100438599D01*
X115129014Y-100300706D01*
X115355134Y-100115134D01*
X115540706Y-99889014D01*
X115570000Y-99834209D01*
X115599294Y-99889014D01*
X115784866Y-100115134D01*
X116010986Y-100300706D01*
X116268966Y-100438599D01*
X116548889Y-100523513D01*
X116767050Y-100545000D01*
X116912950Y-100545000D01*
X117131111Y-100523513D01*
X117411034Y-100438599D01*
X117669014Y-100300706D01*
X117895134Y-100115134D01*
X118080706Y-99889014D01*
X118110000Y-99834209D01*
X118139294Y-99889014D01*
X118324866Y-100115134D01*
X118550986Y-100300706D01*
X118808966Y-100438599D01*
X119088889Y-100523513D01*
X119307050Y-100545000D01*
X119452950Y-100545000D01*
X119671111Y-100523513D01*
X119951034Y-100438599D01*
X120209014Y-100300706D01*
X120435134Y-100115134D01*
X120620706Y-99889014D01*
X120650000Y-99834209D01*
X120679294Y-99889014D01*
X120864866Y-100115134D01*
X121090986Y-100300706D01*
X121348966Y-100438599D01*
X121628889Y-100523513D01*
X121847050Y-100545000D01*
X121992950Y-100545000D01*
X122211111Y-100523513D01*
X122491034Y-100438599D01*
X122749014Y-100300706D01*
X122975134Y-100115134D01*
X123160706Y-99889014D01*
X123190000Y-99834209D01*
X123219294Y-99889014D01*
X123404866Y-100115134D01*
X123630986Y-100300706D01*
X123888966Y-100438599D01*
X124168889Y-100523513D01*
X124387050Y-100545000D01*
X124532950Y-100545000D01*
X124751111Y-100523513D01*
X125031034Y-100438599D01*
X125289014Y-100300706D01*
X125515134Y-100115134D01*
X125700706Y-99889014D01*
X125730000Y-99834209D01*
X125759294Y-99889014D01*
X125944866Y-100115134D01*
X126170986Y-100300706D01*
X126428966Y-100438599D01*
X126708889Y-100523513D01*
X126927050Y-100545000D01*
X127072950Y-100545000D01*
X127291111Y-100523513D01*
X127571034Y-100438599D01*
X127829014Y-100300706D01*
X128055134Y-100115134D01*
X128240706Y-99889014D01*
X128270000Y-99834209D01*
X128299294Y-99889014D01*
X128484866Y-100115134D01*
X128710986Y-100300706D01*
X128968966Y-100438599D01*
X129248889Y-100523513D01*
X129467050Y-100545000D01*
X129612950Y-100545000D01*
X129831111Y-100523513D01*
X130111034Y-100438599D01*
X130369014Y-100300706D01*
X130595134Y-100115134D01*
X130619607Y-100085313D01*
X130640498Y-100154180D01*
X130699463Y-100264494D01*
X130778815Y-100361185D01*
X130875506Y-100440537D01*
X130985820Y-100499502D01*
X131105518Y-100535812D01*
X131230000Y-100548072D01*
X132930000Y-100548072D01*
X133054482Y-100535812D01*
X133174180Y-100499502D01*
X133284494Y-100440537D01*
X133381185Y-100361185D01*
X133460537Y-100264494D01*
X133519502Y-100154180D01*
X133555812Y-100034482D01*
X133568072Y-99910000D01*
X133568072Y-99060000D01*
X148367815Y-99060000D01*
X148396487Y-99351111D01*
X148481401Y-99631034D01*
X148619294Y-99889014D01*
X148804866Y-100115134D01*
X149030986Y-100300706D01*
X149288966Y-100438599D01*
X149568889Y-100523513D01*
X149787050Y-100545000D01*
X149932950Y-100545000D01*
X150151111Y-100523513D01*
X150431034Y-100438599D01*
X150689014Y-100300706D01*
X150915134Y-100115134D01*
X151100706Y-99889014D01*
X151130000Y-99834209D01*
X151159294Y-99889014D01*
X151344866Y-100115134D01*
X151570986Y-100300706D01*
X151828966Y-100438599D01*
X152108889Y-100523513D01*
X152327050Y-100545000D01*
X152472950Y-100545000D01*
X152691111Y-100523513D01*
X152971034Y-100438599D01*
X153229014Y-100300706D01*
X153455134Y-100115134D01*
X153640706Y-99889014D01*
X153670000Y-99834209D01*
X153699294Y-99889014D01*
X153884866Y-100115134D01*
X154110986Y-100300706D01*
X154368966Y-100438599D01*
X154648889Y-100523513D01*
X154867050Y-100545000D01*
X155012950Y-100545000D01*
X155231111Y-100523513D01*
X155511034Y-100438599D01*
X155769014Y-100300706D01*
X155995134Y-100115134D01*
X156180706Y-99889014D01*
X156210000Y-99834209D01*
X156239294Y-99889014D01*
X156424866Y-100115134D01*
X156650986Y-100300706D01*
X156908966Y-100438599D01*
X157188889Y-100523513D01*
X157407050Y-100545000D01*
X157552950Y-100545000D01*
X157771111Y-100523513D01*
X158051034Y-100438599D01*
X158309014Y-100300706D01*
X158535134Y-100115134D01*
X158720706Y-99889014D01*
X158750000Y-99834209D01*
X158779294Y-99889014D01*
X158964866Y-100115134D01*
X159190986Y-100300706D01*
X159448966Y-100438599D01*
X159728889Y-100523513D01*
X159947050Y-100545000D01*
X160092950Y-100545000D01*
X160311111Y-100523513D01*
X160591034Y-100438599D01*
X160849014Y-100300706D01*
X161075134Y-100115134D01*
X161260706Y-99889014D01*
X161290000Y-99834209D01*
X161319294Y-99889014D01*
X161504866Y-100115134D01*
X161730986Y-100300706D01*
X161988966Y-100438599D01*
X162268889Y-100523513D01*
X162487050Y-100545000D01*
X162632950Y-100545000D01*
X162851111Y-100523513D01*
X163131034Y-100438599D01*
X163389014Y-100300706D01*
X163615134Y-100115134D01*
X163800706Y-99889014D01*
X163830000Y-99834209D01*
X163859294Y-99889014D01*
X164044866Y-100115134D01*
X164270986Y-100300706D01*
X164528966Y-100438599D01*
X164808889Y-100523513D01*
X165027050Y-100545000D01*
X165172950Y-100545000D01*
X165391111Y-100523513D01*
X165671034Y-100438599D01*
X165929014Y-100300706D01*
X166155134Y-100115134D01*
X166179607Y-100085313D01*
X166200498Y-100154180D01*
X166259463Y-100264494D01*
X166338815Y-100361185D01*
X166435506Y-100440537D01*
X166545820Y-100499502D01*
X166665518Y-100535812D01*
X166790000Y-100548072D01*
X168490000Y-100548072D01*
X168614482Y-100535812D01*
X168734180Y-100499502D01*
X168844494Y-100440537D01*
X168941185Y-100361185D01*
X169020537Y-100264494D01*
X169079502Y-100154180D01*
X169115812Y-100034482D01*
X169128072Y-99910000D01*
X169128072Y-98210000D01*
X169115812Y-98085518D01*
X169079502Y-97965820D01*
X169020537Y-97855506D01*
X168941185Y-97758815D01*
X168844494Y-97679463D01*
X168734180Y-97620498D01*
X168614482Y-97584188D01*
X168490000Y-97571928D01*
X166790000Y-97571928D01*
X166665518Y-97584188D01*
X166545820Y-97620498D01*
X166435506Y-97679463D01*
X166338815Y-97758815D01*
X166259463Y-97855506D01*
X166200498Y-97965820D01*
X166179607Y-98034687D01*
X166155134Y-98004866D01*
X165929014Y-97819294D01*
X165671034Y-97681401D01*
X165391111Y-97596487D01*
X165172950Y-97575000D01*
X165027050Y-97575000D01*
X164808889Y-97596487D01*
X164528966Y-97681401D01*
X164270986Y-97819294D01*
X164044866Y-98004866D01*
X163859294Y-98230986D01*
X163830000Y-98285791D01*
X163800706Y-98230986D01*
X163615134Y-98004866D01*
X163389014Y-97819294D01*
X163131034Y-97681401D01*
X162851111Y-97596487D01*
X162632950Y-97575000D01*
X162487050Y-97575000D01*
X162268889Y-97596487D01*
X161988966Y-97681401D01*
X161730986Y-97819294D01*
X161504866Y-98004866D01*
X161319294Y-98230986D01*
X161290000Y-98285791D01*
X161260706Y-98230986D01*
X161075134Y-98004866D01*
X160849014Y-97819294D01*
X160591034Y-97681401D01*
X160311111Y-97596487D01*
X160092950Y-97575000D01*
X159947050Y-97575000D01*
X159728889Y-97596487D01*
X159448966Y-97681401D01*
X159190986Y-97819294D01*
X158964866Y-98004866D01*
X158779294Y-98230986D01*
X158750000Y-98285791D01*
X158720706Y-98230986D01*
X158535134Y-98004866D01*
X158309014Y-97819294D01*
X158051034Y-97681401D01*
X157771111Y-97596487D01*
X157552950Y-97575000D01*
X157407050Y-97575000D01*
X157188889Y-97596487D01*
X156908966Y-97681401D01*
X156650986Y-97819294D01*
X156424866Y-98004866D01*
X156239294Y-98230986D01*
X156210000Y-98285791D01*
X156180706Y-98230986D01*
X155995134Y-98004866D01*
X155769014Y-97819294D01*
X155511034Y-97681401D01*
X155231111Y-97596487D01*
X155012950Y-97575000D01*
X154867050Y-97575000D01*
X154648889Y-97596487D01*
X154368966Y-97681401D01*
X154110986Y-97819294D01*
X153884866Y-98004866D01*
X153699294Y-98230986D01*
X153670000Y-98285791D01*
X153640706Y-98230986D01*
X153455134Y-98004866D01*
X153229014Y-97819294D01*
X152971034Y-97681401D01*
X152691111Y-97596487D01*
X152472950Y-97575000D01*
X152327050Y-97575000D01*
X152108889Y-97596487D01*
X151828966Y-97681401D01*
X151570986Y-97819294D01*
X151344866Y-98004866D01*
X151159294Y-98230986D01*
X151130000Y-98285791D01*
X151100706Y-98230986D01*
X150915134Y-98004866D01*
X150689014Y-97819294D01*
X150431034Y-97681401D01*
X150151111Y-97596487D01*
X149932950Y-97575000D01*
X149787050Y-97575000D01*
X149568889Y-97596487D01*
X149288966Y-97681401D01*
X149030986Y-97819294D01*
X148804866Y-98004866D01*
X148619294Y-98230986D01*
X148481401Y-98488966D01*
X148396487Y-98768889D01*
X148367815Y-99060000D01*
X133568072Y-99060000D01*
X133568072Y-98210000D01*
X133555812Y-98085518D01*
X133519502Y-97965820D01*
X133460537Y-97855506D01*
X133381185Y-97758815D01*
X133284494Y-97679463D01*
X133174180Y-97620498D01*
X133054482Y-97584188D01*
X132930000Y-97571928D01*
X131230000Y-97571928D01*
X131105518Y-97584188D01*
X130985820Y-97620498D01*
X130875506Y-97679463D01*
X130778815Y-97758815D01*
X130699463Y-97855506D01*
X130640498Y-97965820D01*
X130619607Y-98034687D01*
X130595134Y-98004866D01*
X130369014Y-97819294D01*
X130111034Y-97681401D01*
X129831111Y-97596487D01*
X129612950Y-97575000D01*
X129467050Y-97575000D01*
X129248889Y-97596487D01*
X128968966Y-97681401D01*
X128710986Y-97819294D01*
X128484866Y-98004866D01*
X128299294Y-98230986D01*
X128270000Y-98285791D01*
X128240706Y-98230986D01*
X128055134Y-98004866D01*
X127829014Y-97819294D01*
X127571034Y-97681401D01*
X127291111Y-97596487D01*
X127072950Y-97575000D01*
X126927050Y-97575000D01*
X126708889Y-97596487D01*
X126428966Y-97681401D01*
X126170986Y-97819294D01*
X125944866Y-98004866D01*
X125759294Y-98230986D01*
X125730000Y-98285791D01*
X125700706Y-98230986D01*
X125515134Y-98004866D01*
X125289014Y-97819294D01*
X125031034Y-97681401D01*
X124751111Y-97596487D01*
X124532950Y-97575000D01*
X124387050Y-97575000D01*
X124168889Y-97596487D01*
X123888966Y-97681401D01*
X123630986Y-97819294D01*
X123404866Y-98004866D01*
X123219294Y-98230986D01*
X123190000Y-98285791D01*
X123160706Y-98230986D01*
X122975134Y-98004866D01*
X122749014Y-97819294D01*
X122491034Y-97681401D01*
X122211111Y-97596487D01*
X121992950Y-97575000D01*
X121847050Y-97575000D01*
X121628889Y-97596487D01*
X121348966Y-97681401D01*
X121090986Y-97819294D01*
X120864866Y-98004866D01*
X120679294Y-98230986D01*
X120650000Y-98285791D01*
X120620706Y-98230986D01*
X120435134Y-98004866D01*
X120209014Y-97819294D01*
X119951034Y-97681401D01*
X119671111Y-97596487D01*
X119452950Y-97575000D01*
X119307050Y-97575000D01*
X119088889Y-97596487D01*
X118808966Y-97681401D01*
X118550986Y-97819294D01*
X118324866Y-98004866D01*
X118139294Y-98230986D01*
X118110000Y-98285791D01*
X118080706Y-98230986D01*
X117895134Y-98004866D01*
X117669014Y-97819294D01*
X117411034Y-97681401D01*
X117131111Y-97596487D01*
X116912950Y-97575000D01*
X116767050Y-97575000D01*
X116548889Y-97596487D01*
X116268966Y-97681401D01*
X116010986Y-97819294D01*
X115784866Y-98004866D01*
X115599294Y-98230986D01*
X115570000Y-98285791D01*
X115540706Y-98230986D01*
X115355134Y-98004866D01*
X115129014Y-97819294D01*
X114871034Y-97681401D01*
X114591111Y-97596487D01*
X114372950Y-97575000D01*
X114227050Y-97575000D01*
X114008889Y-97596487D01*
X113728966Y-97681401D01*
X113470986Y-97819294D01*
X113244866Y-98004866D01*
X113059294Y-98230986D01*
X112921401Y-98488966D01*
X112836487Y-98768889D01*
X112807815Y-99060000D01*
X112420000Y-99060000D01*
X112420000Y-94450000D01*
X123021928Y-94450000D01*
X123021928Y-96050000D01*
X123034188Y-96174482D01*
X123070498Y-96294180D01*
X123129463Y-96404494D01*
X123208815Y-96501185D01*
X123305506Y-96580537D01*
X123415820Y-96639502D01*
X123535518Y-96675812D01*
X123660000Y-96688072D01*
X125260000Y-96688072D01*
X125384482Y-96675812D01*
X125504180Y-96639502D01*
X125614494Y-96580537D01*
X125711185Y-96501185D01*
X125790537Y-96404494D01*
X125849502Y-96294180D01*
X125885812Y-96174482D01*
X125887581Y-96156518D01*
X125980392Y-96269608D01*
X126198899Y-96448932D01*
X126448192Y-96582182D01*
X126718691Y-96664236D01*
X126929508Y-96685000D01*
X127070492Y-96685000D01*
X127281309Y-96664236D01*
X127551808Y-96582182D01*
X127801101Y-96448932D01*
X128019608Y-96269608D01*
X128198932Y-96051101D01*
X128270000Y-95918142D01*
X128341068Y-96051101D01*
X128520392Y-96269608D01*
X128738899Y-96448932D01*
X128988192Y-96582182D01*
X129258691Y-96664236D01*
X129469508Y-96685000D01*
X129610492Y-96685000D01*
X129821309Y-96664236D01*
X130091808Y-96582182D01*
X130341101Y-96448932D01*
X130559608Y-96269608D01*
X130738932Y-96051101D01*
X130810000Y-95918142D01*
X130881068Y-96051101D01*
X131060392Y-96269608D01*
X131278899Y-96448932D01*
X131528192Y-96582182D01*
X131798691Y-96664236D01*
X132009508Y-96685000D01*
X132150492Y-96685000D01*
X132361309Y-96664236D01*
X132631808Y-96582182D01*
X132881101Y-96448932D01*
X133099608Y-96269608D01*
X133278932Y-96051101D01*
X133350000Y-95918142D01*
X133421068Y-96051101D01*
X133600392Y-96269608D01*
X133818899Y-96448932D01*
X134068192Y-96582182D01*
X134338691Y-96664236D01*
X134549508Y-96685000D01*
X134690492Y-96685000D01*
X134901309Y-96664236D01*
X135171808Y-96582182D01*
X135421101Y-96448932D01*
X135639608Y-96269608D01*
X135818932Y-96051101D01*
X135890000Y-95918142D01*
X135961068Y-96051101D01*
X136140392Y-96269608D01*
X136358899Y-96448932D01*
X136608192Y-96582182D01*
X136878691Y-96664236D01*
X137089508Y-96685000D01*
X137230492Y-96685000D01*
X137441309Y-96664236D01*
X137711808Y-96582182D01*
X137961101Y-96448932D01*
X138179608Y-96269608D01*
X138358932Y-96051101D01*
X138430000Y-95918142D01*
X138501068Y-96051101D01*
X138680392Y-96269608D01*
X138898899Y-96448932D01*
X139148192Y-96582182D01*
X139418691Y-96664236D01*
X139629508Y-96685000D01*
X139770492Y-96685000D01*
X139981309Y-96664236D01*
X140251808Y-96582182D01*
X140501101Y-96448932D01*
X140719608Y-96269608D01*
X140898932Y-96051101D01*
X140970000Y-95918142D01*
X141041068Y-96051101D01*
X141220392Y-96269608D01*
X141438899Y-96448932D01*
X141688192Y-96582182D01*
X141958691Y-96664236D01*
X142169508Y-96685000D01*
X142310492Y-96685000D01*
X142521309Y-96664236D01*
X142791808Y-96582182D01*
X143041101Y-96448932D01*
X143259608Y-96269608D01*
X143438932Y-96051101D01*
X143510000Y-95918142D01*
X143581068Y-96051101D01*
X143760392Y-96269608D01*
X143978899Y-96448932D01*
X144228192Y-96582182D01*
X144498691Y-96664236D01*
X144709508Y-96685000D01*
X144850492Y-96685000D01*
X145061309Y-96664236D01*
X145331808Y-96582182D01*
X145581101Y-96448932D01*
X145799608Y-96269608D01*
X145978932Y-96051101D01*
X146050000Y-95918142D01*
X146121068Y-96051101D01*
X146300392Y-96269608D01*
X146518899Y-96448932D01*
X146768192Y-96582182D01*
X147038691Y-96664236D01*
X147249508Y-96685000D01*
X147390492Y-96685000D01*
X147601309Y-96664236D01*
X147871808Y-96582182D01*
X148121101Y-96448932D01*
X148339608Y-96269608D01*
X148518932Y-96051101D01*
X148590000Y-95918142D01*
X148661068Y-96051101D01*
X148840392Y-96269608D01*
X149058899Y-96448932D01*
X149308192Y-96582182D01*
X149578691Y-96664236D01*
X149789508Y-96685000D01*
X149930492Y-96685000D01*
X150141309Y-96664236D01*
X150411808Y-96582182D01*
X150661101Y-96448932D01*
X150879608Y-96269608D01*
X151058932Y-96051101D01*
X151130000Y-95918142D01*
X151201068Y-96051101D01*
X151380392Y-96269608D01*
X151598899Y-96448932D01*
X151848192Y-96582182D01*
X152118691Y-96664236D01*
X152329508Y-96685000D01*
X152470492Y-96685000D01*
X152681309Y-96664236D01*
X152951808Y-96582182D01*
X153201101Y-96448932D01*
X153419608Y-96269608D01*
X153598932Y-96051101D01*
X153670000Y-95918142D01*
X153741068Y-96051101D01*
X153920392Y-96269608D01*
X154138899Y-96448932D01*
X154388192Y-96582182D01*
X154658691Y-96664236D01*
X154869508Y-96685000D01*
X155010492Y-96685000D01*
X155221309Y-96664236D01*
X155491808Y-96582182D01*
X155741101Y-96448932D01*
X155959608Y-96269608D01*
X156138932Y-96051101D01*
X156210000Y-95918142D01*
X156281068Y-96051101D01*
X156460392Y-96269608D01*
X156678899Y-96448932D01*
X156928192Y-96582182D01*
X157198691Y-96664236D01*
X157409508Y-96685000D01*
X157550492Y-96685000D01*
X157761309Y-96664236D01*
X158031808Y-96582182D01*
X158281101Y-96448932D01*
X158499608Y-96269608D01*
X158678932Y-96051101D01*
X158750000Y-95918142D01*
X158821068Y-96051101D01*
X159000392Y-96269608D01*
X159218899Y-96448932D01*
X159468192Y-96582182D01*
X159738691Y-96664236D01*
X159949508Y-96685000D01*
X160090492Y-96685000D01*
X160301309Y-96664236D01*
X160571808Y-96582182D01*
X160821101Y-96448932D01*
X161039608Y-96269608D01*
X161218932Y-96051101D01*
X161290000Y-95918142D01*
X161361068Y-96051101D01*
X161540392Y-96269608D01*
X161758899Y-96448932D01*
X162008192Y-96582182D01*
X162278691Y-96664236D01*
X162489508Y-96685000D01*
X162630492Y-96685000D01*
X162841309Y-96664236D01*
X163111808Y-96582182D01*
X163361101Y-96448932D01*
X163579608Y-96269608D01*
X163758932Y-96051101D01*
X163892182Y-95801808D01*
X163974236Y-95531309D01*
X164001943Y-95250000D01*
X163974236Y-94968691D01*
X163892182Y-94698192D01*
X163758932Y-94448899D01*
X163579608Y-94230392D01*
X163361101Y-94051068D01*
X163111808Y-93917818D01*
X162841309Y-93835764D01*
X162630492Y-93815000D01*
X162489508Y-93815000D01*
X162278691Y-93835764D01*
X162008192Y-93917818D01*
X161758899Y-94051068D01*
X161540392Y-94230392D01*
X161361068Y-94448899D01*
X161290000Y-94581858D01*
X161218932Y-94448899D01*
X161039608Y-94230392D01*
X160821101Y-94051068D01*
X160571808Y-93917818D01*
X160301309Y-93835764D01*
X160090492Y-93815000D01*
X159949508Y-93815000D01*
X159738691Y-93835764D01*
X159468192Y-93917818D01*
X159218899Y-94051068D01*
X159000392Y-94230392D01*
X158821068Y-94448899D01*
X158750000Y-94581858D01*
X158678932Y-94448899D01*
X158499608Y-94230392D01*
X158281101Y-94051068D01*
X158031808Y-93917818D01*
X157761309Y-93835764D01*
X157550492Y-93815000D01*
X157409508Y-93815000D01*
X157198691Y-93835764D01*
X156928192Y-93917818D01*
X156678899Y-94051068D01*
X156460392Y-94230392D01*
X156281068Y-94448899D01*
X156210000Y-94581858D01*
X156138932Y-94448899D01*
X155959608Y-94230392D01*
X155741101Y-94051068D01*
X155491808Y-93917818D01*
X155221309Y-93835764D01*
X155010492Y-93815000D01*
X154869508Y-93815000D01*
X154658691Y-93835764D01*
X154388192Y-93917818D01*
X154138899Y-94051068D01*
X153920392Y-94230392D01*
X153741068Y-94448899D01*
X153670000Y-94581858D01*
X153598932Y-94448899D01*
X153419608Y-94230392D01*
X153201101Y-94051068D01*
X152951808Y-93917818D01*
X152681309Y-93835764D01*
X152470492Y-93815000D01*
X152329508Y-93815000D01*
X152118691Y-93835764D01*
X151848192Y-93917818D01*
X151598899Y-94051068D01*
X151380392Y-94230392D01*
X151201068Y-94448899D01*
X151130000Y-94581858D01*
X151058932Y-94448899D01*
X150879608Y-94230392D01*
X150661101Y-94051068D01*
X150411808Y-93917818D01*
X150141309Y-93835764D01*
X149930492Y-93815000D01*
X149789508Y-93815000D01*
X149578691Y-93835764D01*
X149308192Y-93917818D01*
X149058899Y-94051068D01*
X148840392Y-94230392D01*
X148661068Y-94448899D01*
X148590000Y-94581858D01*
X148518932Y-94448899D01*
X148339608Y-94230392D01*
X148121101Y-94051068D01*
X147871808Y-93917818D01*
X147601309Y-93835764D01*
X147390492Y-93815000D01*
X147249508Y-93815000D01*
X147038691Y-93835764D01*
X146768192Y-93917818D01*
X146518899Y-94051068D01*
X146300392Y-94230392D01*
X146121068Y-94448899D01*
X146050000Y-94581858D01*
X145978932Y-94448899D01*
X145799608Y-94230392D01*
X145581101Y-94051068D01*
X145331808Y-93917818D01*
X145061309Y-93835764D01*
X144850492Y-93815000D01*
X144709508Y-93815000D01*
X144498691Y-93835764D01*
X144228192Y-93917818D01*
X143978899Y-94051068D01*
X143760392Y-94230392D01*
X143581068Y-94448899D01*
X143510000Y-94581858D01*
X143438932Y-94448899D01*
X143259608Y-94230392D01*
X143041101Y-94051068D01*
X142791808Y-93917818D01*
X142521309Y-93835764D01*
X142310492Y-93815000D01*
X142169508Y-93815000D01*
X141958691Y-93835764D01*
X141688192Y-93917818D01*
X141438899Y-94051068D01*
X141220392Y-94230392D01*
X141041068Y-94448899D01*
X140970000Y-94581858D01*
X140898932Y-94448899D01*
X140719608Y-94230392D01*
X140501101Y-94051068D01*
X140251808Y-93917818D01*
X139981309Y-93835764D01*
X139770492Y-93815000D01*
X139629508Y-93815000D01*
X139418691Y-93835764D01*
X139148192Y-93917818D01*
X138898899Y-94051068D01*
X138680392Y-94230392D01*
X138501068Y-94448899D01*
X138430000Y-94581858D01*
X138358932Y-94448899D01*
X138179608Y-94230392D01*
X137961101Y-94051068D01*
X137711808Y-93917818D01*
X137441309Y-93835764D01*
X137230492Y-93815000D01*
X137089508Y-93815000D01*
X136878691Y-93835764D01*
X136608192Y-93917818D01*
X136358899Y-94051068D01*
X136140392Y-94230392D01*
X135961068Y-94448899D01*
X135890000Y-94581858D01*
X135818932Y-94448899D01*
X135639608Y-94230392D01*
X135421101Y-94051068D01*
X135171808Y-93917818D01*
X134901309Y-93835764D01*
X134690492Y-93815000D01*
X134549508Y-93815000D01*
X134338691Y-93835764D01*
X134068192Y-93917818D01*
X133818899Y-94051068D01*
X133600392Y-94230392D01*
X133421068Y-94448899D01*
X133350000Y-94581858D01*
X133278932Y-94448899D01*
X133099608Y-94230392D01*
X132881101Y-94051068D01*
X132631808Y-93917818D01*
X132361309Y-93835764D01*
X132150492Y-93815000D01*
X132009508Y-93815000D01*
X131798691Y-93835764D01*
X131528192Y-93917818D01*
X131278899Y-94051068D01*
X131060392Y-94230392D01*
X130881068Y-94448899D01*
X130810000Y-94581858D01*
X130738932Y-94448899D01*
X130559608Y-94230392D01*
X130341101Y-94051068D01*
X130091808Y-93917818D01*
X129821309Y-93835764D01*
X129610492Y-93815000D01*
X129469508Y-93815000D01*
X129258691Y-93835764D01*
X128988192Y-93917818D01*
X128738899Y-94051068D01*
X128520392Y-94230392D01*
X128341068Y-94448899D01*
X128270000Y-94581858D01*
X128198932Y-94448899D01*
X128019608Y-94230392D01*
X127801101Y-94051068D01*
X127551808Y-93917818D01*
X127281309Y-93835764D01*
X127070492Y-93815000D01*
X126929508Y-93815000D01*
X126718691Y-93835764D01*
X126448192Y-93917818D01*
X126198899Y-94051068D01*
X125980392Y-94230392D01*
X125887581Y-94343482D01*
X125885812Y-94325518D01*
X125849502Y-94205820D01*
X125790537Y-94095506D01*
X125711185Y-93998815D01*
X125614494Y-93919463D01*
X125504180Y-93860498D01*
X125384482Y-93824188D01*
X125260000Y-93811928D01*
X123660000Y-93811928D01*
X123535518Y-93824188D01*
X123415820Y-93860498D01*
X123305506Y-93919463D01*
X123208815Y-93998815D01*
X123129463Y-94095506D01*
X123070498Y-94205820D01*
X123034188Y-94325518D01*
X123021928Y-94450000D01*
X112420000Y-94450000D01*
X112420000Y-89948665D01*
X116675000Y-89948665D01*
X116675000Y-90231335D01*
X116730147Y-90508574D01*
X116838320Y-90769727D01*
X116995363Y-91004759D01*
X117195241Y-91204637D01*
X117430273Y-91361680D01*
X117691426Y-91469853D01*
X117968665Y-91525000D01*
X118251335Y-91525000D01*
X118528574Y-91469853D01*
X118789727Y-91361680D01*
X119024759Y-91204637D01*
X119224637Y-91004759D01*
X119381680Y-90769727D01*
X119489853Y-90508574D01*
X119545000Y-90231335D01*
X119545000Y-89948665D01*
X119489853Y-89671426D01*
X119381680Y-89410273D01*
X119224637Y-89175241D01*
X119024759Y-88975363D01*
X118789727Y-88818320D01*
X118528574Y-88710147D01*
X118251335Y-88655000D01*
X117968665Y-88655000D01*
X117691426Y-88710147D01*
X117430273Y-88818320D01*
X117195241Y-88975363D01*
X116995363Y-89175241D01*
X116838320Y-89410273D01*
X116730147Y-89671426D01*
X116675000Y-89948665D01*
X112420000Y-89948665D01*
X112420000Y-86082702D01*
X117296903Y-86082702D01*
X117368486Y-86326671D01*
X117623996Y-86447571D01*
X117898184Y-86516300D01*
X118180512Y-86530217D01*
X118460130Y-86488787D01*
X118726292Y-86393603D01*
X118851514Y-86326671D01*
X118923097Y-86082702D01*
X118110000Y-85269605D01*
X117296903Y-86082702D01*
X112420000Y-86082702D01*
X112420000Y-85160512D01*
X116669783Y-85160512D01*
X116711213Y-85440130D01*
X116806397Y-85706292D01*
X116873329Y-85831514D01*
X117117298Y-85903097D01*
X117930395Y-85090000D01*
X118289605Y-85090000D01*
X119102702Y-85903097D01*
X119346671Y-85831514D01*
X119467571Y-85576004D01*
X119536300Y-85301816D01*
X119550217Y-85019488D01*
X119508787Y-84739870D01*
X119413603Y-84473708D01*
X119346671Y-84348486D01*
X119102702Y-84276903D01*
X118289605Y-85090000D01*
X117930395Y-85090000D01*
X117117298Y-84276903D01*
X116873329Y-84348486D01*
X116752429Y-84603996D01*
X116683700Y-84878184D01*
X116669783Y-85160512D01*
X112420000Y-85160512D01*
X112420000Y-84097298D01*
X117296903Y-84097298D01*
X118110000Y-84910395D01*
X118923097Y-84097298D01*
X118851514Y-83853329D01*
X118596004Y-83732429D01*
X118321816Y-83663700D01*
X118039488Y-83649783D01*
X117759870Y-83691213D01*
X117493708Y-83786397D01*
X117368486Y-83853329D01*
X117296903Y-84097298D01*
X112420000Y-84097298D01*
X112420000Y-80359040D01*
X123068091Y-80359040D01*
X123162930Y-80623881D01*
X123307615Y-80865131D01*
X123496586Y-81073519D01*
X123722580Y-81241037D01*
X123976913Y-81361246D01*
X124110961Y-81401904D01*
X124333000Y-81279915D01*
X124333000Y-80137000D01*
X124587000Y-80137000D01*
X124587000Y-81279915D01*
X124809039Y-81401904D01*
X124943087Y-81361246D01*
X125197420Y-81241037D01*
X125423414Y-81073519D01*
X125612385Y-80865131D01*
X125730000Y-80669018D01*
X125847615Y-80865131D01*
X126036586Y-81073519D01*
X126262580Y-81241037D01*
X126516913Y-81361246D01*
X126650961Y-81401904D01*
X126873000Y-81279915D01*
X126873000Y-80137000D01*
X124587000Y-80137000D01*
X124333000Y-80137000D01*
X123189376Y-80137000D01*
X123068091Y-80359040D01*
X112420000Y-80359040D01*
X112420000Y-79660960D01*
X123068091Y-79660960D01*
X123189376Y-79883000D01*
X124333000Y-79883000D01*
X124333000Y-78740085D01*
X124587000Y-78740085D01*
X124587000Y-79883000D01*
X126873000Y-79883000D01*
X126873000Y-78740085D01*
X127127000Y-78740085D01*
X127127000Y-79883000D01*
X127147000Y-79883000D01*
X127147000Y-80137000D01*
X127127000Y-80137000D01*
X127127000Y-81279915D01*
X127349039Y-81401904D01*
X127483087Y-81361246D01*
X127737420Y-81241037D01*
X127963414Y-81073519D01*
X128152385Y-80865131D01*
X128267421Y-80673318D01*
X128341068Y-80811101D01*
X128520392Y-81029608D01*
X128738899Y-81208932D01*
X128988192Y-81342182D01*
X129258691Y-81424236D01*
X129469508Y-81445000D01*
X129610492Y-81445000D01*
X129821309Y-81424236D01*
X130091808Y-81342182D01*
X130341101Y-81208932D01*
X130559608Y-81029608D01*
X130738932Y-80811101D01*
X130810000Y-80678142D01*
X130881068Y-80811101D01*
X131060392Y-81029608D01*
X131278899Y-81208932D01*
X131528192Y-81342182D01*
X131798691Y-81424236D01*
X132009508Y-81445000D01*
X132150492Y-81445000D01*
X132361309Y-81424236D01*
X132631808Y-81342182D01*
X132881101Y-81208932D01*
X133099608Y-81029608D01*
X133278932Y-80811101D01*
X133350000Y-80678142D01*
X133421068Y-80811101D01*
X133600392Y-81029608D01*
X133818899Y-81208932D01*
X134068192Y-81342182D01*
X134338691Y-81424236D01*
X134549508Y-81445000D01*
X134690492Y-81445000D01*
X134901309Y-81424236D01*
X135171808Y-81342182D01*
X135421101Y-81208932D01*
X135639608Y-81029608D01*
X135818932Y-80811101D01*
X135890000Y-80678142D01*
X135961068Y-80811101D01*
X136140392Y-81029608D01*
X136358899Y-81208932D01*
X136608192Y-81342182D01*
X136878691Y-81424236D01*
X137089508Y-81445000D01*
X137230492Y-81445000D01*
X137441309Y-81424236D01*
X137711808Y-81342182D01*
X137961101Y-81208932D01*
X138179608Y-81029608D01*
X138358932Y-80811101D01*
X138430000Y-80678142D01*
X138501068Y-80811101D01*
X138680392Y-81029608D01*
X138898899Y-81208932D01*
X139148192Y-81342182D01*
X139418691Y-81424236D01*
X139629508Y-81445000D01*
X139770492Y-81445000D01*
X139981309Y-81424236D01*
X140251808Y-81342182D01*
X140501101Y-81208932D01*
X140719608Y-81029608D01*
X140898932Y-80811101D01*
X140970000Y-80678142D01*
X141041068Y-80811101D01*
X141220392Y-81029608D01*
X141438899Y-81208932D01*
X141688192Y-81342182D01*
X141958691Y-81424236D01*
X142169508Y-81445000D01*
X142310492Y-81445000D01*
X142521309Y-81424236D01*
X142791808Y-81342182D01*
X143041101Y-81208932D01*
X143259608Y-81029608D01*
X143438932Y-80811101D01*
X143510000Y-80678142D01*
X143581068Y-80811101D01*
X143760392Y-81029608D01*
X143978899Y-81208932D01*
X144228192Y-81342182D01*
X144498691Y-81424236D01*
X144709508Y-81445000D01*
X144850492Y-81445000D01*
X145061309Y-81424236D01*
X145331808Y-81342182D01*
X145581101Y-81208932D01*
X145799608Y-81029608D01*
X145978932Y-80811101D01*
X146050000Y-80678142D01*
X146121068Y-80811101D01*
X146300392Y-81029608D01*
X146518899Y-81208932D01*
X146768192Y-81342182D01*
X147038691Y-81424236D01*
X147249508Y-81445000D01*
X147390492Y-81445000D01*
X147601309Y-81424236D01*
X147871808Y-81342182D01*
X148121101Y-81208932D01*
X148339608Y-81029608D01*
X148518932Y-80811101D01*
X148590000Y-80678142D01*
X148661068Y-80811101D01*
X148840392Y-81029608D01*
X149058899Y-81208932D01*
X149308192Y-81342182D01*
X149578691Y-81424236D01*
X149789508Y-81445000D01*
X149930492Y-81445000D01*
X150141309Y-81424236D01*
X150411808Y-81342182D01*
X150661101Y-81208932D01*
X150879608Y-81029608D01*
X151058932Y-80811101D01*
X151130000Y-80678142D01*
X151201068Y-80811101D01*
X151380392Y-81029608D01*
X151598899Y-81208932D01*
X151848192Y-81342182D01*
X152118691Y-81424236D01*
X152329508Y-81445000D01*
X152470492Y-81445000D01*
X152681309Y-81424236D01*
X152951808Y-81342182D01*
X153201101Y-81208932D01*
X153419608Y-81029608D01*
X153598932Y-80811101D01*
X153670000Y-80678142D01*
X153741068Y-80811101D01*
X153920392Y-81029608D01*
X154138899Y-81208932D01*
X154388192Y-81342182D01*
X154658691Y-81424236D01*
X154869508Y-81445000D01*
X155010492Y-81445000D01*
X155221309Y-81424236D01*
X155491808Y-81342182D01*
X155741101Y-81208932D01*
X155959608Y-81029608D01*
X156138932Y-80811101D01*
X156210000Y-80678142D01*
X156281068Y-80811101D01*
X156460392Y-81029608D01*
X156678899Y-81208932D01*
X156928192Y-81342182D01*
X157198691Y-81424236D01*
X157409508Y-81445000D01*
X157550492Y-81445000D01*
X157761309Y-81424236D01*
X158031808Y-81342182D01*
X158281101Y-81208932D01*
X158499608Y-81029608D01*
X158678932Y-80811101D01*
X158750000Y-80678142D01*
X158821068Y-80811101D01*
X159000392Y-81029608D01*
X159218899Y-81208932D01*
X159468192Y-81342182D01*
X159738691Y-81424236D01*
X159949508Y-81445000D01*
X160090492Y-81445000D01*
X160301309Y-81424236D01*
X160571808Y-81342182D01*
X160821101Y-81208932D01*
X161039608Y-81029608D01*
X161218932Y-80811101D01*
X161290000Y-80678142D01*
X161361068Y-80811101D01*
X161540392Y-81029608D01*
X161758899Y-81208932D01*
X162008192Y-81342182D01*
X162278691Y-81424236D01*
X162489508Y-81445000D01*
X162630492Y-81445000D01*
X162841309Y-81424236D01*
X163111808Y-81342182D01*
X163361101Y-81208932D01*
X163579608Y-81029608D01*
X163758932Y-80811101D01*
X163892182Y-80561808D01*
X163974236Y-80291309D01*
X164001943Y-80010000D01*
X163974236Y-79728691D01*
X163892182Y-79458192D01*
X163758932Y-79208899D01*
X163579608Y-78990392D01*
X163361101Y-78811068D01*
X163111808Y-78677818D01*
X162841309Y-78595764D01*
X162630492Y-78575000D01*
X162489508Y-78575000D01*
X162278691Y-78595764D01*
X162008192Y-78677818D01*
X161758899Y-78811068D01*
X161540392Y-78990392D01*
X161361068Y-79208899D01*
X161290000Y-79341858D01*
X161218932Y-79208899D01*
X161039608Y-78990392D01*
X160821101Y-78811068D01*
X160571808Y-78677818D01*
X160301309Y-78595764D01*
X160090492Y-78575000D01*
X159949508Y-78575000D01*
X159738691Y-78595764D01*
X159468192Y-78677818D01*
X159218899Y-78811068D01*
X159000392Y-78990392D01*
X158821068Y-79208899D01*
X158750000Y-79341858D01*
X158678932Y-79208899D01*
X158499608Y-78990392D01*
X158281101Y-78811068D01*
X158031808Y-78677818D01*
X157761309Y-78595764D01*
X157550492Y-78575000D01*
X157409508Y-78575000D01*
X157198691Y-78595764D01*
X156928192Y-78677818D01*
X156678899Y-78811068D01*
X156460392Y-78990392D01*
X156281068Y-79208899D01*
X156210000Y-79341858D01*
X156138932Y-79208899D01*
X155959608Y-78990392D01*
X155741101Y-78811068D01*
X155491808Y-78677818D01*
X155221309Y-78595764D01*
X155010492Y-78575000D01*
X154869508Y-78575000D01*
X154658691Y-78595764D01*
X154388192Y-78677818D01*
X154138899Y-78811068D01*
X153920392Y-78990392D01*
X153741068Y-79208899D01*
X153670000Y-79341858D01*
X153598932Y-79208899D01*
X153419608Y-78990392D01*
X153201101Y-78811068D01*
X152951808Y-78677818D01*
X152681309Y-78595764D01*
X152470492Y-78575000D01*
X152329508Y-78575000D01*
X152118691Y-78595764D01*
X151848192Y-78677818D01*
X151598899Y-78811068D01*
X151380392Y-78990392D01*
X151201068Y-79208899D01*
X151130000Y-79341858D01*
X151058932Y-79208899D01*
X150879608Y-78990392D01*
X150661101Y-78811068D01*
X150411808Y-78677818D01*
X150141309Y-78595764D01*
X149930492Y-78575000D01*
X149789508Y-78575000D01*
X149578691Y-78595764D01*
X149308192Y-78677818D01*
X149058899Y-78811068D01*
X148840392Y-78990392D01*
X148661068Y-79208899D01*
X148590000Y-79341858D01*
X148518932Y-79208899D01*
X148339608Y-78990392D01*
X148121101Y-78811068D01*
X147871808Y-78677818D01*
X147601309Y-78595764D01*
X147390492Y-78575000D01*
X147249508Y-78575000D01*
X147038691Y-78595764D01*
X146768192Y-78677818D01*
X146518899Y-78811068D01*
X146300392Y-78990392D01*
X146121068Y-79208899D01*
X146050000Y-79341858D01*
X145978932Y-79208899D01*
X145799608Y-78990392D01*
X145581101Y-78811068D01*
X145331808Y-78677818D01*
X145061309Y-78595764D01*
X144850492Y-78575000D01*
X144709508Y-78575000D01*
X144498691Y-78595764D01*
X144228192Y-78677818D01*
X143978899Y-78811068D01*
X143760392Y-78990392D01*
X143581068Y-79208899D01*
X143510000Y-79341858D01*
X143438932Y-79208899D01*
X143259608Y-78990392D01*
X143041101Y-78811068D01*
X142791808Y-78677818D01*
X142521309Y-78595764D01*
X142310492Y-78575000D01*
X142169508Y-78575000D01*
X141958691Y-78595764D01*
X141688192Y-78677818D01*
X141438899Y-78811068D01*
X141220392Y-78990392D01*
X141041068Y-79208899D01*
X140970000Y-79341858D01*
X140898932Y-79208899D01*
X140719608Y-78990392D01*
X140501101Y-78811068D01*
X140251808Y-78677818D01*
X139981309Y-78595764D01*
X139770492Y-78575000D01*
X139629508Y-78575000D01*
X139418691Y-78595764D01*
X139148192Y-78677818D01*
X138898899Y-78811068D01*
X138680392Y-78990392D01*
X138501068Y-79208899D01*
X138430000Y-79341858D01*
X138358932Y-79208899D01*
X138179608Y-78990392D01*
X137961101Y-78811068D01*
X137711808Y-78677818D01*
X137441309Y-78595764D01*
X137230492Y-78575000D01*
X137089508Y-78575000D01*
X136878691Y-78595764D01*
X136608192Y-78677818D01*
X136358899Y-78811068D01*
X136140392Y-78990392D01*
X135961068Y-79208899D01*
X135890000Y-79341858D01*
X135818932Y-79208899D01*
X135639608Y-78990392D01*
X135421101Y-78811068D01*
X135171808Y-78677818D01*
X134901309Y-78595764D01*
X134690492Y-78575000D01*
X134549508Y-78575000D01*
X134338691Y-78595764D01*
X134068192Y-78677818D01*
X133818899Y-78811068D01*
X133600392Y-78990392D01*
X133421068Y-79208899D01*
X133350000Y-79341858D01*
X133278932Y-79208899D01*
X133099608Y-78990392D01*
X132881101Y-78811068D01*
X132631808Y-78677818D01*
X132361309Y-78595764D01*
X132150492Y-78575000D01*
X132009508Y-78575000D01*
X131798691Y-78595764D01*
X131528192Y-78677818D01*
X131278899Y-78811068D01*
X131060392Y-78990392D01*
X130881068Y-79208899D01*
X130810000Y-79341858D01*
X130738932Y-79208899D01*
X130559608Y-78990392D01*
X130341101Y-78811068D01*
X130091808Y-78677818D01*
X129821309Y-78595764D01*
X129610492Y-78575000D01*
X129469508Y-78575000D01*
X129258691Y-78595764D01*
X128988192Y-78677818D01*
X128738899Y-78811068D01*
X128520392Y-78990392D01*
X128341068Y-79208899D01*
X128267421Y-79346682D01*
X128152385Y-79154869D01*
X127963414Y-78946481D01*
X127737420Y-78778963D01*
X127483087Y-78658754D01*
X127349039Y-78618096D01*
X127127000Y-78740085D01*
X126873000Y-78740085D01*
X126650961Y-78618096D01*
X126516913Y-78658754D01*
X126262580Y-78778963D01*
X126036586Y-78946481D01*
X125847615Y-79154869D01*
X125730000Y-79350982D01*
X125612385Y-79154869D01*
X125423414Y-78946481D01*
X125197420Y-78778963D01*
X124943087Y-78658754D01*
X124809039Y-78618096D01*
X124587000Y-78740085D01*
X124333000Y-78740085D01*
X124110961Y-78618096D01*
X123976913Y-78658754D01*
X123722580Y-78778963D01*
X123496586Y-78946481D01*
X123307615Y-79154869D01*
X123162930Y-79396119D01*
X123068091Y-79660960D01*
X112420000Y-79660960D01*
X112420000Y-74130000D01*
X123021928Y-74130000D01*
X123021928Y-75730000D01*
X123034188Y-75854482D01*
X123070498Y-75974180D01*
X123129463Y-76084494D01*
X123208815Y-76181185D01*
X123305506Y-76260537D01*
X123415820Y-76319502D01*
X123535518Y-76355812D01*
X123660000Y-76368072D01*
X125260000Y-76368072D01*
X125384482Y-76355812D01*
X125504180Y-76319502D01*
X125614494Y-76260537D01*
X125711185Y-76181185D01*
X125790537Y-76084494D01*
X125849502Y-75974180D01*
X125885812Y-75854482D01*
X125887581Y-75836518D01*
X125980392Y-75949608D01*
X126198899Y-76128932D01*
X126448192Y-76262182D01*
X126718691Y-76344236D01*
X126929508Y-76365000D01*
X127070492Y-76365000D01*
X127281309Y-76344236D01*
X127551808Y-76262182D01*
X127801101Y-76128932D01*
X128019608Y-75949608D01*
X128198932Y-75731101D01*
X128270000Y-75598142D01*
X128341068Y-75731101D01*
X128520392Y-75949608D01*
X128738899Y-76128932D01*
X128988192Y-76262182D01*
X129258691Y-76344236D01*
X129469508Y-76365000D01*
X129610492Y-76365000D01*
X129821309Y-76344236D01*
X130091808Y-76262182D01*
X130341101Y-76128932D01*
X130559608Y-75949608D01*
X130738932Y-75731101D01*
X130810000Y-75598142D01*
X130881068Y-75731101D01*
X131060392Y-75949608D01*
X131278899Y-76128932D01*
X131528192Y-76262182D01*
X131798691Y-76344236D01*
X132009508Y-76365000D01*
X132150492Y-76365000D01*
X132361309Y-76344236D01*
X132631808Y-76262182D01*
X132881101Y-76128932D01*
X133099608Y-75949608D01*
X133278932Y-75731101D01*
X133350000Y-75598142D01*
X133421068Y-75731101D01*
X133600392Y-75949608D01*
X133818899Y-76128932D01*
X134068192Y-76262182D01*
X134338691Y-76344236D01*
X134549508Y-76365000D01*
X134690492Y-76365000D01*
X134901309Y-76344236D01*
X135171808Y-76262182D01*
X135421101Y-76128932D01*
X135639608Y-75949608D01*
X135818932Y-75731101D01*
X135890000Y-75598142D01*
X135961068Y-75731101D01*
X136140392Y-75949608D01*
X136358899Y-76128932D01*
X136608192Y-76262182D01*
X136878691Y-76344236D01*
X137089508Y-76365000D01*
X137230492Y-76365000D01*
X137441309Y-76344236D01*
X137711808Y-76262182D01*
X137961101Y-76128932D01*
X138179608Y-75949608D01*
X138358932Y-75731101D01*
X138430000Y-75598142D01*
X138501068Y-75731101D01*
X138680392Y-75949608D01*
X138898899Y-76128932D01*
X139148192Y-76262182D01*
X139418691Y-76344236D01*
X139629508Y-76365000D01*
X139770492Y-76365000D01*
X139981309Y-76344236D01*
X140251808Y-76262182D01*
X140501101Y-76128932D01*
X140719608Y-75949608D01*
X140898932Y-75731101D01*
X140970000Y-75598142D01*
X141041068Y-75731101D01*
X141220392Y-75949608D01*
X141438899Y-76128932D01*
X141688192Y-76262182D01*
X141958691Y-76344236D01*
X142169508Y-76365000D01*
X142310492Y-76365000D01*
X142521309Y-76344236D01*
X142791808Y-76262182D01*
X143041101Y-76128932D01*
X143259608Y-75949608D01*
X143438932Y-75731101D01*
X143510000Y-75598142D01*
X143581068Y-75731101D01*
X143760392Y-75949608D01*
X143978899Y-76128932D01*
X144228192Y-76262182D01*
X144498691Y-76344236D01*
X144709508Y-76365000D01*
X144850492Y-76365000D01*
X145061309Y-76344236D01*
X145331808Y-76262182D01*
X145581101Y-76128932D01*
X145799608Y-75949608D01*
X145978932Y-75731101D01*
X146050000Y-75598142D01*
X146121068Y-75731101D01*
X146300392Y-75949608D01*
X146518899Y-76128932D01*
X146768192Y-76262182D01*
X147038691Y-76344236D01*
X147249508Y-76365000D01*
X147390492Y-76365000D01*
X147601309Y-76344236D01*
X147871808Y-76262182D01*
X148121101Y-76128932D01*
X148339608Y-75949608D01*
X148518932Y-75731101D01*
X148590000Y-75598142D01*
X148661068Y-75731101D01*
X148840392Y-75949608D01*
X149058899Y-76128932D01*
X149308192Y-76262182D01*
X149578691Y-76344236D01*
X149789508Y-76365000D01*
X149930492Y-76365000D01*
X150141309Y-76344236D01*
X150411808Y-76262182D01*
X150661101Y-76128932D01*
X150879608Y-75949608D01*
X151058932Y-75731101D01*
X151130000Y-75598142D01*
X151201068Y-75731101D01*
X151380392Y-75949608D01*
X151598899Y-76128932D01*
X151848192Y-76262182D01*
X152118691Y-76344236D01*
X152329508Y-76365000D01*
X152470492Y-76365000D01*
X152681309Y-76344236D01*
X152951808Y-76262182D01*
X153201101Y-76128932D01*
X153419608Y-75949608D01*
X153598932Y-75731101D01*
X153670000Y-75598142D01*
X153741068Y-75731101D01*
X153920392Y-75949608D01*
X154138899Y-76128932D01*
X154388192Y-76262182D01*
X154658691Y-76344236D01*
X154869508Y-76365000D01*
X155010492Y-76365000D01*
X155221309Y-76344236D01*
X155491808Y-76262182D01*
X155741101Y-76128932D01*
X155959608Y-75949608D01*
X156138932Y-75731101D01*
X156210000Y-75598142D01*
X156281068Y-75731101D01*
X156460392Y-75949608D01*
X156678899Y-76128932D01*
X156928192Y-76262182D01*
X157198691Y-76344236D01*
X157409508Y-76365000D01*
X157550492Y-76365000D01*
X157761309Y-76344236D01*
X158031808Y-76262182D01*
X158281101Y-76128932D01*
X158499608Y-75949608D01*
X158678932Y-75731101D01*
X158750000Y-75598142D01*
X158821068Y-75731101D01*
X159000392Y-75949608D01*
X159218899Y-76128932D01*
X159468192Y-76262182D01*
X159738691Y-76344236D01*
X159949508Y-76365000D01*
X160090492Y-76365000D01*
X160301309Y-76344236D01*
X160571808Y-76262182D01*
X160821101Y-76128932D01*
X161039608Y-75949608D01*
X161218932Y-75731101D01*
X161290000Y-75598142D01*
X161361068Y-75731101D01*
X161540392Y-75949608D01*
X161758899Y-76128932D01*
X162008192Y-76262182D01*
X162278691Y-76344236D01*
X162489508Y-76365000D01*
X162630492Y-76365000D01*
X162841309Y-76344236D01*
X163111808Y-76262182D01*
X163361101Y-76128932D01*
X163579608Y-75949608D01*
X163758932Y-75731101D01*
X163892182Y-75481808D01*
X163974236Y-75211309D01*
X164001943Y-74930000D01*
X163974236Y-74648691D01*
X163892182Y-74378192D01*
X163758932Y-74128899D01*
X163579608Y-73910392D01*
X163361101Y-73731068D01*
X163111808Y-73597818D01*
X162841309Y-73515764D01*
X162630492Y-73495000D01*
X162489508Y-73495000D01*
X162278691Y-73515764D01*
X162008192Y-73597818D01*
X161758899Y-73731068D01*
X161540392Y-73910392D01*
X161361068Y-74128899D01*
X161290000Y-74261858D01*
X161218932Y-74128899D01*
X161039608Y-73910392D01*
X160821101Y-73731068D01*
X160571808Y-73597818D01*
X160301309Y-73515764D01*
X160090492Y-73495000D01*
X159949508Y-73495000D01*
X159738691Y-73515764D01*
X159468192Y-73597818D01*
X159218899Y-73731068D01*
X159000392Y-73910392D01*
X158821068Y-74128899D01*
X158750000Y-74261858D01*
X158678932Y-74128899D01*
X158499608Y-73910392D01*
X158281101Y-73731068D01*
X158031808Y-73597818D01*
X157761309Y-73515764D01*
X157550492Y-73495000D01*
X157409508Y-73495000D01*
X157198691Y-73515764D01*
X156928192Y-73597818D01*
X156678899Y-73731068D01*
X156460392Y-73910392D01*
X156281068Y-74128899D01*
X156210000Y-74261858D01*
X156138932Y-74128899D01*
X155959608Y-73910392D01*
X155741101Y-73731068D01*
X155491808Y-73597818D01*
X155221309Y-73515764D01*
X155010492Y-73495000D01*
X154869508Y-73495000D01*
X154658691Y-73515764D01*
X154388192Y-73597818D01*
X154138899Y-73731068D01*
X153920392Y-73910392D01*
X153741068Y-74128899D01*
X153670000Y-74261858D01*
X153598932Y-74128899D01*
X153419608Y-73910392D01*
X153201101Y-73731068D01*
X152951808Y-73597818D01*
X152681309Y-73515764D01*
X152470492Y-73495000D01*
X152329508Y-73495000D01*
X152118691Y-73515764D01*
X151848192Y-73597818D01*
X151598899Y-73731068D01*
X151380392Y-73910392D01*
X151201068Y-74128899D01*
X151130000Y-74261858D01*
X151058932Y-74128899D01*
X150879608Y-73910392D01*
X150661101Y-73731068D01*
X150411808Y-73597818D01*
X150141309Y-73515764D01*
X149930492Y-73495000D01*
X149789508Y-73495000D01*
X149578691Y-73515764D01*
X149308192Y-73597818D01*
X149058899Y-73731068D01*
X148840392Y-73910392D01*
X148661068Y-74128899D01*
X148590000Y-74261858D01*
X148518932Y-74128899D01*
X148339608Y-73910392D01*
X148121101Y-73731068D01*
X147871808Y-73597818D01*
X147601309Y-73515764D01*
X147390492Y-73495000D01*
X147249508Y-73495000D01*
X147038691Y-73515764D01*
X146768192Y-73597818D01*
X146518899Y-73731068D01*
X146300392Y-73910392D01*
X146121068Y-74128899D01*
X146050000Y-74261858D01*
X145978932Y-74128899D01*
X145799608Y-73910392D01*
X145581101Y-73731068D01*
X145331808Y-73597818D01*
X145061309Y-73515764D01*
X144850492Y-73495000D01*
X144709508Y-73495000D01*
X144498691Y-73515764D01*
X144228192Y-73597818D01*
X143978899Y-73731068D01*
X143760392Y-73910392D01*
X143581068Y-74128899D01*
X143510000Y-74261858D01*
X143438932Y-74128899D01*
X143259608Y-73910392D01*
X143041101Y-73731068D01*
X142791808Y-73597818D01*
X142521309Y-73515764D01*
X142310492Y-73495000D01*
X142169508Y-73495000D01*
X141958691Y-73515764D01*
X141688192Y-73597818D01*
X141438899Y-73731068D01*
X141220392Y-73910392D01*
X141041068Y-74128899D01*
X140970000Y-74261858D01*
X140898932Y-74128899D01*
X140719608Y-73910392D01*
X140501101Y-73731068D01*
X140251808Y-73597818D01*
X139981309Y-73515764D01*
X139770492Y-73495000D01*
X139629508Y-73495000D01*
X139418691Y-73515764D01*
X139148192Y-73597818D01*
X138898899Y-73731068D01*
X138680392Y-73910392D01*
X138501068Y-74128899D01*
X138430000Y-74261858D01*
X138358932Y-74128899D01*
X138179608Y-73910392D01*
X137961101Y-73731068D01*
X137711808Y-73597818D01*
X137441309Y-73515764D01*
X137230492Y-73495000D01*
X137089508Y-73495000D01*
X136878691Y-73515764D01*
X136608192Y-73597818D01*
X136358899Y-73731068D01*
X136140392Y-73910392D01*
X135961068Y-74128899D01*
X135890000Y-74261858D01*
X135818932Y-74128899D01*
X135639608Y-73910392D01*
X135421101Y-73731068D01*
X135171808Y-73597818D01*
X134901309Y-73515764D01*
X134690492Y-73495000D01*
X134549508Y-73495000D01*
X134338691Y-73515764D01*
X134068192Y-73597818D01*
X133818899Y-73731068D01*
X133600392Y-73910392D01*
X133421068Y-74128899D01*
X133350000Y-74261858D01*
X133278932Y-74128899D01*
X133099608Y-73910392D01*
X132881101Y-73731068D01*
X132631808Y-73597818D01*
X132361309Y-73515764D01*
X132150492Y-73495000D01*
X132009508Y-73495000D01*
X131798691Y-73515764D01*
X131528192Y-73597818D01*
X131278899Y-73731068D01*
X131060392Y-73910392D01*
X130881068Y-74128899D01*
X130810000Y-74261858D01*
X130738932Y-74128899D01*
X130559608Y-73910392D01*
X130341101Y-73731068D01*
X130091808Y-73597818D01*
X129821309Y-73515764D01*
X129610492Y-73495000D01*
X129469508Y-73495000D01*
X129258691Y-73515764D01*
X128988192Y-73597818D01*
X128738899Y-73731068D01*
X128520392Y-73910392D01*
X128341068Y-74128899D01*
X128270000Y-74261858D01*
X128198932Y-74128899D01*
X128019608Y-73910392D01*
X127801101Y-73731068D01*
X127551808Y-73597818D01*
X127281309Y-73515764D01*
X127070492Y-73495000D01*
X126929508Y-73495000D01*
X126718691Y-73515764D01*
X126448192Y-73597818D01*
X126198899Y-73731068D01*
X125980392Y-73910392D01*
X125887581Y-74023482D01*
X125885812Y-74005518D01*
X125849502Y-73885820D01*
X125790537Y-73775506D01*
X125711185Y-73678815D01*
X125614494Y-73599463D01*
X125504180Y-73540498D01*
X125384482Y-73504188D01*
X125260000Y-73491928D01*
X123660000Y-73491928D01*
X123535518Y-73504188D01*
X123415820Y-73540498D01*
X123305506Y-73599463D01*
X123208815Y-73678815D01*
X123129463Y-73775506D01*
X123070498Y-73885820D01*
X123034188Y-74005518D01*
X123021928Y-74130000D01*
X112420000Y-74130000D01*
X112420000Y-72051297D01*
X155604000Y-72051297D01*
X155604000Y-72220703D01*
X155637049Y-72386853D01*
X155701878Y-72543363D01*
X155795995Y-72684218D01*
X155915782Y-72804005D01*
X156056637Y-72898122D01*
X156213147Y-72962951D01*
X156379297Y-72996000D01*
X156548703Y-72996000D01*
X156714853Y-72962951D01*
X156803881Y-72926074D01*
X156811995Y-72938218D01*
X156931782Y-73058005D01*
X157072637Y-73152122D01*
X157229147Y-73216951D01*
X157395297Y-73250000D01*
X157564703Y-73250000D01*
X157730853Y-73216951D01*
X157887363Y-73152122D01*
X158028218Y-73058005D01*
X158148005Y-72938218D01*
X158212887Y-72841116D01*
X158238853Y-72835951D01*
X158395363Y-72771122D01*
X158536218Y-72677005D01*
X158656005Y-72557218D01*
X158750122Y-72416363D01*
X158814951Y-72259853D01*
X158848000Y-72093703D01*
X158848000Y-71924297D01*
X158822739Y-71797297D01*
X159160000Y-71797297D01*
X159160000Y-71966703D01*
X159193049Y-72132853D01*
X159257878Y-72289363D01*
X159351995Y-72430218D01*
X159471782Y-72550005D01*
X159612637Y-72644122D01*
X159769147Y-72708951D01*
X159935297Y-72742000D01*
X160104703Y-72742000D01*
X160270853Y-72708951D01*
X160427363Y-72644122D01*
X160568218Y-72550005D01*
X160688005Y-72430218D01*
X160782122Y-72289363D01*
X160846951Y-72132853D01*
X160880000Y-71966703D01*
X160880000Y-71797297D01*
X160846951Y-71631147D01*
X160810563Y-71543297D01*
X161700000Y-71543297D01*
X161700000Y-71712703D01*
X161733049Y-71878853D01*
X161797878Y-72035363D01*
X161891995Y-72176218D01*
X162011782Y-72296005D01*
X162152637Y-72390122D01*
X162309147Y-72454951D01*
X162475297Y-72488000D01*
X162644703Y-72488000D01*
X162810853Y-72454951D01*
X162967363Y-72390122D01*
X163108218Y-72296005D01*
X163228005Y-72176218D01*
X163322122Y-72035363D01*
X163386951Y-71878853D01*
X163420000Y-71712703D01*
X163420000Y-71543297D01*
X163386951Y-71377147D01*
X163322122Y-71220637D01*
X163228005Y-71079782D01*
X163108218Y-70959995D01*
X162967363Y-70865878D01*
X162810853Y-70801049D01*
X162644703Y-70768000D01*
X162475297Y-70768000D01*
X162309147Y-70801049D01*
X162152637Y-70865878D01*
X162011782Y-70959995D01*
X161891995Y-71079782D01*
X161797878Y-71220637D01*
X161733049Y-71377147D01*
X161700000Y-71543297D01*
X160810563Y-71543297D01*
X160782122Y-71474637D01*
X160688005Y-71333782D01*
X160568218Y-71213995D01*
X160427363Y-71119878D01*
X160270853Y-71055049D01*
X160104703Y-71022000D01*
X159935297Y-71022000D01*
X159769147Y-71055049D01*
X159612637Y-71119878D01*
X159471782Y-71213995D01*
X159351995Y-71333782D01*
X159257878Y-71474637D01*
X159193049Y-71631147D01*
X159160000Y-71797297D01*
X158822739Y-71797297D01*
X158814951Y-71758147D01*
X158750122Y-71601637D01*
X158656005Y-71460782D01*
X158536218Y-71340995D01*
X158395363Y-71246878D01*
X158238853Y-71182049D01*
X158072703Y-71149000D01*
X157903297Y-71149000D01*
X157737147Y-71182049D01*
X157580637Y-71246878D01*
X157439782Y-71340995D01*
X157319995Y-71460782D01*
X157255113Y-71557884D01*
X157229147Y-71563049D01*
X157140119Y-71599926D01*
X157132005Y-71587782D01*
X157012218Y-71467995D01*
X156871363Y-71373878D01*
X156714853Y-71309049D01*
X156548703Y-71276000D01*
X156379297Y-71276000D01*
X156213147Y-71309049D01*
X156056637Y-71373878D01*
X155915782Y-71467995D01*
X155795995Y-71587782D01*
X155701878Y-71728637D01*
X155637049Y-71885147D01*
X155604000Y-72051297D01*
X112420000Y-72051297D01*
X112420000Y-69628665D01*
X116675000Y-69628665D01*
X116675000Y-69911335D01*
X116730147Y-70188574D01*
X116838320Y-70449727D01*
X116995363Y-70684759D01*
X117195241Y-70884637D01*
X117430273Y-71041680D01*
X117691426Y-71149853D01*
X117968665Y-71205000D01*
X118251335Y-71205000D01*
X118528574Y-71149853D01*
X118789727Y-71041680D01*
X119024759Y-70884637D01*
X119224637Y-70684759D01*
X119381680Y-70449727D01*
X119489853Y-70188574D01*
X119545000Y-69911335D01*
X119545000Y-69628665D01*
X119489853Y-69351426D01*
X119381680Y-69090273D01*
X119224637Y-68855241D01*
X119024759Y-68655363D01*
X118789727Y-68498320D01*
X118528574Y-68390147D01*
X118251335Y-68335000D01*
X117968665Y-68335000D01*
X117691426Y-68390147D01*
X117430273Y-68498320D01*
X117195241Y-68655363D01*
X116995363Y-68855241D01*
X116838320Y-69090273D01*
X116730147Y-69351426D01*
X116675000Y-69628665D01*
X112420000Y-69628665D01*
X112420000Y-65762702D01*
X117296903Y-65762702D01*
X117368486Y-66006671D01*
X117623996Y-66127571D01*
X117898184Y-66196300D01*
X118180512Y-66210217D01*
X118460130Y-66168787D01*
X118726292Y-66073603D01*
X118851514Y-66006671D01*
X118923097Y-65762702D01*
X118110000Y-64949605D01*
X117296903Y-65762702D01*
X112420000Y-65762702D01*
X112420000Y-64840512D01*
X116669783Y-64840512D01*
X116711213Y-65120130D01*
X116806397Y-65386292D01*
X116873329Y-65511514D01*
X117117298Y-65583097D01*
X117930395Y-64770000D01*
X118289605Y-64770000D01*
X119102702Y-65583097D01*
X119346671Y-65511514D01*
X119467571Y-65256004D01*
X119536300Y-64981816D01*
X119550217Y-64699488D01*
X119508787Y-64419870D01*
X119413603Y-64153708D01*
X119346671Y-64028486D01*
X119102702Y-63956903D01*
X118289605Y-64770000D01*
X117930395Y-64770000D01*
X117117298Y-63956903D01*
X116873329Y-64028486D01*
X116752429Y-64283996D01*
X116683700Y-64558184D01*
X116669783Y-64840512D01*
X112420000Y-64840512D01*
X112420000Y-63777298D01*
X117296903Y-63777298D01*
X118110000Y-64590395D01*
X118923097Y-63777298D01*
X118851514Y-63533329D01*
X118596004Y-63412429D01*
X118321816Y-63343700D01*
X118039488Y-63329783D01*
X117759870Y-63371213D01*
X117493708Y-63466397D01*
X117368486Y-63533329D01*
X117296903Y-63777298D01*
X112420000Y-63777298D01*
X112420000Y-61887000D01*
X168741928Y-61887000D01*
X168754188Y-62011482D01*
X168790498Y-62131180D01*
X168849463Y-62241494D01*
X168928815Y-62338185D01*
X168945393Y-62351790D01*
X168908320Y-62407273D01*
X168800147Y-62668426D01*
X168745000Y-62945665D01*
X168745000Y-63228335D01*
X168800147Y-63505574D01*
X168908320Y-63766727D01*
X169065363Y-64001759D01*
X169265241Y-64201637D01*
X169500273Y-64358680D01*
X169761426Y-64466853D01*
X170038665Y-64522000D01*
X170321335Y-64522000D01*
X170598574Y-64466853D01*
X170859727Y-64358680D01*
X171094759Y-64201637D01*
X171294637Y-64001759D01*
X171451680Y-63766727D01*
X171559853Y-63505574D01*
X171615000Y-63228335D01*
X171615000Y-62945665D01*
X171559853Y-62668426D01*
X171451680Y-62407273D01*
X171414607Y-62351790D01*
X171431185Y-62338185D01*
X171510537Y-62241494D01*
X171569502Y-62131180D01*
X171605812Y-62011482D01*
X171618072Y-61887000D01*
X171615000Y-61372750D01*
X171456250Y-61214000D01*
X170307000Y-61214000D01*
X170307000Y-61234000D01*
X170053000Y-61234000D01*
X170053000Y-61214000D01*
X168903750Y-61214000D01*
X168745000Y-61372750D01*
X168741928Y-61887000D01*
X112420000Y-61887000D01*
X112420000Y-60039040D01*
X123068091Y-60039040D01*
X123162930Y-60303881D01*
X123307615Y-60545131D01*
X123496586Y-60753519D01*
X123722580Y-60921037D01*
X123976913Y-61041246D01*
X124110961Y-61081904D01*
X124333000Y-60959915D01*
X124333000Y-59817000D01*
X124587000Y-59817000D01*
X124587000Y-60959915D01*
X124809039Y-61081904D01*
X124943087Y-61041246D01*
X125197420Y-60921037D01*
X125423414Y-60753519D01*
X125612385Y-60545131D01*
X125730000Y-60349018D01*
X125847615Y-60545131D01*
X126036586Y-60753519D01*
X126262580Y-60921037D01*
X126516913Y-61041246D01*
X126650961Y-61081904D01*
X126873000Y-60959915D01*
X126873000Y-59817000D01*
X124587000Y-59817000D01*
X124333000Y-59817000D01*
X123189376Y-59817000D01*
X123068091Y-60039040D01*
X112420000Y-60039040D01*
X112420000Y-59340960D01*
X123068091Y-59340960D01*
X123189376Y-59563000D01*
X124333000Y-59563000D01*
X124333000Y-58420085D01*
X124587000Y-58420085D01*
X124587000Y-59563000D01*
X126873000Y-59563000D01*
X126873000Y-58420085D01*
X127127000Y-58420085D01*
X127127000Y-59563000D01*
X127147000Y-59563000D01*
X127147000Y-59817000D01*
X127127000Y-59817000D01*
X127127000Y-60959915D01*
X127349039Y-61081904D01*
X127483087Y-61041246D01*
X127737420Y-60921037D01*
X127963414Y-60753519D01*
X128152385Y-60545131D01*
X128267421Y-60353318D01*
X128341068Y-60491101D01*
X128520392Y-60709608D01*
X128738899Y-60888932D01*
X128988192Y-61022182D01*
X129258691Y-61104236D01*
X129469508Y-61125000D01*
X129610492Y-61125000D01*
X129821309Y-61104236D01*
X130091808Y-61022182D01*
X130341101Y-60888932D01*
X130559608Y-60709608D01*
X130738932Y-60491101D01*
X130810000Y-60358142D01*
X130881068Y-60491101D01*
X131060392Y-60709608D01*
X131278899Y-60888932D01*
X131528192Y-61022182D01*
X131798691Y-61104236D01*
X132009508Y-61125000D01*
X132150492Y-61125000D01*
X132361309Y-61104236D01*
X132631808Y-61022182D01*
X132881101Y-60888932D01*
X133099608Y-60709608D01*
X133278932Y-60491101D01*
X133350000Y-60358142D01*
X133421068Y-60491101D01*
X133600392Y-60709608D01*
X133818899Y-60888932D01*
X134068192Y-61022182D01*
X134338691Y-61104236D01*
X134549508Y-61125000D01*
X134690492Y-61125000D01*
X134901309Y-61104236D01*
X135171808Y-61022182D01*
X135421101Y-60888932D01*
X135639608Y-60709608D01*
X135818932Y-60491101D01*
X135890000Y-60358142D01*
X135961068Y-60491101D01*
X136140392Y-60709608D01*
X136358899Y-60888932D01*
X136608192Y-61022182D01*
X136878691Y-61104236D01*
X137089508Y-61125000D01*
X137230492Y-61125000D01*
X137441309Y-61104236D01*
X137711808Y-61022182D01*
X137961101Y-60888932D01*
X138179608Y-60709608D01*
X138358932Y-60491101D01*
X138430000Y-60358142D01*
X138501068Y-60491101D01*
X138680392Y-60709608D01*
X138898899Y-60888932D01*
X139148192Y-61022182D01*
X139418691Y-61104236D01*
X139629508Y-61125000D01*
X139770492Y-61125000D01*
X139981309Y-61104236D01*
X140251808Y-61022182D01*
X140501101Y-60888932D01*
X140719608Y-60709608D01*
X140898932Y-60491101D01*
X140970000Y-60358142D01*
X141041068Y-60491101D01*
X141220392Y-60709608D01*
X141438899Y-60888932D01*
X141688192Y-61022182D01*
X141958691Y-61104236D01*
X142169508Y-61125000D01*
X142310492Y-61125000D01*
X142521309Y-61104236D01*
X142791808Y-61022182D01*
X143041101Y-60888932D01*
X143259608Y-60709608D01*
X143438932Y-60491101D01*
X143510000Y-60358142D01*
X143581068Y-60491101D01*
X143760392Y-60709608D01*
X143978899Y-60888932D01*
X144228192Y-61022182D01*
X144498691Y-61104236D01*
X144709508Y-61125000D01*
X144850492Y-61125000D01*
X145061309Y-61104236D01*
X145331808Y-61022182D01*
X145581101Y-60888932D01*
X145799608Y-60709608D01*
X145978932Y-60491101D01*
X146050000Y-60358142D01*
X146121068Y-60491101D01*
X146300392Y-60709608D01*
X146518899Y-60888932D01*
X146768192Y-61022182D01*
X147038691Y-61104236D01*
X147249508Y-61125000D01*
X147390492Y-61125000D01*
X147601309Y-61104236D01*
X147871808Y-61022182D01*
X148121101Y-60888932D01*
X148339608Y-60709608D01*
X148518932Y-60491101D01*
X148590000Y-60358142D01*
X148661068Y-60491101D01*
X148840392Y-60709608D01*
X149058899Y-60888932D01*
X149308192Y-61022182D01*
X149578691Y-61104236D01*
X149789508Y-61125000D01*
X149930492Y-61125000D01*
X150141309Y-61104236D01*
X150411808Y-61022182D01*
X150661101Y-60888932D01*
X150879608Y-60709608D01*
X151058932Y-60491101D01*
X151130000Y-60358142D01*
X151201068Y-60491101D01*
X151380392Y-60709608D01*
X151598899Y-60888932D01*
X151848192Y-61022182D01*
X152118691Y-61104236D01*
X152329508Y-61125000D01*
X152470492Y-61125000D01*
X152681309Y-61104236D01*
X152951808Y-61022182D01*
X153201101Y-60888932D01*
X153419608Y-60709608D01*
X153598932Y-60491101D01*
X153670000Y-60358142D01*
X153741068Y-60491101D01*
X153920392Y-60709608D01*
X154138899Y-60888932D01*
X154388192Y-61022182D01*
X154658691Y-61104236D01*
X154869508Y-61125000D01*
X155010492Y-61125000D01*
X155221309Y-61104236D01*
X155491808Y-61022182D01*
X155741101Y-60888932D01*
X155959608Y-60709608D01*
X156138932Y-60491101D01*
X156210000Y-60358142D01*
X156281068Y-60491101D01*
X156460392Y-60709608D01*
X156678899Y-60888932D01*
X156928192Y-61022182D01*
X157198691Y-61104236D01*
X157409508Y-61125000D01*
X157550492Y-61125000D01*
X157761309Y-61104236D01*
X158031808Y-61022182D01*
X158281101Y-60888932D01*
X158499608Y-60709608D01*
X158678932Y-60491101D01*
X158750000Y-60358142D01*
X158821068Y-60491101D01*
X159000392Y-60709608D01*
X159218899Y-60888932D01*
X159468192Y-61022182D01*
X159738691Y-61104236D01*
X159949508Y-61125000D01*
X160090492Y-61125000D01*
X160301309Y-61104236D01*
X160571808Y-61022182D01*
X160821101Y-60888932D01*
X161039608Y-60709608D01*
X161218932Y-60491101D01*
X161290000Y-60358142D01*
X161361068Y-60491101D01*
X161540392Y-60709608D01*
X161758899Y-60888932D01*
X162008192Y-61022182D01*
X162278691Y-61104236D01*
X162489508Y-61125000D01*
X162630492Y-61125000D01*
X162841309Y-61104236D01*
X163111808Y-61022182D01*
X163361101Y-60888932D01*
X163579608Y-60709608D01*
X163758932Y-60491101D01*
X163868026Y-60287000D01*
X168741928Y-60287000D01*
X168745000Y-60801250D01*
X168903750Y-60960000D01*
X170053000Y-60960000D01*
X170053000Y-59810750D01*
X170307000Y-59810750D01*
X170307000Y-60960000D01*
X171456250Y-60960000D01*
X171615000Y-60801250D01*
X171618072Y-60287000D01*
X171605812Y-60162518D01*
X171569502Y-60042820D01*
X171510537Y-59932506D01*
X171431185Y-59835815D01*
X171334494Y-59756463D01*
X171224180Y-59697498D01*
X171104482Y-59661188D01*
X170980000Y-59648928D01*
X170465750Y-59652000D01*
X170307000Y-59810750D01*
X170053000Y-59810750D01*
X169894250Y-59652000D01*
X169380000Y-59648928D01*
X169255518Y-59661188D01*
X169135820Y-59697498D01*
X169025506Y-59756463D01*
X168928815Y-59835815D01*
X168849463Y-59932506D01*
X168790498Y-60042820D01*
X168754188Y-60162518D01*
X168741928Y-60287000D01*
X163868026Y-60287000D01*
X163892182Y-60241808D01*
X163974236Y-59971309D01*
X164001943Y-59690000D01*
X163974236Y-59408691D01*
X163892182Y-59138192D01*
X163758932Y-58888899D01*
X163579608Y-58670392D01*
X163361101Y-58491068D01*
X163111808Y-58357818D01*
X162841309Y-58275764D01*
X162630492Y-58255000D01*
X162489508Y-58255000D01*
X162278691Y-58275764D01*
X162008192Y-58357818D01*
X161758899Y-58491068D01*
X161540392Y-58670392D01*
X161361068Y-58888899D01*
X161290000Y-59021858D01*
X161218932Y-58888899D01*
X161039608Y-58670392D01*
X160821101Y-58491068D01*
X160571808Y-58357818D01*
X160301309Y-58275764D01*
X160090492Y-58255000D01*
X159949508Y-58255000D01*
X159738691Y-58275764D01*
X159468192Y-58357818D01*
X159218899Y-58491068D01*
X159000392Y-58670392D01*
X158821068Y-58888899D01*
X158750000Y-59021858D01*
X158678932Y-58888899D01*
X158499608Y-58670392D01*
X158281101Y-58491068D01*
X158031808Y-58357818D01*
X157761309Y-58275764D01*
X157550492Y-58255000D01*
X157409508Y-58255000D01*
X157198691Y-58275764D01*
X156928192Y-58357818D01*
X156678899Y-58491068D01*
X156460392Y-58670392D01*
X156281068Y-58888899D01*
X156210000Y-59021858D01*
X156138932Y-58888899D01*
X155959608Y-58670392D01*
X155741101Y-58491068D01*
X155491808Y-58357818D01*
X155221309Y-58275764D01*
X155010492Y-58255000D01*
X154869508Y-58255000D01*
X154658691Y-58275764D01*
X154388192Y-58357818D01*
X154138899Y-58491068D01*
X153920392Y-58670392D01*
X153741068Y-58888899D01*
X153670000Y-59021858D01*
X153598932Y-58888899D01*
X153419608Y-58670392D01*
X153201101Y-58491068D01*
X152951808Y-58357818D01*
X152681309Y-58275764D01*
X152470492Y-58255000D01*
X152329508Y-58255000D01*
X152118691Y-58275764D01*
X151848192Y-58357818D01*
X151598899Y-58491068D01*
X151380392Y-58670392D01*
X151201068Y-58888899D01*
X151130000Y-59021858D01*
X151058932Y-58888899D01*
X150879608Y-58670392D01*
X150661101Y-58491068D01*
X150411808Y-58357818D01*
X150141309Y-58275764D01*
X149930492Y-58255000D01*
X149789508Y-58255000D01*
X149578691Y-58275764D01*
X149308192Y-58357818D01*
X149058899Y-58491068D01*
X148840392Y-58670392D01*
X148661068Y-58888899D01*
X148590000Y-59021858D01*
X148518932Y-58888899D01*
X148339608Y-58670392D01*
X148121101Y-58491068D01*
X147871808Y-58357818D01*
X147601309Y-58275764D01*
X147390492Y-58255000D01*
X147249508Y-58255000D01*
X147038691Y-58275764D01*
X146768192Y-58357818D01*
X146518899Y-58491068D01*
X146300392Y-58670392D01*
X146121068Y-58888899D01*
X146050000Y-59021858D01*
X145978932Y-58888899D01*
X145799608Y-58670392D01*
X145581101Y-58491068D01*
X145331808Y-58357818D01*
X145061309Y-58275764D01*
X144850492Y-58255000D01*
X144709508Y-58255000D01*
X144498691Y-58275764D01*
X144228192Y-58357818D01*
X143978899Y-58491068D01*
X143760392Y-58670392D01*
X143581068Y-58888899D01*
X143510000Y-59021858D01*
X143438932Y-58888899D01*
X143259608Y-58670392D01*
X143041101Y-58491068D01*
X142791808Y-58357818D01*
X142521309Y-58275764D01*
X142310492Y-58255000D01*
X142169508Y-58255000D01*
X141958691Y-58275764D01*
X141688192Y-58357818D01*
X141438899Y-58491068D01*
X141220392Y-58670392D01*
X141041068Y-58888899D01*
X140970000Y-59021858D01*
X140898932Y-58888899D01*
X140719608Y-58670392D01*
X140501101Y-58491068D01*
X140251808Y-58357818D01*
X139981309Y-58275764D01*
X139770492Y-58255000D01*
X139629508Y-58255000D01*
X139418691Y-58275764D01*
X139148192Y-58357818D01*
X138898899Y-58491068D01*
X138680392Y-58670392D01*
X138501068Y-58888899D01*
X138430000Y-59021858D01*
X138358932Y-58888899D01*
X138179608Y-58670392D01*
X137961101Y-58491068D01*
X137711808Y-58357818D01*
X137441309Y-58275764D01*
X137230492Y-58255000D01*
X137089508Y-58255000D01*
X136878691Y-58275764D01*
X136608192Y-58357818D01*
X136358899Y-58491068D01*
X136140392Y-58670392D01*
X135961068Y-58888899D01*
X135890000Y-59021858D01*
X135818932Y-58888899D01*
X135639608Y-58670392D01*
X135421101Y-58491068D01*
X135171808Y-58357818D01*
X134901309Y-58275764D01*
X134690492Y-58255000D01*
X134549508Y-58255000D01*
X134338691Y-58275764D01*
X134068192Y-58357818D01*
X133818899Y-58491068D01*
X133600392Y-58670392D01*
X133421068Y-58888899D01*
X133350000Y-59021858D01*
X133278932Y-58888899D01*
X133099608Y-58670392D01*
X132881101Y-58491068D01*
X132631808Y-58357818D01*
X132361309Y-58275764D01*
X132150492Y-58255000D01*
X132009508Y-58255000D01*
X131798691Y-58275764D01*
X131528192Y-58357818D01*
X131278899Y-58491068D01*
X131060392Y-58670392D01*
X130881068Y-58888899D01*
X130810000Y-59021858D01*
X130738932Y-58888899D01*
X130559608Y-58670392D01*
X130341101Y-58491068D01*
X130091808Y-58357818D01*
X129821309Y-58275764D01*
X129610492Y-58255000D01*
X129469508Y-58255000D01*
X129258691Y-58275764D01*
X128988192Y-58357818D01*
X128738899Y-58491068D01*
X128520392Y-58670392D01*
X128341068Y-58888899D01*
X128267421Y-59026682D01*
X128152385Y-58834869D01*
X127963414Y-58626481D01*
X127737420Y-58458963D01*
X127483087Y-58338754D01*
X127349039Y-58298096D01*
X127127000Y-58420085D01*
X126873000Y-58420085D01*
X126650961Y-58298096D01*
X126516913Y-58338754D01*
X126262580Y-58458963D01*
X126036586Y-58626481D01*
X125847615Y-58834869D01*
X125730000Y-59030982D01*
X125612385Y-58834869D01*
X125423414Y-58626481D01*
X125197420Y-58458963D01*
X124943087Y-58338754D01*
X124809039Y-58298096D01*
X124587000Y-58420085D01*
X124333000Y-58420085D01*
X124110961Y-58298096D01*
X123976913Y-58338754D01*
X123722580Y-58458963D01*
X123496586Y-58626481D01*
X123307615Y-58834869D01*
X123162930Y-59076119D01*
X123068091Y-59340960D01*
X112420000Y-59340960D01*
X112420000Y-55880000D01*
X112807815Y-55880000D01*
X112836487Y-56171111D01*
X112921401Y-56451034D01*
X113059294Y-56709014D01*
X113244866Y-56935134D01*
X113470986Y-57120706D01*
X113728966Y-57258599D01*
X114008889Y-57343513D01*
X114227050Y-57365000D01*
X114372950Y-57365000D01*
X114591111Y-57343513D01*
X114871034Y-57258599D01*
X115129014Y-57120706D01*
X115355134Y-56935134D01*
X115540706Y-56709014D01*
X115570000Y-56654209D01*
X115599294Y-56709014D01*
X115784866Y-56935134D01*
X116010986Y-57120706D01*
X116268966Y-57258599D01*
X116548889Y-57343513D01*
X116767050Y-57365000D01*
X116912950Y-57365000D01*
X117131111Y-57343513D01*
X117411034Y-57258599D01*
X117669014Y-57120706D01*
X117895134Y-56935134D01*
X118080706Y-56709014D01*
X118110000Y-56654209D01*
X118139294Y-56709014D01*
X118324866Y-56935134D01*
X118550986Y-57120706D01*
X118808966Y-57258599D01*
X119088889Y-57343513D01*
X119307050Y-57365000D01*
X119452950Y-57365000D01*
X119671111Y-57343513D01*
X119951034Y-57258599D01*
X120209014Y-57120706D01*
X120435134Y-56935134D01*
X120620706Y-56709014D01*
X120650000Y-56654209D01*
X120679294Y-56709014D01*
X120864866Y-56935134D01*
X121090986Y-57120706D01*
X121348966Y-57258599D01*
X121628889Y-57343513D01*
X121847050Y-57365000D01*
X121992950Y-57365000D01*
X122211111Y-57343513D01*
X122491034Y-57258599D01*
X122749014Y-57120706D01*
X122975134Y-56935134D01*
X123160706Y-56709014D01*
X123190000Y-56654209D01*
X123219294Y-56709014D01*
X123404866Y-56935134D01*
X123630986Y-57120706D01*
X123888966Y-57258599D01*
X124168889Y-57343513D01*
X124387050Y-57365000D01*
X124532950Y-57365000D01*
X124751111Y-57343513D01*
X125031034Y-57258599D01*
X125289014Y-57120706D01*
X125515134Y-56935134D01*
X125700706Y-56709014D01*
X125730000Y-56654209D01*
X125759294Y-56709014D01*
X125944866Y-56935134D01*
X126170986Y-57120706D01*
X126428966Y-57258599D01*
X126708889Y-57343513D01*
X126927050Y-57365000D01*
X127072950Y-57365000D01*
X127291111Y-57343513D01*
X127571034Y-57258599D01*
X127829014Y-57120706D01*
X128055134Y-56935134D01*
X128240706Y-56709014D01*
X128270000Y-56654209D01*
X128299294Y-56709014D01*
X128484866Y-56935134D01*
X128710986Y-57120706D01*
X128968966Y-57258599D01*
X129248889Y-57343513D01*
X129467050Y-57365000D01*
X129612950Y-57365000D01*
X129831111Y-57343513D01*
X130111034Y-57258599D01*
X130369014Y-57120706D01*
X130595134Y-56935134D01*
X130780706Y-56709014D01*
X130810000Y-56654209D01*
X130839294Y-56709014D01*
X131024866Y-56935134D01*
X131250986Y-57120706D01*
X131508966Y-57258599D01*
X131788889Y-57343513D01*
X132007050Y-57365000D01*
X132152950Y-57365000D01*
X132371111Y-57343513D01*
X132651034Y-57258599D01*
X132909014Y-57120706D01*
X133135134Y-56935134D01*
X133159607Y-56905313D01*
X133180498Y-56974180D01*
X133239463Y-57084494D01*
X133318815Y-57181185D01*
X133415506Y-57260537D01*
X133525820Y-57319502D01*
X133645518Y-57355812D01*
X133770000Y-57368072D01*
X135470000Y-57368072D01*
X135594482Y-57355812D01*
X135714180Y-57319502D01*
X135824494Y-57260537D01*
X135921185Y-57181185D01*
X136000537Y-57084494D01*
X136059502Y-56974180D01*
X136095812Y-56854482D01*
X136100065Y-56811297D01*
X136300000Y-56811297D01*
X136300000Y-56980703D01*
X136333049Y-57146853D01*
X136397878Y-57303363D01*
X136491995Y-57444218D01*
X136611782Y-57564005D01*
X136752637Y-57658122D01*
X136909147Y-57722951D01*
X137075297Y-57756000D01*
X137244703Y-57756000D01*
X137410853Y-57722951D01*
X137567363Y-57658122D01*
X137708218Y-57564005D01*
X137828005Y-57444218D01*
X137922122Y-57303363D01*
X137986951Y-57146853D01*
X138003173Y-57065297D01*
X138840000Y-57065297D01*
X138840000Y-57234703D01*
X138873049Y-57400853D01*
X138937878Y-57557363D01*
X139031995Y-57698218D01*
X139151782Y-57818005D01*
X139292637Y-57912122D01*
X139449147Y-57976951D01*
X139615297Y-58010000D01*
X139784703Y-58010000D01*
X139950853Y-57976951D01*
X140107363Y-57912122D01*
X140248218Y-57818005D01*
X140368005Y-57698218D01*
X140462122Y-57557363D01*
X140526951Y-57400853D01*
X140560000Y-57234703D01*
X140560000Y-57065297D01*
X140526951Y-56899147D01*
X140462122Y-56742637D01*
X140368005Y-56601782D01*
X140248218Y-56481995D01*
X140107363Y-56387878D01*
X139950853Y-56323049D01*
X139784703Y-56290000D01*
X139615297Y-56290000D01*
X139449147Y-56323049D01*
X139292637Y-56387878D01*
X139151782Y-56481995D01*
X139031995Y-56601782D01*
X138937878Y-56742637D01*
X138873049Y-56899147D01*
X138840000Y-57065297D01*
X138003173Y-57065297D01*
X138020000Y-56980703D01*
X138020000Y-56811297D01*
X137986951Y-56645147D01*
X137922122Y-56488637D01*
X137828005Y-56347782D01*
X137708218Y-56227995D01*
X137567363Y-56133878D01*
X137410853Y-56069049D01*
X137244703Y-56036000D01*
X137075297Y-56036000D01*
X136909147Y-56069049D01*
X136752637Y-56133878D01*
X136611782Y-56227995D01*
X136491995Y-56347782D01*
X136397878Y-56488637D01*
X136333049Y-56645147D01*
X136300000Y-56811297D01*
X136100065Y-56811297D01*
X136108072Y-56730000D01*
X136108072Y-55880000D01*
X148367815Y-55880000D01*
X148396487Y-56171111D01*
X148481401Y-56451034D01*
X148619294Y-56709014D01*
X148804866Y-56935134D01*
X149030986Y-57120706D01*
X149288966Y-57258599D01*
X149568889Y-57343513D01*
X149787050Y-57365000D01*
X149932950Y-57365000D01*
X150151111Y-57343513D01*
X150431034Y-57258599D01*
X150689014Y-57120706D01*
X150915134Y-56935134D01*
X151100706Y-56709014D01*
X151130000Y-56654209D01*
X151159294Y-56709014D01*
X151344866Y-56935134D01*
X151570986Y-57120706D01*
X151828966Y-57258599D01*
X152108889Y-57343513D01*
X152327050Y-57365000D01*
X152472950Y-57365000D01*
X152691111Y-57343513D01*
X152971034Y-57258599D01*
X153229014Y-57120706D01*
X153455134Y-56935134D01*
X153640706Y-56709014D01*
X153670000Y-56654209D01*
X153699294Y-56709014D01*
X153884866Y-56935134D01*
X154110986Y-57120706D01*
X154368966Y-57258599D01*
X154648889Y-57343513D01*
X154867050Y-57365000D01*
X155012950Y-57365000D01*
X155231111Y-57343513D01*
X155511034Y-57258599D01*
X155769014Y-57120706D01*
X155995134Y-56935134D01*
X156180706Y-56709014D01*
X156210000Y-56654209D01*
X156239294Y-56709014D01*
X156424866Y-56935134D01*
X156650986Y-57120706D01*
X156908966Y-57258599D01*
X157188889Y-57343513D01*
X157407050Y-57365000D01*
X157552950Y-57365000D01*
X157771111Y-57343513D01*
X158051034Y-57258599D01*
X158309014Y-57120706D01*
X158535134Y-56935134D01*
X158720706Y-56709014D01*
X158750000Y-56654209D01*
X158779294Y-56709014D01*
X158964866Y-56935134D01*
X159190986Y-57120706D01*
X159448966Y-57258599D01*
X159728889Y-57343513D01*
X159947050Y-57365000D01*
X160092950Y-57365000D01*
X160311111Y-57343513D01*
X160591034Y-57258599D01*
X160849014Y-57120706D01*
X161075134Y-56935134D01*
X161260706Y-56709014D01*
X161290000Y-56654209D01*
X161319294Y-56709014D01*
X161504866Y-56935134D01*
X161730986Y-57120706D01*
X161988966Y-57258599D01*
X162268889Y-57343513D01*
X162487050Y-57365000D01*
X162632950Y-57365000D01*
X162851111Y-57343513D01*
X163131034Y-57258599D01*
X163389014Y-57120706D01*
X163615134Y-56935134D01*
X163800706Y-56709014D01*
X163830000Y-56654209D01*
X163859294Y-56709014D01*
X164044866Y-56935134D01*
X164270986Y-57120706D01*
X164528966Y-57258599D01*
X164808889Y-57343513D01*
X165027050Y-57365000D01*
X165172950Y-57365000D01*
X165391111Y-57343513D01*
X165671034Y-57258599D01*
X165929014Y-57120706D01*
X166155134Y-56935134D01*
X166340706Y-56709014D01*
X166370000Y-56654209D01*
X166399294Y-56709014D01*
X166584866Y-56935134D01*
X166810986Y-57120706D01*
X167068966Y-57258599D01*
X167348889Y-57343513D01*
X167567050Y-57365000D01*
X167712950Y-57365000D01*
X167931111Y-57343513D01*
X168211034Y-57258599D01*
X168469014Y-57120706D01*
X168695134Y-56935134D01*
X168719607Y-56905313D01*
X168740498Y-56974180D01*
X168799463Y-57084494D01*
X168878815Y-57181185D01*
X168975506Y-57260537D01*
X169085820Y-57319502D01*
X169205518Y-57355812D01*
X169330000Y-57368072D01*
X169894250Y-57365000D01*
X170053000Y-57206250D01*
X170053000Y-56007000D01*
X170307000Y-56007000D01*
X170307000Y-57206250D01*
X170465750Y-57365000D01*
X171030000Y-57368072D01*
X171154482Y-57355812D01*
X171274180Y-57319502D01*
X171384494Y-57260537D01*
X171481185Y-57181185D01*
X171560537Y-57084494D01*
X171619502Y-56974180D01*
X171655812Y-56854482D01*
X171668072Y-56730000D01*
X171665000Y-56165750D01*
X171506250Y-56007000D01*
X170307000Y-56007000D01*
X170053000Y-56007000D01*
X170033000Y-56007000D01*
X170033000Y-55753000D01*
X170053000Y-55753000D01*
X170053000Y-54553750D01*
X170307000Y-54553750D01*
X170307000Y-55753000D01*
X171506250Y-55753000D01*
X171665000Y-55594250D01*
X171668072Y-55030000D01*
X171655812Y-54905518D01*
X171619502Y-54785820D01*
X171560537Y-54675506D01*
X171481185Y-54578815D01*
X171384494Y-54499463D01*
X171274180Y-54440498D01*
X171154482Y-54404188D01*
X171030000Y-54391928D01*
X170465750Y-54395000D01*
X170307000Y-54553750D01*
X170053000Y-54553750D01*
X169894250Y-54395000D01*
X169330000Y-54391928D01*
X169205518Y-54404188D01*
X169085820Y-54440498D01*
X168975506Y-54499463D01*
X168878815Y-54578815D01*
X168799463Y-54675506D01*
X168740498Y-54785820D01*
X168719607Y-54854687D01*
X168695134Y-54824866D01*
X168469014Y-54639294D01*
X168211034Y-54501401D01*
X167931111Y-54416487D01*
X167712950Y-54395000D01*
X167567050Y-54395000D01*
X167348889Y-54416487D01*
X167068966Y-54501401D01*
X166810986Y-54639294D01*
X166584866Y-54824866D01*
X166399294Y-55050986D01*
X166370000Y-55105791D01*
X166340706Y-55050986D01*
X166155134Y-54824866D01*
X165929014Y-54639294D01*
X165671034Y-54501401D01*
X165391111Y-54416487D01*
X165172950Y-54395000D01*
X165027050Y-54395000D01*
X164808889Y-54416487D01*
X164528966Y-54501401D01*
X164270986Y-54639294D01*
X164044866Y-54824866D01*
X163859294Y-55050986D01*
X163830000Y-55105791D01*
X163800706Y-55050986D01*
X163615134Y-54824866D01*
X163389014Y-54639294D01*
X163131034Y-54501401D01*
X162851111Y-54416487D01*
X162632950Y-54395000D01*
X162487050Y-54395000D01*
X162268889Y-54416487D01*
X161988966Y-54501401D01*
X161730986Y-54639294D01*
X161504866Y-54824866D01*
X161319294Y-55050986D01*
X161290000Y-55105791D01*
X161260706Y-55050986D01*
X161075134Y-54824866D01*
X160849014Y-54639294D01*
X160591034Y-54501401D01*
X160311111Y-54416487D01*
X160092950Y-54395000D01*
X159947050Y-54395000D01*
X159728889Y-54416487D01*
X159448966Y-54501401D01*
X159190986Y-54639294D01*
X158964866Y-54824866D01*
X158779294Y-55050986D01*
X158750000Y-55105791D01*
X158720706Y-55050986D01*
X158535134Y-54824866D01*
X158309014Y-54639294D01*
X158051034Y-54501401D01*
X157771111Y-54416487D01*
X157552950Y-54395000D01*
X157407050Y-54395000D01*
X157188889Y-54416487D01*
X156908966Y-54501401D01*
X156650986Y-54639294D01*
X156424866Y-54824866D01*
X156239294Y-55050986D01*
X156210000Y-55105791D01*
X156180706Y-55050986D01*
X155995134Y-54824866D01*
X155769014Y-54639294D01*
X155511034Y-54501401D01*
X155231111Y-54416487D01*
X155012950Y-54395000D01*
X154867050Y-54395000D01*
X154648889Y-54416487D01*
X154368966Y-54501401D01*
X154110986Y-54639294D01*
X153884866Y-54824866D01*
X153699294Y-55050986D01*
X153670000Y-55105791D01*
X153640706Y-55050986D01*
X153455134Y-54824866D01*
X153229014Y-54639294D01*
X152971034Y-54501401D01*
X152691111Y-54416487D01*
X152472950Y-54395000D01*
X152327050Y-54395000D01*
X152108889Y-54416487D01*
X151828966Y-54501401D01*
X151570986Y-54639294D01*
X151344866Y-54824866D01*
X151159294Y-55050986D01*
X151130000Y-55105791D01*
X151100706Y-55050986D01*
X150915134Y-54824866D01*
X150689014Y-54639294D01*
X150431034Y-54501401D01*
X150151111Y-54416487D01*
X149932950Y-54395000D01*
X149787050Y-54395000D01*
X149568889Y-54416487D01*
X149288966Y-54501401D01*
X149030986Y-54639294D01*
X148804866Y-54824866D01*
X148619294Y-55050986D01*
X148481401Y-55308966D01*
X148396487Y-55588889D01*
X148367815Y-55880000D01*
X136108072Y-55880000D01*
X136108072Y-55030000D01*
X136095812Y-54905518D01*
X136059502Y-54785820D01*
X136000537Y-54675506D01*
X135921185Y-54578815D01*
X135824494Y-54499463D01*
X135714180Y-54440498D01*
X135594482Y-54404188D01*
X135470000Y-54391928D01*
X133770000Y-54391928D01*
X133645518Y-54404188D01*
X133525820Y-54440498D01*
X133415506Y-54499463D01*
X133318815Y-54578815D01*
X133239463Y-54675506D01*
X133180498Y-54785820D01*
X133159607Y-54854687D01*
X133135134Y-54824866D01*
X132909014Y-54639294D01*
X132651034Y-54501401D01*
X132371111Y-54416487D01*
X132152950Y-54395000D01*
X132007050Y-54395000D01*
X131788889Y-54416487D01*
X131508966Y-54501401D01*
X131250986Y-54639294D01*
X131024866Y-54824866D01*
X130839294Y-55050986D01*
X130810000Y-55105791D01*
X130780706Y-55050986D01*
X130595134Y-54824866D01*
X130369014Y-54639294D01*
X130111034Y-54501401D01*
X129831111Y-54416487D01*
X129612950Y-54395000D01*
X129467050Y-54395000D01*
X129248889Y-54416487D01*
X128968966Y-54501401D01*
X128710986Y-54639294D01*
X128484866Y-54824866D01*
X128299294Y-55050986D01*
X128270000Y-55105791D01*
X128240706Y-55050986D01*
X128055134Y-54824866D01*
X127829014Y-54639294D01*
X127571034Y-54501401D01*
X127291111Y-54416487D01*
X127072950Y-54395000D01*
X126927050Y-54395000D01*
X126708889Y-54416487D01*
X126428966Y-54501401D01*
X126170986Y-54639294D01*
X125944866Y-54824866D01*
X125759294Y-55050986D01*
X125730000Y-55105791D01*
X125700706Y-55050986D01*
X125515134Y-54824866D01*
X125289014Y-54639294D01*
X125031034Y-54501401D01*
X124751111Y-54416487D01*
X124532950Y-54395000D01*
X124387050Y-54395000D01*
X124168889Y-54416487D01*
X123888966Y-54501401D01*
X123630986Y-54639294D01*
X123404866Y-54824866D01*
X123219294Y-55050986D01*
X123190000Y-55105791D01*
X123160706Y-55050986D01*
X122975134Y-54824866D01*
X122749014Y-54639294D01*
X122491034Y-54501401D01*
X122211111Y-54416487D01*
X121992950Y-54395000D01*
X121847050Y-54395000D01*
X121628889Y-54416487D01*
X121348966Y-54501401D01*
X121090986Y-54639294D01*
X120864866Y-54824866D01*
X120679294Y-55050986D01*
X120650000Y-55105791D01*
X120620706Y-55050986D01*
X120435134Y-54824866D01*
X120209014Y-54639294D01*
X119951034Y-54501401D01*
X119671111Y-54416487D01*
X119452950Y-54395000D01*
X119307050Y-54395000D01*
X119088889Y-54416487D01*
X118808966Y-54501401D01*
X118550986Y-54639294D01*
X118324866Y-54824866D01*
X118139294Y-55050986D01*
X118110000Y-55105791D01*
X118080706Y-55050986D01*
X117895134Y-54824866D01*
X117669014Y-54639294D01*
X117411034Y-54501401D01*
X117131111Y-54416487D01*
X116912950Y-54395000D01*
X116767050Y-54395000D01*
X116548889Y-54416487D01*
X116268966Y-54501401D01*
X116010986Y-54639294D01*
X115784866Y-54824866D01*
X115599294Y-55050986D01*
X115570000Y-55105791D01*
X115540706Y-55050986D01*
X115355134Y-54824866D01*
X115129014Y-54639294D01*
X114871034Y-54501401D01*
X114591111Y-54416487D01*
X114372950Y-54395000D01*
X114227050Y-54395000D01*
X114008889Y-54416487D01*
X113728966Y-54501401D01*
X113470986Y-54639294D01*
X113244866Y-54824866D01*
X113059294Y-55050986D01*
X112921401Y-55308966D01*
X112836487Y-55588889D01*
X112807815Y-55880000D01*
X112420000Y-55880000D01*
X112420000Y-54642279D01*
X112434722Y-54492131D01*
X112468953Y-54378754D01*
X112524555Y-54274181D01*
X112599407Y-54182404D01*
X112690664Y-54106909D01*
X112794844Y-54050581D01*
X112907976Y-54015560D01*
X113056022Y-54000000D01*
X172687721Y-54000000D01*
X172837869Y-54014722D01*
X172837869Y-54014722D01*
G37*
X172837869Y-54014722D02*
X172951246Y-54048953D01*
X173055819Y-54104555D01*
X173147596Y-54179407D01*
X173223091Y-54270664D01*
X173279419Y-54374844D01*
X173314440Y-54487976D01*
X173330001Y-54636031D01*
X173330000Y-100297721D01*
X173315278Y-100447869D01*
X173281047Y-100561246D01*
X173225446Y-100665817D01*
X173150594Y-100757595D01*
X173059335Y-100833091D01*
X172955160Y-100889419D01*
X172842024Y-100924440D01*
X172693979Y-100940000D01*
X113062279Y-100940000D01*
X112912131Y-100925278D01*
X112798754Y-100891047D01*
X112694183Y-100835446D01*
X112602405Y-100760594D01*
X112526909Y-100669335D01*
X112470581Y-100565160D01*
X112435560Y-100452024D01*
X112420000Y-100303979D01*
X112420000Y-99060000D01*
X112807815Y-99060000D01*
X112836487Y-99351111D01*
X112921401Y-99631034D01*
X113059294Y-99889014D01*
X113244866Y-100115134D01*
X113470986Y-100300706D01*
X113728966Y-100438599D01*
X114008889Y-100523513D01*
X114227050Y-100545000D01*
X114372950Y-100545000D01*
X114591111Y-100523513D01*
X114871034Y-100438599D01*
X115129014Y-100300706D01*
X115355134Y-100115134D01*
X115540706Y-99889014D01*
X115570000Y-99834209D01*
X115599294Y-99889014D01*
X115784866Y-100115134D01*
X116010986Y-100300706D01*
X116268966Y-100438599D01*
X116548889Y-100523513D01*
X116767050Y-100545000D01*
X116912950Y-100545000D01*
X117131111Y-100523513D01*
X117411034Y-100438599D01*
X117669014Y-100300706D01*
X117895134Y-100115134D01*
X118080706Y-99889014D01*
X118110000Y-99834209D01*
X118139294Y-99889014D01*
X118324866Y-100115134D01*
X118550986Y-100300706D01*
X118808966Y-100438599D01*
X119088889Y-100523513D01*
X119307050Y-100545000D01*
X119452950Y-100545000D01*
X119671111Y-100523513D01*
X119951034Y-100438599D01*
X120209014Y-100300706D01*
X120435134Y-100115134D01*
X120620706Y-99889014D01*
X120650000Y-99834209D01*
X120679294Y-99889014D01*
X120864866Y-100115134D01*
X121090986Y-100300706D01*
X121348966Y-100438599D01*
X121628889Y-100523513D01*
X121847050Y-100545000D01*
X121992950Y-100545000D01*
X122211111Y-100523513D01*
X122491034Y-100438599D01*
X122749014Y-100300706D01*
X122975134Y-100115134D01*
X123160706Y-99889014D01*
X123190000Y-99834209D01*
X123219294Y-99889014D01*
X123404866Y-100115134D01*
X123630986Y-100300706D01*
X123888966Y-100438599D01*
X124168889Y-100523513D01*
X124387050Y-100545000D01*
X124532950Y-100545000D01*
X124751111Y-100523513D01*
X125031034Y-100438599D01*
X125289014Y-100300706D01*
X125515134Y-100115134D01*
X125700706Y-99889014D01*
X125730000Y-99834209D01*
X125759294Y-99889014D01*
X125944866Y-100115134D01*
X126170986Y-100300706D01*
X126428966Y-100438599D01*
X126708889Y-100523513D01*
X126927050Y-100545000D01*
X127072950Y-100545000D01*
X127291111Y-100523513D01*
X127571034Y-100438599D01*
X127829014Y-100300706D01*
X128055134Y-100115134D01*
X128240706Y-99889014D01*
X128270000Y-99834209D01*
X128299294Y-99889014D01*
X128484866Y-100115134D01*
X128710986Y-100300706D01*
X128968966Y-100438599D01*
X129248889Y-100523513D01*
X129467050Y-100545000D01*
X129612950Y-100545000D01*
X129831111Y-100523513D01*
X130111034Y-100438599D01*
X130369014Y-100300706D01*
X130595134Y-100115134D01*
X130619607Y-100085313D01*
X130640498Y-100154180D01*
X130699463Y-100264494D01*
X130778815Y-100361185D01*
X130875506Y-100440537D01*
X130985820Y-100499502D01*
X131105518Y-100535812D01*
X131230000Y-100548072D01*
X132930000Y-100548072D01*
X133054482Y-100535812D01*
X133174180Y-100499502D01*
X133284494Y-100440537D01*
X133381185Y-100361185D01*
X133460537Y-100264494D01*
X133519502Y-100154180D01*
X133555812Y-100034482D01*
X133568072Y-99910000D01*
X133568072Y-99060000D01*
X148367815Y-99060000D01*
X148396487Y-99351111D01*
X148481401Y-99631034D01*
X148619294Y-99889014D01*
X148804866Y-100115134D01*
X149030986Y-100300706D01*
X149288966Y-100438599D01*
X149568889Y-100523513D01*
X149787050Y-100545000D01*
X149932950Y-100545000D01*
X150151111Y-100523513D01*
X150431034Y-100438599D01*
X150689014Y-100300706D01*
X150915134Y-100115134D01*
X151100706Y-99889014D01*
X151130000Y-99834209D01*
X151159294Y-99889014D01*
X151344866Y-100115134D01*
X151570986Y-100300706D01*
X151828966Y-100438599D01*
X152108889Y-100523513D01*
X152327050Y-100545000D01*
X152472950Y-100545000D01*
X152691111Y-100523513D01*
X152971034Y-100438599D01*
X153229014Y-100300706D01*
X153455134Y-100115134D01*
X153640706Y-99889014D01*
X153670000Y-99834209D01*
X153699294Y-99889014D01*
X153884866Y-100115134D01*
X154110986Y-100300706D01*
X154368966Y-100438599D01*
X154648889Y-100523513D01*
X154867050Y-100545000D01*
X155012950Y-100545000D01*
X155231111Y-100523513D01*
X155511034Y-100438599D01*
X155769014Y-100300706D01*
X155995134Y-100115134D01*
X156180706Y-99889014D01*
X156210000Y-99834209D01*
X156239294Y-99889014D01*
X156424866Y-100115134D01*
X156650986Y-100300706D01*
X156908966Y-100438599D01*
X157188889Y-100523513D01*
X157407050Y-100545000D01*
X157552950Y-100545000D01*
X157771111Y-100523513D01*
X158051034Y-100438599D01*
X158309014Y-100300706D01*
X158535134Y-100115134D01*
X158720706Y-99889014D01*
X158750000Y-99834209D01*
X158779294Y-99889014D01*
X158964866Y-100115134D01*
X159190986Y-100300706D01*
X159448966Y-100438599D01*
X159728889Y-100523513D01*
X159947050Y-100545000D01*
X160092950Y-100545000D01*
X160311111Y-100523513D01*
X160591034Y-100438599D01*
X160849014Y-100300706D01*
X161075134Y-100115134D01*
X161260706Y-99889014D01*
X161290000Y-99834209D01*
X161319294Y-99889014D01*
X161504866Y-100115134D01*
X161730986Y-100300706D01*
X161988966Y-100438599D01*
X162268889Y-100523513D01*
X162487050Y-100545000D01*
X162632950Y-100545000D01*
X162851111Y-100523513D01*
X163131034Y-100438599D01*
X163389014Y-100300706D01*
X163615134Y-100115134D01*
X163800706Y-99889014D01*
X163830000Y-99834209D01*
X163859294Y-99889014D01*
X164044866Y-100115134D01*
X164270986Y-100300706D01*
X164528966Y-100438599D01*
X164808889Y-100523513D01*
X165027050Y-100545000D01*
X165172950Y-100545000D01*
X165391111Y-100523513D01*
X165671034Y-100438599D01*
X165929014Y-100300706D01*
X166155134Y-100115134D01*
X166179607Y-100085313D01*
X166200498Y-100154180D01*
X166259463Y-100264494D01*
X166338815Y-100361185D01*
X166435506Y-100440537D01*
X166545820Y-100499502D01*
X166665518Y-100535812D01*
X166790000Y-100548072D01*
X168490000Y-100548072D01*
X168614482Y-100535812D01*
X168734180Y-100499502D01*
X168844494Y-100440537D01*
X168941185Y-100361185D01*
X169020537Y-100264494D01*
X169079502Y-100154180D01*
X169115812Y-100034482D01*
X169128072Y-99910000D01*
X169128072Y-98210000D01*
X169115812Y-98085518D01*
X169079502Y-97965820D01*
X169020537Y-97855506D01*
X168941185Y-97758815D01*
X168844494Y-97679463D01*
X168734180Y-97620498D01*
X168614482Y-97584188D01*
X168490000Y-97571928D01*
X166790000Y-97571928D01*
X166665518Y-97584188D01*
X166545820Y-97620498D01*
X166435506Y-97679463D01*
X166338815Y-97758815D01*
X166259463Y-97855506D01*
X166200498Y-97965820D01*
X166179607Y-98034687D01*
X166155134Y-98004866D01*
X165929014Y-97819294D01*
X165671034Y-97681401D01*
X165391111Y-97596487D01*
X165172950Y-97575000D01*
X165027050Y-97575000D01*
X164808889Y-97596487D01*
X164528966Y-97681401D01*
X164270986Y-97819294D01*
X164044866Y-98004866D01*
X163859294Y-98230986D01*
X163830000Y-98285791D01*
X163800706Y-98230986D01*
X163615134Y-98004866D01*
X163389014Y-97819294D01*
X163131034Y-97681401D01*
X162851111Y-97596487D01*
X162632950Y-97575000D01*
X162487050Y-97575000D01*
X162268889Y-97596487D01*
X161988966Y-97681401D01*
X161730986Y-97819294D01*
X161504866Y-98004866D01*
X161319294Y-98230986D01*
X161290000Y-98285791D01*
X161260706Y-98230986D01*
X161075134Y-98004866D01*
X160849014Y-97819294D01*
X160591034Y-97681401D01*
X160311111Y-97596487D01*
X160092950Y-97575000D01*
X159947050Y-97575000D01*
X159728889Y-97596487D01*
X159448966Y-97681401D01*
X159190986Y-97819294D01*
X158964866Y-98004866D01*
X158779294Y-98230986D01*
X158750000Y-98285791D01*
X158720706Y-98230986D01*
X158535134Y-98004866D01*
X158309014Y-97819294D01*
X158051034Y-97681401D01*
X157771111Y-97596487D01*
X157552950Y-97575000D01*
X157407050Y-97575000D01*
X157188889Y-97596487D01*
X156908966Y-97681401D01*
X156650986Y-97819294D01*
X156424866Y-98004866D01*
X156239294Y-98230986D01*
X156210000Y-98285791D01*
X156180706Y-98230986D01*
X155995134Y-98004866D01*
X155769014Y-97819294D01*
X155511034Y-97681401D01*
X155231111Y-97596487D01*
X155012950Y-97575000D01*
X154867050Y-97575000D01*
X154648889Y-97596487D01*
X154368966Y-97681401D01*
X154110986Y-97819294D01*
X153884866Y-98004866D01*
X153699294Y-98230986D01*
X153670000Y-98285791D01*
X153640706Y-98230986D01*
X153455134Y-98004866D01*
X153229014Y-97819294D01*
X152971034Y-97681401D01*
X152691111Y-97596487D01*
X152472950Y-97575000D01*
X152327050Y-97575000D01*
X152108889Y-97596487D01*
X151828966Y-97681401D01*
X151570986Y-97819294D01*
X151344866Y-98004866D01*
X151159294Y-98230986D01*
X151130000Y-98285791D01*
X151100706Y-98230986D01*
X150915134Y-98004866D01*
X150689014Y-97819294D01*
X150431034Y-97681401D01*
X150151111Y-97596487D01*
X149932950Y-97575000D01*
X149787050Y-97575000D01*
X149568889Y-97596487D01*
X149288966Y-97681401D01*
X149030986Y-97819294D01*
X148804866Y-98004866D01*
X148619294Y-98230986D01*
X148481401Y-98488966D01*
X148396487Y-98768889D01*
X148367815Y-99060000D01*
X133568072Y-99060000D01*
X133568072Y-98210000D01*
X133555812Y-98085518D01*
X133519502Y-97965820D01*
X133460537Y-97855506D01*
X133381185Y-97758815D01*
X133284494Y-97679463D01*
X133174180Y-97620498D01*
X133054482Y-97584188D01*
X132930000Y-97571928D01*
X131230000Y-97571928D01*
X131105518Y-97584188D01*
X130985820Y-97620498D01*
X130875506Y-97679463D01*
X130778815Y-97758815D01*
X130699463Y-97855506D01*
X130640498Y-97965820D01*
X130619607Y-98034687D01*
X130595134Y-98004866D01*
X130369014Y-97819294D01*
X130111034Y-97681401D01*
X129831111Y-97596487D01*
X129612950Y-97575000D01*
X129467050Y-97575000D01*
X129248889Y-97596487D01*
X128968966Y-97681401D01*
X128710986Y-97819294D01*
X128484866Y-98004866D01*
X128299294Y-98230986D01*
X128270000Y-98285791D01*
X128240706Y-98230986D01*
X128055134Y-98004866D01*
X127829014Y-97819294D01*
X127571034Y-97681401D01*
X127291111Y-97596487D01*
X127072950Y-97575000D01*
X126927050Y-97575000D01*
X126708889Y-97596487D01*
X126428966Y-97681401D01*
X126170986Y-97819294D01*
X125944866Y-98004866D01*
X125759294Y-98230986D01*
X125730000Y-98285791D01*
X125700706Y-98230986D01*
X125515134Y-98004866D01*
X125289014Y-97819294D01*
X125031034Y-97681401D01*
X124751111Y-97596487D01*
X124532950Y-97575000D01*
X124387050Y-97575000D01*
X124168889Y-97596487D01*
X123888966Y-97681401D01*
X123630986Y-97819294D01*
X123404866Y-98004866D01*
X123219294Y-98230986D01*
X123190000Y-98285791D01*
X123160706Y-98230986D01*
X122975134Y-98004866D01*
X122749014Y-97819294D01*
X122491034Y-97681401D01*
X122211111Y-97596487D01*
X121992950Y-97575000D01*
X121847050Y-97575000D01*
X121628889Y-97596487D01*
X121348966Y-97681401D01*
X121090986Y-97819294D01*
X120864866Y-98004866D01*
X120679294Y-98230986D01*
X120650000Y-98285791D01*
X120620706Y-98230986D01*
X120435134Y-98004866D01*
X120209014Y-97819294D01*
X119951034Y-97681401D01*
X119671111Y-97596487D01*
X119452950Y-97575000D01*
X119307050Y-97575000D01*
X119088889Y-97596487D01*
X118808966Y-97681401D01*
X118550986Y-97819294D01*
X118324866Y-98004866D01*
X118139294Y-98230986D01*
X118110000Y-98285791D01*
X118080706Y-98230986D01*
X117895134Y-98004866D01*
X117669014Y-97819294D01*
X117411034Y-97681401D01*
X117131111Y-97596487D01*
X116912950Y-97575000D01*
X116767050Y-97575000D01*
X116548889Y-97596487D01*
X116268966Y-97681401D01*
X116010986Y-97819294D01*
X115784866Y-98004866D01*
X115599294Y-98230986D01*
X115570000Y-98285791D01*
X115540706Y-98230986D01*
X115355134Y-98004866D01*
X115129014Y-97819294D01*
X114871034Y-97681401D01*
X114591111Y-97596487D01*
X114372950Y-97575000D01*
X114227050Y-97575000D01*
X114008889Y-97596487D01*
X113728966Y-97681401D01*
X113470986Y-97819294D01*
X113244866Y-98004866D01*
X113059294Y-98230986D01*
X112921401Y-98488966D01*
X112836487Y-98768889D01*
X112807815Y-99060000D01*
X112420000Y-99060000D01*
X112420000Y-94450000D01*
X123021928Y-94450000D01*
X123021928Y-96050000D01*
X123034188Y-96174482D01*
X123070498Y-96294180D01*
X123129463Y-96404494D01*
X123208815Y-96501185D01*
X123305506Y-96580537D01*
X123415820Y-96639502D01*
X123535518Y-96675812D01*
X123660000Y-96688072D01*
X125260000Y-96688072D01*
X125384482Y-96675812D01*
X125504180Y-96639502D01*
X125614494Y-96580537D01*
X125711185Y-96501185D01*
X125790537Y-96404494D01*
X125849502Y-96294180D01*
X125885812Y-96174482D01*
X125887581Y-96156518D01*
X125980392Y-96269608D01*
X126198899Y-96448932D01*
X126448192Y-96582182D01*
X126718691Y-96664236D01*
X126929508Y-96685000D01*
X127070492Y-96685000D01*
X127281309Y-96664236D01*
X127551808Y-96582182D01*
X127801101Y-96448932D01*
X128019608Y-96269608D01*
X128198932Y-96051101D01*
X128270000Y-95918142D01*
X128341068Y-96051101D01*
X128520392Y-96269608D01*
X128738899Y-96448932D01*
X128988192Y-96582182D01*
X129258691Y-96664236D01*
X129469508Y-96685000D01*
X129610492Y-96685000D01*
X129821309Y-96664236D01*
X130091808Y-96582182D01*
X130341101Y-96448932D01*
X130559608Y-96269608D01*
X130738932Y-96051101D01*
X130810000Y-95918142D01*
X130881068Y-96051101D01*
X131060392Y-96269608D01*
X131278899Y-96448932D01*
X131528192Y-96582182D01*
X131798691Y-96664236D01*
X132009508Y-96685000D01*
X132150492Y-96685000D01*
X132361309Y-96664236D01*
X132631808Y-96582182D01*
X132881101Y-96448932D01*
X133099608Y-96269608D01*
X133278932Y-96051101D01*
X133350000Y-95918142D01*
X133421068Y-96051101D01*
X133600392Y-96269608D01*
X133818899Y-96448932D01*
X134068192Y-96582182D01*
X134338691Y-96664236D01*
X134549508Y-96685000D01*
X134690492Y-96685000D01*
X134901309Y-96664236D01*
X135171808Y-96582182D01*
X135421101Y-96448932D01*
X135639608Y-96269608D01*
X135818932Y-96051101D01*
X135890000Y-95918142D01*
X135961068Y-96051101D01*
X136140392Y-96269608D01*
X136358899Y-96448932D01*
X136608192Y-96582182D01*
X136878691Y-96664236D01*
X137089508Y-96685000D01*
X137230492Y-96685000D01*
X137441309Y-96664236D01*
X137711808Y-96582182D01*
X137961101Y-96448932D01*
X138179608Y-96269608D01*
X138358932Y-96051101D01*
X138430000Y-95918142D01*
X138501068Y-96051101D01*
X138680392Y-96269608D01*
X138898899Y-96448932D01*
X139148192Y-96582182D01*
X139418691Y-96664236D01*
X139629508Y-96685000D01*
X139770492Y-96685000D01*
X139981309Y-96664236D01*
X140251808Y-96582182D01*
X140501101Y-96448932D01*
X140719608Y-96269608D01*
X140898932Y-96051101D01*
X140970000Y-95918142D01*
X141041068Y-96051101D01*
X141220392Y-96269608D01*
X141438899Y-96448932D01*
X141688192Y-96582182D01*
X141958691Y-96664236D01*
X142169508Y-96685000D01*
X142310492Y-96685000D01*
X142521309Y-96664236D01*
X142791808Y-96582182D01*
X143041101Y-96448932D01*
X143259608Y-96269608D01*
X143438932Y-96051101D01*
X143510000Y-95918142D01*
X143581068Y-96051101D01*
X143760392Y-96269608D01*
X143978899Y-96448932D01*
X144228192Y-96582182D01*
X144498691Y-96664236D01*
X144709508Y-96685000D01*
X144850492Y-96685000D01*
X145061309Y-96664236D01*
X145331808Y-96582182D01*
X145581101Y-96448932D01*
X145799608Y-96269608D01*
X145978932Y-96051101D01*
X146050000Y-95918142D01*
X146121068Y-96051101D01*
X146300392Y-96269608D01*
X146518899Y-96448932D01*
X146768192Y-96582182D01*
X147038691Y-96664236D01*
X147249508Y-96685000D01*
X147390492Y-96685000D01*
X147601309Y-96664236D01*
X147871808Y-96582182D01*
X148121101Y-96448932D01*
X148339608Y-96269608D01*
X148518932Y-96051101D01*
X148590000Y-95918142D01*
X148661068Y-96051101D01*
X148840392Y-96269608D01*
X149058899Y-96448932D01*
X149308192Y-96582182D01*
X149578691Y-96664236D01*
X149789508Y-96685000D01*
X149930492Y-96685000D01*
X150141309Y-96664236D01*
X150411808Y-96582182D01*
X150661101Y-96448932D01*
X150879608Y-96269608D01*
X151058932Y-96051101D01*
X151130000Y-95918142D01*
X151201068Y-96051101D01*
X151380392Y-96269608D01*
X151598899Y-96448932D01*
X151848192Y-96582182D01*
X152118691Y-96664236D01*
X152329508Y-96685000D01*
X152470492Y-96685000D01*
X152681309Y-96664236D01*
X152951808Y-96582182D01*
X153201101Y-96448932D01*
X153419608Y-96269608D01*
X153598932Y-96051101D01*
X153670000Y-95918142D01*
X153741068Y-96051101D01*
X153920392Y-96269608D01*
X154138899Y-96448932D01*
X154388192Y-96582182D01*
X154658691Y-96664236D01*
X154869508Y-96685000D01*
X155010492Y-96685000D01*
X155221309Y-96664236D01*
X155491808Y-96582182D01*
X155741101Y-96448932D01*
X155959608Y-96269608D01*
X156138932Y-96051101D01*
X156210000Y-95918142D01*
X156281068Y-96051101D01*
X156460392Y-96269608D01*
X156678899Y-96448932D01*
X156928192Y-96582182D01*
X157198691Y-96664236D01*
X157409508Y-96685000D01*
X157550492Y-96685000D01*
X157761309Y-96664236D01*
X158031808Y-96582182D01*
X158281101Y-96448932D01*
X158499608Y-96269608D01*
X158678932Y-96051101D01*
X158750000Y-95918142D01*
X158821068Y-96051101D01*
X159000392Y-96269608D01*
X159218899Y-96448932D01*
X159468192Y-96582182D01*
X159738691Y-96664236D01*
X159949508Y-96685000D01*
X160090492Y-96685000D01*
X160301309Y-96664236D01*
X160571808Y-96582182D01*
X160821101Y-96448932D01*
X161039608Y-96269608D01*
X161218932Y-96051101D01*
X161290000Y-95918142D01*
X161361068Y-96051101D01*
X161540392Y-96269608D01*
X161758899Y-96448932D01*
X162008192Y-96582182D01*
X162278691Y-96664236D01*
X162489508Y-96685000D01*
X162630492Y-96685000D01*
X162841309Y-96664236D01*
X163111808Y-96582182D01*
X163361101Y-96448932D01*
X163579608Y-96269608D01*
X163758932Y-96051101D01*
X163892182Y-95801808D01*
X163974236Y-95531309D01*
X164001943Y-95250000D01*
X163974236Y-94968691D01*
X163892182Y-94698192D01*
X163758932Y-94448899D01*
X163579608Y-94230392D01*
X163361101Y-94051068D01*
X163111808Y-93917818D01*
X162841309Y-93835764D01*
X162630492Y-93815000D01*
X162489508Y-93815000D01*
X162278691Y-93835764D01*
X162008192Y-93917818D01*
X161758899Y-94051068D01*
X161540392Y-94230392D01*
X161361068Y-94448899D01*
X161290000Y-94581858D01*
X161218932Y-94448899D01*
X161039608Y-94230392D01*
X160821101Y-94051068D01*
X160571808Y-93917818D01*
X160301309Y-93835764D01*
X160090492Y-93815000D01*
X159949508Y-93815000D01*
X159738691Y-93835764D01*
X159468192Y-93917818D01*
X159218899Y-94051068D01*
X159000392Y-94230392D01*
X158821068Y-94448899D01*
X158750000Y-94581858D01*
X158678932Y-94448899D01*
X158499608Y-94230392D01*
X158281101Y-94051068D01*
X158031808Y-93917818D01*
X157761309Y-93835764D01*
X157550492Y-93815000D01*
X157409508Y-93815000D01*
X157198691Y-93835764D01*
X156928192Y-93917818D01*
X156678899Y-94051068D01*
X156460392Y-94230392D01*
X156281068Y-94448899D01*
X156210000Y-94581858D01*
X156138932Y-94448899D01*
X155959608Y-94230392D01*
X155741101Y-94051068D01*
X155491808Y-93917818D01*
X155221309Y-93835764D01*
X155010492Y-93815000D01*
X154869508Y-93815000D01*
X154658691Y-93835764D01*
X154388192Y-93917818D01*
X154138899Y-94051068D01*
X153920392Y-94230392D01*
X153741068Y-94448899D01*
X153670000Y-94581858D01*
X153598932Y-94448899D01*
X153419608Y-94230392D01*
X153201101Y-94051068D01*
X152951808Y-93917818D01*
X152681309Y-93835764D01*
X152470492Y-93815000D01*
X152329508Y-93815000D01*
X152118691Y-93835764D01*
X151848192Y-93917818D01*
X151598899Y-94051068D01*
X151380392Y-94230392D01*
X151201068Y-94448899D01*
X151130000Y-94581858D01*
X151058932Y-94448899D01*
X150879608Y-94230392D01*
X150661101Y-94051068D01*
X150411808Y-93917818D01*
X150141309Y-93835764D01*
X149930492Y-93815000D01*
X149789508Y-93815000D01*
X149578691Y-93835764D01*
X149308192Y-93917818D01*
X149058899Y-94051068D01*
X148840392Y-94230392D01*
X148661068Y-94448899D01*
X148590000Y-94581858D01*
X148518932Y-94448899D01*
X148339608Y-94230392D01*
X148121101Y-94051068D01*
X147871808Y-93917818D01*
X147601309Y-93835764D01*
X147390492Y-93815000D01*
X147249508Y-93815000D01*
X147038691Y-93835764D01*
X146768192Y-93917818D01*
X146518899Y-94051068D01*
X146300392Y-94230392D01*
X146121068Y-94448899D01*
X146050000Y-94581858D01*
X145978932Y-94448899D01*
X145799608Y-94230392D01*
X145581101Y-94051068D01*
X145331808Y-93917818D01*
X145061309Y-93835764D01*
X144850492Y-93815000D01*
X144709508Y-93815000D01*
X144498691Y-93835764D01*
X144228192Y-93917818D01*
X143978899Y-94051068D01*
X143760392Y-94230392D01*
X143581068Y-94448899D01*
X143510000Y-94581858D01*
X143438932Y-94448899D01*
X143259608Y-94230392D01*
X143041101Y-94051068D01*
X142791808Y-93917818D01*
X142521309Y-93835764D01*
X142310492Y-93815000D01*
X142169508Y-93815000D01*
X141958691Y-93835764D01*
X141688192Y-93917818D01*
X141438899Y-94051068D01*
X141220392Y-94230392D01*
X141041068Y-94448899D01*
X140970000Y-94581858D01*
X140898932Y-94448899D01*
X140719608Y-94230392D01*
X140501101Y-94051068D01*
X140251808Y-93917818D01*
X139981309Y-93835764D01*
X139770492Y-93815000D01*
X139629508Y-93815000D01*
X139418691Y-93835764D01*
X139148192Y-93917818D01*
X138898899Y-94051068D01*
X138680392Y-94230392D01*
X138501068Y-94448899D01*
X138430000Y-94581858D01*
X138358932Y-94448899D01*
X138179608Y-94230392D01*
X137961101Y-94051068D01*
X137711808Y-93917818D01*
X137441309Y-93835764D01*
X137230492Y-93815000D01*
X137089508Y-93815000D01*
X136878691Y-93835764D01*
X136608192Y-93917818D01*
X136358899Y-94051068D01*
X136140392Y-94230392D01*
X135961068Y-94448899D01*
X135890000Y-94581858D01*
X135818932Y-94448899D01*
X135639608Y-94230392D01*
X135421101Y-94051068D01*
X135171808Y-93917818D01*
X134901309Y-93835764D01*
X134690492Y-93815000D01*
X134549508Y-93815000D01*
X134338691Y-93835764D01*
X134068192Y-93917818D01*
X133818899Y-94051068D01*
X133600392Y-94230392D01*
X133421068Y-94448899D01*
X133350000Y-94581858D01*
X133278932Y-94448899D01*
X133099608Y-94230392D01*
X132881101Y-94051068D01*
X132631808Y-93917818D01*
X132361309Y-93835764D01*
X132150492Y-93815000D01*
X132009508Y-93815000D01*
X131798691Y-93835764D01*
X131528192Y-93917818D01*
X131278899Y-94051068D01*
X131060392Y-94230392D01*
X130881068Y-94448899D01*
X130810000Y-94581858D01*
X130738932Y-94448899D01*
X130559608Y-94230392D01*
X130341101Y-94051068D01*
X130091808Y-93917818D01*
X129821309Y-93835764D01*
X129610492Y-93815000D01*
X129469508Y-93815000D01*
X129258691Y-93835764D01*
X128988192Y-93917818D01*
X128738899Y-94051068D01*
X128520392Y-94230392D01*
X128341068Y-94448899D01*
X128270000Y-94581858D01*
X128198932Y-94448899D01*
X128019608Y-94230392D01*
X127801101Y-94051068D01*
X127551808Y-93917818D01*
X127281309Y-93835764D01*
X127070492Y-93815000D01*
X126929508Y-93815000D01*
X126718691Y-93835764D01*
X126448192Y-93917818D01*
X126198899Y-94051068D01*
X125980392Y-94230392D01*
X125887581Y-94343482D01*
X125885812Y-94325518D01*
X125849502Y-94205820D01*
X125790537Y-94095506D01*
X125711185Y-93998815D01*
X125614494Y-93919463D01*
X125504180Y-93860498D01*
X125384482Y-93824188D01*
X125260000Y-93811928D01*
X123660000Y-93811928D01*
X123535518Y-93824188D01*
X123415820Y-93860498D01*
X123305506Y-93919463D01*
X123208815Y-93998815D01*
X123129463Y-94095506D01*
X123070498Y-94205820D01*
X123034188Y-94325518D01*
X123021928Y-94450000D01*
X112420000Y-94450000D01*
X112420000Y-89948665D01*
X116675000Y-89948665D01*
X116675000Y-90231335D01*
X116730147Y-90508574D01*
X116838320Y-90769727D01*
X116995363Y-91004759D01*
X117195241Y-91204637D01*
X117430273Y-91361680D01*
X117691426Y-91469853D01*
X117968665Y-91525000D01*
X118251335Y-91525000D01*
X118528574Y-91469853D01*
X118789727Y-91361680D01*
X119024759Y-91204637D01*
X119224637Y-91004759D01*
X119381680Y-90769727D01*
X119489853Y-90508574D01*
X119545000Y-90231335D01*
X119545000Y-89948665D01*
X119489853Y-89671426D01*
X119381680Y-89410273D01*
X119224637Y-89175241D01*
X119024759Y-88975363D01*
X118789727Y-88818320D01*
X118528574Y-88710147D01*
X118251335Y-88655000D01*
X117968665Y-88655000D01*
X117691426Y-88710147D01*
X117430273Y-88818320D01*
X117195241Y-88975363D01*
X116995363Y-89175241D01*
X116838320Y-89410273D01*
X116730147Y-89671426D01*
X116675000Y-89948665D01*
X112420000Y-89948665D01*
X112420000Y-86082702D01*
X117296903Y-86082702D01*
X117368486Y-86326671D01*
X117623996Y-86447571D01*
X117898184Y-86516300D01*
X118180512Y-86530217D01*
X118460130Y-86488787D01*
X118726292Y-86393603D01*
X118851514Y-86326671D01*
X118923097Y-86082702D01*
X118110000Y-85269605D01*
X117296903Y-86082702D01*
X112420000Y-86082702D01*
X112420000Y-85160512D01*
X116669783Y-85160512D01*
X116711213Y-85440130D01*
X116806397Y-85706292D01*
X116873329Y-85831514D01*
X117117298Y-85903097D01*
X117930395Y-85090000D01*
X118289605Y-85090000D01*
X119102702Y-85903097D01*
X119346671Y-85831514D01*
X119467571Y-85576004D01*
X119536300Y-85301816D01*
X119550217Y-85019488D01*
X119508787Y-84739870D01*
X119413603Y-84473708D01*
X119346671Y-84348486D01*
X119102702Y-84276903D01*
X118289605Y-85090000D01*
X117930395Y-85090000D01*
X117117298Y-84276903D01*
X116873329Y-84348486D01*
X116752429Y-84603996D01*
X116683700Y-84878184D01*
X116669783Y-85160512D01*
X112420000Y-85160512D01*
X112420000Y-84097298D01*
X117296903Y-84097298D01*
X118110000Y-84910395D01*
X118923097Y-84097298D01*
X118851514Y-83853329D01*
X118596004Y-83732429D01*
X118321816Y-83663700D01*
X118039488Y-83649783D01*
X117759870Y-83691213D01*
X117493708Y-83786397D01*
X117368486Y-83853329D01*
X117296903Y-84097298D01*
X112420000Y-84097298D01*
X112420000Y-80359040D01*
X123068091Y-80359040D01*
X123162930Y-80623881D01*
X123307615Y-80865131D01*
X123496586Y-81073519D01*
X123722580Y-81241037D01*
X123976913Y-81361246D01*
X124110961Y-81401904D01*
X124333000Y-81279915D01*
X124333000Y-80137000D01*
X124587000Y-80137000D01*
X124587000Y-81279915D01*
X124809039Y-81401904D01*
X124943087Y-81361246D01*
X125197420Y-81241037D01*
X125423414Y-81073519D01*
X125612385Y-80865131D01*
X125730000Y-80669018D01*
X125847615Y-80865131D01*
X126036586Y-81073519D01*
X126262580Y-81241037D01*
X126516913Y-81361246D01*
X126650961Y-81401904D01*
X126873000Y-81279915D01*
X126873000Y-80137000D01*
X124587000Y-80137000D01*
X124333000Y-80137000D01*
X123189376Y-80137000D01*
X123068091Y-80359040D01*
X112420000Y-80359040D01*
X112420000Y-79660960D01*
X123068091Y-79660960D01*
X123189376Y-79883000D01*
X124333000Y-79883000D01*
X124333000Y-78740085D01*
X124587000Y-78740085D01*
X124587000Y-79883000D01*
X126873000Y-79883000D01*
X126873000Y-78740085D01*
X127127000Y-78740085D01*
X127127000Y-79883000D01*
X127147000Y-79883000D01*
X127147000Y-80137000D01*
X127127000Y-80137000D01*
X127127000Y-81279915D01*
X127349039Y-81401904D01*
X127483087Y-81361246D01*
X127737420Y-81241037D01*
X127963414Y-81073519D01*
X128152385Y-80865131D01*
X128267421Y-80673318D01*
X128341068Y-80811101D01*
X128520392Y-81029608D01*
X128738899Y-81208932D01*
X128988192Y-81342182D01*
X129258691Y-81424236D01*
X129469508Y-81445000D01*
X129610492Y-81445000D01*
X129821309Y-81424236D01*
X130091808Y-81342182D01*
X130341101Y-81208932D01*
X130559608Y-81029608D01*
X130738932Y-80811101D01*
X130810000Y-80678142D01*
X130881068Y-80811101D01*
X131060392Y-81029608D01*
X131278899Y-81208932D01*
X131528192Y-81342182D01*
X131798691Y-81424236D01*
X132009508Y-81445000D01*
X132150492Y-81445000D01*
X132361309Y-81424236D01*
X132631808Y-81342182D01*
X132881101Y-81208932D01*
X133099608Y-81029608D01*
X133278932Y-80811101D01*
X133350000Y-80678142D01*
X133421068Y-80811101D01*
X133600392Y-81029608D01*
X133818899Y-81208932D01*
X134068192Y-81342182D01*
X134338691Y-81424236D01*
X134549508Y-81445000D01*
X134690492Y-81445000D01*
X134901309Y-81424236D01*
X135171808Y-81342182D01*
X135421101Y-81208932D01*
X135639608Y-81029608D01*
X135818932Y-80811101D01*
X135890000Y-80678142D01*
X135961068Y-80811101D01*
X136140392Y-81029608D01*
X136358899Y-81208932D01*
X136608192Y-81342182D01*
X136878691Y-81424236D01*
X137089508Y-81445000D01*
X137230492Y-81445000D01*
X137441309Y-81424236D01*
X137711808Y-81342182D01*
X137961101Y-81208932D01*
X138179608Y-81029608D01*
X138358932Y-80811101D01*
X138430000Y-80678142D01*
X138501068Y-80811101D01*
X138680392Y-81029608D01*
X138898899Y-81208932D01*
X139148192Y-81342182D01*
X139418691Y-81424236D01*
X139629508Y-81445000D01*
X139770492Y-81445000D01*
X139981309Y-81424236D01*
X140251808Y-81342182D01*
X140501101Y-81208932D01*
X140719608Y-81029608D01*
X140898932Y-80811101D01*
X140970000Y-80678142D01*
X141041068Y-80811101D01*
X141220392Y-81029608D01*
X141438899Y-81208932D01*
X141688192Y-81342182D01*
X141958691Y-81424236D01*
X142169508Y-81445000D01*
X142310492Y-81445000D01*
X142521309Y-81424236D01*
X142791808Y-81342182D01*
X143041101Y-81208932D01*
X143259608Y-81029608D01*
X143438932Y-80811101D01*
X143510000Y-80678142D01*
X143581068Y-80811101D01*
X143760392Y-81029608D01*
X143978899Y-81208932D01*
X144228192Y-81342182D01*
X144498691Y-81424236D01*
X144709508Y-81445000D01*
X144850492Y-81445000D01*
X145061309Y-81424236D01*
X145331808Y-81342182D01*
X145581101Y-81208932D01*
X145799608Y-81029608D01*
X145978932Y-80811101D01*
X146050000Y-80678142D01*
X146121068Y-80811101D01*
X146300392Y-81029608D01*
X146518899Y-81208932D01*
X146768192Y-81342182D01*
X147038691Y-81424236D01*
X147249508Y-81445000D01*
X147390492Y-81445000D01*
X147601309Y-81424236D01*
X147871808Y-81342182D01*
X148121101Y-81208932D01*
X148339608Y-81029608D01*
X148518932Y-80811101D01*
X148590000Y-80678142D01*
X148661068Y-80811101D01*
X148840392Y-81029608D01*
X149058899Y-81208932D01*
X149308192Y-81342182D01*
X149578691Y-81424236D01*
X149789508Y-81445000D01*
X149930492Y-81445000D01*
X150141309Y-81424236D01*
X150411808Y-81342182D01*
X150661101Y-81208932D01*
X150879608Y-81029608D01*
X151058932Y-80811101D01*
X151130000Y-80678142D01*
X151201068Y-80811101D01*
X151380392Y-81029608D01*
X151598899Y-81208932D01*
X151848192Y-81342182D01*
X152118691Y-81424236D01*
X152329508Y-81445000D01*
X152470492Y-81445000D01*
X152681309Y-81424236D01*
X152951808Y-81342182D01*
X153201101Y-81208932D01*
X153419608Y-81029608D01*
X153598932Y-80811101D01*
X153670000Y-80678142D01*
X153741068Y-80811101D01*
X153920392Y-81029608D01*
X154138899Y-81208932D01*
X154388192Y-81342182D01*
X154658691Y-81424236D01*
X154869508Y-81445000D01*
X155010492Y-81445000D01*
X155221309Y-81424236D01*
X155491808Y-81342182D01*
X155741101Y-81208932D01*
X155959608Y-81029608D01*
X156138932Y-80811101D01*
X156210000Y-80678142D01*
X156281068Y-80811101D01*
X156460392Y-81029608D01*
X156678899Y-81208932D01*
X156928192Y-81342182D01*
X157198691Y-81424236D01*
X157409508Y-81445000D01*
X157550492Y-81445000D01*
X157761309Y-81424236D01*
X158031808Y-81342182D01*
X158281101Y-81208932D01*
X158499608Y-81029608D01*
X158678932Y-80811101D01*
X158750000Y-80678142D01*
X158821068Y-80811101D01*
X159000392Y-81029608D01*
X159218899Y-81208932D01*
X159468192Y-81342182D01*
X159738691Y-81424236D01*
X159949508Y-81445000D01*
X160090492Y-81445000D01*
X160301309Y-81424236D01*
X160571808Y-81342182D01*
X160821101Y-81208932D01*
X161039608Y-81029608D01*
X161218932Y-80811101D01*
X161290000Y-80678142D01*
X161361068Y-80811101D01*
X161540392Y-81029608D01*
X161758899Y-81208932D01*
X162008192Y-81342182D01*
X162278691Y-81424236D01*
X162489508Y-81445000D01*
X162630492Y-81445000D01*
X162841309Y-81424236D01*
X163111808Y-81342182D01*
X163361101Y-81208932D01*
X163579608Y-81029608D01*
X163758932Y-80811101D01*
X163892182Y-80561808D01*
X163974236Y-80291309D01*
X164001943Y-80010000D01*
X163974236Y-79728691D01*
X163892182Y-79458192D01*
X163758932Y-79208899D01*
X163579608Y-78990392D01*
X163361101Y-78811068D01*
X163111808Y-78677818D01*
X162841309Y-78595764D01*
X162630492Y-78575000D01*
X162489508Y-78575000D01*
X162278691Y-78595764D01*
X162008192Y-78677818D01*
X161758899Y-78811068D01*
X161540392Y-78990392D01*
X161361068Y-79208899D01*
X161290000Y-79341858D01*
X161218932Y-79208899D01*
X161039608Y-78990392D01*
X160821101Y-78811068D01*
X160571808Y-78677818D01*
X160301309Y-78595764D01*
X160090492Y-78575000D01*
X159949508Y-78575000D01*
X159738691Y-78595764D01*
X159468192Y-78677818D01*
X159218899Y-78811068D01*
X159000392Y-78990392D01*
X158821068Y-79208899D01*
X158750000Y-79341858D01*
X158678932Y-79208899D01*
X158499608Y-78990392D01*
X158281101Y-78811068D01*
X158031808Y-78677818D01*
X157761309Y-78595764D01*
X157550492Y-78575000D01*
X157409508Y-78575000D01*
X157198691Y-78595764D01*
X156928192Y-78677818D01*
X156678899Y-78811068D01*
X156460392Y-78990392D01*
X156281068Y-79208899D01*
X156210000Y-79341858D01*
X156138932Y-79208899D01*
X155959608Y-78990392D01*
X155741101Y-78811068D01*
X155491808Y-78677818D01*
X155221309Y-78595764D01*
X155010492Y-78575000D01*
X154869508Y-78575000D01*
X154658691Y-78595764D01*
X154388192Y-78677818D01*
X154138899Y-78811068D01*
X153920392Y-78990392D01*
X153741068Y-79208899D01*
X153670000Y-79341858D01*
X153598932Y-79208899D01*
X153419608Y-78990392D01*
X153201101Y-78811068D01*
X152951808Y-78677818D01*
X152681309Y-78595764D01*
X152470492Y-78575000D01*
X152329508Y-78575000D01*
X152118691Y-78595764D01*
X151848192Y-78677818D01*
X151598899Y-78811068D01*
X151380392Y-78990392D01*
X151201068Y-79208899D01*
X151130000Y-79341858D01*
X151058932Y-79208899D01*
X150879608Y-78990392D01*
X150661101Y-78811068D01*
X150411808Y-78677818D01*
X150141309Y-78595764D01*
X149930492Y-78575000D01*
X149789508Y-78575000D01*
X149578691Y-78595764D01*
X149308192Y-78677818D01*
X149058899Y-78811068D01*
X148840392Y-78990392D01*
X148661068Y-79208899D01*
X148590000Y-79341858D01*
X148518932Y-79208899D01*
X148339608Y-78990392D01*
X148121101Y-78811068D01*
X147871808Y-78677818D01*
X147601309Y-78595764D01*
X147390492Y-78575000D01*
X147249508Y-78575000D01*
X147038691Y-78595764D01*
X146768192Y-78677818D01*
X146518899Y-78811068D01*
X146300392Y-78990392D01*
X146121068Y-79208899D01*
X146050000Y-79341858D01*
X145978932Y-79208899D01*
X145799608Y-78990392D01*
X145581101Y-78811068D01*
X145331808Y-78677818D01*
X145061309Y-78595764D01*
X144850492Y-78575000D01*
X144709508Y-78575000D01*
X144498691Y-78595764D01*
X144228192Y-78677818D01*
X143978899Y-78811068D01*
X143760392Y-78990392D01*
X143581068Y-79208899D01*
X143510000Y-79341858D01*
X143438932Y-79208899D01*
X143259608Y-78990392D01*
X143041101Y-78811068D01*
X142791808Y-78677818D01*
X142521309Y-78595764D01*
X142310492Y-78575000D01*
X142169508Y-78575000D01*
X141958691Y-78595764D01*
X141688192Y-78677818D01*
X141438899Y-78811068D01*
X141220392Y-78990392D01*
X141041068Y-79208899D01*
X140970000Y-79341858D01*
X140898932Y-79208899D01*
X140719608Y-78990392D01*
X140501101Y-78811068D01*
X140251808Y-78677818D01*
X139981309Y-78595764D01*
X139770492Y-78575000D01*
X139629508Y-78575000D01*
X139418691Y-78595764D01*
X139148192Y-78677818D01*
X138898899Y-78811068D01*
X138680392Y-78990392D01*
X138501068Y-79208899D01*
X138430000Y-79341858D01*
X138358932Y-79208899D01*
X138179608Y-78990392D01*
X137961101Y-78811068D01*
X137711808Y-78677818D01*
X137441309Y-78595764D01*
X137230492Y-78575000D01*
X137089508Y-78575000D01*
X136878691Y-78595764D01*
X136608192Y-78677818D01*
X136358899Y-78811068D01*
X136140392Y-78990392D01*
X135961068Y-79208899D01*
X135890000Y-79341858D01*
X135818932Y-79208899D01*
X135639608Y-78990392D01*
X135421101Y-78811068D01*
X135171808Y-78677818D01*
X134901309Y-78595764D01*
X134690492Y-78575000D01*
X134549508Y-78575000D01*
X134338691Y-78595764D01*
X134068192Y-78677818D01*
X133818899Y-78811068D01*
X133600392Y-78990392D01*
X133421068Y-79208899D01*
X133350000Y-79341858D01*
X133278932Y-79208899D01*
X133099608Y-78990392D01*
X132881101Y-78811068D01*
X132631808Y-78677818D01*
X132361309Y-78595764D01*
X132150492Y-78575000D01*
X132009508Y-78575000D01*
X131798691Y-78595764D01*
X131528192Y-78677818D01*
X131278899Y-78811068D01*
X131060392Y-78990392D01*
X130881068Y-79208899D01*
X130810000Y-79341858D01*
X130738932Y-79208899D01*
X130559608Y-78990392D01*
X130341101Y-78811068D01*
X130091808Y-78677818D01*
X129821309Y-78595764D01*
X129610492Y-78575000D01*
X129469508Y-78575000D01*
X129258691Y-78595764D01*
X128988192Y-78677818D01*
X128738899Y-78811068D01*
X128520392Y-78990392D01*
X128341068Y-79208899D01*
X128267421Y-79346682D01*
X128152385Y-79154869D01*
X127963414Y-78946481D01*
X127737420Y-78778963D01*
X127483087Y-78658754D01*
X127349039Y-78618096D01*
X127127000Y-78740085D01*
X126873000Y-78740085D01*
X126650961Y-78618096D01*
X126516913Y-78658754D01*
X126262580Y-78778963D01*
X126036586Y-78946481D01*
X125847615Y-79154869D01*
X125730000Y-79350982D01*
X125612385Y-79154869D01*
X125423414Y-78946481D01*
X125197420Y-78778963D01*
X124943087Y-78658754D01*
X124809039Y-78618096D01*
X124587000Y-78740085D01*
X124333000Y-78740085D01*
X124110961Y-78618096D01*
X123976913Y-78658754D01*
X123722580Y-78778963D01*
X123496586Y-78946481D01*
X123307615Y-79154869D01*
X123162930Y-79396119D01*
X123068091Y-79660960D01*
X112420000Y-79660960D01*
X112420000Y-74130000D01*
X123021928Y-74130000D01*
X123021928Y-75730000D01*
X123034188Y-75854482D01*
X123070498Y-75974180D01*
X123129463Y-76084494D01*
X123208815Y-76181185D01*
X123305506Y-76260537D01*
X123415820Y-76319502D01*
X123535518Y-76355812D01*
X123660000Y-76368072D01*
X125260000Y-76368072D01*
X125384482Y-76355812D01*
X125504180Y-76319502D01*
X125614494Y-76260537D01*
X125711185Y-76181185D01*
X125790537Y-76084494D01*
X125849502Y-75974180D01*
X125885812Y-75854482D01*
X125887581Y-75836518D01*
X125980392Y-75949608D01*
X126198899Y-76128932D01*
X126448192Y-76262182D01*
X126718691Y-76344236D01*
X126929508Y-76365000D01*
X127070492Y-76365000D01*
X127281309Y-76344236D01*
X127551808Y-76262182D01*
X127801101Y-76128932D01*
X128019608Y-75949608D01*
X128198932Y-75731101D01*
X128270000Y-75598142D01*
X128341068Y-75731101D01*
X128520392Y-75949608D01*
X128738899Y-76128932D01*
X128988192Y-76262182D01*
X129258691Y-76344236D01*
X129469508Y-76365000D01*
X129610492Y-76365000D01*
X129821309Y-76344236D01*
X130091808Y-76262182D01*
X130341101Y-76128932D01*
X130559608Y-75949608D01*
X130738932Y-75731101D01*
X130810000Y-75598142D01*
X130881068Y-75731101D01*
X131060392Y-75949608D01*
X131278899Y-76128932D01*
X131528192Y-76262182D01*
X131798691Y-76344236D01*
X132009508Y-76365000D01*
X132150492Y-76365000D01*
X132361309Y-76344236D01*
X132631808Y-76262182D01*
X132881101Y-76128932D01*
X133099608Y-75949608D01*
X133278932Y-75731101D01*
X133350000Y-75598142D01*
X133421068Y-75731101D01*
X133600392Y-75949608D01*
X133818899Y-76128932D01*
X134068192Y-76262182D01*
X134338691Y-76344236D01*
X134549508Y-76365000D01*
X134690492Y-76365000D01*
X134901309Y-76344236D01*
X135171808Y-76262182D01*
X135421101Y-76128932D01*
X135639608Y-75949608D01*
X135818932Y-75731101D01*
X135890000Y-75598142D01*
X135961068Y-75731101D01*
X136140392Y-75949608D01*
X136358899Y-76128932D01*
X136608192Y-76262182D01*
X136878691Y-76344236D01*
X137089508Y-76365000D01*
X137230492Y-76365000D01*
X137441309Y-76344236D01*
X137711808Y-76262182D01*
X137961101Y-76128932D01*
X138179608Y-75949608D01*
X138358932Y-75731101D01*
X138430000Y-75598142D01*
X138501068Y-75731101D01*
X138680392Y-75949608D01*
X138898899Y-76128932D01*
X139148192Y-76262182D01*
X139418691Y-76344236D01*
X139629508Y-76365000D01*
X139770492Y-76365000D01*
X139981309Y-76344236D01*
X140251808Y-76262182D01*
X140501101Y-76128932D01*
X140719608Y-75949608D01*
X140898932Y-75731101D01*
X140970000Y-75598142D01*
X141041068Y-75731101D01*
X141220392Y-75949608D01*
X141438899Y-76128932D01*
X141688192Y-76262182D01*
X141958691Y-76344236D01*
X142169508Y-76365000D01*
X142310492Y-76365000D01*
X142521309Y-76344236D01*
X142791808Y-76262182D01*
X143041101Y-76128932D01*
X143259608Y-75949608D01*
X143438932Y-75731101D01*
X143510000Y-75598142D01*
X143581068Y-75731101D01*
X143760392Y-75949608D01*
X143978899Y-76128932D01*
X144228192Y-76262182D01*
X144498691Y-76344236D01*
X144709508Y-76365000D01*
X144850492Y-76365000D01*
X145061309Y-76344236D01*
X145331808Y-76262182D01*
X145581101Y-76128932D01*
X145799608Y-75949608D01*
X145978932Y-75731101D01*
X146050000Y-75598142D01*
X146121068Y-75731101D01*
X146300392Y-75949608D01*
X146518899Y-76128932D01*
X146768192Y-76262182D01*
X147038691Y-76344236D01*
X147249508Y-76365000D01*
X147390492Y-76365000D01*
X147601309Y-76344236D01*
X147871808Y-76262182D01*
X148121101Y-76128932D01*
X148339608Y-75949608D01*
X148518932Y-75731101D01*
X148590000Y-75598142D01*
X148661068Y-75731101D01*
X148840392Y-75949608D01*
X149058899Y-76128932D01*
X149308192Y-76262182D01*
X149578691Y-76344236D01*
X149789508Y-76365000D01*
X149930492Y-76365000D01*
X150141309Y-76344236D01*
X150411808Y-76262182D01*
X150661101Y-76128932D01*
X150879608Y-75949608D01*
X151058932Y-75731101D01*
X151130000Y-75598142D01*
X151201068Y-75731101D01*
X151380392Y-75949608D01*
X151598899Y-76128932D01*
X151848192Y-76262182D01*
X152118691Y-76344236D01*
X152329508Y-76365000D01*
X152470492Y-76365000D01*
X152681309Y-76344236D01*
X152951808Y-76262182D01*
X153201101Y-76128932D01*
X153419608Y-75949608D01*
X153598932Y-75731101D01*
X153670000Y-75598142D01*
X153741068Y-75731101D01*
X153920392Y-75949608D01*
X154138899Y-76128932D01*
X154388192Y-76262182D01*
X154658691Y-76344236D01*
X154869508Y-76365000D01*
X155010492Y-76365000D01*
X155221309Y-76344236D01*
X155491808Y-76262182D01*
X155741101Y-76128932D01*
X155959608Y-75949608D01*
X156138932Y-75731101D01*
X156210000Y-75598142D01*
X156281068Y-75731101D01*
X156460392Y-75949608D01*
X156678899Y-76128932D01*
X156928192Y-76262182D01*
X157198691Y-76344236D01*
X157409508Y-76365000D01*
X157550492Y-76365000D01*
X157761309Y-76344236D01*
X158031808Y-76262182D01*
X158281101Y-76128932D01*
X158499608Y-75949608D01*
X158678932Y-75731101D01*
X158750000Y-75598142D01*
X158821068Y-75731101D01*
X159000392Y-75949608D01*
X159218899Y-76128932D01*
X159468192Y-76262182D01*
X159738691Y-76344236D01*
X159949508Y-76365000D01*
X160090492Y-76365000D01*
X160301309Y-76344236D01*
X160571808Y-76262182D01*
X160821101Y-76128932D01*
X161039608Y-75949608D01*
X161218932Y-75731101D01*
X161290000Y-75598142D01*
X161361068Y-75731101D01*
X161540392Y-75949608D01*
X161758899Y-76128932D01*
X162008192Y-76262182D01*
X162278691Y-76344236D01*
X162489508Y-76365000D01*
X162630492Y-76365000D01*
X162841309Y-76344236D01*
X163111808Y-76262182D01*
X163361101Y-76128932D01*
X163579608Y-75949608D01*
X163758932Y-75731101D01*
X163892182Y-75481808D01*
X163974236Y-75211309D01*
X164001943Y-74930000D01*
X163974236Y-74648691D01*
X163892182Y-74378192D01*
X163758932Y-74128899D01*
X163579608Y-73910392D01*
X163361101Y-73731068D01*
X163111808Y-73597818D01*
X162841309Y-73515764D01*
X162630492Y-73495000D01*
X162489508Y-73495000D01*
X162278691Y-73515764D01*
X162008192Y-73597818D01*
X161758899Y-73731068D01*
X161540392Y-73910392D01*
X161361068Y-74128899D01*
X161290000Y-74261858D01*
X161218932Y-74128899D01*
X161039608Y-73910392D01*
X160821101Y-73731068D01*
X160571808Y-73597818D01*
X160301309Y-73515764D01*
X160090492Y-73495000D01*
X159949508Y-73495000D01*
X159738691Y-73515764D01*
X159468192Y-73597818D01*
X159218899Y-73731068D01*
X159000392Y-73910392D01*
X158821068Y-74128899D01*
X158750000Y-74261858D01*
X158678932Y-74128899D01*
X158499608Y-73910392D01*
X158281101Y-73731068D01*
X158031808Y-73597818D01*
X157761309Y-73515764D01*
X157550492Y-73495000D01*
X157409508Y-73495000D01*
X157198691Y-73515764D01*
X156928192Y-73597818D01*
X156678899Y-73731068D01*
X156460392Y-73910392D01*
X156281068Y-74128899D01*
X156210000Y-74261858D01*
X156138932Y-74128899D01*
X155959608Y-73910392D01*
X155741101Y-73731068D01*
X155491808Y-73597818D01*
X155221309Y-73515764D01*
X155010492Y-73495000D01*
X154869508Y-73495000D01*
X154658691Y-73515764D01*
X154388192Y-73597818D01*
X154138899Y-73731068D01*
X153920392Y-73910392D01*
X153741068Y-74128899D01*
X153670000Y-74261858D01*
X153598932Y-74128899D01*
X153419608Y-73910392D01*
X153201101Y-73731068D01*
X152951808Y-73597818D01*
X152681309Y-73515764D01*
X152470492Y-73495000D01*
X152329508Y-73495000D01*
X152118691Y-73515764D01*
X151848192Y-73597818D01*
X151598899Y-73731068D01*
X151380392Y-73910392D01*
X151201068Y-74128899D01*
X151130000Y-74261858D01*
X151058932Y-74128899D01*
X150879608Y-73910392D01*
X150661101Y-73731068D01*
X150411808Y-73597818D01*
X150141309Y-73515764D01*
X149930492Y-73495000D01*
X149789508Y-73495000D01*
X149578691Y-73515764D01*
X149308192Y-73597818D01*
X149058899Y-73731068D01*
X148840392Y-73910392D01*
X148661068Y-74128899D01*
X148590000Y-74261858D01*
X148518932Y-74128899D01*
X148339608Y-73910392D01*
X148121101Y-73731068D01*
X147871808Y-73597818D01*
X147601309Y-73515764D01*
X147390492Y-73495000D01*
X147249508Y-73495000D01*
X147038691Y-73515764D01*
X146768192Y-73597818D01*
X146518899Y-73731068D01*
X146300392Y-73910392D01*
X146121068Y-74128899D01*
X146050000Y-74261858D01*
X145978932Y-74128899D01*
X145799608Y-73910392D01*
X145581101Y-73731068D01*
X145331808Y-73597818D01*
X145061309Y-73515764D01*
X144850492Y-73495000D01*
X144709508Y-73495000D01*
X144498691Y-73515764D01*
X144228192Y-73597818D01*
X143978899Y-73731068D01*
X143760392Y-73910392D01*
X143581068Y-74128899D01*
X143510000Y-74261858D01*
X143438932Y-74128899D01*
X143259608Y-73910392D01*
X143041101Y-73731068D01*
X142791808Y-73597818D01*
X142521309Y-73515764D01*
X142310492Y-73495000D01*
X142169508Y-73495000D01*
X141958691Y-73515764D01*
X141688192Y-73597818D01*
X141438899Y-73731068D01*
X141220392Y-73910392D01*
X141041068Y-74128899D01*
X140970000Y-74261858D01*
X140898932Y-74128899D01*
X140719608Y-73910392D01*
X140501101Y-73731068D01*
X140251808Y-73597818D01*
X139981309Y-73515764D01*
X139770492Y-73495000D01*
X139629508Y-73495000D01*
X139418691Y-73515764D01*
X139148192Y-73597818D01*
X138898899Y-73731068D01*
X138680392Y-73910392D01*
X138501068Y-74128899D01*
X138430000Y-74261858D01*
X138358932Y-74128899D01*
X138179608Y-73910392D01*
X137961101Y-73731068D01*
X137711808Y-73597818D01*
X137441309Y-73515764D01*
X137230492Y-73495000D01*
X137089508Y-73495000D01*
X136878691Y-73515764D01*
X136608192Y-73597818D01*
X136358899Y-73731068D01*
X136140392Y-73910392D01*
X135961068Y-74128899D01*
X135890000Y-74261858D01*
X135818932Y-74128899D01*
X135639608Y-73910392D01*
X135421101Y-73731068D01*
X135171808Y-73597818D01*
X134901309Y-73515764D01*
X134690492Y-73495000D01*
X134549508Y-73495000D01*
X134338691Y-73515764D01*
X134068192Y-73597818D01*
X133818899Y-73731068D01*
X133600392Y-73910392D01*
X133421068Y-74128899D01*
X133350000Y-74261858D01*
X133278932Y-74128899D01*
X133099608Y-73910392D01*
X132881101Y-73731068D01*
X132631808Y-73597818D01*
X132361309Y-73515764D01*
X132150492Y-73495000D01*
X132009508Y-73495000D01*
X131798691Y-73515764D01*
X131528192Y-73597818D01*
X131278899Y-73731068D01*
X131060392Y-73910392D01*
X130881068Y-74128899D01*
X130810000Y-74261858D01*
X130738932Y-74128899D01*
X130559608Y-73910392D01*
X130341101Y-73731068D01*
X130091808Y-73597818D01*
X129821309Y-73515764D01*
X129610492Y-73495000D01*
X129469508Y-73495000D01*
X129258691Y-73515764D01*
X128988192Y-73597818D01*
X128738899Y-73731068D01*
X128520392Y-73910392D01*
X128341068Y-74128899D01*
X128270000Y-74261858D01*
X128198932Y-74128899D01*
X128019608Y-73910392D01*
X127801101Y-73731068D01*
X127551808Y-73597818D01*
X127281309Y-73515764D01*
X127070492Y-73495000D01*
X126929508Y-73495000D01*
X126718691Y-73515764D01*
X126448192Y-73597818D01*
X126198899Y-73731068D01*
X125980392Y-73910392D01*
X125887581Y-74023482D01*
X125885812Y-74005518D01*
X125849502Y-73885820D01*
X125790537Y-73775506D01*
X125711185Y-73678815D01*
X125614494Y-73599463D01*
X125504180Y-73540498D01*
X125384482Y-73504188D01*
X125260000Y-73491928D01*
X123660000Y-73491928D01*
X123535518Y-73504188D01*
X123415820Y-73540498D01*
X123305506Y-73599463D01*
X123208815Y-73678815D01*
X123129463Y-73775506D01*
X123070498Y-73885820D01*
X123034188Y-74005518D01*
X123021928Y-74130000D01*
X112420000Y-74130000D01*
X112420000Y-72051297D01*
X155604000Y-72051297D01*
X155604000Y-72220703D01*
X155637049Y-72386853D01*
X155701878Y-72543363D01*
X155795995Y-72684218D01*
X155915782Y-72804005D01*
X156056637Y-72898122D01*
X156213147Y-72962951D01*
X156379297Y-72996000D01*
X156548703Y-72996000D01*
X156714853Y-72962951D01*
X156803881Y-72926074D01*
X156811995Y-72938218D01*
X156931782Y-73058005D01*
X157072637Y-73152122D01*
X157229147Y-73216951D01*
X157395297Y-73250000D01*
X157564703Y-73250000D01*
X157730853Y-73216951D01*
X157887363Y-73152122D01*
X158028218Y-73058005D01*
X158148005Y-72938218D01*
X158212887Y-72841116D01*
X158238853Y-72835951D01*
X158395363Y-72771122D01*
X158536218Y-72677005D01*
X158656005Y-72557218D01*
X158750122Y-72416363D01*
X158814951Y-72259853D01*
X158848000Y-72093703D01*
X158848000Y-71924297D01*
X158822739Y-71797297D01*
X159160000Y-71797297D01*
X159160000Y-71966703D01*
X159193049Y-72132853D01*
X159257878Y-72289363D01*
X159351995Y-72430218D01*
X159471782Y-72550005D01*
X159612637Y-72644122D01*
X159769147Y-72708951D01*
X159935297Y-72742000D01*
X160104703Y-72742000D01*
X160270853Y-72708951D01*
X160427363Y-72644122D01*
X160568218Y-72550005D01*
X160688005Y-72430218D01*
X160782122Y-72289363D01*
X160846951Y-72132853D01*
X160880000Y-71966703D01*
X160880000Y-71797297D01*
X160846951Y-71631147D01*
X160810563Y-71543297D01*
X161700000Y-71543297D01*
X161700000Y-71712703D01*
X161733049Y-71878853D01*
X161797878Y-72035363D01*
X161891995Y-72176218D01*
X162011782Y-72296005D01*
X162152637Y-72390122D01*
X162309147Y-72454951D01*
X162475297Y-72488000D01*
X162644703Y-72488000D01*
X162810853Y-72454951D01*
X162967363Y-72390122D01*
X163108218Y-72296005D01*
X163228005Y-72176218D01*
X163322122Y-72035363D01*
X163386951Y-71878853D01*
X163420000Y-71712703D01*
X163420000Y-71543297D01*
X163386951Y-71377147D01*
X163322122Y-71220637D01*
X163228005Y-71079782D01*
X163108218Y-70959995D01*
X162967363Y-70865878D01*
X162810853Y-70801049D01*
X162644703Y-70768000D01*
X162475297Y-70768000D01*
X162309147Y-70801049D01*
X162152637Y-70865878D01*
X162011782Y-70959995D01*
X161891995Y-71079782D01*
X161797878Y-71220637D01*
X161733049Y-71377147D01*
X161700000Y-71543297D01*
X160810563Y-71543297D01*
X160782122Y-71474637D01*
X160688005Y-71333782D01*
X160568218Y-71213995D01*
X160427363Y-71119878D01*
X160270853Y-71055049D01*
X160104703Y-71022000D01*
X159935297Y-71022000D01*
X159769147Y-71055049D01*
X159612637Y-71119878D01*
X159471782Y-71213995D01*
X159351995Y-71333782D01*
X159257878Y-71474637D01*
X159193049Y-71631147D01*
X159160000Y-71797297D01*
X158822739Y-71797297D01*
X158814951Y-71758147D01*
X158750122Y-71601637D01*
X158656005Y-71460782D01*
X158536218Y-71340995D01*
X158395363Y-71246878D01*
X158238853Y-71182049D01*
X158072703Y-71149000D01*
X157903297Y-71149000D01*
X157737147Y-71182049D01*
X157580637Y-71246878D01*
X157439782Y-71340995D01*
X157319995Y-71460782D01*
X157255113Y-71557884D01*
X157229147Y-71563049D01*
X157140119Y-71599926D01*
X157132005Y-71587782D01*
X157012218Y-71467995D01*
X156871363Y-71373878D01*
X156714853Y-71309049D01*
X156548703Y-71276000D01*
X156379297Y-71276000D01*
X156213147Y-71309049D01*
X156056637Y-71373878D01*
X155915782Y-71467995D01*
X155795995Y-71587782D01*
X155701878Y-71728637D01*
X155637049Y-71885147D01*
X155604000Y-72051297D01*
X112420000Y-72051297D01*
X112420000Y-69628665D01*
X116675000Y-69628665D01*
X116675000Y-69911335D01*
X116730147Y-70188574D01*
X116838320Y-70449727D01*
X116995363Y-70684759D01*
X117195241Y-70884637D01*
X117430273Y-71041680D01*
X117691426Y-71149853D01*
X117968665Y-71205000D01*
X118251335Y-71205000D01*
X118528574Y-71149853D01*
X118789727Y-71041680D01*
X119024759Y-70884637D01*
X119224637Y-70684759D01*
X119381680Y-70449727D01*
X119489853Y-70188574D01*
X119545000Y-69911335D01*
X119545000Y-69628665D01*
X119489853Y-69351426D01*
X119381680Y-69090273D01*
X119224637Y-68855241D01*
X119024759Y-68655363D01*
X118789727Y-68498320D01*
X118528574Y-68390147D01*
X118251335Y-68335000D01*
X117968665Y-68335000D01*
X117691426Y-68390147D01*
X117430273Y-68498320D01*
X117195241Y-68655363D01*
X116995363Y-68855241D01*
X116838320Y-69090273D01*
X116730147Y-69351426D01*
X116675000Y-69628665D01*
X112420000Y-69628665D01*
X112420000Y-65762702D01*
X117296903Y-65762702D01*
X117368486Y-66006671D01*
X117623996Y-66127571D01*
X117898184Y-66196300D01*
X118180512Y-66210217D01*
X118460130Y-66168787D01*
X118726292Y-66073603D01*
X118851514Y-66006671D01*
X118923097Y-65762702D01*
X118110000Y-64949605D01*
X117296903Y-65762702D01*
X112420000Y-65762702D01*
X112420000Y-64840512D01*
X116669783Y-64840512D01*
X116711213Y-65120130D01*
X116806397Y-65386292D01*
X116873329Y-65511514D01*
X117117298Y-65583097D01*
X117930395Y-64770000D01*
X118289605Y-64770000D01*
X119102702Y-65583097D01*
X119346671Y-65511514D01*
X119467571Y-65256004D01*
X119536300Y-64981816D01*
X119550217Y-64699488D01*
X119508787Y-64419870D01*
X119413603Y-64153708D01*
X119346671Y-64028486D01*
X119102702Y-63956903D01*
X118289605Y-64770000D01*
X117930395Y-64770000D01*
X117117298Y-63956903D01*
X116873329Y-64028486D01*
X116752429Y-64283996D01*
X116683700Y-64558184D01*
X116669783Y-64840512D01*
X112420000Y-64840512D01*
X112420000Y-63777298D01*
X117296903Y-63777298D01*
X118110000Y-64590395D01*
X118923097Y-63777298D01*
X118851514Y-63533329D01*
X118596004Y-63412429D01*
X118321816Y-63343700D01*
X118039488Y-63329783D01*
X117759870Y-63371213D01*
X117493708Y-63466397D01*
X117368486Y-63533329D01*
X117296903Y-63777298D01*
X112420000Y-63777298D01*
X112420000Y-61887000D01*
X168741928Y-61887000D01*
X168754188Y-62011482D01*
X168790498Y-62131180D01*
X168849463Y-62241494D01*
X168928815Y-62338185D01*
X168945393Y-62351790D01*
X168908320Y-62407273D01*
X168800147Y-62668426D01*
X168745000Y-62945665D01*
X168745000Y-63228335D01*
X168800147Y-63505574D01*
X168908320Y-63766727D01*
X169065363Y-64001759D01*
X169265241Y-64201637D01*
X169500273Y-64358680D01*
X169761426Y-64466853D01*
X170038665Y-64522000D01*
X170321335Y-64522000D01*
X170598574Y-64466853D01*
X170859727Y-64358680D01*
X171094759Y-64201637D01*
X171294637Y-64001759D01*
X171451680Y-63766727D01*
X171559853Y-63505574D01*
X171615000Y-63228335D01*
X171615000Y-62945665D01*
X171559853Y-62668426D01*
X171451680Y-62407273D01*
X171414607Y-62351790D01*
X171431185Y-62338185D01*
X171510537Y-62241494D01*
X171569502Y-62131180D01*
X171605812Y-62011482D01*
X171618072Y-61887000D01*
X171615000Y-61372750D01*
X171456250Y-61214000D01*
X170307000Y-61214000D01*
X170307000Y-61234000D01*
X170053000Y-61234000D01*
X170053000Y-61214000D01*
X168903750Y-61214000D01*
X168745000Y-61372750D01*
X168741928Y-61887000D01*
X112420000Y-61887000D01*
X112420000Y-60039040D01*
X123068091Y-60039040D01*
X123162930Y-60303881D01*
X123307615Y-60545131D01*
X123496586Y-60753519D01*
X123722580Y-60921037D01*
X123976913Y-61041246D01*
X124110961Y-61081904D01*
X124333000Y-60959915D01*
X124333000Y-59817000D01*
X124587000Y-59817000D01*
X124587000Y-60959915D01*
X124809039Y-61081904D01*
X124943087Y-61041246D01*
X125197420Y-60921037D01*
X125423414Y-60753519D01*
X125612385Y-60545131D01*
X125730000Y-60349018D01*
X125847615Y-60545131D01*
X126036586Y-60753519D01*
X126262580Y-60921037D01*
X126516913Y-61041246D01*
X126650961Y-61081904D01*
X126873000Y-60959915D01*
X126873000Y-59817000D01*
X124587000Y-59817000D01*
X124333000Y-59817000D01*
X123189376Y-59817000D01*
X123068091Y-60039040D01*
X112420000Y-60039040D01*
X112420000Y-59340960D01*
X123068091Y-59340960D01*
X123189376Y-59563000D01*
X124333000Y-59563000D01*
X124333000Y-58420085D01*
X124587000Y-58420085D01*
X124587000Y-59563000D01*
X126873000Y-59563000D01*
X126873000Y-58420085D01*
X127127000Y-58420085D01*
X127127000Y-59563000D01*
X127147000Y-59563000D01*
X127147000Y-59817000D01*
X127127000Y-59817000D01*
X127127000Y-60959915D01*
X127349039Y-61081904D01*
X127483087Y-61041246D01*
X127737420Y-60921037D01*
X127963414Y-60753519D01*
X128152385Y-60545131D01*
X128267421Y-60353318D01*
X128341068Y-60491101D01*
X128520392Y-60709608D01*
X128738899Y-60888932D01*
X128988192Y-61022182D01*
X129258691Y-61104236D01*
X129469508Y-61125000D01*
X129610492Y-61125000D01*
X129821309Y-61104236D01*
X130091808Y-61022182D01*
X130341101Y-60888932D01*
X130559608Y-60709608D01*
X130738932Y-60491101D01*
X130810000Y-60358142D01*
X130881068Y-60491101D01*
X131060392Y-60709608D01*
X131278899Y-60888932D01*
X131528192Y-61022182D01*
X131798691Y-61104236D01*
X132009508Y-61125000D01*
X132150492Y-61125000D01*
X132361309Y-61104236D01*
X132631808Y-61022182D01*
X132881101Y-60888932D01*
X133099608Y-60709608D01*
X133278932Y-60491101D01*
X133350000Y-60358142D01*
X133421068Y-60491101D01*
X133600392Y-60709608D01*
X133818899Y-60888932D01*
X134068192Y-61022182D01*
X134338691Y-61104236D01*
X134549508Y-61125000D01*
X134690492Y-61125000D01*
X134901309Y-61104236D01*
X135171808Y-61022182D01*
X135421101Y-60888932D01*
X135639608Y-60709608D01*
X135818932Y-60491101D01*
X135890000Y-60358142D01*
X135961068Y-60491101D01*
X136140392Y-60709608D01*
X136358899Y-60888932D01*
X136608192Y-61022182D01*
X136878691Y-61104236D01*
X137089508Y-61125000D01*
X137230492Y-61125000D01*
X137441309Y-61104236D01*
X137711808Y-61022182D01*
X137961101Y-60888932D01*
X138179608Y-60709608D01*
X138358932Y-60491101D01*
X138430000Y-60358142D01*
X138501068Y-60491101D01*
X138680392Y-60709608D01*
X138898899Y-60888932D01*
X139148192Y-61022182D01*
X139418691Y-61104236D01*
X139629508Y-61125000D01*
X139770492Y-61125000D01*
X139981309Y-61104236D01*
X140251808Y-61022182D01*
X140501101Y-60888932D01*
X140719608Y-60709608D01*
X140898932Y-60491101D01*
X140970000Y-60358142D01*
X141041068Y-60491101D01*
X141220392Y-60709608D01*
X141438899Y-60888932D01*
X141688192Y-61022182D01*
X141958691Y-61104236D01*
X142169508Y-61125000D01*
X142310492Y-61125000D01*
X142521309Y-61104236D01*
X142791808Y-61022182D01*
X143041101Y-60888932D01*
X143259608Y-60709608D01*
X143438932Y-60491101D01*
X143510000Y-60358142D01*
X143581068Y-60491101D01*
X143760392Y-60709608D01*
X143978899Y-60888932D01*
X144228192Y-61022182D01*
X144498691Y-61104236D01*
X144709508Y-61125000D01*
X144850492Y-61125000D01*
X145061309Y-61104236D01*
X145331808Y-61022182D01*
X145581101Y-60888932D01*
X145799608Y-60709608D01*
X145978932Y-60491101D01*
X146050000Y-60358142D01*
X146121068Y-60491101D01*
X146300392Y-60709608D01*
X146518899Y-60888932D01*
X146768192Y-61022182D01*
X147038691Y-61104236D01*
X147249508Y-61125000D01*
X147390492Y-61125000D01*
X147601309Y-61104236D01*
X147871808Y-61022182D01*
X148121101Y-60888932D01*
X148339608Y-60709608D01*
X148518932Y-60491101D01*
X148590000Y-60358142D01*
X148661068Y-60491101D01*
X148840392Y-60709608D01*
X149058899Y-60888932D01*
X149308192Y-61022182D01*
X149578691Y-61104236D01*
X149789508Y-61125000D01*
X149930492Y-61125000D01*
X150141309Y-61104236D01*
X150411808Y-61022182D01*
X150661101Y-60888932D01*
X150879608Y-60709608D01*
X151058932Y-60491101D01*
X151130000Y-60358142D01*
X151201068Y-60491101D01*
X151380392Y-60709608D01*
X151598899Y-60888932D01*
X151848192Y-61022182D01*
X152118691Y-61104236D01*
X152329508Y-61125000D01*
X152470492Y-61125000D01*
X152681309Y-61104236D01*
X152951808Y-61022182D01*
X153201101Y-60888932D01*
X153419608Y-60709608D01*
X153598932Y-60491101D01*
X153670000Y-60358142D01*
X153741068Y-60491101D01*
X153920392Y-60709608D01*
X154138899Y-60888932D01*
X154388192Y-61022182D01*
X154658691Y-61104236D01*
X154869508Y-61125000D01*
X155010492Y-61125000D01*
X155221309Y-61104236D01*
X155491808Y-61022182D01*
X155741101Y-60888932D01*
X155959608Y-60709608D01*
X156138932Y-60491101D01*
X156210000Y-60358142D01*
X156281068Y-60491101D01*
X156460392Y-60709608D01*
X156678899Y-60888932D01*
X156928192Y-61022182D01*
X157198691Y-61104236D01*
X157409508Y-61125000D01*
X157550492Y-61125000D01*
X157761309Y-61104236D01*
X158031808Y-61022182D01*
X158281101Y-60888932D01*
X158499608Y-60709608D01*
X158678932Y-60491101D01*
X158750000Y-60358142D01*
X158821068Y-60491101D01*
X159000392Y-60709608D01*
X159218899Y-60888932D01*
X159468192Y-61022182D01*
X159738691Y-61104236D01*
X159949508Y-61125000D01*
X160090492Y-61125000D01*
X160301309Y-61104236D01*
X160571808Y-61022182D01*
X160821101Y-60888932D01*
X161039608Y-60709608D01*
X161218932Y-60491101D01*
X161290000Y-60358142D01*
X161361068Y-60491101D01*
X161540392Y-60709608D01*
X161758899Y-60888932D01*
X162008192Y-61022182D01*
X162278691Y-61104236D01*
X162489508Y-61125000D01*
X162630492Y-61125000D01*
X162841309Y-61104236D01*
X163111808Y-61022182D01*
X163361101Y-60888932D01*
X163579608Y-60709608D01*
X163758932Y-60491101D01*
X163868026Y-60287000D01*
X168741928Y-60287000D01*
X168745000Y-60801250D01*
X168903750Y-60960000D01*
X170053000Y-60960000D01*
X170053000Y-59810750D01*
X170307000Y-59810750D01*
X170307000Y-60960000D01*
X171456250Y-60960000D01*
X171615000Y-60801250D01*
X171618072Y-60287000D01*
X171605812Y-60162518D01*
X171569502Y-60042820D01*
X171510537Y-59932506D01*
X171431185Y-59835815D01*
X171334494Y-59756463D01*
X171224180Y-59697498D01*
X171104482Y-59661188D01*
X170980000Y-59648928D01*
X170465750Y-59652000D01*
X170307000Y-59810750D01*
X170053000Y-59810750D01*
X169894250Y-59652000D01*
X169380000Y-59648928D01*
X169255518Y-59661188D01*
X169135820Y-59697498D01*
X169025506Y-59756463D01*
X168928815Y-59835815D01*
X168849463Y-59932506D01*
X168790498Y-60042820D01*
X168754188Y-60162518D01*
X168741928Y-60287000D01*
X163868026Y-60287000D01*
X163892182Y-60241808D01*
X163974236Y-59971309D01*
X164001943Y-59690000D01*
X163974236Y-59408691D01*
X163892182Y-59138192D01*
X163758932Y-58888899D01*
X163579608Y-58670392D01*
X163361101Y-58491068D01*
X163111808Y-58357818D01*
X162841309Y-58275764D01*
X162630492Y-58255000D01*
X162489508Y-58255000D01*
X162278691Y-58275764D01*
X162008192Y-58357818D01*
X161758899Y-58491068D01*
X161540392Y-58670392D01*
X161361068Y-58888899D01*
X161290000Y-59021858D01*
X161218932Y-58888899D01*
X161039608Y-58670392D01*
X160821101Y-58491068D01*
X160571808Y-58357818D01*
X160301309Y-58275764D01*
X160090492Y-58255000D01*
X159949508Y-58255000D01*
X159738691Y-58275764D01*
X159468192Y-58357818D01*
X159218899Y-58491068D01*
X159000392Y-58670392D01*
X158821068Y-58888899D01*
X158750000Y-59021858D01*
X158678932Y-58888899D01*
X158499608Y-58670392D01*
X158281101Y-58491068D01*
X158031808Y-58357818D01*
X157761309Y-58275764D01*
X157550492Y-58255000D01*
X157409508Y-58255000D01*
X157198691Y-58275764D01*
X156928192Y-58357818D01*
X156678899Y-58491068D01*
X156460392Y-58670392D01*
X156281068Y-58888899D01*
X156210000Y-59021858D01*
X156138932Y-58888899D01*
X155959608Y-58670392D01*
X155741101Y-58491068D01*
X155491808Y-58357818D01*
X155221309Y-58275764D01*
X155010492Y-58255000D01*
X154869508Y-58255000D01*
X154658691Y-58275764D01*
X154388192Y-58357818D01*
X154138899Y-58491068D01*
X153920392Y-58670392D01*
X153741068Y-58888899D01*
X153670000Y-59021858D01*
X153598932Y-58888899D01*
X153419608Y-58670392D01*
X153201101Y-58491068D01*
X152951808Y-58357818D01*
X152681309Y-58275764D01*
X152470492Y-58255000D01*
X152329508Y-58255000D01*
X152118691Y-58275764D01*
X151848192Y-58357818D01*
X151598899Y-58491068D01*
X151380392Y-58670392D01*
X151201068Y-58888899D01*
X151130000Y-59021858D01*
X151058932Y-58888899D01*
X150879608Y-58670392D01*
X150661101Y-58491068D01*
X150411808Y-58357818D01*
X150141309Y-58275764D01*
X149930492Y-58255000D01*
X149789508Y-58255000D01*
X149578691Y-58275764D01*
X149308192Y-58357818D01*
X149058899Y-58491068D01*
X148840392Y-58670392D01*
X148661068Y-58888899D01*
X148590000Y-59021858D01*
X148518932Y-58888899D01*
X148339608Y-58670392D01*
X148121101Y-58491068D01*
X147871808Y-58357818D01*
X147601309Y-58275764D01*
X147390492Y-58255000D01*
X147249508Y-58255000D01*
X147038691Y-58275764D01*
X146768192Y-58357818D01*
X146518899Y-58491068D01*
X146300392Y-58670392D01*
X146121068Y-58888899D01*
X146050000Y-59021858D01*
X145978932Y-58888899D01*
X145799608Y-58670392D01*
X145581101Y-58491068D01*
X145331808Y-58357818D01*
X145061309Y-58275764D01*
X144850492Y-58255000D01*
X144709508Y-58255000D01*
X144498691Y-58275764D01*
X144228192Y-58357818D01*
X143978899Y-58491068D01*
X143760392Y-58670392D01*
X143581068Y-58888899D01*
X143510000Y-59021858D01*
X143438932Y-58888899D01*
X143259608Y-58670392D01*
X143041101Y-58491068D01*
X142791808Y-58357818D01*
X142521309Y-58275764D01*
X142310492Y-58255000D01*
X142169508Y-58255000D01*
X141958691Y-58275764D01*
X141688192Y-58357818D01*
X141438899Y-58491068D01*
X141220392Y-58670392D01*
X141041068Y-58888899D01*
X140970000Y-59021858D01*
X140898932Y-58888899D01*
X140719608Y-58670392D01*
X140501101Y-58491068D01*
X140251808Y-58357818D01*
X139981309Y-58275764D01*
X139770492Y-58255000D01*
X139629508Y-58255000D01*
X139418691Y-58275764D01*
X139148192Y-58357818D01*
X138898899Y-58491068D01*
X138680392Y-58670392D01*
X138501068Y-58888899D01*
X138430000Y-59021858D01*
X138358932Y-58888899D01*
X138179608Y-58670392D01*
X137961101Y-58491068D01*
X137711808Y-58357818D01*
X137441309Y-58275764D01*
X137230492Y-58255000D01*
X137089508Y-58255000D01*
X136878691Y-58275764D01*
X136608192Y-58357818D01*
X136358899Y-58491068D01*
X136140392Y-58670392D01*
X135961068Y-58888899D01*
X135890000Y-59021858D01*
X135818932Y-58888899D01*
X135639608Y-58670392D01*
X135421101Y-58491068D01*
X135171808Y-58357818D01*
X134901309Y-58275764D01*
X134690492Y-58255000D01*
X134549508Y-58255000D01*
X134338691Y-58275764D01*
X134068192Y-58357818D01*
X133818899Y-58491068D01*
X133600392Y-58670392D01*
X133421068Y-58888899D01*
X133350000Y-59021858D01*
X133278932Y-58888899D01*
X133099608Y-58670392D01*
X132881101Y-58491068D01*
X132631808Y-58357818D01*
X132361309Y-58275764D01*
X132150492Y-58255000D01*
X132009508Y-58255000D01*
X131798691Y-58275764D01*
X131528192Y-58357818D01*
X131278899Y-58491068D01*
X131060392Y-58670392D01*
X130881068Y-58888899D01*
X130810000Y-59021858D01*
X130738932Y-58888899D01*
X130559608Y-58670392D01*
X130341101Y-58491068D01*
X130091808Y-58357818D01*
X129821309Y-58275764D01*
X129610492Y-58255000D01*
X129469508Y-58255000D01*
X129258691Y-58275764D01*
X128988192Y-58357818D01*
X128738899Y-58491068D01*
X128520392Y-58670392D01*
X128341068Y-58888899D01*
X128267421Y-59026682D01*
X128152385Y-58834869D01*
X127963414Y-58626481D01*
X127737420Y-58458963D01*
X127483087Y-58338754D01*
X127349039Y-58298096D01*
X127127000Y-58420085D01*
X126873000Y-58420085D01*
X126650961Y-58298096D01*
X126516913Y-58338754D01*
X126262580Y-58458963D01*
X126036586Y-58626481D01*
X125847615Y-58834869D01*
X125730000Y-59030982D01*
X125612385Y-58834869D01*
X125423414Y-58626481D01*
X125197420Y-58458963D01*
X124943087Y-58338754D01*
X124809039Y-58298096D01*
X124587000Y-58420085D01*
X124333000Y-58420085D01*
X124110961Y-58298096D01*
X123976913Y-58338754D01*
X123722580Y-58458963D01*
X123496586Y-58626481D01*
X123307615Y-58834869D01*
X123162930Y-59076119D01*
X123068091Y-59340960D01*
X112420000Y-59340960D01*
X112420000Y-55880000D01*
X112807815Y-55880000D01*
X112836487Y-56171111D01*
X112921401Y-56451034D01*
X113059294Y-56709014D01*
X113244866Y-56935134D01*
X113470986Y-57120706D01*
X113728966Y-57258599D01*
X114008889Y-57343513D01*
X114227050Y-57365000D01*
X114372950Y-57365000D01*
X114591111Y-57343513D01*
X114871034Y-57258599D01*
X115129014Y-57120706D01*
X115355134Y-56935134D01*
X115540706Y-56709014D01*
X115570000Y-56654209D01*
X115599294Y-56709014D01*
X115784866Y-56935134D01*
X116010986Y-57120706D01*
X116268966Y-57258599D01*
X116548889Y-57343513D01*
X116767050Y-57365000D01*
X116912950Y-57365000D01*
X117131111Y-57343513D01*
X117411034Y-57258599D01*
X117669014Y-57120706D01*
X117895134Y-56935134D01*
X118080706Y-56709014D01*
X118110000Y-56654209D01*
X118139294Y-56709014D01*
X118324866Y-56935134D01*
X118550986Y-57120706D01*
X118808966Y-57258599D01*
X119088889Y-57343513D01*
X119307050Y-57365000D01*
X119452950Y-57365000D01*
X119671111Y-57343513D01*
X119951034Y-57258599D01*
X120209014Y-57120706D01*
X120435134Y-56935134D01*
X120620706Y-56709014D01*
X120650000Y-56654209D01*
X120679294Y-56709014D01*
X120864866Y-56935134D01*
X121090986Y-57120706D01*
X121348966Y-57258599D01*
X121628889Y-57343513D01*
X121847050Y-57365000D01*
X121992950Y-57365000D01*
X122211111Y-57343513D01*
X122491034Y-57258599D01*
X122749014Y-57120706D01*
X122975134Y-56935134D01*
X123160706Y-56709014D01*
X123190000Y-56654209D01*
X123219294Y-56709014D01*
X123404866Y-56935134D01*
X123630986Y-57120706D01*
X123888966Y-57258599D01*
X124168889Y-57343513D01*
X124387050Y-57365000D01*
X124532950Y-57365000D01*
X124751111Y-57343513D01*
X125031034Y-57258599D01*
X125289014Y-57120706D01*
X125515134Y-56935134D01*
X125700706Y-56709014D01*
X125730000Y-56654209D01*
X125759294Y-56709014D01*
X125944866Y-56935134D01*
X126170986Y-57120706D01*
X126428966Y-57258599D01*
X126708889Y-57343513D01*
X126927050Y-57365000D01*
X127072950Y-57365000D01*
X127291111Y-57343513D01*
X127571034Y-57258599D01*
X127829014Y-57120706D01*
X128055134Y-56935134D01*
X128240706Y-56709014D01*
X128270000Y-56654209D01*
X128299294Y-56709014D01*
X128484866Y-56935134D01*
X128710986Y-57120706D01*
X128968966Y-57258599D01*
X129248889Y-57343513D01*
X129467050Y-57365000D01*
X129612950Y-57365000D01*
X129831111Y-57343513D01*
X130111034Y-57258599D01*
X130369014Y-57120706D01*
X130595134Y-56935134D01*
X130780706Y-56709014D01*
X130810000Y-56654209D01*
X130839294Y-56709014D01*
X131024866Y-56935134D01*
X131250986Y-57120706D01*
X131508966Y-57258599D01*
X131788889Y-57343513D01*
X132007050Y-57365000D01*
X132152950Y-57365000D01*
X132371111Y-57343513D01*
X132651034Y-57258599D01*
X132909014Y-57120706D01*
X133135134Y-56935134D01*
X133159607Y-56905313D01*
X133180498Y-56974180D01*
X133239463Y-57084494D01*
X133318815Y-57181185D01*
X133415506Y-57260537D01*
X133525820Y-57319502D01*
X133645518Y-57355812D01*
X133770000Y-57368072D01*
X135470000Y-57368072D01*
X135594482Y-57355812D01*
X135714180Y-57319502D01*
X135824494Y-57260537D01*
X135921185Y-57181185D01*
X136000537Y-57084494D01*
X136059502Y-56974180D01*
X136095812Y-56854482D01*
X136100065Y-56811297D01*
X136300000Y-56811297D01*
X136300000Y-56980703D01*
X136333049Y-57146853D01*
X136397878Y-57303363D01*
X136491995Y-57444218D01*
X136611782Y-57564005D01*
X136752637Y-57658122D01*
X136909147Y-57722951D01*
X137075297Y-57756000D01*
X137244703Y-57756000D01*
X137410853Y-57722951D01*
X137567363Y-57658122D01*
X137708218Y-57564005D01*
X137828005Y-57444218D01*
X137922122Y-57303363D01*
X137986951Y-57146853D01*
X138003173Y-57065297D01*
X138840000Y-57065297D01*
X138840000Y-57234703D01*
X138873049Y-57400853D01*
X138937878Y-57557363D01*
X139031995Y-57698218D01*
X139151782Y-57818005D01*
X139292637Y-57912122D01*
X139449147Y-57976951D01*
X139615297Y-58010000D01*
X139784703Y-58010000D01*
X139950853Y-57976951D01*
X140107363Y-57912122D01*
X140248218Y-57818005D01*
X140368005Y-57698218D01*
X140462122Y-57557363D01*
X140526951Y-57400853D01*
X140560000Y-57234703D01*
X140560000Y-57065297D01*
X140526951Y-56899147D01*
X140462122Y-56742637D01*
X140368005Y-56601782D01*
X140248218Y-56481995D01*
X140107363Y-56387878D01*
X139950853Y-56323049D01*
X139784703Y-56290000D01*
X139615297Y-56290000D01*
X139449147Y-56323049D01*
X139292637Y-56387878D01*
X139151782Y-56481995D01*
X139031995Y-56601782D01*
X138937878Y-56742637D01*
X138873049Y-56899147D01*
X138840000Y-57065297D01*
X138003173Y-57065297D01*
X138020000Y-56980703D01*
X138020000Y-56811297D01*
X137986951Y-56645147D01*
X137922122Y-56488637D01*
X137828005Y-56347782D01*
X137708218Y-56227995D01*
X137567363Y-56133878D01*
X137410853Y-56069049D01*
X137244703Y-56036000D01*
X137075297Y-56036000D01*
X136909147Y-56069049D01*
X136752637Y-56133878D01*
X136611782Y-56227995D01*
X136491995Y-56347782D01*
X136397878Y-56488637D01*
X136333049Y-56645147D01*
X136300000Y-56811297D01*
X136100065Y-56811297D01*
X136108072Y-56730000D01*
X136108072Y-55880000D01*
X148367815Y-55880000D01*
X148396487Y-56171111D01*
X148481401Y-56451034D01*
X148619294Y-56709014D01*
X148804866Y-56935134D01*
X149030986Y-57120706D01*
X149288966Y-57258599D01*
X149568889Y-57343513D01*
X149787050Y-57365000D01*
X149932950Y-57365000D01*
X150151111Y-57343513D01*
X150431034Y-57258599D01*
X150689014Y-57120706D01*
X150915134Y-56935134D01*
X151100706Y-56709014D01*
X151130000Y-56654209D01*
X151159294Y-56709014D01*
X151344866Y-56935134D01*
X151570986Y-57120706D01*
X151828966Y-57258599D01*
X152108889Y-57343513D01*
X152327050Y-57365000D01*
X152472950Y-57365000D01*
X152691111Y-57343513D01*
X152971034Y-57258599D01*
X153229014Y-57120706D01*
X153455134Y-56935134D01*
X153640706Y-56709014D01*
X153670000Y-56654209D01*
X153699294Y-56709014D01*
X153884866Y-56935134D01*
X154110986Y-57120706D01*
X154368966Y-57258599D01*
X154648889Y-57343513D01*
X154867050Y-57365000D01*
X155012950Y-57365000D01*
X155231111Y-57343513D01*
X155511034Y-57258599D01*
X155769014Y-57120706D01*
X155995134Y-56935134D01*
X156180706Y-56709014D01*
X156210000Y-56654209D01*
X156239294Y-56709014D01*
X156424866Y-56935134D01*
X156650986Y-57120706D01*
X156908966Y-57258599D01*
X157188889Y-57343513D01*
X157407050Y-57365000D01*
X157552950Y-57365000D01*
X157771111Y-57343513D01*
X158051034Y-57258599D01*
X158309014Y-57120706D01*
X158535134Y-56935134D01*
X158720706Y-56709014D01*
X158750000Y-56654209D01*
X158779294Y-56709014D01*
X158964866Y-56935134D01*
X159190986Y-57120706D01*
X159448966Y-57258599D01*
X159728889Y-57343513D01*
X159947050Y-57365000D01*
X160092950Y-57365000D01*
X160311111Y-57343513D01*
X160591034Y-57258599D01*
X160849014Y-57120706D01*
X161075134Y-56935134D01*
X161260706Y-56709014D01*
X161290000Y-56654209D01*
X161319294Y-56709014D01*
X161504866Y-56935134D01*
X161730986Y-57120706D01*
X161988966Y-57258599D01*
X162268889Y-57343513D01*
X162487050Y-57365000D01*
X162632950Y-57365000D01*
X162851111Y-57343513D01*
X163131034Y-57258599D01*
X163389014Y-57120706D01*
X163615134Y-56935134D01*
X163800706Y-56709014D01*
X163830000Y-56654209D01*
X163859294Y-56709014D01*
X164044866Y-56935134D01*
X164270986Y-57120706D01*
X164528966Y-57258599D01*
X164808889Y-57343513D01*
X165027050Y-57365000D01*
X165172950Y-57365000D01*
X165391111Y-57343513D01*
X165671034Y-57258599D01*
X165929014Y-57120706D01*
X166155134Y-56935134D01*
X166340706Y-56709014D01*
X166370000Y-56654209D01*
X166399294Y-56709014D01*
X166584866Y-56935134D01*
X166810986Y-57120706D01*
X167068966Y-57258599D01*
X167348889Y-57343513D01*
X167567050Y-57365000D01*
X167712950Y-57365000D01*
X167931111Y-57343513D01*
X168211034Y-57258599D01*
X168469014Y-57120706D01*
X168695134Y-56935134D01*
X168719607Y-56905313D01*
X168740498Y-56974180D01*
X168799463Y-57084494D01*
X168878815Y-57181185D01*
X168975506Y-57260537D01*
X169085820Y-57319502D01*
X169205518Y-57355812D01*
X169330000Y-57368072D01*
X169894250Y-57365000D01*
X170053000Y-57206250D01*
X170053000Y-56007000D01*
X170307000Y-56007000D01*
X170307000Y-57206250D01*
X170465750Y-57365000D01*
X171030000Y-57368072D01*
X171154482Y-57355812D01*
X171274180Y-57319502D01*
X171384494Y-57260537D01*
X171481185Y-57181185D01*
X171560537Y-57084494D01*
X171619502Y-56974180D01*
X171655812Y-56854482D01*
X171668072Y-56730000D01*
X171665000Y-56165750D01*
X171506250Y-56007000D01*
X170307000Y-56007000D01*
X170053000Y-56007000D01*
X170033000Y-56007000D01*
X170033000Y-55753000D01*
X170053000Y-55753000D01*
X170053000Y-54553750D01*
X170307000Y-54553750D01*
X170307000Y-55753000D01*
X171506250Y-55753000D01*
X171665000Y-55594250D01*
X171668072Y-55030000D01*
X171655812Y-54905518D01*
X171619502Y-54785820D01*
X171560537Y-54675506D01*
X171481185Y-54578815D01*
X171384494Y-54499463D01*
X171274180Y-54440498D01*
X171154482Y-54404188D01*
X171030000Y-54391928D01*
X170465750Y-54395000D01*
X170307000Y-54553750D01*
X170053000Y-54553750D01*
X169894250Y-54395000D01*
X169330000Y-54391928D01*
X169205518Y-54404188D01*
X169085820Y-54440498D01*
X168975506Y-54499463D01*
X168878815Y-54578815D01*
X168799463Y-54675506D01*
X168740498Y-54785820D01*
X168719607Y-54854687D01*
X168695134Y-54824866D01*
X168469014Y-54639294D01*
X168211034Y-54501401D01*
X167931111Y-54416487D01*
X167712950Y-54395000D01*
X167567050Y-54395000D01*
X167348889Y-54416487D01*
X167068966Y-54501401D01*
X166810986Y-54639294D01*
X166584866Y-54824866D01*
X166399294Y-55050986D01*
X166370000Y-55105791D01*
X166340706Y-55050986D01*
X166155134Y-54824866D01*
X165929014Y-54639294D01*
X165671034Y-54501401D01*
X165391111Y-54416487D01*
X165172950Y-54395000D01*
X165027050Y-54395000D01*
X164808889Y-54416487D01*
X164528966Y-54501401D01*
X164270986Y-54639294D01*
X164044866Y-54824866D01*
X163859294Y-55050986D01*
X163830000Y-55105791D01*
X163800706Y-55050986D01*
X163615134Y-54824866D01*
X163389014Y-54639294D01*
X163131034Y-54501401D01*
X162851111Y-54416487D01*
X162632950Y-54395000D01*
X162487050Y-54395000D01*
X162268889Y-54416487D01*
X161988966Y-54501401D01*
X161730986Y-54639294D01*
X161504866Y-54824866D01*
X161319294Y-55050986D01*
X161290000Y-55105791D01*
X161260706Y-55050986D01*
X161075134Y-54824866D01*
X160849014Y-54639294D01*
X160591034Y-54501401D01*
X160311111Y-54416487D01*
X160092950Y-54395000D01*
X159947050Y-54395000D01*
X159728889Y-54416487D01*
X159448966Y-54501401D01*
X159190986Y-54639294D01*
X158964866Y-54824866D01*
X158779294Y-55050986D01*
X158750000Y-55105791D01*
X158720706Y-55050986D01*
X158535134Y-54824866D01*
X158309014Y-54639294D01*
X158051034Y-54501401D01*
X157771111Y-54416487D01*
X157552950Y-54395000D01*
X157407050Y-54395000D01*
X157188889Y-54416487D01*
X156908966Y-54501401D01*
X156650986Y-54639294D01*
X156424866Y-54824866D01*
X156239294Y-55050986D01*
X156210000Y-55105791D01*
X156180706Y-55050986D01*
X155995134Y-54824866D01*
X155769014Y-54639294D01*
X155511034Y-54501401D01*
X155231111Y-54416487D01*
X155012950Y-54395000D01*
X154867050Y-54395000D01*
X154648889Y-54416487D01*
X154368966Y-54501401D01*
X154110986Y-54639294D01*
X153884866Y-54824866D01*
X153699294Y-55050986D01*
X153670000Y-55105791D01*
X153640706Y-55050986D01*
X153455134Y-54824866D01*
X153229014Y-54639294D01*
X152971034Y-54501401D01*
X152691111Y-54416487D01*
X152472950Y-54395000D01*
X152327050Y-54395000D01*
X152108889Y-54416487D01*
X151828966Y-54501401D01*
X151570986Y-54639294D01*
X151344866Y-54824866D01*
X151159294Y-55050986D01*
X151130000Y-55105791D01*
X151100706Y-55050986D01*
X150915134Y-54824866D01*
X150689014Y-54639294D01*
X150431034Y-54501401D01*
X150151111Y-54416487D01*
X149932950Y-54395000D01*
X149787050Y-54395000D01*
X149568889Y-54416487D01*
X149288966Y-54501401D01*
X149030986Y-54639294D01*
X148804866Y-54824866D01*
X148619294Y-55050986D01*
X148481401Y-55308966D01*
X148396487Y-55588889D01*
X148367815Y-55880000D01*
X136108072Y-55880000D01*
X136108072Y-55030000D01*
X136095812Y-54905518D01*
X136059502Y-54785820D01*
X136000537Y-54675506D01*
X135921185Y-54578815D01*
X135824494Y-54499463D01*
X135714180Y-54440498D01*
X135594482Y-54404188D01*
X135470000Y-54391928D01*
X133770000Y-54391928D01*
X133645518Y-54404188D01*
X133525820Y-54440498D01*
X133415506Y-54499463D01*
X133318815Y-54578815D01*
X133239463Y-54675506D01*
X133180498Y-54785820D01*
X133159607Y-54854687D01*
X133135134Y-54824866D01*
X132909014Y-54639294D01*
X132651034Y-54501401D01*
X132371111Y-54416487D01*
X132152950Y-54395000D01*
X132007050Y-54395000D01*
X131788889Y-54416487D01*
X131508966Y-54501401D01*
X131250986Y-54639294D01*
X131024866Y-54824866D01*
X130839294Y-55050986D01*
X130810000Y-55105791D01*
X130780706Y-55050986D01*
X130595134Y-54824866D01*
X130369014Y-54639294D01*
X130111034Y-54501401D01*
X129831111Y-54416487D01*
X129612950Y-54395000D01*
X129467050Y-54395000D01*
X129248889Y-54416487D01*
X128968966Y-54501401D01*
X128710986Y-54639294D01*
X128484866Y-54824866D01*
X128299294Y-55050986D01*
X128270000Y-55105791D01*
X128240706Y-55050986D01*
X128055134Y-54824866D01*
X127829014Y-54639294D01*
X127571034Y-54501401D01*
X127291111Y-54416487D01*
X127072950Y-54395000D01*
X126927050Y-54395000D01*
X126708889Y-54416487D01*
X126428966Y-54501401D01*
X126170986Y-54639294D01*
X125944866Y-54824866D01*
X125759294Y-55050986D01*
X125730000Y-55105791D01*
X125700706Y-55050986D01*
X125515134Y-54824866D01*
X125289014Y-54639294D01*
X125031034Y-54501401D01*
X124751111Y-54416487D01*
X124532950Y-54395000D01*
X124387050Y-54395000D01*
X124168889Y-54416487D01*
X123888966Y-54501401D01*
X123630986Y-54639294D01*
X123404866Y-54824866D01*
X123219294Y-55050986D01*
X123190000Y-55105791D01*
X123160706Y-55050986D01*
X122975134Y-54824866D01*
X122749014Y-54639294D01*
X122491034Y-54501401D01*
X122211111Y-54416487D01*
X121992950Y-54395000D01*
X121847050Y-54395000D01*
X121628889Y-54416487D01*
X121348966Y-54501401D01*
X121090986Y-54639294D01*
X120864866Y-54824866D01*
X120679294Y-55050986D01*
X120650000Y-55105791D01*
X120620706Y-55050986D01*
X120435134Y-54824866D01*
X120209014Y-54639294D01*
X119951034Y-54501401D01*
X119671111Y-54416487D01*
X119452950Y-54395000D01*
X119307050Y-54395000D01*
X119088889Y-54416487D01*
X118808966Y-54501401D01*
X118550986Y-54639294D01*
X118324866Y-54824866D01*
X118139294Y-55050986D01*
X118110000Y-55105791D01*
X118080706Y-55050986D01*
X117895134Y-54824866D01*
X117669014Y-54639294D01*
X117411034Y-54501401D01*
X117131111Y-54416487D01*
X116912950Y-54395000D01*
X116767050Y-54395000D01*
X116548889Y-54416487D01*
X116268966Y-54501401D01*
X116010986Y-54639294D01*
X115784866Y-54824866D01*
X115599294Y-55050986D01*
X115570000Y-55105791D01*
X115540706Y-55050986D01*
X115355134Y-54824866D01*
X115129014Y-54639294D01*
X114871034Y-54501401D01*
X114591111Y-54416487D01*
X114372950Y-54395000D01*
X114227050Y-54395000D01*
X114008889Y-54416487D01*
X113728966Y-54501401D01*
X113470986Y-54639294D01*
X113244866Y-54824866D01*
X113059294Y-55050986D01*
X112921401Y-55308966D01*
X112836487Y-55588889D01*
X112807815Y-55880000D01*
X112420000Y-55880000D01*
X112420000Y-54642279D01*
X112434722Y-54492131D01*
X112468953Y-54378754D01*
X112524555Y-54274181D01*
X112599407Y-54182404D01*
X112690664Y-54106909D01*
X112794844Y-54050581D01*
X112907976Y-54015560D01*
X113056022Y-54000000D01*
X172687721Y-54000000D01*
X172837869Y-54014722D01*
M02*
