G04 #@! TF.GenerationSoftware,KiCad,Pcbnew,(5.1.0-0)*
G04 #@! TF.CreationDate,2019-10-09T19:55:59-07:00*
G04 #@! TF.ProjectId,MainBoard,4d61696e-426f-4617-9264-2e6b69636164,rev?*
G04 #@! TF.SameCoordinates,Original*
G04 #@! TF.FileFunction,Soldermask,Top*
G04 #@! TF.FilePolarity,Negative*
%FSLAX46Y46*%
G04 Gerber Fmt 4.6, Leading zero omitted, Abs format (unit mm)*
G04 Created by KiCad (PCBNEW (5.1.0-0)) date 2019-10-09 19:55:59*
%MOMM*%
%LPD*%
G04 APERTURE LIST*
%ADD10C,2.500000*%
%ADD11R,2.500000X2.500000*%
%ADD12C,6.400000*%
%ADD13O,1.600000X1.600000*%
%ADD14R,1.600000X1.600000*%
%ADD15C,1.600000*%
%ADD16O,1.700000X1.700000*%
%ADD17R,1.700000X1.700000*%
%ADD18R,1.300000X1.300000*%
%ADD19C,1.300000*%
%ADD20C,2.000000*%
%ADD21C,1.620000*%
%ADD22C,1.800000*%
%ADD23R,1.800000X1.800000*%
G04 APERTURE END LIST*
D10*
X274828000Y-192960000D03*
D11*
X274828000Y-187960000D03*
D12*
X274320000Y-264160000D03*
X274320000Y-27940000D03*
X49530000Y-264160000D03*
X49530000Y-27940000D03*
D13*
X86360000Y-104140000D03*
X78740000Y-119380000D03*
X86360000Y-106680000D03*
X78740000Y-116840000D03*
X86360000Y-109220000D03*
X78740000Y-114300000D03*
X86360000Y-111760000D03*
X78740000Y-111760000D03*
X86360000Y-114300000D03*
X78740000Y-109220000D03*
X86360000Y-116840000D03*
X78740000Y-106680000D03*
X86360000Y-119380000D03*
D14*
X78740000Y-104140000D03*
D13*
X73660000Y-104140000D03*
X66040000Y-119380000D03*
X73660000Y-106680000D03*
X66040000Y-116840000D03*
X73660000Y-109220000D03*
X66040000Y-114300000D03*
X73660000Y-111760000D03*
X66040000Y-111760000D03*
X73660000Y-114300000D03*
X66040000Y-109220000D03*
X73660000Y-116840000D03*
X66040000Y-106680000D03*
X73660000Y-119380000D03*
D14*
X66040000Y-104140000D03*
D13*
X256540000Y-124460000D03*
X274320000Y-132080000D03*
X259080000Y-124460000D03*
X271780000Y-132080000D03*
X261620000Y-124460000D03*
X269240000Y-132080000D03*
X264160000Y-124460000D03*
X266700000Y-132080000D03*
X266700000Y-124460000D03*
X264160000Y-132080000D03*
X269240000Y-124460000D03*
X261620000Y-132080000D03*
X271780000Y-124460000D03*
X259080000Y-132080000D03*
X274320000Y-124460000D03*
D14*
X256540000Y-132080000D03*
D15*
X168910000Y-100410000D03*
X168910000Y-105410000D03*
X250190000Y-130730000D03*
X250190000Y-125730000D03*
D16*
X205740000Y-68580000D03*
X205740000Y-71120000D03*
X208280000Y-68580000D03*
X208280000Y-71120000D03*
X210820000Y-68580000D03*
X210820000Y-71120000D03*
X213360000Y-68580000D03*
X213360000Y-71120000D03*
X215900000Y-68580000D03*
X215900000Y-71120000D03*
X218440000Y-68580000D03*
X218440000Y-71120000D03*
X220980000Y-68580000D03*
X220980000Y-71120000D03*
X223520000Y-68580000D03*
X223520000Y-71120000D03*
X226060000Y-68580000D03*
X226060000Y-71120000D03*
X228600000Y-68580000D03*
X228600000Y-71120000D03*
X231140000Y-68580000D03*
X231140000Y-71120000D03*
X233680000Y-68580000D03*
X233680000Y-71120000D03*
X236220000Y-68580000D03*
X236220000Y-71120000D03*
X238760000Y-68580000D03*
X238760000Y-71120000D03*
X241300000Y-68580000D03*
X241300000Y-71120000D03*
X243840000Y-68580000D03*
X243840000Y-71120000D03*
X246380000Y-68580000D03*
X246380000Y-71120000D03*
X248920000Y-68580000D03*
X248920000Y-71120000D03*
X251460000Y-68580000D03*
X251460000Y-71120000D03*
X254000000Y-68580000D03*
D17*
X254000000Y-71120000D03*
D16*
X205740000Y-99060000D03*
X205740000Y-101600000D03*
X208280000Y-99060000D03*
X208280000Y-101600000D03*
X210820000Y-99060000D03*
X210820000Y-101600000D03*
X213360000Y-99060000D03*
X213360000Y-101600000D03*
X215900000Y-99060000D03*
X215900000Y-101600000D03*
X218440000Y-99060000D03*
X218440000Y-101600000D03*
X220980000Y-99060000D03*
X220980000Y-101600000D03*
X223520000Y-99060000D03*
X223520000Y-101600000D03*
X226060000Y-99060000D03*
X226060000Y-101600000D03*
X228600000Y-99060000D03*
X228600000Y-101600000D03*
X231140000Y-99060000D03*
X231140000Y-101600000D03*
X233680000Y-99060000D03*
X233680000Y-101600000D03*
X236220000Y-99060000D03*
X236220000Y-101600000D03*
X238760000Y-99060000D03*
X238760000Y-101600000D03*
X241300000Y-99060000D03*
X241300000Y-101600000D03*
X243840000Y-99060000D03*
X243840000Y-101600000D03*
X246380000Y-99060000D03*
X246380000Y-101600000D03*
X248920000Y-99060000D03*
X248920000Y-101600000D03*
X251460000Y-99060000D03*
X251460000Y-101600000D03*
X254000000Y-99060000D03*
D17*
X254000000Y-101600000D03*
D16*
X205740000Y-38100000D03*
X205740000Y-40640000D03*
X208280000Y-38100000D03*
X208280000Y-40640000D03*
X210820000Y-38100000D03*
X210820000Y-40640000D03*
X213360000Y-38100000D03*
X213360000Y-40640000D03*
X215900000Y-38100000D03*
X215900000Y-40640000D03*
X218440000Y-38100000D03*
X218440000Y-40640000D03*
X220980000Y-38100000D03*
X220980000Y-40640000D03*
X223520000Y-38100000D03*
X223520000Y-40640000D03*
X226060000Y-38100000D03*
X226060000Y-40640000D03*
X228600000Y-38100000D03*
X228600000Y-40640000D03*
X231140000Y-38100000D03*
X231140000Y-40640000D03*
X233680000Y-38100000D03*
X233680000Y-40640000D03*
X236220000Y-38100000D03*
X236220000Y-40640000D03*
X238760000Y-38100000D03*
X238760000Y-40640000D03*
X241300000Y-38100000D03*
X241300000Y-40640000D03*
X243840000Y-38100000D03*
X243840000Y-40640000D03*
X246380000Y-38100000D03*
X246380000Y-40640000D03*
X248920000Y-38100000D03*
X248920000Y-40640000D03*
X251460000Y-38100000D03*
X251460000Y-40640000D03*
X254000000Y-38100000D03*
D17*
X254000000Y-40640000D03*
D16*
X205740000Y-114300000D03*
X205740000Y-116840000D03*
X208280000Y-114300000D03*
X208280000Y-116840000D03*
X210820000Y-114300000D03*
X210820000Y-116840000D03*
X213360000Y-114300000D03*
X213360000Y-116840000D03*
X215900000Y-114300000D03*
X215900000Y-116840000D03*
X218440000Y-114300000D03*
X218440000Y-116840000D03*
X220980000Y-114300000D03*
X220980000Y-116840000D03*
X223520000Y-114300000D03*
X223520000Y-116840000D03*
X226060000Y-114300000D03*
X226060000Y-116840000D03*
X228600000Y-114300000D03*
X228600000Y-116840000D03*
X231140000Y-114300000D03*
X231140000Y-116840000D03*
X233680000Y-114300000D03*
X233680000Y-116840000D03*
X236220000Y-114300000D03*
X236220000Y-116840000D03*
X238760000Y-114300000D03*
X238760000Y-116840000D03*
X241300000Y-114300000D03*
X241300000Y-116840000D03*
X243840000Y-114300000D03*
X243840000Y-116840000D03*
X246380000Y-114300000D03*
X246380000Y-116840000D03*
X248920000Y-114300000D03*
X248920000Y-116840000D03*
X251460000Y-114300000D03*
X251460000Y-116840000D03*
X254000000Y-114300000D03*
D17*
X254000000Y-116840000D03*
D16*
X205740000Y-83820000D03*
X205740000Y-86360000D03*
X208280000Y-83820000D03*
X208280000Y-86360000D03*
X210820000Y-83820000D03*
X210820000Y-86360000D03*
X213360000Y-83820000D03*
X213360000Y-86360000D03*
X215900000Y-83820000D03*
X215900000Y-86360000D03*
X218440000Y-83820000D03*
X218440000Y-86360000D03*
X220980000Y-83820000D03*
X220980000Y-86360000D03*
X223520000Y-83820000D03*
X223520000Y-86360000D03*
X226060000Y-83820000D03*
X226060000Y-86360000D03*
X228600000Y-83820000D03*
X228600000Y-86360000D03*
X231140000Y-83820000D03*
X231140000Y-86360000D03*
X233680000Y-83820000D03*
X233680000Y-86360000D03*
X236220000Y-83820000D03*
X236220000Y-86360000D03*
X238760000Y-83820000D03*
X238760000Y-86360000D03*
X241300000Y-83820000D03*
X241300000Y-86360000D03*
X243840000Y-83820000D03*
X243840000Y-86360000D03*
X246380000Y-83820000D03*
X246380000Y-86360000D03*
X248920000Y-83820000D03*
X248920000Y-86360000D03*
X251460000Y-83820000D03*
X251460000Y-86360000D03*
X254000000Y-83820000D03*
D17*
X254000000Y-86360000D03*
D16*
X205740000Y-53340000D03*
X205740000Y-55880000D03*
X208280000Y-53340000D03*
X208280000Y-55880000D03*
X210820000Y-53340000D03*
X210820000Y-55880000D03*
X213360000Y-53340000D03*
X213360000Y-55880000D03*
X215900000Y-53340000D03*
X215900000Y-55880000D03*
X218440000Y-53340000D03*
X218440000Y-55880000D03*
X220980000Y-53340000D03*
X220980000Y-55880000D03*
X223520000Y-53340000D03*
X223520000Y-55880000D03*
X226060000Y-53340000D03*
X226060000Y-55880000D03*
X228600000Y-53340000D03*
X228600000Y-55880000D03*
X231140000Y-53340000D03*
X231140000Y-55880000D03*
X233680000Y-53340000D03*
X233680000Y-55880000D03*
X236220000Y-53340000D03*
X236220000Y-55880000D03*
X238760000Y-53340000D03*
X238760000Y-55880000D03*
X241300000Y-53340000D03*
X241300000Y-55880000D03*
X243840000Y-53340000D03*
X243840000Y-55880000D03*
X246380000Y-53340000D03*
X246380000Y-55880000D03*
X248920000Y-53340000D03*
X248920000Y-55880000D03*
X251460000Y-53340000D03*
X251460000Y-55880000D03*
X254000000Y-53340000D03*
D17*
X254000000Y-55880000D03*
D13*
X81280000Y-182875800D03*
X58420000Y-175255800D03*
X78740000Y-182875800D03*
X60960000Y-175255800D03*
X76200000Y-182875800D03*
X63500000Y-175255800D03*
X73660000Y-182875800D03*
X66040000Y-175255800D03*
X71120000Y-182875800D03*
X68580000Y-175255800D03*
X68580000Y-182875800D03*
X71120000Y-175255800D03*
X66040000Y-182875800D03*
X73660000Y-175255800D03*
X63500000Y-182875800D03*
X76200000Y-175255800D03*
X60960000Y-182875800D03*
X78740000Y-175255800D03*
X58420000Y-182875800D03*
D14*
X81280000Y-175255800D03*
D15*
X247730000Y-167640000D03*
X252730000Y-167640000D03*
X264160000Y-213360000D03*
X264160000Y-205740000D03*
X248920000Y-205740000D03*
D14*
X248920000Y-213360000D03*
D13*
X261620000Y-189230000D03*
D15*
X254000000Y-189230000D03*
D13*
X256540000Y-168910000D03*
D15*
X264160000Y-168910000D03*
D13*
X275590000Y-180340000D03*
D15*
X267970000Y-180340000D03*
X261540000Y-175260000D03*
X256540000Y-175260000D03*
X261540000Y-181610000D03*
X256540000Y-181610000D03*
D13*
X196850000Y-173990000D03*
D15*
X204470000Y-173990000D03*
D13*
X204470000Y-167640000D03*
D15*
X196850000Y-167640000D03*
X203120000Y-189230000D03*
X198120000Y-189230000D03*
X201390000Y-181610000D03*
D14*
X199390000Y-181610000D03*
D13*
X162560000Y-38100000D03*
X139700000Y-30480000D03*
X160020000Y-38100000D03*
X142240000Y-30480000D03*
X157480000Y-38100000D03*
X144780000Y-30480000D03*
X154940000Y-38100000D03*
X147320000Y-30480000D03*
X152400000Y-38100000D03*
X149860000Y-30480000D03*
X149860000Y-38100000D03*
X152400000Y-30480000D03*
X147320000Y-38100000D03*
X154940000Y-30480000D03*
X144780000Y-38100000D03*
X157480000Y-30480000D03*
X142240000Y-38100000D03*
X160020000Y-30480000D03*
X139700000Y-38100000D03*
D14*
X162560000Y-30480000D03*
D13*
X55880000Y-154940000D03*
X93980000Y-170180000D03*
X58420000Y-154940000D03*
X91440000Y-170180000D03*
X60960000Y-154940000D03*
X88900000Y-170180000D03*
X63500000Y-154940000D03*
X86360000Y-170180000D03*
X66040000Y-154940000D03*
X83820000Y-170180000D03*
X68580000Y-154940000D03*
X81280000Y-170180000D03*
X71120000Y-154940000D03*
X78740000Y-170180000D03*
X73660000Y-154940000D03*
X76200000Y-170180000D03*
X76200000Y-154940000D03*
X73660000Y-170180000D03*
X78740000Y-154940000D03*
X71120000Y-170180000D03*
X81280000Y-154940000D03*
X68580000Y-170180000D03*
X83820000Y-154940000D03*
X66040000Y-170180000D03*
X86360000Y-154940000D03*
X63500000Y-170180000D03*
X88900000Y-154940000D03*
X60960000Y-170180000D03*
X91440000Y-154940000D03*
X58420000Y-170180000D03*
X93980000Y-154940000D03*
D14*
X55880000Y-170180000D03*
D13*
X127000000Y-38100000D03*
X104140000Y-30480000D03*
X124460000Y-38100000D03*
X106680000Y-30480000D03*
X121920000Y-38100000D03*
X109220000Y-30480000D03*
X119380000Y-38100000D03*
X111760000Y-30480000D03*
X116840000Y-38100000D03*
X114300000Y-30480000D03*
X114300000Y-38100000D03*
X116840000Y-30480000D03*
X111760000Y-38100000D03*
X119380000Y-30480000D03*
X109220000Y-38100000D03*
X121920000Y-30480000D03*
X106680000Y-38100000D03*
X124460000Y-30480000D03*
X104140000Y-38100000D03*
D14*
X127000000Y-30480000D03*
D16*
X55880000Y-124460000D03*
X58420000Y-124460000D03*
X60960000Y-124460000D03*
X63500000Y-124460000D03*
X66040000Y-124460000D03*
X68580000Y-124460000D03*
X71120000Y-124460000D03*
D17*
X73660000Y-124460000D03*
D16*
X91440000Y-124460000D03*
X93980000Y-124460000D03*
X96520000Y-124460000D03*
X99060000Y-124460000D03*
X101600000Y-124460000D03*
X104140000Y-124460000D03*
X106680000Y-124460000D03*
D17*
X109220000Y-124460000D03*
D16*
X55880000Y-81280000D03*
X58420000Y-81280000D03*
X60960000Y-81280000D03*
X63500000Y-81280000D03*
X66040000Y-81280000D03*
X68580000Y-81280000D03*
X71120000Y-81280000D03*
X73660000Y-81280000D03*
D17*
X76200000Y-81280000D03*
D16*
X91440000Y-81280000D03*
X93980000Y-81280000D03*
X96520000Y-81280000D03*
X99060000Y-81280000D03*
X101600000Y-81280000D03*
X104140000Y-81280000D03*
X106680000Y-81280000D03*
X109220000Y-81280000D03*
D17*
X111760000Y-81280000D03*
D13*
X81280000Y-231140000D03*
X73660000Y-254000000D03*
X81280000Y-233680000D03*
X73660000Y-251460000D03*
X81280000Y-236220000D03*
X73660000Y-248920000D03*
X81280000Y-238760000D03*
X73660000Y-246380000D03*
X81280000Y-241300000D03*
X73660000Y-243840000D03*
X81280000Y-243840000D03*
X73660000Y-241300000D03*
X81280000Y-246380000D03*
X73660000Y-238760000D03*
X81280000Y-248920000D03*
X73660000Y-236220000D03*
X81280000Y-251460000D03*
X73660000Y-233680000D03*
X81280000Y-254000000D03*
D14*
X73660000Y-231140000D03*
D13*
X152400000Y-261620000D03*
X129540000Y-254000000D03*
X149860000Y-261620000D03*
X132080000Y-254000000D03*
X147320000Y-261620000D03*
X134620000Y-254000000D03*
X144780000Y-261620000D03*
X137160000Y-254000000D03*
X142240000Y-261620000D03*
X139700000Y-254000000D03*
X139700000Y-261620000D03*
X142240000Y-254000000D03*
X137160000Y-261620000D03*
X144780000Y-254000000D03*
X134620000Y-261620000D03*
X147320000Y-254000000D03*
X132080000Y-261620000D03*
X149860000Y-254000000D03*
X129540000Y-261620000D03*
D14*
X152400000Y-254000000D03*
D13*
X101600000Y-231140000D03*
X86360000Y-259080000D03*
X101600000Y-233680000D03*
X86360000Y-256540000D03*
X101600000Y-236220000D03*
X86360000Y-254000000D03*
X101600000Y-238760000D03*
X86360000Y-251460000D03*
X101600000Y-241300000D03*
X86360000Y-248920000D03*
X101600000Y-243840000D03*
X86360000Y-246380000D03*
X101600000Y-246380000D03*
X86360000Y-243840000D03*
X101600000Y-248920000D03*
X86360000Y-241300000D03*
X101600000Y-251460000D03*
X86360000Y-238760000D03*
X101600000Y-254000000D03*
X86360000Y-236220000D03*
X101600000Y-256540000D03*
X86360000Y-233680000D03*
X101600000Y-259080000D03*
D14*
X86360000Y-231140000D03*
D13*
X121920000Y-231140000D03*
X106680000Y-259080000D03*
X121920000Y-233680000D03*
X106680000Y-256540000D03*
X121920000Y-236220000D03*
X106680000Y-254000000D03*
X121920000Y-238760000D03*
X106680000Y-251460000D03*
X121920000Y-241300000D03*
X106680000Y-248920000D03*
X121920000Y-243840000D03*
X106680000Y-246380000D03*
X121920000Y-246380000D03*
X106680000Y-243840000D03*
X121920000Y-248920000D03*
X106680000Y-241300000D03*
X121920000Y-251460000D03*
X106680000Y-238760000D03*
X121920000Y-254000000D03*
X106680000Y-236220000D03*
X121920000Y-256540000D03*
X106680000Y-233680000D03*
X121920000Y-259080000D03*
D14*
X106680000Y-231140000D03*
D13*
X152400000Y-241300000D03*
X129540000Y-233680000D03*
X149860000Y-241300000D03*
X132080000Y-233680000D03*
X147320000Y-241300000D03*
X134620000Y-233680000D03*
X144780000Y-241300000D03*
X137160000Y-233680000D03*
X142240000Y-241300000D03*
X139700000Y-233680000D03*
X139700000Y-241300000D03*
X142240000Y-233680000D03*
X137160000Y-241300000D03*
X144780000Y-233680000D03*
X134620000Y-241300000D03*
X147320000Y-233680000D03*
X132080000Y-241300000D03*
X149860000Y-233680000D03*
X129540000Y-241300000D03*
D14*
X152400000Y-233680000D03*
D13*
X116840000Y-218440000D03*
X93980000Y-210820000D03*
X114300000Y-218440000D03*
X96520000Y-210820000D03*
X111760000Y-218440000D03*
X99060000Y-210820000D03*
X109220000Y-218440000D03*
X101600000Y-210820000D03*
X106680000Y-218440000D03*
X104140000Y-210820000D03*
X104140000Y-218440000D03*
X106680000Y-210820000D03*
X101600000Y-218440000D03*
X109220000Y-210820000D03*
X99060000Y-218440000D03*
X111760000Y-210820000D03*
X96520000Y-218440000D03*
X114300000Y-210820000D03*
X93980000Y-218440000D03*
D14*
X116840000Y-210820000D03*
D13*
X152400000Y-220980000D03*
X129540000Y-213360000D03*
X149860000Y-220980000D03*
X132080000Y-213360000D03*
X147320000Y-220980000D03*
X134620000Y-213360000D03*
X144780000Y-220980000D03*
X137160000Y-213360000D03*
X142240000Y-220980000D03*
X139700000Y-213360000D03*
X139700000Y-220980000D03*
X142240000Y-213360000D03*
X137160000Y-220980000D03*
X144780000Y-213360000D03*
X134620000Y-220980000D03*
X147320000Y-213360000D03*
X132080000Y-220980000D03*
X149860000Y-213360000D03*
X129540000Y-220980000D03*
D14*
X152400000Y-213360000D03*
D13*
X81280000Y-218440000D03*
X58420000Y-210820000D03*
X78740000Y-218440000D03*
X60960000Y-210820000D03*
X76200000Y-218440000D03*
X63500000Y-210820000D03*
X73660000Y-218440000D03*
X66040000Y-210820000D03*
X71120000Y-218440000D03*
X68580000Y-210820000D03*
X68580000Y-218440000D03*
X71120000Y-210820000D03*
X66040000Y-218440000D03*
X73660000Y-210820000D03*
X63500000Y-218440000D03*
X76200000Y-210820000D03*
X60960000Y-218440000D03*
X78740000Y-210820000D03*
X58420000Y-218440000D03*
D14*
X81280000Y-210820000D03*
D13*
X215900000Y-173990000D03*
X208280000Y-191770000D03*
X215900000Y-176530000D03*
X208280000Y-189230000D03*
X215900000Y-179070000D03*
X208280000Y-186690000D03*
X215900000Y-181610000D03*
X208280000Y-184150000D03*
X215900000Y-184150000D03*
X208280000Y-181610000D03*
X215900000Y-186690000D03*
X208280000Y-179070000D03*
X215900000Y-189230000D03*
X208280000Y-176530000D03*
X215900000Y-191770000D03*
D14*
X208280000Y-173990000D03*
D13*
X228600000Y-173990000D03*
X220980000Y-189230000D03*
X228600000Y-176530000D03*
X220980000Y-186690000D03*
X228600000Y-179070000D03*
X220980000Y-184150000D03*
X228600000Y-181610000D03*
X220980000Y-181610000D03*
X228600000Y-184150000D03*
X220980000Y-179070000D03*
X228600000Y-186690000D03*
X220980000Y-176530000D03*
X228600000Y-189230000D03*
D14*
X220980000Y-173990000D03*
D13*
X241300000Y-173990000D03*
X233680000Y-189230000D03*
X241300000Y-176530000D03*
X233680000Y-186690000D03*
X241300000Y-179070000D03*
X233680000Y-184150000D03*
X241300000Y-181610000D03*
X233680000Y-181610000D03*
X241300000Y-184150000D03*
X233680000Y-179070000D03*
X241300000Y-186690000D03*
X233680000Y-176530000D03*
X241300000Y-189230000D03*
D14*
X233680000Y-173990000D03*
D18*
X247650000Y-189230000D03*
D19*
X250190000Y-189230000D03*
X248920000Y-187960000D03*
D13*
X254000000Y-173990000D03*
X246380000Y-181610000D03*
X254000000Y-176530000D03*
X246380000Y-179070000D03*
X254000000Y-179070000D03*
X246380000Y-176530000D03*
X254000000Y-181610000D03*
D14*
X246380000Y-173990000D03*
D13*
X215900000Y-204470000D03*
X208280000Y-219710000D03*
X215900000Y-207010000D03*
X208280000Y-217170000D03*
X215900000Y-209550000D03*
X208280000Y-214630000D03*
X215900000Y-212090000D03*
X208280000Y-212090000D03*
X215900000Y-214630000D03*
X208280000Y-209550000D03*
X215900000Y-217170000D03*
X208280000Y-207010000D03*
X215900000Y-219710000D03*
D14*
X208280000Y-204470000D03*
D13*
X228600000Y-204470000D03*
X220980000Y-219710000D03*
X228600000Y-207010000D03*
X220980000Y-217170000D03*
X228600000Y-209550000D03*
X220980000Y-214630000D03*
X228600000Y-212090000D03*
X220980000Y-212090000D03*
X228600000Y-214630000D03*
X220980000Y-209550000D03*
X228600000Y-217170000D03*
X220980000Y-207010000D03*
X228600000Y-219710000D03*
D14*
X220980000Y-204470000D03*
D13*
X203200000Y-204470000D03*
X195580000Y-222250000D03*
X203200000Y-207010000D03*
X195580000Y-219710000D03*
X203200000Y-209550000D03*
X195580000Y-217170000D03*
X203200000Y-212090000D03*
X195580000Y-214630000D03*
X203200000Y-214630000D03*
X195580000Y-212090000D03*
X203200000Y-217170000D03*
X195580000Y-209550000D03*
X203200000Y-219710000D03*
X195580000Y-207010000D03*
X203200000Y-222250000D03*
D14*
X195580000Y-204470000D03*
D13*
X241300000Y-204470000D03*
X233680000Y-219710000D03*
X241300000Y-207010000D03*
X233680000Y-217170000D03*
X241300000Y-209550000D03*
X233680000Y-214630000D03*
X241300000Y-212090000D03*
X233680000Y-212090000D03*
X241300000Y-214630000D03*
X233680000Y-209550000D03*
X241300000Y-217170000D03*
X233680000Y-207010000D03*
X241300000Y-219710000D03*
D14*
X233680000Y-204470000D03*
D13*
X193040000Y-173990000D03*
X185420000Y-181610000D03*
X193040000Y-176530000D03*
X185420000Y-179070000D03*
X193040000Y-179070000D03*
X185420000Y-176530000D03*
X193040000Y-181610000D03*
D14*
X185420000Y-173990000D03*
D13*
X190500000Y-204470000D03*
X182880000Y-219710000D03*
X190500000Y-207010000D03*
X182880000Y-217170000D03*
X190500000Y-209550000D03*
X182880000Y-214630000D03*
X190500000Y-212090000D03*
X182880000Y-212090000D03*
X190500000Y-214630000D03*
X182880000Y-209550000D03*
X190500000Y-217170000D03*
X182880000Y-207010000D03*
X190500000Y-219710000D03*
D14*
X182880000Y-204470000D03*
D13*
X257810000Y-256540000D03*
X250190000Y-264160000D03*
X257810000Y-259080000D03*
X250190000Y-261620000D03*
X257810000Y-261620000D03*
X250190000Y-259080000D03*
X257810000Y-264160000D03*
D14*
X250190000Y-256540000D03*
D13*
X237490000Y-256540000D03*
X229870000Y-264160000D03*
X237490000Y-259080000D03*
X229870000Y-261620000D03*
X237490000Y-261620000D03*
X229870000Y-259080000D03*
X237490000Y-264160000D03*
D14*
X229870000Y-256540000D03*
D13*
X266696200Y-241298200D03*
X228596200Y-226058200D03*
X264156200Y-241298200D03*
X231136200Y-226058200D03*
X261616200Y-241298200D03*
X233676200Y-226058200D03*
X259076200Y-241298200D03*
X236216200Y-226058200D03*
X256536200Y-241298200D03*
X238756200Y-226058200D03*
X253996200Y-241298200D03*
X241296200Y-226058200D03*
X251456200Y-241298200D03*
X243836200Y-226058200D03*
X248916200Y-241298200D03*
X246376200Y-226058200D03*
X246376200Y-241298200D03*
X248916200Y-226058200D03*
X243836200Y-241298200D03*
X251456200Y-226058200D03*
X241296200Y-241298200D03*
X253996200Y-226058200D03*
X238756200Y-241298200D03*
X256536200Y-226058200D03*
X236216200Y-241298200D03*
X259076200Y-226058200D03*
X233676200Y-241298200D03*
X261616200Y-226058200D03*
X231136200Y-241298200D03*
X264156200Y-226058200D03*
X228596200Y-241298200D03*
D14*
X266696200Y-226058200D03*
D13*
X207010000Y-256540000D03*
X199390000Y-264160000D03*
X207010000Y-259080000D03*
X199390000Y-261620000D03*
X207010000Y-261620000D03*
X199390000Y-259080000D03*
X207010000Y-264160000D03*
D14*
X199390000Y-256540000D03*
D13*
X212090000Y-236220000D03*
X204470000Y-243840000D03*
X212090000Y-238760000D03*
X204470000Y-241300000D03*
X212090000Y-241300000D03*
X204470000Y-238760000D03*
X212090000Y-243840000D03*
D14*
X204470000Y-236220000D03*
D13*
X152400000Y-200660000D03*
X129540000Y-193040000D03*
X149860000Y-200660000D03*
X132080000Y-193040000D03*
X147320000Y-200660000D03*
X134620000Y-193040000D03*
X144780000Y-200660000D03*
X137160000Y-193040000D03*
X142240000Y-200660000D03*
X139700000Y-193040000D03*
X139700000Y-200660000D03*
X142240000Y-193040000D03*
X137160000Y-200660000D03*
X144780000Y-193040000D03*
X134620000Y-200660000D03*
X147320000Y-193040000D03*
X132080000Y-200660000D03*
X149860000Y-193040000D03*
X129540000Y-200660000D03*
D14*
X152400000Y-193040000D03*
D13*
X152409000Y-182875800D03*
X129549000Y-175255800D03*
X149869000Y-182875800D03*
X132089000Y-175255800D03*
X147329000Y-182875800D03*
X134629000Y-175255800D03*
X144789000Y-182875800D03*
X137169000Y-175255800D03*
X142249000Y-182875800D03*
X139709000Y-175255800D03*
X139709000Y-182875800D03*
X142249000Y-175255800D03*
X137169000Y-182875800D03*
X144789000Y-175255800D03*
X134629000Y-182875800D03*
X147329000Y-175255800D03*
X132089000Y-182875800D03*
X149869000Y-175255800D03*
X129549000Y-182875800D03*
D14*
X152409000Y-175255800D03*
D13*
X116849000Y-182875800D03*
X93989000Y-175255800D03*
X114309000Y-182875800D03*
X96529000Y-175255800D03*
X111769000Y-182875800D03*
X99069000Y-175255800D03*
X109229000Y-182875800D03*
X101609000Y-175255800D03*
X106689000Y-182875800D03*
X104149000Y-175255800D03*
X104149000Y-182875800D03*
X106689000Y-175255800D03*
X101609000Y-182875800D03*
X109229000Y-175255800D03*
X99069000Y-182875800D03*
X111769000Y-175255800D03*
X96529000Y-182875800D03*
X114309000Y-175255800D03*
X93989000Y-182875800D03*
D14*
X116849000Y-175255800D03*
D13*
X106680000Y-154940000D03*
X144780000Y-170180000D03*
X109220000Y-154940000D03*
X142240000Y-170180000D03*
X111760000Y-154940000D03*
X139700000Y-170180000D03*
X114300000Y-154940000D03*
X137160000Y-170180000D03*
X116840000Y-154940000D03*
X134620000Y-170180000D03*
X119380000Y-154940000D03*
X132080000Y-170180000D03*
X121920000Y-154940000D03*
X129540000Y-170180000D03*
X124460000Y-154940000D03*
X127000000Y-170180000D03*
X127000000Y-154940000D03*
X124460000Y-170180000D03*
X129540000Y-154940000D03*
X121920000Y-170180000D03*
X132080000Y-154940000D03*
X119380000Y-170180000D03*
X134620000Y-154940000D03*
X116840000Y-170180000D03*
X137160000Y-154940000D03*
X114300000Y-170180000D03*
X139700000Y-154940000D03*
X111760000Y-170180000D03*
X142240000Y-154940000D03*
X109220000Y-170180000D03*
X144780000Y-154940000D03*
D14*
X106680000Y-170180000D03*
D13*
X127000000Y-149860000D03*
X104140000Y-142240000D03*
X124460000Y-149860000D03*
X106680000Y-142240000D03*
X121920000Y-149860000D03*
X109220000Y-142240000D03*
X119380000Y-149860000D03*
X111760000Y-142240000D03*
X116840000Y-149860000D03*
X114300000Y-142240000D03*
X114300000Y-149860000D03*
X116840000Y-142240000D03*
X111760000Y-149860000D03*
X119380000Y-142240000D03*
X109220000Y-149860000D03*
X121920000Y-142240000D03*
X106680000Y-149860000D03*
X124460000Y-142240000D03*
X104140000Y-149860000D03*
D14*
X127000000Y-142240000D03*
D13*
X71120000Y-137160000D03*
X53340000Y-129540000D03*
X68580000Y-137160000D03*
X55880000Y-129540000D03*
X66040000Y-137160000D03*
X58420000Y-129540000D03*
X63500000Y-137160000D03*
X60960000Y-129540000D03*
X60960000Y-137160000D03*
X63500000Y-129540000D03*
X58420000Y-137160000D03*
X66040000Y-129540000D03*
X55880000Y-137160000D03*
X68580000Y-129540000D03*
X53340000Y-137160000D03*
D14*
X71120000Y-129540000D03*
D13*
X101600000Y-137160000D03*
X83820000Y-129540000D03*
X99060000Y-137160000D03*
X86360000Y-129540000D03*
X96520000Y-137160000D03*
X88900000Y-129540000D03*
X93980000Y-137160000D03*
X91440000Y-129540000D03*
X91440000Y-137160000D03*
X93980000Y-129540000D03*
X88900000Y-137160000D03*
X96520000Y-129540000D03*
X86360000Y-137160000D03*
X99060000Y-129540000D03*
X83820000Y-137160000D03*
D14*
X101600000Y-129540000D03*
D13*
X162560000Y-149860000D03*
X139700000Y-142240000D03*
X160020000Y-149860000D03*
X142240000Y-142240000D03*
X157480000Y-149860000D03*
X144780000Y-142240000D03*
X154940000Y-149860000D03*
X147320000Y-142240000D03*
X152400000Y-149860000D03*
X149860000Y-142240000D03*
X149860000Y-149860000D03*
X152400000Y-142240000D03*
X147320000Y-149860000D03*
X154940000Y-142240000D03*
X144780000Y-149860000D03*
X157480000Y-142240000D03*
X142240000Y-149860000D03*
X160020000Y-142240000D03*
X139700000Y-149860000D03*
D14*
X162560000Y-142240000D03*
D13*
X132080000Y-137160000D03*
X114300000Y-129540000D03*
X129540000Y-137160000D03*
X116840000Y-129540000D03*
X127000000Y-137160000D03*
X119380000Y-129540000D03*
X124460000Y-137160000D03*
X121920000Y-129540000D03*
X121920000Y-137160000D03*
X124460000Y-129540000D03*
X119380000Y-137160000D03*
X127000000Y-129540000D03*
X116840000Y-137160000D03*
X129540000Y-129540000D03*
X114300000Y-137160000D03*
D14*
X132080000Y-129540000D03*
D13*
X162560000Y-137160000D03*
X144780000Y-129540000D03*
X160020000Y-137160000D03*
X147320000Y-129540000D03*
X157480000Y-137160000D03*
X149860000Y-129540000D03*
X154940000Y-137160000D03*
X152400000Y-129540000D03*
X152400000Y-137160000D03*
X154940000Y-129540000D03*
X149860000Y-137160000D03*
X157480000Y-129540000D03*
X147320000Y-137160000D03*
X160020000Y-129540000D03*
X144780000Y-137160000D03*
D14*
X162560000Y-129540000D03*
D13*
X162560000Y-106680000D03*
X139700000Y-99060000D03*
X160020000Y-106680000D03*
X142240000Y-99060000D03*
X157480000Y-106680000D03*
X144780000Y-99060000D03*
X154940000Y-106680000D03*
X147320000Y-99060000D03*
X152400000Y-106680000D03*
X149860000Y-99060000D03*
X149860000Y-106680000D03*
X152400000Y-99060000D03*
X147320000Y-106680000D03*
X154940000Y-99060000D03*
X144780000Y-106680000D03*
X157480000Y-99060000D03*
X142240000Y-106680000D03*
X160020000Y-99060000D03*
X139700000Y-106680000D03*
D14*
X162560000Y-99060000D03*
D13*
X162560000Y-119380000D03*
X139700000Y-111760000D03*
X160020000Y-119380000D03*
X142240000Y-111760000D03*
X157480000Y-119380000D03*
X144780000Y-111760000D03*
X154940000Y-119380000D03*
X147320000Y-111760000D03*
X152400000Y-119380000D03*
X149860000Y-111760000D03*
X149860000Y-119380000D03*
X152400000Y-111760000D03*
X147320000Y-119380000D03*
X154940000Y-111760000D03*
X144780000Y-119380000D03*
X157480000Y-111760000D03*
X142240000Y-119380000D03*
X160020000Y-111760000D03*
X139700000Y-119380000D03*
D14*
X162560000Y-111760000D03*
D13*
X126695800Y-106680000D03*
X93675800Y-99060000D03*
X124155800Y-106680000D03*
X96215800Y-99060000D03*
X121615800Y-106680000D03*
X98755800Y-99060000D03*
X119075800Y-106680000D03*
X101295800Y-99060000D03*
X116535800Y-106680000D03*
X103835800Y-99060000D03*
X113995800Y-106680000D03*
X106375800Y-99060000D03*
X111455800Y-106680000D03*
X108915800Y-99060000D03*
X108915800Y-106680000D03*
X111455800Y-99060000D03*
X106375800Y-106680000D03*
X113995800Y-99060000D03*
X103835800Y-106680000D03*
X116535800Y-99060000D03*
X101295800Y-106680000D03*
X119075800Y-99060000D03*
X98755800Y-106680000D03*
X121615800Y-99060000D03*
X96215800Y-106680000D03*
X124155800Y-99060000D03*
X93675800Y-106680000D03*
D14*
X126695800Y-99060000D03*
D13*
X127000000Y-119380000D03*
X93980000Y-111760000D03*
X124460000Y-119380000D03*
X96520000Y-111760000D03*
X121920000Y-119380000D03*
X99060000Y-111760000D03*
X119380000Y-119380000D03*
X101600000Y-111760000D03*
X116840000Y-119380000D03*
X104140000Y-111760000D03*
X114300000Y-119380000D03*
X106680000Y-111760000D03*
X111760000Y-119380000D03*
X109220000Y-111760000D03*
X109220000Y-119380000D03*
X111760000Y-111760000D03*
X106680000Y-119380000D03*
X114300000Y-111760000D03*
X104140000Y-119380000D03*
X116840000Y-111760000D03*
X101600000Y-119380000D03*
X119380000Y-111760000D03*
X99060000Y-119380000D03*
X121920000Y-111760000D03*
X96520000Y-119380000D03*
X124460000Y-111760000D03*
X93980000Y-119380000D03*
D14*
X127000000Y-111760000D03*
D13*
X71142000Y-93935200D03*
X53362000Y-86315200D03*
X68602000Y-93935200D03*
X55902000Y-86315200D03*
X66062000Y-93935200D03*
X58442000Y-86315200D03*
X63522000Y-93935200D03*
X60982000Y-86315200D03*
X60982000Y-93935200D03*
X63522000Y-86315200D03*
X58442000Y-93935200D03*
X66062000Y-86315200D03*
X55902000Y-93935200D03*
X68602000Y-86315200D03*
X53362000Y-93935200D03*
D14*
X71142000Y-86315200D03*
D13*
X101622000Y-93935200D03*
X83842000Y-86315200D03*
X99082000Y-93935200D03*
X86382000Y-86315200D03*
X96542000Y-93935200D03*
X88922000Y-86315200D03*
X94002000Y-93935200D03*
X91462000Y-86315200D03*
X91462000Y-93935200D03*
X94002000Y-86315200D03*
X88922000Y-93935200D03*
X96542000Y-86315200D03*
X86382000Y-93935200D03*
X99082000Y-86315200D03*
X83842000Y-93935200D03*
D14*
X101622000Y-86315200D03*
D13*
X132102000Y-93935200D03*
X114322000Y-86315200D03*
X129562000Y-93935200D03*
X116862000Y-86315200D03*
X127022000Y-93935200D03*
X119402000Y-86315200D03*
X124482000Y-93935200D03*
X121942000Y-86315200D03*
X121942000Y-93935200D03*
X124482000Y-86315200D03*
X119402000Y-93935200D03*
X127022000Y-86315200D03*
X116862000Y-93935200D03*
X129562000Y-86315200D03*
X114322000Y-93935200D03*
D14*
X132102000Y-86315200D03*
D13*
X162582000Y-93935200D03*
X144802000Y-86315200D03*
X160042000Y-93935200D03*
X147342000Y-86315200D03*
X157502000Y-93935200D03*
X149882000Y-86315200D03*
X154962000Y-93935200D03*
X152422000Y-86315200D03*
X152422000Y-93935200D03*
X154962000Y-86315200D03*
X149882000Y-93935200D03*
X157502000Y-86315200D03*
X147342000Y-93935200D03*
X160042000Y-86315200D03*
X144802000Y-93935200D03*
D14*
X162582000Y-86315200D03*
D13*
X76194000Y-76206000D03*
X53334000Y-68586000D03*
X73654000Y-76206000D03*
X55874000Y-68586000D03*
X71114000Y-76206000D03*
X58414000Y-68586000D03*
X68574000Y-76206000D03*
X60954000Y-68586000D03*
X66034000Y-76206000D03*
X63494000Y-68586000D03*
X63494000Y-76206000D03*
X66034000Y-68586000D03*
X60954000Y-76206000D03*
X68574000Y-68586000D03*
X58414000Y-76206000D03*
X71114000Y-68586000D03*
X55874000Y-76206000D03*
X73654000Y-68586000D03*
X53334000Y-76206000D03*
D14*
X76194000Y-68586000D03*
D13*
X111754000Y-76206000D03*
X88894000Y-68586000D03*
X109214000Y-76206000D03*
X91434000Y-68586000D03*
X106674000Y-76206000D03*
X93974000Y-68586000D03*
X104134000Y-76206000D03*
X96514000Y-68586000D03*
X101594000Y-76206000D03*
X99054000Y-68586000D03*
X99054000Y-76206000D03*
X101594000Y-68586000D03*
X96514000Y-76206000D03*
X104134000Y-68586000D03*
X93974000Y-76206000D03*
X106674000Y-68586000D03*
X91434000Y-76206000D03*
X109214000Y-68586000D03*
X88894000Y-76206000D03*
D14*
X111754000Y-68586000D03*
D13*
X71120000Y-63500000D03*
X53340000Y-55880000D03*
X68580000Y-63500000D03*
X55880000Y-55880000D03*
X66040000Y-63500000D03*
X58420000Y-55880000D03*
X63500000Y-63500000D03*
X60960000Y-55880000D03*
X60960000Y-63500000D03*
X63500000Y-55880000D03*
X58420000Y-63500000D03*
X66040000Y-55880000D03*
X55880000Y-63500000D03*
X68580000Y-55880000D03*
X53340000Y-63500000D03*
D14*
X71120000Y-55880000D03*
D13*
X101600000Y-63500000D03*
X83820000Y-55880000D03*
X99060000Y-63500000D03*
X86360000Y-55880000D03*
X96520000Y-63500000D03*
X88900000Y-55880000D03*
X93980000Y-63500000D03*
X91440000Y-55880000D03*
X91440000Y-63500000D03*
X93980000Y-55880000D03*
X88900000Y-63500000D03*
X96520000Y-55880000D03*
X86360000Y-63500000D03*
X99060000Y-55880000D03*
X83820000Y-63500000D03*
D14*
X101600000Y-55880000D03*
D13*
X132080000Y-63500000D03*
X114300000Y-55880000D03*
X129540000Y-63500000D03*
X116840000Y-55880000D03*
X127000000Y-63500000D03*
X119380000Y-55880000D03*
X124460000Y-63500000D03*
X121920000Y-55880000D03*
X121920000Y-63500000D03*
X124460000Y-55880000D03*
X119380000Y-63500000D03*
X127000000Y-55880000D03*
X116840000Y-63500000D03*
X129540000Y-55880000D03*
X114300000Y-63500000D03*
D14*
X132080000Y-55880000D03*
D13*
X162560000Y-63500000D03*
X144780000Y-55880000D03*
X160020000Y-63500000D03*
X147320000Y-55880000D03*
X157480000Y-63500000D03*
X149860000Y-55880000D03*
X154940000Y-63500000D03*
X152400000Y-55880000D03*
X152400000Y-63500000D03*
X154940000Y-55880000D03*
X149860000Y-63500000D03*
X157480000Y-55880000D03*
X147320000Y-63500000D03*
X160020000Y-55880000D03*
X144780000Y-63500000D03*
D14*
X162560000Y-55880000D03*
D13*
X162560000Y-50800000D03*
X139700000Y-43180000D03*
X160020000Y-50800000D03*
X142240000Y-43180000D03*
X157480000Y-50800000D03*
X144780000Y-43180000D03*
X154940000Y-50800000D03*
X147320000Y-43180000D03*
X152400000Y-50800000D03*
X149860000Y-43180000D03*
X149860000Y-50800000D03*
X152400000Y-43180000D03*
X147320000Y-50800000D03*
X154940000Y-43180000D03*
X144780000Y-50800000D03*
X157480000Y-43180000D03*
X142240000Y-50800000D03*
X160020000Y-43180000D03*
X139700000Y-50800000D03*
D14*
X162560000Y-43180000D03*
D13*
X127000000Y-50800000D03*
X104140000Y-43180000D03*
X124460000Y-50800000D03*
X106680000Y-43180000D03*
X121920000Y-50800000D03*
X109220000Y-43180000D03*
X119380000Y-50800000D03*
X111760000Y-43180000D03*
X116840000Y-50800000D03*
X114300000Y-43180000D03*
X114300000Y-50800000D03*
X116840000Y-43180000D03*
X111760000Y-50800000D03*
X119380000Y-43180000D03*
X109220000Y-50800000D03*
X121920000Y-43180000D03*
X106680000Y-50800000D03*
X124460000Y-43180000D03*
X104140000Y-50800000D03*
D14*
X127000000Y-43180000D03*
D13*
X226060000Y-124460000D03*
X243840000Y-132080000D03*
X228600000Y-124460000D03*
X241300000Y-132080000D03*
X231140000Y-124460000D03*
X238760000Y-132080000D03*
X233680000Y-124460000D03*
X236220000Y-132080000D03*
X236220000Y-124460000D03*
X233680000Y-132080000D03*
X238760000Y-124460000D03*
X231140000Y-132080000D03*
X241300000Y-124460000D03*
X228600000Y-132080000D03*
X243840000Y-124460000D03*
D14*
X226060000Y-132080000D03*
D13*
X190500000Y-124460000D03*
X213360000Y-132080000D03*
X193040000Y-124460000D03*
X210820000Y-132080000D03*
X195580000Y-124460000D03*
X208280000Y-132080000D03*
X198120000Y-124460000D03*
X205740000Y-132080000D03*
X200660000Y-124460000D03*
X203200000Y-132080000D03*
X203200000Y-124460000D03*
X200660000Y-132080000D03*
X205740000Y-124460000D03*
X198120000Y-132080000D03*
X208280000Y-124460000D03*
X195580000Y-132080000D03*
X210820000Y-124460000D03*
X193040000Y-132080000D03*
X213360000Y-124460000D03*
D14*
X190500000Y-132080000D03*
D20*
X274470000Y-168910000D03*
X274470000Y-173410000D03*
X267970000Y-168910000D03*
X267970000Y-173410000D03*
X191920000Y-187452000D03*
X191920000Y-191952000D03*
X185420000Y-187452000D03*
X185420000Y-191952000D03*
D21*
X185420000Y-231140000D03*
X187920000Y-233640000D03*
X185420000Y-236140000D03*
D13*
X173990000Y-30480000D03*
X176530000Y-30480000D03*
X179070000Y-30480000D03*
X181610000Y-30480000D03*
X184150000Y-30480000D03*
X186690000Y-30480000D03*
X189230000Y-30480000D03*
X191770000Y-30480000D03*
D14*
X194310000Y-30480000D03*
D13*
X68580000Y-245110000D03*
D15*
X60960000Y-245110000D03*
D13*
X68580000Y-240030000D03*
D15*
X60960000Y-240030000D03*
D13*
X68580000Y-234950000D03*
D15*
X60960000Y-234950000D03*
D13*
X264160000Y-219710000D03*
D15*
X271780000Y-219710000D03*
D13*
X267970000Y-264160000D03*
D15*
X260350000Y-264160000D03*
D13*
X267970000Y-260350000D03*
D15*
X260350000Y-260350000D03*
D13*
X267970000Y-256540000D03*
D15*
X260350000Y-256540000D03*
D13*
X247650000Y-264160000D03*
D15*
X240030000Y-264160000D03*
D13*
X247650000Y-260350000D03*
D15*
X240030000Y-260350000D03*
D13*
X247650000Y-256540000D03*
D15*
X240030000Y-256540000D03*
D13*
X227330000Y-264160000D03*
D15*
X219710000Y-264160000D03*
D13*
X227330000Y-260350000D03*
D15*
X219710000Y-260350000D03*
D13*
X227330000Y-256540000D03*
D15*
X219710000Y-256540000D03*
D13*
X217170000Y-264160000D03*
D15*
X209550000Y-264160000D03*
D13*
X217170000Y-260350000D03*
D15*
X209550000Y-260350000D03*
D13*
X217170000Y-256540000D03*
D15*
X209550000Y-256540000D03*
D13*
X196850000Y-264160000D03*
D15*
X189230000Y-264160000D03*
D13*
X196850000Y-260350000D03*
D15*
X189230000Y-260350000D03*
D13*
X196850000Y-256540000D03*
D15*
X189230000Y-256540000D03*
D13*
X222250000Y-243840000D03*
D15*
X214630000Y-243840000D03*
D13*
X222250000Y-240030000D03*
D15*
X214630000Y-240030000D03*
D13*
X222250000Y-236220000D03*
D15*
X214630000Y-236220000D03*
D13*
X201930000Y-243840000D03*
D15*
X194310000Y-243840000D03*
D13*
X201930000Y-240030000D03*
D15*
X194310000Y-240030000D03*
D13*
X201930000Y-236220000D03*
D15*
X194310000Y-236220000D03*
D16*
X163830000Y-250190000D03*
X166370000Y-250190000D03*
X168910000Y-250190000D03*
X171450000Y-250190000D03*
X173990000Y-250190000D03*
X176530000Y-250190000D03*
X179070000Y-250190000D03*
X181610000Y-250190000D03*
D17*
X184150000Y-250190000D03*
D16*
X55880000Y-50800000D03*
X58420000Y-50800000D03*
X60960000Y-50800000D03*
X63500000Y-50800000D03*
X66040000Y-50800000D03*
X68580000Y-50800000D03*
X71120000Y-50800000D03*
X73660000Y-50800000D03*
X76200000Y-50800000D03*
X78740000Y-50800000D03*
X81280000Y-50800000D03*
X83820000Y-50800000D03*
X86360000Y-50800000D03*
X88900000Y-50800000D03*
X91440000Y-50800000D03*
X93980000Y-50800000D03*
D17*
X96520000Y-50800000D03*
D16*
X132080000Y-250190000D03*
X134620000Y-250190000D03*
X137160000Y-250190000D03*
X139700000Y-250190000D03*
X142240000Y-250190000D03*
X144780000Y-250190000D03*
X147320000Y-250190000D03*
X149860000Y-250190000D03*
D17*
X152400000Y-250190000D03*
D16*
X132080000Y-229870000D03*
X134620000Y-229870000D03*
X137160000Y-229870000D03*
X139700000Y-229870000D03*
X142240000Y-229870000D03*
X144780000Y-229870000D03*
X147320000Y-229870000D03*
X149860000Y-229870000D03*
D17*
X152400000Y-229870000D03*
D16*
X132080000Y-209550000D03*
X134620000Y-209550000D03*
X137160000Y-209550000D03*
X139700000Y-209550000D03*
X142240000Y-209550000D03*
X144780000Y-209550000D03*
X147320000Y-209550000D03*
X149860000Y-209550000D03*
D17*
X152400000Y-209550000D03*
D16*
X246380000Y-246380000D03*
X248920000Y-246380000D03*
X251460000Y-246380000D03*
X254000000Y-246380000D03*
X256540000Y-246380000D03*
X259080000Y-246380000D03*
X261620000Y-246380000D03*
X264160000Y-246380000D03*
D17*
X266700000Y-246380000D03*
D16*
X76200000Y-187960000D03*
X78740000Y-187960000D03*
X81280000Y-187960000D03*
X83820000Y-187960000D03*
X86360000Y-187960000D03*
X88900000Y-187960000D03*
X91440000Y-187960000D03*
X93980000Y-187960000D03*
X96520000Y-187960000D03*
X99060000Y-187960000D03*
X101600000Y-187960000D03*
X104140000Y-187960000D03*
X106680000Y-187960000D03*
X109220000Y-187960000D03*
X111760000Y-187960000D03*
X114300000Y-187960000D03*
D17*
X116840000Y-187960000D03*
D16*
X132080000Y-189230000D03*
X134620000Y-189230000D03*
X137160000Y-189230000D03*
X139700000Y-189230000D03*
X142240000Y-189230000D03*
X144780000Y-189230000D03*
X147320000Y-189230000D03*
X149860000Y-189230000D03*
D17*
X152400000Y-189230000D03*
D16*
X55880000Y-142240000D03*
X58420000Y-142240000D03*
X60960000Y-142240000D03*
X63500000Y-142240000D03*
X66040000Y-142240000D03*
X68580000Y-142240000D03*
X71120000Y-142240000D03*
X73660000Y-142240000D03*
X76200000Y-142240000D03*
X78740000Y-142240000D03*
X81280000Y-142240000D03*
X83820000Y-142240000D03*
X86360000Y-142240000D03*
X88900000Y-142240000D03*
X91440000Y-142240000D03*
X93980000Y-142240000D03*
D17*
X96520000Y-142240000D03*
D16*
X121920000Y-68580000D03*
X124460000Y-68580000D03*
X127000000Y-68580000D03*
X129540000Y-68580000D03*
X132080000Y-68580000D03*
X134620000Y-68580000D03*
X137160000Y-68580000D03*
X139700000Y-68580000D03*
X142240000Y-68580000D03*
X144780000Y-68580000D03*
X147320000Y-68580000D03*
X149860000Y-68580000D03*
X152400000Y-68580000D03*
X154940000Y-68580000D03*
X157480000Y-68580000D03*
X160020000Y-68580000D03*
D17*
X162560000Y-68580000D03*
D16*
X193167000Y-136652000D03*
X195707000Y-136652000D03*
X198247000Y-136652000D03*
X200787000Y-136652000D03*
X203327000Y-136652000D03*
X205867000Y-136652000D03*
X208407000Y-136652000D03*
X210947000Y-136652000D03*
D17*
X213487000Y-136652000D03*
D22*
X69850000Y-224790000D03*
D23*
X67310000Y-224790000D03*
D22*
X63246000Y-224790000D03*
D23*
X60706000Y-224790000D03*
D22*
X259080000Y-195580000D03*
D23*
X261620000Y-195580000D03*
D22*
X271780000Y-213360000D03*
D23*
X274320000Y-213360000D03*
D15*
X91520000Y-224790000D03*
X96520000Y-224790000D03*
X75010000Y-224790000D03*
X80010000Y-224790000D03*
X158750000Y-260270000D03*
X158750000Y-255270000D03*
X111840000Y-224790000D03*
X116840000Y-224790000D03*
X123190000Y-212170000D03*
X123190000Y-217170000D03*
X158750000Y-235030000D03*
X158750000Y-240030000D03*
X87630000Y-212170000D03*
X87630000Y-217170000D03*
X158750000Y-214710000D03*
X158750000Y-219710000D03*
X209630000Y-167640000D03*
X214630000Y-167640000D03*
X222330000Y-167640000D03*
X227330000Y-167640000D03*
X235030000Y-167640000D03*
X240030000Y-167640000D03*
X184230000Y-198120000D03*
X189230000Y-198120000D03*
X186770000Y-167640000D03*
X191770000Y-167640000D03*
X252730000Y-198120000D03*
X247730000Y-198120000D03*
X209630000Y-198120000D03*
X214630000Y-198120000D03*
X222330000Y-198120000D03*
X227330000Y-198120000D03*
X196930000Y-198120000D03*
X201930000Y-198120000D03*
X235030000Y-198120000D03*
X240030000Y-198120000D03*
X251540000Y-250190000D03*
X256540000Y-250190000D03*
X231220000Y-250190000D03*
X236220000Y-250190000D03*
X273050000Y-231220000D03*
X273050000Y-236220000D03*
X200740000Y-250190000D03*
X205740000Y-250190000D03*
X205740000Y-229870000D03*
X210740000Y-229870000D03*
X158750000Y-194390000D03*
X158750000Y-199390000D03*
X158750000Y-176610000D03*
X158750000Y-181610000D03*
X87630000Y-176555800D03*
X87630000Y-181555800D03*
X123190000Y-176610000D03*
X123190000Y-181610000D03*
X49530000Y-165055000D03*
X49530000Y-160055000D03*
X100330000Y-165055000D03*
X100330000Y-160055000D03*
X133350000Y-143590000D03*
X133350000Y-148590000D03*
X77470000Y-130840000D03*
X77470000Y-135840000D03*
X107950000Y-130840000D03*
X107950000Y-135840000D03*
X168910000Y-143590000D03*
X168910000Y-148590000D03*
X138430000Y-130840000D03*
X138430000Y-135840000D03*
X168910000Y-130840000D03*
X168910000Y-135840000D03*
X168910000Y-113147200D03*
X168910000Y-118147200D03*
X133350000Y-100360000D03*
X133350000Y-105360000D03*
X133350000Y-113060000D03*
X133350000Y-118060000D03*
X79965800Y-98475800D03*
X84965800Y-98475800D03*
X67390000Y-98526600D03*
X72390000Y-98526600D03*
X77470000Y-87710000D03*
X77470000Y-92710000D03*
X107950000Y-87710000D03*
X107950000Y-92710000D03*
X168910000Y-87630000D03*
X168910000Y-92630000D03*
X138430000Y-87710000D03*
X138430000Y-92710000D03*
X82550000Y-69850000D03*
X82550000Y-74850000D03*
X118110000Y-69850000D03*
X118110000Y-74850000D03*
X77470000Y-57230000D03*
X77470000Y-62230000D03*
X107950000Y-62150000D03*
X107950000Y-57150000D03*
X138430000Y-62150000D03*
X138430000Y-57150000D03*
X168910000Y-62150000D03*
X168910000Y-57150000D03*
X168910000Y-44530000D03*
X168910000Y-49530000D03*
X168910000Y-31830000D03*
X168910000Y-36830000D03*
X133350000Y-49450000D03*
X133350000Y-44450000D03*
X133350000Y-36750000D03*
X133350000Y-31750000D03*
X219710000Y-130730000D03*
X219710000Y-125730000D03*
X184150000Y-130730000D03*
X184150000Y-125730000D03*
X273780000Y-203200000D03*
D14*
X271780000Y-203200000D03*
M02*
