G04 #@! TF.GenerationSoftware,KiCad,Pcbnew,(5.1.0-0)*
G04 #@! TF.CreationDate,2019-10-08T22:08:13-07:00*
G04 #@! TF.ProjectId,MainBoard,4d61696e-426f-4617-9264-2e6b69636164,rev?*
G04 #@! TF.SameCoordinates,Original*
G04 #@! TF.FileFunction,Soldermask,Top*
G04 #@! TF.FilePolarity,Negative*
%FSLAX46Y46*%
G04 Gerber Fmt 4.6, Leading zero omitted, Abs format (unit mm)*
G04 Created by KiCad (PCBNEW (5.1.0-0)) date 2019-10-08 22:08:13*
%MOMM*%
%LPD*%
G04 APERTURE LIST*
%ADD10C,2.500000*%
%ADD11R,2.500000X2.500000*%
%ADD12O,1.600000X1.600000*%
%ADD13R,1.600000X1.600000*%
%ADD14C,1.600000*%
%ADD15O,1.700000X1.700000*%
%ADD16R,1.700000X1.700000*%
%ADD17R,1.300000X1.300000*%
%ADD18C,1.300000*%
%ADD19C,2.000000*%
%ADD20C,1.620000*%
%ADD21C,1.800000*%
%ADD22R,1.800000X1.800000*%
G04 APERTURE END LIST*
D10*
X368808000Y-208200000D03*
D11*
X368808000Y-203200000D03*
D12*
X180340000Y-119380000D03*
X172720000Y-134620000D03*
X180340000Y-121920000D03*
X172720000Y-132080000D03*
X180340000Y-124460000D03*
X172720000Y-129540000D03*
X180340000Y-127000000D03*
X172720000Y-127000000D03*
X180340000Y-129540000D03*
X172720000Y-124460000D03*
X180340000Y-132080000D03*
X172720000Y-121920000D03*
X180340000Y-134620000D03*
D13*
X172720000Y-119380000D03*
D12*
X167640000Y-119380000D03*
X160020000Y-134620000D03*
X167640000Y-121920000D03*
X160020000Y-132080000D03*
X167640000Y-124460000D03*
X160020000Y-129540000D03*
X167640000Y-127000000D03*
X160020000Y-127000000D03*
X167640000Y-129540000D03*
X160020000Y-124460000D03*
X167640000Y-132080000D03*
X160020000Y-121920000D03*
X167640000Y-134620000D03*
D13*
X160020000Y-119380000D03*
D12*
X350520000Y-139700000D03*
X368300000Y-147320000D03*
X353060000Y-139700000D03*
X365760000Y-147320000D03*
X355600000Y-139700000D03*
X363220000Y-147320000D03*
X358140000Y-139700000D03*
X360680000Y-147320000D03*
X360680000Y-139700000D03*
X358140000Y-147320000D03*
X363220000Y-139700000D03*
X355600000Y-147320000D03*
X365760000Y-139700000D03*
X353060000Y-147320000D03*
X368300000Y-139700000D03*
D13*
X350520000Y-147320000D03*
D14*
X262890000Y-115650000D03*
X262890000Y-120650000D03*
X344170000Y-145970000D03*
X344170000Y-140970000D03*
D15*
X299720000Y-83820000D03*
X299720000Y-86360000D03*
X302260000Y-83820000D03*
X302260000Y-86360000D03*
X304800000Y-83820000D03*
X304800000Y-86360000D03*
X307340000Y-83820000D03*
X307340000Y-86360000D03*
X309880000Y-83820000D03*
X309880000Y-86360000D03*
X312420000Y-83820000D03*
X312420000Y-86360000D03*
X314960000Y-83820000D03*
X314960000Y-86360000D03*
X317500000Y-83820000D03*
X317500000Y-86360000D03*
X320040000Y-83820000D03*
X320040000Y-86360000D03*
X322580000Y-83820000D03*
X322580000Y-86360000D03*
X325120000Y-83820000D03*
X325120000Y-86360000D03*
X327660000Y-83820000D03*
X327660000Y-86360000D03*
X330200000Y-83820000D03*
X330200000Y-86360000D03*
X332740000Y-83820000D03*
X332740000Y-86360000D03*
X335280000Y-83820000D03*
X335280000Y-86360000D03*
X337820000Y-83820000D03*
X337820000Y-86360000D03*
X340360000Y-83820000D03*
X340360000Y-86360000D03*
X342900000Y-83820000D03*
X342900000Y-86360000D03*
X345440000Y-83820000D03*
X345440000Y-86360000D03*
X347980000Y-83820000D03*
D16*
X347980000Y-86360000D03*
D15*
X299720000Y-114300000D03*
X299720000Y-116840000D03*
X302260000Y-114300000D03*
X302260000Y-116840000D03*
X304800000Y-114300000D03*
X304800000Y-116840000D03*
X307340000Y-114300000D03*
X307340000Y-116840000D03*
X309880000Y-114300000D03*
X309880000Y-116840000D03*
X312420000Y-114300000D03*
X312420000Y-116840000D03*
X314960000Y-114300000D03*
X314960000Y-116840000D03*
X317500000Y-114300000D03*
X317500000Y-116840000D03*
X320040000Y-114300000D03*
X320040000Y-116840000D03*
X322580000Y-114300000D03*
X322580000Y-116840000D03*
X325120000Y-114300000D03*
X325120000Y-116840000D03*
X327660000Y-114300000D03*
X327660000Y-116840000D03*
X330200000Y-114300000D03*
X330200000Y-116840000D03*
X332740000Y-114300000D03*
X332740000Y-116840000D03*
X335280000Y-114300000D03*
X335280000Y-116840000D03*
X337820000Y-114300000D03*
X337820000Y-116840000D03*
X340360000Y-114300000D03*
X340360000Y-116840000D03*
X342900000Y-114300000D03*
X342900000Y-116840000D03*
X345440000Y-114300000D03*
X345440000Y-116840000D03*
X347980000Y-114300000D03*
D16*
X347980000Y-116840000D03*
D15*
X299720000Y-53340000D03*
X299720000Y-55880000D03*
X302260000Y-53340000D03*
X302260000Y-55880000D03*
X304800000Y-53340000D03*
X304800000Y-55880000D03*
X307340000Y-53340000D03*
X307340000Y-55880000D03*
X309880000Y-53340000D03*
X309880000Y-55880000D03*
X312420000Y-53340000D03*
X312420000Y-55880000D03*
X314960000Y-53340000D03*
X314960000Y-55880000D03*
X317500000Y-53340000D03*
X317500000Y-55880000D03*
X320040000Y-53340000D03*
X320040000Y-55880000D03*
X322580000Y-53340000D03*
X322580000Y-55880000D03*
X325120000Y-53340000D03*
X325120000Y-55880000D03*
X327660000Y-53340000D03*
X327660000Y-55880000D03*
X330200000Y-53340000D03*
X330200000Y-55880000D03*
X332740000Y-53340000D03*
X332740000Y-55880000D03*
X335280000Y-53340000D03*
X335280000Y-55880000D03*
X337820000Y-53340000D03*
X337820000Y-55880000D03*
X340360000Y-53340000D03*
X340360000Y-55880000D03*
X342900000Y-53340000D03*
X342900000Y-55880000D03*
X345440000Y-53340000D03*
X345440000Y-55880000D03*
X347980000Y-53340000D03*
D16*
X347980000Y-55880000D03*
D15*
X299720000Y-129540000D03*
X299720000Y-132080000D03*
X302260000Y-129540000D03*
X302260000Y-132080000D03*
X304800000Y-129540000D03*
X304800000Y-132080000D03*
X307340000Y-129540000D03*
X307340000Y-132080000D03*
X309880000Y-129540000D03*
X309880000Y-132080000D03*
X312420000Y-129540000D03*
X312420000Y-132080000D03*
X314960000Y-129540000D03*
X314960000Y-132080000D03*
X317500000Y-129540000D03*
X317500000Y-132080000D03*
X320040000Y-129540000D03*
X320040000Y-132080000D03*
X322580000Y-129540000D03*
X322580000Y-132080000D03*
X325120000Y-129540000D03*
X325120000Y-132080000D03*
X327660000Y-129540000D03*
X327660000Y-132080000D03*
X330200000Y-129540000D03*
X330200000Y-132080000D03*
X332740000Y-129540000D03*
X332740000Y-132080000D03*
X335280000Y-129540000D03*
X335280000Y-132080000D03*
X337820000Y-129540000D03*
X337820000Y-132080000D03*
X340360000Y-129540000D03*
X340360000Y-132080000D03*
X342900000Y-129540000D03*
X342900000Y-132080000D03*
X345440000Y-129540000D03*
X345440000Y-132080000D03*
X347980000Y-129540000D03*
D16*
X347980000Y-132080000D03*
D15*
X299720000Y-99060000D03*
X299720000Y-101600000D03*
X302260000Y-99060000D03*
X302260000Y-101600000D03*
X304800000Y-99060000D03*
X304800000Y-101600000D03*
X307340000Y-99060000D03*
X307340000Y-101600000D03*
X309880000Y-99060000D03*
X309880000Y-101600000D03*
X312420000Y-99060000D03*
X312420000Y-101600000D03*
X314960000Y-99060000D03*
X314960000Y-101600000D03*
X317500000Y-99060000D03*
X317500000Y-101600000D03*
X320040000Y-99060000D03*
X320040000Y-101600000D03*
X322580000Y-99060000D03*
X322580000Y-101600000D03*
X325120000Y-99060000D03*
X325120000Y-101600000D03*
X327660000Y-99060000D03*
X327660000Y-101600000D03*
X330200000Y-99060000D03*
X330200000Y-101600000D03*
X332740000Y-99060000D03*
X332740000Y-101600000D03*
X335280000Y-99060000D03*
X335280000Y-101600000D03*
X337820000Y-99060000D03*
X337820000Y-101600000D03*
X340360000Y-99060000D03*
X340360000Y-101600000D03*
X342900000Y-99060000D03*
X342900000Y-101600000D03*
X345440000Y-99060000D03*
X345440000Y-101600000D03*
X347980000Y-99060000D03*
D16*
X347980000Y-101600000D03*
D15*
X299720000Y-68580000D03*
X299720000Y-71120000D03*
X302260000Y-68580000D03*
X302260000Y-71120000D03*
X304800000Y-68580000D03*
X304800000Y-71120000D03*
X307340000Y-68580000D03*
X307340000Y-71120000D03*
X309880000Y-68580000D03*
X309880000Y-71120000D03*
X312420000Y-68580000D03*
X312420000Y-71120000D03*
X314960000Y-68580000D03*
X314960000Y-71120000D03*
X317500000Y-68580000D03*
X317500000Y-71120000D03*
X320040000Y-68580000D03*
X320040000Y-71120000D03*
X322580000Y-68580000D03*
X322580000Y-71120000D03*
X325120000Y-68580000D03*
X325120000Y-71120000D03*
X327660000Y-68580000D03*
X327660000Y-71120000D03*
X330200000Y-68580000D03*
X330200000Y-71120000D03*
X332740000Y-68580000D03*
X332740000Y-71120000D03*
X335280000Y-68580000D03*
X335280000Y-71120000D03*
X337820000Y-68580000D03*
X337820000Y-71120000D03*
X340360000Y-68580000D03*
X340360000Y-71120000D03*
X342900000Y-68580000D03*
X342900000Y-71120000D03*
X345440000Y-68580000D03*
X345440000Y-71120000D03*
X347980000Y-68580000D03*
D16*
X347980000Y-71120000D03*
D12*
X175260000Y-198115800D03*
X152400000Y-190495800D03*
X172720000Y-198115800D03*
X154940000Y-190495800D03*
X170180000Y-198115800D03*
X157480000Y-190495800D03*
X167640000Y-198115800D03*
X160020000Y-190495800D03*
X165100000Y-198115800D03*
X162560000Y-190495800D03*
X162560000Y-198115800D03*
X165100000Y-190495800D03*
X160020000Y-198115800D03*
X167640000Y-190495800D03*
X157480000Y-198115800D03*
X170180000Y-190495800D03*
X154940000Y-198115800D03*
X172720000Y-190495800D03*
X152400000Y-198115800D03*
D13*
X175260000Y-190495800D03*
D14*
X341710000Y-182880000D03*
X346710000Y-182880000D03*
X358140000Y-228600000D03*
X358140000Y-220980000D03*
X342900000Y-220980000D03*
D13*
X342900000Y-228600000D03*
D12*
X355600000Y-204470000D03*
D14*
X347980000Y-204470000D03*
D12*
X350520000Y-184150000D03*
D14*
X358140000Y-184150000D03*
D12*
X369570000Y-195580000D03*
D14*
X361950000Y-195580000D03*
X355520000Y-190500000D03*
X350520000Y-190500000D03*
X355520000Y-196850000D03*
X350520000Y-196850000D03*
D12*
X290830000Y-189230000D03*
D14*
X298450000Y-189230000D03*
D12*
X298450000Y-182880000D03*
D14*
X290830000Y-182880000D03*
X297100000Y-204470000D03*
X292100000Y-204470000D03*
X295370000Y-196850000D03*
D13*
X293370000Y-196850000D03*
D12*
X256540000Y-53340000D03*
X233680000Y-45720000D03*
X254000000Y-53340000D03*
X236220000Y-45720000D03*
X251460000Y-53340000D03*
X238760000Y-45720000D03*
X248920000Y-53340000D03*
X241300000Y-45720000D03*
X246380000Y-53340000D03*
X243840000Y-45720000D03*
X243840000Y-53340000D03*
X246380000Y-45720000D03*
X241300000Y-53340000D03*
X248920000Y-45720000D03*
X238760000Y-53340000D03*
X251460000Y-45720000D03*
X236220000Y-53340000D03*
X254000000Y-45720000D03*
X233680000Y-53340000D03*
D13*
X256540000Y-45720000D03*
D12*
X149860000Y-170180000D03*
X187960000Y-185420000D03*
X152400000Y-170180000D03*
X185420000Y-185420000D03*
X154940000Y-170180000D03*
X182880000Y-185420000D03*
X157480000Y-170180000D03*
X180340000Y-185420000D03*
X160020000Y-170180000D03*
X177800000Y-185420000D03*
X162560000Y-170180000D03*
X175260000Y-185420000D03*
X165100000Y-170180000D03*
X172720000Y-185420000D03*
X167640000Y-170180000D03*
X170180000Y-185420000D03*
X170180000Y-170180000D03*
X167640000Y-185420000D03*
X172720000Y-170180000D03*
X165100000Y-185420000D03*
X175260000Y-170180000D03*
X162560000Y-185420000D03*
X177800000Y-170180000D03*
X160020000Y-185420000D03*
X180340000Y-170180000D03*
X157480000Y-185420000D03*
X182880000Y-170180000D03*
X154940000Y-185420000D03*
X185420000Y-170180000D03*
X152400000Y-185420000D03*
X187960000Y-170180000D03*
D13*
X149860000Y-185420000D03*
D12*
X220980000Y-53340000D03*
X198120000Y-45720000D03*
X218440000Y-53340000D03*
X200660000Y-45720000D03*
X215900000Y-53340000D03*
X203200000Y-45720000D03*
X213360000Y-53340000D03*
X205740000Y-45720000D03*
X210820000Y-53340000D03*
X208280000Y-45720000D03*
X208280000Y-53340000D03*
X210820000Y-45720000D03*
X205740000Y-53340000D03*
X213360000Y-45720000D03*
X203200000Y-53340000D03*
X215900000Y-45720000D03*
X200660000Y-53340000D03*
X218440000Y-45720000D03*
X198120000Y-53340000D03*
D13*
X220980000Y-45720000D03*
D15*
X149860000Y-139700000D03*
X152400000Y-139700000D03*
X154940000Y-139700000D03*
X157480000Y-139700000D03*
X160020000Y-139700000D03*
X162560000Y-139700000D03*
X165100000Y-139700000D03*
D16*
X167640000Y-139700000D03*
D15*
X185420000Y-139700000D03*
X187960000Y-139700000D03*
X190500000Y-139700000D03*
X193040000Y-139700000D03*
X195580000Y-139700000D03*
X198120000Y-139700000D03*
X200660000Y-139700000D03*
D16*
X203200000Y-139700000D03*
D15*
X149860000Y-96520000D03*
X152400000Y-96520000D03*
X154940000Y-96520000D03*
X157480000Y-96520000D03*
X160020000Y-96520000D03*
X162560000Y-96520000D03*
X165100000Y-96520000D03*
X167640000Y-96520000D03*
D16*
X170180000Y-96520000D03*
D15*
X185420000Y-96520000D03*
X187960000Y-96520000D03*
X190500000Y-96520000D03*
X193040000Y-96520000D03*
X195580000Y-96520000D03*
X198120000Y-96520000D03*
X200660000Y-96520000D03*
X203200000Y-96520000D03*
D16*
X205740000Y-96520000D03*
D12*
X175260000Y-246380000D03*
X167640000Y-269240000D03*
X175260000Y-248920000D03*
X167640000Y-266700000D03*
X175260000Y-251460000D03*
X167640000Y-264160000D03*
X175260000Y-254000000D03*
X167640000Y-261620000D03*
X175260000Y-256540000D03*
X167640000Y-259080000D03*
X175260000Y-259080000D03*
X167640000Y-256540000D03*
X175260000Y-261620000D03*
X167640000Y-254000000D03*
X175260000Y-264160000D03*
X167640000Y-251460000D03*
X175260000Y-266700000D03*
X167640000Y-248920000D03*
X175260000Y-269240000D03*
D13*
X167640000Y-246380000D03*
D12*
X246380000Y-276860000D03*
X223520000Y-269240000D03*
X243840000Y-276860000D03*
X226060000Y-269240000D03*
X241300000Y-276860000D03*
X228600000Y-269240000D03*
X238760000Y-276860000D03*
X231140000Y-269240000D03*
X236220000Y-276860000D03*
X233680000Y-269240000D03*
X233680000Y-276860000D03*
X236220000Y-269240000D03*
X231140000Y-276860000D03*
X238760000Y-269240000D03*
X228600000Y-276860000D03*
X241300000Y-269240000D03*
X226060000Y-276860000D03*
X243840000Y-269240000D03*
X223520000Y-276860000D03*
D13*
X246380000Y-269240000D03*
D12*
X195580000Y-246380000D03*
X180340000Y-274320000D03*
X195580000Y-248920000D03*
X180340000Y-271780000D03*
X195580000Y-251460000D03*
X180340000Y-269240000D03*
X195580000Y-254000000D03*
X180340000Y-266700000D03*
X195580000Y-256540000D03*
X180340000Y-264160000D03*
X195580000Y-259080000D03*
X180340000Y-261620000D03*
X195580000Y-261620000D03*
X180340000Y-259080000D03*
X195580000Y-264160000D03*
X180340000Y-256540000D03*
X195580000Y-266700000D03*
X180340000Y-254000000D03*
X195580000Y-269240000D03*
X180340000Y-251460000D03*
X195580000Y-271780000D03*
X180340000Y-248920000D03*
X195580000Y-274320000D03*
D13*
X180340000Y-246380000D03*
D12*
X215900000Y-246380000D03*
X200660000Y-274320000D03*
X215900000Y-248920000D03*
X200660000Y-271780000D03*
X215900000Y-251460000D03*
X200660000Y-269240000D03*
X215900000Y-254000000D03*
X200660000Y-266700000D03*
X215900000Y-256540000D03*
X200660000Y-264160000D03*
X215900000Y-259080000D03*
X200660000Y-261620000D03*
X215900000Y-261620000D03*
X200660000Y-259080000D03*
X215900000Y-264160000D03*
X200660000Y-256540000D03*
X215900000Y-266700000D03*
X200660000Y-254000000D03*
X215900000Y-269240000D03*
X200660000Y-251460000D03*
X215900000Y-271780000D03*
X200660000Y-248920000D03*
X215900000Y-274320000D03*
D13*
X200660000Y-246380000D03*
D12*
X246380000Y-256540000D03*
X223520000Y-248920000D03*
X243840000Y-256540000D03*
X226060000Y-248920000D03*
X241300000Y-256540000D03*
X228600000Y-248920000D03*
X238760000Y-256540000D03*
X231140000Y-248920000D03*
X236220000Y-256540000D03*
X233680000Y-248920000D03*
X233680000Y-256540000D03*
X236220000Y-248920000D03*
X231140000Y-256540000D03*
X238760000Y-248920000D03*
X228600000Y-256540000D03*
X241300000Y-248920000D03*
X226060000Y-256540000D03*
X243840000Y-248920000D03*
X223520000Y-256540000D03*
D13*
X246380000Y-248920000D03*
D12*
X210820000Y-233680000D03*
X187960000Y-226060000D03*
X208280000Y-233680000D03*
X190500000Y-226060000D03*
X205740000Y-233680000D03*
X193040000Y-226060000D03*
X203200000Y-233680000D03*
X195580000Y-226060000D03*
X200660000Y-233680000D03*
X198120000Y-226060000D03*
X198120000Y-233680000D03*
X200660000Y-226060000D03*
X195580000Y-233680000D03*
X203200000Y-226060000D03*
X193040000Y-233680000D03*
X205740000Y-226060000D03*
X190500000Y-233680000D03*
X208280000Y-226060000D03*
X187960000Y-233680000D03*
D13*
X210820000Y-226060000D03*
D12*
X246380000Y-236220000D03*
X223520000Y-228600000D03*
X243840000Y-236220000D03*
X226060000Y-228600000D03*
X241300000Y-236220000D03*
X228600000Y-228600000D03*
X238760000Y-236220000D03*
X231140000Y-228600000D03*
X236220000Y-236220000D03*
X233680000Y-228600000D03*
X233680000Y-236220000D03*
X236220000Y-228600000D03*
X231140000Y-236220000D03*
X238760000Y-228600000D03*
X228600000Y-236220000D03*
X241300000Y-228600000D03*
X226060000Y-236220000D03*
X243840000Y-228600000D03*
X223520000Y-236220000D03*
D13*
X246380000Y-228600000D03*
D12*
X175260000Y-233680000D03*
X152400000Y-226060000D03*
X172720000Y-233680000D03*
X154940000Y-226060000D03*
X170180000Y-233680000D03*
X157480000Y-226060000D03*
X167640000Y-233680000D03*
X160020000Y-226060000D03*
X165100000Y-233680000D03*
X162560000Y-226060000D03*
X162560000Y-233680000D03*
X165100000Y-226060000D03*
X160020000Y-233680000D03*
X167640000Y-226060000D03*
X157480000Y-233680000D03*
X170180000Y-226060000D03*
X154940000Y-233680000D03*
X172720000Y-226060000D03*
X152400000Y-233680000D03*
D13*
X175260000Y-226060000D03*
D12*
X309880000Y-189230000D03*
X302260000Y-207010000D03*
X309880000Y-191770000D03*
X302260000Y-204470000D03*
X309880000Y-194310000D03*
X302260000Y-201930000D03*
X309880000Y-196850000D03*
X302260000Y-199390000D03*
X309880000Y-199390000D03*
X302260000Y-196850000D03*
X309880000Y-201930000D03*
X302260000Y-194310000D03*
X309880000Y-204470000D03*
X302260000Y-191770000D03*
X309880000Y-207010000D03*
D13*
X302260000Y-189230000D03*
D12*
X322580000Y-189230000D03*
X314960000Y-204470000D03*
X322580000Y-191770000D03*
X314960000Y-201930000D03*
X322580000Y-194310000D03*
X314960000Y-199390000D03*
X322580000Y-196850000D03*
X314960000Y-196850000D03*
X322580000Y-199390000D03*
X314960000Y-194310000D03*
X322580000Y-201930000D03*
X314960000Y-191770000D03*
X322580000Y-204470000D03*
D13*
X314960000Y-189230000D03*
D12*
X335280000Y-189230000D03*
X327660000Y-204470000D03*
X335280000Y-191770000D03*
X327660000Y-201930000D03*
X335280000Y-194310000D03*
X327660000Y-199390000D03*
X335280000Y-196850000D03*
X327660000Y-196850000D03*
X335280000Y-199390000D03*
X327660000Y-194310000D03*
X335280000Y-201930000D03*
X327660000Y-191770000D03*
X335280000Y-204470000D03*
D13*
X327660000Y-189230000D03*
D17*
X341630000Y-204470000D03*
D18*
X344170000Y-204470000D03*
X342900000Y-203200000D03*
D12*
X347980000Y-189230000D03*
X340360000Y-196850000D03*
X347980000Y-191770000D03*
X340360000Y-194310000D03*
X347980000Y-194310000D03*
X340360000Y-191770000D03*
X347980000Y-196850000D03*
D13*
X340360000Y-189230000D03*
D12*
X309880000Y-219710000D03*
X302260000Y-234950000D03*
X309880000Y-222250000D03*
X302260000Y-232410000D03*
X309880000Y-224790000D03*
X302260000Y-229870000D03*
X309880000Y-227330000D03*
X302260000Y-227330000D03*
X309880000Y-229870000D03*
X302260000Y-224790000D03*
X309880000Y-232410000D03*
X302260000Y-222250000D03*
X309880000Y-234950000D03*
D13*
X302260000Y-219710000D03*
D12*
X322580000Y-219710000D03*
X314960000Y-234950000D03*
X322580000Y-222250000D03*
X314960000Y-232410000D03*
X322580000Y-224790000D03*
X314960000Y-229870000D03*
X322580000Y-227330000D03*
X314960000Y-227330000D03*
X322580000Y-229870000D03*
X314960000Y-224790000D03*
X322580000Y-232410000D03*
X314960000Y-222250000D03*
X322580000Y-234950000D03*
D13*
X314960000Y-219710000D03*
D12*
X297180000Y-219710000D03*
X289560000Y-237490000D03*
X297180000Y-222250000D03*
X289560000Y-234950000D03*
X297180000Y-224790000D03*
X289560000Y-232410000D03*
X297180000Y-227330000D03*
X289560000Y-229870000D03*
X297180000Y-229870000D03*
X289560000Y-227330000D03*
X297180000Y-232410000D03*
X289560000Y-224790000D03*
X297180000Y-234950000D03*
X289560000Y-222250000D03*
X297180000Y-237490000D03*
D13*
X289560000Y-219710000D03*
D12*
X335280000Y-219710000D03*
X327660000Y-234950000D03*
X335280000Y-222250000D03*
X327660000Y-232410000D03*
X335280000Y-224790000D03*
X327660000Y-229870000D03*
X335280000Y-227330000D03*
X327660000Y-227330000D03*
X335280000Y-229870000D03*
X327660000Y-224790000D03*
X335280000Y-232410000D03*
X327660000Y-222250000D03*
X335280000Y-234950000D03*
D13*
X327660000Y-219710000D03*
D12*
X287020000Y-189230000D03*
X279400000Y-196850000D03*
X287020000Y-191770000D03*
X279400000Y-194310000D03*
X287020000Y-194310000D03*
X279400000Y-191770000D03*
X287020000Y-196850000D03*
D13*
X279400000Y-189230000D03*
D12*
X284480000Y-219710000D03*
X276860000Y-234950000D03*
X284480000Y-222250000D03*
X276860000Y-232410000D03*
X284480000Y-224790000D03*
X276860000Y-229870000D03*
X284480000Y-227330000D03*
X276860000Y-227330000D03*
X284480000Y-229870000D03*
X276860000Y-224790000D03*
X284480000Y-232410000D03*
X276860000Y-222250000D03*
X284480000Y-234950000D03*
D13*
X276860000Y-219710000D03*
D12*
X351790000Y-271780000D03*
X344170000Y-279400000D03*
X351790000Y-274320000D03*
X344170000Y-276860000D03*
X351790000Y-276860000D03*
X344170000Y-274320000D03*
X351790000Y-279400000D03*
D13*
X344170000Y-271780000D03*
D12*
X331470000Y-271780000D03*
X323850000Y-279400000D03*
X331470000Y-274320000D03*
X323850000Y-276860000D03*
X331470000Y-276860000D03*
X323850000Y-274320000D03*
X331470000Y-279400000D03*
D13*
X323850000Y-271780000D03*
D12*
X360676200Y-256538200D03*
X322576200Y-241298200D03*
X358136200Y-256538200D03*
X325116200Y-241298200D03*
X355596200Y-256538200D03*
X327656200Y-241298200D03*
X353056200Y-256538200D03*
X330196200Y-241298200D03*
X350516200Y-256538200D03*
X332736200Y-241298200D03*
X347976200Y-256538200D03*
X335276200Y-241298200D03*
X345436200Y-256538200D03*
X337816200Y-241298200D03*
X342896200Y-256538200D03*
X340356200Y-241298200D03*
X340356200Y-256538200D03*
X342896200Y-241298200D03*
X337816200Y-256538200D03*
X345436200Y-241298200D03*
X335276200Y-256538200D03*
X347976200Y-241298200D03*
X332736200Y-256538200D03*
X350516200Y-241298200D03*
X330196200Y-256538200D03*
X353056200Y-241298200D03*
X327656200Y-256538200D03*
X355596200Y-241298200D03*
X325116200Y-256538200D03*
X358136200Y-241298200D03*
X322576200Y-256538200D03*
D13*
X360676200Y-241298200D03*
D12*
X300990000Y-271780000D03*
X293370000Y-279400000D03*
X300990000Y-274320000D03*
X293370000Y-276860000D03*
X300990000Y-276860000D03*
X293370000Y-274320000D03*
X300990000Y-279400000D03*
D13*
X293370000Y-271780000D03*
D12*
X306070000Y-251460000D03*
X298450000Y-259080000D03*
X306070000Y-254000000D03*
X298450000Y-256540000D03*
X306070000Y-256540000D03*
X298450000Y-254000000D03*
X306070000Y-259080000D03*
D13*
X298450000Y-251460000D03*
D12*
X246380000Y-215900000D03*
X223520000Y-208280000D03*
X243840000Y-215900000D03*
X226060000Y-208280000D03*
X241300000Y-215900000D03*
X228600000Y-208280000D03*
X238760000Y-215900000D03*
X231140000Y-208280000D03*
X236220000Y-215900000D03*
X233680000Y-208280000D03*
X233680000Y-215900000D03*
X236220000Y-208280000D03*
X231140000Y-215900000D03*
X238760000Y-208280000D03*
X228600000Y-215900000D03*
X241300000Y-208280000D03*
X226060000Y-215900000D03*
X243840000Y-208280000D03*
X223520000Y-215900000D03*
D13*
X246380000Y-208280000D03*
D12*
X246389000Y-198115800D03*
X223529000Y-190495800D03*
X243849000Y-198115800D03*
X226069000Y-190495800D03*
X241309000Y-198115800D03*
X228609000Y-190495800D03*
X238769000Y-198115800D03*
X231149000Y-190495800D03*
X236229000Y-198115800D03*
X233689000Y-190495800D03*
X233689000Y-198115800D03*
X236229000Y-190495800D03*
X231149000Y-198115800D03*
X238769000Y-190495800D03*
X228609000Y-198115800D03*
X241309000Y-190495800D03*
X226069000Y-198115800D03*
X243849000Y-190495800D03*
X223529000Y-198115800D03*
D13*
X246389000Y-190495800D03*
D12*
X210829000Y-198115800D03*
X187969000Y-190495800D03*
X208289000Y-198115800D03*
X190509000Y-190495800D03*
X205749000Y-198115800D03*
X193049000Y-190495800D03*
X203209000Y-198115800D03*
X195589000Y-190495800D03*
X200669000Y-198115800D03*
X198129000Y-190495800D03*
X198129000Y-198115800D03*
X200669000Y-190495800D03*
X195589000Y-198115800D03*
X203209000Y-190495800D03*
X193049000Y-198115800D03*
X205749000Y-190495800D03*
X190509000Y-198115800D03*
X208289000Y-190495800D03*
X187969000Y-198115800D03*
D13*
X210829000Y-190495800D03*
D12*
X200660000Y-170180000D03*
X238760000Y-185420000D03*
X203200000Y-170180000D03*
X236220000Y-185420000D03*
X205740000Y-170180000D03*
X233680000Y-185420000D03*
X208280000Y-170180000D03*
X231140000Y-185420000D03*
X210820000Y-170180000D03*
X228600000Y-185420000D03*
X213360000Y-170180000D03*
X226060000Y-185420000D03*
X215900000Y-170180000D03*
X223520000Y-185420000D03*
X218440000Y-170180000D03*
X220980000Y-185420000D03*
X220980000Y-170180000D03*
X218440000Y-185420000D03*
X223520000Y-170180000D03*
X215900000Y-185420000D03*
X226060000Y-170180000D03*
X213360000Y-185420000D03*
X228600000Y-170180000D03*
X210820000Y-185420000D03*
X231140000Y-170180000D03*
X208280000Y-185420000D03*
X233680000Y-170180000D03*
X205740000Y-185420000D03*
X236220000Y-170180000D03*
X203200000Y-185420000D03*
X238760000Y-170180000D03*
D13*
X200660000Y-185420000D03*
D12*
X220980000Y-165100000D03*
X198120000Y-157480000D03*
X218440000Y-165100000D03*
X200660000Y-157480000D03*
X215900000Y-165100000D03*
X203200000Y-157480000D03*
X213360000Y-165100000D03*
X205740000Y-157480000D03*
X210820000Y-165100000D03*
X208280000Y-157480000D03*
X208280000Y-165100000D03*
X210820000Y-157480000D03*
X205740000Y-165100000D03*
X213360000Y-157480000D03*
X203200000Y-165100000D03*
X215900000Y-157480000D03*
X200660000Y-165100000D03*
X218440000Y-157480000D03*
X198120000Y-165100000D03*
D13*
X220980000Y-157480000D03*
D12*
X165100000Y-152400000D03*
X147320000Y-144780000D03*
X162560000Y-152400000D03*
X149860000Y-144780000D03*
X160020000Y-152400000D03*
X152400000Y-144780000D03*
X157480000Y-152400000D03*
X154940000Y-144780000D03*
X154940000Y-152400000D03*
X157480000Y-144780000D03*
X152400000Y-152400000D03*
X160020000Y-144780000D03*
X149860000Y-152400000D03*
X162560000Y-144780000D03*
X147320000Y-152400000D03*
D13*
X165100000Y-144780000D03*
D12*
X195580000Y-152400000D03*
X177800000Y-144780000D03*
X193040000Y-152400000D03*
X180340000Y-144780000D03*
X190500000Y-152400000D03*
X182880000Y-144780000D03*
X187960000Y-152400000D03*
X185420000Y-144780000D03*
X185420000Y-152400000D03*
X187960000Y-144780000D03*
X182880000Y-152400000D03*
X190500000Y-144780000D03*
X180340000Y-152400000D03*
X193040000Y-144780000D03*
X177800000Y-152400000D03*
D13*
X195580000Y-144780000D03*
D12*
X256540000Y-165100000D03*
X233680000Y-157480000D03*
X254000000Y-165100000D03*
X236220000Y-157480000D03*
X251460000Y-165100000D03*
X238760000Y-157480000D03*
X248920000Y-165100000D03*
X241300000Y-157480000D03*
X246380000Y-165100000D03*
X243840000Y-157480000D03*
X243840000Y-165100000D03*
X246380000Y-157480000D03*
X241300000Y-165100000D03*
X248920000Y-157480000D03*
X238760000Y-165100000D03*
X251460000Y-157480000D03*
X236220000Y-165100000D03*
X254000000Y-157480000D03*
X233680000Y-165100000D03*
D13*
X256540000Y-157480000D03*
D12*
X226060000Y-152400000D03*
X208280000Y-144780000D03*
X223520000Y-152400000D03*
X210820000Y-144780000D03*
X220980000Y-152400000D03*
X213360000Y-144780000D03*
X218440000Y-152400000D03*
X215900000Y-144780000D03*
X215900000Y-152400000D03*
X218440000Y-144780000D03*
X213360000Y-152400000D03*
X220980000Y-144780000D03*
X210820000Y-152400000D03*
X223520000Y-144780000D03*
X208280000Y-152400000D03*
D13*
X226060000Y-144780000D03*
D12*
X256540000Y-152400000D03*
X238760000Y-144780000D03*
X254000000Y-152400000D03*
X241300000Y-144780000D03*
X251460000Y-152400000D03*
X243840000Y-144780000D03*
X248920000Y-152400000D03*
X246380000Y-144780000D03*
X246380000Y-152400000D03*
X248920000Y-144780000D03*
X243840000Y-152400000D03*
X251460000Y-144780000D03*
X241300000Y-152400000D03*
X254000000Y-144780000D03*
X238760000Y-152400000D03*
D13*
X256540000Y-144780000D03*
D12*
X256540000Y-121920000D03*
X233680000Y-114300000D03*
X254000000Y-121920000D03*
X236220000Y-114300000D03*
X251460000Y-121920000D03*
X238760000Y-114300000D03*
X248920000Y-121920000D03*
X241300000Y-114300000D03*
X246380000Y-121920000D03*
X243840000Y-114300000D03*
X243840000Y-121920000D03*
X246380000Y-114300000D03*
X241300000Y-121920000D03*
X248920000Y-114300000D03*
X238760000Y-121920000D03*
X251460000Y-114300000D03*
X236220000Y-121920000D03*
X254000000Y-114300000D03*
X233680000Y-121920000D03*
D13*
X256540000Y-114300000D03*
D12*
X256540000Y-134620000D03*
X233680000Y-127000000D03*
X254000000Y-134620000D03*
X236220000Y-127000000D03*
X251460000Y-134620000D03*
X238760000Y-127000000D03*
X248920000Y-134620000D03*
X241300000Y-127000000D03*
X246380000Y-134620000D03*
X243840000Y-127000000D03*
X243840000Y-134620000D03*
X246380000Y-127000000D03*
X241300000Y-134620000D03*
X248920000Y-127000000D03*
X238760000Y-134620000D03*
X251460000Y-127000000D03*
X236220000Y-134620000D03*
X254000000Y-127000000D03*
X233680000Y-134620000D03*
D13*
X256540000Y-127000000D03*
D12*
X220675800Y-121920000D03*
X187655800Y-114300000D03*
X218135800Y-121920000D03*
X190195800Y-114300000D03*
X215595800Y-121920000D03*
X192735800Y-114300000D03*
X213055800Y-121920000D03*
X195275800Y-114300000D03*
X210515800Y-121920000D03*
X197815800Y-114300000D03*
X207975800Y-121920000D03*
X200355800Y-114300000D03*
X205435800Y-121920000D03*
X202895800Y-114300000D03*
X202895800Y-121920000D03*
X205435800Y-114300000D03*
X200355800Y-121920000D03*
X207975800Y-114300000D03*
X197815800Y-121920000D03*
X210515800Y-114300000D03*
X195275800Y-121920000D03*
X213055800Y-114300000D03*
X192735800Y-121920000D03*
X215595800Y-114300000D03*
X190195800Y-121920000D03*
X218135800Y-114300000D03*
X187655800Y-121920000D03*
D13*
X220675800Y-114300000D03*
D12*
X220980000Y-134620000D03*
X187960000Y-127000000D03*
X218440000Y-134620000D03*
X190500000Y-127000000D03*
X215900000Y-134620000D03*
X193040000Y-127000000D03*
X213360000Y-134620000D03*
X195580000Y-127000000D03*
X210820000Y-134620000D03*
X198120000Y-127000000D03*
X208280000Y-134620000D03*
X200660000Y-127000000D03*
X205740000Y-134620000D03*
X203200000Y-127000000D03*
X203200000Y-134620000D03*
X205740000Y-127000000D03*
X200660000Y-134620000D03*
X208280000Y-127000000D03*
X198120000Y-134620000D03*
X210820000Y-127000000D03*
X195580000Y-134620000D03*
X213360000Y-127000000D03*
X193040000Y-134620000D03*
X215900000Y-127000000D03*
X190500000Y-134620000D03*
X218440000Y-127000000D03*
X187960000Y-134620000D03*
D13*
X220980000Y-127000000D03*
D12*
X165122000Y-109175200D03*
X147342000Y-101555200D03*
X162582000Y-109175200D03*
X149882000Y-101555200D03*
X160042000Y-109175200D03*
X152422000Y-101555200D03*
X157502000Y-109175200D03*
X154962000Y-101555200D03*
X154962000Y-109175200D03*
X157502000Y-101555200D03*
X152422000Y-109175200D03*
X160042000Y-101555200D03*
X149882000Y-109175200D03*
X162582000Y-101555200D03*
X147342000Y-109175200D03*
D13*
X165122000Y-101555200D03*
D12*
X195602000Y-109175200D03*
X177822000Y-101555200D03*
X193062000Y-109175200D03*
X180362000Y-101555200D03*
X190522000Y-109175200D03*
X182902000Y-101555200D03*
X187982000Y-109175200D03*
X185442000Y-101555200D03*
X185442000Y-109175200D03*
X187982000Y-101555200D03*
X182902000Y-109175200D03*
X190522000Y-101555200D03*
X180362000Y-109175200D03*
X193062000Y-101555200D03*
X177822000Y-109175200D03*
D13*
X195602000Y-101555200D03*
D12*
X226082000Y-109175200D03*
X208302000Y-101555200D03*
X223542000Y-109175200D03*
X210842000Y-101555200D03*
X221002000Y-109175200D03*
X213382000Y-101555200D03*
X218462000Y-109175200D03*
X215922000Y-101555200D03*
X215922000Y-109175200D03*
X218462000Y-101555200D03*
X213382000Y-109175200D03*
X221002000Y-101555200D03*
X210842000Y-109175200D03*
X223542000Y-101555200D03*
X208302000Y-109175200D03*
D13*
X226082000Y-101555200D03*
D12*
X256562000Y-109175200D03*
X238782000Y-101555200D03*
X254022000Y-109175200D03*
X241322000Y-101555200D03*
X251482000Y-109175200D03*
X243862000Y-101555200D03*
X248942000Y-109175200D03*
X246402000Y-101555200D03*
X246402000Y-109175200D03*
X248942000Y-101555200D03*
X243862000Y-109175200D03*
X251482000Y-101555200D03*
X241322000Y-109175200D03*
X254022000Y-101555200D03*
X238782000Y-109175200D03*
D13*
X256562000Y-101555200D03*
D12*
X170174000Y-91446000D03*
X147314000Y-83826000D03*
X167634000Y-91446000D03*
X149854000Y-83826000D03*
X165094000Y-91446000D03*
X152394000Y-83826000D03*
X162554000Y-91446000D03*
X154934000Y-83826000D03*
X160014000Y-91446000D03*
X157474000Y-83826000D03*
X157474000Y-91446000D03*
X160014000Y-83826000D03*
X154934000Y-91446000D03*
X162554000Y-83826000D03*
X152394000Y-91446000D03*
X165094000Y-83826000D03*
X149854000Y-91446000D03*
X167634000Y-83826000D03*
X147314000Y-91446000D03*
D13*
X170174000Y-83826000D03*
D12*
X205734000Y-91446000D03*
X182874000Y-83826000D03*
X203194000Y-91446000D03*
X185414000Y-83826000D03*
X200654000Y-91446000D03*
X187954000Y-83826000D03*
X198114000Y-91446000D03*
X190494000Y-83826000D03*
X195574000Y-91446000D03*
X193034000Y-83826000D03*
X193034000Y-91446000D03*
X195574000Y-83826000D03*
X190494000Y-91446000D03*
X198114000Y-83826000D03*
X187954000Y-91446000D03*
X200654000Y-83826000D03*
X185414000Y-91446000D03*
X203194000Y-83826000D03*
X182874000Y-91446000D03*
D13*
X205734000Y-83826000D03*
D12*
X165100000Y-78740000D03*
X147320000Y-71120000D03*
X162560000Y-78740000D03*
X149860000Y-71120000D03*
X160020000Y-78740000D03*
X152400000Y-71120000D03*
X157480000Y-78740000D03*
X154940000Y-71120000D03*
X154940000Y-78740000D03*
X157480000Y-71120000D03*
X152400000Y-78740000D03*
X160020000Y-71120000D03*
X149860000Y-78740000D03*
X162560000Y-71120000D03*
X147320000Y-78740000D03*
D13*
X165100000Y-71120000D03*
D12*
X195580000Y-78740000D03*
X177800000Y-71120000D03*
X193040000Y-78740000D03*
X180340000Y-71120000D03*
X190500000Y-78740000D03*
X182880000Y-71120000D03*
X187960000Y-78740000D03*
X185420000Y-71120000D03*
X185420000Y-78740000D03*
X187960000Y-71120000D03*
X182880000Y-78740000D03*
X190500000Y-71120000D03*
X180340000Y-78740000D03*
X193040000Y-71120000D03*
X177800000Y-78740000D03*
D13*
X195580000Y-71120000D03*
D12*
X226060000Y-78740000D03*
X208280000Y-71120000D03*
X223520000Y-78740000D03*
X210820000Y-71120000D03*
X220980000Y-78740000D03*
X213360000Y-71120000D03*
X218440000Y-78740000D03*
X215900000Y-71120000D03*
X215900000Y-78740000D03*
X218440000Y-71120000D03*
X213360000Y-78740000D03*
X220980000Y-71120000D03*
X210820000Y-78740000D03*
X223520000Y-71120000D03*
X208280000Y-78740000D03*
D13*
X226060000Y-71120000D03*
D12*
X256540000Y-78740000D03*
X238760000Y-71120000D03*
X254000000Y-78740000D03*
X241300000Y-71120000D03*
X251460000Y-78740000D03*
X243840000Y-71120000D03*
X248920000Y-78740000D03*
X246380000Y-71120000D03*
X246380000Y-78740000D03*
X248920000Y-71120000D03*
X243840000Y-78740000D03*
X251460000Y-71120000D03*
X241300000Y-78740000D03*
X254000000Y-71120000D03*
X238760000Y-78740000D03*
D13*
X256540000Y-71120000D03*
D12*
X256540000Y-66040000D03*
X233680000Y-58420000D03*
X254000000Y-66040000D03*
X236220000Y-58420000D03*
X251460000Y-66040000D03*
X238760000Y-58420000D03*
X248920000Y-66040000D03*
X241300000Y-58420000D03*
X246380000Y-66040000D03*
X243840000Y-58420000D03*
X243840000Y-66040000D03*
X246380000Y-58420000D03*
X241300000Y-66040000D03*
X248920000Y-58420000D03*
X238760000Y-66040000D03*
X251460000Y-58420000D03*
X236220000Y-66040000D03*
X254000000Y-58420000D03*
X233680000Y-66040000D03*
D13*
X256540000Y-58420000D03*
D12*
X220980000Y-66040000D03*
X198120000Y-58420000D03*
X218440000Y-66040000D03*
X200660000Y-58420000D03*
X215900000Y-66040000D03*
X203200000Y-58420000D03*
X213360000Y-66040000D03*
X205740000Y-58420000D03*
X210820000Y-66040000D03*
X208280000Y-58420000D03*
X208280000Y-66040000D03*
X210820000Y-58420000D03*
X205740000Y-66040000D03*
X213360000Y-58420000D03*
X203200000Y-66040000D03*
X215900000Y-58420000D03*
X200660000Y-66040000D03*
X218440000Y-58420000D03*
X198120000Y-66040000D03*
D13*
X220980000Y-58420000D03*
D12*
X320040000Y-139700000D03*
X337820000Y-147320000D03*
X322580000Y-139700000D03*
X335280000Y-147320000D03*
X325120000Y-139700000D03*
X332740000Y-147320000D03*
X327660000Y-139700000D03*
X330200000Y-147320000D03*
X330200000Y-139700000D03*
X327660000Y-147320000D03*
X332740000Y-139700000D03*
X325120000Y-147320000D03*
X335280000Y-139700000D03*
X322580000Y-147320000D03*
X337820000Y-139700000D03*
D13*
X320040000Y-147320000D03*
D12*
X284480000Y-139700000D03*
X307340000Y-147320000D03*
X287020000Y-139700000D03*
X304800000Y-147320000D03*
X289560000Y-139700000D03*
X302260000Y-147320000D03*
X292100000Y-139700000D03*
X299720000Y-147320000D03*
X294640000Y-139700000D03*
X297180000Y-147320000D03*
X297180000Y-139700000D03*
X294640000Y-147320000D03*
X299720000Y-139700000D03*
X292100000Y-147320000D03*
X302260000Y-139700000D03*
X289560000Y-147320000D03*
X304800000Y-139700000D03*
X287020000Y-147320000D03*
X307340000Y-139700000D03*
D13*
X284480000Y-147320000D03*
D19*
X368450000Y-184150000D03*
X368450000Y-188650000D03*
X361950000Y-184150000D03*
X361950000Y-188650000D03*
X285900000Y-202692000D03*
X285900000Y-207192000D03*
X279400000Y-202692000D03*
X279400000Y-207192000D03*
D20*
X279400000Y-246380000D03*
X281900000Y-248880000D03*
X279400000Y-251380000D03*
D12*
X267970000Y-45720000D03*
X270510000Y-45720000D03*
X273050000Y-45720000D03*
X275590000Y-45720000D03*
X278130000Y-45720000D03*
X280670000Y-45720000D03*
X283210000Y-45720000D03*
X285750000Y-45720000D03*
D13*
X288290000Y-45720000D03*
D12*
X162560000Y-260350000D03*
D14*
X154940000Y-260350000D03*
D12*
X162560000Y-255270000D03*
D14*
X154940000Y-255270000D03*
D12*
X162560000Y-250190000D03*
D14*
X154940000Y-250190000D03*
D12*
X358140000Y-234950000D03*
D14*
X365760000Y-234950000D03*
D12*
X361950000Y-279400000D03*
D14*
X354330000Y-279400000D03*
D12*
X361950000Y-275590000D03*
D14*
X354330000Y-275590000D03*
D12*
X361950000Y-271780000D03*
D14*
X354330000Y-271780000D03*
D12*
X341630000Y-279400000D03*
D14*
X334010000Y-279400000D03*
D12*
X341630000Y-275590000D03*
D14*
X334010000Y-275590000D03*
D12*
X341630000Y-271780000D03*
D14*
X334010000Y-271780000D03*
D12*
X321310000Y-279400000D03*
D14*
X313690000Y-279400000D03*
D12*
X321310000Y-275590000D03*
D14*
X313690000Y-275590000D03*
D12*
X321310000Y-271780000D03*
D14*
X313690000Y-271780000D03*
D12*
X311150000Y-279400000D03*
D14*
X303530000Y-279400000D03*
D12*
X311150000Y-275590000D03*
D14*
X303530000Y-275590000D03*
D12*
X311150000Y-271780000D03*
D14*
X303530000Y-271780000D03*
D12*
X290830000Y-279400000D03*
D14*
X283210000Y-279400000D03*
D12*
X290830000Y-275590000D03*
D14*
X283210000Y-275590000D03*
D12*
X290830000Y-271780000D03*
D14*
X283210000Y-271780000D03*
D12*
X316230000Y-259080000D03*
D14*
X308610000Y-259080000D03*
D12*
X316230000Y-255270000D03*
D14*
X308610000Y-255270000D03*
D12*
X316230000Y-251460000D03*
D14*
X308610000Y-251460000D03*
D12*
X295910000Y-259080000D03*
D14*
X288290000Y-259080000D03*
D12*
X295910000Y-255270000D03*
D14*
X288290000Y-255270000D03*
D12*
X295910000Y-251460000D03*
D14*
X288290000Y-251460000D03*
D15*
X257810000Y-265430000D03*
X260350000Y-265430000D03*
X262890000Y-265430000D03*
X265430000Y-265430000D03*
X267970000Y-265430000D03*
X270510000Y-265430000D03*
X273050000Y-265430000D03*
X275590000Y-265430000D03*
D16*
X278130000Y-265430000D03*
D15*
X149860000Y-66040000D03*
X152400000Y-66040000D03*
X154940000Y-66040000D03*
X157480000Y-66040000D03*
X160020000Y-66040000D03*
X162560000Y-66040000D03*
X165100000Y-66040000D03*
X167640000Y-66040000D03*
X170180000Y-66040000D03*
X172720000Y-66040000D03*
X175260000Y-66040000D03*
X177800000Y-66040000D03*
X180340000Y-66040000D03*
X182880000Y-66040000D03*
X185420000Y-66040000D03*
X187960000Y-66040000D03*
D16*
X190500000Y-66040000D03*
D15*
X226060000Y-265430000D03*
X228600000Y-265430000D03*
X231140000Y-265430000D03*
X233680000Y-265430000D03*
X236220000Y-265430000D03*
X238760000Y-265430000D03*
X241300000Y-265430000D03*
X243840000Y-265430000D03*
D16*
X246380000Y-265430000D03*
D15*
X226060000Y-245110000D03*
X228600000Y-245110000D03*
X231140000Y-245110000D03*
X233680000Y-245110000D03*
X236220000Y-245110000D03*
X238760000Y-245110000D03*
X241300000Y-245110000D03*
X243840000Y-245110000D03*
D16*
X246380000Y-245110000D03*
D15*
X226060000Y-224790000D03*
X228600000Y-224790000D03*
X231140000Y-224790000D03*
X233680000Y-224790000D03*
X236220000Y-224790000D03*
X238760000Y-224790000D03*
X241300000Y-224790000D03*
X243840000Y-224790000D03*
D16*
X246380000Y-224790000D03*
D15*
X340360000Y-261620000D03*
X342900000Y-261620000D03*
X345440000Y-261620000D03*
X347980000Y-261620000D03*
X350520000Y-261620000D03*
X353060000Y-261620000D03*
X355600000Y-261620000D03*
X358140000Y-261620000D03*
D16*
X360680000Y-261620000D03*
D15*
X170180000Y-203200000D03*
X172720000Y-203200000D03*
X175260000Y-203200000D03*
X177800000Y-203200000D03*
X180340000Y-203200000D03*
X182880000Y-203200000D03*
X185420000Y-203200000D03*
X187960000Y-203200000D03*
X190500000Y-203200000D03*
X193040000Y-203200000D03*
X195580000Y-203200000D03*
X198120000Y-203200000D03*
X200660000Y-203200000D03*
X203200000Y-203200000D03*
X205740000Y-203200000D03*
X208280000Y-203200000D03*
D16*
X210820000Y-203200000D03*
D15*
X226060000Y-204470000D03*
X228600000Y-204470000D03*
X231140000Y-204470000D03*
X233680000Y-204470000D03*
X236220000Y-204470000D03*
X238760000Y-204470000D03*
X241300000Y-204470000D03*
X243840000Y-204470000D03*
D16*
X246380000Y-204470000D03*
D15*
X149860000Y-157480000D03*
X152400000Y-157480000D03*
X154940000Y-157480000D03*
X157480000Y-157480000D03*
X160020000Y-157480000D03*
X162560000Y-157480000D03*
X165100000Y-157480000D03*
X167640000Y-157480000D03*
X170180000Y-157480000D03*
X172720000Y-157480000D03*
X175260000Y-157480000D03*
X177800000Y-157480000D03*
X180340000Y-157480000D03*
X182880000Y-157480000D03*
X185420000Y-157480000D03*
X187960000Y-157480000D03*
D16*
X190500000Y-157480000D03*
D15*
X215900000Y-83820000D03*
X218440000Y-83820000D03*
X220980000Y-83820000D03*
X223520000Y-83820000D03*
X226060000Y-83820000D03*
X228600000Y-83820000D03*
X231140000Y-83820000D03*
X233680000Y-83820000D03*
X236220000Y-83820000D03*
X238760000Y-83820000D03*
X241300000Y-83820000D03*
X243840000Y-83820000D03*
X246380000Y-83820000D03*
X248920000Y-83820000D03*
X251460000Y-83820000D03*
X254000000Y-83820000D03*
D16*
X256540000Y-83820000D03*
D15*
X287147000Y-151892000D03*
X289687000Y-151892000D03*
X292227000Y-151892000D03*
X294767000Y-151892000D03*
X297307000Y-151892000D03*
X299847000Y-151892000D03*
X302387000Y-151892000D03*
X304927000Y-151892000D03*
D16*
X307467000Y-151892000D03*
D21*
X163830000Y-240030000D03*
D22*
X161290000Y-240030000D03*
D21*
X157226000Y-240030000D03*
D22*
X154686000Y-240030000D03*
D21*
X353060000Y-210820000D03*
D22*
X355600000Y-210820000D03*
D21*
X365760000Y-228600000D03*
D22*
X368300000Y-228600000D03*
D14*
X185500000Y-240030000D03*
X190500000Y-240030000D03*
X168990000Y-240030000D03*
X173990000Y-240030000D03*
X252730000Y-275510000D03*
X252730000Y-270510000D03*
X205820000Y-240030000D03*
X210820000Y-240030000D03*
X217170000Y-227410000D03*
X217170000Y-232410000D03*
X252730000Y-250270000D03*
X252730000Y-255270000D03*
X181610000Y-227410000D03*
X181610000Y-232410000D03*
X252730000Y-229950000D03*
X252730000Y-234950000D03*
X303610000Y-182880000D03*
X308610000Y-182880000D03*
X316310000Y-182880000D03*
X321310000Y-182880000D03*
X329010000Y-182880000D03*
X334010000Y-182880000D03*
X278210000Y-213360000D03*
X283210000Y-213360000D03*
X280750000Y-182880000D03*
X285750000Y-182880000D03*
X346710000Y-213360000D03*
X341710000Y-213360000D03*
X303610000Y-213360000D03*
X308610000Y-213360000D03*
X316310000Y-213360000D03*
X321310000Y-213360000D03*
X290910000Y-213360000D03*
X295910000Y-213360000D03*
X329010000Y-213360000D03*
X334010000Y-213360000D03*
X345520000Y-265430000D03*
X350520000Y-265430000D03*
X325200000Y-265430000D03*
X330200000Y-265430000D03*
X367030000Y-246460000D03*
X367030000Y-251460000D03*
X294720000Y-265430000D03*
X299720000Y-265430000D03*
X299720000Y-245110000D03*
X304720000Y-245110000D03*
X252730000Y-209630000D03*
X252730000Y-214630000D03*
X252730000Y-191850000D03*
X252730000Y-196850000D03*
X181610000Y-191795800D03*
X181610000Y-196795800D03*
X217170000Y-191850000D03*
X217170000Y-196850000D03*
X143510000Y-180295000D03*
X143510000Y-175295000D03*
X194310000Y-180295000D03*
X194310000Y-175295000D03*
X227330000Y-158830000D03*
X227330000Y-163830000D03*
X171450000Y-146080000D03*
X171450000Y-151080000D03*
X201930000Y-146080000D03*
X201930000Y-151080000D03*
X262890000Y-158830000D03*
X262890000Y-163830000D03*
X232410000Y-146080000D03*
X232410000Y-151080000D03*
X262890000Y-146080000D03*
X262890000Y-151080000D03*
X262890000Y-128387200D03*
X262890000Y-133387200D03*
X227330000Y-115600000D03*
X227330000Y-120600000D03*
X227330000Y-128300000D03*
X227330000Y-133300000D03*
X173945800Y-113715800D03*
X178945800Y-113715800D03*
X161370000Y-113766600D03*
X166370000Y-113766600D03*
X171450000Y-102950000D03*
X171450000Y-107950000D03*
X201930000Y-102950000D03*
X201930000Y-107950000D03*
X262890000Y-102870000D03*
X262890000Y-107870000D03*
X232410000Y-102950000D03*
X232410000Y-107950000D03*
X176530000Y-85090000D03*
X176530000Y-90090000D03*
X212090000Y-85090000D03*
X212090000Y-90090000D03*
X171450000Y-72470000D03*
X171450000Y-77470000D03*
X201930000Y-77390000D03*
X201930000Y-72390000D03*
X232410000Y-77390000D03*
X232410000Y-72390000D03*
X262890000Y-77390000D03*
X262890000Y-72390000D03*
X262890000Y-59770000D03*
X262890000Y-64770000D03*
X262890000Y-47070000D03*
X262890000Y-52070000D03*
X227330000Y-64690000D03*
X227330000Y-59690000D03*
X227330000Y-51990000D03*
X227330000Y-46990000D03*
X313690000Y-145970000D03*
X313690000Y-140970000D03*
X278130000Y-145970000D03*
X278130000Y-140970000D03*
X367760000Y-218440000D03*
D13*
X365760000Y-218440000D03*
M02*
