M48
; DRILL file {KiCad (5.1.0-0)} date Thursday, October 10, 2019 at 01:33:58 AM
; FORMAT={-:-/ absolute / inch / decimal}
; #@! TF.CreationDate,2019-10-10T01:33:58-07:00
; #@! TF.GenerationSoftware,Kicad,Pcbnew,(5.1.0-0)
FMAT,2
INCH
T1C0.0079
T2C0.0295
T3C0.0315
T4C0.0354
T5C0.0394
T6C0.0433
T7C0.0512
T8C0.1260
%
G90
G05
T1
X6.825Y-10.335
X6.8723Y-5.385
X6.877Y-5.3628
X6.955Y-7.38
X7.0972Y-5.3775
X7.1Y-4.71
X7.2Y-4.72
X7.27Y-7.39
X7.3Y-4.73
X7.3436Y-6.68
X7.36Y-6.72
X7.365Y-5.535
X7.4Y-4.74
X7.465Y-6.54
X7.5Y-4.75
X7.6Y-4.76
X7.605Y-4.175
X7.7Y-4.77
X7.8Y-11.46
X7.8Y-11.6446
X7.82Y-6.395
X7.98Y-6.13
X8.005Y-6.6
X8.1Y-11.47
X8.1Y-11.6336
X8.105Y-7.19
X8.105Y-10.96
X8.12Y-7.245
X8.1209Y-7.2212
X8.1366Y-7.2047
X8.1999Y-11.4764
X8.2Y-11.62
X8.22Y-7.245
X8.24Y-4.17
X8.285Y-4.16
X8.315Y-11.78
X8.345Y-4.145
X8.3614Y-6.635
X8.3657Y-7.1875
X8.3817Y-7.2036
X8.39Y-6.685
X8.4Y-4.78
X8.43Y-6.69
X8.4514Y-6.7264
X8.47Y-6.71
X8.48Y-5.955
X8.4982Y-6.5225
X8.4986Y-5.9264
X8.5Y-4.79
X8.535Y-6.53
X8.5436Y-6.5816
X8.555Y-6.56
X8.5665Y-7.1486
X8.6Y-4.8
X8.655Y-13.365
X8.655Y-13.39
X8.655Y-13.415
X8.69Y-12.81
X8.69Y-12.855
X8.69Y-12.9
X8.7Y-4.81
X8.7Y-12.3
X8.7Y-13.015
X8.8Y-4.82
X8.9Y-4.83
X8.9324Y-5.9675
X8.965Y-4.045
X8.995Y-12.34
X9.0Y-3.2
X9.0Y-3.305
X9.0Y-3.685
X9.0Y-3.815
X9.0Y-4.84
X9.015Y-12.395
X9.05Y-12.5
X9.0514Y-12.7
X9.095Y-12.4
X9.0964Y-12.605
X9.1Y-4.85
X9.125Y-12.95
X9.14Y-13.4786
X9.24Y-3.215
X9.24Y-10.9754
X9.2894Y-3.8088
X9.3Y-3.19
X9.3Y-3.315
X9.3Y-3.675
X9.385Y-5.525
X9.3897Y-3.8186
X9.39Y-5.975
X9.3977Y-3.1736
X9.4Y-3.325
X9.4Y-3.665
X9.409Y-5.6836
X9.46Y-13.1
X9.47Y-13.2
X9.48Y-13.25
X9.5Y-12.795
X9.505Y-5.6836
X9.515Y-12.4
X9.54Y-12.5
X9.5423Y-12.1404
X9.55Y-12.6
X9.56Y-12.7
X9.605Y-5.6836
X9.605Y-12.2
X9.61Y-5.495
X9.67Y-12.24
X9.705Y-5.685
X9.725Y-11.465
X9.74Y-6.84
X9.74Y-12.2286
X9.75Y-4.165
X9.7773Y-12.1425
X9.79Y-12.07
X9.7936Y-12.1859
X9.8086Y-12.3
X9.8186Y-12.5
X9.915Y-5.35
X9.94Y-5.35
X9.965Y-5.37
X10.11Y-12.25
X10.11Y-12.38
X10.11Y-12.405
X10.25Y-11.07
X10.265Y-6.53
X10.2939Y-6.5242
X10.41Y-6.4436
X10.4804Y-6.4426
X10.552Y-6.371
X10.595Y-5.49
X10.86Y-5.49
X11.04Y-10.9
X11.05Y-4.165
X11.075Y-5.44
X11.105Y-5.43
X11.105Y-10.685
X11.1088Y-5.5214
X11.125Y-10.42
X11.135Y-5.505
X11.14Y-5.42
X11.1416Y-10.6234
X11.235Y-7.725
X11.335Y-5.905
X11.335Y-5.93
X11.335Y-5.955
X11.335Y-5.98
X11.335Y-6.005
X11.335Y-6.03
X11.335Y-6.055
X11.335Y-6.08
X11.45Y-6.48
X11.45Y-6.5061
X11.65Y-3.34
X11.65Y-3.835
X11.65Y-5.9
X11.65Y-6.935
X11.65Y-10.085
X11.65Y-11.985
X11.65Y-12.785
X11.675Y-3.32
X11.675Y-3.815
X11.675Y-5.93
X11.675Y-10.065
X11.675Y-11.965
X11.675Y-12.765
X11.6751Y-6.9514
X11.7Y-3.3
X11.7Y-3.795
X11.7Y-5.95
X11.7Y-6.9614
X11.7Y-10.045
X11.7Y-11.945
X11.7Y-12.745
X11.725Y-3.28
X11.725Y-3.775
X11.725Y-5.98
X11.725Y-6.9714
X11.725Y-10.025
X11.725Y-11.925
X11.725Y-12.725
X11.7499Y-10.0051
X11.7499Y-11.9051
X11.75Y-3.26
X11.75Y-3.755
X11.75Y-6.005
X11.75Y-6.9814
X11.75Y-12.705
X11.775Y-3.24
X11.775Y-3.735
X11.775Y-6.025
X11.775Y-6.9914
X11.775Y-9.985
X11.775Y-11.88
X11.775Y-12.68
X11.8Y-3.22
X11.8Y-3.715
X11.8Y-6.045
X11.8Y-7.0014
X11.8Y-9.9664
X11.8Y-11.86
X11.8Y-12.66
X11.825Y-3.695
X11.825Y-6.065
X11.825Y-7.0114
X11.825Y-9.94
X11.825Y-11.84
X11.825Y-12.64
X11.8252Y-3.2014
X11.855Y-4.095
X11.855Y-4.12
X11.87Y-10.95
X11.88Y-10.85
X11.885Y-7.03
X11.895Y-10.79
X11.91Y-7.03
X11.9313Y-11.689
X11.935Y-7.03
X11.95Y-6.895
X12.0Y-9.795
X12.465Y-6.88
X12.465Y-6.905
X12.465Y-6.93
X12.465Y-6.9536
X12.58Y-10.96
X12.92Y-12.35
X13.08Y-11.1
X13.105Y-11.33
X13.2Y-11.46
X14.3Y-12.025
X14.4Y-12.035
X14.5Y-12.045
X14.6Y-12.055
X14.7Y-9.995
X14.7Y-12.065
X14.8Y-2.95
X14.8Y-12.075
X14.85Y-2.97
X14.9Y-2.99
X14.95Y-3.01
X15.0Y-3.03
X15.05Y-3.05
X15.1Y-3.07
X15.15Y-3.09
X15.2Y-3.11
X15.25Y-3.13
X15.3Y-3.15
X15.3Y-6.72
X15.35Y-3.17
X15.4Y-3.19
X15.4Y-6.71
X15.45Y-3.21
X15.5Y-3.23
X15.5Y-6.7
X15.55Y-3.25
X15.6Y-6.6936
T2
X14.55Y-10.5
X14.6Y-10.45
X14.65Y-10.5
T3
X11.45Y-8.8531
X11.45Y-9.05
X9.5018Y-7.95
X9.6986Y-7.95
X7.85Y-7.0512
X7.85Y-7.248
X13.45Y-13.45
X13.75Y-13.45
X12.25Y-13.45
X12.55Y-13.45
X12.0Y-11.1
X12.0Y-11.2
X12.0Y-11.3
X12.0Y-11.4
X12.0Y-11.5
X12.0Y-11.6
X12.0Y-11.7
X12.3Y-11.1
X12.3Y-11.2
X12.3Y-11.3
X12.3Y-11.4
X12.3Y-11.5
X12.3Y-11.6
X12.3Y-11.7
X14.0531Y-9.65
X14.25Y-9.65
X12.5531Y-10.85
X12.75Y-10.85
X13.7999Y-11.9499
X13.7999Y-12.5499
X13.8999Y-11.9499
X13.8999Y-12.5499
X13.9999Y-11.9499
X13.9999Y-12.5499
X14.0999Y-11.9499
X14.0999Y-12.5499
X14.1999Y-11.9499
X14.1999Y-12.5499
X12.25Y-13.15
X12.55Y-13.15
X14.0Y-9.9
X14.0Y-10.0
X14.0Y-10.1
X14.0Y-10.2
X14.0Y-10.3
X14.0Y-10.4
X14.0Y-10.5
X14.3Y-9.9
X14.3Y-10.0
X14.3Y-10.1
X14.3Y-10.2
X14.3Y-10.3
X14.3Y-10.4
X14.3Y-10.5
X13.7Y-6.8
X13.7Y-7.1
X13.8Y-6.8
X13.8Y-7.1
X13.9Y-6.8
X13.9Y-7.1
X14.0Y-6.8
X14.0Y-7.1
X14.1Y-6.8
X14.2Y-6.8
X14.2Y-7.1
X14.3Y-6.8
X14.3Y-7.1
X14.4Y-6.8
X14.4Y-7.1
X13.85Y-13.15
X13.85Y-13.25
X13.85Y-13.35
X13.85Y-13.45
X14.15Y-13.15
X14.15Y-13.25
X14.15Y-13.35
X14.15Y-13.45
X14.6Y-11.15
X14.6Y-11.45
X15.2Y-11.15
X15.2Y-11.45
X12.45Y-12.65
X12.75Y-12.65
X8.2998Y-4.6002
X8.2998Y-4.9002
X8.3998Y-4.6002
X8.3998Y-4.9002
X8.4998Y-4.6002
X8.4998Y-4.9002
X8.5998Y-4.6002
X8.5998Y-4.9002
X8.6998Y-4.6002
X8.6998Y-4.9002
X8.7998Y-4.6002
X8.7998Y-4.9002
X8.8998Y-4.6002
X8.8998Y-4.9002
X8.9998Y-4.6002
X8.9998Y-4.9002
X9.0998Y-4.6002
X9.0998Y-4.9002
X9.1998Y-4.6002
X9.1998Y-4.9002
X13.5531Y-9.65
X13.75Y-9.65
X14.9Y-9.95
X15.0969Y-9.95
X11.45Y-4.15
X11.45Y-4.3469
X11.45Y-7.5531
X11.45Y-7.75
X11.45Y-12.3531
X14.2999Y-11.9499
X14.1Y-7.1
X14.2999Y-12.5499
X14.3999Y-11.9499
X14.3999Y-12.5499
X14.4999Y-11.9499
X14.4999Y-12.5499
X14.5999Y-11.9499
X14.5999Y-12.5499
X14.6999Y-11.9499
X14.6999Y-12.5499
X14.7999Y-11.9499
X14.7999Y-12.5499
X14.8999Y-11.9499
X14.8999Y-12.5499
X14.9999Y-11.9499
X14.9999Y-12.5499
X15.0999Y-11.9499
X15.0999Y-12.5499
X15.1999Y-11.9499
X15.1999Y-12.5499
X15.2999Y-11.9499
X15.2999Y-12.5499
X10.3Y-3.1
X10.3Y-3.4
X10.4Y-3.1
X10.4Y-3.4
X10.5Y-3.1
X10.5Y-3.4
X10.6Y-3.1
X10.6Y-3.4
X10.7Y-3.1
X10.7Y-3.4
X10.8Y-3.1
X10.8Y-3.4
X10.9Y-3.1
X10.9Y-3.4
X11.0Y-3.1
X11.0Y-3.4
X11.1Y-3.1
X11.1Y-3.4
X11.2Y-3.1
X11.2Y-3.4
X10.25Y-5.3531
X10.25Y-5.55
X10.5Y-4.1
X10.5Y-4.4
X10.6Y-4.1
X10.6Y-4.4
X10.7Y-4.1
X10.7Y-4.4
X10.8Y-4.1
X10.8Y-4.4
X10.9Y-4.1
X10.9Y-4.4
X11.0Y-4.1
X11.0Y-4.4
X11.1Y-4.1
X11.1Y-4.4
X11.2Y-4.1
X11.2Y-4.4
X8.9Y-11.4
X8.9Y-11.7
X9.0Y-11.4
X9.0Y-11.7
X9.1Y-11.4
X9.1Y-11.7
X9.2Y-11.4
X9.2Y-11.7
X9.3Y-11.4
X9.3Y-11.7
X9.4Y-11.4
X9.4Y-11.7
X9.5Y-11.4
X9.5Y-11.7
X9.6Y-11.4
X9.6Y-11.7
X9.7Y-11.4
X9.7Y-11.7
X9.8Y-11.4
X9.8Y-11.7
X14.0Y-11.1
X14.0Y-11.2
X14.0Y-11.3
X14.0Y-11.4
X14.0Y-11.5
X14.0Y-11.6
X14.0Y-11.7
X14.3Y-11.1
X14.3Y-11.2
X14.3Y-11.3
X14.3Y-11.4
X14.3Y-11.5
X14.3Y-11.6
X14.3Y-11.7
X14.9Y-9.7
X15.2Y-9.7
X9.2998Y-10.2
X9.2998Y-10.3
X9.2998Y-10.4
X9.2998Y-10.5
X9.2998Y-10.6
X9.2998Y-10.7
X9.2998Y-10.8
X9.2998Y-10.9
X9.2998Y-11.0
X9.2998Y-11.1
X11.45Y-12.55
X13.5531Y-10.85
X13.75Y-10.85
X12.05Y-6.85
X12.05Y-7.0469
X10.05Y-3.65
X10.05Y-3.8469
X13.25Y-12.5
X13.55Y-12.5
X7.5Y-11.4
X7.5Y-11.7
X7.6Y-11.4
X7.6Y-11.7
X7.7Y-11.4
X7.7Y-11.7
X7.8Y-11.4
X7.8Y-11.7
X7.9Y-11.4
X7.9Y-11.7
X8.0Y-11.4
X8.0Y-11.7
X8.1Y-11.4
X8.1Y-11.7
X8.2Y-11.4
X8.2Y-11.7
X8.3Y-11.4
X8.3Y-11.7
X8.4Y-11.4
X8.4Y-11.7
X8.05Y-4.65
X8.05Y-4.8469
X6.9Y-7.0
X6.9Y-7.3
X7.0Y-7.0
X7.0Y-7.3
X7.1Y-7.0
X7.1Y-7.3
X7.2Y-7.0
X7.2Y-7.3
X7.3Y-7.0
X7.3Y-7.3
X7.4Y-7.0
X7.4Y-7.3
X7.5Y-7.0
X7.5Y-7.3
X7.6Y-7.0
X7.6Y-7.3
X12.55Y-9.65
X12.85Y-9.65
X13.45Y-13.3
X13.75Y-13.3
X13.25Y-12.65
X13.55Y-12.65
X7.7Y-10.1938
X7.7Y-10.2938
X7.7Y-10.3938
X7.7Y-10.4938
X7.7Y-10.5938
X7.7Y-10.6938
X7.7Y-10.7938
X7.7Y-10.8938
X7.7Y-10.9938
X7.7Y-11.0938
X8.0Y-10.1938
X8.0Y-10.2938
X8.0Y-10.3938
X8.0Y-10.4938
X8.0Y-10.5938
X8.0Y-10.6938
X8.0Y-10.7938
X8.0Y-10.8938
X8.0Y-10.9938
X8.0Y-11.0938
X8.1009Y-5.2982
X8.1009Y-5.5982
X8.2009Y-5.2982
X8.2009Y-5.5982
X8.3009Y-5.2982
X8.3009Y-5.5982
X8.4009Y-5.2982
X8.4009Y-5.5982
X8.5009Y-5.2982
X8.5009Y-5.5982
X8.6009Y-5.2982
X8.6009Y-5.5982
X8.7009Y-5.2982
X8.7009Y-5.5982
X8.8009Y-5.2982
X8.8009Y-5.5982
X14.65Y-13.15
X14.65Y-13.25
X14.65Y-13.35
X14.65Y-13.45
X14.95Y-13.15
X14.95Y-13.25
X14.95Y-13.35
X14.95Y-13.45
X8.1Y-4.1
X8.1Y-4.4
X8.2Y-4.1
X8.2Y-4.4
X8.3Y-4.1
X8.3Y-4.4
X8.4Y-4.1
X8.4Y-4.4
X8.5Y-4.1
X8.5Y-4.4
X8.6Y-4.1
X8.6Y-4.4
X8.7Y-4.1
X8.7Y-4.4
X8.8Y-4.1
X8.8Y-4.4
X8.8031Y-11.95
X9.0Y-11.95
X9.6031Y-11.95
X9.8Y-11.95
X12.85Y-12.35
X12.85Y-12.45
X12.85Y-12.55
X12.85Y-12.65
X13.15Y-12.35
X13.15Y-12.45
X13.15Y-12.55
X13.15Y-12.65
X9.5998Y-10.2
X9.5998Y-10.3
X9.5998Y-10.4
X9.5998Y-10.5
X9.5998Y-10.6
X9.5998Y-10.7
X9.5998Y-10.8
X9.5998Y-10.9
X9.5998Y-11.0
X9.5998Y-11.1
X10.3Y-6.3
X10.3Y-6.6
X10.4Y-6.3
X10.4Y-6.6
X10.5Y-6.3
X10.5Y-6.6
X10.6Y-6.3
X10.6Y-6.6
X10.7Y-6.3
X10.7Y-6.6
X10.8Y-6.3
X10.8Y-6.6
X10.9Y-6.3
X10.9Y-6.6
X11.0Y-6.3
X11.0Y-6.6
X11.1Y-6.3
X11.1Y-6.6
X11.2Y-6.3
X11.2Y-6.6
X11.45Y-13.15
X11.45Y-13.3469
X10.05Y-6.3512
X10.05Y-6.548
X10.25Y-7.0512
X10.25Y-7.248
X14.8Y-10.5
X15.1Y-10.5
X15.5787Y-11.05
X6.9531Y-9.95
X7.15Y-9.95
X6.8998Y-4.6002
X6.8998Y-4.9002
X6.9998Y-4.6002
X8.5Y-6.3
X8.5Y-6.6
X8.6Y-6.3
X8.6Y-6.6
X8.7Y-6.3
X8.7Y-6.6
X8.8Y-6.3
X8.8Y-6.6
X8.9Y-6.3
X8.9Y-6.6
X9.0Y-6.3
X9.0Y-6.6
X9.1Y-6.3
X9.1Y-6.6
X9.2Y-6.3
X9.2Y-6.6
X9.3Y-6.3
X9.3Y-6.6
X9.4Y-6.3
X9.4Y-6.6
X9.5Y-6.3
X9.5Y-6.6
X9.6Y-6.3
X9.6Y-6.6
X9.7Y-6.3
X9.7Y-6.6
X9.8Y-6.3
X9.8Y-6.6
X13.05Y-13.15
X13.35Y-13.15
X12.45Y-12.5
X12.75Y-12.5
X7.1031Y-7.95
X7.3Y-7.95
X7.7531Y-9.95
X7.95Y-9.95
X7.4531Y-5.779
X7.65Y-5.779
X11.45Y-5.35
X11.45Y-5.5469
X9.45Y-4.65
X9.45Y-4.8469
X13.0Y-11.1
X13.0Y-11.2
X13.0Y-11.3
X13.0Y-11.4
X13.0Y-11.5
X13.0Y-11.6
X13.0Y-11.7
X13.3Y-11.1
X13.3Y-11.2
X13.3Y-11.3
X6.9998Y-4.9002
X7.0998Y-4.6002
X7.0998Y-4.9002
X7.1998Y-4.6002
X7.1998Y-4.9002
X7.2998Y-4.6002
X7.2998Y-4.9002
X7.3998Y-4.6002
X13.3Y-11.4
X7.3998Y-4.9002
X7.4998Y-4.6002
X7.4998Y-4.9002
X7.5998Y-4.6002
X7.5998Y-4.9002
X7.6998Y-4.6002
X7.6998Y-4.9002
X7.7998Y-4.6002
X7.7998Y-4.9002
X11.45Y-7.0512
X11.45Y-7.248
X6.9009Y-5.2982
X6.9009Y-5.5982
X7.0009Y-5.2982
X7.0009Y-5.5982
X7.1009Y-5.2982
X7.1009Y-5.5982
X7.2009Y-5.2982
X7.2009Y-5.5982
X7.3009Y-5.2982
X7.3009Y-5.5982
X7.4009Y-5.2982
X7.4009Y-5.5982
X7.5009Y-5.2982
X7.5009Y-5.5982
X13.3Y-11.5
X13.3Y-11.6
X13.3Y-11.7
X10.3004Y-8.7998
X10.3004Y-9.0998
X10.4004Y-8.7998
X10.4004Y-9.0998
X10.5004Y-8.7998
X10.5004Y-9.0998
X10.6004Y-8.7998
X10.6004Y-9.0998
X10.7004Y-8.7998
X10.7004Y-9.0998
X10.8004Y-8.7998
X10.8004Y-9.0998
X10.9004Y-8.7998
X10.9004Y-9.0998
X11.0004Y-8.7998
X11.0004Y-9.0998
X11.1004Y-8.7998
X11.1004Y-9.0998
X11.2004Y-8.7998
X11.2004Y-9.0998
X15.05Y-13.45
X15.35Y-13.45
X13.05Y-13.45
X13.35Y-13.45
X8.1531Y-11.95
X8.35Y-11.95
X10.05Y-11.4531
X10.05Y-11.65
X11.45Y-6.3546
X11.45Y-6.5515
X14.65Y-6.85
X14.65Y-7.0469
X8.5Y-8.2
X8.5Y-8.3
X8.5Y-8.4
X8.5Y-8.5
X8.5Y-8.6
X8.5Y-8.7
X8.5Y-8.8
X8.5Y-8.9
X8.5Y-9.0
X8.5Y-9.1
X8.5Y-9.2
X8.5Y-9.3
X8.5Y-9.4
X8.5Y-9.5
X8.5Y-9.6
X8.5Y-9.7
X9.1Y-8.2
X9.1Y-8.3
X9.1Y-8.4
X9.1Y-8.5
X9.1Y-8.6
X9.1Y-8.7
X9.1Y-8.8
X9.1Y-8.9
X9.1Y-9.0
X9.1Y-9.1
X9.1Y-9.2
X9.1Y-9.3
X9.1Y-9.4
X9.1Y-9.5
X9.1Y-9.6
X9.1Y-9.7
X12.1531Y-9.65
X12.35Y-9.65
X12.6Y-10.5
X12.7969Y-10.5
X14.25Y-13.3
X14.55Y-13.3
X12.7031Y-12.9
X12.9Y-12.9
X7.6009Y-5.2982
X15.55Y-12.1531
X15.55Y-12.35
X11.45Y-9.6531
X11.45Y-9.85
X8.5531Y-9.95
X8.75Y-9.95
X10.05Y-7.5531
X10.05Y-7.75
X13.25Y-12.35
X13.55Y-12.35
X11.45Y-11.5531
X11.45Y-11.75
X13.5Y-11.1
X13.5Y-11.2
X13.5Y-11.3
X13.5Y-11.4
X13.5Y-11.5
X13.5Y-11.6
X13.5Y-11.7
X13.8Y-11.1
X13.8Y-11.2
X13.8Y-11.3
X13.8Y-11.4
X13.8Y-11.5
X13.8Y-11.6
X13.8Y-11.7
X8.4998Y-10.1996
X8.4998Y-10.2996
X8.4998Y-10.3996
X8.4998Y-10.4996
X8.4998Y-10.5996
X8.4998Y-10.6996
X8.4998Y-10.7996
X8.4998Y-10.8996
X8.4998Y-10.9996
X8.4998Y-11.0996
X8.7998Y-10.1996
X8.7998Y-10.2996
X8.7998Y-10.3996
X8.7998Y-10.4996
X8.7998Y-10.5996
X8.7998Y-10.6996
X8.7998Y-10.7996
X8.7998Y-10.8996
X8.7998Y-10.9996
X8.7998Y-11.0996
X10.5009Y-5.2982
X10.5009Y-5.5982
X10.6009Y-5.2982
X10.6009Y-5.5982
X10.7009Y-5.2982
X10.7009Y-5.5982
X10.8009Y-5.2982
X10.8009Y-5.5982
X10.9009Y-5.2982
X10.9009Y-5.5982
X11.0009Y-5.2982
X11.0009Y-5.5982
X11.1009Y-5.2982
X11.1009Y-5.5982
X11.2009Y-5.2982
X11.2009Y-5.5982
X12.1Y-9.9
X12.1Y-10.0
X12.1Y-10.1
X12.1Y-10.2
X12.4Y-9.9
X12.4Y-10.0
X12.4Y-10.1
X12.4Y-10.2
X7.6Y-12.55
X7.9Y-12.55
X14.5531Y-9.65
X14.75Y-9.65
X10.3Y-13.1
X10.3Y-13.4
X10.4Y-13.1
X10.4Y-13.4
X10.5Y-13.1
X10.5Y-13.4
X10.6Y-13.1
X10.6Y-13.4
X10.7Y-13.1
X10.7Y-13.4
X10.8Y-13.1
X10.8Y-13.4
X10.9Y-13.1
X10.9Y-13.4
X11.0Y-13.1
X11.0Y-13.4
X11.1Y-13.1
X11.1Y-13.4
X11.2Y-13.1
X11.2Y-13.4
X9.3Y-4.1
X9.3Y-4.4
X9.4Y-4.1
X9.4Y-4.4
X9.5Y-4.1
X9.5Y-4.4
X9.6Y-4.1
X9.6Y-4.4
X9.7Y-4.1
X9.7Y-4.4
X9.8Y-4.1
X9.8Y-4.4
X9.9Y-4.1
X9.9Y-4.4
X10.0Y-4.1
X10.0Y-4.4
X13.9031Y-12.9
X14.1Y-12.9
X9.4Y-12.2
X9.4Y-12.3
X9.4Y-12.4
X9.4Y-12.5
X9.4Y-12.6
X9.4Y-12.7
X9.4Y-12.8
X9.4Y-12.9
X9.4Y-13.0
X9.4Y-13.1
X9.4Y-13.2
X9.4Y-13.3
X10.0Y-12.2
X10.0Y-12.3
X10.0Y-12.4
X10.0Y-12.5
X10.0Y-12.6
X10.0Y-12.7
X10.0Y-12.8
X10.0Y-12.9
X10.0Y-13.0
X10.0Y-13.1
X10.0Y-13.2
X10.0Y-13.3
X13.0531Y-9.65
X13.25Y-9.65
X8.9Y-3.6
X8.9Y-3.9
X9.0Y-3.6
X9.0Y-3.9
X9.1Y-3.6
X9.1Y-3.9
X9.2Y-3.6
X9.2Y-3.9
X9.3Y-3.6
X9.3Y-3.9
X9.4Y-3.6
X9.4Y-3.9
X9.5Y-3.6
X9.5Y-3.9
X9.6Y-3.6
X9.6Y-3.9
X9.7Y-3.6
X9.7Y-3.9
X9.8Y-3.6
X9.8Y-3.9
X14.5Y-9.9
X14.5Y-10.0
X14.5Y-10.1
X14.5Y-10.2
X14.8Y-9.9
X7.6009Y-5.5982
X13.0531Y-10.85
X13.25Y-10.85
X6.9Y-8.1957
X6.9Y-8.2957
X6.9Y-8.3957
X6.9Y-8.4957
X6.9Y-8.5957
X6.9Y-8.6957
X6.9Y-8.7957
X6.9Y-8.8957
X6.9Y-8.9957
X6.9Y-9.0957
X6.9Y-9.1957
X6.9Y-9.2957
X6.9Y-9.3957
X6.9Y-9.4957
X6.9Y-9.5957
X6.9Y-9.6957
X7.5Y-8.1957
X7.5Y-8.2957
X7.5Y-8.3957
X7.5Y-8.4957
X7.5Y-8.5957
X7.5Y-8.6957
X7.5Y-8.7957
X7.5Y-8.8957
X7.5Y-8.9957
X7.5Y-9.0957
X7.5Y-9.1957
X7.5Y-9.2957
X7.7Y-8.2
X14.8Y-10.0
X14.8Y-10.1
X14.8Y-10.2
X12.55Y-9.9
X12.85Y-9.9
X11.45Y-3.1531
X11.45Y-3.35
X9.351Y-9.95
X9.5479Y-9.95
X9.05Y-7.0512
X9.05Y-7.248
X7.9Y-6.0
X7.9Y-6.1
X7.9Y-6.2
X7.9Y-6.3
X7.9Y-6.4
X7.9Y-6.5
X7.9Y-6.6
X8.2Y-6.0
X8.2Y-6.1
X8.2Y-6.2
X8.2Y-6.3
X8.2Y-6.4
X8.2Y-6.5
X8.2Y-6.6
X12.65Y-13.15
X12.65Y-13.25
X12.65Y-13.35
X12.65Y-13.45
X12.95Y-13.15
X12.95Y-13.25
X12.95Y-13.35
X12.95Y-13.45
X14.0531Y-10.85
X14.25Y-10.85
X13.45Y-6.85
X13.45Y-7.0469
X7.7Y-8.3
X7.7Y-8.4
X7.7Y-8.5
X7.7Y-8.6
X7.7Y-8.7
X7.7Y-8.8
X7.7Y-8.9
X7.7Y-9.0
X7.7Y-9.1
X7.7Y-9.2
X7.7Y-9.3
X7.7Y-9.4
X7.7Y-9.5
X7.7Y-9.6
X7.7Y-9.7
X8.3Y-8.2
X8.3Y-8.3
X8.3Y-8.4
X8.3Y-8.5
X8.3Y-8.6
X8.3Y-8.7
X8.3Y-8.8
X8.3Y-9.0
X8.3Y-9.1
X7.5Y-9.6957
X7.9031Y-7.95
X8.1Y-7.95
X8.3Y-9.2
X7.5Y-9.4957
X7.5Y-9.5957
X8.3Y-9.3
X7.5Y-9.3957
X8.3Y-8.9
X8.3Y-9.4
X15.35Y-10.15
X15.65Y-10.15
X8.3Y-9.5
X8.3Y-9.6
X8.3Y-9.7
X15.5Y-11.05
X14.9Y-6.8
X11.65Y-3.1
X14.9Y-7.1
X15.0Y-6.8
X15.0Y-7.1
X15.1Y-6.8
X15.1Y-7.1
X15.2Y-6.8
X15.2Y-7.1
X15.3Y-6.8
X15.3Y-7.1
X15.4Y-6.8
X15.4Y-7.1
X15.5Y-6.8
X11.75Y-3.1
X11.85Y-3.1
X11.95Y-3.1
X12.05Y-3.1
X12.15Y-3.1
X12.25Y-3.1
X12.35Y-3.1
X12.45Y-3.1
X10.5Y-7.0
X10.5Y-7.3
X10.6Y-7.0
X15.5Y-7.1
X15.6Y-6.8
X15.6Y-7.1
X8.1Y-7.0
X8.1Y-7.3
X8.2Y-7.0
X8.2Y-7.3
X8.3Y-7.0
X8.3Y-7.3
X8.4Y-7.0
X8.4Y-7.3
X8.5Y-7.0
X8.5Y-7.3
X8.6Y-7.0
X8.6Y-7.3
X8.7Y-7.0
X8.7Y-7.3
X8.8Y-7.0
X8.8Y-7.3
X10.3Y-11.5
X10.3Y-11.8
X10.4Y-11.5
X10.4Y-11.8
X10.5Y-11.5
X10.5Y-11.8
X10.6Y-11.5
X10.6Y-11.8
X10.7Y-11.5
X10.7Y-11.8
X10.8Y-11.5
X10.8Y-11.8
X10.9Y-11.5
X10.9Y-11.8
X11.0Y-11.5
X11.0Y-11.8
X11.1Y-11.5
X11.1Y-11.8
X11.2Y-11.5
X11.2Y-11.8
X13.45Y-13.15
X13.75Y-13.15
X7.9483Y-5.777
X8.1451Y-5.777
X9.05Y-5.3531
X9.05Y-5.55
X9.05Y-4.15
X9.05Y-4.3469
X10.6Y-7.3
X10.7Y-7.0
X10.7Y-7.3
X10.8Y-7.0
X10.8Y-7.3
X10.9Y-7.0
X10.9Y-7.3
X11.0Y-7.0
X11.0Y-7.3
X11.1Y-7.0
X11.1Y-7.3
X11.2Y-7.0
X11.2Y-7.3
X6.9Y-4.1
X9.3009Y-5.2982
X9.3009Y-5.5982
X9.4009Y-5.2982
X9.4009Y-5.5982
X6.9Y-4.4
X7.0Y-4.1
X7.0Y-4.4
X7.1Y-4.1
X7.1Y-4.4
X7.2Y-4.4
X7.3Y-4.1
X7.3Y-4.4
X7.4Y-4.1
X7.4Y-4.4
X9.5009Y-5.2982
X7.2Y-4.1
X9.6009Y-5.2982
X9.6009Y-5.5982
X9.7009Y-5.2982
X9.7009Y-5.5982
X9.8009Y-5.2982
X9.8009Y-5.5982
X9.9009Y-5.2982
X9.9009Y-5.5982
X10.0009Y-5.2982
X10.0009Y-5.5982
X7.5Y-4.1
X7.5Y-4.4
X7.6Y-4.1
X7.6Y-4.4
X15.05Y-13.3
X15.35Y-13.3
X14.25Y-13.45
X14.55Y-13.45
X7.85Y-5.3531
X7.85Y-5.55
X7.85Y-4.1531
X7.85Y-4.35
X12.25Y-13.3
X10.05Y-3.15
X10.05Y-3.3469
X12.55Y-13.3
X12.65Y-10.2
X12.7287Y-10.2
X13.5Y-9.9
X13.5Y-10.0
X13.5Y-10.1
X13.5Y-10.2
X13.5Y-10.3
X13.5Y-10.4
X13.5Y-10.5
X13.8Y-9.9
X13.8Y-10.0
X13.8Y-10.1
X13.8Y-10.2
X13.8Y-10.3
X13.8Y-10.4
X13.8Y-10.5
X12.45Y-12.35
X10.3Y-9.6
X10.3Y-9.9
X10.4Y-9.6
X10.4Y-9.9
X10.5Y-9.6
X10.5Y-9.9
X10.6Y-9.6
X10.6Y-9.9
X10.7Y-9.6
X10.7Y-9.9
X10.8Y-9.6
X10.8Y-9.9
X10.9Y-9.6
X10.9Y-9.9
X11.0Y-9.6
X11.0Y-9.9
X11.1Y-9.6
X11.1Y-9.9
X11.2Y-9.6
X11.2Y-9.9
X13.05Y-13.3
X13.35Y-13.3
X15.05Y-13.15
X15.35Y-13.15
X15.2Y-11.7
X15.5Y-11.7
X12.75Y-12.35
X11.45Y-5.8531
X11.45Y-6.05
X7.6Y-12.75
X7.9Y-12.75
X10.05Y-5.8512
X10.05Y-6.048
X8.65Y-11.4531
X8.65Y-11.65
X13.0Y-9.9
X13.0Y-10.0
X8.1Y-12.2
X8.1Y-12.3
X8.1Y-12.4
X8.1Y-12.5
X8.1Y-12.6
X8.1Y-12.7
X8.1Y-12.8
X8.1Y-12.9
X8.1Y-13.0
X8.1Y-13.1
X8.4Y-12.2
X8.4Y-12.3
X13.0Y-10.1
X13.0Y-10.2
X13.0Y-10.3
X13.0Y-10.4
X8.4Y-12.4
X8.4Y-12.5
X8.4Y-12.7
X8.4Y-12.8
X8.4Y-12.9
X8.4Y-13.0
X8.4Y-13.1
X12.0531Y-10.85
X12.25Y-10.85
X13.0Y-10.5
X8.4Y-12.6
X13.0Y-10.6
X13.3Y-9.9
X13.3Y-10.0
X13.3Y-10.1
X13.3Y-10.2
X13.3Y-10.3
X13.3Y-10.4
X13.3Y-10.5
X13.3Y-10.6
X7.6Y-12.35
X7.9Y-12.35
X8.6Y-12.2
X8.6Y-12.3
X8.6Y-12.4
X8.6Y-12.5
X8.6Y-12.6
X8.6Y-12.7
X8.6Y-12.8
X8.6Y-12.9
X8.6Y-13.0
X8.6Y-13.1
X8.6Y-13.2
X8.6Y-13.3
X9.2Y-12.2
X9.2Y-12.3
X9.2Y-12.4
X9.2Y-12.5
X9.2Y-12.6
X9.2Y-12.7
X9.2Y-12.8
X9.2Y-13.0
X9.2Y-13.1
X9.2Y-13.2
X9.2Y-13.3
X14.5531Y-10.85
X9.2Y-12.9
X14.75Y-10.85
X12.9Y-12.1
X13.0969Y-12.1
X8.7018Y-7.95
X8.8986Y-7.95
X9.3Y-7.0
X9.3Y-7.3
X9.4Y-7.0
X9.4Y-7.3
X9.5Y-7.0
X9.5Y-7.3
X9.6Y-7.0
X9.6Y-7.3
X9.7Y-7.0
X9.7Y-7.3
X9.8Y-7.0
X9.8Y-7.3
X9.9Y-7.0
X9.9Y-7.3
X10.0Y-7.0
X10.0Y-7.3
X12.3Y-6.8
X12.3Y-7.1
X12.4Y-6.8
X12.4Y-7.1
X12.5Y-6.8
X12.5Y-7.1
X12.6Y-6.8
X12.6Y-7.1
X12.7Y-6.8
X12.7Y-7.1
X12.8Y-6.8
X12.8Y-7.1
X12.9Y-6.8
X12.9Y-7.1
X13.0Y-6.8
X13.0Y-7.1
X13.1Y-6.8
X13.1Y-7.1
X13.2Y-6.8
X13.2Y-7.1
X8.9Y-3.1
X8.9Y-3.4
X9.0Y-3.1
X9.0Y-3.4
X9.1Y-3.1
X9.1Y-3.4
X9.2Y-3.1
X9.2Y-3.4
X9.3Y-3.1
X9.3Y-3.4
X9.4Y-3.1
X9.4Y-3.4
X9.5Y-3.1
X9.5Y-3.4
X9.6Y-3.1
X9.6Y-3.4
X9.7Y-3.1
X9.7Y-3.4
X9.8Y-3.1
X9.8Y-3.4
X7.4Y-6.0
X7.4Y-6.1
X7.4Y-6.2
X7.4Y-6.3
X7.4Y-6.4
X7.4Y-6.5
X7.4Y-6.6
X7.7Y-6.0
X7.7Y-6.1
X7.7Y-6.2
X7.7Y-6.3
X7.7Y-6.4
X7.7Y-6.5
X7.7Y-6.6
X14.7031Y-12.9
X14.9Y-12.9
X9.3Y-8.2
X9.3Y-8.3
X9.3Y-8.4
X9.3Y-8.5
X9.3Y-8.6
X9.3Y-8.7
X9.3Y-8.8
X9.3Y-8.9
X9.3Y-9.0
X9.3Y-9.1
X9.3Y-9.2
X9.3Y-9.3
X9.3Y-9.4
X9.3Y-9.5
X9.3Y-9.6
X9.3Y-9.7
X9.9Y-8.2
X9.9Y-8.3
X9.9Y-8.4
X9.9Y-8.5
X9.9Y-8.6
X9.9Y-8.7
X9.9Y-8.8
X9.9Y-8.9
X9.9Y-9.0
X9.9Y-9.1
X9.9Y-9.2
X9.9Y-9.3
X9.9Y-9.4
X9.9Y-9.5
X9.9Y-9.6
X9.9Y-9.7
X10.25Y-4.15
X10.25Y-4.3469
X10.3Y-5.8
X10.3Y-6.1
X10.4Y-5.8
X10.4Y-6.1
X10.5Y-5.8
X10.5Y-6.1
X10.6Y-5.8
X10.6Y-6.1
X10.7Y-5.8
X10.7Y-6.1
X10.8Y-5.8
X10.8Y-6.1
X10.9Y-5.8
X9.5009Y-5.5982
X10.9Y-6.1
X11.0Y-5.8
X11.0Y-6.1
X11.1Y-5.8
X11.1Y-6.1
X11.2Y-5.8
X11.2Y-6.1
X6.9Y-10.1938
X6.9Y-10.2938
X6.9Y-10.3938
X6.9Y-10.4938
X6.9Y-10.5938
X6.9Y-10.6938
X6.9Y-10.7938
X6.9Y-10.8938
X6.9Y-10.9938
X6.9Y-11.0938
X7.2Y-10.1938
X7.2Y-10.2938
X7.2Y-10.3938
X7.2Y-10.4938
X7.2Y-10.5938
X7.2Y-10.6938
X7.2Y-10.7938
X7.2Y-10.8938
X7.2Y-10.9938
X7.2Y-11.0938
X14.25Y-13.15
X14.55Y-13.15
X8.488Y-5.8
X8.488Y-6.1
X8.588Y-5.8
X8.588Y-6.1
X8.688Y-5.8
X8.688Y-6.1
X8.788Y-5.8
X8.788Y-6.1
X8.888Y-5.8
X8.888Y-6.1
X8.988Y-5.8
X8.988Y-6.1
X9.088Y-5.8
X9.088Y-6.1
X9.188Y-5.8
X9.188Y-6.1
X9.288Y-5.8
X9.288Y-6.1
X9.388Y-5.8
X9.388Y-6.1
X9.488Y-5.8
X9.488Y-6.1
X9.588Y-5.8
X9.588Y-6.1
X9.688Y-5.8
X9.688Y-6.1
X9.788Y-5.8
X9.788Y-6.1
X8.9Y-7.5
X8.9Y-7.8
X9.0Y-7.5
X9.0Y-7.8
X9.1Y-7.5
X9.1Y-7.8
X9.2Y-7.5
X9.2Y-7.8
X9.3Y-7.5
X9.3Y-7.8
X9.4Y-7.5
X9.4Y-7.8
X9.5Y-7.5
X9.5Y-7.8
X9.6Y-7.5
X9.6Y-7.8
X9.7Y-7.5
X9.7Y-7.8
X9.8Y-7.5
X9.8Y-7.8
X10.3Y-7.5
X10.3Y-7.8
X10.4Y-7.5
X10.4Y-7.8
X10.5Y-7.5
X10.5Y-7.8
X10.6Y-7.5
X10.6Y-7.8
X10.7Y-7.5
X10.7Y-7.8
X10.8Y-7.5
X10.8Y-7.8
X10.9Y-7.5
X10.9Y-7.8
X11.0Y-7.5
X11.0Y-7.8
X11.1Y-7.5
X11.1Y-7.8
X11.2Y-7.5
X11.2Y-7.8
X10.3Y-3.6
X10.3Y-3.9
X10.4Y-3.6
X10.4Y-3.9
X10.5Y-3.6
X10.5Y-3.9
X10.6Y-3.6
X10.6Y-3.9
X10.7Y-3.6
X10.7Y-3.9
X10.8Y-3.6
X10.8Y-3.9
X10.9Y-3.6
X10.9Y-3.9
X11.0Y-3.6
X11.0Y-3.9
X11.1Y-3.6
X11.1Y-3.9
X11.2Y-3.6
X11.2Y-3.9
X10.3Y-12.3
X10.3Y-12.6
X10.4Y-12.3
X10.4Y-12.6
X10.5Y-12.3
X10.5Y-12.6
X10.6Y-12.3
X10.6Y-12.6
X10.7Y-12.3
X10.7Y-12.6
X10.8Y-12.3
X10.8Y-12.6
X10.9Y-12.3
X10.9Y-12.6
X11.0Y-12.3
X11.0Y-12.6
X11.1Y-12.3
X11.1Y-12.6
X11.2Y-12.3
X11.2Y-12.6
X12.5Y-11.1
X12.5Y-11.2
X12.5Y-11.3
X12.5Y-11.4
X12.5Y-11.5
X12.5Y-11.6
X12.5Y-11.7
X12.5Y-11.8
X12.8Y-11.1
X12.8Y-11.2
X12.8Y-11.3
X12.8Y-11.4
X12.8Y-11.5
X12.8Y-11.6
X12.8Y-11.7
X12.8Y-11.8
X14.9Y-10.2
X15.0969Y-10.2
X11.45Y-3.6531
X11.45Y-3.85
T4
X12.1Y-12.15
X12.1Y-12.3469
X12.1984Y-12.2484
X7.59Y-12.05
X15.1Y-10.75
X7.85Y-12.05
X7.95Y-12.05
X15.5Y-11.45
X15.6Y-11.45
X7.69Y-12.05
X15.0Y-10.75
T5
X8.4Y-6.8
X8.5Y-6.8
X8.6Y-6.8
X8.7Y-6.8
X8.8Y-6.8
X8.9Y-6.8
X9.0Y-6.8
X9.1Y-6.8
X11.65Y-12.95
X11.75Y-12.95
X11.85Y-12.95
X11.95Y-12.95
X12.05Y-12.95
X12.15Y-12.95
X12.25Y-12.95
X12.35Y-12.95
X12.45Y-12.95
X7.0Y-5.1
X13.7Y-6.4
X13.7Y-6.5
X7.1Y-5.1
X7.2Y-5.1
X13.8Y-6.4
X13.8Y-6.5
X13.9Y-6.4
X13.9Y-6.5
X14.0Y-6.4
X14.0Y-6.5
X14.1Y-6.4
X14.1Y-6.5
X14.2Y-6.4
X14.2Y-6.5
X14.3Y-6.4
X14.3Y-6.5
X14.4Y-6.4
X14.4Y-6.5
X14.5Y-6.4
X14.5Y-6.5
X14.6Y-6.4
X14.6Y-6.5
X14.7Y-6.4
X14.7Y-6.5
X14.8Y-6.4
X14.8Y-6.5
X14.9Y-6.4
X14.9Y-6.5
X15.0Y-6.4
X15.0Y-6.5
X15.1Y-6.4
X15.1Y-6.5
X15.2Y-6.4
X15.2Y-6.5
X15.3Y-6.4
X15.3Y-6.5
X15.4Y-6.4
X15.4Y-6.5
X15.5Y-6.4
X15.5Y-6.5
X15.6Y-6.4
X15.6Y-6.5
X12.405Y-6.65
X12.505Y-6.65
X12.605Y-6.65
X12.705Y-6.65
X12.805Y-6.65
X12.905Y-6.65
X13.005Y-6.65
X13.105Y-6.65
X13.205Y-6.65
X9.0Y-10.2
X9.0Y-10.3
X9.0Y-10.4
X9.0Y-10.5
X9.0Y-10.6
X9.0Y-10.7
X9.0Y-10.8
X9.0Y-10.9
X9.0Y-11.0
X10.4Y-11.35
X10.5Y-11.35
X10.6Y-11.35
X10.7Y-11.35
X10.8Y-11.35
X10.9Y-11.35
X11.0Y-11.35
X11.1Y-11.35
X11.2Y-11.35
X13.7Y-5.2
X13.7Y-5.3
X13.8Y-5.2
X13.8Y-5.3
X13.9Y-5.2
X13.9Y-5.3
X14.0Y-5.2
X14.0Y-5.3
X14.1Y-5.2
X14.1Y-5.3
X14.2Y-5.2
X14.2Y-5.3
X14.3Y-5.2
X14.3Y-5.3
X14.4Y-5.2
X14.4Y-5.3
X14.5Y-5.2
X14.5Y-5.3
X14.6Y-5.2
X14.6Y-5.3
X14.7Y-5.2
X14.7Y-5.3
X14.8Y-5.2
X14.8Y-5.3
X14.9Y-5.2
X14.9Y-5.3
X15.0Y-5.2
X15.0Y-5.3
X15.1Y-5.3
X15.2Y-5.2
X15.2Y-5.3
X15.3Y-5.2
X15.3Y-5.3
X15.4Y-5.2
X15.4Y-5.3
X15.5Y-5.2
X15.5Y-5.3
X15.6Y-5.2
X15.6Y-5.3
X13.7Y-5.8
X13.7Y-5.9
X13.8Y-5.8
X13.8Y-5.9
X13.9Y-5.8
X13.9Y-5.9
X14.0Y-5.8
X14.0Y-5.9
X14.1Y-5.8
X14.1Y-5.9
X14.2Y-5.8
X14.2Y-5.9
X14.3Y-5.8
X14.3Y-5.9
X14.4Y-5.8
X14.4Y-5.9
X14.5Y-5.8
X14.5Y-5.9
X14.6Y-5.8
X14.6Y-5.9
X14.7Y-5.8
X7.3Y-5.1
X15.1Y-5.2
X7.4Y-5.1
X7.5Y-5.1
X7.6Y-5.1
X14.7Y-5.9
X14.8Y-5.8
X14.8Y-5.9
X14.9Y-5.8
X14.9Y-5.9
X15.0Y-5.8
X15.0Y-5.9
X15.1Y-5.9
X15.2Y-5.8
X15.2Y-5.9
X15.3Y-5.8
X15.3Y-5.9
X15.4Y-5.8
X15.4Y-5.9
X15.5Y-5.8
X15.5Y-5.9
X15.6Y-5.8
X15.6Y-5.9
X8.2Y-10.2
X8.2Y-10.3
X8.2Y-10.4
X8.2Y-10.5
X8.2Y-10.6
X8.2Y-10.7
X8.2Y-10.8
X8.2Y-10.9
X8.2Y-11.0
X15.1Y-5.8
X7.7Y-5.1
X7.8Y-5.1
X14.5Y-12.75
X14.6Y-12.75
X7.0Y-3.9
X7.1Y-3.9
X14.7Y-12.75
X14.8Y-12.75
X14.9Y-12.75
X15.0Y-12.75
X15.1Y-12.75
X15.2Y-12.75
X15.3Y-12.75
X9.6Y-4.6
X9.7Y-4.6
X9.8Y-4.6
X9.9Y-4.6
X10.0Y-4.6
X10.1Y-4.6
X10.3Y-4.6
X10.4Y-4.6
X10.5Y-4.6
X10.6Y-4.6
X10.7Y-4.6
X10.8Y-4.6
X10.9Y-4.6
X11.0Y-4.6
X11.1Y-4.6
X11.2Y-4.6
X13.7Y-4.6
X13.7Y-4.7
X13.8Y-4.6
X13.8Y-4.7
X13.9Y-4.6
X13.9Y-4.7
X14.0Y-4.7
X14.1Y-4.6
X14.1Y-4.7
X14.2Y-4.6
X14.2Y-4.7
X14.3Y-4.6
X14.3Y-4.7
X14.4Y-4.6
X14.4Y-4.7
X14.5Y-4.6
X14.5Y-4.7
X14.6Y-4.6
X14.6Y-4.7
X14.7Y-4.6
X14.7Y-4.7
X14.8Y-4.6
X7.2Y-3.9
X7.3Y-3.9
X7.4Y-3.9
X7.5Y-3.9
X7.6Y-3.9
X7.7Y-3.9
X7.8Y-3.9
X7.9Y-3.9
X8.0Y-3.9
X8.1Y-3.9
X8.2Y-3.9
X8.3Y-3.9
X8.4Y-3.9
X8.5Y-3.9
X8.6Y-3.9
X7.0Y-7.5
X10.2Y-4.6
X7.1Y-7.5
X7.2Y-7.5
X7.4Y-7.5
X7.5Y-7.5
X7.6Y-7.5
X7.7Y-7.5
X7.8Y-7.5
X7.9Y-7.5
X8.0Y-7.5
X8.1Y-7.5
X8.2Y-7.5
X8.3Y-7.5
X8.4Y-7.5
X8.5Y-7.5
X8.6Y-7.5
X10.4Y-12.15
X10.5Y-12.15
X10.6Y-12.15
X10.7Y-12.15
X10.8Y-12.15
X10.9Y-12.15
X11.0Y-12.15
X11.1Y-12.15
X11.2Y-12.15
X10.4Y-9.45
X10.5Y-9.45
X14.0Y-4.6
X10.6Y-9.45
X10.7Y-9.45
X10.8Y-9.45
X10.9Y-9.45
X11.0Y-9.45
X11.1Y-9.45
X11.2Y-9.45
X13.7Y-4.0
X13.7Y-4.1
X13.8Y-4.0
X13.8Y-4.1
X13.9Y-4.0
X13.9Y-4.1
X14.0Y-4.0
X14.0Y-4.1
X14.1Y-4.0
X14.1Y-4.1
X14.2Y-4.0
X14.2Y-4.1
X14.3Y-4.0
X14.3Y-4.1
X14.4Y-4.0
X14.8Y-4.7
X7.3Y-7.5
X14.9Y-4.6
X14.9Y-4.7
X15.0Y-4.6
X15.0Y-4.7
X15.1Y-4.6
X15.1Y-4.7
X15.2Y-4.6
X15.2Y-4.7
X15.3Y-4.6
X15.3Y-4.7
X15.4Y-4.6
X15.4Y-4.7
X15.5Y-4.6
X15.5Y-4.7
X15.6Y-4.6
X15.6Y-4.7
X13.7Y-3.4
X13.7Y-3.5
X13.8Y-3.4
X13.8Y-3.5
X13.9Y-3.4
X13.9Y-3.5
X14.0Y-3.4
X14.0Y-3.5
X14.1Y-3.4
X14.1Y-3.5
X14.2Y-3.4
X14.2Y-3.5
X14.3Y-3.4
X14.3Y-3.5
X14.4Y-3.4
X14.4Y-3.5
X14.5Y-3.4
X14.5Y-3.5
X14.6Y-3.4
X14.6Y-3.5
X14.7Y-3.4
X14.7Y-3.5
X14.8Y-3.4
X14.8Y-3.5
X14.9Y-3.4
X14.9Y-3.5
X15.0Y-3.4
X15.0Y-3.5
X15.1Y-3.4
X15.1Y-3.5
X15.2Y-3.4
X15.2Y-3.5
X15.3Y-3.4
X15.3Y-3.5
X15.4Y-3.4
X15.4Y-3.5
X15.5Y-3.4
X15.5Y-3.5
X15.6Y-3.4
X15.6Y-3.5
X10.4Y-12.95
X10.5Y-12.95
X10.6Y-12.95
X10.7Y-12.95
X10.8Y-12.95
X10.9Y-12.95
X11.0Y-12.95
X11.1Y-12.95
X11.2Y-12.95
X7.0Y-6.8
X7.1Y-6.8
X7.2Y-6.8
X7.3Y-6.8
X7.4Y-6.8
X7.5Y-6.8
X7.6Y-6.8
X7.7Y-6.8
X14.4Y-4.1
X14.5Y-4.0
X14.5Y-4.1
X14.6Y-4.0
X14.6Y-4.1
X14.7Y-4.0
X14.7Y-4.1
X14.8Y-4.0
X14.8Y-4.1
X14.9Y-4.0
X14.9Y-4.1
X15.0Y-4.0
X15.0Y-4.1
X15.1Y-4.0
X15.1Y-4.1
X15.2Y-4.0
X15.2Y-4.1
X15.3Y-4.0
X15.3Y-4.1
X15.4Y-4.0
X15.4Y-4.1
X15.5Y-4.0
X15.5Y-4.1
X15.6Y-4.0
X15.6Y-4.1
X9.8Y-10.2
X9.8Y-10.3
X9.8Y-10.4
X9.8Y-10.5
X9.8Y-10.6
X9.8Y-10.7
X9.8Y-10.8
X9.8Y-10.9
X9.8Y-11.0
X7.4Y-10.2
X7.4Y-10.3
X7.4Y-10.4
X7.4Y-10.5
X7.4Y-10.6
X7.4Y-10.7
X7.4Y-10.8
X7.4Y-10.9
X7.4Y-11.0
X8.4Y-5.1
X8.5Y-5.1
X8.6Y-5.1
X8.7Y-5.1
X8.8Y-5.1
X8.9Y-5.1
X9.0Y-5.1
X9.1Y-5.1
X9.2Y-5.1
T6
X12.1Y-10.43
X12.1Y-10.6072
X12.3559Y-10.43
X12.3559Y-10.6072
X15.35Y-9.7
X15.35Y-9.8772
X15.6059Y-9.7
X15.6059Y-9.8772
T7
X15.62Y-10.45
X15.62Y-10.6469
T8
X6.75Y-3.05
X15.6Y-13.5
X15.6Y-3.05
X6.75Y-13.45
T0
M30
