G04 #@! TF.GenerationSoftware,KiCad,Pcbnew,(5.1.0-0)*
G04 #@! TF.CreationDate,2019-10-08T23:09:14-07:00*
G04 #@! TF.ProjectId,MainBoard,4d61696e-426f-4617-9264-2e6b69636164,rev?*
G04 #@! TF.SameCoordinates,Original*
G04 #@! TF.FileFunction,Copper,L4,Inr*
G04 #@! TF.FilePolarity,Positive*
%FSLAX46Y46*%
G04 Gerber Fmt 4.6, Leading zero omitted, Abs format (unit mm)*
G04 Created by KiCad (PCBNEW (5.1.0-0)) date 2019-10-08 23:09:14*
%MOMM*%
%LPD*%
G04 APERTURE LIST*
%ADD10C,2.500000*%
%ADD11R,2.500000X2.500000*%
%ADD12C,6.400000*%
%ADD13O,1.600000X1.600000*%
%ADD14R,1.600000X1.600000*%
%ADD15C,1.600000*%
%ADD16O,1.700000X1.700000*%
%ADD17R,1.700000X1.700000*%
%ADD18R,1.300000X1.300000*%
%ADD19C,1.300000*%
%ADD20C,2.000000*%
%ADD21C,1.620000*%
%ADD22C,1.800000*%
%ADD23R,1.800000X1.800000*%
%ADD24C,0.450000*%
%ADD25C,0.127000*%
G04 APERTURE END LIST*
D10*
X274828000Y-192960000D03*
D11*
X274828000Y-187960000D03*
D12*
X274320000Y-264160000D03*
X274320000Y-27940000D03*
X49530000Y-264160000D03*
X49530000Y-27940000D03*
D13*
X86360000Y-104140000D03*
X78740000Y-119380000D03*
X86360000Y-106680000D03*
X78740000Y-116840000D03*
X86360000Y-109220000D03*
X78740000Y-114300000D03*
X86360000Y-111760000D03*
X78740000Y-111760000D03*
X86360000Y-114300000D03*
X78740000Y-109220000D03*
X86360000Y-116840000D03*
X78740000Y-106680000D03*
X86360000Y-119380000D03*
D14*
X78740000Y-104140000D03*
D13*
X73660000Y-104140000D03*
X66040000Y-119380000D03*
X73660000Y-106680000D03*
X66040000Y-116840000D03*
X73660000Y-109220000D03*
X66040000Y-114300000D03*
X73660000Y-111760000D03*
X66040000Y-111760000D03*
X73660000Y-114300000D03*
X66040000Y-109220000D03*
X73660000Y-116840000D03*
X66040000Y-106680000D03*
X73660000Y-119380000D03*
D14*
X66040000Y-104140000D03*
D13*
X256540000Y-124460000D03*
X274320000Y-132080000D03*
X259080000Y-124460000D03*
X271780000Y-132080000D03*
X261620000Y-124460000D03*
X269240000Y-132080000D03*
X264160000Y-124460000D03*
X266700000Y-132080000D03*
X266700000Y-124460000D03*
X264160000Y-132080000D03*
X269240000Y-124460000D03*
X261620000Y-132080000D03*
X271780000Y-124460000D03*
X259080000Y-132080000D03*
X274320000Y-124460000D03*
D14*
X256540000Y-132080000D03*
D15*
X168910000Y-100410000D03*
X168910000Y-105410000D03*
X250190000Y-130730000D03*
X250190000Y-125730000D03*
D16*
X205740000Y-68580000D03*
X205740000Y-71120000D03*
X208280000Y-68580000D03*
X208280000Y-71120000D03*
X210820000Y-68580000D03*
X210820000Y-71120000D03*
X213360000Y-68580000D03*
X213360000Y-71120000D03*
X215900000Y-68580000D03*
X215900000Y-71120000D03*
X218440000Y-68580000D03*
X218440000Y-71120000D03*
X220980000Y-68580000D03*
X220980000Y-71120000D03*
X223520000Y-68580000D03*
X223520000Y-71120000D03*
X226060000Y-68580000D03*
X226060000Y-71120000D03*
X228600000Y-68580000D03*
X228600000Y-71120000D03*
X231140000Y-68580000D03*
X231140000Y-71120000D03*
X233680000Y-68580000D03*
X233680000Y-71120000D03*
X236220000Y-68580000D03*
X236220000Y-71120000D03*
X238760000Y-68580000D03*
X238760000Y-71120000D03*
X241300000Y-68580000D03*
X241300000Y-71120000D03*
X243840000Y-68580000D03*
X243840000Y-71120000D03*
X246380000Y-68580000D03*
X246380000Y-71120000D03*
X248920000Y-68580000D03*
X248920000Y-71120000D03*
X251460000Y-68580000D03*
X251460000Y-71120000D03*
X254000000Y-68580000D03*
D17*
X254000000Y-71120000D03*
D16*
X205740000Y-99060000D03*
X205740000Y-101600000D03*
X208280000Y-99060000D03*
X208280000Y-101600000D03*
X210820000Y-99060000D03*
X210820000Y-101600000D03*
X213360000Y-99060000D03*
X213360000Y-101600000D03*
X215900000Y-99060000D03*
X215900000Y-101600000D03*
X218440000Y-99060000D03*
X218440000Y-101600000D03*
X220980000Y-99060000D03*
X220980000Y-101600000D03*
X223520000Y-99060000D03*
X223520000Y-101600000D03*
X226060000Y-99060000D03*
X226060000Y-101600000D03*
X228600000Y-99060000D03*
X228600000Y-101600000D03*
X231140000Y-99060000D03*
X231140000Y-101600000D03*
X233680000Y-99060000D03*
X233680000Y-101600000D03*
X236220000Y-99060000D03*
X236220000Y-101600000D03*
X238760000Y-99060000D03*
X238760000Y-101600000D03*
X241300000Y-99060000D03*
X241300000Y-101600000D03*
X243840000Y-99060000D03*
X243840000Y-101600000D03*
X246380000Y-99060000D03*
X246380000Y-101600000D03*
X248920000Y-99060000D03*
X248920000Y-101600000D03*
X251460000Y-99060000D03*
X251460000Y-101600000D03*
X254000000Y-99060000D03*
D17*
X254000000Y-101600000D03*
D16*
X205740000Y-38100000D03*
X205740000Y-40640000D03*
X208280000Y-38100000D03*
X208280000Y-40640000D03*
X210820000Y-38100000D03*
X210820000Y-40640000D03*
X213360000Y-38100000D03*
X213360000Y-40640000D03*
X215900000Y-38100000D03*
X215900000Y-40640000D03*
X218440000Y-38100000D03*
X218440000Y-40640000D03*
X220980000Y-38100000D03*
X220980000Y-40640000D03*
X223520000Y-38100000D03*
X223520000Y-40640000D03*
X226060000Y-38100000D03*
X226060000Y-40640000D03*
X228600000Y-38100000D03*
X228600000Y-40640000D03*
X231140000Y-38100000D03*
X231140000Y-40640000D03*
X233680000Y-38100000D03*
X233680000Y-40640000D03*
X236220000Y-38100000D03*
X236220000Y-40640000D03*
X238760000Y-38100000D03*
X238760000Y-40640000D03*
X241300000Y-38100000D03*
X241300000Y-40640000D03*
X243840000Y-38100000D03*
X243840000Y-40640000D03*
X246380000Y-38100000D03*
X246380000Y-40640000D03*
X248920000Y-38100000D03*
X248920000Y-40640000D03*
X251460000Y-38100000D03*
X251460000Y-40640000D03*
X254000000Y-38100000D03*
D17*
X254000000Y-40640000D03*
D16*
X205740000Y-114300000D03*
X205740000Y-116840000D03*
X208280000Y-114300000D03*
X208280000Y-116840000D03*
X210820000Y-114300000D03*
X210820000Y-116840000D03*
X213360000Y-114300000D03*
X213360000Y-116840000D03*
X215900000Y-114300000D03*
X215900000Y-116840000D03*
X218440000Y-114300000D03*
X218440000Y-116840000D03*
X220980000Y-114300000D03*
X220980000Y-116840000D03*
X223520000Y-114300000D03*
X223520000Y-116840000D03*
X226060000Y-114300000D03*
X226060000Y-116840000D03*
X228600000Y-114300000D03*
X228600000Y-116840000D03*
X231140000Y-114300000D03*
X231140000Y-116840000D03*
X233680000Y-114300000D03*
X233680000Y-116840000D03*
X236220000Y-114300000D03*
X236220000Y-116840000D03*
X238760000Y-114300000D03*
X238760000Y-116840000D03*
X241300000Y-114300000D03*
X241300000Y-116840000D03*
X243840000Y-114300000D03*
X243840000Y-116840000D03*
X246380000Y-114300000D03*
X246380000Y-116840000D03*
X248920000Y-114300000D03*
X248920000Y-116840000D03*
X251460000Y-114300000D03*
X251460000Y-116840000D03*
X254000000Y-114300000D03*
D17*
X254000000Y-116840000D03*
D16*
X205740000Y-83820000D03*
X205740000Y-86360000D03*
X208280000Y-83820000D03*
X208280000Y-86360000D03*
X210820000Y-83820000D03*
X210820000Y-86360000D03*
X213360000Y-83820000D03*
X213360000Y-86360000D03*
X215900000Y-83820000D03*
X215900000Y-86360000D03*
X218440000Y-83820000D03*
X218440000Y-86360000D03*
X220980000Y-83820000D03*
X220980000Y-86360000D03*
X223520000Y-83820000D03*
X223520000Y-86360000D03*
X226060000Y-83820000D03*
X226060000Y-86360000D03*
X228600000Y-83820000D03*
X228600000Y-86360000D03*
X231140000Y-83820000D03*
X231140000Y-86360000D03*
X233680000Y-83820000D03*
X233680000Y-86360000D03*
X236220000Y-83820000D03*
X236220000Y-86360000D03*
X238760000Y-83820000D03*
X238760000Y-86360000D03*
X241300000Y-83820000D03*
X241300000Y-86360000D03*
X243840000Y-83820000D03*
X243840000Y-86360000D03*
X246380000Y-83820000D03*
X246380000Y-86360000D03*
X248920000Y-83820000D03*
X248920000Y-86360000D03*
X251460000Y-83820000D03*
X251460000Y-86360000D03*
X254000000Y-83820000D03*
D17*
X254000000Y-86360000D03*
D16*
X205740000Y-53340000D03*
X205740000Y-55880000D03*
X208280000Y-53340000D03*
X208280000Y-55880000D03*
X210820000Y-53340000D03*
X210820000Y-55880000D03*
X213360000Y-53340000D03*
X213360000Y-55880000D03*
X215900000Y-53340000D03*
X215900000Y-55880000D03*
X218440000Y-53340000D03*
X218440000Y-55880000D03*
X220980000Y-53340000D03*
X220980000Y-55880000D03*
X223520000Y-53340000D03*
X223520000Y-55880000D03*
X226060000Y-53340000D03*
X226060000Y-55880000D03*
X228600000Y-53340000D03*
X228600000Y-55880000D03*
X231140000Y-53340000D03*
X231140000Y-55880000D03*
X233680000Y-53340000D03*
X233680000Y-55880000D03*
X236220000Y-53340000D03*
X236220000Y-55880000D03*
X238760000Y-53340000D03*
X238760000Y-55880000D03*
X241300000Y-53340000D03*
X241300000Y-55880000D03*
X243840000Y-53340000D03*
X243840000Y-55880000D03*
X246380000Y-53340000D03*
X246380000Y-55880000D03*
X248920000Y-53340000D03*
X248920000Y-55880000D03*
X251460000Y-53340000D03*
X251460000Y-55880000D03*
X254000000Y-53340000D03*
D17*
X254000000Y-55880000D03*
D13*
X81280000Y-182875800D03*
X58420000Y-175255800D03*
X78740000Y-182875800D03*
X60960000Y-175255800D03*
X76200000Y-182875800D03*
X63500000Y-175255800D03*
X73660000Y-182875800D03*
X66040000Y-175255800D03*
X71120000Y-182875800D03*
X68580000Y-175255800D03*
X68580000Y-182875800D03*
X71120000Y-175255800D03*
X66040000Y-182875800D03*
X73660000Y-175255800D03*
X63500000Y-182875800D03*
X76200000Y-175255800D03*
X60960000Y-182875800D03*
X78740000Y-175255800D03*
X58420000Y-182875800D03*
D14*
X81280000Y-175255800D03*
D15*
X247730000Y-167640000D03*
X252730000Y-167640000D03*
X264160000Y-213360000D03*
X264160000Y-205740000D03*
X248920000Y-205740000D03*
D14*
X248920000Y-213360000D03*
D13*
X261620000Y-189230000D03*
D15*
X254000000Y-189230000D03*
D13*
X256540000Y-168910000D03*
D15*
X264160000Y-168910000D03*
D13*
X275590000Y-180340000D03*
D15*
X267970000Y-180340000D03*
X261540000Y-175260000D03*
X256540000Y-175260000D03*
X261540000Y-181610000D03*
X256540000Y-181610000D03*
D13*
X196850000Y-173990000D03*
D15*
X204470000Y-173990000D03*
D13*
X204470000Y-167640000D03*
D15*
X196850000Y-167640000D03*
X203120000Y-189230000D03*
X198120000Y-189230000D03*
X201390000Y-181610000D03*
D14*
X199390000Y-181610000D03*
D13*
X162560000Y-38100000D03*
X139700000Y-30480000D03*
X160020000Y-38100000D03*
X142240000Y-30480000D03*
X157480000Y-38100000D03*
X144780000Y-30480000D03*
X154940000Y-38100000D03*
X147320000Y-30480000D03*
X152400000Y-38100000D03*
X149860000Y-30480000D03*
X149860000Y-38100000D03*
X152400000Y-30480000D03*
X147320000Y-38100000D03*
X154940000Y-30480000D03*
X144780000Y-38100000D03*
X157480000Y-30480000D03*
X142240000Y-38100000D03*
X160020000Y-30480000D03*
X139700000Y-38100000D03*
D14*
X162560000Y-30480000D03*
D13*
X55880000Y-154940000D03*
X93980000Y-170180000D03*
X58420000Y-154940000D03*
X91440000Y-170180000D03*
X60960000Y-154940000D03*
X88900000Y-170180000D03*
X63500000Y-154940000D03*
X86360000Y-170180000D03*
X66040000Y-154940000D03*
X83820000Y-170180000D03*
X68580000Y-154940000D03*
X81280000Y-170180000D03*
X71120000Y-154940000D03*
X78740000Y-170180000D03*
X73660000Y-154940000D03*
X76200000Y-170180000D03*
X76200000Y-154940000D03*
X73660000Y-170180000D03*
X78740000Y-154940000D03*
X71120000Y-170180000D03*
X81280000Y-154940000D03*
X68580000Y-170180000D03*
X83820000Y-154940000D03*
X66040000Y-170180000D03*
X86360000Y-154940000D03*
X63500000Y-170180000D03*
X88900000Y-154940000D03*
X60960000Y-170180000D03*
X91440000Y-154940000D03*
X58420000Y-170180000D03*
X93980000Y-154940000D03*
D14*
X55880000Y-170180000D03*
D13*
X127000000Y-38100000D03*
X104140000Y-30480000D03*
X124460000Y-38100000D03*
X106680000Y-30480000D03*
X121920000Y-38100000D03*
X109220000Y-30480000D03*
X119380000Y-38100000D03*
X111760000Y-30480000D03*
X116840000Y-38100000D03*
X114300000Y-30480000D03*
X114300000Y-38100000D03*
X116840000Y-30480000D03*
X111760000Y-38100000D03*
X119380000Y-30480000D03*
X109220000Y-38100000D03*
X121920000Y-30480000D03*
X106680000Y-38100000D03*
X124460000Y-30480000D03*
X104140000Y-38100000D03*
D14*
X127000000Y-30480000D03*
D16*
X55880000Y-124460000D03*
X58420000Y-124460000D03*
X60960000Y-124460000D03*
X63500000Y-124460000D03*
X66040000Y-124460000D03*
X68580000Y-124460000D03*
X71120000Y-124460000D03*
D17*
X73660000Y-124460000D03*
D16*
X91440000Y-124460000D03*
X93980000Y-124460000D03*
X96520000Y-124460000D03*
X99060000Y-124460000D03*
X101600000Y-124460000D03*
X104140000Y-124460000D03*
X106680000Y-124460000D03*
D17*
X109220000Y-124460000D03*
D16*
X55880000Y-81280000D03*
X58420000Y-81280000D03*
X60960000Y-81280000D03*
X63500000Y-81280000D03*
X66040000Y-81280000D03*
X68580000Y-81280000D03*
X71120000Y-81280000D03*
X73660000Y-81280000D03*
D17*
X76200000Y-81280000D03*
D16*
X91440000Y-81280000D03*
X93980000Y-81280000D03*
X96520000Y-81280000D03*
X99060000Y-81280000D03*
X101600000Y-81280000D03*
X104140000Y-81280000D03*
X106680000Y-81280000D03*
X109220000Y-81280000D03*
D17*
X111760000Y-81280000D03*
D13*
X81280000Y-231140000D03*
X73660000Y-254000000D03*
X81280000Y-233680000D03*
X73660000Y-251460000D03*
X81280000Y-236220000D03*
X73660000Y-248920000D03*
X81280000Y-238760000D03*
X73660000Y-246380000D03*
X81280000Y-241300000D03*
X73660000Y-243840000D03*
X81280000Y-243840000D03*
X73660000Y-241300000D03*
X81280000Y-246380000D03*
X73660000Y-238760000D03*
X81280000Y-248920000D03*
X73660000Y-236220000D03*
X81280000Y-251460000D03*
X73660000Y-233680000D03*
X81280000Y-254000000D03*
D14*
X73660000Y-231140000D03*
D13*
X152400000Y-261620000D03*
X129540000Y-254000000D03*
X149860000Y-261620000D03*
X132080000Y-254000000D03*
X147320000Y-261620000D03*
X134620000Y-254000000D03*
X144780000Y-261620000D03*
X137160000Y-254000000D03*
X142240000Y-261620000D03*
X139700000Y-254000000D03*
X139700000Y-261620000D03*
X142240000Y-254000000D03*
X137160000Y-261620000D03*
X144780000Y-254000000D03*
X134620000Y-261620000D03*
X147320000Y-254000000D03*
X132080000Y-261620000D03*
X149860000Y-254000000D03*
X129540000Y-261620000D03*
D14*
X152400000Y-254000000D03*
D13*
X101600000Y-231140000D03*
X86360000Y-259080000D03*
X101600000Y-233680000D03*
X86360000Y-256540000D03*
X101600000Y-236220000D03*
X86360000Y-254000000D03*
X101600000Y-238760000D03*
X86360000Y-251460000D03*
X101600000Y-241300000D03*
X86360000Y-248920000D03*
X101600000Y-243840000D03*
X86360000Y-246380000D03*
X101600000Y-246380000D03*
X86360000Y-243840000D03*
X101600000Y-248920000D03*
X86360000Y-241300000D03*
X101600000Y-251460000D03*
X86360000Y-238760000D03*
X101600000Y-254000000D03*
X86360000Y-236220000D03*
X101600000Y-256540000D03*
X86360000Y-233680000D03*
X101600000Y-259080000D03*
D14*
X86360000Y-231140000D03*
D13*
X121920000Y-231140000D03*
X106680000Y-259080000D03*
X121920000Y-233680000D03*
X106680000Y-256540000D03*
X121920000Y-236220000D03*
X106680000Y-254000000D03*
X121920000Y-238760000D03*
X106680000Y-251460000D03*
X121920000Y-241300000D03*
X106680000Y-248920000D03*
X121920000Y-243840000D03*
X106680000Y-246380000D03*
X121920000Y-246380000D03*
X106680000Y-243840000D03*
X121920000Y-248920000D03*
X106680000Y-241300000D03*
X121920000Y-251460000D03*
X106680000Y-238760000D03*
X121920000Y-254000000D03*
X106680000Y-236220000D03*
X121920000Y-256540000D03*
X106680000Y-233680000D03*
X121920000Y-259080000D03*
D14*
X106680000Y-231140000D03*
D13*
X152400000Y-241300000D03*
X129540000Y-233680000D03*
X149860000Y-241300000D03*
X132080000Y-233680000D03*
X147320000Y-241300000D03*
X134620000Y-233680000D03*
X144780000Y-241300000D03*
X137160000Y-233680000D03*
X142240000Y-241300000D03*
X139700000Y-233680000D03*
X139700000Y-241300000D03*
X142240000Y-233680000D03*
X137160000Y-241300000D03*
X144780000Y-233680000D03*
X134620000Y-241300000D03*
X147320000Y-233680000D03*
X132080000Y-241300000D03*
X149860000Y-233680000D03*
X129540000Y-241300000D03*
D14*
X152400000Y-233680000D03*
D13*
X116840000Y-218440000D03*
X93980000Y-210820000D03*
X114300000Y-218440000D03*
X96520000Y-210820000D03*
X111760000Y-218440000D03*
X99060000Y-210820000D03*
X109220000Y-218440000D03*
X101600000Y-210820000D03*
X106680000Y-218440000D03*
X104140000Y-210820000D03*
X104140000Y-218440000D03*
X106680000Y-210820000D03*
X101600000Y-218440000D03*
X109220000Y-210820000D03*
X99060000Y-218440000D03*
X111760000Y-210820000D03*
X96520000Y-218440000D03*
X114300000Y-210820000D03*
X93980000Y-218440000D03*
D14*
X116840000Y-210820000D03*
D13*
X152400000Y-220980000D03*
X129540000Y-213360000D03*
X149860000Y-220980000D03*
X132080000Y-213360000D03*
X147320000Y-220980000D03*
X134620000Y-213360000D03*
X144780000Y-220980000D03*
X137160000Y-213360000D03*
X142240000Y-220980000D03*
X139700000Y-213360000D03*
X139700000Y-220980000D03*
X142240000Y-213360000D03*
X137160000Y-220980000D03*
X144780000Y-213360000D03*
X134620000Y-220980000D03*
X147320000Y-213360000D03*
X132080000Y-220980000D03*
X149860000Y-213360000D03*
X129540000Y-220980000D03*
D14*
X152400000Y-213360000D03*
D13*
X81280000Y-218440000D03*
X58420000Y-210820000D03*
X78740000Y-218440000D03*
X60960000Y-210820000D03*
X76200000Y-218440000D03*
X63500000Y-210820000D03*
X73660000Y-218440000D03*
X66040000Y-210820000D03*
X71120000Y-218440000D03*
X68580000Y-210820000D03*
X68580000Y-218440000D03*
X71120000Y-210820000D03*
X66040000Y-218440000D03*
X73660000Y-210820000D03*
X63500000Y-218440000D03*
X76200000Y-210820000D03*
X60960000Y-218440000D03*
X78740000Y-210820000D03*
X58420000Y-218440000D03*
D14*
X81280000Y-210820000D03*
D13*
X215900000Y-173990000D03*
X208280000Y-191770000D03*
X215900000Y-176530000D03*
X208280000Y-189230000D03*
X215900000Y-179070000D03*
X208280000Y-186690000D03*
X215900000Y-181610000D03*
X208280000Y-184150000D03*
X215900000Y-184150000D03*
X208280000Y-181610000D03*
X215900000Y-186690000D03*
X208280000Y-179070000D03*
X215900000Y-189230000D03*
X208280000Y-176530000D03*
X215900000Y-191770000D03*
D14*
X208280000Y-173990000D03*
D13*
X228600000Y-173990000D03*
X220980000Y-189230000D03*
X228600000Y-176530000D03*
X220980000Y-186690000D03*
X228600000Y-179070000D03*
X220980000Y-184150000D03*
X228600000Y-181610000D03*
X220980000Y-181610000D03*
X228600000Y-184150000D03*
X220980000Y-179070000D03*
X228600000Y-186690000D03*
X220980000Y-176530000D03*
X228600000Y-189230000D03*
D14*
X220980000Y-173990000D03*
D13*
X241300000Y-173990000D03*
X233680000Y-189230000D03*
X241300000Y-176530000D03*
X233680000Y-186690000D03*
X241300000Y-179070000D03*
X233680000Y-184150000D03*
X241300000Y-181610000D03*
X233680000Y-181610000D03*
X241300000Y-184150000D03*
X233680000Y-179070000D03*
X241300000Y-186690000D03*
X233680000Y-176530000D03*
X241300000Y-189230000D03*
D14*
X233680000Y-173990000D03*
D18*
X247650000Y-189230000D03*
D19*
X250190000Y-189230000D03*
X248920000Y-187960000D03*
D13*
X254000000Y-173990000D03*
X246380000Y-181610000D03*
X254000000Y-176530000D03*
X246380000Y-179070000D03*
X254000000Y-179070000D03*
X246380000Y-176530000D03*
X254000000Y-181610000D03*
D14*
X246380000Y-173990000D03*
D13*
X215900000Y-204470000D03*
X208280000Y-219710000D03*
X215900000Y-207010000D03*
X208280000Y-217170000D03*
X215900000Y-209550000D03*
X208280000Y-214630000D03*
X215900000Y-212090000D03*
X208280000Y-212090000D03*
X215900000Y-214630000D03*
X208280000Y-209550000D03*
X215900000Y-217170000D03*
X208280000Y-207010000D03*
X215900000Y-219710000D03*
D14*
X208280000Y-204470000D03*
D13*
X228600000Y-204470000D03*
X220980000Y-219710000D03*
X228600000Y-207010000D03*
X220980000Y-217170000D03*
X228600000Y-209550000D03*
X220980000Y-214630000D03*
X228600000Y-212090000D03*
X220980000Y-212090000D03*
X228600000Y-214630000D03*
X220980000Y-209550000D03*
X228600000Y-217170000D03*
X220980000Y-207010000D03*
X228600000Y-219710000D03*
D14*
X220980000Y-204470000D03*
D13*
X203200000Y-204470000D03*
X195580000Y-222250000D03*
X203200000Y-207010000D03*
X195580000Y-219710000D03*
X203200000Y-209550000D03*
X195580000Y-217170000D03*
X203200000Y-212090000D03*
X195580000Y-214630000D03*
X203200000Y-214630000D03*
X195580000Y-212090000D03*
X203200000Y-217170000D03*
X195580000Y-209550000D03*
X203200000Y-219710000D03*
X195580000Y-207010000D03*
X203200000Y-222250000D03*
D14*
X195580000Y-204470000D03*
D13*
X241300000Y-204470000D03*
X233680000Y-219710000D03*
X241300000Y-207010000D03*
X233680000Y-217170000D03*
X241300000Y-209550000D03*
X233680000Y-214630000D03*
X241300000Y-212090000D03*
X233680000Y-212090000D03*
X241300000Y-214630000D03*
X233680000Y-209550000D03*
X241300000Y-217170000D03*
X233680000Y-207010000D03*
X241300000Y-219710000D03*
D14*
X233680000Y-204470000D03*
D13*
X193040000Y-173990000D03*
X185420000Y-181610000D03*
X193040000Y-176530000D03*
X185420000Y-179070000D03*
X193040000Y-179070000D03*
X185420000Y-176530000D03*
X193040000Y-181610000D03*
D14*
X185420000Y-173990000D03*
D13*
X190500000Y-204470000D03*
X182880000Y-219710000D03*
X190500000Y-207010000D03*
X182880000Y-217170000D03*
X190500000Y-209550000D03*
X182880000Y-214630000D03*
X190500000Y-212090000D03*
X182880000Y-212090000D03*
X190500000Y-214630000D03*
X182880000Y-209550000D03*
X190500000Y-217170000D03*
X182880000Y-207010000D03*
X190500000Y-219710000D03*
D14*
X182880000Y-204470000D03*
D13*
X257810000Y-256540000D03*
X250190000Y-264160000D03*
X257810000Y-259080000D03*
X250190000Y-261620000D03*
X257810000Y-261620000D03*
X250190000Y-259080000D03*
X257810000Y-264160000D03*
D14*
X250190000Y-256540000D03*
D13*
X237490000Y-256540000D03*
X229870000Y-264160000D03*
X237490000Y-259080000D03*
X229870000Y-261620000D03*
X237490000Y-261620000D03*
X229870000Y-259080000D03*
X237490000Y-264160000D03*
D14*
X229870000Y-256540000D03*
D13*
X266696200Y-241298200D03*
X228596200Y-226058200D03*
X264156200Y-241298200D03*
X231136200Y-226058200D03*
X261616200Y-241298200D03*
X233676200Y-226058200D03*
X259076200Y-241298200D03*
X236216200Y-226058200D03*
X256536200Y-241298200D03*
X238756200Y-226058200D03*
X253996200Y-241298200D03*
X241296200Y-226058200D03*
X251456200Y-241298200D03*
X243836200Y-226058200D03*
X248916200Y-241298200D03*
X246376200Y-226058200D03*
X246376200Y-241298200D03*
X248916200Y-226058200D03*
X243836200Y-241298200D03*
X251456200Y-226058200D03*
X241296200Y-241298200D03*
X253996200Y-226058200D03*
X238756200Y-241298200D03*
X256536200Y-226058200D03*
X236216200Y-241298200D03*
X259076200Y-226058200D03*
X233676200Y-241298200D03*
X261616200Y-226058200D03*
X231136200Y-241298200D03*
X264156200Y-226058200D03*
X228596200Y-241298200D03*
D14*
X266696200Y-226058200D03*
D13*
X207010000Y-256540000D03*
X199390000Y-264160000D03*
X207010000Y-259080000D03*
X199390000Y-261620000D03*
X207010000Y-261620000D03*
X199390000Y-259080000D03*
X207010000Y-264160000D03*
D14*
X199390000Y-256540000D03*
D13*
X212090000Y-236220000D03*
X204470000Y-243840000D03*
X212090000Y-238760000D03*
X204470000Y-241300000D03*
X212090000Y-241300000D03*
X204470000Y-238760000D03*
X212090000Y-243840000D03*
D14*
X204470000Y-236220000D03*
D13*
X152400000Y-200660000D03*
X129540000Y-193040000D03*
X149860000Y-200660000D03*
X132080000Y-193040000D03*
X147320000Y-200660000D03*
X134620000Y-193040000D03*
X144780000Y-200660000D03*
X137160000Y-193040000D03*
X142240000Y-200660000D03*
X139700000Y-193040000D03*
X139700000Y-200660000D03*
X142240000Y-193040000D03*
X137160000Y-200660000D03*
X144780000Y-193040000D03*
X134620000Y-200660000D03*
X147320000Y-193040000D03*
X132080000Y-200660000D03*
X149860000Y-193040000D03*
X129540000Y-200660000D03*
D14*
X152400000Y-193040000D03*
D13*
X152409000Y-182875800D03*
X129549000Y-175255800D03*
X149869000Y-182875800D03*
X132089000Y-175255800D03*
X147329000Y-182875800D03*
X134629000Y-175255800D03*
X144789000Y-182875800D03*
X137169000Y-175255800D03*
X142249000Y-182875800D03*
X139709000Y-175255800D03*
X139709000Y-182875800D03*
X142249000Y-175255800D03*
X137169000Y-182875800D03*
X144789000Y-175255800D03*
X134629000Y-182875800D03*
X147329000Y-175255800D03*
X132089000Y-182875800D03*
X149869000Y-175255800D03*
X129549000Y-182875800D03*
D14*
X152409000Y-175255800D03*
D13*
X116849000Y-182875800D03*
X93989000Y-175255800D03*
X114309000Y-182875800D03*
X96529000Y-175255800D03*
X111769000Y-182875800D03*
X99069000Y-175255800D03*
X109229000Y-182875800D03*
X101609000Y-175255800D03*
X106689000Y-182875800D03*
X104149000Y-175255800D03*
X104149000Y-182875800D03*
X106689000Y-175255800D03*
X101609000Y-182875800D03*
X109229000Y-175255800D03*
X99069000Y-182875800D03*
X111769000Y-175255800D03*
X96529000Y-182875800D03*
X114309000Y-175255800D03*
X93989000Y-182875800D03*
D14*
X116849000Y-175255800D03*
D13*
X106680000Y-154940000D03*
X144780000Y-170180000D03*
X109220000Y-154940000D03*
X142240000Y-170180000D03*
X111760000Y-154940000D03*
X139700000Y-170180000D03*
X114300000Y-154940000D03*
X137160000Y-170180000D03*
X116840000Y-154940000D03*
X134620000Y-170180000D03*
X119380000Y-154940000D03*
X132080000Y-170180000D03*
X121920000Y-154940000D03*
X129540000Y-170180000D03*
X124460000Y-154940000D03*
X127000000Y-170180000D03*
X127000000Y-154940000D03*
X124460000Y-170180000D03*
X129540000Y-154940000D03*
X121920000Y-170180000D03*
X132080000Y-154940000D03*
X119380000Y-170180000D03*
X134620000Y-154940000D03*
X116840000Y-170180000D03*
X137160000Y-154940000D03*
X114300000Y-170180000D03*
X139700000Y-154940000D03*
X111760000Y-170180000D03*
X142240000Y-154940000D03*
X109220000Y-170180000D03*
X144780000Y-154940000D03*
D14*
X106680000Y-170180000D03*
D13*
X127000000Y-149860000D03*
X104140000Y-142240000D03*
X124460000Y-149860000D03*
X106680000Y-142240000D03*
X121920000Y-149860000D03*
X109220000Y-142240000D03*
X119380000Y-149860000D03*
X111760000Y-142240000D03*
X116840000Y-149860000D03*
X114300000Y-142240000D03*
X114300000Y-149860000D03*
X116840000Y-142240000D03*
X111760000Y-149860000D03*
X119380000Y-142240000D03*
X109220000Y-149860000D03*
X121920000Y-142240000D03*
X106680000Y-149860000D03*
X124460000Y-142240000D03*
X104140000Y-149860000D03*
D14*
X127000000Y-142240000D03*
D13*
X71120000Y-137160000D03*
X53340000Y-129540000D03*
X68580000Y-137160000D03*
X55880000Y-129540000D03*
X66040000Y-137160000D03*
X58420000Y-129540000D03*
X63500000Y-137160000D03*
X60960000Y-129540000D03*
X60960000Y-137160000D03*
X63500000Y-129540000D03*
X58420000Y-137160000D03*
X66040000Y-129540000D03*
X55880000Y-137160000D03*
X68580000Y-129540000D03*
X53340000Y-137160000D03*
D14*
X71120000Y-129540000D03*
D13*
X101600000Y-137160000D03*
X83820000Y-129540000D03*
X99060000Y-137160000D03*
X86360000Y-129540000D03*
X96520000Y-137160000D03*
X88900000Y-129540000D03*
X93980000Y-137160000D03*
X91440000Y-129540000D03*
X91440000Y-137160000D03*
X93980000Y-129540000D03*
X88900000Y-137160000D03*
X96520000Y-129540000D03*
X86360000Y-137160000D03*
X99060000Y-129540000D03*
X83820000Y-137160000D03*
D14*
X101600000Y-129540000D03*
D13*
X162560000Y-149860000D03*
X139700000Y-142240000D03*
X160020000Y-149860000D03*
X142240000Y-142240000D03*
X157480000Y-149860000D03*
X144780000Y-142240000D03*
X154940000Y-149860000D03*
X147320000Y-142240000D03*
X152400000Y-149860000D03*
X149860000Y-142240000D03*
X149860000Y-149860000D03*
X152400000Y-142240000D03*
X147320000Y-149860000D03*
X154940000Y-142240000D03*
X144780000Y-149860000D03*
X157480000Y-142240000D03*
X142240000Y-149860000D03*
X160020000Y-142240000D03*
X139700000Y-149860000D03*
D14*
X162560000Y-142240000D03*
D13*
X132080000Y-137160000D03*
X114300000Y-129540000D03*
X129540000Y-137160000D03*
X116840000Y-129540000D03*
X127000000Y-137160000D03*
X119380000Y-129540000D03*
X124460000Y-137160000D03*
X121920000Y-129540000D03*
X121920000Y-137160000D03*
X124460000Y-129540000D03*
X119380000Y-137160000D03*
X127000000Y-129540000D03*
X116840000Y-137160000D03*
X129540000Y-129540000D03*
X114300000Y-137160000D03*
D14*
X132080000Y-129540000D03*
D13*
X162560000Y-137160000D03*
X144780000Y-129540000D03*
X160020000Y-137160000D03*
X147320000Y-129540000D03*
X157480000Y-137160000D03*
X149860000Y-129540000D03*
X154940000Y-137160000D03*
X152400000Y-129540000D03*
X152400000Y-137160000D03*
X154940000Y-129540000D03*
X149860000Y-137160000D03*
X157480000Y-129540000D03*
X147320000Y-137160000D03*
X160020000Y-129540000D03*
X144780000Y-137160000D03*
D14*
X162560000Y-129540000D03*
D13*
X162560000Y-106680000D03*
X139700000Y-99060000D03*
X160020000Y-106680000D03*
X142240000Y-99060000D03*
X157480000Y-106680000D03*
X144780000Y-99060000D03*
X154940000Y-106680000D03*
X147320000Y-99060000D03*
X152400000Y-106680000D03*
X149860000Y-99060000D03*
X149860000Y-106680000D03*
X152400000Y-99060000D03*
X147320000Y-106680000D03*
X154940000Y-99060000D03*
X144780000Y-106680000D03*
X157480000Y-99060000D03*
X142240000Y-106680000D03*
X160020000Y-99060000D03*
X139700000Y-106680000D03*
D14*
X162560000Y-99060000D03*
D13*
X162560000Y-119380000D03*
X139700000Y-111760000D03*
X160020000Y-119380000D03*
X142240000Y-111760000D03*
X157480000Y-119380000D03*
X144780000Y-111760000D03*
X154940000Y-119380000D03*
X147320000Y-111760000D03*
X152400000Y-119380000D03*
X149860000Y-111760000D03*
X149860000Y-119380000D03*
X152400000Y-111760000D03*
X147320000Y-119380000D03*
X154940000Y-111760000D03*
X144780000Y-119380000D03*
X157480000Y-111760000D03*
X142240000Y-119380000D03*
X160020000Y-111760000D03*
X139700000Y-119380000D03*
D14*
X162560000Y-111760000D03*
D13*
X126695800Y-106680000D03*
X93675800Y-99060000D03*
X124155800Y-106680000D03*
X96215800Y-99060000D03*
X121615800Y-106680000D03*
X98755800Y-99060000D03*
X119075800Y-106680000D03*
X101295800Y-99060000D03*
X116535800Y-106680000D03*
X103835800Y-99060000D03*
X113995800Y-106680000D03*
X106375800Y-99060000D03*
X111455800Y-106680000D03*
X108915800Y-99060000D03*
X108915800Y-106680000D03*
X111455800Y-99060000D03*
X106375800Y-106680000D03*
X113995800Y-99060000D03*
X103835800Y-106680000D03*
X116535800Y-99060000D03*
X101295800Y-106680000D03*
X119075800Y-99060000D03*
X98755800Y-106680000D03*
X121615800Y-99060000D03*
X96215800Y-106680000D03*
X124155800Y-99060000D03*
X93675800Y-106680000D03*
D14*
X126695800Y-99060000D03*
D13*
X127000000Y-119380000D03*
X93980000Y-111760000D03*
X124460000Y-119380000D03*
X96520000Y-111760000D03*
X121920000Y-119380000D03*
X99060000Y-111760000D03*
X119380000Y-119380000D03*
X101600000Y-111760000D03*
X116840000Y-119380000D03*
X104140000Y-111760000D03*
X114300000Y-119380000D03*
X106680000Y-111760000D03*
X111760000Y-119380000D03*
X109220000Y-111760000D03*
X109220000Y-119380000D03*
X111760000Y-111760000D03*
X106680000Y-119380000D03*
X114300000Y-111760000D03*
X104140000Y-119380000D03*
X116840000Y-111760000D03*
X101600000Y-119380000D03*
X119380000Y-111760000D03*
X99060000Y-119380000D03*
X121920000Y-111760000D03*
X96520000Y-119380000D03*
X124460000Y-111760000D03*
X93980000Y-119380000D03*
D14*
X127000000Y-111760000D03*
D13*
X71142000Y-93935200D03*
X53362000Y-86315200D03*
X68602000Y-93935200D03*
X55902000Y-86315200D03*
X66062000Y-93935200D03*
X58442000Y-86315200D03*
X63522000Y-93935200D03*
X60982000Y-86315200D03*
X60982000Y-93935200D03*
X63522000Y-86315200D03*
X58442000Y-93935200D03*
X66062000Y-86315200D03*
X55902000Y-93935200D03*
X68602000Y-86315200D03*
X53362000Y-93935200D03*
D14*
X71142000Y-86315200D03*
D13*
X101622000Y-93935200D03*
X83842000Y-86315200D03*
X99082000Y-93935200D03*
X86382000Y-86315200D03*
X96542000Y-93935200D03*
X88922000Y-86315200D03*
X94002000Y-93935200D03*
X91462000Y-86315200D03*
X91462000Y-93935200D03*
X94002000Y-86315200D03*
X88922000Y-93935200D03*
X96542000Y-86315200D03*
X86382000Y-93935200D03*
X99082000Y-86315200D03*
X83842000Y-93935200D03*
D14*
X101622000Y-86315200D03*
D13*
X132102000Y-93935200D03*
X114322000Y-86315200D03*
X129562000Y-93935200D03*
X116862000Y-86315200D03*
X127022000Y-93935200D03*
X119402000Y-86315200D03*
X124482000Y-93935200D03*
X121942000Y-86315200D03*
X121942000Y-93935200D03*
X124482000Y-86315200D03*
X119402000Y-93935200D03*
X127022000Y-86315200D03*
X116862000Y-93935200D03*
X129562000Y-86315200D03*
X114322000Y-93935200D03*
D14*
X132102000Y-86315200D03*
D13*
X162582000Y-93935200D03*
X144802000Y-86315200D03*
X160042000Y-93935200D03*
X147342000Y-86315200D03*
X157502000Y-93935200D03*
X149882000Y-86315200D03*
X154962000Y-93935200D03*
X152422000Y-86315200D03*
X152422000Y-93935200D03*
X154962000Y-86315200D03*
X149882000Y-93935200D03*
X157502000Y-86315200D03*
X147342000Y-93935200D03*
X160042000Y-86315200D03*
X144802000Y-93935200D03*
D14*
X162582000Y-86315200D03*
D13*
X76194000Y-76206000D03*
X53334000Y-68586000D03*
X73654000Y-76206000D03*
X55874000Y-68586000D03*
X71114000Y-76206000D03*
X58414000Y-68586000D03*
X68574000Y-76206000D03*
X60954000Y-68586000D03*
X66034000Y-76206000D03*
X63494000Y-68586000D03*
X63494000Y-76206000D03*
X66034000Y-68586000D03*
X60954000Y-76206000D03*
X68574000Y-68586000D03*
X58414000Y-76206000D03*
X71114000Y-68586000D03*
X55874000Y-76206000D03*
X73654000Y-68586000D03*
X53334000Y-76206000D03*
D14*
X76194000Y-68586000D03*
D13*
X111754000Y-76206000D03*
X88894000Y-68586000D03*
X109214000Y-76206000D03*
X91434000Y-68586000D03*
X106674000Y-76206000D03*
X93974000Y-68586000D03*
X104134000Y-76206000D03*
X96514000Y-68586000D03*
X101594000Y-76206000D03*
X99054000Y-68586000D03*
X99054000Y-76206000D03*
X101594000Y-68586000D03*
X96514000Y-76206000D03*
X104134000Y-68586000D03*
X93974000Y-76206000D03*
X106674000Y-68586000D03*
X91434000Y-76206000D03*
X109214000Y-68586000D03*
X88894000Y-76206000D03*
D14*
X111754000Y-68586000D03*
D13*
X71120000Y-63500000D03*
X53340000Y-55880000D03*
X68580000Y-63500000D03*
X55880000Y-55880000D03*
X66040000Y-63500000D03*
X58420000Y-55880000D03*
X63500000Y-63500000D03*
X60960000Y-55880000D03*
X60960000Y-63500000D03*
X63500000Y-55880000D03*
X58420000Y-63500000D03*
X66040000Y-55880000D03*
X55880000Y-63500000D03*
X68580000Y-55880000D03*
X53340000Y-63500000D03*
D14*
X71120000Y-55880000D03*
D13*
X101600000Y-63500000D03*
X83820000Y-55880000D03*
X99060000Y-63500000D03*
X86360000Y-55880000D03*
X96520000Y-63500000D03*
X88900000Y-55880000D03*
X93980000Y-63500000D03*
X91440000Y-55880000D03*
X91440000Y-63500000D03*
X93980000Y-55880000D03*
X88900000Y-63500000D03*
X96520000Y-55880000D03*
X86360000Y-63500000D03*
X99060000Y-55880000D03*
X83820000Y-63500000D03*
D14*
X101600000Y-55880000D03*
D13*
X132080000Y-63500000D03*
X114300000Y-55880000D03*
X129540000Y-63500000D03*
X116840000Y-55880000D03*
X127000000Y-63500000D03*
X119380000Y-55880000D03*
X124460000Y-63500000D03*
X121920000Y-55880000D03*
X121920000Y-63500000D03*
X124460000Y-55880000D03*
X119380000Y-63500000D03*
X127000000Y-55880000D03*
X116840000Y-63500000D03*
X129540000Y-55880000D03*
X114300000Y-63500000D03*
D14*
X132080000Y-55880000D03*
D13*
X162560000Y-63500000D03*
X144780000Y-55880000D03*
X160020000Y-63500000D03*
X147320000Y-55880000D03*
X157480000Y-63500000D03*
X149860000Y-55880000D03*
X154940000Y-63500000D03*
X152400000Y-55880000D03*
X152400000Y-63500000D03*
X154940000Y-55880000D03*
X149860000Y-63500000D03*
X157480000Y-55880000D03*
X147320000Y-63500000D03*
X160020000Y-55880000D03*
X144780000Y-63500000D03*
D14*
X162560000Y-55880000D03*
D13*
X162560000Y-50800000D03*
X139700000Y-43180000D03*
X160020000Y-50800000D03*
X142240000Y-43180000D03*
X157480000Y-50800000D03*
X144780000Y-43180000D03*
X154940000Y-50800000D03*
X147320000Y-43180000D03*
X152400000Y-50800000D03*
X149860000Y-43180000D03*
X149860000Y-50800000D03*
X152400000Y-43180000D03*
X147320000Y-50800000D03*
X154940000Y-43180000D03*
X144780000Y-50800000D03*
X157480000Y-43180000D03*
X142240000Y-50800000D03*
X160020000Y-43180000D03*
X139700000Y-50800000D03*
D14*
X162560000Y-43180000D03*
D13*
X127000000Y-50800000D03*
X104140000Y-43180000D03*
X124460000Y-50800000D03*
X106680000Y-43180000D03*
X121920000Y-50800000D03*
X109220000Y-43180000D03*
X119380000Y-50800000D03*
X111760000Y-43180000D03*
X116840000Y-50800000D03*
X114300000Y-43180000D03*
X114300000Y-50800000D03*
X116840000Y-43180000D03*
X111760000Y-50800000D03*
X119380000Y-43180000D03*
X109220000Y-50800000D03*
X121920000Y-43180000D03*
X106680000Y-50800000D03*
X124460000Y-43180000D03*
X104140000Y-50800000D03*
D14*
X127000000Y-43180000D03*
D13*
X226060000Y-124460000D03*
X243840000Y-132080000D03*
X228600000Y-124460000D03*
X241300000Y-132080000D03*
X231140000Y-124460000D03*
X238760000Y-132080000D03*
X233680000Y-124460000D03*
X236220000Y-132080000D03*
X236220000Y-124460000D03*
X233680000Y-132080000D03*
X238760000Y-124460000D03*
X231140000Y-132080000D03*
X241300000Y-124460000D03*
X228600000Y-132080000D03*
X243840000Y-124460000D03*
D14*
X226060000Y-132080000D03*
D13*
X190500000Y-124460000D03*
X213360000Y-132080000D03*
X193040000Y-124460000D03*
X210820000Y-132080000D03*
X195580000Y-124460000D03*
X208280000Y-132080000D03*
X198120000Y-124460000D03*
X205740000Y-132080000D03*
X200660000Y-124460000D03*
X203200000Y-132080000D03*
X203200000Y-124460000D03*
X200660000Y-132080000D03*
X205740000Y-124460000D03*
X198120000Y-132080000D03*
X208280000Y-124460000D03*
X195580000Y-132080000D03*
X210820000Y-124460000D03*
X193040000Y-132080000D03*
X213360000Y-124460000D03*
D14*
X190500000Y-132080000D03*
D20*
X274470000Y-168910000D03*
X274470000Y-173410000D03*
X267970000Y-168910000D03*
X267970000Y-173410000D03*
X191920000Y-187452000D03*
X191920000Y-191952000D03*
X185420000Y-187452000D03*
X185420000Y-191952000D03*
D21*
X185420000Y-231140000D03*
X187920000Y-233640000D03*
X185420000Y-236140000D03*
D13*
X173990000Y-30480000D03*
X176530000Y-30480000D03*
X179070000Y-30480000D03*
X181610000Y-30480000D03*
X184150000Y-30480000D03*
X186690000Y-30480000D03*
X189230000Y-30480000D03*
X191770000Y-30480000D03*
D14*
X194310000Y-30480000D03*
D13*
X68580000Y-245110000D03*
D15*
X60960000Y-245110000D03*
D13*
X68580000Y-240030000D03*
D15*
X60960000Y-240030000D03*
D13*
X68580000Y-234950000D03*
D15*
X60960000Y-234950000D03*
D13*
X264160000Y-219710000D03*
D15*
X271780000Y-219710000D03*
D13*
X267970000Y-264160000D03*
D15*
X260350000Y-264160000D03*
D13*
X267970000Y-260350000D03*
D15*
X260350000Y-260350000D03*
D13*
X267970000Y-256540000D03*
D15*
X260350000Y-256540000D03*
D13*
X247650000Y-264160000D03*
D15*
X240030000Y-264160000D03*
D13*
X247650000Y-260350000D03*
D15*
X240030000Y-260350000D03*
D13*
X247650000Y-256540000D03*
D15*
X240030000Y-256540000D03*
D13*
X227330000Y-264160000D03*
D15*
X219710000Y-264160000D03*
D13*
X227330000Y-260350000D03*
D15*
X219710000Y-260350000D03*
D13*
X227330000Y-256540000D03*
D15*
X219710000Y-256540000D03*
D13*
X217170000Y-264160000D03*
D15*
X209550000Y-264160000D03*
D13*
X217170000Y-260350000D03*
D15*
X209550000Y-260350000D03*
D13*
X217170000Y-256540000D03*
D15*
X209550000Y-256540000D03*
D13*
X196850000Y-264160000D03*
D15*
X189230000Y-264160000D03*
D13*
X196850000Y-260350000D03*
D15*
X189230000Y-260350000D03*
D13*
X196850000Y-256540000D03*
D15*
X189230000Y-256540000D03*
D13*
X222250000Y-243840000D03*
D15*
X214630000Y-243840000D03*
D13*
X222250000Y-240030000D03*
D15*
X214630000Y-240030000D03*
D13*
X222250000Y-236220000D03*
D15*
X214630000Y-236220000D03*
D13*
X201930000Y-243840000D03*
D15*
X194310000Y-243840000D03*
D13*
X201930000Y-240030000D03*
D15*
X194310000Y-240030000D03*
D13*
X201930000Y-236220000D03*
D15*
X194310000Y-236220000D03*
D16*
X163830000Y-250190000D03*
X166370000Y-250190000D03*
X168910000Y-250190000D03*
X171450000Y-250190000D03*
X173990000Y-250190000D03*
X176530000Y-250190000D03*
X179070000Y-250190000D03*
X181610000Y-250190000D03*
D17*
X184150000Y-250190000D03*
D16*
X55880000Y-50800000D03*
X58420000Y-50800000D03*
X60960000Y-50800000D03*
X63500000Y-50800000D03*
X66040000Y-50800000D03*
X68580000Y-50800000D03*
X71120000Y-50800000D03*
X73660000Y-50800000D03*
X76200000Y-50800000D03*
X78740000Y-50800000D03*
X81280000Y-50800000D03*
X83820000Y-50800000D03*
X86360000Y-50800000D03*
X88900000Y-50800000D03*
X91440000Y-50800000D03*
X93980000Y-50800000D03*
D17*
X96520000Y-50800000D03*
D16*
X132080000Y-250190000D03*
X134620000Y-250190000D03*
X137160000Y-250190000D03*
X139700000Y-250190000D03*
X142240000Y-250190000D03*
X144780000Y-250190000D03*
X147320000Y-250190000D03*
X149860000Y-250190000D03*
D17*
X152400000Y-250190000D03*
D16*
X132080000Y-229870000D03*
X134620000Y-229870000D03*
X137160000Y-229870000D03*
X139700000Y-229870000D03*
X142240000Y-229870000D03*
X144780000Y-229870000D03*
X147320000Y-229870000D03*
X149860000Y-229870000D03*
D17*
X152400000Y-229870000D03*
D16*
X132080000Y-209550000D03*
X134620000Y-209550000D03*
X137160000Y-209550000D03*
X139700000Y-209550000D03*
X142240000Y-209550000D03*
X144780000Y-209550000D03*
X147320000Y-209550000D03*
X149860000Y-209550000D03*
D17*
X152400000Y-209550000D03*
D16*
X246380000Y-246380000D03*
X248920000Y-246380000D03*
X251460000Y-246380000D03*
X254000000Y-246380000D03*
X256540000Y-246380000D03*
X259080000Y-246380000D03*
X261620000Y-246380000D03*
X264160000Y-246380000D03*
D17*
X266700000Y-246380000D03*
D16*
X76200000Y-187960000D03*
X78740000Y-187960000D03*
X81280000Y-187960000D03*
X83820000Y-187960000D03*
X86360000Y-187960000D03*
X88900000Y-187960000D03*
X91440000Y-187960000D03*
X93980000Y-187960000D03*
X96520000Y-187960000D03*
X99060000Y-187960000D03*
X101600000Y-187960000D03*
X104140000Y-187960000D03*
X106680000Y-187960000D03*
X109220000Y-187960000D03*
X111760000Y-187960000D03*
X114300000Y-187960000D03*
D17*
X116840000Y-187960000D03*
D16*
X132080000Y-189230000D03*
X134620000Y-189230000D03*
X137160000Y-189230000D03*
X139700000Y-189230000D03*
X142240000Y-189230000D03*
X144780000Y-189230000D03*
X147320000Y-189230000D03*
X149860000Y-189230000D03*
D17*
X152400000Y-189230000D03*
D16*
X55880000Y-142240000D03*
X58420000Y-142240000D03*
X60960000Y-142240000D03*
X63500000Y-142240000D03*
X66040000Y-142240000D03*
X68580000Y-142240000D03*
X71120000Y-142240000D03*
X73660000Y-142240000D03*
X76200000Y-142240000D03*
X78740000Y-142240000D03*
X81280000Y-142240000D03*
X83820000Y-142240000D03*
X86360000Y-142240000D03*
X88900000Y-142240000D03*
X91440000Y-142240000D03*
X93980000Y-142240000D03*
D17*
X96520000Y-142240000D03*
D16*
X121920000Y-68580000D03*
X124460000Y-68580000D03*
X127000000Y-68580000D03*
X129540000Y-68580000D03*
X132080000Y-68580000D03*
X134620000Y-68580000D03*
X137160000Y-68580000D03*
X139700000Y-68580000D03*
X142240000Y-68580000D03*
X144780000Y-68580000D03*
X147320000Y-68580000D03*
X149860000Y-68580000D03*
X152400000Y-68580000D03*
X154940000Y-68580000D03*
X157480000Y-68580000D03*
X160020000Y-68580000D03*
D17*
X162560000Y-68580000D03*
D16*
X193167000Y-136652000D03*
X195707000Y-136652000D03*
X198247000Y-136652000D03*
X200787000Y-136652000D03*
X203327000Y-136652000D03*
X205867000Y-136652000D03*
X208407000Y-136652000D03*
X210947000Y-136652000D03*
D17*
X213487000Y-136652000D03*
D22*
X69850000Y-224790000D03*
D23*
X67310000Y-224790000D03*
D22*
X63246000Y-224790000D03*
D23*
X60706000Y-224790000D03*
D22*
X259080000Y-195580000D03*
D23*
X261620000Y-195580000D03*
D22*
X271780000Y-213360000D03*
D23*
X274320000Y-213360000D03*
D15*
X91520000Y-224790000D03*
X96520000Y-224790000D03*
X75010000Y-224790000D03*
X80010000Y-224790000D03*
X158750000Y-260270000D03*
X158750000Y-255270000D03*
X111840000Y-224790000D03*
X116840000Y-224790000D03*
X123190000Y-212170000D03*
X123190000Y-217170000D03*
X158750000Y-235030000D03*
X158750000Y-240030000D03*
X87630000Y-212170000D03*
X87630000Y-217170000D03*
X158750000Y-214710000D03*
X158750000Y-219710000D03*
X209630000Y-167640000D03*
X214630000Y-167640000D03*
X222330000Y-167640000D03*
X227330000Y-167640000D03*
X235030000Y-167640000D03*
X240030000Y-167640000D03*
X184230000Y-198120000D03*
X189230000Y-198120000D03*
X186770000Y-167640000D03*
X191770000Y-167640000D03*
X252730000Y-198120000D03*
X247730000Y-198120000D03*
X209630000Y-198120000D03*
X214630000Y-198120000D03*
X222330000Y-198120000D03*
X227330000Y-198120000D03*
X196930000Y-198120000D03*
X201930000Y-198120000D03*
X235030000Y-198120000D03*
X240030000Y-198120000D03*
X251540000Y-250190000D03*
X256540000Y-250190000D03*
X231220000Y-250190000D03*
X236220000Y-250190000D03*
X273050000Y-231220000D03*
X273050000Y-236220000D03*
X200740000Y-250190000D03*
X205740000Y-250190000D03*
X205740000Y-229870000D03*
X210740000Y-229870000D03*
X158750000Y-194390000D03*
X158750000Y-199390000D03*
X158750000Y-176610000D03*
X158750000Y-181610000D03*
X87630000Y-176555800D03*
X87630000Y-181555800D03*
X123190000Y-176610000D03*
X123190000Y-181610000D03*
X49530000Y-165055000D03*
X49530000Y-160055000D03*
X100330000Y-165055000D03*
X100330000Y-160055000D03*
X133350000Y-143590000D03*
X133350000Y-148590000D03*
X77470000Y-130840000D03*
X77470000Y-135840000D03*
X107950000Y-130840000D03*
X107950000Y-135840000D03*
X168910000Y-143590000D03*
X168910000Y-148590000D03*
X138430000Y-130840000D03*
X138430000Y-135840000D03*
X168910000Y-130840000D03*
X168910000Y-135840000D03*
X168910000Y-113147200D03*
X168910000Y-118147200D03*
X133350000Y-100360000D03*
X133350000Y-105360000D03*
X133350000Y-113060000D03*
X133350000Y-118060000D03*
X79965800Y-98475800D03*
X84965800Y-98475800D03*
X67390000Y-98526600D03*
X72390000Y-98526600D03*
X77470000Y-87710000D03*
X77470000Y-92710000D03*
X107950000Y-87710000D03*
X107950000Y-92710000D03*
X168910000Y-87630000D03*
X168910000Y-92630000D03*
X138430000Y-87710000D03*
X138430000Y-92710000D03*
X82550000Y-69850000D03*
X82550000Y-74850000D03*
X118110000Y-69850000D03*
X118110000Y-74850000D03*
X77470000Y-57230000D03*
X77470000Y-62230000D03*
X107950000Y-62150000D03*
X107950000Y-57150000D03*
X138430000Y-62150000D03*
X138430000Y-57150000D03*
X168910000Y-62150000D03*
X168910000Y-57150000D03*
X168910000Y-44530000D03*
X168910000Y-49530000D03*
X168910000Y-31830000D03*
X168910000Y-36830000D03*
X133350000Y-49450000D03*
X133350000Y-44450000D03*
X133350000Y-36750000D03*
X133350000Y-31750000D03*
X219710000Y-130730000D03*
X219710000Y-125730000D03*
X184150000Y-130730000D03*
X184150000Y-125730000D03*
X273780000Y-203200000D03*
D14*
X271780000Y-203200000D03*
D24*
X100457000Y-135128000D03*
X78105000Y-215138000D03*
X131191000Y-191135000D03*
X153289000Y-191135000D03*
X91338499Y-239750501D03*
X108077000Y-165608000D03*
X107950000Y-113538000D03*
X110236000Y-165100000D03*
X110490000Y-113538000D03*
X113411000Y-159766000D03*
X113157000Y-113411000D03*
X100076000Y-263617490D03*
X87757000Y-260731000D03*
X87757000Y-261366000D03*
X87757000Y-262001000D03*
X108458000Y-256540000D03*
X108204000Y-254000000D03*
X101346000Y-158115000D03*
X106680000Y-158115000D03*
X99093290Y-157621089D03*
X99695000Y-157607000D03*
X101346000Y-157480000D03*
X106680000Y-157480000D03*
X71247000Y-57785000D03*
X197612000Y-200914000D03*
X163830000Y-245999000D03*
X163830000Y-205359000D03*
X165989000Y-101727000D03*
X163830000Y-225679000D03*
X173990000Y-49149000D03*
X173990000Y-36576000D03*
X76200000Y-216408000D03*
X194691000Y-126492000D03*
X173990000Y-127889000D03*
X173990000Y-101600000D03*
X164465000Y-245491000D03*
X164465000Y-204851000D03*
X164465000Y-225171000D03*
X174625000Y-48641000D03*
X174625000Y-36068000D03*
X73660000Y-216754490D03*
X165989000Y-102362000D03*
X174625000Y-102362000D03*
X194691000Y-127127000D03*
X174626825Y-128304510D03*
X165100000Y-244983000D03*
X165100000Y-204343000D03*
X165989000Y-102997000D03*
X165100000Y-224663000D03*
X175260000Y-48133000D03*
X175260000Y-35560000D03*
X66040000Y-217033987D03*
X194691000Y-127762000D03*
X175260000Y-102870000D03*
X175260000Y-128558510D03*
X165735000Y-244475000D03*
X165735000Y-203835000D03*
X165989000Y-103632000D03*
X175895000Y-103632000D03*
X165735000Y-224155000D03*
X175895000Y-47625000D03*
X175895000Y-35052000D03*
X194691000Y-128397000D03*
X175895000Y-128812510D03*
X166370000Y-243967000D03*
X166370000Y-203327000D03*
X165989000Y-104267000D03*
X176530000Y-104267000D03*
X166370000Y-223647000D03*
X176530000Y-47117000D03*
X176530000Y-34544000D03*
X176530000Y-129066510D03*
X167005000Y-243332000D03*
X167005000Y-202692000D03*
X165989000Y-104902000D03*
X177165000Y-104775000D03*
X167005000Y-223012000D03*
X177165000Y-46609000D03*
X177165000Y-34036000D03*
X66040000Y-212344000D03*
X177165000Y-129320510D03*
X167640000Y-242824000D03*
X167640000Y-202184000D03*
X165989000Y-105537000D03*
X177800000Y-105283000D03*
X167640000Y-222504000D03*
X177800000Y-46101000D03*
X177800000Y-33528000D03*
X73660000Y-212598000D03*
X177800000Y-129574510D03*
X168275000Y-242316000D03*
X168275000Y-201676000D03*
X165989000Y-106172000D03*
X178435000Y-105791000D03*
X168275000Y-221996000D03*
X178435000Y-45593000D03*
X178439396Y-33054510D03*
X76198664Y-212759499D03*
X178435000Y-129828510D03*
X58420000Y-71374000D03*
X60960000Y-71628000D03*
X63500000Y-71882000D03*
X66040000Y-72136000D03*
X68580000Y-72390000D03*
X71120000Y-72644000D03*
X73660000Y-72898000D03*
X91440000Y-73152000D03*
X93980000Y-73406000D03*
X96520000Y-73660000D03*
X99060000Y-73914000D03*
X101600000Y-74168000D03*
X104140000Y-74422000D03*
X106680000Y-74676000D03*
X109220000Y-74930000D03*
X68580000Y-168402000D03*
X71120000Y-168148000D03*
X73660000Y-167894000D03*
X76200000Y-167640000D03*
X78740000Y-167386000D03*
X81280000Y-167132000D03*
X83820000Y-166878000D03*
X88646000Y-248920000D03*
X109220000Y-246253000D03*
X109601000Y-236220000D03*
X110236000Y-238760000D03*
X110490000Y-241300000D03*
X110744000Y-243840000D03*
X97824510Y-243840000D03*
X97790000Y-238760000D03*
X96901000Y-236093000D03*
X88900000Y-233680000D03*
X116262980Y-229679500D03*
X117313500Y-238760000D03*
X116678479Y-230781262D03*
X117059500Y-233680000D03*
X115316276Y-231867490D03*
X110294281Y-229626887D03*
X113538000Y-232156000D03*
X98967521Y-241427000D03*
X98933000Y-236220000D03*
X96393000Y-234696000D03*
X124714000Y-236347000D03*
X124714000Y-235712000D03*
X111887000Y-231140000D03*
X124714000Y-232410000D03*
X116586000Y-227838000D03*
X233680000Y-32639000D03*
X116781178Y-32350490D03*
X234696000Y-32893000D03*
X58348955Y-88328511D03*
X52636617Y-88519772D03*
X114300000Y-32766000D03*
X236220000Y-33147000D03*
X52756472Y-87955346D03*
X106680000Y-33020000D03*
X237236000Y-33401000D03*
X106680000Y-35687000D03*
X238760000Y-33655000D03*
X114300000Y-35941000D03*
X239776000Y-33909000D03*
X116840000Y-36195000D03*
X241300000Y-34163000D03*
X242316000Y-34417000D03*
X116459000Y-92075000D03*
X243840000Y-34763500D03*
X122174000Y-91313000D03*
X116840000Y-44831000D03*
X244983000Y-35017500D03*
X114300000Y-45085000D03*
X246380000Y-35179000D03*
X106680000Y-45339000D03*
X247523000Y-35433000D03*
X147193000Y-91186000D03*
X106680000Y-48641000D03*
X248920000Y-35687000D03*
X153924000Y-91186000D03*
X114030620Y-48483673D03*
X250063000Y-35941000D03*
X116577637Y-48733481D03*
X251460000Y-36195000D03*
X84351867Y-135158259D03*
X83947000Y-134366000D03*
X90567895Y-134303275D03*
X84748828Y-134739494D03*
X90975904Y-134711284D03*
X84328000Y-135763000D03*
X86868000Y-135763000D03*
X138811000Y-117602000D03*
X91186000Y-121539000D03*
X139544766Y-117455855D03*
X92202000Y-121666000D03*
X93218000Y-122174000D03*
X142494000Y-115408490D03*
X92744510Y-122589510D03*
X144281282Y-115381420D03*
X146099835Y-113562867D03*
X206248000Y-236220000D03*
X254000000Y-229235000D03*
X251460000Y-228981000D03*
X248920000Y-228727000D03*
X246380000Y-228473000D03*
X243840000Y-228219000D03*
X241300000Y-227965000D03*
X95088490Y-118911401D03*
X93934415Y-117411489D03*
X67691000Y-117856000D03*
X95670166Y-133315490D03*
X62738000Y-139446000D03*
X54737000Y-139192000D03*
X213360000Y-213614000D03*
X210947000Y-210312000D03*
X99695000Y-250190000D03*
X88646000Y-246634000D03*
X88646000Y-247777000D03*
X108712000Y-257810000D03*
X88900000Y-251841000D03*
X159385000Y-89916000D03*
X160909000Y-91567000D03*
X161036000Y-89408000D03*
X160147000Y-89662000D03*
X160243508Y-91982510D03*
X129921000Y-87630000D03*
X119507000Y-96103248D03*
X131191000Y-88138000D03*
X124587000Y-96139000D03*
X117068900Y-96103244D03*
X130556000Y-87630000D03*
X122047000Y-96103246D03*
X116586000Y-103505000D03*
X104963116Y-103314936D03*
X93945422Y-102269578D03*
X65151000Y-92329000D03*
X93472000Y-102997000D03*
X168910000Y-115697000D03*
X114558396Y-116366510D03*
X104521000Y-116205000D03*
X103632000Y-115951000D03*
X168910000Y-115062000D03*
X114046000Y-115951000D03*
X90424000Y-120269000D03*
X81407000Y-119380000D03*
X168910000Y-116995197D03*
X168910000Y-116332000D03*
X80772000Y-107442000D03*
X95377000Y-118364000D03*
X94869000Y-117602000D03*
X76708000Y-114173000D03*
D25*
X61722000Y-215138000D02*
X58420000Y-218440000D01*
X78105000Y-215138000D02*
X61722000Y-215138000D01*
X95020501Y-163898557D02*
X95020501Y-217399499D01*
X95020501Y-217399499D02*
X93980000Y-218440000D01*
X100457000Y-158462058D02*
X95020501Y-163898557D01*
X100457000Y-135128000D02*
X100457000Y-158462058D01*
X82207000Y-210820000D02*
X81280000Y-210820000D01*
X86360000Y-206667000D02*
X82207000Y-210820000D01*
X86360000Y-187960000D02*
X86360000Y-206667000D01*
X91440000Y-187960000D02*
X88265000Y-191135000D01*
X88265000Y-191135000D02*
X88265000Y-208788000D01*
X88265000Y-208788000D02*
X84455000Y-212598000D01*
X84455000Y-212598000D02*
X84455000Y-224282000D01*
X77597000Y-231140000D02*
X73660000Y-231140000D01*
X84455000Y-224282000D02*
X77597000Y-231140000D01*
X90529499Y-238941501D02*
X91338499Y-239750501D01*
X90529499Y-191410501D02*
X90529499Y-238941501D01*
X93980000Y-187960000D02*
X90529499Y-191410501D01*
X108940501Y-136315441D02*
X108940501Y-130364559D01*
X107950000Y-129374058D02*
X107950000Y-113538000D01*
X108077000Y-137178942D02*
X108940501Y-136315441D01*
X108940501Y-130364559D02*
X107950000Y-129374058D01*
X108077000Y-165608000D02*
X108077000Y-137178942D01*
X110490000Y-164846000D02*
X110490000Y-113538000D01*
X110236000Y-165100000D02*
X110490000Y-164846000D01*
X113157000Y-159512000D02*
X113157000Y-113411000D01*
X113411000Y-159766000D02*
X113157000Y-159512000D01*
X101346000Y-158115000D02*
X106680000Y-158115000D01*
X71120000Y-154940000D02*
X73801089Y-157621089D01*
X73801089Y-157621089D02*
X99093290Y-157621089D01*
X68580000Y-154940000D02*
X72517000Y-158877000D01*
X72517000Y-158877000D02*
X98425000Y-158877000D01*
X98425000Y-158877000D02*
X99695000Y-157607000D01*
X101346000Y-157480000D02*
X106680000Y-157480000D01*
X72047000Y-129540000D02*
X71120000Y-129540000D01*
X74337501Y-131830501D02*
X72047000Y-129540000D01*
X98382499Y-131830501D02*
X74337501Y-131830501D01*
X100673000Y-129540000D02*
X98382499Y-131830501D01*
X101600000Y-129540000D02*
X100673000Y-129540000D01*
X133007000Y-129540000D02*
X132080000Y-129540000D01*
X135297501Y-131830501D02*
X133007000Y-129540000D01*
X162560000Y-130467000D02*
X161196499Y-131830501D01*
X161196499Y-131830501D02*
X135297501Y-131830501D01*
X162560000Y-129540000D02*
X162560000Y-130467000D01*
X233680000Y-32639000D02*
X233680000Y-38100000D01*
X234720501Y-32917501D02*
X234696000Y-32893000D01*
X234720501Y-39599499D02*
X234720501Y-32917501D01*
X233680000Y-40640000D02*
X234720501Y-39599499D01*
X236220000Y-33147000D02*
X236220000Y-38100000D01*
X237260501Y-33425501D02*
X237236000Y-33401000D01*
X237260501Y-39599499D02*
X237260501Y-33425501D01*
X236220000Y-40640000D02*
X237260501Y-39599499D01*
X238760000Y-33655000D02*
X238760000Y-38100000D01*
X239800501Y-39599499D02*
X239800501Y-33933501D01*
X239800501Y-33933501D02*
X239776000Y-33909000D01*
X238760000Y-40640000D02*
X239800501Y-39599499D01*
X241300000Y-34163000D02*
X241300000Y-38100000D01*
X242340501Y-34441501D02*
X242316000Y-34417000D01*
X242340501Y-39599499D02*
X242340501Y-34441501D01*
X241300000Y-40640000D02*
X242340501Y-39599499D01*
X243840000Y-34763500D02*
X243840000Y-38100000D01*
X244983000Y-39497000D02*
X243840000Y-40640000D01*
X244983000Y-35017500D02*
X244983000Y-39497000D01*
X246380000Y-35179000D02*
X246380000Y-38100000D01*
X247523000Y-39497000D02*
X246380000Y-40640000D01*
X247523000Y-35433000D02*
X247523000Y-39497000D01*
X248920000Y-35687000D02*
X248920000Y-38100000D01*
X250063000Y-39497000D02*
X248920000Y-40640000D01*
X250063000Y-35941000D02*
X250063000Y-39497000D01*
X251460000Y-36195000D02*
X251460000Y-38100000D01*
X72600301Y-88700501D02*
X98309699Y-88700501D01*
X100695000Y-86315200D02*
X101622000Y-86315200D01*
X98309699Y-88700501D02*
X100695000Y-86315200D01*
X71142000Y-87242200D02*
X72600301Y-88700501D01*
X71142000Y-86315200D02*
X71142000Y-87242200D01*
X112856058Y-86315200D02*
X115567858Y-89027000D01*
X101622000Y-86315200D02*
X112856058Y-86315200D01*
X115567858Y-89027000D02*
X131445000Y-89027000D01*
X132102000Y-88370000D02*
X132102000Y-86315200D01*
X131445000Y-89027000D02*
X132102000Y-88370000D01*
X159269699Y-88700501D02*
X161655000Y-86315200D01*
X133029000Y-86315200D02*
X135414301Y-88700501D01*
X161655000Y-86315200D02*
X162582000Y-86315200D01*
X135414301Y-88700501D02*
X159269699Y-88700501D01*
X132102000Y-86315200D02*
X133029000Y-86315200D01*
X151735301Y-177800000D02*
X101604800Y-177800000D01*
X179070000Y-150465302D02*
X151735301Y-177800000D01*
X179070000Y-138227196D02*
X179070000Y-150465302D01*
X184410647Y-132886549D02*
X179070000Y-138227196D01*
X187750549Y-132886549D02*
X184410647Y-132886549D01*
X190970098Y-129667000D02*
X187750549Y-132886549D01*
X101604800Y-177800000D02*
X96529000Y-182875800D01*
X231267000Y-129667000D02*
X190970098Y-129667000D01*
X233680000Y-132080000D02*
X231267000Y-129667000D01*
X103001800Y-178943000D02*
X99069000Y-182875800D01*
X179578000Y-138557000D02*
X179578000Y-150749000D01*
X184658000Y-133477000D02*
X179578000Y-138557000D01*
X179578000Y-150749000D02*
X151384000Y-178943000D01*
X262763000Y-133477000D02*
X184658000Y-133477000D01*
X151384000Y-178943000D02*
X103001800Y-178943000D01*
X264160000Y-132080000D02*
X262763000Y-133477000D01*
X168910000Y-115697000D02*
X168591802Y-115697000D01*
X168591802Y-115697000D02*
X146431000Y-115697000D01*
X145796000Y-116332000D02*
X145761490Y-116366510D01*
X114876594Y-116366510D02*
X114558396Y-116366510D01*
X144872490Y-116366510D02*
X145761490Y-116366510D01*
X146177000Y-115951000D02*
X145796000Y-116332000D01*
X145761490Y-116366510D02*
X146177000Y-115951000D01*
X146431000Y-115697000D02*
X146177000Y-115951000D01*
X144872490Y-116366510D02*
X114876594Y-116366510D01*
X104521000Y-116205000D02*
X104521000Y-115824000D01*
X104521000Y-115824000D02*
X103886000Y-115189000D01*
X73184559Y-115290501D02*
X68326000Y-110431942D01*
X103784499Y-115290501D02*
X73184559Y-115290501D01*
X103886000Y-115189000D02*
X103784499Y-115290501D01*
X66040000Y-105067000D02*
X66040000Y-104140000D01*
X68326000Y-107353000D02*
X66040000Y-105067000D01*
X68326000Y-110431942D02*
X68326000Y-107353000D01*
X146050000Y-115062000D02*
X168910000Y-115062000D01*
X114046000Y-115951000D02*
X145161000Y-115951000D01*
X145161000Y-115951000D02*
X146050000Y-115062000D01*
X103378000Y-115697000D02*
X103632000Y-115951000D01*
X101981000Y-115697000D02*
X103378000Y-115697000D01*
X70006001Y-115726001D02*
X101981000Y-115697000D01*
X66040000Y-111760000D02*
X70006001Y-115726001D01*
M02*
