G04 #@! TF.GenerationSoftware,KiCad,Pcbnew,(5.1.0-0)*
G04 #@! TF.CreationDate,2019-10-08T22:08:13-07:00*
G04 #@! TF.ProjectId,MainBoard,4d61696e-426f-4617-9264-2e6b69636164,rev?*
G04 #@! TF.SameCoordinates,Original*
G04 #@! TF.FileFunction,Copper,L3,Inr*
G04 #@! TF.FilePolarity,Positive*
%FSLAX46Y46*%
G04 Gerber Fmt 4.6, Leading zero omitted, Abs format (unit mm)*
G04 Created by KiCad (PCBNEW (5.1.0-0)) date 2019-10-08 22:08:13*
%MOMM*%
%LPD*%
G04 APERTURE LIST*
%ADD10C,2.500000*%
%ADD11R,2.500000X2.500000*%
%ADD12O,1.600000X1.600000*%
%ADD13R,1.600000X1.600000*%
%ADD14C,1.600000*%
%ADD15O,1.700000X1.700000*%
%ADD16R,1.700000X1.700000*%
%ADD17R,1.300000X1.300000*%
%ADD18C,1.300000*%
%ADD19C,2.000000*%
%ADD20C,1.620000*%
%ADD21C,1.800000*%
%ADD22R,1.800000X1.800000*%
%ADD23C,0.450000*%
%ADD24C,0.127000*%
G04 APERTURE END LIST*
D10*
X368808000Y-208200000D03*
D11*
X368808000Y-203200000D03*
D12*
X180340000Y-119380000D03*
X172720000Y-134620000D03*
X180340000Y-121920000D03*
X172720000Y-132080000D03*
X180340000Y-124460000D03*
X172720000Y-129540000D03*
X180340000Y-127000000D03*
X172720000Y-127000000D03*
X180340000Y-129540000D03*
X172720000Y-124460000D03*
X180340000Y-132080000D03*
X172720000Y-121920000D03*
X180340000Y-134620000D03*
D13*
X172720000Y-119380000D03*
D12*
X167640000Y-119380000D03*
X160020000Y-134620000D03*
X167640000Y-121920000D03*
X160020000Y-132080000D03*
X167640000Y-124460000D03*
X160020000Y-129540000D03*
X167640000Y-127000000D03*
X160020000Y-127000000D03*
X167640000Y-129540000D03*
X160020000Y-124460000D03*
X167640000Y-132080000D03*
X160020000Y-121920000D03*
X167640000Y-134620000D03*
D13*
X160020000Y-119380000D03*
D12*
X350520000Y-139700000D03*
X368300000Y-147320000D03*
X353060000Y-139700000D03*
X365760000Y-147320000D03*
X355600000Y-139700000D03*
X363220000Y-147320000D03*
X358140000Y-139700000D03*
X360680000Y-147320000D03*
X360680000Y-139700000D03*
X358140000Y-147320000D03*
X363220000Y-139700000D03*
X355600000Y-147320000D03*
X365760000Y-139700000D03*
X353060000Y-147320000D03*
X368300000Y-139700000D03*
D13*
X350520000Y-147320000D03*
D14*
X262890000Y-115650000D03*
X262890000Y-120650000D03*
X344170000Y-145970000D03*
X344170000Y-140970000D03*
D15*
X299720000Y-83820000D03*
X299720000Y-86360000D03*
X302260000Y-83820000D03*
X302260000Y-86360000D03*
X304800000Y-83820000D03*
X304800000Y-86360000D03*
X307340000Y-83820000D03*
X307340000Y-86360000D03*
X309880000Y-83820000D03*
X309880000Y-86360000D03*
X312420000Y-83820000D03*
X312420000Y-86360000D03*
X314960000Y-83820000D03*
X314960000Y-86360000D03*
X317500000Y-83820000D03*
X317500000Y-86360000D03*
X320040000Y-83820000D03*
X320040000Y-86360000D03*
X322580000Y-83820000D03*
X322580000Y-86360000D03*
X325120000Y-83820000D03*
X325120000Y-86360000D03*
X327660000Y-83820000D03*
X327660000Y-86360000D03*
X330200000Y-83820000D03*
X330200000Y-86360000D03*
X332740000Y-83820000D03*
X332740000Y-86360000D03*
X335280000Y-83820000D03*
X335280000Y-86360000D03*
X337820000Y-83820000D03*
X337820000Y-86360000D03*
X340360000Y-83820000D03*
X340360000Y-86360000D03*
X342900000Y-83820000D03*
X342900000Y-86360000D03*
X345440000Y-83820000D03*
X345440000Y-86360000D03*
X347980000Y-83820000D03*
D16*
X347980000Y-86360000D03*
D15*
X299720000Y-114300000D03*
X299720000Y-116840000D03*
X302260000Y-114300000D03*
X302260000Y-116840000D03*
X304800000Y-114300000D03*
X304800000Y-116840000D03*
X307340000Y-114300000D03*
X307340000Y-116840000D03*
X309880000Y-114300000D03*
X309880000Y-116840000D03*
X312420000Y-114300000D03*
X312420000Y-116840000D03*
X314960000Y-114300000D03*
X314960000Y-116840000D03*
X317500000Y-114300000D03*
X317500000Y-116840000D03*
X320040000Y-114300000D03*
X320040000Y-116840000D03*
X322580000Y-114300000D03*
X322580000Y-116840000D03*
X325120000Y-114300000D03*
X325120000Y-116840000D03*
X327660000Y-114300000D03*
X327660000Y-116840000D03*
X330200000Y-114300000D03*
X330200000Y-116840000D03*
X332740000Y-114300000D03*
X332740000Y-116840000D03*
X335280000Y-114300000D03*
X335280000Y-116840000D03*
X337820000Y-114300000D03*
X337820000Y-116840000D03*
X340360000Y-114300000D03*
X340360000Y-116840000D03*
X342900000Y-114300000D03*
X342900000Y-116840000D03*
X345440000Y-114300000D03*
X345440000Y-116840000D03*
X347980000Y-114300000D03*
D16*
X347980000Y-116840000D03*
D15*
X299720000Y-53340000D03*
X299720000Y-55880000D03*
X302260000Y-53340000D03*
X302260000Y-55880000D03*
X304800000Y-53340000D03*
X304800000Y-55880000D03*
X307340000Y-53340000D03*
X307340000Y-55880000D03*
X309880000Y-53340000D03*
X309880000Y-55880000D03*
X312420000Y-53340000D03*
X312420000Y-55880000D03*
X314960000Y-53340000D03*
X314960000Y-55880000D03*
X317500000Y-53340000D03*
X317500000Y-55880000D03*
X320040000Y-53340000D03*
X320040000Y-55880000D03*
X322580000Y-53340000D03*
X322580000Y-55880000D03*
X325120000Y-53340000D03*
X325120000Y-55880000D03*
X327660000Y-53340000D03*
X327660000Y-55880000D03*
X330200000Y-53340000D03*
X330200000Y-55880000D03*
X332740000Y-53340000D03*
X332740000Y-55880000D03*
X335280000Y-53340000D03*
X335280000Y-55880000D03*
X337820000Y-53340000D03*
X337820000Y-55880000D03*
X340360000Y-53340000D03*
X340360000Y-55880000D03*
X342900000Y-53340000D03*
X342900000Y-55880000D03*
X345440000Y-53340000D03*
X345440000Y-55880000D03*
X347980000Y-53340000D03*
D16*
X347980000Y-55880000D03*
D15*
X299720000Y-129540000D03*
X299720000Y-132080000D03*
X302260000Y-129540000D03*
X302260000Y-132080000D03*
X304800000Y-129540000D03*
X304800000Y-132080000D03*
X307340000Y-129540000D03*
X307340000Y-132080000D03*
X309880000Y-129540000D03*
X309880000Y-132080000D03*
X312420000Y-129540000D03*
X312420000Y-132080000D03*
X314960000Y-129540000D03*
X314960000Y-132080000D03*
X317500000Y-129540000D03*
X317500000Y-132080000D03*
X320040000Y-129540000D03*
X320040000Y-132080000D03*
X322580000Y-129540000D03*
X322580000Y-132080000D03*
X325120000Y-129540000D03*
X325120000Y-132080000D03*
X327660000Y-129540000D03*
X327660000Y-132080000D03*
X330200000Y-129540000D03*
X330200000Y-132080000D03*
X332740000Y-129540000D03*
X332740000Y-132080000D03*
X335280000Y-129540000D03*
X335280000Y-132080000D03*
X337820000Y-129540000D03*
X337820000Y-132080000D03*
X340360000Y-129540000D03*
X340360000Y-132080000D03*
X342900000Y-129540000D03*
X342900000Y-132080000D03*
X345440000Y-129540000D03*
X345440000Y-132080000D03*
X347980000Y-129540000D03*
D16*
X347980000Y-132080000D03*
D15*
X299720000Y-99060000D03*
X299720000Y-101600000D03*
X302260000Y-99060000D03*
X302260000Y-101600000D03*
X304800000Y-99060000D03*
X304800000Y-101600000D03*
X307340000Y-99060000D03*
X307340000Y-101600000D03*
X309880000Y-99060000D03*
X309880000Y-101600000D03*
X312420000Y-99060000D03*
X312420000Y-101600000D03*
X314960000Y-99060000D03*
X314960000Y-101600000D03*
X317500000Y-99060000D03*
X317500000Y-101600000D03*
X320040000Y-99060000D03*
X320040000Y-101600000D03*
X322580000Y-99060000D03*
X322580000Y-101600000D03*
X325120000Y-99060000D03*
X325120000Y-101600000D03*
X327660000Y-99060000D03*
X327660000Y-101600000D03*
X330200000Y-99060000D03*
X330200000Y-101600000D03*
X332740000Y-99060000D03*
X332740000Y-101600000D03*
X335280000Y-99060000D03*
X335280000Y-101600000D03*
X337820000Y-99060000D03*
X337820000Y-101600000D03*
X340360000Y-99060000D03*
X340360000Y-101600000D03*
X342900000Y-99060000D03*
X342900000Y-101600000D03*
X345440000Y-99060000D03*
X345440000Y-101600000D03*
X347980000Y-99060000D03*
D16*
X347980000Y-101600000D03*
D15*
X299720000Y-68580000D03*
X299720000Y-71120000D03*
X302260000Y-68580000D03*
X302260000Y-71120000D03*
X304800000Y-68580000D03*
X304800000Y-71120000D03*
X307340000Y-68580000D03*
X307340000Y-71120000D03*
X309880000Y-68580000D03*
X309880000Y-71120000D03*
X312420000Y-68580000D03*
X312420000Y-71120000D03*
X314960000Y-68580000D03*
X314960000Y-71120000D03*
X317500000Y-68580000D03*
X317500000Y-71120000D03*
X320040000Y-68580000D03*
X320040000Y-71120000D03*
X322580000Y-68580000D03*
X322580000Y-71120000D03*
X325120000Y-68580000D03*
X325120000Y-71120000D03*
X327660000Y-68580000D03*
X327660000Y-71120000D03*
X330200000Y-68580000D03*
X330200000Y-71120000D03*
X332740000Y-68580000D03*
X332740000Y-71120000D03*
X335280000Y-68580000D03*
X335280000Y-71120000D03*
X337820000Y-68580000D03*
X337820000Y-71120000D03*
X340360000Y-68580000D03*
X340360000Y-71120000D03*
X342900000Y-68580000D03*
X342900000Y-71120000D03*
X345440000Y-68580000D03*
X345440000Y-71120000D03*
X347980000Y-68580000D03*
D16*
X347980000Y-71120000D03*
D12*
X175260000Y-198115800D03*
X152400000Y-190495800D03*
X172720000Y-198115800D03*
X154940000Y-190495800D03*
X170180000Y-198115800D03*
X157480000Y-190495800D03*
X167640000Y-198115800D03*
X160020000Y-190495800D03*
X165100000Y-198115800D03*
X162560000Y-190495800D03*
X162560000Y-198115800D03*
X165100000Y-190495800D03*
X160020000Y-198115800D03*
X167640000Y-190495800D03*
X157480000Y-198115800D03*
X170180000Y-190495800D03*
X154940000Y-198115800D03*
X172720000Y-190495800D03*
X152400000Y-198115800D03*
D13*
X175260000Y-190495800D03*
D14*
X341710000Y-182880000D03*
X346710000Y-182880000D03*
X358140000Y-228600000D03*
X358140000Y-220980000D03*
X342900000Y-220980000D03*
D13*
X342900000Y-228600000D03*
D12*
X355600000Y-204470000D03*
D14*
X347980000Y-204470000D03*
D12*
X350520000Y-184150000D03*
D14*
X358140000Y-184150000D03*
D12*
X369570000Y-195580000D03*
D14*
X361950000Y-195580000D03*
X355520000Y-190500000D03*
X350520000Y-190500000D03*
X355520000Y-196850000D03*
X350520000Y-196850000D03*
D12*
X290830000Y-189230000D03*
D14*
X298450000Y-189230000D03*
D12*
X298450000Y-182880000D03*
D14*
X290830000Y-182880000D03*
X297100000Y-204470000D03*
X292100000Y-204470000D03*
X295370000Y-196850000D03*
D13*
X293370000Y-196850000D03*
D12*
X256540000Y-53340000D03*
X233680000Y-45720000D03*
X254000000Y-53340000D03*
X236220000Y-45720000D03*
X251460000Y-53340000D03*
X238760000Y-45720000D03*
X248920000Y-53340000D03*
X241300000Y-45720000D03*
X246380000Y-53340000D03*
X243840000Y-45720000D03*
X243840000Y-53340000D03*
X246380000Y-45720000D03*
X241300000Y-53340000D03*
X248920000Y-45720000D03*
X238760000Y-53340000D03*
X251460000Y-45720000D03*
X236220000Y-53340000D03*
X254000000Y-45720000D03*
X233680000Y-53340000D03*
D13*
X256540000Y-45720000D03*
D12*
X149860000Y-170180000D03*
X187960000Y-185420000D03*
X152400000Y-170180000D03*
X185420000Y-185420000D03*
X154940000Y-170180000D03*
X182880000Y-185420000D03*
X157480000Y-170180000D03*
X180340000Y-185420000D03*
X160020000Y-170180000D03*
X177800000Y-185420000D03*
X162560000Y-170180000D03*
X175260000Y-185420000D03*
X165100000Y-170180000D03*
X172720000Y-185420000D03*
X167640000Y-170180000D03*
X170180000Y-185420000D03*
X170180000Y-170180000D03*
X167640000Y-185420000D03*
X172720000Y-170180000D03*
X165100000Y-185420000D03*
X175260000Y-170180000D03*
X162560000Y-185420000D03*
X177800000Y-170180000D03*
X160020000Y-185420000D03*
X180340000Y-170180000D03*
X157480000Y-185420000D03*
X182880000Y-170180000D03*
X154940000Y-185420000D03*
X185420000Y-170180000D03*
X152400000Y-185420000D03*
X187960000Y-170180000D03*
D13*
X149860000Y-185420000D03*
D12*
X220980000Y-53340000D03*
X198120000Y-45720000D03*
X218440000Y-53340000D03*
X200660000Y-45720000D03*
X215900000Y-53340000D03*
X203200000Y-45720000D03*
X213360000Y-53340000D03*
X205740000Y-45720000D03*
X210820000Y-53340000D03*
X208280000Y-45720000D03*
X208280000Y-53340000D03*
X210820000Y-45720000D03*
X205740000Y-53340000D03*
X213360000Y-45720000D03*
X203200000Y-53340000D03*
X215900000Y-45720000D03*
X200660000Y-53340000D03*
X218440000Y-45720000D03*
X198120000Y-53340000D03*
D13*
X220980000Y-45720000D03*
D15*
X149860000Y-139700000D03*
X152400000Y-139700000D03*
X154940000Y-139700000D03*
X157480000Y-139700000D03*
X160020000Y-139700000D03*
X162560000Y-139700000D03*
X165100000Y-139700000D03*
D16*
X167640000Y-139700000D03*
D15*
X185420000Y-139700000D03*
X187960000Y-139700000D03*
X190500000Y-139700000D03*
X193040000Y-139700000D03*
X195580000Y-139700000D03*
X198120000Y-139700000D03*
X200660000Y-139700000D03*
D16*
X203200000Y-139700000D03*
D15*
X149860000Y-96520000D03*
X152400000Y-96520000D03*
X154940000Y-96520000D03*
X157480000Y-96520000D03*
X160020000Y-96520000D03*
X162560000Y-96520000D03*
X165100000Y-96520000D03*
X167640000Y-96520000D03*
D16*
X170180000Y-96520000D03*
D15*
X185420000Y-96520000D03*
X187960000Y-96520000D03*
X190500000Y-96520000D03*
X193040000Y-96520000D03*
X195580000Y-96520000D03*
X198120000Y-96520000D03*
X200660000Y-96520000D03*
X203200000Y-96520000D03*
D16*
X205740000Y-96520000D03*
D12*
X175260000Y-246380000D03*
X167640000Y-269240000D03*
X175260000Y-248920000D03*
X167640000Y-266700000D03*
X175260000Y-251460000D03*
X167640000Y-264160000D03*
X175260000Y-254000000D03*
X167640000Y-261620000D03*
X175260000Y-256540000D03*
X167640000Y-259080000D03*
X175260000Y-259080000D03*
X167640000Y-256540000D03*
X175260000Y-261620000D03*
X167640000Y-254000000D03*
X175260000Y-264160000D03*
X167640000Y-251460000D03*
X175260000Y-266700000D03*
X167640000Y-248920000D03*
X175260000Y-269240000D03*
D13*
X167640000Y-246380000D03*
D12*
X246380000Y-276860000D03*
X223520000Y-269240000D03*
X243840000Y-276860000D03*
X226060000Y-269240000D03*
X241300000Y-276860000D03*
X228600000Y-269240000D03*
X238760000Y-276860000D03*
X231140000Y-269240000D03*
X236220000Y-276860000D03*
X233680000Y-269240000D03*
X233680000Y-276860000D03*
X236220000Y-269240000D03*
X231140000Y-276860000D03*
X238760000Y-269240000D03*
X228600000Y-276860000D03*
X241300000Y-269240000D03*
X226060000Y-276860000D03*
X243840000Y-269240000D03*
X223520000Y-276860000D03*
D13*
X246380000Y-269240000D03*
D12*
X195580000Y-246380000D03*
X180340000Y-274320000D03*
X195580000Y-248920000D03*
X180340000Y-271780000D03*
X195580000Y-251460000D03*
X180340000Y-269240000D03*
X195580000Y-254000000D03*
X180340000Y-266700000D03*
X195580000Y-256540000D03*
X180340000Y-264160000D03*
X195580000Y-259080000D03*
X180340000Y-261620000D03*
X195580000Y-261620000D03*
X180340000Y-259080000D03*
X195580000Y-264160000D03*
X180340000Y-256540000D03*
X195580000Y-266700000D03*
X180340000Y-254000000D03*
X195580000Y-269240000D03*
X180340000Y-251460000D03*
X195580000Y-271780000D03*
X180340000Y-248920000D03*
X195580000Y-274320000D03*
D13*
X180340000Y-246380000D03*
D12*
X215900000Y-246380000D03*
X200660000Y-274320000D03*
X215900000Y-248920000D03*
X200660000Y-271780000D03*
X215900000Y-251460000D03*
X200660000Y-269240000D03*
X215900000Y-254000000D03*
X200660000Y-266700000D03*
X215900000Y-256540000D03*
X200660000Y-264160000D03*
X215900000Y-259080000D03*
X200660000Y-261620000D03*
X215900000Y-261620000D03*
X200660000Y-259080000D03*
X215900000Y-264160000D03*
X200660000Y-256540000D03*
X215900000Y-266700000D03*
X200660000Y-254000000D03*
X215900000Y-269240000D03*
X200660000Y-251460000D03*
X215900000Y-271780000D03*
X200660000Y-248920000D03*
X215900000Y-274320000D03*
D13*
X200660000Y-246380000D03*
D12*
X246380000Y-256540000D03*
X223520000Y-248920000D03*
X243840000Y-256540000D03*
X226060000Y-248920000D03*
X241300000Y-256540000D03*
X228600000Y-248920000D03*
X238760000Y-256540000D03*
X231140000Y-248920000D03*
X236220000Y-256540000D03*
X233680000Y-248920000D03*
X233680000Y-256540000D03*
X236220000Y-248920000D03*
X231140000Y-256540000D03*
X238760000Y-248920000D03*
X228600000Y-256540000D03*
X241300000Y-248920000D03*
X226060000Y-256540000D03*
X243840000Y-248920000D03*
X223520000Y-256540000D03*
D13*
X246380000Y-248920000D03*
D12*
X210820000Y-233680000D03*
X187960000Y-226060000D03*
X208280000Y-233680000D03*
X190500000Y-226060000D03*
X205740000Y-233680000D03*
X193040000Y-226060000D03*
X203200000Y-233680000D03*
X195580000Y-226060000D03*
X200660000Y-233680000D03*
X198120000Y-226060000D03*
X198120000Y-233680000D03*
X200660000Y-226060000D03*
X195580000Y-233680000D03*
X203200000Y-226060000D03*
X193040000Y-233680000D03*
X205740000Y-226060000D03*
X190500000Y-233680000D03*
X208280000Y-226060000D03*
X187960000Y-233680000D03*
D13*
X210820000Y-226060000D03*
D12*
X246380000Y-236220000D03*
X223520000Y-228600000D03*
X243840000Y-236220000D03*
X226060000Y-228600000D03*
X241300000Y-236220000D03*
X228600000Y-228600000D03*
X238760000Y-236220000D03*
X231140000Y-228600000D03*
X236220000Y-236220000D03*
X233680000Y-228600000D03*
X233680000Y-236220000D03*
X236220000Y-228600000D03*
X231140000Y-236220000D03*
X238760000Y-228600000D03*
X228600000Y-236220000D03*
X241300000Y-228600000D03*
X226060000Y-236220000D03*
X243840000Y-228600000D03*
X223520000Y-236220000D03*
D13*
X246380000Y-228600000D03*
D12*
X175260000Y-233680000D03*
X152400000Y-226060000D03*
X172720000Y-233680000D03*
X154940000Y-226060000D03*
X170180000Y-233680000D03*
X157480000Y-226060000D03*
X167640000Y-233680000D03*
X160020000Y-226060000D03*
X165100000Y-233680000D03*
X162560000Y-226060000D03*
X162560000Y-233680000D03*
X165100000Y-226060000D03*
X160020000Y-233680000D03*
X167640000Y-226060000D03*
X157480000Y-233680000D03*
X170180000Y-226060000D03*
X154940000Y-233680000D03*
X172720000Y-226060000D03*
X152400000Y-233680000D03*
D13*
X175260000Y-226060000D03*
D12*
X309880000Y-189230000D03*
X302260000Y-207010000D03*
X309880000Y-191770000D03*
X302260000Y-204470000D03*
X309880000Y-194310000D03*
X302260000Y-201930000D03*
X309880000Y-196850000D03*
X302260000Y-199390000D03*
X309880000Y-199390000D03*
X302260000Y-196850000D03*
X309880000Y-201930000D03*
X302260000Y-194310000D03*
X309880000Y-204470000D03*
X302260000Y-191770000D03*
X309880000Y-207010000D03*
D13*
X302260000Y-189230000D03*
D12*
X322580000Y-189230000D03*
X314960000Y-204470000D03*
X322580000Y-191770000D03*
X314960000Y-201930000D03*
X322580000Y-194310000D03*
X314960000Y-199390000D03*
X322580000Y-196850000D03*
X314960000Y-196850000D03*
X322580000Y-199390000D03*
X314960000Y-194310000D03*
X322580000Y-201930000D03*
X314960000Y-191770000D03*
X322580000Y-204470000D03*
D13*
X314960000Y-189230000D03*
D12*
X335280000Y-189230000D03*
X327660000Y-204470000D03*
X335280000Y-191770000D03*
X327660000Y-201930000D03*
X335280000Y-194310000D03*
X327660000Y-199390000D03*
X335280000Y-196850000D03*
X327660000Y-196850000D03*
X335280000Y-199390000D03*
X327660000Y-194310000D03*
X335280000Y-201930000D03*
X327660000Y-191770000D03*
X335280000Y-204470000D03*
D13*
X327660000Y-189230000D03*
D17*
X341630000Y-204470000D03*
D18*
X344170000Y-204470000D03*
X342900000Y-203200000D03*
D12*
X347980000Y-189230000D03*
X340360000Y-196850000D03*
X347980000Y-191770000D03*
X340360000Y-194310000D03*
X347980000Y-194310000D03*
X340360000Y-191770000D03*
X347980000Y-196850000D03*
D13*
X340360000Y-189230000D03*
D12*
X309880000Y-219710000D03*
X302260000Y-234950000D03*
X309880000Y-222250000D03*
X302260000Y-232410000D03*
X309880000Y-224790000D03*
X302260000Y-229870000D03*
X309880000Y-227330000D03*
X302260000Y-227330000D03*
X309880000Y-229870000D03*
X302260000Y-224790000D03*
X309880000Y-232410000D03*
X302260000Y-222250000D03*
X309880000Y-234950000D03*
D13*
X302260000Y-219710000D03*
D12*
X322580000Y-219710000D03*
X314960000Y-234950000D03*
X322580000Y-222250000D03*
X314960000Y-232410000D03*
X322580000Y-224790000D03*
X314960000Y-229870000D03*
X322580000Y-227330000D03*
X314960000Y-227330000D03*
X322580000Y-229870000D03*
X314960000Y-224790000D03*
X322580000Y-232410000D03*
X314960000Y-222250000D03*
X322580000Y-234950000D03*
D13*
X314960000Y-219710000D03*
D12*
X297180000Y-219710000D03*
X289560000Y-237490000D03*
X297180000Y-222250000D03*
X289560000Y-234950000D03*
X297180000Y-224790000D03*
X289560000Y-232410000D03*
X297180000Y-227330000D03*
X289560000Y-229870000D03*
X297180000Y-229870000D03*
X289560000Y-227330000D03*
X297180000Y-232410000D03*
X289560000Y-224790000D03*
X297180000Y-234950000D03*
X289560000Y-222250000D03*
X297180000Y-237490000D03*
D13*
X289560000Y-219710000D03*
D12*
X335280000Y-219710000D03*
X327660000Y-234950000D03*
X335280000Y-222250000D03*
X327660000Y-232410000D03*
X335280000Y-224790000D03*
X327660000Y-229870000D03*
X335280000Y-227330000D03*
X327660000Y-227330000D03*
X335280000Y-229870000D03*
X327660000Y-224790000D03*
X335280000Y-232410000D03*
X327660000Y-222250000D03*
X335280000Y-234950000D03*
D13*
X327660000Y-219710000D03*
D12*
X287020000Y-189230000D03*
X279400000Y-196850000D03*
X287020000Y-191770000D03*
X279400000Y-194310000D03*
X287020000Y-194310000D03*
X279400000Y-191770000D03*
X287020000Y-196850000D03*
D13*
X279400000Y-189230000D03*
D12*
X284480000Y-219710000D03*
X276860000Y-234950000D03*
X284480000Y-222250000D03*
X276860000Y-232410000D03*
X284480000Y-224790000D03*
X276860000Y-229870000D03*
X284480000Y-227330000D03*
X276860000Y-227330000D03*
X284480000Y-229870000D03*
X276860000Y-224790000D03*
X284480000Y-232410000D03*
X276860000Y-222250000D03*
X284480000Y-234950000D03*
D13*
X276860000Y-219710000D03*
D12*
X351790000Y-271780000D03*
X344170000Y-279400000D03*
X351790000Y-274320000D03*
X344170000Y-276860000D03*
X351790000Y-276860000D03*
X344170000Y-274320000D03*
X351790000Y-279400000D03*
D13*
X344170000Y-271780000D03*
D12*
X331470000Y-271780000D03*
X323850000Y-279400000D03*
X331470000Y-274320000D03*
X323850000Y-276860000D03*
X331470000Y-276860000D03*
X323850000Y-274320000D03*
X331470000Y-279400000D03*
D13*
X323850000Y-271780000D03*
D12*
X360676200Y-256538200D03*
X322576200Y-241298200D03*
X358136200Y-256538200D03*
X325116200Y-241298200D03*
X355596200Y-256538200D03*
X327656200Y-241298200D03*
X353056200Y-256538200D03*
X330196200Y-241298200D03*
X350516200Y-256538200D03*
X332736200Y-241298200D03*
X347976200Y-256538200D03*
X335276200Y-241298200D03*
X345436200Y-256538200D03*
X337816200Y-241298200D03*
X342896200Y-256538200D03*
X340356200Y-241298200D03*
X340356200Y-256538200D03*
X342896200Y-241298200D03*
X337816200Y-256538200D03*
X345436200Y-241298200D03*
X335276200Y-256538200D03*
X347976200Y-241298200D03*
X332736200Y-256538200D03*
X350516200Y-241298200D03*
X330196200Y-256538200D03*
X353056200Y-241298200D03*
X327656200Y-256538200D03*
X355596200Y-241298200D03*
X325116200Y-256538200D03*
X358136200Y-241298200D03*
X322576200Y-256538200D03*
D13*
X360676200Y-241298200D03*
D12*
X300990000Y-271780000D03*
X293370000Y-279400000D03*
X300990000Y-274320000D03*
X293370000Y-276860000D03*
X300990000Y-276860000D03*
X293370000Y-274320000D03*
X300990000Y-279400000D03*
D13*
X293370000Y-271780000D03*
D12*
X306070000Y-251460000D03*
X298450000Y-259080000D03*
X306070000Y-254000000D03*
X298450000Y-256540000D03*
X306070000Y-256540000D03*
X298450000Y-254000000D03*
X306070000Y-259080000D03*
D13*
X298450000Y-251460000D03*
D12*
X246380000Y-215900000D03*
X223520000Y-208280000D03*
X243840000Y-215900000D03*
X226060000Y-208280000D03*
X241300000Y-215900000D03*
X228600000Y-208280000D03*
X238760000Y-215900000D03*
X231140000Y-208280000D03*
X236220000Y-215900000D03*
X233680000Y-208280000D03*
X233680000Y-215900000D03*
X236220000Y-208280000D03*
X231140000Y-215900000D03*
X238760000Y-208280000D03*
X228600000Y-215900000D03*
X241300000Y-208280000D03*
X226060000Y-215900000D03*
X243840000Y-208280000D03*
X223520000Y-215900000D03*
D13*
X246380000Y-208280000D03*
D12*
X246389000Y-198115800D03*
X223529000Y-190495800D03*
X243849000Y-198115800D03*
X226069000Y-190495800D03*
X241309000Y-198115800D03*
X228609000Y-190495800D03*
X238769000Y-198115800D03*
X231149000Y-190495800D03*
X236229000Y-198115800D03*
X233689000Y-190495800D03*
X233689000Y-198115800D03*
X236229000Y-190495800D03*
X231149000Y-198115800D03*
X238769000Y-190495800D03*
X228609000Y-198115800D03*
X241309000Y-190495800D03*
X226069000Y-198115800D03*
X243849000Y-190495800D03*
X223529000Y-198115800D03*
D13*
X246389000Y-190495800D03*
D12*
X210829000Y-198115800D03*
X187969000Y-190495800D03*
X208289000Y-198115800D03*
X190509000Y-190495800D03*
X205749000Y-198115800D03*
X193049000Y-190495800D03*
X203209000Y-198115800D03*
X195589000Y-190495800D03*
X200669000Y-198115800D03*
X198129000Y-190495800D03*
X198129000Y-198115800D03*
X200669000Y-190495800D03*
X195589000Y-198115800D03*
X203209000Y-190495800D03*
X193049000Y-198115800D03*
X205749000Y-190495800D03*
X190509000Y-198115800D03*
X208289000Y-190495800D03*
X187969000Y-198115800D03*
D13*
X210829000Y-190495800D03*
D12*
X200660000Y-170180000D03*
X238760000Y-185420000D03*
X203200000Y-170180000D03*
X236220000Y-185420000D03*
X205740000Y-170180000D03*
X233680000Y-185420000D03*
X208280000Y-170180000D03*
X231140000Y-185420000D03*
X210820000Y-170180000D03*
X228600000Y-185420000D03*
X213360000Y-170180000D03*
X226060000Y-185420000D03*
X215900000Y-170180000D03*
X223520000Y-185420000D03*
X218440000Y-170180000D03*
X220980000Y-185420000D03*
X220980000Y-170180000D03*
X218440000Y-185420000D03*
X223520000Y-170180000D03*
X215900000Y-185420000D03*
X226060000Y-170180000D03*
X213360000Y-185420000D03*
X228600000Y-170180000D03*
X210820000Y-185420000D03*
X231140000Y-170180000D03*
X208280000Y-185420000D03*
X233680000Y-170180000D03*
X205740000Y-185420000D03*
X236220000Y-170180000D03*
X203200000Y-185420000D03*
X238760000Y-170180000D03*
D13*
X200660000Y-185420000D03*
D12*
X220980000Y-165100000D03*
X198120000Y-157480000D03*
X218440000Y-165100000D03*
X200660000Y-157480000D03*
X215900000Y-165100000D03*
X203200000Y-157480000D03*
X213360000Y-165100000D03*
X205740000Y-157480000D03*
X210820000Y-165100000D03*
X208280000Y-157480000D03*
X208280000Y-165100000D03*
X210820000Y-157480000D03*
X205740000Y-165100000D03*
X213360000Y-157480000D03*
X203200000Y-165100000D03*
X215900000Y-157480000D03*
X200660000Y-165100000D03*
X218440000Y-157480000D03*
X198120000Y-165100000D03*
D13*
X220980000Y-157480000D03*
D12*
X165100000Y-152400000D03*
X147320000Y-144780000D03*
X162560000Y-152400000D03*
X149860000Y-144780000D03*
X160020000Y-152400000D03*
X152400000Y-144780000D03*
X157480000Y-152400000D03*
X154940000Y-144780000D03*
X154940000Y-152400000D03*
X157480000Y-144780000D03*
X152400000Y-152400000D03*
X160020000Y-144780000D03*
X149860000Y-152400000D03*
X162560000Y-144780000D03*
X147320000Y-152400000D03*
D13*
X165100000Y-144780000D03*
D12*
X195580000Y-152400000D03*
X177800000Y-144780000D03*
X193040000Y-152400000D03*
X180340000Y-144780000D03*
X190500000Y-152400000D03*
X182880000Y-144780000D03*
X187960000Y-152400000D03*
X185420000Y-144780000D03*
X185420000Y-152400000D03*
X187960000Y-144780000D03*
X182880000Y-152400000D03*
X190500000Y-144780000D03*
X180340000Y-152400000D03*
X193040000Y-144780000D03*
X177800000Y-152400000D03*
D13*
X195580000Y-144780000D03*
D12*
X256540000Y-165100000D03*
X233680000Y-157480000D03*
X254000000Y-165100000D03*
X236220000Y-157480000D03*
X251460000Y-165100000D03*
X238760000Y-157480000D03*
X248920000Y-165100000D03*
X241300000Y-157480000D03*
X246380000Y-165100000D03*
X243840000Y-157480000D03*
X243840000Y-165100000D03*
X246380000Y-157480000D03*
X241300000Y-165100000D03*
X248920000Y-157480000D03*
X238760000Y-165100000D03*
X251460000Y-157480000D03*
X236220000Y-165100000D03*
X254000000Y-157480000D03*
X233680000Y-165100000D03*
D13*
X256540000Y-157480000D03*
D12*
X226060000Y-152400000D03*
X208280000Y-144780000D03*
X223520000Y-152400000D03*
X210820000Y-144780000D03*
X220980000Y-152400000D03*
X213360000Y-144780000D03*
X218440000Y-152400000D03*
X215900000Y-144780000D03*
X215900000Y-152400000D03*
X218440000Y-144780000D03*
X213360000Y-152400000D03*
X220980000Y-144780000D03*
X210820000Y-152400000D03*
X223520000Y-144780000D03*
X208280000Y-152400000D03*
D13*
X226060000Y-144780000D03*
D12*
X256540000Y-152400000D03*
X238760000Y-144780000D03*
X254000000Y-152400000D03*
X241300000Y-144780000D03*
X251460000Y-152400000D03*
X243840000Y-144780000D03*
X248920000Y-152400000D03*
X246380000Y-144780000D03*
X246380000Y-152400000D03*
X248920000Y-144780000D03*
X243840000Y-152400000D03*
X251460000Y-144780000D03*
X241300000Y-152400000D03*
X254000000Y-144780000D03*
X238760000Y-152400000D03*
D13*
X256540000Y-144780000D03*
D12*
X256540000Y-121920000D03*
X233680000Y-114300000D03*
X254000000Y-121920000D03*
X236220000Y-114300000D03*
X251460000Y-121920000D03*
X238760000Y-114300000D03*
X248920000Y-121920000D03*
X241300000Y-114300000D03*
X246380000Y-121920000D03*
X243840000Y-114300000D03*
X243840000Y-121920000D03*
X246380000Y-114300000D03*
X241300000Y-121920000D03*
X248920000Y-114300000D03*
X238760000Y-121920000D03*
X251460000Y-114300000D03*
X236220000Y-121920000D03*
X254000000Y-114300000D03*
X233680000Y-121920000D03*
D13*
X256540000Y-114300000D03*
D12*
X256540000Y-134620000D03*
X233680000Y-127000000D03*
X254000000Y-134620000D03*
X236220000Y-127000000D03*
X251460000Y-134620000D03*
X238760000Y-127000000D03*
X248920000Y-134620000D03*
X241300000Y-127000000D03*
X246380000Y-134620000D03*
X243840000Y-127000000D03*
X243840000Y-134620000D03*
X246380000Y-127000000D03*
X241300000Y-134620000D03*
X248920000Y-127000000D03*
X238760000Y-134620000D03*
X251460000Y-127000000D03*
X236220000Y-134620000D03*
X254000000Y-127000000D03*
X233680000Y-134620000D03*
D13*
X256540000Y-127000000D03*
D12*
X220675800Y-121920000D03*
X187655800Y-114300000D03*
X218135800Y-121920000D03*
X190195800Y-114300000D03*
X215595800Y-121920000D03*
X192735800Y-114300000D03*
X213055800Y-121920000D03*
X195275800Y-114300000D03*
X210515800Y-121920000D03*
X197815800Y-114300000D03*
X207975800Y-121920000D03*
X200355800Y-114300000D03*
X205435800Y-121920000D03*
X202895800Y-114300000D03*
X202895800Y-121920000D03*
X205435800Y-114300000D03*
X200355800Y-121920000D03*
X207975800Y-114300000D03*
X197815800Y-121920000D03*
X210515800Y-114300000D03*
X195275800Y-121920000D03*
X213055800Y-114300000D03*
X192735800Y-121920000D03*
X215595800Y-114300000D03*
X190195800Y-121920000D03*
X218135800Y-114300000D03*
X187655800Y-121920000D03*
D13*
X220675800Y-114300000D03*
D12*
X220980000Y-134620000D03*
X187960000Y-127000000D03*
X218440000Y-134620000D03*
X190500000Y-127000000D03*
X215900000Y-134620000D03*
X193040000Y-127000000D03*
X213360000Y-134620000D03*
X195580000Y-127000000D03*
X210820000Y-134620000D03*
X198120000Y-127000000D03*
X208280000Y-134620000D03*
X200660000Y-127000000D03*
X205740000Y-134620000D03*
X203200000Y-127000000D03*
X203200000Y-134620000D03*
X205740000Y-127000000D03*
X200660000Y-134620000D03*
X208280000Y-127000000D03*
X198120000Y-134620000D03*
X210820000Y-127000000D03*
X195580000Y-134620000D03*
X213360000Y-127000000D03*
X193040000Y-134620000D03*
X215900000Y-127000000D03*
X190500000Y-134620000D03*
X218440000Y-127000000D03*
X187960000Y-134620000D03*
D13*
X220980000Y-127000000D03*
D12*
X165122000Y-109175200D03*
X147342000Y-101555200D03*
X162582000Y-109175200D03*
X149882000Y-101555200D03*
X160042000Y-109175200D03*
X152422000Y-101555200D03*
X157502000Y-109175200D03*
X154962000Y-101555200D03*
X154962000Y-109175200D03*
X157502000Y-101555200D03*
X152422000Y-109175200D03*
X160042000Y-101555200D03*
X149882000Y-109175200D03*
X162582000Y-101555200D03*
X147342000Y-109175200D03*
D13*
X165122000Y-101555200D03*
D12*
X195602000Y-109175200D03*
X177822000Y-101555200D03*
X193062000Y-109175200D03*
X180362000Y-101555200D03*
X190522000Y-109175200D03*
X182902000Y-101555200D03*
X187982000Y-109175200D03*
X185442000Y-101555200D03*
X185442000Y-109175200D03*
X187982000Y-101555200D03*
X182902000Y-109175200D03*
X190522000Y-101555200D03*
X180362000Y-109175200D03*
X193062000Y-101555200D03*
X177822000Y-109175200D03*
D13*
X195602000Y-101555200D03*
D12*
X226082000Y-109175200D03*
X208302000Y-101555200D03*
X223542000Y-109175200D03*
X210842000Y-101555200D03*
X221002000Y-109175200D03*
X213382000Y-101555200D03*
X218462000Y-109175200D03*
X215922000Y-101555200D03*
X215922000Y-109175200D03*
X218462000Y-101555200D03*
X213382000Y-109175200D03*
X221002000Y-101555200D03*
X210842000Y-109175200D03*
X223542000Y-101555200D03*
X208302000Y-109175200D03*
D13*
X226082000Y-101555200D03*
D12*
X256562000Y-109175200D03*
X238782000Y-101555200D03*
X254022000Y-109175200D03*
X241322000Y-101555200D03*
X251482000Y-109175200D03*
X243862000Y-101555200D03*
X248942000Y-109175200D03*
X246402000Y-101555200D03*
X246402000Y-109175200D03*
X248942000Y-101555200D03*
X243862000Y-109175200D03*
X251482000Y-101555200D03*
X241322000Y-109175200D03*
X254022000Y-101555200D03*
X238782000Y-109175200D03*
D13*
X256562000Y-101555200D03*
D12*
X170174000Y-91446000D03*
X147314000Y-83826000D03*
X167634000Y-91446000D03*
X149854000Y-83826000D03*
X165094000Y-91446000D03*
X152394000Y-83826000D03*
X162554000Y-91446000D03*
X154934000Y-83826000D03*
X160014000Y-91446000D03*
X157474000Y-83826000D03*
X157474000Y-91446000D03*
X160014000Y-83826000D03*
X154934000Y-91446000D03*
X162554000Y-83826000D03*
X152394000Y-91446000D03*
X165094000Y-83826000D03*
X149854000Y-91446000D03*
X167634000Y-83826000D03*
X147314000Y-91446000D03*
D13*
X170174000Y-83826000D03*
D12*
X205734000Y-91446000D03*
X182874000Y-83826000D03*
X203194000Y-91446000D03*
X185414000Y-83826000D03*
X200654000Y-91446000D03*
X187954000Y-83826000D03*
X198114000Y-91446000D03*
X190494000Y-83826000D03*
X195574000Y-91446000D03*
X193034000Y-83826000D03*
X193034000Y-91446000D03*
X195574000Y-83826000D03*
X190494000Y-91446000D03*
X198114000Y-83826000D03*
X187954000Y-91446000D03*
X200654000Y-83826000D03*
X185414000Y-91446000D03*
X203194000Y-83826000D03*
X182874000Y-91446000D03*
D13*
X205734000Y-83826000D03*
D12*
X165100000Y-78740000D03*
X147320000Y-71120000D03*
X162560000Y-78740000D03*
X149860000Y-71120000D03*
X160020000Y-78740000D03*
X152400000Y-71120000D03*
X157480000Y-78740000D03*
X154940000Y-71120000D03*
X154940000Y-78740000D03*
X157480000Y-71120000D03*
X152400000Y-78740000D03*
X160020000Y-71120000D03*
X149860000Y-78740000D03*
X162560000Y-71120000D03*
X147320000Y-78740000D03*
D13*
X165100000Y-71120000D03*
D12*
X195580000Y-78740000D03*
X177800000Y-71120000D03*
X193040000Y-78740000D03*
X180340000Y-71120000D03*
X190500000Y-78740000D03*
X182880000Y-71120000D03*
X187960000Y-78740000D03*
X185420000Y-71120000D03*
X185420000Y-78740000D03*
X187960000Y-71120000D03*
X182880000Y-78740000D03*
X190500000Y-71120000D03*
X180340000Y-78740000D03*
X193040000Y-71120000D03*
X177800000Y-78740000D03*
D13*
X195580000Y-71120000D03*
D12*
X226060000Y-78740000D03*
X208280000Y-71120000D03*
X223520000Y-78740000D03*
X210820000Y-71120000D03*
X220980000Y-78740000D03*
X213360000Y-71120000D03*
X218440000Y-78740000D03*
X215900000Y-71120000D03*
X215900000Y-78740000D03*
X218440000Y-71120000D03*
X213360000Y-78740000D03*
X220980000Y-71120000D03*
X210820000Y-78740000D03*
X223520000Y-71120000D03*
X208280000Y-78740000D03*
D13*
X226060000Y-71120000D03*
D12*
X256540000Y-78740000D03*
X238760000Y-71120000D03*
X254000000Y-78740000D03*
X241300000Y-71120000D03*
X251460000Y-78740000D03*
X243840000Y-71120000D03*
X248920000Y-78740000D03*
X246380000Y-71120000D03*
X246380000Y-78740000D03*
X248920000Y-71120000D03*
X243840000Y-78740000D03*
X251460000Y-71120000D03*
X241300000Y-78740000D03*
X254000000Y-71120000D03*
X238760000Y-78740000D03*
D13*
X256540000Y-71120000D03*
D12*
X256540000Y-66040000D03*
X233680000Y-58420000D03*
X254000000Y-66040000D03*
X236220000Y-58420000D03*
X251460000Y-66040000D03*
X238760000Y-58420000D03*
X248920000Y-66040000D03*
X241300000Y-58420000D03*
X246380000Y-66040000D03*
X243840000Y-58420000D03*
X243840000Y-66040000D03*
X246380000Y-58420000D03*
X241300000Y-66040000D03*
X248920000Y-58420000D03*
X238760000Y-66040000D03*
X251460000Y-58420000D03*
X236220000Y-66040000D03*
X254000000Y-58420000D03*
X233680000Y-66040000D03*
D13*
X256540000Y-58420000D03*
D12*
X220980000Y-66040000D03*
X198120000Y-58420000D03*
X218440000Y-66040000D03*
X200660000Y-58420000D03*
X215900000Y-66040000D03*
X203200000Y-58420000D03*
X213360000Y-66040000D03*
X205740000Y-58420000D03*
X210820000Y-66040000D03*
X208280000Y-58420000D03*
X208280000Y-66040000D03*
X210820000Y-58420000D03*
X205740000Y-66040000D03*
X213360000Y-58420000D03*
X203200000Y-66040000D03*
X215900000Y-58420000D03*
X200660000Y-66040000D03*
X218440000Y-58420000D03*
X198120000Y-66040000D03*
D13*
X220980000Y-58420000D03*
D12*
X320040000Y-139700000D03*
X337820000Y-147320000D03*
X322580000Y-139700000D03*
X335280000Y-147320000D03*
X325120000Y-139700000D03*
X332740000Y-147320000D03*
X327660000Y-139700000D03*
X330200000Y-147320000D03*
X330200000Y-139700000D03*
X327660000Y-147320000D03*
X332740000Y-139700000D03*
X325120000Y-147320000D03*
X335280000Y-139700000D03*
X322580000Y-147320000D03*
X337820000Y-139700000D03*
D13*
X320040000Y-147320000D03*
D12*
X284480000Y-139700000D03*
X307340000Y-147320000D03*
X287020000Y-139700000D03*
X304800000Y-147320000D03*
X289560000Y-139700000D03*
X302260000Y-147320000D03*
X292100000Y-139700000D03*
X299720000Y-147320000D03*
X294640000Y-139700000D03*
X297180000Y-147320000D03*
X297180000Y-139700000D03*
X294640000Y-147320000D03*
X299720000Y-139700000D03*
X292100000Y-147320000D03*
X302260000Y-139700000D03*
X289560000Y-147320000D03*
X304800000Y-139700000D03*
X287020000Y-147320000D03*
X307340000Y-139700000D03*
D13*
X284480000Y-147320000D03*
D19*
X368450000Y-184150000D03*
X368450000Y-188650000D03*
X361950000Y-184150000D03*
X361950000Y-188650000D03*
X285900000Y-202692000D03*
X285900000Y-207192000D03*
X279400000Y-202692000D03*
X279400000Y-207192000D03*
D20*
X279400000Y-246380000D03*
X281900000Y-248880000D03*
X279400000Y-251380000D03*
D12*
X267970000Y-45720000D03*
X270510000Y-45720000D03*
X273050000Y-45720000D03*
X275590000Y-45720000D03*
X278130000Y-45720000D03*
X280670000Y-45720000D03*
X283210000Y-45720000D03*
X285750000Y-45720000D03*
D13*
X288290000Y-45720000D03*
D12*
X162560000Y-260350000D03*
D14*
X154940000Y-260350000D03*
D12*
X162560000Y-255270000D03*
D14*
X154940000Y-255270000D03*
D12*
X162560000Y-250190000D03*
D14*
X154940000Y-250190000D03*
D12*
X358140000Y-234950000D03*
D14*
X365760000Y-234950000D03*
D12*
X361950000Y-279400000D03*
D14*
X354330000Y-279400000D03*
D12*
X361950000Y-275590000D03*
D14*
X354330000Y-275590000D03*
D12*
X361950000Y-271780000D03*
D14*
X354330000Y-271780000D03*
D12*
X341630000Y-279400000D03*
D14*
X334010000Y-279400000D03*
D12*
X341630000Y-275590000D03*
D14*
X334010000Y-275590000D03*
D12*
X341630000Y-271780000D03*
D14*
X334010000Y-271780000D03*
D12*
X321310000Y-279400000D03*
D14*
X313690000Y-279400000D03*
D12*
X321310000Y-275590000D03*
D14*
X313690000Y-275590000D03*
D12*
X321310000Y-271780000D03*
D14*
X313690000Y-271780000D03*
D12*
X311150000Y-279400000D03*
D14*
X303530000Y-279400000D03*
D12*
X311150000Y-275590000D03*
D14*
X303530000Y-275590000D03*
D12*
X311150000Y-271780000D03*
D14*
X303530000Y-271780000D03*
D12*
X290830000Y-279400000D03*
D14*
X283210000Y-279400000D03*
D12*
X290830000Y-275590000D03*
D14*
X283210000Y-275590000D03*
D12*
X290830000Y-271780000D03*
D14*
X283210000Y-271780000D03*
D12*
X316230000Y-259080000D03*
D14*
X308610000Y-259080000D03*
D12*
X316230000Y-255270000D03*
D14*
X308610000Y-255270000D03*
D12*
X316230000Y-251460000D03*
D14*
X308610000Y-251460000D03*
D12*
X295910000Y-259080000D03*
D14*
X288290000Y-259080000D03*
D12*
X295910000Y-255270000D03*
D14*
X288290000Y-255270000D03*
D12*
X295910000Y-251460000D03*
D14*
X288290000Y-251460000D03*
D15*
X257810000Y-265430000D03*
X260350000Y-265430000D03*
X262890000Y-265430000D03*
X265430000Y-265430000D03*
X267970000Y-265430000D03*
X270510000Y-265430000D03*
X273050000Y-265430000D03*
X275590000Y-265430000D03*
D16*
X278130000Y-265430000D03*
D15*
X149860000Y-66040000D03*
X152400000Y-66040000D03*
X154940000Y-66040000D03*
X157480000Y-66040000D03*
X160020000Y-66040000D03*
X162560000Y-66040000D03*
X165100000Y-66040000D03*
X167640000Y-66040000D03*
X170180000Y-66040000D03*
X172720000Y-66040000D03*
X175260000Y-66040000D03*
X177800000Y-66040000D03*
X180340000Y-66040000D03*
X182880000Y-66040000D03*
X185420000Y-66040000D03*
X187960000Y-66040000D03*
D16*
X190500000Y-66040000D03*
D15*
X226060000Y-265430000D03*
X228600000Y-265430000D03*
X231140000Y-265430000D03*
X233680000Y-265430000D03*
X236220000Y-265430000D03*
X238760000Y-265430000D03*
X241300000Y-265430000D03*
X243840000Y-265430000D03*
D16*
X246380000Y-265430000D03*
D15*
X226060000Y-245110000D03*
X228600000Y-245110000D03*
X231140000Y-245110000D03*
X233680000Y-245110000D03*
X236220000Y-245110000D03*
X238760000Y-245110000D03*
X241300000Y-245110000D03*
X243840000Y-245110000D03*
D16*
X246380000Y-245110000D03*
D15*
X226060000Y-224790000D03*
X228600000Y-224790000D03*
X231140000Y-224790000D03*
X233680000Y-224790000D03*
X236220000Y-224790000D03*
X238760000Y-224790000D03*
X241300000Y-224790000D03*
X243840000Y-224790000D03*
D16*
X246380000Y-224790000D03*
D15*
X340360000Y-261620000D03*
X342900000Y-261620000D03*
X345440000Y-261620000D03*
X347980000Y-261620000D03*
X350520000Y-261620000D03*
X353060000Y-261620000D03*
X355600000Y-261620000D03*
X358140000Y-261620000D03*
D16*
X360680000Y-261620000D03*
D15*
X170180000Y-203200000D03*
X172720000Y-203200000D03*
X175260000Y-203200000D03*
X177800000Y-203200000D03*
X180340000Y-203200000D03*
X182880000Y-203200000D03*
X185420000Y-203200000D03*
X187960000Y-203200000D03*
X190500000Y-203200000D03*
X193040000Y-203200000D03*
X195580000Y-203200000D03*
X198120000Y-203200000D03*
X200660000Y-203200000D03*
X203200000Y-203200000D03*
X205740000Y-203200000D03*
X208280000Y-203200000D03*
D16*
X210820000Y-203200000D03*
D15*
X226060000Y-204470000D03*
X228600000Y-204470000D03*
X231140000Y-204470000D03*
X233680000Y-204470000D03*
X236220000Y-204470000D03*
X238760000Y-204470000D03*
X241300000Y-204470000D03*
X243840000Y-204470000D03*
D16*
X246380000Y-204470000D03*
D15*
X149860000Y-157480000D03*
X152400000Y-157480000D03*
X154940000Y-157480000D03*
X157480000Y-157480000D03*
X160020000Y-157480000D03*
X162560000Y-157480000D03*
X165100000Y-157480000D03*
X167640000Y-157480000D03*
X170180000Y-157480000D03*
X172720000Y-157480000D03*
X175260000Y-157480000D03*
X177800000Y-157480000D03*
X180340000Y-157480000D03*
X182880000Y-157480000D03*
X185420000Y-157480000D03*
X187960000Y-157480000D03*
D16*
X190500000Y-157480000D03*
D15*
X215900000Y-83820000D03*
X218440000Y-83820000D03*
X220980000Y-83820000D03*
X223520000Y-83820000D03*
X226060000Y-83820000D03*
X228600000Y-83820000D03*
X231140000Y-83820000D03*
X233680000Y-83820000D03*
X236220000Y-83820000D03*
X238760000Y-83820000D03*
X241300000Y-83820000D03*
X243840000Y-83820000D03*
X246380000Y-83820000D03*
X248920000Y-83820000D03*
X251460000Y-83820000D03*
X254000000Y-83820000D03*
D16*
X256540000Y-83820000D03*
D15*
X287147000Y-151892000D03*
X289687000Y-151892000D03*
X292227000Y-151892000D03*
X294767000Y-151892000D03*
X297307000Y-151892000D03*
X299847000Y-151892000D03*
X302387000Y-151892000D03*
X304927000Y-151892000D03*
D16*
X307467000Y-151892000D03*
D21*
X163830000Y-240030000D03*
D22*
X161290000Y-240030000D03*
D21*
X157226000Y-240030000D03*
D22*
X154686000Y-240030000D03*
D21*
X353060000Y-210820000D03*
D22*
X355600000Y-210820000D03*
D21*
X365760000Y-228600000D03*
D22*
X368300000Y-228600000D03*
D14*
X185500000Y-240030000D03*
X190500000Y-240030000D03*
X168990000Y-240030000D03*
X173990000Y-240030000D03*
X252730000Y-275510000D03*
X252730000Y-270510000D03*
X205820000Y-240030000D03*
X210820000Y-240030000D03*
X217170000Y-227410000D03*
X217170000Y-232410000D03*
X252730000Y-250270000D03*
X252730000Y-255270000D03*
X181610000Y-227410000D03*
X181610000Y-232410000D03*
X252730000Y-229950000D03*
X252730000Y-234950000D03*
X303610000Y-182880000D03*
X308610000Y-182880000D03*
X316310000Y-182880000D03*
X321310000Y-182880000D03*
X329010000Y-182880000D03*
X334010000Y-182880000D03*
X278210000Y-213360000D03*
X283210000Y-213360000D03*
X280750000Y-182880000D03*
X285750000Y-182880000D03*
X346710000Y-213360000D03*
X341710000Y-213360000D03*
X303610000Y-213360000D03*
X308610000Y-213360000D03*
X316310000Y-213360000D03*
X321310000Y-213360000D03*
X290910000Y-213360000D03*
X295910000Y-213360000D03*
X329010000Y-213360000D03*
X334010000Y-213360000D03*
X345520000Y-265430000D03*
X350520000Y-265430000D03*
X325200000Y-265430000D03*
X330200000Y-265430000D03*
X367030000Y-246460000D03*
X367030000Y-251460000D03*
X294720000Y-265430000D03*
X299720000Y-265430000D03*
X299720000Y-245110000D03*
X304720000Y-245110000D03*
X252730000Y-209630000D03*
X252730000Y-214630000D03*
X252730000Y-191850000D03*
X252730000Y-196850000D03*
X181610000Y-191795800D03*
X181610000Y-196795800D03*
X217170000Y-191850000D03*
X217170000Y-196850000D03*
X143510000Y-180295000D03*
X143510000Y-175295000D03*
X194310000Y-180295000D03*
X194310000Y-175295000D03*
X227330000Y-158830000D03*
X227330000Y-163830000D03*
X171450000Y-146080000D03*
X171450000Y-151080000D03*
X201930000Y-146080000D03*
X201930000Y-151080000D03*
X262890000Y-158830000D03*
X262890000Y-163830000D03*
X232410000Y-146080000D03*
X232410000Y-151080000D03*
X262890000Y-146080000D03*
X262890000Y-151080000D03*
X262890000Y-128387200D03*
X262890000Y-133387200D03*
X227330000Y-115600000D03*
X227330000Y-120600000D03*
X227330000Y-128300000D03*
X227330000Y-133300000D03*
X173945800Y-113715800D03*
X178945800Y-113715800D03*
X161370000Y-113766600D03*
X166370000Y-113766600D03*
X171450000Y-102950000D03*
X171450000Y-107950000D03*
X201930000Y-102950000D03*
X201930000Y-107950000D03*
X262890000Y-102870000D03*
X262890000Y-107870000D03*
X232410000Y-102950000D03*
X232410000Y-107950000D03*
X176530000Y-85090000D03*
X176530000Y-90090000D03*
X212090000Y-85090000D03*
X212090000Y-90090000D03*
X171450000Y-72470000D03*
X171450000Y-77470000D03*
X201930000Y-77390000D03*
X201930000Y-72390000D03*
X232410000Y-77390000D03*
X232410000Y-72390000D03*
X262890000Y-77390000D03*
X262890000Y-72390000D03*
X262890000Y-59770000D03*
X262890000Y-64770000D03*
X262890000Y-47070000D03*
X262890000Y-52070000D03*
X227330000Y-64690000D03*
X227330000Y-59690000D03*
X227330000Y-51990000D03*
X227330000Y-46990000D03*
X313690000Y-145970000D03*
X313690000Y-140970000D03*
X278130000Y-145970000D03*
X278130000Y-140970000D03*
X367760000Y-218440000D03*
D13*
X365760000Y-218440000D03*
D23*
X194437000Y-150368000D03*
X172085000Y-230378000D03*
X225171000Y-206375000D03*
X247269000Y-206375000D03*
X185318499Y-254990501D03*
X202057000Y-180848000D03*
X201930000Y-128778000D03*
X204216000Y-180340000D03*
X204470000Y-128778000D03*
X207391000Y-175006000D03*
X207137000Y-128651000D03*
X194056000Y-278857490D03*
X181737000Y-275971000D03*
X181737000Y-276606000D03*
X181737000Y-277241000D03*
X202438000Y-271780000D03*
X202184000Y-269240000D03*
X195326000Y-173355000D03*
X200660000Y-173355000D03*
X193073290Y-172861089D03*
X193675000Y-172847000D03*
X195326000Y-172720000D03*
X200660000Y-172720000D03*
X165227000Y-73025000D03*
X291592000Y-216154000D03*
X257810000Y-261239000D03*
X257810000Y-220599000D03*
X259969000Y-116967000D03*
X257810000Y-240919000D03*
X267970000Y-64389000D03*
X267970000Y-51816000D03*
X170180000Y-231648000D03*
X288671000Y-141732000D03*
X267970000Y-143129000D03*
X267970000Y-116840000D03*
X258445000Y-260731000D03*
X258445000Y-220091000D03*
X258445000Y-240411000D03*
X268605000Y-63881000D03*
X268605000Y-51308000D03*
X167640000Y-231994490D03*
X259969000Y-117602000D03*
X268605000Y-117602000D03*
X288671000Y-142367000D03*
X268606825Y-143544510D03*
X259080000Y-260223000D03*
X259080000Y-219583000D03*
X259969000Y-118237000D03*
X259080000Y-239903000D03*
X269240000Y-63373000D03*
X269240000Y-50800000D03*
X160020000Y-232273987D03*
X288671000Y-143002000D03*
X269240000Y-118110000D03*
X269240000Y-143798510D03*
X259715000Y-259715000D03*
X259715000Y-219075000D03*
X259969000Y-118872000D03*
X269875000Y-118872000D03*
X259715000Y-239395000D03*
X269875000Y-62865000D03*
X269875000Y-50292000D03*
X288671000Y-143637000D03*
X269875000Y-144052510D03*
X260350000Y-259207000D03*
X260350000Y-218567000D03*
X259969000Y-119507000D03*
X270510000Y-119507000D03*
X260350000Y-238887000D03*
X270510000Y-62357000D03*
X270510000Y-49784000D03*
X270510000Y-144306510D03*
X260985000Y-258572000D03*
X260985000Y-217932000D03*
X259969000Y-120142000D03*
X271145000Y-120015000D03*
X260985000Y-238252000D03*
X271145000Y-61849000D03*
X271145000Y-49276000D03*
X160020000Y-227584000D03*
X271145000Y-144560510D03*
X261620000Y-258064000D03*
X261620000Y-217424000D03*
X259969000Y-120777000D03*
X271780000Y-120523000D03*
X261620000Y-237744000D03*
X271780000Y-61341000D03*
X271780000Y-48768000D03*
X167640000Y-227838000D03*
X271780000Y-144814510D03*
X262255000Y-257556000D03*
X262255000Y-216916000D03*
X259969000Y-121412000D03*
X272415000Y-121031000D03*
X262255000Y-237236000D03*
X272415000Y-60833000D03*
X272419396Y-48294510D03*
X170178664Y-227999499D03*
X272415000Y-145068510D03*
X152400000Y-86614000D03*
X154940000Y-86868000D03*
X157480000Y-87122000D03*
X160020000Y-87376000D03*
X162560000Y-87630000D03*
X165100000Y-87884000D03*
X167640000Y-88138000D03*
X185420000Y-88392000D03*
X187960000Y-88646000D03*
X190500000Y-88900000D03*
X193040000Y-89154000D03*
X195580000Y-89408000D03*
X198120000Y-89662000D03*
X200660000Y-89916000D03*
X203200000Y-90170000D03*
X162560000Y-183642000D03*
X165100000Y-183388000D03*
X167640000Y-183134000D03*
X170180000Y-182880000D03*
X172720000Y-182626000D03*
X175260000Y-182372000D03*
X177800000Y-182118000D03*
X182626000Y-264160000D03*
X203200000Y-261493000D03*
X203581000Y-251460000D03*
X204216000Y-254000000D03*
X204470000Y-256540000D03*
X204724000Y-259080000D03*
X191804510Y-259080000D03*
X191770000Y-254000000D03*
X190881000Y-251333000D03*
X182880000Y-248920000D03*
X210242980Y-244919500D03*
X211293500Y-254000000D03*
X210658479Y-246021262D03*
X211039500Y-248920000D03*
X209296276Y-247107490D03*
X204274281Y-244866887D03*
X207518000Y-247396000D03*
X192947521Y-256667000D03*
X192913000Y-251460000D03*
X190373000Y-249936000D03*
X218694000Y-251587000D03*
X218694000Y-250952000D03*
X205867000Y-246380000D03*
X218694000Y-247650000D03*
X210566000Y-243078000D03*
X327660000Y-47879000D03*
X210761178Y-47590490D03*
X328676000Y-48133000D03*
X152328955Y-103568511D03*
X146616617Y-103759772D03*
X208280000Y-48006000D03*
X330200000Y-48387000D03*
X146736472Y-103195346D03*
X200660000Y-48260000D03*
X331216000Y-48641000D03*
X200660000Y-50927000D03*
X332740000Y-48895000D03*
X208280000Y-51181000D03*
X333756000Y-49149000D03*
X210820000Y-51435000D03*
X335280000Y-49403000D03*
X336296000Y-49657000D03*
X210439000Y-107315000D03*
X337820000Y-50003500D03*
X216154000Y-106553000D03*
X210820000Y-60071000D03*
X338963000Y-50257500D03*
X208280000Y-60325000D03*
X340360000Y-50419000D03*
X200660000Y-60579000D03*
X341503000Y-50673000D03*
X241173000Y-106426000D03*
X200660000Y-63881000D03*
X342900000Y-50927000D03*
X247904000Y-106426000D03*
X208010620Y-63723673D03*
X344043000Y-51181000D03*
X210557637Y-63973481D03*
X345440000Y-51435000D03*
X178331867Y-150398259D03*
X177927000Y-149606000D03*
X184547895Y-149543275D03*
X178728828Y-149979494D03*
X184955904Y-149951284D03*
X178308000Y-151003000D03*
X180848000Y-151003000D03*
X232791000Y-132842000D03*
X185166000Y-136779000D03*
X233524766Y-132695855D03*
X186182000Y-136906000D03*
X187198000Y-137414000D03*
X236474000Y-130648490D03*
X186724510Y-137829510D03*
X238261282Y-130621420D03*
X240079835Y-128802867D03*
X300228000Y-251460000D03*
X347980000Y-244475000D03*
X345440000Y-244221000D03*
X342900000Y-243967000D03*
X340360000Y-243713000D03*
X337820000Y-243459000D03*
X335280000Y-243205000D03*
X189068490Y-134151401D03*
X187914415Y-132651489D03*
X161671000Y-133096000D03*
X189650166Y-148555490D03*
X156718000Y-154686000D03*
X148717000Y-154432000D03*
X307340000Y-228854000D03*
X304927000Y-225552000D03*
X193675000Y-265430000D03*
X182626000Y-261874000D03*
X182626000Y-263017000D03*
X202692000Y-273050000D03*
X182880000Y-267081000D03*
X253365000Y-105156000D03*
X254889000Y-106807000D03*
X255016000Y-104648000D03*
X254127000Y-104902000D03*
X254223508Y-107222510D03*
X223901000Y-102870000D03*
X213487000Y-111343248D03*
X225171000Y-103378000D03*
X218567000Y-111379000D03*
X211048900Y-111343244D03*
X224536000Y-102870000D03*
X216027000Y-111343246D03*
X210566000Y-118745000D03*
X198943116Y-118554936D03*
X187925422Y-117509578D03*
X159131000Y-107569000D03*
X187452000Y-118237000D03*
X262890000Y-130937000D03*
X208538396Y-131606510D03*
X198501000Y-131445000D03*
X197612000Y-131191000D03*
X262890000Y-130302000D03*
X208026000Y-131191000D03*
X184404000Y-135509000D03*
X175387000Y-134620000D03*
X262890000Y-132235197D03*
X262890000Y-131572000D03*
X174752000Y-122682000D03*
X189357000Y-133604000D03*
X188849000Y-132842000D03*
X170688000Y-129413000D03*
D24*
X197320001Y-65240001D02*
X198120000Y-66040000D01*
X197129499Y-65049499D02*
X197320001Y-65240001D01*
X198120000Y-54471370D02*
X197129499Y-55461871D01*
X197129499Y-55461871D02*
X197129499Y-65049499D01*
X198120000Y-53340000D02*
X198120000Y-54471370D01*
X187960000Y-233680000D02*
X184404000Y-230124000D01*
X172339000Y-230124000D02*
X172085000Y-230378000D01*
X184404000Y-230124000D02*
X172339000Y-230124000D01*
X174269499Y-270230501D02*
X174460001Y-270039999D01*
X163354559Y-270230501D02*
X174269499Y-270230501D01*
X174460001Y-270039999D02*
X175260000Y-269240000D01*
X152400000Y-259275942D02*
X163354559Y-270230501D01*
X152400000Y-233680000D02*
X152400000Y-259275942D01*
X290550501Y-233400501D02*
X289560000Y-232410000D01*
X360959499Y-233400501D02*
X290550501Y-233400501D01*
X365760000Y-228600000D02*
X360959499Y-233400501D01*
X197079499Y-67080501D02*
X198120000Y-66040000D01*
X197079499Y-112097757D02*
X197079499Y-67080501D01*
X198806301Y-121444559D02*
X198120000Y-120758258D01*
X198806301Y-122395441D02*
X198806301Y-121444559D01*
X197079499Y-140994501D02*
X197079499Y-124122243D01*
X194437000Y-150368000D02*
X194183000Y-150114000D01*
X198806301Y-113824559D02*
X197079499Y-112097757D01*
X198806301Y-114775441D02*
X198806301Y-113824559D01*
X198120000Y-115461742D02*
X198806301Y-114775441D01*
X194183000Y-150114000D02*
X194183000Y-143891000D01*
X194183000Y-143891000D02*
X197079499Y-140994501D01*
X198120000Y-120758258D02*
X198120000Y-115461742D01*
X197079499Y-124122243D02*
X198806301Y-122395441D01*
X289560000Y-232410000D02*
X294259000Y-227711000D01*
X294259000Y-227711000D02*
X294259000Y-219075000D01*
X294259000Y-219075000D02*
X306578000Y-206756000D01*
X306578000Y-206756000D02*
X306578000Y-157226000D01*
X306578000Y-157226000D02*
X310134000Y-153670000D01*
X310134000Y-142494000D02*
X307340000Y-139700000D01*
X310134000Y-153670000D02*
X310134000Y-142494000D01*
X324270001Y-132929999D02*
X325120000Y-132080000D01*
X318490501Y-138709499D02*
X324270001Y-132929999D01*
X308330501Y-138709499D02*
X318490501Y-138709499D01*
X307340000Y-139700000D02*
X308330501Y-138709499D01*
X180594000Y-279400000D02*
X175260000Y-274066000D01*
X245305942Y-279400000D02*
X180594000Y-279400000D01*
X247420501Y-277285441D02*
X245305942Y-279400000D01*
X247420501Y-274279557D02*
X247420501Y-277285441D01*
X257310559Y-264389499D02*
X247420501Y-274279557D01*
X175260000Y-274066000D02*
X175260000Y-269240000D01*
X257580501Y-264389499D02*
X257310559Y-264389499D01*
X289560000Y-232410000D02*
X257580501Y-264389499D01*
X172720000Y-203200000D02*
X175133000Y-200787000D01*
X175133000Y-200787000D02*
X215773000Y-200787000D01*
X215773000Y-200787000D02*
X221234000Y-195326000D01*
X221234000Y-195326000D02*
X247015000Y-195326000D01*
X303212401Y-190220501D02*
X304600501Y-188832401D01*
X252120499Y-190220501D02*
X303212401Y-190220501D01*
X304600501Y-188832401D02*
X304600501Y-177092501D01*
X247015000Y-195326000D02*
X252120499Y-190220501D01*
X284480000Y-156972000D02*
X284480000Y-147320000D01*
X304600501Y-177092501D02*
X284480000Y-156972000D01*
X209893000Y-226060000D02*
X210820000Y-226060000D01*
X208902499Y-225069499D02*
X209893000Y-226060000D01*
X191779557Y-225069499D02*
X208902499Y-225069499D01*
X189459499Y-222749441D02*
X191779557Y-225069499D01*
X189459499Y-220536597D02*
X189459499Y-222749441D01*
X175260000Y-206337098D02*
X189459499Y-220536597D01*
X175260000Y-203200000D02*
X175260000Y-206337098D01*
X211772401Y-207289499D02*
X221234000Y-216751098D01*
X181889499Y-207289499D02*
X211772401Y-207289499D01*
X177800000Y-203200000D02*
X181889499Y-207289499D01*
X221234000Y-216751098D02*
X221234000Y-251206000D01*
X221234000Y-251206000D02*
X224028000Y-254000000D01*
X241300000Y-254000000D02*
X243840000Y-256540000D01*
X224028000Y-254000000D02*
X241300000Y-254000000D01*
X182880000Y-203200000D02*
X186182000Y-206502000D01*
X212576058Y-206502000D02*
X217275058Y-211201000D01*
X186182000Y-206502000D02*
X212576058Y-206502000D01*
X217275058Y-211201000D02*
X217297000Y-211201000D01*
X222529499Y-216433499D02*
X222529499Y-231038499D01*
X217297000Y-211201000D02*
X222529499Y-216433499D01*
X222529499Y-231038499D02*
X224917000Y-233426000D01*
X241046000Y-233426000D02*
X243840000Y-236220000D01*
X224917000Y-233426000D02*
X241046000Y-233426000D01*
X243040001Y-276060001D02*
X243840000Y-276860000D01*
X228683557Y-275869499D02*
X242849499Y-275869499D01*
X242849499Y-275869499D02*
X243040001Y-276060001D01*
X221063557Y-268249499D02*
X228683557Y-275869499D01*
X200743557Y-268249499D02*
X221063557Y-268249499D01*
X198203557Y-265709499D02*
X200743557Y-268249499D01*
X195719299Y-265709499D02*
X198203557Y-265709499D01*
X185318499Y-255308699D02*
X195719299Y-265709499D01*
X185318499Y-254990501D02*
X185318499Y-255308699D01*
X253009499Y-54330501D02*
X253200001Y-54139999D01*
X227398942Y-172847000D02*
X230124000Y-170121942D01*
X230099499Y-170097441D02*
X230099499Y-58825501D01*
X253200001Y-54139999D02*
X254000000Y-53340000D01*
X234594499Y-54330501D02*
X253009499Y-54330501D01*
X207391000Y-172847000D02*
X227398942Y-172847000D01*
X196579501Y-183658499D02*
X207391000Y-172847000D01*
X230124000Y-170121942D02*
X230099499Y-170097441D01*
X196579501Y-197125299D02*
X196579501Y-183658499D01*
X230099499Y-58825501D02*
X234594499Y-54330501D01*
X195589000Y-198115800D02*
X196579501Y-197125299D01*
X251841000Y-68199000D02*
X254000000Y-66040000D01*
X238633000Y-68199000D02*
X251841000Y-68199000D01*
X235712000Y-71120000D02*
X238633000Y-68199000D01*
X235712000Y-78105000D02*
X235712000Y-71120000D01*
X207645000Y-173609000D02*
X229235000Y-173609000D01*
X232180501Y-81636499D02*
X235712000Y-78105000D01*
X231419499Y-85080443D02*
X232180501Y-84319441D01*
X231419499Y-151555441D02*
X231419499Y-85080443D01*
X198129000Y-198115800D02*
X199119501Y-197125299D01*
X229235000Y-173609000D02*
X232130501Y-170713499D01*
X199119501Y-197125299D02*
X199119501Y-182134499D01*
X232180501Y-84319441D02*
X232180501Y-81636499D01*
X232130501Y-152266443D02*
X231419499Y-151555441D01*
X232130501Y-170713499D02*
X232130501Y-152266443D01*
X199119501Y-182134499D02*
X207645000Y-173609000D01*
X202057000Y-196727800D02*
X202057000Y-180848000D01*
X200669000Y-198115800D02*
X202057000Y-196727800D01*
X202209499Y-52864559D02*
X205671058Y-49403000D01*
X202209499Y-65956443D02*
X202209499Y-52864559D01*
X200939499Y-67226443D02*
X202209499Y-65956443D01*
X200939499Y-77865441D02*
X200939499Y-67226443D01*
X200939499Y-108425441D02*
X200939499Y-97780443D01*
X201803000Y-96916942D02*
X201803000Y-78728942D01*
X201705001Y-109190943D02*
X200939499Y-108425441D01*
X200939499Y-97780443D02*
X201803000Y-96916942D01*
X201803000Y-78728942D02*
X200939499Y-77865441D01*
X201705001Y-128553001D02*
X201705001Y-109190943D01*
X201930000Y-128778000D02*
X201705001Y-128553001D01*
X220053000Y-45720000D02*
X220980000Y-45720000D01*
X216370000Y-49403000D02*
X220053000Y-45720000D01*
X205671058Y-49403000D02*
X216370000Y-49403000D01*
X204216000Y-197108800D02*
X204216000Y-180340000D01*
X203209000Y-198115800D02*
X204216000Y-197108800D01*
X219062499Y-59410501D02*
X220053000Y-58420000D01*
X206730501Y-66123557D02*
X213443557Y-59410501D01*
X206730501Y-66515441D02*
X206730501Y-66123557D01*
X213443557Y-59410501D02*
X219062499Y-59410501D01*
X204245001Y-69000941D02*
X206730501Y-66515441D01*
X220053000Y-58420000D02*
X220980000Y-58420000D01*
X204245001Y-128553001D02*
X204245001Y-69000941D01*
X204470000Y-128778000D02*
X204245001Y-128553001D01*
X205749000Y-198115800D02*
X207010000Y-196854800D01*
X207010000Y-175387000D02*
X207391000Y-175006000D01*
X207010000Y-196854800D02*
X207010000Y-175387000D01*
X207480001Y-79539999D02*
X208280000Y-78740000D01*
X206912001Y-80107999D02*
X207480001Y-79539999D01*
X206912001Y-128426001D02*
X206912001Y-80107999D01*
X207137000Y-128651000D02*
X206912001Y-128426001D01*
X213246443Y-204240501D02*
X221615000Y-212609058D01*
X209320501Y-204240501D02*
X213246443Y-204240501D01*
X208280000Y-203200000D02*
X209320501Y-204240501D01*
X240549058Y-212609058D02*
X243840000Y-215900000D01*
X221615000Y-212609058D02*
X240549058Y-212609058D01*
X200660000Y-173355000D02*
X205994000Y-173355000D01*
X205994000Y-173355000D02*
X207391000Y-171958000D01*
X214122000Y-171958000D02*
X215900000Y-170180000D01*
X207391000Y-171958000D02*
X214122000Y-171958000D01*
X193567201Y-173355000D02*
X193073290Y-172861089D01*
X195326000Y-173355000D02*
X193567201Y-173355000D01*
X195199000Y-172847000D02*
X195326000Y-172720000D01*
X193675000Y-172847000D02*
X195199000Y-172847000D01*
X200660000Y-172720000D02*
X205867000Y-172720000D01*
X205867000Y-172720000D02*
X207264000Y-171323000D01*
X212217000Y-171323000D02*
X213360000Y-170180000D01*
X207264000Y-171323000D02*
X212217000Y-171323000D01*
X324270001Y-130389999D02*
X325120000Y-129540000D01*
X302260000Y-191770000D02*
X305967501Y-188062499D01*
X324079499Y-130580501D02*
X324270001Y-130389999D01*
X324079499Y-132120443D02*
X324079499Y-130580501D01*
X307906058Y-137668000D02*
X318531942Y-137668000D01*
X306349499Y-139224559D02*
X307906058Y-137668000D01*
X306349499Y-140360499D02*
X306349499Y-139224559D01*
X309372000Y-143383000D02*
X306349499Y-140360499D01*
X309372000Y-153162000D02*
X309372000Y-143383000D01*
X305967501Y-156566499D02*
X309372000Y-153162000D01*
X305967501Y-188062499D02*
X305967501Y-156566499D01*
X318531942Y-137668000D02*
X324079499Y-132120443D01*
X177418699Y-192786301D02*
X157729499Y-192786301D01*
X191770000Y-185674000D02*
X189230000Y-188214000D01*
X191770000Y-171450000D02*
X191770000Y-185674000D01*
X157729499Y-192786301D02*
X152400000Y-198115800D01*
X181991000Y-188214000D02*
X177418699Y-192786301D01*
X189230000Y-188214000D02*
X181991000Y-188214000D01*
X198120000Y-165100000D02*
X191770000Y-171450000D01*
X263365441Y-159820501D02*
X266319000Y-156866942D01*
X238959499Y-159820501D02*
X263365441Y-159820501D01*
X233680000Y-165100000D02*
X238959499Y-159820501D01*
X266319000Y-83439000D02*
X254000000Y-71120000D01*
X266319000Y-156866942D02*
X266319000Y-83439000D01*
X162560000Y-71120000D02*
X158369000Y-75311000D01*
X146514001Y-90646001D02*
X147314000Y-91446000D01*
X146323499Y-90455499D02*
X146514001Y-90646001D01*
X149283058Y-75311000D02*
X146323499Y-78270559D01*
X146323499Y-78270559D02*
X146323499Y-90455499D01*
X158369000Y-75311000D02*
X149283058Y-75311000D01*
X224328999Y-198915799D02*
X223529000Y-198115800D01*
X226914699Y-201501499D02*
X224328999Y-198915799D01*
X297608501Y-201501499D02*
X226914699Y-201501499D01*
X302260000Y-196850000D02*
X297608501Y-201501499D01*
X256540000Y-72505942D02*
X256540000Y-71120000D01*
X299720000Y-178435000D02*
X273939000Y-178435000D01*
X302260000Y-180975000D02*
X299720000Y-178435000D01*
X267208000Y-83173942D02*
X266832529Y-82798471D01*
X267208000Y-171704000D02*
X267208000Y-83173942D01*
X273939000Y-178435000D02*
X267208000Y-171704000D01*
X302260000Y-189230000D02*
X302260000Y-180975000D01*
X266832529Y-82798471D02*
X256540000Y-72505942D01*
X267086529Y-83052471D02*
X266832529Y-82798471D01*
X197644559Y-44729499D02*
X187960000Y-54414058D01*
X289966499Y-44729499D02*
X197644559Y-44729499D01*
X187960000Y-54414058D02*
X187960000Y-66040000D01*
X297235529Y-51998529D02*
X289966499Y-44729499D01*
X345638471Y-51998529D02*
X297235529Y-51998529D01*
X346480501Y-52840559D02*
X345638471Y-51998529D01*
X346480501Y-54839499D02*
X346480501Y-52840559D01*
X345440000Y-55880000D02*
X346480501Y-54839499D01*
X216749999Y-84669999D02*
X215900000Y-83820000D01*
X219452501Y-137245501D02*
X219452501Y-87372501D01*
X226060000Y-143853000D02*
X219452501Y-137245501D01*
X219452501Y-87372501D02*
X216749999Y-84669999D01*
X226060000Y-144780000D02*
X226060000Y-143853000D01*
X215957501Y-140740501D02*
X205080499Y-140740501D01*
X219452501Y-137245501D02*
X215957501Y-140740501D01*
X205080499Y-140740501D02*
X201041000Y-144780000D01*
X201041000Y-144780000D02*
X195580000Y-144780000D01*
X149860000Y-66040000D02*
X153416000Y-62484000D01*
X153416000Y-62484000D02*
X174331104Y-62484000D01*
X195986516Y-40893926D02*
X195986527Y-40893915D01*
X195924833Y-40893926D02*
X195986516Y-40893926D01*
X174331104Y-62484000D02*
X195496552Y-41318552D01*
X195924797Y-40893962D02*
X195924833Y-40893926D01*
X195921142Y-40893962D02*
X195924797Y-40893962D01*
X195986527Y-40893915D02*
X196101490Y-40893915D01*
X195814052Y-41001052D02*
X195921142Y-40893962D01*
X195496552Y-41318552D02*
X195814052Y-41001052D01*
X291697140Y-40893916D02*
X292332215Y-41528991D01*
X195986527Y-40893915D02*
X291697140Y-40893916D01*
X292332215Y-41528991D02*
X298936154Y-48132930D01*
X327406070Y-48132930D02*
X327660000Y-47879000D01*
X298936154Y-48132930D02*
X327406070Y-48132930D01*
X328676000Y-48133000D02*
X328422060Y-48386940D01*
X328422060Y-48386940D02*
X298830940Y-48386940D01*
X291592000Y-41148000D02*
X291588345Y-41148000D01*
X196030046Y-41147937D02*
X196030011Y-41147972D01*
X155702000Y-62738000D02*
X152400000Y-66040000D01*
X174436328Y-62738000D02*
X155702000Y-62738000D01*
X196091730Y-41147936D02*
X196091741Y-41147925D01*
X196030047Y-41147936D02*
X196091730Y-41147936D01*
X196091741Y-41147925D02*
X197484924Y-41147925D01*
X196030011Y-41147972D02*
X196030047Y-41147936D01*
X195676164Y-41498164D02*
X174436328Y-62738000D01*
X195676164Y-41498164D02*
X196026356Y-41147972D01*
X196026356Y-41147972D02*
X196030011Y-41147972D01*
X196026355Y-41147973D02*
X195676164Y-41498164D01*
X291211075Y-41147925D02*
X291591925Y-41147925D01*
X292227000Y-41783000D02*
X291592000Y-41148000D01*
X298830940Y-48386940D02*
X292227000Y-41783000D01*
X291591925Y-41147925D02*
X292227000Y-41783000D01*
X291323145Y-41147925D02*
X291211075Y-41147925D01*
X291211075Y-41147925D02*
X196206704Y-41147925D01*
X329946050Y-48640950D02*
X330200000Y-48387000D01*
X298722071Y-48640950D02*
X329946050Y-48640950D01*
X196196954Y-41401934D02*
X291483055Y-41401935D01*
X196196940Y-41401946D02*
X196196954Y-41401934D01*
X196131570Y-41401982D02*
X196135225Y-41401982D01*
X291483055Y-41401935D02*
X291855060Y-41773940D01*
X157988000Y-62992000D02*
X174541552Y-62992000D01*
X154940000Y-66040000D02*
X157988000Y-62992000D01*
X196135261Y-41401946D02*
X196196940Y-41401946D01*
X196135225Y-41401982D02*
X196135261Y-41401946D01*
X174541552Y-62992000D02*
X196131570Y-41401982D01*
X291855060Y-41773940D02*
X298722071Y-48640950D01*
X291728060Y-41646940D02*
X291855060Y-41773940D01*
X331216000Y-48641000D02*
X330962040Y-48894960D01*
X330962040Y-48894960D02*
X298616857Y-48894960D01*
X291334306Y-41655966D02*
X291334282Y-41655944D01*
X291377863Y-41655966D02*
X291334306Y-41655966D01*
X298616857Y-48894960D02*
X291377863Y-41655966D01*
X196240441Y-41655990D02*
X196236785Y-41655991D01*
X196240476Y-41655955D02*
X196240441Y-41655990D01*
X196302155Y-41655955D02*
X196240476Y-41655955D01*
X196302167Y-41655943D02*
X196302155Y-41655955D01*
X291334282Y-41655944D02*
X196302167Y-41655943D01*
X196236785Y-41655991D02*
X174646776Y-63246000D01*
X160274000Y-63246000D02*
X157480000Y-66040000D01*
X174646776Y-63246000D02*
X160274000Y-63246000D01*
X160020000Y-66040000D02*
X162560000Y-63500000D01*
X162560000Y-63500000D02*
X166878000Y-63500000D01*
X166878000Y-63500000D02*
X174752000Y-63500000D01*
X196407365Y-41909965D02*
X196407380Y-41909952D01*
X196345655Y-41910000D02*
X196345690Y-41909965D01*
X196345690Y-41909965D02*
X196407365Y-41909965D01*
X196342000Y-41910000D02*
X196345655Y-41910000D01*
X174752000Y-63500000D02*
X196342000Y-41910000D01*
X291229091Y-41909975D02*
X291272648Y-41909975D01*
X291229069Y-41909953D02*
X291229091Y-41909975D01*
X196407380Y-41909952D02*
X291229069Y-41909953D01*
X291272648Y-41909975D02*
X298511643Y-49148970D01*
X332486030Y-49148970D02*
X332740000Y-48895000D01*
X298511643Y-49148970D02*
X332486030Y-49148970D01*
X164846000Y-63754000D02*
X162560000Y-66040000D01*
X196512582Y-42163972D02*
X196450907Y-42163973D01*
X196512593Y-42163961D02*
X196512582Y-42163972D01*
X291123856Y-42163962D02*
X196512593Y-42163961D01*
X174860880Y-63754000D02*
X164846000Y-63754000D01*
X291123879Y-42163983D02*
X291123856Y-42163962D01*
X196450907Y-42163973D02*
X174860880Y-63754000D01*
X298406428Y-49402980D02*
X291167433Y-42163984D01*
X333502020Y-49402980D02*
X298406428Y-49402980D01*
X291167433Y-42163984D02*
X291123879Y-42163983D01*
X333756000Y-49149000D02*
X333502020Y-49402980D01*
X165100000Y-66040000D02*
X167132000Y-64008000D01*
X167132000Y-64008000D02*
X174966104Y-64008000D01*
X196617794Y-42417982D02*
X196617806Y-42417970D01*
X196556122Y-42417982D02*
X196617794Y-42417982D01*
X174966104Y-64008000D02*
X196556122Y-42417982D01*
X291018662Y-42417990D02*
X291062215Y-42417991D01*
X291018643Y-42417971D02*
X291018662Y-42417990D01*
X196617806Y-42417970D02*
X291018643Y-42417971D01*
X291062215Y-42417991D02*
X298301214Y-49656990D01*
X335026010Y-49656990D02*
X335280000Y-49403000D01*
X298301214Y-49656990D02*
X335026010Y-49656990D01*
X336296000Y-49657000D02*
X336042000Y-49911000D01*
X336042000Y-49911000D02*
X298196000Y-49911000D01*
X290957000Y-42672000D02*
X290913448Y-42672000D01*
X290913448Y-42672000D02*
X290913428Y-42671980D01*
X298196000Y-49911000D02*
X290957000Y-42672000D01*
X196723020Y-42671980D02*
X196723010Y-42671990D01*
X196723010Y-42671990D02*
X196661337Y-42671991D01*
X290913428Y-42671980D02*
X196723020Y-42671980D01*
X196661337Y-42671991D02*
X175071328Y-64262000D01*
X169418000Y-64262000D02*
X167640000Y-66040000D01*
X175071328Y-64262000D02*
X169418000Y-64262000D01*
X175176552Y-64516000D02*
X171704000Y-64516000D01*
X290808214Y-42925990D02*
X227838010Y-42925990D01*
X291719000Y-43836776D02*
X290808214Y-42925990D01*
X291719000Y-43858552D02*
X291719000Y-43836776D01*
X227838000Y-42926000D02*
X196766552Y-42926000D01*
X298025448Y-50165000D02*
X291719000Y-43858552D01*
X171704000Y-64516000D02*
X170180000Y-66040000D01*
X196766552Y-42926000D02*
X175176552Y-64516000D01*
X337658500Y-50165000D02*
X298025448Y-50165000D01*
X227838010Y-42925990D02*
X227838000Y-42926000D01*
X337820000Y-50003500D02*
X337658500Y-50165000D01*
X172720000Y-66040000D02*
X173990000Y-64770000D01*
X173990000Y-64770000D02*
X175281776Y-64770000D01*
X175281776Y-64770000D02*
X196871776Y-43180000D01*
X290449000Y-43180000D02*
X290449009Y-43179991D01*
X290681215Y-43179991D02*
X297920224Y-50419000D01*
X338801500Y-50419000D02*
X338963000Y-50257500D01*
X297920224Y-50419000D02*
X338801500Y-50419000D01*
X290322009Y-43179991D02*
X290322000Y-43180000D01*
X290681215Y-43179991D02*
X290322009Y-43179991D01*
X290322000Y-43180000D02*
X290449000Y-43180000D01*
X196871776Y-43180000D02*
X290322000Y-43180000D01*
X340106000Y-50673000D02*
X340360000Y-50419000D01*
X290576000Y-43434000D02*
X297815000Y-50673000D01*
X175260000Y-65151000D02*
X196977000Y-43434000D01*
X297815000Y-50673000D02*
X340106000Y-50673000D01*
X196977000Y-43434000D02*
X290576000Y-43434000D01*
X175260000Y-66040000D02*
X175260000Y-65151000D01*
X177800000Y-63013776D02*
X177800000Y-66040000D01*
X180975000Y-59838776D02*
X177800000Y-63013776D01*
X180975000Y-59817000D02*
X180975000Y-59838776D01*
X197104000Y-43688000D02*
X180975000Y-59817000D01*
X290449000Y-43688000D02*
X197104000Y-43688000D01*
X297688000Y-50927000D02*
X290449000Y-43688000D01*
X341249000Y-50927000D02*
X297688000Y-50927000D01*
X341503000Y-50673000D02*
X341249000Y-50927000D01*
X180340000Y-66040000D02*
X180340000Y-60833000D01*
X180340000Y-60833000D02*
X197231000Y-43942000D01*
X197231000Y-43942000D02*
X290322000Y-43942000D01*
X290322000Y-43942000D02*
X297561000Y-51181000D01*
X342646000Y-51181000D02*
X342900000Y-50927000D01*
X297561000Y-51181000D02*
X342646000Y-51181000D01*
X182880000Y-66040000D02*
X182880000Y-58674000D01*
X182880000Y-58674000D02*
X197358000Y-44196000D01*
X197358000Y-44196000D02*
X290195000Y-44196000D01*
X290195000Y-44196000D02*
X297434000Y-51435000D01*
X343789000Y-51435000D02*
X344043000Y-51181000D01*
X297434000Y-51435000D02*
X343789000Y-51435000D01*
X185420000Y-66040000D02*
X185420000Y-56515000D01*
X185420000Y-56515000D02*
X197485000Y-44450000D01*
X197485000Y-44450000D02*
X290068000Y-44450000D01*
X290068000Y-44450000D02*
X297307000Y-51689000D01*
X345186000Y-51689000D02*
X345440000Y-51435000D01*
X297307000Y-51689000D02*
X345186000Y-51689000D01*
X157565501Y-108184699D02*
X153412501Y-108184699D01*
X153412501Y-108184699D02*
X153221999Y-108375201D01*
X164195000Y-101555200D02*
X157565501Y-108184699D01*
X153221999Y-108375201D02*
X152422000Y-109175200D01*
X165122000Y-101555200D02*
X164195000Y-101555200D01*
X330200000Y-147320000D02*
X327660000Y-147320000D01*
X359548630Y-147320000D02*
X358140000Y-147320000D01*
X360680000Y-147320000D02*
X359548630Y-147320000D01*
X198662510Y-131606510D02*
X198501000Y-131445000D01*
X208538396Y-131606510D02*
X198662510Y-131606510D01*
X197836999Y-130966001D02*
X197773502Y-131029498D01*
X208026000Y-131191000D02*
X207801001Y-130966001D01*
X207801001Y-130966001D02*
X197836999Y-130966001D01*
X197773502Y-131029498D02*
X197612000Y-131191000D01*
X256540000Y-127927000D02*
X256540000Y-127000000D01*
X260848197Y-132235197D02*
X256540000Y-127927000D01*
X262890000Y-132235197D02*
X260848197Y-132235197D01*
X257530501Y-126212501D02*
X257530501Y-116217501D01*
X256540000Y-115227000D02*
X256540000Y-114300000D01*
X257530501Y-116217501D02*
X256540000Y-115227000D01*
X262890000Y-131572000D02*
X257530501Y-126212501D01*
M02*
