M48
; DRILL file {KiCad (5.1.0-0)} date Tuesday, October 08, 2019 at 10:08:16 PM
; FORMAT={-:-/ absolute / inch / decimal}
; #@! TF.CreationDate,2019-10-08T22:08:16-07:00
; #@! TF.GenerationSoftware,Kicad,Pcbnew,(5.1.0-0)
FMAT,2
INCH
T1C0.0079
T2C0.0295
T3C0.0315
T4C0.0354
T5C0.0394
T6C0.0433
T7C0.0512
%
G90
G05
T1
X5.7723Y-4.085
X5.777Y-4.0628
X5.855Y-6.08
X5.9972Y-4.0775
X6.0Y-3.41
X6.1Y-3.42
X6.17Y-6.09
X6.2Y-3.43
X6.265Y-4.235
X6.3Y-3.44
X6.3Y-8.96
X6.3Y-9.1446
X6.365Y-5.24
X6.4Y-3.45
X6.4Y-7.23
X6.5Y-3.46
X6.5Y-7.22
X6.505Y-2.875
X6.6Y-3.47
X6.6Y-7.21
X6.6Y-8.97
X6.6Y-9.1336
X6.6999Y-8.9764
X6.7Y-7.2
X6.7Y-9.12
X6.72Y-5.095
X6.775Y-9.07
X6.8Y-7.19
X6.88Y-4.83
X6.9Y-7.18
X6.905Y-5.3
X7.0Y-7.17
X7.005Y-5.89
X7.02Y-5.945
X7.0209Y-5.9212
X7.0366Y-5.9047
X7.12Y-5.945
X7.155Y-10.865
X7.155Y-10.89
X7.155Y-10.915
X7.19Y-10.31
X7.19Y-10.355
X7.19Y-10.4
X7.2Y-9.8
X7.2Y-10.515
X7.26Y-5.335
X7.2657Y-5.8875
X7.2817Y-5.9036
X7.29Y-5.385
X7.296Y-10.039
X7.3Y-3.48
X7.33Y-5.39
X7.3514Y-5.4264
X7.37Y-5.41
X7.38Y-4.655
X7.3982Y-5.2225
X7.3986Y-4.6264
X7.4Y-3.49
X7.435Y-5.23
X7.4436Y-5.2816
X7.455Y-5.26
X7.4665Y-5.8486
X7.495Y-9.84
X7.5Y-3.5
X7.515Y-9.895
X7.55Y-10.0
X7.5514Y-10.2
X7.595Y-9.9
X7.5964Y-10.105
X7.6Y-3.51
X7.6013Y-6.8056
X7.625Y-6.805
X7.625Y-10.45
X7.64Y-10.9786
X7.655Y-5.92
X7.69Y-6.8
X7.69Y-6.825
X7.7Y-3.52
X7.78Y-5.165
X7.8Y-3.53
X7.815Y-5.175
X7.8324Y-4.6675
X7.9Y-1.9
X7.9Y-2.005
X7.9Y-2.385
X7.9Y-2.515
X7.9Y-3.54
X7.9Y-6.8
X7.9Y-6.825
X7.95Y-5.07
X7.955Y-7.12
X7.96Y-10.6
X7.97Y-10.7
X7.98Y-10.75
X8.0Y-3.55
X8.0Y-10.295
X8.015Y-9.9
X8.04Y-7.1
X8.04Y-10.0
X8.0423Y-9.6404
X8.05Y-5.07
X8.05Y-10.1
X8.06Y-10.2
X8.105Y-9.7
X8.155Y-5.065
X8.165Y-6.89
X8.17Y-9.74
X8.1894Y-2.5088
X8.19Y-5.165
X8.2Y-1.89
X8.2Y-2.015
X8.2Y-2.375
X8.2102Y-5.1814
X8.24Y-9.7286
X8.2773Y-9.6425
X8.285Y-4.225
X8.2897Y-2.5186
X8.29Y-4.675
X8.29Y-9.57
X8.2936Y-9.6859
X8.2977Y-1.8736
X8.3Y-2.025
X8.3Y-2.365
X8.3086Y-9.8
X8.309Y-4.3836
X8.3186Y-10.0
X8.405Y-4.3836
X8.505Y-4.3836
X8.51Y-4.195
X8.605Y-4.385
X8.61Y-9.75
X8.61Y-9.88
X8.61Y-9.905
X8.815Y-4.05
X8.84Y-4.05
X8.865Y-4.07
X8.865Y-8.125
X9.165Y-5.23
X9.1939Y-5.2242
X9.31Y-5.1436
X9.3804Y-5.1426
X9.452Y-5.071
X9.495Y-4.19
X9.735Y-8.125
X9.76Y-4.19
X9.975Y-4.14
X10.005Y-4.13
X10.0088Y-4.2214
X10.035Y-4.205
X10.04Y-4.12
X10.15Y-8.685
X10.15Y-9.485
X10.15Y-10.285
X10.175Y-8.665
X10.175Y-9.465
X10.175Y-10.265
X10.2Y-8.645
X10.2Y-9.445
X10.2Y-10.245
X10.225Y-8.625
X10.225Y-9.425
X10.225Y-10.225
X10.235Y-4.605
X10.235Y-4.63
X10.235Y-4.655
X10.235Y-4.68
X10.235Y-4.705
X10.235Y-4.73
X10.235Y-4.755
X10.235Y-4.78
X10.25Y-8.605
X10.25Y-9.405
X10.25Y-10.205
X10.275Y-8.58
X10.275Y-9.38
X10.275Y-10.18
X10.3Y-8.56
X10.3Y-9.36
X10.3Y-10.16
X10.325Y-8.54
X10.325Y-9.34
X10.325Y-10.14
X10.35Y-5.13
X10.35Y-5.155
X10.35Y-5.18
X10.35Y-5.2061
X10.55Y-2.04
X10.55Y-2.535
X10.55Y-4.6
X10.55Y-5.635
X10.575Y-2.02
X10.575Y-2.515
X10.575Y-4.63
X10.5751Y-5.6514
X10.6Y-2.0
X10.6Y-2.495
X10.6Y-4.65
X10.6Y-5.6614
X10.625Y-1.98
X10.625Y-2.475
X10.625Y-4.68
X10.625Y-5.6714
X10.65Y-1.96
X10.65Y-2.455
X10.65Y-4.705
X10.65Y-5.6814
X10.675Y-1.94
X10.675Y-2.435
X10.675Y-4.725
X10.675Y-5.6914
X10.7Y-1.92
X10.7Y-2.415
X10.7Y-4.745
X10.7Y-5.7014
X10.725Y-2.395
X10.725Y-4.765
X10.725Y-5.7114
X10.7252Y-1.9014
X11.365Y-5.58
X11.365Y-5.605
X11.365Y-5.63
X11.365Y-5.655
X11.48Y-8.51
X11.82Y-9.9
X12.005Y-8.88
X12.1Y-9.01
X12.9Y-1.885
X12.94Y-1.895
X13.0Y-1.905
X13.04Y-1.915
X13.1Y-1.925
X13.14Y-1.935
X13.2Y-1.945
X13.2Y-9.575
X13.24Y-1.955
X13.3Y-1.9686
X13.3Y-9.585
X13.345Y-1.9786
X13.4Y-1.985
X13.4Y-9.595
X13.445Y-1.995
X13.5Y-2.005
X13.5Y-9.605
X13.545Y-2.015
X13.6Y-2.025
X13.6Y-9.615
X13.7Y-9.625
T2
X13.45Y-8.05
X13.5Y-8.0
X13.55Y-8.05
T3
X9.95Y-9.8531
X9.95Y-10.05
X7.9Y-9.7
X7.9Y-9.8
X7.9Y-9.9
X7.9Y-10.0
X7.9Y-10.1
X7.9Y-10.2
X7.9Y-10.3
X7.9Y-10.4
X7.9Y-10.5
X7.9Y-10.7
X7.9Y-10.8
X8.5Y-9.7
X8.5Y-9.8
X8.5Y-9.9
X8.5Y-10.0
X8.5Y-10.1
X8.5Y-10.2
X8.5Y-10.3
X8.5Y-10.4
X8.5Y-10.6
X8.5Y-10.7
X8.5Y-10.8
X9.2Y-2.3
X9.2Y-2.6
X11.9531Y-7.2
X8.5Y-10.5
X12.15Y-7.2
X8.8004Y-7.4998
X8.8004Y-7.7998
X8.9004Y-7.4998
X8.9004Y-7.7998
X9.0004Y-7.4998
X9.0004Y-7.7998
X9.1004Y-7.4998
X9.1004Y-7.7998
X9.2004Y-7.4998
X9.2004Y-7.7998
X9.3004Y-7.4998
X9.3004Y-7.7998
X9.4004Y-7.4998
X9.4004Y-7.7998
X9.5004Y-7.4998
X9.5004Y-7.7998
X9.6004Y-7.4998
X9.6004Y-7.7998
X9.7004Y-7.4998
X9.7004Y-7.7998
X7.388Y-4.5
X7.388Y-4.8
X7.488Y-4.5
X7.488Y-4.8
X7.588Y-4.5
X7.9Y-10.6
X7.588Y-4.8
X7.688Y-4.5
X7.788Y-4.5
X7.788Y-4.8
X7.888Y-4.5
X7.888Y-4.8
X7.988Y-4.5
X7.988Y-4.8
X8.088Y-4.5
X8.088Y-4.8
X8.188Y-4.5
X8.188Y-4.8
X8.288Y-4.5
X8.288Y-4.8
X8.388Y-4.5
X8.388Y-4.8
X8.488Y-4.5
X8.488Y-4.8
X8.588Y-4.5
X8.588Y-4.8
X8.688Y-4.5
X8.688Y-4.8
X12.35Y-10.7
X12.65Y-10.7
X8.8Y-9.8
X8.8Y-10.1
X8.9Y-9.8
X8.9Y-10.1
X9.0Y-9.8
X9.0Y-10.1
X9.1Y-9.8
X9.1Y-10.1
X9.2Y-9.8
X9.2Y-10.1
X9.3Y-9.8
X9.3Y-10.1
X9.4Y-9.8
X9.3Y-2.3
X7.688Y-4.8
X9.3Y-2.6
X9.4Y-2.3
X9.4Y-10.1
X9.5Y-9.8
X9.5Y-10.1
X9.6Y-9.8
X9.6Y-10.1
X9.7Y-9.8
X9.7Y-10.1
X7.8Y-1.8
X7.8Y-2.1
X7.9Y-1.8
X7.9Y-2.1
X8.0Y-1.8
X8.0Y-2.1
X8.1Y-1.8
X8.1Y-2.1
X8.2Y-1.8
X8.2Y-2.1
X8.3Y-1.8
X8.3Y-2.1
X8.4Y-1.8
X8.4Y-2.1
X8.5Y-1.8
X8.5Y-2.1
X8.6Y-1.8
X8.6Y-2.1
X8.7Y-1.8
X8.7Y-2.1
X7.0009Y-3.9982
X7.0009Y-4.2982
X7.1009Y-3.9982
X7.1009Y-4.2982
X7.2009Y-3.9982
X7.2009Y-4.2982
X7.3009Y-3.9982
X7.3009Y-4.2982
X7.4009Y-3.9982
X7.4009Y-4.2982
X7.5009Y-3.9982
X7.5009Y-4.2982
X7.6009Y-3.9982
X7.6009Y-4.2982
X7.7009Y-3.9982
X7.7009Y-4.2982
X13.15Y-11.0
X13.45Y-11.0
X6.3Y-4.7
X6.3Y-4.8
X6.3Y-4.9
X6.3Y-5.0
X6.3Y-5.1
X6.3Y-5.2
X6.3Y-5.3
X6.6Y-4.7
X6.6Y-4.8
X6.6Y-4.9
X6.6Y-5.0
X6.6Y-5.1
X6.6Y-5.2
X6.6Y-5.3
X11.4Y-8.65
X11.4Y-8.75
X11.4Y-8.85
X11.4Y-8.95
X11.4Y-9.05
X11.4Y-9.15
X11.4Y-9.25
X11.4Y-9.35
X11.7Y-8.65
X11.7Y-8.75
X11.7Y-8.85
X11.7Y-8.95
X11.7Y-9.05
X11.7Y-9.15
X11.7Y-9.25
X11.7Y-9.35
X9.4Y-5.7
X9.4Y-6.0
X9.5Y-5.7
X9.5Y-6.0
X9.6Y-5.7
X9.6Y-6.0
X9.7Y-5.7
X9.7Y-6.0
X9.8Y-5.7
X9.8Y-6.0
X9.9Y-5.7
X9.9Y-6.0
X10.0Y-5.7
X10.0Y-6.0
X10.1Y-5.7
X10.1Y-6.0
X9.4Y-2.6
X9.5Y-2.3
X9.5Y-2.6
X9.6Y-2.3
X9.6Y-2.6
X9.7Y-2.3
X9.7Y-2.6
X9.8Y-2.3
X9.8Y-2.6
X9.9Y-2.3
X9.9Y-2.6
X10.0Y-2.3
X10.0Y-2.6
X10.1Y-2.3
X10.1Y-2.6
X6.1Y-10.25
X6.4Y-10.25
X13.55Y-5.55
X13.55Y-5.7469
X13.7Y-8.05
X14.0Y-8.05
X8.8Y-9.0
X9.15Y-2.85
X9.15Y-3.0469
X12.35Y-5.55
X12.35Y-5.7469
X6.6Y-9.8
X8.8Y-9.3
X6.6Y-9.7
X8.9Y-9.0
X8.9Y-9.3
X9.0Y-9.3
X9.1Y-9.0
X9.1Y-9.3
X9.2Y-9.0
X9.2Y-9.3
X9.3Y-9.0
X9.3Y-9.3
X9.4Y-9.0
X9.4Y-9.3
X6.6Y-9.9
X9.0Y-9.0
X6.6Y-10.0
X6.6Y-10.1
X6.6Y-10.2
X6.6Y-10.3
X6.6Y-10.4
X6.6Y-10.5
X6.6Y-10.6
X6.9Y-9.7
X6.9Y-9.8
X6.9Y-9.9
X6.9Y-10.0
X6.9Y-10.1
X6.9Y-10.2
X6.9Y-10.3
X6.9Y-10.4
X6.9Y-10.5
X6.9Y-10.6
X9.5Y-9.0
X9.5Y-9.3
X9.6Y-9.0
X9.6Y-9.3
X9.7Y-9.0
X9.7Y-9.3
X12.9Y-7.45
X12.9Y-7.55
X12.9Y-7.65
X12.9Y-7.75
X12.9Y-7.85
X12.9Y-7.95
X12.9Y-8.05
X13.2Y-7.45
X13.2Y-7.55
X13.2Y-7.65
X13.2Y-7.75
X13.2Y-7.85
X13.2Y-7.95
X13.2Y-8.05
X7.4004Y-7.4998
X7.4004Y-7.7998
X7.5004Y-7.4998
X7.5004Y-7.7998
X7.6004Y-7.4998
X7.6004Y-7.7998
X7.7004Y-7.4998
X7.7004Y-7.7998
X7.8004Y-7.4998
X7.9004Y-7.4998
X7.9004Y-7.7998
X8.0004Y-7.4998
X8.0004Y-7.7998
X8.1004Y-7.4998
X8.1004Y-7.7998
X8.2004Y-7.4998
X8.2004Y-7.7998
X8.3004Y-7.4998
X8.3004Y-7.7998
X5.8Y-2.8
X11.0Y-7.45
X7.8004Y-7.7998
X11.0Y-7.55
X11.0Y-7.65
X11.0Y-7.75
X11.3Y-7.45
X11.3Y-7.55
X11.3Y-7.65
X11.3Y-7.75
X5.8Y-5.7
X5.8Y-6.0
X5.9Y-5.7
X5.9Y-6.0
X6.0Y-5.7
X6.0Y-6.0
X6.1Y-5.7
X6.1Y-6.0
X6.2Y-5.7
X6.2Y-6.0
X6.3Y-5.7
X6.3Y-6.0
X6.4Y-5.7
X6.4Y-6.0
X6.5Y-5.7
X6.5Y-6.0
X5.8Y-3.1
X5.9Y-2.8
X5.9Y-3.1
X6.0Y-2.8
X6.0Y-3.1
X6.1Y-2.8
X6.1Y-3.1
X6.2Y-2.8
X6.2Y-3.1
X6.3Y-2.8
X6.3Y-3.1
X6.4Y-2.8
X6.4Y-3.1
X6.5Y-2.8
X6.5Y-3.1
X7.95Y-2.85
X7.95Y-3.0469
X12.4Y-8.65
X12.4Y-8.75
X12.4Y-8.85
X12.4Y-8.95
X12.4Y-9.05
X12.4Y-9.15
X12.4Y-9.25
X12.7Y-8.65
X12.7Y-8.75
X12.7Y-8.85
X12.7Y-8.95
X12.7Y-9.05
X12.7Y-9.15
X12.7Y-9.25
X12.15Y-10.2
X12.45Y-10.2
X7.15Y-8.9531
X7.15Y-9.15
X12.4531Y-7.2
X12.65Y-7.2
X11.0531Y-7.2
X11.25Y-7.2
X11.45Y-7.45
X11.75Y-7.45
X11.95Y-10.85
X12.25Y-10.85
X7.1Y-9.7
X7.1Y-9.8
X7.1Y-9.9
X12.9531Y-7.2
X13.15Y-7.2
X13.4531Y-8.4
X13.65Y-8.4
X11.8Y-9.65
X11.9969Y-9.65
X6.75Y-4.0531
X6.75Y-4.25
X6.1Y-10.05
X6.4Y-10.05
X12.15Y-9.9
X12.45Y-9.9
X13.8Y-7.25
X14.1Y-7.25
X12.75Y-10.7
X12.75Y-10.8
X12.75Y-10.9
X12.75Y-11.0
X13.05Y-10.7
X13.05Y-10.8
X13.05Y-10.9
X7.1998Y-3.3002
X7.1998Y-3.6002
X7.2998Y-3.3002
X7.2998Y-3.6002
X7.3998Y-3.3002
X7.3998Y-3.6002
X7.4998Y-3.3002
X7.4998Y-3.6002
X7.5998Y-3.3002
X7.5998Y-3.6002
X7.6998Y-3.3002
X7.6998Y-3.6002
X7.7998Y-3.3002
X7.7998Y-3.6002
X7.8998Y-3.3002
X7.1Y-10.0
X7.1Y-10.1
X7.1Y-10.2
X7.1Y-10.3
X7.1Y-10.4
X7.1Y-10.5
X7.1Y-10.6
X7.1Y-10.7
X7.1Y-10.8
X7.7Y-9.7
X7.7Y-9.8
X7.7Y-9.9
X7.7Y-10.0
X7.7Y-10.1
X7.7Y-10.2
X7.7Y-10.3
X7.7Y-10.4
X7.7Y-10.5
X7.7Y-10.6
X7.7Y-10.7
X7.7Y-10.8
X5.7998Y-3.3002
X5.7998Y-3.6002
X5.8998Y-3.3002
X5.8998Y-3.6002
X5.9998Y-3.3002
X5.9998Y-3.6002
X6.0998Y-3.3002
X6.0998Y-3.6002
X6.1998Y-3.3002
X6.1998Y-3.6002
X6.2998Y-3.3002
X6.2998Y-3.6002
X6.3998Y-3.3002
X6.3998Y-3.6002
X6.4998Y-3.3002
X6.4998Y-3.6002
X6.5998Y-3.3002
X6.5998Y-3.6002
X6.6998Y-3.3002
X6.6998Y-3.6002
X13.15Y-10.7
X13.45Y-10.7
X8.8Y-10.6
X8.8Y-10.9
X8.9Y-10.6
X8.9Y-10.9
X9.0Y-10.6
X9.0Y-10.9
X9.1Y-10.6
X9.1Y-10.9
X9.2Y-10.6
X9.2Y-10.9
X9.3Y-10.6
X9.3Y-10.9
X9.4Y-10.6
X9.4Y-10.9
X9.5Y-10.6
X9.5Y-10.9
X9.6Y-10.6
X9.6Y-10.9
X13.05Y-11.0
X9.7Y-10.6
X9.7Y-10.9
X11.95Y-11.0
X12.25Y-11.0
X10.35Y-2.85
X8.0Y-6.5
X10.35Y-3.0469
X10.95Y-5.55
X10.95Y-5.7469
X12.6999Y-9.4999
X12.6999Y-10.0999
X12.7999Y-9.4999
X12.7999Y-10.0999
X12.8999Y-9.4999
X12.8999Y-10.0999
X12.9999Y-9.4999
X12.9999Y-10.0999
X13.0999Y-9.4999
X13.0999Y-10.0999
X13.1999Y-9.4999
X13.1999Y-10.0999
X13.2999Y-9.4999
X13.2999Y-10.0999
X13.3999Y-9.4999
X13.3999Y-10.0999
X13.4999Y-9.4999
X13.4999Y-10.0999
X13.5999Y-9.4999
X13.5999Y-10.0999
X13.6999Y-9.4999
X13.6999Y-10.0999
X13.7999Y-9.4999
X13.7999Y-10.0999
X13.8999Y-9.4999
X13.8999Y-10.0999
X13.9999Y-9.4999
X9.4Y-4.5
X13.9999Y-10.0999
X14.0999Y-9.4999
X14.0999Y-10.0999
X14.1999Y-9.4999
X14.1999Y-10.0999
X9.4Y-2.8
X9.4Y-3.1
X9.5Y-2.8
X9.5Y-3.1
X9.9Y-4.5
X9.6Y-2.8
X9.6Y-3.1
X9.7Y-2.8
X9.7Y-3.1
X9.8Y-2.8
X9.8Y-3.1
X9.9Y-2.8
X9.9Y-3.1
X10.0Y-2.8
X10.0Y-3.1
X10.1Y-2.8
X10.1Y-3.1
X13.15Y-10.85
X13.45Y-10.85
X10.9531Y-8.4
X11.15Y-8.4
X11.9531Y-8.4
X12.15Y-8.4
X14.45Y-9.7031
X14.45Y-9.9
X9.95Y-8.2531
X9.95Y-8.45
X8.55Y-7.5531
X8.55Y-7.75
X7.95Y-4.0531
X7.95Y-4.25
X8.2009Y-3.9982
X8.2009Y-4.2982
X8.3009Y-3.9982
X8.3009Y-4.2982
X8.4009Y-3.9982
X8.4009Y-4.2982
X8.5009Y-3.9982
X8.5009Y-4.2982
X8.6009Y-3.9982
X8.6009Y-4.2982
X8.7009Y-3.9982
X8.7009Y-4.2982
X8.8009Y-3.9982
X8.8009Y-4.2982
X8.9009Y-3.9982
X8.9009Y-4.2982
X12.6Y-5.5
X12.6Y-5.8
X12.7Y-5.5
X12.7Y-5.8
X12.8Y-5.5
X12.8Y-5.8
X12.9Y-5.5
X12.9Y-5.8
X13.0Y-5.5
X13.0Y-5.8
X13.1Y-5.5
X13.1Y-5.8
X13.2Y-5.5
X13.2Y-5.8
X13.3Y-5.5
X13.3Y-5.8
X8.8Y-8.2
X8.8Y-8.5
X8.9Y-8.2
X8.9Y-8.5
X9.0Y-8.2
X9.0Y-8.5
X8.4Y-5.0
X12.9Y-8.65
X12.9Y-8.75
X12.9Y-8.85
X12.9Y-8.95
X12.9Y-9.05
X12.9Y-9.15
X12.9Y-9.25
X13.2Y-8.65
X13.2Y-8.75
X13.2Y-8.85
X13.2Y-8.95
X13.2Y-9.05
X13.2Y-9.15
X13.2Y-9.25
X7.8Y-6.2
X7.8Y-6.5
X7.9Y-6.2
X7.9Y-6.5
X8.0Y-6.2
X8.1Y-6.2
X8.1Y-6.5
X8.2Y-6.2
X8.2Y-6.5
X8.3Y-6.2
X8.3Y-6.5
X8.4Y-6.2
X8.4Y-6.5
X8.5Y-6.2
X8.5Y-6.5
X8.6Y-6.2
X8.6Y-6.5
X8.7Y-6.2
X8.7Y-6.5
X9.2Y-6.2
X9.2Y-6.5
X9.3Y-6.2
X9.3Y-6.5
X9.4Y-6.2
X9.4Y-6.5
X9.5Y-6.2
X9.5Y-6.5
X9.6Y-6.2
X9.6Y-6.5
X9.7Y-6.2
X9.7Y-6.5
X9.8Y-6.2
X9.8Y-6.5
X9.9Y-6.2
X9.9Y-6.5
X10.0Y-6.2
X10.0Y-6.5
X10.1Y-6.2
X10.1Y-6.5
X9.2Y-4.5
X9.2Y-4.8
X9.3Y-4.5
X9.3Y-4.8
X9.4Y-4.8
X9.5Y-4.5
X9.5Y-4.8
X9.6Y-4.5
X9.6Y-4.8
X9.7Y-4.5
X9.7Y-4.8
X9.8Y-4.5
X9.8Y-4.8
X9.9Y-4.8
X10.0Y-4.5
X10.0Y-4.8
X10.1Y-4.5
X10.1Y-4.8
X11.15Y-10.7
X11.45Y-10.7
X10.9Y-8.65
X10.9Y-8.75
X10.9Y-8.85
X10.9Y-8.95
X10.9Y-9.05
X10.9Y-9.15
X10.9Y-9.25
X11.2Y-8.65
X11.2Y-8.75
X11.2Y-8.85
X11.2Y-8.95
X11.2Y-9.05
X11.2Y-9.15
X11.2Y-9.25
X7.4Y-5.0
X7.4Y-5.3
X7.5Y-5.0
X7.5Y-5.3
X7.6Y-5.0
X9.7Y-8.5
X9.1Y-8.2
X9.1Y-8.5
X9.2Y-8.2
X9.2Y-8.5
X9.3Y-8.2
X9.3Y-8.5
X9.4Y-8.2
X9.4Y-8.5
X9.5Y-8.2
X9.5Y-8.5
X9.6Y-8.2
X9.6Y-8.5
X9.7Y-8.2
X9.2Y-5.0
X9.2Y-5.3
X9.3Y-5.0
X9.3Y-5.3
X9.4Y-5.0
X9.4Y-5.3
X9.5Y-5.0
X9.5Y-5.3
X11.9Y-5.8
X9.6Y-5.0
X9.6Y-5.3
X11.6Y-5.5
X9.7Y-5.0
X9.7Y-5.3
X9.8Y-5.0
X9.8Y-5.3
X9.9Y-5.0
X9.9Y-5.3
X10.0Y-5.0
X10.0Y-5.3
X10.1Y-5.0
X12.1Y-5.5
X7.6Y-5.3
X7.7Y-5.0
X7.7Y-5.3
X7.8Y-5.0
X7.8Y-5.3
X7.9Y-5.0
X7.9Y-5.3
X8.0Y-5.0
X8.0Y-5.3
X8.1Y-5.0
X8.1Y-5.3
X8.2Y-5.0
X8.2Y-5.3
X8.3Y-5.0
X8.3Y-5.3
X8.4Y-5.3
X8.5Y-5.0
X8.5Y-5.3
X8.6Y-5.0
X8.6Y-5.3
X8.7Y-5.0
X8.7Y-5.3
X9.4009Y-3.9982
X9.4009Y-4.2982
X9.5009Y-3.9982
X9.5009Y-4.2982
X9.6009Y-3.9982
X9.6009Y-4.2982
X9.7009Y-3.9982
X9.7009Y-4.2982
X9.8009Y-3.9982
X9.8009Y-4.2982
X9.9009Y-3.9982
X9.9009Y-4.2982
X10.0009Y-3.9982
X10.0009Y-4.2982
X10.1009Y-3.9982
X10.1009Y-4.2982
X11.2Y-5.5
X11.2Y-5.8
X11.7Y-5.8
X10.1Y-5.3
X11.6Y-5.8
X11.7Y-5.5
X13.9969Y-7.5
X11.4Y-5.8
X11.5Y-5.5
X11.5Y-5.8
X11.8Y-5.5
X11.8Y-5.8
X11.9Y-5.5
X11.6287Y-7.75
X11.3Y-5.5
X11.3Y-5.8
X11.4Y-5.5
X12.0Y-5.5
X12.0Y-5.8
X12.1Y-5.8
X8.95Y-5.0512
X8.95Y-5.248
X6.75Y-2.8531
X6.75Y-3.05
X14.1Y-9.25
X14.4Y-9.25
X13.8Y-7.5
X11.55Y-7.75
X7.8998Y-3.6002
X7.9998Y-3.3002
X7.9998Y-3.6002
X8.0998Y-3.3002
X8.0998Y-3.6002
X8.2Y-2.8
X8.2Y-3.1
X8.3Y-2.8
X8.3Y-3.1
X8.4Y-2.8
X8.4Y-3.1
X8.5Y-2.8
X8.5Y-3.1
X8.6Y-2.8
X8.6Y-3.1
X8.7Y-2.8
X8.7Y-3.1
X8.8Y-2.8
X8.8Y-3.1
X8.9Y-2.8
X8.9Y-3.1
X11.5Y-8.05
X11.6969Y-8.05
X13.4Y-7.45
X13.4Y-7.55
X13.4Y-7.65
X7.9Y-6.7
X7.9Y-7.3
X8.0Y-6.7
X8.0Y-7.3
X13.4Y-7.75
X13.7Y-7.45
X13.7Y-7.55
X13.7Y-7.65
X13.7Y-7.75
X11.75Y-9.9
X11.75Y-10.0
X11.75Y-10.1
X11.75Y-10.2
X12.05Y-9.9
X12.05Y-10.0
X12.05Y-10.1
X12.05Y-10.2
X12.15Y-10.05
X12.45Y-10.05
X5.9Y-7.3
X6.0Y-6.7
X8.1Y-6.7
X5.9Y-6.7
X8.1Y-7.3
X8.2Y-6.7
X8.2Y-7.3
X8.3Y-6.7
X8.3Y-7.3
X8.4Y-6.7
X8.4Y-7.3
X8.5Y-6.7
X8.5Y-7.3
X8.6Y-6.7
X8.6Y-7.3
X8.7Y-6.7
X8.7Y-7.3
X8.8Y-6.7
X8.8Y-7.3
X8.9Y-6.7
X8.9Y-7.3
X9.0Y-6.7
X9.0Y-7.3
X9.1Y-6.7
X9.1Y-7.3
X9.2Y-6.7
X9.2Y-7.3
X9.3Y-6.7
X9.3Y-7.3
X9.4Y-6.7
X9.4Y-7.3
X7.0Y-5.7
X7.0Y-6.0
X7.1Y-5.7
X7.1Y-6.0
X7.2Y-5.7
X7.2Y-6.0
X7.3Y-5.7
X7.3Y-6.0
X7.4Y-5.7
X7.4Y-6.0
X7.5Y-5.7
X7.5Y-6.0
X7.6Y-5.7
X7.6Y-6.0
X7.7Y-5.7
X7.7Y-6.0
X6.1Y-9.85
X6.4Y-9.85
X11.35Y-10.2
X11.65Y-10.2
X14.25Y-7.7
X14.55Y-7.7
X6.0Y-7.3
X6.1Y-6.7
X6.1Y-7.3
X6.2Y-6.7
X6.2Y-7.3
X6.3Y-6.7
X6.3Y-7.3
X6.4Y-6.7
X6.4Y-7.3
X6.5Y-6.7
X6.5Y-7.3
X6.6Y-6.7
X6.6Y-7.3
X6.7Y-6.7
X6.7Y-7.3
X6.8Y-6.7
X6.8Y-7.3
X6.9Y-6.7
X6.9Y-7.3
X7.0Y-6.7
X7.0Y-7.3
X7.1Y-6.7
X7.1Y-7.3
X7.2Y-6.7
X7.2Y-7.3
X7.3Y-6.7
X7.3Y-7.3
X7.4Y-6.7
X7.4Y-7.3
X11.45Y-7.2
X11.75Y-7.2
X5.8009Y-3.9982
X5.8009Y-4.2982
X5.9009Y-3.9982
X5.9009Y-4.2982
X6.0009Y-3.9982
X6.0009Y-4.2982
X6.1009Y-3.9982
X6.1009Y-4.2982
X6.2009Y-3.9982
X6.2009Y-4.2982
X6.3009Y-3.9982
X6.3009Y-4.2982
X6.4009Y-3.9982
X6.4009Y-4.2982
X6.5009Y-3.9982
X6.5009Y-4.2982
X11.95Y-10.7
X12.25Y-10.7
X10.35Y-2.3531
X10.35Y-2.55
X14.4Y-8.6
X14.4787Y-8.6
X10.35Y-4.5531
X10.35Y-4.75
X12.4531Y-8.4
X12.65Y-8.4
X11.6031Y-10.45
X11.8Y-10.45
X9.95Y-7.5531
X9.95Y-7.75
X5.65Y-6.9014
X5.65Y-7.0982
X6.75Y-5.7512
X6.75Y-5.948
X9.15Y-5.7512
X9.15Y-5.948
X10.35Y-1.8531
X10.35Y-2.05
X8.2Y-5.7
X8.2Y-6.0
X8.3Y-5.7
X8.3Y-6.0
X8.4Y-5.7
X8.4Y-6.0
X8.5Y-5.7
X8.5Y-6.0
X8.6Y-5.7
X8.7Y-5.7
X8.7Y-6.0
X8.8Y-5.7
X8.8Y-6.0
X8.9Y-5.7
X8.9Y-6.0
X11.15Y-10.85
X11.45Y-10.85
X11.4531Y-8.4
X11.65Y-8.4
X12.8031Y-10.45
X13.0Y-10.45
X7.15Y-7.551
X7.15Y-7.7479
X7.65Y-6.9014
X7.65Y-7.0982
X7.95Y-5.7512
X7.95Y-5.948
X10.35Y-5.7512
X10.35Y-5.948
X9.15Y-4.0531
X9.15Y-4.25
X9.95Y-10.65
X9.95Y-10.8469
X6.3531Y-4.479
X8.6Y-6.0
X6.55Y-4.479
X10.35Y-4.05
X10.35Y-4.2469
X13.4531Y-7.2
X13.65Y-7.2
X7.4Y-8.9
X7.4Y-9.2
X7.5Y-8.9
X7.5Y-9.2
X7.6Y-8.9
X7.6Y-9.2
X7.7Y-8.9
X7.7Y-9.2
X7.8Y-8.9
X7.8Y-9.2
X7.9Y-8.9
X7.9Y-9.2
X8.0Y-8.9
X8.0Y-9.2
X8.1Y-8.9
X8.1Y-9.2
X8.2Y-8.9
X8.2Y-9.2
X8.3Y-8.9
X8.3Y-9.2
X12.4Y-7.45
X12.4Y-7.55
X12.4Y-7.65
X12.4Y-7.75
X12.4Y-7.95
X12.4Y-8.05
X12.7Y-7.45
X12.7Y-7.55
X12.7Y-7.65
X12.7Y-7.75
X12.7Y-7.85
X12.7Y-7.95
X12.7Y-8.05
X12.35Y-11.0
X12.65Y-11.0
X11.9Y-8.65
X11.9Y-8.75
X13.8Y-7.75
X13.9969Y-7.75
X12.4Y-7.85
X6.0Y-7.4998
X6.0Y-7.7998
X6.1Y-7.7998
X6.2Y-7.4998
X6.2Y-7.7998
X6.3Y-7.4998
X6.3Y-7.7998
X6.4Y-7.4998
X6.4Y-7.7998
X6.5Y-7.4998
X6.5Y-7.7998
X6.6Y-7.4998
X6.6Y-7.7998
X6.7Y-7.4998
X6.7Y-7.7998
X6.8Y-7.4998
X6.8Y-7.7998
X6.9Y-7.4998
X6.9Y-7.7998
X13.55Y-10.7
X13.55Y-10.8
X13.55Y-10.9
X13.55Y-11.0
X13.85Y-10.7
X13.85Y-10.8
X13.85Y-10.9
X11.9Y-8.85
X6.1Y-7.4998
X11.9Y-8.95
X11.9Y-9.05
X11.9Y-9.15
X11.9Y-9.25
X12.2Y-8.65
X12.2Y-8.75
X12.2Y-8.85
X12.2Y-8.95
X12.2Y-9.05
X12.2Y-9.15
X12.2Y-9.25
X11.15Y-11.0
X11.45Y-11.0
X11.9Y-7.45
X11.9Y-7.55
X11.9Y-7.65
X11.9Y-7.75
X11.9Y-7.85
X11.9Y-7.95
X11.9Y-8.05
X11.9Y-8.15
X12.2Y-7.45
X12.2Y-7.55
X12.2Y-7.65
X12.2Y-7.75
X12.2Y-7.85
X12.2Y-7.95
X12.2Y-8.05
X12.2Y-8.15
X7.0Y-2.8
X7.0Y-3.1
X7.1Y-2.8
X7.1Y-3.1
X7.2Y-2.8
X7.2Y-3.1
X7.3Y-2.8
X7.3Y-3.1
X7.4Y-2.8
X7.4Y-3.1
X7.5Y-2.8
X7.5Y-3.1
X7.6Y-2.8
X7.6Y-3.1
X7.7Y-2.8
X7.7Y-3.1
X13.85Y-11.0
X7.8Y-2.3
X7.8Y-2.6
X7.9Y-2.3
X7.9Y-2.6
X8.0Y-2.3
X8.0Y-2.6
X8.1Y-2.3
X8.1Y-2.6
X8.2Y-2.3
X8.2Y-2.6
X8.3Y-2.3
X8.3Y-2.6
X8.4Y-2.3
X8.4Y-2.6
X8.5Y-2.3
X8.5Y-2.6
X8.6Y-2.3
X8.6Y-2.6
X8.7Y-2.3
X8.7Y-2.6
X6.0Y-8.9
X10.55Y-1.8
X6.0Y-9.2
X6.1Y-8.9
X6.1Y-9.2
X6.2Y-8.9
X6.2Y-9.2
X6.3Y-8.9
X6.4Y-8.9
X6.4Y-9.2
X6.5Y-9.2
X6.6Y-8.9
X6.6Y-9.2
X6.7Y-8.9
X6.8Y-8.9
X6.9Y-8.9
X10.65Y-1.8
X10.75Y-1.8
X10.85Y-1.8
X10.95Y-1.8
X11.05Y-1.8
X11.15Y-1.8
X11.25Y-1.8
X11.35Y-1.8
X12.35Y-10.85
X6.7Y-9.2
X12.65Y-10.85
X9.2Y-1.8
X9.2Y-2.1
X6.9Y-9.2
X11.55Y-10.7
X11.55Y-10.8
X11.55Y-10.9
X11.55Y-11.0
X11.85Y-10.7
X11.85Y-10.8
X11.85Y-10.9
X11.85Y-11.0
X13.95Y-11.0
X14.25Y-11.0
X11.35Y-9.9
X9.3Y-1.8
X6.3Y-9.2
X9.3Y-2.1
X6.8Y-9.2
X9.4Y-1.8
X9.4Y-2.1
X9.5Y-1.8
X9.5Y-2.1
X9.6Y-1.8
X9.6Y-2.1
X9.7Y-1.8
X9.7Y-2.1
X9.8Y-1.8
X9.8Y-2.1
X9.9Y-1.8
X9.9Y-2.1
X10.0Y-1.8
X10.0Y-2.1
X10.1Y-1.8
X10.1Y-2.1
X8.95Y-1.85
X8.95Y-2.0469
X6.5Y-8.9
X13.95Y-10.7
X14.25Y-10.7
X11.65Y-9.9
X13.6031Y-10.45
X13.8Y-10.45
X8.95Y-4.5512
X8.95Y-4.748
X8.35Y-3.35
X8.35Y-3.5469
X8.95Y-2.35
X8.95Y-2.5469
X6.6531Y-9.45
X6.85Y-9.45
X8.55Y-8.9531
X8.55Y-9.15
X9.95Y-9.0531
X12.9531Y-8.4
X13.15Y-8.4
X8.95Y-6.2531
X8.95Y-6.45
X10.35Y-6.2531
X10.35Y-6.45
X10.35Y-5.0546
X10.35Y-5.2515
X6.8483Y-4.477
X7.0451Y-4.477
X6.95Y-3.35
X6.95Y-3.5469
X6.8Y-4.7
X6.8Y-4.8
X6.8Y-4.9
X6.8Y-5.0
X6.8Y-5.2
X6.8Y-5.3
X7.1Y-4.7
X7.1Y-4.8
X7.1Y-4.9
X7.1Y-5.0
X7.1Y-5.1
X7.1Y-5.2
X9.95Y-9.25
X6.8Y-5.1
X7.1Y-5.3
X7.3031Y-9.45
X7.5Y-9.45
X8.1031Y-9.45
X8.3Y-9.45
X13.5Y-8.7
X13.5Y-9.0
X14.1Y-8.7
X14.1Y-9.0
X13.8Y-5.5
X11.35Y-10.05
X11.65Y-10.05
X13.8Y-5.8
X13.9Y-5.5
X13.9Y-5.8
X14.0Y-5.5
X14.0Y-5.8
X14.1Y-5.5
X14.1Y-5.8
X14.2Y-5.5
X14.2Y-5.8
X14.3Y-5.5
X14.3Y-5.8
X14.4Y-5.5
X14.4Y-5.8
X14.5Y-5.5
X14.5Y-5.8
X13.95Y-10.85
X14.25Y-10.85
T4
X6.09Y-9.45
X6.19Y-9.45
X11.0Y-9.7
X11.0Y-9.8969
X11.0984Y-9.7984
X13.9Y-8.3
X14.0Y-8.3
X6.35Y-9.45
X6.45Y-9.45
X14.4Y-9.0
X14.5Y-9.0
T5
X11.8Y-4.5
X11.8Y-4.6
X11.9Y-4.5
X11.9Y-4.6
X12.0Y-4.5
X5.9Y-2.6
X6.0Y-2.6
X12.0Y-4.6
X12.1Y-4.5
X6.1Y-2.6
X6.2Y-2.6
X6.3Y-2.6
X6.4Y-2.6
X6.5Y-2.6
X6.6Y-2.6
X6.7Y-2.6
X6.8Y-2.6
X6.9Y-2.6
X7.0Y-2.6
X7.1Y-2.6
X7.2Y-2.6
X7.3Y-2.6
X12.1Y-4.6
X12.2Y-4.5
X12.2Y-4.6
X12.3Y-4.5
X12.3Y-4.6
X12.4Y-4.5
X12.4Y-4.6
X12.5Y-4.5
X12.5Y-4.6
X12.6Y-4.5
X12.6Y-4.6
X12.7Y-4.5
X12.7Y-4.6
X12.8Y-4.5
X12.8Y-4.6
X12.9Y-4.5
X12.9Y-4.6
X13.0Y-4.5
X13.0Y-4.6
X13.1Y-4.5
X13.1Y-4.6
X13.2Y-4.5
X13.2Y-4.6
X13.3Y-4.5
X13.3Y-4.6
X13.4Y-4.5
X13.4Y-4.6
X13.5Y-4.5
X13.5Y-4.6
X13.6Y-4.5
X13.6Y-4.6
X13.7Y-4.5
X13.7Y-4.6
X5.9Y-5.5
X6.0Y-5.5
X6.2Y-5.5
X6.3Y-5.5
X6.4Y-5.5
X6.5Y-5.5
X6.6Y-5.5
X7.4Y-2.6
X7.5Y-2.6
X5.9Y-3.8
X7.3Y-5.5
X7.4Y-5.5
X7.5Y-5.5
X7.6Y-5.5
X7.7Y-5.5
X7.8Y-5.5
X7.9Y-5.5
X8.0Y-5.5
X11.8Y-3.9
X11.8Y-4.0
X11.9Y-3.9
X11.9Y-4.0
X12.0Y-3.9
X12.0Y-4.0
X12.1Y-3.9
X12.1Y-4.0
X12.3Y-3.9
X12.3Y-4.0
X12.4Y-3.9
X6.0Y-3.8
X6.1Y-3.8
X6.2Y-3.8
X6.3Y-3.8
X6.4Y-3.8
X6.5Y-3.8
X12.2Y-4.0
X6.6Y-3.8
X6.7Y-3.8
X8.9Y-9.65
X9.0Y-9.65
X9.1Y-9.65
X9.2Y-9.65
X9.3Y-9.65
X9.4Y-9.65
X9.5Y-9.65
X9.6Y-9.65
X9.7Y-9.65
X11.8Y-3.3
X11.8Y-3.4
X11.9Y-3.3
X11.9Y-3.4
X12.0Y-3.3
X12.0Y-3.4
X12.1Y-3.3
X12.1Y-3.4
X12.2Y-3.3
X12.2Y-3.4
X12.3Y-3.3
X12.3Y-3.4
X12.4Y-3.3
X12.4Y-3.4
X12.5Y-3.3
X12.5Y-3.4
X12.6Y-3.3
X12.6Y-3.4
X12.7Y-3.3
X12.7Y-3.4
X12.8Y-3.3
X12.8Y-3.4
X12.9Y-3.3
X12.9Y-3.4
X13.0Y-3.3
X13.0Y-3.4
X13.1Y-3.3
X13.1Y-3.4
X13.2Y-3.3
X13.2Y-3.4
X12.2Y-3.9
X13.3Y-3.3
X13.3Y-3.4
X13.4Y-3.3
X13.4Y-3.4
X13.5Y-3.3
X13.5Y-3.4
X13.6Y-3.3
X13.6Y-3.4
X13.7Y-3.3
X13.7Y-3.4
X8.9Y-8.85
X9.0Y-8.85
X9.1Y-8.85
X9.2Y-8.85
X9.3Y-8.85
X9.4Y-8.85
X9.5Y-8.85
X9.6Y-8.85
X9.7Y-8.85
X12.4Y-4.0
X6.1Y-5.5
X12.5Y-3.9
X12.5Y-4.0
X12.6Y-3.9
X12.6Y-4.0
X12.7Y-3.9
X12.7Y-4.0
X12.8Y-3.9
X12.8Y-4.0
X12.9Y-3.9
X12.9Y-4.0
X13.0Y-3.9
X13.0Y-4.0
X13.1Y-3.9
X13.1Y-4.0
X13.2Y-3.9
X13.2Y-4.0
X13.3Y-3.9
X13.3Y-4.0
X13.4Y-3.9
X13.4Y-4.0
X13.5Y-3.9
X13.5Y-4.0
X13.6Y-3.9
X13.6Y-4.0
X13.7Y-3.9
X13.7Y-4.0
X8.9Y-10.45
X9.0Y-10.45
X9.1Y-10.45
X9.2Y-10.45
X9.3Y-10.45
X9.4Y-10.45
X9.5Y-10.45
X9.7Y-10.45
X11.8Y-5.1
X11.8Y-5.2
X11.9Y-5.1
X11.9Y-5.2
X12.0Y-5.1
X12.0Y-5.2
X12.1Y-5.1
X12.1Y-5.2
X12.2Y-5.1
X12.2Y-5.2
X12.3Y-5.1
X12.3Y-5.2
X12.4Y-5.1
X12.4Y-5.2
X12.5Y-5.1
X12.5Y-5.2
X12.6Y-5.1
X12.6Y-5.2
X5.9Y-6.2
X9.6Y-10.45
X6.0Y-6.2
X6.1Y-6.2
X6.2Y-6.2
X6.3Y-6.2
X6.4Y-6.2
X6.5Y-6.2
X6.6Y-6.2
X6.7Y-6.2
X6.8Y-6.2
X6.9Y-6.2
X7.0Y-6.2
X7.1Y-6.2
X7.2Y-6.2
X7.3Y-6.2
X7.4Y-6.2
X7.5Y-6.2
X11.305Y-5.98
X11.405Y-5.98
X11.505Y-5.98
X11.605Y-5.98
X12.7Y-5.1
X12.7Y-5.2
X12.8Y-5.1
X12.8Y-5.2
X12.9Y-5.1
X12.9Y-5.2
X13.0Y-5.1
X13.0Y-5.2
X13.1Y-5.1
X13.1Y-5.2
X13.2Y-5.1
X13.2Y-5.2
X13.3Y-5.1
X13.3Y-5.2
X13.4Y-5.1
X13.4Y-5.2
X13.5Y-5.1
X13.5Y-5.2
X13.6Y-5.1
X13.6Y-5.2
X13.7Y-5.1
X13.7Y-5.2
X8.5Y-3.3
X8.6Y-3.3
X8.7Y-3.3
X8.8Y-3.3
X8.9Y-3.3
X9.0Y-3.3
X9.1Y-3.3
X9.2Y-3.3
X9.3Y-3.3
X9.4Y-3.3
X9.5Y-3.3
X9.6Y-3.3
X9.7Y-3.3
X9.8Y-3.3
X9.9Y-3.3
X10.0Y-3.3
X10.1Y-3.3
X10.25Y-10.45
X10.35Y-10.45
X10.45Y-10.45
X10.55Y-10.45
X10.65Y-10.45
X10.75Y-10.45
X10.85Y-10.45
X10.95Y-10.45
X8.9Y-8.05
X9.0Y-8.05
X9.1Y-8.05
X9.2Y-8.05
X9.3Y-8.05
X9.4Y-8.05
X9.5Y-8.05
X9.6Y-8.05
X9.7Y-8.05
X11.8Y-2.1
X11.8Y-2.2
X11.9Y-2.1
X11.9Y-2.2
X12.0Y-2.1
X12.0Y-2.2
X12.1Y-2.1
X12.1Y-2.2
X12.2Y-2.1
X12.2Y-2.2
X12.3Y-2.1
X12.3Y-2.2
X12.4Y-2.1
X12.4Y-2.2
X12.5Y-2.1
X12.5Y-2.2
X12.6Y-2.1
X12.6Y-2.2
X12.7Y-2.1
X12.7Y-2.2
X12.8Y-2.1
X12.8Y-2.2
X12.9Y-2.1
X12.9Y-2.2
X13.0Y-2.1
X13.0Y-2.2
X13.1Y-2.1
X13.1Y-2.2
X13.2Y-2.1
X13.2Y-2.2
X13.3Y-2.1
X13.3Y-2.2
X13.4Y-2.1
X13.4Y-2.2
X13.5Y-2.1
X13.5Y-2.2
X13.6Y-2.1
X13.6Y-2.2
X13.7Y-2.1
X13.7Y-2.2
X11.705Y-5.98
X11.805Y-5.98
X11.905Y-5.98
X12.005Y-5.98
X10.15Y-10.45
X12.105Y-5.98
X6.7Y-8.0
X6.8Y-8.0
X6.9Y-8.0
X7.0Y-8.0
X7.1Y-8.0
X7.2Y-8.0
X7.3Y-8.0
X7.4Y-8.0
X7.5Y-8.0
X7.6Y-8.0
X7.7Y-8.0
X7.8Y-8.0
X7.9Y-8.0
X8.0Y-8.0
X8.1Y-8.0
X8.2Y-8.0
X8.3Y-8.0
X7.3Y-3.8
X7.4Y-3.8
X7.5Y-3.8
X7.6Y-3.8
X7.7Y-3.8
X7.8Y-3.8
X7.9Y-3.8
X8.0Y-3.8
X8.1Y-3.8
X11.8Y-2.7
X11.8Y-2.8
X11.9Y-2.7
X11.9Y-2.8
X12.0Y-2.7
X12.0Y-2.8
X12.1Y-2.7
X12.1Y-2.8
X12.2Y-2.7
X12.2Y-2.8
X12.3Y-2.7
X12.3Y-2.8
X12.4Y-2.7
X12.4Y-2.8
X12.5Y-2.7
X12.5Y-2.8
X12.6Y-2.7
X12.6Y-2.8
X12.7Y-2.7
X12.7Y-2.8
X12.8Y-2.7
X12.8Y-2.8
X12.9Y-2.7
X12.9Y-2.8
X13.0Y-2.7
X13.0Y-2.8
X13.1Y-2.7
X13.1Y-2.8
X13.2Y-2.7
X13.2Y-2.8
X13.3Y-2.7
X13.3Y-2.8
X13.4Y-2.7
X13.4Y-2.8
X13.5Y-2.7
X13.5Y-2.8
X13.6Y-2.7
X13.6Y-2.8
X13.7Y-2.7
X13.7Y-2.8
X13.4Y-10.3
X13.5Y-10.3
X13.6Y-10.3
X13.7Y-10.3
X13.8Y-10.3
X13.9Y-10.3
X14.0Y-10.3
X14.1Y-10.3
X14.2Y-10.3
T6
X11.0Y-7.98
X14.25Y-7.25
X14.25Y-7.4272
X14.5059Y-7.25
X14.5059Y-7.4272
X11.0Y-8.1572
X11.2559Y-7.98
X11.2559Y-8.1572
T7
X14.52Y-8.0
X14.52Y-8.1969
T0
M30
