G04 #@! TF.GenerationSoftware,KiCad,Pcbnew,(5.1.0-0)*
G04 #@! TF.CreationDate,2019-10-08T22:08:13-07:00*
G04 #@! TF.ProjectId,MainBoard,4d61696e-426f-4617-9264-2e6b69636164,rev?*
G04 #@! TF.SameCoordinates,Original*
G04 #@! TF.FileFunction,Copper,L1,Top*
G04 #@! TF.FilePolarity,Positive*
%FSLAX46Y46*%
G04 Gerber Fmt 4.6, Leading zero omitted, Abs format (unit mm)*
G04 Created by KiCad (PCBNEW (5.1.0-0)) date 2019-10-08 22:08:13*
%MOMM*%
%LPD*%
G04 APERTURE LIST*
%ADD10C,2.500000*%
%ADD11R,2.500000X2.500000*%
%ADD12O,1.600000X1.600000*%
%ADD13R,1.600000X1.600000*%
%ADD14C,1.600000*%
%ADD15O,1.700000X1.700000*%
%ADD16R,1.700000X1.700000*%
%ADD17R,1.300000X1.300000*%
%ADD18C,1.300000*%
%ADD19C,2.000000*%
%ADD20C,1.620000*%
%ADD21C,1.800000*%
%ADD22R,1.800000X1.800000*%
%ADD23C,0.450000*%
%ADD24C,0.127000*%
G04 APERTURE END LIST*
D10*
X368808000Y-208200000D03*
D11*
X368808000Y-203200000D03*
D12*
X180340000Y-119380000D03*
X172720000Y-134620000D03*
X180340000Y-121920000D03*
X172720000Y-132080000D03*
X180340000Y-124460000D03*
X172720000Y-129540000D03*
X180340000Y-127000000D03*
X172720000Y-127000000D03*
X180340000Y-129540000D03*
X172720000Y-124460000D03*
X180340000Y-132080000D03*
X172720000Y-121920000D03*
X180340000Y-134620000D03*
D13*
X172720000Y-119380000D03*
D12*
X167640000Y-119380000D03*
X160020000Y-134620000D03*
X167640000Y-121920000D03*
X160020000Y-132080000D03*
X167640000Y-124460000D03*
X160020000Y-129540000D03*
X167640000Y-127000000D03*
X160020000Y-127000000D03*
X167640000Y-129540000D03*
X160020000Y-124460000D03*
X167640000Y-132080000D03*
X160020000Y-121920000D03*
X167640000Y-134620000D03*
D13*
X160020000Y-119380000D03*
D12*
X350520000Y-139700000D03*
X368300000Y-147320000D03*
X353060000Y-139700000D03*
X365760000Y-147320000D03*
X355600000Y-139700000D03*
X363220000Y-147320000D03*
X358140000Y-139700000D03*
X360680000Y-147320000D03*
X360680000Y-139700000D03*
X358140000Y-147320000D03*
X363220000Y-139700000D03*
X355600000Y-147320000D03*
X365760000Y-139700000D03*
X353060000Y-147320000D03*
X368300000Y-139700000D03*
D13*
X350520000Y-147320000D03*
D14*
X262890000Y-115650000D03*
X262890000Y-120650000D03*
X344170000Y-145970000D03*
X344170000Y-140970000D03*
D15*
X299720000Y-83820000D03*
X299720000Y-86360000D03*
X302260000Y-83820000D03*
X302260000Y-86360000D03*
X304800000Y-83820000D03*
X304800000Y-86360000D03*
X307340000Y-83820000D03*
X307340000Y-86360000D03*
X309880000Y-83820000D03*
X309880000Y-86360000D03*
X312420000Y-83820000D03*
X312420000Y-86360000D03*
X314960000Y-83820000D03*
X314960000Y-86360000D03*
X317500000Y-83820000D03*
X317500000Y-86360000D03*
X320040000Y-83820000D03*
X320040000Y-86360000D03*
X322580000Y-83820000D03*
X322580000Y-86360000D03*
X325120000Y-83820000D03*
X325120000Y-86360000D03*
X327660000Y-83820000D03*
X327660000Y-86360000D03*
X330200000Y-83820000D03*
X330200000Y-86360000D03*
X332740000Y-83820000D03*
X332740000Y-86360000D03*
X335280000Y-83820000D03*
X335280000Y-86360000D03*
X337820000Y-83820000D03*
X337820000Y-86360000D03*
X340360000Y-83820000D03*
X340360000Y-86360000D03*
X342900000Y-83820000D03*
X342900000Y-86360000D03*
X345440000Y-83820000D03*
X345440000Y-86360000D03*
X347980000Y-83820000D03*
D16*
X347980000Y-86360000D03*
D15*
X299720000Y-114300000D03*
X299720000Y-116840000D03*
X302260000Y-114300000D03*
X302260000Y-116840000D03*
X304800000Y-114300000D03*
X304800000Y-116840000D03*
X307340000Y-114300000D03*
X307340000Y-116840000D03*
X309880000Y-114300000D03*
X309880000Y-116840000D03*
X312420000Y-114300000D03*
X312420000Y-116840000D03*
X314960000Y-114300000D03*
X314960000Y-116840000D03*
X317500000Y-114300000D03*
X317500000Y-116840000D03*
X320040000Y-114300000D03*
X320040000Y-116840000D03*
X322580000Y-114300000D03*
X322580000Y-116840000D03*
X325120000Y-114300000D03*
X325120000Y-116840000D03*
X327660000Y-114300000D03*
X327660000Y-116840000D03*
X330200000Y-114300000D03*
X330200000Y-116840000D03*
X332740000Y-114300000D03*
X332740000Y-116840000D03*
X335280000Y-114300000D03*
X335280000Y-116840000D03*
X337820000Y-114300000D03*
X337820000Y-116840000D03*
X340360000Y-114300000D03*
X340360000Y-116840000D03*
X342900000Y-114300000D03*
X342900000Y-116840000D03*
X345440000Y-114300000D03*
X345440000Y-116840000D03*
X347980000Y-114300000D03*
D16*
X347980000Y-116840000D03*
D15*
X299720000Y-53340000D03*
X299720000Y-55880000D03*
X302260000Y-53340000D03*
X302260000Y-55880000D03*
X304800000Y-53340000D03*
X304800000Y-55880000D03*
X307340000Y-53340000D03*
X307340000Y-55880000D03*
X309880000Y-53340000D03*
X309880000Y-55880000D03*
X312420000Y-53340000D03*
X312420000Y-55880000D03*
X314960000Y-53340000D03*
X314960000Y-55880000D03*
X317500000Y-53340000D03*
X317500000Y-55880000D03*
X320040000Y-53340000D03*
X320040000Y-55880000D03*
X322580000Y-53340000D03*
X322580000Y-55880000D03*
X325120000Y-53340000D03*
X325120000Y-55880000D03*
X327660000Y-53340000D03*
X327660000Y-55880000D03*
X330200000Y-53340000D03*
X330200000Y-55880000D03*
X332740000Y-53340000D03*
X332740000Y-55880000D03*
X335280000Y-53340000D03*
X335280000Y-55880000D03*
X337820000Y-53340000D03*
X337820000Y-55880000D03*
X340360000Y-53340000D03*
X340360000Y-55880000D03*
X342900000Y-53340000D03*
X342900000Y-55880000D03*
X345440000Y-53340000D03*
X345440000Y-55880000D03*
X347980000Y-53340000D03*
D16*
X347980000Y-55880000D03*
D15*
X299720000Y-129540000D03*
X299720000Y-132080000D03*
X302260000Y-129540000D03*
X302260000Y-132080000D03*
X304800000Y-129540000D03*
X304800000Y-132080000D03*
X307340000Y-129540000D03*
X307340000Y-132080000D03*
X309880000Y-129540000D03*
X309880000Y-132080000D03*
X312420000Y-129540000D03*
X312420000Y-132080000D03*
X314960000Y-129540000D03*
X314960000Y-132080000D03*
X317500000Y-129540000D03*
X317500000Y-132080000D03*
X320040000Y-129540000D03*
X320040000Y-132080000D03*
X322580000Y-129540000D03*
X322580000Y-132080000D03*
X325120000Y-129540000D03*
X325120000Y-132080000D03*
X327660000Y-129540000D03*
X327660000Y-132080000D03*
X330200000Y-129540000D03*
X330200000Y-132080000D03*
X332740000Y-129540000D03*
X332740000Y-132080000D03*
X335280000Y-129540000D03*
X335280000Y-132080000D03*
X337820000Y-129540000D03*
X337820000Y-132080000D03*
X340360000Y-129540000D03*
X340360000Y-132080000D03*
X342900000Y-129540000D03*
X342900000Y-132080000D03*
X345440000Y-129540000D03*
X345440000Y-132080000D03*
X347980000Y-129540000D03*
D16*
X347980000Y-132080000D03*
D15*
X299720000Y-99060000D03*
X299720000Y-101600000D03*
X302260000Y-99060000D03*
X302260000Y-101600000D03*
X304800000Y-99060000D03*
X304800000Y-101600000D03*
X307340000Y-99060000D03*
X307340000Y-101600000D03*
X309880000Y-99060000D03*
X309880000Y-101600000D03*
X312420000Y-99060000D03*
X312420000Y-101600000D03*
X314960000Y-99060000D03*
X314960000Y-101600000D03*
X317500000Y-99060000D03*
X317500000Y-101600000D03*
X320040000Y-99060000D03*
X320040000Y-101600000D03*
X322580000Y-99060000D03*
X322580000Y-101600000D03*
X325120000Y-99060000D03*
X325120000Y-101600000D03*
X327660000Y-99060000D03*
X327660000Y-101600000D03*
X330200000Y-99060000D03*
X330200000Y-101600000D03*
X332740000Y-99060000D03*
X332740000Y-101600000D03*
X335280000Y-99060000D03*
X335280000Y-101600000D03*
X337820000Y-99060000D03*
X337820000Y-101600000D03*
X340360000Y-99060000D03*
X340360000Y-101600000D03*
X342900000Y-99060000D03*
X342900000Y-101600000D03*
X345440000Y-99060000D03*
X345440000Y-101600000D03*
X347980000Y-99060000D03*
D16*
X347980000Y-101600000D03*
D15*
X299720000Y-68580000D03*
X299720000Y-71120000D03*
X302260000Y-68580000D03*
X302260000Y-71120000D03*
X304800000Y-68580000D03*
X304800000Y-71120000D03*
X307340000Y-68580000D03*
X307340000Y-71120000D03*
X309880000Y-68580000D03*
X309880000Y-71120000D03*
X312420000Y-68580000D03*
X312420000Y-71120000D03*
X314960000Y-68580000D03*
X314960000Y-71120000D03*
X317500000Y-68580000D03*
X317500000Y-71120000D03*
X320040000Y-68580000D03*
X320040000Y-71120000D03*
X322580000Y-68580000D03*
X322580000Y-71120000D03*
X325120000Y-68580000D03*
X325120000Y-71120000D03*
X327660000Y-68580000D03*
X327660000Y-71120000D03*
X330200000Y-68580000D03*
X330200000Y-71120000D03*
X332740000Y-68580000D03*
X332740000Y-71120000D03*
X335280000Y-68580000D03*
X335280000Y-71120000D03*
X337820000Y-68580000D03*
X337820000Y-71120000D03*
X340360000Y-68580000D03*
X340360000Y-71120000D03*
X342900000Y-68580000D03*
X342900000Y-71120000D03*
X345440000Y-68580000D03*
X345440000Y-71120000D03*
X347980000Y-68580000D03*
D16*
X347980000Y-71120000D03*
D12*
X175260000Y-198115800D03*
X152400000Y-190495800D03*
X172720000Y-198115800D03*
X154940000Y-190495800D03*
X170180000Y-198115800D03*
X157480000Y-190495800D03*
X167640000Y-198115800D03*
X160020000Y-190495800D03*
X165100000Y-198115800D03*
X162560000Y-190495800D03*
X162560000Y-198115800D03*
X165100000Y-190495800D03*
X160020000Y-198115800D03*
X167640000Y-190495800D03*
X157480000Y-198115800D03*
X170180000Y-190495800D03*
X154940000Y-198115800D03*
X172720000Y-190495800D03*
X152400000Y-198115800D03*
D13*
X175260000Y-190495800D03*
D14*
X341710000Y-182880000D03*
X346710000Y-182880000D03*
X358140000Y-228600000D03*
X358140000Y-220980000D03*
X342900000Y-220980000D03*
D13*
X342900000Y-228600000D03*
D12*
X355600000Y-204470000D03*
D14*
X347980000Y-204470000D03*
D12*
X350520000Y-184150000D03*
D14*
X358140000Y-184150000D03*
D12*
X369570000Y-195580000D03*
D14*
X361950000Y-195580000D03*
X355520000Y-190500000D03*
X350520000Y-190500000D03*
X355520000Y-196850000D03*
X350520000Y-196850000D03*
D12*
X290830000Y-189230000D03*
D14*
X298450000Y-189230000D03*
D12*
X298450000Y-182880000D03*
D14*
X290830000Y-182880000D03*
X297100000Y-204470000D03*
X292100000Y-204470000D03*
X295370000Y-196850000D03*
D13*
X293370000Y-196850000D03*
D12*
X256540000Y-53340000D03*
X233680000Y-45720000D03*
X254000000Y-53340000D03*
X236220000Y-45720000D03*
X251460000Y-53340000D03*
X238760000Y-45720000D03*
X248920000Y-53340000D03*
X241300000Y-45720000D03*
X246380000Y-53340000D03*
X243840000Y-45720000D03*
X243840000Y-53340000D03*
X246380000Y-45720000D03*
X241300000Y-53340000D03*
X248920000Y-45720000D03*
X238760000Y-53340000D03*
X251460000Y-45720000D03*
X236220000Y-53340000D03*
X254000000Y-45720000D03*
X233680000Y-53340000D03*
D13*
X256540000Y-45720000D03*
D12*
X149860000Y-170180000D03*
X187960000Y-185420000D03*
X152400000Y-170180000D03*
X185420000Y-185420000D03*
X154940000Y-170180000D03*
X182880000Y-185420000D03*
X157480000Y-170180000D03*
X180340000Y-185420000D03*
X160020000Y-170180000D03*
X177800000Y-185420000D03*
X162560000Y-170180000D03*
X175260000Y-185420000D03*
X165100000Y-170180000D03*
X172720000Y-185420000D03*
X167640000Y-170180000D03*
X170180000Y-185420000D03*
X170180000Y-170180000D03*
X167640000Y-185420000D03*
X172720000Y-170180000D03*
X165100000Y-185420000D03*
X175260000Y-170180000D03*
X162560000Y-185420000D03*
X177800000Y-170180000D03*
X160020000Y-185420000D03*
X180340000Y-170180000D03*
X157480000Y-185420000D03*
X182880000Y-170180000D03*
X154940000Y-185420000D03*
X185420000Y-170180000D03*
X152400000Y-185420000D03*
X187960000Y-170180000D03*
D13*
X149860000Y-185420000D03*
D12*
X220980000Y-53340000D03*
X198120000Y-45720000D03*
X218440000Y-53340000D03*
X200660000Y-45720000D03*
X215900000Y-53340000D03*
X203200000Y-45720000D03*
X213360000Y-53340000D03*
X205740000Y-45720000D03*
X210820000Y-53340000D03*
X208280000Y-45720000D03*
X208280000Y-53340000D03*
X210820000Y-45720000D03*
X205740000Y-53340000D03*
X213360000Y-45720000D03*
X203200000Y-53340000D03*
X215900000Y-45720000D03*
X200660000Y-53340000D03*
X218440000Y-45720000D03*
X198120000Y-53340000D03*
D13*
X220980000Y-45720000D03*
D15*
X149860000Y-139700000D03*
X152400000Y-139700000D03*
X154940000Y-139700000D03*
X157480000Y-139700000D03*
X160020000Y-139700000D03*
X162560000Y-139700000D03*
X165100000Y-139700000D03*
D16*
X167640000Y-139700000D03*
D15*
X185420000Y-139700000D03*
X187960000Y-139700000D03*
X190500000Y-139700000D03*
X193040000Y-139700000D03*
X195580000Y-139700000D03*
X198120000Y-139700000D03*
X200660000Y-139700000D03*
D16*
X203200000Y-139700000D03*
D15*
X149860000Y-96520000D03*
X152400000Y-96520000D03*
X154940000Y-96520000D03*
X157480000Y-96520000D03*
X160020000Y-96520000D03*
X162560000Y-96520000D03*
X165100000Y-96520000D03*
X167640000Y-96520000D03*
D16*
X170180000Y-96520000D03*
D15*
X185420000Y-96520000D03*
X187960000Y-96520000D03*
X190500000Y-96520000D03*
X193040000Y-96520000D03*
X195580000Y-96520000D03*
X198120000Y-96520000D03*
X200660000Y-96520000D03*
X203200000Y-96520000D03*
D16*
X205740000Y-96520000D03*
D12*
X175260000Y-246380000D03*
X167640000Y-269240000D03*
X175260000Y-248920000D03*
X167640000Y-266700000D03*
X175260000Y-251460000D03*
X167640000Y-264160000D03*
X175260000Y-254000000D03*
X167640000Y-261620000D03*
X175260000Y-256540000D03*
X167640000Y-259080000D03*
X175260000Y-259080000D03*
X167640000Y-256540000D03*
X175260000Y-261620000D03*
X167640000Y-254000000D03*
X175260000Y-264160000D03*
X167640000Y-251460000D03*
X175260000Y-266700000D03*
X167640000Y-248920000D03*
X175260000Y-269240000D03*
D13*
X167640000Y-246380000D03*
D12*
X246380000Y-276860000D03*
X223520000Y-269240000D03*
X243840000Y-276860000D03*
X226060000Y-269240000D03*
X241300000Y-276860000D03*
X228600000Y-269240000D03*
X238760000Y-276860000D03*
X231140000Y-269240000D03*
X236220000Y-276860000D03*
X233680000Y-269240000D03*
X233680000Y-276860000D03*
X236220000Y-269240000D03*
X231140000Y-276860000D03*
X238760000Y-269240000D03*
X228600000Y-276860000D03*
X241300000Y-269240000D03*
X226060000Y-276860000D03*
X243840000Y-269240000D03*
X223520000Y-276860000D03*
D13*
X246380000Y-269240000D03*
D12*
X195580000Y-246380000D03*
X180340000Y-274320000D03*
X195580000Y-248920000D03*
X180340000Y-271780000D03*
X195580000Y-251460000D03*
X180340000Y-269240000D03*
X195580000Y-254000000D03*
X180340000Y-266700000D03*
X195580000Y-256540000D03*
X180340000Y-264160000D03*
X195580000Y-259080000D03*
X180340000Y-261620000D03*
X195580000Y-261620000D03*
X180340000Y-259080000D03*
X195580000Y-264160000D03*
X180340000Y-256540000D03*
X195580000Y-266700000D03*
X180340000Y-254000000D03*
X195580000Y-269240000D03*
X180340000Y-251460000D03*
X195580000Y-271780000D03*
X180340000Y-248920000D03*
X195580000Y-274320000D03*
D13*
X180340000Y-246380000D03*
D12*
X215900000Y-246380000D03*
X200660000Y-274320000D03*
X215900000Y-248920000D03*
X200660000Y-271780000D03*
X215900000Y-251460000D03*
X200660000Y-269240000D03*
X215900000Y-254000000D03*
X200660000Y-266700000D03*
X215900000Y-256540000D03*
X200660000Y-264160000D03*
X215900000Y-259080000D03*
X200660000Y-261620000D03*
X215900000Y-261620000D03*
X200660000Y-259080000D03*
X215900000Y-264160000D03*
X200660000Y-256540000D03*
X215900000Y-266700000D03*
X200660000Y-254000000D03*
X215900000Y-269240000D03*
X200660000Y-251460000D03*
X215900000Y-271780000D03*
X200660000Y-248920000D03*
X215900000Y-274320000D03*
D13*
X200660000Y-246380000D03*
D12*
X246380000Y-256540000D03*
X223520000Y-248920000D03*
X243840000Y-256540000D03*
X226060000Y-248920000D03*
X241300000Y-256540000D03*
X228600000Y-248920000D03*
X238760000Y-256540000D03*
X231140000Y-248920000D03*
X236220000Y-256540000D03*
X233680000Y-248920000D03*
X233680000Y-256540000D03*
X236220000Y-248920000D03*
X231140000Y-256540000D03*
X238760000Y-248920000D03*
X228600000Y-256540000D03*
X241300000Y-248920000D03*
X226060000Y-256540000D03*
X243840000Y-248920000D03*
X223520000Y-256540000D03*
D13*
X246380000Y-248920000D03*
D12*
X210820000Y-233680000D03*
X187960000Y-226060000D03*
X208280000Y-233680000D03*
X190500000Y-226060000D03*
X205740000Y-233680000D03*
X193040000Y-226060000D03*
X203200000Y-233680000D03*
X195580000Y-226060000D03*
X200660000Y-233680000D03*
X198120000Y-226060000D03*
X198120000Y-233680000D03*
X200660000Y-226060000D03*
X195580000Y-233680000D03*
X203200000Y-226060000D03*
X193040000Y-233680000D03*
X205740000Y-226060000D03*
X190500000Y-233680000D03*
X208280000Y-226060000D03*
X187960000Y-233680000D03*
D13*
X210820000Y-226060000D03*
D12*
X246380000Y-236220000D03*
X223520000Y-228600000D03*
X243840000Y-236220000D03*
X226060000Y-228600000D03*
X241300000Y-236220000D03*
X228600000Y-228600000D03*
X238760000Y-236220000D03*
X231140000Y-228600000D03*
X236220000Y-236220000D03*
X233680000Y-228600000D03*
X233680000Y-236220000D03*
X236220000Y-228600000D03*
X231140000Y-236220000D03*
X238760000Y-228600000D03*
X228600000Y-236220000D03*
X241300000Y-228600000D03*
X226060000Y-236220000D03*
X243840000Y-228600000D03*
X223520000Y-236220000D03*
D13*
X246380000Y-228600000D03*
D12*
X175260000Y-233680000D03*
X152400000Y-226060000D03*
X172720000Y-233680000D03*
X154940000Y-226060000D03*
X170180000Y-233680000D03*
X157480000Y-226060000D03*
X167640000Y-233680000D03*
X160020000Y-226060000D03*
X165100000Y-233680000D03*
X162560000Y-226060000D03*
X162560000Y-233680000D03*
X165100000Y-226060000D03*
X160020000Y-233680000D03*
X167640000Y-226060000D03*
X157480000Y-233680000D03*
X170180000Y-226060000D03*
X154940000Y-233680000D03*
X172720000Y-226060000D03*
X152400000Y-233680000D03*
D13*
X175260000Y-226060000D03*
D12*
X309880000Y-189230000D03*
X302260000Y-207010000D03*
X309880000Y-191770000D03*
X302260000Y-204470000D03*
X309880000Y-194310000D03*
X302260000Y-201930000D03*
X309880000Y-196850000D03*
X302260000Y-199390000D03*
X309880000Y-199390000D03*
X302260000Y-196850000D03*
X309880000Y-201930000D03*
X302260000Y-194310000D03*
X309880000Y-204470000D03*
X302260000Y-191770000D03*
X309880000Y-207010000D03*
D13*
X302260000Y-189230000D03*
D12*
X322580000Y-189230000D03*
X314960000Y-204470000D03*
X322580000Y-191770000D03*
X314960000Y-201930000D03*
X322580000Y-194310000D03*
X314960000Y-199390000D03*
X322580000Y-196850000D03*
X314960000Y-196850000D03*
X322580000Y-199390000D03*
X314960000Y-194310000D03*
X322580000Y-201930000D03*
X314960000Y-191770000D03*
X322580000Y-204470000D03*
D13*
X314960000Y-189230000D03*
D12*
X335280000Y-189230000D03*
X327660000Y-204470000D03*
X335280000Y-191770000D03*
X327660000Y-201930000D03*
X335280000Y-194310000D03*
X327660000Y-199390000D03*
X335280000Y-196850000D03*
X327660000Y-196850000D03*
X335280000Y-199390000D03*
X327660000Y-194310000D03*
X335280000Y-201930000D03*
X327660000Y-191770000D03*
X335280000Y-204470000D03*
D13*
X327660000Y-189230000D03*
D17*
X341630000Y-204470000D03*
D18*
X344170000Y-204470000D03*
X342900000Y-203200000D03*
D12*
X347980000Y-189230000D03*
X340360000Y-196850000D03*
X347980000Y-191770000D03*
X340360000Y-194310000D03*
X347980000Y-194310000D03*
X340360000Y-191770000D03*
X347980000Y-196850000D03*
D13*
X340360000Y-189230000D03*
D12*
X309880000Y-219710000D03*
X302260000Y-234950000D03*
X309880000Y-222250000D03*
X302260000Y-232410000D03*
X309880000Y-224790000D03*
X302260000Y-229870000D03*
X309880000Y-227330000D03*
X302260000Y-227330000D03*
X309880000Y-229870000D03*
X302260000Y-224790000D03*
X309880000Y-232410000D03*
X302260000Y-222250000D03*
X309880000Y-234950000D03*
D13*
X302260000Y-219710000D03*
D12*
X322580000Y-219710000D03*
X314960000Y-234950000D03*
X322580000Y-222250000D03*
X314960000Y-232410000D03*
X322580000Y-224790000D03*
X314960000Y-229870000D03*
X322580000Y-227330000D03*
X314960000Y-227330000D03*
X322580000Y-229870000D03*
X314960000Y-224790000D03*
X322580000Y-232410000D03*
X314960000Y-222250000D03*
X322580000Y-234950000D03*
D13*
X314960000Y-219710000D03*
D12*
X297180000Y-219710000D03*
X289560000Y-237490000D03*
X297180000Y-222250000D03*
X289560000Y-234950000D03*
X297180000Y-224790000D03*
X289560000Y-232410000D03*
X297180000Y-227330000D03*
X289560000Y-229870000D03*
X297180000Y-229870000D03*
X289560000Y-227330000D03*
X297180000Y-232410000D03*
X289560000Y-224790000D03*
X297180000Y-234950000D03*
X289560000Y-222250000D03*
X297180000Y-237490000D03*
D13*
X289560000Y-219710000D03*
D12*
X335280000Y-219710000D03*
X327660000Y-234950000D03*
X335280000Y-222250000D03*
X327660000Y-232410000D03*
X335280000Y-224790000D03*
X327660000Y-229870000D03*
X335280000Y-227330000D03*
X327660000Y-227330000D03*
X335280000Y-229870000D03*
X327660000Y-224790000D03*
X335280000Y-232410000D03*
X327660000Y-222250000D03*
X335280000Y-234950000D03*
D13*
X327660000Y-219710000D03*
D12*
X287020000Y-189230000D03*
X279400000Y-196850000D03*
X287020000Y-191770000D03*
X279400000Y-194310000D03*
X287020000Y-194310000D03*
X279400000Y-191770000D03*
X287020000Y-196850000D03*
D13*
X279400000Y-189230000D03*
D12*
X284480000Y-219710000D03*
X276860000Y-234950000D03*
X284480000Y-222250000D03*
X276860000Y-232410000D03*
X284480000Y-224790000D03*
X276860000Y-229870000D03*
X284480000Y-227330000D03*
X276860000Y-227330000D03*
X284480000Y-229870000D03*
X276860000Y-224790000D03*
X284480000Y-232410000D03*
X276860000Y-222250000D03*
X284480000Y-234950000D03*
D13*
X276860000Y-219710000D03*
D12*
X351790000Y-271780000D03*
X344170000Y-279400000D03*
X351790000Y-274320000D03*
X344170000Y-276860000D03*
X351790000Y-276860000D03*
X344170000Y-274320000D03*
X351790000Y-279400000D03*
D13*
X344170000Y-271780000D03*
D12*
X331470000Y-271780000D03*
X323850000Y-279400000D03*
X331470000Y-274320000D03*
X323850000Y-276860000D03*
X331470000Y-276860000D03*
X323850000Y-274320000D03*
X331470000Y-279400000D03*
D13*
X323850000Y-271780000D03*
D12*
X360676200Y-256538200D03*
X322576200Y-241298200D03*
X358136200Y-256538200D03*
X325116200Y-241298200D03*
X355596200Y-256538200D03*
X327656200Y-241298200D03*
X353056200Y-256538200D03*
X330196200Y-241298200D03*
X350516200Y-256538200D03*
X332736200Y-241298200D03*
X347976200Y-256538200D03*
X335276200Y-241298200D03*
X345436200Y-256538200D03*
X337816200Y-241298200D03*
X342896200Y-256538200D03*
X340356200Y-241298200D03*
X340356200Y-256538200D03*
X342896200Y-241298200D03*
X337816200Y-256538200D03*
X345436200Y-241298200D03*
X335276200Y-256538200D03*
X347976200Y-241298200D03*
X332736200Y-256538200D03*
X350516200Y-241298200D03*
X330196200Y-256538200D03*
X353056200Y-241298200D03*
X327656200Y-256538200D03*
X355596200Y-241298200D03*
X325116200Y-256538200D03*
X358136200Y-241298200D03*
X322576200Y-256538200D03*
D13*
X360676200Y-241298200D03*
D12*
X300990000Y-271780000D03*
X293370000Y-279400000D03*
X300990000Y-274320000D03*
X293370000Y-276860000D03*
X300990000Y-276860000D03*
X293370000Y-274320000D03*
X300990000Y-279400000D03*
D13*
X293370000Y-271780000D03*
D12*
X306070000Y-251460000D03*
X298450000Y-259080000D03*
X306070000Y-254000000D03*
X298450000Y-256540000D03*
X306070000Y-256540000D03*
X298450000Y-254000000D03*
X306070000Y-259080000D03*
D13*
X298450000Y-251460000D03*
D12*
X246380000Y-215900000D03*
X223520000Y-208280000D03*
X243840000Y-215900000D03*
X226060000Y-208280000D03*
X241300000Y-215900000D03*
X228600000Y-208280000D03*
X238760000Y-215900000D03*
X231140000Y-208280000D03*
X236220000Y-215900000D03*
X233680000Y-208280000D03*
X233680000Y-215900000D03*
X236220000Y-208280000D03*
X231140000Y-215900000D03*
X238760000Y-208280000D03*
X228600000Y-215900000D03*
X241300000Y-208280000D03*
X226060000Y-215900000D03*
X243840000Y-208280000D03*
X223520000Y-215900000D03*
D13*
X246380000Y-208280000D03*
D12*
X246389000Y-198115800D03*
X223529000Y-190495800D03*
X243849000Y-198115800D03*
X226069000Y-190495800D03*
X241309000Y-198115800D03*
X228609000Y-190495800D03*
X238769000Y-198115800D03*
X231149000Y-190495800D03*
X236229000Y-198115800D03*
X233689000Y-190495800D03*
X233689000Y-198115800D03*
X236229000Y-190495800D03*
X231149000Y-198115800D03*
X238769000Y-190495800D03*
X228609000Y-198115800D03*
X241309000Y-190495800D03*
X226069000Y-198115800D03*
X243849000Y-190495800D03*
X223529000Y-198115800D03*
D13*
X246389000Y-190495800D03*
D12*
X210829000Y-198115800D03*
X187969000Y-190495800D03*
X208289000Y-198115800D03*
X190509000Y-190495800D03*
X205749000Y-198115800D03*
X193049000Y-190495800D03*
X203209000Y-198115800D03*
X195589000Y-190495800D03*
X200669000Y-198115800D03*
X198129000Y-190495800D03*
X198129000Y-198115800D03*
X200669000Y-190495800D03*
X195589000Y-198115800D03*
X203209000Y-190495800D03*
X193049000Y-198115800D03*
X205749000Y-190495800D03*
X190509000Y-198115800D03*
X208289000Y-190495800D03*
X187969000Y-198115800D03*
D13*
X210829000Y-190495800D03*
D12*
X200660000Y-170180000D03*
X238760000Y-185420000D03*
X203200000Y-170180000D03*
X236220000Y-185420000D03*
X205740000Y-170180000D03*
X233680000Y-185420000D03*
X208280000Y-170180000D03*
X231140000Y-185420000D03*
X210820000Y-170180000D03*
X228600000Y-185420000D03*
X213360000Y-170180000D03*
X226060000Y-185420000D03*
X215900000Y-170180000D03*
X223520000Y-185420000D03*
X218440000Y-170180000D03*
X220980000Y-185420000D03*
X220980000Y-170180000D03*
X218440000Y-185420000D03*
X223520000Y-170180000D03*
X215900000Y-185420000D03*
X226060000Y-170180000D03*
X213360000Y-185420000D03*
X228600000Y-170180000D03*
X210820000Y-185420000D03*
X231140000Y-170180000D03*
X208280000Y-185420000D03*
X233680000Y-170180000D03*
X205740000Y-185420000D03*
X236220000Y-170180000D03*
X203200000Y-185420000D03*
X238760000Y-170180000D03*
D13*
X200660000Y-185420000D03*
D12*
X220980000Y-165100000D03*
X198120000Y-157480000D03*
X218440000Y-165100000D03*
X200660000Y-157480000D03*
X215900000Y-165100000D03*
X203200000Y-157480000D03*
X213360000Y-165100000D03*
X205740000Y-157480000D03*
X210820000Y-165100000D03*
X208280000Y-157480000D03*
X208280000Y-165100000D03*
X210820000Y-157480000D03*
X205740000Y-165100000D03*
X213360000Y-157480000D03*
X203200000Y-165100000D03*
X215900000Y-157480000D03*
X200660000Y-165100000D03*
X218440000Y-157480000D03*
X198120000Y-165100000D03*
D13*
X220980000Y-157480000D03*
D12*
X165100000Y-152400000D03*
X147320000Y-144780000D03*
X162560000Y-152400000D03*
X149860000Y-144780000D03*
X160020000Y-152400000D03*
X152400000Y-144780000D03*
X157480000Y-152400000D03*
X154940000Y-144780000D03*
X154940000Y-152400000D03*
X157480000Y-144780000D03*
X152400000Y-152400000D03*
X160020000Y-144780000D03*
X149860000Y-152400000D03*
X162560000Y-144780000D03*
X147320000Y-152400000D03*
D13*
X165100000Y-144780000D03*
D12*
X195580000Y-152400000D03*
X177800000Y-144780000D03*
X193040000Y-152400000D03*
X180340000Y-144780000D03*
X190500000Y-152400000D03*
X182880000Y-144780000D03*
X187960000Y-152400000D03*
X185420000Y-144780000D03*
X185420000Y-152400000D03*
X187960000Y-144780000D03*
X182880000Y-152400000D03*
X190500000Y-144780000D03*
X180340000Y-152400000D03*
X193040000Y-144780000D03*
X177800000Y-152400000D03*
D13*
X195580000Y-144780000D03*
D12*
X256540000Y-165100000D03*
X233680000Y-157480000D03*
X254000000Y-165100000D03*
X236220000Y-157480000D03*
X251460000Y-165100000D03*
X238760000Y-157480000D03*
X248920000Y-165100000D03*
X241300000Y-157480000D03*
X246380000Y-165100000D03*
X243840000Y-157480000D03*
X243840000Y-165100000D03*
X246380000Y-157480000D03*
X241300000Y-165100000D03*
X248920000Y-157480000D03*
X238760000Y-165100000D03*
X251460000Y-157480000D03*
X236220000Y-165100000D03*
X254000000Y-157480000D03*
X233680000Y-165100000D03*
D13*
X256540000Y-157480000D03*
D12*
X226060000Y-152400000D03*
X208280000Y-144780000D03*
X223520000Y-152400000D03*
X210820000Y-144780000D03*
X220980000Y-152400000D03*
X213360000Y-144780000D03*
X218440000Y-152400000D03*
X215900000Y-144780000D03*
X215900000Y-152400000D03*
X218440000Y-144780000D03*
X213360000Y-152400000D03*
X220980000Y-144780000D03*
X210820000Y-152400000D03*
X223520000Y-144780000D03*
X208280000Y-152400000D03*
D13*
X226060000Y-144780000D03*
D12*
X256540000Y-152400000D03*
X238760000Y-144780000D03*
X254000000Y-152400000D03*
X241300000Y-144780000D03*
X251460000Y-152400000D03*
X243840000Y-144780000D03*
X248920000Y-152400000D03*
X246380000Y-144780000D03*
X246380000Y-152400000D03*
X248920000Y-144780000D03*
X243840000Y-152400000D03*
X251460000Y-144780000D03*
X241300000Y-152400000D03*
X254000000Y-144780000D03*
X238760000Y-152400000D03*
D13*
X256540000Y-144780000D03*
D12*
X256540000Y-121920000D03*
X233680000Y-114300000D03*
X254000000Y-121920000D03*
X236220000Y-114300000D03*
X251460000Y-121920000D03*
X238760000Y-114300000D03*
X248920000Y-121920000D03*
X241300000Y-114300000D03*
X246380000Y-121920000D03*
X243840000Y-114300000D03*
X243840000Y-121920000D03*
X246380000Y-114300000D03*
X241300000Y-121920000D03*
X248920000Y-114300000D03*
X238760000Y-121920000D03*
X251460000Y-114300000D03*
X236220000Y-121920000D03*
X254000000Y-114300000D03*
X233680000Y-121920000D03*
D13*
X256540000Y-114300000D03*
D12*
X256540000Y-134620000D03*
X233680000Y-127000000D03*
X254000000Y-134620000D03*
X236220000Y-127000000D03*
X251460000Y-134620000D03*
X238760000Y-127000000D03*
X248920000Y-134620000D03*
X241300000Y-127000000D03*
X246380000Y-134620000D03*
X243840000Y-127000000D03*
X243840000Y-134620000D03*
X246380000Y-127000000D03*
X241300000Y-134620000D03*
X248920000Y-127000000D03*
X238760000Y-134620000D03*
X251460000Y-127000000D03*
X236220000Y-134620000D03*
X254000000Y-127000000D03*
X233680000Y-134620000D03*
D13*
X256540000Y-127000000D03*
D12*
X220675800Y-121920000D03*
X187655800Y-114300000D03*
X218135800Y-121920000D03*
X190195800Y-114300000D03*
X215595800Y-121920000D03*
X192735800Y-114300000D03*
X213055800Y-121920000D03*
X195275800Y-114300000D03*
X210515800Y-121920000D03*
X197815800Y-114300000D03*
X207975800Y-121920000D03*
X200355800Y-114300000D03*
X205435800Y-121920000D03*
X202895800Y-114300000D03*
X202895800Y-121920000D03*
X205435800Y-114300000D03*
X200355800Y-121920000D03*
X207975800Y-114300000D03*
X197815800Y-121920000D03*
X210515800Y-114300000D03*
X195275800Y-121920000D03*
X213055800Y-114300000D03*
X192735800Y-121920000D03*
X215595800Y-114300000D03*
X190195800Y-121920000D03*
X218135800Y-114300000D03*
X187655800Y-121920000D03*
D13*
X220675800Y-114300000D03*
D12*
X220980000Y-134620000D03*
X187960000Y-127000000D03*
X218440000Y-134620000D03*
X190500000Y-127000000D03*
X215900000Y-134620000D03*
X193040000Y-127000000D03*
X213360000Y-134620000D03*
X195580000Y-127000000D03*
X210820000Y-134620000D03*
X198120000Y-127000000D03*
X208280000Y-134620000D03*
X200660000Y-127000000D03*
X205740000Y-134620000D03*
X203200000Y-127000000D03*
X203200000Y-134620000D03*
X205740000Y-127000000D03*
X200660000Y-134620000D03*
X208280000Y-127000000D03*
X198120000Y-134620000D03*
X210820000Y-127000000D03*
X195580000Y-134620000D03*
X213360000Y-127000000D03*
X193040000Y-134620000D03*
X215900000Y-127000000D03*
X190500000Y-134620000D03*
X218440000Y-127000000D03*
X187960000Y-134620000D03*
D13*
X220980000Y-127000000D03*
D12*
X165122000Y-109175200D03*
X147342000Y-101555200D03*
X162582000Y-109175200D03*
X149882000Y-101555200D03*
X160042000Y-109175200D03*
X152422000Y-101555200D03*
X157502000Y-109175200D03*
X154962000Y-101555200D03*
X154962000Y-109175200D03*
X157502000Y-101555200D03*
X152422000Y-109175200D03*
X160042000Y-101555200D03*
X149882000Y-109175200D03*
X162582000Y-101555200D03*
X147342000Y-109175200D03*
D13*
X165122000Y-101555200D03*
D12*
X195602000Y-109175200D03*
X177822000Y-101555200D03*
X193062000Y-109175200D03*
X180362000Y-101555200D03*
X190522000Y-109175200D03*
X182902000Y-101555200D03*
X187982000Y-109175200D03*
X185442000Y-101555200D03*
X185442000Y-109175200D03*
X187982000Y-101555200D03*
X182902000Y-109175200D03*
X190522000Y-101555200D03*
X180362000Y-109175200D03*
X193062000Y-101555200D03*
X177822000Y-109175200D03*
D13*
X195602000Y-101555200D03*
D12*
X226082000Y-109175200D03*
X208302000Y-101555200D03*
X223542000Y-109175200D03*
X210842000Y-101555200D03*
X221002000Y-109175200D03*
X213382000Y-101555200D03*
X218462000Y-109175200D03*
X215922000Y-101555200D03*
X215922000Y-109175200D03*
X218462000Y-101555200D03*
X213382000Y-109175200D03*
X221002000Y-101555200D03*
X210842000Y-109175200D03*
X223542000Y-101555200D03*
X208302000Y-109175200D03*
D13*
X226082000Y-101555200D03*
D12*
X256562000Y-109175200D03*
X238782000Y-101555200D03*
X254022000Y-109175200D03*
X241322000Y-101555200D03*
X251482000Y-109175200D03*
X243862000Y-101555200D03*
X248942000Y-109175200D03*
X246402000Y-101555200D03*
X246402000Y-109175200D03*
X248942000Y-101555200D03*
X243862000Y-109175200D03*
X251482000Y-101555200D03*
X241322000Y-109175200D03*
X254022000Y-101555200D03*
X238782000Y-109175200D03*
D13*
X256562000Y-101555200D03*
D12*
X170174000Y-91446000D03*
X147314000Y-83826000D03*
X167634000Y-91446000D03*
X149854000Y-83826000D03*
X165094000Y-91446000D03*
X152394000Y-83826000D03*
X162554000Y-91446000D03*
X154934000Y-83826000D03*
X160014000Y-91446000D03*
X157474000Y-83826000D03*
X157474000Y-91446000D03*
X160014000Y-83826000D03*
X154934000Y-91446000D03*
X162554000Y-83826000D03*
X152394000Y-91446000D03*
X165094000Y-83826000D03*
X149854000Y-91446000D03*
X167634000Y-83826000D03*
X147314000Y-91446000D03*
D13*
X170174000Y-83826000D03*
D12*
X205734000Y-91446000D03*
X182874000Y-83826000D03*
X203194000Y-91446000D03*
X185414000Y-83826000D03*
X200654000Y-91446000D03*
X187954000Y-83826000D03*
X198114000Y-91446000D03*
X190494000Y-83826000D03*
X195574000Y-91446000D03*
X193034000Y-83826000D03*
X193034000Y-91446000D03*
X195574000Y-83826000D03*
X190494000Y-91446000D03*
X198114000Y-83826000D03*
X187954000Y-91446000D03*
X200654000Y-83826000D03*
X185414000Y-91446000D03*
X203194000Y-83826000D03*
X182874000Y-91446000D03*
D13*
X205734000Y-83826000D03*
D12*
X165100000Y-78740000D03*
X147320000Y-71120000D03*
X162560000Y-78740000D03*
X149860000Y-71120000D03*
X160020000Y-78740000D03*
X152400000Y-71120000D03*
X157480000Y-78740000D03*
X154940000Y-71120000D03*
X154940000Y-78740000D03*
X157480000Y-71120000D03*
X152400000Y-78740000D03*
X160020000Y-71120000D03*
X149860000Y-78740000D03*
X162560000Y-71120000D03*
X147320000Y-78740000D03*
D13*
X165100000Y-71120000D03*
D12*
X195580000Y-78740000D03*
X177800000Y-71120000D03*
X193040000Y-78740000D03*
X180340000Y-71120000D03*
X190500000Y-78740000D03*
X182880000Y-71120000D03*
X187960000Y-78740000D03*
X185420000Y-71120000D03*
X185420000Y-78740000D03*
X187960000Y-71120000D03*
X182880000Y-78740000D03*
X190500000Y-71120000D03*
X180340000Y-78740000D03*
X193040000Y-71120000D03*
X177800000Y-78740000D03*
D13*
X195580000Y-71120000D03*
D12*
X226060000Y-78740000D03*
X208280000Y-71120000D03*
X223520000Y-78740000D03*
X210820000Y-71120000D03*
X220980000Y-78740000D03*
X213360000Y-71120000D03*
X218440000Y-78740000D03*
X215900000Y-71120000D03*
X215900000Y-78740000D03*
X218440000Y-71120000D03*
X213360000Y-78740000D03*
X220980000Y-71120000D03*
X210820000Y-78740000D03*
X223520000Y-71120000D03*
X208280000Y-78740000D03*
D13*
X226060000Y-71120000D03*
D12*
X256540000Y-78740000D03*
X238760000Y-71120000D03*
X254000000Y-78740000D03*
X241300000Y-71120000D03*
X251460000Y-78740000D03*
X243840000Y-71120000D03*
X248920000Y-78740000D03*
X246380000Y-71120000D03*
X246380000Y-78740000D03*
X248920000Y-71120000D03*
X243840000Y-78740000D03*
X251460000Y-71120000D03*
X241300000Y-78740000D03*
X254000000Y-71120000D03*
X238760000Y-78740000D03*
D13*
X256540000Y-71120000D03*
D12*
X256540000Y-66040000D03*
X233680000Y-58420000D03*
X254000000Y-66040000D03*
X236220000Y-58420000D03*
X251460000Y-66040000D03*
X238760000Y-58420000D03*
X248920000Y-66040000D03*
X241300000Y-58420000D03*
X246380000Y-66040000D03*
X243840000Y-58420000D03*
X243840000Y-66040000D03*
X246380000Y-58420000D03*
X241300000Y-66040000D03*
X248920000Y-58420000D03*
X238760000Y-66040000D03*
X251460000Y-58420000D03*
X236220000Y-66040000D03*
X254000000Y-58420000D03*
X233680000Y-66040000D03*
D13*
X256540000Y-58420000D03*
D12*
X220980000Y-66040000D03*
X198120000Y-58420000D03*
X218440000Y-66040000D03*
X200660000Y-58420000D03*
X215900000Y-66040000D03*
X203200000Y-58420000D03*
X213360000Y-66040000D03*
X205740000Y-58420000D03*
X210820000Y-66040000D03*
X208280000Y-58420000D03*
X208280000Y-66040000D03*
X210820000Y-58420000D03*
X205740000Y-66040000D03*
X213360000Y-58420000D03*
X203200000Y-66040000D03*
X215900000Y-58420000D03*
X200660000Y-66040000D03*
X218440000Y-58420000D03*
X198120000Y-66040000D03*
D13*
X220980000Y-58420000D03*
D12*
X320040000Y-139700000D03*
X337820000Y-147320000D03*
X322580000Y-139700000D03*
X335280000Y-147320000D03*
X325120000Y-139700000D03*
X332740000Y-147320000D03*
X327660000Y-139700000D03*
X330200000Y-147320000D03*
X330200000Y-139700000D03*
X327660000Y-147320000D03*
X332740000Y-139700000D03*
X325120000Y-147320000D03*
X335280000Y-139700000D03*
X322580000Y-147320000D03*
X337820000Y-139700000D03*
D13*
X320040000Y-147320000D03*
D12*
X284480000Y-139700000D03*
X307340000Y-147320000D03*
X287020000Y-139700000D03*
X304800000Y-147320000D03*
X289560000Y-139700000D03*
X302260000Y-147320000D03*
X292100000Y-139700000D03*
X299720000Y-147320000D03*
X294640000Y-139700000D03*
X297180000Y-147320000D03*
X297180000Y-139700000D03*
X294640000Y-147320000D03*
X299720000Y-139700000D03*
X292100000Y-147320000D03*
X302260000Y-139700000D03*
X289560000Y-147320000D03*
X304800000Y-139700000D03*
X287020000Y-147320000D03*
X307340000Y-139700000D03*
D13*
X284480000Y-147320000D03*
D19*
X368450000Y-184150000D03*
X368450000Y-188650000D03*
X361950000Y-184150000D03*
X361950000Y-188650000D03*
X285900000Y-202692000D03*
X285900000Y-207192000D03*
X279400000Y-202692000D03*
X279400000Y-207192000D03*
D20*
X279400000Y-246380000D03*
X281900000Y-248880000D03*
X279400000Y-251380000D03*
D12*
X267970000Y-45720000D03*
X270510000Y-45720000D03*
X273050000Y-45720000D03*
X275590000Y-45720000D03*
X278130000Y-45720000D03*
X280670000Y-45720000D03*
X283210000Y-45720000D03*
X285750000Y-45720000D03*
D13*
X288290000Y-45720000D03*
D12*
X162560000Y-260350000D03*
D14*
X154940000Y-260350000D03*
D12*
X162560000Y-255270000D03*
D14*
X154940000Y-255270000D03*
D12*
X162560000Y-250190000D03*
D14*
X154940000Y-250190000D03*
D12*
X358140000Y-234950000D03*
D14*
X365760000Y-234950000D03*
D12*
X361950000Y-279400000D03*
D14*
X354330000Y-279400000D03*
D12*
X361950000Y-275590000D03*
D14*
X354330000Y-275590000D03*
D12*
X361950000Y-271780000D03*
D14*
X354330000Y-271780000D03*
D12*
X341630000Y-279400000D03*
D14*
X334010000Y-279400000D03*
D12*
X341630000Y-275590000D03*
D14*
X334010000Y-275590000D03*
D12*
X341630000Y-271780000D03*
D14*
X334010000Y-271780000D03*
D12*
X321310000Y-279400000D03*
D14*
X313690000Y-279400000D03*
D12*
X321310000Y-275590000D03*
D14*
X313690000Y-275590000D03*
D12*
X321310000Y-271780000D03*
D14*
X313690000Y-271780000D03*
D12*
X311150000Y-279400000D03*
D14*
X303530000Y-279400000D03*
D12*
X311150000Y-275590000D03*
D14*
X303530000Y-275590000D03*
D12*
X311150000Y-271780000D03*
D14*
X303530000Y-271780000D03*
D12*
X290830000Y-279400000D03*
D14*
X283210000Y-279400000D03*
D12*
X290830000Y-275590000D03*
D14*
X283210000Y-275590000D03*
D12*
X290830000Y-271780000D03*
D14*
X283210000Y-271780000D03*
D12*
X316230000Y-259080000D03*
D14*
X308610000Y-259080000D03*
D12*
X316230000Y-255270000D03*
D14*
X308610000Y-255270000D03*
D12*
X316230000Y-251460000D03*
D14*
X308610000Y-251460000D03*
D12*
X295910000Y-259080000D03*
D14*
X288290000Y-259080000D03*
D12*
X295910000Y-255270000D03*
D14*
X288290000Y-255270000D03*
D12*
X295910000Y-251460000D03*
D14*
X288290000Y-251460000D03*
D15*
X257810000Y-265430000D03*
X260350000Y-265430000D03*
X262890000Y-265430000D03*
X265430000Y-265430000D03*
X267970000Y-265430000D03*
X270510000Y-265430000D03*
X273050000Y-265430000D03*
X275590000Y-265430000D03*
D16*
X278130000Y-265430000D03*
D15*
X149860000Y-66040000D03*
X152400000Y-66040000D03*
X154940000Y-66040000D03*
X157480000Y-66040000D03*
X160020000Y-66040000D03*
X162560000Y-66040000D03*
X165100000Y-66040000D03*
X167640000Y-66040000D03*
X170180000Y-66040000D03*
X172720000Y-66040000D03*
X175260000Y-66040000D03*
X177800000Y-66040000D03*
X180340000Y-66040000D03*
X182880000Y-66040000D03*
X185420000Y-66040000D03*
X187960000Y-66040000D03*
D16*
X190500000Y-66040000D03*
D15*
X226060000Y-265430000D03*
X228600000Y-265430000D03*
X231140000Y-265430000D03*
X233680000Y-265430000D03*
X236220000Y-265430000D03*
X238760000Y-265430000D03*
X241300000Y-265430000D03*
X243840000Y-265430000D03*
D16*
X246380000Y-265430000D03*
D15*
X226060000Y-245110000D03*
X228600000Y-245110000D03*
X231140000Y-245110000D03*
X233680000Y-245110000D03*
X236220000Y-245110000D03*
X238760000Y-245110000D03*
X241300000Y-245110000D03*
X243840000Y-245110000D03*
D16*
X246380000Y-245110000D03*
D15*
X226060000Y-224790000D03*
X228600000Y-224790000D03*
X231140000Y-224790000D03*
X233680000Y-224790000D03*
X236220000Y-224790000D03*
X238760000Y-224790000D03*
X241300000Y-224790000D03*
X243840000Y-224790000D03*
D16*
X246380000Y-224790000D03*
D15*
X340360000Y-261620000D03*
X342900000Y-261620000D03*
X345440000Y-261620000D03*
X347980000Y-261620000D03*
X350520000Y-261620000D03*
X353060000Y-261620000D03*
X355600000Y-261620000D03*
X358140000Y-261620000D03*
D16*
X360680000Y-261620000D03*
D15*
X170180000Y-203200000D03*
X172720000Y-203200000D03*
X175260000Y-203200000D03*
X177800000Y-203200000D03*
X180340000Y-203200000D03*
X182880000Y-203200000D03*
X185420000Y-203200000D03*
X187960000Y-203200000D03*
X190500000Y-203200000D03*
X193040000Y-203200000D03*
X195580000Y-203200000D03*
X198120000Y-203200000D03*
X200660000Y-203200000D03*
X203200000Y-203200000D03*
X205740000Y-203200000D03*
X208280000Y-203200000D03*
D16*
X210820000Y-203200000D03*
D15*
X226060000Y-204470000D03*
X228600000Y-204470000D03*
X231140000Y-204470000D03*
X233680000Y-204470000D03*
X236220000Y-204470000D03*
X238760000Y-204470000D03*
X241300000Y-204470000D03*
X243840000Y-204470000D03*
D16*
X246380000Y-204470000D03*
D15*
X149860000Y-157480000D03*
X152400000Y-157480000D03*
X154940000Y-157480000D03*
X157480000Y-157480000D03*
X160020000Y-157480000D03*
X162560000Y-157480000D03*
X165100000Y-157480000D03*
X167640000Y-157480000D03*
X170180000Y-157480000D03*
X172720000Y-157480000D03*
X175260000Y-157480000D03*
X177800000Y-157480000D03*
X180340000Y-157480000D03*
X182880000Y-157480000D03*
X185420000Y-157480000D03*
X187960000Y-157480000D03*
D16*
X190500000Y-157480000D03*
D15*
X215900000Y-83820000D03*
X218440000Y-83820000D03*
X220980000Y-83820000D03*
X223520000Y-83820000D03*
X226060000Y-83820000D03*
X228600000Y-83820000D03*
X231140000Y-83820000D03*
X233680000Y-83820000D03*
X236220000Y-83820000D03*
X238760000Y-83820000D03*
X241300000Y-83820000D03*
X243840000Y-83820000D03*
X246380000Y-83820000D03*
X248920000Y-83820000D03*
X251460000Y-83820000D03*
X254000000Y-83820000D03*
D16*
X256540000Y-83820000D03*
D15*
X287147000Y-151892000D03*
X289687000Y-151892000D03*
X292227000Y-151892000D03*
X294767000Y-151892000D03*
X297307000Y-151892000D03*
X299847000Y-151892000D03*
X302387000Y-151892000D03*
X304927000Y-151892000D03*
D16*
X307467000Y-151892000D03*
D21*
X163830000Y-240030000D03*
D22*
X161290000Y-240030000D03*
D21*
X157226000Y-240030000D03*
D22*
X154686000Y-240030000D03*
D21*
X353060000Y-210820000D03*
D22*
X355600000Y-210820000D03*
D21*
X365760000Y-228600000D03*
D22*
X368300000Y-228600000D03*
D14*
X185500000Y-240030000D03*
X190500000Y-240030000D03*
X168990000Y-240030000D03*
X173990000Y-240030000D03*
X252730000Y-275510000D03*
X252730000Y-270510000D03*
X205820000Y-240030000D03*
X210820000Y-240030000D03*
X217170000Y-227410000D03*
X217170000Y-232410000D03*
X252730000Y-250270000D03*
X252730000Y-255270000D03*
X181610000Y-227410000D03*
X181610000Y-232410000D03*
X252730000Y-229950000D03*
X252730000Y-234950000D03*
X303610000Y-182880000D03*
X308610000Y-182880000D03*
X316310000Y-182880000D03*
X321310000Y-182880000D03*
X329010000Y-182880000D03*
X334010000Y-182880000D03*
X278210000Y-213360000D03*
X283210000Y-213360000D03*
X280750000Y-182880000D03*
X285750000Y-182880000D03*
X346710000Y-213360000D03*
X341710000Y-213360000D03*
X303610000Y-213360000D03*
X308610000Y-213360000D03*
X316310000Y-213360000D03*
X321310000Y-213360000D03*
X290910000Y-213360000D03*
X295910000Y-213360000D03*
X329010000Y-213360000D03*
X334010000Y-213360000D03*
X345520000Y-265430000D03*
X350520000Y-265430000D03*
X325200000Y-265430000D03*
X330200000Y-265430000D03*
X367030000Y-246460000D03*
X367030000Y-251460000D03*
X294720000Y-265430000D03*
X299720000Y-265430000D03*
X299720000Y-245110000D03*
X304720000Y-245110000D03*
X252730000Y-209630000D03*
X252730000Y-214630000D03*
X252730000Y-191850000D03*
X252730000Y-196850000D03*
X181610000Y-191795800D03*
X181610000Y-196795800D03*
X217170000Y-191850000D03*
X217170000Y-196850000D03*
X143510000Y-180295000D03*
X143510000Y-175295000D03*
X194310000Y-180295000D03*
X194310000Y-175295000D03*
X227330000Y-158830000D03*
X227330000Y-163830000D03*
X171450000Y-146080000D03*
X171450000Y-151080000D03*
X201930000Y-146080000D03*
X201930000Y-151080000D03*
X262890000Y-158830000D03*
X262890000Y-163830000D03*
X232410000Y-146080000D03*
X232410000Y-151080000D03*
X262890000Y-146080000D03*
X262890000Y-151080000D03*
X262890000Y-128387200D03*
X262890000Y-133387200D03*
X227330000Y-115600000D03*
X227330000Y-120600000D03*
X227330000Y-128300000D03*
X227330000Y-133300000D03*
X173945800Y-113715800D03*
X178945800Y-113715800D03*
X161370000Y-113766600D03*
X166370000Y-113766600D03*
X171450000Y-102950000D03*
X171450000Y-107950000D03*
X201930000Y-102950000D03*
X201930000Y-107950000D03*
X262890000Y-102870000D03*
X262890000Y-107870000D03*
X232410000Y-102950000D03*
X232410000Y-107950000D03*
X176530000Y-85090000D03*
X176530000Y-90090000D03*
X212090000Y-85090000D03*
X212090000Y-90090000D03*
X171450000Y-72470000D03*
X171450000Y-77470000D03*
X201930000Y-77390000D03*
X201930000Y-72390000D03*
X232410000Y-77390000D03*
X232410000Y-72390000D03*
X262890000Y-77390000D03*
X262890000Y-72390000D03*
X262890000Y-59770000D03*
X262890000Y-64770000D03*
X262890000Y-47070000D03*
X262890000Y-52070000D03*
X227330000Y-64690000D03*
X227330000Y-59690000D03*
X227330000Y-51990000D03*
X227330000Y-46990000D03*
X313690000Y-145970000D03*
X313690000Y-140970000D03*
X278130000Y-145970000D03*
X278130000Y-140970000D03*
X367760000Y-218440000D03*
D13*
X365760000Y-218440000D03*
D23*
X194437000Y-150368000D03*
X172085000Y-230378000D03*
X225171000Y-206375000D03*
X247269000Y-206375000D03*
X185318499Y-254990501D03*
X202057000Y-180848000D03*
X201930000Y-128778000D03*
X204216000Y-180340000D03*
X204470000Y-128778000D03*
X207391000Y-175006000D03*
X207137000Y-128651000D03*
X194056000Y-278857490D03*
X181737000Y-275971000D03*
X181737000Y-276606000D03*
X181737000Y-277241000D03*
X202438000Y-271780000D03*
X202184000Y-269240000D03*
X195326000Y-173355000D03*
X200660000Y-173355000D03*
X193073290Y-172861089D03*
X193675000Y-172847000D03*
X195326000Y-172720000D03*
X200660000Y-172720000D03*
X165227000Y-73025000D03*
X291592000Y-216154000D03*
X257810000Y-261239000D03*
X257810000Y-220599000D03*
X259969000Y-116967000D03*
X257810000Y-240919000D03*
X267970000Y-64389000D03*
X267970000Y-51816000D03*
X170180000Y-231648000D03*
X288671000Y-141732000D03*
X267970000Y-143129000D03*
X267970000Y-116840000D03*
X258445000Y-260731000D03*
X258445000Y-220091000D03*
X258445000Y-240411000D03*
X268605000Y-63881000D03*
X268605000Y-51308000D03*
X167640000Y-231994490D03*
X259969000Y-117602000D03*
X268605000Y-117602000D03*
X288671000Y-142367000D03*
X268606825Y-143544510D03*
X259080000Y-260223000D03*
X259080000Y-219583000D03*
X259969000Y-118237000D03*
X259080000Y-239903000D03*
X269240000Y-63373000D03*
X269240000Y-50800000D03*
X160020000Y-232273987D03*
X288671000Y-143002000D03*
X269240000Y-118110000D03*
X269240000Y-143798510D03*
X259715000Y-259715000D03*
X259715000Y-219075000D03*
X259969000Y-118872000D03*
X269875000Y-118872000D03*
X259715000Y-239395000D03*
X269875000Y-62865000D03*
X269875000Y-50292000D03*
X288671000Y-143637000D03*
X269875000Y-144052510D03*
X260350000Y-259207000D03*
X260350000Y-218567000D03*
X259969000Y-119507000D03*
X270510000Y-119507000D03*
X260350000Y-238887000D03*
X270510000Y-62357000D03*
X270510000Y-49784000D03*
X270510000Y-144306510D03*
X260985000Y-258572000D03*
X260985000Y-217932000D03*
X259969000Y-120142000D03*
X271145000Y-120015000D03*
X260985000Y-238252000D03*
X271145000Y-61849000D03*
X271145000Y-49276000D03*
X160020000Y-227584000D03*
X271145000Y-144560510D03*
X261620000Y-258064000D03*
X261620000Y-217424000D03*
X259969000Y-120777000D03*
X271780000Y-120523000D03*
X261620000Y-237744000D03*
X271780000Y-61341000D03*
X271780000Y-48768000D03*
X167640000Y-227838000D03*
X271780000Y-144814510D03*
X262255000Y-257556000D03*
X262255000Y-216916000D03*
X259969000Y-121412000D03*
X272415000Y-121031000D03*
X262255000Y-237236000D03*
X272415000Y-60833000D03*
X272419396Y-48294510D03*
X170178664Y-227999499D03*
X272415000Y-145068510D03*
X152400000Y-86614000D03*
X154940000Y-86868000D03*
X157480000Y-87122000D03*
X160020000Y-87376000D03*
X162560000Y-87630000D03*
X165100000Y-87884000D03*
X167640000Y-88138000D03*
X185420000Y-88392000D03*
X187960000Y-88646000D03*
X190500000Y-88900000D03*
X193040000Y-89154000D03*
X195580000Y-89408000D03*
X198120000Y-89662000D03*
X200660000Y-89916000D03*
X203200000Y-90170000D03*
X162560000Y-183642000D03*
X165100000Y-183388000D03*
X167640000Y-183134000D03*
X170180000Y-182880000D03*
X172720000Y-182626000D03*
X175260000Y-182372000D03*
X177800000Y-182118000D03*
X182626000Y-264160000D03*
X203200000Y-261493000D03*
X203581000Y-251460000D03*
X204216000Y-254000000D03*
X204470000Y-256540000D03*
X204724000Y-259080000D03*
X191804510Y-259080000D03*
X191770000Y-254000000D03*
X190881000Y-251333000D03*
X182880000Y-248920000D03*
X210242980Y-244919500D03*
X211293500Y-254000000D03*
X210658479Y-246021262D03*
X211039500Y-248920000D03*
X209296276Y-247107490D03*
X204274281Y-244866887D03*
X207518000Y-247396000D03*
X192947521Y-256667000D03*
X192913000Y-251460000D03*
X190373000Y-249936000D03*
X218694000Y-251587000D03*
X218694000Y-250952000D03*
X205867000Y-246380000D03*
X218694000Y-247650000D03*
X210566000Y-243078000D03*
X327660000Y-47879000D03*
X210761178Y-47590490D03*
X328676000Y-48133000D03*
X152328955Y-103568511D03*
X146616617Y-103759772D03*
X208280000Y-48006000D03*
X330200000Y-48387000D03*
X146736472Y-103195346D03*
X200660000Y-48260000D03*
X331216000Y-48641000D03*
X200660000Y-50927000D03*
X332740000Y-48895000D03*
X208280000Y-51181000D03*
X333756000Y-49149000D03*
X210820000Y-51435000D03*
X335280000Y-49403000D03*
X336296000Y-49657000D03*
X210439000Y-107315000D03*
X337820000Y-50003500D03*
X216154000Y-106553000D03*
X210820000Y-60071000D03*
X338963000Y-50257500D03*
X208280000Y-60325000D03*
X340360000Y-50419000D03*
X200660000Y-60579000D03*
X341503000Y-50673000D03*
X241173000Y-106426000D03*
X200660000Y-63881000D03*
X342900000Y-50927000D03*
X247904000Y-106426000D03*
X208010620Y-63723673D03*
X344043000Y-51181000D03*
X210557637Y-63973481D03*
X345440000Y-51435000D03*
X178331867Y-150398259D03*
X177927000Y-149606000D03*
X184547895Y-149543275D03*
X178728828Y-149979494D03*
X184955904Y-149951284D03*
X178308000Y-151003000D03*
X180848000Y-151003000D03*
X232791000Y-132842000D03*
X185166000Y-136779000D03*
X233524766Y-132695855D03*
X186182000Y-136906000D03*
X187198000Y-137414000D03*
X236474000Y-130648490D03*
X186724510Y-137829510D03*
X238261282Y-130621420D03*
X240079835Y-128802867D03*
X300228000Y-251460000D03*
X347980000Y-244475000D03*
X345440000Y-244221000D03*
X342900000Y-243967000D03*
X340360000Y-243713000D03*
X337820000Y-243459000D03*
X335280000Y-243205000D03*
X189068490Y-134151401D03*
X187914415Y-132651489D03*
X161671000Y-133096000D03*
X189650166Y-148555490D03*
X156718000Y-154686000D03*
X148717000Y-154432000D03*
X307340000Y-228854000D03*
X304927000Y-225552000D03*
X193675000Y-265430000D03*
X182626000Y-261874000D03*
X182626000Y-263017000D03*
X202692000Y-273050000D03*
X182880000Y-267081000D03*
X253365000Y-105156000D03*
X254889000Y-106807000D03*
X255016000Y-104648000D03*
X254127000Y-104902000D03*
X254223508Y-107222510D03*
X223901000Y-102870000D03*
X213487000Y-111343248D03*
X225171000Y-103378000D03*
X218567000Y-111379000D03*
X211048900Y-111343244D03*
X224536000Y-102870000D03*
X216027000Y-111343246D03*
X210566000Y-118745000D03*
X198943116Y-118554936D03*
X187925422Y-117509578D03*
X159131000Y-107569000D03*
X187452000Y-118237000D03*
X262890000Y-130937000D03*
X208538396Y-131606510D03*
X198501000Y-131445000D03*
X197612000Y-131191000D03*
X262890000Y-130302000D03*
X208026000Y-131191000D03*
X184404000Y-135509000D03*
X175387000Y-134620000D03*
X262890000Y-132235197D03*
X262890000Y-131572000D03*
X174752000Y-122682000D03*
X189357000Y-133604000D03*
X188849000Y-132842000D03*
X170688000Y-129413000D03*
D24*
X325120000Y-116840000D02*
X326160501Y-117880501D01*
X326160501Y-131039499D02*
X325969999Y-131230001D01*
X326160501Y-117880501D02*
X326160501Y-131039499D01*
X325969999Y-131230001D02*
X325120000Y-132080000D01*
X325120000Y-101600000D02*
X326160501Y-102640501D01*
X326160501Y-115799499D02*
X325969999Y-115990001D01*
X326160501Y-102640501D02*
X326160501Y-115799499D01*
X325969999Y-115990001D02*
X325120000Y-116840000D01*
X325120000Y-86360000D02*
X326160501Y-87400501D01*
X326160501Y-100559499D02*
X325969999Y-100750001D01*
X326160501Y-87400501D02*
X326160501Y-100559499D01*
X325969999Y-100750001D02*
X325120000Y-101600000D01*
X325120000Y-71120000D02*
X326160501Y-72160501D01*
X326160501Y-85319499D02*
X325969999Y-85510001D01*
X326160501Y-72160501D02*
X326160501Y-85319499D01*
X325969999Y-85510001D02*
X325120000Y-86360000D01*
X325969999Y-70270001D02*
X325120000Y-71120000D01*
X325120000Y-55880000D02*
X326160501Y-56920501D01*
X326160501Y-56920501D02*
X326160501Y-70079499D01*
X326160501Y-70079499D02*
X325969999Y-70270001D01*
X170180000Y-203200000D02*
X168148000Y-201168000D01*
X157992200Y-201168000D02*
X154940000Y-198115800D01*
X168148000Y-201168000D02*
X157992200Y-201168000D01*
X170180000Y-203200000D02*
X173355000Y-206375000D01*
X173355000Y-206375000D02*
X225171000Y-206375000D01*
X276860000Y-218783000D02*
X276860000Y-219710000D01*
X264452000Y-206375000D02*
X276860000Y-218783000D01*
X264452000Y-206375000D02*
X251460000Y-206375000D01*
X251460000Y-206375000D02*
X254292000Y-206375000D01*
X247269000Y-206375000D02*
X251460000Y-206375000D01*
X172720000Y-203200000D02*
X170434000Y-200914000D01*
X160278200Y-200914000D02*
X157480000Y-198115800D01*
X170434000Y-200914000D02*
X160278200Y-200914000D01*
X175260000Y-203200000D02*
X172720000Y-200660000D01*
X162564200Y-200660000D02*
X160020000Y-198115800D01*
X172720000Y-200660000D02*
X162564200Y-200660000D01*
X177800000Y-203200000D02*
X175006000Y-200406000D01*
X164850200Y-200406000D02*
X162560000Y-198115800D01*
X175006000Y-200406000D02*
X164850200Y-200406000D01*
X180340000Y-203200000D02*
X177292000Y-200152000D01*
X167136200Y-200152000D02*
X165100000Y-198115800D01*
X177292000Y-200152000D02*
X167136200Y-200152000D01*
X182880000Y-203200000D02*
X179578000Y-199898000D01*
X169422200Y-199898000D02*
X167640000Y-198115800D01*
X179578000Y-199898000D02*
X169422200Y-199898000D01*
X185420000Y-203200000D02*
X181864000Y-199644000D01*
X171708200Y-199644000D02*
X170180000Y-198115800D01*
X181864000Y-199644000D02*
X171708200Y-199644000D01*
X172720000Y-198115800D02*
X173994200Y-199390000D01*
X184150000Y-199390000D02*
X187960000Y-203200000D01*
X173994200Y-199390000D02*
X184150000Y-199390000D01*
X195589000Y-203191000D02*
X195580000Y-203200000D01*
X195589000Y-198115800D02*
X195589000Y-203191000D01*
X198129000Y-203191000D02*
X198120000Y-203200000D01*
X198129000Y-198115800D02*
X198129000Y-203191000D01*
X200669000Y-203191000D02*
X200660000Y-203200000D01*
X200669000Y-198115800D02*
X200669000Y-203191000D01*
X203209000Y-203191000D02*
X203200000Y-203200000D01*
X203209000Y-198115800D02*
X203209000Y-203191000D01*
X171254058Y-78740000D02*
X177800000Y-78740000D01*
X170263557Y-77749499D02*
X171254058Y-78740000D01*
X148310501Y-77749499D02*
X170263557Y-77749499D01*
X147320000Y-78740000D02*
X148310501Y-77749499D01*
X177800000Y-78740000D02*
X178816000Y-77724000D01*
X201814058Y-78740000D02*
X208280000Y-78740000D01*
X200798058Y-77724000D02*
X201814058Y-78740000D01*
X178816000Y-77724000D02*
X200798058Y-77724000D01*
X208280000Y-78740000D02*
X209423000Y-77597000D01*
X232294058Y-78740000D02*
X238760000Y-78740000D01*
X231151058Y-77597000D02*
X232294058Y-78740000D01*
X209423000Y-77597000D02*
X231151058Y-77597000D01*
X205749000Y-203191000D02*
X205740000Y-203200000D01*
X205749000Y-198115800D02*
X205749000Y-203191000D01*
X208289000Y-203191000D02*
X208280000Y-203200000D01*
X208289000Y-198115800D02*
X208289000Y-203191000D01*
X226060000Y-265430000D02*
X226060000Y-269240000D01*
X201168000Y-278638000D02*
X194593688Y-278638000D01*
X217424000Y-277876000D02*
X201930000Y-277876000D01*
X201930000Y-277876000D02*
X201168000Y-278638000D01*
X226060000Y-269240000D02*
X217424000Y-277876000D01*
X194593688Y-278638000D02*
X194374198Y-278857490D01*
X194374198Y-278857490D02*
X194056000Y-278857490D01*
X228600000Y-265430000D02*
X228600000Y-269240000D01*
X217551000Y-278130000D02*
X202057000Y-278130000D01*
X228600000Y-269240000D02*
X227330000Y-270510000D01*
X202057000Y-278130000D02*
X201295000Y-278892000D01*
X194564000Y-279273000D02*
X193802000Y-279273000D01*
X227330000Y-270510000D02*
X225171000Y-270510000D01*
X225171000Y-270510000D02*
X217551000Y-278130000D01*
X201295000Y-278892000D02*
X194945000Y-278892000D01*
X194945000Y-278892000D02*
X194564000Y-279273000D01*
X193802000Y-279273000D02*
X193167000Y-278638000D01*
X184404000Y-278638000D02*
X181737000Y-275971000D01*
X193167000Y-278638000D02*
X184404000Y-278638000D01*
X231140000Y-265430000D02*
X231140000Y-269240000D01*
X231140000Y-269240000D02*
X229616000Y-270764000D01*
X194691000Y-279527000D02*
X193675000Y-279527000D01*
X184023000Y-278892000D02*
X181737000Y-276606000D01*
X229616000Y-270764000D02*
X225298000Y-270764000D01*
X225298000Y-270764000D02*
X217678000Y-278384000D01*
X217678000Y-278384000D02*
X202184000Y-278384000D01*
X202184000Y-278384000D02*
X201422000Y-279146000D01*
X193040000Y-278892000D02*
X184023000Y-278892000D01*
X201422000Y-279146000D02*
X195072000Y-279146000D01*
X195072000Y-279146000D02*
X194691000Y-279527000D01*
X193675000Y-279527000D02*
X193040000Y-278892000D01*
X233680000Y-265430000D02*
X233680000Y-269240000D01*
X233680000Y-269240000D02*
X231902000Y-271018000D01*
X195199000Y-279400000D02*
X194818000Y-279781000D01*
X217805000Y-278638000D02*
X202311000Y-278638000D01*
X194818000Y-279781000D02*
X193548000Y-279781000D01*
X225425000Y-271018000D02*
X217805000Y-278638000D01*
X193548000Y-279781000D02*
X192913000Y-279146000D01*
X202311000Y-278638000D02*
X201549000Y-279400000D01*
X201549000Y-279400000D02*
X195199000Y-279400000D01*
X231902000Y-271018000D02*
X225425000Y-271018000D01*
X192913000Y-279146000D02*
X183642000Y-279146000D01*
X183642000Y-279146000D02*
X181737000Y-277241000D01*
X236220000Y-265430000D02*
X236220000Y-269240000D01*
X238760000Y-265430000D02*
X238760000Y-269240000D01*
X202438000Y-271780000D02*
X200660000Y-271780000D01*
X241300000Y-265430000D02*
X241300000Y-269240000D01*
X202184000Y-269240000D02*
X200660000Y-269240000D01*
X243840000Y-269240000D02*
X243840000Y-265430000D01*
X159004000Y-238506000D02*
X157480000Y-240030000D01*
X165481000Y-240067058D02*
X163919942Y-238506000D01*
X163919942Y-238506000D02*
X159004000Y-238506000D01*
X165481000Y-246761000D02*
X165481000Y-240067058D01*
X167640000Y-248920000D02*
X165481000Y-246761000D01*
X164729999Y-253629999D02*
X167640000Y-256540000D01*
X164729999Y-240929999D02*
X164729999Y-253629999D01*
X163830000Y-240030000D02*
X164729999Y-240929999D01*
X299249999Y-253200001D02*
X298450000Y-254000000D01*
X299440501Y-250507599D02*
X299440501Y-253009499D01*
X297812902Y-248880000D02*
X299440501Y-250507599D01*
X299440501Y-253009499D02*
X299249999Y-253200001D01*
X281900000Y-248880000D02*
X297812902Y-248880000D01*
X278600001Y-192569999D02*
X279400000Y-191770000D01*
X278400001Y-201692001D02*
X278400001Y-192769999D01*
X278400001Y-192769999D02*
X278600001Y-192569999D01*
X279400000Y-202692000D02*
X278400001Y-201692001D01*
X285900000Y-202692000D02*
X279400000Y-202692000D01*
X359029000Y-187071000D02*
X361950000Y-184150000D01*
X345059000Y-187071000D02*
X359029000Y-187071000D01*
X340360000Y-191770000D02*
X345059000Y-187071000D01*
X361950000Y-184150000D02*
X368450000Y-184150000D01*
X324079499Y-115340501D02*
X324079499Y-128499499D01*
X324079499Y-128499499D02*
X324270001Y-128690001D01*
X325120000Y-114300000D02*
X324079499Y-115340501D01*
X324270001Y-128690001D02*
X325120000Y-129540000D01*
X324079499Y-100100501D02*
X324079499Y-113259499D01*
X324079499Y-113259499D02*
X324270001Y-113450001D01*
X325120000Y-99060000D02*
X324079499Y-100100501D01*
X324270001Y-113450001D02*
X325120000Y-114300000D01*
X324079499Y-84860501D02*
X324079499Y-98019499D01*
X324079499Y-98019499D02*
X324270001Y-98210001D01*
X325120000Y-83820000D02*
X324079499Y-84860501D01*
X324270001Y-98210001D02*
X325120000Y-99060000D01*
X324079499Y-69620501D02*
X324079499Y-82779499D01*
X324079499Y-82779499D02*
X324270001Y-82970001D01*
X325120000Y-68580000D02*
X324079499Y-69620501D01*
X324270001Y-82970001D02*
X325120000Y-83820000D01*
X336550000Y-235145942D02*
X335475942Y-236220000D01*
X336550000Y-223520000D02*
X336550000Y-235145942D01*
X335280000Y-222250000D02*
X336550000Y-223520000D01*
X331470000Y-236220000D02*
X327660000Y-232410000D01*
X335475942Y-236220000D02*
X331470000Y-236220000D01*
X287020000Y-237490000D02*
X287020000Y-227330000D01*
X289560000Y-240030000D02*
X287020000Y-237490000D01*
X287020000Y-227330000D02*
X289560000Y-224790000D01*
X320040000Y-240030000D02*
X289560000Y-240030000D01*
X327660000Y-232410000D02*
X320040000Y-240030000D01*
X324270001Y-67730001D02*
X325120000Y-68580000D01*
X325120000Y-53340000D02*
X324079499Y-54380501D01*
X324079499Y-67539499D02*
X324270001Y-67730001D01*
X324079499Y-54380501D02*
X324079499Y-67539499D01*
X227012401Y-70129499D02*
X224510501Y-70129499D01*
X230263403Y-73380501D02*
X227012401Y-70129499D01*
X232885441Y-73380501D02*
X230263403Y-73380501D01*
X234155441Y-72110501D02*
X232885441Y-73380501D01*
X224510501Y-70129499D02*
X224319999Y-70320001D01*
X224319999Y-70320001D02*
X223520000Y-71120000D01*
X253009499Y-72110501D02*
X234155441Y-72110501D01*
X254000000Y-71120000D02*
X253009499Y-72110501D01*
X193839999Y-70320001D02*
X193040000Y-71120000D01*
X201135441Y-70129499D02*
X194030501Y-70129499D01*
X194030501Y-70129499D02*
X193839999Y-70320001D01*
X203116443Y-72110501D02*
X201135441Y-70129499D01*
X222529499Y-72110501D02*
X203116443Y-72110501D01*
X223520000Y-71120000D02*
X222529499Y-72110501D01*
X164049498Y-72609498D02*
X165426442Y-72609498D01*
X162560000Y-71120000D02*
X164049498Y-72609498D01*
X166277445Y-73460501D02*
X190699499Y-73460501D01*
X165426442Y-72609498D02*
X166277445Y-73460501D01*
X190699499Y-73460501D02*
X192240001Y-71919999D01*
X192240001Y-71919999D02*
X193040000Y-71120000D01*
X149660501Y-89099499D02*
X147314000Y-91446000D01*
X180527499Y-89099499D02*
X149660501Y-89099499D01*
X182874000Y-91446000D02*
X180527499Y-89099499D01*
X303187000Y-189230000D02*
X306997000Y-193040000D01*
X302260000Y-189230000D02*
X303187000Y-189230000D01*
X313690000Y-193040000D02*
X314960000Y-194310000D01*
X306997000Y-193040000D02*
X313690000Y-193040000D01*
X198767501Y-73380501D02*
X196507000Y-71120000D01*
X224726499Y-73380501D02*
X198767501Y-73380501D01*
X196507000Y-71120000D02*
X195580000Y-71120000D01*
X226060000Y-72047000D02*
X224726499Y-73380501D01*
X226060000Y-71120000D02*
X226060000Y-72047000D01*
X229501512Y-73634512D02*
X226987000Y-71120000D01*
X256540000Y-71120000D02*
X255613000Y-71120000D01*
X226987000Y-71120000D02*
X226060000Y-71120000D01*
X253352499Y-73380501D02*
X233244665Y-73380501D01*
X255613000Y-71120000D02*
X253352499Y-73380501D01*
X233244665Y-73380501D02*
X232990655Y-73634512D01*
X232990655Y-73634512D02*
X229501512Y-73634512D01*
X194653000Y-71120000D02*
X191732000Y-74041000D01*
X195580000Y-71120000D02*
X194653000Y-71120000D01*
X166243000Y-74041000D02*
X165227000Y-73025000D01*
X191732000Y-74041000D02*
X166243000Y-74041000D01*
X291592000Y-227838000D02*
X291592000Y-216154000D01*
X289560000Y-229870000D02*
X291592000Y-227838000D01*
X346480501Y-117880501D02*
X346480501Y-131039499D01*
X346480501Y-131039499D02*
X346289999Y-131230001D01*
X346289999Y-131230001D02*
X345440000Y-132080000D01*
X345440000Y-116840000D02*
X346480501Y-117880501D01*
X346480501Y-102640501D02*
X346480501Y-115799499D01*
X346480501Y-115799499D02*
X346289999Y-115990001D01*
X346289999Y-115990001D02*
X345440000Y-116840000D01*
X345440000Y-101600000D02*
X346480501Y-102640501D01*
X346480501Y-87400501D02*
X346480501Y-100559499D01*
X346480501Y-100559499D02*
X346289999Y-100750001D01*
X346289999Y-100750001D02*
X345440000Y-101600000D01*
X345440000Y-86360000D02*
X346480501Y-87400501D01*
X346480501Y-72160501D02*
X346480501Y-85319499D01*
X346480501Y-85319499D02*
X346289999Y-85510001D01*
X346289999Y-85510001D02*
X345440000Y-86360000D01*
X345440000Y-71120000D02*
X346480501Y-72160501D01*
X207555743Y-64897000D02*
X217297000Y-64897000D01*
X207555710Y-64897033D02*
X207555743Y-64897000D01*
X187960000Y-66040000D02*
X189102967Y-64897033D01*
X189102967Y-64897033D02*
X207555710Y-64897033D01*
X217297000Y-64897000D02*
X218440000Y-66040000D01*
X228164499Y-63699499D02*
X230505000Y-66040000D01*
X218440000Y-66040000D02*
X220780501Y-63699499D01*
X220780501Y-63699499D02*
X228164499Y-63699499D01*
X230505000Y-66040000D02*
X233680000Y-66040000D01*
X247522936Y-67182936D02*
X250660001Y-70320001D01*
X187960000Y-66040000D02*
X189102936Y-67182936D01*
X250660001Y-70320001D02*
X251460000Y-71120000D01*
X189102936Y-67182936D02*
X247522936Y-67182936D01*
X346289999Y-70270001D02*
X345440000Y-71120000D01*
X345440000Y-55880000D02*
X346480501Y-56920501D01*
X346480501Y-56920501D02*
X346480501Y-70079499D01*
X346480501Y-70079499D02*
X346289999Y-70270001D01*
X313919499Y-115340501D02*
X313919499Y-128499499D01*
X314960000Y-114300000D02*
X313919499Y-115340501D01*
X313919499Y-128499499D02*
X314110001Y-128690001D01*
X314110001Y-128690001D02*
X314960000Y-129540000D01*
X313919499Y-100100501D02*
X313919499Y-113259499D01*
X314960000Y-99060000D02*
X313919499Y-100100501D01*
X313919499Y-113259499D02*
X314110001Y-113450001D01*
X314110001Y-113450001D02*
X314960000Y-114300000D01*
X313919499Y-84860501D02*
X313919499Y-98019499D01*
X314960000Y-83820000D02*
X313919499Y-84860501D01*
X313919499Y-98019499D02*
X314110001Y-98210001D01*
X314110001Y-98210001D02*
X314960000Y-99060000D01*
X313919499Y-69620501D02*
X313919499Y-82779499D01*
X314960000Y-68580000D02*
X313919499Y-69620501D01*
X313919499Y-82779499D02*
X314110001Y-82970001D01*
X314110001Y-82970001D02*
X314960000Y-83820000D01*
X223520000Y-256540000D02*
X226314000Y-259334000D01*
X226314000Y-259334000D02*
X255905000Y-259334000D01*
X255905000Y-259334000D02*
X257810000Y-261239000D01*
X223520000Y-215900000D02*
X226314000Y-218694000D01*
X226314000Y-218694000D02*
X255905000Y-218694000D01*
X255905000Y-218694000D02*
X257810000Y-220599000D01*
X226568000Y-273812000D02*
X223520000Y-276860000D01*
X257810000Y-265430000D02*
X257810000Y-266895942D01*
X241681000Y-273812000D02*
X226568000Y-273812000D01*
X243967055Y-271525945D02*
X241681000Y-273812000D01*
X253179997Y-271525945D02*
X243967055Y-271525945D01*
X257810000Y-266895942D02*
X253179997Y-271525945D01*
X223520000Y-236220000D02*
X226314000Y-239014000D01*
X255905000Y-239014000D02*
X257810000Y-240919000D01*
X226314000Y-239014000D02*
X255905000Y-239014000D01*
X240411000Y-62611000D02*
X266192000Y-62611000D01*
X266192000Y-62611000D02*
X267970000Y-64389000D01*
X236220000Y-58420000D02*
X240411000Y-62611000D01*
X238252000Y-47752000D02*
X236220000Y-45720000D01*
X246888000Y-47752000D02*
X238252000Y-47752000D01*
X249174000Y-50038000D02*
X246888000Y-47752000D01*
X266192000Y-50038000D02*
X249174000Y-50038000D01*
X267970000Y-51816000D02*
X266192000Y-50038000D01*
X179451000Y-231902000D02*
X170434000Y-231902000D01*
X180721000Y-230632000D02*
X179451000Y-231902000D01*
X182626000Y-230632000D02*
X180721000Y-230632000D01*
X183921466Y-231927466D02*
X182626000Y-230632000D01*
X204241477Y-232181477D02*
X191490545Y-232181477D01*
X205740000Y-233680000D02*
X204241477Y-232181477D01*
X191236534Y-231927466D02*
X183921466Y-231927466D01*
X170434000Y-231902000D02*
X170180000Y-231648000D01*
X191490545Y-232181477D02*
X191236534Y-231927466D01*
X313919499Y-67539499D02*
X314110001Y-67730001D01*
X314960000Y-53340000D02*
X313919499Y-54380501D01*
X313919499Y-54380501D02*
X313919499Y-67539499D01*
X314110001Y-67730001D02*
X314960000Y-68580000D01*
X313436000Y-51816000D02*
X314960000Y-53340000D01*
X267970000Y-51816000D02*
X313436000Y-51816000D01*
X259969000Y-116967000D02*
X267970000Y-116840000D01*
X288036000Y-141732000D02*
X286639000Y-143129000D01*
X288671000Y-141732000D02*
X288036000Y-141732000D01*
X286639000Y-143129000D02*
X267970000Y-143129000D01*
X315809999Y-131230001D02*
X314960000Y-132080000D01*
X316000501Y-117880501D02*
X316000501Y-131039499D01*
X314960000Y-116840000D02*
X316000501Y-117880501D01*
X316000501Y-131039499D02*
X315809999Y-131230001D01*
X315809999Y-115990001D02*
X314960000Y-116840000D01*
X316000501Y-102640501D02*
X316000501Y-115799499D01*
X314960000Y-101600000D02*
X316000501Y-102640501D01*
X316000501Y-115799499D02*
X315809999Y-115990001D01*
X315809999Y-100750001D02*
X314960000Y-101600000D01*
X316000501Y-87400501D02*
X316000501Y-100559499D01*
X314960000Y-86360000D02*
X316000501Y-87400501D01*
X316000501Y-100559499D02*
X315809999Y-100750001D01*
X315809999Y-85510001D02*
X314960000Y-86360000D01*
X316000501Y-72160501D02*
X316000501Y-85319499D01*
X314960000Y-71120000D02*
X316000501Y-72160501D01*
X316000501Y-85319499D02*
X315809999Y-85510001D01*
X226060000Y-256540000D02*
X228600000Y-259080000D01*
X256794000Y-259080000D02*
X258445000Y-260731000D01*
X228600000Y-259080000D02*
X256794000Y-259080000D01*
X226060000Y-215900000D02*
X228600000Y-218440000D01*
X256794000Y-218440000D02*
X258445000Y-220091000D01*
X228600000Y-218440000D02*
X256794000Y-218440000D01*
X226859999Y-276060001D02*
X226060000Y-276860000D01*
X228854000Y-274066000D02*
X226859999Y-276060001D01*
X241808000Y-274066000D02*
X228854000Y-274066000D01*
X253365044Y-271779956D02*
X244094044Y-271779956D01*
X258064042Y-267080958D02*
X253365044Y-271779956D01*
X244094044Y-271779956D02*
X241808000Y-274066000D01*
X258699042Y-267080958D02*
X258064042Y-267080958D01*
X260350000Y-265430000D02*
X258699042Y-267080958D01*
X226060000Y-236220000D02*
X228600000Y-238760000D01*
X256794000Y-238760000D02*
X258445000Y-240411000D01*
X228600000Y-238760000D02*
X256794000Y-238760000D01*
X267081000Y-62357000D02*
X268605000Y-63881000D01*
X242697000Y-62357000D02*
X267081000Y-62357000D01*
X238760000Y-58420000D02*
X242697000Y-62357000D01*
X240538000Y-47498000D02*
X238760000Y-45720000D01*
X247015000Y-47498000D02*
X240538000Y-47498000D01*
X249301000Y-49784000D02*
X247015000Y-47498000D01*
X267081000Y-49784000D02*
X249301000Y-49784000D01*
X268605000Y-51308000D02*
X267081000Y-49784000D01*
X167776024Y-232019976D02*
X167665486Y-232019976D01*
X167665486Y-232019976D02*
X167640000Y-231994490D01*
X191131321Y-232181477D02*
X183816252Y-232181477D01*
X201955488Y-232435488D02*
X191385331Y-232435488D01*
X203200000Y-233680000D02*
X201955488Y-232435488D01*
X182520775Y-230886000D02*
X180848000Y-230886000D01*
X168119708Y-232156000D02*
X167958198Y-231994490D01*
X191385331Y-232435488D02*
X191131321Y-232181477D01*
X167958198Y-231994490D02*
X167640000Y-231994490D01*
X183816252Y-232181477D02*
X182520775Y-230886000D01*
X180848000Y-230886000D02*
X179578000Y-232156000D01*
X179578000Y-232156000D02*
X168119708Y-232156000D01*
X316000501Y-70079499D02*
X315809999Y-70270001D01*
X314960000Y-55880000D02*
X316000501Y-56920501D01*
X316000501Y-56920501D02*
X316000501Y-70079499D01*
X315809999Y-70270001D02*
X314960000Y-71120000D01*
X316000501Y-54839499D02*
X315809999Y-55030001D01*
X316000501Y-52840559D02*
X316000501Y-54839499D01*
X315809999Y-55030001D02*
X314960000Y-55880000D01*
X314467942Y-51308000D02*
X316000501Y-52840559D01*
X268605000Y-51308000D02*
X314467942Y-51308000D01*
X259969000Y-117602000D02*
X268605000Y-117602000D01*
X268768335Y-143383000D02*
X268606825Y-143544510D01*
X288671000Y-142367000D02*
X287655000Y-143383000D01*
X287655000Y-143383000D02*
X268768335Y-143383000D01*
X316459499Y-115340501D02*
X316459499Y-128499499D01*
X316650001Y-128690001D02*
X317500000Y-129540000D01*
X317500000Y-114300000D02*
X316459499Y-115340501D01*
X316459499Y-128499499D02*
X316650001Y-128690001D01*
X316459499Y-100100501D02*
X316459499Y-113259499D01*
X316650001Y-113450001D02*
X317500000Y-114300000D01*
X317500000Y-99060000D02*
X316459499Y-100100501D01*
X316459499Y-113259499D02*
X316650001Y-113450001D01*
X316459499Y-84860501D02*
X316459499Y-98019499D01*
X316650001Y-98210001D02*
X317500000Y-99060000D01*
X317500000Y-83820000D02*
X316459499Y-84860501D01*
X316459499Y-98019499D02*
X316650001Y-98210001D01*
X316459499Y-69620501D02*
X316459499Y-82779499D01*
X316650001Y-82970001D02*
X317500000Y-83820000D01*
X317500000Y-68580000D02*
X316459499Y-69620501D01*
X316459499Y-82779499D02*
X316650001Y-82970001D01*
X228600000Y-256540000D02*
X230886000Y-258826000D01*
X257683000Y-258826000D02*
X259080000Y-260223000D01*
X230886000Y-258826000D02*
X257683000Y-258826000D01*
X228600000Y-215900000D02*
X230886000Y-218186000D01*
X257683000Y-218186000D02*
X259080000Y-219583000D01*
X230886000Y-218186000D02*
X257683000Y-218186000D01*
X247142000Y-47244000D02*
X249428000Y-49530000D01*
X242824000Y-47244000D02*
X247142000Y-47244000D01*
X241300000Y-45720000D02*
X242824000Y-47244000D01*
X241935000Y-274320000D02*
X231140000Y-274320000D01*
X262890000Y-265430000D02*
X260985022Y-267334978D01*
X244221033Y-272033967D02*
X241935000Y-274320000D01*
X231140000Y-274320000D02*
X228600000Y-276860000D01*
X260985022Y-267334978D02*
X258191022Y-267334978D01*
X253492033Y-272033967D02*
X244221033Y-272033967D01*
X258191022Y-267334978D02*
X253492033Y-272033967D01*
X228600000Y-236220000D02*
X230886000Y-238506000D01*
X257683000Y-238506000D02*
X259080000Y-239903000D01*
X230886000Y-238506000D02*
X257683000Y-238506000D01*
X267970000Y-62103000D02*
X269240000Y-63373000D01*
X244983000Y-62103000D02*
X267970000Y-62103000D01*
X241300000Y-58420000D02*
X244983000Y-62103000D01*
X269240000Y-50800000D02*
X267970000Y-49530000D01*
X249428000Y-49530000D02*
X267970000Y-49530000D01*
X160391987Y-232273987D02*
X160020000Y-232273987D01*
X183711038Y-232435488D02*
X182415561Y-231140011D01*
X180974989Y-231140011D02*
X179679512Y-232435488D01*
X194589499Y-232689499D02*
X191280117Y-232689499D01*
X179679512Y-232435488D02*
X160553488Y-232435488D01*
X182415561Y-231140011D02*
X180974989Y-231140011D01*
X191280117Y-232689499D02*
X191026107Y-232435488D01*
X160553488Y-232435488D02*
X160391987Y-232273987D01*
X195580000Y-233680000D02*
X194589499Y-232689499D01*
X191026107Y-232435488D02*
X183711038Y-232435488D01*
X316650001Y-67730001D02*
X317500000Y-68580000D01*
X317500000Y-53340000D02*
X316459499Y-54380501D01*
X316459499Y-67539499D02*
X316650001Y-67730001D01*
X316459499Y-54380501D02*
X316459499Y-67539499D01*
X314960000Y-50800000D02*
X317500000Y-53340000D01*
X269240000Y-50800000D02*
X314960000Y-50800000D01*
X259969000Y-118237000D02*
X269240000Y-118110000D01*
X288036000Y-143637000D02*
X269401510Y-143637000D01*
X269401510Y-143637000D02*
X269240000Y-143798510D01*
X288671000Y-143002000D02*
X288036000Y-143637000D01*
X318540501Y-131039499D02*
X318349999Y-131230001D01*
X318540501Y-117880501D02*
X318540501Y-131039499D01*
X317500000Y-116840000D02*
X318540501Y-117880501D01*
X318349999Y-131230001D02*
X317500000Y-132080000D01*
X318540501Y-115799499D02*
X318349999Y-115990001D01*
X318540501Y-102640501D02*
X318540501Y-115799499D01*
X317500000Y-101600000D02*
X318540501Y-102640501D01*
X318349999Y-115990001D02*
X317500000Y-116840000D01*
X318540501Y-100559499D02*
X318349999Y-100750001D01*
X318540501Y-87400501D02*
X318540501Y-100559499D01*
X317500000Y-86360000D02*
X318540501Y-87400501D01*
X318349999Y-100750001D02*
X317500000Y-101600000D01*
X318540501Y-85319499D02*
X318349999Y-85510001D01*
X318540501Y-72160501D02*
X318540501Y-85319499D01*
X317500000Y-71120000D02*
X318540501Y-72160501D01*
X318349999Y-85510001D02*
X317500000Y-86360000D01*
X258572000Y-258572000D02*
X259715000Y-259715000D01*
X233172000Y-258572000D02*
X258572000Y-258572000D01*
X231140000Y-256540000D02*
X233172000Y-258572000D01*
X258572000Y-217932000D02*
X259715000Y-219075000D01*
X233172000Y-217932000D02*
X258572000Y-217932000D01*
X231140000Y-215900000D02*
X233172000Y-217932000D01*
X259969000Y-118872000D02*
X269875000Y-118872000D01*
X233426000Y-274574000D02*
X231140000Y-276860000D01*
X242062000Y-274574000D02*
X233426000Y-274574000D01*
X265430000Y-265430000D02*
X263271011Y-267588989D01*
X244348022Y-272287978D02*
X242062000Y-274574000D01*
X263271011Y-267588989D02*
X258318011Y-267588989D01*
X253619022Y-272287978D02*
X244348022Y-272287978D01*
X258318011Y-267588989D02*
X253619022Y-272287978D01*
X231140000Y-236220000D02*
X233172000Y-238252000D01*
X258572000Y-238252000D02*
X259715000Y-239395000D01*
X233172000Y-238252000D02*
X258572000Y-238252000D01*
X268859000Y-61849000D02*
X269875000Y-62865000D01*
X247269000Y-61849000D02*
X268859000Y-61849000D01*
X243840000Y-58420000D02*
X247269000Y-61849000D01*
X247269000Y-46990000D02*
X245110000Y-46990000D01*
X249555000Y-49276000D02*
X247269000Y-46990000D01*
X268859000Y-49276000D02*
X249555000Y-49276000D01*
X245110000Y-46990000D02*
X243840000Y-45720000D01*
X269875000Y-50292000D02*
X268859000Y-49276000D01*
X191908630Y-233680000D02*
X193040000Y-233680000D01*
X190918129Y-232689499D02*
X191908630Y-233680000D01*
X183605824Y-232689499D02*
X190918129Y-232689499D01*
X157480000Y-233680000D02*
X158470501Y-232689499D01*
X179806501Y-232689499D02*
X181101978Y-231394022D01*
X182310347Y-231394022D02*
X183605824Y-232689499D01*
X181101978Y-231394022D02*
X182310347Y-231394022D01*
X158470501Y-232689499D02*
X179806501Y-232689499D01*
X318540501Y-56920501D02*
X318540501Y-70079499D01*
X317500000Y-55880000D02*
X318540501Y-56920501D01*
X318540501Y-70079499D02*
X318349999Y-70270001D01*
X318349999Y-70270001D02*
X317500000Y-71120000D01*
X318540501Y-52840559D02*
X318540501Y-54839499D01*
X318540501Y-54839499D02*
X318349999Y-55030001D01*
X315991942Y-50292000D02*
X318540501Y-52840559D01*
X318349999Y-55030001D02*
X317500000Y-55880000D01*
X269875000Y-50292000D02*
X315991942Y-50292000D01*
X288671000Y-143637000D02*
X288417000Y-143891000D01*
X288417000Y-143891000D02*
X270036510Y-143891000D01*
X270036510Y-143891000D02*
X269875000Y-144052510D01*
X318999499Y-128499499D02*
X319190001Y-128690001D01*
X319190001Y-128690001D02*
X320040000Y-129540000D01*
X318999499Y-115340501D02*
X318999499Y-128499499D01*
X320040000Y-114300000D02*
X318999499Y-115340501D01*
X318999499Y-113259499D02*
X319190001Y-113450001D01*
X319190001Y-113450001D02*
X320040000Y-114300000D01*
X318999499Y-100100501D02*
X318999499Y-113259499D01*
X320040000Y-99060000D02*
X318999499Y-100100501D01*
X318999499Y-98019499D02*
X319190001Y-98210001D01*
X319190001Y-98210001D02*
X320040000Y-99060000D01*
X318999499Y-84860501D02*
X318999499Y-98019499D01*
X320040000Y-83820000D02*
X318999499Y-84860501D01*
X318999499Y-82779499D02*
X319190001Y-82970001D01*
X319190001Y-82970001D02*
X320040000Y-83820000D01*
X318999499Y-69620501D02*
X318999499Y-82779499D01*
X320040000Y-68580000D02*
X318999499Y-69620501D01*
X233680000Y-256540000D02*
X235458000Y-258318000D01*
X259461000Y-258318000D02*
X260350000Y-259207000D01*
X235458000Y-258318000D02*
X259461000Y-258318000D01*
X233680000Y-215900000D02*
X235458000Y-217678000D01*
X259461000Y-217678000D02*
X260350000Y-218567000D01*
X235458000Y-217678000D02*
X259461000Y-217678000D01*
X235712000Y-274828000D02*
X233680000Y-276860000D01*
X242189000Y-274828000D02*
X235712000Y-274828000D01*
X253746011Y-272541989D02*
X244475011Y-272541989D01*
X258445000Y-267843000D02*
X253746011Y-272541989D01*
X244475011Y-272541989D02*
X242189000Y-274828000D01*
X265557000Y-267843000D02*
X258445000Y-267843000D01*
X267970000Y-265430000D02*
X265557000Y-267843000D01*
X233680000Y-236220000D02*
X235458000Y-237998000D01*
X259461000Y-237998000D02*
X260350000Y-238887000D01*
X235458000Y-237998000D02*
X259461000Y-237998000D01*
X246380000Y-58420000D02*
X249555000Y-61595000D01*
X269748000Y-61595000D02*
X270510000Y-62357000D01*
X249555000Y-61595000D02*
X269748000Y-61595000D01*
X269748000Y-49022000D02*
X270510000Y-49784000D01*
X249682000Y-49022000D02*
X269748000Y-49022000D01*
X246380000Y-45720000D02*
X249682000Y-49022000D01*
X193040000Y-226060000D02*
X192049499Y-227050501D01*
X183478824Y-227050501D02*
X182056358Y-228472967D01*
X192049499Y-227050501D02*
X183478824Y-227050501D01*
X182056358Y-228472967D02*
X181036640Y-228472967D01*
X181036640Y-228472967D02*
X179639642Y-227075967D01*
X158495967Y-227075967D02*
X157480000Y-226060000D01*
X179639642Y-227075967D02*
X158495967Y-227075967D01*
X319190001Y-67730001D02*
X320040000Y-68580000D01*
X320040000Y-53340000D02*
X318999499Y-54380501D01*
X318999499Y-54380501D02*
X318999499Y-67539499D01*
X318999499Y-67539499D02*
X319190001Y-67730001D01*
X316484000Y-49784000D02*
X320040000Y-53340000D01*
X270510000Y-49784000D02*
X316484000Y-49784000D01*
X302260000Y-147320000D02*
X299085000Y-144145000D01*
X299085000Y-144145000D02*
X270671510Y-144145000D01*
X270671510Y-144145000D02*
X270510000Y-144306510D01*
X260223011Y-119252989D02*
X264646214Y-119252989D01*
X264646214Y-119252989D02*
X264900225Y-119507000D01*
X264900225Y-119507000D02*
X270191802Y-119507000D01*
X259969000Y-119507000D02*
X260223011Y-119252989D01*
X270191802Y-119507000D02*
X270510000Y-119507000D01*
X321080501Y-131039499D02*
X320889999Y-131230001D01*
X321080501Y-117880501D02*
X321080501Y-131039499D01*
X320040000Y-116840000D02*
X321080501Y-117880501D01*
X320889999Y-131230001D02*
X320040000Y-132080000D01*
X321080501Y-115799499D02*
X320889999Y-115990001D01*
X321080501Y-102640501D02*
X321080501Y-115799499D01*
X320040000Y-101600000D02*
X321080501Y-102640501D01*
X320889999Y-115990001D02*
X320040000Y-116840000D01*
X321080501Y-100559499D02*
X320889999Y-100750001D01*
X321080501Y-87400501D02*
X321080501Y-100559499D01*
X320040000Y-86360000D02*
X321080501Y-87400501D01*
X320889999Y-100750001D02*
X320040000Y-101600000D01*
X321080501Y-85319499D02*
X320889999Y-85510001D01*
X321080501Y-72160501D02*
X321080501Y-85319499D01*
X320040000Y-71120000D02*
X321080501Y-72160501D01*
X320889999Y-85510001D02*
X320040000Y-86360000D01*
X260477000Y-258064000D02*
X260985000Y-258572000D01*
X236220000Y-256540000D02*
X237744000Y-258064000D01*
X237744000Y-258064000D02*
X260477000Y-258064000D01*
X260477000Y-217424000D02*
X260985000Y-217932000D01*
X236220000Y-215900000D02*
X237744000Y-217424000D01*
X237744000Y-217424000D02*
X260477000Y-217424000D01*
X270510000Y-265430000D02*
X267843000Y-268097000D01*
X267843000Y-268097000D02*
X258572000Y-268097000D01*
X258572000Y-268097000D02*
X253873000Y-272796000D01*
X237934500Y-275145500D02*
X242252500Y-275145500D01*
X237934500Y-275145500D02*
X236220000Y-276860000D01*
X242252500Y-275145500D02*
X244602000Y-272796000D01*
X253873000Y-272796000D02*
X244602000Y-272796000D01*
X260477000Y-237744000D02*
X260985000Y-238252000D01*
X237744000Y-237744000D02*
X260477000Y-237744000D01*
X236220000Y-236220000D02*
X237744000Y-237744000D01*
X270637000Y-61341000D02*
X271145000Y-61849000D01*
X251841000Y-61341000D02*
X270637000Y-61341000D01*
X248920000Y-58420000D02*
X251841000Y-61341000D01*
X248920000Y-45720000D02*
X251968000Y-48768000D01*
X270637000Y-48768000D02*
X271145000Y-49276000D01*
X251968000Y-48768000D02*
X270637000Y-48768000D01*
X194335488Y-227304512D02*
X183584038Y-227304512D01*
X183584038Y-227304512D02*
X182161572Y-228726978D01*
X195580000Y-226060000D02*
X194335488Y-227304512D01*
X182161572Y-228726978D02*
X180931425Y-228726977D01*
X180931425Y-228726977D02*
X179534428Y-227329978D01*
X160274022Y-227329978D02*
X160020000Y-227584000D01*
X179534428Y-227329978D02*
X160274022Y-227329978D01*
X321080501Y-70079499D02*
X320889999Y-70270001D01*
X320040000Y-55880000D02*
X321080501Y-56920501D01*
X320889999Y-70270001D02*
X320040000Y-71120000D01*
X321080501Y-56920501D02*
X321080501Y-70079499D01*
X320889999Y-55030001D02*
X320040000Y-55880000D01*
X321080501Y-52840559D02*
X321080501Y-54839499D01*
X321080501Y-54839499D02*
X320889999Y-55030001D01*
X317515942Y-49276000D02*
X321080501Y-52840559D01*
X271145000Y-49276000D02*
X317515942Y-49276000D01*
X299720000Y-147320000D02*
X296799000Y-144399000D01*
X296799000Y-144399000D02*
X271306510Y-144399000D01*
X271306510Y-144399000D02*
X271145000Y-144560510D01*
X260193999Y-119917001D02*
X261209999Y-119917001D01*
X259969000Y-120142000D02*
X260193999Y-119917001D01*
X261209999Y-119917001D02*
X261620000Y-119507000D01*
X264541000Y-119507000D02*
X265049000Y-120015000D01*
X261620000Y-119507000D02*
X264541000Y-119507000D01*
X265049000Y-120015000D02*
X271145000Y-120015000D01*
X322580000Y-114300000D02*
X321539499Y-115340501D01*
X321539499Y-115340501D02*
X321539499Y-128499499D01*
X321730001Y-128690001D02*
X322580000Y-129540000D01*
X321539499Y-128499499D02*
X321730001Y-128690001D01*
X322580000Y-99060000D02*
X321539499Y-100100501D01*
X321539499Y-100100501D02*
X321539499Y-113259499D01*
X321730001Y-113450001D02*
X322580000Y-114300000D01*
X321539499Y-113259499D02*
X321730001Y-113450001D01*
X322580000Y-83820000D02*
X321539499Y-84860501D01*
X321539499Y-84860501D02*
X321539499Y-98019499D01*
X321730001Y-98210001D02*
X322580000Y-99060000D01*
X321539499Y-98019499D02*
X321730001Y-98210001D01*
X322580000Y-68580000D02*
X321539499Y-69620501D01*
X321539499Y-69620501D02*
X321539499Y-82779499D01*
X321730001Y-82970001D02*
X322580000Y-83820000D01*
X321539499Y-82779499D02*
X321730001Y-82970001D01*
X261366000Y-257810000D02*
X261620000Y-258064000D01*
X240030000Y-257810000D02*
X261366000Y-257810000D01*
X238760000Y-256540000D02*
X240030000Y-257810000D01*
X261366000Y-217170000D02*
X261620000Y-217424000D01*
X240030000Y-217170000D02*
X261366000Y-217170000D01*
X238760000Y-215900000D02*
X240030000Y-217170000D01*
X264541000Y-120523000D02*
X263346499Y-121717501D01*
X270129000Y-268351000D02*
X273050000Y-265430000D01*
X258699000Y-268351000D02*
X270129000Y-268351000D01*
X254000000Y-273050000D02*
X258699000Y-268351000D01*
X238760000Y-276860000D02*
X240157000Y-275463000D01*
X240157000Y-275463000D02*
X242316000Y-275463000D01*
X242316000Y-275463000D02*
X244729000Y-273050000D01*
X254000000Y-273050000D02*
X244729000Y-273050000D01*
X238760000Y-236220000D02*
X240030000Y-237490000D01*
X240030000Y-237490000D02*
X261366000Y-237490000D01*
X261366000Y-237490000D02*
X261620000Y-237744000D01*
X271526000Y-61087000D02*
X271780000Y-61341000D01*
X251460000Y-58420000D02*
X254127000Y-61087000D01*
X254127000Y-61087000D02*
X271526000Y-61087000D01*
X251460000Y-45720000D02*
X254254000Y-48514000D01*
X254254000Y-48514000D02*
X271526000Y-48514000D01*
X271526000Y-48514000D02*
X271780000Y-48768000D01*
X179429214Y-227583989D02*
X167894011Y-227583989D01*
X201701477Y-227558523D02*
X183689252Y-227558523D01*
X183689252Y-227558523D02*
X182266786Y-228980989D01*
X182266786Y-228980989D02*
X180826213Y-228980989D01*
X180826213Y-228980989D02*
X179429214Y-227583989D01*
X167894011Y-227583989D02*
X167640000Y-227838000D01*
X203200000Y-226060000D02*
X201701477Y-227558523D01*
X321730001Y-67730001D02*
X322580000Y-68580000D01*
X322580000Y-53340000D02*
X321539499Y-54380501D01*
X321539499Y-54380501D02*
X321539499Y-67539499D01*
X321539499Y-67539499D02*
X321730001Y-67730001D01*
X318008000Y-48768000D02*
X322580000Y-53340000D01*
X271780000Y-48768000D02*
X318008000Y-48768000D01*
X271941510Y-144653000D02*
X271780000Y-144814510D01*
X289433000Y-144653000D02*
X271941510Y-144653000D01*
X292100000Y-147320000D02*
X289433000Y-144653000D01*
X271780000Y-120523000D02*
X264541000Y-120523000D01*
X261268725Y-121717501D02*
X263346499Y-121717501D01*
X260328224Y-120777000D02*
X261268725Y-121717501D01*
X259969000Y-120777000D02*
X260328224Y-120777000D01*
X322580000Y-116840000D02*
X323620501Y-117880501D01*
X323620501Y-131039499D02*
X323429999Y-131230001D01*
X323429999Y-131230001D02*
X322580000Y-132080000D01*
X323620501Y-117880501D02*
X323620501Y-131039499D01*
X322580000Y-101600000D02*
X323620501Y-102640501D01*
X323620501Y-115799499D02*
X323429999Y-115990001D01*
X323429999Y-115990001D02*
X322580000Y-116840000D01*
X323620501Y-102640501D02*
X323620501Y-115799499D01*
X322580000Y-86360000D02*
X323620501Y-87400501D01*
X323620501Y-100559499D02*
X323429999Y-100750001D01*
X323429999Y-100750001D02*
X322580000Y-101600000D01*
X323620501Y-87400501D02*
X323620501Y-100559499D01*
X322580000Y-71120000D02*
X323620501Y-72160501D01*
X323620501Y-85319499D02*
X323429999Y-85510001D01*
X323429999Y-85510001D02*
X322580000Y-86360000D01*
X323620501Y-72160501D02*
X323620501Y-85319499D01*
X241300000Y-256540000D02*
X242290501Y-257530501D01*
X242290501Y-257530501D02*
X262229501Y-257530501D01*
X262229501Y-257530501D02*
X262255000Y-257556000D01*
X241300000Y-215900000D02*
X242290501Y-216890501D01*
X242290501Y-216890501D02*
X262229501Y-216890501D01*
X262229501Y-216890501D02*
X262255000Y-216916000D01*
X275590000Y-265430000D02*
X272415000Y-268605000D01*
X272415000Y-268605000D02*
X258826000Y-268605000D01*
X244856000Y-273304000D02*
X241300000Y-276860000D01*
X254127000Y-273304000D02*
X244856000Y-273304000D01*
X258826000Y-268605000D02*
X254127000Y-273304000D01*
X262229501Y-237210501D02*
X262255000Y-237236000D01*
X242290501Y-237210501D02*
X262229501Y-237210501D01*
X241300000Y-236220000D02*
X242290501Y-237210501D01*
X254000000Y-58420000D02*
X256413000Y-60833000D01*
X256413000Y-60833000D02*
X272415000Y-60833000D01*
X254000000Y-45720000D02*
X256540000Y-48260000D01*
X272101198Y-48294510D02*
X272419396Y-48294510D01*
X272066688Y-48260000D02*
X272101198Y-48294510D01*
X203962000Y-227838000D02*
X205740000Y-226060000D01*
X183769000Y-227838000D02*
X203962000Y-227838000D01*
X182372000Y-229235000D02*
X183769000Y-227838000D01*
X180721000Y-229235000D02*
X182372000Y-229235000D01*
X179323999Y-227837999D02*
X180721000Y-229235000D01*
X170434001Y-227837999D02*
X179323999Y-227837999D01*
X170272501Y-227999499D02*
X170434001Y-227837999D01*
X170178664Y-227999499D02*
X170272501Y-227999499D01*
X256540000Y-48260000D02*
X272066688Y-48260000D01*
X323620501Y-70079499D02*
X323429999Y-70270001D01*
X322580000Y-55880000D02*
X323620501Y-56920501D01*
X323429999Y-70270001D02*
X322580000Y-71120000D01*
X323620501Y-56920501D02*
X323620501Y-70079499D01*
X272419396Y-48294510D02*
X319439510Y-48294510D01*
X323429999Y-55030001D02*
X322580000Y-55880000D01*
X323620501Y-54839499D02*
X323429999Y-55030001D01*
X323620501Y-52475501D02*
X323620501Y-54839499D01*
X319439510Y-48294510D02*
X323620501Y-52475501D01*
X272733198Y-145068510D02*
X272415000Y-145068510D01*
X289560000Y-147320000D02*
X287219499Y-144979499D01*
X287219499Y-144979499D02*
X272822209Y-144979499D01*
X272822209Y-144979499D02*
X272733198Y-145068510D01*
X261239000Y-122047000D02*
X263398000Y-122047000D01*
X259969000Y-121412000D02*
X260604000Y-121412000D01*
X264414000Y-121031000D02*
X272415000Y-121031000D01*
X263398000Y-122047000D02*
X264414000Y-121031000D01*
X260604000Y-121412000D02*
X261239000Y-122047000D01*
X214034001Y-82970001D02*
X215050001Y-82970001D01*
X215050001Y-82970001D02*
X215900000Y-83820000D01*
X212598031Y-81534031D02*
X214034001Y-82970001D01*
X161670969Y-81534031D02*
X161670969Y-81533969D01*
X161670969Y-81534031D02*
X212598031Y-81534031D01*
X153898523Y-80238523D02*
X153199999Y-79539999D01*
X160375523Y-80238523D02*
X153898523Y-80238523D01*
X153199999Y-79539999D02*
X152400000Y-78740000D01*
X161670969Y-81533969D02*
X160375523Y-80238523D01*
X215900000Y-83820000D02*
X213639499Y-86080501D01*
X152108501Y-86080501D02*
X149854000Y-83826000D01*
X213639499Y-86080501D02*
X152108501Y-86080501D01*
X214100223Y-82677000D02*
X212703243Y-81280020D01*
X161776245Y-81280020D02*
X160480737Y-79984512D01*
X156184512Y-79984512D02*
X155739999Y-79539999D01*
X218440000Y-83820000D02*
X217297000Y-82677000D01*
X212703243Y-81280020D02*
X161776245Y-81280020D01*
X160480737Y-79984512D02*
X156184512Y-79984512D01*
X217297000Y-82677000D02*
X214100223Y-82677000D01*
X155739999Y-79539999D02*
X154940000Y-78740000D01*
X215900000Y-86360000D02*
X152654000Y-86360000D01*
X152654000Y-86360000D02*
X152400000Y-86614000D01*
X218440000Y-83820000D02*
X215900000Y-86360000D01*
X212808457Y-81026009D02*
X161946785Y-81026009D01*
X219582989Y-82422989D02*
X214205437Y-82422989D01*
X220980000Y-83820000D02*
X219582989Y-82422989D01*
X158279999Y-79539999D02*
X157480000Y-78740000D01*
X161946785Y-81026009D02*
X160651277Y-79730501D01*
X214205437Y-82422989D02*
X212808457Y-81026009D01*
X160651277Y-79730501D02*
X158470501Y-79730501D01*
X158470501Y-79730501D02*
X158279999Y-79539999D01*
X155194000Y-86614000D02*
X154940000Y-86868000D01*
X220980000Y-83820000D02*
X218186000Y-86614000D01*
X218186000Y-86614000D02*
X155194000Y-86614000D01*
X221868978Y-82168978D02*
X223520000Y-83820000D01*
X212913643Y-80771969D02*
X214310650Y-82168978D01*
X214310650Y-82168978D02*
X221868978Y-82168978D01*
X162051969Y-80771969D02*
X212913643Y-80771969D01*
X160020000Y-78740000D02*
X162051969Y-80771969D01*
X157734000Y-86868000D02*
X157480000Y-87122000D01*
X220472000Y-86868000D02*
X157734000Y-86868000D01*
X223520000Y-83820000D02*
X220472000Y-86868000D01*
X222910392Y-81914967D02*
X214415864Y-81914967D01*
X225044077Y-82804077D02*
X223799502Y-82804077D01*
X213018855Y-80517958D02*
X184657958Y-80517958D01*
X183679999Y-79539999D02*
X182880000Y-78740000D01*
X214415864Y-81914967D02*
X213018855Y-80517958D01*
X226060000Y-83820000D02*
X225044077Y-82804077D01*
X223799502Y-82804077D02*
X222910392Y-81914967D01*
X184657958Y-80517958D02*
X183679999Y-79539999D01*
X222758000Y-87122000D02*
X160274000Y-87122000D01*
X160274000Y-87122000D02*
X160020000Y-87376000D01*
X226060000Y-83820000D02*
X222758000Y-87122000D01*
X213124069Y-80263947D02*
X214521078Y-81660956D01*
X223904716Y-82550066D02*
X227330066Y-82550066D01*
X186943947Y-80263947D02*
X213124069Y-80263947D01*
X214521078Y-81660956D02*
X223015606Y-81660956D01*
X185420000Y-78740000D02*
X186943947Y-80263947D01*
X227330066Y-82550066D02*
X227750001Y-82970001D01*
X223015606Y-81660956D02*
X223904716Y-82550066D01*
X227750001Y-82970001D02*
X228600000Y-83820000D01*
X225044000Y-87376000D02*
X162814000Y-87376000D01*
X228600000Y-83820000D02*
X225044000Y-87376000D01*
X162814000Y-87376000D02*
X162560000Y-87630000D01*
X214626292Y-81406945D02*
X213229283Y-80009936D01*
X229616055Y-82296055D02*
X224009930Y-82296055D01*
X231140000Y-83820000D02*
X229616055Y-82296055D01*
X224009930Y-82296055D02*
X223120820Y-81406945D01*
X189229936Y-80009936D02*
X188759999Y-79539999D01*
X213229283Y-80009936D02*
X189229936Y-80009936D01*
X223120820Y-81406945D02*
X214626292Y-81406945D01*
X188759999Y-79539999D02*
X187960000Y-78740000D01*
X231140000Y-83820000D02*
X227330000Y-87630000D01*
X165354000Y-87630000D02*
X165100000Y-87884000D01*
X227330000Y-87630000D02*
X165354000Y-87630000D01*
X213334497Y-79755925D02*
X191515925Y-79755925D01*
X233680000Y-83820000D02*
X231902044Y-82042044D01*
X191299999Y-79539999D02*
X190500000Y-78740000D01*
X191515925Y-79755925D02*
X191299999Y-79539999D01*
X224115144Y-82042044D02*
X223226034Y-81152934D01*
X214731506Y-81152934D02*
X213334497Y-79755925D01*
X231902044Y-82042044D02*
X224115144Y-82042044D01*
X223226034Y-81152934D02*
X214731506Y-81152934D01*
X233680000Y-83820000D02*
X229616000Y-87884000D01*
X167894000Y-87884000D02*
X167640000Y-88138000D01*
X229616000Y-87884000D02*
X167894000Y-87884000D01*
X223331248Y-80898923D02*
X215518923Y-80898923D01*
X234188033Y-81788033D02*
X224220358Y-81788033D01*
X236220000Y-83820000D02*
X234188033Y-81788033D01*
X224220358Y-81788033D02*
X223331248Y-80898923D01*
X214159999Y-79539999D02*
X213360000Y-78740000D01*
X215518923Y-80898923D02*
X214159999Y-79539999D01*
X236220000Y-83820000D02*
X231902000Y-88138000D01*
X185674000Y-88138000D02*
X185420000Y-88392000D01*
X231902000Y-88138000D02*
X185674000Y-88138000D01*
X223436462Y-80644912D02*
X224325572Y-81534022D01*
X217804912Y-80644912D02*
X223436462Y-80644912D01*
X215900000Y-78740000D02*
X217804912Y-80644912D01*
X224325572Y-81534022D02*
X236474022Y-81534022D01*
X237910001Y-82970001D02*
X238760000Y-83820000D01*
X236474022Y-81534022D02*
X237910001Y-82970001D01*
X238760000Y-83820000D02*
X234188000Y-88392000D01*
X188214000Y-88392000D02*
X187960000Y-88646000D01*
X234188000Y-88392000D02*
X188214000Y-88392000D01*
X241300000Y-83820000D02*
X238760011Y-81280011D01*
X238760011Y-81280011D02*
X224430786Y-81280011D01*
X224430786Y-81280011D02*
X223541687Y-80390912D01*
X223541687Y-80390912D02*
X220090912Y-80390912D01*
X220090912Y-80390912D02*
X219239999Y-79539999D01*
X219239999Y-79539999D02*
X218440000Y-78740000D01*
X241300000Y-83820000D02*
X236474000Y-88646000D01*
X190754000Y-88646000D02*
X190500000Y-88900000D01*
X236474000Y-88646000D02*
X190754000Y-88646000D01*
X222376912Y-80136912D02*
X221779999Y-79539999D01*
X241046000Y-81026000D02*
X224536000Y-81026000D01*
X224536000Y-81025824D02*
X223647088Y-80136912D01*
X221779999Y-79539999D02*
X220980000Y-78740000D01*
X224536000Y-81026000D02*
X224536000Y-81025824D01*
X223647088Y-80136912D02*
X222376912Y-80136912D01*
X243840000Y-83820000D02*
X241046000Y-81026000D01*
X243840000Y-83820000D02*
X238760000Y-88900000D01*
X193294000Y-88900000D02*
X193040000Y-89154000D01*
X238760000Y-88900000D02*
X193294000Y-88900000D01*
X246380000Y-81280000D02*
X243840000Y-78740000D01*
X246380000Y-83820000D02*
X246380000Y-81280000D01*
X246380000Y-83820000D02*
X241046000Y-89154000D01*
X241046000Y-89154000D02*
X214630000Y-89154000D01*
X212703499Y-91080501D02*
X211476501Y-91080501D01*
X214630000Y-89154000D02*
X212703499Y-91080501D01*
X211476501Y-91080501D02*
X209550000Y-89154000D01*
X195834000Y-89154000D02*
X195580000Y-89408000D01*
X209550000Y-89154000D02*
X195834000Y-89154000D01*
X248920000Y-81280000D02*
X246380000Y-78740000D01*
X248920000Y-83820000D02*
X248920000Y-81280000D01*
X248920000Y-83820000D02*
X243332000Y-89408000D01*
X243332000Y-89408000D02*
X214757000Y-89408000D01*
X212830224Y-91313000D02*
X212808713Y-91334511D01*
X212852000Y-91313000D02*
X212830224Y-91313000D01*
X214757000Y-89408000D02*
X212852000Y-91313000D01*
X212808713Y-91334511D02*
X211349511Y-91334511D01*
X211349511Y-91334511D02*
X209423000Y-89408000D01*
X198374000Y-89408000D02*
X198120000Y-89662000D01*
X209423000Y-89408000D02*
X198374000Y-89408000D01*
X251460000Y-81280000D02*
X248920000Y-78740000D01*
X251460000Y-83820000D02*
X251460000Y-81280000D01*
X251460000Y-83820000D02*
X245618000Y-89662000D01*
X245618000Y-89662000D02*
X214884000Y-89662000D01*
X212935448Y-91567000D02*
X212913927Y-91588521D01*
X212979000Y-91567000D02*
X212935448Y-91567000D01*
X214884000Y-89662000D02*
X212979000Y-91567000D01*
X212913927Y-91588521D02*
X211222521Y-91588521D01*
X211222521Y-91588521D02*
X209296000Y-89662000D01*
X200914000Y-89662000D02*
X200660000Y-89916000D01*
X209296000Y-89662000D02*
X200914000Y-89662000D01*
X254000000Y-81280000D02*
X251460000Y-78740000D01*
X254000000Y-83820000D02*
X254000000Y-81280000D01*
X254000000Y-83820000D02*
X247904000Y-89916000D01*
X247904000Y-89916000D02*
X215011000Y-89916000D01*
X213106000Y-91821000D02*
X213040672Y-91821000D01*
X213040672Y-91821000D02*
X213019141Y-91842531D01*
X215011000Y-89916000D02*
X213106000Y-91821000D01*
X213019141Y-91842531D02*
X211095531Y-91842531D01*
X211095531Y-91842531D02*
X209169000Y-89916000D01*
X203454000Y-89916000D02*
X203200000Y-90170000D01*
X209169000Y-89916000D02*
X203454000Y-89916000D01*
X200660000Y-165100000D02*
X199263000Y-163703000D01*
X156083000Y-163703000D02*
X149860000Y-157480000D01*
X199263000Y-163703000D02*
X156083000Y-163703000D01*
X199306572Y-165925482D02*
X199834518Y-165925482D01*
X197320001Y-167912051D02*
X199306572Y-165925482D01*
X199771000Y-179451000D02*
X197320001Y-177000001D01*
X197320001Y-177000001D02*
X197320001Y-167912051D01*
X199834518Y-165925482D02*
X200660000Y-165100000D01*
X204831200Y-179451000D02*
X199771000Y-179451000D01*
X210810200Y-185430000D02*
X204831200Y-179451000D01*
X152400000Y-157480000D02*
X158369000Y-163449000D01*
X201549000Y-163449000D02*
X203200000Y-165100000D01*
X158369000Y-163449000D02*
X201549000Y-163449000D01*
X199898000Y-179197000D02*
X197612000Y-176911000D01*
X207117200Y-179197000D02*
X199898000Y-179197000D01*
X213350200Y-185430000D02*
X207117200Y-179197000D01*
X162560000Y-183642000D02*
X162560000Y-185430000D01*
X203200000Y-165100000D02*
X203073000Y-165100000D01*
X203073000Y-165100000D02*
X201993510Y-166179490D01*
X201993510Y-166179490D02*
X199411785Y-166179491D01*
X197612000Y-167979276D02*
X197612000Y-176911000D01*
X199411785Y-166179491D02*
X197612000Y-167979276D01*
X205740000Y-165100000D02*
X203835000Y-163195000D01*
X160655000Y-163195000D02*
X154940000Y-157480000D01*
X203835000Y-163195000D02*
X160655000Y-163195000D01*
X200025000Y-178943000D02*
X197866000Y-176784000D01*
X209403200Y-178943000D02*
X200025000Y-178943000D01*
X215890200Y-185430000D02*
X209403200Y-178943000D01*
X165100000Y-183388000D02*
X165100000Y-185430000D01*
X205740000Y-165100000D02*
X204406500Y-166433500D01*
X204406500Y-166433500D02*
X199517000Y-166433500D01*
X197866000Y-168084500D02*
X197866000Y-176784000D01*
X199517000Y-166433500D02*
X197866000Y-168084500D01*
X162941000Y-162941000D02*
X206121000Y-162941000D01*
X206121000Y-162941000D02*
X208280000Y-165100000D01*
X157480000Y-157480000D02*
X162941000Y-162941000D01*
X167640000Y-183134000D02*
X167640000Y-185430000D01*
X199622213Y-166687511D02*
X198120000Y-168189724D01*
X206692489Y-166687511D02*
X199622213Y-166687511D01*
X211689200Y-178689000D02*
X218430200Y-185430000D01*
X200152000Y-178689000D02*
X211689200Y-178689000D01*
X198120000Y-176657000D02*
X200152000Y-178689000D01*
X208280000Y-165100000D02*
X206692489Y-166687511D01*
X198120000Y-168189724D02*
X198120000Y-176657000D01*
X210820000Y-165100000D02*
X208407000Y-162687000D01*
X165227000Y-162687000D02*
X160020000Y-157480000D01*
X208407000Y-162687000D02*
X165227000Y-162687000D01*
X170180000Y-182880000D02*
X170180000Y-185430000D01*
X208978478Y-166941522D02*
X199727426Y-166941522D01*
X200279000Y-178435000D02*
X213975200Y-178435000D01*
X198374011Y-176530011D02*
X200279000Y-178435000D01*
X210820000Y-165100000D02*
X208978478Y-166941522D01*
X199727426Y-166941522D02*
X198374011Y-168294937D01*
X213975200Y-178435000D02*
X220970200Y-185430000D01*
X198374011Y-168294937D02*
X198374011Y-176530011D01*
X162560000Y-157480000D02*
X167513000Y-162433000D01*
X210693000Y-162433000D02*
X213360000Y-165100000D01*
X167513000Y-162433000D02*
X210693000Y-162433000D01*
X172720000Y-182626000D02*
X172720000Y-185430000D01*
X198628022Y-168401978D02*
X199796400Y-167233600D01*
X216261200Y-178181000D02*
X200406000Y-178181000D01*
X223510200Y-185430000D02*
X216261200Y-178181000D01*
X212560001Y-165899999D02*
X213360000Y-165100000D01*
X198628022Y-176403022D02*
X198628022Y-168401978D01*
X199796400Y-167233600D02*
X211226400Y-167233600D01*
X200406000Y-178181000D02*
X198628022Y-176403022D01*
X211226400Y-167233600D02*
X212560001Y-165899999D01*
X215900000Y-165100000D02*
X212979000Y-162179000D01*
X169799000Y-162179000D02*
X165100000Y-157480000D01*
X212979000Y-162179000D02*
X169799000Y-162179000D01*
X200532978Y-177926978D02*
X198882022Y-176276022D01*
X218547178Y-177926978D02*
X200532978Y-177926978D01*
X226050200Y-185430000D02*
X218547178Y-177926978D01*
X175260000Y-182372000D02*
X175260000Y-185430000D01*
X198882022Y-176276022D02*
X198882022Y-168528978D01*
X198882022Y-168528978D02*
X199923400Y-167487600D01*
X213512400Y-167487600D02*
X215900000Y-165100000D01*
X199923400Y-167487600D02*
X213512400Y-167487600D01*
X167640000Y-157480000D02*
X172085000Y-161925000D01*
X215265000Y-161925000D02*
X218440000Y-165100000D01*
X172085000Y-161925000D02*
X215265000Y-161925000D01*
X177800000Y-182118000D02*
X177800000Y-185430000D01*
X200025033Y-167766967D02*
X215773033Y-167766967D01*
X215773033Y-167766967D02*
X218440000Y-165100000D01*
X199136033Y-168655967D02*
X200025033Y-167766967D01*
X200638191Y-177672967D02*
X199136033Y-176170809D01*
X220833167Y-177672967D02*
X200638191Y-177672967D01*
X199136033Y-176170809D02*
X199136033Y-168655967D01*
X228590200Y-185430000D02*
X220833167Y-177672967D01*
X236220000Y-165100000D02*
X232791000Y-161671000D01*
X174371000Y-161671000D02*
X170180000Y-157480000D01*
X232791000Y-161671000D02*
X174371000Y-161671000D01*
X239585500Y-166306500D02*
X237426500Y-166306500D01*
X226069000Y-190495800D02*
X228477800Y-188087000D01*
X237426500Y-166306500D02*
X236220000Y-165100000D01*
X228477800Y-188087000D02*
X241427000Y-188087000D01*
X242062000Y-187452000D02*
X242062000Y-168783000D01*
X241427000Y-188087000D02*
X242062000Y-187452000D01*
X242062000Y-168783000D02*
X239585500Y-166306500D01*
X172720000Y-157480000D02*
X176657000Y-161417000D01*
X235077000Y-161417000D02*
X238760000Y-165100000D01*
X176657000Y-161417000D02*
X235077000Y-161417000D01*
X228609000Y-190495800D02*
X230763800Y-188341000D01*
X242316000Y-187579000D02*
X242316000Y-168656000D01*
X242316000Y-168656000D02*
X238760000Y-165100000D01*
X241554000Y-188341000D02*
X242316000Y-187579000D01*
X230763800Y-188341000D02*
X241554000Y-188341000D01*
X241300000Y-165100000D02*
X237363000Y-161163000D01*
X178943000Y-161163000D02*
X175260000Y-157480000D01*
X237363000Y-161163000D02*
X178943000Y-161163000D01*
X242570000Y-168529000D02*
X241300000Y-167259000D01*
X233049800Y-188595000D02*
X241681000Y-188595000D01*
X242570000Y-187706000D02*
X242570000Y-168529000D01*
X241300000Y-167259000D02*
X241300000Y-165100000D01*
X241681000Y-188595000D02*
X242570000Y-187706000D01*
X231149000Y-190495800D02*
X233049800Y-188595000D01*
X177800000Y-157480000D02*
X181229000Y-160909000D01*
X239649000Y-160909000D02*
X243840000Y-165100000D01*
X181229000Y-160909000D02*
X239649000Y-160909000D01*
X233689000Y-190495800D02*
X235335800Y-188849000D01*
X242824000Y-168084500D02*
X243840000Y-167068500D01*
X235335800Y-188849000D02*
X241808000Y-188849000D01*
X241808000Y-188849000D02*
X242824000Y-187833000D01*
X243840000Y-167068500D02*
X243840000Y-165100000D01*
X242824000Y-187833000D02*
X242824000Y-168084500D01*
X246380000Y-165100000D02*
X241935000Y-160655000D01*
X183515000Y-160655000D02*
X180340000Y-157480000D01*
X241935000Y-160655000D02*
X183515000Y-160655000D01*
X243078000Y-187960000D02*
X241935000Y-189103000D01*
X244411500Y-166878000D02*
X243078000Y-168211500D01*
X246380000Y-165100000D02*
X244602000Y-166878000D01*
X243078000Y-168211500D02*
X243078000Y-187960000D01*
X244602000Y-166878000D02*
X244411500Y-166878000D01*
X241935000Y-189103000D02*
X237621800Y-189103000D01*
X237621800Y-189103000D02*
X236229000Y-190495800D01*
X182880000Y-157480000D02*
X185801000Y-160401000D01*
X244221000Y-160401000D02*
X248920000Y-165100000D01*
X185801000Y-160401000D02*
X244221000Y-160401000D01*
X242062000Y-189357000D02*
X243332000Y-188087000D01*
X244538500Y-167132000D02*
X246888000Y-167132000D01*
X246888000Y-167132000D02*
X248920000Y-165100000D01*
X243332000Y-168338500D02*
X244538500Y-167132000D01*
X243332000Y-188087000D02*
X243332000Y-168338500D01*
X239568999Y-189691001D02*
X239903000Y-189357000D01*
X238769000Y-190495800D02*
X239568999Y-189695801D01*
X239903000Y-189357000D02*
X242062000Y-189357000D01*
X239568999Y-189695801D02*
X239568999Y-189691001D01*
X251460000Y-165100000D02*
X246507000Y-160147000D01*
X188087000Y-160147000D02*
X185420000Y-157480000D01*
X246507000Y-160147000D02*
X188087000Y-160147000D01*
X249174000Y-167386000D02*
X251460000Y-165100000D01*
X241309000Y-190495800D02*
X243586000Y-188218800D01*
X243586000Y-188218800D02*
X243586000Y-168465500D01*
X243586000Y-168465500D02*
X244665500Y-167386000D01*
X244665500Y-167386000D02*
X249174000Y-167386000D01*
X187960000Y-157480000D02*
X190373000Y-159893000D01*
X248793000Y-159893000D02*
X254000000Y-165100000D01*
X190373000Y-159893000D02*
X248793000Y-159893000D01*
X243840000Y-190486800D02*
X243849000Y-190495800D01*
X243840000Y-168592500D02*
X244792500Y-167640000D01*
X251460000Y-167640000D02*
X254000000Y-165100000D01*
X244792500Y-167640000D02*
X251460000Y-167640000D01*
X243849000Y-190495800D02*
X243840000Y-168592500D01*
X226069000Y-208271000D02*
X226060000Y-208280000D01*
X226069000Y-198115800D02*
X226069000Y-208271000D01*
X228609000Y-208271000D02*
X228600000Y-208280000D01*
X228609000Y-198115800D02*
X228609000Y-208271000D01*
X231149000Y-208271000D02*
X231140000Y-208280000D01*
X231149000Y-198115800D02*
X231149000Y-208271000D01*
X211455000Y-241300000D02*
X208428775Y-241300000D01*
X231140000Y-208280000D02*
X229616000Y-209804000D01*
X208428775Y-241300000D02*
X202784498Y-246944277D01*
X218821000Y-210947000D02*
X218821000Y-233934000D01*
X219964000Y-209804000D02*
X218821000Y-210947000D01*
X201459999Y-263360001D02*
X200660000Y-264160000D01*
X218821000Y-233934000D02*
X211455000Y-241300000D01*
X202784498Y-246944277D02*
X202784498Y-262035502D01*
X229616000Y-209804000D02*
X219964000Y-209804000D01*
X202784498Y-262035502D02*
X201459999Y-263360001D01*
X203454000Y-274447000D02*
X200533000Y-277368000D01*
X185420000Y-277368000D02*
X182372000Y-274320000D01*
X182372000Y-274320000D02*
X182372000Y-264414000D01*
X182372000Y-264414000D02*
X182626000Y-264160000D01*
X200660000Y-264160000D02*
X203454000Y-266954000D01*
X203454000Y-266954000D02*
X203454000Y-274447000D01*
X200533000Y-277368000D02*
X185420000Y-277368000D01*
X233689000Y-208271000D02*
X233680000Y-208280000D01*
X233689000Y-198115800D02*
X233689000Y-208271000D01*
X231902000Y-210058000D02*
X233680000Y-208280000D01*
X219075000Y-211074000D02*
X220091000Y-210058000D01*
X219075000Y-234061000D02*
X219075000Y-211074000D01*
X220091000Y-210058000D02*
X231902000Y-210058000D01*
X208534000Y-241554000D02*
X211582000Y-241554000D01*
X203073000Y-247015000D02*
X208534000Y-241554000D01*
X203073000Y-261366000D02*
X203073000Y-247015000D01*
X211582000Y-241554000D02*
X219075000Y-234061000D01*
X203200000Y-261493000D02*
X203073000Y-261366000D01*
X236229000Y-208271000D02*
X236220000Y-208280000D01*
X236229000Y-198115800D02*
X236229000Y-208271000D01*
X234188000Y-210312000D02*
X236220000Y-208280000D01*
X220196224Y-210312000D02*
X234188000Y-210312000D01*
X219329010Y-211179214D02*
X220196224Y-210312000D01*
X219329010Y-234187990D02*
X219329010Y-211179214D01*
X211709000Y-241808000D02*
X219329010Y-234187990D01*
X208661000Y-241808000D02*
X211709000Y-241808000D01*
X203327000Y-247142000D02*
X208661000Y-241808000D01*
X203327000Y-251206000D02*
X203327000Y-247142000D01*
X203327000Y-251206000D02*
X203581000Y-251460000D01*
X203581000Y-251460000D02*
X203581000Y-251778198D01*
X203708000Y-251905198D02*
X203708000Y-274574000D01*
X182118000Y-253238000D02*
X180340000Y-251460000D01*
X185293000Y-277622000D02*
X182118000Y-274447000D01*
X203581000Y-251778198D02*
X203708000Y-251905198D01*
X182118000Y-274447000D02*
X182118000Y-253238000D01*
X200660000Y-277622000D02*
X185293000Y-277622000D01*
X203708000Y-274574000D02*
X200660000Y-277622000D01*
X238769000Y-208271000D02*
X238760000Y-208280000D01*
X238769000Y-198115800D02*
X238769000Y-208271000D01*
X204216000Y-254000000D02*
X204216000Y-253681802D01*
X204025500Y-253491302D02*
X204025500Y-251269500D01*
X220301448Y-210566000D02*
X236474000Y-210566000D01*
X203581000Y-250825000D02*
X203581000Y-247269000D01*
X219583020Y-234314980D02*
X219583020Y-211284428D01*
X204216000Y-253681802D02*
X204025500Y-253491302D01*
X208788000Y-242062000D02*
X211836000Y-242062000D01*
X211836000Y-242062000D02*
X219583020Y-234314980D01*
X219583020Y-211284428D02*
X220301448Y-210566000D01*
X204025500Y-251269500D02*
X203581000Y-250825000D01*
X203581000Y-247269000D02*
X208788000Y-242062000D01*
X236474000Y-210566000D02*
X238760000Y-208280000D01*
X200787000Y-277876000D02*
X185166000Y-277876000D01*
X203962000Y-274701000D02*
X203962000Y-254254000D01*
X203962000Y-274701000D02*
X200787000Y-277876000D01*
X185166000Y-277876000D02*
X181864000Y-274574000D01*
X181864000Y-274574000D02*
X181864000Y-255524000D01*
X181864000Y-255524000D02*
X180340000Y-254000000D01*
X203962000Y-254254000D02*
X204216000Y-254000000D01*
X241309000Y-208271000D02*
X241300000Y-208280000D01*
X241309000Y-198115800D02*
X241309000Y-208271000D01*
X204216000Y-256286000D02*
X204470000Y-256540000D01*
X204343000Y-251206000D02*
X204343000Y-253365000D01*
X204724000Y-254127000D02*
X204216000Y-254635000D01*
X203835000Y-250698000D02*
X204343000Y-251206000D01*
X204724000Y-253746000D02*
X204724000Y-254127000D01*
X203835000Y-247396000D02*
X203835000Y-250698000D01*
X208915000Y-242316000D02*
X203835000Y-247396000D01*
X204216000Y-254635000D02*
X204216000Y-256286000D01*
X211963000Y-242316000D02*
X208915000Y-242316000D01*
X219837030Y-234441970D02*
X211963000Y-242316000D01*
X219837030Y-211389642D02*
X219837030Y-234441970D01*
X220406672Y-210820000D02*
X219837030Y-211389642D01*
X204343000Y-253365000D02*
X204724000Y-253746000D01*
X238760000Y-210820000D02*
X220406672Y-210820000D01*
X241300000Y-208280000D02*
X238760000Y-210820000D01*
X180340000Y-256540000D02*
X181610000Y-257810000D01*
X200914000Y-278130000D02*
X204216000Y-274828000D01*
X204216000Y-274828000D02*
X204216000Y-256794000D01*
X181610000Y-274701000D02*
X185039000Y-278130000D01*
X185039000Y-278130000D02*
X200914000Y-278130000D01*
X181610000Y-257810000D02*
X181610000Y-274701000D01*
X204216000Y-256794000D02*
X204470000Y-256540000D01*
X243849000Y-208271000D02*
X243840000Y-208280000D01*
X243849000Y-198115800D02*
X243849000Y-208271000D01*
X241046000Y-211074000D02*
X243840000Y-208280000D01*
X220511896Y-211074000D02*
X241046000Y-211074000D01*
X220091040Y-211494856D02*
X220511896Y-211074000D01*
X212090000Y-242570000D02*
X220091040Y-234568960D01*
X220091040Y-234568960D02*
X220091040Y-211494856D01*
X209042000Y-242570000D02*
X212090000Y-242570000D01*
X204089000Y-247523000D02*
X209042000Y-242570000D01*
X204089000Y-250571000D02*
X204089000Y-247523000D01*
X204597000Y-251079000D02*
X204089000Y-250571000D01*
X204597000Y-253238000D02*
X204597000Y-251079000D01*
X204978000Y-253619000D02*
X204597000Y-253238000D01*
X204978000Y-254254000D02*
X204978000Y-253619000D01*
X204470000Y-254762000D02*
X204978000Y-254254000D01*
X204470000Y-255905000D02*
X204470000Y-254762000D01*
X204978000Y-256413000D02*
X204470000Y-255905000D01*
X204724000Y-259080000D02*
X204948999Y-258855001D01*
X204978000Y-258826000D02*
X204724000Y-259080000D01*
X204978000Y-256413000D02*
X204978000Y-258826000D01*
X204470000Y-274955000D02*
X204470000Y-259334000D01*
X181330501Y-260070501D02*
X181330501Y-274802501D01*
X184912000Y-278384000D02*
X201041000Y-278384000D01*
X180340000Y-259080000D02*
X181330501Y-260070501D01*
X181330501Y-274802501D02*
X184912000Y-278384000D01*
X201041000Y-278384000D02*
X204470000Y-274955000D01*
X204470000Y-259334000D02*
X204724000Y-259080000D01*
X226060000Y-228600000D02*
X226060000Y-224790000D01*
X195580000Y-259080000D02*
X191804510Y-259080000D01*
X228600000Y-224790000D02*
X228600000Y-228600000D01*
X191770000Y-254000000D02*
X195580000Y-254000000D01*
X231140000Y-228600000D02*
X231140000Y-224790000D01*
X193294000Y-248920000D02*
X195580000Y-248920000D01*
X190881000Y-251333000D02*
X193294000Y-248920000D01*
X233680000Y-224790000D02*
X233680000Y-228600000D01*
X182880000Y-248920000D02*
X180340000Y-248920000D01*
X236220000Y-228600000D02*
X236220000Y-224790000D01*
X224663000Y-230378000D02*
X210242980Y-244798020D01*
X236220000Y-228600000D02*
X234442000Y-230378000D01*
X234442000Y-230378000D02*
X224663000Y-230378000D01*
X210242980Y-244798020D02*
X210242980Y-244919500D01*
X238760000Y-224790000D02*
X238760000Y-228600000D01*
X211293500Y-254000000D02*
X215900000Y-254000000D01*
X224790000Y-230632000D02*
X210658490Y-244763510D01*
X238760000Y-228600000D02*
X236728000Y-230632000D01*
X210658490Y-244763510D02*
X210658490Y-245703053D01*
X236728000Y-230632000D02*
X224790000Y-230632000D01*
X210658479Y-245703064D02*
X210658479Y-246021262D01*
X210658490Y-245703053D02*
X210658479Y-245703064D01*
X241300000Y-228600000D02*
X241300000Y-224790000D01*
X211039500Y-248920000D02*
X215900000Y-248920000D01*
X241300000Y-228600000D02*
X239014000Y-230886000D01*
X239014000Y-230886000D02*
X224917000Y-230886000D01*
X211073989Y-244729011D02*
X211073989Y-246274787D01*
X210241286Y-247107490D02*
X209296276Y-247107490D01*
X211073989Y-246274787D02*
X210241286Y-247107490D01*
X224917000Y-230886000D02*
X211073989Y-244729011D01*
X243840000Y-224790000D02*
X243840000Y-228600000D01*
X204274281Y-244866887D02*
X204274281Y-245095270D01*
X204274281Y-245095270D02*
X202530488Y-246839063D01*
X202530488Y-247049512D02*
X200660000Y-248920000D01*
X202530488Y-246839063D02*
X202530488Y-247049512D01*
X243840000Y-228600000D02*
X241300000Y-231140000D01*
X241300000Y-231140000D02*
X225044000Y-231140000D01*
X225044000Y-231140000D02*
X211328000Y-244856000D01*
X211328000Y-244856000D02*
X211328000Y-246380000D01*
X211328000Y-246380000D02*
X210185000Y-247523000D01*
X207645000Y-247523000D02*
X207518000Y-247396000D01*
X210185000Y-247523000D02*
X207645000Y-247523000D01*
X226060000Y-248920000D02*
X226060000Y-245110000D01*
X206629000Y-235331000D02*
X208280000Y-233680000D01*
X199390000Y-235331000D02*
X206629000Y-235331000D01*
X198247000Y-236474000D02*
X199390000Y-235331000D01*
X198247000Y-258953000D02*
X198247000Y-236474000D01*
X195580000Y-261620000D02*
X198247000Y-258953000D01*
X228600000Y-245110000D02*
X228600000Y-248920000D01*
X200660000Y-233680000D02*
X197993000Y-236347000D01*
X197993000Y-254127000D02*
X195580000Y-256540000D01*
X197993000Y-236347000D02*
X197993000Y-254127000D01*
X195580000Y-256540000D02*
X193074521Y-256540000D01*
X193074521Y-256540000D02*
X192947521Y-256667000D01*
X231140000Y-248920000D02*
X231140000Y-245110000D01*
X197739000Y-249301000D02*
X195580000Y-251460000D01*
X197739000Y-236220000D02*
X197739000Y-249301000D01*
X198120000Y-235839000D02*
X197739000Y-236220000D01*
X198120000Y-233680000D02*
X198120000Y-235839000D01*
X192913000Y-251460000D02*
X195580000Y-251460000D01*
X233680000Y-245110000D02*
X233680000Y-248920000D01*
X186490501Y-237689499D02*
X190500000Y-233680000D01*
X186490501Y-241156499D02*
X186490501Y-237689499D01*
X181267000Y-246380000D02*
X186490501Y-241156499D01*
X180340000Y-246380000D02*
X181267000Y-246380000D01*
X186817000Y-246380000D02*
X180340000Y-246380000D01*
X190373000Y-249936000D02*
X186817000Y-246380000D01*
X236220000Y-248920000D02*
X236220000Y-245110000D01*
X238760000Y-245110000D02*
X238760000Y-248920000D01*
X218694000Y-251587000D02*
X217424000Y-252857000D01*
X217424000Y-255016000D02*
X215900000Y-256540000D01*
X217424000Y-252857000D02*
X217424000Y-255016000D01*
X241300000Y-248920000D02*
X241300000Y-245110000D01*
X218186000Y-251460000D02*
X215900000Y-251460000D01*
X218694000Y-250952000D02*
X218186000Y-251460000D01*
X243840000Y-245110000D02*
X243840000Y-248920000D01*
X207391011Y-247904011D02*
X205867000Y-246380000D01*
X218694000Y-247650000D02*
X218439989Y-247904011D01*
X218439989Y-247904011D02*
X207391011Y-247904011D01*
X207264000Y-246380000D02*
X205867000Y-246380000D01*
X210566000Y-243078000D02*
X207264000Y-246380000D01*
X326619499Y-128499499D02*
X326810001Y-128690001D01*
X327660000Y-114300000D02*
X326619499Y-115340501D01*
X326619499Y-115340501D02*
X326619499Y-128499499D01*
X326810001Y-128690001D02*
X327660000Y-129540000D01*
X326619499Y-113259499D02*
X326810001Y-113450001D01*
X327660000Y-99060000D02*
X326619499Y-100100501D01*
X326619499Y-100100501D02*
X326619499Y-113259499D01*
X326810001Y-113450001D02*
X327660000Y-114300000D01*
X326619499Y-98019499D02*
X326810001Y-98210001D01*
X327660000Y-83820000D02*
X326619499Y-84860501D01*
X326619499Y-84860501D02*
X326619499Y-98019499D01*
X326810001Y-98210001D02*
X327660000Y-99060000D01*
X326619499Y-82779499D02*
X326810001Y-82970001D01*
X327660000Y-68580000D02*
X326619499Y-69620501D01*
X326619499Y-69620501D02*
X326619499Y-82779499D01*
X326810001Y-82970001D02*
X327660000Y-83820000D01*
X152400000Y-68580000D02*
X149860000Y-66040000D01*
X152400000Y-71120000D02*
X152400000Y-68580000D01*
X152400000Y-71120000D02*
X151600001Y-71919999D01*
X145033969Y-103124031D02*
X145033969Y-103123969D01*
X145033969Y-103124031D02*
X145034031Y-103124031D01*
X149882000Y-107972000D02*
X149882000Y-109175200D01*
X250660001Y-52540001D02*
X251460000Y-53340000D01*
X248920000Y-50800000D02*
X250660001Y-52540001D01*
X230505000Y-50800000D02*
X248920000Y-50800000D01*
X228854000Y-49149000D02*
X230505000Y-50800000D01*
X221869000Y-49149000D02*
X228854000Y-49149000D01*
X218440000Y-45720000D02*
X221869000Y-49149000D01*
X151409499Y-72110501D02*
X150266499Y-72110501D01*
X152400000Y-71120000D02*
X151409499Y-72110501D01*
X150266499Y-72110501D02*
X145034000Y-77343000D01*
X145034000Y-103124000D02*
X145669000Y-103759000D01*
X145034000Y-77343000D02*
X145034000Y-103124000D01*
X145669000Y-103759000D02*
X149882000Y-107972000D01*
X145034031Y-103124031D02*
X145669000Y-103759000D01*
X326810001Y-67730001D02*
X327660000Y-68580000D01*
X327660000Y-53340000D02*
X326619499Y-54380501D01*
X326619499Y-54380501D02*
X326619499Y-67539499D01*
X326619499Y-67539499D02*
X326810001Y-67730001D01*
X328700501Y-117880501D02*
X328700501Y-131039499D01*
X328509999Y-131230001D02*
X327660000Y-132080000D01*
X328700501Y-131039499D02*
X328509999Y-131230001D01*
X327660000Y-116840000D02*
X328700501Y-117880501D01*
X328700501Y-102640501D02*
X328700501Y-115799499D01*
X328509999Y-115990001D02*
X327660000Y-116840000D01*
X328700501Y-115799499D02*
X328509999Y-115990001D01*
X327660000Y-101600000D02*
X328700501Y-102640501D01*
X328700501Y-87400501D02*
X328700501Y-100559499D01*
X328509999Y-100750001D02*
X327660000Y-101600000D01*
X328700501Y-100559499D02*
X328509999Y-100750001D01*
X327660000Y-86360000D02*
X328700501Y-87400501D01*
X328700501Y-72160501D02*
X328700501Y-85319499D01*
X328509999Y-85510001D02*
X327660000Y-86360000D01*
X328700501Y-85319499D02*
X328509999Y-85510001D01*
X327660000Y-71120000D02*
X328700501Y-72160501D01*
X154940000Y-68580000D02*
X152400000Y-66040000D01*
X154940000Y-71120000D02*
X154940000Y-68580000D01*
X210820000Y-47531668D02*
X210761178Y-47590490D01*
X210820000Y-45720000D02*
X210820000Y-47531668D01*
X212573688Y-49403000D02*
X210761178Y-47590490D01*
X228727000Y-49403000D02*
X212573688Y-49403000D01*
X230378000Y-51054000D02*
X228727000Y-49403000D01*
X246634000Y-51054000D02*
X230378000Y-51054000D01*
X248920000Y-53340000D02*
X246634000Y-51054000D01*
X154940000Y-71120000D02*
X153695488Y-72364512D01*
X153695488Y-72364512D02*
X150393488Y-72364512D01*
X145335455Y-77422545D02*
X145335455Y-103066231D01*
X151431499Y-109650641D02*
X151946559Y-110165701D01*
X150393488Y-72364512D02*
X145335455Y-77422545D01*
X145335455Y-103066231D02*
X151431499Y-109162275D01*
X151431499Y-109162275D02*
X151431499Y-109650641D01*
X156511499Y-110165701D02*
X156702001Y-109975199D01*
X156702001Y-109975199D02*
X157502000Y-109175200D01*
X151946559Y-110165701D02*
X156511499Y-110165701D01*
X328700501Y-56920501D02*
X328700501Y-70079499D01*
X327660000Y-55880000D02*
X328700501Y-56920501D01*
X328700501Y-70079499D02*
X328509999Y-70270001D01*
X328509999Y-70270001D02*
X327660000Y-71120000D01*
X329159499Y-128499499D02*
X329350001Y-128690001D01*
X329350001Y-128690001D02*
X330200000Y-129540000D01*
X329159499Y-115340501D02*
X329159499Y-128499499D01*
X330200000Y-114300000D02*
X329159499Y-115340501D01*
X329159499Y-113259499D02*
X329350001Y-113450001D01*
X329350001Y-113450001D02*
X330200000Y-114300000D01*
X329159499Y-100100501D02*
X329159499Y-113259499D01*
X330200000Y-99060000D02*
X329159499Y-100100501D01*
X329159499Y-98019499D02*
X329350001Y-98210001D01*
X329350001Y-98210001D02*
X330200000Y-99060000D01*
X329159499Y-84860501D02*
X329159499Y-98019499D01*
X330200000Y-83820000D02*
X329159499Y-84860501D01*
X329159499Y-82779499D02*
X329350001Y-82970001D01*
X329350001Y-82970001D02*
X330200000Y-83820000D01*
X329159499Y-69620501D02*
X329159499Y-82779499D01*
X330200000Y-68580000D02*
X329159499Y-69620501D01*
X157480000Y-68580000D02*
X154940000Y-66040000D01*
X157480000Y-71120000D02*
X157480000Y-68580000D01*
X152422000Y-101555200D02*
X152422000Y-103475466D01*
X152422000Y-103475466D02*
X152328955Y-103568511D01*
X208280000Y-45720000D02*
X208280000Y-48006000D01*
X228600000Y-49657000D02*
X230251000Y-51308000D01*
X230251000Y-51308000D02*
X244348000Y-51308000D01*
X209931000Y-49657000D02*
X228600000Y-49657000D01*
X244348000Y-51308000D02*
X246380000Y-53340000D01*
X208280000Y-48006000D02*
X209931000Y-49657000D01*
X155981477Y-72618523D02*
X150520477Y-72618523D01*
X145589466Y-102732621D02*
X146616617Y-103759772D01*
X150520477Y-72618523D02*
X145589466Y-77549534D01*
X157480000Y-71120000D02*
X155981477Y-72618523D01*
X145589466Y-77549534D02*
X145589466Y-102732621D01*
X329350001Y-67730001D02*
X330200000Y-68580000D01*
X330200000Y-53340000D02*
X329159499Y-54380501D01*
X329159499Y-54380501D02*
X329159499Y-67539499D01*
X329159499Y-67539499D02*
X329350001Y-67730001D01*
X331240501Y-131039499D02*
X331049999Y-131230001D01*
X331049999Y-131230001D02*
X330200000Y-132080000D01*
X330200000Y-116840000D02*
X331240501Y-117880501D01*
X331240501Y-117880501D02*
X331240501Y-131039499D01*
X331240501Y-115799499D02*
X331049999Y-115990001D01*
X331049999Y-115990001D02*
X330200000Y-116840000D01*
X330200000Y-101600000D02*
X331240501Y-102640501D01*
X331240501Y-102640501D02*
X331240501Y-115799499D01*
X331240501Y-100559499D02*
X331049999Y-100750001D01*
X331049999Y-100750001D02*
X330200000Y-101600000D01*
X330200000Y-86360000D02*
X331240501Y-87400501D01*
X331240501Y-87400501D02*
X331240501Y-100559499D01*
X331240501Y-85319499D02*
X331049999Y-85510001D01*
X331049999Y-85510001D02*
X330200000Y-86360000D01*
X330200000Y-71120000D02*
X331240501Y-72160501D01*
X331240501Y-72160501D02*
X331240501Y-85319499D01*
X160020000Y-68580000D02*
X157480000Y-66040000D01*
X160020000Y-71120000D02*
X160020000Y-68580000D01*
X200660000Y-45720000D02*
X200660000Y-48260000D01*
X202311000Y-49911000D02*
X200660000Y-48260000D01*
X228473000Y-49911000D02*
X202311000Y-49911000D01*
X242062022Y-51562022D02*
X230124022Y-51562022D01*
X230124022Y-51562022D02*
X228473000Y-49911000D01*
X243840000Y-53340000D02*
X242062022Y-51562022D01*
X145843477Y-102302351D02*
X146736472Y-103195346D01*
X145843477Y-100869331D02*
X145843477Y-102302351D01*
X158267466Y-72872534D02*
X150625690Y-72872534D01*
X145923000Y-77575224D02*
X145923000Y-100789808D01*
X150625690Y-72872534D02*
X145923000Y-77575224D01*
X145923000Y-100789808D02*
X145843477Y-100869331D01*
X160020000Y-71120000D02*
X158267466Y-72872534D01*
X331049999Y-70270001D02*
X330200000Y-71120000D01*
X330200000Y-55880000D02*
X331240501Y-56920501D01*
X331240501Y-56920501D02*
X331240501Y-70079499D01*
X331240501Y-70079499D02*
X331049999Y-70270001D01*
X331699499Y-115340501D02*
X331699499Y-128499499D01*
X331890001Y-128690001D02*
X332740000Y-129540000D01*
X332740000Y-114300000D02*
X331699499Y-115340501D01*
X331699499Y-128499499D02*
X331890001Y-128690001D01*
X331699499Y-100100501D02*
X331699499Y-113259499D01*
X331890001Y-113450001D02*
X332740000Y-114300000D01*
X332740000Y-99060000D02*
X331699499Y-100100501D01*
X331699499Y-113259499D02*
X331890001Y-113450001D01*
X331699499Y-84860501D02*
X331699499Y-98019499D01*
X331890001Y-98210001D02*
X332740000Y-99060000D01*
X332740000Y-83820000D02*
X331699499Y-84860501D01*
X331699499Y-98019499D02*
X331890001Y-98210001D01*
X331699499Y-69620501D02*
X331699499Y-82779499D01*
X331890001Y-82970001D02*
X332740000Y-83820000D01*
X332740000Y-68580000D02*
X331699499Y-69620501D01*
X331699499Y-82779499D02*
X331890001Y-82970001D01*
X200660000Y-53340000D02*
X200660000Y-50927000D01*
X239776033Y-51816033D02*
X241300000Y-53340000D01*
X228367786Y-50165011D02*
X230018808Y-51816033D01*
X201421989Y-50165011D02*
X228367786Y-50165011D01*
X230018808Y-51816033D02*
X239776033Y-51816033D01*
X200660000Y-50927000D02*
X201421989Y-50165011D01*
X182880000Y-71120000D02*
X181737000Y-69977000D01*
X163957000Y-69977000D02*
X160020000Y-66040000D01*
X181737000Y-69977000D02*
X163957000Y-69977000D01*
X331890001Y-67730001D02*
X332740000Y-68580000D01*
X332740000Y-53340000D02*
X331699499Y-54380501D01*
X331699499Y-54380501D02*
X331699499Y-67539499D01*
X331699499Y-67539499D02*
X331890001Y-67730001D01*
X333883000Y-130937000D02*
X333589999Y-131230001D01*
X332740000Y-116840000D02*
X333883000Y-117983000D01*
X333883000Y-117983000D02*
X333883000Y-130937000D01*
X333589999Y-131230001D02*
X332740000Y-132080000D01*
X333883000Y-115697000D02*
X333589999Y-115990001D01*
X332740000Y-101600000D02*
X333883000Y-102743000D01*
X333883000Y-102743000D02*
X333883000Y-115697000D01*
X333589999Y-115990001D02*
X332740000Y-116840000D01*
X333883000Y-100457000D02*
X333589999Y-100750001D01*
X332740000Y-86360000D02*
X333883000Y-87503000D01*
X333883000Y-87503000D02*
X333883000Y-100457000D01*
X333589999Y-100750001D02*
X332740000Y-101600000D01*
X333883000Y-85217000D02*
X333589999Y-85510001D01*
X332740000Y-71120000D02*
X333883000Y-72263000D01*
X333883000Y-72263000D02*
X333883000Y-85217000D01*
X333589999Y-85510001D02*
X332740000Y-86360000D01*
X208280000Y-53340000D02*
X208280000Y-51181000D01*
X209041978Y-50419022D02*
X208280000Y-51181000D01*
X228219022Y-50419022D02*
X209041978Y-50419022D01*
X229895488Y-52095488D02*
X228219022Y-50419022D01*
X237515488Y-52095488D02*
X229895488Y-52095488D01*
X238760000Y-53340000D02*
X237515488Y-52095488D01*
X166243000Y-69723000D02*
X162560000Y-66040000D01*
X184023000Y-69723000D02*
X166243000Y-69723000D01*
X185420000Y-71120000D02*
X184023000Y-69723000D01*
X333589999Y-70270001D02*
X332740000Y-71120000D01*
X332740000Y-55880000D02*
X333883000Y-57023000D01*
X333883000Y-57023000D02*
X333883000Y-69977000D01*
X333883000Y-69977000D02*
X333589999Y-70270001D01*
X334239499Y-115340501D02*
X334239499Y-128499499D01*
X335280000Y-114300000D02*
X334239499Y-115340501D01*
X334239499Y-128499499D02*
X334430001Y-128690001D01*
X334430001Y-128690001D02*
X335280000Y-129540000D01*
X334239499Y-100100501D02*
X334239499Y-113259499D01*
X335280000Y-99060000D02*
X334239499Y-100100501D01*
X334239499Y-113259499D02*
X334430001Y-113450001D01*
X334430001Y-113450001D02*
X335280000Y-114300000D01*
X334239499Y-84860501D02*
X334239499Y-98019499D01*
X335280000Y-83820000D02*
X334239499Y-84860501D01*
X334239499Y-98019499D02*
X334430001Y-98210001D01*
X334430001Y-98210001D02*
X335280000Y-99060000D01*
X334239499Y-69620501D02*
X334239499Y-82779499D01*
X335280000Y-68580000D02*
X334239499Y-69620501D01*
X334239499Y-82779499D02*
X334430001Y-82970001D01*
X334430001Y-82970001D02*
X335280000Y-83820000D01*
X210820000Y-53340000D02*
X210820000Y-51435000D01*
X235229499Y-52349499D02*
X236220000Y-53340000D01*
X229768499Y-52349499D02*
X235229499Y-52349499D01*
X228092033Y-50673033D02*
X229768499Y-52349499D01*
X211581967Y-50673033D02*
X228092033Y-50673033D01*
X210820000Y-51435000D02*
X211581967Y-50673033D01*
X186309000Y-69469000D02*
X187960000Y-71120000D01*
X168529000Y-69469000D02*
X186309000Y-69469000D01*
X165100000Y-66040000D02*
X168529000Y-69469000D01*
X334430001Y-67730001D02*
X335280000Y-68580000D01*
X335280000Y-53340000D02*
X334239499Y-54380501D01*
X334239499Y-54380501D02*
X334239499Y-67539499D01*
X334239499Y-67539499D02*
X334430001Y-67730001D01*
X336320501Y-131039499D02*
X336129999Y-131230001D01*
X336320501Y-117880501D02*
X336320501Y-131039499D01*
X336129999Y-131230001D02*
X335280000Y-132080000D01*
X335280000Y-116840000D02*
X336320501Y-117880501D01*
X336320501Y-115799499D02*
X336129999Y-115990001D01*
X336320501Y-102640501D02*
X336320501Y-115799499D01*
X336129999Y-115990001D02*
X335280000Y-116840000D01*
X335280000Y-101600000D02*
X336320501Y-102640501D01*
X336320501Y-100559499D02*
X336129999Y-100750001D01*
X336320501Y-87400501D02*
X336320501Y-100559499D01*
X336129999Y-100750001D02*
X335280000Y-101600000D01*
X335280000Y-86360000D02*
X336320501Y-87400501D01*
X336320501Y-85319499D02*
X336129999Y-85510001D01*
X336320501Y-72160501D02*
X336320501Y-85319499D01*
X336129999Y-85510001D02*
X335280000Y-86360000D01*
X335280000Y-71120000D02*
X336320501Y-72160501D01*
X232990499Y-52650499D02*
X233680000Y-53340000D01*
X229670501Y-52650499D02*
X232990499Y-52650499D01*
X228019501Y-50999499D02*
X229670501Y-52650499D01*
X220780501Y-50999499D02*
X228019501Y-50999499D01*
X218440000Y-53340000D02*
X220780501Y-50999499D01*
X170815000Y-69215000D02*
X167640000Y-66040000D01*
X188595000Y-69215000D02*
X170815000Y-69215000D01*
X190500000Y-71120000D02*
X188595000Y-69215000D01*
X336129999Y-70270001D02*
X335280000Y-71120000D01*
X335280000Y-55880000D02*
X336320501Y-56920501D01*
X336320501Y-56920501D02*
X336320501Y-70079499D01*
X336320501Y-70079499D02*
X336129999Y-70270001D01*
X336970001Y-128690001D02*
X337820000Y-129540000D01*
X336779499Y-128499499D02*
X336970001Y-128690001D01*
X337820000Y-114300000D02*
X336779499Y-115340501D01*
X336779499Y-115340501D02*
X336779499Y-128499499D01*
X336970001Y-113450001D02*
X337820000Y-114300000D01*
X336779499Y-113259499D02*
X336970001Y-113450001D01*
X337820000Y-99060000D02*
X336779499Y-100100501D01*
X336779499Y-100100501D02*
X336779499Y-113259499D01*
X336970001Y-98210001D02*
X337820000Y-99060000D01*
X336779499Y-98019499D02*
X336970001Y-98210001D01*
X337820000Y-83820000D02*
X336779499Y-84860501D01*
X336779499Y-84860501D02*
X336779499Y-98019499D01*
X336970001Y-82970001D02*
X337820000Y-83820000D01*
X336779499Y-82779499D02*
X336970001Y-82970001D01*
X337820000Y-68580000D02*
X336779499Y-69620501D01*
X336779499Y-69620501D02*
X336779499Y-82779499D01*
X210439000Y-108772200D02*
X210842000Y-109175200D01*
X210439000Y-107315000D02*
X210439000Y-108772200D01*
X217640001Y-59219999D02*
X218440000Y-58420000D01*
X176657000Y-59563000D02*
X217297000Y-59563000D01*
X217297000Y-59563000D02*
X217640001Y-59219999D01*
X170180000Y-66040000D02*
X176657000Y-59563000D01*
X229053422Y-61921422D02*
X230632033Y-63500033D01*
X218440000Y-58420000D02*
X221941422Y-61921422D01*
X230632033Y-63500033D02*
X248920033Y-63500033D01*
X248920033Y-63500033D02*
X250660001Y-65240001D01*
X250660001Y-65240001D02*
X251460000Y-66040000D01*
X221941422Y-61921422D02*
X229053422Y-61921422D01*
X211201000Y-68961000D02*
X213360000Y-71120000D01*
X173101000Y-68961000D02*
X211201000Y-68961000D01*
X170180000Y-66040000D02*
X173101000Y-68961000D01*
X336970001Y-67730001D02*
X337820000Y-68580000D01*
X337820000Y-53340000D02*
X336779499Y-54380501D01*
X336779499Y-54380501D02*
X336779499Y-67539499D01*
X336779499Y-67539499D02*
X336970001Y-67730001D01*
X338669999Y-131230001D02*
X337820000Y-132080000D01*
X338860501Y-131039499D02*
X338669999Y-131230001D01*
X337820000Y-116840000D02*
X338860501Y-117880501D01*
X338860501Y-117880501D02*
X338860501Y-131039499D01*
X338669999Y-115990001D02*
X337820000Y-116840000D01*
X338860501Y-115799499D02*
X338669999Y-115990001D01*
X337820000Y-101600000D02*
X338860501Y-102640501D01*
X338860501Y-102640501D02*
X338860501Y-115799499D01*
X338669999Y-100750001D02*
X337820000Y-101600000D01*
X338860501Y-100559499D02*
X338669999Y-100750001D01*
X337820000Y-86360000D02*
X338860501Y-87400501D01*
X338860501Y-87400501D02*
X338860501Y-100559499D01*
X338669999Y-85510001D02*
X337820000Y-86360000D01*
X338860501Y-85319499D02*
X338669999Y-85510001D01*
X337820000Y-71120000D02*
X338860501Y-72160501D01*
X338860501Y-72160501D02*
X338860501Y-85319499D01*
X218462000Y-108861000D02*
X218462000Y-109175200D01*
X216154000Y-106553000D02*
X218462000Y-108861000D01*
X178913999Y-59846001D02*
X210595001Y-59846001D01*
X210595001Y-59846001D02*
X210820000Y-60071000D01*
X172720000Y-66040000D02*
X178913999Y-59846001D01*
X246634044Y-63754044D02*
X248120001Y-65240001D01*
X248120001Y-65240001D02*
X248920000Y-66040000D01*
X212924433Y-62175433D02*
X228926433Y-62175433D01*
X228926433Y-62175433D02*
X230505044Y-63754044D01*
X230505044Y-63754044D02*
X246634044Y-63754044D01*
X210820000Y-60071000D02*
X212924433Y-62175433D01*
X215900000Y-71120000D02*
X213487000Y-68707000D01*
X175387000Y-68707000D02*
X172720000Y-66040000D01*
X213487000Y-68707000D02*
X175387000Y-68707000D01*
X338669999Y-70270001D02*
X337820000Y-71120000D01*
X337820000Y-55880000D02*
X338860501Y-56920501D01*
X338860501Y-70079499D02*
X338669999Y-70270001D01*
X338860501Y-56920501D02*
X338860501Y-70079499D01*
X340360000Y-114300000D02*
X339319499Y-115340501D01*
X339319499Y-115340501D02*
X339319499Y-128499499D01*
X339510001Y-128690001D02*
X340360000Y-129540000D01*
X339319499Y-128499499D02*
X339510001Y-128690001D01*
X340360000Y-99060000D02*
X339319499Y-100100501D01*
X339319499Y-100100501D02*
X339319499Y-113259499D01*
X339510001Y-113450001D02*
X340360000Y-114300000D01*
X339319499Y-113259499D02*
X339510001Y-113450001D01*
X340360000Y-83820000D02*
X339319499Y-84860501D01*
X339319499Y-84860501D02*
X339319499Y-98019499D01*
X339510001Y-98210001D02*
X340360000Y-99060000D01*
X339319499Y-98019499D02*
X339510001Y-98210001D01*
X340360000Y-68580000D02*
X339319499Y-69620501D01*
X339319499Y-69620501D02*
X339319499Y-82779499D01*
X339510001Y-82970001D02*
X340360000Y-83820000D01*
X339319499Y-82779499D02*
X339510001Y-82970001D01*
X175260000Y-66040000D02*
X181199999Y-60100001D01*
X208055001Y-60100001D02*
X208280000Y-60325000D01*
X181199999Y-60100001D02*
X208055001Y-60100001D01*
X208280000Y-60325000D02*
X210384444Y-62429444D01*
X230378044Y-64008044D02*
X244348044Y-64008044D01*
X228799444Y-62429444D02*
X230378044Y-64008044D01*
X245580001Y-65240001D02*
X246380000Y-66040000D01*
X244348044Y-64008044D02*
X245580001Y-65240001D01*
X210384444Y-62429444D02*
X228799444Y-62429444D01*
X215772989Y-68452989D02*
X177672989Y-68452989D01*
X176109999Y-66889999D02*
X175260000Y-66040000D01*
X177672989Y-68452989D02*
X176109999Y-66889999D01*
X218440000Y-71120000D02*
X215772989Y-68452989D01*
X339510001Y-67730001D02*
X340360000Y-68580000D01*
X340360000Y-53340000D02*
X339319499Y-54380501D01*
X339319499Y-67539499D02*
X339510001Y-67730001D01*
X339319499Y-54380501D02*
X339319499Y-67539499D01*
X341400501Y-117880501D02*
X341400501Y-131039499D01*
X341209999Y-131230001D02*
X340360000Y-132080000D01*
X341400501Y-131039499D02*
X341209999Y-131230001D01*
X340360000Y-116840000D02*
X341400501Y-117880501D01*
X341400501Y-102640501D02*
X341400501Y-115799499D01*
X341209999Y-115990001D02*
X340360000Y-116840000D01*
X341400501Y-115799499D02*
X341209999Y-115990001D01*
X340360000Y-101600000D02*
X341400501Y-102640501D01*
X341400501Y-87400501D02*
X341400501Y-100559499D01*
X341209999Y-100750001D02*
X340360000Y-101600000D01*
X341400501Y-100559499D02*
X341209999Y-100750001D01*
X340360000Y-86360000D02*
X341400501Y-87400501D01*
X341400501Y-72160501D02*
X341400501Y-85319499D01*
X341209999Y-85510001D02*
X340360000Y-86360000D01*
X341400501Y-85319499D02*
X341209999Y-85510001D01*
X340360000Y-71120000D02*
X341400501Y-72160501D01*
X183261000Y-60579000D02*
X200660000Y-60579000D01*
X177800000Y-66040000D02*
X183261000Y-60579000D01*
X228672455Y-62683455D02*
X230251044Y-64262044D01*
X243040001Y-65240001D02*
X243840000Y-66040000D01*
X200660000Y-60579000D02*
X202764455Y-62683455D01*
X202764455Y-62683455D02*
X228672455Y-62683455D01*
X242062044Y-64262044D02*
X243040001Y-65240001D01*
X230251044Y-64262044D02*
X242062044Y-64262044D01*
X179958980Y-68198980D02*
X178649999Y-66889999D01*
X220980000Y-71120000D02*
X218058980Y-68198980D01*
X218058980Y-68198980D02*
X179958980Y-68198980D01*
X178649999Y-66889999D02*
X177800000Y-66040000D01*
X341400501Y-70079499D02*
X341209999Y-70270001D01*
X340360000Y-55880000D02*
X341400501Y-56920501D01*
X341209999Y-70270001D02*
X340360000Y-71120000D01*
X341400501Y-56920501D02*
X341400501Y-70079499D01*
X342050001Y-128690001D02*
X342900000Y-129540000D01*
X341859499Y-128499499D02*
X342050001Y-128690001D01*
X341859499Y-115340501D02*
X341859499Y-128499499D01*
X342900000Y-114300000D02*
X341859499Y-115340501D01*
X342050001Y-113450001D02*
X342900000Y-114300000D01*
X341859499Y-113259499D02*
X342050001Y-113450001D01*
X341859499Y-100100501D02*
X341859499Y-113259499D01*
X342900000Y-99060000D02*
X341859499Y-100100501D01*
X342050001Y-98210001D02*
X342900000Y-99060000D01*
X341859499Y-98019499D02*
X342050001Y-98210001D01*
X341859499Y-84860501D02*
X341859499Y-98019499D01*
X342900000Y-83820000D02*
X341859499Y-84860501D01*
X342050001Y-82970001D02*
X342900000Y-83820000D01*
X341859499Y-82779499D02*
X342050001Y-82970001D01*
X341859499Y-69620501D02*
X341859499Y-82779499D01*
X342900000Y-68580000D02*
X341859499Y-69620501D01*
X241173000Y-109026200D02*
X241322000Y-109175200D01*
X241173000Y-106426000D02*
X241173000Y-109026200D01*
X182245000Y-64135000D02*
X200406000Y-64135000D01*
X200406000Y-64135000D02*
X200660000Y-63881000D01*
X180340000Y-66040000D02*
X182245000Y-64135000D01*
X200660000Y-63881000D02*
X201603534Y-62937466D01*
X228545466Y-62937466D02*
X230124044Y-64516044D01*
X230124044Y-64516044D02*
X239776044Y-64516044D01*
X239776044Y-64516044D02*
X240500001Y-65240001D01*
X201603534Y-62937466D02*
X228545466Y-62937466D01*
X240500001Y-65240001D02*
X241300000Y-66040000D01*
X240664969Y-67944969D02*
X243040001Y-70320001D01*
X182244969Y-67944969D02*
X240664969Y-67944969D01*
X180340000Y-66040000D02*
X182244969Y-67944969D01*
X243040001Y-70320001D02*
X243840000Y-71120000D01*
X341859499Y-67539499D02*
X342050001Y-67730001D01*
X342900000Y-53340000D02*
X341859499Y-54380501D01*
X341859499Y-54380501D02*
X341859499Y-67539499D01*
X342050001Y-67730001D02*
X342900000Y-68580000D01*
X343940501Y-117880501D02*
X343940501Y-131039499D01*
X343940501Y-131039499D02*
X343749999Y-131230001D01*
X343749999Y-131230001D02*
X342900000Y-132080000D01*
X342900000Y-116840000D02*
X343940501Y-117880501D01*
X343940501Y-102640501D02*
X343940501Y-115799499D01*
X343940501Y-115799499D02*
X343749999Y-115990001D01*
X343749999Y-115990001D02*
X342900000Y-116840000D01*
X342900000Y-101600000D02*
X343940501Y-102640501D01*
X343940501Y-87400501D02*
X343940501Y-100559499D01*
X343940501Y-100559499D02*
X343749999Y-100750001D01*
X343749999Y-100750001D02*
X342900000Y-101600000D01*
X342900000Y-86360000D02*
X343940501Y-87400501D01*
X343940501Y-72160501D02*
X343940501Y-85319499D01*
X343940501Y-85319499D02*
X343749999Y-85510001D01*
X343749999Y-85510001D02*
X342900000Y-86360000D01*
X342900000Y-71120000D02*
X343940501Y-72160501D01*
X248942000Y-107464000D02*
X248942000Y-109175200D01*
X247904000Y-106426000D02*
X248942000Y-107464000D01*
X184530989Y-64389011D02*
X207345282Y-64389011D01*
X182880000Y-66040000D02*
X184530989Y-64389011D01*
X207345282Y-64389011D02*
X208010620Y-63723673D01*
X237490055Y-64770055D02*
X237960001Y-65240001D01*
X229997055Y-64770055D02*
X237490055Y-64770055D01*
X208010620Y-63723673D02*
X208542816Y-63191477D01*
X208542816Y-63191477D02*
X228418477Y-63191477D01*
X228418477Y-63191477D02*
X229997055Y-64770055D01*
X237960001Y-65240001D02*
X238760000Y-66040000D01*
X184530958Y-67690958D02*
X183729999Y-66889999D01*
X246380000Y-71120000D02*
X242950958Y-67690958D01*
X242950958Y-67690958D02*
X184530958Y-67690958D01*
X183729999Y-66889999D02*
X182880000Y-66040000D01*
X343749999Y-70270001D02*
X342900000Y-71120000D01*
X342900000Y-55880000D02*
X343940501Y-56920501D01*
X343940501Y-56920501D02*
X343940501Y-70079499D01*
X343940501Y-70079499D02*
X343749999Y-70270001D01*
X345440000Y-114300000D02*
X344399499Y-115340501D01*
X344590001Y-128690001D02*
X345440000Y-129540000D01*
X344399499Y-115340501D02*
X344399499Y-128499499D01*
X344399499Y-128499499D02*
X344590001Y-128690001D01*
X345440000Y-99060000D02*
X344399499Y-100100501D01*
X344590001Y-113450001D02*
X345440000Y-114300000D01*
X344399499Y-100100501D02*
X344399499Y-113259499D01*
X344399499Y-113259499D02*
X344590001Y-113450001D01*
X345440000Y-83820000D02*
X344399499Y-84860501D01*
X344590001Y-98210001D02*
X345440000Y-99060000D01*
X344399499Y-84860501D02*
X344399499Y-98019499D01*
X344399499Y-98019499D02*
X344590001Y-98210001D01*
X345440000Y-68580000D02*
X344399499Y-69620501D01*
X344590001Y-82970001D02*
X345440000Y-83820000D01*
X344399499Y-69620501D02*
X344399499Y-82779499D01*
X344399499Y-82779499D02*
X344590001Y-82970001D01*
X209888129Y-64642989D02*
X210557637Y-63973481D01*
X185420000Y-66040000D02*
X186816978Y-64643022D01*
X207450529Y-64642989D02*
X209888129Y-64642989D01*
X207450496Y-64643022D02*
X207450529Y-64642989D01*
X186816978Y-64643022D02*
X207450496Y-64643022D01*
X211085630Y-63445488D02*
X210557637Y-63973481D01*
X228291488Y-63445488D02*
X211085630Y-63445488D01*
X235204066Y-65024066D02*
X229870066Y-65024066D01*
X229870066Y-65024066D02*
X228291488Y-63445488D01*
X236220000Y-66040000D02*
X235204066Y-65024066D01*
X186816947Y-67436947D02*
X245236947Y-67436947D01*
X185420000Y-66040000D02*
X186816947Y-67436947D01*
X248120001Y-70320001D02*
X248920000Y-71120000D01*
X245236947Y-67436947D02*
X248120001Y-70320001D01*
X344590001Y-67730001D02*
X345440000Y-68580000D01*
X345440000Y-53340000D02*
X344399499Y-54380501D01*
X344399499Y-54380501D02*
X344399499Y-67539499D01*
X344399499Y-67539499D02*
X344590001Y-67730001D01*
X185414000Y-96514000D02*
X185420000Y-96520000D01*
X185414000Y-91446000D02*
X185414000Y-96514000D01*
X210585644Y-105664010D02*
X210585644Y-106378844D01*
X204362634Y-99441000D02*
X210585644Y-105664010D01*
X210585644Y-106378844D02*
X213382000Y-109175200D01*
X188341000Y-99441000D02*
X204362634Y-99441000D01*
X185420000Y-96520000D02*
X188341000Y-99441000D01*
X195574000Y-96514000D02*
X195580000Y-96520000D01*
X195574000Y-91446000D02*
X195574000Y-96514000D01*
X233807000Y-98425000D02*
X243062001Y-107680001D01*
X195580000Y-96520000D02*
X197485000Y-98425000D01*
X197485000Y-98425000D02*
X233807000Y-98425000D01*
X243062001Y-107680001D02*
X243062001Y-108375201D01*
X243062001Y-108375201D02*
X243862000Y-109175200D01*
X187954000Y-96514000D02*
X187960000Y-96520000D01*
X187954000Y-91446000D02*
X187954000Y-96514000D01*
X187960000Y-96520000D02*
X190627000Y-99187000D01*
X204467858Y-99187000D02*
X210690858Y-105410000D01*
X190627000Y-99187000D02*
X204467858Y-99187000D01*
X217236800Y-105410000D02*
X221002000Y-109175200D01*
X210690858Y-105410000D02*
X217236800Y-105410000D01*
X198114000Y-96514000D02*
X198120000Y-96520000D01*
X198114000Y-91446000D02*
X198114000Y-96514000D01*
X241170858Y-105410000D02*
X247716800Y-105410000D01*
X233931858Y-98171000D02*
X241170858Y-105410000D01*
X247716800Y-105410000D02*
X250682001Y-108375201D01*
X198120000Y-96520000D02*
X199771000Y-98171000D01*
X250682001Y-108375201D02*
X251482000Y-109175200D01*
X199771000Y-98171000D02*
X233931858Y-98171000D01*
X190494000Y-96514000D02*
X190500000Y-96520000D01*
X190494000Y-91446000D02*
X190494000Y-96514000D01*
X190500000Y-96520000D02*
X192913000Y-98933000D01*
X213299800Y-98933000D02*
X215922000Y-101555200D01*
X192913000Y-98933000D02*
X213299800Y-98933000D01*
X200654000Y-96514000D02*
X200660000Y-96520000D01*
X200654000Y-91446000D02*
X200654000Y-96514000D01*
X200660000Y-96520000D02*
X202057000Y-97917000D01*
X242763800Y-97917000D02*
X246402000Y-101555200D01*
X202057000Y-97917000D02*
X242763800Y-97917000D01*
X193034000Y-96514000D02*
X193040000Y-96520000D01*
X193034000Y-91446000D02*
X193034000Y-96514000D01*
X193040000Y-96520000D02*
X195199000Y-98679000D01*
X195199000Y-98679000D02*
X220665800Y-98679000D01*
X220665800Y-98679000D02*
X223542000Y-101555200D01*
X203194000Y-96514000D02*
X203200000Y-96520000D01*
X203194000Y-91446000D02*
X203194000Y-96514000D01*
X253222001Y-100755201D02*
X254022000Y-101555200D01*
X250129800Y-97663000D02*
X253222001Y-100755201D01*
X204343000Y-97663000D02*
X250129800Y-97663000D01*
X203200000Y-96520000D02*
X204343000Y-97663000D01*
X149854000Y-96514000D02*
X149860000Y-96520000D01*
X149854000Y-91446000D02*
X149854000Y-96514000D01*
X146760963Y-102779845D02*
X146935913Y-102779845D01*
X151622001Y-108375201D02*
X152422000Y-109175200D01*
X149010001Y-97369999D02*
X149010001Y-98062032D01*
X146935913Y-102779845D02*
X147151973Y-102995905D01*
X149010001Y-98062032D02*
X146097488Y-100974545D01*
X147151973Y-102995905D02*
X147151973Y-103905173D01*
X147151973Y-103905173D02*
X151622001Y-108375201D01*
X146097488Y-102116370D02*
X146760963Y-102779845D01*
X146097488Y-100974545D02*
X146097488Y-102116370D01*
X149860000Y-96520000D02*
X149010001Y-97369999D01*
X160014000Y-96514000D02*
X160020000Y-96520000D01*
X160014000Y-91446000D02*
X160014000Y-96514000D01*
X160020000Y-96520000D02*
X163957000Y-100457000D01*
X168318572Y-100457021D02*
X174879021Y-100457021D01*
X168318551Y-100457000D02*
X168318572Y-100457021D01*
X163957000Y-100457000D02*
X168318551Y-100457000D01*
X174879021Y-100457021D02*
X180086000Y-105664000D01*
X180086000Y-106359200D02*
X182902000Y-109175200D01*
X180086000Y-105664000D02*
X180086000Y-106359200D01*
X152394000Y-96514000D02*
X152400000Y-96520000D01*
X152394000Y-91446000D02*
X152394000Y-96514000D01*
X150383972Y-106426000D02*
X157292800Y-106426000D01*
X146351499Y-101079759D02*
X146351499Y-102011156D01*
X150749000Y-98171000D02*
X149260258Y-98171000D01*
X147405984Y-102890691D02*
X147405984Y-103448012D01*
X146866177Y-102525834D02*
X147041127Y-102525834D01*
X147405984Y-103448012D02*
X150383972Y-106426000D01*
X152400000Y-96520000D02*
X150749000Y-98171000D01*
X147041127Y-102525834D02*
X147405984Y-102890691D01*
X157292800Y-106426000D02*
X159242001Y-108375201D01*
X146351499Y-102011156D02*
X146866177Y-102525834D01*
X149260258Y-98171000D02*
X146351499Y-101079759D01*
X159242001Y-108375201D02*
X160042000Y-109175200D01*
X162554000Y-96514000D02*
X162560000Y-96520000D01*
X162554000Y-91446000D02*
X162554000Y-96514000D01*
X162560000Y-96520000D02*
X166243000Y-100203000D01*
X175003858Y-100203000D02*
X180210858Y-105410000D01*
X166243000Y-100203000D02*
X175003858Y-100203000D01*
X186756800Y-105410000D02*
X190522000Y-109175200D01*
X180210858Y-105410000D02*
X186756800Y-105410000D01*
X154934000Y-96514000D02*
X154940000Y-96520000D01*
X154934000Y-91446000D02*
X154934000Y-96514000D01*
X154940000Y-101533200D02*
X154962000Y-101555200D01*
X154940000Y-96520000D02*
X154940000Y-101533200D01*
X165094000Y-96514000D02*
X165100000Y-96520000D01*
X165094000Y-91446000D02*
X165094000Y-96514000D01*
X183835800Y-99949000D02*
X185442000Y-101555200D01*
X168529000Y-99949000D02*
X183835800Y-99949000D01*
X165100000Y-96520000D02*
X168529000Y-99949000D01*
X157474000Y-96514000D02*
X157480000Y-96520000D01*
X157474000Y-91446000D02*
X157474000Y-96514000D01*
X162515200Y-101555200D02*
X162582000Y-101555200D01*
X157480000Y-96520000D02*
X162515200Y-101555200D01*
X167634000Y-96514000D02*
X167640000Y-96520000D01*
X167634000Y-91446000D02*
X167634000Y-96514000D01*
X193062000Y-101555200D02*
X191201800Y-99695000D01*
X170815000Y-99695000D02*
X167640000Y-96520000D01*
X191201800Y-99695000D02*
X170815000Y-99695000D01*
X234924501Y-153390501D02*
X242849499Y-153390501D01*
X234061011Y-145563786D02*
X234061011Y-152527011D01*
X198120000Y-139700000D02*
X199643967Y-141223967D01*
X205021518Y-141223967D02*
X205021573Y-141224022D01*
X205021573Y-141224022D02*
X229721247Y-141224022D01*
X229721247Y-141224022D02*
X234061011Y-145563786D01*
X234061011Y-152527011D02*
X234924501Y-153390501D01*
X243040001Y-153199999D02*
X243840000Y-152400000D01*
X199643967Y-141223967D02*
X205021518Y-141223967D01*
X242849499Y-153390501D02*
X243040001Y-153199999D01*
X200660000Y-139700000D02*
X201929956Y-140969956D01*
X201929956Y-140969956D02*
X205126732Y-140969956D01*
X245580001Y-143980001D02*
X246380000Y-144780000D01*
X205126732Y-140969956D02*
X205126787Y-140970011D01*
X242570011Y-140970011D02*
X245580001Y-143980001D01*
X205126787Y-140970011D02*
X242570011Y-140970011D01*
X204177000Y-139700000D02*
X203200000Y-139700000D01*
X205193000Y-140716000D02*
X204177000Y-139700000D01*
X249936000Y-140716000D02*
X205193000Y-140716000D01*
X254000000Y-144780000D02*
X249936000Y-140716000D01*
X185420000Y-139700000D02*
X188214000Y-142494000D01*
X188214000Y-142494000D02*
X203073000Y-142494000D01*
X203073000Y-142494000D02*
X207010000Y-146431000D01*
X207010000Y-152595942D02*
X208084058Y-153670000D01*
X207010000Y-146431000D02*
X207010000Y-152595942D01*
X219710000Y-153670000D02*
X220980000Y-152400000D01*
X208084058Y-153670000D02*
X219710000Y-153670000D01*
X187960000Y-139700000D02*
X190500000Y-142240000D01*
X203200000Y-142240000D02*
X213360000Y-152400000D01*
X190500000Y-142240000D02*
X203200000Y-142240000D01*
X192786000Y-141986000D02*
X204705876Y-141986000D01*
X213106055Y-141986055D02*
X215100001Y-143980001D01*
X204705876Y-141986000D02*
X204705931Y-141986055D01*
X215100001Y-143980001D02*
X215900000Y-144780000D01*
X190500000Y-139700000D02*
X192786000Y-141986000D01*
X204705931Y-141986055D02*
X213106055Y-141986055D01*
X223520000Y-144780000D02*
X220472044Y-141732044D01*
X220472044Y-141732044D02*
X204811145Y-141732044D01*
X195071989Y-141731989D02*
X193889999Y-140549999D01*
X204811090Y-141731989D02*
X195071989Y-141731989D01*
X193889999Y-140549999D02*
X193040000Y-139700000D01*
X204811145Y-141732044D02*
X204811090Y-141731989D01*
X204916359Y-141478033D02*
X229616033Y-141478033D01*
X195580000Y-139700000D02*
X197357978Y-141477978D01*
X233807000Y-145669000D02*
X233807000Y-152654000D01*
X229616033Y-141478033D02*
X233807000Y-145669000D01*
X233807000Y-152654000D02*
X234823000Y-153670000D01*
X234823000Y-153670000D02*
X250190000Y-153670000D01*
X250190000Y-153670000D02*
X250660001Y-153199999D01*
X250660001Y-153199999D02*
X251460000Y-152400000D01*
X204916304Y-141477978D02*
X204916359Y-141478033D01*
X197357978Y-141477978D02*
X204916304Y-141477978D01*
X180878259Y-150398259D02*
X178331867Y-150398259D01*
X182880000Y-152400000D02*
X180878259Y-150398259D01*
X177927000Y-149606000D02*
X178245198Y-149606000D01*
X178307923Y-149543275D02*
X184547895Y-149543275D01*
X178245198Y-149606000D02*
X178307923Y-149543275D01*
X178728828Y-149979494D02*
X179047026Y-149979494D01*
X184514800Y-150074190D02*
X184637706Y-149951284D01*
X179047026Y-149979494D02*
X179141722Y-150074190D01*
X179141722Y-150074190D02*
X184514800Y-150074190D01*
X184637706Y-149951284D02*
X184955904Y-149951284D01*
X145796000Y-153670000D02*
X146304000Y-154178000D01*
X146304000Y-154178000D02*
X148356056Y-154178000D01*
X158496011Y-153923989D02*
X159220001Y-153199999D01*
X159220001Y-153199999D02*
X160020000Y-152400000D01*
X148610067Y-153923989D02*
X158496011Y-153923989D01*
X149860000Y-139700000D02*
X145796000Y-143764000D01*
X145796000Y-143764000D02*
X145796000Y-153670000D01*
X148356056Y-154178000D02*
X148610067Y-153923989D01*
X178308000Y-151003000D02*
X180848000Y-151003000D01*
X248920000Y-127000000D02*
X247929499Y-127990501D01*
X229234991Y-125348991D02*
X191846809Y-125348991D01*
X231876501Y-127990501D02*
X229234991Y-125348991D01*
X247929499Y-127990501D02*
X240600861Y-127990501D01*
X239669966Y-127879344D02*
X239558809Y-127990501D01*
X240489704Y-127879344D02*
X239669966Y-127879344D01*
X239558809Y-127990501D02*
X231876501Y-127990501D01*
X240600861Y-127990501D02*
X240489704Y-127879344D01*
X191846809Y-125348991D02*
X190195800Y-127000000D01*
X229108000Y-125603000D02*
X194132800Y-125603000D01*
X239664023Y-128244512D02*
X231749512Y-128244512D01*
X240384490Y-128133355D02*
X239775180Y-128133355D01*
X239775180Y-128133355D02*
X239664023Y-128244512D01*
X231749512Y-128244512D02*
X229108000Y-125603000D01*
X250215488Y-128244512D02*
X240495647Y-128244512D01*
X251460000Y-127000000D02*
X250215488Y-128244512D01*
X240495647Y-128244512D02*
X240384490Y-128133355D01*
X194132800Y-125603000D02*
X192735800Y-127000000D01*
X240392615Y-128500705D02*
X240279276Y-128387366D01*
X252499295Y-128500705D02*
X240392615Y-128500705D01*
X239880394Y-128387366D02*
X239743760Y-128524000D01*
X231648000Y-128524000D02*
X228981000Y-125857000D01*
X228981000Y-125857000D02*
X196418800Y-125857000D01*
X239743760Y-128524000D02*
X231648000Y-128524000D01*
X196418800Y-125857000D02*
X195275800Y-127000000D01*
X254000000Y-127000000D02*
X252499295Y-128500705D01*
X240279276Y-128387366D02*
X239880394Y-128387366D01*
X200430500Y-132309500D02*
X198919999Y-133820001D01*
X232791000Y-132842000D02*
X232258500Y-132309500D01*
X232258500Y-132309500D02*
X200430500Y-132309500D01*
X198919999Y-133820001D02*
X198120000Y-134620000D01*
X185166000Y-136779000D02*
X184277000Y-136779000D01*
X184277000Y-136779000D02*
X178054000Y-143002000D01*
X146075488Y-153546713D02*
X146452764Y-153923989D01*
X148250843Y-153923989D02*
X148504854Y-153669978D01*
X156210022Y-153669978D02*
X156680001Y-153199999D01*
X147214775Y-143002000D02*
X146075488Y-144141287D01*
X156680001Y-153199999D02*
X157480000Y-152400000D01*
X178054000Y-143002000D02*
X147214775Y-143002000D01*
X146452764Y-153923989D02*
X148250843Y-153923989D01*
X146075488Y-144141287D02*
X146075488Y-153546713D01*
X148504854Y-153669978D02*
X156210022Y-153669978D01*
X178181000Y-143256000D02*
X184242499Y-137194501D01*
X147320000Y-143256000D02*
X178181000Y-143256000D01*
X146329499Y-148869499D02*
X146329499Y-144246501D01*
X184242499Y-137194501D02*
X185893499Y-137194501D01*
X185893499Y-137194501D02*
X186182000Y-136906000D01*
X149860000Y-152400000D02*
X146329499Y-148869499D01*
X146329499Y-144246501D02*
X147320000Y-143256000D01*
X195580000Y-134620000D02*
X198177989Y-132022011D01*
X233299767Y-132470856D02*
X233524766Y-132695855D01*
X198177989Y-132022011D02*
X232850922Y-132022011D01*
X232850922Y-132022011D02*
X233299767Y-132470856D01*
X185998713Y-137448512D02*
X186033225Y-137414000D01*
X178286214Y-143510011D02*
X184347713Y-137448512D01*
X186033225Y-137414000D02*
X187198000Y-137414000D01*
X152400000Y-144780000D02*
X153669989Y-143510011D01*
X184347713Y-137448512D02*
X185998713Y-137448512D01*
X153669989Y-143510011D02*
X178286214Y-143510011D01*
X236155802Y-130648490D02*
X236474000Y-130648490D01*
X193040000Y-133488630D02*
X195880140Y-130648490D01*
X195880140Y-130648490D02*
X236155802Y-130648490D01*
X193040000Y-134620000D02*
X193040000Y-133488630D01*
X178400151Y-143789499D02*
X184360140Y-137829510D01*
X160020000Y-144780000D02*
X161010501Y-143789499D01*
X161010501Y-143789499D02*
X178400151Y-143789499D01*
X184360140Y-137829510D02*
X186724510Y-137829510D01*
X190500000Y-134620000D02*
X194887011Y-130232989D01*
X194887011Y-130232989D02*
X237872851Y-130232989D01*
X237872851Y-130232989D02*
X238261282Y-130621420D01*
X186981932Y-138245012D02*
X184334988Y-138245012D01*
X184277000Y-138303000D02*
X184277000Y-148610058D01*
X187960000Y-134620000D02*
X187960000Y-137266944D01*
X184334988Y-138245012D02*
X184277000Y-138303000D01*
X187160001Y-151493059D02*
X187160001Y-151600001D01*
X184277000Y-148610058D02*
X187160001Y-151493059D01*
X187960000Y-137266944D02*
X186981932Y-138245012D01*
X187160001Y-151600001D02*
X187960000Y-152400000D01*
X239417162Y-129465540D02*
X240079835Y-128802867D01*
X192880516Y-129465540D02*
X239417162Y-129465540D01*
X188759999Y-133820001D02*
X188759999Y-133586057D01*
X187960000Y-134620000D02*
X188759999Y-133820001D01*
X188759999Y-133586057D02*
X192880516Y-129465540D01*
X229234991Y-112648991D02*
X191846809Y-112648991D01*
X231876501Y-115290501D02*
X229234991Y-112648991D01*
X247929499Y-115290501D02*
X231876501Y-115290501D01*
X191846809Y-112648991D02*
X190195800Y-114300000D01*
X248920000Y-114300000D02*
X247929499Y-115290501D01*
X241300000Y-152400000D02*
X247396000Y-146304000D01*
X247396000Y-146304000D02*
X257683000Y-146304000D01*
X257683000Y-146304000D02*
X259207000Y-144780000D01*
X259207000Y-144780000D02*
X259207000Y-113792000D01*
X259207000Y-113792000D02*
X257810000Y-112395000D01*
X250825000Y-112395000D02*
X248920000Y-114300000D01*
X257810000Y-112395000D02*
X250825000Y-112395000D01*
X231775000Y-115570000D02*
X229108000Y-112903000D01*
X194132800Y-112903000D02*
X192735800Y-114300000D01*
X231800488Y-115544512D02*
X231775000Y-115570000D01*
X250215488Y-115544512D02*
X231800488Y-115544512D01*
X229108000Y-112903000D02*
X194132800Y-112903000D01*
X251460000Y-114300000D02*
X250215488Y-115544512D01*
X257556000Y-146050000D02*
X258953000Y-144653000D01*
X258953000Y-113940775D02*
X257661236Y-112649011D01*
X245110000Y-146050000D02*
X257556000Y-146050000D01*
X257661236Y-112649011D02*
X253110989Y-112649011D01*
X253110989Y-112649011D02*
X252259999Y-113500001D01*
X258953000Y-144653000D02*
X258953000Y-113940775D01*
X243840000Y-144780000D02*
X245110000Y-146050000D01*
X252259999Y-113500001D02*
X251460000Y-114300000D01*
X196418800Y-113157000D02*
X195275800Y-114300000D01*
X228981000Y-113157000D02*
X196418800Y-113157000D01*
X231648000Y-115824000D02*
X228981000Y-113157000D01*
X252476000Y-115824000D02*
X231648000Y-115824000D01*
X254000000Y-114300000D02*
X252476000Y-115824000D01*
X254000000Y-114300000D02*
X255396978Y-112903022D01*
X257556022Y-112903022D02*
X258698989Y-114045989D01*
X257476275Y-145770501D02*
X252450501Y-145770501D01*
X252259999Y-145579999D02*
X251460000Y-144780000D01*
X252450501Y-145770501D02*
X252259999Y-145579999D01*
X255396978Y-112903022D02*
X257556022Y-112903022D01*
X258698989Y-114045989D02*
X258698989Y-144547787D01*
X258698989Y-144547787D02*
X257476275Y-145770501D01*
X248920000Y-152400000D02*
X254762000Y-146558000D01*
X257937000Y-112141000D02*
X248539000Y-112141000D01*
X248539000Y-112141000D02*
X246380000Y-114300000D01*
X259461000Y-113665000D02*
X257937000Y-112141000D01*
X259461000Y-144907000D02*
X259461000Y-113665000D01*
X257810000Y-146558000D02*
X259461000Y-144907000D01*
X254762000Y-146558000D02*
X257810000Y-146558000D01*
X309080001Y-229070001D02*
X309880000Y-229870000D01*
X303809499Y-223799499D02*
X309080001Y-229070001D01*
X298729499Y-223799499D02*
X303809499Y-223799499D01*
X297180000Y-222250000D02*
X298729499Y-223799499D01*
X305790501Y-228320501D02*
X309080001Y-231610001D01*
X309080001Y-231610001D02*
X309880000Y-232410000D01*
X300710501Y-228320501D02*
X305790501Y-228320501D01*
X297180000Y-224790000D02*
X300710501Y-228320501D01*
X305790501Y-230860501D02*
X309080001Y-234150001D01*
X300710501Y-230860501D02*
X305790501Y-230860501D01*
X309080001Y-234150001D02*
X309880000Y-234950000D01*
X297180000Y-227330000D02*
X300710501Y-230860501D01*
X321780001Y-223049999D02*
X322580000Y-222250000D01*
X315950501Y-228879499D02*
X321780001Y-223049999D01*
X315950501Y-231419499D02*
X315950501Y-228879499D01*
X314960000Y-232410000D02*
X315950501Y-231419499D01*
X342900000Y-261620000D02*
X341757044Y-262762956D01*
X315790942Y-249555000D02*
X302133000Y-249555000D01*
X319277956Y-262762956D02*
X317500000Y-260985000D01*
X317500000Y-260985000D02*
X317500000Y-251264058D01*
X341757044Y-262762956D02*
X319277956Y-262762956D01*
X302133000Y-249555000D02*
X300228000Y-251460000D01*
X317500000Y-251264058D02*
X315790942Y-249555000D01*
X342900000Y-261620000D02*
X345694000Y-258826000D01*
X345694000Y-258826000D02*
X360807000Y-258826000D01*
X360807000Y-258826000D02*
X361950000Y-257683000D01*
X361950000Y-257683000D02*
X361950000Y-245745000D01*
X361950000Y-245745000D02*
X360426000Y-244221000D01*
X348234000Y-244221000D02*
X347980000Y-244475000D01*
X360426000Y-244221000D02*
X348234000Y-244221000D01*
X307340000Y-254000000D02*
X308610000Y-255270000D01*
X306070000Y-254000000D02*
X307340000Y-254000000D01*
X308610000Y-255270000D02*
X308610000Y-259080000D01*
X345440000Y-261620000D02*
X344043033Y-263016967D01*
X314219775Y-263017000D02*
X312547000Y-263017000D01*
X312547000Y-263017000D02*
X308610000Y-259080000D01*
X344043033Y-263016967D02*
X314219808Y-263016967D01*
X314219808Y-263016967D02*
X314219775Y-263017000D01*
X345440000Y-261620000D02*
X347980000Y-259080000D01*
X347980000Y-259080000D02*
X360934000Y-259080000D01*
X360934000Y-259080000D02*
X362204000Y-257810000D01*
X362204000Y-257810000D02*
X362204000Y-245618000D01*
X362204000Y-245618000D02*
X360553000Y-243967000D01*
X360553000Y-243967000D02*
X345694000Y-243967000D01*
X345694000Y-243967000D02*
X345440000Y-244221000D01*
X346329022Y-263270978D02*
X314325022Y-263270978D01*
X347980000Y-261620000D02*
X346329022Y-263270978D01*
X314325022Y-263270978D02*
X307594000Y-270002000D01*
X307594000Y-270002000D02*
X296075000Y-270002000D01*
X294297000Y-271780000D02*
X293370000Y-271780000D01*
X296075000Y-270002000D02*
X294297000Y-271780000D01*
X361039214Y-259334011D02*
X362458009Y-257915215D01*
X347980000Y-261620000D02*
X350265989Y-259334011D01*
X350265989Y-259334011D02*
X361039214Y-259334011D01*
X362458009Y-257915215D02*
X362458009Y-245512785D01*
X343154011Y-243712989D02*
X342900000Y-243967000D01*
X362458009Y-245512785D02*
X360658214Y-243712989D01*
X360658214Y-243712989D02*
X343154011Y-243712989D01*
X302260000Y-275590000D02*
X303530000Y-275590000D01*
X300990000Y-274320000D02*
X302260000Y-275590000D01*
X303530000Y-279400000D02*
X303530000Y-275590000D01*
X303530000Y-274458630D02*
X303530000Y-275590000D01*
X314463641Y-263524989D02*
X303530000Y-274458630D01*
X348615011Y-263524989D02*
X314463641Y-263524989D01*
X350520000Y-261620000D02*
X348615011Y-263524989D01*
X340614022Y-243458978D02*
X340360000Y-243713000D01*
X362712020Y-245407570D02*
X360763428Y-243458978D01*
X352551978Y-259588022D02*
X361144428Y-259588022D01*
X361144428Y-259588022D02*
X362712020Y-258020429D01*
X350520000Y-261620000D02*
X352551978Y-259588022D01*
X362712020Y-258020429D02*
X362712020Y-245407570D01*
X360763428Y-243458978D02*
X340614022Y-243458978D01*
X313690000Y-279400000D02*
X313690000Y-275590000D01*
X353060000Y-261620000D02*
X350901000Y-263779000D01*
X325315942Y-271780000D02*
X323850000Y-271780000D01*
X333316942Y-263779000D02*
X325315942Y-271780000D01*
X350901000Y-263779000D02*
X333316942Y-263779000D01*
X353060000Y-261620000D02*
X354837967Y-259842033D01*
X362966031Y-258125643D02*
X362966031Y-245258806D01*
X362966031Y-245258806D02*
X360912192Y-243204967D01*
X338074033Y-243204967D02*
X337820000Y-243459000D01*
X361249642Y-259842033D02*
X362966031Y-258125643D01*
X354837967Y-259842033D02*
X361249642Y-259842033D01*
X360912192Y-243204967D02*
X338074033Y-243204967D01*
X332740000Y-275590000D02*
X334010000Y-275590000D01*
X331470000Y-274320000D02*
X332740000Y-275590000D01*
X334010000Y-279400000D02*
X334010000Y-275590000D01*
X350579081Y-267843000D02*
X341757000Y-267843000D01*
X355600000Y-262822081D02*
X350579081Y-267843000D01*
X341757000Y-267843000D02*
X334010000Y-275590000D01*
X355600000Y-261620000D02*
X355600000Y-262822081D01*
X361354856Y-260096044D02*
X363220042Y-258230857D01*
X337968819Y-242950956D02*
X337968786Y-242950989D01*
X337968786Y-242950989D02*
X335534011Y-242950989D01*
X335534011Y-242950989D02*
X335280000Y-243205000D01*
X363220042Y-258230857D02*
X363220042Y-245153592D01*
X363220042Y-245153592D02*
X361017406Y-242950956D01*
X357123956Y-260096044D02*
X361354856Y-260096044D01*
X361017406Y-242950956D02*
X337968819Y-242950956D01*
X355600000Y-261620000D02*
X357123956Y-260096044D01*
X358140000Y-271780000D02*
X354330000Y-275590000D01*
X358140000Y-261620000D02*
X358140000Y-271780000D01*
X334134945Y-242696945D02*
X361166170Y-242696945D01*
X361166170Y-242696945D02*
X363474053Y-245004828D01*
X332736200Y-241298200D02*
X334134945Y-242696945D01*
X363474053Y-245004828D02*
X363474053Y-258336071D01*
X363474053Y-258336071D02*
X361460070Y-260350055D01*
X361460070Y-260350055D02*
X359409945Y-260350055D01*
X359409945Y-260350055D02*
X358989999Y-260770001D01*
X358989999Y-260770001D02*
X358140000Y-261620000D01*
X287020000Y-199390000D02*
X292100000Y-204470000D01*
X287020000Y-196850000D02*
X287020000Y-199390000D01*
X289560000Y-189230000D02*
X287020000Y-191770000D01*
X290830000Y-189230000D02*
X289560000Y-189230000D01*
X287020000Y-191770000D02*
X287020000Y-194310000D01*
X293370000Y-195923000D02*
X293370000Y-196850000D01*
X291757000Y-194310000D02*
X293370000Y-195923000D01*
X287020000Y-194310000D02*
X291757000Y-194310000D01*
X347980000Y-196850000D02*
X350520000Y-196850000D01*
X349250000Y-191770000D02*
X347980000Y-191770000D01*
X350520000Y-190500000D02*
X349250000Y-191770000D01*
X347980000Y-191770000D02*
X347980000Y-194310000D01*
X365760000Y-231140000D02*
X368300000Y-228600000D01*
X365760000Y-234950000D02*
X365760000Y-231140000D01*
X316204512Y-193014512D02*
X314960000Y-191770000D01*
X340853000Y-204470000D02*
X339583000Y-205740000D01*
X321310000Y-205740000D02*
X316204512Y-200634512D01*
X339583000Y-205740000D02*
X321310000Y-205740000D01*
X316204512Y-200634512D02*
X316204512Y-193014512D01*
X341630000Y-204470000D02*
X340853000Y-204470000D01*
X348757000Y-210820000D02*
X353060000Y-210820000D01*
X342407000Y-204470000D02*
X348757000Y-210820000D01*
X341630000Y-204470000D02*
X342407000Y-204470000D01*
X355600000Y-209793000D02*
X355600000Y-210820000D01*
X350277000Y-204470000D02*
X355600000Y-209793000D01*
X347980000Y-204470000D02*
X350277000Y-204470000D01*
X154940000Y-240030000D02*
X154940000Y-250190000D01*
X156094000Y-254116000D02*
X154940000Y-255270000D01*
X156094000Y-246253000D02*
X156094000Y-254116000D01*
X161290000Y-241057000D02*
X156094000Y-246253000D01*
X161290000Y-240030000D02*
X161290000Y-241057000D01*
X297650001Y-255740001D02*
X298450000Y-256540000D01*
X296900501Y-252450501D02*
X296900501Y-254990501D01*
X296900501Y-254990501D02*
X297650001Y-255740001D01*
X295910000Y-251460000D02*
X296900501Y-252450501D01*
X295910000Y-259080000D02*
X298450000Y-256540000D01*
X299249999Y-255740001D02*
X298450000Y-256540000D01*
X304520501Y-250469499D02*
X299249999Y-255740001D01*
X307619499Y-250469499D02*
X304520501Y-250469499D01*
X308610000Y-251460000D02*
X307619499Y-250469499D01*
X317029999Y-258280001D02*
X316230000Y-259080000D01*
X317220501Y-258089499D02*
X317029999Y-258280001D01*
X317220501Y-252450501D02*
X317220501Y-258089499D01*
X316230000Y-251460000D02*
X317220501Y-252450501D01*
X302768000Y-262382000D02*
X306070000Y-259080000D01*
X292608000Y-262382000D02*
X302768000Y-262382000D01*
X283210000Y-271780000D02*
X292608000Y-262382000D01*
X293370000Y-276860000D02*
X290830000Y-279400000D01*
X302539499Y-272770501D02*
X303530000Y-271780000D01*
X297459499Y-272770501D02*
X302539499Y-272770501D01*
X293370000Y-276860000D02*
X297459499Y-272770501D01*
X290830000Y-272911370D02*
X290830000Y-271780000D01*
X290830000Y-273188630D02*
X290830000Y-272911370D01*
X293370000Y-275728630D02*
X290830000Y-273188630D01*
X293370000Y-276860000D02*
X293370000Y-275728630D01*
X310350001Y-280199999D02*
X311150000Y-279400000D01*
X301980501Y-280390501D02*
X310159499Y-280390501D01*
X310159499Y-280390501D02*
X310350001Y-280199999D01*
X300990000Y-279400000D02*
X301980501Y-280390501D01*
X310159499Y-278409499D02*
X310350001Y-278600001D01*
X310350001Y-278600001D02*
X311150000Y-279400000D01*
X310159499Y-272770501D02*
X310159499Y-278409499D01*
X311150000Y-271780000D02*
X310159499Y-272770501D01*
X311150000Y-271780000D02*
X313690000Y-271780000D01*
X323050001Y-276060001D02*
X323850000Y-276860000D01*
X322300501Y-275310501D02*
X323050001Y-276060001D01*
X322300501Y-272770501D02*
X322300501Y-275310501D01*
X321310000Y-271780000D02*
X322300501Y-272770501D01*
X323850000Y-276860000D02*
X321310000Y-279400000D01*
X324649999Y-276060001D02*
X323850000Y-276860000D01*
X331329131Y-273329499D02*
X327380501Y-273329499D01*
X327380501Y-273329499D02*
X324649999Y-276060001D01*
X332878630Y-271780000D02*
X331329131Y-273329499D01*
X334010000Y-271780000D02*
X332878630Y-271780000D01*
X340830001Y-280199999D02*
X341630000Y-279400000D01*
X340639499Y-280390501D02*
X340830001Y-280199999D01*
X332460501Y-280390501D02*
X340639499Y-280390501D01*
X331470000Y-279400000D02*
X332460501Y-280390501D01*
X352208129Y-272770501D02*
X342620501Y-272770501D01*
X353198630Y-271780000D02*
X352208129Y-272770501D01*
X354330000Y-271780000D02*
X353198630Y-271780000D01*
X342429999Y-278600001D02*
X341630000Y-279400000D01*
X342620501Y-278409499D02*
X342429999Y-278600001D01*
X342620501Y-272770501D02*
X342620501Y-278409499D01*
X341630000Y-271780000D02*
X342620501Y-272770501D01*
X344969999Y-277659999D02*
X344170000Y-276860000D01*
X345719499Y-278409499D02*
X344969999Y-277659999D01*
X360959499Y-278409499D02*
X345719499Y-278409499D01*
X361150001Y-278600001D02*
X361950000Y-279400000D01*
X360959499Y-278409499D02*
X361150001Y-278600001D01*
X360959499Y-273901871D02*
X360959499Y-278409499D01*
X361950000Y-272911370D02*
X360959499Y-273901871D01*
X361950000Y-271780000D02*
X361950000Y-272911370D01*
X279400000Y-207192000D02*
X285900000Y-207192000D01*
X290843942Y-207192000D02*
X285900000Y-207192000D01*
X299720000Y-198315942D02*
X290843942Y-207192000D01*
X299720000Y-184150000D02*
X299720000Y-198315942D01*
X298450000Y-182880000D02*
X299720000Y-184150000D01*
X368450000Y-194460000D02*
X369570000Y-195580000D01*
X368450000Y-188650000D02*
X368450000Y-194460000D01*
X368450000Y-188650000D02*
X361950000Y-188650000D01*
X252476000Y-123444000D02*
X179890058Y-123444000D01*
X174784559Y-128549499D02*
X163550501Y-128549499D01*
X179890058Y-123444000D02*
X174784559Y-128549499D01*
X163550501Y-128549499D02*
X160819999Y-131280001D01*
X160819999Y-131280001D02*
X160020000Y-132080000D01*
X254000000Y-121920000D02*
X252476000Y-123444000D01*
X189068490Y-135013657D02*
X189068490Y-134151401D01*
X191214833Y-137160000D02*
X189068490Y-135013657D01*
X254000000Y-134620000D02*
X251460000Y-137160000D01*
X251460000Y-137160000D02*
X191214833Y-137160000D01*
X187689416Y-132876488D02*
X187433698Y-132876488D01*
X187914415Y-132651489D02*
X187689416Y-132876488D01*
X185073511Y-135236675D02*
X185073510Y-135813656D01*
X187433698Y-132876488D02*
X185073511Y-135236675D01*
X185073510Y-135813656D02*
X184616166Y-136271000D01*
X184616166Y-136271000D02*
X164846000Y-136271000D01*
X164846000Y-136271000D02*
X161671000Y-133096000D01*
X187960000Y-146865324D02*
X189650166Y-148555490D01*
X187960000Y-144780000D02*
X187960000Y-146865324D01*
X205740000Y-157480000D02*
X202184000Y-153924000D01*
X202184000Y-153924000D02*
X172212000Y-153924000D01*
X172212000Y-153924000D02*
X167005000Y-148717000D01*
X153797000Y-148717000D02*
X149860000Y-144780000D01*
X167005000Y-148717000D02*
X153797000Y-148717000D01*
X200660000Y-157480000D02*
X197612000Y-154432000D01*
X156972000Y-154432000D02*
X156718000Y-154686000D01*
X197612000Y-154432000D02*
X156972000Y-154432000D01*
X208280000Y-157480000D02*
X204470000Y-153670000D01*
X204470000Y-153670000D02*
X172339000Y-153670000D01*
X172339000Y-153670000D02*
X167132000Y-148463000D01*
X161163000Y-148463000D02*
X157480000Y-144780000D01*
X167132000Y-148463000D02*
X161163000Y-148463000D01*
X203200000Y-157480000D02*
X199898000Y-154178000D01*
X199898000Y-154178000D02*
X148971000Y-154178000D01*
X148971000Y-154178000D02*
X148717000Y-154432000D01*
X239750501Y-184991725D02*
X239750501Y-185848275D01*
X239750501Y-185848275D02*
X238908776Y-186690000D01*
X239188275Y-184429499D02*
X239750501Y-184991725D01*
X237210501Y-184429499D02*
X239188275Y-184429499D01*
X236220000Y-185420000D02*
X237210501Y-184429499D01*
X226822000Y-188595000D02*
X228727000Y-186690000D01*
X203209000Y-190495800D02*
X205109800Y-188595000D01*
X238908776Y-186690000D02*
X228727000Y-186690000D01*
X205109800Y-188595000D02*
X226822000Y-188595000D01*
X234950000Y-184150000D02*
X239268000Y-184150000D01*
X240030000Y-184912000D02*
X240030000Y-185928000D01*
X233680000Y-185420000D02*
X234950000Y-184150000D01*
X228832224Y-186944000D02*
X226927214Y-188849011D01*
X239268000Y-184150000D02*
X240030000Y-184912000D01*
X226927214Y-188849011D02*
X207395789Y-188849011D01*
X239014000Y-186944000D02*
X228832224Y-186944000D01*
X240030000Y-185928000D02*
X239014000Y-186944000D01*
X207395789Y-188849011D02*
X205744800Y-190500000D01*
X239373214Y-183895989D02*
X240284011Y-184806786D01*
X227032428Y-189103022D02*
X209681778Y-189103022D01*
X239119214Y-187198011D02*
X228937438Y-187198011D01*
X232664011Y-183895989D02*
X239373214Y-183895989D01*
X240284011Y-184806786D02*
X240284011Y-186033214D01*
X231140000Y-185420000D02*
X232664011Y-183895989D01*
X209088999Y-189695801D02*
X208289000Y-190495800D01*
X240284011Y-186033214D02*
X239119214Y-187198011D01*
X228937438Y-187198011D02*
X227032428Y-189103022D01*
X209681778Y-189103022D02*
X209088999Y-189695801D01*
X168439999Y-189695801D02*
X167640000Y-190495800D01*
X186377964Y-188467978D02*
X169667822Y-188467978D01*
X188941476Y-185067870D02*
X188950501Y-185076895D01*
X185420000Y-185420000D02*
X186410501Y-184429499D01*
X188941476Y-184935534D02*
X188941476Y-185067870D01*
X186410501Y-184429499D02*
X188435441Y-184429499D01*
X169667822Y-188467978D02*
X168439999Y-189695801D01*
X188950501Y-185076895D02*
X188950501Y-185895441D01*
X188435441Y-184429499D02*
X188941476Y-184935534D01*
X188950501Y-185895441D02*
X186377964Y-188467978D01*
X170979999Y-189695801D02*
X170180000Y-190495800D01*
X171953811Y-188721989D02*
X170979999Y-189695801D01*
X189195487Y-184750487D02*
X189195487Y-184962656D01*
X189229989Y-186055011D02*
X186563011Y-188721989D01*
X182880000Y-185420000D02*
X184149989Y-184150011D01*
X189195487Y-184962656D02*
X189229989Y-184997158D01*
X184149989Y-184150011D02*
X188595011Y-184150011D01*
X188595011Y-184150011D02*
X189195487Y-184750487D01*
X189229989Y-184997158D02*
X189229989Y-186055011D01*
X186563011Y-188721989D02*
X171953811Y-188721989D01*
X189484000Y-186182000D02*
X189484000Y-184891944D01*
X181139999Y-184620001D02*
X180340000Y-185420000D01*
X181864000Y-183896000D02*
X181139999Y-184620001D01*
X189484000Y-184891944D02*
X189449498Y-184857442D01*
X172720000Y-190495800D02*
X174239800Y-188976000D01*
X186690000Y-188976000D02*
X189484000Y-186182000D01*
X188722000Y-183896000D02*
X181864000Y-183896000D01*
X189449498Y-184857442D02*
X189449498Y-184623498D01*
X174239800Y-188976000D02*
X186690000Y-188976000D01*
X189449498Y-184623498D02*
X188722000Y-183896000D01*
X154140001Y-189695801D02*
X154940000Y-190495800D01*
X153801222Y-189357022D02*
X154140001Y-189695801D01*
X147893347Y-189357022D02*
X153801222Y-189357022D01*
X146378388Y-187842063D02*
X147893347Y-189357022D01*
X146378388Y-173026612D02*
X146378388Y-187842063D01*
X147955011Y-171449989D02*
X146378388Y-173026612D01*
X176530011Y-171449989D02*
X147955011Y-171449989D01*
X177800000Y-170180000D02*
X176530011Y-171449989D01*
X147998561Y-189103011D02*
X156087211Y-189103011D01*
X146632399Y-187736849D02*
X147998561Y-189103011D01*
X146632399Y-173153601D02*
X146632399Y-187736849D01*
X148082000Y-171704000D02*
X146632399Y-173153601D01*
X178816000Y-171704000D02*
X148082000Y-171704000D01*
X156087211Y-189103011D02*
X157480000Y-190495800D01*
X180340000Y-170180000D02*
X178816000Y-171704000D01*
X181102000Y-171958000D02*
X182880000Y-170180000D01*
X148209000Y-171958000D02*
X181102000Y-171958000D01*
X146886410Y-173280590D02*
X148209000Y-171958000D01*
X148103775Y-188849000D02*
X146886410Y-187631635D01*
X146886410Y-187631635D02*
X146886410Y-173280590D01*
X158373200Y-188849000D02*
X148103775Y-188849000D01*
X160020000Y-190495800D02*
X158373200Y-188849000D01*
X160659200Y-188595000D02*
X162560000Y-190495800D01*
X148209000Y-188595000D02*
X160659200Y-188595000D01*
X147140421Y-187526421D02*
X148209000Y-188595000D01*
X147140421Y-173407579D02*
X147140421Y-187526421D01*
X148336000Y-172212000D02*
X147140421Y-173407579D01*
X183388000Y-172212000D02*
X148336000Y-172212000D01*
X185420000Y-170180000D02*
X183388000Y-172212000D01*
X185674000Y-172466000D02*
X187960000Y-170180000D01*
X148463000Y-172466000D02*
X185674000Y-172466000D01*
X147394432Y-187399432D02*
X147394432Y-173534568D01*
X165100000Y-190495800D02*
X162945200Y-188341000D01*
X162945200Y-188341000D02*
X148336000Y-188341000D01*
X148336000Y-188341000D02*
X147394432Y-187399432D01*
X147394432Y-173534568D02*
X148463000Y-172466000D01*
X278924559Y-190779499D02*
X278130000Y-191574058D01*
X279875441Y-190779499D02*
X278924559Y-190779499D01*
X280390501Y-191294559D02*
X279875441Y-190779499D01*
X280390501Y-193319499D02*
X280390501Y-191294559D01*
X279400000Y-194310000D02*
X280390501Y-193319499D01*
X278130000Y-207683942D02*
X279996058Y-209550000D01*
X278130000Y-191574058D02*
X278130000Y-207683942D01*
X285634058Y-209550000D02*
X293370000Y-217285942D01*
X279996058Y-209550000D02*
X285634058Y-209550000D01*
X293370000Y-226060000D02*
X297180000Y-229870000D01*
X293370000Y-217285942D02*
X293370000Y-226060000D01*
X334480001Y-234150001D02*
X335280000Y-234950000D01*
X329209499Y-228879499D02*
X334480001Y-234150001D01*
X327743557Y-228879499D02*
X329209499Y-228879499D01*
X323055441Y-221259499D02*
X326669499Y-224873557D01*
X326669499Y-227805441D02*
X327743557Y-228879499D01*
X326669499Y-224873557D02*
X326669499Y-227805441D01*
X317436499Y-221259499D02*
X323055441Y-221259499D01*
X315887000Y-219710000D02*
X317436499Y-221259499D01*
X314960000Y-219710000D02*
X315887000Y-219710000D01*
X321780001Y-234150001D02*
X322580000Y-234950000D01*
X321589499Y-233959499D02*
X321780001Y-234150001D01*
X313969499Y-229953557D02*
X313969499Y-232885441D01*
X310355441Y-226339499D02*
X313969499Y-229953557D01*
X309816499Y-226339499D02*
X310355441Y-226339499D01*
X313969499Y-232885441D02*
X315043557Y-233959499D01*
X303187000Y-219710000D02*
X309816499Y-226339499D01*
X315043557Y-233959499D02*
X321589499Y-233959499D01*
X302260000Y-219710000D02*
X303187000Y-219710000D01*
X304927000Y-226441000D02*
X304927000Y-225552000D01*
X307340000Y-228854000D02*
X304927000Y-226441000D01*
X339560001Y-195109999D02*
X340360000Y-194310000D01*
X334657501Y-195300501D02*
X339369499Y-195300501D01*
X339369499Y-195300501D02*
X339560001Y-195109999D01*
X328587000Y-189230000D02*
X334657501Y-195300501D01*
X327660000Y-189230000D02*
X328587000Y-189230000D01*
X326860001Y-192569999D02*
X327660000Y-191770000D01*
X319417501Y-192760501D02*
X326669499Y-192760501D01*
X315887000Y-189230000D02*
X319417501Y-192760501D01*
X326669499Y-192760501D02*
X326860001Y-192569999D01*
X314960000Y-189230000D02*
X315887000Y-189230000D01*
X186182000Y-265430000D02*
X182626000Y-261874000D01*
X193675000Y-265430000D02*
X186182000Y-265430000D01*
X195580000Y-266700000D02*
X186309000Y-266700000D01*
X186309000Y-266700000D02*
X182626000Y-263017000D01*
X196850000Y-273050000D02*
X195580000Y-271780000D01*
X202692000Y-273050000D02*
X196850000Y-273050000D01*
X187579000Y-271780000D02*
X182880000Y-267081000D01*
X195580000Y-271780000D02*
X187579000Y-271780000D01*
X250754701Y-102545701D02*
X253365000Y-105156000D01*
X242312501Y-102545701D02*
X250754701Y-102545701D01*
X241322000Y-101555200D02*
X242312501Y-102545701D01*
X254889000Y-104775000D02*
X255016000Y-104648000D01*
X254889000Y-106807000D02*
X254889000Y-104775000D01*
X254127000Y-107126002D02*
X254223508Y-107222510D01*
X254127000Y-104902000D02*
X254127000Y-107126002D01*
X213487000Y-111343248D02*
X214086248Y-110744000D01*
X214120760Y-110709488D02*
X214410512Y-110709488D01*
X214410512Y-110709488D02*
X214283512Y-110709488D01*
X213487000Y-111343248D02*
X214120760Y-110709488D01*
X226602512Y-110709488D02*
X214410512Y-110709488D01*
X227329989Y-109982011D02*
X226602512Y-110709488D01*
X224125999Y-103094999D02*
X224125999Y-103348999D01*
X227329989Y-106552989D02*
X227329989Y-109982011D01*
X224125999Y-103348999D02*
X227329989Y-106552989D01*
X223901000Y-102870000D02*
X224125999Y-103094999D01*
X225552000Y-104013000D02*
X227838000Y-106299000D01*
X226822000Y-111252000D02*
X219456000Y-111252000D01*
X225171000Y-103378000D02*
X225552000Y-103759000D01*
X227838000Y-106299000D02*
X227838000Y-110236000D01*
X225552000Y-103759000D02*
X225552000Y-104013000D01*
X219456000Y-111252000D02*
X219329000Y-111379000D01*
X219329000Y-111379000D02*
X218567000Y-111379000D01*
X227838000Y-110236000D02*
X226822000Y-111252000D01*
X219452501Y-102545701D02*
X219261999Y-102355199D01*
X227072501Y-106676501D02*
X222941701Y-102545701D01*
X227072501Y-109858499D02*
X227072501Y-106676501D01*
X211936667Y-110455477D02*
X226475523Y-110455477D01*
X219261999Y-102355199D02*
X218462000Y-101555200D01*
X222941701Y-102545701D02*
X219452501Y-102545701D01*
X211048900Y-111343244D02*
X211936667Y-110455477D01*
X226475523Y-110455477D02*
X227072501Y-109858499D01*
X216027000Y-111343246D02*
X216372246Y-110998000D01*
X216406747Y-110963499D02*
X216027000Y-111343246D01*
X216881499Y-110963499D02*
X216406747Y-110963499D01*
X216881499Y-110963499D02*
X216569501Y-110963499D01*
X226729501Y-110963499D02*
X216881499Y-110963499D01*
X227584000Y-110109000D02*
X226729501Y-110963499D01*
X224536000Y-102870000D02*
X224536000Y-103378000D01*
X227584000Y-106426000D02*
X227584000Y-110109000D01*
X224536000Y-103378000D02*
X227584000Y-106426000D01*
X194183000Y-104902000D02*
X196850000Y-107569000D01*
X180362000Y-101555200D02*
X183708800Y-104902000D01*
X183708800Y-104902000D02*
X194183000Y-104902000D01*
X186309011Y-114829786D02*
X187684214Y-116204989D01*
X196088000Y-110744000D02*
X189357000Y-110744000D01*
X209715801Y-121120001D02*
X210515800Y-121920000D01*
X187684214Y-116204989D02*
X204800789Y-116204989D01*
X204800789Y-116204989D02*
X209715801Y-121120001D01*
X186309011Y-113791989D02*
X186309011Y-114829786D01*
X196850000Y-109982000D02*
X196088000Y-110744000D01*
X189357000Y-110744000D02*
X186309011Y-113791989D01*
X196850000Y-107569000D02*
X196850000Y-109982000D01*
X185917441Y-108184699D02*
X186432501Y-108699759D01*
X183377441Y-110165701D02*
X184451499Y-109091643D01*
X184451499Y-109091643D02*
X184451499Y-108699759D01*
X182426559Y-110165701D02*
X183377441Y-110165701D01*
X177822000Y-109175200D02*
X178812501Y-108184699D01*
X181911499Y-109650641D02*
X182426559Y-110165701D01*
X187452000Y-116459000D02*
X202514800Y-116459000D01*
X186432501Y-113287499D02*
X186055000Y-113665000D01*
X186432501Y-108699759D02*
X186432501Y-113287499D01*
X184966559Y-108184699D02*
X185917441Y-108184699D01*
X186055000Y-115062000D02*
X187452000Y-116459000D01*
X178812501Y-108184699D02*
X180837441Y-108184699D01*
X186055000Y-113665000D02*
X186055000Y-115062000D01*
X181911499Y-109258757D02*
X181911499Y-109650641D01*
X180837441Y-108184699D02*
X181911499Y-109258757D01*
X184451499Y-108699759D02*
X184966559Y-108184699D01*
X202514800Y-116459000D02*
X207721800Y-121666000D01*
X188781999Y-102355199D02*
X187982000Y-101555200D01*
X213055800Y-121920000D02*
X206959778Y-115823978D01*
X196193214Y-110998011D02*
X197104011Y-110087214D01*
X186665299Y-114826849D02*
X186665299Y-113824559D01*
X187662428Y-115823978D02*
X186665299Y-114826849D01*
X197104011Y-107463786D02*
X194283853Y-104643629D01*
X189491847Y-110998011D02*
X196193214Y-110998011D01*
X194283853Y-104643629D02*
X191070429Y-104643629D01*
X186665299Y-113824559D02*
X189491847Y-110998011D01*
X191070429Y-104643629D02*
X188781999Y-102355199D01*
X206959778Y-115823978D02*
X187662428Y-115823978D01*
X197104011Y-110087214D02*
X197104011Y-107463786D01*
X185442000Y-114808225D02*
X187473784Y-116840009D01*
X185442000Y-109175200D02*
X185442000Y-114808225D01*
X197815809Y-116840009D02*
X202095801Y-121120001D01*
X202095801Y-121120001D02*
X202895800Y-121920000D01*
X187473784Y-116840009D02*
X197815809Y-116840009D01*
X214198800Y-120523000D02*
X215595800Y-121920000D01*
X212344000Y-120523000D02*
X214198800Y-120523000D01*
X210566000Y-118745000D02*
X212344000Y-120523000D01*
X169672000Y-110490000D02*
X163068000Y-103886000D01*
X180318224Y-110490000D02*
X169672000Y-110490000D01*
X152528396Y-103984012D02*
X151179442Y-103984012D01*
X198943116Y-118554936D02*
X188383160Y-118554936D01*
X163068000Y-103886000D02*
X152626408Y-103886000D01*
X188383160Y-118554936D02*
X180318224Y-110490000D01*
X152626408Y-103886000D02*
X152528396Y-103984012D01*
X151179442Y-103984012D02*
X149882000Y-102686570D01*
X149882000Y-102686570D02*
X149882000Y-101555200D01*
X180396701Y-110165701D02*
X187515579Y-117284579D01*
X187700423Y-117284579D02*
X187925422Y-117509578D01*
X187515579Y-117284579D02*
X187700423Y-117284579D01*
X162106559Y-102545701D02*
X169726559Y-110165701D01*
X158492501Y-102545701D02*
X162106559Y-102545701D01*
X169726559Y-110165701D02*
X180396701Y-110165701D01*
X157502000Y-101555200D02*
X158492501Y-102545701D01*
X187388500Y-118173500D02*
X187452000Y-118237000D01*
X187388500Y-117919500D02*
X187388500Y-118173500D01*
X169545000Y-110744000D02*
X180213000Y-110744000D01*
X180213000Y-110744000D02*
X187388500Y-117919500D01*
X166145001Y-107344001D02*
X169545000Y-110744000D01*
X159355999Y-107344001D02*
X166145001Y-107344001D01*
X159131000Y-107569000D02*
X159355999Y-107344001D01*
X287147000Y-151892000D02*
X289814033Y-149224967D01*
X306853809Y-149224967D02*
X308330501Y-147748275D01*
X308330501Y-145240725D02*
X306599798Y-143510022D01*
X289814033Y-149224967D02*
X306853809Y-149224967D01*
X308330501Y-147748275D02*
X308330501Y-145240725D01*
X287020000Y-139700000D02*
X288290000Y-140970000D01*
X288290000Y-140970000D02*
X289559956Y-140970000D01*
X289559956Y-140970000D02*
X292099978Y-143510022D01*
X306599798Y-143510022D02*
X292099978Y-143510022D01*
X294640000Y-139700000D02*
X298196011Y-143256011D01*
X306959022Y-149478978D02*
X292100022Y-149478978D01*
X292100022Y-149478978D02*
X290536999Y-151042001D01*
X308609989Y-145160989D02*
X308609989Y-147828011D01*
X290536999Y-151042001D02*
X289687000Y-151892000D01*
X308609989Y-147828011D02*
X306959022Y-149478978D01*
X306705011Y-143256011D02*
X308609989Y-145160989D01*
X298196011Y-143256011D02*
X306705011Y-143256011D01*
X294386011Y-149732989D02*
X307064235Y-149732989D01*
X307064235Y-149732989D02*
X308864000Y-147933224D01*
X292227000Y-151892000D02*
X294386011Y-149732989D01*
X308864000Y-145034000D02*
X306832000Y-143002000D01*
X306832000Y-143002000D02*
X300482000Y-143002000D01*
X297979999Y-140499999D02*
X297180000Y-139700000D01*
X300482000Y-143002000D02*
X297979999Y-140499999D01*
X308864000Y-147933224D02*
X308864000Y-145034000D01*
X304800000Y-139700000D02*
X304800000Y-141986000D01*
X304800000Y-141986000D02*
X305562000Y-142748000D01*
X305562000Y-142748000D02*
X306959000Y-142748000D01*
X306959000Y-142748000D02*
X309118000Y-144907000D01*
X309118000Y-144928776D02*
X309118010Y-144928786D01*
X309118010Y-144928786D02*
X309118009Y-148038439D01*
X309118000Y-144907000D02*
X309118000Y-144928776D01*
X309118009Y-148038439D02*
X307169448Y-149987000D01*
X296672000Y-149987000D02*
X294767000Y-151892000D01*
X307169448Y-149987000D02*
X296672000Y-149987000D01*
X303149033Y-148970967D02*
X304000001Y-148119999D01*
X285369011Y-152400011D02*
X285369011Y-150048661D01*
X297307000Y-151892000D02*
X295783000Y-153416000D01*
X285369011Y-150048661D02*
X286446705Y-148970967D01*
X295783000Y-153416000D02*
X286385000Y-153416000D01*
X286385000Y-153416000D02*
X285369011Y-152400011D01*
X286446705Y-148970967D02*
X303149033Y-148970967D01*
X304000001Y-148119999D02*
X304800000Y-147320000D01*
X297180000Y-147320000D02*
X295783044Y-148716956D01*
X298997001Y-152741999D02*
X299847000Y-151892000D01*
X286258011Y-153670011D02*
X298068989Y-153670011D01*
X285115000Y-152527000D02*
X286258011Y-153670011D01*
X295783044Y-148716956D02*
X286341491Y-148716956D01*
X298068989Y-153670011D02*
X298997001Y-152741999D01*
X286341491Y-148716956D02*
X285115000Y-149943447D01*
X285115000Y-149943447D02*
X285115000Y-152527000D01*
X322580000Y-144780000D02*
X325120000Y-147320000D01*
X316345942Y-144780000D02*
X322580000Y-144780000D01*
X310884942Y-150241000D02*
X316345942Y-144780000D01*
X301498000Y-150241000D02*
X310884942Y-150241000D01*
X299847000Y-151892000D02*
X301498000Y-150241000D01*
X343662000Y-148717000D02*
X347472000Y-144907000D01*
X347472000Y-144907000D02*
X353187000Y-144907000D01*
X326517000Y-148717000D02*
X343662000Y-148717000D01*
X353187000Y-144907000D02*
X355600000Y-147320000D01*
X325120000Y-147320000D02*
X326517000Y-148717000D01*
X293497044Y-148462956D02*
X293840001Y-148119999D01*
X286152797Y-153924022D02*
X284860989Y-152632214D01*
X293840001Y-148119999D02*
X294640000Y-147320000D01*
X302387000Y-151892000D02*
X300354978Y-153924022D01*
X284860989Y-149838233D02*
X286236266Y-148462956D01*
X284860989Y-152632214D02*
X284860989Y-149838233D01*
X300354978Y-153924022D02*
X286152797Y-153924022D01*
X286236266Y-148462956D02*
X293497044Y-148462956D01*
X322580000Y-147320000D02*
X320294000Y-145034000D01*
X320294000Y-145034000D02*
X316484000Y-145034000D01*
X316484000Y-145034000D02*
X311023000Y-150495000D01*
X303784000Y-150495000D02*
X302387000Y-151892000D01*
X311023000Y-150495000D02*
X303784000Y-150495000D01*
X322580000Y-147320000D02*
X324231000Y-148971000D01*
X324231000Y-148971000D02*
X343767224Y-148971000D01*
X353060000Y-147320000D02*
X350901000Y-145161000D01*
X347577224Y-145161000D02*
X346572112Y-146166112D01*
X350901000Y-145161000D02*
X347577224Y-145161000D01*
X346572112Y-146166112D02*
X346710009Y-146028215D01*
X343767224Y-148971000D02*
X346572112Y-146166112D01*
X284606967Y-149733033D02*
X287020000Y-147320000D01*
X284606967Y-152737417D02*
X284606967Y-149733033D01*
X286047583Y-154178033D02*
X284606967Y-152737417D01*
X302640967Y-154178033D02*
X286047583Y-154178033D01*
X304927000Y-151892000D02*
X302640967Y-154178033D01*
X305967501Y-150851499D02*
X311047501Y-150851499D01*
X304927000Y-151892000D02*
X305967501Y-150851499D01*
X311047501Y-150851499D02*
X316611000Y-145288000D01*
X316611000Y-145288000D02*
X319405000Y-145288000D01*
X320040000Y-145923000D02*
X320040000Y-147320000D01*
X319405000Y-145288000D02*
X320040000Y-145923000D01*
X320040000Y-147320000D02*
X320967000Y-147320000D01*
X322872011Y-149225011D02*
X343872438Y-149225011D01*
X320967000Y-147320000D02*
X322872011Y-149225011D01*
X350520000Y-147320000D02*
X350520000Y-146177000D01*
X350520000Y-146177000D02*
X349758000Y-145415000D01*
X347682450Y-145415000D02*
X346942225Y-146155225D01*
X349758000Y-145415000D02*
X347682450Y-145415000D01*
X346942225Y-146155225D02*
X346964020Y-146133429D01*
X343872438Y-149225011D02*
X346942225Y-146155225D01*
X358140000Y-220980000D02*
X354330000Y-217170000D01*
X328587000Y-219710000D02*
X327660000Y-219710000D01*
X331127000Y-217170000D02*
X328587000Y-219710000D01*
X354330000Y-217170000D02*
X331127000Y-217170000D01*
X190500000Y-198124800D02*
X190509000Y-198115800D01*
X190500000Y-203200000D02*
X190500000Y-198124800D01*
X193049000Y-203191000D02*
X193040000Y-203200000D01*
X193049000Y-198115800D02*
X193049000Y-203191000D01*
X353060000Y-139700000D02*
X351536000Y-138176000D01*
X351536000Y-138176000D02*
X271653000Y-138176000D01*
X264414000Y-130937000D02*
X262890000Y-130937000D01*
X271653000Y-138176000D02*
X264414000Y-130937000D01*
X353822000Y-137922000D02*
X272161000Y-137922000D01*
X355600000Y-139700000D02*
X353822000Y-137922000D01*
X264541000Y-130302000D02*
X262890000Y-130302000D01*
X272161000Y-137922000D02*
X264541000Y-130302000D01*
X184179001Y-135733999D02*
X176500999Y-135733999D01*
X184404000Y-135509000D02*
X184179001Y-135733999D01*
X176500999Y-135733999D02*
X175387000Y-134620000D01*
X160819999Y-121120001D02*
X160020000Y-121920000D01*
X161010501Y-120929499D02*
X160819999Y-121120001D01*
X167556443Y-120929499D02*
X161010501Y-120929499D01*
X169105942Y-119380000D02*
X167556443Y-120929499D01*
X172720000Y-119380000D02*
X169105942Y-119380000D01*
X255613000Y-127000000D02*
X249136000Y-133477000D01*
X256540000Y-127000000D02*
X255613000Y-127000000D01*
X219239999Y-133820001D02*
X218440000Y-134620000D01*
X219430501Y-133629499D02*
X219239999Y-133820001D01*
X222116443Y-134290501D02*
X221455441Y-133629499D01*
X221455441Y-133629499D02*
X219430501Y-133629499D01*
X228929499Y-134290501D02*
X222116443Y-134290501D01*
X229743000Y-133477000D02*
X228929499Y-134290501D01*
X249136000Y-133477000D02*
X229743000Y-133477000D01*
X321589499Y-138709499D02*
X270662499Y-138709499D01*
X322580000Y-139700000D02*
X321589499Y-138709499D01*
X264287000Y-132334000D02*
X262988803Y-132334000D01*
X270662499Y-138709499D02*
X264287000Y-132334000D01*
X262988803Y-132334000D02*
X262890000Y-132235197D01*
X173990000Y-123190000D02*
X172720000Y-124460000D01*
X216865800Y-123190000D02*
X173990000Y-123190000D01*
X218135800Y-121920000D02*
X216865800Y-123190000D01*
X172720000Y-124460000D02*
X171450000Y-125730000D01*
X163830000Y-125730000D02*
X160020000Y-129540000D01*
X171450000Y-125730000D02*
X163830000Y-125730000D01*
X220446301Y-119609499D02*
X218935799Y-121120001D01*
X218935799Y-121120001D02*
X218135800Y-121920000D01*
X252157501Y-119609499D02*
X220446301Y-119609499D01*
X256540000Y-115227000D02*
X252157501Y-119609499D01*
X256540000Y-114300000D02*
X256540000Y-115227000D01*
X325120000Y-139700000D02*
X323850000Y-138430000D01*
X323850000Y-138430000D02*
X271145000Y-138430000D01*
X264287000Y-131572000D02*
X262890000Y-131572000D01*
X271145000Y-138430000D02*
X264287000Y-131572000D01*
X174980501Y-122910501D02*
X204445299Y-122910501D01*
X204635801Y-122719999D02*
X205435800Y-121920000D01*
X204445299Y-122910501D02*
X204635801Y-122719999D01*
X174980501Y-122910501D02*
X174752000Y-122682000D01*
X205740000Y-134620000D02*
X203454000Y-136906000D01*
X189484000Y-135069942D02*
X189484000Y-133731000D01*
X189484000Y-133731000D02*
X189357000Y-133604000D01*
X191320058Y-136906000D02*
X189484000Y-135069942D01*
X203454000Y-136906000D02*
X191320058Y-136906000D01*
X184819501Y-135131461D02*
X184819501Y-135708441D01*
X187714974Y-132235988D02*
X184819501Y-135131461D01*
X188242988Y-132235988D02*
X187714974Y-132235988D01*
X184819501Y-135708441D02*
X184510942Y-136017000D01*
X188849000Y-132842000D02*
X188242988Y-132235988D01*
X172651058Y-136017000D02*
X170688000Y-134053942D01*
X184510942Y-136017000D02*
X172651058Y-136017000D01*
X170688000Y-134053942D02*
X170688000Y-129413000D01*
M02*
