G04 #@! TF.GenerationSoftware,KiCad,Pcbnew,(5.1.0-0)*
G04 #@! TF.CreationDate,2019-10-10T01:34:02-07:00*
G04 #@! TF.ProjectId,MainBoard,4d61696e-426f-4617-9264-2e6b69636164,rev?*
G04 #@! TF.SameCoordinates,Original*
G04 #@! TF.FileFunction,Copper,L4,Inr*
G04 #@! TF.FilePolarity,Positive*
%FSLAX46Y46*%
G04 Gerber Fmt 4.6, Leading zero omitted, Abs format (unit mm)*
G04 Created by KiCad (PCBNEW (5.1.0-0)) date 2019-10-10 01:34:02*
%MOMM*%
%LPD*%
G04 APERTURE LIST*
%ADD10O,1.600000X1.600000*%
%ADD11R,1.600000X1.600000*%
%ADD12O,1.700000X1.700000*%
%ADD13R,1.700000X1.700000*%
%ADD14C,1.600000*%
%ADD15C,2.500000*%
%ADD16R,2.500000X2.500000*%
%ADD17C,6.400000*%
%ADD18R,1.300000X1.300000*%
%ADD19C,1.300000*%
%ADD20C,2.000000*%
%ADD21C,1.620000*%
%ADD22C,1.800000*%
%ADD23R,1.800000X1.800000*%
%ADD24C,0.450000*%
%ADD25C,0.127000*%
G04 APERTURE END LIST*
D10*
X233680000Y-309880000D03*
X218440000Y-337820000D03*
X233680000Y-312420000D03*
X218440000Y-335280000D03*
X233680000Y-314960000D03*
X218440000Y-332740000D03*
X233680000Y-317500000D03*
X218440000Y-330200000D03*
X233680000Y-320040000D03*
X218440000Y-327660000D03*
X233680000Y-322580000D03*
X218440000Y-325120000D03*
X233680000Y-325120000D03*
X218440000Y-322580000D03*
X233680000Y-327660000D03*
X218440000Y-320040000D03*
X233680000Y-330200000D03*
X218440000Y-317500000D03*
X233680000Y-332740000D03*
X218440000Y-314960000D03*
X233680000Y-335280000D03*
X218440000Y-312420000D03*
X233680000Y-337820000D03*
D11*
X218440000Y-309880000D03*
D10*
X254000000Y-309880000D03*
X238760000Y-337820000D03*
X254000000Y-312420000D03*
X238760000Y-335280000D03*
X254000000Y-314960000D03*
X238760000Y-332740000D03*
X254000000Y-317500000D03*
X238760000Y-330200000D03*
X254000000Y-320040000D03*
X238760000Y-327660000D03*
X254000000Y-322580000D03*
X238760000Y-325120000D03*
X254000000Y-325120000D03*
X238760000Y-322580000D03*
X254000000Y-327660000D03*
X238760000Y-320040000D03*
X254000000Y-330200000D03*
X238760000Y-317500000D03*
X254000000Y-332740000D03*
X238760000Y-314960000D03*
X254000000Y-335280000D03*
X238760000Y-312420000D03*
X254000000Y-337820000D03*
D11*
X238760000Y-309880000D03*
D10*
X284480000Y-340360000D03*
X261620000Y-332740000D03*
X281940000Y-340360000D03*
X264160000Y-332740000D03*
X279400000Y-340360000D03*
X266700000Y-332740000D03*
X276860000Y-340360000D03*
X269240000Y-332740000D03*
X274320000Y-340360000D03*
X271780000Y-332740000D03*
X271780000Y-340360000D03*
X274320000Y-332740000D03*
X269240000Y-340360000D03*
X276860000Y-332740000D03*
X266700000Y-340360000D03*
X279400000Y-332740000D03*
X264160000Y-340360000D03*
X281940000Y-332740000D03*
X261620000Y-340360000D03*
D11*
X284480000Y-332740000D03*
D10*
X284480000Y-320040000D03*
X261620000Y-312420000D03*
X281940000Y-320040000D03*
X264160000Y-312420000D03*
X279400000Y-320040000D03*
X266700000Y-312420000D03*
X276860000Y-320040000D03*
X269240000Y-312420000D03*
X274320000Y-320040000D03*
X271780000Y-312420000D03*
X271780000Y-320040000D03*
X274320000Y-312420000D03*
X269240000Y-320040000D03*
X276860000Y-312420000D03*
X266700000Y-320040000D03*
X279400000Y-312420000D03*
X264160000Y-320040000D03*
X281940000Y-312420000D03*
X261620000Y-320040000D03*
D11*
X284480000Y-312420000D03*
D10*
X284480000Y-299720000D03*
X261620000Y-292100000D03*
X281940000Y-299720000D03*
X264160000Y-292100000D03*
X279400000Y-299720000D03*
X266700000Y-292100000D03*
X276860000Y-299720000D03*
X269240000Y-292100000D03*
X274320000Y-299720000D03*
X271780000Y-292100000D03*
X271780000Y-299720000D03*
X274320000Y-292100000D03*
X269240000Y-299720000D03*
X276860000Y-292100000D03*
X266700000Y-299720000D03*
X279400000Y-292100000D03*
X264160000Y-299720000D03*
X281940000Y-292100000D03*
X261620000Y-299720000D03*
D11*
X284480000Y-292100000D03*
D10*
X284480000Y-251460000D03*
X261620000Y-243840000D03*
X281940000Y-251460000D03*
X264160000Y-243840000D03*
X279400000Y-251460000D03*
X266700000Y-243840000D03*
X276860000Y-251460000D03*
X269240000Y-243840000D03*
X274320000Y-251460000D03*
X271780000Y-243840000D03*
X271780000Y-251460000D03*
X274320000Y-243840000D03*
X269240000Y-251460000D03*
X276860000Y-243840000D03*
X266700000Y-251460000D03*
X279400000Y-243840000D03*
X264160000Y-251460000D03*
X281940000Y-243840000D03*
X261620000Y-251460000D03*
D11*
X284480000Y-243840000D03*
D10*
X284480000Y-154940000D03*
X261620000Y-147320000D03*
X281940000Y-154940000D03*
X264160000Y-147320000D03*
X279400000Y-154940000D03*
X266700000Y-147320000D03*
X276860000Y-154940000D03*
X269240000Y-147320000D03*
X274320000Y-154940000D03*
X271780000Y-147320000D03*
X271780000Y-154940000D03*
X274320000Y-147320000D03*
X269240000Y-154940000D03*
X276860000Y-147320000D03*
X266700000Y-154940000D03*
X279400000Y-147320000D03*
X264160000Y-154940000D03*
X281940000Y-147320000D03*
X261620000Y-154940000D03*
D11*
X284480000Y-147320000D03*
D10*
X284480000Y-167640000D03*
X261620000Y-160020000D03*
X281940000Y-167640000D03*
X264160000Y-160020000D03*
X279400000Y-167640000D03*
X266700000Y-160020000D03*
X276860000Y-167640000D03*
X269240000Y-160020000D03*
X274320000Y-167640000D03*
X271780000Y-160020000D03*
X271780000Y-167640000D03*
X274320000Y-160020000D03*
X269240000Y-167640000D03*
X276860000Y-160020000D03*
X266700000Y-167640000D03*
X279400000Y-160020000D03*
X264160000Y-167640000D03*
X281940000Y-160020000D03*
X261620000Y-167640000D03*
D11*
X284480000Y-160020000D03*
D10*
X248615800Y-154940000D03*
X215595800Y-147320000D03*
X246075800Y-154940000D03*
X218135800Y-147320000D03*
X243535800Y-154940000D03*
X220675800Y-147320000D03*
X240995800Y-154940000D03*
X223215800Y-147320000D03*
X238455800Y-154940000D03*
X225755800Y-147320000D03*
X235915800Y-154940000D03*
X228295800Y-147320000D03*
X233375800Y-154940000D03*
X230835800Y-147320000D03*
X230835800Y-154940000D03*
X233375800Y-147320000D03*
X228295800Y-154940000D03*
X235915800Y-147320000D03*
X225755800Y-154940000D03*
X238455800Y-147320000D03*
X223215800Y-154940000D03*
X240995800Y-147320000D03*
X220675800Y-154940000D03*
X243535800Y-147320000D03*
X218135800Y-154940000D03*
X246075800Y-147320000D03*
X215595800Y-154940000D03*
D11*
X248615800Y-147320000D03*
D10*
X248920000Y-167640000D03*
X215900000Y-160020000D03*
X246380000Y-167640000D03*
X218440000Y-160020000D03*
X243840000Y-167640000D03*
X220980000Y-160020000D03*
X241300000Y-167640000D03*
X223520000Y-160020000D03*
X238760000Y-167640000D03*
X226060000Y-160020000D03*
X236220000Y-167640000D03*
X228600000Y-160020000D03*
X233680000Y-167640000D03*
X231140000Y-160020000D03*
X231140000Y-167640000D03*
X233680000Y-160020000D03*
X228600000Y-167640000D03*
X236220000Y-160020000D03*
X226060000Y-167640000D03*
X238760000Y-160020000D03*
X223520000Y-167640000D03*
X241300000Y-160020000D03*
X220980000Y-167640000D03*
X243840000Y-160020000D03*
X218440000Y-167640000D03*
X246380000Y-160020000D03*
X215900000Y-167640000D03*
D11*
X248920000Y-160020000D03*
D10*
X284480000Y-99060000D03*
X261620000Y-91440000D03*
X281940000Y-99060000D03*
X264160000Y-91440000D03*
X279400000Y-99060000D03*
X266700000Y-91440000D03*
X276860000Y-99060000D03*
X269240000Y-91440000D03*
X274320000Y-99060000D03*
X271780000Y-91440000D03*
X271780000Y-99060000D03*
X274320000Y-91440000D03*
X269240000Y-99060000D03*
X276860000Y-91440000D03*
X266700000Y-99060000D03*
X279400000Y-91440000D03*
X264160000Y-99060000D03*
X281940000Y-91440000D03*
X261620000Y-99060000D03*
D11*
X284480000Y-91440000D03*
D10*
X284480000Y-86360000D03*
X261620000Y-78740000D03*
X281940000Y-86360000D03*
X264160000Y-78740000D03*
X279400000Y-86360000D03*
X266700000Y-78740000D03*
X276860000Y-86360000D03*
X269240000Y-78740000D03*
X274320000Y-86360000D03*
X271780000Y-78740000D03*
X271780000Y-86360000D03*
X274320000Y-78740000D03*
X269240000Y-86360000D03*
X276860000Y-78740000D03*
X266700000Y-86360000D03*
X279400000Y-78740000D03*
X264160000Y-86360000D03*
X281940000Y-78740000D03*
X261620000Y-86360000D03*
D11*
X284480000Y-78740000D03*
D12*
X248920000Y-279400000D03*
X248920000Y-276860000D03*
X248920000Y-274320000D03*
X248920000Y-271780000D03*
X248920000Y-269240000D03*
X248920000Y-266700000D03*
X248920000Y-264160000D03*
X248920000Y-261620000D03*
D13*
X248920000Y-259080000D03*
D12*
X228600000Y-279400000D03*
X228600000Y-276860000D03*
X228600000Y-274320000D03*
X228600000Y-271780000D03*
X228600000Y-269240000D03*
X228600000Y-266700000D03*
X228600000Y-264160000D03*
X228600000Y-261620000D03*
D13*
X228600000Y-259080000D03*
D12*
X208280000Y-279400000D03*
X208280000Y-276860000D03*
X208280000Y-274320000D03*
X208280000Y-271780000D03*
X208280000Y-269240000D03*
X208280000Y-266700000D03*
X208280000Y-264160000D03*
X208280000Y-261620000D03*
D13*
X208280000Y-259080000D03*
D12*
X187960000Y-279400000D03*
X187960000Y-276860000D03*
X187960000Y-274320000D03*
X187960000Y-271780000D03*
X187960000Y-269240000D03*
X187960000Y-266700000D03*
X187960000Y-264160000D03*
X187960000Y-261620000D03*
D13*
X187960000Y-259080000D03*
D10*
X203200000Y-258922000D03*
X195580000Y-281782000D03*
X203200000Y-261462000D03*
X195580000Y-279242000D03*
X203200000Y-264002000D03*
X195580000Y-276702000D03*
X203200000Y-266542000D03*
X195580000Y-274162000D03*
X203200000Y-269082000D03*
X195580000Y-271622000D03*
X203200000Y-271622000D03*
X195580000Y-269082000D03*
X203200000Y-274162000D03*
X195580000Y-266542000D03*
X203200000Y-276702000D03*
X195580000Y-264002000D03*
X203200000Y-279242000D03*
X195580000Y-261462000D03*
X203200000Y-281782000D03*
D11*
X195580000Y-258922000D03*
D10*
X182880000Y-258922000D03*
X175260000Y-281782000D03*
X182880000Y-261462000D03*
X175260000Y-279242000D03*
X182880000Y-264002000D03*
X175260000Y-276702000D03*
X182880000Y-266542000D03*
X175260000Y-274162000D03*
X182880000Y-269082000D03*
X175260000Y-271622000D03*
X182880000Y-271622000D03*
X175260000Y-269082000D03*
X182880000Y-274162000D03*
X175260000Y-266542000D03*
X182880000Y-276702000D03*
X175260000Y-264002000D03*
X182880000Y-279242000D03*
X175260000Y-261462000D03*
X182880000Y-281782000D03*
D11*
X175260000Y-258922000D03*
D10*
X210820000Y-208280000D03*
X195580000Y-246380000D03*
X210820000Y-210820000D03*
X195580000Y-243840000D03*
X210820000Y-213360000D03*
X195580000Y-241300000D03*
X210820000Y-215900000D03*
X195580000Y-238760000D03*
X210820000Y-218440000D03*
X195580000Y-236220000D03*
X210820000Y-220980000D03*
X195580000Y-233680000D03*
X210820000Y-223520000D03*
X195580000Y-231140000D03*
X210820000Y-226060000D03*
X195580000Y-228600000D03*
X210820000Y-228600000D03*
X195580000Y-226060000D03*
X210820000Y-231140000D03*
X195580000Y-223520000D03*
X210820000Y-233680000D03*
X195580000Y-220980000D03*
X210820000Y-236220000D03*
X195580000Y-218440000D03*
X210820000Y-238760000D03*
X195580000Y-215900000D03*
X210820000Y-241300000D03*
X195580000Y-213360000D03*
X210820000Y-243840000D03*
X195580000Y-210820000D03*
X210820000Y-246380000D03*
D11*
X195580000Y-208280000D03*
D10*
X190500000Y-208172000D03*
X175260000Y-246272000D03*
X190500000Y-210712000D03*
X175260000Y-243732000D03*
X190500000Y-213252000D03*
X175260000Y-241192000D03*
X190500000Y-215792000D03*
X175260000Y-238652000D03*
X190500000Y-218332000D03*
X175260000Y-236112000D03*
X190500000Y-220872000D03*
X175260000Y-233572000D03*
X190500000Y-223412000D03*
X175260000Y-231032000D03*
X190500000Y-225952000D03*
X175260000Y-228492000D03*
X190500000Y-228492000D03*
X175260000Y-225952000D03*
X190500000Y-231032000D03*
X175260000Y-223412000D03*
X190500000Y-233572000D03*
X175260000Y-220872000D03*
X190500000Y-236112000D03*
X175260000Y-218332000D03*
X190500000Y-238652000D03*
X175260000Y-215792000D03*
X190500000Y-241192000D03*
X175260000Y-213252000D03*
X190500000Y-243732000D03*
X175260000Y-210712000D03*
X190500000Y-246272000D03*
D11*
X175260000Y-208172000D03*
D14*
X180420000Y-201930000D03*
X185420000Y-201930000D03*
X196930000Y-252730000D03*
X201930000Y-252730000D03*
X176610000Y-252730000D03*
X181610000Y-252730000D03*
X200740000Y-201930000D03*
X205740000Y-201930000D03*
D10*
X378460000Y-172720000D03*
X396240000Y-180340000D03*
X381000000Y-172720000D03*
X393700000Y-180340000D03*
X383540000Y-172720000D03*
X391160000Y-180340000D03*
X386080000Y-172720000D03*
X388620000Y-180340000D03*
X388620000Y-172720000D03*
X386080000Y-180340000D03*
X391160000Y-172720000D03*
X383540000Y-180340000D03*
X393700000Y-172720000D03*
X381000000Y-180340000D03*
X396240000Y-172720000D03*
D11*
X378460000Y-180340000D03*
D15*
X396748000Y-270430000D03*
D16*
X396748000Y-265430000D03*
D17*
X396240000Y-342900000D03*
X396240000Y-77470000D03*
X171450000Y-341630000D03*
X171450000Y-77470000D03*
D10*
X208280000Y-152400000D03*
X200660000Y-167640000D03*
X208280000Y-154940000D03*
X200660000Y-165100000D03*
X208280000Y-157480000D03*
X200660000Y-162560000D03*
X208280000Y-160020000D03*
X200660000Y-160020000D03*
X208280000Y-162560000D03*
X200660000Y-157480000D03*
X208280000Y-165100000D03*
X200660000Y-154940000D03*
X208280000Y-167640000D03*
D11*
X200660000Y-152400000D03*
D10*
X195580000Y-152400000D03*
X187960000Y-167640000D03*
X195580000Y-154940000D03*
X187960000Y-165100000D03*
X195580000Y-157480000D03*
X187960000Y-162560000D03*
X195580000Y-160020000D03*
X187960000Y-160020000D03*
X195580000Y-162560000D03*
X187960000Y-157480000D03*
X195580000Y-165100000D03*
X187960000Y-154940000D03*
X195580000Y-167640000D03*
D11*
X187960000Y-152400000D03*
D14*
X290830000Y-148670000D03*
X290830000Y-153670000D03*
X372110000Y-178990000D03*
X372110000Y-173990000D03*
D12*
X347980000Y-116840000D03*
X347980000Y-119380000D03*
X350520000Y-116840000D03*
X350520000Y-119380000D03*
X353060000Y-116840000D03*
X353060000Y-119380000D03*
X355600000Y-116840000D03*
X355600000Y-119380000D03*
X358140000Y-116840000D03*
X358140000Y-119380000D03*
X360680000Y-116840000D03*
X360680000Y-119380000D03*
X363220000Y-116840000D03*
X363220000Y-119380000D03*
X365760000Y-116840000D03*
X365760000Y-119380000D03*
X368300000Y-116840000D03*
X368300000Y-119380000D03*
X370840000Y-116840000D03*
X370840000Y-119380000D03*
X373380000Y-116840000D03*
X373380000Y-119380000D03*
X375920000Y-116840000D03*
X375920000Y-119380000D03*
X378460000Y-116840000D03*
X378460000Y-119380000D03*
X381000000Y-116840000D03*
X381000000Y-119380000D03*
X383540000Y-116840000D03*
X383540000Y-119380000D03*
X386080000Y-116840000D03*
X386080000Y-119380000D03*
X388620000Y-116840000D03*
X388620000Y-119380000D03*
X391160000Y-116840000D03*
X391160000Y-119380000D03*
X393700000Y-116840000D03*
X393700000Y-119380000D03*
X396240000Y-116840000D03*
D13*
X396240000Y-119380000D03*
D12*
X347980000Y-147320000D03*
X347980000Y-149860000D03*
X350520000Y-147320000D03*
X350520000Y-149860000D03*
X353060000Y-147320000D03*
X353060000Y-149860000D03*
X355600000Y-147320000D03*
X355600000Y-149860000D03*
X358140000Y-147320000D03*
X358140000Y-149860000D03*
X360680000Y-147320000D03*
X360680000Y-149860000D03*
X363220000Y-147320000D03*
X363220000Y-149860000D03*
X365760000Y-147320000D03*
X365760000Y-149860000D03*
X368300000Y-147320000D03*
X368300000Y-149860000D03*
X370840000Y-147320000D03*
X370840000Y-149860000D03*
X373380000Y-147320000D03*
X373380000Y-149860000D03*
X375920000Y-147320000D03*
X375920000Y-149860000D03*
X378460000Y-147320000D03*
X378460000Y-149860000D03*
X381000000Y-147320000D03*
X381000000Y-149860000D03*
X383540000Y-147320000D03*
X383540000Y-149860000D03*
X386080000Y-147320000D03*
X386080000Y-149860000D03*
X388620000Y-147320000D03*
X388620000Y-149860000D03*
X391160000Y-147320000D03*
X391160000Y-149860000D03*
X393700000Y-147320000D03*
X393700000Y-149860000D03*
X396240000Y-147320000D03*
D13*
X396240000Y-149860000D03*
D12*
X347980000Y-86360000D03*
X347980000Y-88900000D03*
X350520000Y-86360000D03*
X350520000Y-88900000D03*
X353060000Y-86360000D03*
X353060000Y-88900000D03*
X355600000Y-86360000D03*
X355600000Y-88900000D03*
X358140000Y-86360000D03*
X358140000Y-88900000D03*
X360680000Y-86360000D03*
X360680000Y-88900000D03*
X363220000Y-86360000D03*
X363220000Y-88900000D03*
X365760000Y-86360000D03*
X365760000Y-88900000D03*
X368300000Y-86360000D03*
X368300000Y-88900000D03*
X370840000Y-86360000D03*
X370840000Y-88900000D03*
X373380000Y-86360000D03*
X373380000Y-88900000D03*
X375920000Y-86360000D03*
X375920000Y-88900000D03*
X378460000Y-86360000D03*
X378460000Y-88900000D03*
X381000000Y-86360000D03*
X381000000Y-88900000D03*
X383540000Y-86360000D03*
X383540000Y-88900000D03*
X386080000Y-86360000D03*
X386080000Y-88900000D03*
X388620000Y-86360000D03*
X388620000Y-88900000D03*
X391160000Y-86360000D03*
X391160000Y-88900000D03*
X393700000Y-86360000D03*
X393700000Y-88900000D03*
X396240000Y-86360000D03*
D13*
X396240000Y-88900000D03*
D12*
X347980000Y-162560000D03*
X347980000Y-165100000D03*
X350520000Y-162560000D03*
X350520000Y-165100000D03*
X353060000Y-162560000D03*
X353060000Y-165100000D03*
X355600000Y-162560000D03*
X355600000Y-165100000D03*
X358140000Y-162560000D03*
X358140000Y-165100000D03*
X360680000Y-162560000D03*
X360680000Y-165100000D03*
X363220000Y-162560000D03*
X363220000Y-165100000D03*
X365760000Y-162560000D03*
X365760000Y-165100000D03*
X368300000Y-162560000D03*
X368300000Y-165100000D03*
X370840000Y-162560000D03*
X370840000Y-165100000D03*
X373380000Y-162560000D03*
X373380000Y-165100000D03*
X375920000Y-162560000D03*
X375920000Y-165100000D03*
X378460000Y-162560000D03*
X378460000Y-165100000D03*
X381000000Y-162560000D03*
X381000000Y-165100000D03*
X383540000Y-162560000D03*
X383540000Y-165100000D03*
X386080000Y-162560000D03*
X386080000Y-165100000D03*
X388620000Y-162560000D03*
X388620000Y-165100000D03*
X391160000Y-162560000D03*
X391160000Y-165100000D03*
X393700000Y-162560000D03*
X393700000Y-165100000D03*
X396240000Y-162560000D03*
D13*
X396240000Y-165100000D03*
D12*
X347980000Y-132080000D03*
X347980000Y-134620000D03*
X350520000Y-132080000D03*
X350520000Y-134620000D03*
X353060000Y-132080000D03*
X353060000Y-134620000D03*
X355600000Y-132080000D03*
X355600000Y-134620000D03*
X358140000Y-132080000D03*
X358140000Y-134620000D03*
X360680000Y-132080000D03*
X360680000Y-134620000D03*
X363220000Y-132080000D03*
X363220000Y-134620000D03*
X365760000Y-132080000D03*
X365760000Y-134620000D03*
X368300000Y-132080000D03*
X368300000Y-134620000D03*
X370840000Y-132080000D03*
X370840000Y-134620000D03*
X373380000Y-132080000D03*
X373380000Y-134620000D03*
X375920000Y-132080000D03*
X375920000Y-134620000D03*
X378460000Y-132080000D03*
X378460000Y-134620000D03*
X381000000Y-132080000D03*
X381000000Y-134620000D03*
X383540000Y-132080000D03*
X383540000Y-134620000D03*
X386080000Y-132080000D03*
X386080000Y-134620000D03*
X388620000Y-132080000D03*
X388620000Y-134620000D03*
X391160000Y-132080000D03*
X391160000Y-134620000D03*
X393700000Y-132080000D03*
X393700000Y-134620000D03*
X396240000Y-132080000D03*
D13*
X396240000Y-134620000D03*
D12*
X347980000Y-101600000D03*
X347980000Y-104140000D03*
X350520000Y-101600000D03*
X350520000Y-104140000D03*
X353060000Y-101600000D03*
X353060000Y-104140000D03*
X355600000Y-101600000D03*
X355600000Y-104140000D03*
X358140000Y-101600000D03*
X358140000Y-104140000D03*
X360680000Y-101600000D03*
X360680000Y-104140000D03*
X363220000Y-101600000D03*
X363220000Y-104140000D03*
X365760000Y-101600000D03*
X365760000Y-104140000D03*
X368300000Y-101600000D03*
X368300000Y-104140000D03*
X370840000Y-101600000D03*
X370840000Y-104140000D03*
X373380000Y-101600000D03*
X373380000Y-104140000D03*
X375920000Y-101600000D03*
X375920000Y-104140000D03*
X378460000Y-101600000D03*
X378460000Y-104140000D03*
X381000000Y-101600000D03*
X381000000Y-104140000D03*
X383540000Y-101600000D03*
X383540000Y-104140000D03*
X386080000Y-101600000D03*
X386080000Y-104140000D03*
X388620000Y-101600000D03*
X388620000Y-104140000D03*
X391160000Y-101600000D03*
X391160000Y-104140000D03*
X393700000Y-101600000D03*
X393700000Y-104140000D03*
X396240000Y-101600000D03*
D13*
X396240000Y-104140000D03*
D10*
X243835800Y-259080000D03*
X236215800Y-281940000D03*
X243835800Y-261620000D03*
X236215800Y-279400000D03*
X243835800Y-264160000D03*
X236215800Y-276860000D03*
X243835800Y-266700000D03*
X236215800Y-274320000D03*
X243835800Y-269240000D03*
X236215800Y-271780000D03*
X243835800Y-271780000D03*
X236215800Y-269240000D03*
X243835800Y-274320000D03*
X236215800Y-266700000D03*
X243835800Y-276860000D03*
X236215800Y-264160000D03*
X243835800Y-279400000D03*
X236215800Y-261620000D03*
X243835800Y-281940000D03*
D11*
X236215800Y-259080000D03*
D14*
X369650000Y-245110000D03*
X374650000Y-245110000D03*
X386080000Y-290830000D03*
X386080000Y-283210000D03*
X370840000Y-283210000D03*
D11*
X370840000Y-290830000D03*
D10*
X383540000Y-266700000D03*
D14*
X375920000Y-266700000D03*
D10*
X378460000Y-246380000D03*
D14*
X386080000Y-246380000D03*
D10*
X397510000Y-257810000D03*
D14*
X389890000Y-257810000D03*
X383460000Y-252730000D03*
X378460000Y-252730000D03*
X383460000Y-259080000D03*
X378460000Y-259080000D03*
D10*
X318770000Y-251460000D03*
D14*
X326390000Y-251460000D03*
D10*
X326390000Y-245110000D03*
D14*
X318770000Y-245110000D03*
X325040000Y-266700000D03*
X320040000Y-266700000D03*
X323310000Y-259080000D03*
D11*
X321310000Y-259080000D03*
D10*
X251460000Y-208280000D03*
X236220000Y-246380000D03*
X251460000Y-210820000D03*
X236220000Y-243840000D03*
X251460000Y-213360000D03*
X236220000Y-241300000D03*
X251460000Y-215900000D03*
X236220000Y-238760000D03*
X251460000Y-218440000D03*
X236220000Y-236220000D03*
X251460000Y-220980000D03*
X236220000Y-233680000D03*
X251460000Y-223520000D03*
X236220000Y-231140000D03*
X251460000Y-226060000D03*
X236220000Y-228600000D03*
X251460000Y-228600000D03*
X236220000Y-226060000D03*
X251460000Y-231140000D03*
X236220000Y-223520000D03*
X251460000Y-233680000D03*
X236220000Y-220980000D03*
X251460000Y-236220000D03*
X236220000Y-218440000D03*
X251460000Y-238760000D03*
X236220000Y-215900000D03*
X251460000Y-241300000D03*
X236220000Y-213360000D03*
X251460000Y-243840000D03*
X236220000Y-210820000D03*
X251460000Y-246380000D03*
D11*
X236220000Y-208280000D03*
D10*
X248920000Y-86360000D03*
X226060000Y-78740000D03*
X246380000Y-86360000D03*
X228600000Y-78740000D03*
X243840000Y-86360000D03*
X231140000Y-78740000D03*
X241300000Y-86360000D03*
X233680000Y-78740000D03*
X238760000Y-86360000D03*
X236220000Y-78740000D03*
X236220000Y-86360000D03*
X238760000Y-78740000D03*
X233680000Y-86360000D03*
X241300000Y-78740000D03*
X231140000Y-86360000D03*
X243840000Y-78740000D03*
X228600000Y-86360000D03*
X246380000Y-78740000D03*
X226060000Y-86360000D03*
D11*
X248920000Y-78740000D03*
D12*
X177800000Y-172720000D03*
X180340000Y-172720000D03*
X182880000Y-172720000D03*
X185420000Y-172720000D03*
X187960000Y-172720000D03*
X190500000Y-172720000D03*
X193040000Y-172720000D03*
D13*
X195580000Y-172720000D03*
D12*
X213360000Y-172720000D03*
X215900000Y-172720000D03*
X218440000Y-172720000D03*
X220980000Y-172720000D03*
X223520000Y-172720000D03*
X226060000Y-172720000D03*
X228600000Y-172720000D03*
D13*
X231140000Y-172720000D03*
D12*
X177800000Y-129540000D03*
X180340000Y-129540000D03*
X182880000Y-129540000D03*
X185420000Y-129540000D03*
X187960000Y-129540000D03*
X190500000Y-129540000D03*
X193040000Y-129540000D03*
X195580000Y-129540000D03*
D13*
X198120000Y-129540000D03*
D12*
X213360000Y-129540000D03*
X215900000Y-129540000D03*
X218440000Y-129540000D03*
X220980000Y-129540000D03*
X223520000Y-129540000D03*
X226060000Y-129540000D03*
X228600000Y-129540000D03*
X231140000Y-129540000D03*
D13*
X233680000Y-129540000D03*
D10*
X213360000Y-309880000D03*
X205740000Y-332740000D03*
X213360000Y-312420000D03*
X205740000Y-330200000D03*
X213360000Y-314960000D03*
X205740000Y-327660000D03*
X213360000Y-317500000D03*
X205740000Y-325120000D03*
X213360000Y-320040000D03*
X205740000Y-322580000D03*
X213360000Y-322580000D03*
X205740000Y-320040000D03*
X213360000Y-325120000D03*
X205740000Y-317500000D03*
X213360000Y-327660000D03*
X205740000Y-314960000D03*
X213360000Y-330200000D03*
X205740000Y-312420000D03*
X213360000Y-332740000D03*
D11*
X205740000Y-309880000D03*
D10*
X248920000Y-297180000D03*
X226060000Y-289560000D03*
X246380000Y-297180000D03*
X228600000Y-289560000D03*
X243840000Y-297180000D03*
X231140000Y-289560000D03*
X241300000Y-297180000D03*
X233680000Y-289560000D03*
X238760000Y-297180000D03*
X236220000Y-289560000D03*
X236220000Y-297180000D03*
X238760000Y-289560000D03*
X233680000Y-297180000D03*
X241300000Y-289560000D03*
X231140000Y-297180000D03*
X243840000Y-289560000D03*
X228600000Y-297180000D03*
X246380000Y-289560000D03*
X226060000Y-297180000D03*
D11*
X248920000Y-289560000D03*
D10*
X213360000Y-297180000D03*
X190500000Y-289560000D03*
X210820000Y-297180000D03*
X193040000Y-289560000D03*
X208280000Y-297180000D03*
X195580000Y-289560000D03*
X205740000Y-297180000D03*
X198120000Y-289560000D03*
X203200000Y-297180000D03*
X200660000Y-289560000D03*
X200660000Y-297180000D03*
X203200000Y-289560000D03*
X198120000Y-297180000D03*
X205740000Y-289560000D03*
X195580000Y-297180000D03*
X208280000Y-289560000D03*
X193040000Y-297180000D03*
X210820000Y-289560000D03*
X190500000Y-297180000D03*
D11*
X213360000Y-289560000D03*
D10*
X337820000Y-251460000D03*
X330200000Y-269240000D03*
X337820000Y-254000000D03*
X330200000Y-266700000D03*
X337820000Y-256540000D03*
X330200000Y-264160000D03*
X337820000Y-259080000D03*
X330200000Y-261620000D03*
X337820000Y-261620000D03*
X330200000Y-259080000D03*
X337820000Y-264160000D03*
X330200000Y-256540000D03*
X337820000Y-266700000D03*
X330200000Y-254000000D03*
X337820000Y-269240000D03*
D11*
X330200000Y-251460000D03*
D10*
X350520000Y-251460000D03*
X342900000Y-266700000D03*
X350520000Y-254000000D03*
X342900000Y-264160000D03*
X350520000Y-256540000D03*
X342900000Y-261620000D03*
X350520000Y-259080000D03*
X342900000Y-259080000D03*
X350520000Y-261620000D03*
X342900000Y-256540000D03*
X350520000Y-264160000D03*
X342900000Y-254000000D03*
X350520000Y-266700000D03*
D11*
X342900000Y-251460000D03*
D10*
X363220000Y-251460000D03*
X355600000Y-266700000D03*
X363220000Y-254000000D03*
X355600000Y-264160000D03*
X363220000Y-256540000D03*
X355600000Y-261620000D03*
X363220000Y-259080000D03*
X355600000Y-259080000D03*
X363220000Y-261620000D03*
X355600000Y-256540000D03*
X363220000Y-264160000D03*
X355600000Y-254000000D03*
X363220000Y-266700000D03*
D11*
X355600000Y-251460000D03*
D18*
X369570000Y-266700000D03*
D19*
X372110000Y-266700000D03*
X370840000Y-265430000D03*
D10*
X375920000Y-251460000D03*
X368300000Y-259080000D03*
X375920000Y-254000000D03*
X368300000Y-256540000D03*
X375920000Y-256540000D03*
X368300000Y-254000000D03*
X375920000Y-259080000D03*
D11*
X368300000Y-251460000D03*
D10*
X337820000Y-281940000D03*
X330200000Y-297180000D03*
X337820000Y-284480000D03*
X330200000Y-294640000D03*
X337820000Y-287020000D03*
X330200000Y-292100000D03*
X337820000Y-289560000D03*
X330200000Y-289560000D03*
X337820000Y-292100000D03*
X330200000Y-287020000D03*
X337820000Y-294640000D03*
X330200000Y-284480000D03*
X337820000Y-297180000D03*
D11*
X330200000Y-281940000D03*
D10*
X350520000Y-281940000D03*
X342900000Y-297180000D03*
X350520000Y-284480000D03*
X342900000Y-294640000D03*
X350520000Y-287020000D03*
X342900000Y-292100000D03*
X350520000Y-289560000D03*
X342900000Y-289560000D03*
X350520000Y-292100000D03*
X342900000Y-287020000D03*
X350520000Y-294640000D03*
X342900000Y-284480000D03*
X350520000Y-297180000D03*
D11*
X342900000Y-281940000D03*
D10*
X325120000Y-281940000D03*
X317500000Y-299720000D03*
X325120000Y-284480000D03*
X317500000Y-297180000D03*
X325120000Y-287020000D03*
X317500000Y-294640000D03*
X325120000Y-289560000D03*
X317500000Y-292100000D03*
X325120000Y-292100000D03*
X317500000Y-289560000D03*
X325120000Y-294640000D03*
X317500000Y-287020000D03*
X325120000Y-297180000D03*
X317500000Y-284480000D03*
X325120000Y-299720000D03*
D11*
X317500000Y-281940000D03*
D10*
X363220000Y-281940000D03*
X355600000Y-297180000D03*
X363220000Y-284480000D03*
X355600000Y-294640000D03*
X363220000Y-287020000D03*
X355600000Y-292100000D03*
X363220000Y-289560000D03*
X355600000Y-289560000D03*
X363220000Y-292100000D03*
X355600000Y-287020000D03*
X363220000Y-294640000D03*
X355600000Y-284480000D03*
X363220000Y-297180000D03*
D11*
X355600000Y-281940000D03*
D10*
X314960000Y-251460000D03*
X307340000Y-259080000D03*
X314960000Y-254000000D03*
X307340000Y-256540000D03*
X314960000Y-256540000D03*
X307340000Y-254000000D03*
X314960000Y-259080000D03*
D11*
X307340000Y-251460000D03*
D10*
X312420000Y-281940000D03*
X304800000Y-297180000D03*
X312420000Y-284480000D03*
X304800000Y-294640000D03*
X312420000Y-287020000D03*
X304800000Y-292100000D03*
X312420000Y-289560000D03*
X304800000Y-289560000D03*
X312420000Y-292100000D03*
X304800000Y-287020000D03*
X312420000Y-294640000D03*
X304800000Y-284480000D03*
X312420000Y-297180000D03*
D11*
X304800000Y-281940000D03*
D10*
X379730000Y-334010000D03*
X372110000Y-341630000D03*
X379730000Y-336550000D03*
X372110000Y-339090000D03*
X379730000Y-339090000D03*
X372110000Y-336550000D03*
X379730000Y-341630000D03*
D11*
X372110000Y-334010000D03*
D10*
X359410000Y-334010000D03*
X351790000Y-341630000D03*
X359410000Y-336550000D03*
X351790000Y-339090000D03*
X359410000Y-339090000D03*
X351790000Y-336550000D03*
X359410000Y-341630000D03*
D11*
X351790000Y-334010000D03*
D10*
X388616200Y-318768200D03*
X350516200Y-303528200D03*
X386076200Y-318768200D03*
X353056200Y-303528200D03*
X383536200Y-318768200D03*
X355596200Y-303528200D03*
X380996200Y-318768200D03*
X358136200Y-303528200D03*
X378456200Y-318768200D03*
X360676200Y-303528200D03*
X375916200Y-318768200D03*
X363216200Y-303528200D03*
X373376200Y-318768200D03*
X365756200Y-303528200D03*
X370836200Y-318768200D03*
X368296200Y-303528200D03*
X368296200Y-318768200D03*
X370836200Y-303528200D03*
X365756200Y-318768200D03*
X373376200Y-303528200D03*
X363216200Y-318768200D03*
X375916200Y-303528200D03*
X360676200Y-318768200D03*
X378456200Y-303528200D03*
X358136200Y-318768200D03*
X380996200Y-303528200D03*
X355596200Y-318768200D03*
X383536200Y-303528200D03*
X353056200Y-318768200D03*
X386076200Y-303528200D03*
X350516200Y-318768200D03*
D11*
X388616200Y-303528200D03*
D10*
X328930000Y-334010000D03*
X321310000Y-341630000D03*
X328930000Y-336550000D03*
X321310000Y-339090000D03*
X328930000Y-339090000D03*
X321310000Y-336550000D03*
X328930000Y-341630000D03*
D11*
X321310000Y-334010000D03*
D10*
X334010000Y-313690000D03*
X326390000Y-321310000D03*
X334010000Y-316230000D03*
X326390000Y-318770000D03*
X334010000Y-318770000D03*
X326390000Y-316230000D03*
X334010000Y-321310000D03*
D11*
X326390000Y-313690000D03*
D10*
X284489000Y-231135800D03*
X261629000Y-223515800D03*
X281949000Y-231135800D03*
X264169000Y-223515800D03*
X279409000Y-231135800D03*
X266709000Y-223515800D03*
X276869000Y-231135800D03*
X269249000Y-223515800D03*
X274329000Y-231135800D03*
X271789000Y-223515800D03*
X271789000Y-231135800D03*
X274329000Y-223515800D03*
X269249000Y-231135800D03*
X276869000Y-223515800D03*
X266709000Y-231135800D03*
X279409000Y-223515800D03*
X264169000Y-231135800D03*
X281949000Y-223515800D03*
X261629000Y-231135800D03*
D11*
X284489000Y-223515800D03*
D10*
X223515800Y-259071000D03*
X215895800Y-281931000D03*
X223515800Y-261611000D03*
X215895800Y-279391000D03*
X223515800Y-264151000D03*
X215895800Y-276851000D03*
X223515800Y-266691000D03*
X215895800Y-274311000D03*
X223515800Y-269231000D03*
X215895800Y-271771000D03*
X223515800Y-271771000D03*
X215895800Y-269231000D03*
X223515800Y-274311000D03*
X215895800Y-266691000D03*
X223515800Y-276851000D03*
X215895800Y-264151000D03*
X223515800Y-279391000D03*
X215895800Y-261611000D03*
X223515800Y-281931000D03*
D11*
X215895800Y-259071000D03*
D10*
X231140000Y-208280000D03*
X215900000Y-246380000D03*
X231140000Y-210820000D03*
X215900000Y-243840000D03*
X231140000Y-213360000D03*
X215900000Y-241300000D03*
X231140000Y-215900000D03*
X215900000Y-238760000D03*
X231140000Y-218440000D03*
X215900000Y-236220000D03*
X231140000Y-220980000D03*
X215900000Y-233680000D03*
X231140000Y-223520000D03*
X215900000Y-231140000D03*
X231140000Y-226060000D03*
X215900000Y-228600000D03*
X231140000Y-228600000D03*
X215900000Y-226060000D03*
X231140000Y-231140000D03*
X215900000Y-223520000D03*
X231140000Y-233680000D03*
X215900000Y-220980000D03*
X231140000Y-236220000D03*
X215900000Y-218440000D03*
X231140000Y-238760000D03*
X215900000Y-215900000D03*
X231140000Y-241300000D03*
X215900000Y-213360000D03*
X231140000Y-243840000D03*
X215900000Y-210820000D03*
X231140000Y-246380000D03*
D11*
X215900000Y-208280000D03*
D10*
X248920000Y-198120000D03*
X226060000Y-190500000D03*
X246380000Y-198120000D03*
X228600000Y-190500000D03*
X243840000Y-198120000D03*
X231140000Y-190500000D03*
X241300000Y-198120000D03*
X233680000Y-190500000D03*
X238760000Y-198120000D03*
X236220000Y-190500000D03*
X236220000Y-198120000D03*
X238760000Y-190500000D03*
X233680000Y-198120000D03*
X241300000Y-190500000D03*
X231140000Y-198120000D03*
X243840000Y-190500000D03*
X228600000Y-198120000D03*
X246380000Y-190500000D03*
X226060000Y-198120000D03*
D11*
X248920000Y-190500000D03*
D10*
X193040000Y-185420000D03*
X175260000Y-177800000D03*
X190500000Y-185420000D03*
X177800000Y-177800000D03*
X187960000Y-185420000D03*
X180340000Y-177800000D03*
X185420000Y-185420000D03*
X182880000Y-177800000D03*
X182880000Y-185420000D03*
X185420000Y-177800000D03*
X180340000Y-185420000D03*
X187960000Y-177800000D03*
X177800000Y-185420000D03*
X190500000Y-177800000D03*
X175260000Y-185420000D03*
D11*
X193040000Y-177800000D03*
D10*
X223520000Y-185420000D03*
X205740000Y-177800000D03*
X220980000Y-185420000D03*
X208280000Y-177800000D03*
X218440000Y-185420000D03*
X210820000Y-177800000D03*
X215900000Y-185420000D03*
X213360000Y-177800000D03*
X213360000Y-185420000D03*
X215900000Y-177800000D03*
X210820000Y-185420000D03*
X218440000Y-177800000D03*
X208280000Y-185420000D03*
X220980000Y-177800000D03*
X205740000Y-185420000D03*
D11*
X223520000Y-177800000D03*
D10*
X284480000Y-198120000D03*
X261620000Y-190500000D03*
X281940000Y-198120000D03*
X264160000Y-190500000D03*
X279400000Y-198120000D03*
X266700000Y-190500000D03*
X276860000Y-198120000D03*
X269240000Y-190500000D03*
X274320000Y-198120000D03*
X271780000Y-190500000D03*
X271780000Y-198120000D03*
X274320000Y-190500000D03*
X269240000Y-198120000D03*
X276860000Y-190500000D03*
X266700000Y-198120000D03*
X279400000Y-190500000D03*
X264160000Y-198120000D03*
X281940000Y-190500000D03*
X261620000Y-198120000D03*
D11*
X284480000Y-190500000D03*
D10*
X254000000Y-185420000D03*
X236220000Y-177800000D03*
X251460000Y-185420000D03*
X238760000Y-177800000D03*
X248920000Y-185420000D03*
X241300000Y-177800000D03*
X246380000Y-185420000D03*
X243840000Y-177800000D03*
X243840000Y-185420000D03*
X246380000Y-177800000D03*
X241300000Y-185420000D03*
X248920000Y-177800000D03*
X238760000Y-185420000D03*
X251460000Y-177800000D03*
X236220000Y-185420000D03*
D11*
X254000000Y-177800000D03*
D10*
X284480000Y-185420000D03*
X266700000Y-177800000D03*
X281940000Y-185420000D03*
X269240000Y-177800000D03*
X279400000Y-185420000D03*
X271780000Y-177800000D03*
X276860000Y-185420000D03*
X274320000Y-177800000D03*
X274320000Y-185420000D03*
X276860000Y-177800000D03*
X271780000Y-185420000D03*
X279400000Y-177800000D03*
X269240000Y-185420000D03*
X281940000Y-177800000D03*
X266700000Y-185420000D03*
D11*
X284480000Y-177800000D03*
D10*
X193062000Y-142195200D03*
X175282000Y-134575200D03*
X190522000Y-142195200D03*
X177822000Y-134575200D03*
X187982000Y-142195200D03*
X180362000Y-134575200D03*
X185442000Y-142195200D03*
X182902000Y-134575200D03*
X182902000Y-142195200D03*
X185442000Y-134575200D03*
X180362000Y-142195200D03*
X187982000Y-134575200D03*
X177822000Y-142195200D03*
X190522000Y-134575200D03*
X175282000Y-142195200D03*
D11*
X193062000Y-134575200D03*
D10*
X223542000Y-142195200D03*
X205762000Y-134575200D03*
X221002000Y-142195200D03*
X208302000Y-134575200D03*
X218462000Y-142195200D03*
X210842000Y-134575200D03*
X215922000Y-142195200D03*
X213382000Y-134575200D03*
X213382000Y-142195200D03*
X215922000Y-134575200D03*
X210842000Y-142195200D03*
X218462000Y-134575200D03*
X208302000Y-142195200D03*
X221002000Y-134575200D03*
X205762000Y-142195200D03*
D11*
X223542000Y-134575200D03*
D10*
X254022000Y-142195200D03*
X236242000Y-134575200D03*
X251482000Y-142195200D03*
X238782000Y-134575200D03*
X248942000Y-142195200D03*
X241322000Y-134575200D03*
X246402000Y-142195200D03*
X243862000Y-134575200D03*
X243862000Y-142195200D03*
X246402000Y-134575200D03*
X241322000Y-142195200D03*
X248942000Y-134575200D03*
X238782000Y-142195200D03*
X251482000Y-134575200D03*
X236242000Y-142195200D03*
D11*
X254022000Y-134575200D03*
D10*
X284502000Y-142195200D03*
X266722000Y-134575200D03*
X281962000Y-142195200D03*
X269262000Y-134575200D03*
X279422000Y-142195200D03*
X271802000Y-134575200D03*
X276882000Y-142195200D03*
X274342000Y-134575200D03*
X274342000Y-142195200D03*
X276882000Y-134575200D03*
X271802000Y-142195200D03*
X279422000Y-134575200D03*
X269262000Y-142195200D03*
X281962000Y-134575200D03*
X266722000Y-142195200D03*
D11*
X284502000Y-134575200D03*
D10*
X198114000Y-124466000D03*
X175254000Y-116846000D03*
X195574000Y-124466000D03*
X177794000Y-116846000D03*
X193034000Y-124466000D03*
X180334000Y-116846000D03*
X190494000Y-124466000D03*
X182874000Y-116846000D03*
X187954000Y-124466000D03*
X185414000Y-116846000D03*
X185414000Y-124466000D03*
X187954000Y-116846000D03*
X182874000Y-124466000D03*
X190494000Y-116846000D03*
X180334000Y-124466000D03*
X193034000Y-116846000D03*
X177794000Y-124466000D03*
X195574000Y-116846000D03*
X175254000Y-124466000D03*
D11*
X198114000Y-116846000D03*
D10*
X233674000Y-124466000D03*
X210814000Y-116846000D03*
X231134000Y-124466000D03*
X213354000Y-116846000D03*
X228594000Y-124466000D03*
X215894000Y-116846000D03*
X226054000Y-124466000D03*
X218434000Y-116846000D03*
X223514000Y-124466000D03*
X220974000Y-116846000D03*
X220974000Y-124466000D03*
X223514000Y-116846000D03*
X218434000Y-124466000D03*
X226054000Y-116846000D03*
X215894000Y-124466000D03*
X228594000Y-116846000D03*
X213354000Y-124466000D03*
X231134000Y-116846000D03*
X210814000Y-124466000D03*
D11*
X233674000Y-116846000D03*
D10*
X193040000Y-111760000D03*
X175260000Y-104140000D03*
X190500000Y-111760000D03*
X177800000Y-104140000D03*
X187960000Y-111760000D03*
X180340000Y-104140000D03*
X185420000Y-111760000D03*
X182880000Y-104140000D03*
X182880000Y-111760000D03*
X185420000Y-104140000D03*
X180340000Y-111760000D03*
X187960000Y-104140000D03*
X177800000Y-111760000D03*
X190500000Y-104140000D03*
X175260000Y-111760000D03*
D11*
X193040000Y-104140000D03*
D10*
X223520000Y-111760000D03*
X205740000Y-104140000D03*
X220980000Y-111760000D03*
X208280000Y-104140000D03*
X218440000Y-111760000D03*
X210820000Y-104140000D03*
X215900000Y-111760000D03*
X213360000Y-104140000D03*
X213360000Y-111760000D03*
X215900000Y-104140000D03*
X210820000Y-111760000D03*
X218440000Y-104140000D03*
X208280000Y-111760000D03*
X220980000Y-104140000D03*
X205740000Y-111760000D03*
D11*
X223520000Y-104140000D03*
D10*
X254000000Y-111760000D03*
X236220000Y-104140000D03*
X251460000Y-111760000D03*
X238760000Y-104140000D03*
X248920000Y-111760000D03*
X241300000Y-104140000D03*
X246380000Y-111760000D03*
X243840000Y-104140000D03*
X243840000Y-111760000D03*
X246380000Y-104140000D03*
X241300000Y-111760000D03*
X248920000Y-104140000D03*
X238760000Y-111760000D03*
X251460000Y-104140000D03*
X236220000Y-111760000D03*
D11*
X254000000Y-104140000D03*
D10*
X284480000Y-111760000D03*
X266700000Y-104140000D03*
X281940000Y-111760000D03*
X269240000Y-104140000D03*
X279400000Y-111760000D03*
X271780000Y-104140000D03*
X276860000Y-111760000D03*
X274320000Y-104140000D03*
X274320000Y-111760000D03*
X276860000Y-104140000D03*
X271780000Y-111760000D03*
X279400000Y-104140000D03*
X269240000Y-111760000D03*
X281940000Y-104140000D03*
X266700000Y-111760000D03*
D11*
X284480000Y-104140000D03*
D10*
X248920000Y-99060000D03*
X226060000Y-91440000D03*
X246380000Y-99060000D03*
X228600000Y-91440000D03*
X243840000Y-99060000D03*
X231140000Y-91440000D03*
X241300000Y-99060000D03*
X233680000Y-91440000D03*
X238760000Y-99060000D03*
X236220000Y-91440000D03*
X236220000Y-99060000D03*
X238760000Y-91440000D03*
X233680000Y-99060000D03*
X241300000Y-91440000D03*
X231140000Y-99060000D03*
X243840000Y-91440000D03*
X228600000Y-99060000D03*
X246380000Y-91440000D03*
X226060000Y-99060000D03*
D11*
X248920000Y-91440000D03*
D10*
X347980000Y-172720000D03*
X365760000Y-180340000D03*
X350520000Y-172720000D03*
X363220000Y-180340000D03*
X353060000Y-172720000D03*
X360680000Y-180340000D03*
X355600000Y-172720000D03*
X358140000Y-180340000D03*
X358140000Y-172720000D03*
X355600000Y-180340000D03*
X360680000Y-172720000D03*
X353060000Y-180340000D03*
X363220000Y-172720000D03*
X350520000Y-180340000D03*
X365760000Y-172720000D03*
D11*
X347980000Y-180340000D03*
D10*
X312420000Y-172720000D03*
X335280000Y-180340000D03*
X314960000Y-172720000D03*
X332740000Y-180340000D03*
X317500000Y-172720000D03*
X330200000Y-180340000D03*
X320040000Y-172720000D03*
X327660000Y-180340000D03*
X322580000Y-172720000D03*
X325120000Y-180340000D03*
X325120000Y-172720000D03*
X322580000Y-180340000D03*
X327660000Y-172720000D03*
X320040000Y-180340000D03*
X330200000Y-172720000D03*
X317500000Y-180340000D03*
X332740000Y-172720000D03*
X314960000Y-180340000D03*
X335280000Y-172720000D03*
D11*
X312420000Y-180340000D03*
D20*
X396390000Y-246380000D03*
X396390000Y-250880000D03*
X389890000Y-246380000D03*
X389890000Y-250880000D03*
X313840000Y-264922000D03*
X313840000Y-269422000D03*
X307340000Y-264922000D03*
X307340000Y-269422000D03*
D21*
X307340000Y-308610000D03*
X309840000Y-311110000D03*
X307340000Y-313610000D03*
D10*
X295910000Y-78740000D03*
X298450000Y-78740000D03*
X300990000Y-78740000D03*
X303530000Y-78740000D03*
X306070000Y-78740000D03*
X308610000Y-78740000D03*
X311150000Y-78740000D03*
X313690000Y-78740000D03*
D11*
X316230000Y-78740000D03*
D10*
X200660000Y-323850000D03*
D14*
X193040000Y-323850000D03*
D10*
X200660000Y-318770000D03*
D14*
X193040000Y-318770000D03*
D10*
X200660000Y-313690000D03*
D14*
X193040000Y-313690000D03*
D10*
X386080000Y-297180000D03*
D14*
X393700000Y-297180000D03*
D10*
X389890000Y-341630000D03*
D14*
X382270000Y-341630000D03*
D10*
X389890000Y-337820000D03*
D14*
X382270000Y-337820000D03*
D10*
X389890000Y-334010000D03*
D14*
X382270000Y-334010000D03*
D10*
X369570000Y-341630000D03*
D14*
X361950000Y-341630000D03*
D10*
X369570000Y-337820000D03*
D14*
X361950000Y-337820000D03*
D10*
X369570000Y-334010000D03*
D14*
X361950000Y-334010000D03*
D10*
X349250000Y-341630000D03*
D14*
X341630000Y-341630000D03*
D10*
X349250000Y-337820000D03*
D14*
X341630000Y-337820000D03*
D10*
X349250000Y-334010000D03*
D14*
X341630000Y-334010000D03*
D10*
X339090000Y-341630000D03*
D14*
X331470000Y-341630000D03*
D10*
X339090000Y-337820000D03*
D14*
X331470000Y-337820000D03*
D10*
X339090000Y-334010000D03*
D14*
X331470000Y-334010000D03*
D10*
X318770000Y-341630000D03*
D14*
X311150000Y-341630000D03*
D10*
X318770000Y-337820000D03*
D14*
X311150000Y-337820000D03*
D10*
X318770000Y-334010000D03*
D14*
X311150000Y-334010000D03*
D10*
X344170000Y-321310000D03*
D14*
X336550000Y-321310000D03*
D10*
X344170000Y-317500000D03*
D14*
X336550000Y-317500000D03*
D10*
X344170000Y-313690000D03*
D14*
X336550000Y-313690000D03*
D10*
X323850000Y-321310000D03*
D14*
X316230000Y-321310000D03*
D10*
X323850000Y-317500000D03*
D14*
X316230000Y-317500000D03*
D10*
X323850000Y-313690000D03*
D14*
X316230000Y-313690000D03*
D12*
X295910000Y-328930000D03*
X298450000Y-328930000D03*
X300990000Y-328930000D03*
X303530000Y-328930000D03*
X306070000Y-328930000D03*
X308610000Y-328930000D03*
X311150000Y-328930000D03*
X313690000Y-328930000D03*
D13*
X316230000Y-328930000D03*
D12*
X177800000Y-99060000D03*
X180340000Y-99060000D03*
X182880000Y-99060000D03*
X185420000Y-99060000D03*
X187960000Y-99060000D03*
X190500000Y-99060000D03*
X193040000Y-99060000D03*
X195580000Y-99060000D03*
X198120000Y-99060000D03*
X200660000Y-99060000D03*
X203200000Y-99060000D03*
X205740000Y-99060000D03*
X208280000Y-99060000D03*
X210820000Y-99060000D03*
X213360000Y-99060000D03*
X215900000Y-99060000D03*
D13*
X218440000Y-99060000D03*
D12*
X264160000Y-328930000D03*
X266700000Y-328930000D03*
X269240000Y-328930000D03*
X271780000Y-328930000D03*
X274320000Y-328930000D03*
X276860000Y-328930000D03*
X279400000Y-328930000D03*
X281940000Y-328930000D03*
D13*
X284480000Y-328930000D03*
D12*
X264160000Y-308610000D03*
X266700000Y-308610000D03*
X269240000Y-308610000D03*
X271780000Y-308610000D03*
X274320000Y-308610000D03*
X276860000Y-308610000D03*
X279400000Y-308610000D03*
X281940000Y-308610000D03*
D13*
X284480000Y-308610000D03*
D12*
X264160000Y-288290000D03*
X266700000Y-288290000D03*
X269240000Y-288290000D03*
X271780000Y-288290000D03*
X274320000Y-288290000D03*
X276860000Y-288290000D03*
X279400000Y-288290000D03*
X281940000Y-288290000D03*
D13*
X284480000Y-288290000D03*
D12*
X368300000Y-323850000D03*
X370840000Y-323850000D03*
X373380000Y-323850000D03*
X375920000Y-323850000D03*
X378460000Y-323850000D03*
X381000000Y-323850000D03*
X383540000Y-323850000D03*
X386080000Y-323850000D03*
D13*
X388620000Y-323850000D03*
D12*
X264160000Y-240030000D03*
X266700000Y-240030000D03*
X269240000Y-240030000D03*
X271780000Y-240030000D03*
X274320000Y-240030000D03*
X276860000Y-240030000D03*
X279400000Y-240030000D03*
X281940000Y-240030000D03*
D13*
X284480000Y-240030000D03*
D12*
X177800000Y-190500000D03*
X180340000Y-190500000D03*
X182880000Y-190500000D03*
X185420000Y-190500000D03*
X187960000Y-190500000D03*
X190500000Y-190500000D03*
X193040000Y-190500000D03*
X195580000Y-190500000D03*
X198120000Y-190500000D03*
X200660000Y-190500000D03*
X203200000Y-190500000D03*
X205740000Y-190500000D03*
X208280000Y-190500000D03*
X210820000Y-190500000D03*
X213360000Y-190500000D03*
X215900000Y-190500000D03*
D13*
X218440000Y-190500000D03*
D12*
X243840000Y-116840000D03*
X246380000Y-116840000D03*
X248920000Y-116840000D03*
X251460000Y-116840000D03*
X254000000Y-116840000D03*
X256540000Y-116840000D03*
X259080000Y-116840000D03*
X261620000Y-116840000D03*
X264160000Y-116840000D03*
X266700000Y-116840000D03*
X269240000Y-116840000D03*
X271780000Y-116840000D03*
X274320000Y-116840000D03*
X276860000Y-116840000D03*
X279400000Y-116840000D03*
X281940000Y-116840000D03*
D13*
X284480000Y-116840000D03*
D12*
X315087000Y-168910000D03*
X317627000Y-168910000D03*
X320167000Y-168910000D03*
X322707000Y-168910000D03*
X325247000Y-168910000D03*
X327787000Y-168910000D03*
X330327000Y-168910000D03*
X332867000Y-168910000D03*
D13*
X335407000Y-168910000D03*
D22*
X201930000Y-306070000D03*
D23*
X199390000Y-306070000D03*
D22*
X195326000Y-306070000D03*
D23*
X192786000Y-306070000D03*
D22*
X381000000Y-273050000D03*
D23*
X383540000Y-273050000D03*
D22*
X393700000Y-290830000D03*
D23*
X396240000Y-290830000D03*
D14*
X223600000Y-303530000D03*
X228600000Y-303530000D03*
X207090000Y-303530000D03*
X212090000Y-303530000D03*
X290830000Y-339010000D03*
X290830000Y-334010000D03*
X243920000Y-303530000D03*
X248920000Y-303530000D03*
X255270000Y-290910000D03*
X255270000Y-295910000D03*
X290830000Y-313770000D03*
X290830000Y-318770000D03*
X219710000Y-290910000D03*
X219710000Y-295910000D03*
X290830000Y-293450000D03*
X290830000Y-298450000D03*
X331550000Y-245110000D03*
X336550000Y-245110000D03*
X344250000Y-245110000D03*
X349250000Y-245110000D03*
X356950000Y-245110000D03*
X361950000Y-245110000D03*
X306150000Y-275590000D03*
X311150000Y-275590000D03*
X308690000Y-245110000D03*
X313690000Y-245110000D03*
X374650000Y-275590000D03*
X369650000Y-275590000D03*
X331550000Y-275590000D03*
X336550000Y-275590000D03*
X344250000Y-275590000D03*
X349250000Y-275590000D03*
X318850000Y-275590000D03*
X323850000Y-275590000D03*
X356950000Y-275590000D03*
X361950000Y-275590000D03*
X373460000Y-327660000D03*
X378460000Y-327660000D03*
X353140000Y-327660000D03*
X358140000Y-327660000D03*
X394970000Y-308690000D03*
X394970000Y-313690000D03*
X322660000Y-327660000D03*
X327660000Y-327660000D03*
X327660000Y-307340000D03*
X332660000Y-307340000D03*
X290830000Y-245190000D03*
X290830000Y-250190000D03*
X290830000Y-224870000D03*
X290830000Y-229870000D03*
X237515800Y-252730000D03*
X242515800Y-252730000D03*
X217250000Y-252730000D03*
X222250000Y-252730000D03*
X241345000Y-201930000D03*
X246345000Y-201930000D03*
X221025000Y-201930000D03*
X226025000Y-201930000D03*
X255270000Y-191850000D03*
X255270000Y-196850000D03*
X199390000Y-179100000D03*
X199390000Y-184100000D03*
X229870000Y-179100000D03*
X229870000Y-184100000D03*
X290830000Y-191850000D03*
X290830000Y-196850000D03*
X260350000Y-179100000D03*
X260350000Y-184100000D03*
X290830000Y-179100000D03*
X290830000Y-184100000D03*
X290830000Y-161407200D03*
X290830000Y-166407200D03*
X255270000Y-148620000D03*
X255270000Y-153620000D03*
X255270000Y-161320000D03*
X255270000Y-166320000D03*
X201885800Y-146735800D03*
X206885800Y-146735800D03*
X189310000Y-146786600D03*
X194310000Y-146786600D03*
X199390000Y-135970000D03*
X199390000Y-140970000D03*
X229870000Y-135970000D03*
X229870000Y-140970000D03*
X290830000Y-135890000D03*
X290830000Y-140890000D03*
X260350000Y-135970000D03*
X260350000Y-140970000D03*
X204470000Y-118110000D03*
X204470000Y-123110000D03*
X240030000Y-118110000D03*
X240030000Y-123110000D03*
X199390000Y-105490000D03*
X199390000Y-110490000D03*
X229870000Y-110410000D03*
X229870000Y-105410000D03*
X260350000Y-110410000D03*
X260350000Y-105410000D03*
X290830000Y-110410000D03*
X290830000Y-105410000D03*
X290830000Y-92790000D03*
X290830000Y-97790000D03*
X290830000Y-80090000D03*
X290830000Y-85090000D03*
X255270000Y-97710000D03*
X255270000Y-92710000D03*
X255270000Y-85010000D03*
X255270000Y-80010000D03*
X341630000Y-178990000D03*
X341630000Y-173990000D03*
X306070000Y-178990000D03*
X306070000Y-173990000D03*
X395700000Y-280670000D03*
D11*
X393700000Y-280670000D03*
D24*
X211201000Y-299212000D03*
X303054559Y-296900501D03*
X303530000Y-175133000D03*
X301117000Y-104013000D03*
X227711000Y-102743000D03*
X302133000Y-274066000D03*
X303149000Y-178562000D03*
X282995428Y-269834807D03*
X247015000Y-291211000D03*
X282575000Y-264668000D03*
X205867000Y-278384000D03*
X280416000Y-276860000D03*
X209296000Y-105918000D03*
X280670000Y-105791000D03*
X211963000Y-105283000D03*
X234696000Y-81661000D03*
X234696000Y-278775009D03*
X210439000Y-105664000D03*
X247650000Y-105791000D03*
X173355000Y-262509000D03*
X282067000Y-271399000D03*
X232156000Y-342357490D03*
X219837000Y-339471000D03*
X219837000Y-340106000D03*
X219837000Y-340741000D03*
X240538000Y-335280000D03*
X240284000Y-332740000D03*
X373380000Y-253873000D03*
X260350000Y-281178000D03*
X332232000Y-281940000D03*
X285369000Y-196215000D03*
X193167000Y-106045000D03*
X301117000Y-104648000D03*
X304800000Y-248793000D03*
X319532000Y-278384000D03*
X394970000Y-82550000D03*
X295910000Y-324739000D03*
X295910000Y-256159000D03*
X287909000Y-149987000D03*
X295910000Y-304419000D03*
X295910000Y-97409000D03*
X295910000Y-84836000D03*
X208280000Y-295148000D03*
X316611000Y-174752000D03*
X295910000Y-176149000D03*
X295910000Y-149860000D03*
X296545000Y-324231000D03*
X296545000Y-255651000D03*
X296545000Y-303911000D03*
X296545000Y-96901000D03*
X296545000Y-84328000D03*
X205740000Y-295494490D03*
X287909000Y-150622000D03*
X296545000Y-150622000D03*
X316611000Y-175387000D03*
X296546825Y-176564510D03*
X297180000Y-323723000D03*
X297180000Y-255143000D03*
X287909000Y-151257000D03*
X297180000Y-303403000D03*
X297180000Y-96393000D03*
X297180000Y-83820000D03*
X198120000Y-295773987D03*
X316611000Y-176022000D03*
X297180000Y-151130000D03*
X297180000Y-176818510D03*
X297815000Y-323215000D03*
X297815000Y-254635000D03*
X287909000Y-151892000D03*
X297815000Y-151892000D03*
X297815000Y-302895000D03*
X297815000Y-95885000D03*
X297815000Y-83312000D03*
X297815000Y-177072510D03*
X316611000Y-176622479D03*
X298450000Y-322707000D03*
X287909000Y-152527000D03*
X298450000Y-152527000D03*
X298450000Y-95377000D03*
X298450000Y-82804000D03*
X298450000Y-177326510D03*
X298446681Y-302390319D03*
X298446681Y-254130319D03*
X299085000Y-322072000D03*
X287909000Y-153162000D03*
X299085000Y-153035000D03*
X299085000Y-94869000D03*
X299085000Y-82296000D03*
X198120000Y-291084000D03*
X299085000Y-177580510D03*
X299085000Y-301752000D03*
X299085000Y-253619000D03*
X299720000Y-321564000D03*
X287909000Y-153797000D03*
X299720000Y-153543000D03*
X299720000Y-301244000D03*
X299720000Y-94361000D03*
X299720000Y-81788000D03*
X205740000Y-291338000D03*
X299720000Y-177834510D03*
X299720000Y-253145510D03*
X300355000Y-321056000D03*
X300355000Y-252476000D03*
X287909000Y-154432000D03*
X300355000Y-154051000D03*
X300355000Y-300736000D03*
X300355000Y-93853000D03*
X300359396Y-81314510D03*
X208278664Y-291499499D03*
X300355000Y-178088510D03*
X247396000Y-173736000D03*
X180340000Y-119634000D03*
X182880000Y-119888000D03*
X185420000Y-120142000D03*
X187960000Y-120396000D03*
X190500000Y-120650000D03*
X193040000Y-120904000D03*
X195580000Y-121158000D03*
X213360000Y-121412000D03*
X215900000Y-121666000D03*
X218440000Y-121920000D03*
X220980000Y-122174000D03*
X223520000Y-122428000D03*
X226060000Y-122682000D03*
X228600000Y-122936000D03*
X231140000Y-123190000D03*
X220726000Y-327660000D03*
X241300000Y-324993000D03*
X241681000Y-314960000D03*
X242316000Y-317500000D03*
X242570000Y-320040000D03*
X242824000Y-322580000D03*
X229904510Y-322580000D03*
X229870000Y-317500000D03*
X228981000Y-314833000D03*
X220980000Y-312420000D03*
X248342980Y-308419500D03*
X249393500Y-317500000D03*
X248758479Y-309521262D03*
X249139500Y-312420000D03*
X247396276Y-310607490D03*
X242374281Y-308366887D03*
X245618000Y-310896000D03*
X231047521Y-320167000D03*
X231013000Y-314960000D03*
X228473000Y-313436000D03*
X256794000Y-315087000D03*
X256794000Y-314452000D03*
X243967000Y-309880000D03*
X256794000Y-311150000D03*
X248666000Y-306578000D03*
X375920000Y-74930000D03*
X238701178Y-80610490D03*
X377190000Y-75438000D03*
X180268955Y-136588511D03*
X174556617Y-136779772D03*
X236220000Y-81026000D03*
X378460000Y-75946000D03*
X174676472Y-136215346D03*
X228600000Y-81280000D03*
X379730000Y-76454000D03*
X228600000Y-83947000D03*
X381000000Y-76962000D03*
X236220000Y-84201000D03*
X382270000Y-77470000D03*
X238760000Y-84455000D03*
X383540000Y-77978000D03*
X384810000Y-78486000D03*
X238379000Y-140335000D03*
X386080000Y-78994000D03*
X244094000Y-139573000D03*
X238760000Y-93091000D03*
X387350000Y-79502000D03*
X236220000Y-93345000D03*
X388620000Y-80010000D03*
X228600000Y-93599000D03*
X389890000Y-80518000D03*
X269113000Y-139446000D03*
X228600000Y-96901000D03*
X391160000Y-81026000D03*
X275844000Y-139446000D03*
X235950620Y-96743673D03*
X392430000Y-81534000D03*
X238497637Y-96993481D03*
X393700000Y-82042000D03*
X206271867Y-183418259D03*
X205867000Y-182626000D03*
X212487895Y-182563275D03*
X206668828Y-182999494D03*
X212895904Y-182971284D03*
X206248000Y-184023000D03*
X208788000Y-184023000D03*
X260731000Y-165862000D03*
X213106000Y-169799000D03*
X261464766Y-165715855D03*
X214122000Y-169926000D03*
X215138000Y-170434000D03*
X264414000Y-163668490D03*
X214664510Y-170849510D03*
X266201282Y-163641420D03*
X268019835Y-161822867D03*
X328168000Y-313690000D03*
X375920000Y-306705000D03*
X373380000Y-306451000D03*
X370840000Y-306197000D03*
X368300000Y-305943000D03*
X365760000Y-305689000D03*
X363220000Y-305435000D03*
X217008490Y-167171401D03*
X215854415Y-165671489D03*
X189611000Y-166116000D03*
X217590166Y-181575490D03*
X184658000Y-187706000D03*
X176657000Y-187452000D03*
X335280000Y-291084000D03*
X332867000Y-287782000D03*
X231775000Y-328930000D03*
X220726000Y-325374000D03*
X220726000Y-326517000D03*
X240792000Y-336550000D03*
X220980000Y-330581000D03*
X281305000Y-138176000D03*
X282829000Y-139827000D03*
X282956000Y-137668000D03*
X282067000Y-137922000D03*
X282163508Y-140242510D03*
X251841000Y-135890000D03*
X241427000Y-144363248D03*
X253111000Y-136398000D03*
X246507000Y-144399000D03*
X238988900Y-144363244D03*
X252476000Y-135890000D03*
X243967000Y-144363246D03*
X238506000Y-151765000D03*
X226883116Y-151574936D03*
X215865422Y-150529578D03*
X187071000Y-140589000D03*
X215392000Y-151257000D03*
X302514000Y-178562000D03*
X301752000Y-275590000D03*
X301498000Y-278130000D03*
X301879000Y-178562000D03*
X393700000Y-170180000D03*
X388620000Y-170688000D03*
X396240000Y-170018469D03*
X391160000Y-170434000D03*
X186528490Y-169672000D03*
X186944000Y-170688000D03*
X203327000Y-167640000D03*
X212378510Y-168529000D03*
X290830000Y-165255197D03*
X290830000Y-164592000D03*
X202692000Y-155702000D03*
X217297000Y-166624000D03*
X216789000Y-165862000D03*
X198628000Y-162433000D03*
D25*
X225260001Y-98260001D02*
X226060000Y-99060000D01*
X226060000Y-86360000D02*
X226060000Y-87491370D01*
X225069499Y-88481871D02*
X225069499Y-98069499D01*
X226060000Y-87491370D02*
X225069499Y-88481871D01*
X225069499Y-98069499D02*
X225260001Y-98260001D01*
X212560001Y-331940001D02*
X213360000Y-332740000D01*
X210976001Y-330356001D02*
X212560001Y-331940001D01*
X210976001Y-299436999D02*
X210976001Y-330356001D01*
X211201000Y-299212000D02*
X210976001Y-299436999D01*
X303054559Y-296900501D02*
X303054559Y-179418441D01*
X303054559Y-179418441D02*
X303784000Y-178689000D01*
X303784000Y-175387000D02*
X303530000Y-175133000D01*
X303784000Y-178689000D02*
X303784000Y-175387000D01*
X303530000Y-175133000D02*
X303530000Y-108204000D01*
X303530000Y-108204000D02*
X303530000Y-107950000D01*
X303530000Y-107950000D02*
X300609000Y-105029000D01*
X300609000Y-104521000D02*
X301117000Y-104013000D01*
X300609000Y-105029000D02*
X300609000Y-104521000D01*
X227711000Y-100711000D02*
X226060000Y-99060000D01*
X227711000Y-102743000D02*
X227711000Y-100711000D01*
X302133000Y-274066000D02*
X301879000Y-273812000D01*
X301879000Y-179832000D02*
X303149000Y-178562000D01*
X301879000Y-273812000D02*
X301879000Y-179832000D01*
X248920000Y-288633000D02*
X248920000Y-289560000D01*
X249960501Y-287592499D02*
X248920000Y-288633000D01*
X249960501Y-267740501D02*
X249960501Y-287592499D01*
X248920000Y-266700000D02*
X249960501Y-267740501D01*
X281940000Y-320040000D02*
X283234512Y-318745488D01*
X283234512Y-270073891D02*
X282995428Y-269834807D01*
X283234512Y-318745488D02*
X283234512Y-270073891D01*
X247879499Y-290346501D02*
X247015000Y-291211000D01*
X247879499Y-262660501D02*
X247879499Y-290346501D01*
X248920000Y-261620000D02*
X247879499Y-262660501D01*
X282575000Y-270002000D02*
X282575000Y-264668000D01*
X282980501Y-270407501D02*
X282575000Y-270002000D01*
X282980501Y-298679499D02*
X282980501Y-270407501D01*
X281940000Y-299720000D02*
X282980501Y-298679499D01*
X204749499Y-279501501D02*
X204749499Y-307962499D01*
X205740000Y-308953000D02*
X205740000Y-309880000D01*
X205867000Y-278384000D02*
X204749499Y-279501501D01*
X204749499Y-307962499D02*
X205740000Y-308953000D01*
X280640999Y-277084999D02*
X280640999Y-339060999D01*
X281140001Y-339560001D02*
X281940000Y-340360000D01*
X280640999Y-339060999D02*
X281140001Y-339560001D01*
X280416000Y-276860000D02*
X280640999Y-277084999D01*
X280670000Y-87630000D02*
X281940000Y-86360000D01*
X280670000Y-105791000D02*
X280670000Y-87630000D01*
X209320501Y-260579499D02*
X209320501Y-106260699D01*
X208280000Y-261620000D02*
X209320501Y-260579499D01*
X209296000Y-106236198D02*
X209296000Y-105918000D01*
X209320501Y-106260699D02*
X209296000Y-106236198D01*
X208280000Y-266700000D02*
X209931000Y-265049000D01*
X209829499Y-246855441D02*
X209829499Y-193395501D01*
X209931000Y-246956942D02*
X209829499Y-246855441D01*
X209931000Y-265049000D02*
X209931000Y-246956942D01*
X209829499Y-193395501D02*
X211963000Y-191262000D01*
X211963000Y-191262000D02*
X211963000Y-105283000D01*
X234920999Y-81885999D02*
X234920999Y-278550010D01*
X234696000Y-81661000D02*
X234920999Y-81885999D01*
X234920999Y-278550010D02*
X234696000Y-278775009D01*
X247993000Y-91440000D02*
X248920000Y-91440000D01*
X247650000Y-91783000D02*
X247993000Y-91440000D01*
X247650000Y-105791000D02*
X247650000Y-91783000D01*
X209575488Y-106527512D02*
X210439000Y-105664000D01*
X209575488Y-262864512D02*
X209575488Y-106527512D01*
X208280000Y-264160000D02*
X209575488Y-262864512D01*
X173355000Y-113665000D02*
X175260000Y-111760000D01*
X173355000Y-262509000D02*
X173355000Y-113665000D01*
X282067000Y-252718370D02*
X281940000Y-252591370D01*
X281940000Y-252591370D02*
X281940000Y-251460000D01*
X282067000Y-271399000D02*
X282067000Y-252718370D01*
X201676000Y-312420000D02*
X195326000Y-306070000D01*
X205740000Y-312420000D02*
X201676000Y-312420000D01*
X191299999Y-224211999D02*
X190500000Y-223412000D01*
X191490501Y-300961709D02*
X191490501Y-224402501D01*
X195326000Y-304797208D02*
X191490501Y-300961709D01*
X191490501Y-224402501D02*
X191299999Y-224211999D01*
X195326000Y-306070000D02*
X195326000Y-304797208D01*
X201930000Y-306070000D02*
X200025000Y-304165000D01*
X200025000Y-304165000D02*
X195072000Y-304165000D01*
X195072000Y-304165000D02*
X191770000Y-300863000D01*
X191770000Y-222142000D02*
X190500000Y-220872000D01*
X191770000Y-300863000D02*
X191770000Y-222142000D01*
X206248000Y-311277000D02*
X205194098Y-311277000D01*
X201930000Y-308012902D02*
X201930000Y-306070000D01*
X205194098Y-311277000D02*
X201930000Y-308012902D01*
X206730501Y-311759501D02*
X206248000Y-311277000D01*
X206730501Y-319049499D02*
X206730501Y-311759501D01*
X205740000Y-320040000D02*
X206730501Y-319049499D01*
X374229999Y-163409999D02*
X373380000Y-162560000D01*
X374420501Y-163600501D02*
X374229999Y-163409999D01*
X374420501Y-243873557D02*
X374420501Y-163600501D01*
X373380000Y-244914058D02*
X374420501Y-243873557D01*
X373380000Y-253873000D02*
X373380000Y-244914058D01*
X176244501Y-122344129D02*
X176244501Y-115538501D01*
X175254000Y-123334630D02*
X176244501Y-122344129D01*
X175254000Y-124466000D02*
X175254000Y-123334630D01*
X176809499Y-111284559D02*
X182811058Y-105283000D01*
X176809499Y-114973503D02*
X176809499Y-111284559D01*
X176244501Y-115538501D02*
X176809499Y-114973503D01*
X189357000Y-105283000D02*
X190500000Y-104140000D01*
X182811058Y-105283000D02*
X189357000Y-105283000D01*
X260350000Y-232414800D02*
X261629000Y-231135800D01*
X260350000Y-281178000D02*
X260350000Y-232414800D01*
X330999999Y-259879999D02*
X330200000Y-259080000D01*
X332540501Y-261420501D02*
X330999999Y-259879999D01*
X332540501Y-281631499D02*
X332540501Y-261420501D01*
X332232000Y-281940000D02*
X332540501Y-281631499D01*
X260638499Y-199101501D02*
X260820001Y-198919999D01*
X260638499Y-230145299D02*
X260638499Y-199101501D01*
X260820001Y-198919999D02*
X261620000Y-198120000D01*
X261629000Y-231135800D02*
X260638499Y-230145299D01*
X286893000Y-109093000D02*
X281940000Y-104140000D01*
X286893000Y-194691000D02*
X286893000Y-109093000D01*
X285369000Y-196215000D02*
X286893000Y-194691000D01*
X301117000Y-104648000D02*
X304038000Y-107569000D01*
X304038000Y-248031000D02*
X304800000Y-248793000D01*
X304038000Y-107569000D02*
X304038000Y-248031000D01*
X394970000Y-87630000D02*
X393700000Y-88900000D01*
X394970000Y-82550000D02*
X394970000Y-87630000D01*
X244689999Y-117689999D02*
X243840000Y-116840000D01*
X247392501Y-120392501D02*
X244689999Y-117689999D01*
X247396000Y-168910000D02*
X247392501Y-120392501D01*
X247396000Y-168910000D02*
X247396000Y-173736000D01*
X375920000Y-74930000D02*
X375920000Y-86360000D01*
X375920000Y-88900000D02*
X377190000Y-87630000D01*
X377190000Y-87630000D02*
X377190000Y-75438000D01*
X378460000Y-75946000D02*
X378460000Y-86360000D01*
X378460000Y-88900000D02*
X379730000Y-87630000D01*
X379730000Y-87630000D02*
X379730000Y-76454000D01*
X381000000Y-76962000D02*
X381000000Y-86360000D01*
X381000000Y-88900000D02*
X382270000Y-87630000D01*
X382270000Y-87630000D02*
X382270000Y-77470000D01*
X383540000Y-77978000D02*
X383540000Y-86360000D01*
X383540000Y-88900000D02*
X384810000Y-87630000D01*
X384810000Y-87630000D02*
X384810000Y-78486000D01*
X386080000Y-78994000D02*
X386080000Y-86360000D01*
X386080000Y-88900000D02*
X387350000Y-87630000D01*
X387350000Y-87630000D02*
X387350000Y-79502000D01*
X388620000Y-80010000D02*
X388620000Y-86360000D01*
X388620000Y-88900000D02*
X389890000Y-87630000D01*
X389890000Y-87630000D02*
X389890000Y-80518000D01*
X391160000Y-86360000D02*
X391160000Y-81026000D01*
X392430000Y-87630000D02*
X391160000Y-88900000D01*
X392430000Y-81534000D02*
X392430000Y-87630000D01*
X393700000Y-86360000D02*
X393700000Y-82042000D01*
X301527001Y-275365001D02*
X301752000Y-275590000D01*
X302514000Y-178562000D02*
X301527001Y-179548999D01*
X301527001Y-179548999D02*
X301527001Y-275365001D01*
X301273001Y-179167999D02*
X301879000Y-178562000D01*
X301498000Y-278130000D02*
X301273001Y-277905001D01*
X301273001Y-277905001D02*
X301273001Y-179167999D01*
X186528490Y-169353802D02*
X186528490Y-169672000D01*
X187960000Y-152400000D02*
X187960000Y-153327000D01*
X187960000Y-153327000D02*
X186528490Y-154758510D01*
X186528490Y-154758510D02*
X186528490Y-169353802D01*
X186944000Y-161036000D02*
X187960000Y-160020000D01*
X186944000Y-170688000D02*
X186944000Y-161036000D01*
M02*
