G04 #@! TF.GenerationSoftware,KiCad,Pcbnew,(5.1.0-0)*
G04 #@! TF.CreationDate,2019-10-08T22:08:13-07:00*
G04 #@! TF.ProjectId,MainBoard,4d61696e-426f-4617-9264-2e6b69636164,rev?*
G04 #@! TF.SameCoordinates,Original*
G04 #@! TF.FileFunction,Copper,L6,Bot*
G04 #@! TF.FilePolarity,Positive*
%FSLAX46Y46*%
G04 Gerber Fmt 4.6, Leading zero omitted, Abs format (unit mm)*
G04 Created by KiCad (PCBNEW (5.1.0-0)) date 2019-10-08 22:08:13*
%MOMM*%
%LPD*%
G04 APERTURE LIST*
%ADD10C,2.500000*%
%ADD11R,2.500000X2.500000*%
%ADD12O,1.600000X1.600000*%
%ADD13R,1.600000X1.600000*%
%ADD14C,1.600000*%
%ADD15O,1.700000X1.700000*%
%ADD16R,1.700000X1.700000*%
%ADD17R,1.300000X1.300000*%
%ADD18C,1.300000*%
%ADD19C,2.000000*%
%ADD20C,1.620000*%
%ADD21C,1.800000*%
%ADD22R,1.800000X1.800000*%
%ADD23C,0.450000*%
%ADD24C,0.127000*%
G04 APERTURE END LIST*
D10*
X368808000Y-208200000D03*
D11*
X368808000Y-203200000D03*
D12*
X180340000Y-119380000D03*
X172720000Y-134620000D03*
X180340000Y-121920000D03*
X172720000Y-132080000D03*
X180340000Y-124460000D03*
X172720000Y-129540000D03*
X180340000Y-127000000D03*
X172720000Y-127000000D03*
X180340000Y-129540000D03*
X172720000Y-124460000D03*
X180340000Y-132080000D03*
X172720000Y-121920000D03*
X180340000Y-134620000D03*
D13*
X172720000Y-119380000D03*
D12*
X167640000Y-119380000D03*
X160020000Y-134620000D03*
X167640000Y-121920000D03*
X160020000Y-132080000D03*
X167640000Y-124460000D03*
X160020000Y-129540000D03*
X167640000Y-127000000D03*
X160020000Y-127000000D03*
X167640000Y-129540000D03*
X160020000Y-124460000D03*
X167640000Y-132080000D03*
X160020000Y-121920000D03*
X167640000Y-134620000D03*
D13*
X160020000Y-119380000D03*
D12*
X350520000Y-139700000D03*
X368300000Y-147320000D03*
X353060000Y-139700000D03*
X365760000Y-147320000D03*
X355600000Y-139700000D03*
X363220000Y-147320000D03*
X358140000Y-139700000D03*
X360680000Y-147320000D03*
X360680000Y-139700000D03*
X358140000Y-147320000D03*
X363220000Y-139700000D03*
X355600000Y-147320000D03*
X365760000Y-139700000D03*
X353060000Y-147320000D03*
X368300000Y-139700000D03*
D13*
X350520000Y-147320000D03*
D14*
X262890000Y-115650000D03*
X262890000Y-120650000D03*
X344170000Y-145970000D03*
X344170000Y-140970000D03*
D15*
X299720000Y-83820000D03*
X299720000Y-86360000D03*
X302260000Y-83820000D03*
X302260000Y-86360000D03*
X304800000Y-83820000D03*
X304800000Y-86360000D03*
X307340000Y-83820000D03*
X307340000Y-86360000D03*
X309880000Y-83820000D03*
X309880000Y-86360000D03*
X312420000Y-83820000D03*
X312420000Y-86360000D03*
X314960000Y-83820000D03*
X314960000Y-86360000D03*
X317500000Y-83820000D03*
X317500000Y-86360000D03*
X320040000Y-83820000D03*
X320040000Y-86360000D03*
X322580000Y-83820000D03*
X322580000Y-86360000D03*
X325120000Y-83820000D03*
X325120000Y-86360000D03*
X327660000Y-83820000D03*
X327660000Y-86360000D03*
X330200000Y-83820000D03*
X330200000Y-86360000D03*
X332740000Y-83820000D03*
X332740000Y-86360000D03*
X335280000Y-83820000D03*
X335280000Y-86360000D03*
X337820000Y-83820000D03*
X337820000Y-86360000D03*
X340360000Y-83820000D03*
X340360000Y-86360000D03*
X342900000Y-83820000D03*
X342900000Y-86360000D03*
X345440000Y-83820000D03*
X345440000Y-86360000D03*
X347980000Y-83820000D03*
D16*
X347980000Y-86360000D03*
D15*
X299720000Y-114300000D03*
X299720000Y-116840000D03*
X302260000Y-114300000D03*
X302260000Y-116840000D03*
X304800000Y-114300000D03*
X304800000Y-116840000D03*
X307340000Y-114300000D03*
X307340000Y-116840000D03*
X309880000Y-114300000D03*
X309880000Y-116840000D03*
X312420000Y-114300000D03*
X312420000Y-116840000D03*
X314960000Y-114300000D03*
X314960000Y-116840000D03*
X317500000Y-114300000D03*
X317500000Y-116840000D03*
X320040000Y-114300000D03*
X320040000Y-116840000D03*
X322580000Y-114300000D03*
X322580000Y-116840000D03*
X325120000Y-114300000D03*
X325120000Y-116840000D03*
X327660000Y-114300000D03*
X327660000Y-116840000D03*
X330200000Y-114300000D03*
X330200000Y-116840000D03*
X332740000Y-114300000D03*
X332740000Y-116840000D03*
X335280000Y-114300000D03*
X335280000Y-116840000D03*
X337820000Y-114300000D03*
X337820000Y-116840000D03*
X340360000Y-114300000D03*
X340360000Y-116840000D03*
X342900000Y-114300000D03*
X342900000Y-116840000D03*
X345440000Y-114300000D03*
X345440000Y-116840000D03*
X347980000Y-114300000D03*
D16*
X347980000Y-116840000D03*
D15*
X299720000Y-53340000D03*
X299720000Y-55880000D03*
X302260000Y-53340000D03*
X302260000Y-55880000D03*
X304800000Y-53340000D03*
X304800000Y-55880000D03*
X307340000Y-53340000D03*
X307340000Y-55880000D03*
X309880000Y-53340000D03*
X309880000Y-55880000D03*
X312420000Y-53340000D03*
X312420000Y-55880000D03*
X314960000Y-53340000D03*
X314960000Y-55880000D03*
X317500000Y-53340000D03*
X317500000Y-55880000D03*
X320040000Y-53340000D03*
X320040000Y-55880000D03*
X322580000Y-53340000D03*
X322580000Y-55880000D03*
X325120000Y-53340000D03*
X325120000Y-55880000D03*
X327660000Y-53340000D03*
X327660000Y-55880000D03*
X330200000Y-53340000D03*
X330200000Y-55880000D03*
X332740000Y-53340000D03*
X332740000Y-55880000D03*
X335280000Y-53340000D03*
X335280000Y-55880000D03*
X337820000Y-53340000D03*
X337820000Y-55880000D03*
X340360000Y-53340000D03*
X340360000Y-55880000D03*
X342900000Y-53340000D03*
X342900000Y-55880000D03*
X345440000Y-53340000D03*
X345440000Y-55880000D03*
X347980000Y-53340000D03*
D16*
X347980000Y-55880000D03*
D15*
X299720000Y-129540000D03*
X299720000Y-132080000D03*
X302260000Y-129540000D03*
X302260000Y-132080000D03*
X304800000Y-129540000D03*
X304800000Y-132080000D03*
X307340000Y-129540000D03*
X307340000Y-132080000D03*
X309880000Y-129540000D03*
X309880000Y-132080000D03*
X312420000Y-129540000D03*
X312420000Y-132080000D03*
X314960000Y-129540000D03*
X314960000Y-132080000D03*
X317500000Y-129540000D03*
X317500000Y-132080000D03*
X320040000Y-129540000D03*
X320040000Y-132080000D03*
X322580000Y-129540000D03*
X322580000Y-132080000D03*
X325120000Y-129540000D03*
X325120000Y-132080000D03*
X327660000Y-129540000D03*
X327660000Y-132080000D03*
X330200000Y-129540000D03*
X330200000Y-132080000D03*
X332740000Y-129540000D03*
X332740000Y-132080000D03*
X335280000Y-129540000D03*
X335280000Y-132080000D03*
X337820000Y-129540000D03*
X337820000Y-132080000D03*
X340360000Y-129540000D03*
X340360000Y-132080000D03*
X342900000Y-129540000D03*
X342900000Y-132080000D03*
X345440000Y-129540000D03*
X345440000Y-132080000D03*
X347980000Y-129540000D03*
D16*
X347980000Y-132080000D03*
D15*
X299720000Y-99060000D03*
X299720000Y-101600000D03*
X302260000Y-99060000D03*
X302260000Y-101600000D03*
X304800000Y-99060000D03*
X304800000Y-101600000D03*
X307340000Y-99060000D03*
X307340000Y-101600000D03*
X309880000Y-99060000D03*
X309880000Y-101600000D03*
X312420000Y-99060000D03*
X312420000Y-101600000D03*
X314960000Y-99060000D03*
X314960000Y-101600000D03*
X317500000Y-99060000D03*
X317500000Y-101600000D03*
X320040000Y-99060000D03*
X320040000Y-101600000D03*
X322580000Y-99060000D03*
X322580000Y-101600000D03*
X325120000Y-99060000D03*
X325120000Y-101600000D03*
X327660000Y-99060000D03*
X327660000Y-101600000D03*
X330200000Y-99060000D03*
X330200000Y-101600000D03*
X332740000Y-99060000D03*
X332740000Y-101600000D03*
X335280000Y-99060000D03*
X335280000Y-101600000D03*
X337820000Y-99060000D03*
X337820000Y-101600000D03*
X340360000Y-99060000D03*
X340360000Y-101600000D03*
X342900000Y-99060000D03*
X342900000Y-101600000D03*
X345440000Y-99060000D03*
X345440000Y-101600000D03*
X347980000Y-99060000D03*
D16*
X347980000Y-101600000D03*
D15*
X299720000Y-68580000D03*
X299720000Y-71120000D03*
X302260000Y-68580000D03*
X302260000Y-71120000D03*
X304800000Y-68580000D03*
X304800000Y-71120000D03*
X307340000Y-68580000D03*
X307340000Y-71120000D03*
X309880000Y-68580000D03*
X309880000Y-71120000D03*
X312420000Y-68580000D03*
X312420000Y-71120000D03*
X314960000Y-68580000D03*
X314960000Y-71120000D03*
X317500000Y-68580000D03*
X317500000Y-71120000D03*
X320040000Y-68580000D03*
X320040000Y-71120000D03*
X322580000Y-68580000D03*
X322580000Y-71120000D03*
X325120000Y-68580000D03*
X325120000Y-71120000D03*
X327660000Y-68580000D03*
X327660000Y-71120000D03*
X330200000Y-68580000D03*
X330200000Y-71120000D03*
X332740000Y-68580000D03*
X332740000Y-71120000D03*
X335280000Y-68580000D03*
X335280000Y-71120000D03*
X337820000Y-68580000D03*
X337820000Y-71120000D03*
X340360000Y-68580000D03*
X340360000Y-71120000D03*
X342900000Y-68580000D03*
X342900000Y-71120000D03*
X345440000Y-68580000D03*
X345440000Y-71120000D03*
X347980000Y-68580000D03*
D16*
X347980000Y-71120000D03*
D12*
X175260000Y-198115800D03*
X152400000Y-190495800D03*
X172720000Y-198115800D03*
X154940000Y-190495800D03*
X170180000Y-198115800D03*
X157480000Y-190495800D03*
X167640000Y-198115800D03*
X160020000Y-190495800D03*
X165100000Y-198115800D03*
X162560000Y-190495800D03*
X162560000Y-198115800D03*
X165100000Y-190495800D03*
X160020000Y-198115800D03*
X167640000Y-190495800D03*
X157480000Y-198115800D03*
X170180000Y-190495800D03*
X154940000Y-198115800D03*
X172720000Y-190495800D03*
X152400000Y-198115800D03*
D13*
X175260000Y-190495800D03*
D14*
X341710000Y-182880000D03*
X346710000Y-182880000D03*
X358140000Y-228600000D03*
X358140000Y-220980000D03*
X342900000Y-220980000D03*
D13*
X342900000Y-228600000D03*
D12*
X355600000Y-204470000D03*
D14*
X347980000Y-204470000D03*
D12*
X350520000Y-184150000D03*
D14*
X358140000Y-184150000D03*
D12*
X369570000Y-195580000D03*
D14*
X361950000Y-195580000D03*
X355520000Y-190500000D03*
X350520000Y-190500000D03*
X355520000Y-196850000D03*
X350520000Y-196850000D03*
D12*
X290830000Y-189230000D03*
D14*
X298450000Y-189230000D03*
D12*
X298450000Y-182880000D03*
D14*
X290830000Y-182880000D03*
X297100000Y-204470000D03*
X292100000Y-204470000D03*
X295370000Y-196850000D03*
D13*
X293370000Y-196850000D03*
D12*
X256540000Y-53340000D03*
X233680000Y-45720000D03*
X254000000Y-53340000D03*
X236220000Y-45720000D03*
X251460000Y-53340000D03*
X238760000Y-45720000D03*
X248920000Y-53340000D03*
X241300000Y-45720000D03*
X246380000Y-53340000D03*
X243840000Y-45720000D03*
X243840000Y-53340000D03*
X246380000Y-45720000D03*
X241300000Y-53340000D03*
X248920000Y-45720000D03*
X238760000Y-53340000D03*
X251460000Y-45720000D03*
X236220000Y-53340000D03*
X254000000Y-45720000D03*
X233680000Y-53340000D03*
D13*
X256540000Y-45720000D03*
D12*
X149860000Y-170180000D03*
X187960000Y-185420000D03*
X152400000Y-170180000D03*
X185420000Y-185420000D03*
X154940000Y-170180000D03*
X182880000Y-185420000D03*
X157480000Y-170180000D03*
X180340000Y-185420000D03*
X160020000Y-170180000D03*
X177800000Y-185420000D03*
X162560000Y-170180000D03*
X175260000Y-185420000D03*
X165100000Y-170180000D03*
X172720000Y-185420000D03*
X167640000Y-170180000D03*
X170180000Y-185420000D03*
X170180000Y-170180000D03*
X167640000Y-185420000D03*
X172720000Y-170180000D03*
X165100000Y-185420000D03*
X175260000Y-170180000D03*
X162560000Y-185420000D03*
X177800000Y-170180000D03*
X160020000Y-185420000D03*
X180340000Y-170180000D03*
X157480000Y-185420000D03*
X182880000Y-170180000D03*
X154940000Y-185420000D03*
X185420000Y-170180000D03*
X152400000Y-185420000D03*
X187960000Y-170180000D03*
D13*
X149860000Y-185420000D03*
D12*
X220980000Y-53340000D03*
X198120000Y-45720000D03*
X218440000Y-53340000D03*
X200660000Y-45720000D03*
X215900000Y-53340000D03*
X203200000Y-45720000D03*
X213360000Y-53340000D03*
X205740000Y-45720000D03*
X210820000Y-53340000D03*
X208280000Y-45720000D03*
X208280000Y-53340000D03*
X210820000Y-45720000D03*
X205740000Y-53340000D03*
X213360000Y-45720000D03*
X203200000Y-53340000D03*
X215900000Y-45720000D03*
X200660000Y-53340000D03*
X218440000Y-45720000D03*
X198120000Y-53340000D03*
D13*
X220980000Y-45720000D03*
D15*
X149860000Y-139700000D03*
X152400000Y-139700000D03*
X154940000Y-139700000D03*
X157480000Y-139700000D03*
X160020000Y-139700000D03*
X162560000Y-139700000D03*
X165100000Y-139700000D03*
D16*
X167640000Y-139700000D03*
D15*
X185420000Y-139700000D03*
X187960000Y-139700000D03*
X190500000Y-139700000D03*
X193040000Y-139700000D03*
X195580000Y-139700000D03*
X198120000Y-139700000D03*
X200660000Y-139700000D03*
D16*
X203200000Y-139700000D03*
D15*
X149860000Y-96520000D03*
X152400000Y-96520000D03*
X154940000Y-96520000D03*
X157480000Y-96520000D03*
X160020000Y-96520000D03*
X162560000Y-96520000D03*
X165100000Y-96520000D03*
X167640000Y-96520000D03*
D16*
X170180000Y-96520000D03*
D15*
X185420000Y-96520000D03*
X187960000Y-96520000D03*
X190500000Y-96520000D03*
X193040000Y-96520000D03*
X195580000Y-96520000D03*
X198120000Y-96520000D03*
X200660000Y-96520000D03*
X203200000Y-96520000D03*
D16*
X205740000Y-96520000D03*
D12*
X175260000Y-246380000D03*
X167640000Y-269240000D03*
X175260000Y-248920000D03*
X167640000Y-266700000D03*
X175260000Y-251460000D03*
X167640000Y-264160000D03*
X175260000Y-254000000D03*
X167640000Y-261620000D03*
X175260000Y-256540000D03*
X167640000Y-259080000D03*
X175260000Y-259080000D03*
X167640000Y-256540000D03*
X175260000Y-261620000D03*
X167640000Y-254000000D03*
X175260000Y-264160000D03*
X167640000Y-251460000D03*
X175260000Y-266700000D03*
X167640000Y-248920000D03*
X175260000Y-269240000D03*
D13*
X167640000Y-246380000D03*
D12*
X246380000Y-276860000D03*
X223520000Y-269240000D03*
X243840000Y-276860000D03*
X226060000Y-269240000D03*
X241300000Y-276860000D03*
X228600000Y-269240000D03*
X238760000Y-276860000D03*
X231140000Y-269240000D03*
X236220000Y-276860000D03*
X233680000Y-269240000D03*
X233680000Y-276860000D03*
X236220000Y-269240000D03*
X231140000Y-276860000D03*
X238760000Y-269240000D03*
X228600000Y-276860000D03*
X241300000Y-269240000D03*
X226060000Y-276860000D03*
X243840000Y-269240000D03*
X223520000Y-276860000D03*
D13*
X246380000Y-269240000D03*
D12*
X195580000Y-246380000D03*
X180340000Y-274320000D03*
X195580000Y-248920000D03*
X180340000Y-271780000D03*
X195580000Y-251460000D03*
X180340000Y-269240000D03*
X195580000Y-254000000D03*
X180340000Y-266700000D03*
X195580000Y-256540000D03*
X180340000Y-264160000D03*
X195580000Y-259080000D03*
X180340000Y-261620000D03*
X195580000Y-261620000D03*
X180340000Y-259080000D03*
X195580000Y-264160000D03*
X180340000Y-256540000D03*
X195580000Y-266700000D03*
X180340000Y-254000000D03*
X195580000Y-269240000D03*
X180340000Y-251460000D03*
X195580000Y-271780000D03*
X180340000Y-248920000D03*
X195580000Y-274320000D03*
D13*
X180340000Y-246380000D03*
D12*
X215900000Y-246380000D03*
X200660000Y-274320000D03*
X215900000Y-248920000D03*
X200660000Y-271780000D03*
X215900000Y-251460000D03*
X200660000Y-269240000D03*
X215900000Y-254000000D03*
X200660000Y-266700000D03*
X215900000Y-256540000D03*
X200660000Y-264160000D03*
X215900000Y-259080000D03*
X200660000Y-261620000D03*
X215900000Y-261620000D03*
X200660000Y-259080000D03*
X215900000Y-264160000D03*
X200660000Y-256540000D03*
X215900000Y-266700000D03*
X200660000Y-254000000D03*
X215900000Y-269240000D03*
X200660000Y-251460000D03*
X215900000Y-271780000D03*
X200660000Y-248920000D03*
X215900000Y-274320000D03*
D13*
X200660000Y-246380000D03*
D12*
X246380000Y-256540000D03*
X223520000Y-248920000D03*
X243840000Y-256540000D03*
X226060000Y-248920000D03*
X241300000Y-256540000D03*
X228600000Y-248920000D03*
X238760000Y-256540000D03*
X231140000Y-248920000D03*
X236220000Y-256540000D03*
X233680000Y-248920000D03*
X233680000Y-256540000D03*
X236220000Y-248920000D03*
X231140000Y-256540000D03*
X238760000Y-248920000D03*
X228600000Y-256540000D03*
X241300000Y-248920000D03*
X226060000Y-256540000D03*
X243840000Y-248920000D03*
X223520000Y-256540000D03*
D13*
X246380000Y-248920000D03*
D12*
X210820000Y-233680000D03*
X187960000Y-226060000D03*
X208280000Y-233680000D03*
X190500000Y-226060000D03*
X205740000Y-233680000D03*
X193040000Y-226060000D03*
X203200000Y-233680000D03*
X195580000Y-226060000D03*
X200660000Y-233680000D03*
X198120000Y-226060000D03*
X198120000Y-233680000D03*
X200660000Y-226060000D03*
X195580000Y-233680000D03*
X203200000Y-226060000D03*
X193040000Y-233680000D03*
X205740000Y-226060000D03*
X190500000Y-233680000D03*
X208280000Y-226060000D03*
X187960000Y-233680000D03*
D13*
X210820000Y-226060000D03*
D12*
X246380000Y-236220000D03*
X223520000Y-228600000D03*
X243840000Y-236220000D03*
X226060000Y-228600000D03*
X241300000Y-236220000D03*
X228600000Y-228600000D03*
X238760000Y-236220000D03*
X231140000Y-228600000D03*
X236220000Y-236220000D03*
X233680000Y-228600000D03*
X233680000Y-236220000D03*
X236220000Y-228600000D03*
X231140000Y-236220000D03*
X238760000Y-228600000D03*
X228600000Y-236220000D03*
X241300000Y-228600000D03*
X226060000Y-236220000D03*
X243840000Y-228600000D03*
X223520000Y-236220000D03*
D13*
X246380000Y-228600000D03*
D12*
X175260000Y-233680000D03*
X152400000Y-226060000D03*
X172720000Y-233680000D03*
X154940000Y-226060000D03*
X170180000Y-233680000D03*
X157480000Y-226060000D03*
X167640000Y-233680000D03*
X160020000Y-226060000D03*
X165100000Y-233680000D03*
X162560000Y-226060000D03*
X162560000Y-233680000D03*
X165100000Y-226060000D03*
X160020000Y-233680000D03*
X167640000Y-226060000D03*
X157480000Y-233680000D03*
X170180000Y-226060000D03*
X154940000Y-233680000D03*
X172720000Y-226060000D03*
X152400000Y-233680000D03*
D13*
X175260000Y-226060000D03*
D12*
X309880000Y-189230000D03*
X302260000Y-207010000D03*
X309880000Y-191770000D03*
X302260000Y-204470000D03*
X309880000Y-194310000D03*
X302260000Y-201930000D03*
X309880000Y-196850000D03*
X302260000Y-199390000D03*
X309880000Y-199390000D03*
X302260000Y-196850000D03*
X309880000Y-201930000D03*
X302260000Y-194310000D03*
X309880000Y-204470000D03*
X302260000Y-191770000D03*
X309880000Y-207010000D03*
D13*
X302260000Y-189230000D03*
D12*
X322580000Y-189230000D03*
X314960000Y-204470000D03*
X322580000Y-191770000D03*
X314960000Y-201930000D03*
X322580000Y-194310000D03*
X314960000Y-199390000D03*
X322580000Y-196850000D03*
X314960000Y-196850000D03*
X322580000Y-199390000D03*
X314960000Y-194310000D03*
X322580000Y-201930000D03*
X314960000Y-191770000D03*
X322580000Y-204470000D03*
D13*
X314960000Y-189230000D03*
D12*
X335280000Y-189230000D03*
X327660000Y-204470000D03*
X335280000Y-191770000D03*
X327660000Y-201930000D03*
X335280000Y-194310000D03*
X327660000Y-199390000D03*
X335280000Y-196850000D03*
X327660000Y-196850000D03*
X335280000Y-199390000D03*
X327660000Y-194310000D03*
X335280000Y-201930000D03*
X327660000Y-191770000D03*
X335280000Y-204470000D03*
D13*
X327660000Y-189230000D03*
D17*
X341630000Y-204470000D03*
D18*
X344170000Y-204470000D03*
X342900000Y-203200000D03*
D12*
X347980000Y-189230000D03*
X340360000Y-196850000D03*
X347980000Y-191770000D03*
X340360000Y-194310000D03*
X347980000Y-194310000D03*
X340360000Y-191770000D03*
X347980000Y-196850000D03*
D13*
X340360000Y-189230000D03*
D12*
X309880000Y-219710000D03*
X302260000Y-234950000D03*
X309880000Y-222250000D03*
X302260000Y-232410000D03*
X309880000Y-224790000D03*
X302260000Y-229870000D03*
X309880000Y-227330000D03*
X302260000Y-227330000D03*
X309880000Y-229870000D03*
X302260000Y-224790000D03*
X309880000Y-232410000D03*
X302260000Y-222250000D03*
X309880000Y-234950000D03*
D13*
X302260000Y-219710000D03*
D12*
X322580000Y-219710000D03*
X314960000Y-234950000D03*
X322580000Y-222250000D03*
X314960000Y-232410000D03*
X322580000Y-224790000D03*
X314960000Y-229870000D03*
X322580000Y-227330000D03*
X314960000Y-227330000D03*
X322580000Y-229870000D03*
X314960000Y-224790000D03*
X322580000Y-232410000D03*
X314960000Y-222250000D03*
X322580000Y-234950000D03*
D13*
X314960000Y-219710000D03*
D12*
X297180000Y-219710000D03*
X289560000Y-237490000D03*
X297180000Y-222250000D03*
X289560000Y-234950000D03*
X297180000Y-224790000D03*
X289560000Y-232410000D03*
X297180000Y-227330000D03*
X289560000Y-229870000D03*
X297180000Y-229870000D03*
X289560000Y-227330000D03*
X297180000Y-232410000D03*
X289560000Y-224790000D03*
X297180000Y-234950000D03*
X289560000Y-222250000D03*
X297180000Y-237490000D03*
D13*
X289560000Y-219710000D03*
D12*
X335280000Y-219710000D03*
X327660000Y-234950000D03*
X335280000Y-222250000D03*
X327660000Y-232410000D03*
X335280000Y-224790000D03*
X327660000Y-229870000D03*
X335280000Y-227330000D03*
X327660000Y-227330000D03*
X335280000Y-229870000D03*
X327660000Y-224790000D03*
X335280000Y-232410000D03*
X327660000Y-222250000D03*
X335280000Y-234950000D03*
D13*
X327660000Y-219710000D03*
D12*
X287020000Y-189230000D03*
X279400000Y-196850000D03*
X287020000Y-191770000D03*
X279400000Y-194310000D03*
X287020000Y-194310000D03*
X279400000Y-191770000D03*
X287020000Y-196850000D03*
D13*
X279400000Y-189230000D03*
D12*
X284480000Y-219710000D03*
X276860000Y-234950000D03*
X284480000Y-222250000D03*
X276860000Y-232410000D03*
X284480000Y-224790000D03*
X276860000Y-229870000D03*
X284480000Y-227330000D03*
X276860000Y-227330000D03*
X284480000Y-229870000D03*
X276860000Y-224790000D03*
X284480000Y-232410000D03*
X276860000Y-222250000D03*
X284480000Y-234950000D03*
D13*
X276860000Y-219710000D03*
D12*
X351790000Y-271780000D03*
X344170000Y-279400000D03*
X351790000Y-274320000D03*
X344170000Y-276860000D03*
X351790000Y-276860000D03*
X344170000Y-274320000D03*
X351790000Y-279400000D03*
D13*
X344170000Y-271780000D03*
D12*
X331470000Y-271780000D03*
X323850000Y-279400000D03*
X331470000Y-274320000D03*
X323850000Y-276860000D03*
X331470000Y-276860000D03*
X323850000Y-274320000D03*
X331470000Y-279400000D03*
D13*
X323850000Y-271780000D03*
D12*
X360676200Y-256538200D03*
X322576200Y-241298200D03*
X358136200Y-256538200D03*
X325116200Y-241298200D03*
X355596200Y-256538200D03*
X327656200Y-241298200D03*
X353056200Y-256538200D03*
X330196200Y-241298200D03*
X350516200Y-256538200D03*
X332736200Y-241298200D03*
X347976200Y-256538200D03*
X335276200Y-241298200D03*
X345436200Y-256538200D03*
X337816200Y-241298200D03*
X342896200Y-256538200D03*
X340356200Y-241298200D03*
X340356200Y-256538200D03*
X342896200Y-241298200D03*
X337816200Y-256538200D03*
X345436200Y-241298200D03*
X335276200Y-256538200D03*
X347976200Y-241298200D03*
X332736200Y-256538200D03*
X350516200Y-241298200D03*
X330196200Y-256538200D03*
X353056200Y-241298200D03*
X327656200Y-256538200D03*
X355596200Y-241298200D03*
X325116200Y-256538200D03*
X358136200Y-241298200D03*
X322576200Y-256538200D03*
D13*
X360676200Y-241298200D03*
D12*
X300990000Y-271780000D03*
X293370000Y-279400000D03*
X300990000Y-274320000D03*
X293370000Y-276860000D03*
X300990000Y-276860000D03*
X293370000Y-274320000D03*
X300990000Y-279400000D03*
D13*
X293370000Y-271780000D03*
D12*
X306070000Y-251460000D03*
X298450000Y-259080000D03*
X306070000Y-254000000D03*
X298450000Y-256540000D03*
X306070000Y-256540000D03*
X298450000Y-254000000D03*
X306070000Y-259080000D03*
D13*
X298450000Y-251460000D03*
D12*
X246380000Y-215900000D03*
X223520000Y-208280000D03*
X243840000Y-215900000D03*
X226060000Y-208280000D03*
X241300000Y-215900000D03*
X228600000Y-208280000D03*
X238760000Y-215900000D03*
X231140000Y-208280000D03*
X236220000Y-215900000D03*
X233680000Y-208280000D03*
X233680000Y-215900000D03*
X236220000Y-208280000D03*
X231140000Y-215900000D03*
X238760000Y-208280000D03*
X228600000Y-215900000D03*
X241300000Y-208280000D03*
X226060000Y-215900000D03*
X243840000Y-208280000D03*
X223520000Y-215900000D03*
D13*
X246380000Y-208280000D03*
D12*
X246389000Y-198115800D03*
X223529000Y-190495800D03*
X243849000Y-198115800D03*
X226069000Y-190495800D03*
X241309000Y-198115800D03*
X228609000Y-190495800D03*
X238769000Y-198115800D03*
X231149000Y-190495800D03*
X236229000Y-198115800D03*
X233689000Y-190495800D03*
X233689000Y-198115800D03*
X236229000Y-190495800D03*
X231149000Y-198115800D03*
X238769000Y-190495800D03*
X228609000Y-198115800D03*
X241309000Y-190495800D03*
X226069000Y-198115800D03*
X243849000Y-190495800D03*
X223529000Y-198115800D03*
D13*
X246389000Y-190495800D03*
D12*
X210829000Y-198115800D03*
X187969000Y-190495800D03*
X208289000Y-198115800D03*
X190509000Y-190495800D03*
X205749000Y-198115800D03*
X193049000Y-190495800D03*
X203209000Y-198115800D03*
X195589000Y-190495800D03*
X200669000Y-198115800D03*
X198129000Y-190495800D03*
X198129000Y-198115800D03*
X200669000Y-190495800D03*
X195589000Y-198115800D03*
X203209000Y-190495800D03*
X193049000Y-198115800D03*
X205749000Y-190495800D03*
X190509000Y-198115800D03*
X208289000Y-190495800D03*
X187969000Y-198115800D03*
D13*
X210829000Y-190495800D03*
D12*
X200660000Y-170180000D03*
X238760000Y-185420000D03*
X203200000Y-170180000D03*
X236220000Y-185420000D03*
X205740000Y-170180000D03*
X233680000Y-185420000D03*
X208280000Y-170180000D03*
X231140000Y-185420000D03*
X210820000Y-170180000D03*
X228600000Y-185420000D03*
X213360000Y-170180000D03*
X226060000Y-185420000D03*
X215900000Y-170180000D03*
X223520000Y-185420000D03*
X218440000Y-170180000D03*
X220980000Y-185420000D03*
X220980000Y-170180000D03*
X218440000Y-185420000D03*
X223520000Y-170180000D03*
X215900000Y-185420000D03*
X226060000Y-170180000D03*
X213360000Y-185420000D03*
X228600000Y-170180000D03*
X210820000Y-185420000D03*
X231140000Y-170180000D03*
X208280000Y-185420000D03*
X233680000Y-170180000D03*
X205740000Y-185420000D03*
X236220000Y-170180000D03*
X203200000Y-185420000D03*
X238760000Y-170180000D03*
D13*
X200660000Y-185420000D03*
D12*
X220980000Y-165100000D03*
X198120000Y-157480000D03*
X218440000Y-165100000D03*
X200660000Y-157480000D03*
X215900000Y-165100000D03*
X203200000Y-157480000D03*
X213360000Y-165100000D03*
X205740000Y-157480000D03*
X210820000Y-165100000D03*
X208280000Y-157480000D03*
X208280000Y-165100000D03*
X210820000Y-157480000D03*
X205740000Y-165100000D03*
X213360000Y-157480000D03*
X203200000Y-165100000D03*
X215900000Y-157480000D03*
X200660000Y-165100000D03*
X218440000Y-157480000D03*
X198120000Y-165100000D03*
D13*
X220980000Y-157480000D03*
D12*
X165100000Y-152400000D03*
X147320000Y-144780000D03*
X162560000Y-152400000D03*
X149860000Y-144780000D03*
X160020000Y-152400000D03*
X152400000Y-144780000D03*
X157480000Y-152400000D03*
X154940000Y-144780000D03*
X154940000Y-152400000D03*
X157480000Y-144780000D03*
X152400000Y-152400000D03*
X160020000Y-144780000D03*
X149860000Y-152400000D03*
X162560000Y-144780000D03*
X147320000Y-152400000D03*
D13*
X165100000Y-144780000D03*
D12*
X195580000Y-152400000D03*
X177800000Y-144780000D03*
X193040000Y-152400000D03*
X180340000Y-144780000D03*
X190500000Y-152400000D03*
X182880000Y-144780000D03*
X187960000Y-152400000D03*
X185420000Y-144780000D03*
X185420000Y-152400000D03*
X187960000Y-144780000D03*
X182880000Y-152400000D03*
X190500000Y-144780000D03*
X180340000Y-152400000D03*
X193040000Y-144780000D03*
X177800000Y-152400000D03*
D13*
X195580000Y-144780000D03*
D12*
X256540000Y-165100000D03*
X233680000Y-157480000D03*
X254000000Y-165100000D03*
X236220000Y-157480000D03*
X251460000Y-165100000D03*
X238760000Y-157480000D03*
X248920000Y-165100000D03*
X241300000Y-157480000D03*
X246380000Y-165100000D03*
X243840000Y-157480000D03*
X243840000Y-165100000D03*
X246380000Y-157480000D03*
X241300000Y-165100000D03*
X248920000Y-157480000D03*
X238760000Y-165100000D03*
X251460000Y-157480000D03*
X236220000Y-165100000D03*
X254000000Y-157480000D03*
X233680000Y-165100000D03*
D13*
X256540000Y-157480000D03*
D12*
X226060000Y-152400000D03*
X208280000Y-144780000D03*
X223520000Y-152400000D03*
X210820000Y-144780000D03*
X220980000Y-152400000D03*
X213360000Y-144780000D03*
X218440000Y-152400000D03*
X215900000Y-144780000D03*
X215900000Y-152400000D03*
X218440000Y-144780000D03*
X213360000Y-152400000D03*
X220980000Y-144780000D03*
X210820000Y-152400000D03*
X223520000Y-144780000D03*
X208280000Y-152400000D03*
D13*
X226060000Y-144780000D03*
D12*
X256540000Y-152400000D03*
X238760000Y-144780000D03*
X254000000Y-152400000D03*
X241300000Y-144780000D03*
X251460000Y-152400000D03*
X243840000Y-144780000D03*
X248920000Y-152400000D03*
X246380000Y-144780000D03*
X246380000Y-152400000D03*
X248920000Y-144780000D03*
X243840000Y-152400000D03*
X251460000Y-144780000D03*
X241300000Y-152400000D03*
X254000000Y-144780000D03*
X238760000Y-152400000D03*
D13*
X256540000Y-144780000D03*
D12*
X256540000Y-121920000D03*
X233680000Y-114300000D03*
X254000000Y-121920000D03*
X236220000Y-114300000D03*
X251460000Y-121920000D03*
X238760000Y-114300000D03*
X248920000Y-121920000D03*
X241300000Y-114300000D03*
X246380000Y-121920000D03*
X243840000Y-114300000D03*
X243840000Y-121920000D03*
X246380000Y-114300000D03*
X241300000Y-121920000D03*
X248920000Y-114300000D03*
X238760000Y-121920000D03*
X251460000Y-114300000D03*
X236220000Y-121920000D03*
X254000000Y-114300000D03*
X233680000Y-121920000D03*
D13*
X256540000Y-114300000D03*
D12*
X256540000Y-134620000D03*
X233680000Y-127000000D03*
X254000000Y-134620000D03*
X236220000Y-127000000D03*
X251460000Y-134620000D03*
X238760000Y-127000000D03*
X248920000Y-134620000D03*
X241300000Y-127000000D03*
X246380000Y-134620000D03*
X243840000Y-127000000D03*
X243840000Y-134620000D03*
X246380000Y-127000000D03*
X241300000Y-134620000D03*
X248920000Y-127000000D03*
X238760000Y-134620000D03*
X251460000Y-127000000D03*
X236220000Y-134620000D03*
X254000000Y-127000000D03*
X233680000Y-134620000D03*
D13*
X256540000Y-127000000D03*
D12*
X220675800Y-121920000D03*
X187655800Y-114300000D03*
X218135800Y-121920000D03*
X190195800Y-114300000D03*
X215595800Y-121920000D03*
X192735800Y-114300000D03*
X213055800Y-121920000D03*
X195275800Y-114300000D03*
X210515800Y-121920000D03*
X197815800Y-114300000D03*
X207975800Y-121920000D03*
X200355800Y-114300000D03*
X205435800Y-121920000D03*
X202895800Y-114300000D03*
X202895800Y-121920000D03*
X205435800Y-114300000D03*
X200355800Y-121920000D03*
X207975800Y-114300000D03*
X197815800Y-121920000D03*
X210515800Y-114300000D03*
X195275800Y-121920000D03*
X213055800Y-114300000D03*
X192735800Y-121920000D03*
X215595800Y-114300000D03*
X190195800Y-121920000D03*
X218135800Y-114300000D03*
X187655800Y-121920000D03*
D13*
X220675800Y-114300000D03*
D12*
X220980000Y-134620000D03*
X187960000Y-127000000D03*
X218440000Y-134620000D03*
X190500000Y-127000000D03*
X215900000Y-134620000D03*
X193040000Y-127000000D03*
X213360000Y-134620000D03*
X195580000Y-127000000D03*
X210820000Y-134620000D03*
X198120000Y-127000000D03*
X208280000Y-134620000D03*
X200660000Y-127000000D03*
X205740000Y-134620000D03*
X203200000Y-127000000D03*
X203200000Y-134620000D03*
X205740000Y-127000000D03*
X200660000Y-134620000D03*
X208280000Y-127000000D03*
X198120000Y-134620000D03*
X210820000Y-127000000D03*
X195580000Y-134620000D03*
X213360000Y-127000000D03*
X193040000Y-134620000D03*
X215900000Y-127000000D03*
X190500000Y-134620000D03*
X218440000Y-127000000D03*
X187960000Y-134620000D03*
D13*
X220980000Y-127000000D03*
D12*
X165122000Y-109175200D03*
X147342000Y-101555200D03*
X162582000Y-109175200D03*
X149882000Y-101555200D03*
X160042000Y-109175200D03*
X152422000Y-101555200D03*
X157502000Y-109175200D03*
X154962000Y-101555200D03*
X154962000Y-109175200D03*
X157502000Y-101555200D03*
X152422000Y-109175200D03*
X160042000Y-101555200D03*
X149882000Y-109175200D03*
X162582000Y-101555200D03*
X147342000Y-109175200D03*
D13*
X165122000Y-101555200D03*
D12*
X195602000Y-109175200D03*
X177822000Y-101555200D03*
X193062000Y-109175200D03*
X180362000Y-101555200D03*
X190522000Y-109175200D03*
X182902000Y-101555200D03*
X187982000Y-109175200D03*
X185442000Y-101555200D03*
X185442000Y-109175200D03*
X187982000Y-101555200D03*
X182902000Y-109175200D03*
X190522000Y-101555200D03*
X180362000Y-109175200D03*
X193062000Y-101555200D03*
X177822000Y-109175200D03*
D13*
X195602000Y-101555200D03*
D12*
X226082000Y-109175200D03*
X208302000Y-101555200D03*
X223542000Y-109175200D03*
X210842000Y-101555200D03*
X221002000Y-109175200D03*
X213382000Y-101555200D03*
X218462000Y-109175200D03*
X215922000Y-101555200D03*
X215922000Y-109175200D03*
X218462000Y-101555200D03*
X213382000Y-109175200D03*
X221002000Y-101555200D03*
X210842000Y-109175200D03*
X223542000Y-101555200D03*
X208302000Y-109175200D03*
D13*
X226082000Y-101555200D03*
D12*
X256562000Y-109175200D03*
X238782000Y-101555200D03*
X254022000Y-109175200D03*
X241322000Y-101555200D03*
X251482000Y-109175200D03*
X243862000Y-101555200D03*
X248942000Y-109175200D03*
X246402000Y-101555200D03*
X246402000Y-109175200D03*
X248942000Y-101555200D03*
X243862000Y-109175200D03*
X251482000Y-101555200D03*
X241322000Y-109175200D03*
X254022000Y-101555200D03*
X238782000Y-109175200D03*
D13*
X256562000Y-101555200D03*
D12*
X170174000Y-91446000D03*
X147314000Y-83826000D03*
X167634000Y-91446000D03*
X149854000Y-83826000D03*
X165094000Y-91446000D03*
X152394000Y-83826000D03*
X162554000Y-91446000D03*
X154934000Y-83826000D03*
X160014000Y-91446000D03*
X157474000Y-83826000D03*
X157474000Y-91446000D03*
X160014000Y-83826000D03*
X154934000Y-91446000D03*
X162554000Y-83826000D03*
X152394000Y-91446000D03*
X165094000Y-83826000D03*
X149854000Y-91446000D03*
X167634000Y-83826000D03*
X147314000Y-91446000D03*
D13*
X170174000Y-83826000D03*
D12*
X205734000Y-91446000D03*
X182874000Y-83826000D03*
X203194000Y-91446000D03*
X185414000Y-83826000D03*
X200654000Y-91446000D03*
X187954000Y-83826000D03*
X198114000Y-91446000D03*
X190494000Y-83826000D03*
X195574000Y-91446000D03*
X193034000Y-83826000D03*
X193034000Y-91446000D03*
X195574000Y-83826000D03*
X190494000Y-91446000D03*
X198114000Y-83826000D03*
X187954000Y-91446000D03*
X200654000Y-83826000D03*
X185414000Y-91446000D03*
X203194000Y-83826000D03*
X182874000Y-91446000D03*
D13*
X205734000Y-83826000D03*
D12*
X165100000Y-78740000D03*
X147320000Y-71120000D03*
X162560000Y-78740000D03*
X149860000Y-71120000D03*
X160020000Y-78740000D03*
X152400000Y-71120000D03*
X157480000Y-78740000D03*
X154940000Y-71120000D03*
X154940000Y-78740000D03*
X157480000Y-71120000D03*
X152400000Y-78740000D03*
X160020000Y-71120000D03*
X149860000Y-78740000D03*
X162560000Y-71120000D03*
X147320000Y-78740000D03*
D13*
X165100000Y-71120000D03*
D12*
X195580000Y-78740000D03*
X177800000Y-71120000D03*
X193040000Y-78740000D03*
X180340000Y-71120000D03*
X190500000Y-78740000D03*
X182880000Y-71120000D03*
X187960000Y-78740000D03*
X185420000Y-71120000D03*
X185420000Y-78740000D03*
X187960000Y-71120000D03*
X182880000Y-78740000D03*
X190500000Y-71120000D03*
X180340000Y-78740000D03*
X193040000Y-71120000D03*
X177800000Y-78740000D03*
D13*
X195580000Y-71120000D03*
D12*
X226060000Y-78740000D03*
X208280000Y-71120000D03*
X223520000Y-78740000D03*
X210820000Y-71120000D03*
X220980000Y-78740000D03*
X213360000Y-71120000D03*
X218440000Y-78740000D03*
X215900000Y-71120000D03*
X215900000Y-78740000D03*
X218440000Y-71120000D03*
X213360000Y-78740000D03*
X220980000Y-71120000D03*
X210820000Y-78740000D03*
X223520000Y-71120000D03*
X208280000Y-78740000D03*
D13*
X226060000Y-71120000D03*
D12*
X256540000Y-78740000D03*
X238760000Y-71120000D03*
X254000000Y-78740000D03*
X241300000Y-71120000D03*
X251460000Y-78740000D03*
X243840000Y-71120000D03*
X248920000Y-78740000D03*
X246380000Y-71120000D03*
X246380000Y-78740000D03*
X248920000Y-71120000D03*
X243840000Y-78740000D03*
X251460000Y-71120000D03*
X241300000Y-78740000D03*
X254000000Y-71120000D03*
X238760000Y-78740000D03*
D13*
X256540000Y-71120000D03*
D12*
X256540000Y-66040000D03*
X233680000Y-58420000D03*
X254000000Y-66040000D03*
X236220000Y-58420000D03*
X251460000Y-66040000D03*
X238760000Y-58420000D03*
X248920000Y-66040000D03*
X241300000Y-58420000D03*
X246380000Y-66040000D03*
X243840000Y-58420000D03*
X243840000Y-66040000D03*
X246380000Y-58420000D03*
X241300000Y-66040000D03*
X248920000Y-58420000D03*
X238760000Y-66040000D03*
X251460000Y-58420000D03*
X236220000Y-66040000D03*
X254000000Y-58420000D03*
X233680000Y-66040000D03*
D13*
X256540000Y-58420000D03*
D12*
X220980000Y-66040000D03*
X198120000Y-58420000D03*
X218440000Y-66040000D03*
X200660000Y-58420000D03*
X215900000Y-66040000D03*
X203200000Y-58420000D03*
X213360000Y-66040000D03*
X205740000Y-58420000D03*
X210820000Y-66040000D03*
X208280000Y-58420000D03*
X208280000Y-66040000D03*
X210820000Y-58420000D03*
X205740000Y-66040000D03*
X213360000Y-58420000D03*
X203200000Y-66040000D03*
X215900000Y-58420000D03*
X200660000Y-66040000D03*
X218440000Y-58420000D03*
X198120000Y-66040000D03*
D13*
X220980000Y-58420000D03*
D12*
X320040000Y-139700000D03*
X337820000Y-147320000D03*
X322580000Y-139700000D03*
X335280000Y-147320000D03*
X325120000Y-139700000D03*
X332740000Y-147320000D03*
X327660000Y-139700000D03*
X330200000Y-147320000D03*
X330200000Y-139700000D03*
X327660000Y-147320000D03*
X332740000Y-139700000D03*
X325120000Y-147320000D03*
X335280000Y-139700000D03*
X322580000Y-147320000D03*
X337820000Y-139700000D03*
D13*
X320040000Y-147320000D03*
D12*
X284480000Y-139700000D03*
X307340000Y-147320000D03*
X287020000Y-139700000D03*
X304800000Y-147320000D03*
X289560000Y-139700000D03*
X302260000Y-147320000D03*
X292100000Y-139700000D03*
X299720000Y-147320000D03*
X294640000Y-139700000D03*
X297180000Y-147320000D03*
X297180000Y-139700000D03*
X294640000Y-147320000D03*
X299720000Y-139700000D03*
X292100000Y-147320000D03*
X302260000Y-139700000D03*
X289560000Y-147320000D03*
X304800000Y-139700000D03*
X287020000Y-147320000D03*
X307340000Y-139700000D03*
D13*
X284480000Y-147320000D03*
D19*
X368450000Y-184150000D03*
X368450000Y-188650000D03*
X361950000Y-184150000D03*
X361950000Y-188650000D03*
X285900000Y-202692000D03*
X285900000Y-207192000D03*
X279400000Y-202692000D03*
X279400000Y-207192000D03*
D20*
X279400000Y-246380000D03*
X281900000Y-248880000D03*
X279400000Y-251380000D03*
D12*
X267970000Y-45720000D03*
X270510000Y-45720000D03*
X273050000Y-45720000D03*
X275590000Y-45720000D03*
X278130000Y-45720000D03*
X280670000Y-45720000D03*
X283210000Y-45720000D03*
X285750000Y-45720000D03*
D13*
X288290000Y-45720000D03*
D12*
X162560000Y-260350000D03*
D14*
X154940000Y-260350000D03*
D12*
X162560000Y-255270000D03*
D14*
X154940000Y-255270000D03*
D12*
X162560000Y-250190000D03*
D14*
X154940000Y-250190000D03*
D12*
X358140000Y-234950000D03*
D14*
X365760000Y-234950000D03*
D12*
X361950000Y-279400000D03*
D14*
X354330000Y-279400000D03*
D12*
X361950000Y-275590000D03*
D14*
X354330000Y-275590000D03*
D12*
X361950000Y-271780000D03*
D14*
X354330000Y-271780000D03*
D12*
X341630000Y-279400000D03*
D14*
X334010000Y-279400000D03*
D12*
X341630000Y-275590000D03*
D14*
X334010000Y-275590000D03*
D12*
X341630000Y-271780000D03*
D14*
X334010000Y-271780000D03*
D12*
X321310000Y-279400000D03*
D14*
X313690000Y-279400000D03*
D12*
X321310000Y-275590000D03*
D14*
X313690000Y-275590000D03*
D12*
X321310000Y-271780000D03*
D14*
X313690000Y-271780000D03*
D12*
X311150000Y-279400000D03*
D14*
X303530000Y-279400000D03*
D12*
X311150000Y-275590000D03*
D14*
X303530000Y-275590000D03*
D12*
X311150000Y-271780000D03*
D14*
X303530000Y-271780000D03*
D12*
X290830000Y-279400000D03*
D14*
X283210000Y-279400000D03*
D12*
X290830000Y-275590000D03*
D14*
X283210000Y-275590000D03*
D12*
X290830000Y-271780000D03*
D14*
X283210000Y-271780000D03*
D12*
X316230000Y-259080000D03*
D14*
X308610000Y-259080000D03*
D12*
X316230000Y-255270000D03*
D14*
X308610000Y-255270000D03*
D12*
X316230000Y-251460000D03*
D14*
X308610000Y-251460000D03*
D12*
X295910000Y-259080000D03*
D14*
X288290000Y-259080000D03*
D12*
X295910000Y-255270000D03*
D14*
X288290000Y-255270000D03*
D12*
X295910000Y-251460000D03*
D14*
X288290000Y-251460000D03*
D15*
X257810000Y-265430000D03*
X260350000Y-265430000D03*
X262890000Y-265430000D03*
X265430000Y-265430000D03*
X267970000Y-265430000D03*
X270510000Y-265430000D03*
X273050000Y-265430000D03*
X275590000Y-265430000D03*
D16*
X278130000Y-265430000D03*
D15*
X149860000Y-66040000D03*
X152400000Y-66040000D03*
X154940000Y-66040000D03*
X157480000Y-66040000D03*
X160020000Y-66040000D03*
X162560000Y-66040000D03*
X165100000Y-66040000D03*
X167640000Y-66040000D03*
X170180000Y-66040000D03*
X172720000Y-66040000D03*
X175260000Y-66040000D03*
X177800000Y-66040000D03*
X180340000Y-66040000D03*
X182880000Y-66040000D03*
X185420000Y-66040000D03*
X187960000Y-66040000D03*
D16*
X190500000Y-66040000D03*
D15*
X226060000Y-265430000D03*
X228600000Y-265430000D03*
X231140000Y-265430000D03*
X233680000Y-265430000D03*
X236220000Y-265430000D03*
X238760000Y-265430000D03*
X241300000Y-265430000D03*
X243840000Y-265430000D03*
D16*
X246380000Y-265430000D03*
D15*
X226060000Y-245110000D03*
X228600000Y-245110000D03*
X231140000Y-245110000D03*
X233680000Y-245110000D03*
X236220000Y-245110000D03*
X238760000Y-245110000D03*
X241300000Y-245110000D03*
X243840000Y-245110000D03*
D16*
X246380000Y-245110000D03*
D15*
X226060000Y-224790000D03*
X228600000Y-224790000D03*
X231140000Y-224790000D03*
X233680000Y-224790000D03*
X236220000Y-224790000D03*
X238760000Y-224790000D03*
X241300000Y-224790000D03*
X243840000Y-224790000D03*
D16*
X246380000Y-224790000D03*
D15*
X340360000Y-261620000D03*
X342900000Y-261620000D03*
X345440000Y-261620000D03*
X347980000Y-261620000D03*
X350520000Y-261620000D03*
X353060000Y-261620000D03*
X355600000Y-261620000D03*
X358140000Y-261620000D03*
D16*
X360680000Y-261620000D03*
D15*
X170180000Y-203200000D03*
X172720000Y-203200000D03*
X175260000Y-203200000D03*
X177800000Y-203200000D03*
X180340000Y-203200000D03*
X182880000Y-203200000D03*
X185420000Y-203200000D03*
X187960000Y-203200000D03*
X190500000Y-203200000D03*
X193040000Y-203200000D03*
X195580000Y-203200000D03*
X198120000Y-203200000D03*
X200660000Y-203200000D03*
X203200000Y-203200000D03*
X205740000Y-203200000D03*
X208280000Y-203200000D03*
D16*
X210820000Y-203200000D03*
D15*
X226060000Y-204470000D03*
X228600000Y-204470000D03*
X231140000Y-204470000D03*
X233680000Y-204470000D03*
X236220000Y-204470000D03*
X238760000Y-204470000D03*
X241300000Y-204470000D03*
X243840000Y-204470000D03*
D16*
X246380000Y-204470000D03*
D15*
X149860000Y-157480000D03*
X152400000Y-157480000D03*
X154940000Y-157480000D03*
X157480000Y-157480000D03*
X160020000Y-157480000D03*
X162560000Y-157480000D03*
X165100000Y-157480000D03*
X167640000Y-157480000D03*
X170180000Y-157480000D03*
X172720000Y-157480000D03*
X175260000Y-157480000D03*
X177800000Y-157480000D03*
X180340000Y-157480000D03*
X182880000Y-157480000D03*
X185420000Y-157480000D03*
X187960000Y-157480000D03*
D16*
X190500000Y-157480000D03*
D15*
X215900000Y-83820000D03*
X218440000Y-83820000D03*
X220980000Y-83820000D03*
X223520000Y-83820000D03*
X226060000Y-83820000D03*
X228600000Y-83820000D03*
X231140000Y-83820000D03*
X233680000Y-83820000D03*
X236220000Y-83820000D03*
X238760000Y-83820000D03*
X241300000Y-83820000D03*
X243840000Y-83820000D03*
X246380000Y-83820000D03*
X248920000Y-83820000D03*
X251460000Y-83820000D03*
X254000000Y-83820000D03*
D16*
X256540000Y-83820000D03*
D15*
X287147000Y-151892000D03*
X289687000Y-151892000D03*
X292227000Y-151892000D03*
X294767000Y-151892000D03*
X297307000Y-151892000D03*
X299847000Y-151892000D03*
X302387000Y-151892000D03*
X304927000Y-151892000D03*
D16*
X307467000Y-151892000D03*
D21*
X163830000Y-240030000D03*
D22*
X161290000Y-240030000D03*
D21*
X157226000Y-240030000D03*
D22*
X154686000Y-240030000D03*
D21*
X353060000Y-210820000D03*
D22*
X355600000Y-210820000D03*
D21*
X365760000Y-228600000D03*
D22*
X368300000Y-228600000D03*
D14*
X185500000Y-240030000D03*
X190500000Y-240030000D03*
X168990000Y-240030000D03*
X173990000Y-240030000D03*
X252730000Y-275510000D03*
X252730000Y-270510000D03*
X205820000Y-240030000D03*
X210820000Y-240030000D03*
X217170000Y-227410000D03*
X217170000Y-232410000D03*
X252730000Y-250270000D03*
X252730000Y-255270000D03*
X181610000Y-227410000D03*
X181610000Y-232410000D03*
X252730000Y-229950000D03*
X252730000Y-234950000D03*
X303610000Y-182880000D03*
X308610000Y-182880000D03*
X316310000Y-182880000D03*
X321310000Y-182880000D03*
X329010000Y-182880000D03*
X334010000Y-182880000D03*
X278210000Y-213360000D03*
X283210000Y-213360000D03*
X280750000Y-182880000D03*
X285750000Y-182880000D03*
X346710000Y-213360000D03*
X341710000Y-213360000D03*
X303610000Y-213360000D03*
X308610000Y-213360000D03*
X316310000Y-213360000D03*
X321310000Y-213360000D03*
X290910000Y-213360000D03*
X295910000Y-213360000D03*
X329010000Y-213360000D03*
X334010000Y-213360000D03*
X345520000Y-265430000D03*
X350520000Y-265430000D03*
X325200000Y-265430000D03*
X330200000Y-265430000D03*
X367030000Y-246460000D03*
X367030000Y-251460000D03*
X294720000Y-265430000D03*
X299720000Y-265430000D03*
X299720000Y-245110000D03*
X304720000Y-245110000D03*
X252730000Y-209630000D03*
X252730000Y-214630000D03*
X252730000Y-191850000D03*
X252730000Y-196850000D03*
X181610000Y-191795800D03*
X181610000Y-196795800D03*
X217170000Y-191850000D03*
X217170000Y-196850000D03*
X143510000Y-180295000D03*
X143510000Y-175295000D03*
X194310000Y-180295000D03*
X194310000Y-175295000D03*
X227330000Y-158830000D03*
X227330000Y-163830000D03*
X171450000Y-146080000D03*
X171450000Y-151080000D03*
X201930000Y-146080000D03*
X201930000Y-151080000D03*
X262890000Y-158830000D03*
X262890000Y-163830000D03*
X232410000Y-146080000D03*
X232410000Y-151080000D03*
X262890000Y-146080000D03*
X262890000Y-151080000D03*
X262890000Y-128387200D03*
X262890000Y-133387200D03*
X227330000Y-115600000D03*
X227330000Y-120600000D03*
X227330000Y-128300000D03*
X227330000Y-133300000D03*
X173945800Y-113715800D03*
X178945800Y-113715800D03*
X161370000Y-113766600D03*
X166370000Y-113766600D03*
X171450000Y-102950000D03*
X171450000Y-107950000D03*
X201930000Y-102950000D03*
X201930000Y-107950000D03*
X262890000Y-102870000D03*
X262890000Y-107870000D03*
X232410000Y-102950000D03*
X232410000Y-107950000D03*
X176530000Y-85090000D03*
X176530000Y-90090000D03*
X212090000Y-85090000D03*
X212090000Y-90090000D03*
X171450000Y-72470000D03*
X171450000Y-77470000D03*
X201930000Y-77390000D03*
X201930000Y-72390000D03*
X232410000Y-77390000D03*
X232410000Y-72390000D03*
X262890000Y-77390000D03*
X262890000Y-72390000D03*
X262890000Y-59770000D03*
X262890000Y-64770000D03*
X262890000Y-47070000D03*
X262890000Y-52070000D03*
X227330000Y-64690000D03*
X227330000Y-59690000D03*
X227330000Y-51990000D03*
X227330000Y-46990000D03*
X313690000Y-145970000D03*
X313690000Y-140970000D03*
X278130000Y-145970000D03*
X278130000Y-140970000D03*
X367760000Y-218440000D03*
D13*
X365760000Y-218440000D03*
D23*
X194437000Y-150368000D03*
X172085000Y-230378000D03*
X225171000Y-206375000D03*
X247269000Y-206375000D03*
X185318499Y-254990501D03*
X202057000Y-180848000D03*
X201930000Y-128778000D03*
X204216000Y-180340000D03*
X204470000Y-128778000D03*
X207391000Y-175006000D03*
X207137000Y-128651000D03*
X194056000Y-278857490D03*
X181737000Y-275971000D03*
X181737000Y-276606000D03*
X181737000Y-277241000D03*
X202438000Y-271780000D03*
X202184000Y-269240000D03*
X195326000Y-173355000D03*
X200660000Y-173355000D03*
X193073290Y-172861089D03*
X193675000Y-172847000D03*
X195326000Y-172720000D03*
X200660000Y-172720000D03*
X165227000Y-73025000D03*
X291592000Y-216154000D03*
X257810000Y-261239000D03*
X257810000Y-220599000D03*
X259969000Y-116967000D03*
X257810000Y-240919000D03*
X267970000Y-64389000D03*
X267970000Y-51816000D03*
X170180000Y-231648000D03*
X288671000Y-141732000D03*
X267970000Y-143129000D03*
X267970000Y-116840000D03*
X258445000Y-260731000D03*
X258445000Y-220091000D03*
X258445000Y-240411000D03*
X268605000Y-63881000D03*
X268605000Y-51308000D03*
X167640000Y-231994490D03*
X259969000Y-117602000D03*
X268605000Y-117602000D03*
X288671000Y-142367000D03*
X268606825Y-143544510D03*
X259080000Y-260223000D03*
X259080000Y-219583000D03*
X259969000Y-118237000D03*
X259080000Y-239903000D03*
X269240000Y-63373000D03*
X269240000Y-50800000D03*
X160020000Y-232273987D03*
X288671000Y-143002000D03*
X269240000Y-118110000D03*
X269240000Y-143798510D03*
X259715000Y-259715000D03*
X259715000Y-219075000D03*
X259969000Y-118872000D03*
X269875000Y-118872000D03*
X259715000Y-239395000D03*
X269875000Y-62865000D03*
X269875000Y-50292000D03*
X288671000Y-143637000D03*
X269875000Y-144052510D03*
X260350000Y-259207000D03*
X260350000Y-218567000D03*
X259969000Y-119507000D03*
X270510000Y-119507000D03*
X260350000Y-238887000D03*
X270510000Y-62357000D03*
X270510000Y-49784000D03*
X270510000Y-144306510D03*
X260985000Y-258572000D03*
X260985000Y-217932000D03*
X259969000Y-120142000D03*
X271145000Y-120015000D03*
X260985000Y-238252000D03*
X271145000Y-61849000D03*
X271145000Y-49276000D03*
X160020000Y-227584000D03*
X271145000Y-144560510D03*
X261620000Y-258064000D03*
X261620000Y-217424000D03*
X259969000Y-120777000D03*
X271780000Y-120523000D03*
X261620000Y-237744000D03*
X271780000Y-61341000D03*
X271780000Y-48768000D03*
X167640000Y-227838000D03*
X271780000Y-144814510D03*
X262255000Y-257556000D03*
X262255000Y-216916000D03*
X259969000Y-121412000D03*
X272415000Y-121031000D03*
X262255000Y-237236000D03*
X272415000Y-60833000D03*
X272419396Y-48294510D03*
X170178664Y-227999499D03*
X272415000Y-145068510D03*
X152400000Y-86614000D03*
X154940000Y-86868000D03*
X157480000Y-87122000D03*
X160020000Y-87376000D03*
X162560000Y-87630000D03*
X165100000Y-87884000D03*
X167640000Y-88138000D03*
X185420000Y-88392000D03*
X187960000Y-88646000D03*
X190500000Y-88900000D03*
X193040000Y-89154000D03*
X195580000Y-89408000D03*
X198120000Y-89662000D03*
X200660000Y-89916000D03*
X203200000Y-90170000D03*
X162560000Y-183642000D03*
X165100000Y-183388000D03*
X167640000Y-183134000D03*
X170180000Y-182880000D03*
X172720000Y-182626000D03*
X175260000Y-182372000D03*
X177800000Y-182118000D03*
X182626000Y-264160000D03*
X203200000Y-261493000D03*
X203581000Y-251460000D03*
X204216000Y-254000000D03*
X204470000Y-256540000D03*
X204724000Y-259080000D03*
X191804510Y-259080000D03*
X191770000Y-254000000D03*
X190881000Y-251333000D03*
X182880000Y-248920000D03*
X210242980Y-244919500D03*
X211293500Y-254000000D03*
X210658479Y-246021262D03*
X211039500Y-248920000D03*
X209296276Y-247107490D03*
X204274281Y-244866887D03*
X207518000Y-247396000D03*
X192947521Y-256667000D03*
X192913000Y-251460000D03*
X190373000Y-249936000D03*
X218694000Y-251587000D03*
X218694000Y-250952000D03*
X205867000Y-246380000D03*
X218694000Y-247650000D03*
X210566000Y-243078000D03*
X327660000Y-47879000D03*
X210761178Y-47590490D03*
X328676000Y-48133000D03*
X152328955Y-103568511D03*
X146616617Y-103759772D03*
X208280000Y-48006000D03*
X330200000Y-48387000D03*
X146736472Y-103195346D03*
X200660000Y-48260000D03*
X331216000Y-48641000D03*
X200660000Y-50927000D03*
X332740000Y-48895000D03*
X208280000Y-51181000D03*
X333756000Y-49149000D03*
X210820000Y-51435000D03*
X335280000Y-49403000D03*
X336296000Y-49657000D03*
X210439000Y-107315000D03*
X337820000Y-50003500D03*
X216154000Y-106553000D03*
X210820000Y-60071000D03*
X338963000Y-50257500D03*
X208280000Y-60325000D03*
X340360000Y-50419000D03*
X200660000Y-60579000D03*
X341503000Y-50673000D03*
X241173000Y-106426000D03*
X200660000Y-63881000D03*
X342900000Y-50927000D03*
X247904000Y-106426000D03*
X208010620Y-63723673D03*
X344043000Y-51181000D03*
X210557637Y-63973481D03*
X345440000Y-51435000D03*
X178331867Y-150398259D03*
X177927000Y-149606000D03*
X184547895Y-149543275D03*
X178728828Y-149979494D03*
X184955904Y-149951284D03*
X178308000Y-151003000D03*
X180848000Y-151003000D03*
X232791000Y-132842000D03*
X185166000Y-136779000D03*
X233524766Y-132695855D03*
X186182000Y-136906000D03*
X187198000Y-137414000D03*
X236474000Y-130648490D03*
X186724510Y-137829510D03*
X238261282Y-130621420D03*
X240079835Y-128802867D03*
X300228000Y-251460000D03*
X347980000Y-244475000D03*
X345440000Y-244221000D03*
X342900000Y-243967000D03*
X340360000Y-243713000D03*
X337820000Y-243459000D03*
X335280000Y-243205000D03*
X189068490Y-134151401D03*
X187914415Y-132651489D03*
X161671000Y-133096000D03*
X189650166Y-148555490D03*
X156718000Y-154686000D03*
X148717000Y-154432000D03*
X307340000Y-228854000D03*
X304927000Y-225552000D03*
X193675000Y-265430000D03*
X182626000Y-261874000D03*
X182626000Y-263017000D03*
X202692000Y-273050000D03*
X182880000Y-267081000D03*
X253365000Y-105156000D03*
X254889000Y-106807000D03*
X255016000Y-104648000D03*
X254127000Y-104902000D03*
X254223508Y-107222510D03*
X223901000Y-102870000D03*
X213487000Y-111343248D03*
X225171000Y-103378000D03*
X218567000Y-111379000D03*
X211048900Y-111343244D03*
X224536000Y-102870000D03*
X216027000Y-111343246D03*
X210566000Y-118745000D03*
X198943116Y-118554936D03*
X187925422Y-117509578D03*
X159131000Y-107569000D03*
X187452000Y-118237000D03*
X262890000Y-130937000D03*
X208538396Y-131606510D03*
X198501000Y-131445000D03*
X197612000Y-131191000D03*
X262890000Y-130302000D03*
X208026000Y-131191000D03*
X184404000Y-135509000D03*
X175387000Y-134620000D03*
X262890000Y-132235197D03*
X262890000Y-131572000D03*
X174752000Y-122682000D03*
X189357000Y-133604000D03*
X188849000Y-132842000D03*
X170688000Y-129413000D03*
D24*
X325120000Y-222250000D02*
X322580000Y-224790000D01*
X327660000Y-222250000D02*
X325120000Y-222250000D01*
X312420000Y-222250000D02*
X309880000Y-224790000D01*
X314960000Y-222250000D02*
X312420000Y-222250000D01*
X241300000Y-78740000D02*
X241300000Y-71120000D01*
X240500001Y-71919999D02*
X241300000Y-71120000D01*
X239039499Y-73380501D02*
X240500001Y-71919999D01*
X213080501Y-73380501D02*
X239039499Y-73380501D01*
X210820000Y-71120000D02*
X213080501Y-73380501D01*
X181139999Y-71919999D02*
X180340000Y-71120000D01*
X182626000Y-73406000D02*
X181139999Y-71919999D01*
X208534000Y-73406000D02*
X182626000Y-73406000D01*
X210820000Y-71120000D02*
X208534000Y-73406000D01*
X180340000Y-71120000D02*
X177999499Y-73460501D01*
X177999499Y-73460501D02*
X152200501Y-73460501D01*
X152200501Y-73460501D02*
X150659999Y-71919999D01*
X150659999Y-71919999D02*
X149860000Y-71120000D01*
X225171000Y-206375000D02*
X247269000Y-206375000D01*
X194056000Y-275844000D02*
X194056000Y-278857490D01*
X195580000Y-274320000D02*
X194056000Y-275844000D01*
X181737000Y-275971000D02*
X181737000Y-273177000D01*
X181737000Y-273177000D02*
X180340000Y-271780000D01*
X181991000Y-270891000D02*
X180340000Y-269240000D01*
X181991000Y-275463000D02*
X181991000Y-270891000D01*
X182181500Y-276161500D02*
X182181500Y-275653500D01*
X182181500Y-275653500D02*
X181991000Y-275463000D01*
X181737000Y-276606000D02*
X182181500Y-276161500D01*
X181737000Y-277241000D02*
X182499000Y-276479000D01*
X182499000Y-276479000D02*
X182499000Y-275590000D01*
X182499000Y-275590000D02*
X182245000Y-275336000D01*
X182245000Y-268605000D02*
X180340000Y-266700000D01*
X182245000Y-275336000D02*
X182245000Y-268605000D01*
X232283000Y-273177000D02*
X236220000Y-269240000D01*
X222885000Y-274320000D02*
X224028000Y-273177000D01*
X224028000Y-273177000D02*
X232283000Y-273177000D01*
X215900000Y-274320000D02*
X222885000Y-274320000D01*
X238760000Y-269240000D02*
X234569000Y-273431000D01*
X234569000Y-273431000D02*
X224155000Y-273431000D01*
X224155000Y-273431000D02*
X219202000Y-278384000D01*
X219202000Y-278384000D02*
X204978000Y-278384000D01*
X204978000Y-278384000D02*
X202184000Y-275590000D01*
X202184000Y-272034000D02*
X202438000Y-271780000D01*
X202184000Y-275590000D02*
X202184000Y-272034000D01*
X219329000Y-278638000D02*
X204851000Y-278638000D01*
X201930000Y-269494000D02*
X202184000Y-269240000D01*
X201930000Y-275717000D02*
X201930000Y-269494000D01*
X224282000Y-273685000D02*
X219329000Y-278638000D01*
X236855000Y-273685000D02*
X224282000Y-273685000D01*
X204851000Y-278638000D02*
X201930000Y-275717000D01*
X241300000Y-269240000D02*
X236855000Y-273685000D01*
X201675989Y-275822214D02*
X201675989Y-267715989D01*
X201675989Y-267715989D02*
X201459999Y-267499999D01*
X239141000Y-273939000D02*
X224409000Y-273939000D01*
X243840000Y-269240000D02*
X239141000Y-273939000D01*
X204745786Y-278892011D02*
X201675989Y-275822214D01*
X201459999Y-267499999D02*
X200660000Y-266700000D01*
X219455989Y-278892011D02*
X204745786Y-278892011D01*
X224409000Y-273939000D02*
X219455989Y-278892011D01*
X163957000Y-171323000D02*
X165100000Y-170180000D01*
X161798000Y-171323000D02*
X163957000Y-171323000D01*
X148869499Y-236245499D02*
X148869499Y-184251501D01*
X151003000Y-238379000D02*
X148869499Y-236245499D01*
X148869499Y-184251501D02*
X161798000Y-171323000D01*
X155829000Y-238379000D02*
X151003000Y-238379000D01*
X157480000Y-240030000D02*
X155829000Y-238379000D01*
X161798000Y-242062000D02*
X163830000Y-240030000D01*
X154305000Y-242062000D02*
X161798000Y-242062000D01*
X148590000Y-236347000D02*
X154305000Y-242062000D01*
X148590000Y-186944000D02*
X148590000Y-236347000D01*
X148615488Y-186918512D02*
X148590000Y-186944000D01*
X148615488Y-184124512D02*
X148615488Y-186918512D01*
X162560000Y-170180000D02*
X148615488Y-184124512D01*
X303530000Y-254000000D02*
X306070000Y-256540000D01*
X298450000Y-254000000D02*
X303530000Y-254000000D01*
X298450000Y-274320000D02*
X300990000Y-276860000D01*
X293370000Y-274320000D02*
X298450000Y-274320000D01*
X298450000Y-272854058D02*
X298450000Y-274320000D01*
X305079499Y-266224559D02*
X298450000Y-272854058D01*
X305079499Y-257530501D02*
X305079499Y-266224559D01*
X306070000Y-256540000D02*
X305079499Y-257530501D01*
X326390000Y-276860000D02*
X323850000Y-274320000D01*
X331470000Y-276860000D02*
X326390000Y-276860000D01*
X324840501Y-270827599D02*
X320237461Y-266224559D01*
X320237461Y-266224559D02*
X305079499Y-266224559D01*
X324840501Y-273329499D02*
X324840501Y-270827599D01*
X323850000Y-274320000D02*
X324840501Y-273329499D01*
X336745942Y-274320000D02*
X344170000Y-274320000D01*
X334205942Y-276860000D02*
X336745942Y-274320000D01*
X331470000Y-276860000D02*
X334205942Y-276860000D01*
X289560000Y-224790000D02*
X287909000Y-223139000D01*
X299847000Y-207120873D02*
X299847000Y-194183000D01*
X299847000Y-194183000D02*
X302260000Y-191770000D01*
X287909000Y-223139000D02*
X287909000Y-219058873D01*
X287909000Y-219058873D02*
X299847000Y-207120873D01*
X193040000Y-78740000D02*
X191643000Y-80137000D01*
X151257000Y-80137000D02*
X149860000Y-78740000D01*
X191643000Y-80137000D02*
X151257000Y-80137000D01*
X188768999Y-197315801D02*
X187969000Y-198115800D01*
X190377800Y-195707000D02*
X188768999Y-197315801D01*
X221120200Y-195707000D02*
X190377800Y-195707000D01*
X223529000Y-198115800D02*
X221120200Y-195707000D01*
X153199999Y-197315801D02*
X152400000Y-198115800D01*
X154815400Y-195700400D02*
X153199999Y-197315801D01*
X185553600Y-195700400D02*
X154815400Y-195700400D01*
X187969000Y-198115800D02*
X185553600Y-195700400D01*
X198120000Y-165100000D02*
X200533000Y-162687000D01*
X231267000Y-162687000D02*
X233680000Y-165100000D01*
X200533000Y-162687000D02*
X231267000Y-162687000D01*
X165227000Y-71247000D02*
X165100000Y-71120000D01*
X165227000Y-73025000D02*
X165227000Y-71247000D01*
X325116200Y-241298200D02*
X323085989Y-239267989D01*
X297979999Y-238289999D02*
X297180000Y-237490000D01*
X323085989Y-239267989D02*
X298957989Y-239267989D01*
X298957989Y-239267989D02*
X297979999Y-238289999D01*
X298195989Y-237595214D02*
X298195989Y-235965989D01*
X298195989Y-235965989D02*
X297979999Y-235749999D01*
X327656200Y-241298200D02*
X325371978Y-239013978D01*
X299614753Y-239013978D02*
X298195989Y-237595214D01*
X325371978Y-239013978D02*
X299614753Y-239013978D01*
X297979999Y-235749999D02*
X297180000Y-234950000D01*
X297180000Y-232410000D02*
X298450000Y-233680000D01*
X299719967Y-238759967D02*
X327657967Y-238759967D01*
X329396201Y-240498201D02*
X330196200Y-241298200D01*
X327657967Y-238759967D02*
X329396201Y-240498201D01*
X298450000Y-233680000D02*
X298450000Y-237490000D01*
X298450000Y-237490000D02*
X299719967Y-238759967D01*
X291816999Y-215929001D02*
X291816999Y-215548001D01*
X291592000Y-216154000D02*
X291816999Y-215929001D01*
X291816999Y-215548001D02*
X300101000Y-207264000D01*
X300101000Y-196469000D02*
X302260000Y-194310000D01*
X300101000Y-207264000D02*
X300101000Y-196469000D01*
X234269286Y-97789978D02*
X240456003Y-97789978D01*
X240456025Y-97790000D02*
X247716800Y-97790000D01*
X187960000Y-66040000D02*
X183870501Y-70129499D01*
X205226142Y-97789934D02*
X234269242Y-97789934D01*
X146906200Y-70129499D02*
X144780132Y-72255566D01*
X183870501Y-70129499D02*
X146906200Y-70129499D01*
X144780132Y-72255566D02*
X144780132Y-95250132D01*
X234269242Y-97789934D02*
X234269286Y-97789978D01*
X250682001Y-100755201D02*
X251482000Y-101555200D01*
X205206786Y-97770578D02*
X205226142Y-97789934D01*
X144780132Y-95250132D02*
X147300578Y-97770578D01*
X147300578Y-97770578D02*
X205206786Y-97770578D01*
X240456003Y-97789978D02*
X240456025Y-97790000D01*
X247716800Y-97790000D02*
X250682001Y-100755201D01*
X216699999Y-66839999D02*
X215900000Y-66040000D01*
X216890501Y-67030501D02*
X216699999Y-66839999D01*
X227609499Y-67030501D02*
X216890501Y-67030501D01*
X236220000Y-58420000D02*
X227609499Y-67030501D01*
X236220000Y-47879000D02*
X236220000Y-47625000D01*
X229768499Y-54330501D02*
X236220000Y-47879000D01*
X216890501Y-54330501D02*
X229768499Y-54330501D01*
X215900000Y-53340000D02*
X216890501Y-54330501D01*
X236220000Y-47625000D02*
X236220000Y-45720000D01*
X236220000Y-47752000D02*
X236220000Y-47625000D01*
X250298908Y-128904967D02*
X240565355Y-128904967D01*
X237617066Y-125857066D02*
X257305718Y-125857066D01*
X233680000Y-121920000D02*
X237617066Y-125857066D01*
X237236000Y-131064000D02*
X234479999Y-133820001D01*
X257936934Y-128654718D02*
X257686717Y-128904934D01*
X234479999Y-133820001D02*
X233680000Y-134620000D01*
X257936934Y-126488282D02*
X257936934Y-128654718D01*
X240565355Y-128904967D02*
X238406322Y-131064000D01*
X250298941Y-128904934D02*
X250298908Y-128904967D01*
X238406322Y-131064000D02*
X237236000Y-131064000D01*
X257305718Y-125857066D02*
X257936934Y-126488282D01*
X257686717Y-128904934D02*
X250298941Y-128904934D01*
X238633000Y-116967000D02*
X259969000Y-116967000D01*
X233680000Y-121920000D02*
X238633000Y-116967000D01*
X267970000Y-51816000D02*
X267970000Y-64389000D01*
X170180000Y-231648000D02*
X170180000Y-233680000D01*
X223520000Y-236220000D02*
X208280000Y-236220000D01*
X208280000Y-236220000D02*
X206539999Y-234479999D01*
X206539999Y-234479999D02*
X205740000Y-233680000D01*
X257810000Y-265430000D02*
X257810000Y-261239000D01*
X257810000Y-261239000D02*
X257810000Y-220599000D01*
X267970000Y-45720000D02*
X267970000Y-51816000D01*
X257810000Y-220599000D02*
X257810000Y-171094425D01*
X289560000Y-139700000D02*
X289560000Y-140843000D01*
X289560000Y-140843000D02*
X288671000Y-141732000D01*
X267970000Y-143129000D02*
X267970000Y-160934426D01*
X267970000Y-160934426D02*
X266522213Y-162382213D01*
X257810000Y-171094425D02*
X266522213Y-162382213D01*
X267970000Y-143129000D02*
X267970000Y-115570000D01*
X267970000Y-115570000D02*
X267970000Y-115789490D01*
X267970000Y-64389000D02*
X267970000Y-115570000D01*
X237628630Y-58420000D02*
X236485630Y-59563000D01*
X238760000Y-58420000D02*
X237628630Y-58420000D01*
X236485630Y-59563000D02*
X235458000Y-59563000D01*
X235458000Y-59563000D02*
X227711000Y-67310000D01*
X214630000Y-67310000D02*
X213360000Y-66040000D01*
X227711000Y-67310000D02*
X214630000Y-67310000D01*
X214630000Y-54610000D02*
X214159999Y-54139999D01*
X238760000Y-45720000D02*
X229870000Y-54610000D01*
X214159999Y-54139999D02*
X213360000Y-53340000D01*
X229870000Y-54610000D02*
X214630000Y-54610000D01*
X250404155Y-129158945D02*
X257791931Y-129158945D01*
X258190945Y-128759932D02*
X258190945Y-126383068D01*
X250404133Y-129158967D02*
X250404155Y-129158945D01*
X239903055Y-125603055D02*
X237019999Y-122719999D01*
X237019999Y-122719999D02*
X236220000Y-121920000D01*
X241681033Y-129158967D02*
X250404133Y-129158967D01*
X236220000Y-134620000D02*
X241681033Y-129158967D01*
X257791931Y-129158945D02*
X258190945Y-128759932D01*
X258190945Y-126383068D02*
X257410932Y-125603055D01*
X257410932Y-125603055D02*
X239903055Y-125603055D01*
X268605000Y-63881000D02*
X268605000Y-51308000D01*
X167640000Y-233680000D02*
X167640000Y-231994490D01*
X224917066Y-235077066D02*
X225260001Y-235420001D01*
X218821066Y-231140066D02*
X222758066Y-235077066D01*
X222758066Y-235077066D02*
X224917066Y-235077066D01*
X225260001Y-235420001D02*
X226060000Y-236220000D01*
X205739934Y-231140066D02*
X218821066Y-231140066D01*
X203200000Y-233680000D02*
X205739934Y-231140066D01*
X260350000Y-262636000D02*
X260350000Y-265430000D01*
X258445000Y-260731000D02*
X260350000Y-262636000D01*
X258445000Y-220091000D02*
X258445000Y-240411000D01*
X258445000Y-240411000D02*
X258445000Y-260731000D01*
X268605000Y-47625000D02*
X268605000Y-51308000D01*
X270510000Y-45720000D02*
X268605000Y-47625000D01*
X258445000Y-220091000D02*
X258445000Y-170818650D01*
X268606825Y-116841825D02*
X268605000Y-116840000D01*
X268606825Y-160656825D02*
X268606825Y-116841825D01*
X258445000Y-170818650D02*
X268606825Y-160656825D01*
X268605000Y-63881000D02*
X268605000Y-116840000D01*
X240538000Y-117602000D02*
X236220000Y-121920000D01*
X259969000Y-117602000D02*
X240538000Y-117602000D01*
X268605000Y-117313490D02*
X268605000Y-116840000D01*
X289433000Y-142367000D02*
X288671000Y-142367000D01*
X292100000Y-139700000D02*
X289433000Y-142367000D01*
X240168630Y-58420000D02*
X238771630Y-59817000D01*
X241300000Y-58420000D02*
X240168630Y-58420000D01*
X238771630Y-59817000D02*
X235585000Y-59817000D01*
X235585000Y-59817000D02*
X227838000Y-67564000D01*
X207264000Y-67564000D02*
X205740000Y-66040000D01*
X227838000Y-67564000D02*
X207264000Y-67564000D01*
X241300000Y-45720000D02*
X239903000Y-47117000D01*
X237722225Y-47117000D02*
X229975225Y-54864000D01*
X239903000Y-47117000D02*
X237722225Y-47117000D01*
X206539999Y-54139999D02*
X205740000Y-53340000D01*
X229975225Y-54864000D02*
X207264000Y-54864000D01*
X207264000Y-54864000D02*
X206539999Y-54139999D01*
X250509369Y-129412956D02*
X250509347Y-129412978D01*
X258444956Y-128865146D02*
X257897146Y-129412956D01*
X239559999Y-133820001D02*
X238760000Y-134620000D01*
X257897146Y-129412956D02*
X250509369Y-129412956D01*
X243967022Y-129412978D02*
X239559999Y-133820001D01*
X238760000Y-121920000D02*
X242189044Y-125349044D01*
X250509347Y-129412978D02*
X243967022Y-129412978D01*
X258444956Y-126277854D02*
X258444956Y-128865146D01*
X242189044Y-125349044D02*
X257516146Y-125349044D01*
X257516146Y-125349044D02*
X258444956Y-126277854D01*
X259969000Y-118237000D02*
X242443000Y-118237000D01*
X242443000Y-118237000D02*
X238760000Y-121920000D01*
X269240000Y-50800000D02*
X269240000Y-63373000D01*
X160020000Y-232273987D02*
X160020000Y-233680000D01*
X218948055Y-230886055D02*
X222885055Y-234823055D01*
X222885055Y-234823055D02*
X227203055Y-234823055D01*
X195580000Y-233680000D02*
X198373945Y-230886055D01*
X227203055Y-234823055D02*
X227800001Y-235420001D01*
X227800001Y-235420001D02*
X228600000Y-236220000D01*
X198373945Y-230886055D02*
X218948055Y-230886055D01*
X262890000Y-264033000D02*
X262890000Y-265430000D01*
X259080000Y-260223000D02*
X262890000Y-264033000D01*
X259080000Y-239903000D02*
X259080000Y-219583000D01*
X259080000Y-260223000D02*
X259080000Y-239903000D01*
X269240000Y-47752000D02*
X269240000Y-50800000D01*
X271092399Y-47169601D02*
X269822399Y-47169601D01*
X272161000Y-46609000D02*
X271653000Y-46609000D01*
X273050000Y-45720000D02*
X272161000Y-46609000D01*
X271653000Y-46609000D02*
X271092399Y-47169601D01*
X269822399Y-47169601D02*
X269240000Y-47752000D01*
X296418000Y-143002000D02*
X288671000Y-143002000D01*
X299720000Y-139700000D02*
X296418000Y-143002000D01*
X269240000Y-118110000D02*
X269240000Y-63373000D01*
X269240000Y-143480312D02*
X269240000Y-143798510D01*
X269240000Y-144116708D02*
X269240000Y-143798510D01*
X259080000Y-170542876D02*
X269240000Y-160382876D01*
X269240000Y-118110000D02*
X269240000Y-143480312D01*
X269240000Y-160382876D02*
X269240000Y-144116708D01*
X259080000Y-219583000D02*
X259080000Y-170542876D01*
X242708630Y-58420000D02*
X241057630Y-60071000D01*
X243840000Y-58420000D02*
X242708630Y-58420000D01*
X241057630Y-60071000D02*
X235712000Y-60071000D01*
X235712000Y-60071000D02*
X227965000Y-67818000D01*
X204978000Y-67818000D02*
X203200000Y-66040000D01*
X227965000Y-67818000D02*
X204978000Y-67818000D01*
X243840000Y-45720000D02*
X242189000Y-47371000D01*
X242189000Y-47371000D02*
X237827450Y-47371000D01*
X204978011Y-55118011D02*
X203999999Y-54139999D01*
X237827450Y-47371000D02*
X230080439Y-55118011D01*
X230080439Y-55118011D02*
X204978011Y-55118011D01*
X203999999Y-54139999D02*
X203200000Y-53340000D01*
X250614583Y-129666967D02*
X258002360Y-129666967D01*
X244475033Y-125095033D02*
X242099999Y-122719999D01*
X258698967Y-126172640D02*
X257621360Y-125095033D01*
X242099999Y-122719999D02*
X241300000Y-121920000D01*
X258002360Y-129666967D02*
X258698967Y-128970360D01*
X250614561Y-129666989D02*
X250614583Y-129666967D01*
X241300000Y-134620000D02*
X246253011Y-129666989D01*
X257621360Y-125095033D02*
X244475033Y-125095033D01*
X258698967Y-128970360D02*
X258698967Y-126172640D01*
X246253011Y-129666989D02*
X250614561Y-129666989D01*
X244348000Y-118872000D02*
X241300000Y-121920000D01*
X259969000Y-118872000D02*
X244348000Y-118872000D01*
X269875000Y-50292000D02*
X269875000Y-62865000D01*
X219075044Y-230632044D02*
X223012044Y-234569044D01*
X223012044Y-234569044D02*
X229489044Y-234569044D01*
X193040000Y-233680000D02*
X196087956Y-230632044D01*
X196087956Y-230632044D02*
X219075044Y-230632044D01*
X229489044Y-234569044D02*
X230340001Y-235420001D01*
X230340001Y-235420001D02*
X231140000Y-236220000D01*
X265430000Y-265430000D02*
X259715000Y-259715000D01*
X259715000Y-219075000D02*
X259715000Y-239395000D01*
X259715000Y-239395000D02*
X259715000Y-259715000D01*
X259715000Y-170267100D02*
X269875000Y-160107100D01*
X269875000Y-160107100D02*
X269875000Y-118872000D01*
X259715000Y-219075000D02*
X259715000Y-170267100D01*
X269875000Y-50292000D02*
X269875000Y-48006000D01*
X269875000Y-48006000D02*
X270457388Y-47423612D01*
X270457388Y-47423612D02*
X271197612Y-47423612D01*
X271197612Y-47423612D02*
X271758214Y-46863011D01*
X271758214Y-46863011D02*
X274446989Y-46863011D01*
X274446989Y-46863011D02*
X275590000Y-45720000D01*
X298323000Y-143637000D02*
X288671000Y-143637000D01*
X302260000Y-139700000D02*
X298323000Y-143637000D01*
X269875000Y-62865000D02*
X269875000Y-118872000D01*
X246380000Y-58420000D02*
X248158000Y-60198000D01*
X248158000Y-60198000D02*
X257937000Y-60198000D01*
X257937000Y-60198000D02*
X258699000Y-59436000D01*
X258699000Y-59436000D02*
X258699000Y-57404000D01*
X258699000Y-57404000D02*
X257810000Y-56515000D01*
X205105000Y-56515000D02*
X203200000Y-58420000D01*
X257810000Y-56515000D02*
X205105000Y-56515000D01*
X204978000Y-43942000D02*
X203200000Y-45720000D01*
X257810000Y-43942000D02*
X204978000Y-43942000D01*
X258826000Y-46609000D02*
X258826000Y-44958000D01*
X257937000Y-47498000D02*
X258826000Y-46609000D01*
X258826000Y-44958000D02*
X257810000Y-43942000D01*
X248158000Y-47498000D02*
X257937000Y-47498000D01*
X246380000Y-45720000D02*
X248158000Y-47498000D01*
X250719797Y-129920978D02*
X250719775Y-129921000D01*
X250719775Y-129921000D02*
X248539000Y-129921000D01*
X248539000Y-129921000D02*
X244639999Y-133820001D01*
X244639999Y-133820001D02*
X243840000Y-134620000D01*
X257726574Y-124841022D02*
X258952978Y-126067426D01*
X258107574Y-129920978D02*
X250719797Y-129920978D01*
X258952978Y-129075574D02*
X258107574Y-129920978D01*
X258952978Y-126067426D02*
X258952978Y-129075574D01*
X243840000Y-121920000D02*
X246761022Y-124841022D01*
X246761022Y-124841022D02*
X257726574Y-124841022D01*
X270510000Y-62357000D02*
X270510000Y-119507000D01*
X246253000Y-119507000D02*
X243840000Y-121920000D01*
X259969000Y-119507000D02*
X246253000Y-119507000D01*
X270510000Y-53975000D02*
X270510000Y-62357000D01*
X270510000Y-53340000D02*
X270510000Y-53975000D01*
X270510000Y-49784000D02*
X270510000Y-53975000D01*
X223139044Y-234315044D02*
X231775044Y-234315044D01*
X232880001Y-235420001D02*
X233680000Y-236220000D01*
X197358033Y-230378033D02*
X219202033Y-230378033D01*
X231775044Y-234315044D02*
X232880001Y-235420001D01*
X193040000Y-226060000D02*
X197358033Y-230378033D01*
X219202033Y-230378033D02*
X223139044Y-234315044D01*
X265532499Y-264389499D02*
X260350000Y-259207000D01*
X266929499Y-264389499D02*
X265532499Y-264389499D01*
X267970000Y-265430000D02*
X266929499Y-264389499D01*
X260350000Y-238887000D02*
X260350000Y-218567000D01*
X260350000Y-259207000D02*
X260350000Y-238887000D01*
X260350000Y-169991326D02*
X260350000Y-218567000D01*
X270510000Y-119507000D02*
X270510000Y-159831326D01*
X270510000Y-159831326D02*
X260350000Y-169991326D01*
X270510000Y-49784000D02*
X270510000Y-48260000D01*
X270510000Y-48260000D02*
X271039775Y-47730225D01*
X271863428Y-47117022D02*
X276732978Y-47117022D01*
X271250225Y-47730225D02*
X271863428Y-47117022D01*
X271039775Y-47730225D02*
X271250225Y-47730225D01*
X276732978Y-47117022D02*
X278130000Y-45720000D01*
X248920000Y-58420000D02*
X250444000Y-59944000D01*
X250444000Y-59944000D02*
X257810000Y-59944000D01*
X257810000Y-59944000D02*
X258445000Y-59309000D01*
X258445000Y-59309000D02*
X258445000Y-57531000D01*
X258445000Y-57531000D02*
X257683000Y-56769000D01*
X207391000Y-56769000D02*
X205740000Y-58420000D01*
X257683000Y-56769000D02*
X207391000Y-56769000D01*
X207264000Y-44196000D02*
X205740000Y-45720000D01*
X248920000Y-45720000D02*
X250444000Y-47244000D01*
X250444000Y-47244000D02*
X257810000Y-47244000D01*
X257810000Y-47244000D02*
X258572000Y-46482000D01*
X258572000Y-46482000D02*
X258572000Y-45085000D01*
X258572000Y-45085000D02*
X257683000Y-44196000D01*
X257683000Y-44196000D02*
X207264000Y-44196000D01*
X258212787Y-130174989D02*
X250825011Y-130174989D01*
X246380000Y-121920000D02*
X249047000Y-124587000D01*
X259206989Y-129180787D02*
X258212787Y-130174989D01*
X249047000Y-124587000D02*
X257831776Y-124587000D01*
X257831776Y-124587000D02*
X259206989Y-125962213D01*
X259206989Y-125962213D02*
X259206989Y-129180787D01*
X250825011Y-130174989D02*
X246380000Y-134620000D01*
X248158000Y-120142000D02*
X259969000Y-120142000D01*
X246380000Y-121920000D02*
X248158000Y-120142000D01*
X271145000Y-120015000D02*
X271145000Y-61849000D01*
X271145000Y-49276000D02*
X271145000Y-61849000D01*
X160020000Y-227584000D02*
X160020000Y-226060000D01*
X199644022Y-230124022D02*
X219329022Y-230124022D01*
X223266044Y-234061044D02*
X234061044Y-234061044D01*
X234061044Y-234061044D02*
X235420001Y-235420001D01*
X195580000Y-226060000D02*
X199644022Y-230124022D01*
X235420001Y-235420001D02*
X236220000Y-236220000D01*
X219329022Y-230124022D02*
X223266044Y-234061044D01*
X270510000Y-265430000D02*
X268605000Y-263525000D01*
X265938000Y-263525000D02*
X260985000Y-258572000D01*
X268605000Y-263525000D02*
X265938000Y-263525000D01*
X260985000Y-217932000D02*
X260985000Y-238252000D01*
X260985000Y-238252000D02*
X260985000Y-258572000D01*
X260985000Y-169715552D02*
X271145000Y-159555552D01*
X271145000Y-159555552D02*
X271145000Y-120015000D01*
X260985000Y-217932000D02*
X260985000Y-169715552D01*
X271145000Y-48260000D02*
X271145000Y-49276000D01*
X280670000Y-45720000D02*
X279018967Y-47371033D01*
X279018967Y-47371033D02*
X272033967Y-47371033D01*
X272033967Y-47371033D02*
X271145000Y-48260000D01*
X251460000Y-58420000D02*
X252730000Y-59690000D01*
X252730000Y-59690000D02*
X257683000Y-59690000D01*
X257683000Y-59690000D02*
X258191000Y-59182000D01*
X258191000Y-59182000D02*
X258191000Y-57658000D01*
X258191000Y-57658000D02*
X257556000Y-57023000D01*
X214757000Y-57023000D02*
X213360000Y-58420000D01*
X257556000Y-57023000D02*
X214757000Y-57023000D01*
X214630000Y-44450000D02*
X213360000Y-45720000D01*
X251460000Y-45720000D02*
X252730000Y-46990000D01*
X258318000Y-45212000D02*
X257556000Y-44450000D01*
X258318000Y-46355000D02*
X258318000Y-45212000D01*
X257556000Y-44450000D02*
X214630000Y-44450000D01*
X257683000Y-46990000D02*
X258318000Y-46355000D01*
X252730000Y-46990000D02*
X257683000Y-46990000D01*
X253111000Y-130429000D02*
X248920000Y-134620000D01*
X258318000Y-130429000D02*
X253111000Y-130429000D01*
X259461000Y-129286000D02*
X258318000Y-130429000D01*
X259461000Y-125857000D02*
X259461000Y-129286000D01*
X257937000Y-124333000D02*
X259461000Y-125857000D01*
X251333000Y-124333000D02*
X257937000Y-124333000D01*
X248920000Y-121920000D02*
X251333000Y-124333000D01*
X271780000Y-61341000D02*
X271780000Y-120523000D01*
X248920000Y-121920000D02*
X250164512Y-120675488D01*
X250164512Y-120675488D02*
X257178713Y-120675488D01*
X257280225Y-120777000D02*
X259969000Y-120777000D01*
X257178713Y-120675488D02*
X257280225Y-120777000D01*
X271780000Y-48768000D02*
X271780000Y-61341000D01*
X167640000Y-227838000D02*
X167640000Y-226060000D01*
X203200000Y-226060000D02*
X207010011Y-229870011D01*
X207010011Y-229870011D02*
X219456011Y-229870011D01*
X236347033Y-233807033D02*
X237960001Y-235420001D01*
X223393033Y-233807033D02*
X236347033Y-233807033D01*
X237960001Y-235420001D02*
X238760000Y-236220000D01*
X219456011Y-229870011D02*
X223393033Y-233807033D01*
X261620000Y-258064000D02*
X266192000Y-262636000D01*
X270256000Y-262636000D02*
X273050000Y-265430000D01*
X266192000Y-262636000D02*
X270256000Y-262636000D01*
X261620000Y-237744000D02*
X261620000Y-217424000D01*
X261620000Y-258064000D02*
X261620000Y-237744000D01*
X283210000Y-45720000D02*
X281304956Y-47625044D01*
X281304956Y-47625044D02*
X272160956Y-47625044D01*
X272160956Y-47625044D02*
X271780000Y-48006000D01*
X271780000Y-48006000D02*
X271780000Y-48768000D01*
X271780000Y-120523000D02*
X271780000Y-144814510D01*
X271780000Y-159279776D02*
X271780000Y-145132708D01*
X261620000Y-169439776D02*
X271780000Y-159279776D01*
X261620000Y-217424000D02*
X261620000Y-169439776D01*
X271780000Y-145132708D02*
X271780000Y-144814510D01*
X257327004Y-57277000D02*
X217043000Y-57277000D01*
X254000000Y-58420000D02*
X254990501Y-59410501D01*
X254990501Y-59410501D02*
X257530501Y-59410501D01*
X257936989Y-57886985D02*
X257327004Y-57277000D01*
X217043000Y-57277000D02*
X216699999Y-57620001D01*
X257936989Y-59004013D02*
X257936989Y-57886985D01*
X257530501Y-59410501D02*
X257936989Y-59004013D01*
X216699999Y-57620001D02*
X215900000Y-58420000D01*
X216890501Y-44729499D02*
X216699999Y-44920001D01*
X216699999Y-44920001D02*
X215900000Y-45720000D01*
X257476275Y-44729499D02*
X216890501Y-44729499D01*
X258063989Y-45317213D02*
X257476275Y-44729499D01*
X258063989Y-46228011D02*
X258063989Y-45317213D01*
X257581499Y-46710501D02*
X258063989Y-46228011D01*
X254990501Y-46710501D02*
X257581499Y-46710501D01*
X254000000Y-45720000D02*
X254990501Y-46710501D01*
X258042224Y-124079000D02*
X253619000Y-124079000D01*
X253619000Y-124079000D02*
X251460000Y-121920000D01*
X259715009Y-125751785D02*
X258042224Y-124079000D01*
X259715000Y-129413000D02*
X259715000Y-129391224D01*
X259715010Y-129391214D02*
X259715009Y-125751785D01*
X259715000Y-129391224D02*
X259715010Y-129391214D01*
X258445000Y-130683000D02*
X259715000Y-129413000D01*
X255397000Y-130683000D02*
X258445000Y-130683000D01*
X251460000Y-134620000D02*
X255397000Y-130683000D01*
X252450501Y-120929499D02*
X257073499Y-120929499D01*
X251460000Y-121920000D02*
X252450501Y-120929499D01*
X257556000Y-121412000D02*
X259969000Y-121412000D01*
X257073499Y-120929499D02*
X257556000Y-121412000D01*
X272415000Y-121031000D02*
X272415000Y-60833000D01*
X272415000Y-60833000D02*
X272415000Y-48298906D01*
X272415000Y-48298906D02*
X272419396Y-48294510D01*
X170180000Y-226060000D02*
X170180000Y-227998163D01*
X170180000Y-227998163D02*
X170178664Y-227999499D01*
X240500001Y-235420001D02*
X241300000Y-236220000D01*
X205740000Y-226060000D02*
X209296000Y-229616000D01*
X238633033Y-233553033D02*
X240500001Y-235420001D01*
X219583000Y-229616000D02*
X223520033Y-233553033D01*
X209296000Y-229616000D02*
X219583000Y-229616000D01*
X223520033Y-233553033D02*
X238633033Y-233553033D01*
X275590000Y-265430000D02*
X271907000Y-261747000D01*
X266446000Y-261747000D02*
X262255000Y-257556000D01*
X271907000Y-261747000D02*
X266446000Y-261747000D01*
X262255000Y-216916000D02*
X262255000Y-237236000D01*
X262255000Y-237236000D02*
X262255000Y-257556000D01*
X285750000Y-45720000D02*
X283527500Y-47942500D01*
X283527500Y-47942500D02*
X272771406Y-47942500D01*
X272771406Y-47942500D02*
X272419396Y-48294510D01*
X272415000Y-145386708D02*
X272415000Y-145068510D01*
X272415000Y-121031000D02*
X272415000Y-145068510D01*
X262255000Y-216916000D02*
X272415000Y-206756000D01*
X272415000Y-206756000D02*
X272415000Y-145386708D01*
X152400000Y-83832000D02*
X152394000Y-83826000D01*
X152400000Y-86614000D02*
X152400000Y-83832000D01*
X154940000Y-83832000D02*
X154934000Y-83826000D01*
X154940000Y-86868000D02*
X154940000Y-83832000D01*
X157480000Y-83832000D02*
X157474000Y-83826000D01*
X157480000Y-87122000D02*
X157480000Y-83832000D01*
X160020000Y-83832000D02*
X160014000Y-83826000D01*
X160020000Y-87376000D02*
X160020000Y-83832000D01*
X162560000Y-83832000D02*
X162554000Y-83826000D01*
X162560000Y-87630000D02*
X162560000Y-83832000D01*
X165100000Y-83832000D02*
X165094000Y-83826000D01*
X165100000Y-87884000D02*
X165100000Y-83832000D01*
X167640000Y-83832000D02*
X167634000Y-83826000D01*
X167640000Y-88138000D02*
X167640000Y-83832000D01*
X185420000Y-83832000D02*
X185414000Y-83826000D01*
X185420000Y-88392000D02*
X185420000Y-83832000D01*
X187960000Y-83832000D02*
X187954000Y-83826000D01*
X187960000Y-88646000D02*
X187960000Y-83832000D01*
X190500000Y-83832000D02*
X190494000Y-83826000D01*
X190500000Y-88900000D02*
X190500000Y-83832000D01*
X193040000Y-83832000D02*
X193034000Y-83826000D01*
X193040000Y-89154000D02*
X193040000Y-83832000D01*
X195580000Y-83832000D02*
X195574000Y-83826000D01*
X195580000Y-89408000D02*
X195580000Y-83832000D01*
X198120000Y-83832000D02*
X198114000Y-83826000D01*
X198120000Y-89662000D02*
X198120000Y-83832000D01*
X200660000Y-83832000D02*
X200654000Y-83826000D01*
X200660000Y-89916000D02*
X200660000Y-83832000D01*
X203200000Y-83832000D02*
X203194000Y-83826000D01*
X203200000Y-90170000D02*
X203200000Y-83832000D01*
X210810200Y-185430000D02*
X209530200Y-184150000D01*
X161300000Y-184150000D02*
X160020000Y-185430000D01*
X209530200Y-184150000D02*
X161300000Y-184150000D01*
X213350200Y-185430000D02*
X211816200Y-183896000D01*
X162814000Y-183896000D02*
X162560000Y-183642000D01*
X211816200Y-183896000D02*
X162814000Y-183896000D01*
X215890200Y-185430000D02*
X214102200Y-183642000D01*
X165354000Y-183642000D02*
X165100000Y-183388000D01*
X214102200Y-183642000D02*
X165354000Y-183642000D01*
X218430200Y-185430000D02*
X216388200Y-183388000D01*
X167894000Y-183388000D02*
X167640000Y-183134000D01*
X216388200Y-183388000D02*
X167894000Y-183388000D01*
X220970200Y-185430000D02*
X218674200Y-183134000D01*
X170434000Y-183134000D02*
X170180000Y-182880000D01*
X218674200Y-183134000D02*
X170434000Y-183134000D01*
X223510200Y-185430000D02*
X220960200Y-182880000D01*
X172974000Y-182880000D02*
X172720000Y-182626000D01*
X220960200Y-182880000D02*
X172974000Y-182880000D01*
X226050200Y-185430000D02*
X223246200Y-182626000D01*
X175514000Y-182626000D02*
X175260000Y-182372000D01*
X223246200Y-182626000D02*
X175514000Y-182626000D01*
X228590200Y-185430000D02*
X225532200Y-182372000D01*
X178054000Y-182372000D02*
X177800000Y-182118000D01*
X225532200Y-182372000D02*
X178054000Y-182372000D01*
X182626000Y-264160000D02*
X180340000Y-264160000D01*
X200787000Y-261493000D02*
X200660000Y-261620000D01*
X203200000Y-261493000D02*
X200787000Y-261493000D01*
X203581000Y-251460000D02*
X200660000Y-251460000D01*
X204216000Y-254000000D02*
X200660000Y-254000000D01*
X204470000Y-256540000D02*
X200660000Y-256540000D01*
X204724000Y-259080000D02*
X200660000Y-259080000D01*
X181863969Y-237976193D02*
X181863969Y-249237363D01*
X173863000Y-232537000D02*
X176424776Y-232537000D01*
X181863969Y-249237363D02*
X182470130Y-249843524D01*
X176424776Y-232537000D02*
X181863969Y-237976193D01*
X172720000Y-233680000D02*
X173863000Y-232537000D01*
X194183000Y-257683000D02*
X194183000Y-249936000D01*
X194183000Y-257683000D02*
X195580000Y-259080000D01*
X194183000Y-249936000D02*
X193675000Y-249428000D01*
X184023000Y-249428000D02*
X183607476Y-249843524D01*
X193675000Y-249428000D02*
X184023000Y-249428000D01*
X182470130Y-249843524D02*
X183607476Y-249843524D01*
X191804510Y-279942510D02*
X191804510Y-259080000D01*
X249935978Y-278638022D02*
X246888022Y-281685978D01*
X244877809Y-233299033D02*
X249935978Y-238357202D01*
X230759033Y-233299033D02*
X244877809Y-233299033D01*
X193547978Y-281685978D02*
X191804510Y-279942510D01*
X226060000Y-228600000D02*
X230759033Y-233299033D01*
X246888022Y-281685978D02*
X193547978Y-281685978D01*
X249935978Y-238357202D02*
X249935978Y-278638022D01*
X182121715Y-237831163D02*
X181717052Y-237426500D01*
X169037000Y-229743000D02*
X165100000Y-233680000D01*
X173990000Y-229743000D02*
X169037000Y-229743000D01*
X180635724Y-236388724D02*
X173990000Y-229743000D01*
X180635724Y-236388724D02*
X180679276Y-236388724D01*
X180679276Y-236388724D02*
X182121715Y-237831163D01*
X194437000Y-249809000D02*
X194437000Y-252857000D01*
X193802000Y-249174000D02*
X194437000Y-249809000D01*
X183480487Y-249589513D02*
X183896000Y-249174000D01*
X182575344Y-249589513D02*
X183480487Y-249589513D01*
X194437000Y-252857000D02*
X195580000Y-254000000D01*
X183896000Y-249174000D02*
X193802000Y-249174000D01*
X182121715Y-249135884D02*
X182575344Y-249589513D01*
X182121715Y-237831163D02*
X182121715Y-249135884D01*
X191389000Y-279908000D02*
X191389000Y-254381000D01*
X228600000Y-228600000D02*
X233045022Y-233045022D01*
X244983022Y-233045022D02*
X250189989Y-238251989D01*
X191389000Y-254381000D02*
X191770000Y-254000000D01*
X193420989Y-281939989D02*
X191389000Y-279908000D01*
X247015011Y-281939989D02*
X193420989Y-281939989D01*
X233045022Y-233045022D02*
X244983022Y-233045022D01*
X250189989Y-278765011D02*
X247015011Y-281939989D01*
X250189989Y-238251989D02*
X250189989Y-278765011D01*
X162560000Y-233680000D02*
X166751000Y-229489000D01*
X166751000Y-229489000D02*
X174117000Y-229489000D01*
X175514000Y-230886000D02*
X175535776Y-230886000D01*
X174117000Y-229489000D02*
X175514000Y-230886000D01*
X182012807Y-237363031D02*
X182078133Y-237363031D01*
X175535776Y-230886000D02*
X181811388Y-237161612D01*
X181811388Y-237161612D02*
X182012807Y-237363031D01*
X181811388Y-237161612D02*
X182375725Y-237725949D01*
X182375725Y-249030669D02*
X182680558Y-249335502D01*
X182680558Y-249335502D02*
X183331722Y-249335502D01*
X182375725Y-237725949D02*
X182375725Y-249030669D01*
X183747224Y-248920000D02*
X195580000Y-248920000D01*
X183331722Y-249335502D02*
X183747224Y-248920000D01*
X235331011Y-232791011D02*
X245088235Y-232791011D01*
X250444000Y-278892000D02*
X247142000Y-282194000D01*
X231140000Y-228600000D02*
X235331011Y-232791011D01*
X250444000Y-238146776D02*
X250444000Y-278892000D01*
X193294000Y-282194000D02*
X190881000Y-279781000D01*
X190881000Y-279781000D02*
X190881000Y-251333000D01*
X247142000Y-282194000D02*
X193294000Y-282194000D01*
X245088235Y-232791011D02*
X250444000Y-238146776D01*
X159385000Y-229235000D02*
X154940000Y-233680000D01*
X174244000Y-229235000D02*
X159385000Y-229235000D01*
X182118021Y-237109021D02*
X174244000Y-229235000D01*
X182183347Y-237109021D02*
X182629735Y-237555409D01*
X182118021Y-237109021D02*
X182183347Y-237109021D01*
X182629735Y-237555409D02*
X182629735Y-248408265D01*
X182629735Y-248408265D02*
X182880000Y-248658530D01*
X182880000Y-248658530D02*
X182880000Y-248920000D01*
X233680000Y-228600000D02*
X237617000Y-232537000D01*
X237617000Y-232537000D02*
X245237000Y-232537000D01*
X245237000Y-232537000D02*
X250698000Y-237998000D01*
X250698000Y-237998000D02*
X250698000Y-279019000D01*
X250698000Y-279019000D02*
X247269000Y-282448000D01*
X247269000Y-282448000D02*
X193167000Y-282448000D01*
X193167000Y-282448000D02*
X190373000Y-279654000D01*
X190373000Y-279654000D02*
X190373000Y-250698000D01*
X190373000Y-250698000D02*
X189865000Y-250190000D01*
X181610000Y-250190000D02*
X180340000Y-248920000D01*
X189865000Y-250190000D02*
X181610000Y-250190000D01*
X178181000Y-231648000D02*
X182626000Y-236093000D01*
X154940000Y-226060000D02*
X157734000Y-223266000D01*
X178181000Y-225679000D02*
X178181000Y-231648000D01*
X211709000Y-246385520D02*
X210242980Y-244919500D01*
X196850000Y-236093000D02*
X205676500Y-244919500D01*
X205676500Y-244919500D02*
X210242980Y-244919500D01*
X215900000Y-259080000D02*
X211709000Y-254889000D01*
X175768000Y-223266000D02*
X178181000Y-225679000D01*
X182626000Y-236093000D02*
X196850000Y-236093000D01*
X157734000Y-223266000D02*
X175768000Y-223266000D01*
X211709000Y-254889000D02*
X211709000Y-246385520D01*
X211293500Y-253681802D02*
X211293500Y-254000000D01*
X211455000Y-253520302D02*
X211293500Y-253681802D01*
X211455000Y-247142000D02*
X211455000Y-253520302D01*
X210658479Y-246345479D02*
X210658479Y-246021262D01*
X177927000Y-225806000D02*
X177927000Y-231775000D01*
X209874217Y-245237000D02*
X210658479Y-246021262D01*
X211455000Y-247142000D02*
X210658479Y-246345479D01*
X162560000Y-226060000D02*
X165100000Y-223520000D01*
X182499000Y-236347000D02*
X196744776Y-236347000D01*
X175641000Y-223520000D02*
X177927000Y-225806000D01*
X196744776Y-236347000D02*
X205634776Y-245237000D01*
X165100000Y-223520000D02*
X175641000Y-223520000D01*
X177927000Y-231775000D02*
X182499000Y-236347000D01*
X205634776Y-245237000D02*
X209874217Y-245237000D01*
X205486000Y-245491000D02*
X207679786Y-245491000D01*
X182393786Y-236601011D02*
X196596011Y-236601011D01*
X211039500Y-248920000D02*
X209296276Y-247176776D01*
X209296276Y-247176776D02*
X209296276Y-247107490D01*
X175514011Y-223774011D02*
X177672989Y-225932989D01*
X207679786Y-245491000D02*
X209296276Y-247107490D01*
X165100000Y-226060000D02*
X167385989Y-223774011D01*
X177672989Y-225932989D02*
X177672989Y-231880214D01*
X167385989Y-223774011D02*
X175514011Y-223774011D01*
X177672989Y-231880214D02*
X182393786Y-236601011D01*
X196596011Y-236601011D02*
X205486000Y-245491000D01*
X196469011Y-236855011D02*
X202819000Y-243205000D01*
X182288561Y-236855011D02*
X196469011Y-236855011D01*
X175387011Y-224028011D02*
X177418978Y-226059978D01*
X174751989Y-224028011D02*
X175387011Y-224028011D01*
X177418978Y-231985428D02*
X182288561Y-236855011D01*
X177418978Y-226059978D02*
X177418978Y-231985428D01*
X172720000Y-226060000D02*
X174751989Y-224028011D01*
X203506612Y-243892612D02*
X202766397Y-243152397D01*
X203506612Y-244099218D02*
X203668197Y-244260803D01*
X203506612Y-243892612D02*
X203506612Y-244099218D01*
X203668197Y-244260803D02*
X204274281Y-244866887D01*
X203528388Y-244120994D02*
X203668197Y-244260803D01*
X205994000Y-248920000D02*
X200660000Y-248920000D01*
X207518000Y-247396000D02*
X205994000Y-248920000D01*
X248919934Y-278130066D02*
X246380066Y-280669934D01*
X193040033Y-264159967D02*
X194780001Y-262419999D01*
X248919934Y-256412934D02*
X248919934Y-278130066D01*
X226060000Y-248920000D02*
X231140033Y-254000033D01*
X193040033Y-279654033D02*
X193040033Y-264159967D01*
X246507033Y-254000033D02*
X248919934Y-256412934D01*
X194055934Y-280669934D02*
X193040033Y-279654033D01*
X231140033Y-254000033D02*
X246507033Y-254000033D01*
X246380066Y-280669934D02*
X194055934Y-280669934D01*
X194780001Y-262419999D02*
X195580000Y-261620000D01*
X249173945Y-256285945D02*
X249173945Y-278257055D01*
X228600000Y-248920000D02*
X233426022Y-253746022D01*
X192786022Y-279781022D02*
X192786022Y-257146697D01*
X192786022Y-257146697D02*
X192947521Y-256985198D01*
X246507055Y-280923945D02*
X193928945Y-280923945D01*
X193928945Y-280923945D02*
X192786022Y-279781022D01*
X246634022Y-253746022D02*
X249173945Y-256285945D01*
X249173945Y-278257055D02*
X246507055Y-280923945D01*
X233426022Y-253746022D02*
X246634022Y-253746022D01*
X192947521Y-256985198D02*
X192947521Y-256667000D01*
X249427956Y-256158956D02*
X249427956Y-278384044D01*
X249427956Y-278384044D02*
X246634044Y-281177956D01*
X192532011Y-279908011D02*
X192532011Y-251840989D01*
X193801956Y-281177956D02*
X192532011Y-279908011D01*
X231140000Y-248920000D02*
X235712011Y-253492011D01*
X235712011Y-253492011D02*
X246761011Y-253492011D01*
X246634044Y-281177956D02*
X193801956Y-281177956D01*
X192532011Y-251840989D02*
X192913000Y-251460000D01*
X246761011Y-253492011D02*
X249427956Y-256158956D01*
X192278000Y-251841000D02*
X190373000Y-249936000D01*
X233680000Y-248920000D02*
X237998000Y-253238000D01*
X246888000Y-253238000D02*
X249681967Y-256031967D01*
X237998000Y-253238000D02*
X246888000Y-253238000D01*
X249681967Y-256031967D02*
X249681967Y-278511033D01*
X246761033Y-281431967D02*
X193674967Y-281431967D01*
X193674967Y-281431967D02*
X192278000Y-280035000D01*
X249681967Y-278511033D02*
X246761033Y-281431967D01*
X192278000Y-280035000D02*
X192278000Y-251841000D01*
X185674022Y-230885978D02*
X185674022Y-232859964D01*
X211389664Y-242061989D02*
X214227214Y-242061989D01*
X187510025Y-234695967D02*
X204023642Y-234695967D01*
X190500000Y-226060000D02*
X185674022Y-230885978D01*
X185674022Y-232859964D02*
X187510025Y-234695967D01*
X216699999Y-260820001D02*
X215900000Y-261620000D01*
X204023642Y-234695967D02*
X211389664Y-242061989D01*
X218186011Y-259333989D02*
X216699999Y-260820001D01*
X214227214Y-242061989D02*
X218186011Y-246020786D01*
X218186011Y-252788047D02*
X218186011Y-259206989D01*
X235229499Y-247929499D02*
X223044559Y-247929499D01*
X223044559Y-247929499D02*
X218186011Y-252788047D01*
X236220000Y-248920000D02*
X235229499Y-247929499D01*
X218186011Y-259206989D02*
X218186011Y-259333989D01*
X218186011Y-246020786D02*
X218186011Y-259206989D01*
X217932000Y-254508000D02*
X216535000Y-255905000D01*
X217932000Y-254508000D02*
X215900000Y-256540000D01*
X187324989Y-224790011D02*
X185420011Y-226694989D01*
X185420011Y-233045011D02*
X187324978Y-234949978D01*
X211284439Y-242315989D02*
X214100214Y-242315989D01*
X217932000Y-246147775D02*
X217932000Y-254508000D01*
X196850011Y-224790011D02*
X187324989Y-224790011D01*
X214100214Y-242315989D02*
X217932000Y-246147775D01*
X203918428Y-234949978D02*
X211284439Y-242315989D01*
X185420011Y-226694989D02*
X185420011Y-233045011D01*
X198120000Y-226060000D02*
X196850011Y-224790011D01*
X187324978Y-234949978D02*
X203918428Y-234949978D01*
X238760000Y-248920000D02*
X237490000Y-247650000D01*
X222631000Y-247650000D02*
X218694000Y-251587000D01*
X237490000Y-247650000D02*
X222631000Y-247650000D01*
X199860001Y-225260001D02*
X200660000Y-226060000D01*
X215900000Y-251460000D02*
X217678000Y-249682000D01*
X217678000Y-249682000D02*
X217678000Y-246253000D01*
X213995000Y-242570000D02*
X211179225Y-242570000D01*
X211179225Y-242570000D02*
X203813214Y-235203989D01*
X185166000Y-226568000D02*
X187198000Y-224536000D01*
X185166000Y-233172000D02*
X185166000Y-226568000D01*
X187198000Y-224536000D02*
X199136000Y-224536000D01*
X199136000Y-224536000D02*
X199860001Y-225260001D01*
X217678000Y-246253000D02*
X213995000Y-242570000D01*
X187197989Y-235203989D02*
X185166000Y-233172000D01*
X203813214Y-235203989D02*
X187197989Y-235203989D01*
X239776000Y-247396000D02*
X222250000Y-247396000D01*
X241300000Y-248920000D02*
X239776000Y-247396000D01*
X222250000Y-247396000D02*
X218694000Y-250952000D01*
X205867000Y-246380000D02*
X200660000Y-246380000D01*
X243840000Y-248920000D02*
X242062000Y-247142000D01*
X219202000Y-247142000D02*
X218694000Y-247650000D01*
X242062000Y-247142000D02*
X219202000Y-247142000D01*
X210566000Y-242316000D02*
X203708000Y-235458000D01*
X210566000Y-243078000D02*
X210566000Y-242316000D01*
X203708000Y-235458000D02*
X187071000Y-235458000D01*
X184912000Y-226441000D02*
X187071000Y-224282000D01*
X184912000Y-233299000D02*
X184912000Y-226441000D01*
X187071000Y-224282000D02*
X206502000Y-224282000D01*
X206502000Y-224282000D02*
X208280000Y-226060000D01*
X187071000Y-235458000D02*
X184912000Y-233299000D01*
X218440000Y-45720000D02*
X216985011Y-47174989D01*
X192024000Y-63500000D02*
X152400000Y-63500000D01*
X152400000Y-63500000D02*
X150709999Y-65190001D01*
X216985011Y-47174989D02*
X210561737Y-47174989D01*
X199263000Y-47244000D02*
X193929000Y-52578000D01*
X150709999Y-65190001D02*
X149860000Y-66040000D01*
X210492726Y-47244000D02*
X199263000Y-47244000D01*
X210561737Y-47174989D02*
X210492726Y-47244000D01*
X193929000Y-61595000D02*
X192024000Y-63500000D01*
X193929000Y-52578000D02*
X193929000Y-61595000D01*
X199390000Y-47498000D02*
X210350490Y-47498000D01*
X194183000Y-52705000D02*
X199390000Y-47498000D01*
X192151000Y-63754000D02*
X194183000Y-61722000D01*
X152400000Y-66040000D02*
X154686000Y-63754000D01*
X154686000Y-63754000D02*
X192151000Y-63754000D01*
X210350490Y-47498000D02*
X210442980Y-47590490D01*
X210442980Y-47590490D02*
X210761178Y-47590490D01*
X194183000Y-61722000D02*
X194183000Y-52705000D01*
X152103956Y-103793510D02*
X146650355Y-103793510D01*
X146650355Y-103793510D02*
X146616617Y-103759772D01*
X152328955Y-103568511D02*
X152103956Y-103793510D01*
X199517000Y-47752000D02*
X208026000Y-47752000D01*
X194437011Y-61827214D02*
X194437011Y-52810213D01*
X208026000Y-47752000D02*
X208280000Y-48006000D01*
X194458787Y-52810213D02*
X199517000Y-47752000D01*
X192256214Y-64008011D02*
X194437011Y-61827214D01*
X156971989Y-64008011D02*
X192256214Y-64008011D01*
X154940000Y-66040000D02*
X156971989Y-64008011D01*
X147097015Y-103153001D02*
X147054670Y-103195346D01*
X158444199Y-103153001D02*
X147097015Y-103153001D01*
X147054670Y-103195346D02*
X146736472Y-103195346D01*
X160042000Y-101555200D02*
X158444199Y-103153001D01*
X159257989Y-64262011D02*
X158329999Y-65190001D01*
X158329999Y-65190001D02*
X157480000Y-66040000D01*
X194691022Y-61954203D02*
X192383214Y-64262011D01*
X192383214Y-64262011D02*
X159257989Y-64262011D01*
X194691022Y-52958978D02*
X194691022Y-61954203D01*
X200406000Y-48006000D02*
X199644000Y-48006000D01*
X199644000Y-48006000D02*
X194691022Y-52958978D01*
X200660000Y-48260000D02*
X200406000Y-48006000D01*
X141986011Y-71098214D02*
X141986011Y-96647011D01*
X158750010Y-67309990D02*
X145774235Y-67309990D01*
X145774235Y-67309990D02*
X141986011Y-71098214D01*
X171751499Y-100564699D02*
X179562001Y-108375201D01*
X179562001Y-108375201D02*
X180362000Y-109175200D01*
X145923000Y-100584000D02*
X146847258Y-100584000D01*
X146847258Y-100584000D02*
X146866559Y-100564699D01*
X160020000Y-66040000D02*
X158750010Y-67309990D01*
X146866559Y-100564699D02*
X171751499Y-100564699D01*
X141986011Y-96647011D02*
X145923000Y-100584000D01*
X184011370Y-71120000D02*
X182880000Y-71120000D01*
X194945033Y-65531967D02*
X191135000Y-69342000D01*
X191135000Y-69342000D02*
X185789370Y-69342000D01*
X200660000Y-50927000D02*
X200341802Y-50927000D01*
X194945033Y-53085967D02*
X194945033Y-65531967D01*
X196850000Y-51181000D02*
X194945033Y-53085967D01*
X185789370Y-69342000D02*
X184011370Y-71120000D01*
X200087802Y-51181000D02*
X196850000Y-51181000D01*
X200341802Y-50927000D02*
X200087802Y-51181000D01*
X142240022Y-71203428D02*
X142240022Y-96520022D01*
X145879449Y-67564001D02*
X142240022Y-71203428D01*
X180464858Y-105664000D02*
X184470800Y-105664000D01*
X187182001Y-108375201D02*
X187982000Y-109175200D01*
X142240022Y-96520022D02*
X146030688Y-100310688D01*
X175111546Y-100310688D02*
X180464858Y-105664000D01*
X146030688Y-100310688D02*
X175111546Y-100310688D01*
X162560000Y-66040000D02*
X161035999Y-67564001D01*
X161035999Y-67564001D02*
X145879449Y-67564001D01*
X184470800Y-105664000D02*
X187182001Y-108375201D01*
X195199044Y-65637181D02*
X195199044Y-53212956D01*
X186943989Y-69596011D02*
X191240214Y-69596011D01*
X185420000Y-71120000D02*
X186943989Y-69596011D01*
X191240214Y-69596011D02*
X195199044Y-65637181D01*
X207961802Y-51181000D02*
X207707802Y-51435000D01*
X208280000Y-51181000D02*
X207961802Y-51181000D01*
X196977000Y-51435000D02*
X195199044Y-53212956D01*
X207707802Y-51435000D02*
X196977000Y-51435000D01*
X142494033Y-71308642D02*
X142494033Y-96393033D01*
X146157677Y-100056677D02*
X181403477Y-100056677D01*
X145984663Y-67818012D02*
X142494033Y-71308642D01*
X165100000Y-66040000D02*
X163321988Y-67818012D01*
X142494033Y-96393033D02*
X146157677Y-100056677D01*
X182102001Y-100755201D02*
X182902000Y-101555200D01*
X163321988Y-67818012D02*
X145984663Y-67818012D01*
X181403477Y-100056677D02*
X182102001Y-100755201D01*
X195453055Y-65764170D02*
X191367214Y-69850011D01*
X191367214Y-69850011D02*
X189229989Y-69850011D01*
X195453055Y-53339945D02*
X195453055Y-65764170D01*
X189229989Y-69850011D02*
X187960000Y-71120000D01*
X210820000Y-51435000D02*
X210501802Y-51435000D01*
X197104000Y-51689000D02*
X195453055Y-53339945D01*
X210247802Y-51689000D02*
X197104000Y-51689000D01*
X210501802Y-51435000D02*
X210247802Y-51689000D01*
X142748044Y-96266044D02*
X146284666Y-99802666D01*
X167640000Y-66040000D02*
X165607978Y-68072022D01*
X188769466Y-99802666D02*
X189722001Y-100755201D01*
X142748044Y-71413855D02*
X142748044Y-96266044D01*
X146284666Y-99802666D02*
X188769466Y-99802666D01*
X165607978Y-68072022D02*
X146089876Y-68072023D01*
X146089876Y-68072023D02*
X142748044Y-71413855D01*
X189722001Y-100755201D02*
X190522000Y-101555200D01*
X217043000Y-51943000D02*
X218440000Y-53340000D01*
X197231000Y-51943000D02*
X217043000Y-51943000D01*
X195707066Y-53466934D02*
X197231000Y-51943000D01*
X195707066Y-65912934D02*
X195707066Y-53466934D01*
X190500000Y-71120000D02*
X195707066Y-65912934D01*
X167893967Y-68326033D02*
X146195091Y-68326033D01*
X146195091Y-68326033D02*
X143002055Y-71519069D01*
X202672655Y-99548655D02*
X210439000Y-107315000D01*
X143002055Y-96139055D02*
X146411655Y-99548655D01*
X146411655Y-99548655D02*
X202672655Y-99548655D01*
X143002055Y-71519069D02*
X143002055Y-96139055D01*
X170180000Y-66040000D02*
X167893967Y-68326033D01*
X143256066Y-71624283D02*
X143256066Y-96012066D01*
X211833858Y-106553000D02*
X216154000Y-106553000D01*
X146300305Y-68580044D02*
X143256066Y-71624283D01*
X146538644Y-99294644D02*
X204575502Y-99294644D01*
X204575502Y-99294644D02*
X211833858Y-106553000D01*
X172720000Y-66040000D02*
X170179956Y-68580044D01*
X170179956Y-68580044D02*
X146300305Y-68580044D01*
X143256066Y-96012066D02*
X146538644Y-99294644D01*
X210820000Y-58420000D02*
X210820000Y-60071000D01*
X146665633Y-99040633D02*
X204680716Y-99040633D01*
X146405519Y-68834055D02*
X143510077Y-71729497D01*
X212582001Y-100755201D02*
X213382000Y-101555200D01*
X175260000Y-66040000D02*
X172465945Y-68834055D01*
X172465945Y-68834055D02*
X146405519Y-68834055D01*
X143510077Y-95885077D02*
X146665633Y-99040633D01*
X204700083Y-99060000D02*
X210886800Y-99060000D01*
X210886800Y-99060000D02*
X212582001Y-100755201D01*
X204680716Y-99040633D02*
X204700083Y-99060000D01*
X143510077Y-71729497D02*
X143510077Y-95885077D01*
X208280000Y-58420000D02*
X208280000Y-60325000D01*
X146510733Y-69088066D02*
X143764088Y-71834711D01*
X143764088Y-71834711D02*
X143764088Y-95758088D01*
X146792622Y-98786622D02*
X204785930Y-98786622D01*
X204785930Y-98786622D02*
X204805286Y-98805978D01*
X220202001Y-100755201D02*
X221002000Y-101555200D01*
X143764088Y-95758088D02*
X146792622Y-98786622D01*
X177800000Y-66040000D02*
X174751934Y-69088066D01*
X204805286Y-98805978D02*
X218252778Y-98805978D01*
X174751934Y-69088066D02*
X146510733Y-69088066D01*
X218252778Y-98805978D02*
X220202001Y-100755201D01*
X200660000Y-58420000D02*
X200660000Y-60579000D01*
X144018099Y-95631099D02*
X146919611Y-98532611D01*
X204910500Y-98551967D02*
X233298967Y-98551967D01*
X177037923Y-69342077D02*
X146615947Y-69342077D01*
X180340000Y-66040000D02*
X177037923Y-69342077D01*
X146615947Y-69342077D02*
X144018099Y-71939925D01*
X144018099Y-71939925D02*
X144018099Y-95631099D01*
X146919611Y-98532611D02*
X204891144Y-98532611D01*
X233298967Y-98551967D02*
X241173000Y-106426000D01*
X204891144Y-98532611D02*
X204910500Y-98551967D01*
X200660000Y-66040000D02*
X200660000Y-63881000D01*
X242186858Y-106426000D02*
X247904000Y-106426000D01*
X234058814Y-98297956D02*
X242186858Y-106426000D01*
X146721161Y-69596088D02*
X144272110Y-72045139D01*
X205015714Y-98297956D02*
X234058814Y-98297956D01*
X144272110Y-72045139D02*
X144272110Y-95504110D01*
X147046600Y-98278600D02*
X204996358Y-98278600D01*
X182880000Y-66040000D02*
X179323912Y-69596088D01*
X144272110Y-95504110D02*
X147046600Y-98278600D01*
X204996358Y-98278600D02*
X205015714Y-98297956D01*
X179323912Y-69596088D02*
X146721161Y-69596088D01*
X208280000Y-66040000D02*
X208280000Y-63993053D01*
X208280000Y-63993053D02*
X208010620Y-63723673D01*
X205120928Y-98043945D02*
X205101572Y-98024589D01*
X144526121Y-95355345D02*
X144526121Y-72150353D01*
X243862000Y-101555200D02*
X240350789Y-98043989D01*
X181609901Y-69850099D02*
X184570001Y-66889999D01*
X234164028Y-98043945D02*
X205120928Y-98043945D01*
X184570001Y-66889999D02*
X185420000Y-66040000D01*
X240350789Y-98043989D02*
X234164072Y-98043989D01*
X146826375Y-69850099D02*
X181609901Y-69850099D01*
X147195365Y-98024589D02*
X144526121Y-95355345D01*
X205101572Y-98024589D02*
X147195365Y-98024589D01*
X144526121Y-72150353D02*
X146826375Y-69850099D01*
X234164072Y-98043989D02*
X234164028Y-98043945D01*
X210820000Y-64235844D02*
X210557637Y-63973481D01*
X210820000Y-66040000D02*
X210820000Y-64235844D01*
X177419011Y-149754787D02*
X177837484Y-150173260D01*
X177419011Y-149225011D02*
X177419011Y-149754787D01*
X177837484Y-150173260D02*
X178106868Y-150173260D01*
X164973000Y-142113000D02*
X170307000Y-142113000D01*
X162560000Y-139700000D02*
X164973000Y-142113000D01*
X170307000Y-142113000D02*
X177419011Y-149225011D01*
X178106868Y-150173260D02*
X178331867Y-150398259D01*
X165100000Y-139700000D02*
X167259000Y-141859000D01*
X167259000Y-141859000D02*
X170434000Y-141859000D01*
X177927000Y-149352000D02*
X177927000Y-149606000D01*
X170434000Y-141859000D02*
X177927000Y-149352000D01*
X185420000Y-148671170D02*
X184547895Y-149543275D01*
X185420000Y-144780000D02*
X185420000Y-148671170D01*
X168634225Y-139700000D02*
X178503829Y-149569604D01*
X178503829Y-149754495D02*
X178728828Y-149979494D01*
X178503829Y-149569604D02*
X178503829Y-149754495D01*
X167640000Y-139700000D02*
X168634225Y-139700000D01*
X186767199Y-148139989D02*
X184955904Y-149951284D01*
X193040000Y-144780000D02*
X189680011Y-148139989D01*
X189680011Y-148139989D02*
X186767199Y-148139989D01*
X148844000Y-143256000D02*
X152400000Y-139700000D01*
X147320000Y-143256000D02*
X148844000Y-143256000D01*
X146177000Y-146177000D02*
X146177000Y-144399000D01*
X146177000Y-144399000D02*
X147320000Y-143256000D01*
X152400000Y-152400000D02*
X146177000Y-146177000D01*
X154940000Y-139700000D02*
X154940000Y-144780000D01*
X157480000Y-139700000D02*
X162560000Y-144780000D01*
X160020000Y-139700000D02*
X162687000Y-142367000D01*
X162687000Y-142367000D02*
X170180000Y-142367000D01*
X170180000Y-142367000D02*
X177165000Y-149352000D01*
X177165000Y-149352000D02*
X177165000Y-149860000D01*
X177165000Y-149860000D02*
X178308000Y-151003000D01*
X189103000Y-151003000D02*
X190500000Y-152400000D01*
X180848000Y-151003000D02*
X189103000Y-151003000D01*
X189700001Y-127799999D02*
X190500000Y-127000000D01*
X180340000Y-152400000D02*
X180340000Y-150975724D01*
X176437502Y-147120558D02*
X176437502Y-141062498D01*
X176437502Y-141062498D02*
X189700001Y-127799999D01*
X180340000Y-150975724D02*
X178928269Y-149563993D01*
X178928269Y-149563993D02*
X178880937Y-149563993D01*
X178880937Y-149563993D02*
X176437502Y-147120558D01*
X191908630Y-127000000D02*
X193040000Y-127000000D01*
X182880000Y-144780000D02*
X182880000Y-136028630D01*
X182880000Y-136028630D02*
X191908630Y-127000000D01*
X193929000Y-128651000D02*
X191306709Y-128651000D01*
X189700001Y-143980001D02*
X190500000Y-144780000D01*
X195580000Y-127000000D02*
X193929000Y-128651000D01*
X184864211Y-135093498D02*
X184204558Y-135093498D01*
X191306709Y-128651000D02*
X184864211Y-135093498D01*
X183134000Y-136164056D02*
X183134000Y-141097000D01*
X184204558Y-135093498D02*
X183134000Y-136164056D01*
X184531000Y-142494000D02*
X188214000Y-142494000D01*
X183134000Y-141097000D02*
X184531000Y-142494000D01*
X188214000Y-142494000D02*
X189700001Y-143980001D01*
X236220000Y-129413000D02*
X232791000Y-132842000D01*
X236220000Y-127000000D02*
X236220000Y-129413000D01*
X185927990Y-137413990D02*
X185293000Y-136779000D01*
X187198000Y-138557000D02*
X186435998Y-138556998D01*
X185293000Y-136779000D02*
X185166000Y-136779000D01*
X185927990Y-138048990D02*
X185927990Y-137413990D01*
X186435998Y-138556998D02*
X185927990Y-138048990D01*
X196596000Y-136144000D02*
X189611000Y-136144000D01*
X197320001Y-135419999D02*
X196596000Y-136144000D01*
X198120000Y-134620000D02*
X197320001Y-135419999D01*
X189611000Y-136144000D02*
X187198000Y-138557000D01*
X236474011Y-129746610D02*
X233524766Y-132695855D01*
X238760000Y-127000000D02*
X236474011Y-129285989D01*
X236474011Y-129285989D02*
X236474011Y-129746610D01*
X186182000Y-136906000D02*
X186182000Y-137943776D01*
X186182000Y-137943776D02*
X186541213Y-138302989D01*
X189484000Y-135890000D02*
X194310000Y-135890000D01*
X194310000Y-135890000D02*
X194780001Y-135419999D01*
X186541213Y-138302989D02*
X187071011Y-138302989D01*
X194780001Y-135419999D02*
X195580000Y-134620000D01*
X187071011Y-138302989D02*
X189484000Y-135890000D01*
X192024011Y-135635989D02*
X192240001Y-135419999D01*
X187198000Y-137414000D02*
X188976011Y-135635989D01*
X192240001Y-135419999D02*
X193040000Y-134620000D01*
X188976011Y-135635989D02*
X192024011Y-135635989D01*
X241300000Y-127000000D02*
X240168630Y-127000000D01*
X236520140Y-130648490D02*
X236474000Y-130648490D01*
X240168630Y-127000000D02*
X236520140Y-130648490D01*
X186724510Y-137264120D02*
X186724510Y-137829510D01*
X189368630Y-134620000D02*
X186724510Y-137264120D01*
X190500000Y-134620000D02*
X189368630Y-134620000D01*
X242452635Y-128387365D02*
X239880393Y-128387365D01*
X238261282Y-130006476D02*
X238261282Y-130621420D01*
X239880393Y-128387365D02*
X238261282Y-130006476D01*
X243840000Y-127000000D02*
X242452635Y-128387365D01*
X246380000Y-127000000D02*
X244729055Y-128650945D01*
X240231757Y-128650945D02*
X240079835Y-128802867D01*
X244729055Y-128650945D02*
X240231757Y-128650945D01*
X235077000Y-113157000D02*
X236220000Y-114300000D01*
X197815800Y-121920000D02*
X198958789Y-120777011D01*
X198958789Y-120777011D02*
X225687047Y-120777011D01*
X225687047Y-120777011D02*
X233307058Y-113157000D01*
X233307058Y-113157000D02*
X235077000Y-113157000D01*
X218440000Y-152400000D02*
X217170000Y-153670000D01*
X208084058Y-153670000D02*
X207010000Y-152595942D01*
X217170000Y-153670000D02*
X208084058Y-153670000D01*
X207010000Y-152595942D02*
X207010000Y-143891000D01*
X207010000Y-143891000D02*
X209042000Y-141859000D01*
X209042000Y-141859000D02*
X222758000Y-141859000D01*
X222758000Y-141859000D02*
X231140000Y-133477000D01*
X231140000Y-133477000D02*
X231140000Y-121920000D01*
X231140000Y-121920000D02*
X236220000Y-116840000D01*
X236220000Y-116840000D02*
X236220000Y-114300000D01*
X237363000Y-112903000D02*
X233172000Y-112903000D01*
X225552000Y-120523000D02*
X196672800Y-120523000D01*
X196672800Y-120523000D02*
X195275800Y-121920000D01*
X233172000Y-112903000D02*
X225552000Y-120523000D01*
X238760000Y-114300000D02*
X237363000Y-112903000D01*
X210820000Y-152400000D02*
X207289499Y-148869499D01*
X209169000Y-142113000D02*
X222885000Y-142113000D01*
X222885000Y-142113000D02*
X231394000Y-133604000D01*
X207289499Y-148869499D02*
X207289499Y-143992501D01*
X231394000Y-133604000D02*
X231394000Y-122047000D01*
X237960001Y-115099999D02*
X238760000Y-114300000D01*
X207289499Y-143992501D02*
X209169000Y-142113000D01*
X231394000Y-122047000D02*
X236474011Y-116966989D01*
X236474011Y-116966989D02*
X236474011Y-116585989D01*
X236474011Y-116585989D02*
X237960001Y-115099999D01*
X241300000Y-114300000D02*
X239649000Y-112649000D01*
X225425000Y-120269000D02*
X194386800Y-120269000D01*
X194386800Y-120269000D02*
X192735800Y-121920000D01*
X233045000Y-112649000D02*
X225425000Y-120269000D01*
X239649000Y-112649000D02*
X233045000Y-112649000D01*
X240500001Y-115099999D02*
X241300000Y-114300000D01*
X213360000Y-144780000D02*
X215773000Y-142367000D01*
X222990225Y-142367000D02*
X231648011Y-133709214D01*
X215773000Y-142367000D02*
X222990225Y-142367000D01*
X240151196Y-115448804D02*
X240500001Y-115099999D01*
X238351420Y-115448804D02*
X240151196Y-115448804D01*
X231648011Y-133709214D02*
X231648011Y-122152213D01*
X231648011Y-122152213D02*
X238351420Y-115448804D01*
X243040001Y-113500001D02*
X243840000Y-114300000D01*
X225298000Y-120015000D02*
X233045011Y-112267989D01*
X233045011Y-112267989D02*
X241807989Y-112267989D01*
X192100800Y-120015000D02*
X225298000Y-120015000D01*
X190195800Y-121920000D02*
X192100800Y-120015000D01*
X241807989Y-112267989D02*
X243040001Y-113500001D01*
X231902022Y-133857978D02*
X220980000Y-144780000D01*
X238456635Y-115702815D02*
X231902022Y-122257427D01*
X231902022Y-122257427D02*
X231902022Y-133857978D01*
X241305815Y-115702815D02*
X238456635Y-115702815D01*
X242708630Y-114300000D02*
X241305815Y-115702815D01*
X243840000Y-114300000D02*
X242708630Y-114300000D01*
X244093978Y-112013978D02*
X232918022Y-112013978D01*
X246380000Y-114300000D02*
X244093978Y-112013978D01*
X232918022Y-112013978D02*
X225171000Y-119761000D01*
X225171000Y-119761000D02*
X189814800Y-119761000D01*
X189814800Y-119761000D02*
X188455799Y-121120001D01*
X188455799Y-121120001D02*
X187655800Y-121920000D01*
X222720001Y-77940001D02*
X223520000Y-78740000D01*
X182680501Y-76399499D02*
X221179499Y-76399499D01*
X221179499Y-76399499D02*
X222720001Y-77940001D01*
X180340000Y-78740000D02*
X182680501Y-76399499D01*
X211619999Y-79539999D02*
X210820000Y-78740000D01*
X212217000Y-80137000D02*
X211619999Y-79539999D01*
X252603000Y-80137000D02*
X212217000Y-80137000D01*
X254000000Y-78740000D02*
X252603000Y-80137000D01*
X288290000Y-259080000D02*
X288290000Y-255270000D01*
X297523000Y-251460000D02*
X298450000Y-251460000D01*
X289089999Y-254470001D02*
X294512999Y-254470001D01*
X294512999Y-254470001D02*
X297523000Y-251460000D01*
X288290000Y-255270000D02*
X289089999Y-254470001D01*
X300228000Y-251460000D02*
X298450000Y-251460000D01*
X347980000Y-241302000D02*
X347976200Y-241298200D01*
X347980000Y-244475000D02*
X347980000Y-241302000D01*
X345440000Y-241302000D02*
X345436200Y-241298200D01*
X345440000Y-244221000D02*
X345440000Y-241302000D01*
X288633000Y-275590000D02*
X283210000Y-275590000D01*
X292443000Y-271780000D02*
X288633000Y-275590000D01*
X293370000Y-271780000D02*
X292443000Y-271780000D01*
X283210000Y-275590000D02*
X283210000Y-279400000D01*
X342900000Y-241302000D02*
X342896200Y-241298200D01*
X342900000Y-243967000D02*
X342900000Y-241302000D01*
X340360000Y-241302000D02*
X340356200Y-241298200D01*
X340360000Y-243713000D02*
X340360000Y-241302000D01*
X322775942Y-271780000D02*
X323850000Y-271780000D01*
X318965942Y-275590000D02*
X322775942Y-271780000D01*
X313690000Y-275590000D02*
X318965942Y-275590000D01*
X337820000Y-241302000D02*
X337816200Y-241298200D01*
X337820000Y-243459000D02*
X337820000Y-241302000D01*
X335280000Y-241302000D02*
X335276200Y-241298200D01*
X335280000Y-243205000D02*
X335280000Y-241302000D01*
X348907000Y-275590000D02*
X354330000Y-275590000D01*
X345097000Y-271780000D02*
X348907000Y-275590000D01*
X344170000Y-271780000D02*
X345097000Y-271780000D01*
X354330000Y-275590000D02*
X354330000Y-279400000D01*
X218948000Y-149352000D02*
X215900000Y-152400000D01*
X228092000Y-149352000D02*
X218948000Y-149352000D01*
X236220000Y-157480000D02*
X228092000Y-149352000D01*
X243840000Y-157480000D02*
X240665000Y-154305000D01*
X234169058Y-154305000D02*
X228454058Y-148590000D01*
X240665000Y-154305000D02*
X234169058Y-154305000D01*
X222250000Y-148590000D02*
X218440000Y-144780000D01*
X228454058Y-148590000D02*
X222250000Y-148590000D01*
X209079999Y-153199999D02*
X208280000Y-152400000D01*
X209270501Y-153390501D02*
X209079999Y-153199999D01*
X211295441Y-153390501D02*
X209270501Y-153390501D01*
X211810501Y-152875441D02*
X211295441Y-153390501D01*
X215196058Y-149098000D02*
X211810501Y-152483557D01*
X211810501Y-152483557D02*
X211810501Y-152875441D01*
X228219000Y-149098000D02*
X215196058Y-149098000D01*
X233934000Y-154813000D02*
X228219000Y-149098000D01*
X236093000Y-154813000D02*
X233934000Y-154813000D01*
X238760000Y-157480000D02*
X236093000Y-154813000D01*
X308889499Y-226339499D02*
X309080001Y-226530001D01*
X309080001Y-226530001D02*
X309880000Y-227330000D01*
X297116499Y-226339499D02*
X308889499Y-226339499D01*
X290487000Y-219710000D02*
X297116499Y-226339499D01*
X289560000Y-219710000D02*
X290487000Y-219710000D01*
X350520000Y-184150000D02*
X350520000Y-190500000D01*
X315430001Y-258280001D02*
X316230000Y-259080000D01*
X307213000Y-257937000D02*
X315087000Y-257937000D01*
X315087000Y-257937000D02*
X315430001Y-258280001D01*
X306070000Y-259080000D02*
X307213000Y-257937000D01*
X189068490Y-134151401D02*
X187914415Y-132997326D01*
X187914415Y-132997326D02*
X187914415Y-132651489D01*
X161671000Y-126111000D02*
X160020000Y-124460000D01*
X161671000Y-133096000D02*
X161671000Y-126111000D01*
X242099999Y-145579999D02*
X241300000Y-144780000D01*
X256688776Y-148971000D02*
X245491000Y-148971000D01*
X252984000Y-155956000D02*
X255905000Y-155956000D01*
X245491000Y-148971000D02*
X242099999Y-145579999D01*
X258038523Y-150320747D02*
X256688776Y-148971000D01*
X258038523Y-153822477D02*
X258038523Y-150320747D01*
X255905000Y-155956000D02*
X258038523Y-153822477D01*
X251460000Y-157480000D02*
X252984000Y-155956000D01*
X247179999Y-151600001D02*
X246380000Y-152400000D01*
X246380000Y-157480000D02*
X248412021Y-155447979D01*
X248412021Y-155447979D02*
X255694572Y-155447978D01*
X255694572Y-155447978D02*
X257530501Y-153612049D01*
X257530501Y-153612049D02*
X257530501Y-150552951D01*
X249300978Y-149479022D02*
X247179999Y-151600001D01*
X256456572Y-149479022D02*
X249300978Y-149479022D01*
X257530501Y-150552951D02*
X256456572Y-149479022D01*
X252857000Y-148717000D02*
X248920000Y-144780000D01*
X256794000Y-148717000D02*
X252857000Y-148717000D01*
X254000000Y-157480000D02*
X255270000Y-156210000D01*
X258318000Y-153924000D02*
X258318000Y-150241000D01*
X256032000Y-156210000D02*
X258318000Y-153924000D01*
X255270000Y-156210000D02*
X256032000Y-156210000D01*
X258318000Y-150241000D02*
X256794000Y-148717000D01*
X255799786Y-155701989D02*
X250698011Y-155701989D01*
X250698011Y-155701989D02*
X248920000Y-157480000D01*
X257784512Y-153717263D02*
X255799786Y-155701989D01*
X257784512Y-150447737D02*
X257784512Y-153717263D01*
X256561786Y-149225011D02*
X257784512Y-150447737D01*
X241934989Y-149225011D02*
X256561786Y-149225011D01*
X238760000Y-152400000D02*
X241934989Y-149225011D01*
X228346000Y-148844000D02*
X214884000Y-148844000D01*
X234061000Y-154559000D02*
X228346000Y-148844000D01*
X214884000Y-148844000D02*
X210820000Y-144780000D01*
X238379000Y-154559000D02*
X234061000Y-154559000D01*
X241300000Y-157480000D02*
X238379000Y-154559000D01*
X215900000Y-157480000D02*
X212598000Y-154178000D01*
X212598000Y-154178000D02*
X203200000Y-154178000D01*
X203200000Y-154178000D02*
X197993000Y-148971000D01*
X197993000Y-148971000D02*
X186944000Y-148971000D01*
X186944000Y-148971000D02*
X185547000Y-150368000D01*
X185547000Y-150368000D02*
X184785000Y-150368000D01*
X180340000Y-145923000D02*
X180340000Y-144780000D01*
X184785000Y-150368000D02*
X180340000Y-145923000D01*
X207137000Y-161163000D02*
X210820000Y-157480000D01*
X199263000Y-161163000D02*
X207137000Y-161163000D01*
X191897000Y-153797000D02*
X199263000Y-161163000D01*
X186817000Y-153797000D02*
X191897000Y-153797000D01*
X185420000Y-152400000D02*
X186817000Y-153797000D01*
X203308058Y-153924000D02*
X197939548Y-148555490D01*
X197939548Y-148555490D02*
X189650166Y-148555490D01*
X214884000Y-153924000D02*
X203308058Y-153924000D01*
X218440000Y-157480000D02*
X214884000Y-153924000D01*
X191770000Y-154051000D02*
X179451000Y-154051000D01*
X179451000Y-154051000D02*
X177800000Y-152400000D01*
X199136000Y-161417000D02*
X191770000Y-154051000D01*
X209423000Y-161417000D02*
X199136000Y-161417000D01*
X213360000Y-157480000D02*
X209423000Y-161417000D01*
X156718000Y-154686000D02*
X154940000Y-152908000D01*
X154940000Y-152908000D02*
X154940000Y-152400000D01*
X147320000Y-153035000D02*
X147320000Y-152400000D01*
X148717000Y-154432000D02*
X147320000Y-153035000D01*
X240919000Y-182499000D02*
X228600000Y-170180000D01*
X240919000Y-186944000D02*
X240919000Y-182499000D01*
X239395000Y-188468000D02*
X240919000Y-186944000D01*
X192536800Y-188468000D02*
X239395000Y-188468000D01*
X190509000Y-190495800D02*
X192536800Y-188468000D01*
X194822789Y-188722011D02*
X193848999Y-189695801D01*
X241173009Y-187049215D02*
X239500214Y-188722011D01*
X231140000Y-170180000D02*
X241173009Y-180213009D01*
X241173009Y-180213009D02*
X241173009Y-187049215D01*
X193848999Y-189695801D02*
X193049000Y-190495800D01*
X239500214Y-188722011D02*
X194822789Y-188722011D01*
X241427020Y-177927020D02*
X234479999Y-170979999D01*
X197108778Y-188976022D02*
X239605428Y-188976022D01*
X239605428Y-188976022D02*
X241427020Y-187154429D01*
X234479999Y-170979999D02*
X233680000Y-170180000D01*
X195589000Y-190495800D02*
X197108778Y-188976022D01*
X241427020Y-187154429D02*
X241427020Y-177927020D01*
X241681031Y-175641031D02*
X241681031Y-187259643D01*
X199394767Y-189230033D02*
X198928999Y-189695801D01*
X239710642Y-189230033D02*
X199394767Y-189230033D01*
X241681031Y-187259643D02*
X239710642Y-189230033D01*
X198928999Y-189695801D02*
X198129000Y-190495800D01*
X236220000Y-170180000D02*
X241681031Y-175641031D01*
X238760000Y-170180000D02*
X241935042Y-173355042D01*
X201468999Y-189695801D02*
X200669000Y-190495800D01*
X241935042Y-173355042D02*
X241935042Y-187364857D01*
X241935042Y-187364857D02*
X239794600Y-189505299D01*
X239794600Y-189505299D02*
X201659501Y-189505299D01*
X201659501Y-189505299D02*
X201468999Y-189695801D01*
X289560000Y-234950000D02*
X286004000Y-231394000D01*
X280225500Y-227081442D02*
X280225500Y-225615500D01*
X286004000Y-231394000D02*
X284538058Y-231394000D01*
X284538058Y-231394000D02*
X280225500Y-227081442D01*
X280225500Y-225615500D02*
X276860000Y-222250000D01*
X288163000Y-220853000D02*
X288163000Y-219202000D01*
X289560000Y-222250000D02*
X288163000Y-220853000D01*
X313042499Y-218719499D02*
X314033000Y-219710000D01*
X288645501Y-218719499D02*
X313042499Y-218719499D01*
X314033000Y-219710000D02*
X314960000Y-219710000D01*
X288163000Y-219202000D02*
X288645501Y-218719499D01*
X303784000Y-232410000D02*
X307340000Y-228854000D01*
X302260000Y-232410000D02*
X303784000Y-232410000D01*
X306578000Y-225552000D02*
X309880000Y-222250000D01*
X304927000Y-225552000D02*
X306578000Y-225552000D01*
X215900000Y-266700000D02*
X202565000Y-266700000D01*
X202565000Y-266700000D02*
X201295000Y-265430000D01*
X201295000Y-265430000D02*
X193675000Y-265430000D01*
X182372000Y-261620000D02*
X180340000Y-261620000D01*
X182626000Y-261874000D02*
X182372000Y-261620000D01*
X182626000Y-263017000D02*
X175191058Y-263017000D01*
X171415529Y-255235529D02*
X167640000Y-251460000D01*
X171415529Y-259241471D02*
X171415529Y-255235529D01*
X175191058Y-263017000D02*
X171415529Y-259241471D01*
X166840001Y-254799999D02*
X167640000Y-254000000D01*
X163359999Y-258280001D02*
X166840001Y-254799999D01*
X163359999Y-259550001D02*
X163359999Y-258280001D01*
X162560000Y-260350000D02*
X163359999Y-259550001D01*
X203962000Y-271780000D02*
X202692000Y-273050000D01*
X215900000Y-271780000D02*
X203962000Y-271780000D01*
X182880000Y-267081000D02*
X181229000Y-265430000D01*
X181229000Y-265430000D02*
X173990000Y-265430000D01*
X173990000Y-265430000D02*
X170307000Y-261747000D01*
X170307000Y-256667000D02*
X167640000Y-254000000D01*
X170307000Y-261747000D02*
X170307000Y-256667000D01*
X186864288Y-125730088D02*
X199390088Y-125730088D01*
X200355800Y-114300000D02*
X199085876Y-115569924D01*
X184276912Y-118282571D02*
X184276912Y-123142712D01*
X199860001Y-126200001D02*
X200660000Y-127000000D01*
X199085876Y-115569924D02*
X186989559Y-115569924D01*
X186989559Y-115569924D02*
X184276912Y-118282571D01*
X199390088Y-125730088D02*
X199860001Y-126200001D01*
X184276912Y-123142712D02*
X186864288Y-125730088D01*
X253589999Y-105380999D02*
X254605999Y-105380999D01*
X253365000Y-105156000D02*
X253589999Y-105380999D01*
X257809987Y-109689238D02*
X257079513Y-110419712D01*
X254605999Y-105380999D02*
X257809987Y-108584987D01*
X257079513Y-110419712D02*
X204236088Y-110419712D01*
X257809987Y-108584987D02*
X257809987Y-109689238D01*
X204236088Y-110419712D02*
X201155799Y-113500001D01*
X201155799Y-113500001D02*
X200355800Y-114300000D01*
X255016000Y-104648000D02*
X255397000Y-105029000D01*
X255397000Y-105029000D02*
X255397000Y-105410000D01*
X255397000Y-105410000D02*
X258318000Y-108331000D01*
X187074716Y-125222066D02*
X203962066Y-125222066D01*
X205435800Y-114300000D02*
X203657854Y-116077946D01*
X184784934Y-118492999D02*
X184784934Y-122932284D01*
X204940001Y-126200001D02*
X205740000Y-127000000D01*
X187199987Y-116077946D02*
X184784934Y-118492999D01*
X203657854Y-116077946D02*
X187199987Y-116077946D01*
X184784934Y-122932284D02*
X187074716Y-125222066D01*
X203962066Y-125222066D02*
X204940001Y-126200001D01*
X241115698Y-106841502D02*
X248103442Y-106841502D01*
X248103442Y-106841502D02*
X248137944Y-106807000D01*
X238782000Y-109175200D02*
X241115698Y-106841502D01*
X248137944Y-106807000D02*
X254889000Y-106807000D01*
X205435800Y-114300000D02*
X208808066Y-110927734D01*
X258318009Y-109899665D02*
X258318009Y-108352785D01*
X257289940Y-110927734D02*
X258318009Y-109899665D01*
X208808066Y-110927734D02*
X257289940Y-110927734D01*
X184022901Y-123247926D02*
X184022901Y-118177357D01*
X186884345Y-115315913D02*
X196799887Y-115315913D01*
X186759074Y-125984099D02*
X184022901Y-123247926D01*
X197104099Y-125984099D02*
X186759074Y-125984099D01*
X196799887Y-115315913D02*
X197015801Y-115099999D01*
X197015801Y-115099999D02*
X197815800Y-114300000D01*
X184022901Y-118177357D02*
X186884345Y-115315913D01*
X198120000Y-127000000D02*
X197104099Y-125984099D01*
X257552501Y-108699759D02*
X257552501Y-109587499D01*
X254639371Y-105786629D02*
X257552501Y-108699759D01*
X201950099Y-110165701D02*
X198615799Y-113500001D01*
X257552501Y-109587499D02*
X256974299Y-110165701D01*
X253173429Y-105786629D02*
X254639371Y-105786629D01*
X248942000Y-101555200D02*
X253173429Y-105786629D01*
X256974299Y-110165701D02*
X201950099Y-110165701D01*
X198615799Y-113500001D02*
X197815800Y-114300000D01*
X246402000Y-109175200D02*
X248354690Y-107222510D01*
X248354690Y-107222510D02*
X254223508Y-107222510D01*
X186969502Y-125476077D02*
X201676077Y-125476077D01*
X202895800Y-114300000D02*
X201371865Y-115823935D01*
X202400001Y-126200001D02*
X203200000Y-127000000D01*
X187094773Y-115823935D02*
X184530923Y-118387785D01*
X201371865Y-115823935D02*
X187094773Y-115823935D01*
X184530923Y-123037498D02*
X186969502Y-125476077D01*
X201676077Y-125476077D02*
X202400001Y-126200001D01*
X184530923Y-118387785D02*
X184530923Y-123037498D01*
X254508000Y-104902000D02*
X258063998Y-108457998D01*
X206522077Y-110673723D02*
X203695799Y-113500001D01*
X257184726Y-110673723D02*
X206522077Y-110673723D01*
X258063998Y-109794451D02*
X257184726Y-110673723D01*
X203695799Y-113500001D02*
X202895800Y-114300000D01*
X254127000Y-104902000D02*
X254508000Y-104902000D01*
X258063998Y-108457998D02*
X258063998Y-109794451D01*
X212156800Y-102870000D02*
X223901000Y-102870000D01*
X210842000Y-101555200D02*
X212156800Y-102870000D01*
X185292956Y-122721856D02*
X187285144Y-124714044D01*
X210515800Y-114300000D02*
X208229832Y-116585968D01*
X208229832Y-116585968D02*
X187410415Y-116585968D01*
X187285144Y-124714044D02*
X208534044Y-124714044D01*
X210020001Y-126200001D02*
X210820000Y-127000000D01*
X208534044Y-124714044D02*
X210020001Y-126200001D01*
X185292956Y-118703427D02*
X185292956Y-122721856D01*
X187410415Y-116585968D02*
X185292956Y-118703427D01*
X213472552Y-111343248D02*
X213487000Y-111343248D01*
X210515800Y-114300000D02*
X213472552Y-111343248D01*
X208302000Y-109175200D02*
X209654200Y-107823000D01*
X209654200Y-107823000D02*
X220980000Y-107823000D01*
X220980000Y-107823000D02*
X225171000Y-103632000D01*
X225171000Y-103632000D02*
X225171000Y-103378000D01*
X209184169Y-124206044D02*
X213106044Y-124206044D01*
X212801810Y-117093990D02*
X187620843Y-117093990D01*
X187495571Y-124206021D02*
X209184147Y-124206022D01*
X215595800Y-114300000D02*
X212801810Y-117093990D01*
X187620843Y-117093990D02*
X185800978Y-118913855D01*
X185800978Y-118913855D02*
X185800978Y-122511428D01*
X215100001Y-126200001D02*
X215900000Y-127000000D01*
X209184147Y-124206022D02*
X209184169Y-124206044D01*
X213106044Y-124206044D02*
X215100001Y-126200001D01*
X185800978Y-122511428D02*
X187495571Y-124206021D01*
X218516800Y-111379000D02*
X218567000Y-111379000D01*
X215595800Y-114300000D02*
X218516800Y-111379000D01*
X207975800Y-114300000D02*
X205943843Y-116331957D01*
X207480001Y-126200001D02*
X208280000Y-127000000D01*
X187179930Y-124968055D02*
X206248055Y-124968055D01*
X185038945Y-122827070D02*
X187179930Y-124968055D01*
X205943843Y-116331957D02*
X187305201Y-116331957D01*
X185038945Y-118598213D02*
X185038945Y-122827070D01*
X206248055Y-124968055D02*
X207480001Y-126200001D01*
X187305201Y-116331957D02*
X185038945Y-118598213D01*
X207975800Y-114300000D02*
X210932556Y-111343244D01*
X210932556Y-111343244D02*
X211048900Y-111343244D01*
X225586502Y-103178558D02*
X225277944Y-102870000D01*
X215922000Y-109175200D02*
X216912501Y-108184699D01*
X225277944Y-102870000D02*
X224536000Y-102870000D01*
X216912501Y-108184699D02*
X220977525Y-108184699D01*
X220977525Y-108184699D02*
X225586502Y-103575722D01*
X225586502Y-103575722D02*
X225586502Y-103178558D01*
X213055800Y-114300000D02*
X210515821Y-116839979D01*
X187390358Y-124460033D02*
X209078933Y-124460033D01*
X187515629Y-116839979D02*
X185546967Y-118808641D01*
X185546967Y-122616642D02*
X187390358Y-124460033D01*
X185546967Y-118808641D02*
X185546967Y-122616642D01*
X212560001Y-126200001D02*
X213360000Y-127000000D01*
X210820055Y-124460055D02*
X212560001Y-126200001D01*
X210515821Y-116839979D02*
X187515629Y-116839979D01*
X209078933Y-124460033D02*
X209078955Y-124460055D01*
X209078955Y-124460055D02*
X210820055Y-124460055D01*
X213055800Y-114300000D02*
X216012554Y-111343246D01*
X216012554Y-111343246D02*
X216027000Y-111343246D01*
X218864550Y-130937000D02*
X214503000Y-130937000D01*
X214786600Y-122935966D02*
X215802656Y-123952022D01*
X210515800Y-121920000D02*
X211531766Y-122935966D01*
X220599022Y-123952022D02*
X222503978Y-125856980D01*
X222503978Y-125856980D02*
X222503978Y-128137376D01*
X215802656Y-123952022D02*
X220599022Y-123952022D01*
X222503978Y-128137376D02*
X219704376Y-130936978D01*
X218864572Y-130936978D02*
X218864550Y-130937000D01*
X219704376Y-130936978D02*
X218864572Y-130936978D01*
X214503000Y-130937000D02*
X211619999Y-133820001D01*
X211531766Y-122935966D02*
X214786600Y-122935966D01*
X211619999Y-133820001D02*
X210820000Y-134620000D01*
X222224512Y-125942385D02*
X222224512Y-128041489D01*
X209245777Y-123189977D02*
X214681386Y-123189977D01*
X220488160Y-124206033D02*
X222224512Y-125942385D01*
X207975800Y-121920000D02*
X209245777Y-123189977D01*
X214681386Y-123189977D02*
X215697442Y-124206033D01*
X209079999Y-133820001D02*
X208280000Y-134620000D01*
X215697442Y-124206033D02*
X220488160Y-124206033D01*
X222224512Y-128041489D02*
X219583023Y-130682978D01*
X219583023Y-130682978D02*
X212217022Y-130682978D01*
X212217022Y-130682978D02*
X209079999Y-133820001D01*
X216788989Y-131191011D02*
X218969764Y-131191011D01*
X218969764Y-131191011D02*
X218969786Y-131190989D01*
X213360000Y-134620000D02*
X216788989Y-131191011D01*
X219809589Y-131190989D02*
X222757989Y-128242589D01*
X222757989Y-125751766D02*
X220704236Y-123698011D01*
X214187170Y-121920000D02*
X213055800Y-121920000D01*
X218969786Y-131190989D02*
X219809589Y-131190989D01*
X222757989Y-128242589D02*
X222757989Y-125751766D01*
X215965181Y-123698011D02*
X214187170Y-121920000D01*
X220704236Y-123698011D02*
X215965181Y-123698011D01*
X220366819Y-124460044D02*
X221970501Y-126063726D01*
X219477809Y-130428967D02*
X207391033Y-130428967D01*
X214576172Y-123443988D02*
X215592228Y-124460044D01*
X202895800Y-121920000D02*
X204419788Y-123443988D01*
X204419788Y-123443988D02*
X214576172Y-123443988D01*
X221970501Y-126063726D02*
X221970501Y-127936275D01*
X207391033Y-130428967D02*
X203999999Y-133820001D01*
X203999999Y-133820001D02*
X203200000Y-134620000D01*
X215592228Y-124460044D02*
X220366819Y-124460044D01*
X221970501Y-127936275D02*
X219477809Y-130428967D01*
X210375936Y-118554936D02*
X210566000Y-118745000D01*
X210375936Y-118554936D02*
X198943116Y-118554936D01*
X217119800Y-123444000D02*
X215595800Y-121920000D01*
X223012000Y-125603000D02*
X220853000Y-123444000D01*
X219914802Y-131445000D02*
X223012000Y-128347802D01*
X219075000Y-131445000D02*
X219914802Y-131445000D01*
X220853000Y-123444000D02*
X217119800Y-123444000D01*
X215900000Y-134620000D02*
X219075000Y-131445000D01*
X223012000Y-128347802D02*
X223012000Y-125603000D01*
X217335801Y-115099999D02*
X218135800Y-114300000D01*
X188086999Y-117348001D02*
X215087799Y-117348001D01*
X215087799Y-117348001D02*
X217335801Y-115099999D01*
X188086999Y-117348001D02*
X187925422Y-117509578D01*
X187726057Y-117348001D02*
X188086999Y-117348001D01*
X217308630Y-127000000D02*
X214260640Y-123952010D01*
X218440000Y-127000000D02*
X217308630Y-127000000D01*
X214260640Y-123952010D02*
X187600785Y-123952010D01*
X186055000Y-122406224D02*
X186055000Y-119019058D01*
X186055000Y-119019058D02*
X187726057Y-117348001D01*
X187600785Y-123952010D02*
X186055000Y-122406224D01*
X156568200Y-107569000D02*
X159131000Y-107569000D01*
X154962000Y-109175200D02*
X156568200Y-107569000D01*
X219748800Y-114300000D02*
X220675800Y-114300000D01*
X216427400Y-117621400D02*
X188448600Y-117621400D01*
X216427400Y-117621400D02*
X219748800Y-114300000D01*
X188448600Y-117621400D02*
X187833000Y-118237000D01*
X187325000Y-118237000D02*
X186309000Y-119253000D01*
X186309000Y-119253000D02*
X186309000Y-122301000D01*
X186309000Y-122301000D02*
X187705999Y-123697999D01*
X220053000Y-127000000D02*
X220980000Y-127000000D01*
X219062499Y-126009499D02*
X220053000Y-127000000D01*
X216782458Y-126009499D02*
X219062499Y-126009499D01*
X187705999Y-123697999D02*
X214470958Y-123697999D01*
X214470958Y-123697999D02*
X216782458Y-126009499D01*
X187452000Y-118237000D02*
X187325000Y-118237000D01*
X187833000Y-118237000D02*
X187452000Y-118237000D01*
X326733000Y-219710000D02*
X327660000Y-219710000D01*
X325742499Y-220700501D02*
X326733000Y-219710000D01*
X322663557Y-220700501D02*
X325742499Y-220700501D01*
X315043557Y-225780501D02*
X317583557Y-225780501D01*
X317583557Y-225780501D02*
X322663557Y-220700501D01*
X312503557Y-228320501D02*
X315043557Y-225780501D01*
X290550501Y-228320501D02*
X312503557Y-228320501D01*
X289560000Y-227330000D02*
X290550501Y-228320501D01*
X353060040Y-128712632D02*
X353060050Y-128712622D01*
X353060000Y-128734456D02*
X353060039Y-128734418D01*
X353060000Y-134493000D02*
X353060000Y-128734456D01*
X358140000Y-139700000D02*
X355600000Y-142240000D01*
X349504020Y-138048980D02*
X353060000Y-134493000D01*
X350371224Y-142240000D02*
X349504020Y-141372796D01*
X349504020Y-141372796D02*
X349504020Y-138048980D01*
X353060039Y-128734418D02*
X353060040Y-128712632D01*
X355600000Y-142240000D02*
X350371224Y-142240000D01*
X353060050Y-57403950D02*
X353059950Y-57403950D01*
X353060050Y-128712622D02*
X353060050Y-57403950D01*
X313269999Y-54189999D02*
X312420000Y-53340000D01*
X313460501Y-54380501D02*
X313269999Y-54189999D01*
X350036501Y-54380501D02*
X313460501Y-54380501D01*
X353059950Y-57403950D02*
X350036501Y-54380501D01*
X310642000Y-57658000D02*
X312420000Y-55880000D01*
X298069000Y-57658000D02*
X310642000Y-57658000D01*
X294894000Y-60833000D02*
X298069000Y-57658000D01*
X294894000Y-132842000D02*
X294894000Y-60833000D01*
X338455000Y-135255000D02*
X297307000Y-135255000D01*
X340106000Y-136906000D02*
X338455000Y-135255000D01*
X339725000Y-137795000D02*
X340106000Y-137414000D01*
X340106000Y-137414000D02*
X340106000Y-136906000D01*
X329565000Y-137795000D02*
X339725000Y-137795000D01*
X297307000Y-135255000D02*
X294894000Y-132842000D01*
X327660000Y-139700000D02*
X329565000Y-137795000D01*
X350012000Y-143002000D02*
X362458000Y-143002000D01*
X352297989Y-134112011D02*
X348742000Y-137668000D01*
X352297989Y-128418786D02*
X352297989Y-134112011D01*
X348879902Y-100457000D02*
X352298020Y-103875118D01*
X348742000Y-141732000D02*
X350012000Y-143002000D01*
X352298020Y-128418755D02*
X352297989Y-128418786D01*
X362458000Y-143002000D02*
X365760000Y-139700000D01*
X348742000Y-137668000D02*
X348742000Y-141732000D01*
X352298020Y-103875118D02*
X352298020Y-128418755D01*
X313817000Y-100457000D02*
X348879902Y-100457000D01*
X312420000Y-99060000D02*
X313817000Y-100457000D01*
X295656000Y-106045000D02*
X298196000Y-103505000D01*
X310515000Y-103505000D02*
X312420000Y-101600000D01*
X295656000Y-132461000D02*
X295656000Y-106045000D01*
X297688000Y-134493000D02*
X295656000Y-132461000D01*
X340868000Y-137795000D02*
X340868000Y-136525000D01*
X340106000Y-138557000D02*
X340868000Y-137795000D01*
X336423000Y-138557000D02*
X340106000Y-138557000D01*
X340868000Y-136525000D02*
X338836000Y-134493000D01*
X298196000Y-103505000D02*
X310515000Y-103505000D01*
X338836000Y-134493000D02*
X297688000Y-134493000D01*
X335280000Y-139700000D02*
X336423000Y-138557000D01*
X352806034Y-128629194D02*
X352806035Y-128607413D01*
X349250010Y-141478010D02*
X349250010Y-137921990D01*
X352806035Y-128607413D02*
X352806040Y-128607408D01*
X357886000Y-142494000D02*
X350266000Y-142494000D01*
X352806000Y-128629227D02*
X352806034Y-128629194D01*
X352806000Y-134366000D02*
X352806000Y-128629227D01*
X349250010Y-137921990D02*
X352806000Y-134366000D01*
X350266000Y-142494000D02*
X349250010Y-141478010D01*
X360680000Y-139700000D02*
X357886000Y-142494000D01*
X313460501Y-69620501D02*
X349401581Y-69620501D01*
X312420000Y-68580000D02*
X313460501Y-69620501D01*
X349401581Y-69620501D02*
X352806040Y-73024960D01*
X352806040Y-128607408D02*
X352806040Y-73024960D01*
X297434000Y-135001000D02*
X295148000Y-132715000D01*
X295148000Y-75692000D02*
X297942000Y-72898000D01*
X340360000Y-136779000D02*
X338582000Y-135001000D01*
X340360000Y-137541000D02*
X340360000Y-136779000D01*
X338582000Y-135001000D02*
X297434000Y-135001000D01*
X339852000Y-138049000D02*
X340360000Y-137541000D01*
X310642000Y-72898000D02*
X312420000Y-71120000D01*
X295148000Y-132715000D02*
X295148000Y-75692000D01*
X331851000Y-138049000D02*
X339852000Y-138049000D01*
X297942000Y-72898000D02*
X310642000Y-72898000D01*
X330200000Y-139700000D02*
X331851000Y-138049000D01*
X364744000Y-143256000D02*
X349906775Y-143256000D01*
X349906775Y-143256000D02*
X348487989Y-141837214D01*
X348487989Y-137562786D02*
X352043989Y-134006786D01*
X368300000Y-139700000D02*
X364744000Y-143256000D01*
X348487989Y-141837214D02*
X348487989Y-137562786D01*
X313817000Y-115697000D02*
X349123000Y-115697000D01*
X349123000Y-115697000D02*
X352043989Y-118617989D01*
X312420000Y-114300000D02*
X313817000Y-115697000D01*
X352043989Y-134006786D02*
X352043989Y-118617989D01*
X295910000Y-120650000D02*
X297942000Y-118618000D01*
X295910000Y-132334000D02*
X295910000Y-120650000D01*
X297815000Y-134239000D02*
X295910000Y-132334000D01*
X338963000Y-134239000D02*
X297815000Y-134239000D01*
X341122000Y-136398000D02*
X338963000Y-134239000D01*
X297942000Y-118618000D02*
X310642000Y-118618000D01*
X341122000Y-137922000D02*
X341122000Y-136398000D01*
X310642000Y-118618000D02*
X312420000Y-116840000D01*
X339344000Y-139700000D02*
X341122000Y-137922000D01*
X337820000Y-139700000D02*
X339344000Y-139700000D01*
X350117224Y-142748000D02*
X360172000Y-142748000D01*
X348996000Y-141626776D02*
X350117224Y-142748000D01*
X348996000Y-137795000D02*
X348996000Y-141626776D01*
X352552000Y-134239000D02*
X348996000Y-137795000D01*
X352552000Y-128523999D02*
X352552000Y-134239000D01*
X360172000Y-142748000D02*
X363220000Y-139700000D01*
X352552029Y-128523970D02*
X352552000Y-128523999D01*
X352552030Y-88889128D02*
X352552029Y-128523970D01*
X313460501Y-84860501D02*
X348523403Y-84860501D01*
X348523403Y-84860501D02*
X352552030Y-88889128D01*
X312420000Y-83820000D02*
X313460501Y-84860501D01*
X310642000Y-88138000D02*
X312420000Y-86360000D01*
X298069000Y-88138000D02*
X310642000Y-88138000D01*
X295402000Y-132588000D02*
X295402000Y-90805000D01*
X338709000Y-134747000D02*
X297561000Y-134747000D01*
X340614000Y-136652000D02*
X338709000Y-134747000D01*
X339979000Y-138303000D02*
X340614000Y-137668000D01*
X295402000Y-90805000D02*
X298069000Y-88138000D01*
X340614000Y-137668000D02*
X340614000Y-136652000D01*
X297561000Y-134747000D02*
X295402000Y-132588000D01*
X334137000Y-138303000D02*
X339979000Y-138303000D01*
X332740000Y-139700000D02*
X334137000Y-138303000D01*
X348233978Y-141942428D02*
X348233978Y-137457572D01*
X365760000Y-147320000D02*
X361950022Y-143510022D01*
X349801572Y-143510022D02*
X348233978Y-141942428D01*
X361950022Y-143510022D02*
X349801572Y-143510022D01*
X312420000Y-129540000D02*
X313817000Y-130937000D01*
X313817000Y-130937000D02*
X348879902Y-130937000D01*
X351430775Y-133487873D02*
X351430775Y-134260775D01*
X348879902Y-130937000D02*
X351430775Y-133487873D01*
X348233978Y-137457572D02*
X351430775Y-134260775D01*
X339090000Y-133985000D02*
X314325000Y-133985000D01*
X314325000Y-133985000D02*
X312420000Y-132080000D01*
X341376000Y-136271000D02*
X339090000Y-133985000D01*
X341376000Y-141224000D02*
X341376000Y-136271000D01*
X335280000Y-147320000D02*
X341376000Y-141224000D01*
X218440000Y-134620000D02*
X216662000Y-136398000D01*
X186309000Y-138811000D02*
X184404000Y-136906000D01*
X184404000Y-136906000D02*
X184404000Y-135509000D01*
X187325000Y-138811000D02*
X186309000Y-138811000D01*
X216662000Y-136398000D02*
X189738000Y-136398000D01*
X189738000Y-136398000D02*
X187325000Y-138811000D01*
X175387000Y-120777000D02*
X175387000Y-134620000D01*
X173990000Y-119380000D02*
X175387000Y-120777000D01*
X172720000Y-119380000D02*
X173990000Y-119380000D01*
X174752000Y-124968000D02*
X172720000Y-127000000D01*
X174752000Y-122682000D02*
X174752000Y-124968000D01*
X189357000Y-133350000D02*
X188849000Y-132842000D01*
X189357000Y-133604000D02*
X189357000Y-133350000D01*
X170688000Y-123952000D02*
X172720000Y-121920000D01*
X170688000Y-129413000D02*
X170688000Y-123952000D01*
M02*
