M48
; DRILL file {KiCad (5.1.0-0)} date Tuesday, October 08, 2019 at 11:09:12 PM
; FORMAT={-:-/ absolute / inch / decimal}
; #@! TF.CreationDate,2019-10-08T23:09:12-07:00
; #@! TF.GenerationSoftware,Kicad,Pcbnew,(5.1.0-0)
FMAT,2
INCH
T1C0.0079
T2C0.0295
T3C0.0315
T4C0.0354
T5C0.0394
T6C0.0433
T7C0.0512
T8C0.1260
%
G90
G05
T1
X2.0723Y-3.485
X2.077Y-3.4628
X2.155Y-5.48
X2.2972Y-3.4775
X2.3Y-2.81
X2.4Y-2.82
X2.47Y-5.49
X2.5Y-2.83
X2.565Y-3.635
X2.6Y-2.84
X2.6Y-8.36
X2.6Y-8.5446
X2.665Y-4.64
X2.7Y-2.85
X2.7Y-6.63
X2.8Y-2.86
X2.8Y-6.62
X2.805Y-2.275
X2.9Y-2.87
X2.9Y-6.61
X2.9Y-8.37
X2.9Y-8.5336
X2.9999Y-8.3764
X3.0Y-6.6
X3.0Y-8.52
X3.02Y-4.495
X3.075Y-8.47
X3.1Y-6.59
X3.18Y-4.23
X3.2Y-6.58
X3.205Y-4.7
X3.3Y-6.57
X3.305Y-5.29
X3.32Y-5.345
X3.3209Y-5.3212
X3.3366Y-5.3047
X3.42Y-5.345
X3.455Y-10.265
X3.455Y-10.29
X3.455Y-10.315
X3.49Y-9.71
X3.49Y-9.755
X3.49Y-9.8
X3.5Y-9.2
X3.5Y-9.915
X3.56Y-4.735
X3.5657Y-5.2875
X3.5817Y-5.3036
X3.59Y-4.785
X3.596Y-9.439
X3.6Y-2.88
X3.63Y-4.79
X3.6514Y-4.8264
X3.67Y-4.81
X3.68Y-4.055
X3.6982Y-4.6225
X3.6986Y-4.0264
X3.7Y-2.89
X3.735Y-4.63
X3.7436Y-4.6816
X3.755Y-4.66
X3.7665Y-5.2486
X3.795Y-9.24
X3.8Y-2.9
X3.815Y-9.295
X3.85Y-9.4
X3.8514Y-9.6
X3.895Y-9.3
X3.8964Y-9.505
X3.9Y-2.91
X3.9013Y-6.2056
X3.925Y-6.205
X3.925Y-9.85
X3.94Y-10.3786
X3.955Y-5.32
X3.99Y-6.2
X3.99Y-6.225
X4.0Y-2.92
X4.08Y-4.565
X4.1Y-2.93
X4.115Y-4.575
X4.1324Y-4.0675
X4.2Y-1.3
X4.2Y-1.405
X4.2Y-1.785
X4.2Y-1.915
X4.2Y-2.94
X4.2Y-6.2
X4.2Y-6.225
X4.25Y-4.47
X4.255Y-6.52
X4.26Y-10.0
X4.27Y-10.1
X4.28Y-10.15
X4.3Y-2.95
X4.3Y-9.695
X4.315Y-9.3
X4.34Y-6.5
X4.34Y-9.4
X4.3423Y-9.0404
X4.35Y-4.47
X4.35Y-9.5
X4.36Y-9.6
X4.405Y-9.1
X4.455Y-4.465
X4.465Y-6.29
X4.47Y-9.14
X4.4894Y-1.9088
X4.49Y-4.565
X4.5Y-1.29
X4.5Y-1.415
X4.5Y-1.775
X4.5102Y-4.5814
X4.54Y-9.1286
X4.5773Y-9.0425
X4.585Y-3.625
X4.5897Y-1.9186
X4.59Y-4.075
X4.59Y-8.97
X4.5936Y-9.0859
X4.5977Y-1.2736
X4.6Y-1.425
X4.6Y-1.765
X4.6086Y-9.2
X4.609Y-3.7836
X4.6186Y-9.4
X4.705Y-3.7836
X4.805Y-3.7836
X4.81Y-3.595
X4.905Y-3.785
X4.91Y-9.15
X4.91Y-9.28
X4.91Y-9.305
X5.115Y-3.45
X5.14Y-3.45
X5.165Y-3.47
X5.165Y-7.525
X5.465Y-4.63
X5.4939Y-4.6242
X5.61Y-4.5436
X5.6804Y-4.5426
X5.752Y-4.471
X5.795Y-3.59
X6.035Y-7.525
X6.06Y-3.59
X6.275Y-3.54
X6.305Y-3.53
X6.3088Y-3.6214
X6.335Y-3.605
X6.34Y-3.52
X6.45Y-8.085
X6.45Y-8.885
X6.45Y-9.685
X6.475Y-8.065
X6.475Y-8.865
X6.475Y-9.665
X6.5Y-8.045
X6.5Y-8.845
X6.5Y-9.645
X6.525Y-8.025
X6.525Y-8.825
X6.525Y-9.625
X6.535Y-4.005
X6.535Y-4.03
X6.535Y-4.055
X6.535Y-4.08
X6.535Y-4.105
X6.535Y-4.13
X6.535Y-4.155
X6.535Y-4.18
X6.55Y-8.005
X6.55Y-8.805
X6.55Y-9.605
X6.575Y-7.98
X6.575Y-8.78
X6.575Y-9.58
X6.6Y-7.96
X6.6Y-8.76
X6.6Y-9.56
X6.625Y-7.94
X6.625Y-8.74
X6.625Y-9.54
X6.65Y-4.53
X6.65Y-4.555
X6.65Y-4.58
X6.65Y-4.6061
X6.85Y-1.44
X6.85Y-1.935
X6.85Y-4.0
X6.85Y-5.035
X6.875Y-1.42
X6.875Y-1.915
X6.875Y-4.03
X6.8751Y-5.0514
X6.9Y-1.4
X6.9Y-1.895
X6.9Y-4.05
X6.9Y-5.0614
X6.925Y-1.38
X6.925Y-1.875
X6.925Y-4.08
X6.925Y-5.0714
X6.95Y-1.36
X6.95Y-1.855
X6.95Y-4.105
X6.95Y-5.0814
X6.975Y-1.34
X6.975Y-1.835
X6.975Y-4.125
X6.975Y-5.0914
X7.0Y-1.32
X7.0Y-1.815
X7.0Y-4.145
X7.0Y-5.1014
X7.025Y-1.795
X7.025Y-4.165
X7.025Y-5.1114
X7.0252Y-1.3014
X7.665Y-4.98
X7.665Y-5.005
X7.665Y-5.03
X7.665Y-5.055
X7.78Y-7.91
X8.12Y-9.3
X8.305Y-8.28
X8.4Y-8.41
X9.2Y-1.285
X9.24Y-1.295
X9.3Y-1.305
X9.34Y-1.315
X9.4Y-1.325
X9.44Y-1.335
X9.5Y-1.345
X9.5Y-8.975
X9.54Y-1.355
X9.6Y-1.3686
X9.6Y-8.985
X9.645Y-1.3786
X9.7Y-1.385
X9.7Y-8.995
X9.745Y-1.395
X9.8Y-1.405
X9.8Y-9.005
X9.845Y-1.415
X9.9Y-1.425
X9.9Y-9.015
X10.0Y-9.025
T2
X9.75Y-7.45
X9.8Y-7.4
X9.85Y-7.45
T3
X9.05Y-10.1
X9.05Y-10.2
X9.05Y-10.3
X9.05Y-10.4
X9.35Y-10.1
X9.35Y-10.2
X9.35Y-10.3
X9.35Y-10.4
X10.1Y-7.15
X10.2969Y-7.15
X9.85Y-4.95
X9.85Y-5.1469
X6.65Y-3.45
X6.65Y-3.6469
X8.1Y-9.05
X8.2969Y-9.05
X2.9531Y-8.85
X3.15Y-8.85
X4.85Y-8.3531
X4.85Y-8.55
X6.25Y-8.4531
X6.25Y-8.65
X9.7531Y-7.8
X10.25Y-10.25
X10.55Y-10.25
X6.25Y-10.05
X6.25Y-10.2469
X6.25Y-9.2531
X6.25Y-9.45
X8.2531Y-6.6
X8.45Y-6.6
X7.2531Y-7.8
X7.45Y-7.8
X8.2531Y-7.8
X8.45Y-7.8
X9.2531Y-7.8
X9.45Y-7.8
X10.0Y-7.45
X10.3Y-7.45
X3.05Y-5.1512
X3.05Y-5.348
X9.7Y-6.85
X9.7Y-6.95
X9.7Y-7.05
X9.7Y-7.15
X10.0Y-6.85
X10.0Y-6.95
X10.0Y-7.05
X10.0Y-7.15
X9.95Y-7.8
X6.65Y-5.1512
X6.65Y-4.4546
X6.65Y-4.6515
X7.45Y-10.4
X7.75Y-10.4
X6.65Y-1.7531
X6.65Y-1.95
X8.65Y-4.95
X8.65Y-5.1469
X6.65Y-5.348
X5.5Y-3.9
X5.5Y-4.2
X5.6Y-3.9
X5.6Y-4.2
X5.7Y-3.9
X5.7Y-4.2
X5.8Y-3.9
X5.8Y-4.2
X5.9Y-3.9
X4.5009Y-3.3982
X4.5009Y-3.6982
X4.6009Y-3.3982
X4.6009Y-3.6982
X4.7009Y-3.6982
X4.8009Y-3.3982
X4.8009Y-3.6982
X4.9009Y-3.3982
X4.9009Y-3.6982
X5.0009Y-3.3982
X5.0009Y-3.6982
X5.1009Y-3.3982
X5.1009Y-3.6982
X5.2009Y-3.3982
X5.2009Y-3.6982
X5.5Y-1.7
X5.9Y-4.2
X6.0Y-3.9
X6.0Y-4.2
X6.1Y-3.9
X6.1Y-4.2
X6.2Y-3.9
X6.2Y-4.2
X6.3Y-3.9
X6.3Y-4.2
X6.4Y-4.2
X2.1Y-2.2
X2.1Y-2.5
X2.2Y-2.2
X2.2Y-2.5
X2.3Y-2.2
X2.3Y-2.5
X2.4Y-2.2
X2.4Y-2.5
X2.5Y-2.2
X2.5Y-2.5
X2.6Y-2.2
X2.6Y-2.5
X2.7Y-2.2
X2.8Y-2.2
X4.7009Y-3.3982
X2.8Y-2.5
X3.45Y-6.951
X3.45Y-7.1479
X3.1483Y-3.877
X3.3451Y-3.877
X7.75Y-6.6
X8.05Y-6.6
X5.7Y-5.1
X5.7Y-5.4
X5.8Y-5.1
X5.8Y-5.4
X5.9Y-5.1
X5.9Y-5.4
X6.0Y-5.1
X6.0Y-5.4
X6.1Y-5.1
X6.1Y-5.4
X6.2Y-5.1
X6.2Y-5.4
X6.3Y-5.1
X6.3Y-5.4
X6.4Y-5.1
X6.4Y-5.4
X5.5Y-2.0
X6.4Y-3.9
X5.6Y-1.7
X5.6Y-2.0
X5.7Y-1.7
X5.7Y-2.0
X5.8Y-1.7
X5.8Y-2.0
X5.9Y-1.7
X5.9Y-2.0
X6.0Y-1.7
X6.0Y-2.0
X6.1Y-1.7
X6.1Y-2.0
X6.2Y-1.7
X6.2Y-2.0
X6.3Y-1.7
X6.3Y-2.0
X2.7Y-2.5
X6.4Y-1.7
X6.4Y-2.0
X7.25Y-4.95
X4.2Y-6.7
X4.3Y-6.1
X4.3Y-6.7
X4.4Y-6.1
X4.4Y-6.7
X4.65Y-2.75
X4.65Y-2.9469
X8.9999Y-8.8999
X8.9999Y-9.4999
X9.0999Y-8.8999
X9.0999Y-9.4999
X9.1999Y-8.8999
X9.1999Y-9.4999
X9.2999Y-8.8999
X9.2999Y-9.4999
X9.3999Y-8.8999
X9.4999Y-8.8999
X9.4999Y-9.4999
X9.5999Y-8.8999
X9.5999Y-9.4999
X9.6999Y-8.8999
X9.6999Y-9.4999
X9.7999Y-8.8999
X9.7999Y-9.4999
X9.8999Y-8.8999
X9.8999Y-9.4999
X9.9999Y-8.8999
X9.9999Y-9.4999
X10.0999Y-8.8999
X10.0999Y-9.4999
X10.1999Y-8.8999
X10.1999Y-9.4999
X10.2999Y-8.8999
X10.2999Y-9.4999
X10.3999Y-8.8999
X10.3999Y-9.4999
X10.4999Y-8.8999
X10.4999Y-9.4999
X9.2Y-8.05
X9.2Y-8.15
X9.2Y-8.25
X9.2Y-8.35
X9.2Y-8.45
X9.2Y-8.55
X9.2Y-8.65
X9.5Y-8.05
X4.2Y-6.1
X9.5Y-8.15
X9.5Y-8.25
X9.5Y-8.35
X9.5Y-8.45
X4.5Y-6.1
X4.5Y-6.7
X4.6Y-6.1
X4.6Y-6.7
X4.7Y-6.1
X4.7Y-6.7
X4.8Y-6.1
X4.8Y-6.7
X4.9Y-6.1
X4.9Y-6.7
X5.0Y-6.1
X5.0Y-6.7
X5.1Y-6.1
X5.1Y-6.7
X5.2Y-6.1
X5.2Y-6.7
X5.3Y-6.1
X5.3Y-6.7
X5.4Y-6.1
X5.4Y-6.7
X9.3999Y-9.4999
X5.5Y-6.1
X5.5Y-6.7
X5.6Y-6.1
X5.6Y-6.7
X5.7Y-6.1
X5.7Y-6.7
X8.25Y-10.25
X8.55Y-10.25
X7.3Y-6.85
X7.3Y-6.95
X7.3Y-7.05
X7.3Y-7.15
X7.6Y-6.85
X7.6Y-6.95
X7.6Y-7.05
X7.6Y-7.15
X2.1009Y-3.3982
X2.1009Y-3.6982
X2.2009Y-3.3982
X2.2009Y-3.6982
X2.3009Y-3.3982
X2.3009Y-3.6982
X2.4009Y-3.3982
X2.4009Y-3.6982
X2.5009Y-3.3982
X2.5009Y-3.6982
X2.6009Y-3.3982
X2.6009Y-3.6982
X2.7009Y-3.3982
X2.7009Y-3.6982
X2.8009Y-3.3982
X2.8009Y-3.6982
X8.45Y-9.6
X8.75Y-9.6
X3.7004Y-6.8998
X3.7004Y-7.1998
X3.8004Y-6.8998
X3.8004Y-7.1998
X3.9004Y-6.8998
X3.9004Y-7.1998
X4.0004Y-6.8998
X4.0004Y-7.1998
X4.1004Y-6.8998
X4.1004Y-7.1998
X4.2004Y-6.8998
X4.2004Y-7.1998
X4.3004Y-6.8998
X4.3004Y-7.1998
X4.4004Y-6.8998
X4.4004Y-7.1998
X4.5004Y-6.8998
X4.5004Y-7.1998
X4.6004Y-6.8998
X4.6004Y-7.1998
X9.2531Y-6.6
X9.45Y-6.6
X7.7531Y-7.8
X7.95Y-7.8
X9.1031Y-9.85
X9.3Y-9.85
X9.5Y-8.55
X9.5Y-8.65
X4.4031Y-8.85
X4.6Y-8.85
X3.3009Y-3.3982
X3.45Y-8.3531
X3.45Y-8.55
X8.7531Y-6.6
X8.95Y-6.6
X8.7531Y-7.8
X8.95Y-7.8
X9.9031Y-9.85
X10.1Y-9.85
X7.9031Y-9.85
X8.1Y-9.85
X7.85Y-7.15
X7.9287Y-7.15
X9.45Y-10.4
X9.75Y-10.4
X3.3009Y-3.6982
X3.4009Y-3.3982
X3.4009Y-3.6982
X3.5009Y-3.3982
X3.5009Y-3.6982
X3.6009Y-3.3982
X3.6009Y-3.6982
X3.7009Y-3.3982
X3.7009Y-3.6982
X3.8009Y-3.3982
X3.8009Y-3.6982
X3.9009Y-3.3982
X3.9009Y-3.6982
X4.0009Y-3.3982
X4.0009Y-3.6982
X7.45Y-10.25
X7.75Y-10.25
X8.2Y-8.05
X8.2Y-8.15
X8.2Y-8.25
X8.2Y-8.35
X8.2Y-8.45
X8.2Y-8.55
X8.2Y-8.65
X8.5Y-8.05
X8.5Y-8.15
X8.5Y-8.25
X8.5Y-8.35
X8.5Y-8.45
X8.5Y-8.55
X8.5Y-8.65
X2.4Y-9.65
X2.7Y-9.65
X3.7Y-4.4
X3.7Y-4.7
X3.8Y-4.4
X3.8Y-4.7
X3.9Y-4.4
X3.9Y-4.7
X4.0Y-4.4
X4.0Y-4.7
X4.1Y-4.4
X4.1Y-4.7
X4.2Y-4.4
X4.2Y-4.7
X4.3Y-4.4
X4.3Y-4.7
X4.4Y-4.4
X4.4Y-4.7
X4.5Y-4.4
X4.5Y-4.7
X4.6Y-4.4
X4.6Y-4.7
X4.7Y-4.4
X4.7Y-4.7
X4.8Y-4.4
X4.8Y-4.7
X4.9Y-4.4
X4.9Y-4.7
X5.0Y-4.4
X5.0Y-4.7
X7.65Y-9.45
X7.95Y-9.45
X3.05Y-3.4531
X3.05Y-3.65
X5.25Y-3.9512
X5.25Y-4.148
X10.1Y-4.9
X10.1Y-5.2
X10.2Y-4.9
X10.2Y-5.2
X10.3Y-4.9
X10.3Y-5.2
X10.4Y-4.9
X10.4Y-5.2
X10.5Y-4.9
X10.5Y-5.2
X10.6Y-4.9
X10.6Y-5.2
X10.7Y-4.9
X10.7Y-5.2
X10.8Y-4.9
X10.8Y-5.2
X9.7531Y-6.6
X9.95Y-6.6
X2.3Y-8.3
X2.3Y-8.6
X2.4Y-8.3
X2.4Y-8.6
X2.5Y-8.3
X2.5Y-8.6
X2.6Y-8.3
X2.6Y-8.6
X2.7Y-8.3
X2.7Y-8.6
X2.8Y-8.3
X2.8Y-8.6
X2.9Y-8.3
X2.9Y-8.6
X3.0Y-8.3
X3.0Y-8.6
X3.1Y-8.3
X3.1Y-8.6
X3.2Y-8.3
X3.2Y-8.6
X8.65Y-10.25
X8.95Y-10.25
X7.2Y-8.05
X7.2Y-8.15
X7.2Y-8.25
X7.2Y-8.35
X7.2Y-8.45
X7.2Y-8.55
X7.2Y-8.65
X7.5Y-8.05
X7.5Y-8.15
X7.5Y-8.25
X7.5Y-8.35
X7.5Y-8.45
X7.5Y-8.55
X7.5Y-8.65
X2.6531Y-3.879
X2.85Y-3.879
X4.5Y-2.2
X4.5Y-2.5
X4.6Y-2.2
X4.6Y-2.5
X4.7Y-2.2
X4.7Y-2.5
X4.8Y-2.2
X4.8Y-2.5
X4.9Y-2.2
X4.9Y-2.5
X5.0Y-2.2
X5.0Y-2.5
X5.1Y-2.2
X5.1Y-2.5
X5.2Y-2.2
X5.2Y-2.5
X10.25Y-10.1
X10.55Y-10.1
X8.7Y-8.05
X8.7Y-8.15
X8.7Y-8.25
X8.7Y-8.35
X8.7Y-8.45
X8.7Y-8.55
X8.7Y-8.65
X9.0Y-8.05
X9.0Y-8.15
X9.0Y-8.25
X9.0Y-8.35
X9.0Y-8.45
X9.0Y-8.55
X9.0Y-8.65
X6.65Y-5.6531
X6.65Y-5.85
X5.5Y-5.6
X5.5Y-5.9
X5.6Y-5.6
X5.6Y-5.9
X5.7Y-5.6
X5.7Y-5.9
X5.8Y-5.6
X5.8Y-5.9
X5.9Y-5.6
X5.9Y-5.9
X6.0Y-5.6
X6.0Y-5.9
X6.1Y-5.6
X6.1Y-5.9
X6.2Y-5.6
X6.2Y-5.9
X6.3Y-5.6
X6.3Y-5.9
X6.4Y-5.6
X6.4Y-5.9
X7.5Y-4.9
X7.5Y-5.2
X7.6Y-4.9
X7.6Y-5.2
X7.7Y-4.9
X7.7Y-5.2
X7.8Y-4.9
X7.8Y-5.2
X7.9Y-4.9
X7.9Y-5.2
X8.0Y-4.9
X8.0Y-5.2
X8.1Y-4.9
X8.1Y-5.2
X8.2Y-4.9
X8.2Y-5.2
X8.3Y-4.9
X8.3Y-5.2
X8.4Y-4.9
X8.4Y-5.2
X7.25Y-5.1469
X8.25Y-10.1
X8.05Y-9.3
X8.05Y-9.4
X8.05Y-9.5
X8.05Y-9.6
X8.35Y-9.3
X8.35Y-9.4
X8.35Y-9.5
X8.35Y-9.6
X8.55Y-10.1
X8.25Y-10.4
X8.55Y-10.4
X5.1Y-10.0
X5.1Y-10.3
X5.2Y-10.0
X5.2Y-10.3
X5.3Y-10.0
X5.3Y-10.3
X5.4Y-10.0
X3.4998Y-3.0002
X5.4Y-10.3
X5.5Y-10.0
X5.5Y-10.3
X5.6Y-10.0
X5.6Y-10.3
X5.7Y-10.0
X5.7Y-10.3
X5.8Y-10.0
X5.8Y-10.3
X5.9Y-10.0
X5.9Y-10.3
X6.0Y-10.0
X6.0Y-10.3
X10.4Y-8.65
X10.7Y-8.65
X3.4998Y-2.7002
X9.8Y-8.1
X9.8Y-8.4
X10.4Y-8.1
X10.4Y-8.4
X5.7009Y-3.3982
X5.7009Y-3.6982
X5.8009Y-3.3982
X5.8009Y-3.6982
X5.9009Y-3.3982
X5.9009Y-3.6982
X6.0009Y-3.3982
X6.0009Y-3.6982
X6.1009Y-3.3982
X6.1009Y-3.6982
X6.2009Y-3.3982
X6.2009Y-3.6982
X6.3009Y-3.3982
X6.3009Y-3.6982
X6.4009Y-3.3982
X6.4009Y-3.6982
X2.3Y-6.8998
X2.3Y-7.1998
X2.4Y-6.8998
X2.4Y-7.1998
X2.5Y-6.8998
X2.5Y-7.1998
X2.6Y-6.8998
X2.6Y-7.1998
X2.7Y-6.8998
X2.7Y-7.1998
X2.8Y-6.8998
X2.8Y-7.1998
X2.9Y-6.8998
X2.9Y-7.1998
X3.0Y-6.8998
X3.0Y-7.1998
X3.1Y-6.8998
X3.1Y-7.1998
X3.2Y-6.8998
X3.2Y-7.1998
X9.45Y-10.25
X9.75Y-10.25
X7.65Y-9.3
X7.95Y-9.3
X2.6Y-4.1
X2.6Y-4.2
X2.6Y-4.3
X2.6Y-4.4
X2.6Y-4.5
X2.6Y-4.6
X2.6Y-4.7
X2.9Y-4.1
X2.9Y-4.2
X2.9Y-4.3
X2.9Y-4.4
X2.9Y-4.5
X2.9Y-4.6
X2.9Y-4.7
X5.5Y-4.4
X5.5Y-4.7
X5.6Y-4.4
X5.6Y-4.7
X5.7Y-4.4
X5.7Y-4.7
X5.8Y-4.4
X5.8Y-4.7
X5.9Y-4.4
X5.9Y-4.7
X6.0Y-4.4
X6.0Y-4.7
X6.1Y-4.4
X6.1Y-4.7
X6.2Y-4.4
X6.2Y-4.7
X6.3Y-4.4
X6.3Y-4.7
X6.4Y-4.4
X6.4Y-4.7
X8.65Y-10.1
X8.95Y-10.1
X7.45Y-10.1
X7.75Y-10.1
X3.688Y-3.9
X3.688Y-4.2
X3.788Y-3.9
X3.788Y-4.2
X3.888Y-3.9
X3.888Y-4.2
X3.988Y-3.9
X3.988Y-4.2
X4.088Y-3.9
X4.088Y-4.2
X4.188Y-3.9
X4.188Y-4.2
X4.288Y-3.9
X4.288Y-4.2
X4.388Y-3.9
X4.388Y-4.2
X4.488Y-3.9
X4.488Y-4.2
X4.588Y-3.9
X4.588Y-4.2
X4.688Y-3.9
X4.688Y-4.2
X4.788Y-3.9
X4.788Y-4.2
X4.888Y-3.9
X4.888Y-4.2
X4.988Y-3.9
X4.988Y-4.2
X9.2Y-6.95
X8.45Y-9.45
X8.75Y-9.45
X2.4Y-9.25
X2.7Y-9.25
X6.25Y-6.9531
X6.25Y-7.15
X4.1Y-1.7
X4.2Y-1.7
X4.25Y-2.25
X4.25Y-2.4469
X3.4Y-9.1
X3.4Y-9.2
X3.4Y-9.3
X3.4Y-9.4
X3.4Y-9.5
X3.4Y-9.6
X3.4Y-9.7
X3.4Y-9.8
X4.1Y-2.0
X3.4Y-9.9
X3.4Y-10.0
X3.4Y-10.1
X3.4Y-10.2
X4.0Y-9.1
X4.0Y-9.2
X4.0Y-9.3
X4.0Y-9.4
X4.0Y-9.5
X4.0Y-9.6
X4.0Y-9.7
X4.0Y-9.8
X4.0Y-9.9
X4.0Y-10.0
X4.0Y-10.1
X4.0Y-10.2
X4.2Y-9.2
X4.2Y-2.0
X4.3Y-1.7
X4.3Y-2.0
X4.4Y-1.7
X4.4Y-2.0
X4.5Y-1.7
X4.5Y-2.0
X4.6Y-1.7
X4.6Y-2.0
X4.7Y-1.7
X4.7Y-2.0
X4.8Y-1.7
X4.8Y-2.0
X4.9Y-1.7
X4.9Y-2.0
X5.0Y-1.7
X5.0Y-2.0
X7.65Y-9.6
X7.95Y-9.6
X5.25Y-4.4512
X5.25Y-4.648
X8.2Y-6.85
X8.2Y-6.95
X8.2Y-7.05
X4.2Y-9.1
X8.2Y-7.15
X8.2Y-7.25
X8.2Y-7.35
X4.2Y-9.3
X8.2Y-7.45
X8.2Y-7.55
X8.5Y-6.85
X8.5Y-6.95
X8.5Y-7.05
X8.5Y-7.15
X8.5Y-7.25
X8.5Y-7.35
X8.5Y-7.45
X8.5Y-7.55
X4.2Y-9.4
X4.2Y-9.5
X4.2Y-9.6
X4.2Y-9.7
X4.2Y-9.8
X4.2Y-9.9
X4.2Y-10.0
X4.2Y-10.1
X4.2Y-10.2
X4.8Y-9.1
X4.8Y-9.2
X4.8Y-9.3
X4.8Y-9.4
X4.8Y-9.5
X4.8Y-9.6
X4.8Y-9.7
X4.8Y-9.8
X4.8Y-9.9
X4.8Y-10.0
X4.8Y-10.1
X4.8Y-10.2
X4.25Y-3.4531
X4.25Y-3.65
X10.1Y-6.65
X10.4Y-6.65
X10.1Y-6.9
X2.4Y-9.45
X2.7Y-9.45
X7.75Y-6.85
X8.05Y-6.85
X3.3Y-5.1
X3.3Y-5.4
X3.4Y-5.1
X3.4Y-5.4
X3.5Y-5.1
X3.5Y-5.4
X3.6Y-5.1
X3.6Y-5.4
X3.7Y-5.1
X3.7Y-5.4
X3.8Y-5.1
X3.8Y-5.4
X3.9Y-5.1
X3.9Y-5.4
X4.0Y-5.1
X4.0Y-5.4
X5.7Y-2.2
X5.7Y-2.5
X5.8Y-2.2
X5.8Y-2.5
X5.9Y-2.2
X5.9Y-2.5
X6.0Y-2.2
X6.0Y-2.5
X6.1Y-2.2
X6.1Y-2.5
X6.2Y-2.2
X6.2Y-2.5
X6.3Y-2.2
X6.3Y-2.5
X6.4Y-2.2
X6.4Y-2.5
X3.05Y-2.2531
X3.05Y-2.45
X1.95Y-6.3014
X1.95Y-6.4982
X8.9Y-4.9
X8.9Y-5.2
X9.0Y-4.9
X9.0Y-5.2
X9.1Y-4.9
X9.1Y-5.2
X9.2Y-4.9
X9.2Y-5.2
X9.3Y-4.9
X9.3Y-5.2
X9.4Y-4.9
X9.4Y-5.2
X9.5Y-4.9
X9.5Y-5.2
X9.6Y-4.9
X9.6Y-5.2
X10.25Y-10.4
X10.55Y-10.4
X4.85Y-6.9531
X4.85Y-7.15
X9.45Y-10.1
X9.75Y-10.1
X3.95Y-6.3014
X3.95Y-6.4982
X6.85Y-1.2
X6.95Y-1.2
X7.05Y-1.2
X7.15Y-1.2
X7.25Y-1.2
X7.35Y-1.2
X7.45Y-1.2
X7.55Y-1.2
X7.65Y-1.2
X6.65Y-2.25
X6.65Y-2.4469
X4.1Y-5.6
X10.2969Y-6.9
X6.65Y-3.9531
X6.65Y-4.15
X5.45Y-2.25
X5.45Y-2.4469
X3.1Y-4.1
X3.1Y-4.2
X3.1Y-4.3
X3.1Y-4.4
X3.1Y-4.6
X3.1Y-4.7
X3.4Y-4.1
X3.4Y-4.2
X3.4Y-4.3
X3.4Y-4.4
X3.4Y-4.5
X3.4Y-4.6
X3.4Y-4.7
X9.2Y-6.85
X9.2Y-7.05
X9.2Y-7.15
X9.2Y-7.25
X9.2Y-7.35
X9.2Y-7.45
X9.5Y-6.85
X9.5Y-6.95
X9.5Y-7.05
X9.5Y-7.15
X9.5Y-7.25
X9.5Y-7.35
X9.5Y-7.45
X6.65Y-1.2531
X6.65Y-1.45
X3.7Y-8.3
X3.7Y-8.6
X3.8Y-8.3
X3.8Y-8.6
X3.9Y-8.3
X3.9Y-8.6
X4.0Y-8.3
X4.0Y-8.6
X4.1Y-8.3
X4.1Y-8.6
X4.2Y-8.3
X4.2Y-8.6
X4.3Y-8.3
X4.3Y-8.6
X4.4Y-8.3
X4.4Y-8.6
X4.5Y-8.3
X4.5Y-8.6
X4.6Y-8.3
X4.6Y-8.6
X7.85Y-10.1
X7.85Y-10.2
X7.85Y-10.3
X7.85Y-10.4
X8.15Y-10.1
X8.15Y-10.2
X8.15Y-10.3
X8.15Y-10.4
X3.6031Y-8.85
X3.8Y-8.85
X7.3531Y-6.6
X7.55Y-6.6
X4.1Y-1.2
X4.1Y-1.5
X4.2Y-1.2
X4.2Y-1.5
X4.3Y-1.2
X4.3Y-1.5
X4.4Y-1.2
X4.4Y-1.5
X4.5Y-1.2
X4.5Y-1.5
X4.6Y-1.2
X4.6Y-1.5
X4.7Y-1.2
X4.7Y-1.5
X4.8Y-1.2
X4.8Y-1.5
X4.9Y-1.2
X4.9Y-1.5
X5.0Y-1.2
X5.0Y-1.5
X5.25Y-5.6531
X5.25Y-5.85
X4.1Y-5.9
X3.1Y-4.5
X4.2Y-5.6
X4.2Y-5.9
X5.45Y-5.1512
X3.5998Y-2.7002
X3.5998Y-3.0002
X3.6998Y-2.7002
X3.6998Y-3.0002
X3.7998Y-2.7002
X3.7998Y-3.0002
X3.8998Y-2.7002
X3.8998Y-3.0002
X3.9998Y-2.7002
X3.9998Y-3.0002
X4.0998Y-2.7002
X4.0998Y-3.0002
X4.1998Y-2.7002
X4.1998Y-3.0002
X4.2998Y-2.7002
X4.2998Y-3.0002
X4.3998Y-2.7002
X4.3998Y-3.0002
X9.85Y-10.1
X9.85Y-10.2
X9.85Y-10.3
X9.85Y-10.4
X10.15Y-10.1
X10.15Y-10.2
X10.15Y-10.3
X10.15Y-10.4
X3.25Y-2.75
X3.25Y-2.9469
X6.25Y-7.6531
X6.25Y-7.85
X8.45Y-9.3
X8.75Y-9.3
X10.75Y-9.1031
X10.75Y-9.3
X5.45Y-3.4531
X5.45Y-3.65
X7.8Y-7.45
X7.9969Y-7.45
X2.1Y-5.1
X2.1Y-5.4
X2.2Y-5.1
X2.2Y-5.4
X2.3Y-5.1
X2.3Y-5.4
X2.4Y-5.1
X2.4Y-5.4
X2.5Y-5.1
X2.5Y-5.4
X2.6Y-5.1
X2.6Y-5.4
X2.7Y-5.1
X2.7Y-5.4
X2.8Y-5.1
X2.8Y-5.4
X8.7Y-6.85
X8.7Y-6.95
X8.7Y-7.05
X8.7Y-7.15
X8.7Y-7.25
X8.7Y-7.35
X8.7Y-7.45
X9.0Y-6.85
X9.0Y-6.95
X9.0Y-7.05
X9.0Y-7.15
X9.0Y-7.25
X9.0Y-7.35
X9.0Y-7.45
X5.1Y-7.6
X5.1Y-7.9
X5.2Y-7.6
X5.2Y-7.9
X5.3Y-7.6
X5.3Y-7.9
X5.4Y-7.6
X5.4Y-7.9
X5.5Y-7.6
X5.5Y-7.9
X5.6Y-7.6
X5.6Y-7.9
X5.7Y-7.6
X5.7Y-7.9
X5.8Y-7.6
X5.8Y-7.9
X5.9Y-7.6
X5.9Y-7.9
X6.0Y-7.6
X6.0Y-7.9
X5.1004Y-6.8998
X5.1004Y-7.1998
X5.2004Y-6.8998
X5.2004Y-7.1998
X5.3004Y-6.8998
X5.3004Y-7.1998
X5.4004Y-6.8998
X5.4004Y-7.1998
X5.5004Y-6.8998
X5.5004Y-7.1998
X5.6004Y-6.8998
X5.6004Y-7.1998
X5.7004Y-6.8998
X5.7004Y-7.1998
X5.8004Y-6.8998
X5.8004Y-7.1998
X5.9004Y-6.8998
X5.9004Y-7.1998
X6.0004Y-6.8998
X6.0004Y-7.1998
X5.1Y-8.4
X5.1Y-8.7
X5.2Y-8.4
X5.2Y-8.7
X5.3Y-8.4
X5.3Y-8.7
X5.4Y-8.4
X5.4Y-8.7
X5.5Y-8.4
X5.5Y-8.7
X5.6Y-8.4
X5.6Y-8.7
X5.7Y-8.4
X5.7Y-8.7
X5.8Y-8.4
X5.8Y-8.7
X5.9Y-8.4
X5.9Y-8.7
X6.0Y-8.4
X6.0Y-8.7
X5.1Y-9.2
X5.1Y-9.5
X5.2Y-9.2
X5.2Y-9.5
X5.3Y-9.2
X5.3Y-9.5
X5.4Y-9.2
X5.4Y-9.5
X5.5Y-9.2
X5.5Y-9.5
X5.6Y-9.2
X5.6Y-9.5
X5.7Y-9.2
X5.7Y-9.5
X5.8Y-9.2
X5.8Y-9.5
X5.9Y-9.2
X5.9Y-9.5
X6.0Y-9.2
X6.0Y-9.5
X10.55Y-7.1
X10.85Y-7.1
X2.2Y-6.1
X2.2Y-6.7
X2.3Y-6.1
X2.3Y-6.7
X2.4Y-6.1
X2.4Y-6.7
X2.5Y-6.1
X2.5Y-6.7
X6.4Y-1.5
X2.6Y-6.1
X2.6Y-6.7
X5.6Y-1.2
X2.7Y-6.1
X2.7Y-6.7
X2.8Y-6.1
X2.8Y-6.7
X2.9Y-6.1
X2.9Y-6.7
X3.0Y-6.1
X3.0Y-6.7
X3.1Y-6.1
X3.1Y-6.7
X3.2Y-6.1
X3.2Y-6.7
X5.45Y-5.348
X4.25Y-5.1512
X4.25Y-5.348
X5.5Y-1.2
X5.5Y-1.5
X5.6Y-1.5
X5.7Y-1.2
X5.7Y-1.5
X5.8Y-1.2
X5.8Y-1.5
X5.9Y-1.2
X5.9Y-1.5
X6.0Y-1.2
X7.7Y-8.75
X3.3Y-6.1
X3.3Y-6.7
X3.4Y-6.1
X3.4Y-6.7
X3.5Y-6.1
X3.5Y-6.7
X3.6Y-6.1
X3.6Y-6.7
X3.7Y-6.1
X3.7Y-6.7
X2.0998Y-2.7002
X2.0998Y-3.0002
X2.1998Y-2.7002
X2.1998Y-3.0002
X2.2998Y-2.7002
X2.2998Y-3.0002
X2.3998Y-2.7002
X2.3998Y-3.0002
X2.4998Y-2.7002
X2.4998Y-3.0002
X2.5998Y-2.7002
X2.5998Y-3.0002
X2.6998Y-2.7002
X2.6998Y-3.0002
X2.7998Y-2.7002
X2.7998Y-3.0002
X2.8998Y-2.7002
X2.8998Y-3.0002
X2.9998Y-2.7002
X2.9998Y-3.0002
X7.7Y-8.25
X8.0Y-8.65
X6.2Y-1.5
X8.0Y-8.55
X6.1Y-1.5
X7.7Y-8.35
X6.0Y-1.5
X7.7Y-8.45
X7.7Y-8.55
X8.0Y-8.35
X8.0Y-8.45
X6.1Y-1.2
X7.7Y-8.05
X8.0Y-8.25
X6.3Y-1.5
X6.4Y-1.2
X7.7Y-8.65
X6.3Y-1.2
X8.0Y-8.15
X6.2Y-1.2
X7.7Y-8.15
X8.0Y-8.05
X8.0Y-8.75
X4.3Y-5.6
X4.3Y-5.9
X4.4Y-5.6
X4.4Y-5.9
X4.5Y-5.6
X4.5Y-5.9
X4.6Y-5.6
X4.6Y-5.9
X4.7Y-5.6
X4.7Y-5.9
X4.8Y-5.6
X4.8Y-5.9
X4.9Y-5.6
X4.9Y-5.9
X5.0Y-5.6
X5.0Y-5.9
X10.7Y-8.0
X2.9Y-9.1
X2.9Y-9.2
X2.9Y-9.3
X2.9Y-9.4
X2.9Y-9.5
X2.9Y-9.6
X2.9Y-9.7
X2.9Y-9.8
X2.9Y-9.9
X2.9Y-10.0
X3.2Y-9.1
X5.25Y-1.75
X5.25Y-1.9469
X3.2Y-9.2
X10.7787Y-8.0
X3.2Y-9.3
X3.2Y-9.4
X3.2Y-9.5
X3.2Y-9.6
X3.2Y-9.7
X3.2Y-9.8
X3.2Y-9.9
X3.2Y-10.0
X8.65Y-10.4
X8.95Y-10.4
X4.5Y-5.1
X4.5Y-5.4
X4.6Y-5.1
X4.6Y-5.4
X4.7Y-5.1
X4.7Y-5.4
X4.8Y-5.1
X4.8Y-5.4
X4.9Y-5.1
X4.9Y-5.4
X5.0Y-5.1
X5.0Y-5.4
X5.1Y-5.1
X5.1Y-5.4
X5.2Y-5.1
X5.2Y-5.4
X3.3Y-2.2
X3.3Y-2.5
X3.4Y-2.2
X3.4Y-2.5
X3.5Y-2.2
X3.5Y-2.5
X3.6Y-2.2
X3.6Y-2.5
X3.7Y-2.2
X3.7Y-2.5
X3.8Y-2.2
X3.8Y-2.5
X3.9Y-2.2
X3.9Y-2.5
X4.0Y-2.2
X4.0Y-2.5
X5.25Y-1.25
X5.25Y-1.4469
T4
X2.65Y-8.85
X2.75Y-8.85
X10.7Y-8.4
X10.8Y-8.4
X2.39Y-8.85
X2.49Y-8.85
X7.3Y-9.1
X7.3Y-9.2969
X7.3984Y-9.1984
X10.2Y-7.7
X10.3Y-7.7
T5
X8.1Y-2.1
X8.1Y-2.2
X8.2Y-2.1
X8.2Y-2.2
X8.3Y-2.1
X8.3Y-2.2
X8.4Y-2.1
X8.4Y-2.2
X8.5Y-2.1
X8.5Y-2.2
X8.6Y-2.1
X8.6Y-2.2
X8.7Y-2.1
X7.605Y-5.38
X7.705Y-5.38
X7.805Y-5.38
X7.905Y-5.38
X8.005Y-5.38
X8.205Y-5.38
X8.305Y-5.38
X8.405Y-5.38
X3.6Y-3.2
X3.7Y-3.2
X3.8Y-3.2
X3.9Y-3.2
X4.0Y-3.2
X4.1Y-3.2
X4.2Y-3.2
X4.3Y-3.2
X4.4Y-3.2
X8.7Y-2.2
X8.105Y-5.38
X8.8Y-2.1
X8.8Y-2.2
X8.9Y-2.1
X8.9Y-2.2
X9.0Y-2.1
X9.0Y-2.2
X9.1Y-2.1
X9.1Y-2.2
X9.2Y-2.1
X9.2Y-2.2
X9.3Y-2.1
X9.3Y-2.2
X9.4Y-2.1
X9.4Y-2.2
X9.5Y-2.1
X9.5Y-2.2
X9.6Y-2.1
X9.6Y-2.2
X9.7Y-2.1
X9.7Y-2.2
X9.8Y-2.1
X9.8Y-2.2
X9.9Y-2.1
X9.9Y-2.2
X10.0Y-2.1
X10.0Y-2.2
X8.1Y-1.5
X2.2Y-2.0
X2.3Y-2.0
X8.1Y-1.6
X8.2Y-1.5
X8.2Y-1.6
X8.3Y-1.5
X8.3Y-1.6
X8.4Y-1.5
X8.4Y-1.6
X8.5Y-1.5
X8.5Y-1.6
X8.6Y-1.5
X8.6Y-1.6
X8.7Y-1.5
X8.7Y-1.6
X8.8Y-1.5
X8.8Y-1.6
X8.9Y-1.5
X8.9Y-1.6
X9.0Y-1.5
X9.0Y-1.6
X9.1Y-1.5
X9.1Y-1.6
X9.2Y-1.5
X9.2Y-1.6
X9.3Y-1.5
X9.4Y-1.5
X9.4Y-1.6
X9.5Y-1.5
X9.5Y-1.6
X9.6Y-1.5
X9.6Y-1.6
X9.7Y-1.5
X9.7Y-1.6
X9.8Y-1.5
X9.8Y-1.6
X9.9Y-1.5
X9.9Y-1.6
X10.0Y-1.5
X10.0Y-1.6
X5.2Y-9.05
X5.3Y-9.05
X5.4Y-9.05
X5.5Y-9.05
X5.6Y-9.05
X5.7Y-9.05
X5.8Y-9.05
X5.9Y-9.05
X6.0Y-9.05
X8.1Y-3.3
X8.1Y-3.4
X8.2Y-3.3
X8.2Y-3.4
X8.3Y-3.3
X8.3Y-3.4
X8.4Y-3.3
X8.4Y-3.4
X8.5Y-3.3
X8.5Y-3.4
X8.6Y-3.3
X8.6Y-3.4
X8.7Y-3.3
X8.7Y-3.4
X8.8Y-3.3
X8.8Y-3.4
X8.9Y-3.3
X8.9Y-3.4
X9.0Y-3.4
X9.1Y-3.3
X9.1Y-3.4
X9.2Y-3.3
X9.2Y-3.4
X9.3Y-3.3
X9.3Y-3.4
X9.4Y-3.3
X9.4Y-3.4
X9.5Y-3.3
X9.5Y-3.4
X9.6Y-3.3
X9.6Y-3.4
X9.7Y-3.3
X9.7Y-3.4
X9.8Y-3.3
X9.8Y-3.4
X9.9Y-3.3
X9.9Y-3.4
X10.0Y-3.3
X10.0Y-3.4
X5.2Y-7.45
X5.3Y-7.45
X5.4Y-7.45
X5.5Y-7.45
X5.6Y-7.45
X5.7Y-7.45
X5.8Y-7.45
X2.4Y-2.0
X9.3Y-1.6
X2.5Y-2.0
X2.6Y-2.0
X2.7Y-2.0
X2.8Y-2.0
X2.9Y-2.0
X3.0Y-2.0
X3.1Y-2.0
X3.2Y-2.0
X3.3Y-2.0
X3.4Y-2.0
X3.5Y-2.0
X3.6Y-2.0
X3.7Y-2.0
X3.8Y-2.0
X5.9Y-7.45
X6.0Y-7.45
X4.8Y-2.7
X4.9Y-2.7
X5.0Y-2.7
X5.1Y-2.7
X5.2Y-2.7
X9.7Y-9.7
X9.8Y-9.7
X9.9Y-9.7
X10.0Y-9.7
X10.1Y-9.7
X10.2Y-9.7
X10.3Y-9.7
X10.4Y-9.7
X10.5Y-9.7
X5.3Y-2.7
X5.4Y-2.7
X5.5Y-2.7
X5.6Y-2.7
X5.7Y-2.7
X5.8Y-2.7
X5.9Y-2.7
X6.0Y-2.7
X6.1Y-2.7
X6.2Y-2.7
X6.3Y-2.7
X6.4Y-2.7
X2.2Y-5.6
X2.3Y-5.6
X2.4Y-5.6
X2.5Y-5.6
X2.6Y-5.6
X2.7Y-5.6
X2.8Y-5.6
X2.9Y-5.6
X3.0Y-5.6
X3.1Y-5.6
X3.2Y-5.6
X3.3Y-5.6
X3.4Y-5.6
X3.5Y-5.6
X3.6Y-5.6
X3.7Y-5.6
X3.8Y-5.6
X8.1Y-4.5
X8.1Y-4.6
X8.2Y-4.5
X8.2Y-4.6
X8.3Y-4.5
X8.3Y-4.6
X8.4Y-4.5
X8.4Y-4.6
X8.5Y-4.5
X8.5Y-4.6
X8.6Y-4.5
X8.6Y-4.6
X8.7Y-4.5
X8.7Y-4.6
X8.8Y-4.5
X8.8Y-4.6
X8.9Y-4.5
X8.9Y-4.6
X9.0Y-4.5
X9.0Y-4.6
X9.1Y-4.5
X9.1Y-4.6
X9.2Y-4.5
X9.2Y-4.6
X9.3Y-4.5
X9.3Y-4.6
X9.4Y-4.5
X9.4Y-4.6
X9.5Y-4.5
X9.5Y-4.6
X9.6Y-4.5
X9.6Y-4.6
X9.7Y-4.5
X9.7Y-4.6
X9.8Y-4.5
X9.8Y-4.6
X9.9Y-4.5
X9.9Y-4.6
X4.6Y-7.4
X5.2Y-8.25
X5.3Y-8.25
X5.2Y-9.85
X5.3Y-9.85
X5.4Y-9.85
X5.5Y-9.85
X5.6Y-9.85
X5.7Y-9.85
X5.8Y-9.85
X5.9Y-9.85
X6.0Y-9.85
X8.1Y-2.7
X8.1Y-2.8
X8.2Y-2.7
X8.2Y-2.8
X8.3Y-2.7
X8.3Y-2.8
X8.4Y-2.7
X8.4Y-2.8
X8.5Y-2.7
X8.5Y-2.8
X8.6Y-2.7
X8.6Y-2.8
X8.7Y-2.7
X8.7Y-2.8
X8.8Y-2.7
X8.8Y-2.8
X8.9Y-2.7
X8.9Y-2.8
X5.4Y-8.25
X5.5Y-8.25
X5.6Y-8.25
X5.7Y-8.25
X5.8Y-8.25
X5.9Y-8.25
X6.0Y-8.25
X3.6Y-4.9
X3.7Y-4.9
X3.8Y-4.9
X3.9Y-4.9
X4.0Y-4.9
X4.1Y-4.9
X4.2Y-4.9
X4.3Y-4.9
X9.0Y-2.7
X9.0Y-2.8
X9.1Y-2.7
X9.1Y-2.8
X9.2Y-2.7
X9.2Y-2.8
X9.3Y-2.7
X9.3Y-2.8
X9.4Y-2.7
X9.4Y-2.8
X9.5Y-2.7
X9.5Y-2.8
X9.6Y-2.7
X9.6Y-2.8
X9.7Y-2.7
X9.7Y-2.8
X9.8Y-2.7
X9.8Y-2.8
X9.9Y-2.7
X9.9Y-2.8
X10.0Y-2.7
X10.0Y-2.8
X3.0Y-7.4
X3.1Y-7.4
X3.2Y-7.4
X3.3Y-7.4
X3.4Y-7.4
X3.5Y-7.4
X3.6Y-7.4
X3.7Y-7.4
X3.8Y-7.4
X3.9Y-7.4
X4.0Y-7.4
X4.1Y-7.4
X4.2Y-7.4
X4.3Y-7.4
X4.4Y-7.4
X8.1Y-3.9
X8.1Y-4.0
X8.2Y-3.9
X8.2Y-4.0
X8.3Y-3.9
X8.3Y-4.0
X8.4Y-3.9
X8.4Y-4.0
X8.5Y-3.9
X8.5Y-4.0
X8.6Y-3.9
X8.6Y-4.0
X8.7Y-3.9
X8.7Y-4.0
X8.8Y-3.9
X8.8Y-4.0
X8.9Y-3.9
X8.9Y-4.0
X9.0Y-3.9
X9.0Y-4.0
X9.1Y-3.9
X9.1Y-4.0
X9.2Y-3.9
X9.2Y-4.0
X9.3Y-3.9
X9.3Y-4.0
X9.4Y-3.9
X9.4Y-4.0
X9.5Y-3.9
X9.5Y-4.0
X9.6Y-3.9
X9.6Y-4.0
X9.7Y-3.9
X9.7Y-4.0
X9.8Y-3.9
X9.8Y-4.0
X9.9Y-3.9
X9.9Y-4.0
X10.0Y-3.9
X10.0Y-4.0
X2.2Y-3.2
X2.3Y-3.2
X2.4Y-3.2
X2.5Y-3.2
X2.6Y-3.2
X2.7Y-3.2
X2.8Y-3.2
X2.9Y-3.2
X3.0Y-3.2
X4.5Y-7.4
X9.0Y-3.3
X10.0Y-4.5
X10.0Y-4.6
X2.3Y-4.9
X2.2Y-4.9
X2.4Y-4.9
X2.5Y-4.9
X2.6Y-4.9
X2.7Y-4.9
X2.8Y-4.9
X2.9Y-4.9
X6.45Y-9.85
X6.55Y-9.85
X6.65Y-9.85
X6.75Y-9.85
X6.85Y-9.85
X6.95Y-9.85
X7.05Y-9.85
X7.15Y-9.85
X7.25Y-9.85
T6
X10.55Y-6.65
X10.55Y-6.8272
X10.8059Y-6.8272
X7.3Y-7.38
X7.3Y-7.5572
X7.5559Y-7.38
X7.5559Y-7.5572
X10.8059Y-6.65
T7
X10.82Y-7.4
X10.82Y-7.5969
T8
X10.8Y-1.1
X1.95Y-10.4
X1.95Y-1.1
X10.8Y-10.4
T0
M30
