G04 #@! TF.GenerationSoftware,KiCad,Pcbnew,(5.1.0-0)*
G04 #@! TF.CreationDate,2019-09-18T19:57:21-07:00*
G04 #@! TF.ProjectId,LEDRiser8,4c454452-6973-4657-9238-2e6b69636164,rev?*
G04 #@! TF.SameCoordinates,Original*
G04 #@! TF.FileFunction,Soldermask,Top*
G04 #@! TF.FilePolarity,Negative*
%FSLAX46Y46*%
G04 Gerber Fmt 4.6, Leading zero omitted, Abs format (unit mm)*
G04 Created by KiCad (PCBNEW (5.1.0-0)) date 2019-09-18 19:57:21*
%MOMM*%
%LPD*%
G04 APERTURE LIST*
%ADD10C,0.100000*%
G04 APERTURE END LIST*
D10*
G36*
X124803000Y-83909000D02*
G01*
X123101000Y-83909000D01*
X123101000Y-82207000D01*
X124803000Y-82207000D01*
X124803000Y-83909000D01*
X124803000Y-83909000D01*
G37*
G36*
X121578823Y-82219313D02*
G01*
X121739242Y-82267976D01*
X121871906Y-82338886D01*
X121887078Y-82346996D01*
X122016659Y-82453341D01*
X122123004Y-82582922D01*
X122123005Y-82582924D01*
X122202024Y-82730758D01*
X122250687Y-82891177D01*
X122267117Y-83058000D01*
X122250687Y-83224823D01*
X122202024Y-83385242D01*
X122131114Y-83517906D01*
X122123004Y-83533078D01*
X122016659Y-83662659D01*
X121887078Y-83769004D01*
X121887076Y-83769005D01*
X121739242Y-83848024D01*
X121578823Y-83896687D01*
X121453804Y-83909000D01*
X121370196Y-83909000D01*
X121245177Y-83896687D01*
X121084758Y-83848024D01*
X120936924Y-83769005D01*
X120936922Y-83769004D01*
X120807341Y-83662659D01*
X120700996Y-83533078D01*
X120692886Y-83517906D01*
X120621976Y-83385242D01*
X120573313Y-83224823D01*
X120556883Y-83058000D01*
X120573313Y-82891177D01*
X120621976Y-82730758D01*
X120700995Y-82582924D01*
X120700996Y-82582922D01*
X120807341Y-82453341D01*
X120936922Y-82346996D01*
X120952094Y-82338886D01*
X121084758Y-82267976D01*
X121245177Y-82219313D01*
X121370196Y-82207000D01*
X121453804Y-82207000D01*
X121578823Y-82219313D01*
X121578823Y-82219313D01*
G37*
G36*
X119038823Y-82219313D02*
G01*
X119199242Y-82267976D01*
X119331906Y-82338886D01*
X119347078Y-82346996D01*
X119476659Y-82453341D01*
X119583004Y-82582922D01*
X119583005Y-82582924D01*
X119662024Y-82730758D01*
X119710687Y-82891177D01*
X119727117Y-83058000D01*
X119710687Y-83224823D01*
X119662024Y-83385242D01*
X119591114Y-83517906D01*
X119583004Y-83533078D01*
X119476659Y-83662659D01*
X119347078Y-83769004D01*
X119347076Y-83769005D01*
X119199242Y-83848024D01*
X119038823Y-83896687D01*
X118913804Y-83909000D01*
X118830196Y-83909000D01*
X118705177Y-83896687D01*
X118544758Y-83848024D01*
X118396924Y-83769005D01*
X118396922Y-83769004D01*
X118267341Y-83662659D01*
X118160996Y-83533078D01*
X118152886Y-83517906D01*
X118081976Y-83385242D01*
X118033313Y-83224823D01*
X118016883Y-83058000D01*
X118033313Y-82891177D01*
X118081976Y-82730758D01*
X118160995Y-82582924D01*
X118160996Y-82582922D01*
X118267341Y-82453341D01*
X118396922Y-82346996D01*
X118412094Y-82338886D01*
X118544758Y-82267976D01*
X118705177Y-82219313D01*
X118830196Y-82207000D01*
X118913804Y-82207000D01*
X119038823Y-82219313D01*
X119038823Y-82219313D01*
G37*
G36*
X116498823Y-82219313D02*
G01*
X116659242Y-82267976D01*
X116791906Y-82338886D01*
X116807078Y-82346996D01*
X116936659Y-82453341D01*
X117043004Y-82582922D01*
X117043005Y-82582924D01*
X117122024Y-82730758D01*
X117170687Y-82891177D01*
X117187117Y-83058000D01*
X117170687Y-83224823D01*
X117122024Y-83385242D01*
X117051114Y-83517906D01*
X117043004Y-83533078D01*
X116936659Y-83662659D01*
X116807078Y-83769004D01*
X116807076Y-83769005D01*
X116659242Y-83848024D01*
X116498823Y-83896687D01*
X116373804Y-83909000D01*
X116290196Y-83909000D01*
X116165177Y-83896687D01*
X116004758Y-83848024D01*
X115856924Y-83769005D01*
X115856922Y-83769004D01*
X115727341Y-83662659D01*
X115620996Y-83533078D01*
X115612886Y-83517906D01*
X115541976Y-83385242D01*
X115493313Y-83224823D01*
X115476883Y-83058000D01*
X115493313Y-82891177D01*
X115541976Y-82730758D01*
X115620995Y-82582924D01*
X115620996Y-82582922D01*
X115727341Y-82453341D01*
X115856922Y-82346996D01*
X115872094Y-82338886D01*
X116004758Y-82267976D01*
X116165177Y-82219313D01*
X116290196Y-82207000D01*
X116373804Y-82207000D01*
X116498823Y-82219313D01*
X116498823Y-82219313D01*
G37*
G36*
X113958823Y-82219313D02*
G01*
X114119242Y-82267976D01*
X114251906Y-82338886D01*
X114267078Y-82346996D01*
X114396659Y-82453341D01*
X114503004Y-82582922D01*
X114503005Y-82582924D01*
X114582024Y-82730758D01*
X114630687Y-82891177D01*
X114647117Y-83058000D01*
X114630687Y-83224823D01*
X114582024Y-83385242D01*
X114511114Y-83517906D01*
X114503004Y-83533078D01*
X114396659Y-83662659D01*
X114267078Y-83769004D01*
X114267076Y-83769005D01*
X114119242Y-83848024D01*
X113958823Y-83896687D01*
X113833804Y-83909000D01*
X113750196Y-83909000D01*
X113625177Y-83896687D01*
X113464758Y-83848024D01*
X113316924Y-83769005D01*
X113316922Y-83769004D01*
X113187341Y-83662659D01*
X113080996Y-83533078D01*
X113072886Y-83517906D01*
X113001976Y-83385242D01*
X112953313Y-83224823D01*
X112936883Y-83058000D01*
X112953313Y-82891177D01*
X113001976Y-82730758D01*
X113080995Y-82582924D01*
X113080996Y-82582922D01*
X113187341Y-82453341D01*
X113316922Y-82346996D01*
X113332094Y-82338886D01*
X113464758Y-82267976D01*
X113625177Y-82219313D01*
X113750196Y-82207000D01*
X113833804Y-82207000D01*
X113958823Y-82219313D01*
X113958823Y-82219313D01*
G37*
G36*
X111418823Y-82219313D02*
G01*
X111579242Y-82267976D01*
X111711906Y-82338886D01*
X111727078Y-82346996D01*
X111856659Y-82453341D01*
X111963004Y-82582922D01*
X111963005Y-82582924D01*
X112042024Y-82730758D01*
X112090687Y-82891177D01*
X112107117Y-83058000D01*
X112090687Y-83224823D01*
X112042024Y-83385242D01*
X111971114Y-83517906D01*
X111963004Y-83533078D01*
X111856659Y-83662659D01*
X111727078Y-83769004D01*
X111727076Y-83769005D01*
X111579242Y-83848024D01*
X111418823Y-83896687D01*
X111293804Y-83909000D01*
X111210196Y-83909000D01*
X111085177Y-83896687D01*
X110924758Y-83848024D01*
X110776924Y-83769005D01*
X110776922Y-83769004D01*
X110647341Y-83662659D01*
X110540996Y-83533078D01*
X110532886Y-83517906D01*
X110461976Y-83385242D01*
X110413313Y-83224823D01*
X110396883Y-83058000D01*
X110413313Y-82891177D01*
X110461976Y-82730758D01*
X110540995Y-82582924D01*
X110540996Y-82582922D01*
X110647341Y-82453341D01*
X110776922Y-82346996D01*
X110792094Y-82338886D01*
X110924758Y-82267976D01*
X111085177Y-82219313D01*
X111210196Y-82207000D01*
X111293804Y-82207000D01*
X111418823Y-82219313D01*
X111418823Y-82219313D01*
G37*
G36*
X108878823Y-82219313D02*
G01*
X109039242Y-82267976D01*
X109171906Y-82338886D01*
X109187078Y-82346996D01*
X109316659Y-82453341D01*
X109423004Y-82582922D01*
X109423005Y-82582924D01*
X109502024Y-82730758D01*
X109550687Y-82891177D01*
X109567117Y-83058000D01*
X109550687Y-83224823D01*
X109502024Y-83385242D01*
X109431114Y-83517906D01*
X109423004Y-83533078D01*
X109316659Y-83662659D01*
X109187078Y-83769004D01*
X109187076Y-83769005D01*
X109039242Y-83848024D01*
X108878823Y-83896687D01*
X108753804Y-83909000D01*
X108670196Y-83909000D01*
X108545177Y-83896687D01*
X108384758Y-83848024D01*
X108236924Y-83769005D01*
X108236922Y-83769004D01*
X108107341Y-83662659D01*
X108000996Y-83533078D01*
X107992886Y-83517906D01*
X107921976Y-83385242D01*
X107873313Y-83224823D01*
X107856883Y-83058000D01*
X107873313Y-82891177D01*
X107921976Y-82730758D01*
X108000995Y-82582924D01*
X108000996Y-82582922D01*
X108107341Y-82453341D01*
X108236922Y-82346996D01*
X108252094Y-82338886D01*
X108384758Y-82267976D01*
X108545177Y-82219313D01*
X108670196Y-82207000D01*
X108753804Y-82207000D01*
X108878823Y-82219313D01*
X108878823Y-82219313D01*
G37*
G36*
X106338823Y-82219313D02*
G01*
X106499242Y-82267976D01*
X106631906Y-82338886D01*
X106647078Y-82346996D01*
X106776659Y-82453341D01*
X106883004Y-82582922D01*
X106883005Y-82582924D01*
X106962024Y-82730758D01*
X107010687Y-82891177D01*
X107027117Y-83058000D01*
X107010687Y-83224823D01*
X106962024Y-83385242D01*
X106891114Y-83517906D01*
X106883004Y-83533078D01*
X106776659Y-83662659D01*
X106647078Y-83769004D01*
X106647076Y-83769005D01*
X106499242Y-83848024D01*
X106338823Y-83896687D01*
X106213804Y-83909000D01*
X106130196Y-83909000D01*
X106005177Y-83896687D01*
X105844758Y-83848024D01*
X105696924Y-83769005D01*
X105696922Y-83769004D01*
X105567341Y-83662659D01*
X105460996Y-83533078D01*
X105452886Y-83517906D01*
X105381976Y-83385242D01*
X105333313Y-83224823D01*
X105316883Y-83058000D01*
X105333313Y-82891177D01*
X105381976Y-82730758D01*
X105460995Y-82582924D01*
X105460996Y-82582922D01*
X105567341Y-82453341D01*
X105696922Y-82346996D01*
X105712094Y-82338886D01*
X105844758Y-82267976D01*
X106005177Y-82219313D01*
X106130196Y-82207000D01*
X106213804Y-82207000D01*
X106338823Y-82219313D01*
X106338823Y-82219313D01*
G37*
G36*
X103798823Y-82219313D02*
G01*
X103959242Y-82267976D01*
X104091906Y-82338886D01*
X104107078Y-82346996D01*
X104236659Y-82453341D01*
X104343004Y-82582922D01*
X104343005Y-82582924D01*
X104422024Y-82730758D01*
X104470687Y-82891177D01*
X104487117Y-83058000D01*
X104470687Y-83224823D01*
X104422024Y-83385242D01*
X104351114Y-83517906D01*
X104343004Y-83533078D01*
X104236659Y-83662659D01*
X104107078Y-83769004D01*
X104107076Y-83769005D01*
X103959242Y-83848024D01*
X103798823Y-83896687D01*
X103673804Y-83909000D01*
X103590196Y-83909000D01*
X103465177Y-83896687D01*
X103304758Y-83848024D01*
X103156924Y-83769005D01*
X103156922Y-83769004D01*
X103027341Y-83662659D01*
X102920996Y-83533078D01*
X102912886Y-83517906D01*
X102841976Y-83385242D01*
X102793313Y-83224823D01*
X102776883Y-83058000D01*
X102793313Y-82891177D01*
X102841976Y-82730758D01*
X102920995Y-82582924D01*
X102920996Y-82582922D01*
X103027341Y-82453341D01*
X103156922Y-82346996D01*
X103172094Y-82338886D01*
X103304758Y-82267976D01*
X103465177Y-82219313D01*
X103590196Y-82207000D01*
X103673804Y-82207000D01*
X103798823Y-82219313D01*
X103798823Y-82219313D01*
G37*
G36*
X101657231Y-78730003D02*
G01*
X101851412Y-78810436D01*
X101851414Y-78810437D01*
X102026173Y-78927207D01*
X102174793Y-79075827D01*
X102291563Y-79250586D01*
X102291564Y-79250588D01*
X102371997Y-79444769D01*
X102413000Y-79650908D01*
X102413000Y-79861092D01*
X102371997Y-80067231D01*
X102291564Y-80261412D01*
X102291563Y-80261414D01*
X102174793Y-80436173D01*
X102026173Y-80584793D01*
X101851414Y-80701563D01*
X101851413Y-80701564D01*
X101851412Y-80701564D01*
X101657231Y-80781997D01*
X101451092Y-80823000D01*
X101240908Y-80823000D01*
X101034769Y-80781997D01*
X100840588Y-80701564D01*
X100840587Y-80701564D01*
X100840586Y-80701563D01*
X100665827Y-80584793D01*
X100517207Y-80436173D01*
X100400437Y-80261414D01*
X100400436Y-80261412D01*
X100320003Y-80067231D01*
X100279000Y-79861092D01*
X100279000Y-79650908D01*
X100320003Y-79444769D01*
X100400436Y-79250588D01*
X100400437Y-79250586D01*
X100517207Y-79075827D01*
X100665827Y-78927207D01*
X100840586Y-78810437D01*
X100840588Y-78810436D01*
X101034769Y-78730003D01*
X101240908Y-78689000D01*
X101451092Y-78689000D01*
X101657231Y-78730003D01*
X101657231Y-78730003D01*
G37*
G36*
X104197231Y-78730003D02*
G01*
X104391412Y-78810436D01*
X104391414Y-78810437D01*
X104566173Y-78927207D01*
X104714793Y-79075827D01*
X104831563Y-79250586D01*
X104831564Y-79250588D01*
X104911997Y-79444769D01*
X104953000Y-79650908D01*
X104953000Y-79861092D01*
X104911997Y-80067231D01*
X104831564Y-80261412D01*
X104831563Y-80261414D01*
X104714793Y-80436173D01*
X104566173Y-80584793D01*
X104391414Y-80701563D01*
X104391413Y-80701564D01*
X104391412Y-80701564D01*
X104197231Y-80781997D01*
X103991092Y-80823000D01*
X103780908Y-80823000D01*
X103574769Y-80781997D01*
X103380588Y-80701564D01*
X103380587Y-80701564D01*
X103380586Y-80701563D01*
X103205827Y-80584793D01*
X103057207Y-80436173D01*
X102940437Y-80261414D01*
X102940436Y-80261412D01*
X102860003Y-80067231D01*
X102819000Y-79861092D01*
X102819000Y-79650908D01*
X102860003Y-79444769D01*
X102940436Y-79250588D01*
X102940437Y-79250586D01*
X103057207Y-79075827D01*
X103205827Y-78927207D01*
X103380586Y-78810437D01*
X103380588Y-78810436D01*
X103574769Y-78730003D01*
X103780908Y-78689000D01*
X103991092Y-78689000D01*
X104197231Y-78730003D01*
X104197231Y-78730003D01*
G37*
G36*
X109277231Y-78730003D02*
G01*
X109471412Y-78810436D01*
X109471414Y-78810437D01*
X109646173Y-78927207D01*
X109794793Y-79075827D01*
X109911563Y-79250586D01*
X109911564Y-79250588D01*
X109991997Y-79444769D01*
X110033000Y-79650908D01*
X110033000Y-79861092D01*
X109991997Y-80067231D01*
X109911564Y-80261412D01*
X109911563Y-80261414D01*
X109794793Y-80436173D01*
X109646173Y-80584793D01*
X109471414Y-80701563D01*
X109471413Y-80701564D01*
X109471412Y-80701564D01*
X109277231Y-80781997D01*
X109071092Y-80823000D01*
X108860908Y-80823000D01*
X108654769Y-80781997D01*
X108460588Y-80701564D01*
X108460587Y-80701564D01*
X108460586Y-80701563D01*
X108285827Y-80584793D01*
X108137207Y-80436173D01*
X108020437Y-80261414D01*
X108020436Y-80261412D01*
X107940003Y-80067231D01*
X107899000Y-79861092D01*
X107899000Y-79650908D01*
X107940003Y-79444769D01*
X108020436Y-79250588D01*
X108020437Y-79250586D01*
X108137207Y-79075827D01*
X108285827Y-78927207D01*
X108460586Y-78810437D01*
X108460588Y-78810436D01*
X108654769Y-78730003D01*
X108860908Y-78689000D01*
X109071092Y-78689000D01*
X109277231Y-78730003D01*
X109277231Y-78730003D01*
G37*
G36*
X111817231Y-78730003D02*
G01*
X112011412Y-78810436D01*
X112011414Y-78810437D01*
X112186173Y-78927207D01*
X112334793Y-79075827D01*
X112451563Y-79250586D01*
X112451564Y-79250588D01*
X112531997Y-79444769D01*
X112573000Y-79650908D01*
X112573000Y-79861092D01*
X112531997Y-80067231D01*
X112451564Y-80261412D01*
X112451563Y-80261414D01*
X112334793Y-80436173D01*
X112186173Y-80584793D01*
X112011414Y-80701563D01*
X112011413Y-80701564D01*
X112011412Y-80701564D01*
X111817231Y-80781997D01*
X111611092Y-80823000D01*
X111400908Y-80823000D01*
X111194769Y-80781997D01*
X111000588Y-80701564D01*
X111000587Y-80701564D01*
X111000586Y-80701563D01*
X110825827Y-80584793D01*
X110677207Y-80436173D01*
X110560437Y-80261414D01*
X110560436Y-80261412D01*
X110480003Y-80067231D01*
X110439000Y-79861092D01*
X110439000Y-79650908D01*
X110480003Y-79444769D01*
X110560436Y-79250588D01*
X110560437Y-79250586D01*
X110677207Y-79075827D01*
X110825827Y-78927207D01*
X111000586Y-78810437D01*
X111000588Y-78810436D01*
X111194769Y-78730003D01*
X111400908Y-78689000D01*
X111611092Y-78689000D01*
X111817231Y-78730003D01*
X111817231Y-78730003D01*
G37*
G36*
X114357231Y-78730003D02*
G01*
X114551412Y-78810436D01*
X114551414Y-78810437D01*
X114726173Y-78927207D01*
X114874793Y-79075827D01*
X114991563Y-79250586D01*
X114991564Y-79250588D01*
X115071997Y-79444769D01*
X115113000Y-79650908D01*
X115113000Y-79861092D01*
X115071997Y-80067231D01*
X114991564Y-80261412D01*
X114991563Y-80261414D01*
X114874793Y-80436173D01*
X114726173Y-80584793D01*
X114551414Y-80701563D01*
X114551413Y-80701564D01*
X114551412Y-80701564D01*
X114357231Y-80781997D01*
X114151092Y-80823000D01*
X113940908Y-80823000D01*
X113734769Y-80781997D01*
X113540588Y-80701564D01*
X113540587Y-80701564D01*
X113540586Y-80701563D01*
X113365827Y-80584793D01*
X113217207Y-80436173D01*
X113100437Y-80261414D01*
X113100436Y-80261412D01*
X113020003Y-80067231D01*
X112979000Y-79861092D01*
X112979000Y-79650908D01*
X113020003Y-79444769D01*
X113100436Y-79250588D01*
X113100437Y-79250586D01*
X113217207Y-79075827D01*
X113365827Y-78927207D01*
X113540586Y-78810437D01*
X113540588Y-78810436D01*
X113734769Y-78730003D01*
X113940908Y-78689000D01*
X114151092Y-78689000D01*
X114357231Y-78730003D01*
X114357231Y-78730003D01*
G37*
G36*
X116897231Y-78730003D02*
G01*
X117091412Y-78810436D01*
X117091414Y-78810437D01*
X117266173Y-78927207D01*
X117414793Y-79075827D01*
X117531563Y-79250586D01*
X117531564Y-79250588D01*
X117611997Y-79444769D01*
X117653000Y-79650908D01*
X117653000Y-79861092D01*
X117611997Y-80067231D01*
X117531564Y-80261412D01*
X117531563Y-80261414D01*
X117414793Y-80436173D01*
X117266173Y-80584793D01*
X117091414Y-80701563D01*
X117091413Y-80701564D01*
X117091412Y-80701564D01*
X116897231Y-80781997D01*
X116691092Y-80823000D01*
X116480908Y-80823000D01*
X116274769Y-80781997D01*
X116080588Y-80701564D01*
X116080587Y-80701564D01*
X116080586Y-80701563D01*
X115905827Y-80584793D01*
X115757207Y-80436173D01*
X115640437Y-80261414D01*
X115640436Y-80261412D01*
X115560003Y-80067231D01*
X115519000Y-79861092D01*
X115519000Y-79650908D01*
X115560003Y-79444769D01*
X115640436Y-79250588D01*
X115640437Y-79250586D01*
X115757207Y-79075827D01*
X115905827Y-78927207D01*
X116080586Y-78810437D01*
X116080588Y-78810436D01*
X116274769Y-78730003D01*
X116480908Y-78689000D01*
X116691092Y-78689000D01*
X116897231Y-78730003D01*
X116897231Y-78730003D01*
G37*
G36*
X119437231Y-78730003D02*
G01*
X119631412Y-78810436D01*
X119631414Y-78810437D01*
X119806173Y-78927207D01*
X119954793Y-79075827D01*
X120071563Y-79250586D01*
X120071564Y-79250588D01*
X120151997Y-79444769D01*
X120193000Y-79650908D01*
X120193000Y-79861092D01*
X120151997Y-80067231D01*
X120071564Y-80261412D01*
X120071563Y-80261414D01*
X119954793Y-80436173D01*
X119806173Y-80584793D01*
X119631414Y-80701563D01*
X119631413Y-80701564D01*
X119631412Y-80701564D01*
X119437231Y-80781997D01*
X119231092Y-80823000D01*
X119020908Y-80823000D01*
X118814769Y-80781997D01*
X118620588Y-80701564D01*
X118620587Y-80701564D01*
X118620586Y-80701563D01*
X118445827Y-80584793D01*
X118297207Y-80436173D01*
X118180437Y-80261414D01*
X118180436Y-80261412D01*
X118100003Y-80067231D01*
X118059000Y-79861092D01*
X118059000Y-79650908D01*
X118100003Y-79444769D01*
X118180436Y-79250588D01*
X118180437Y-79250586D01*
X118297207Y-79075827D01*
X118445827Y-78927207D01*
X118620586Y-78810437D01*
X118620588Y-78810436D01*
X118814769Y-78730003D01*
X119020908Y-78689000D01*
X119231092Y-78689000D01*
X119437231Y-78730003D01*
X119437231Y-78730003D01*
G37*
G36*
X121977231Y-78730003D02*
G01*
X122171412Y-78810436D01*
X122171414Y-78810437D01*
X122346173Y-78927207D01*
X122494793Y-79075827D01*
X122611563Y-79250586D01*
X122611564Y-79250588D01*
X122691997Y-79444769D01*
X122733000Y-79650908D01*
X122733000Y-79861092D01*
X122691997Y-80067231D01*
X122611564Y-80261412D01*
X122611563Y-80261414D01*
X122494793Y-80436173D01*
X122346173Y-80584793D01*
X122171414Y-80701563D01*
X122171413Y-80701564D01*
X122171412Y-80701564D01*
X121977231Y-80781997D01*
X121771092Y-80823000D01*
X121560908Y-80823000D01*
X121354769Y-80781997D01*
X121160588Y-80701564D01*
X121160587Y-80701564D01*
X121160586Y-80701563D01*
X120985827Y-80584793D01*
X120837207Y-80436173D01*
X120720437Y-80261414D01*
X120720436Y-80261412D01*
X120640003Y-80067231D01*
X120599000Y-79861092D01*
X120599000Y-79650908D01*
X120640003Y-79444769D01*
X120720436Y-79250588D01*
X120720437Y-79250586D01*
X120837207Y-79075827D01*
X120985827Y-78927207D01*
X121160586Y-78810437D01*
X121160588Y-78810436D01*
X121354769Y-78730003D01*
X121560908Y-78689000D01*
X121771092Y-78689000D01*
X121977231Y-78730003D01*
X121977231Y-78730003D01*
G37*
G36*
X124517231Y-78730003D02*
G01*
X124711412Y-78810436D01*
X124711414Y-78810437D01*
X124886173Y-78927207D01*
X125034793Y-79075827D01*
X125151563Y-79250586D01*
X125151564Y-79250588D01*
X125231997Y-79444769D01*
X125273000Y-79650908D01*
X125273000Y-79861092D01*
X125231997Y-80067231D01*
X125151564Y-80261412D01*
X125151563Y-80261414D01*
X125034793Y-80436173D01*
X124886173Y-80584793D01*
X124711414Y-80701563D01*
X124711413Y-80701564D01*
X124711412Y-80701564D01*
X124517231Y-80781997D01*
X124311092Y-80823000D01*
X124100908Y-80823000D01*
X123894769Y-80781997D01*
X123700588Y-80701564D01*
X123700587Y-80701564D01*
X123700586Y-80701563D01*
X123525827Y-80584793D01*
X123377207Y-80436173D01*
X123260437Y-80261414D01*
X123260436Y-80261412D01*
X123180003Y-80067231D01*
X123139000Y-79861092D01*
X123139000Y-79650908D01*
X123180003Y-79444769D01*
X123260436Y-79250588D01*
X123260437Y-79250586D01*
X123377207Y-79075827D01*
X123525827Y-78927207D01*
X123700586Y-78810437D01*
X123700588Y-78810436D01*
X123894769Y-78730003D01*
X124100908Y-78689000D01*
X124311092Y-78689000D01*
X124517231Y-78730003D01*
X124517231Y-78730003D01*
G37*
G36*
X106737231Y-78730003D02*
G01*
X106931412Y-78810436D01*
X106931414Y-78810437D01*
X107106173Y-78927207D01*
X107254793Y-79075827D01*
X107371563Y-79250586D01*
X107371564Y-79250588D01*
X107451997Y-79444769D01*
X107493000Y-79650908D01*
X107493000Y-79861092D01*
X107451997Y-80067231D01*
X107371564Y-80261412D01*
X107371563Y-80261414D01*
X107254793Y-80436173D01*
X107106173Y-80584793D01*
X106931414Y-80701563D01*
X106931413Y-80701564D01*
X106931412Y-80701564D01*
X106737231Y-80781997D01*
X106531092Y-80823000D01*
X106320908Y-80823000D01*
X106114769Y-80781997D01*
X105920588Y-80701564D01*
X105920587Y-80701564D01*
X105920586Y-80701563D01*
X105745827Y-80584793D01*
X105597207Y-80436173D01*
X105480437Y-80261414D01*
X105480436Y-80261412D01*
X105400003Y-80067231D01*
X105359000Y-79861092D01*
X105359000Y-79650908D01*
X105400003Y-79444769D01*
X105480436Y-79250588D01*
X105480437Y-79250586D01*
X105597207Y-79075827D01*
X105745827Y-78927207D01*
X105920586Y-78810437D01*
X105920588Y-78810436D01*
X106114769Y-78730003D01*
X106320908Y-78689000D01*
X106531092Y-78689000D01*
X106737231Y-78730003D01*
X106737231Y-78730003D01*
G37*
G36*
X125273000Y-73203000D02*
G01*
X123139000Y-73203000D01*
X123139000Y-71069000D01*
X125273000Y-71069000D01*
X125273000Y-73203000D01*
X125273000Y-73203000D01*
G37*
G36*
X104197231Y-71110003D02*
G01*
X104391412Y-71190436D01*
X104391414Y-71190437D01*
X104566173Y-71307207D01*
X104714793Y-71455827D01*
X104831563Y-71630586D01*
X104831564Y-71630588D01*
X104911997Y-71824769D01*
X104953000Y-72030908D01*
X104953000Y-72241092D01*
X104911997Y-72447231D01*
X104831564Y-72641412D01*
X104831563Y-72641414D01*
X104714793Y-72816173D01*
X104566173Y-72964793D01*
X104391414Y-73081563D01*
X104391413Y-73081564D01*
X104391412Y-73081564D01*
X104197231Y-73161997D01*
X103991092Y-73203000D01*
X103780908Y-73203000D01*
X103574769Y-73161997D01*
X103380588Y-73081564D01*
X103380587Y-73081564D01*
X103380586Y-73081563D01*
X103205827Y-72964793D01*
X103057207Y-72816173D01*
X102940437Y-72641414D01*
X102940436Y-72641412D01*
X102860003Y-72447231D01*
X102819000Y-72241092D01*
X102819000Y-72030908D01*
X102860003Y-71824769D01*
X102940436Y-71630588D01*
X102940437Y-71630586D01*
X103057207Y-71455827D01*
X103205827Y-71307207D01*
X103380586Y-71190437D01*
X103380588Y-71190436D01*
X103574769Y-71110003D01*
X103780908Y-71069000D01*
X103991092Y-71069000D01*
X104197231Y-71110003D01*
X104197231Y-71110003D01*
G37*
G36*
X121977231Y-71110003D02*
G01*
X122171412Y-71190436D01*
X122171414Y-71190437D01*
X122346173Y-71307207D01*
X122494793Y-71455827D01*
X122611563Y-71630586D01*
X122611564Y-71630588D01*
X122691997Y-71824769D01*
X122733000Y-72030908D01*
X122733000Y-72241092D01*
X122691997Y-72447231D01*
X122611564Y-72641412D01*
X122611563Y-72641414D01*
X122494793Y-72816173D01*
X122346173Y-72964793D01*
X122171414Y-73081563D01*
X122171413Y-73081564D01*
X122171412Y-73081564D01*
X121977231Y-73161997D01*
X121771092Y-73203000D01*
X121560908Y-73203000D01*
X121354769Y-73161997D01*
X121160588Y-73081564D01*
X121160587Y-73081564D01*
X121160586Y-73081563D01*
X120985827Y-72964793D01*
X120837207Y-72816173D01*
X120720437Y-72641414D01*
X120720436Y-72641412D01*
X120640003Y-72447231D01*
X120599000Y-72241092D01*
X120599000Y-72030908D01*
X120640003Y-71824769D01*
X120720436Y-71630588D01*
X120720437Y-71630586D01*
X120837207Y-71455827D01*
X120985827Y-71307207D01*
X121160586Y-71190437D01*
X121160588Y-71190436D01*
X121354769Y-71110003D01*
X121560908Y-71069000D01*
X121771092Y-71069000D01*
X121977231Y-71110003D01*
X121977231Y-71110003D01*
G37*
G36*
X119437231Y-71110003D02*
G01*
X119631412Y-71190436D01*
X119631414Y-71190437D01*
X119806173Y-71307207D01*
X119954793Y-71455827D01*
X120071563Y-71630586D01*
X120071564Y-71630588D01*
X120151997Y-71824769D01*
X120193000Y-72030908D01*
X120193000Y-72241092D01*
X120151997Y-72447231D01*
X120071564Y-72641412D01*
X120071563Y-72641414D01*
X119954793Y-72816173D01*
X119806173Y-72964793D01*
X119631414Y-73081563D01*
X119631413Y-73081564D01*
X119631412Y-73081564D01*
X119437231Y-73161997D01*
X119231092Y-73203000D01*
X119020908Y-73203000D01*
X118814769Y-73161997D01*
X118620588Y-73081564D01*
X118620587Y-73081564D01*
X118620586Y-73081563D01*
X118445827Y-72964793D01*
X118297207Y-72816173D01*
X118180437Y-72641414D01*
X118180436Y-72641412D01*
X118100003Y-72447231D01*
X118059000Y-72241092D01*
X118059000Y-72030908D01*
X118100003Y-71824769D01*
X118180436Y-71630588D01*
X118180437Y-71630586D01*
X118297207Y-71455827D01*
X118445827Y-71307207D01*
X118620586Y-71190437D01*
X118620588Y-71190436D01*
X118814769Y-71110003D01*
X119020908Y-71069000D01*
X119231092Y-71069000D01*
X119437231Y-71110003D01*
X119437231Y-71110003D01*
G37*
G36*
X116897231Y-71110003D02*
G01*
X117091412Y-71190436D01*
X117091414Y-71190437D01*
X117266173Y-71307207D01*
X117414793Y-71455827D01*
X117531563Y-71630586D01*
X117531564Y-71630588D01*
X117611997Y-71824769D01*
X117653000Y-72030908D01*
X117653000Y-72241092D01*
X117611997Y-72447231D01*
X117531564Y-72641412D01*
X117531563Y-72641414D01*
X117414793Y-72816173D01*
X117266173Y-72964793D01*
X117091414Y-73081563D01*
X117091413Y-73081564D01*
X117091412Y-73081564D01*
X116897231Y-73161997D01*
X116691092Y-73203000D01*
X116480908Y-73203000D01*
X116274769Y-73161997D01*
X116080588Y-73081564D01*
X116080587Y-73081564D01*
X116080586Y-73081563D01*
X115905827Y-72964793D01*
X115757207Y-72816173D01*
X115640437Y-72641414D01*
X115640436Y-72641412D01*
X115560003Y-72447231D01*
X115519000Y-72241092D01*
X115519000Y-72030908D01*
X115560003Y-71824769D01*
X115640436Y-71630588D01*
X115640437Y-71630586D01*
X115757207Y-71455827D01*
X115905827Y-71307207D01*
X116080586Y-71190437D01*
X116080588Y-71190436D01*
X116274769Y-71110003D01*
X116480908Y-71069000D01*
X116691092Y-71069000D01*
X116897231Y-71110003D01*
X116897231Y-71110003D01*
G37*
G36*
X114357231Y-71110003D02*
G01*
X114551412Y-71190436D01*
X114551414Y-71190437D01*
X114726173Y-71307207D01*
X114874793Y-71455827D01*
X114991563Y-71630586D01*
X114991564Y-71630588D01*
X115071997Y-71824769D01*
X115113000Y-72030908D01*
X115113000Y-72241092D01*
X115071997Y-72447231D01*
X114991564Y-72641412D01*
X114991563Y-72641414D01*
X114874793Y-72816173D01*
X114726173Y-72964793D01*
X114551414Y-73081563D01*
X114551413Y-73081564D01*
X114551412Y-73081564D01*
X114357231Y-73161997D01*
X114151092Y-73203000D01*
X113940908Y-73203000D01*
X113734769Y-73161997D01*
X113540588Y-73081564D01*
X113540587Y-73081564D01*
X113540586Y-73081563D01*
X113365827Y-72964793D01*
X113217207Y-72816173D01*
X113100437Y-72641414D01*
X113100436Y-72641412D01*
X113020003Y-72447231D01*
X112979000Y-72241092D01*
X112979000Y-72030908D01*
X113020003Y-71824769D01*
X113100436Y-71630588D01*
X113100437Y-71630586D01*
X113217207Y-71455827D01*
X113365827Y-71307207D01*
X113540586Y-71190437D01*
X113540588Y-71190436D01*
X113734769Y-71110003D01*
X113940908Y-71069000D01*
X114151092Y-71069000D01*
X114357231Y-71110003D01*
X114357231Y-71110003D01*
G37*
G36*
X111817231Y-71110003D02*
G01*
X112011412Y-71190436D01*
X112011414Y-71190437D01*
X112186173Y-71307207D01*
X112334793Y-71455827D01*
X112451563Y-71630586D01*
X112451564Y-71630588D01*
X112531997Y-71824769D01*
X112573000Y-72030908D01*
X112573000Y-72241092D01*
X112531997Y-72447231D01*
X112451564Y-72641412D01*
X112451563Y-72641414D01*
X112334793Y-72816173D01*
X112186173Y-72964793D01*
X112011414Y-73081563D01*
X112011413Y-73081564D01*
X112011412Y-73081564D01*
X111817231Y-73161997D01*
X111611092Y-73203000D01*
X111400908Y-73203000D01*
X111194769Y-73161997D01*
X111000588Y-73081564D01*
X111000587Y-73081564D01*
X111000586Y-73081563D01*
X110825827Y-72964793D01*
X110677207Y-72816173D01*
X110560437Y-72641414D01*
X110560436Y-72641412D01*
X110480003Y-72447231D01*
X110439000Y-72241092D01*
X110439000Y-72030908D01*
X110480003Y-71824769D01*
X110560436Y-71630588D01*
X110560437Y-71630586D01*
X110677207Y-71455827D01*
X110825827Y-71307207D01*
X111000586Y-71190437D01*
X111000588Y-71190436D01*
X111194769Y-71110003D01*
X111400908Y-71069000D01*
X111611092Y-71069000D01*
X111817231Y-71110003D01*
X111817231Y-71110003D01*
G37*
G36*
X109277231Y-71110003D02*
G01*
X109471412Y-71190436D01*
X109471414Y-71190437D01*
X109646173Y-71307207D01*
X109794793Y-71455827D01*
X109911563Y-71630586D01*
X109911564Y-71630588D01*
X109991997Y-71824769D01*
X110033000Y-72030908D01*
X110033000Y-72241092D01*
X109991997Y-72447231D01*
X109911564Y-72641412D01*
X109911563Y-72641414D01*
X109794793Y-72816173D01*
X109646173Y-72964793D01*
X109471414Y-73081563D01*
X109471413Y-73081564D01*
X109471412Y-73081564D01*
X109277231Y-73161997D01*
X109071092Y-73203000D01*
X108860908Y-73203000D01*
X108654769Y-73161997D01*
X108460588Y-73081564D01*
X108460587Y-73081564D01*
X108460586Y-73081563D01*
X108285827Y-72964793D01*
X108137207Y-72816173D01*
X108020437Y-72641414D01*
X108020436Y-72641412D01*
X107940003Y-72447231D01*
X107899000Y-72241092D01*
X107899000Y-72030908D01*
X107940003Y-71824769D01*
X108020436Y-71630588D01*
X108020437Y-71630586D01*
X108137207Y-71455827D01*
X108285827Y-71307207D01*
X108460586Y-71190437D01*
X108460588Y-71190436D01*
X108654769Y-71110003D01*
X108860908Y-71069000D01*
X109071092Y-71069000D01*
X109277231Y-71110003D01*
X109277231Y-71110003D01*
G37*
G36*
X106737231Y-71110003D02*
G01*
X106931412Y-71190436D01*
X106931414Y-71190437D01*
X107106173Y-71307207D01*
X107254793Y-71455827D01*
X107371563Y-71630586D01*
X107371564Y-71630588D01*
X107451997Y-71824769D01*
X107493000Y-72030908D01*
X107493000Y-72241092D01*
X107451997Y-72447231D01*
X107371564Y-72641412D01*
X107371563Y-72641414D01*
X107254793Y-72816173D01*
X107106173Y-72964793D01*
X106931414Y-73081563D01*
X106931413Y-73081564D01*
X106931412Y-73081564D01*
X106737231Y-73161997D01*
X106531092Y-73203000D01*
X106320908Y-73203000D01*
X106114769Y-73161997D01*
X105920588Y-73081564D01*
X105920587Y-73081564D01*
X105920586Y-73081563D01*
X105745827Y-72964793D01*
X105597207Y-72816173D01*
X105480437Y-72641414D01*
X105480436Y-72641412D01*
X105400003Y-72447231D01*
X105359000Y-72241092D01*
X105359000Y-72030908D01*
X105400003Y-71824769D01*
X105480436Y-71630588D01*
X105480437Y-71630586D01*
X105597207Y-71455827D01*
X105745827Y-71307207D01*
X105920586Y-71190437D01*
X105920588Y-71190436D01*
X106114769Y-71110003D01*
X106320908Y-71069000D01*
X106531092Y-71069000D01*
X106737231Y-71110003D01*
X106737231Y-71110003D01*
G37*
G36*
X101657231Y-71110003D02*
G01*
X101851412Y-71190436D01*
X101851414Y-71190437D01*
X102026173Y-71307207D01*
X102174793Y-71455827D01*
X102291563Y-71630586D01*
X102291564Y-71630588D01*
X102371997Y-71824769D01*
X102413000Y-72030908D01*
X102413000Y-72241092D01*
X102371997Y-72447231D01*
X102291564Y-72641412D01*
X102291563Y-72641414D01*
X102174793Y-72816173D01*
X102026173Y-72964793D01*
X101851414Y-73081563D01*
X101851413Y-73081564D01*
X101851412Y-73081564D01*
X101657231Y-73161997D01*
X101451092Y-73203000D01*
X101240908Y-73203000D01*
X101034769Y-73161997D01*
X100840588Y-73081564D01*
X100840587Y-73081564D01*
X100840586Y-73081563D01*
X100665827Y-72964793D01*
X100517207Y-72816173D01*
X100400437Y-72641414D01*
X100400436Y-72641412D01*
X100320003Y-72447231D01*
X100279000Y-72241092D01*
X100279000Y-72030908D01*
X100320003Y-71824769D01*
X100400436Y-71630588D01*
X100400437Y-71630586D01*
X100517207Y-71455827D01*
X100665827Y-71307207D01*
X100840586Y-71190437D01*
X100840588Y-71190436D01*
X101034769Y-71110003D01*
X101240908Y-71069000D01*
X101451092Y-71069000D01*
X101657231Y-71110003D01*
X101657231Y-71110003D01*
G37*
G36*
X106471442Y-67939518D02*
G01*
X106537627Y-67946037D01*
X106707466Y-67997557D01*
X106863991Y-68081222D01*
X106899729Y-68110552D01*
X107001186Y-68193814D01*
X107084448Y-68295271D01*
X107113778Y-68331009D01*
X107197443Y-68487534D01*
X107248963Y-68657373D01*
X107266359Y-68834000D01*
X107248963Y-69010627D01*
X107197443Y-69180466D01*
X107113778Y-69336991D01*
X107084448Y-69372729D01*
X107001186Y-69474186D01*
X106899729Y-69557448D01*
X106863991Y-69586778D01*
X106707466Y-69670443D01*
X106537627Y-69721963D01*
X106471443Y-69728481D01*
X106405260Y-69735000D01*
X106316740Y-69735000D01*
X106250557Y-69728481D01*
X106184373Y-69721963D01*
X106014534Y-69670443D01*
X105858009Y-69586778D01*
X105822271Y-69557448D01*
X105720814Y-69474186D01*
X105637552Y-69372729D01*
X105608222Y-69336991D01*
X105524557Y-69180466D01*
X105473037Y-69010627D01*
X105455641Y-68834000D01*
X105473037Y-68657373D01*
X105524557Y-68487534D01*
X105608222Y-68331009D01*
X105637552Y-68295271D01*
X105720814Y-68193814D01*
X105822271Y-68110552D01*
X105858009Y-68081222D01*
X106014534Y-67997557D01*
X106184373Y-67946037D01*
X106250558Y-67939518D01*
X106316740Y-67933000D01*
X106405260Y-67933000D01*
X106471442Y-67939518D01*
X106471442Y-67939518D01*
G37*
G36*
X125042000Y-69735000D02*
G01*
X123240000Y-69735000D01*
X123240000Y-67933000D01*
X125042000Y-67933000D01*
X125042000Y-69735000D01*
X125042000Y-69735000D01*
G37*
G36*
X121711442Y-67939518D02*
G01*
X121777627Y-67946037D01*
X121947466Y-67997557D01*
X122103991Y-68081222D01*
X122139729Y-68110552D01*
X122241186Y-68193814D01*
X122324448Y-68295271D01*
X122353778Y-68331009D01*
X122437443Y-68487534D01*
X122488963Y-68657373D01*
X122506359Y-68834000D01*
X122488963Y-69010627D01*
X122437443Y-69180466D01*
X122353778Y-69336991D01*
X122324448Y-69372729D01*
X122241186Y-69474186D01*
X122139729Y-69557448D01*
X122103991Y-69586778D01*
X121947466Y-69670443D01*
X121777627Y-69721963D01*
X121711443Y-69728481D01*
X121645260Y-69735000D01*
X121556740Y-69735000D01*
X121490557Y-69728481D01*
X121424373Y-69721963D01*
X121254534Y-69670443D01*
X121098009Y-69586778D01*
X121062271Y-69557448D01*
X120960814Y-69474186D01*
X120877552Y-69372729D01*
X120848222Y-69336991D01*
X120764557Y-69180466D01*
X120713037Y-69010627D01*
X120695641Y-68834000D01*
X120713037Y-68657373D01*
X120764557Y-68487534D01*
X120848222Y-68331009D01*
X120877552Y-68295271D01*
X120960814Y-68193814D01*
X121062271Y-68110552D01*
X121098009Y-68081222D01*
X121254534Y-67997557D01*
X121424373Y-67946037D01*
X121490558Y-67939518D01*
X121556740Y-67933000D01*
X121645260Y-67933000D01*
X121711442Y-67939518D01*
X121711442Y-67939518D01*
G37*
G36*
X119171442Y-67939518D02*
G01*
X119237627Y-67946037D01*
X119407466Y-67997557D01*
X119563991Y-68081222D01*
X119599729Y-68110552D01*
X119701186Y-68193814D01*
X119784448Y-68295271D01*
X119813778Y-68331009D01*
X119897443Y-68487534D01*
X119948963Y-68657373D01*
X119966359Y-68834000D01*
X119948963Y-69010627D01*
X119897443Y-69180466D01*
X119813778Y-69336991D01*
X119784448Y-69372729D01*
X119701186Y-69474186D01*
X119599729Y-69557448D01*
X119563991Y-69586778D01*
X119407466Y-69670443D01*
X119237627Y-69721963D01*
X119171443Y-69728481D01*
X119105260Y-69735000D01*
X119016740Y-69735000D01*
X118950557Y-69728481D01*
X118884373Y-69721963D01*
X118714534Y-69670443D01*
X118558009Y-69586778D01*
X118522271Y-69557448D01*
X118420814Y-69474186D01*
X118337552Y-69372729D01*
X118308222Y-69336991D01*
X118224557Y-69180466D01*
X118173037Y-69010627D01*
X118155641Y-68834000D01*
X118173037Y-68657373D01*
X118224557Y-68487534D01*
X118308222Y-68331009D01*
X118337552Y-68295271D01*
X118420814Y-68193814D01*
X118522271Y-68110552D01*
X118558009Y-68081222D01*
X118714534Y-67997557D01*
X118884373Y-67946037D01*
X118950558Y-67939518D01*
X119016740Y-67933000D01*
X119105260Y-67933000D01*
X119171442Y-67939518D01*
X119171442Y-67939518D01*
G37*
G36*
X116631442Y-67939518D02*
G01*
X116697627Y-67946037D01*
X116867466Y-67997557D01*
X117023991Y-68081222D01*
X117059729Y-68110552D01*
X117161186Y-68193814D01*
X117244448Y-68295271D01*
X117273778Y-68331009D01*
X117357443Y-68487534D01*
X117408963Y-68657373D01*
X117426359Y-68834000D01*
X117408963Y-69010627D01*
X117357443Y-69180466D01*
X117273778Y-69336991D01*
X117244448Y-69372729D01*
X117161186Y-69474186D01*
X117059729Y-69557448D01*
X117023991Y-69586778D01*
X116867466Y-69670443D01*
X116697627Y-69721963D01*
X116631443Y-69728481D01*
X116565260Y-69735000D01*
X116476740Y-69735000D01*
X116410557Y-69728481D01*
X116344373Y-69721963D01*
X116174534Y-69670443D01*
X116018009Y-69586778D01*
X115982271Y-69557448D01*
X115880814Y-69474186D01*
X115797552Y-69372729D01*
X115768222Y-69336991D01*
X115684557Y-69180466D01*
X115633037Y-69010627D01*
X115615641Y-68834000D01*
X115633037Y-68657373D01*
X115684557Y-68487534D01*
X115768222Y-68331009D01*
X115797552Y-68295271D01*
X115880814Y-68193814D01*
X115982271Y-68110552D01*
X116018009Y-68081222D01*
X116174534Y-67997557D01*
X116344373Y-67946037D01*
X116410558Y-67939518D01*
X116476740Y-67933000D01*
X116565260Y-67933000D01*
X116631442Y-67939518D01*
X116631442Y-67939518D01*
G37*
G36*
X114091442Y-67939518D02*
G01*
X114157627Y-67946037D01*
X114327466Y-67997557D01*
X114483991Y-68081222D01*
X114519729Y-68110552D01*
X114621186Y-68193814D01*
X114704448Y-68295271D01*
X114733778Y-68331009D01*
X114817443Y-68487534D01*
X114868963Y-68657373D01*
X114886359Y-68834000D01*
X114868963Y-69010627D01*
X114817443Y-69180466D01*
X114733778Y-69336991D01*
X114704448Y-69372729D01*
X114621186Y-69474186D01*
X114519729Y-69557448D01*
X114483991Y-69586778D01*
X114327466Y-69670443D01*
X114157627Y-69721963D01*
X114091443Y-69728481D01*
X114025260Y-69735000D01*
X113936740Y-69735000D01*
X113870557Y-69728481D01*
X113804373Y-69721963D01*
X113634534Y-69670443D01*
X113478009Y-69586778D01*
X113442271Y-69557448D01*
X113340814Y-69474186D01*
X113257552Y-69372729D01*
X113228222Y-69336991D01*
X113144557Y-69180466D01*
X113093037Y-69010627D01*
X113075641Y-68834000D01*
X113093037Y-68657373D01*
X113144557Y-68487534D01*
X113228222Y-68331009D01*
X113257552Y-68295271D01*
X113340814Y-68193814D01*
X113442271Y-68110552D01*
X113478009Y-68081222D01*
X113634534Y-67997557D01*
X113804373Y-67946037D01*
X113870558Y-67939518D01*
X113936740Y-67933000D01*
X114025260Y-67933000D01*
X114091442Y-67939518D01*
X114091442Y-67939518D01*
G37*
G36*
X111551442Y-67939518D02*
G01*
X111617627Y-67946037D01*
X111787466Y-67997557D01*
X111943991Y-68081222D01*
X111979729Y-68110552D01*
X112081186Y-68193814D01*
X112164448Y-68295271D01*
X112193778Y-68331009D01*
X112277443Y-68487534D01*
X112328963Y-68657373D01*
X112346359Y-68834000D01*
X112328963Y-69010627D01*
X112277443Y-69180466D01*
X112193778Y-69336991D01*
X112164448Y-69372729D01*
X112081186Y-69474186D01*
X111979729Y-69557448D01*
X111943991Y-69586778D01*
X111787466Y-69670443D01*
X111617627Y-69721963D01*
X111551443Y-69728481D01*
X111485260Y-69735000D01*
X111396740Y-69735000D01*
X111330557Y-69728481D01*
X111264373Y-69721963D01*
X111094534Y-69670443D01*
X110938009Y-69586778D01*
X110902271Y-69557448D01*
X110800814Y-69474186D01*
X110717552Y-69372729D01*
X110688222Y-69336991D01*
X110604557Y-69180466D01*
X110553037Y-69010627D01*
X110535641Y-68834000D01*
X110553037Y-68657373D01*
X110604557Y-68487534D01*
X110688222Y-68331009D01*
X110717552Y-68295271D01*
X110800814Y-68193814D01*
X110902271Y-68110552D01*
X110938009Y-68081222D01*
X111094534Y-67997557D01*
X111264373Y-67946037D01*
X111330558Y-67939518D01*
X111396740Y-67933000D01*
X111485260Y-67933000D01*
X111551442Y-67939518D01*
X111551442Y-67939518D01*
G37*
G36*
X109011442Y-67939518D02*
G01*
X109077627Y-67946037D01*
X109247466Y-67997557D01*
X109403991Y-68081222D01*
X109439729Y-68110552D01*
X109541186Y-68193814D01*
X109624448Y-68295271D01*
X109653778Y-68331009D01*
X109737443Y-68487534D01*
X109788963Y-68657373D01*
X109806359Y-68834000D01*
X109788963Y-69010627D01*
X109737443Y-69180466D01*
X109653778Y-69336991D01*
X109624448Y-69372729D01*
X109541186Y-69474186D01*
X109439729Y-69557448D01*
X109403991Y-69586778D01*
X109247466Y-69670443D01*
X109077627Y-69721963D01*
X109011443Y-69728481D01*
X108945260Y-69735000D01*
X108856740Y-69735000D01*
X108790557Y-69728481D01*
X108724373Y-69721963D01*
X108554534Y-69670443D01*
X108398009Y-69586778D01*
X108362271Y-69557448D01*
X108260814Y-69474186D01*
X108177552Y-69372729D01*
X108148222Y-69336991D01*
X108064557Y-69180466D01*
X108013037Y-69010627D01*
X107995641Y-68834000D01*
X108013037Y-68657373D01*
X108064557Y-68487534D01*
X108148222Y-68331009D01*
X108177552Y-68295271D01*
X108260814Y-68193814D01*
X108362271Y-68110552D01*
X108398009Y-68081222D01*
X108554534Y-67997557D01*
X108724373Y-67946037D01*
X108790558Y-67939518D01*
X108856740Y-67933000D01*
X108945260Y-67933000D01*
X109011442Y-67939518D01*
X109011442Y-67939518D01*
G37*
G36*
X103931442Y-67939518D02*
G01*
X103997627Y-67946037D01*
X104167466Y-67997557D01*
X104323991Y-68081222D01*
X104359729Y-68110552D01*
X104461186Y-68193814D01*
X104544448Y-68295271D01*
X104573778Y-68331009D01*
X104657443Y-68487534D01*
X104708963Y-68657373D01*
X104726359Y-68834000D01*
X104708963Y-69010627D01*
X104657443Y-69180466D01*
X104573778Y-69336991D01*
X104544448Y-69372729D01*
X104461186Y-69474186D01*
X104359729Y-69557448D01*
X104323991Y-69586778D01*
X104167466Y-69670443D01*
X103997627Y-69721963D01*
X103931443Y-69728481D01*
X103865260Y-69735000D01*
X103776740Y-69735000D01*
X103710557Y-69728481D01*
X103644373Y-69721963D01*
X103474534Y-69670443D01*
X103318009Y-69586778D01*
X103282271Y-69557448D01*
X103180814Y-69474186D01*
X103097552Y-69372729D01*
X103068222Y-69336991D01*
X102984557Y-69180466D01*
X102933037Y-69010627D01*
X102915641Y-68834000D01*
X102933037Y-68657373D01*
X102984557Y-68487534D01*
X103068222Y-68331009D01*
X103097552Y-68295271D01*
X103180814Y-68193814D01*
X103282271Y-68110552D01*
X103318009Y-68081222D01*
X103474534Y-67997557D01*
X103644373Y-67946037D01*
X103710558Y-67939518D01*
X103776740Y-67933000D01*
X103865260Y-67933000D01*
X103931442Y-67939518D01*
X103931442Y-67939518D01*
G37*
M02*
