G04 #@! TF.GenerationSoftware,KiCad,Pcbnew,(5.1.0-0)*
G04 #@! TF.CreationDate,2019-12-24T11:49:19-08:00*
G04 #@! TF.ProjectId,ExternalClock,45787465-726e-4616-9c43-6c6f636b2e6b,rev?*
G04 #@! TF.SameCoordinates,Original*
G04 #@! TF.FileFunction,Copper,L1,Top*
G04 #@! TF.FilePolarity,Positive*
%FSLAX46Y46*%
G04 Gerber Fmt 4.6, Leading zero omitted, Abs format (unit mm)*
G04 Created by KiCad (PCBNEW (5.1.0-0)) date 2019-12-24 11:49:19*
%MOMM*%
%LPD*%
G04 APERTURE LIST*
%ADD10C,6.400000*%
%ADD11O,1.600000X1.600000*%
%ADD12R,1.600000X1.600000*%
%ADD13C,2.032000*%
%ADD14R,2.032000X2.032000*%
%ADD15O,1.700000X1.700000*%
%ADD16R,1.700000X1.700000*%
%ADD17C,1.600000*%
%ADD18C,2.000000*%
%ADD19C,1.620000*%
%ADD20C,1.800000*%
%ADD21R,1.800000X1.800000*%
%ADD22C,0.450000*%
%ADD23C,0.127000*%
G04 APERTURE END LIST*
D10*
X264160000Y-341630000D03*
D11*
X379730000Y-334010000D03*
X372110000Y-341630000D03*
X379730000Y-336550000D03*
X372110000Y-339090000D03*
X379730000Y-339090000D03*
X372110000Y-336550000D03*
X379730000Y-341630000D03*
D12*
X372110000Y-334010000D03*
D11*
X369570000Y-321310000D03*
X372110000Y-321310000D03*
X374650000Y-321310000D03*
X377190000Y-321310000D03*
X379730000Y-321310000D03*
X382270000Y-321310000D03*
X384810000Y-321310000D03*
X387350000Y-321310000D03*
D12*
X389890000Y-321310000D03*
D13*
X389890000Y-317500000D03*
X387350000Y-317500000D03*
X384810000Y-317500000D03*
X382270000Y-317500000D03*
X369570000Y-309880000D03*
X367030000Y-309880000D03*
X367030000Y-317500000D03*
X369570000Y-317500000D03*
X372110000Y-309880000D03*
X374650000Y-309880000D03*
X377190000Y-309880000D03*
X379730000Y-309880000D03*
X379730000Y-317500000D03*
X377190000Y-317500000D03*
X374650000Y-317500000D03*
X372110000Y-317500000D03*
X382270000Y-309880000D03*
X384810000Y-309880000D03*
X387350000Y-309880000D03*
D14*
X389890000Y-309880000D03*
D15*
X336550000Y-281940000D03*
X339090000Y-281940000D03*
X341630000Y-281940000D03*
X344170000Y-281940000D03*
D16*
X346710000Y-281940000D03*
D11*
X389890000Y-330327000D03*
D17*
X382270000Y-330327000D03*
D10*
X396240000Y-341630000D03*
X396240000Y-281940000D03*
X264160000Y-281940000D03*
D17*
X339090000Y-312420000D03*
X339090000Y-320040000D03*
X354330000Y-320040000D03*
D12*
X354330000Y-312420000D03*
D11*
X275590000Y-295910000D03*
D17*
X283210000Y-295910000D03*
D11*
X275590000Y-289560000D03*
D17*
X283210000Y-289560000D03*
X281860000Y-311150000D03*
X276860000Y-311150000D03*
X280130000Y-303530000D03*
D12*
X278130000Y-303530000D03*
D11*
X308610000Y-295910000D03*
X300990000Y-311150000D03*
X308610000Y-298450000D03*
X300990000Y-308610000D03*
X308610000Y-300990000D03*
X300990000Y-306070000D03*
X308610000Y-303530000D03*
X300990000Y-303530000D03*
X308610000Y-306070000D03*
X300990000Y-300990000D03*
X308610000Y-308610000D03*
X300990000Y-298450000D03*
X308610000Y-311150000D03*
D12*
X300990000Y-295910000D03*
D11*
X321310000Y-295910000D03*
X313690000Y-311150000D03*
X321310000Y-298450000D03*
X313690000Y-308610000D03*
X321310000Y-300990000D03*
X313690000Y-306070000D03*
X321310000Y-303530000D03*
X313690000Y-303530000D03*
X321310000Y-306070000D03*
X313690000Y-300990000D03*
X321310000Y-308610000D03*
X313690000Y-298450000D03*
X321310000Y-311150000D03*
D12*
X313690000Y-295910000D03*
D11*
X295910000Y-295910000D03*
X288290000Y-313690000D03*
X295910000Y-298450000D03*
X288290000Y-311150000D03*
X295910000Y-300990000D03*
X288290000Y-308610000D03*
X295910000Y-303530000D03*
X288290000Y-306070000D03*
X295910000Y-306070000D03*
X288290000Y-303530000D03*
X295910000Y-308610000D03*
X288290000Y-300990000D03*
X295910000Y-311150000D03*
X288290000Y-298450000D03*
X295910000Y-313690000D03*
D12*
X288290000Y-295910000D03*
D11*
X334010000Y-295910000D03*
X326390000Y-311150000D03*
X334010000Y-298450000D03*
X326390000Y-308610000D03*
X334010000Y-300990000D03*
X326390000Y-306070000D03*
X334010000Y-303530000D03*
X326390000Y-303530000D03*
X334010000Y-306070000D03*
X326390000Y-300990000D03*
X334010000Y-308610000D03*
X326390000Y-298450000D03*
X334010000Y-311150000D03*
D12*
X326390000Y-295910000D03*
D11*
X271780000Y-295910000D03*
X264160000Y-303530000D03*
X271780000Y-298450000D03*
X264160000Y-300990000D03*
X271780000Y-300990000D03*
X264160000Y-298450000D03*
X271780000Y-303530000D03*
D12*
X264160000Y-295910000D03*
D11*
X359410000Y-334010000D03*
X351790000Y-341630000D03*
X359410000Y-336550000D03*
X351790000Y-339090000D03*
X359410000Y-339090000D03*
X351790000Y-336550000D03*
X359410000Y-341630000D03*
D12*
X351790000Y-334010000D03*
D11*
X389886200Y-304798200D03*
X351786200Y-289558200D03*
X387346200Y-304798200D03*
X354326200Y-289558200D03*
X384806200Y-304798200D03*
X356866200Y-289558200D03*
X382266200Y-304798200D03*
X359406200Y-289558200D03*
X379726200Y-304798200D03*
X361946200Y-289558200D03*
X377186200Y-304798200D03*
X364486200Y-289558200D03*
X374646200Y-304798200D03*
X367026200Y-289558200D03*
X372106200Y-304798200D03*
X369566200Y-289558200D03*
X369566200Y-304798200D03*
X372106200Y-289558200D03*
X367026200Y-304798200D03*
X374646200Y-289558200D03*
X364486200Y-304798200D03*
X377186200Y-289558200D03*
X361946200Y-304798200D03*
X379726200Y-289558200D03*
X359406200Y-304798200D03*
X382266200Y-289558200D03*
X356866200Y-304798200D03*
X384806200Y-289558200D03*
X354326200Y-304798200D03*
X387346200Y-289558200D03*
X351786200Y-304798200D03*
D12*
X389886200Y-289558200D03*
D11*
X328930000Y-334010000D03*
X321310000Y-341630000D03*
X328930000Y-336550000D03*
X321310000Y-339090000D03*
X328930000Y-339090000D03*
X321310000Y-336550000D03*
X328930000Y-341630000D03*
D12*
X321310000Y-334010000D03*
D11*
X298450000Y-334010000D03*
X290830000Y-341630000D03*
X298450000Y-336550000D03*
X290830000Y-339090000D03*
X298450000Y-339090000D03*
X290830000Y-336550000D03*
X298450000Y-341630000D03*
D12*
X290830000Y-334010000D03*
D18*
X270660000Y-321310000D03*
X270660000Y-325810000D03*
X264160000Y-321310000D03*
X264160000Y-325810000D03*
D19*
X279400000Y-321310000D03*
X281900000Y-323810000D03*
X279400000Y-326310000D03*
D11*
X318770000Y-322580000D03*
D17*
X311150000Y-322580000D03*
D11*
X389890000Y-341630000D03*
D17*
X382270000Y-341630000D03*
D11*
X389890000Y-337820000D03*
D17*
X382270000Y-337820000D03*
D11*
X389890000Y-334010000D03*
D17*
X382270000Y-334010000D03*
D11*
X369570000Y-341630000D03*
D17*
X361950000Y-341630000D03*
D11*
X369570000Y-337820000D03*
D17*
X361950000Y-337820000D03*
D11*
X369570000Y-334010000D03*
D17*
X361950000Y-334010000D03*
D11*
X349250000Y-341630000D03*
D17*
X341630000Y-341630000D03*
D11*
X349250000Y-337820000D03*
D17*
X341630000Y-337820000D03*
D11*
X349250000Y-334010000D03*
D17*
X341630000Y-334010000D03*
D11*
X339090000Y-341630000D03*
D17*
X331470000Y-341630000D03*
D11*
X339090000Y-337820000D03*
D17*
X331470000Y-337820000D03*
D11*
X339090000Y-334010000D03*
D17*
X331470000Y-334010000D03*
D11*
X318770000Y-341630000D03*
D17*
X311150000Y-341630000D03*
D11*
X318770000Y-337820000D03*
D17*
X311150000Y-337820000D03*
D11*
X318770000Y-334010000D03*
D17*
X311150000Y-334010000D03*
D11*
X308610000Y-341630000D03*
D17*
X300990000Y-341630000D03*
D11*
X308610000Y-337820000D03*
D17*
X300990000Y-337820000D03*
D11*
X308610000Y-334010000D03*
D17*
X300990000Y-334010000D03*
D11*
X288290000Y-341630000D03*
D17*
X280670000Y-341630000D03*
D11*
X288290000Y-337820000D03*
D17*
X280670000Y-337820000D03*
D11*
X288290000Y-334010000D03*
D17*
X280670000Y-334010000D03*
D20*
X303530000Y-322580000D03*
D21*
X306070000Y-322580000D03*
D17*
X265510000Y-289560000D03*
X270510000Y-289560000D03*
X360680000Y-315040000D03*
X360680000Y-320040000D03*
X302340000Y-289560000D03*
X307340000Y-289560000D03*
X315040000Y-289560000D03*
X320040000Y-289560000D03*
X289640000Y-289560000D03*
X294640000Y-289560000D03*
X327740000Y-289560000D03*
X332740000Y-289560000D03*
X373460000Y-327660000D03*
X378460000Y-327660000D03*
X353140000Y-327660000D03*
X358140000Y-327660000D03*
X396240000Y-294720000D03*
X396240000Y-299720000D03*
X322660000Y-327660000D03*
X327660000Y-327660000D03*
X292100000Y-327660000D03*
X297100000Y-327660000D03*
X396970000Y-330200000D03*
D12*
X394970000Y-330200000D03*
D22*
X299720000Y-291338000D03*
X299304500Y-291746002D03*
X298831000Y-292100000D03*
X289687000Y-322580000D03*
X336550000Y-321310000D03*
X332613000Y-340071500D03*
X325120000Y-302514000D03*
X337947000Y-302514000D03*
X307051500Y-299466000D03*
X376047000Y-335534000D03*
X377444000Y-332105000D03*
X381000000Y-343662000D03*
X383667000Y-344297000D03*
X322580000Y-344297000D03*
X386080000Y-345220500D03*
X300990000Y-345220500D03*
X388620000Y-344805000D03*
X280670000Y-344805000D03*
X294767000Y-299974000D03*
X289687000Y-307594000D03*
X332740000Y-307848000D03*
X332359000Y-297053000D03*
X306636000Y-302006000D03*
X306220500Y-304546000D03*
X307467000Y-294894000D03*
X320040000Y-308610000D03*
X302133000Y-310134000D03*
X302548500Y-298450000D03*
X302548500Y-308610000D03*
D23*
X360541370Y-339090000D02*
X359410000Y-339090000D01*
X362145942Y-339090000D02*
X360541370Y-339090000D01*
X364685942Y-336550000D02*
X362145942Y-339090000D01*
X372110000Y-336550000D02*
X364685942Y-336550000D01*
X356870000Y-336550000D02*
X351790000Y-336550000D01*
X359410000Y-339090000D02*
X356870000Y-336550000D01*
X346142224Y-339090000D02*
X330061370Y-339090000D01*
X349482223Y-335750001D02*
X346142224Y-339090000D01*
X330061370Y-339090000D02*
X328930000Y-339090000D01*
X350990001Y-335750001D02*
X349482223Y-335750001D01*
X351790000Y-336550000D02*
X350990001Y-335750001D01*
X326390000Y-336550000D02*
X321310000Y-336550000D01*
X328930000Y-339090000D02*
X326390000Y-336550000D01*
X299581370Y-339090000D02*
X298450000Y-339090000D01*
X301185942Y-339090000D02*
X299581370Y-339090000D01*
X303725942Y-336550000D02*
X301185942Y-339090000D01*
X321310000Y-336550000D02*
X303725942Y-336550000D01*
X295910000Y-336550000D02*
X298450000Y-339090000D01*
X290830000Y-336550000D02*
X295910000Y-336550000D01*
X352546400Y-291338000D02*
X354326200Y-289558200D01*
X299720000Y-291338000D02*
X352546400Y-291338000D01*
X299311999Y-291753501D02*
X299304500Y-291746002D01*
X354670899Y-291753501D02*
X299311999Y-291753501D01*
X356866200Y-289558200D02*
X354670899Y-291753501D01*
X356802897Y-292161503D02*
X298892503Y-292161503D01*
X298892503Y-292161503D02*
X298831000Y-292100000D01*
X359406200Y-289558200D02*
X356802897Y-292161503D01*
X289687000Y-322580000D02*
X303530000Y-322580000D01*
X304800000Y-321310000D02*
X303530000Y-322580000D01*
X336550000Y-321310000D02*
X304800000Y-321310000D01*
X306070000Y-322580000D02*
X311150000Y-322580000D01*
X307810001Y-340830001D02*
X308610000Y-341630000D01*
X307619499Y-340639499D02*
X307810001Y-340830001D01*
X299440501Y-340639499D02*
X307619499Y-340639499D01*
X298450000Y-341630000D02*
X299440501Y-340639499D01*
X308610000Y-334010000D02*
X311150000Y-334010000D01*
X332603999Y-340080501D02*
X332613000Y-340071500D01*
X322300501Y-340080501D02*
X332603999Y-340080501D01*
X321310000Y-339090000D02*
X322300501Y-340080501D01*
X341630000Y-334010000D02*
X339090000Y-334010000D01*
X329729999Y-340830001D02*
X328930000Y-341630000D01*
X330073000Y-340487000D02*
X329729999Y-340830001D01*
X337947000Y-340487000D02*
X330073000Y-340487000D01*
X339090000Y-341630000D02*
X337947000Y-340487000D01*
X381470001Y-333210001D02*
X382270000Y-334010000D01*
X381279499Y-333019499D02*
X381470001Y-333210001D01*
X370560501Y-333019499D02*
X381279499Y-333019499D01*
X369570000Y-334010000D02*
X370560501Y-333019499D01*
X360209999Y-340830001D02*
X359410000Y-341630000D01*
X360680000Y-340360000D02*
X360209999Y-340830001D01*
X368300000Y-340360000D02*
X360680000Y-340360000D01*
X369570000Y-341630000D02*
X368300000Y-340360000D01*
X373659499Y-340639499D02*
X372909999Y-339889999D01*
X388899499Y-340639499D02*
X373659499Y-340639499D01*
X372909999Y-339889999D02*
X372110000Y-339090000D01*
X389890000Y-341630000D02*
X388899499Y-340639499D01*
X325094501Y-302539499D02*
X325120000Y-302514000D01*
X289280501Y-302539499D02*
X325094501Y-302539499D01*
X288290000Y-303530000D02*
X289280501Y-302539499D01*
X325120000Y-302514000D02*
X337947000Y-302514000D01*
X307026001Y-299440501D02*
X307051500Y-299466000D01*
X296900501Y-299440501D02*
X307026001Y-299440501D01*
X295910000Y-298450000D02*
X296900501Y-299440501D01*
X387350000Y-320040000D02*
X387350000Y-321310000D01*
X389890000Y-317500000D02*
X387350000Y-320040000D01*
X384810000Y-320040000D02*
X384810000Y-321310000D01*
X387350000Y-317500000D02*
X384810000Y-320040000D01*
X382270000Y-320040000D02*
X382270000Y-321310000D01*
X384810000Y-317500000D02*
X382270000Y-320040000D01*
X379730000Y-320040000D02*
X379730000Y-321310000D01*
X382270000Y-317500000D02*
X379730000Y-320040000D01*
X381140869Y-335559499D02*
X382270000Y-336688630D01*
X379813557Y-335559499D02*
X381140869Y-335559499D01*
X382270000Y-336688630D02*
X382270000Y-337820000D01*
X378264058Y-334010000D02*
X379813557Y-335559499D01*
X372110000Y-334010000D02*
X378264058Y-334010000D01*
X360426000Y-335534000D02*
X359410000Y-336550000D01*
X376047000Y-335534000D02*
X360426000Y-335534000D01*
X360680000Y-337820000D02*
X361950000Y-337820000D01*
X359410000Y-336550000D02*
X360680000Y-337820000D01*
X351790000Y-333083000D02*
X351790000Y-334010000D01*
X352768000Y-332105000D02*
X351790000Y-333083000D01*
X377444000Y-332105000D02*
X352768000Y-332105000D01*
X342761370Y-337820000D02*
X341630000Y-337820000D01*
X347053000Y-337820000D02*
X342761370Y-337820000D01*
X350863000Y-334010000D02*
X347053000Y-337820000D01*
X351790000Y-334010000D02*
X350863000Y-334010000D01*
X377190000Y-320040000D02*
X377190000Y-321310000D01*
X379730000Y-317500000D02*
X377190000Y-320040000D01*
X374650000Y-320040000D02*
X374650000Y-321310000D01*
X377190000Y-317500000D02*
X374650000Y-320040000D01*
X372110000Y-320040000D02*
X372110000Y-321310000D01*
X374650000Y-317500000D02*
X372110000Y-320040000D01*
X381000000Y-343662000D02*
X333502000Y-343662000D01*
X333502000Y-343662000D02*
X331470000Y-341630000D01*
X330200000Y-336550000D02*
X331470000Y-337820000D01*
X328930000Y-336550000D02*
X330200000Y-336550000D01*
X383667000Y-344297000D02*
X373634000Y-344297000D01*
X373634000Y-344297000D02*
X322580000Y-344297000D01*
X299720000Y-336550000D02*
X300990000Y-337820000D01*
X298450000Y-336550000D02*
X299720000Y-336550000D01*
X386080000Y-345220500D02*
X374234500Y-345220500D01*
X374234500Y-345220500D02*
X374200000Y-345186000D01*
X301024500Y-345186000D02*
X300990000Y-345220500D01*
X374200000Y-345186000D02*
X301024500Y-345186000D01*
X388620000Y-344805000D02*
X280670000Y-344805000D01*
X286093000Y-337820000D02*
X281801370Y-337820000D01*
X281801370Y-337820000D02*
X280670000Y-337820000D01*
X289903000Y-334010000D02*
X286093000Y-337820000D01*
X290830000Y-334010000D02*
X289903000Y-334010000D01*
X271780000Y-306070000D02*
X276860000Y-311150000D01*
X271780000Y-303530000D02*
X271780000Y-306070000D01*
X274320000Y-295910000D02*
X271780000Y-298450000D01*
X275590000Y-295910000D02*
X274320000Y-295910000D01*
X278130000Y-302603000D02*
X278130000Y-303530000D01*
X276517000Y-300990000D02*
X278130000Y-302603000D01*
X271780000Y-300990000D02*
X276517000Y-300990000D01*
X273050000Y-289560000D02*
X264160000Y-298450000D01*
X275590000Y-289560000D02*
X273050000Y-289560000D01*
X264160000Y-325810000D02*
X270660000Y-325810000D01*
X294741501Y-299999499D02*
X294767000Y-299974000D01*
X265150501Y-299999499D02*
X294741501Y-299999499D01*
X264160000Y-300990000D02*
X265150501Y-299999499D01*
X289712499Y-307619499D02*
X289687000Y-307594000D01*
X325399499Y-307619499D02*
X289712499Y-307619499D01*
X326390000Y-308610000D02*
X325399499Y-307619499D01*
X332702001Y-307810001D02*
X332740000Y-307848000D01*
X327189999Y-307810001D02*
X332702001Y-307810001D01*
X326390000Y-308610000D02*
X327189999Y-307810001D01*
X311213501Y-297459499D02*
X312763000Y-295910000D01*
X312763000Y-295910000D02*
X313690000Y-295910000D01*
X289280501Y-297459499D02*
X311213501Y-297459499D01*
X288290000Y-298450000D02*
X289280501Y-297459499D01*
X314833000Y-297053000D02*
X313690000Y-295910000D01*
X332359000Y-297053000D02*
X314833000Y-297053000D01*
X306610501Y-301980501D02*
X306636000Y-302006000D01*
X296900501Y-301980501D02*
X306610501Y-301980501D01*
X295910000Y-300990000D02*
X296900501Y-301980501D01*
X296900501Y-304520501D02*
X300514559Y-304520501D01*
X295910000Y-303530000D02*
X296900501Y-304520501D01*
X306195001Y-304520501D02*
X306220500Y-304546000D01*
X300514559Y-304520501D02*
X306195001Y-304520501D01*
X288379000Y-294894000D02*
X307467000Y-294894000D01*
X288290000Y-294983000D02*
X288379000Y-294894000D01*
X288290000Y-295910000D02*
X288290000Y-294983000D01*
X313690000Y-308610000D02*
X320040000Y-308610000D01*
X320294000Y-310134000D02*
X321310000Y-311150000D01*
X302133000Y-310134000D02*
X320294000Y-310134000D01*
X308610000Y-298450000D02*
X302548500Y-298450000D01*
X302548500Y-308610000D02*
X300990000Y-308610000D01*
M02*
