M48
; DRILL file {KiCad (5.1.0-0)} date Tuesday, December 24, 2019 at 11:49:22 AM
; FORMAT={-:-/ absolute / inch / decimal}
; #@! TF.CreationDate,2019-12-24T11:49:22-08:00
; #@! TF.GenerationSoftware,Kicad,Pcbnew,(5.1.0-0)
FMAT,2
INCH
T1C0.0079
T2C0.0315
T3C0.0354
T4C0.0360
T5C0.0394
T6C0.0433
T7C0.1260
%
G90
G05
T1
X11.05Y-13.575
X11.405Y-12.11
X11.405Y-12.7
X11.605Y-11.81
X11.765Y-11.5
X11.7836Y-11.4861
X11.8Y-11.47
X11.85Y-13.5914
X11.895Y-12.21
X11.9114Y-11.75
X11.9114Y-12.15
X12.0559Y-11.99
X12.0723Y-11.89
X12.0886Y-11.79
X12.105Y-11.61
X12.6Y-12.15
X12.7Y-13.555
X12.8Y-11.91
X13.085Y-11.695
X13.095Y-13.3886
X13.1Y-12.12
X13.25Y-12.65
X13.305Y-11.91
X14.805Y-13.21
X14.86Y-13.075
X15.0Y-13.53
X15.105Y-13.555
X15.2Y-13.5914
X15.3Y-13.575
T2
X13.45Y-13.15
X11.5Y-12.9
X13.75Y-13.15
X14.55Y-13.45
X11.45Y-13.15
X11.45Y-13.25
X12.35Y-11.65
X12.35Y-11.75
X11.45Y-13.35
X11.75Y-13.25
X11.75Y-13.35
X11.75Y-13.45
X11.35Y-11.65
X11.35Y-11.75
X11.35Y-11.85
X11.35Y-11.95
X11.35Y-12.05
X11.35Y-12.15
X11.35Y-12.25
X11.35Y-12.35
X11.65Y-11.65
X11.65Y-11.75
X11.65Y-11.85
X12.35Y-11.85
X14.25Y-13.45
X12.35Y-11.95
X12.35Y-12.05
X12.35Y-12.15
X12.35Y-12.25
X12.65Y-11.65
X12.65Y-11.75
X12.65Y-11.85
X12.65Y-11.95
X12.65Y-12.05
X11.75Y-13.15
X12.65Y-12.15
X12.65Y-12.25
X11.85Y-13.3
X12.15Y-13.3
X11.45Y-13.45
X14.25Y-13.3
X14.55Y-13.3
X14.2Y-12.4031
X14.2Y-12.6
X11.4031Y-11.4
X11.6Y-11.4
X13.9031Y-12.9
X14.1Y-12.9
X11.6969Y-12.9
X11.65Y-11.95
X11.65Y-12.05
X11.65Y-12.15
X11.65Y-12.25
X11.65Y-12.35
X12.25Y-12.7
X10.4531Y-11.4
X10.65Y-11.4
X12.4031Y-11.4
X12.6Y-11.4
X14.7031Y-12.9
X14.9Y-12.9
X12.7031Y-12.9
X12.9Y-12.9
X10.85Y-11.65
X12.25Y-13.45
X12.55Y-13.45
X12.25Y-13.15
X12.55Y-13.15
X11.85Y-11.65
X11.85Y-11.75
X11.85Y-11.85
X11.85Y-11.95
X11.85Y-12.05
X11.85Y-12.15
X11.85Y-12.25
X12.15Y-11.65
X12.15Y-11.75
X12.15Y-11.85
X12.15Y-11.95
X12.15Y-12.05
X12.15Y-12.15
X12.15Y-12.25
X12.55Y-12.7
X11.05Y-13.45
X12.25Y-13.3
X12.55Y-13.3
X11.35Y-13.45
X13.85Y-13.15
X13.85Y-13.25
X13.85Y-13.35
X13.85Y-13.45
X14.15Y-13.15
X14.15Y-13.25
X14.15Y-13.35
X14.15Y-13.45
X13.8499Y-11.3999
X13.8499Y-11.9999
X13.9499Y-11.3999
X13.9499Y-11.9999
X14.0499Y-11.3999
X14.0499Y-11.9999
X14.1499Y-11.3999
X14.1499Y-11.9999
X14.2499Y-11.3999
X14.2499Y-11.9999
X11.15Y-11.65
X14.3499Y-11.3999
X14.3499Y-11.9999
X14.4499Y-11.3999
X14.4499Y-11.9999
X14.5499Y-11.3999
X14.5499Y-11.9999
X14.6499Y-11.3999
X14.6499Y-11.9999
X14.7499Y-11.3999
X14.7499Y-11.9999
X14.8499Y-11.3999
X14.8499Y-11.9999
X14.9499Y-11.3999
X14.9499Y-11.9999
X15.0499Y-11.3999
X15.0499Y-11.9999
X15.1499Y-11.3999
X15.1499Y-11.9999
X15.2499Y-11.3999
X15.2499Y-11.9999
X15.3499Y-11.3999
X15.3499Y-11.9999
X13.45Y-13.45
X13.75Y-13.45
X11.9031Y-11.4
X12.1Y-11.4
X12.9031Y-11.4
X13.1Y-11.4
X15.6Y-11.6031
X15.6Y-11.8
X10.4Y-11.65
X14.25Y-13.15
X14.55Y-13.15
X11.05Y-13.3
X15.05Y-13.45
X15.35Y-13.45
X10.85Y-11.4
X11.15Y-11.4
X11.85Y-13.45
X12.15Y-13.45
X13.05Y-13.3
X13.35Y-13.3
X11.35Y-13.3
X10.95Y-11.95
X11.0287Y-11.95
X12.85Y-11.65
X13.45Y-13.3
X13.75Y-13.3
X13.35Y-12.3
X13.35Y-12.6
X13.95Y-12.3
X13.95Y-12.6
X12.65Y-13.15
X12.65Y-13.25
X12.65Y-13.35
X12.65Y-13.45
X12.95Y-13.25
X12.95Y-13.35
X12.95Y-13.45
X15.05Y-13.15
X15.35Y-13.15
X12.85Y-11.85
X12.85Y-11.95
X12.85Y-12.05
X12.85Y-12.15
X12.85Y-12.25
X13.15Y-11.65
X13.15Y-11.75
X13.15Y-11.85
X13.15Y-11.95
X13.15Y-12.05
X13.15Y-12.15
X13.15Y-12.25
X13.05Y-13.45
X12.95Y-13.15
X13.35Y-13.45
X11.05Y-13.15
X11.35Y-13.15
X15.05Y-13.3
X12.85Y-11.75
X15.35Y-13.3
X10.9Y-12.25
X11.0969Y-12.25
X10.4Y-11.75
X10.4Y-11.85
X10.4Y-11.95
X10.7Y-11.65
X10.7Y-11.75
X10.7Y-11.85
X10.7Y-11.95
X14.65Y-13.15
X14.65Y-13.25
X14.65Y-13.35
X14.65Y-13.45
X14.95Y-13.15
X14.95Y-13.25
X14.95Y-13.35
X14.95Y-13.45
X13.05Y-13.15
X13.35Y-13.15
X14.55Y-12.65
X14.65Y-12.65
X14.75Y-12.65
X14.85Y-12.65
X14.95Y-12.65
X15.05Y-12.65
X15.15Y-12.65
X15.25Y-12.65
X15.35Y-12.65
X15.55Y-13.0
X15.6287Y-13.0
X15.05Y-13.005
X15.35Y-13.005
X11.85Y-13.15
X12.15Y-13.15
T3
X11.95Y-12.7
X12.05Y-12.7
X11.0Y-12.65
X11.0Y-12.8469
X11.0984Y-12.7484
T4
X14.45Y-12.2
X14.45Y-12.5
X14.55Y-12.2
X14.55Y-12.5
X14.65Y-12.2
X14.65Y-12.5
X14.75Y-12.2
X14.75Y-12.5
X14.85Y-12.2
X14.85Y-12.5
X14.95Y-12.2
X14.95Y-12.5
X15.05Y-12.2
X15.05Y-12.5
X15.15Y-12.2
X15.15Y-12.5
X15.25Y-12.2
X15.25Y-12.5
X15.35Y-12.2
X15.35Y-12.5
T5
X13.25Y-11.1
X13.35Y-11.1
X13.45Y-11.1
X13.55Y-11.1
X13.65Y-11.1
T6
X10.4Y-12.65
X10.4Y-12.8272
X10.6559Y-12.65
X10.6559Y-12.8272
T7
X15.6Y-13.45
X15.6Y-11.1
X10.4Y-11.1
X10.4Y-13.45
T0
M30
