G04 #@! TF.GenerationSoftware,KiCad,Pcbnew,(5.1.0-0)*
G04 #@! TF.CreationDate,2019-12-24T11:49:19-08:00*
G04 #@! TF.ProjectId,ExternalClock,45787465-726e-4616-9c43-6c6f636b2e6b,rev?*
G04 #@! TF.SameCoordinates,Original*
G04 #@! TF.FileFunction,Legend,Top*
G04 #@! TF.FilePolarity,Positive*
%FSLAX46Y46*%
G04 Gerber Fmt 4.6, Leading zero omitted, Abs format (unit mm)*
G04 Created by KiCad (PCBNEW (5.1.0-0)) date 2019-12-24 11:49:19*
%MOMM*%
%LPD*%
G04 APERTURE LIST*
%ADD10C,0.150000*%
%ADD11C,0.300000*%
%ADD12C,0.120000*%
G04 APERTURE END LIST*
D10*
X335954761Y-284837142D02*
X335907142Y-284884761D01*
X335764285Y-284932380D01*
X335669047Y-284932380D01*
X335526190Y-284884761D01*
X335430952Y-284789523D01*
X335383333Y-284694285D01*
X335335714Y-284503809D01*
X335335714Y-284360952D01*
X335383333Y-284170476D01*
X335430952Y-284075238D01*
X335526190Y-283980000D01*
X335669047Y-283932380D01*
X335764285Y-283932380D01*
X335907142Y-283980000D01*
X335954761Y-284027619D01*
X336859523Y-284932380D02*
X336383333Y-284932380D01*
X336383333Y-283932380D01*
X337192857Y-284932380D02*
X337192857Y-283932380D01*
X337764285Y-284932380D02*
X337335714Y-284360952D01*
X337764285Y-283932380D02*
X337192857Y-284503809D01*
X346329047Y-284551428D02*
X347090952Y-284551428D01*
X343789047Y-284551428D02*
X344550952Y-284551428D01*
X344170000Y-284932380D02*
X344170000Y-284170476D01*
D11*
X269147857Y-278578571D02*
X270005000Y-278578571D01*
X269576428Y-280078571D02*
X269576428Y-278578571D01*
X271147857Y-279078571D02*
X271147857Y-280078571D01*
X270505000Y-279078571D02*
X270505000Y-279864285D01*
X270576428Y-280007142D01*
X270719285Y-280078571D01*
X270933571Y-280078571D01*
X271076428Y-280007142D01*
X271147857Y-279935714D01*
X271862142Y-280078571D02*
X271862142Y-279078571D01*
X271862142Y-279364285D02*
X271933571Y-279221428D01*
X272005000Y-279150000D01*
X272147857Y-279078571D01*
X272290714Y-279078571D01*
X272576428Y-279078571D02*
X273147857Y-279078571D01*
X272790714Y-278578571D02*
X272790714Y-279864285D01*
X272862142Y-280007142D01*
X273005000Y-280078571D01*
X273147857Y-280078571D01*
X273862142Y-280078571D02*
X273719285Y-280007142D01*
X273647857Y-279864285D01*
X273647857Y-278578571D01*
X275005000Y-280007142D02*
X274862142Y-280078571D01*
X274576428Y-280078571D01*
X274433571Y-280007142D01*
X274362142Y-279864285D01*
X274362142Y-279292857D01*
X274433571Y-279150000D01*
X274576428Y-279078571D01*
X274862142Y-279078571D01*
X275005000Y-279150000D01*
X275076428Y-279292857D01*
X275076428Y-279435714D01*
X274362142Y-279578571D01*
X275505000Y-278578571D02*
X276362142Y-278578571D01*
X275933571Y-280078571D02*
X275933571Y-278578571D01*
X276647857Y-278578571D02*
X277505000Y-278578571D01*
X277076428Y-280078571D02*
X277076428Y-278578571D01*
X278719285Y-280078571D02*
X278005000Y-280078571D01*
X278005000Y-278578571D01*
X279219285Y-279935714D02*
X279290714Y-280007142D01*
X279219285Y-280078571D01*
X279147857Y-280007142D01*
X279219285Y-279935714D01*
X279219285Y-280078571D01*
X279219285Y-279150000D02*
X279290714Y-279221428D01*
X279219285Y-279292857D01*
X279147857Y-279221428D01*
X279219285Y-279150000D01*
X279219285Y-279292857D01*
X281076428Y-279292857D02*
X281576428Y-279292857D01*
X281790714Y-280078571D02*
X281076428Y-280078571D01*
X281076428Y-278578571D01*
X281790714Y-278578571D01*
X282290714Y-280078571D02*
X283076428Y-279078571D01*
X282290714Y-279078571D02*
X283076428Y-280078571D01*
X283433571Y-279078571D02*
X284005000Y-279078571D01*
X283647857Y-278578571D02*
X283647857Y-279864285D01*
X283719285Y-280007142D01*
X283862142Y-280078571D01*
X284005000Y-280078571D01*
X285076428Y-280007142D02*
X284933571Y-280078571D01*
X284647857Y-280078571D01*
X284505000Y-280007142D01*
X284433571Y-279864285D01*
X284433571Y-279292857D01*
X284505000Y-279150000D01*
X284647857Y-279078571D01*
X284933571Y-279078571D01*
X285076428Y-279150000D01*
X285147857Y-279292857D01*
X285147857Y-279435714D01*
X284433571Y-279578571D01*
X285790714Y-280078571D02*
X285790714Y-279078571D01*
X285790714Y-279364285D02*
X285862142Y-279221428D01*
X285933571Y-279150000D01*
X286076428Y-279078571D01*
X286219285Y-279078571D01*
X286719285Y-279078571D02*
X286719285Y-280078571D01*
X286719285Y-279221428D02*
X286790714Y-279150000D01*
X286933571Y-279078571D01*
X287147857Y-279078571D01*
X287290714Y-279150000D01*
X287362142Y-279292857D01*
X287362142Y-280078571D01*
X288719285Y-280078571D02*
X288719285Y-279292857D01*
X288647857Y-279150000D01*
X288505000Y-279078571D01*
X288219285Y-279078571D01*
X288076428Y-279150000D01*
X288719285Y-280007142D02*
X288576428Y-280078571D01*
X288219285Y-280078571D01*
X288076428Y-280007142D01*
X288005000Y-279864285D01*
X288005000Y-279721428D01*
X288076428Y-279578571D01*
X288219285Y-279507142D01*
X288576428Y-279507142D01*
X288719285Y-279435714D01*
X289647857Y-280078571D02*
X289505000Y-280007142D01*
X289433571Y-279864285D01*
X289433571Y-278578571D01*
X292219285Y-279935714D02*
X292147857Y-280007142D01*
X291933571Y-280078571D01*
X291790714Y-280078571D01*
X291576428Y-280007142D01*
X291433571Y-279864285D01*
X291362142Y-279721428D01*
X291290714Y-279435714D01*
X291290714Y-279221428D01*
X291362142Y-278935714D01*
X291433571Y-278792857D01*
X291576428Y-278650000D01*
X291790714Y-278578571D01*
X291933571Y-278578571D01*
X292147857Y-278650000D01*
X292219285Y-278721428D01*
X293076428Y-280078571D02*
X292933571Y-280007142D01*
X292862142Y-279864285D01*
X292862142Y-278578571D01*
X293862142Y-280078571D02*
X293719285Y-280007142D01*
X293647857Y-279935714D01*
X293576428Y-279792857D01*
X293576428Y-279364285D01*
X293647857Y-279221428D01*
X293719285Y-279150000D01*
X293862142Y-279078571D01*
X294076428Y-279078571D01*
X294219285Y-279150000D01*
X294290714Y-279221428D01*
X294362142Y-279364285D01*
X294362142Y-279792857D01*
X294290714Y-279935714D01*
X294219285Y-280007142D01*
X294076428Y-280078571D01*
X293862142Y-280078571D01*
X295647857Y-280007142D02*
X295505000Y-280078571D01*
X295219285Y-280078571D01*
X295076428Y-280007142D01*
X295005000Y-279935714D01*
X294933571Y-279792857D01*
X294933571Y-279364285D01*
X295005000Y-279221428D01*
X295076428Y-279150000D01*
X295219285Y-279078571D01*
X295505000Y-279078571D01*
X295647857Y-279150000D01*
X296290714Y-280078571D02*
X296290714Y-278578571D01*
X296433571Y-279507142D02*
X296862142Y-280078571D01*
X296862142Y-279078571D02*
X296290714Y-279650000D01*
X299862142Y-278935714D02*
X299719285Y-278864285D01*
X299433571Y-278864285D01*
X299290714Y-278935714D01*
X299147857Y-279078571D01*
X299076428Y-279221428D01*
X299076428Y-279507142D01*
X299147857Y-279650000D01*
X299290714Y-279792857D01*
X299433571Y-279864285D01*
X299719285Y-279864285D01*
X299862142Y-279792857D01*
X299576428Y-278364285D02*
X299219285Y-278435714D01*
X298862142Y-278650000D01*
X298647857Y-279007142D01*
X298576428Y-279364285D01*
X298647857Y-279721428D01*
X298862142Y-280078571D01*
X299219285Y-280292857D01*
X299576428Y-280364285D01*
X299933571Y-280292857D01*
X300290714Y-280078571D01*
X300505000Y-279721428D01*
X300576428Y-279364285D01*
X300505000Y-279007142D01*
X300290714Y-278650000D01*
X299933571Y-278435714D01*
X299576428Y-278364285D01*
X302290714Y-278721428D02*
X302362142Y-278650000D01*
X302505000Y-278578571D01*
X302862142Y-278578571D01*
X303005000Y-278650000D01*
X303076428Y-278721428D01*
X303147857Y-278864285D01*
X303147857Y-279007142D01*
X303076428Y-279221428D01*
X302219285Y-280078571D01*
X303147857Y-280078571D01*
X304076428Y-278578571D02*
X304219285Y-278578571D01*
X304362142Y-278650000D01*
X304433571Y-278721428D01*
X304505000Y-278864285D01*
X304576428Y-279150000D01*
X304576428Y-279507142D01*
X304505000Y-279792857D01*
X304433571Y-279935714D01*
X304362142Y-280007142D01*
X304219285Y-280078571D01*
X304076428Y-280078571D01*
X303933571Y-280007142D01*
X303862142Y-279935714D01*
X303790714Y-279792857D01*
X303719285Y-279507142D01*
X303719285Y-279150000D01*
X303790714Y-278864285D01*
X303862142Y-278721428D01*
X303933571Y-278650000D01*
X304076428Y-278578571D01*
X306005000Y-280078571D02*
X305147857Y-280078571D01*
X305576428Y-280078571D02*
X305576428Y-278578571D01*
X305433571Y-278792857D01*
X305290714Y-278935714D01*
X305147857Y-279007142D01*
X306719285Y-280078571D02*
X307005000Y-280078571D01*
X307147857Y-280007142D01*
X307219285Y-279935714D01*
X307362142Y-279721428D01*
X307433571Y-279435714D01*
X307433571Y-278864285D01*
X307362142Y-278721428D01*
X307290714Y-278650000D01*
X307147857Y-278578571D01*
X306862142Y-278578571D01*
X306719285Y-278650000D01*
X306647857Y-278721428D01*
X306576428Y-278864285D01*
X306576428Y-279221428D01*
X306647857Y-279364285D01*
X306719285Y-279435714D01*
X306862142Y-279507142D01*
X307147857Y-279507142D01*
X307290714Y-279435714D01*
X307362142Y-279364285D01*
X307433571Y-279221428D01*
X309147857Y-279650000D02*
X309862142Y-279650000D01*
X309005000Y-280078571D02*
X309505000Y-278578571D01*
X310005000Y-280078571D01*
X310505000Y-279078571D02*
X310505000Y-280078571D01*
X310505000Y-279221428D02*
X310576428Y-279150000D01*
X310719285Y-279078571D01*
X310933571Y-279078571D01*
X311076428Y-279150000D01*
X311147857Y-279292857D01*
X311147857Y-280078571D01*
X312505000Y-280078571D02*
X312505000Y-278578571D01*
X312505000Y-280007142D02*
X312362142Y-280078571D01*
X312076428Y-280078571D01*
X311933571Y-280007142D01*
X311862142Y-279935714D01*
X311790714Y-279792857D01*
X311790714Y-279364285D01*
X311862142Y-279221428D01*
X311933571Y-279150000D01*
X312076428Y-279078571D01*
X312362142Y-279078571D01*
X312505000Y-279150000D01*
X313219285Y-280078571D02*
X313219285Y-279078571D01*
X313219285Y-279364285D02*
X313290714Y-279221428D01*
X313362142Y-279150000D01*
X313505000Y-279078571D01*
X313647857Y-279078571D01*
X314719285Y-280007142D02*
X314576428Y-280078571D01*
X314290714Y-280078571D01*
X314147857Y-280007142D01*
X314076428Y-279864285D01*
X314076428Y-279292857D01*
X314147857Y-279150000D01*
X314290714Y-279078571D01*
X314576428Y-279078571D01*
X314719285Y-279150000D01*
X314790714Y-279292857D01*
X314790714Y-279435714D01*
X314076428Y-279578571D01*
X315290714Y-279078571D02*
X315576428Y-280078571D01*
X315862142Y-279364285D01*
X316147857Y-280078571D01*
X316433571Y-279078571D01*
X318647857Y-279292857D02*
X318147857Y-279292857D01*
X318147857Y-280078571D02*
X318147857Y-278578571D01*
X318862142Y-278578571D01*
X319647857Y-280078571D02*
X319505000Y-280007142D01*
X319433571Y-279935714D01*
X319362142Y-279792857D01*
X319362142Y-279364285D01*
X319433571Y-279221428D01*
X319505000Y-279150000D01*
X319647857Y-279078571D01*
X319862142Y-279078571D01*
X320005000Y-279150000D01*
X320076428Y-279221428D01*
X320147857Y-279364285D01*
X320147857Y-279792857D01*
X320076428Y-279935714D01*
X320005000Y-280007142D01*
X319862142Y-280078571D01*
X319647857Y-280078571D01*
X320647857Y-280078571D02*
X321433571Y-279078571D01*
X320647857Y-279078571D02*
X321433571Y-280078571D01*
X322076428Y-280007142D02*
X322076428Y-280078571D01*
X322005000Y-280221428D01*
X321933571Y-280292857D01*
X324719285Y-280078571D02*
X324219285Y-279364285D01*
X323862142Y-280078571D02*
X323862142Y-278578571D01*
X324433571Y-278578571D01*
X324576428Y-278650000D01*
X324647857Y-278721428D01*
X324719285Y-278864285D01*
X324719285Y-279078571D01*
X324647857Y-279221428D01*
X324576428Y-279292857D01*
X324433571Y-279364285D01*
X323862142Y-279364285D01*
X325933571Y-280007142D02*
X325790714Y-280078571D01*
X325505000Y-280078571D01*
X325362142Y-280007142D01*
X325290714Y-279864285D01*
X325290714Y-279292857D01*
X325362142Y-279150000D01*
X325505000Y-279078571D01*
X325790714Y-279078571D01*
X325933571Y-279150000D01*
X326005000Y-279292857D01*
X326005000Y-279435714D01*
X325290714Y-279578571D01*
X326505000Y-279078571D02*
X326862142Y-280078571D01*
X327219285Y-279078571D01*
X329719285Y-280078571D02*
X328862142Y-280078571D01*
X329290714Y-280078571D02*
X329290714Y-278578571D01*
X329147857Y-278792857D01*
X329005000Y-278935714D01*
X328862142Y-279007142D01*
D12*
X378570000Y-332680000D02*
X376920000Y-332680000D01*
X378570000Y-342960000D02*
X378570000Y-332680000D01*
X373270000Y-342960000D02*
X378570000Y-342960000D01*
X373270000Y-332680000D02*
X373270000Y-342960000D01*
X374920000Y-332680000D02*
X373270000Y-332680000D01*
X376920000Y-332680000D02*
G75*
G02X374920000Y-332680000I-1000000J0D01*
G01*
X388620000Y-322710000D02*
X388620000Y-319910000D01*
X368130000Y-322710000D02*
X391330000Y-322710000D01*
X368130000Y-319910000D02*
X368130000Y-322710000D01*
X391330000Y-319910000D02*
X368130000Y-319910000D01*
X391330000Y-322710000D02*
X391330000Y-319910000D01*
X391300000Y-318910000D02*
X365620000Y-318910000D01*
X391300000Y-308470000D02*
X391300000Y-318910000D01*
X365620000Y-308470000D02*
X391300000Y-308470000D01*
X365620000Y-318910000D02*
X365620000Y-308470000D01*
X391590000Y-308180000D02*
X389890000Y-308180000D01*
X391590000Y-309880000D02*
X391590000Y-308180000D01*
X348040000Y-281940000D02*
X348040000Y-283270000D01*
X348040000Y-283270000D02*
X346710000Y-283270000D01*
X345440000Y-283270000D02*
X335220000Y-283270000D01*
X335220000Y-280610000D02*
X335220000Y-283270000D01*
X345440000Y-280610000D02*
X335220000Y-280610000D01*
X345440000Y-280610000D02*
X345440000Y-283270000D01*
X389350000Y-331697000D02*
X389350000Y-331367000D01*
X382810000Y-331697000D02*
X389350000Y-331697000D01*
X382810000Y-331367000D02*
X382810000Y-331697000D01*
X389350000Y-328957000D02*
X389350000Y-329287000D01*
X382810000Y-328957000D02*
X389350000Y-328957000D01*
X382810000Y-329287000D02*
X382810000Y-328957000D01*
X356410000Y-322680000D02*
G75*
G03X357160000Y-321930000I0J750000D01*
G01*
X336260000Y-321930000D02*
G75*
G03X337010000Y-322680000I750000J0D01*
G01*
X337010000Y-309780000D02*
G75*
G03X336260000Y-310530000I0J-750000D01*
G01*
X357160000Y-309780000D02*
X337010000Y-309780000D01*
X336260000Y-310530000D02*
X336260000Y-321930000D01*
X337010000Y-322680000D02*
X356410000Y-322680000D01*
X357160000Y-321930000D02*
X357160000Y-309780000D01*
X276130000Y-294540000D02*
X276130000Y-294870000D01*
X282670000Y-294540000D02*
X276130000Y-294540000D01*
X282670000Y-294870000D02*
X282670000Y-294540000D01*
X276130000Y-297280000D02*
X276130000Y-296950000D01*
X282670000Y-297280000D02*
X276130000Y-297280000D01*
X282670000Y-296950000D02*
X282670000Y-297280000D01*
X276130000Y-288190000D02*
X276130000Y-288520000D01*
X282670000Y-288190000D02*
X276130000Y-288190000D01*
X282670000Y-288520000D02*
X282670000Y-288190000D01*
X276130000Y-290930000D02*
X276130000Y-290600000D01*
X282670000Y-290930000D02*
X276130000Y-290930000D01*
X282670000Y-290600000D02*
X282670000Y-290930000D01*
X281630000Y-312205000D02*
X281630000Y-312220000D01*
X281630000Y-310080000D02*
X281630000Y-310095000D01*
X277090000Y-312205000D02*
X277090000Y-312220000D01*
X277090000Y-310080000D02*
X277090000Y-310095000D01*
X277090000Y-312220000D02*
X281630000Y-312220000D01*
X277090000Y-310080000D02*
X281630000Y-310080000D01*
X276575225Y-301805000D02*
X276575225Y-302305000D01*
X276325225Y-302055000D02*
X276825225Y-302055000D01*
X281731000Y-303246000D02*
X281731000Y-303814000D01*
X281691000Y-303012000D02*
X281691000Y-304048000D01*
X281651000Y-302853000D02*
X281651000Y-304207000D01*
X281611000Y-302725000D02*
X281611000Y-304335000D01*
X281571000Y-302615000D02*
X281571000Y-304445000D01*
X281531000Y-302519000D02*
X281531000Y-304541000D01*
X281491000Y-302432000D02*
X281491000Y-304628000D01*
X281451000Y-302352000D02*
X281451000Y-304708000D01*
X281411000Y-302279000D02*
X281411000Y-304781000D01*
X281371000Y-302211000D02*
X281371000Y-304849000D01*
X281331000Y-302147000D02*
X281331000Y-304913000D01*
X281291000Y-302087000D02*
X281291000Y-304973000D01*
X281251000Y-302030000D02*
X281251000Y-305030000D01*
X281211000Y-301976000D02*
X281211000Y-305084000D01*
X281171000Y-301925000D02*
X281171000Y-305135000D01*
X281131000Y-304570000D02*
X281131000Y-305183000D01*
X281131000Y-301877000D02*
X281131000Y-302490000D01*
X281091000Y-304570000D02*
X281091000Y-305229000D01*
X281091000Y-301831000D02*
X281091000Y-302490000D01*
X281051000Y-304570000D02*
X281051000Y-305273000D01*
X281051000Y-301787000D02*
X281051000Y-302490000D01*
X281011000Y-304570000D02*
X281011000Y-305315000D01*
X281011000Y-301745000D02*
X281011000Y-302490000D01*
X280971000Y-304570000D02*
X280971000Y-305356000D01*
X280971000Y-301704000D02*
X280971000Y-302490000D01*
X280931000Y-304570000D02*
X280931000Y-305394000D01*
X280931000Y-301666000D02*
X280931000Y-302490000D01*
X280891000Y-304570000D02*
X280891000Y-305431000D01*
X280891000Y-301629000D02*
X280891000Y-302490000D01*
X280851000Y-304570000D02*
X280851000Y-305467000D01*
X280851000Y-301593000D02*
X280851000Y-302490000D01*
X280811000Y-304570000D02*
X280811000Y-305501000D01*
X280811000Y-301559000D02*
X280811000Y-302490000D01*
X280771000Y-304570000D02*
X280771000Y-305534000D01*
X280771000Y-301526000D02*
X280771000Y-302490000D01*
X280731000Y-304570000D02*
X280731000Y-305565000D01*
X280731000Y-301495000D02*
X280731000Y-302490000D01*
X280691000Y-304570000D02*
X280691000Y-305595000D01*
X280691000Y-301465000D02*
X280691000Y-302490000D01*
X280651000Y-304570000D02*
X280651000Y-305625000D01*
X280651000Y-301435000D02*
X280651000Y-302490000D01*
X280611000Y-304570000D02*
X280611000Y-305652000D01*
X280611000Y-301408000D02*
X280611000Y-302490000D01*
X280571000Y-304570000D02*
X280571000Y-305679000D01*
X280571000Y-301381000D02*
X280571000Y-302490000D01*
X280531000Y-304570000D02*
X280531000Y-305705000D01*
X280531000Y-301355000D02*
X280531000Y-302490000D01*
X280491000Y-304570000D02*
X280491000Y-305730000D01*
X280491000Y-301330000D02*
X280491000Y-302490000D01*
X280451000Y-304570000D02*
X280451000Y-305754000D01*
X280451000Y-301306000D02*
X280451000Y-302490000D01*
X280411000Y-304570000D02*
X280411000Y-305777000D01*
X280411000Y-301283000D02*
X280411000Y-302490000D01*
X280371000Y-304570000D02*
X280371000Y-305798000D01*
X280371000Y-301262000D02*
X280371000Y-302490000D01*
X280331000Y-304570000D02*
X280331000Y-305820000D01*
X280331000Y-301240000D02*
X280331000Y-302490000D01*
X280291000Y-304570000D02*
X280291000Y-305840000D01*
X280291000Y-301220000D02*
X280291000Y-302490000D01*
X280251000Y-304570000D02*
X280251000Y-305859000D01*
X280251000Y-301201000D02*
X280251000Y-302490000D01*
X280211000Y-304570000D02*
X280211000Y-305878000D01*
X280211000Y-301182000D02*
X280211000Y-302490000D01*
X280171000Y-304570000D02*
X280171000Y-305895000D01*
X280171000Y-301165000D02*
X280171000Y-302490000D01*
X280131000Y-304570000D02*
X280131000Y-305912000D01*
X280131000Y-301148000D02*
X280131000Y-302490000D01*
X280091000Y-304570000D02*
X280091000Y-305928000D01*
X280091000Y-301132000D02*
X280091000Y-302490000D01*
X280051000Y-304570000D02*
X280051000Y-305944000D01*
X280051000Y-301116000D02*
X280051000Y-302490000D01*
X280011000Y-304570000D02*
X280011000Y-305958000D01*
X280011000Y-301102000D02*
X280011000Y-302490000D01*
X279971000Y-304570000D02*
X279971000Y-305972000D01*
X279971000Y-301088000D02*
X279971000Y-302490000D01*
X279931000Y-304570000D02*
X279931000Y-305985000D01*
X279931000Y-301075000D02*
X279931000Y-302490000D01*
X279891000Y-304570000D02*
X279891000Y-305998000D01*
X279891000Y-301062000D02*
X279891000Y-302490000D01*
X279851000Y-304570000D02*
X279851000Y-306010000D01*
X279851000Y-301050000D02*
X279851000Y-302490000D01*
X279810000Y-304570000D02*
X279810000Y-306021000D01*
X279810000Y-301039000D02*
X279810000Y-302490000D01*
X279770000Y-304570000D02*
X279770000Y-306031000D01*
X279770000Y-301029000D02*
X279770000Y-302490000D01*
X279730000Y-304570000D02*
X279730000Y-306041000D01*
X279730000Y-301019000D02*
X279730000Y-302490000D01*
X279690000Y-304570000D02*
X279690000Y-306050000D01*
X279690000Y-301010000D02*
X279690000Y-302490000D01*
X279650000Y-304570000D02*
X279650000Y-306058000D01*
X279650000Y-301002000D02*
X279650000Y-302490000D01*
X279610000Y-304570000D02*
X279610000Y-306066000D01*
X279610000Y-300994000D02*
X279610000Y-302490000D01*
X279570000Y-304570000D02*
X279570000Y-306073000D01*
X279570000Y-300987000D02*
X279570000Y-302490000D01*
X279530000Y-304570000D02*
X279530000Y-306080000D01*
X279530000Y-300980000D02*
X279530000Y-302490000D01*
X279490000Y-304570000D02*
X279490000Y-306086000D01*
X279490000Y-300974000D02*
X279490000Y-302490000D01*
X279450000Y-304570000D02*
X279450000Y-306091000D01*
X279450000Y-300969000D02*
X279450000Y-302490000D01*
X279410000Y-304570000D02*
X279410000Y-306095000D01*
X279410000Y-300965000D02*
X279410000Y-302490000D01*
X279370000Y-304570000D02*
X279370000Y-306099000D01*
X279370000Y-300961000D02*
X279370000Y-302490000D01*
X279330000Y-304570000D02*
X279330000Y-306103000D01*
X279330000Y-300957000D02*
X279330000Y-302490000D01*
X279290000Y-304570000D02*
X279290000Y-306106000D01*
X279290000Y-300954000D02*
X279290000Y-302490000D01*
X279250000Y-304570000D02*
X279250000Y-306108000D01*
X279250000Y-300952000D02*
X279250000Y-302490000D01*
X279210000Y-304570000D02*
X279210000Y-306109000D01*
X279210000Y-300951000D02*
X279210000Y-302490000D01*
X279170000Y-300950000D02*
X279170000Y-302490000D01*
X279170000Y-304570000D02*
X279170000Y-306110000D01*
X279130000Y-300950000D02*
X279130000Y-302490000D01*
X279130000Y-304570000D02*
X279130000Y-306110000D01*
X281750000Y-303530000D02*
G75*
G03X281750000Y-303530000I-2620000J0D01*
G01*
X307450000Y-294580000D02*
X305800000Y-294580000D01*
X307450000Y-312480000D02*
X307450000Y-294580000D01*
X302150000Y-312480000D02*
X307450000Y-312480000D01*
X302150000Y-294580000D02*
X302150000Y-312480000D01*
X303800000Y-294580000D02*
X302150000Y-294580000D01*
X305800000Y-294580000D02*
G75*
G02X303800000Y-294580000I-1000000J0D01*
G01*
X320150000Y-294580000D02*
X318500000Y-294580000D01*
X320150000Y-312480000D02*
X320150000Y-294580000D01*
X314850000Y-312480000D02*
X320150000Y-312480000D01*
X314850000Y-294580000D02*
X314850000Y-312480000D01*
X316500000Y-294580000D02*
X314850000Y-294580000D01*
X318500000Y-294580000D02*
G75*
G02X316500000Y-294580000I-1000000J0D01*
G01*
X294750000Y-294580000D02*
X293100000Y-294580000D01*
X294750000Y-315020000D02*
X294750000Y-294580000D01*
X289450000Y-315020000D02*
X294750000Y-315020000D01*
X289450000Y-294580000D02*
X289450000Y-315020000D01*
X291100000Y-294580000D02*
X289450000Y-294580000D01*
X293100000Y-294580000D02*
G75*
G02X291100000Y-294580000I-1000000J0D01*
G01*
X332850000Y-294580000D02*
X331200000Y-294580000D01*
X332850000Y-312480000D02*
X332850000Y-294580000D01*
X327550000Y-312480000D02*
X332850000Y-312480000D01*
X327550000Y-294580000D02*
X327550000Y-312480000D01*
X329200000Y-294580000D02*
X327550000Y-294580000D01*
X331200000Y-294580000D02*
G75*
G02X329200000Y-294580000I-1000000J0D01*
G01*
X270620000Y-294580000D02*
X268970000Y-294580000D01*
X270620000Y-304860000D02*
X270620000Y-294580000D01*
X265320000Y-304860000D02*
X270620000Y-304860000D01*
X265320000Y-294580000D02*
X265320000Y-304860000D01*
X266970000Y-294580000D02*
X265320000Y-294580000D01*
X268970000Y-294580000D02*
G75*
G02X266970000Y-294580000I-1000000J0D01*
G01*
X358250000Y-332680000D02*
X356600000Y-332680000D01*
X358250000Y-342960000D02*
X358250000Y-332680000D01*
X352950000Y-342960000D02*
X358250000Y-342960000D01*
X352950000Y-332680000D02*
X352950000Y-342960000D01*
X354600000Y-332680000D02*
X352950000Y-332680000D01*
X356600000Y-332680000D02*
G75*
G02X354600000Y-332680000I-1000000J0D01*
G01*
X391276200Y-306128200D02*
X391276200Y-288228200D01*
X350396200Y-306128200D02*
X391276200Y-306128200D01*
X350396200Y-288228200D02*
X350396200Y-306128200D01*
X391276200Y-288228200D02*
X350396200Y-288228200D01*
X391216200Y-303638200D02*
X391216200Y-298178200D01*
X350456200Y-303638200D02*
X391216200Y-303638200D01*
X350456200Y-290718200D02*
X350456200Y-303638200D01*
X391216200Y-290718200D02*
X350456200Y-290718200D01*
X391216200Y-296178200D02*
X391216200Y-290718200D01*
X391216200Y-298178200D02*
G75*
G02X391216200Y-296178200I0J1000000D01*
G01*
X327770000Y-332680000D02*
X326120000Y-332680000D01*
X327770000Y-342960000D02*
X327770000Y-332680000D01*
X322470000Y-342960000D02*
X327770000Y-342960000D01*
X322470000Y-332680000D02*
X322470000Y-342960000D01*
X324120000Y-332680000D02*
X322470000Y-332680000D01*
X326120000Y-332680000D02*
G75*
G02X324120000Y-332680000I-1000000J0D01*
G01*
X297290000Y-332680000D02*
X295640000Y-332680000D01*
X297290000Y-342960000D02*
X297290000Y-332680000D01*
X291990000Y-342960000D02*
X297290000Y-342960000D01*
X291990000Y-332680000D02*
X291990000Y-342960000D01*
X293640000Y-332680000D02*
X291990000Y-332680000D01*
X295640000Y-332680000D02*
G75*
G02X293640000Y-332680000I-1000000J0D01*
G01*
X270910000Y-324310000D02*
X270910000Y-322810000D01*
X269660000Y-320310000D02*
X265160000Y-320310000D01*
X263910000Y-322810000D02*
X263910000Y-324310000D01*
X265160000Y-326810000D02*
X269660000Y-326810000D01*
X283020000Y-322690000D02*
X283020000Y-324930000D01*
X279279000Y-322690000D02*
X279279000Y-324930000D01*
X279279000Y-324930000D02*
X283020000Y-324930000D01*
X279279000Y-322690000D02*
X283020000Y-322690000D01*
X279279000Y-322376000D02*
X279279000Y-325245000D01*
X283020000Y-320540000D02*
X283020000Y-327080000D01*
X280325000Y-327080000D02*
X283020000Y-327080000D01*
X280325000Y-320540000D02*
X283020000Y-320540000D01*
X318230000Y-323950000D02*
X318230000Y-323620000D01*
X311690000Y-323950000D02*
X318230000Y-323950000D01*
X311690000Y-323620000D02*
X311690000Y-323950000D01*
X318230000Y-321210000D02*
X318230000Y-321540000D01*
X311690000Y-321210000D02*
X318230000Y-321210000D01*
X311690000Y-321540000D02*
X311690000Y-321210000D01*
X389350000Y-343000000D02*
X389350000Y-342670000D01*
X382810000Y-343000000D02*
X389350000Y-343000000D01*
X382810000Y-342670000D02*
X382810000Y-343000000D01*
X389350000Y-340260000D02*
X389350000Y-340590000D01*
X382810000Y-340260000D02*
X389350000Y-340260000D01*
X382810000Y-340590000D02*
X382810000Y-340260000D01*
X389350000Y-339190000D02*
X389350000Y-338860000D01*
X382810000Y-339190000D02*
X389350000Y-339190000D01*
X382810000Y-338860000D02*
X382810000Y-339190000D01*
X389350000Y-336450000D02*
X389350000Y-336780000D01*
X382810000Y-336450000D02*
X389350000Y-336450000D01*
X382810000Y-336780000D02*
X382810000Y-336450000D01*
X389350000Y-335380000D02*
X389350000Y-335050000D01*
X382810000Y-335380000D02*
X389350000Y-335380000D01*
X382810000Y-335050000D02*
X382810000Y-335380000D01*
X389350000Y-332640000D02*
X389350000Y-332970000D01*
X382810000Y-332640000D02*
X389350000Y-332640000D01*
X382810000Y-332970000D02*
X382810000Y-332640000D01*
X369030000Y-343000000D02*
X369030000Y-342670000D01*
X362490000Y-343000000D02*
X369030000Y-343000000D01*
X362490000Y-342670000D02*
X362490000Y-343000000D01*
X369030000Y-340260000D02*
X369030000Y-340590000D01*
X362490000Y-340260000D02*
X369030000Y-340260000D01*
X362490000Y-340590000D02*
X362490000Y-340260000D01*
X369030000Y-339190000D02*
X369030000Y-338860000D01*
X362490000Y-339190000D02*
X369030000Y-339190000D01*
X362490000Y-338860000D02*
X362490000Y-339190000D01*
X369030000Y-336450000D02*
X369030000Y-336780000D01*
X362490000Y-336450000D02*
X369030000Y-336450000D01*
X362490000Y-336780000D02*
X362490000Y-336450000D01*
X369030000Y-335380000D02*
X369030000Y-335050000D01*
X362490000Y-335380000D02*
X369030000Y-335380000D01*
X362490000Y-335050000D02*
X362490000Y-335380000D01*
X369030000Y-332640000D02*
X369030000Y-332970000D01*
X362490000Y-332640000D02*
X369030000Y-332640000D01*
X362490000Y-332970000D02*
X362490000Y-332640000D01*
X348710000Y-343000000D02*
X348710000Y-342670000D01*
X342170000Y-343000000D02*
X348710000Y-343000000D01*
X342170000Y-342670000D02*
X342170000Y-343000000D01*
X348710000Y-340260000D02*
X348710000Y-340590000D01*
X342170000Y-340260000D02*
X348710000Y-340260000D01*
X342170000Y-340590000D02*
X342170000Y-340260000D01*
X348710000Y-339190000D02*
X348710000Y-338860000D01*
X342170000Y-339190000D02*
X348710000Y-339190000D01*
X342170000Y-338860000D02*
X342170000Y-339190000D01*
X348710000Y-336450000D02*
X348710000Y-336780000D01*
X342170000Y-336450000D02*
X348710000Y-336450000D01*
X342170000Y-336780000D02*
X342170000Y-336450000D01*
X348710000Y-335380000D02*
X348710000Y-335050000D01*
X342170000Y-335380000D02*
X348710000Y-335380000D01*
X342170000Y-335050000D02*
X342170000Y-335380000D01*
X348710000Y-332640000D02*
X348710000Y-332970000D01*
X342170000Y-332640000D02*
X348710000Y-332640000D01*
X342170000Y-332970000D02*
X342170000Y-332640000D01*
X338550000Y-343000000D02*
X338550000Y-342670000D01*
X332010000Y-343000000D02*
X338550000Y-343000000D01*
X332010000Y-342670000D02*
X332010000Y-343000000D01*
X338550000Y-340260000D02*
X338550000Y-340590000D01*
X332010000Y-340260000D02*
X338550000Y-340260000D01*
X332010000Y-340590000D02*
X332010000Y-340260000D01*
X338550000Y-339190000D02*
X338550000Y-338860000D01*
X332010000Y-339190000D02*
X338550000Y-339190000D01*
X332010000Y-338860000D02*
X332010000Y-339190000D01*
X338550000Y-336450000D02*
X338550000Y-336780000D01*
X332010000Y-336450000D02*
X338550000Y-336450000D01*
X332010000Y-336780000D02*
X332010000Y-336450000D01*
X338550000Y-335380000D02*
X338550000Y-335050000D01*
X332010000Y-335380000D02*
X338550000Y-335380000D01*
X332010000Y-335050000D02*
X332010000Y-335380000D01*
X338550000Y-332640000D02*
X338550000Y-332970000D01*
X332010000Y-332640000D02*
X338550000Y-332640000D01*
X332010000Y-332970000D02*
X332010000Y-332640000D01*
X318230000Y-343000000D02*
X318230000Y-342670000D01*
X311690000Y-343000000D02*
X318230000Y-343000000D01*
X311690000Y-342670000D02*
X311690000Y-343000000D01*
X318230000Y-340260000D02*
X318230000Y-340590000D01*
X311690000Y-340260000D02*
X318230000Y-340260000D01*
X311690000Y-340590000D02*
X311690000Y-340260000D01*
X318230000Y-339190000D02*
X318230000Y-338860000D01*
X311690000Y-339190000D02*
X318230000Y-339190000D01*
X311690000Y-338860000D02*
X311690000Y-339190000D01*
X318230000Y-336450000D02*
X318230000Y-336780000D01*
X311690000Y-336450000D02*
X318230000Y-336450000D01*
X311690000Y-336780000D02*
X311690000Y-336450000D01*
X318230000Y-335380000D02*
X318230000Y-335050000D01*
X311690000Y-335380000D02*
X318230000Y-335380000D01*
X311690000Y-335050000D02*
X311690000Y-335380000D01*
X318230000Y-332640000D02*
X318230000Y-332970000D01*
X311690000Y-332640000D02*
X318230000Y-332640000D01*
X311690000Y-332970000D02*
X311690000Y-332640000D01*
X308070000Y-343000000D02*
X308070000Y-342670000D01*
X301530000Y-343000000D02*
X308070000Y-343000000D01*
X301530000Y-342670000D02*
X301530000Y-343000000D01*
X308070000Y-340260000D02*
X308070000Y-340590000D01*
X301530000Y-340260000D02*
X308070000Y-340260000D01*
X301530000Y-340590000D02*
X301530000Y-340260000D01*
X308070000Y-339190000D02*
X308070000Y-338860000D01*
X301530000Y-339190000D02*
X308070000Y-339190000D01*
X301530000Y-338860000D02*
X301530000Y-339190000D01*
X308070000Y-336450000D02*
X308070000Y-336780000D01*
X301530000Y-336450000D02*
X308070000Y-336450000D01*
X301530000Y-336780000D02*
X301530000Y-336450000D01*
X308070000Y-335380000D02*
X308070000Y-335050000D01*
X301530000Y-335380000D02*
X308070000Y-335380000D01*
X301530000Y-335050000D02*
X301530000Y-335380000D01*
X308070000Y-332640000D02*
X308070000Y-332970000D01*
X301530000Y-332640000D02*
X308070000Y-332640000D01*
X301530000Y-332970000D02*
X301530000Y-332640000D01*
X287750000Y-343000000D02*
X287750000Y-342670000D01*
X281210000Y-343000000D02*
X287750000Y-343000000D01*
X281210000Y-342670000D02*
X281210000Y-343000000D01*
X287750000Y-340260000D02*
X287750000Y-340590000D01*
X281210000Y-340260000D02*
X287750000Y-340260000D01*
X281210000Y-340590000D02*
X281210000Y-340260000D01*
X287750000Y-339190000D02*
X287750000Y-338860000D01*
X281210000Y-339190000D02*
X287750000Y-339190000D01*
X281210000Y-338860000D02*
X281210000Y-339190000D01*
X287750000Y-336450000D02*
X287750000Y-336780000D01*
X281210000Y-336450000D02*
X287750000Y-336450000D01*
X281210000Y-336780000D02*
X281210000Y-336450000D01*
X287750000Y-335380000D02*
X287750000Y-335050000D01*
X281210000Y-335380000D02*
X287750000Y-335380000D01*
X281210000Y-335050000D02*
X281210000Y-335380000D01*
X287750000Y-332640000D02*
X287750000Y-332970000D01*
X281210000Y-332640000D02*
X287750000Y-332640000D01*
X281210000Y-332970000D02*
X281210000Y-332640000D01*
X307360000Y-324125000D02*
X307360000Y-321035000D01*
X307300000Y-322580000D02*
G75*
G03X307300000Y-322580000I-2500000J0D01*
G01*
X301810000Y-322580462D02*
G75*
G02X307360000Y-321035170I2990000J462D01*
G01*
X301810000Y-322579538D02*
G75*
G03X307360000Y-324124830I2990000J-462D01*
G01*
X265740000Y-288505000D02*
X265740000Y-288490000D01*
X265740000Y-290630000D02*
X265740000Y-290615000D01*
X270280000Y-288505000D02*
X270280000Y-288490000D01*
X270280000Y-290630000D02*
X270280000Y-290615000D01*
X270280000Y-288490000D02*
X265740000Y-288490000D01*
X270280000Y-290630000D02*
X265740000Y-290630000D01*
X361735000Y-315270000D02*
X361750000Y-315270000D01*
X359610000Y-315270000D02*
X359625000Y-315270000D01*
X361735000Y-319810000D02*
X361750000Y-319810000D01*
X359610000Y-319810000D02*
X359625000Y-319810000D01*
X361750000Y-319810000D02*
X361750000Y-315270000D01*
X359610000Y-319810000D02*
X359610000Y-315270000D01*
X302570000Y-288505000D02*
X302570000Y-288490000D01*
X302570000Y-290630000D02*
X302570000Y-290615000D01*
X307110000Y-288505000D02*
X307110000Y-288490000D01*
X307110000Y-290630000D02*
X307110000Y-290615000D01*
X307110000Y-288490000D02*
X302570000Y-288490000D01*
X307110000Y-290630000D02*
X302570000Y-290630000D01*
X315270000Y-288505000D02*
X315270000Y-288490000D01*
X315270000Y-290630000D02*
X315270000Y-290615000D01*
X319810000Y-288505000D02*
X319810000Y-288490000D01*
X319810000Y-290630000D02*
X319810000Y-290615000D01*
X319810000Y-288490000D02*
X315270000Y-288490000D01*
X319810000Y-290630000D02*
X315270000Y-290630000D01*
X289870000Y-288505000D02*
X289870000Y-288490000D01*
X289870000Y-290630000D02*
X289870000Y-290615000D01*
X294410000Y-288505000D02*
X294410000Y-288490000D01*
X294410000Y-290630000D02*
X294410000Y-290615000D01*
X294410000Y-288490000D02*
X289870000Y-288490000D01*
X294410000Y-290630000D02*
X289870000Y-290630000D01*
X327970000Y-288505000D02*
X327970000Y-288490000D01*
X327970000Y-290630000D02*
X327970000Y-290615000D01*
X332510000Y-288505000D02*
X332510000Y-288490000D01*
X332510000Y-290630000D02*
X332510000Y-290615000D01*
X332510000Y-288490000D02*
X327970000Y-288490000D01*
X332510000Y-290630000D02*
X327970000Y-290630000D01*
X373690000Y-326605000D02*
X373690000Y-326590000D01*
X373690000Y-328730000D02*
X373690000Y-328715000D01*
X378230000Y-326605000D02*
X378230000Y-326590000D01*
X378230000Y-328730000D02*
X378230000Y-328715000D01*
X378230000Y-326590000D02*
X373690000Y-326590000D01*
X378230000Y-328730000D02*
X373690000Y-328730000D01*
X353370000Y-326605000D02*
X353370000Y-326590000D01*
X353370000Y-328730000D02*
X353370000Y-328715000D01*
X357910000Y-326605000D02*
X357910000Y-326590000D01*
X357910000Y-328730000D02*
X357910000Y-328715000D01*
X357910000Y-326590000D02*
X353370000Y-326590000D01*
X357910000Y-328730000D02*
X353370000Y-328730000D01*
X397295000Y-294950000D02*
X397310000Y-294950000D01*
X395170000Y-294950000D02*
X395185000Y-294950000D01*
X397295000Y-299490000D02*
X397310000Y-299490000D01*
X395170000Y-299490000D02*
X395185000Y-299490000D01*
X397310000Y-299490000D02*
X397310000Y-294950000D01*
X395170000Y-299490000D02*
X395170000Y-294950000D01*
X322890000Y-326605000D02*
X322890000Y-326590000D01*
X322890000Y-328730000D02*
X322890000Y-328715000D01*
X327430000Y-326605000D02*
X327430000Y-326590000D01*
X327430000Y-328730000D02*
X327430000Y-328715000D01*
X327430000Y-326590000D02*
X322890000Y-326590000D01*
X327430000Y-328730000D02*
X322890000Y-328730000D01*
X292330000Y-326605000D02*
X292330000Y-326590000D01*
X292330000Y-328730000D02*
X292330000Y-328715000D01*
X296870000Y-326605000D02*
X296870000Y-326590000D01*
X296870000Y-328730000D02*
X296870000Y-328715000D01*
X296870000Y-326590000D02*
X292330000Y-326590000D01*
X296870000Y-328730000D02*
X292330000Y-328730000D01*
X393415225Y-328475000D02*
X393415225Y-328975000D01*
X393165225Y-328725000D02*
X393665225Y-328725000D01*
X398571000Y-329916000D02*
X398571000Y-330484000D01*
X398531000Y-329682000D02*
X398531000Y-330718000D01*
X398491000Y-329523000D02*
X398491000Y-330877000D01*
X398451000Y-329395000D02*
X398451000Y-331005000D01*
X398411000Y-329285000D02*
X398411000Y-331115000D01*
X398371000Y-329189000D02*
X398371000Y-331211000D01*
X398331000Y-329102000D02*
X398331000Y-331298000D01*
X398291000Y-329022000D02*
X398291000Y-331378000D01*
X398251000Y-328949000D02*
X398251000Y-331451000D01*
X398211000Y-328881000D02*
X398211000Y-331519000D01*
X398171000Y-328817000D02*
X398171000Y-331583000D01*
X398131000Y-328757000D02*
X398131000Y-331643000D01*
X398091000Y-328700000D02*
X398091000Y-331700000D01*
X398051000Y-328646000D02*
X398051000Y-331754000D01*
X398011000Y-328595000D02*
X398011000Y-331805000D01*
X397971000Y-331240000D02*
X397971000Y-331853000D01*
X397971000Y-328547000D02*
X397971000Y-329160000D01*
X397931000Y-331240000D02*
X397931000Y-331899000D01*
X397931000Y-328501000D02*
X397931000Y-329160000D01*
X397891000Y-331240000D02*
X397891000Y-331943000D01*
X397891000Y-328457000D02*
X397891000Y-329160000D01*
X397851000Y-331240000D02*
X397851000Y-331985000D01*
X397851000Y-328415000D02*
X397851000Y-329160000D01*
X397811000Y-331240000D02*
X397811000Y-332026000D01*
X397811000Y-328374000D02*
X397811000Y-329160000D01*
X397771000Y-331240000D02*
X397771000Y-332064000D01*
X397771000Y-328336000D02*
X397771000Y-329160000D01*
X397731000Y-331240000D02*
X397731000Y-332101000D01*
X397731000Y-328299000D02*
X397731000Y-329160000D01*
X397691000Y-331240000D02*
X397691000Y-332137000D01*
X397691000Y-328263000D02*
X397691000Y-329160000D01*
X397651000Y-331240000D02*
X397651000Y-332171000D01*
X397651000Y-328229000D02*
X397651000Y-329160000D01*
X397611000Y-331240000D02*
X397611000Y-332204000D01*
X397611000Y-328196000D02*
X397611000Y-329160000D01*
X397571000Y-331240000D02*
X397571000Y-332235000D01*
X397571000Y-328165000D02*
X397571000Y-329160000D01*
X397531000Y-331240000D02*
X397531000Y-332265000D01*
X397531000Y-328135000D02*
X397531000Y-329160000D01*
X397491000Y-331240000D02*
X397491000Y-332295000D01*
X397491000Y-328105000D02*
X397491000Y-329160000D01*
X397451000Y-331240000D02*
X397451000Y-332322000D01*
X397451000Y-328078000D02*
X397451000Y-329160000D01*
X397411000Y-331240000D02*
X397411000Y-332349000D01*
X397411000Y-328051000D02*
X397411000Y-329160000D01*
X397371000Y-331240000D02*
X397371000Y-332375000D01*
X397371000Y-328025000D02*
X397371000Y-329160000D01*
X397331000Y-331240000D02*
X397331000Y-332400000D01*
X397331000Y-328000000D02*
X397331000Y-329160000D01*
X397291000Y-331240000D02*
X397291000Y-332424000D01*
X397291000Y-327976000D02*
X397291000Y-329160000D01*
X397251000Y-331240000D02*
X397251000Y-332447000D01*
X397251000Y-327953000D02*
X397251000Y-329160000D01*
X397211000Y-331240000D02*
X397211000Y-332468000D01*
X397211000Y-327932000D02*
X397211000Y-329160000D01*
X397171000Y-331240000D02*
X397171000Y-332490000D01*
X397171000Y-327910000D02*
X397171000Y-329160000D01*
X397131000Y-331240000D02*
X397131000Y-332510000D01*
X397131000Y-327890000D02*
X397131000Y-329160000D01*
X397091000Y-331240000D02*
X397091000Y-332529000D01*
X397091000Y-327871000D02*
X397091000Y-329160000D01*
X397051000Y-331240000D02*
X397051000Y-332548000D01*
X397051000Y-327852000D02*
X397051000Y-329160000D01*
X397011000Y-331240000D02*
X397011000Y-332565000D01*
X397011000Y-327835000D02*
X397011000Y-329160000D01*
X396971000Y-331240000D02*
X396971000Y-332582000D01*
X396971000Y-327818000D02*
X396971000Y-329160000D01*
X396931000Y-331240000D02*
X396931000Y-332598000D01*
X396931000Y-327802000D02*
X396931000Y-329160000D01*
X396891000Y-331240000D02*
X396891000Y-332614000D01*
X396891000Y-327786000D02*
X396891000Y-329160000D01*
X396851000Y-331240000D02*
X396851000Y-332628000D01*
X396851000Y-327772000D02*
X396851000Y-329160000D01*
X396811000Y-331240000D02*
X396811000Y-332642000D01*
X396811000Y-327758000D02*
X396811000Y-329160000D01*
X396771000Y-331240000D02*
X396771000Y-332655000D01*
X396771000Y-327745000D02*
X396771000Y-329160000D01*
X396731000Y-331240000D02*
X396731000Y-332668000D01*
X396731000Y-327732000D02*
X396731000Y-329160000D01*
X396691000Y-331240000D02*
X396691000Y-332680000D01*
X396691000Y-327720000D02*
X396691000Y-329160000D01*
X396650000Y-331240000D02*
X396650000Y-332691000D01*
X396650000Y-327709000D02*
X396650000Y-329160000D01*
X396610000Y-331240000D02*
X396610000Y-332701000D01*
X396610000Y-327699000D02*
X396610000Y-329160000D01*
X396570000Y-331240000D02*
X396570000Y-332711000D01*
X396570000Y-327689000D02*
X396570000Y-329160000D01*
X396530000Y-331240000D02*
X396530000Y-332720000D01*
X396530000Y-327680000D02*
X396530000Y-329160000D01*
X396490000Y-331240000D02*
X396490000Y-332728000D01*
X396490000Y-327672000D02*
X396490000Y-329160000D01*
X396450000Y-331240000D02*
X396450000Y-332736000D01*
X396450000Y-327664000D02*
X396450000Y-329160000D01*
X396410000Y-331240000D02*
X396410000Y-332743000D01*
X396410000Y-327657000D02*
X396410000Y-329160000D01*
X396370000Y-331240000D02*
X396370000Y-332750000D01*
X396370000Y-327650000D02*
X396370000Y-329160000D01*
X396330000Y-331240000D02*
X396330000Y-332756000D01*
X396330000Y-327644000D02*
X396330000Y-329160000D01*
X396290000Y-331240000D02*
X396290000Y-332761000D01*
X396290000Y-327639000D02*
X396290000Y-329160000D01*
X396250000Y-331240000D02*
X396250000Y-332765000D01*
X396250000Y-327635000D02*
X396250000Y-329160000D01*
X396210000Y-331240000D02*
X396210000Y-332769000D01*
X396210000Y-327631000D02*
X396210000Y-329160000D01*
X396170000Y-331240000D02*
X396170000Y-332773000D01*
X396170000Y-327627000D02*
X396170000Y-329160000D01*
X396130000Y-331240000D02*
X396130000Y-332776000D01*
X396130000Y-327624000D02*
X396130000Y-329160000D01*
X396090000Y-331240000D02*
X396090000Y-332778000D01*
X396090000Y-327622000D02*
X396090000Y-329160000D01*
X396050000Y-331240000D02*
X396050000Y-332779000D01*
X396050000Y-327621000D02*
X396050000Y-329160000D01*
X396010000Y-327620000D02*
X396010000Y-329160000D01*
X396010000Y-331240000D02*
X396010000Y-332780000D01*
X395970000Y-327620000D02*
X395970000Y-329160000D01*
X395970000Y-331240000D02*
X395970000Y-332780000D01*
X398590000Y-330200000D02*
G75*
G03X398590000Y-330200000I-2620000J0D01*
G01*
D10*
X263398095Y-337882380D02*
X263398095Y-336882380D01*
X263398095Y-337358571D02*
X263969523Y-337358571D01*
X263969523Y-337882380D02*
X263969523Y-336882380D01*
X264398095Y-336977619D02*
X264445714Y-336930000D01*
X264540952Y-336882380D01*
X264779047Y-336882380D01*
X264874285Y-336930000D01*
X264921904Y-336977619D01*
X264969523Y-337072857D01*
X264969523Y-337168095D01*
X264921904Y-337310952D01*
X264350476Y-337882380D01*
X264969523Y-337882380D01*
X375158095Y-331132380D02*
X375158095Y-331941904D01*
X375205714Y-332037142D01*
X375253333Y-332084761D01*
X375348571Y-332132380D01*
X375539047Y-332132380D01*
X375634285Y-332084761D01*
X375681904Y-332037142D01*
X375729523Y-331941904D01*
X375729523Y-331132380D01*
X376681904Y-331132380D02*
X376205714Y-331132380D01*
X376158095Y-331608571D01*
X376205714Y-331560952D01*
X376300952Y-331513333D01*
X376539047Y-331513333D01*
X376634285Y-331560952D01*
X376681904Y-331608571D01*
X376729523Y-331703809D01*
X376729523Y-331941904D01*
X376681904Y-332037142D01*
X376634285Y-332084761D01*
X376539047Y-332132380D01*
X376300952Y-332132380D01*
X376205714Y-332084761D01*
X376158095Y-332037142D01*
X374229523Y-344412380D02*
X373753333Y-344412380D01*
X373753333Y-343412380D01*
X374562857Y-344412380D02*
X374562857Y-343412380D01*
X374896190Y-344126666D01*
X375229523Y-343412380D01*
X375229523Y-344412380D01*
X375610476Y-343412380D02*
X376229523Y-343412380D01*
X375896190Y-343793333D01*
X376039047Y-343793333D01*
X376134285Y-343840952D01*
X376181904Y-343888571D01*
X376229523Y-343983809D01*
X376229523Y-344221904D01*
X376181904Y-344317142D01*
X376134285Y-344364761D01*
X376039047Y-344412380D01*
X375753333Y-344412380D01*
X375658095Y-344364761D01*
X375610476Y-344317142D01*
X376705714Y-344412380D02*
X376896190Y-344412380D01*
X376991428Y-344364761D01*
X377039047Y-344317142D01*
X377134285Y-344174285D01*
X377181904Y-343983809D01*
X377181904Y-343602857D01*
X377134285Y-343507619D01*
X377086666Y-343460000D01*
X376991428Y-343412380D01*
X376800952Y-343412380D01*
X376705714Y-343460000D01*
X376658095Y-343507619D01*
X376610476Y-343602857D01*
X376610476Y-343840952D01*
X376658095Y-343936190D01*
X376705714Y-343983809D01*
X376800952Y-344031428D01*
X376991428Y-344031428D01*
X377086666Y-343983809D01*
X377134285Y-343936190D01*
X377181904Y-343840952D01*
X377515238Y-343412380D02*
X378134285Y-343412380D01*
X377800952Y-343793333D01*
X377943809Y-343793333D01*
X378039047Y-343840952D01*
X378086666Y-343888571D01*
X378134285Y-343983809D01*
X378134285Y-344221904D01*
X378086666Y-344317142D01*
X378039047Y-344364761D01*
X377943809Y-344412380D01*
X377658095Y-344412380D01*
X377562857Y-344364761D01*
X377515238Y-344317142D01*
X377769523Y-324162380D02*
X377436190Y-323686190D01*
X377198095Y-324162380D02*
X377198095Y-323162380D01*
X377579047Y-323162380D01*
X377674285Y-323210000D01*
X377721904Y-323257619D01*
X377769523Y-323352857D01*
X377769523Y-323495714D01*
X377721904Y-323590952D01*
X377674285Y-323638571D01*
X377579047Y-323686190D01*
X377198095Y-323686190D01*
X378198095Y-324162380D02*
X378198095Y-323162380D01*
X378769523Y-324162380D01*
X378769523Y-323162380D01*
X379769523Y-324162380D02*
X379198095Y-324162380D01*
X379483809Y-324162380D02*
X379483809Y-323162380D01*
X379388571Y-323305238D01*
X379293333Y-323400476D01*
X379198095Y-323448095D01*
X392188571Y-311683333D02*
X392236190Y-311540476D01*
X392283809Y-311492857D01*
X392379047Y-311445238D01*
X392521904Y-311445238D01*
X392617142Y-311492857D01*
X392664761Y-311540476D01*
X392712380Y-311635714D01*
X392712380Y-312016666D01*
X391712380Y-312016666D01*
X391712380Y-311683333D01*
X391760000Y-311588095D01*
X391807619Y-311540476D01*
X391902857Y-311492857D01*
X391998095Y-311492857D01*
X392093333Y-311540476D01*
X392140952Y-311588095D01*
X392188571Y-311683333D01*
X392188571Y-312016666D01*
X392426666Y-311064285D02*
X392426666Y-310588095D01*
X392712380Y-311159523D02*
X391712380Y-310826190D01*
X392712380Y-310492857D01*
X392712380Y-309588095D02*
X392236190Y-309921428D01*
X392712380Y-310159523D02*
X391712380Y-310159523D01*
X391712380Y-309778571D01*
X391760000Y-309683333D01*
X391807619Y-309635714D01*
X391902857Y-309588095D01*
X392045714Y-309588095D01*
X392140952Y-309635714D01*
X392188571Y-309683333D01*
X392236190Y-309778571D01*
X392236190Y-310159523D01*
X392712380Y-308635714D02*
X392712380Y-309207142D01*
X392712380Y-308921428D02*
X391712380Y-308921428D01*
X391855238Y-309016666D01*
X391950476Y-309111904D01*
X391998095Y-309207142D01*
X348932380Y-282273333D02*
X349646666Y-282273333D01*
X349789523Y-282320952D01*
X349884761Y-282416190D01*
X349932380Y-282559047D01*
X349932380Y-282654285D01*
X349932380Y-281273333D02*
X349932380Y-281844761D01*
X349932380Y-281559047D02*
X348932380Y-281559047D01*
X349075238Y-281654285D01*
X349170476Y-281749523D01*
X349218095Y-281844761D01*
X383913142Y-330144380D02*
X383579809Y-329668190D01*
X383341714Y-330144380D02*
X383341714Y-329144380D01*
X383722666Y-329144380D01*
X383817904Y-329192000D01*
X383865523Y-329239619D01*
X383913142Y-329334857D01*
X383913142Y-329477714D01*
X383865523Y-329572952D01*
X383817904Y-329620571D01*
X383722666Y-329668190D01*
X383341714Y-329668190D01*
X384294095Y-329239619D02*
X384341714Y-329192000D01*
X384436952Y-329144380D01*
X384675047Y-329144380D01*
X384770285Y-329192000D01*
X384817904Y-329239619D01*
X384865523Y-329334857D01*
X384865523Y-329430095D01*
X384817904Y-329572952D01*
X384246476Y-330144380D01*
X384865523Y-330144380D01*
X385246476Y-329239619D02*
X385294095Y-329192000D01*
X385389333Y-329144380D01*
X385627428Y-329144380D01*
X385722666Y-329192000D01*
X385770285Y-329239619D01*
X385817904Y-329334857D01*
X385817904Y-329430095D01*
X385770285Y-329572952D01*
X385198857Y-330144380D01*
X385817904Y-330144380D01*
X387992952Y-331414380D02*
X387421523Y-331414380D01*
X387707238Y-331414380D02*
X387707238Y-330414380D01*
X387612000Y-330557238D01*
X387516761Y-330652476D01*
X387421523Y-330700095D01*
X388421523Y-331414380D02*
X388421523Y-330414380D01*
X388516761Y-331033428D02*
X388802476Y-331414380D01*
X388802476Y-330747714D02*
X388421523Y-331128666D01*
X345162380Y-323132380D02*
X345352857Y-323132380D01*
X345448095Y-323180000D01*
X345543333Y-323275238D01*
X345590952Y-323465714D01*
X345590952Y-323799047D01*
X345543333Y-323989523D01*
X345448095Y-324084761D01*
X345352857Y-324132380D01*
X345162380Y-324132380D01*
X345067142Y-324084761D01*
X344971904Y-323989523D01*
X344924285Y-323799047D01*
X344924285Y-323465714D01*
X344971904Y-323275238D01*
X345067142Y-323180000D01*
X345162380Y-323132380D01*
X345971904Y-324084761D02*
X346114761Y-324132380D01*
X346352857Y-324132380D01*
X346448095Y-324084761D01*
X346495714Y-324037142D01*
X346543333Y-323941904D01*
X346543333Y-323846666D01*
X346495714Y-323751428D01*
X346448095Y-323703809D01*
X346352857Y-323656190D01*
X346162380Y-323608571D01*
X346067142Y-323560952D01*
X346019523Y-323513333D01*
X345971904Y-323418095D01*
X345971904Y-323322857D01*
X346019523Y-323227619D01*
X346067142Y-323180000D01*
X346162380Y-323132380D01*
X346400476Y-323132380D01*
X346543333Y-323180000D01*
X347543333Y-324037142D02*
X347495714Y-324084761D01*
X347352857Y-324132380D01*
X347257619Y-324132380D01*
X347114761Y-324084761D01*
X347019523Y-323989523D01*
X346971904Y-323894285D01*
X346924285Y-323703809D01*
X346924285Y-323560952D01*
X346971904Y-323370476D01*
X347019523Y-323275238D01*
X347114761Y-323180000D01*
X347257619Y-323132380D01*
X347352857Y-323132380D01*
X347495714Y-323180000D01*
X347543333Y-323227619D01*
X348495714Y-324132380D02*
X347924285Y-324132380D01*
X348210000Y-324132380D02*
X348210000Y-323132380D01*
X348114761Y-323275238D01*
X348019523Y-323370476D01*
X347924285Y-323418095D01*
X278757142Y-298732380D02*
X278423809Y-298256190D01*
X278185714Y-298732380D02*
X278185714Y-297732380D01*
X278566666Y-297732380D01*
X278661904Y-297780000D01*
X278709523Y-297827619D01*
X278757142Y-297922857D01*
X278757142Y-298065714D01*
X278709523Y-298160952D01*
X278661904Y-298208571D01*
X278566666Y-298256190D01*
X278185714Y-298256190D01*
X279138095Y-297827619D02*
X279185714Y-297780000D01*
X279280952Y-297732380D01*
X279519047Y-297732380D01*
X279614285Y-297780000D01*
X279661904Y-297827619D01*
X279709523Y-297922857D01*
X279709523Y-298018095D01*
X279661904Y-298160952D01*
X279090476Y-298732380D01*
X279709523Y-298732380D01*
X280566666Y-298065714D02*
X280566666Y-298732380D01*
X280328571Y-297684761D02*
X280090476Y-298399047D01*
X280709523Y-298399047D01*
X278138095Y-293325714D02*
X278138095Y-293992380D01*
X277900000Y-292944761D02*
X277661904Y-293659047D01*
X278280952Y-293659047D01*
X278566666Y-292992380D02*
X279233333Y-292992380D01*
X278804761Y-293992380D01*
X279614285Y-293992380D02*
X279614285Y-292992380D01*
X279709523Y-293611428D02*
X279995238Y-293992380D01*
X279995238Y-293325714D02*
X279614285Y-293706666D01*
X280376190Y-293992380D02*
X280614285Y-293992380D01*
X280614285Y-293801904D01*
X280519047Y-293754285D01*
X280423809Y-293659047D01*
X280376190Y-293516190D01*
X280376190Y-293278095D01*
X280423809Y-293135238D01*
X280519047Y-293040000D01*
X280661904Y-292992380D01*
X280852380Y-292992380D01*
X280995238Y-293040000D01*
X281090476Y-293135238D01*
X281138095Y-293278095D01*
X281138095Y-293516190D01*
X281090476Y-293659047D01*
X280995238Y-293754285D01*
X280900000Y-293801904D01*
X280900000Y-293992380D01*
X281138095Y-293992380D01*
X278757142Y-292382380D02*
X278423809Y-291906190D01*
X278185714Y-292382380D02*
X278185714Y-291382380D01*
X278566666Y-291382380D01*
X278661904Y-291430000D01*
X278709523Y-291477619D01*
X278757142Y-291572857D01*
X278757142Y-291715714D01*
X278709523Y-291810952D01*
X278661904Y-291858571D01*
X278566666Y-291906190D01*
X278185714Y-291906190D01*
X279138095Y-291477619D02*
X279185714Y-291430000D01*
X279280952Y-291382380D01*
X279519047Y-291382380D01*
X279614285Y-291430000D01*
X279661904Y-291477619D01*
X279709523Y-291572857D01*
X279709523Y-291668095D01*
X279661904Y-291810952D01*
X279090476Y-292382380D01*
X279709523Y-292382380D01*
X280042857Y-291382380D02*
X280661904Y-291382380D01*
X280328571Y-291763333D01*
X280471428Y-291763333D01*
X280566666Y-291810952D01*
X280614285Y-291858571D01*
X280661904Y-291953809D01*
X280661904Y-292191904D01*
X280614285Y-292287142D01*
X280566666Y-292334761D01*
X280471428Y-292382380D01*
X280185714Y-292382380D01*
X280090476Y-292334761D01*
X280042857Y-292287142D01*
X278709523Y-287642380D02*
X278138095Y-287642380D01*
X278423809Y-287642380D02*
X278423809Y-286642380D01*
X278328571Y-286785238D01*
X278233333Y-286880476D01*
X278138095Y-286928095D01*
X279138095Y-287642380D02*
X279138095Y-286642380D01*
X279233333Y-287261428D02*
X279519047Y-287642380D01*
X279519047Y-286975714D02*
X279138095Y-287356666D01*
X279900000Y-287642380D02*
X280138095Y-287642380D01*
X280138095Y-287451904D01*
X280042857Y-287404285D01*
X279947619Y-287309047D01*
X279900000Y-287166190D01*
X279900000Y-286928095D01*
X279947619Y-286785238D01*
X280042857Y-286690000D01*
X280185714Y-286642380D01*
X280376190Y-286642380D01*
X280519047Y-286690000D01*
X280614285Y-286785238D01*
X280661904Y-286928095D01*
X280661904Y-287166190D01*
X280614285Y-287309047D01*
X280519047Y-287404285D01*
X280423809Y-287451904D01*
X280423809Y-287642380D01*
X280661904Y-287642380D01*
X279193333Y-309307142D02*
X279145714Y-309354761D01*
X279002857Y-309402380D01*
X278907619Y-309402380D01*
X278764761Y-309354761D01*
X278669523Y-309259523D01*
X278621904Y-309164285D01*
X278574285Y-308973809D01*
X278574285Y-308830952D01*
X278621904Y-308640476D01*
X278669523Y-308545238D01*
X278764761Y-308450000D01*
X278907619Y-308402380D01*
X279002857Y-308402380D01*
X279145714Y-308450000D01*
X279193333Y-308497619D01*
X279526666Y-308402380D02*
X280193333Y-308402380D01*
X279764761Y-309402380D01*
X278288571Y-313802380D02*
X277717142Y-313802380D01*
X278002857Y-313802380D02*
X278002857Y-312802380D01*
X277907619Y-312945238D01*
X277812380Y-313040476D01*
X277717142Y-313088095D01*
X278907619Y-312802380D02*
X279002857Y-312802380D01*
X279098095Y-312850000D01*
X279145714Y-312897619D01*
X279193333Y-312992857D01*
X279240952Y-313183333D01*
X279240952Y-313421428D01*
X279193333Y-313611904D01*
X279145714Y-313707142D01*
X279098095Y-313754761D01*
X279002857Y-313802380D01*
X278907619Y-313802380D01*
X278812380Y-313754761D01*
X278764761Y-313707142D01*
X278717142Y-313611904D01*
X278669523Y-313421428D01*
X278669523Y-313183333D01*
X278717142Y-312992857D01*
X278764761Y-312897619D01*
X278812380Y-312850000D01*
X278907619Y-312802380D01*
X279669523Y-313135714D02*
X279669523Y-313802380D01*
X279669523Y-313230952D02*
X279717142Y-313183333D01*
X279812380Y-313135714D01*
X279955238Y-313135714D01*
X280050476Y-313183333D01*
X280098095Y-313278571D01*
X280098095Y-313802380D01*
X280907619Y-313278571D02*
X280574285Y-313278571D01*
X280574285Y-313802380D02*
X280574285Y-312802380D01*
X281050476Y-312802380D01*
X278963333Y-300137142D02*
X278915714Y-300184761D01*
X278772857Y-300232380D01*
X278677619Y-300232380D01*
X278534761Y-300184761D01*
X278439523Y-300089523D01*
X278391904Y-299994285D01*
X278344285Y-299803809D01*
X278344285Y-299660952D01*
X278391904Y-299470476D01*
X278439523Y-299375238D01*
X278534761Y-299280000D01*
X278677619Y-299232380D01*
X278772857Y-299232380D01*
X278915714Y-299280000D01*
X278963333Y-299327619D01*
X279534761Y-299660952D02*
X279439523Y-299613333D01*
X279391904Y-299565714D01*
X279344285Y-299470476D01*
X279344285Y-299422857D01*
X279391904Y-299327619D01*
X279439523Y-299280000D01*
X279534761Y-299232380D01*
X279725238Y-299232380D01*
X279820476Y-299280000D01*
X279868095Y-299327619D01*
X279915714Y-299422857D01*
X279915714Y-299470476D01*
X279868095Y-299565714D01*
X279820476Y-299613333D01*
X279725238Y-299660952D01*
X279534761Y-299660952D01*
X279439523Y-299708571D01*
X279391904Y-299756190D01*
X279344285Y-299851428D01*
X279344285Y-300041904D01*
X279391904Y-300137142D01*
X279439523Y-300184761D01*
X279534761Y-300232380D01*
X279725238Y-300232380D01*
X279820476Y-300184761D01*
X279868095Y-300137142D01*
X279915714Y-300041904D01*
X279915714Y-299851428D01*
X279868095Y-299756190D01*
X279820476Y-299708571D01*
X279725238Y-299660952D01*
X277987142Y-307732380D02*
X277415714Y-307732380D01*
X277701428Y-307732380D02*
X277701428Y-306732380D01*
X277606190Y-306875238D01*
X277510952Y-306970476D01*
X277415714Y-307018095D01*
X278606190Y-306732380D02*
X278701428Y-306732380D01*
X278796666Y-306780000D01*
X278844285Y-306827619D01*
X278891904Y-306922857D01*
X278939523Y-307113333D01*
X278939523Y-307351428D01*
X278891904Y-307541904D01*
X278844285Y-307637142D01*
X278796666Y-307684761D01*
X278701428Y-307732380D01*
X278606190Y-307732380D01*
X278510952Y-307684761D01*
X278463333Y-307637142D01*
X278415714Y-307541904D01*
X278368095Y-307351428D01*
X278368095Y-307113333D01*
X278415714Y-306922857D01*
X278463333Y-306827619D01*
X278510952Y-306780000D01*
X278606190Y-306732380D01*
X279368095Y-307065714D02*
X279368095Y-308065714D01*
X279844285Y-307589523D02*
X279891904Y-307684761D01*
X279987142Y-307732380D01*
X279368095Y-307589523D02*
X279415714Y-307684761D01*
X279510952Y-307732380D01*
X279701428Y-307732380D01*
X279796666Y-307684761D01*
X279844285Y-307589523D01*
X279844285Y-307065714D01*
X280749047Y-307208571D02*
X280415714Y-307208571D01*
X280415714Y-307732380D02*
X280415714Y-306732380D01*
X280891904Y-306732380D01*
X303561904Y-293032380D02*
X303561904Y-293841904D01*
X303609523Y-293937142D01*
X303657142Y-293984761D01*
X303752380Y-294032380D01*
X303942857Y-294032380D01*
X304038095Y-293984761D01*
X304085714Y-293937142D01*
X304133333Y-293841904D01*
X304133333Y-293032380D01*
X305133333Y-294032380D02*
X304561904Y-294032380D01*
X304847619Y-294032380D02*
X304847619Y-293032380D01*
X304752380Y-293175238D01*
X304657142Y-293270476D01*
X304561904Y-293318095D01*
X305752380Y-293032380D02*
X305847619Y-293032380D01*
X305942857Y-293080000D01*
X305990476Y-293127619D01*
X306038095Y-293222857D01*
X306085714Y-293413333D01*
X306085714Y-293651428D01*
X306038095Y-293841904D01*
X305990476Y-293937142D01*
X305942857Y-293984761D01*
X305847619Y-294032380D01*
X305752380Y-294032380D01*
X305657142Y-293984761D01*
X305609523Y-293937142D01*
X305561904Y-293841904D01*
X305514285Y-293651428D01*
X305514285Y-293413333D01*
X305561904Y-293222857D01*
X305609523Y-293127619D01*
X305657142Y-293080000D01*
X305752380Y-293032380D01*
X301157142Y-312932380D02*
X301823809Y-312932380D01*
X301395238Y-313932380D01*
X302633333Y-313265714D02*
X302633333Y-313932380D01*
X302395238Y-312884761D02*
X302157142Y-313599047D01*
X302776190Y-313599047D01*
X303157142Y-313932380D02*
X303157142Y-312932380D01*
X303157142Y-313408571D02*
X303728571Y-313408571D01*
X303728571Y-313932380D02*
X303728571Y-312932380D01*
X304776190Y-313837142D02*
X304728571Y-313884761D01*
X304585714Y-313932380D01*
X304490476Y-313932380D01*
X304347619Y-313884761D01*
X304252380Y-313789523D01*
X304204761Y-313694285D01*
X304157142Y-313503809D01*
X304157142Y-313360952D01*
X304204761Y-313170476D01*
X304252380Y-313075238D01*
X304347619Y-312980000D01*
X304490476Y-312932380D01*
X304585714Y-312932380D01*
X304728571Y-312980000D01*
X304776190Y-313027619D01*
X305061904Y-312932380D02*
X305633333Y-312932380D01*
X305347619Y-313932380D02*
X305347619Y-312932380D01*
X305871428Y-312932380D02*
X306490476Y-312932380D01*
X306157142Y-313313333D01*
X306300000Y-313313333D01*
X306395238Y-313360952D01*
X306442857Y-313408571D01*
X306490476Y-313503809D01*
X306490476Y-313741904D01*
X306442857Y-313837142D01*
X306395238Y-313884761D01*
X306300000Y-313932380D01*
X306014285Y-313932380D01*
X305919047Y-313884761D01*
X305871428Y-313837142D01*
X306966666Y-313932380D02*
X307157142Y-313932380D01*
X307252380Y-313884761D01*
X307300000Y-313837142D01*
X307395238Y-313694285D01*
X307442857Y-313503809D01*
X307442857Y-313122857D01*
X307395238Y-313027619D01*
X307347619Y-312980000D01*
X307252380Y-312932380D01*
X307061904Y-312932380D01*
X306966666Y-312980000D01*
X306919047Y-313027619D01*
X306871428Y-313122857D01*
X306871428Y-313360952D01*
X306919047Y-313456190D01*
X306966666Y-313503809D01*
X307061904Y-313551428D01*
X307252380Y-313551428D01*
X307347619Y-313503809D01*
X307395238Y-313456190D01*
X307442857Y-313360952D01*
X307776190Y-312932380D02*
X308395238Y-312932380D01*
X308061904Y-313313333D01*
X308204761Y-313313333D01*
X308300000Y-313360952D01*
X308347619Y-313408571D01*
X308395238Y-313503809D01*
X308395238Y-313741904D01*
X308347619Y-313837142D01*
X308300000Y-313884761D01*
X308204761Y-313932380D01*
X307919047Y-313932380D01*
X307823809Y-313884761D01*
X307776190Y-313837142D01*
X316738095Y-293032380D02*
X316738095Y-293841904D01*
X316785714Y-293937142D01*
X316833333Y-293984761D01*
X316928571Y-294032380D01*
X317119047Y-294032380D01*
X317214285Y-293984761D01*
X317261904Y-293937142D01*
X317309523Y-293841904D01*
X317309523Y-293032380D01*
X317833333Y-294032380D02*
X318023809Y-294032380D01*
X318119047Y-293984761D01*
X318166666Y-293937142D01*
X318261904Y-293794285D01*
X318309523Y-293603809D01*
X318309523Y-293222857D01*
X318261904Y-293127619D01*
X318214285Y-293080000D01*
X318119047Y-293032380D01*
X317928571Y-293032380D01*
X317833333Y-293080000D01*
X317785714Y-293127619D01*
X317738095Y-293222857D01*
X317738095Y-293460952D01*
X317785714Y-293556190D01*
X317833333Y-293603809D01*
X317928571Y-293651428D01*
X318119047Y-293651428D01*
X318214285Y-293603809D01*
X318261904Y-293556190D01*
X318309523Y-293460952D01*
X313857142Y-312932380D02*
X314523809Y-312932380D01*
X314095238Y-313932380D01*
X315333333Y-313265714D02*
X315333333Y-313932380D01*
X315095238Y-312884761D02*
X314857142Y-313599047D01*
X315476190Y-313599047D01*
X315857142Y-313932380D02*
X315857142Y-312932380D01*
X315857142Y-313408571D02*
X316428571Y-313408571D01*
X316428571Y-313932380D02*
X316428571Y-312932380D01*
X317476190Y-313837142D02*
X317428571Y-313884761D01*
X317285714Y-313932380D01*
X317190476Y-313932380D01*
X317047619Y-313884761D01*
X316952380Y-313789523D01*
X316904761Y-313694285D01*
X316857142Y-313503809D01*
X316857142Y-313360952D01*
X316904761Y-313170476D01*
X316952380Y-313075238D01*
X317047619Y-312980000D01*
X317190476Y-312932380D01*
X317285714Y-312932380D01*
X317428571Y-312980000D01*
X317476190Y-313027619D01*
X317761904Y-312932380D02*
X318333333Y-312932380D01*
X318047619Y-313932380D02*
X318047619Y-312932380D01*
X318571428Y-312932380D02*
X319190476Y-312932380D01*
X318857142Y-313313333D01*
X319000000Y-313313333D01*
X319095238Y-313360952D01*
X319142857Y-313408571D01*
X319190476Y-313503809D01*
X319190476Y-313741904D01*
X319142857Y-313837142D01*
X319095238Y-313884761D01*
X319000000Y-313932380D01*
X318714285Y-313932380D01*
X318619047Y-313884761D01*
X318571428Y-313837142D01*
X319666666Y-313932380D02*
X319857142Y-313932380D01*
X319952380Y-313884761D01*
X320000000Y-313837142D01*
X320095238Y-313694285D01*
X320142857Y-313503809D01*
X320142857Y-313122857D01*
X320095238Y-313027619D01*
X320047619Y-312980000D01*
X319952380Y-312932380D01*
X319761904Y-312932380D01*
X319666666Y-312980000D01*
X319619047Y-313027619D01*
X319571428Y-313122857D01*
X319571428Y-313360952D01*
X319619047Y-313456190D01*
X319666666Y-313503809D01*
X319761904Y-313551428D01*
X319952380Y-313551428D01*
X320047619Y-313503809D01*
X320095238Y-313456190D01*
X320142857Y-313360952D01*
X320476190Y-312932380D02*
X321095238Y-312932380D01*
X320761904Y-313313333D01*
X320904761Y-313313333D01*
X321000000Y-313360952D01*
X321047619Y-313408571D01*
X321095238Y-313503809D01*
X321095238Y-313741904D01*
X321047619Y-313837142D01*
X321000000Y-313884761D01*
X320904761Y-313932380D01*
X320619047Y-313932380D01*
X320523809Y-313884761D01*
X320476190Y-313837142D01*
X291338095Y-293032380D02*
X291338095Y-293841904D01*
X291385714Y-293937142D01*
X291433333Y-293984761D01*
X291528571Y-294032380D01*
X291719047Y-294032380D01*
X291814285Y-293984761D01*
X291861904Y-293937142D01*
X291909523Y-293841904D01*
X291909523Y-293032380D01*
X292528571Y-293460952D02*
X292433333Y-293413333D01*
X292385714Y-293365714D01*
X292338095Y-293270476D01*
X292338095Y-293222857D01*
X292385714Y-293127619D01*
X292433333Y-293080000D01*
X292528571Y-293032380D01*
X292719047Y-293032380D01*
X292814285Y-293080000D01*
X292861904Y-293127619D01*
X292909523Y-293222857D01*
X292909523Y-293270476D01*
X292861904Y-293365714D01*
X292814285Y-293413333D01*
X292719047Y-293460952D01*
X292528571Y-293460952D01*
X292433333Y-293508571D01*
X292385714Y-293556190D01*
X292338095Y-293651428D01*
X292338095Y-293841904D01*
X292385714Y-293937142D01*
X292433333Y-293984761D01*
X292528571Y-294032380D01*
X292719047Y-294032380D01*
X292814285Y-293984761D01*
X292861904Y-293937142D01*
X292909523Y-293841904D01*
X292909523Y-293651428D01*
X292861904Y-293556190D01*
X292814285Y-293508571D01*
X292719047Y-293460952D01*
X288980952Y-315472380D02*
X289647619Y-315472380D01*
X289219047Y-316472380D01*
X290457142Y-315805714D02*
X290457142Y-316472380D01*
X290219047Y-315424761D02*
X289980952Y-316139047D01*
X290600000Y-316139047D01*
X291457142Y-316472380D02*
X290980952Y-316472380D01*
X290980952Y-315472380D01*
X291742857Y-316424761D02*
X291885714Y-316472380D01*
X292123809Y-316472380D01*
X292219047Y-316424761D01*
X292266666Y-316377142D01*
X292314285Y-316281904D01*
X292314285Y-316186666D01*
X292266666Y-316091428D01*
X292219047Y-316043809D01*
X292123809Y-315996190D01*
X291933333Y-315948571D01*
X291838095Y-315900952D01*
X291790476Y-315853333D01*
X291742857Y-315758095D01*
X291742857Y-315662857D01*
X291790476Y-315567619D01*
X291838095Y-315520000D01*
X291933333Y-315472380D01*
X292171428Y-315472380D01*
X292314285Y-315520000D01*
X293266666Y-316472380D02*
X292695238Y-316472380D01*
X292980952Y-316472380D02*
X292980952Y-315472380D01*
X292885714Y-315615238D01*
X292790476Y-315710476D01*
X292695238Y-315758095D01*
X294171428Y-315472380D02*
X293695238Y-315472380D01*
X293647619Y-315948571D01*
X293695238Y-315900952D01*
X293790476Y-315853333D01*
X294028571Y-315853333D01*
X294123809Y-315900952D01*
X294171428Y-315948571D01*
X294219047Y-316043809D01*
X294219047Y-316281904D01*
X294171428Y-316377142D01*
X294123809Y-316424761D01*
X294028571Y-316472380D01*
X293790476Y-316472380D01*
X293695238Y-316424761D01*
X293647619Y-316377142D01*
X295171428Y-316472380D02*
X294600000Y-316472380D01*
X294885714Y-316472380D02*
X294885714Y-315472380D01*
X294790476Y-315615238D01*
X294695238Y-315710476D01*
X294600000Y-315758095D01*
X329438095Y-293032380D02*
X329438095Y-293841904D01*
X329485714Y-293937142D01*
X329533333Y-293984761D01*
X329628571Y-294032380D01*
X329819047Y-294032380D01*
X329914285Y-293984761D01*
X329961904Y-293937142D01*
X330009523Y-293841904D01*
X330009523Y-293032380D01*
X330390476Y-293032380D02*
X331057142Y-293032380D01*
X330628571Y-294032380D01*
X326557142Y-312932380D02*
X327223809Y-312932380D01*
X326795238Y-313932380D01*
X328033333Y-313265714D02*
X328033333Y-313932380D01*
X327795238Y-312884761D02*
X327557142Y-313599047D01*
X328176190Y-313599047D01*
X328557142Y-313932380D02*
X328557142Y-312932380D01*
X328557142Y-313408571D02*
X329128571Y-313408571D01*
X329128571Y-313932380D02*
X329128571Y-312932380D01*
X330176190Y-313837142D02*
X330128571Y-313884761D01*
X329985714Y-313932380D01*
X329890476Y-313932380D01*
X329747619Y-313884761D01*
X329652380Y-313789523D01*
X329604761Y-313694285D01*
X329557142Y-313503809D01*
X329557142Y-313360952D01*
X329604761Y-313170476D01*
X329652380Y-313075238D01*
X329747619Y-312980000D01*
X329890476Y-312932380D01*
X329985714Y-312932380D01*
X330128571Y-312980000D01*
X330176190Y-313027619D01*
X330461904Y-312932380D02*
X331033333Y-312932380D01*
X330747619Y-313932380D02*
X330747619Y-312932380D01*
X331271428Y-312932380D02*
X331890476Y-312932380D01*
X331557142Y-313313333D01*
X331700000Y-313313333D01*
X331795238Y-313360952D01*
X331842857Y-313408571D01*
X331890476Y-313503809D01*
X331890476Y-313741904D01*
X331842857Y-313837142D01*
X331795238Y-313884761D01*
X331700000Y-313932380D01*
X331414285Y-313932380D01*
X331319047Y-313884761D01*
X331271428Y-313837142D01*
X332366666Y-313932380D02*
X332557142Y-313932380D01*
X332652380Y-313884761D01*
X332700000Y-313837142D01*
X332795238Y-313694285D01*
X332842857Y-313503809D01*
X332842857Y-313122857D01*
X332795238Y-313027619D01*
X332747619Y-312980000D01*
X332652380Y-312932380D01*
X332461904Y-312932380D01*
X332366666Y-312980000D01*
X332319047Y-313027619D01*
X332271428Y-313122857D01*
X332271428Y-313360952D01*
X332319047Y-313456190D01*
X332366666Y-313503809D01*
X332461904Y-313551428D01*
X332652380Y-313551428D01*
X332747619Y-313503809D01*
X332795238Y-313456190D01*
X332842857Y-313360952D01*
X333176190Y-312932380D02*
X333795238Y-312932380D01*
X333461904Y-313313333D01*
X333604761Y-313313333D01*
X333700000Y-313360952D01*
X333747619Y-313408571D01*
X333795238Y-313503809D01*
X333795238Y-313741904D01*
X333747619Y-313837142D01*
X333700000Y-313884761D01*
X333604761Y-313932380D01*
X333319047Y-313932380D01*
X333223809Y-313884761D01*
X333176190Y-313837142D01*
X267208095Y-293032380D02*
X267208095Y-293841904D01*
X267255714Y-293937142D01*
X267303333Y-293984761D01*
X267398571Y-294032380D01*
X267589047Y-294032380D01*
X267684285Y-293984761D01*
X267731904Y-293937142D01*
X267779523Y-293841904D01*
X267779523Y-293032380D01*
X268684285Y-293032380D02*
X268493809Y-293032380D01*
X268398571Y-293080000D01*
X268350952Y-293127619D01*
X268255714Y-293270476D01*
X268208095Y-293460952D01*
X268208095Y-293841904D01*
X268255714Y-293937142D01*
X268303333Y-293984761D01*
X268398571Y-294032380D01*
X268589047Y-294032380D01*
X268684285Y-293984761D01*
X268731904Y-293937142D01*
X268779523Y-293841904D01*
X268779523Y-293603809D01*
X268731904Y-293508571D01*
X268684285Y-293460952D01*
X268589047Y-293413333D01*
X268398571Y-293413333D01*
X268303333Y-293460952D01*
X268255714Y-293508571D01*
X268208095Y-293603809D01*
X266279523Y-306312380D02*
X265803333Y-306312380D01*
X265803333Y-305312380D01*
X266612857Y-306312380D02*
X266612857Y-305312380D01*
X266946190Y-306026666D01*
X267279523Y-305312380D01*
X267279523Y-306312380D01*
X268231904Y-305312380D02*
X267755714Y-305312380D01*
X267708095Y-305788571D01*
X267755714Y-305740952D01*
X267850952Y-305693333D01*
X268089047Y-305693333D01*
X268184285Y-305740952D01*
X268231904Y-305788571D01*
X268279523Y-305883809D01*
X268279523Y-306121904D01*
X268231904Y-306217142D01*
X268184285Y-306264761D01*
X268089047Y-306312380D01*
X267850952Y-306312380D01*
X267755714Y-306264761D01*
X267708095Y-306217142D01*
X269184285Y-305312380D02*
X268708095Y-305312380D01*
X268660476Y-305788571D01*
X268708095Y-305740952D01*
X268803333Y-305693333D01*
X269041428Y-305693333D01*
X269136666Y-305740952D01*
X269184285Y-305788571D01*
X269231904Y-305883809D01*
X269231904Y-306121904D01*
X269184285Y-306217142D01*
X269136666Y-306264761D01*
X269041428Y-306312380D01*
X268803333Y-306312380D01*
X268708095Y-306264761D01*
X268660476Y-306217142D01*
X270136666Y-305312380D02*
X269660476Y-305312380D01*
X269612857Y-305788571D01*
X269660476Y-305740952D01*
X269755714Y-305693333D01*
X269993809Y-305693333D01*
X270089047Y-305740952D01*
X270136666Y-305788571D01*
X270184285Y-305883809D01*
X270184285Y-306121904D01*
X270136666Y-306217142D01*
X270089047Y-306264761D01*
X269993809Y-306312380D01*
X269755714Y-306312380D01*
X269660476Y-306264761D01*
X269612857Y-306217142D01*
X354838095Y-331132380D02*
X354838095Y-331941904D01*
X354885714Y-332037142D01*
X354933333Y-332084761D01*
X355028571Y-332132380D01*
X355219047Y-332132380D01*
X355314285Y-332084761D01*
X355361904Y-332037142D01*
X355409523Y-331941904D01*
X355409523Y-331132380D01*
X356314285Y-331465714D02*
X356314285Y-332132380D01*
X356076190Y-331084761D02*
X355838095Y-331799047D01*
X356457142Y-331799047D01*
X353909523Y-344412380D02*
X353433333Y-344412380D01*
X353433333Y-343412380D01*
X354242857Y-344412380D02*
X354242857Y-343412380D01*
X354576190Y-344126666D01*
X354909523Y-343412380D01*
X354909523Y-344412380D01*
X355290476Y-343412380D02*
X355909523Y-343412380D01*
X355576190Y-343793333D01*
X355719047Y-343793333D01*
X355814285Y-343840952D01*
X355861904Y-343888571D01*
X355909523Y-343983809D01*
X355909523Y-344221904D01*
X355861904Y-344317142D01*
X355814285Y-344364761D01*
X355719047Y-344412380D01*
X355433333Y-344412380D01*
X355338095Y-344364761D01*
X355290476Y-344317142D01*
X356385714Y-344412380D02*
X356576190Y-344412380D01*
X356671428Y-344364761D01*
X356719047Y-344317142D01*
X356814285Y-344174285D01*
X356861904Y-343983809D01*
X356861904Y-343602857D01*
X356814285Y-343507619D01*
X356766666Y-343460000D01*
X356671428Y-343412380D01*
X356480952Y-343412380D01*
X356385714Y-343460000D01*
X356338095Y-343507619D01*
X356290476Y-343602857D01*
X356290476Y-343840952D01*
X356338095Y-343936190D01*
X356385714Y-343983809D01*
X356480952Y-344031428D01*
X356671428Y-344031428D01*
X356766666Y-343983809D01*
X356814285Y-343936190D01*
X356861904Y-343840952D01*
X357195238Y-343412380D02*
X357814285Y-343412380D01*
X357480952Y-343793333D01*
X357623809Y-343793333D01*
X357719047Y-343840952D01*
X357766666Y-343888571D01*
X357814285Y-343983809D01*
X357814285Y-344221904D01*
X357766666Y-344317142D01*
X357719047Y-344364761D01*
X357623809Y-344412380D01*
X357338095Y-344412380D01*
X357242857Y-344364761D01*
X357195238Y-344317142D01*
X391668580Y-297940104D02*
X392478104Y-297940104D01*
X392573342Y-297892485D01*
X392620961Y-297844866D01*
X392668580Y-297749628D01*
X392668580Y-297559152D01*
X392620961Y-297463914D01*
X392573342Y-297416295D01*
X392478104Y-297368676D01*
X391668580Y-297368676D01*
X391668580Y-296987723D02*
X391668580Y-296368676D01*
X392049533Y-296702009D01*
X392049533Y-296559152D01*
X392097152Y-296463914D01*
X392144771Y-296416295D01*
X392240009Y-296368676D01*
X392478104Y-296368676D01*
X392573342Y-296416295D01*
X392620961Y-296463914D01*
X392668580Y-296559152D01*
X392668580Y-296844866D01*
X392620961Y-296940104D01*
X392573342Y-296987723D01*
X348956200Y-301082961D02*
X348908580Y-301178200D01*
X348908580Y-301321057D01*
X348956200Y-301463914D01*
X349051438Y-301559152D01*
X349146676Y-301606771D01*
X349337152Y-301654390D01*
X349480009Y-301654390D01*
X349670485Y-301606771D01*
X349765723Y-301559152D01*
X349860961Y-301463914D01*
X349908580Y-301321057D01*
X349908580Y-301225819D01*
X349860961Y-301082961D01*
X349813342Y-301035342D01*
X349480009Y-301035342D01*
X349480009Y-301225819D01*
X349908580Y-300130580D02*
X349908580Y-300606771D01*
X348908580Y-300606771D01*
X349860961Y-299844866D02*
X349908580Y-299702009D01*
X349908580Y-299463914D01*
X349860961Y-299368676D01*
X349813342Y-299321057D01*
X349718104Y-299273438D01*
X349622866Y-299273438D01*
X349527628Y-299321057D01*
X349480009Y-299368676D01*
X349432390Y-299463914D01*
X349384771Y-299654390D01*
X349337152Y-299749628D01*
X349289533Y-299797247D01*
X349194295Y-299844866D01*
X349099057Y-299844866D01*
X349003819Y-299797247D01*
X348956200Y-299749628D01*
X348908580Y-299654390D01*
X348908580Y-299416295D01*
X348956200Y-299273438D01*
X349003819Y-298892485D02*
X348956200Y-298844866D01*
X348908580Y-298749628D01*
X348908580Y-298511533D01*
X348956200Y-298416295D01*
X349003819Y-298368676D01*
X349099057Y-298321057D01*
X349194295Y-298321057D01*
X349337152Y-298368676D01*
X349908580Y-298940104D01*
X349908580Y-298321057D01*
X349908580Y-297844866D02*
X349908580Y-297654390D01*
X349860961Y-297559152D01*
X349813342Y-297511533D01*
X349670485Y-297416295D01*
X349480009Y-297368676D01*
X349099057Y-297368676D01*
X349003819Y-297416295D01*
X348956200Y-297463914D01*
X348908580Y-297559152D01*
X348908580Y-297749628D01*
X348956200Y-297844866D01*
X349003819Y-297892485D01*
X349099057Y-297940104D01*
X349337152Y-297940104D01*
X349432390Y-297892485D01*
X349480009Y-297844866D01*
X349527628Y-297749628D01*
X349527628Y-297559152D01*
X349480009Y-297463914D01*
X349432390Y-297416295D01*
X349337152Y-297368676D01*
X349384771Y-296940104D02*
X349384771Y-296606771D01*
X349908580Y-296463914D02*
X349908580Y-296940104D01*
X348908580Y-296940104D01*
X348908580Y-296463914D01*
X349384771Y-296035342D02*
X349384771Y-295702009D01*
X349908580Y-295559152D02*
X349908580Y-296035342D01*
X348908580Y-296035342D01*
X348908580Y-295559152D01*
X348908580Y-294940104D02*
X348908580Y-294844866D01*
X348956200Y-294749628D01*
X349003819Y-294702009D01*
X349099057Y-294654390D01*
X349289533Y-294606771D01*
X349527628Y-294606771D01*
X349718104Y-294654390D01*
X349813342Y-294702009D01*
X349860961Y-294749628D01*
X349908580Y-294844866D01*
X349908580Y-294940104D01*
X349860961Y-295035342D01*
X349813342Y-295082961D01*
X349718104Y-295130580D01*
X349527628Y-295178200D01*
X349289533Y-295178200D01*
X349099057Y-295130580D01*
X349003819Y-295082961D01*
X348956200Y-295035342D01*
X348908580Y-294940104D01*
X349908580Y-293654390D02*
X349908580Y-294225819D01*
X349908580Y-293940104D02*
X348908580Y-293940104D01*
X349051438Y-294035342D01*
X349146676Y-294130580D01*
X349194295Y-294225819D01*
X348908580Y-293035342D02*
X348908580Y-292940104D01*
X348956200Y-292844866D01*
X349003819Y-292797247D01*
X349099057Y-292749628D01*
X349289533Y-292702009D01*
X349527628Y-292702009D01*
X349718104Y-292749628D01*
X349813342Y-292797247D01*
X349860961Y-292844866D01*
X349908580Y-292940104D01*
X349908580Y-293035342D01*
X349860961Y-293130580D01*
X349813342Y-293178200D01*
X349718104Y-293225819D01*
X349527628Y-293273438D01*
X349289533Y-293273438D01*
X349099057Y-293225819D01*
X349003819Y-293178200D01*
X348956200Y-293130580D01*
X348908580Y-293035342D01*
X324358095Y-331132380D02*
X324358095Y-331941904D01*
X324405714Y-332037142D01*
X324453333Y-332084761D01*
X324548571Y-332132380D01*
X324739047Y-332132380D01*
X324834285Y-332084761D01*
X324881904Y-332037142D01*
X324929523Y-331941904D01*
X324929523Y-331132380D01*
X325358095Y-331227619D02*
X325405714Y-331180000D01*
X325500952Y-331132380D01*
X325739047Y-331132380D01*
X325834285Y-331180000D01*
X325881904Y-331227619D01*
X325929523Y-331322857D01*
X325929523Y-331418095D01*
X325881904Y-331560952D01*
X325310476Y-332132380D01*
X325929523Y-332132380D01*
X323429523Y-344412380D02*
X322953333Y-344412380D01*
X322953333Y-343412380D01*
X323762857Y-344412380D02*
X323762857Y-343412380D01*
X324096190Y-344126666D01*
X324429523Y-343412380D01*
X324429523Y-344412380D01*
X324810476Y-343412380D02*
X325429523Y-343412380D01*
X325096190Y-343793333D01*
X325239047Y-343793333D01*
X325334285Y-343840952D01*
X325381904Y-343888571D01*
X325429523Y-343983809D01*
X325429523Y-344221904D01*
X325381904Y-344317142D01*
X325334285Y-344364761D01*
X325239047Y-344412380D01*
X324953333Y-344412380D01*
X324858095Y-344364761D01*
X324810476Y-344317142D01*
X325905714Y-344412380D02*
X326096190Y-344412380D01*
X326191428Y-344364761D01*
X326239047Y-344317142D01*
X326334285Y-344174285D01*
X326381904Y-343983809D01*
X326381904Y-343602857D01*
X326334285Y-343507619D01*
X326286666Y-343460000D01*
X326191428Y-343412380D01*
X326000952Y-343412380D01*
X325905714Y-343460000D01*
X325858095Y-343507619D01*
X325810476Y-343602857D01*
X325810476Y-343840952D01*
X325858095Y-343936190D01*
X325905714Y-343983809D01*
X326000952Y-344031428D01*
X326191428Y-344031428D01*
X326286666Y-343983809D01*
X326334285Y-343936190D01*
X326381904Y-343840952D01*
X326715238Y-343412380D02*
X327334285Y-343412380D01*
X327000952Y-343793333D01*
X327143809Y-343793333D01*
X327239047Y-343840952D01*
X327286666Y-343888571D01*
X327334285Y-343983809D01*
X327334285Y-344221904D01*
X327286666Y-344317142D01*
X327239047Y-344364761D01*
X327143809Y-344412380D01*
X326858095Y-344412380D01*
X326762857Y-344364761D01*
X326715238Y-344317142D01*
X293878095Y-331132380D02*
X293878095Y-331941904D01*
X293925714Y-332037142D01*
X293973333Y-332084761D01*
X294068571Y-332132380D01*
X294259047Y-332132380D01*
X294354285Y-332084761D01*
X294401904Y-332037142D01*
X294449523Y-331941904D01*
X294449523Y-331132380D01*
X295449523Y-332132380D02*
X294878095Y-332132380D01*
X295163809Y-332132380D02*
X295163809Y-331132380D01*
X295068571Y-331275238D01*
X294973333Y-331370476D01*
X294878095Y-331418095D01*
X292949523Y-344412380D02*
X292473333Y-344412380D01*
X292473333Y-343412380D01*
X293282857Y-344412380D02*
X293282857Y-343412380D01*
X293616190Y-344126666D01*
X293949523Y-343412380D01*
X293949523Y-344412380D01*
X294330476Y-343412380D02*
X294949523Y-343412380D01*
X294616190Y-343793333D01*
X294759047Y-343793333D01*
X294854285Y-343840952D01*
X294901904Y-343888571D01*
X294949523Y-343983809D01*
X294949523Y-344221904D01*
X294901904Y-344317142D01*
X294854285Y-344364761D01*
X294759047Y-344412380D01*
X294473333Y-344412380D01*
X294378095Y-344364761D01*
X294330476Y-344317142D01*
X295425714Y-344412380D02*
X295616190Y-344412380D01*
X295711428Y-344364761D01*
X295759047Y-344317142D01*
X295854285Y-344174285D01*
X295901904Y-343983809D01*
X295901904Y-343602857D01*
X295854285Y-343507619D01*
X295806666Y-343460000D01*
X295711428Y-343412380D01*
X295520952Y-343412380D01*
X295425714Y-343460000D01*
X295378095Y-343507619D01*
X295330476Y-343602857D01*
X295330476Y-343840952D01*
X295378095Y-343936190D01*
X295425714Y-343983809D01*
X295520952Y-344031428D01*
X295711428Y-344031428D01*
X295806666Y-343983809D01*
X295854285Y-343936190D01*
X295901904Y-343840952D01*
X296235238Y-343412380D02*
X296854285Y-343412380D01*
X296520952Y-343793333D01*
X296663809Y-343793333D01*
X296759047Y-343840952D01*
X296806666Y-343888571D01*
X296854285Y-343983809D01*
X296854285Y-344221904D01*
X296806666Y-344317142D01*
X296759047Y-344364761D01*
X296663809Y-344412380D01*
X296378095Y-344412380D01*
X296282857Y-344364761D01*
X296235238Y-344317142D01*
X266076666Y-319714761D02*
X266219523Y-319762380D01*
X266457619Y-319762380D01*
X266552857Y-319714761D01*
X266600476Y-319667142D01*
X266648095Y-319571904D01*
X266648095Y-319476666D01*
X266600476Y-319381428D01*
X266552857Y-319333809D01*
X266457619Y-319286190D01*
X266267142Y-319238571D01*
X266171904Y-319190952D01*
X266124285Y-319143333D01*
X266076666Y-319048095D01*
X266076666Y-318952857D01*
X266124285Y-318857619D01*
X266171904Y-318810000D01*
X266267142Y-318762380D01*
X266505238Y-318762380D01*
X266648095Y-318810000D01*
X266981428Y-318762380D02*
X267219523Y-319762380D01*
X267410000Y-319048095D01*
X267600476Y-319762380D01*
X267838571Y-318762380D01*
X268743333Y-319762380D02*
X268171904Y-319762380D01*
X268457619Y-319762380D02*
X268457619Y-318762380D01*
X268362380Y-318905238D01*
X268267142Y-319000476D01*
X268171904Y-319048095D01*
X266457619Y-328414761D02*
X266600476Y-328462380D01*
X266838571Y-328462380D01*
X266933809Y-328414761D01*
X266981428Y-328367142D01*
X267029047Y-328271904D01*
X267029047Y-328176666D01*
X266981428Y-328081428D01*
X266933809Y-328033809D01*
X266838571Y-327986190D01*
X266648095Y-327938571D01*
X266552857Y-327890952D01*
X266505238Y-327843333D01*
X266457619Y-327748095D01*
X266457619Y-327652857D01*
X266505238Y-327557619D01*
X266552857Y-327510000D01*
X266648095Y-327462380D01*
X266886190Y-327462380D01*
X267029047Y-327510000D01*
X267314761Y-327795714D02*
X267695714Y-327795714D01*
X267457619Y-327462380D02*
X267457619Y-328319523D01*
X267505238Y-328414761D01*
X267600476Y-328462380D01*
X267695714Y-328462380D01*
X268410000Y-328414761D02*
X268314761Y-328462380D01*
X268124285Y-328462380D01*
X268029047Y-328414761D01*
X267981428Y-328319523D01*
X267981428Y-327938571D01*
X268029047Y-327843333D01*
X268124285Y-327795714D01*
X268314761Y-327795714D01*
X268410000Y-327843333D01*
X268457619Y-327938571D01*
X268457619Y-328033809D01*
X267981428Y-328129047D01*
X268886190Y-327795714D02*
X268886190Y-328795714D01*
X268886190Y-327843333D02*
X268981428Y-327795714D01*
X269171904Y-327795714D01*
X269267142Y-327843333D01*
X269314761Y-327890952D01*
X269362380Y-327986190D01*
X269362380Y-328271904D01*
X269314761Y-328367142D01*
X269267142Y-328414761D01*
X269171904Y-328462380D01*
X268981428Y-328462380D01*
X268886190Y-328414761D01*
X278804761Y-319702380D02*
X278471428Y-319226190D01*
X278233333Y-319702380D02*
X278233333Y-318702380D01*
X278614285Y-318702380D01*
X278709523Y-318750000D01*
X278757142Y-318797619D01*
X278804761Y-318892857D01*
X278804761Y-319035714D01*
X278757142Y-319130952D01*
X278709523Y-319178571D01*
X278614285Y-319226190D01*
X278233333Y-319226190D01*
X279090476Y-318702380D02*
X279423809Y-319702380D01*
X279757142Y-318702380D01*
X280614285Y-319702380D02*
X280042857Y-319702380D01*
X280328571Y-319702380D02*
X280328571Y-318702380D01*
X280233333Y-318845238D01*
X280138095Y-318940476D01*
X280042857Y-318988095D01*
X279193809Y-328822380D02*
X278860476Y-328346190D01*
X278622380Y-328822380D02*
X278622380Y-327822380D01*
X279003333Y-327822380D01*
X279098571Y-327870000D01*
X279146190Y-327917619D01*
X279193809Y-328012857D01*
X279193809Y-328155714D01*
X279146190Y-328250952D01*
X279098571Y-328298571D01*
X279003333Y-328346190D01*
X278622380Y-328346190D01*
X279384285Y-328917619D02*
X280146190Y-328917619D01*
X280384285Y-328822380D02*
X280384285Y-327822380D01*
X280765238Y-327822380D01*
X280860476Y-327870000D01*
X280908095Y-327917619D01*
X280955714Y-328012857D01*
X280955714Y-328155714D01*
X280908095Y-328250952D01*
X280860476Y-328298571D01*
X280765238Y-328346190D01*
X280384285Y-328346190D01*
X281574761Y-327822380D02*
X281765238Y-327822380D01*
X281860476Y-327870000D01*
X281955714Y-327965238D01*
X282003333Y-328155714D01*
X282003333Y-328489047D01*
X281955714Y-328679523D01*
X281860476Y-328774761D01*
X281765238Y-328822380D01*
X281574761Y-328822380D01*
X281479523Y-328774761D01*
X281384285Y-328679523D01*
X281336666Y-328489047D01*
X281336666Y-328155714D01*
X281384285Y-327965238D01*
X281479523Y-327870000D01*
X281574761Y-327822380D01*
X282289047Y-327822380D02*
X282860476Y-327822380D01*
X282574761Y-328822380D02*
X282574761Y-327822380D01*
X314317142Y-320662380D02*
X313983809Y-320186190D01*
X313745714Y-320662380D02*
X313745714Y-319662380D01*
X314126666Y-319662380D01*
X314221904Y-319710000D01*
X314269523Y-319757619D01*
X314317142Y-319852857D01*
X314317142Y-319995714D01*
X314269523Y-320090952D01*
X314221904Y-320138571D01*
X314126666Y-320186190D01*
X313745714Y-320186190D01*
X314698095Y-319757619D02*
X314745714Y-319710000D01*
X314840952Y-319662380D01*
X315079047Y-319662380D01*
X315174285Y-319710000D01*
X315221904Y-319757619D01*
X315269523Y-319852857D01*
X315269523Y-319948095D01*
X315221904Y-320090952D01*
X314650476Y-320662380D01*
X315269523Y-320662380D01*
X316174285Y-319662380D02*
X315698095Y-319662380D01*
X315650476Y-320138571D01*
X315698095Y-320090952D01*
X315793333Y-320043333D01*
X316031428Y-320043333D01*
X316126666Y-320090952D01*
X316174285Y-320138571D01*
X316221904Y-320233809D01*
X316221904Y-320471904D01*
X316174285Y-320567142D01*
X316126666Y-320614761D01*
X316031428Y-320662380D01*
X315793333Y-320662380D01*
X315698095Y-320614761D01*
X315650476Y-320567142D01*
X313150476Y-324497619D02*
X313198095Y-324450000D01*
X313293333Y-324402380D01*
X313531428Y-324402380D01*
X313626666Y-324450000D01*
X313674285Y-324497619D01*
X313721904Y-324592857D01*
X313721904Y-324688095D01*
X313674285Y-324830952D01*
X313102857Y-325402380D01*
X313721904Y-325402380D01*
X314102857Y-324497619D02*
X314150476Y-324450000D01*
X314245714Y-324402380D01*
X314483809Y-324402380D01*
X314579047Y-324450000D01*
X314626666Y-324497619D01*
X314674285Y-324592857D01*
X314674285Y-324688095D01*
X314626666Y-324830952D01*
X314055238Y-325402380D01*
X314674285Y-325402380D01*
X315293333Y-324402380D02*
X315388571Y-324402380D01*
X315483809Y-324450000D01*
X315531428Y-324497619D01*
X315579047Y-324592857D01*
X315626666Y-324783333D01*
X315626666Y-325021428D01*
X315579047Y-325211904D01*
X315531428Y-325307142D01*
X315483809Y-325354761D01*
X315388571Y-325402380D01*
X315293333Y-325402380D01*
X315198095Y-325354761D01*
X315150476Y-325307142D01*
X315102857Y-325211904D01*
X315055238Y-325021428D01*
X315055238Y-324783333D01*
X315102857Y-324592857D01*
X315150476Y-324497619D01*
X315198095Y-324450000D01*
X315293333Y-324402380D01*
X316007619Y-325402380D02*
X316245714Y-325402380D01*
X316245714Y-325211904D01*
X316150476Y-325164285D01*
X316055238Y-325069047D01*
X316007619Y-324926190D01*
X316007619Y-324688095D01*
X316055238Y-324545238D01*
X316150476Y-324450000D01*
X316293333Y-324402380D01*
X316483809Y-324402380D01*
X316626666Y-324450000D01*
X316721904Y-324545238D01*
X316769523Y-324688095D01*
X316769523Y-324926190D01*
X316721904Y-325069047D01*
X316626666Y-325164285D01*
X316531428Y-325211904D01*
X316531428Y-325402380D01*
X316769523Y-325402380D01*
X383913142Y-341490380D02*
X383579809Y-341014190D01*
X383341714Y-341490380D02*
X383341714Y-340490380D01*
X383722666Y-340490380D01*
X383817904Y-340538000D01*
X383865523Y-340585619D01*
X383913142Y-340680857D01*
X383913142Y-340823714D01*
X383865523Y-340918952D01*
X383817904Y-340966571D01*
X383722666Y-341014190D01*
X383341714Y-341014190D01*
X384294095Y-340585619D02*
X384341714Y-340538000D01*
X384436952Y-340490380D01*
X384675047Y-340490380D01*
X384770285Y-340538000D01*
X384817904Y-340585619D01*
X384865523Y-340680857D01*
X384865523Y-340776095D01*
X384817904Y-340918952D01*
X384246476Y-341490380D01*
X384865523Y-341490380D01*
X385817904Y-341490380D02*
X385246476Y-341490380D01*
X385532190Y-341490380D02*
X385532190Y-340490380D01*
X385436952Y-340633238D01*
X385341714Y-340728476D01*
X385246476Y-340776095D01*
X386421428Y-342134714D02*
X386421428Y-342801380D01*
X386183333Y-341753761D02*
X385945238Y-342468047D01*
X386564285Y-342468047D01*
X386945238Y-342706142D02*
X386992857Y-342753761D01*
X386945238Y-342801380D01*
X386897619Y-342753761D01*
X386945238Y-342706142D01*
X386945238Y-342801380D01*
X387326190Y-341801380D02*
X387992857Y-341801380D01*
X387564285Y-342801380D01*
X388373809Y-342801380D02*
X388373809Y-341801380D01*
X388469047Y-342420428D02*
X388754761Y-342801380D01*
X388754761Y-342134714D02*
X388373809Y-342515666D01*
X383913142Y-337680380D02*
X383579809Y-337204190D01*
X383341714Y-337680380D02*
X383341714Y-336680380D01*
X383722666Y-336680380D01*
X383817904Y-336728000D01*
X383865523Y-336775619D01*
X383913142Y-336870857D01*
X383913142Y-337013714D01*
X383865523Y-337108952D01*
X383817904Y-337156571D01*
X383722666Y-337204190D01*
X383341714Y-337204190D01*
X384294095Y-336775619D02*
X384341714Y-336728000D01*
X384436952Y-336680380D01*
X384675047Y-336680380D01*
X384770285Y-336728000D01*
X384817904Y-336775619D01*
X384865523Y-336870857D01*
X384865523Y-336966095D01*
X384817904Y-337108952D01*
X384246476Y-337680380D01*
X384865523Y-337680380D01*
X385484571Y-336680380D02*
X385579809Y-336680380D01*
X385675047Y-336728000D01*
X385722666Y-336775619D01*
X385770285Y-336870857D01*
X385817904Y-337061333D01*
X385817904Y-337299428D01*
X385770285Y-337489904D01*
X385722666Y-337585142D01*
X385675047Y-337632761D01*
X385579809Y-337680380D01*
X385484571Y-337680380D01*
X385389333Y-337632761D01*
X385341714Y-337585142D01*
X385294095Y-337489904D01*
X385246476Y-337299428D01*
X385246476Y-337061333D01*
X385294095Y-336870857D01*
X385341714Y-336775619D01*
X385389333Y-336728000D01*
X385484571Y-336680380D01*
X387865952Y-338991380D02*
X387294523Y-338991380D01*
X387580238Y-338991380D02*
X387580238Y-337991380D01*
X387485000Y-338134238D01*
X387389761Y-338229476D01*
X387294523Y-338277095D01*
X388294523Y-338991380D02*
X388294523Y-337991380D01*
X388389761Y-338610428D02*
X388675476Y-338991380D01*
X388675476Y-338324714D02*
X388294523Y-338705666D01*
X383913142Y-333870380D02*
X383579809Y-333394190D01*
X383341714Y-333870380D02*
X383341714Y-332870380D01*
X383722666Y-332870380D01*
X383817904Y-332918000D01*
X383865523Y-332965619D01*
X383913142Y-333060857D01*
X383913142Y-333203714D01*
X383865523Y-333298952D01*
X383817904Y-333346571D01*
X383722666Y-333394190D01*
X383341714Y-333394190D01*
X384865523Y-333870380D02*
X384294095Y-333870380D01*
X384579809Y-333870380D02*
X384579809Y-332870380D01*
X384484571Y-333013238D01*
X384389333Y-333108476D01*
X384294095Y-333156095D01*
X385341714Y-333870380D02*
X385532190Y-333870380D01*
X385627428Y-333822761D01*
X385675047Y-333775142D01*
X385770285Y-333632285D01*
X385817904Y-333441809D01*
X385817904Y-333060857D01*
X385770285Y-332965619D01*
X385722666Y-332918000D01*
X385627428Y-332870380D01*
X385436952Y-332870380D01*
X385341714Y-332918000D01*
X385294095Y-332965619D01*
X385246476Y-333060857D01*
X385246476Y-333298952D01*
X385294095Y-333394190D01*
X385341714Y-333441809D01*
X385436952Y-333489428D01*
X385627428Y-333489428D01*
X385722666Y-333441809D01*
X385770285Y-333394190D01*
X385817904Y-333298952D01*
X387865952Y-335181380D02*
X387294523Y-335181380D01*
X387580238Y-335181380D02*
X387580238Y-334181380D01*
X387485000Y-334324238D01*
X387389761Y-334419476D01*
X387294523Y-334467095D01*
X388294523Y-335181380D02*
X388294523Y-334181380D01*
X388389761Y-334800428D02*
X388675476Y-335181380D01*
X388675476Y-334514714D02*
X388294523Y-334895666D01*
X363593142Y-341490380D02*
X363259809Y-341014190D01*
X363021714Y-341490380D02*
X363021714Y-340490380D01*
X363402666Y-340490380D01*
X363497904Y-340538000D01*
X363545523Y-340585619D01*
X363593142Y-340680857D01*
X363593142Y-340823714D01*
X363545523Y-340918952D01*
X363497904Y-340966571D01*
X363402666Y-341014190D01*
X363021714Y-341014190D01*
X364545523Y-341490380D02*
X363974095Y-341490380D01*
X364259809Y-341490380D02*
X364259809Y-340490380D01*
X364164571Y-340633238D01*
X364069333Y-340728476D01*
X363974095Y-340776095D01*
X365116952Y-340918952D02*
X365021714Y-340871333D01*
X364974095Y-340823714D01*
X364926476Y-340728476D01*
X364926476Y-340680857D01*
X364974095Y-340585619D01*
X365021714Y-340538000D01*
X365116952Y-340490380D01*
X365307428Y-340490380D01*
X365402666Y-340538000D01*
X365450285Y-340585619D01*
X365497904Y-340680857D01*
X365497904Y-340728476D01*
X365450285Y-340823714D01*
X365402666Y-340871333D01*
X365307428Y-340918952D01*
X365116952Y-340918952D01*
X365021714Y-340966571D01*
X364974095Y-341014190D01*
X364926476Y-341109428D01*
X364926476Y-341299904D01*
X364974095Y-341395142D01*
X365021714Y-341442761D01*
X365116952Y-341490380D01*
X365307428Y-341490380D01*
X365402666Y-341442761D01*
X365450285Y-341395142D01*
X365497904Y-341299904D01*
X365497904Y-341109428D01*
X365450285Y-341014190D01*
X365402666Y-340966571D01*
X365307428Y-340918952D01*
X366228428Y-342134714D02*
X366228428Y-342801380D01*
X365990333Y-341753761D02*
X365752238Y-342468047D01*
X366371285Y-342468047D01*
X366752238Y-342706142D02*
X366799857Y-342753761D01*
X366752238Y-342801380D01*
X366704619Y-342753761D01*
X366752238Y-342706142D01*
X366752238Y-342801380D01*
X367133190Y-341801380D02*
X367799857Y-341801380D01*
X367371285Y-342801380D01*
X368180809Y-342801380D02*
X368180809Y-341801380D01*
X368276047Y-342420428D02*
X368561761Y-342801380D01*
X368561761Y-342134714D02*
X368180809Y-342515666D01*
X363593142Y-337680380D02*
X363259809Y-337204190D01*
X363021714Y-337680380D02*
X363021714Y-336680380D01*
X363402666Y-336680380D01*
X363497904Y-336728000D01*
X363545523Y-336775619D01*
X363593142Y-336870857D01*
X363593142Y-337013714D01*
X363545523Y-337108952D01*
X363497904Y-337156571D01*
X363402666Y-337204190D01*
X363021714Y-337204190D01*
X364545523Y-337680380D02*
X363974095Y-337680380D01*
X364259809Y-337680380D02*
X364259809Y-336680380D01*
X364164571Y-336823238D01*
X364069333Y-336918476D01*
X363974095Y-336966095D01*
X364878857Y-336680380D02*
X365545523Y-336680380D01*
X365116952Y-337680380D01*
X367545952Y-338991380D02*
X366974523Y-338991380D01*
X367260238Y-338991380D02*
X367260238Y-337991380D01*
X367165000Y-338134238D01*
X367069761Y-338229476D01*
X366974523Y-338277095D01*
X367974523Y-338991380D02*
X367974523Y-337991380D01*
X368069761Y-338610428D02*
X368355476Y-338991380D01*
X368355476Y-338324714D02*
X367974523Y-338705666D01*
X363593142Y-333870380D02*
X363259809Y-333394190D01*
X363021714Y-333870380D02*
X363021714Y-332870380D01*
X363402666Y-332870380D01*
X363497904Y-332918000D01*
X363545523Y-332965619D01*
X363593142Y-333060857D01*
X363593142Y-333203714D01*
X363545523Y-333298952D01*
X363497904Y-333346571D01*
X363402666Y-333394190D01*
X363021714Y-333394190D01*
X364545523Y-333870380D02*
X363974095Y-333870380D01*
X364259809Y-333870380D02*
X364259809Y-332870380D01*
X364164571Y-333013238D01*
X364069333Y-333108476D01*
X363974095Y-333156095D01*
X365402666Y-332870380D02*
X365212190Y-332870380D01*
X365116952Y-332918000D01*
X365069333Y-332965619D01*
X364974095Y-333108476D01*
X364926476Y-333298952D01*
X364926476Y-333679904D01*
X364974095Y-333775142D01*
X365021714Y-333822761D01*
X365116952Y-333870380D01*
X365307428Y-333870380D01*
X365402666Y-333822761D01*
X365450285Y-333775142D01*
X365497904Y-333679904D01*
X365497904Y-333441809D01*
X365450285Y-333346571D01*
X365402666Y-333298952D01*
X365307428Y-333251333D01*
X365116952Y-333251333D01*
X365021714Y-333298952D01*
X364974095Y-333346571D01*
X364926476Y-333441809D01*
X367545952Y-335181380D02*
X366974523Y-335181380D01*
X367260238Y-335181380D02*
X367260238Y-334181380D01*
X367165000Y-334324238D01*
X367069761Y-334419476D01*
X366974523Y-334467095D01*
X367974523Y-335181380D02*
X367974523Y-334181380D01*
X368069761Y-334800428D02*
X368355476Y-335181380D01*
X368355476Y-334514714D02*
X367974523Y-334895666D01*
X343273142Y-341490380D02*
X342939809Y-341014190D01*
X342701714Y-341490380D02*
X342701714Y-340490380D01*
X343082666Y-340490380D01*
X343177904Y-340538000D01*
X343225523Y-340585619D01*
X343273142Y-340680857D01*
X343273142Y-340823714D01*
X343225523Y-340918952D01*
X343177904Y-340966571D01*
X343082666Y-341014190D01*
X342701714Y-341014190D01*
X344225523Y-341490380D02*
X343654095Y-341490380D01*
X343939809Y-341490380D02*
X343939809Y-340490380D01*
X343844571Y-340633238D01*
X343749333Y-340728476D01*
X343654095Y-340776095D01*
X345130285Y-340490380D02*
X344654095Y-340490380D01*
X344606476Y-340966571D01*
X344654095Y-340918952D01*
X344749333Y-340871333D01*
X344987428Y-340871333D01*
X345082666Y-340918952D01*
X345130285Y-340966571D01*
X345177904Y-341061809D01*
X345177904Y-341299904D01*
X345130285Y-341395142D01*
X345082666Y-341442761D01*
X344987428Y-341490380D01*
X344749333Y-341490380D01*
X344654095Y-341442761D01*
X344606476Y-341395142D01*
X345781428Y-342134714D02*
X345781428Y-342801380D01*
X345543333Y-341753761D02*
X345305238Y-342468047D01*
X345924285Y-342468047D01*
X346305238Y-342706142D02*
X346352857Y-342753761D01*
X346305238Y-342801380D01*
X346257619Y-342753761D01*
X346305238Y-342706142D01*
X346305238Y-342801380D01*
X346686190Y-341801380D02*
X347352857Y-341801380D01*
X346924285Y-342801380D01*
X347733809Y-342801380D02*
X347733809Y-341801380D01*
X347829047Y-342420428D02*
X348114761Y-342801380D01*
X348114761Y-342134714D02*
X347733809Y-342515666D01*
X343273142Y-337680380D02*
X342939809Y-337204190D01*
X342701714Y-337680380D02*
X342701714Y-336680380D01*
X343082666Y-336680380D01*
X343177904Y-336728000D01*
X343225523Y-336775619D01*
X343273142Y-336870857D01*
X343273142Y-337013714D01*
X343225523Y-337108952D01*
X343177904Y-337156571D01*
X343082666Y-337204190D01*
X342701714Y-337204190D01*
X344225523Y-337680380D02*
X343654095Y-337680380D01*
X343939809Y-337680380D02*
X343939809Y-336680380D01*
X343844571Y-336823238D01*
X343749333Y-336918476D01*
X343654095Y-336966095D01*
X345082666Y-337013714D02*
X345082666Y-337680380D01*
X344844571Y-336632761D02*
X344606476Y-337347047D01*
X345225523Y-337347047D01*
X347352952Y-338991380D02*
X346781523Y-338991380D01*
X347067238Y-338991380D02*
X347067238Y-337991380D01*
X346972000Y-338134238D01*
X346876761Y-338229476D01*
X346781523Y-338277095D01*
X347781523Y-338991380D02*
X347781523Y-337991380D01*
X347876761Y-338610428D02*
X348162476Y-338991380D01*
X348162476Y-338324714D02*
X347781523Y-338705666D01*
X343273142Y-333870380D02*
X342939809Y-333394190D01*
X342701714Y-333870380D02*
X342701714Y-332870380D01*
X343082666Y-332870380D01*
X343177904Y-332918000D01*
X343225523Y-332965619D01*
X343273142Y-333060857D01*
X343273142Y-333203714D01*
X343225523Y-333298952D01*
X343177904Y-333346571D01*
X343082666Y-333394190D01*
X342701714Y-333394190D01*
X344225523Y-333870380D02*
X343654095Y-333870380D01*
X343939809Y-333870380D02*
X343939809Y-332870380D01*
X343844571Y-333013238D01*
X343749333Y-333108476D01*
X343654095Y-333156095D01*
X344558857Y-332870380D02*
X345177904Y-332870380D01*
X344844571Y-333251333D01*
X344987428Y-333251333D01*
X345082666Y-333298952D01*
X345130285Y-333346571D01*
X345177904Y-333441809D01*
X345177904Y-333679904D01*
X345130285Y-333775142D01*
X345082666Y-333822761D01*
X344987428Y-333870380D01*
X344701714Y-333870380D01*
X344606476Y-333822761D01*
X344558857Y-333775142D01*
X347352952Y-335181380D02*
X346781523Y-335181380D01*
X347067238Y-335181380D02*
X347067238Y-334181380D01*
X346972000Y-334324238D01*
X346876761Y-334419476D01*
X346781523Y-334467095D01*
X347781523Y-335181380D02*
X347781523Y-334181380D01*
X347876761Y-334800428D02*
X348162476Y-335181380D01*
X348162476Y-334514714D02*
X347781523Y-334895666D01*
X333113142Y-341447380D02*
X332779809Y-340971190D01*
X332541714Y-341447380D02*
X332541714Y-340447380D01*
X332922666Y-340447380D01*
X333017904Y-340495000D01*
X333065523Y-340542619D01*
X333113142Y-340637857D01*
X333113142Y-340780714D01*
X333065523Y-340875952D01*
X333017904Y-340923571D01*
X332922666Y-340971190D01*
X332541714Y-340971190D01*
X334065523Y-341447380D02*
X333494095Y-341447380D01*
X333779809Y-341447380D02*
X333779809Y-340447380D01*
X333684571Y-340590238D01*
X333589333Y-340685476D01*
X333494095Y-340733095D01*
X334446476Y-340542619D02*
X334494095Y-340495000D01*
X334589333Y-340447380D01*
X334827428Y-340447380D01*
X334922666Y-340495000D01*
X334970285Y-340542619D01*
X335017904Y-340637857D01*
X335017904Y-340733095D01*
X334970285Y-340875952D01*
X334398857Y-341447380D01*
X335017904Y-341447380D01*
X335621428Y-342134714D02*
X335621428Y-342801380D01*
X335383333Y-341753761D02*
X335145238Y-342468047D01*
X335764285Y-342468047D01*
X336145238Y-342706142D02*
X336192857Y-342753761D01*
X336145238Y-342801380D01*
X336097619Y-342753761D01*
X336145238Y-342706142D01*
X336145238Y-342801380D01*
X336526190Y-341801380D02*
X337192857Y-341801380D01*
X336764285Y-342801380D01*
X337573809Y-342801380D02*
X337573809Y-341801380D01*
X337669047Y-342420428D02*
X337954761Y-342801380D01*
X337954761Y-342134714D02*
X337573809Y-342515666D01*
X333113142Y-337637380D02*
X332779809Y-337161190D01*
X332541714Y-337637380D02*
X332541714Y-336637380D01*
X332922666Y-336637380D01*
X333017904Y-336685000D01*
X333065523Y-336732619D01*
X333113142Y-336827857D01*
X333113142Y-336970714D01*
X333065523Y-337065952D01*
X333017904Y-337113571D01*
X332922666Y-337161190D01*
X332541714Y-337161190D01*
X334065523Y-337637380D02*
X333494095Y-337637380D01*
X333779809Y-337637380D02*
X333779809Y-336637380D01*
X333684571Y-336780238D01*
X333589333Y-336875476D01*
X333494095Y-336923095D01*
X335017904Y-337637380D02*
X334446476Y-337637380D01*
X334732190Y-337637380D02*
X334732190Y-336637380D01*
X334636952Y-336780238D01*
X334541714Y-336875476D01*
X334446476Y-336923095D01*
X337192952Y-338991380D02*
X336621523Y-338991380D01*
X336907238Y-338991380D02*
X336907238Y-337991380D01*
X336812000Y-338134238D01*
X336716761Y-338229476D01*
X336621523Y-338277095D01*
X337621523Y-338991380D02*
X337621523Y-337991380D01*
X337716761Y-338610428D02*
X338002476Y-338991380D01*
X338002476Y-338324714D02*
X337621523Y-338705666D01*
X333113142Y-333827380D02*
X332779809Y-333351190D01*
X332541714Y-333827380D02*
X332541714Y-332827380D01*
X332922666Y-332827380D01*
X333017904Y-332875000D01*
X333065523Y-332922619D01*
X333113142Y-333017857D01*
X333113142Y-333160714D01*
X333065523Y-333255952D01*
X333017904Y-333303571D01*
X332922666Y-333351190D01*
X332541714Y-333351190D01*
X334065523Y-333827380D02*
X333494095Y-333827380D01*
X333779809Y-333827380D02*
X333779809Y-332827380D01*
X333684571Y-332970238D01*
X333589333Y-333065476D01*
X333494095Y-333113095D01*
X334684571Y-332827380D02*
X334779809Y-332827380D01*
X334875047Y-332875000D01*
X334922666Y-332922619D01*
X334970285Y-333017857D01*
X335017904Y-333208333D01*
X335017904Y-333446428D01*
X334970285Y-333636904D01*
X334922666Y-333732142D01*
X334875047Y-333779761D01*
X334779809Y-333827380D01*
X334684571Y-333827380D01*
X334589333Y-333779761D01*
X334541714Y-333732142D01*
X334494095Y-333636904D01*
X334446476Y-333446428D01*
X334446476Y-333208333D01*
X334494095Y-333017857D01*
X334541714Y-332922619D01*
X334589333Y-332875000D01*
X334684571Y-332827380D01*
X337192952Y-335181380D02*
X336621523Y-335181380D01*
X336907238Y-335181380D02*
X336907238Y-334181380D01*
X336812000Y-334324238D01*
X336716761Y-334419476D01*
X336621523Y-334467095D01*
X337621523Y-335181380D02*
X337621523Y-334181380D01*
X337716761Y-334800428D02*
X338002476Y-335181380D01*
X338002476Y-334514714D02*
X337621523Y-334895666D01*
X312888333Y-341447380D02*
X312555000Y-340971190D01*
X312316904Y-341447380D02*
X312316904Y-340447380D01*
X312697857Y-340447380D01*
X312793095Y-340495000D01*
X312840714Y-340542619D01*
X312888333Y-340637857D01*
X312888333Y-340780714D01*
X312840714Y-340875952D01*
X312793095Y-340923571D01*
X312697857Y-340971190D01*
X312316904Y-340971190D01*
X313364523Y-341447380D02*
X313555000Y-341447380D01*
X313650238Y-341399761D01*
X313697857Y-341352142D01*
X313793095Y-341209285D01*
X313840714Y-341018809D01*
X313840714Y-340637857D01*
X313793095Y-340542619D01*
X313745476Y-340495000D01*
X313650238Y-340447380D01*
X313459761Y-340447380D01*
X313364523Y-340495000D01*
X313316904Y-340542619D01*
X313269285Y-340637857D01*
X313269285Y-340875952D01*
X313316904Y-340971190D01*
X313364523Y-341018809D01*
X313459761Y-341066428D01*
X313650238Y-341066428D01*
X313745476Y-341018809D01*
X313793095Y-340971190D01*
X313840714Y-340875952D01*
X315428428Y-342134714D02*
X315428428Y-342801380D01*
X315190333Y-341753761D02*
X314952238Y-342468047D01*
X315571285Y-342468047D01*
X315952238Y-342706142D02*
X315999857Y-342753761D01*
X315952238Y-342801380D01*
X315904619Y-342753761D01*
X315952238Y-342706142D01*
X315952238Y-342801380D01*
X316333190Y-341801380D02*
X316999857Y-341801380D01*
X316571285Y-342801380D01*
X317380809Y-342801380D02*
X317380809Y-341801380D01*
X317476047Y-342420428D02*
X317761761Y-342801380D01*
X317761761Y-342134714D02*
X317380809Y-342515666D01*
X312888333Y-337637380D02*
X312555000Y-337161190D01*
X312316904Y-337637380D02*
X312316904Y-336637380D01*
X312697857Y-336637380D01*
X312793095Y-336685000D01*
X312840714Y-336732619D01*
X312888333Y-336827857D01*
X312888333Y-336970714D01*
X312840714Y-337065952D01*
X312793095Y-337113571D01*
X312697857Y-337161190D01*
X312316904Y-337161190D01*
X313459761Y-337065952D02*
X313364523Y-337018333D01*
X313316904Y-336970714D01*
X313269285Y-336875476D01*
X313269285Y-336827857D01*
X313316904Y-336732619D01*
X313364523Y-336685000D01*
X313459761Y-336637380D01*
X313650238Y-336637380D01*
X313745476Y-336685000D01*
X313793095Y-336732619D01*
X313840714Y-336827857D01*
X313840714Y-336875476D01*
X313793095Y-336970714D01*
X313745476Y-337018333D01*
X313650238Y-337065952D01*
X313459761Y-337065952D01*
X313364523Y-337113571D01*
X313316904Y-337161190D01*
X313269285Y-337256428D01*
X313269285Y-337446904D01*
X313316904Y-337542142D01*
X313364523Y-337589761D01*
X313459761Y-337637380D01*
X313650238Y-337637380D01*
X313745476Y-337589761D01*
X313793095Y-337542142D01*
X313840714Y-337446904D01*
X313840714Y-337256428D01*
X313793095Y-337161190D01*
X313745476Y-337113571D01*
X313650238Y-337065952D01*
X316745952Y-338991380D02*
X316174523Y-338991380D01*
X316460238Y-338991380D02*
X316460238Y-337991380D01*
X316365000Y-338134238D01*
X316269761Y-338229476D01*
X316174523Y-338277095D01*
X317174523Y-338991380D02*
X317174523Y-337991380D01*
X317269761Y-338610428D02*
X317555476Y-338991380D01*
X317555476Y-338324714D02*
X317174523Y-338705666D01*
X312888333Y-333827380D02*
X312555000Y-333351190D01*
X312316904Y-333827380D02*
X312316904Y-332827380D01*
X312697857Y-332827380D01*
X312793095Y-332875000D01*
X312840714Y-332922619D01*
X312888333Y-333017857D01*
X312888333Y-333160714D01*
X312840714Y-333255952D01*
X312793095Y-333303571D01*
X312697857Y-333351190D01*
X312316904Y-333351190D01*
X313221666Y-332827380D02*
X313888333Y-332827380D01*
X313459761Y-333827380D01*
X316745952Y-335181380D02*
X316174523Y-335181380D01*
X316460238Y-335181380D02*
X316460238Y-334181380D01*
X316365000Y-334324238D01*
X316269761Y-334419476D01*
X316174523Y-334467095D01*
X317174523Y-335181380D02*
X317174523Y-334181380D01*
X317269761Y-334800428D02*
X317555476Y-335181380D01*
X317555476Y-334514714D02*
X317174523Y-334895666D01*
X302728333Y-341490380D02*
X302395000Y-341014190D01*
X302156904Y-341490380D02*
X302156904Y-340490380D01*
X302537857Y-340490380D01*
X302633095Y-340538000D01*
X302680714Y-340585619D01*
X302728333Y-340680857D01*
X302728333Y-340823714D01*
X302680714Y-340918952D01*
X302633095Y-340966571D01*
X302537857Y-341014190D01*
X302156904Y-341014190D01*
X303585476Y-340490380D02*
X303395000Y-340490380D01*
X303299761Y-340538000D01*
X303252142Y-340585619D01*
X303156904Y-340728476D01*
X303109285Y-340918952D01*
X303109285Y-341299904D01*
X303156904Y-341395142D01*
X303204523Y-341442761D01*
X303299761Y-341490380D01*
X303490238Y-341490380D01*
X303585476Y-341442761D01*
X303633095Y-341395142D01*
X303680714Y-341299904D01*
X303680714Y-341061809D01*
X303633095Y-340966571D01*
X303585476Y-340918952D01*
X303490238Y-340871333D01*
X303299761Y-340871333D01*
X303204523Y-340918952D01*
X303156904Y-340966571D01*
X303109285Y-341061809D01*
X305141428Y-342134714D02*
X305141428Y-342801380D01*
X304903333Y-341753761D02*
X304665238Y-342468047D01*
X305284285Y-342468047D01*
X305665238Y-342706142D02*
X305712857Y-342753761D01*
X305665238Y-342801380D01*
X305617619Y-342753761D01*
X305665238Y-342706142D01*
X305665238Y-342801380D01*
X306046190Y-341801380D02*
X306712857Y-341801380D01*
X306284285Y-342801380D01*
X307093809Y-342801380D02*
X307093809Y-341801380D01*
X307189047Y-342420428D02*
X307474761Y-342801380D01*
X307474761Y-342134714D02*
X307093809Y-342515666D01*
X302728333Y-337680380D02*
X302395000Y-337204190D01*
X302156904Y-337680380D02*
X302156904Y-336680380D01*
X302537857Y-336680380D01*
X302633095Y-336728000D01*
X302680714Y-336775619D01*
X302728333Y-336870857D01*
X302728333Y-337013714D01*
X302680714Y-337108952D01*
X302633095Y-337156571D01*
X302537857Y-337204190D01*
X302156904Y-337204190D01*
X303633095Y-336680380D02*
X303156904Y-336680380D01*
X303109285Y-337156571D01*
X303156904Y-337108952D01*
X303252142Y-337061333D01*
X303490238Y-337061333D01*
X303585476Y-337108952D01*
X303633095Y-337156571D01*
X303680714Y-337251809D01*
X303680714Y-337489904D01*
X303633095Y-337585142D01*
X303585476Y-337632761D01*
X303490238Y-337680380D01*
X303252142Y-337680380D01*
X303156904Y-337632761D01*
X303109285Y-337585142D01*
X306712952Y-338991380D02*
X306141523Y-338991380D01*
X306427238Y-338991380D02*
X306427238Y-337991380D01*
X306332000Y-338134238D01*
X306236761Y-338229476D01*
X306141523Y-338277095D01*
X307141523Y-338991380D02*
X307141523Y-337991380D01*
X307236761Y-338610428D02*
X307522476Y-338991380D01*
X307522476Y-338324714D02*
X307141523Y-338705666D01*
X302728333Y-333870380D02*
X302395000Y-333394190D01*
X302156904Y-333870380D02*
X302156904Y-332870380D01*
X302537857Y-332870380D01*
X302633095Y-332918000D01*
X302680714Y-332965619D01*
X302728333Y-333060857D01*
X302728333Y-333203714D01*
X302680714Y-333298952D01*
X302633095Y-333346571D01*
X302537857Y-333394190D01*
X302156904Y-333394190D01*
X303585476Y-333203714D02*
X303585476Y-333870380D01*
X303347380Y-332822761D02*
X303109285Y-333537047D01*
X303728333Y-333537047D01*
X306712952Y-335181380D02*
X306141523Y-335181380D01*
X306427238Y-335181380D02*
X306427238Y-334181380D01*
X306332000Y-334324238D01*
X306236761Y-334419476D01*
X306141523Y-334467095D01*
X307141523Y-335181380D02*
X307141523Y-334181380D01*
X307236761Y-334800428D02*
X307522476Y-335181380D01*
X307522476Y-334514714D02*
X307141523Y-334895666D01*
X282408333Y-341490380D02*
X282075000Y-341014190D01*
X281836904Y-341490380D02*
X281836904Y-340490380D01*
X282217857Y-340490380D01*
X282313095Y-340538000D01*
X282360714Y-340585619D01*
X282408333Y-340680857D01*
X282408333Y-340823714D01*
X282360714Y-340918952D01*
X282313095Y-340966571D01*
X282217857Y-341014190D01*
X281836904Y-341014190D01*
X282741666Y-340490380D02*
X283360714Y-340490380D01*
X283027380Y-340871333D01*
X283170238Y-340871333D01*
X283265476Y-340918952D01*
X283313095Y-340966571D01*
X283360714Y-341061809D01*
X283360714Y-341299904D01*
X283313095Y-341395142D01*
X283265476Y-341442761D01*
X283170238Y-341490380D01*
X282884523Y-341490380D01*
X282789285Y-341442761D01*
X282741666Y-341395142D01*
X284821428Y-342134714D02*
X284821428Y-342801380D01*
X284583333Y-341753761D02*
X284345238Y-342468047D01*
X284964285Y-342468047D01*
X285345238Y-342706142D02*
X285392857Y-342753761D01*
X285345238Y-342801380D01*
X285297619Y-342753761D01*
X285345238Y-342706142D01*
X285345238Y-342801380D01*
X285726190Y-341801380D02*
X286392857Y-341801380D01*
X285964285Y-342801380D01*
X286773809Y-342801380D02*
X286773809Y-341801380D01*
X286869047Y-342420428D02*
X287154761Y-342801380D01*
X287154761Y-342134714D02*
X286773809Y-342515666D01*
X282408333Y-337680380D02*
X282075000Y-337204190D01*
X281836904Y-337680380D02*
X281836904Y-336680380D01*
X282217857Y-336680380D01*
X282313095Y-336728000D01*
X282360714Y-336775619D01*
X282408333Y-336870857D01*
X282408333Y-337013714D01*
X282360714Y-337108952D01*
X282313095Y-337156571D01*
X282217857Y-337204190D01*
X281836904Y-337204190D01*
X282789285Y-336775619D02*
X282836904Y-336728000D01*
X282932142Y-336680380D01*
X283170238Y-336680380D01*
X283265476Y-336728000D01*
X283313095Y-336775619D01*
X283360714Y-336870857D01*
X283360714Y-336966095D01*
X283313095Y-337108952D01*
X282741666Y-337680380D01*
X283360714Y-337680380D01*
X286392952Y-338991380D02*
X285821523Y-338991380D01*
X286107238Y-338991380D02*
X286107238Y-337991380D01*
X286012000Y-338134238D01*
X285916761Y-338229476D01*
X285821523Y-338277095D01*
X286821523Y-338991380D02*
X286821523Y-337991380D01*
X286916761Y-338610428D02*
X287202476Y-338991380D01*
X287202476Y-338324714D02*
X286821523Y-338705666D01*
X282408333Y-333870380D02*
X282075000Y-333394190D01*
X281836904Y-333870380D02*
X281836904Y-332870380D01*
X282217857Y-332870380D01*
X282313095Y-332918000D01*
X282360714Y-332965619D01*
X282408333Y-333060857D01*
X282408333Y-333203714D01*
X282360714Y-333298952D01*
X282313095Y-333346571D01*
X282217857Y-333394190D01*
X281836904Y-333394190D01*
X283360714Y-333870380D02*
X282789285Y-333870380D01*
X283075000Y-333870380D02*
X283075000Y-332870380D01*
X282979761Y-333013238D01*
X282884523Y-333108476D01*
X282789285Y-333156095D01*
X286392952Y-335181380D02*
X285821523Y-335181380D01*
X286107238Y-335181380D02*
X286107238Y-334181380D01*
X286012000Y-334324238D01*
X285916761Y-334419476D01*
X285821523Y-334467095D01*
X286821523Y-335181380D02*
X286821523Y-334181380D01*
X286916761Y-334800428D02*
X287202476Y-335181380D01*
X287202476Y-334514714D02*
X286821523Y-334895666D01*
X304061904Y-326992380D02*
X304061904Y-325992380D01*
X304300000Y-325992380D01*
X304442857Y-326040000D01*
X304538095Y-326135238D01*
X304585714Y-326230476D01*
X304633333Y-326420952D01*
X304633333Y-326563809D01*
X304585714Y-326754285D01*
X304538095Y-326849523D01*
X304442857Y-326944761D01*
X304300000Y-326992380D01*
X304061904Y-326992380D01*
X305585714Y-326992380D02*
X305014285Y-326992380D01*
X305300000Y-326992380D02*
X305300000Y-325992380D01*
X305204761Y-326135238D01*
X305109523Y-326230476D01*
X305014285Y-326278095D01*
X304157142Y-319072380D02*
X303680952Y-319072380D01*
X303680952Y-318072380D01*
X304490476Y-318548571D02*
X304823809Y-318548571D01*
X304966666Y-319072380D02*
X304490476Y-319072380D01*
X304490476Y-318072380D01*
X304966666Y-318072380D01*
X305395238Y-319072380D02*
X305395238Y-318072380D01*
X305633333Y-318072380D01*
X305776190Y-318120000D01*
X305871428Y-318215238D01*
X305919047Y-318310476D01*
X305966666Y-318500952D01*
X305966666Y-318643809D01*
X305919047Y-318834285D01*
X305871428Y-318929523D01*
X305776190Y-319024761D01*
X305633333Y-319072380D01*
X305395238Y-319072380D01*
X267367142Y-292117142D02*
X267319523Y-292164761D01*
X267176666Y-292212380D01*
X267081428Y-292212380D01*
X266938571Y-292164761D01*
X266843333Y-292069523D01*
X266795714Y-291974285D01*
X266748095Y-291783809D01*
X266748095Y-291640952D01*
X266795714Y-291450476D01*
X266843333Y-291355238D01*
X266938571Y-291260000D01*
X267081428Y-291212380D01*
X267176666Y-291212380D01*
X267319523Y-291260000D01*
X267367142Y-291307619D01*
X268319523Y-292212380D02*
X267748095Y-292212380D01*
X268033809Y-292212380D02*
X268033809Y-291212380D01*
X267938571Y-291355238D01*
X267843333Y-291450476D01*
X267748095Y-291498095D01*
X269176666Y-291545714D02*
X269176666Y-292212380D01*
X268938571Y-291164761D02*
X268700476Y-291879047D01*
X269319523Y-291879047D01*
X266462380Y-287812380D02*
X265890952Y-287812380D01*
X266176666Y-287812380D02*
X266176666Y-286812380D01*
X266081428Y-286955238D01*
X265986190Y-287050476D01*
X265890952Y-287098095D01*
X267081428Y-286812380D02*
X267176666Y-286812380D01*
X267271904Y-286860000D01*
X267319523Y-286907619D01*
X267367142Y-287002857D01*
X267414761Y-287193333D01*
X267414761Y-287431428D01*
X267367142Y-287621904D01*
X267319523Y-287717142D01*
X267271904Y-287764761D01*
X267176666Y-287812380D01*
X267081428Y-287812380D01*
X266986190Y-287764761D01*
X266938571Y-287717142D01*
X266890952Y-287621904D01*
X266843333Y-287431428D01*
X266843333Y-287193333D01*
X266890952Y-287002857D01*
X266938571Y-286907619D01*
X266986190Y-286860000D01*
X267081428Y-286812380D01*
X268033809Y-286812380D02*
X268129047Y-286812380D01*
X268224285Y-286860000D01*
X268271904Y-286907619D01*
X268319523Y-287002857D01*
X268367142Y-287193333D01*
X268367142Y-287431428D01*
X268319523Y-287621904D01*
X268271904Y-287717142D01*
X268224285Y-287764761D01*
X268129047Y-287812380D01*
X268033809Y-287812380D01*
X267938571Y-287764761D01*
X267890952Y-287717142D01*
X267843333Y-287621904D01*
X267795714Y-287431428D01*
X267795714Y-287193333D01*
X267843333Y-287002857D01*
X267890952Y-286907619D01*
X267938571Y-286860000D01*
X268033809Y-286812380D01*
X268795714Y-287145714D02*
X268795714Y-287812380D01*
X268795714Y-287240952D02*
X268843333Y-287193333D01*
X268938571Y-287145714D01*
X269081428Y-287145714D01*
X269176666Y-287193333D01*
X269224285Y-287288571D01*
X269224285Y-287812380D01*
X270033809Y-287288571D02*
X269700476Y-287288571D01*
X269700476Y-287812380D02*
X269700476Y-286812380D01*
X270176666Y-286812380D01*
X358837142Y-318182857D02*
X358884761Y-318230476D01*
X358932380Y-318373333D01*
X358932380Y-318468571D01*
X358884761Y-318611428D01*
X358789523Y-318706666D01*
X358694285Y-318754285D01*
X358503809Y-318801904D01*
X358360952Y-318801904D01*
X358170476Y-318754285D01*
X358075238Y-318706666D01*
X357980000Y-318611428D01*
X357932380Y-318468571D01*
X357932380Y-318373333D01*
X357980000Y-318230476D01*
X358027619Y-318182857D01*
X358932380Y-317230476D02*
X358932380Y-317801904D01*
X358932380Y-317516190D02*
X357932380Y-317516190D01*
X358075238Y-317611428D01*
X358170476Y-317706666D01*
X358218095Y-317801904D01*
X357932380Y-316897142D02*
X357932380Y-316278095D01*
X358313333Y-316611428D01*
X358313333Y-316468571D01*
X358360952Y-316373333D01*
X358408571Y-316325714D01*
X358503809Y-316278095D01*
X358741904Y-316278095D01*
X358837142Y-316325714D01*
X358884761Y-316373333D01*
X358932380Y-316468571D01*
X358932380Y-316754285D01*
X358884761Y-316849523D01*
X358837142Y-316897142D01*
X363332380Y-319087619D02*
X363332380Y-319659047D01*
X363332380Y-319373333D02*
X362332380Y-319373333D01*
X362475238Y-319468571D01*
X362570476Y-319563809D01*
X362618095Y-319659047D01*
X362332380Y-318468571D02*
X362332380Y-318373333D01*
X362380000Y-318278095D01*
X362427619Y-318230476D01*
X362522857Y-318182857D01*
X362713333Y-318135238D01*
X362951428Y-318135238D01*
X363141904Y-318182857D01*
X363237142Y-318230476D01*
X363284761Y-318278095D01*
X363332380Y-318373333D01*
X363332380Y-318468571D01*
X363284761Y-318563809D01*
X363237142Y-318611428D01*
X363141904Y-318659047D01*
X362951428Y-318706666D01*
X362713333Y-318706666D01*
X362522857Y-318659047D01*
X362427619Y-318611428D01*
X362380000Y-318563809D01*
X362332380Y-318468571D01*
X362332380Y-317516190D02*
X362332380Y-317420952D01*
X362380000Y-317325714D01*
X362427619Y-317278095D01*
X362522857Y-317230476D01*
X362713333Y-317182857D01*
X362951428Y-317182857D01*
X363141904Y-317230476D01*
X363237142Y-317278095D01*
X363284761Y-317325714D01*
X363332380Y-317420952D01*
X363332380Y-317516190D01*
X363284761Y-317611428D01*
X363237142Y-317659047D01*
X363141904Y-317706666D01*
X362951428Y-317754285D01*
X362713333Y-317754285D01*
X362522857Y-317706666D01*
X362427619Y-317659047D01*
X362380000Y-317611428D01*
X362332380Y-317516190D01*
X362665714Y-316754285D02*
X363332380Y-316754285D01*
X362760952Y-316754285D02*
X362713333Y-316706666D01*
X362665714Y-316611428D01*
X362665714Y-316468571D01*
X362713333Y-316373333D01*
X362808571Y-316325714D01*
X363332380Y-316325714D01*
X362808571Y-315516190D02*
X362808571Y-315849523D01*
X363332380Y-315849523D02*
X362332380Y-315849523D01*
X362332380Y-315373333D01*
X304197142Y-292117142D02*
X304149523Y-292164761D01*
X304006666Y-292212380D01*
X303911428Y-292212380D01*
X303768571Y-292164761D01*
X303673333Y-292069523D01*
X303625714Y-291974285D01*
X303578095Y-291783809D01*
X303578095Y-291640952D01*
X303625714Y-291450476D01*
X303673333Y-291355238D01*
X303768571Y-291260000D01*
X303911428Y-291212380D01*
X304006666Y-291212380D01*
X304149523Y-291260000D01*
X304197142Y-291307619D01*
X305149523Y-292212380D02*
X304578095Y-292212380D01*
X304863809Y-292212380D02*
X304863809Y-291212380D01*
X304768571Y-291355238D01*
X304673333Y-291450476D01*
X304578095Y-291498095D01*
X305530476Y-291307619D02*
X305578095Y-291260000D01*
X305673333Y-291212380D01*
X305911428Y-291212380D01*
X306006666Y-291260000D01*
X306054285Y-291307619D01*
X306101904Y-291402857D01*
X306101904Y-291498095D01*
X306054285Y-291640952D01*
X305482857Y-292212380D01*
X306101904Y-292212380D01*
X303292380Y-287812380D02*
X302720952Y-287812380D01*
X303006666Y-287812380D02*
X303006666Y-286812380D01*
X302911428Y-286955238D01*
X302816190Y-287050476D01*
X302720952Y-287098095D01*
X303911428Y-286812380D02*
X304006666Y-286812380D01*
X304101904Y-286860000D01*
X304149523Y-286907619D01*
X304197142Y-287002857D01*
X304244761Y-287193333D01*
X304244761Y-287431428D01*
X304197142Y-287621904D01*
X304149523Y-287717142D01*
X304101904Y-287764761D01*
X304006666Y-287812380D01*
X303911428Y-287812380D01*
X303816190Y-287764761D01*
X303768571Y-287717142D01*
X303720952Y-287621904D01*
X303673333Y-287431428D01*
X303673333Y-287193333D01*
X303720952Y-287002857D01*
X303768571Y-286907619D01*
X303816190Y-286860000D01*
X303911428Y-286812380D01*
X304863809Y-286812380D02*
X304959047Y-286812380D01*
X305054285Y-286860000D01*
X305101904Y-286907619D01*
X305149523Y-287002857D01*
X305197142Y-287193333D01*
X305197142Y-287431428D01*
X305149523Y-287621904D01*
X305101904Y-287717142D01*
X305054285Y-287764761D01*
X304959047Y-287812380D01*
X304863809Y-287812380D01*
X304768571Y-287764761D01*
X304720952Y-287717142D01*
X304673333Y-287621904D01*
X304625714Y-287431428D01*
X304625714Y-287193333D01*
X304673333Y-287002857D01*
X304720952Y-286907619D01*
X304768571Y-286860000D01*
X304863809Y-286812380D01*
X305625714Y-287145714D02*
X305625714Y-287812380D01*
X305625714Y-287240952D02*
X305673333Y-287193333D01*
X305768571Y-287145714D01*
X305911428Y-287145714D01*
X306006666Y-287193333D01*
X306054285Y-287288571D01*
X306054285Y-287812380D01*
X306863809Y-287288571D02*
X306530476Y-287288571D01*
X306530476Y-287812380D02*
X306530476Y-286812380D01*
X307006666Y-286812380D01*
X316897142Y-292117142D02*
X316849523Y-292164761D01*
X316706666Y-292212380D01*
X316611428Y-292212380D01*
X316468571Y-292164761D01*
X316373333Y-292069523D01*
X316325714Y-291974285D01*
X316278095Y-291783809D01*
X316278095Y-291640952D01*
X316325714Y-291450476D01*
X316373333Y-291355238D01*
X316468571Y-291260000D01*
X316611428Y-291212380D01*
X316706666Y-291212380D01*
X316849523Y-291260000D01*
X316897142Y-291307619D01*
X317849523Y-292212380D02*
X317278095Y-292212380D01*
X317563809Y-292212380D02*
X317563809Y-291212380D01*
X317468571Y-291355238D01*
X317373333Y-291450476D01*
X317278095Y-291498095D01*
X318801904Y-292212380D02*
X318230476Y-292212380D01*
X318516190Y-292212380D02*
X318516190Y-291212380D01*
X318420952Y-291355238D01*
X318325714Y-291450476D01*
X318230476Y-291498095D01*
X315992380Y-287812380D02*
X315420952Y-287812380D01*
X315706666Y-287812380D02*
X315706666Y-286812380D01*
X315611428Y-286955238D01*
X315516190Y-287050476D01*
X315420952Y-287098095D01*
X316611428Y-286812380D02*
X316706666Y-286812380D01*
X316801904Y-286860000D01*
X316849523Y-286907619D01*
X316897142Y-287002857D01*
X316944761Y-287193333D01*
X316944761Y-287431428D01*
X316897142Y-287621904D01*
X316849523Y-287717142D01*
X316801904Y-287764761D01*
X316706666Y-287812380D01*
X316611428Y-287812380D01*
X316516190Y-287764761D01*
X316468571Y-287717142D01*
X316420952Y-287621904D01*
X316373333Y-287431428D01*
X316373333Y-287193333D01*
X316420952Y-287002857D01*
X316468571Y-286907619D01*
X316516190Y-286860000D01*
X316611428Y-286812380D01*
X317563809Y-286812380D02*
X317659047Y-286812380D01*
X317754285Y-286860000D01*
X317801904Y-286907619D01*
X317849523Y-287002857D01*
X317897142Y-287193333D01*
X317897142Y-287431428D01*
X317849523Y-287621904D01*
X317801904Y-287717142D01*
X317754285Y-287764761D01*
X317659047Y-287812380D01*
X317563809Y-287812380D01*
X317468571Y-287764761D01*
X317420952Y-287717142D01*
X317373333Y-287621904D01*
X317325714Y-287431428D01*
X317325714Y-287193333D01*
X317373333Y-287002857D01*
X317420952Y-286907619D01*
X317468571Y-286860000D01*
X317563809Y-286812380D01*
X318325714Y-287145714D02*
X318325714Y-287812380D01*
X318325714Y-287240952D02*
X318373333Y-287193333D01*
X318468571Y-287145714D01*
X318611428Y-287145714D01*
X318706666Y-287193333D01*
X318754285Y-287288571D01*
X318754285Y-287812380D01*
X319563809Y-287288571D02*
X319230476Y-287288571D01*
X319230476Y-287812380D02*
X319230476Y-286812380D01*
X319706666Y-286812380D01*
X291497142Y-292117142D02*
X291449523Y-292164761D01*
X291306666Y-292212380D01*
X291211428Y-292212380D01*
X291068571Y-292164761D01*
X290973333Y-292069523D01*
X290925714Y-291974285D01*
X290878095Y-291783809D01*
X290878095Y-291640952D01*
X290925714Y-291450476D01*
X290973333Y-291355238D01*
X291068571Y-291260000D01*
X291211428Y-291212380D01*
X291306666Y-291212380D01*
X291449523Y-291260000D01*
X291497142Y-291307619D01*
X292449523Y-292212380D02*
X291878095Y-292212380D01*
X292163809Y-292212380D02*
X292163809Y-291212380D01*
X292068571Y-291355238D01*
X291973333Y-291450476D01*
X291878095Y-291498095D01*
X293068571Y-291212380D02*
X293163809Y-291212380D01*
X293259047Y-291260000D01*
X293306666Y-291307619D01*
X293354285Y-291402857D01*
X293401904Y-291593333D01*
X293401904Y-291831428D01*
X293354285Y-292021904D01*
X293306666Y-292117142D01*
X293259047Y-292164761D01*
X293163809Y-292212380D01*
X293068571Y-292212380D01*
X292973333Y-292164761D01*
X292925714Y-292117142D01*
X292878095Y-292021904D01*
X292830476Y-291831428D01*
X292830476Y-291593333D01*
X292878095Y-291402857D01*
X292925714Y-291307619D01*
X292973333Y-291260000D01*
X293068571Y-291212380D01*
X290592380Y-287812380D02*
X290020952Y-287812380D01*
X290306666Y-287812380D02*
X290306666Y-286812380D01*
X290211428Y-286955238D01*
X290116190Y-287050476D01*
X290020952Y-287098095D01*
X291211428Y-286812380D02*
X291306666Y-286812380D01*
X291401904Y-286860000D01*
X291449523Y-286907619D01*
X291497142Y-287002857D01*
X291544761Y-287193333D01*
X291544761Y-287431428D01*
X291497142Y-287621904D01*
X291449523Y-287717142D01*
X291401904Y-287764761D01*
X291306666Y-287812380D01*
X291211428Y-287812380D01*
X291116190Y-287764761D01*
X291068571Y-287717142D01*
X291020952Y-287621904D01*
X290973333Y-287431428D01*
X290973333Y-287193333D01*
X291020952Y-287002857D01*
X291068571Y-286907619D01*
X291116190Y-286860000D01*
X291211428Y-286812380D01*
X292163809Y-286812380D02*
X292259047Y-286812380D01*
X292354285Y-286860000D01*
X292401904Y-286907619D01*
X292449523Y-287002857D01*
X292497142Y-287193333D01*
X292497142Y-287431428D01*
X292449523Y-287621904D01*
X292401904Y-287717142D01*
X292354285Y-287764761D01*
X292259047Y-287812380D01*
X292163809Y-287812380D01*
X292068571Y-287764761D01*
X292020952Y-287717142D01*
X291973333Y-287621904D01*
X291925714Y-287431428D01*
X291925714Y-287193333D01*
X291973333Y-287002857D01*
X292020952Y-286907619D01*
X292068571Y-286860000D01*
X292163809Y-286812380D01*
X292925714Y-287145714D02*
X292925714Y-287812380D01*
X292925714Y-287240952D02*
X292973333Y-287193333D01*
X293068571Y-287145714D01*
X293211428Y-287145714D01*
X293306666Y-287193333D01*
X293354285Y-287288571D01*
X293354285Y-287812380D01*
X294163809Y-287288571D02*
X293830476Y-287288571D01*
X293830476Y-287812380D02*
X293830476Y-286812380D01*
X294306666Y-286812380D01*
X330073333Y-292117142D02*
X330025714Y-292164761D01*
X329882857Y-292212380D01*
X329787619Y-292212380D01*
X329644761Y-292164761D01*
X329549523Y-292069523D01*
X329501904Y-291974285D01*
X329454285Y-291783809D01*
X329454285Y-291640952D01*
X329501904Y-291450476D01*
X329549523Y-291355238D01*
X329644761Y-291260000D01*
X329787619Y-291212380D01*
X329882857Y-291212380D01*
X330025714Y-291260000D01*
X330073333Y-291307619D01*
X330549523Y-292212380D02*
X330740000Y-292212380D01*
X330835238Y-292164761D01*
X330882857Y-292117142D01*
X330978095Y-291974285D01*
X331025714Y-291783809D01*
X331025714Y-291402857D01*
X330978095Y-291307619D01*
X330930476Y-291260000D01*
X330835238Y-291212380D01*
X330644761Y-291212380D01*
X330549523Y-291260000D01*
X330501904Y-291307619D01*
X330454285Y-291402857D01*
X330454285Y-291640952D01*
X330501904Y-291736190D01*
X330549523Y-291783809D01*
X330644761Y-291831428D01*
X330835238Y-291831428D01*
X330930476Y-291783809D01*
X330978095Y-291736190D01*
X331025714Y-291640952D01*
X328692380Y-287812380D02*
X328120952Y-287812380D01*
X328406666Y-287812380D02*
X328406666Y-286812380D01*
X328311428Y-286955238D01*
X328216190Y-287050476D01*
X328120952Y-287098095D01*
X329311428Y-286812380D02*
X329406666Y-286812380D01*
X329501904Y-286860000D01*
X329549523Y-286907619D01*
X329597142Y-287002857D01*
X329644761Y-287193333D01*
X329644761Y-287431428D01*
X329597142Y-287621904D01*
X329549523Y-287717142D01*
X329501904Y-287764761D01*
X329406666Y-287812380D01*
X329311428Y-287812380D01*
X329216190Y-287764761D01*
X329168571Y-287717142D01*
X329120952Y-287621904D01*
X329073333Y-287431428D01*
X329073333Y-287193333D01*
X329120952Y-287002857D01*
X329168571Y-286907619D01*
X329216190Y-286860000D01*
X329311428Y-286812380D01*
X330263809Y-286812380D02*
X330359047Y-286812380D01*
X330454285Y-286860000D01*
X330501904Y-286907619D01*
X330549523Y-287002857D01*
X330597142Y-287193333D01*
X330597142Y-287431428D01*
X330549523Y-287621904D01*
X330501904Y-287717142D01*
X330454285Y-287764761D01*
X330359047Y-287812380D01*
X330263809Y-287812380D01*
X330168571Y-287764761D01*
X330120952Y-287717142D01*
X330073333Y-287621904D01*
X330025714Y-287431428D01*
X330025714Y-287193333D01*
X330073333Y-287002857D01*
X330120952Y-286907619D01*
X330168571Y-286860000D01*
X330263809Y-286812380D01*
X331025714Y-287145714D02*
X331025714Y-287812380D01*
X331025714Y-287240952D02*
X331073333Y-287193333D01*
X331168571Y-287145714D01*
X331311428Y-287145714D01*
X331406666Y-287193333D01*
X331454285Y-287288571D01*
X331454285Y-287812380D01*
X332263809Y-287288571D02*
X331930476Y-287288571D01*
X331930476Y-287812380D02*
X331930476Y-286812380D01*
X332406666Y-286812380D01*
X375793333Y-330217142D02*
X375745714Y-330264761D01*
X375602857Y-330312380D01*
X375507619Y-330312380D01*
X375364761Y-330264761D01*
X375269523Y-330169523D01*
X375221904Y-330074285D01*
X375174285Y-329883809D01*
X375174285Y-329740952D01*
X375221904Y-329550476D01*
X375269523Y-329455238D01*
X375364761Y-329360000D01*
X375507619Y-329312380D01*
X375602857Y-329312380D01*
X375745714Y-329360000D01*
X375793333Y-329407619D01*
X376650476Y-329312380D02*
X376460000Y-329312380D01*
X376364761Y-329360000D01*
X376317142Y-329407619D01*
X376221904Y-329550476D01*
X376174285Y-329740952D01*
X376174285Y-330121904D01*
X376221904Y-330217142D01*
X376269523Y-330264761D01*
X376364761Y-330312380D01*
X376555238Y-330312380D01*
X376650476Y-330264761D01*
X376698095Y-330217142D01*
X376745714Y-330121904D01*
X376745714Y-329883809D01*
X376698095Y-329788571D01*
X376650476Y-329740952D01*
X376555238Y-329693333D01*
X376364761Y-329693333D01*
X376269523Y-329740952D01*
X376221904Y-329788571D01*
X376174285Y-329883809D01*
X380722380Y-328112380D02*
X380150952Y-328112380D01*
X380436666Y-328112380D02*
X380436666Y-327112380D01*
X380341428Y-327255238D01*
X380246190Y-327350476D01*
X380150952Y-327398095D01*
X381341428Y-327112380D02*
X381436666Y-327112380D01*
X381531904Y-327160000D01*
X381579523Y-327207619D01*
X381627142Y-327302857D01*
X381674761Y-327493333D01*
X381674761Y-327731428D01*
X381627142Y-327921904D01*
X381579523Y-328017142D01*
X381531904Y-328064761D01*
X381436666Y-328112380D01*
X381341428Y-328112380D01*
X381246190Y-328064761D01*
X381198571Y-328017142D01*
X381150952Y-327921904D01*
X381103333Y-327731428D01*
X381103333Y-327493333D01*
X381150952Y-327302857D01*
X381198571Y-327207619D01*
X381246190Y-327160000D01*
X381341428Y-327112380D01*
X382293809Y-327112380D02*
X382389047Y-327112380D01*
X382484285Y-327160000D01*
X382531904Y-327207619D01*
X382579523Y-327302857D01*
X382627142Y-327493333D01*
X382627142Y-327731428D01*
X382579523Y-327921904D01*
X382531904Y-328017142D01*
X382484285Y-328064761D01*
X382389047Y-328112380D01*
X382293809Y-328112380D01*
X382198571Y-328064761D01*
X382150952Y-328017142D01*
X382103333Y-327921904D01*
X382055714Y-327731428D01*
X382055714Y-327493333D01*
X382103333Y-327302857D01*
X382150952Y-327207619D01*
X382198571Y-327160000D01*
X382293809Y-327112380D01*
X383055714Y-327445714D02*
X383055714Y-328112380D01*
X383055714Y-327540952D02*
X383103333Y-327493333D01*
X383198571Y-327445714D01*
X383341428Y-327445714D01*
X383436666Y-327493333D01*
X383484285Y-327588571D01*
X383484285Y-328112380D01*
X384293809Y-327588571D02*
X383960476Y-327588571D01*
X383960476Y-328112380D02*
X383960476Y-327112380D01*
X384436666Y-327112380D01*
X355473333Y-330217142D02*
X355425714Y-330264761D01*
X355282857Y-330312380D01*
X355187619Y-330312380D01*
X355044761Y-330264761D01*
X354949523Y-330169523D01*
X354901904Y-330074285D01*
X354854285Y-329883809D01*
X354854285Y-329740952D01*
X354901904Y-329550476D01*
X354949523Y-329455238D01*
X355044761Y-329360000D01*
X355187619Y-329312380D01*
X355282857Y-329312380D01*
X355425714Y-329360000D01*
X355473333Y-329407619D01*
X356378095Y-329312380D02*
X355901904Y-329312380D01*
X355854285Y-329788571D01*
X355901904Y-329740952D01*
X355997142Y-329693333D01*
X356235238Y-329693333D01*
X356330476Y-329740952D01*
X356378095Y-329788571D01*
X356425714Y-329883809D01*
X356425714Y-330121904D01*
X356378095Y-330217142D01*
X356330476Y-330264761D01*
X356235238Y-330312380D01*
X355997142Y-330312380D01*
X355901904Y-330264761D01*
X355854285Y-330217142D01*
X354092380Y-325912380D02*
X353520952Y-325912380D01*
X353806666Y-325912380D02*
X353806666Y-324912380D01*
X353711428Y-325055238D01*
X353616190Y-325150476D01*
X353520952Y-325198095D01*
X354711428Y-324912380D02*
X354806666Y-324912380D01*
X354901904Y-324960000D01*
X354949523Y-325007619D01*
X354997142Y-325102857D01*
X355044761Y-325293333D01*
X355044761Y-325531428D01*
X354997142Y-325721904D01*
X354949523Y-325817142D01*
X354901904Y-325864761D01*
X354806666Y-325912380D01*
X354711428Y-325912380D01*
X354616190Y-325864761D01*
X354568571Y-325817142D01*
X354520952Y-325721904D01*
X354473333Y-325531428D01*
X354473333Y-325293333D01*
X354520952Y-325102857D01*
X354568571Y-325007619D01*
X354616190Y-324960000D01*
X354711428Y-324912380D01*
X355663809Y-324912380D02*
X355759047Y-324912380D01*
X355854285Y-324960000D01*
X355901904Y-325007619D01*
X355949523Y-325102857D01*
X355997142Y-325293333D01*
X355997142Y-325531428D01*
X355949523Y-325721904D01*
X355901904Y-325817142D01*
X355854285Y-325864761D01*
X355759047Y-325912380D01*
X355663809Y-325912380D01*
X355568571Y-325864761D01*
X355520952Y-325817142D01*
X355473333Y-325721904D01*
X355425714Y-325531428D01*
X355425714Y-325293333D01*
X355473333Y-325102857D01*
X355520952Y-325007619D01*
X355568571Y-324960000D01*
X355663809Y-324912380D01*
X356425714Y-325245714D02*
X356425714Y-325912380D01*
X356425714Y-325340952D02*
X356473333Y-325293333D01*
X356568571Y-325245714D01*
X356711428Y-325245714D01*
X356806666Y-325293333D01*
X356854285Y-325388571D01*
X356854285Y-325912380D01*
X357663809Y-325388571D02*
X357330476Y-325388571D01*
X357330476Y-325912380D02*
X357330476Y-324912380D01*
X357806666Y-324912380D01*
X394397142Y-297386666D02*
X394444761Y-297434285D01*
X394492380Y-297577142D01*
X394492380Y-297672380D01*
X394444761Y-297815238D01*
X394349523Y-297910476D01*
X394254285Y-297958095D01*
X394063809Y-298005714D01*
X393920952Y-298005714D01*
X393730476Y-297958095D01*
X393635238Y-297910476D01*
X393540000Y-297815238D01*
X393492380Y-297672380D01*
X393492380Y-297577142D01*
X393540000Y-297434285D01*
X393587619Y-297386666D01*
X393825714Y-296529523D02*
X394492380Y-296529523D01*
X393444761Y-296767619D02*
X394159047Y-297005714D01*
X394159047Y-296386666D01*
X398892380Y-298767619D02*
X398892380Y-299339047D01*
X398892380Y-299053333D02*
X397892380Y-299053333D01*
X398035238Y-299148571D01*
X398130476Y-299243809D01*
X398178095Y-299339047D01*
X397892380Y-298148571D02*
X397892380Y-298053333D01*
X397940000Y-297958095D01*
X397987619Y-297910476D01*
X398082857Y-297862857D01*
X398273333Y-297815238D01*
X398511428Y-297815238D01*
X398701904Y-297862857D01*
X398797142Y-297910476D01*
X398844761Y-297958095D01*
X398892380Y-298053333D01*
X398892380Y-298148571D01*
X398844761Y-298243809D01*
X398797142Y-298291428D01*
X398701904Y-298339047D01*
X398511428Y-298386666D01*
X398273333Y-298386666D01*
X398082857Y-298339047D01*
X397987619Y-298291428D01*
X397940000Y-298243809D01*
X397892380Y-298148571D01*
X397892380Y-297196190D02*
X397892380Y-297100952D01*
X397940000Y-297005714D01*
X397987619Y-296958095D01*
X398082857Y-296910476D01*
X398273333Y-296862857D01*
X398511428Y-296862857D01*
X398701904Y-296910476D01*
X398797142Y-296958095D01*
X398844761Y-297005714D01*
X398892380Y-297100952D01*
X398892380Y-297196190D01*
X398844761Y-297291428D01*
X398797142Y-297339047D01*
X398701904Y-297386666D01*
X398511428Y-297434285D01*
X398273333Y-297434285D01*
X398082857Y-297386666D01*
X397987619Y-297339047D01*
X397940000Y-297291428D01*
X397892380Y-297196190D01*
X398225714Y-296434285D02*
X398892380Y-296434285D01*
X398320952Y-296434285D02*
X398273333Y-296386666D01*
X398225714Y-296291428D01*
X398225714Y-296148571D01*
X398273333Y-296053333D01*
X398368571Y-296005714D01*
X398892380Y-296005714D01*
X398368571Y-295196190D02*
X398368571Y-295529523D01*
X398892380Y-295529523D02*
X397892380Y-295529523D01*
X397892380Y-295053333D01*
X324993333Y-330217142D02*
X324945714Y-330264761D01*
X324802857Y-330312380D01*
X324707619Y-330312380D01*
X324564761Y-330264761D01*
X324469523Y-330169523D01*
X324421904Y-330074285D01*
X324374285Y-329883809D01*
X324374285Y-329740952D01*
X324421904Y-329550476D01*
X324469523Y-329455238D01*
X324564761Y-329360000D01*
X324707619Y-329312380D01*
X324802857Y-329312380D01*
X324945714Y-329360000D01*
X324993333Y-329407619D01*
X325326666Y-329312380D02*
X325945714Y-329312380D01*
X325612380Y-329693333D01*
X325755238Y-329693333D01*
X325850476Y-329740952D01*
X325898095Y-329788571D01*
X325945714Y-329883809D01*
X325945714Y-330121904D01*
X325898095Y-330217142D01*
X325850476Y-330264761D01*
X325755238Y-330312380D01*
X325469523Y-330312380D01*
X325374285Y-330264761D01*
X325326666Y-330217142D01*
X323612380Y-325912380D02*
X323040952Y-325912380D01*
X323326666Y-325912380D02*
X323326666Y-324912380D01*
X323231428Y-325055238D01*
X323136190Y-325150476D01*
X323040952Y-325198095D01*
X324231428Y-324912380D02*
X324326666Y-324912380D01*
X324421904Y-324960000D01*
X324469523Y-325007619D01*
X324517142Y-325102857D01*
X324564761Y-325293333D01*
X324564761Y-325531428D01*
X324517142Y-325721904D01*
X324469523Y-325817142D01*
X324421904Y-325864761D01*
X324326666Y-325912380D01*
X324231428Y-325912380D01*
X324136190Y-325864761D01*
X324088571Y-325817142D01*
X324040952Y-325721904D01*
X323993333Y-325531428D01*
X323993333Y-325293333D01*
X324040952Y-325102857D01*
X324088571Y-325007619D01*
X324136190Y-324960000D01*
X324231428Y-324912380D01*
X325183809Y-324912380D02*
X325279047Y-324912380D01*
X325374285Y-324960000D01*
X325421904Y-325007619D01*
X325469523Y-325102857D01*
X325517142Y-325293333D01*
X325517142Y-325531428D01*
X325469523Y-325721904D01*
X325421904Y-325817142D01*
X325374285Y-325864761D01*
X325279047Y-325912380D01*
X325183809Y-325912380D01*
X325088571Y-325864761D01*
X325040952Y-325817142D01*
X324993333Y-325721904D01*
X324945714Y-325531428D01*
X324945714Y-325293333D01*
X324993333Y-325102857D01*
X325040952Y-325007619D01*
X325088571Y-324960000D01*
X325183809Y-324912380D01*
X325945714Y-325245714D02*
X325945714Y-325912380D01*
X325945714Y-325340952D02*
X325993333Y-325293333D01*
X326088571Y-325245714D01*
X326231428Y-325245714D01*
X326326666Y-325293333D01*
X326374285Y-325388571D01*
X326374285Y-325912380D01*
X327183809Y-325388571D02*
X326850476Y-325388571D01*
X326850476Y-325912380D02*
X326850476Y-324912380D01*
X327326666Y-324912380D01*
X294433333Y-330217142D02*
X294385714Y-330264761D01*
X294242857Y-330312380D01*
X294147619Y-330312380D01*
X294004761Y-330264761D01*
X293909523Y-330169523D01*
X293861904Y-330074285D01*
X293814285Y-329883809D01*
X293814285Y-329740952D01*
X293861904Y-329550476D01*
X293909523Y-329455238D01*
X294004761Y-329360000D01*
X294147619Y-329312380D01*
X294242857Y-329312380D01*
X294385714Y-329360000D01*
X294433333Y-329407619D01*
X294814285Y-329407619D02*
X294861904Y-329360000D01*
X294957142Y-329312380D01*
X295195238Y-329312380D01*
X295290476Y-329360000D01*
X295338095Y-329407619D01*
X295385714Y-329502857D01*
X295385714Y-329598095D01*
X295338095Y-329740952D01*
X294766666Y-330312380D01*
X295385714Y-330312380D01*
X293052380Y-325912380D02*
X292480952Y-325912380D01*
X292766666Y-325912380D02*
X292766666Y-324912380D01*
X292671428Y-325055238D01*
X292576190Y-325150476D01*
X292480952Y-325198095D01*
X293671428Y-324912380D02*
X293766666Y-324912380D01*
X293861904Y-324960000D01*
X293909523Y-325007619D01*
X293957142Y-325102857D01*
X294004761Y-325293333D01*
X294004761Y-325531428D01*
X293957142Y-325721904D01*
X293909523Y-325817142D01*
X293861904Y-325864761D01*
X293766666Y-325912380D01*
X293671428Y-325912380D01*
X293576190Y-325864761D01*
X293528571Y-325817142D01*
X293480952Y-325721904D01*
X293433333Y-325531428D01*
X293433333Y-325293333D01*
X293480952Y-325102857D01*
X293528571Y-325007619D01*
X293576190Y-324960000D01*
X293671428Y-324912380D01*
X294623809Y-324912380D02*
X294719047Y-324912380D01*
X294814285Y-324960000D01*
X294861904Y-325007619D01*
X294909523Y-325102857D01*
X294957142Y-325293333D01*
X294957142Y-325531428D01*
X294909523Y-325721904D01*
X294861904Y-325817142D01*
X294814285Y-325864761D01*
X294719047Y-325912380D01*
X294623809Y-325912380D01*
X294528571Y-325864761D01*
X294480952Y-325817142D01*
X294433333Y-325721904D01*
X294385714Y-325531428D01*
X294385714Y-325293333D01*
X294433333Y-325102857D01*
X294480952Y-325007619D01*
X294528571Y-324960000D01*
X294623809Y-324912380D01*
X295385714Y-325245714D02*
X295385714Y-325912380D01*
X295385714Y-325340952D02*
X295433333Y-325293333D01*
X295528571Y-325245714D01*
X295671428Y-325245714D01*
X295766666Y-325293333D01*
X295814285Y-325388571D01*
X295814285Y-325912380D01*
X296623809Y-325388571D02*
X296290476Y-325388571D01*
X296290476Y-325912380D02*
X296290476Y-324912380D01*
X296766666Y-324912380D01*
X395803333Y-326807142D02*
X395755714Y-326854761D01*
X395612857Y-326902380D01*
X395517619Y-326902380D01*
X395374761Y-326854761D01*
X395279523Y-326759523D01*
X395231904Y-326664285D01*
X395184285Y-326473809D01*
X395184285Y-326330952D01*
X395231904Y-326140476D01*
X395279523Y-326045238D01*
X395374761Y-325950000D01*
X395517619Y-325902380D01*
X395612857Y-325902380D01*
X395755714Y-325950000D01*
X395803333Y-325997619D01*
X396755714Y-326902380D02*
X396184285Y-326902380D01*
X396470000Y-326902380D02*
X396470000Y-325902380D01*
X396374761Y-326045238D01*
X396279523Y-326140476D01*
X396184285Y-326188095D01*
X394827142Y-334402380D02*
X394255714Y-334402380D01*
X394541428Y-334402380D02*
X394541428Y-333402380D01*
X394446190Y-333545238D01*
X394350952Y-333640476D01*
X394255714Y-333688095D01*
X395446190Y-333402380D02*
X395541428Y-333402380D01*
X395636666Y-333450000D01*
X395684285Y-333497619D01*
X395731904Y-333592857D01*
X395779523Y-333783333D01*
X395779523Y-334021428D01*
X395731904Y-334211904D01*
X395684285Y-334307142D01*
X395636666Y-334354761D01*
X395541428Y-334402380D01*
X395446190Y-334402380D01*
X395350952Y-334354761D01*
X395303333Y-334307142D01*
X395255714Y-334211904D01*
X395208095Y-334021428D01*
X395208095Y-333783333D01*
X395255714Y-333592857D01*
X395303333Y-333497619D01*
X395350952Y-333450000D01*
X395446190Y-333402380D01*
X396208095Y-333735714D02*
X396208095Y-334735714D01*
X396684285Y-334259523D02*
X396731904Y-334354761D01*
X396827142Y-334402380D01*
X396208095Y-334259523D02*
X396255714Y-334354761D01*
X396350952Y-334402380D01*
X396541428Y-334402380D01*
X396636666Y-334354761D01*
X396684285Y-334259523D01*
X396684285Y-333735714D01*
X397589047Y-333878571D02*
X397255714Y-333878571D01*
X397255714Y-334402380D02*
X397255714Y-333402380D01*
X397731904Y-333402380D01*
M02*
