G04 #@! TF.GenerationSoftware,KiCad,Pcbnew,(5.1.0-0)*
G04 #@! TF.CreationDate,2019-10-26T12:31:13-07:00*
G04 #@! TF.ProjectId,MainBoard,4d61696e-426f-4617-9264-2e6b69636164,rev?*
G04 #@! TF.SameCoordinates,Original*
G04 #@! TF.FileFunction,Copper,L4,Inr*
G04 #@! TF.FilePolarity,Positive*
%FSLAX46Y46*%
G04 Gerber Fmt 4.6, Leading zero omitted, Abs format (unit mm)*
G04 Created by KiCad (PCBNEW (5.1.0-0)) date 2019-10-26 12:31:13*
%MOMM*%
%LPD*%
G04 APERTURE LIST*
%ADD10O,1.600000X1.600000*%
%ADD11C,1.600000*%
%ADD12R,1.600000X1.600000*%
%ADD13O,1.700000X1.700000*%
%ADD14R,1.700000X1.700000*%
%ADD15C,2.500000*%
%ADD16R,2.500000X2.500000*%
%ADD17C,6.400000*%
%ADD18R,1.300000X1.300000*%
%ADD19C,1.300000*%
%ADD20C,2.000000*%
%ADD21C,1.620000*%
%ADD22C,1.800000*%
%ADD23R,1.800000X1.800000*%
%ADD24C,0.450000*%
%ADD25C,0.127000*%
G04 APERTURE END LIST*
D10*
X389890000Y-330327000D03*
D11*
X382270000Y-330327000D03*
D10*
X304800000Y-121920000D03*
X281940000Y-114300000D03*
X302260000Y-121920000D03*
X284480000Y-114300000D03*
X299720000Y-121920000D03*
X287020000Y-114300000D03*
X297180000Y-121920000D03*
X289560000Y-114300000D03*
X294640000Y-121920000D03*
X292100000Y-114300000D03*
X292100000Y-121920000D03*
X294640000Y-114300000D03*
X289560000Y-121920000D03*
X297180000Y-114300000D03*
X287020000Y-121920000D03*
X299720000Y-114300000D03*
X284480000Y-121920000D03*
X302260000Y-114300000D03*
X281940000Y-121920000D03*
D12*
X304800000Y-114300000D03*
D10*
X269240000Y-121920000D03*
X246380000Y-114300000D03*
X266700000Y-121920000D03*
X248920000Y-114300000D03*
X264160000Y-121920000D03*
X251460000Y-114300000D03*
X261620000Y-121920000D03*
X254000000Y-114300000D03*
X259080000Y-121920000D03*
X256540000Y-114300000D03*
X256540000Y-121920000D03*
X259080000Y-114300000D03*
X254000000Y-121920000D03*
X261620000Y-114300000D03*
X251460000Y-121920000D03*
X264160000Y-114300000D03*
X248920000Y-121920000D03*
X266700000Y-114300000D03*
X246380000Y-121920000D03*
D12*
X269240000Y-114300000D03*
D10*
X233680000Y-121920000D03*
X210820000Y-114300000D03*
X231140000Y-121920000D03*
X213360000Y-114300000D03*
X228600000Y-121920000D03*
X215900000Y-114300000D03*
X226060000Y-121920000D03*
X218440000Y-114300000D03*
X223520000Y-121920000D03*
X220980000Y-114300000D03*
X220980000Y-121920000D03*
X223520000Y-114300000D03*
X218440000Y-121920000D03*
X226060000Y-114300000D03*
X215900000Y-121920000D03*
X228600000Y-114300000D03*
X213360000Y-121920000D03*
X231140000Y-114300000D03*
X210820000Y-121920000D03*
D12*
X233680000Y-114300000D03*
D10*
X198120000Y-121920000D03*
X175260000Y-114300000D03*
X195580000Y-121920000D03*
X177800000Y-114300000D03*
X193040000Y-121920000D03*
X180340000Y-114300000D03*
X190500000Y-121920000D03*
X182880000Y-114300000D03*
X187960000Y-121920000D03*
X185420000Y-114300000D03*
X185420000Y-121920000D03*
X187960000Y-114300000D03*
X182880000Y-121920000D03*
X190500000Y-114300000D03*
X180340000Y-121920000D03*
X193040000Y-114300000D03*
X177800000Y-121920000D03*
X195580000Y-114300000D03*
X175260000Y-121920000D03*
D12*
X198120000Y-114300000D03*
D13*
X243840000Y-129540000D03*
X246380000Y-129540000D03*
X248920000Y-129540000D03*
X251460000Y-129540000D03*
X254000000Y-129540000D03*
X256540000Y-129540000D03*
X259080000Y-129540000D03*
X261620000Y-129540000D03*
X264160000Y-129540000D03*
X266700000Y-129540000D03*
X269240000Y-129540000D03*
X271780000Y-129540000D03*
X274320000Y-129540000D03*
X276860000Y-129540000D03*
X279400000Y-129540000D03*
X281940000Y-129540000D03*
D14*
X284480000Y-129540000D03*
D11*
X311150000Y-115650000D03*
X311150000Y-120650000D03*
X275590000Y-115650000D03*
X275590000Y-120650000D03*
X240030000Y-115650000D03*
X240030000Y-120650000D03*
X204470000Y-115650000D03*
X204470000Y-120650000D03*
D10*
X358540000Y-220980000D03*
X391560000Y-228600000D03*
X361080000Y-220980000D03*
X389020000Y-228600000D03*
X363620000Y-220980000D03*
X386480000Y-228600000D03*
X366160000Y-220980000D03*
X383940000Y-228600000D03*
X368700000Y-220980000D03*
X381400000Y-228600000D03*
X371240000Y-220980000D03*
X378860000Y-228600000D03*
X373780000Y-220980000D03*
X376320000Y-228600000D03*
X376320000Y-220980000D03*
X373780000Y-228600000D03*
X378860000Y-220980000D03*
X371240000Y-228600000D03*
X381400000Y-220980000D03*
X368700000Y-228600000D03*
X383940000Y-220980000D03*
X366160000Y-228600000D03*
X386480000Y-220980000D03*
X363620000Y-228600000D03*
X389020000Y-220980000D03*
X361080000Y-228600000D03*
X391560000Y-220980000D03*
D12*
X358540000Y-228600000D03*
D10*
X312820000Y-220980000D03*
X345840000Y-228600000D03*
X315360000Y-220980000D03*
X343300000Y-228600000D03*
X317900000Y-220980000D03*
X340760000Y-228600000D03*
X320440000Y-220980000D03*
X338220000Y-228600000D03*
X322980000Y-220980000D03*
X335680000Y-228600000D03*
X325520000Y-220980000D03*
X333140000Y-228600000D03*
X328060000Y-220980000D03*
X330600000Y-228600000D03*
X330600000Y-220980000D03*
X328060000Y-228600000D03*
X333140000Y-220980000D03*
X325520000Y-228600000D03*
X335680000Y-220980000D03*
X322980000Y-228600000D03*
X338220000Y-220980000D03*
X320440000Y-228600000D03*
X340760000Y-220980000D03*
X317900000Y-228600000D03*
X343300000Y-220980000D03*
X315360000Y-228600000D03*
X345840000Y-220980000D03*
D12*
X312820000Y-228600000D03*
D13*
X347980000Y-86360000D03*
X347980000Y-88900000D03*
X350520000Y-86360000D03*
X350520000Y-88900000D03*
X353060000Y-86360000D03*
X353060000Y-88900000D03*
X355600000Y-86360000D03*
X355600000Y-88900000D03*
X358140000Y-86360000D03*
X358140000Y-88900000D03*
X360680000Y-86360000D03*
X360680000Y-88900000D03*
X363220000Y-86360000D03*
X363220000Y-88900000D03*
X365760000Y-86360000D03*
X365760000Y-88900000D03*
X368300000Y-86360000D03*
X368300000Y-88900000D03*
X370840000Y-86360000D03*
X370840000Y-88900000D03*
X373380000Y-86360000D03*
X373380000Y-88900000D03*
X375920000Y-86360000D03*
X375920000Y-88900000D03*
X378460000Y-86360000D03*
X378460000Y-88900000D03*
X381000000Y-86360000D03*
X381000000Y-88900000D03*
X383540000Y-86360000D03*
X383540000Y-88900000D03*
X386080000Y-86360000D03*
X386080000Y-88900000D03*
X388620000Y-86360000D03*
X388620000Y-88900000D03*
X391160000Y-86360000D03*
X391160000Y-88900000D03*
X393700000Y-86360000D03*
X393700000Y-88900000D03*
X396240000Y-86360000D03*
D14*
X396240000Y-88900000D03*
D11*
X351790000Y-227250000D03*
X351790000Y-222250000D03*
X306070000Y-227250000D03*
X306070000Y-222250000D03*
D13*
X355600000Y-171450000D03*
X358140000Y-171450000D03*
X360680000Y-171450000D03*
X363220000Y-171450000D03*
X365760000Y-171450000D03*
X368300000Y-171450000D03*
X370840000Y-171450000D03*
X373380000Y-171450000D03*
X375920000Y-171450000D03*
X378460000Y-171450000D03*
X381000000Y-171450000D03*
X383540000Y-171450000D03*
X386080000Y-171450000D03*
X388620000Y-171450000D03*
X391160000Y-171450000D03*
X393700000Y-171450000D03*
D14*
X396240000Y-171450000D03*
D10*
X347980000Y-200660000D03*
X365760000Y-208280000D03*
X350520000Y-200660000D03*
X363220000Y-208280000D03*
X353060000Y-200660000D03*
X360680000Y-208280000D03*
X355600000Y-200660000D03*
X358140000Y-208280000D03*
X358140000Y-200660000D03*
X355600000Y-208280000D03*
X360680000Y-200660000D03*
X353060000Y-208280000D03*
X363220000Y-200660000D03*
X350520000Y-208280000D03*
X365760000Y-200660000D03*
D12*
X347980000Y-208280000D03*
D10*
X378460000Y-200660000D03*
X396240000Y-208280000D03*
X381000000Y-200660000D03*
X393700000Y-208280000D03*
X383540000Y-200660000D03*
X391160000Y-208280000D03*
X386080000Y-200660000D03*
X388620000Y-208280000D03*
X388620000Y-200660000D03*
X386080000Y-208280000D03*
X391160000Y-200660000D03*
X383540000Y-208280000D03*
X393700000Y-200660000D03*
X381000000Y-208280000D03*
X396240000Y-200660000D03*
D12*
X378460000Y-208280000D03*
D10*
X312420000Y-187960000D03*
X335280000Y-195580000D03*
X314960000Y-187960000D03*
X332740000Y-195580000D03*
X317500000Y-187960000D03*
X330200000Y-195580000D03*
X320040000Y-187960000D03*
X327660000Y-195580000D03*
X322580000Y-187960000D03*
X325120000Y-195580000D03*
X325120000Y-187960000D03*
X322580000Y-195580000D03*
X327660000Y-187960000D03*
X320040000Y-195580000D03*
X330200000Y-187960000D03*
X317500000Y-195580000D03*
X332740000Y-187960000D03*
X314960000Y-195580000D03*
X335280000Y-187960000D03*
D12*
X312420000Y-195580000D03*
D10*
X347980000Y-187960000D03*
X365760000Y-195580000D03*
X350520000Y-187960000D03*
X363220000Y-195580000D03*
X353060000Y-187960000D03*
X360680000Y-195580000D03*
X355600000Y-187960000D03*
X358140000Y-195580000D03*
X358140000Y-187960000D03*
X355600000Y-195580000D03*
X360680000Y-187960000D03*
X353060000Y-195580000D03*
X363220000Y-187960000D03*
X350520000Y-195580000D03*
X365760000Y-187960000D03*
D12*
X347980000Y-195580000D03*
D10*
X312420000Y-200660000D03*
X335280000Y-208280000D03*
X314960000Y-200660000D03*
X332740000Y-208280000D03*
X317500000Y-200660000D03*
X330200000Y-208280000D03*
X320040000Y-200660000D03*
X327660000Y-208280000D03*
X322580000Y-200660000D03*
X325120000Y-208280000D03*
X325120000Y-200660000D03*
X322580000Y-208280000D03*
X327660000Y-200660000D03*
X320040000Y-208280000D03*
X330200000Y-200660000D03*
X317500000Y-208280000D03*
X332740000Y-200660000D03*
X314960000Y-208280000D03*
X335280000Y-200660000D03*
D12*
X312420000Y-208280000D03*
D10*
X378460000Y-187960000D03*
X396240000Y-195580000D03*
X381000000Y-187960000D03*
X393700000Y-195580000D03*
X383540000Y-187960000D03*
X391160000Y-195580000D03*
X386080000Y-187960000D03*
X388620000Y-195580000D03*
X388620000Y-187960000D03*
X386080000Y-195580000D03*
X391160000Y-187960000D03*
X383540000Y-195580000D03*
X393700000Y-187960000D03*
X381000000Y-195580000D03*
X396240000Y-187960000D03*
D12*
X378460000Y-195580000D03*
D13*
X355600000Y-213360000D03*
X358140000Y-213360000D03*
X360680000Y-213360000D03*
X363220000Y-213360000D03*
X365760000Y-213360000D03*
X368300000Y-213360000D03*
X370840000Y-213360000D03*
X373380000Y-213360000D03*
X375920000Y-213360000D03*
X378460000Y-213360000D03*
X381000000Y-213360000D03*
X383540000Y-213360000D03*
X386080000Y-213360000D03*
X388620000Y-213360000D03*
X391160000Y-213360000D03*
X393700000Y-213360000D03*
D14*
X396240000Y-213360000D03*
D11*
X306070000Y-206930000D03*
X306070000Y-201930000D03*
X372110000Y-206930000D03*
X372110000Y-201930000D03*
X341630000Y-206930000D03*
X341630000Y-201930000D03*
X372110000Y-194230000D03*
X372110000Y-189230000D03*
X341630000Y-194230000D03*
X341630000Y-189230000D03*
X306070000Y-194230000D03*
X306070000Y-189230000D03*
D10*
X193040000Y-91440000D03*
X175260000Y-83820000D03*
X190500000Y-91440000D03*
X177800000Y-83820000D03*
X187960000Y-91440000D03*
X180340000Y-83820000D03*
X185420000Y-91440000D03*
X182880000Y-83820000D03*
X182880000Y-91440000D03*
X185420000Y-83820000D03*
X180340000Y-91440000D03*
X187960000Y-83820000D03*
X177800000Y-91440000D03*
X190500000Y-83820000D03*
X175260000Y-91440000D03*
D12*
X193040000Y-83820000D03*
D10*
X223520000Y-91440000D03*
X205740000Y-83820000D03*
X220980000Y-91440000D03*
X208280000Y-83820000D03*
X218440000Y-91440000D03*
X210820000Y-83820000D03*
X215900000Y-91440000D03*
X213360000Y-83820000D03*
X213360000Y-91440000D03*
X215900000Y-83820000D03*
X210820000Y-91440000D03*
X218440000Y-83820000D03*
X208280000Y-91440000D03*
X220980000Y-83820000D03*
X205740000Y-91440000D03*
D12*
X223520000Y-83820000D03*
D10*
X320040000Y-91440000D03*
X297180000Y-83820000D03*
X317500000Y-91440000D03*
X299720000Y-83820000D03*
X314960000Y-91440000D03*
X302260000Y-83820000D03*
X312420000Y-91440000D03*
X304800000Y-83820000D03*
X309880000Y-91440000D03*
X307340000Y-83820000D03*
X307340000Y-91440000D03*
X309880000Y-83820000D03*
X304800000Y-91440000D03*
X312420000Y-83820000D03*
X302260000Y-91440000D03*
X314960000Y-83820000D03*
X299720000Y-91440000D03*
X317500000Y-83820000D03*
X297180000Y-91440000D03*
D12*
X320040000Y-83820000D03*
D10*
X254000000Y-91440000D03*
X236220000Y-83820000D03*
X251460000Y-91440000D03*
X238760000Y-83820000D03*
X248920000Y-91440000D03*
X241300000Y-83820000D03*
X246380000Y-91440000D03*
X243840000Y-83820000D03*
X243840000Y-91440000D03*
X246380000Y-83820000D03*
X241300000Y-91440000D03*
X248920000Y-83820000D03*
X238760000Y-91440000D03*
X251460000Y-83820000D03*
X236220000Y-91440000D03*
D12*
X254000000Y-83820000D03*
D10*
X320040000Y-104140000D03*
X297180000Y-96520000D03*
X317500000Y-104140000D03*
X299720000Y-96520000D03*
X314960000Y-104140000D03*
X302260000Y-96520000D03*
X312420000Y-104140000D03*
X304800000Y-96520000D03*
X309880000Y-104140000D03*
X307340000Y-96520000D03*
X307340000Y-104140000D03*
X309880000Y-96520000D03*
X304800000Y-104140000D03*
X312420000Y-96520000D03*
X302260000Y-104140000D03*
X314960000Y-96520000D03*
X299720000Y-104140000D03*
X317500000Y-96520000D03*
X297180000Y-104140000D03*
D12*
X320040000Y-96520000D03*
D10*
X284480000Y-91440000D03*
X266700000Y-83820000D03*
X281940000Y-91440000D03*
X269240000Y-83820000D03*
X279400000Y-91440000D03*
X271780000Y-83820000D03*
X276860000Y-91440000D03*
X274320000Y-83820000D03*
X274320000Y-91440000D03*
X276860000Y-83820000D03*
X271780000Y-91440000D03*
X279400000Y-83820000D03*
X269240000Y-91440000D03*
X281940000Y-83820000D03*
X266700000Y-91440000D03*
D12*
X284480000Y-83820000D03*
D11*
X326390000Y-85170000D03*
X326390000Y-90170000D03*
X326263000Y-97870000D03*
X326263000Y-102870000D03*
X275670000Y-252730000D03*
X280670000Y-252730000D03*
D13*
X264160000Y-236220000D03*
X266700000Y-236220000D03*
X269240000Y-236220000D03*
X271780000Y-236220000D03*
X274320000Y-236220000D03*
X276860000Y-236220000D03*
X279400000Y-236220000D03*
X281940000Y-236220000D03*
D14*
X284480000Y-236220000D03*
D13*
X264160000Y-215900000D03*
X266700000Y-215900000D03*
X269240000Y-215900000D03*
X271780000Y-215900000D03*
X274320000Y-215900000D03*
X276860000Y-215900000D03*
X279400000Y-215900000D03*
X281940000Y-215900000D03*
D14*
X284480000Y-215900000D03*
D10*
X233680000Y-309880000D03*
X218440000Y-337820000D03*
X233680000Y-312420000D03*
X218440000Y-335280000D03*
X233680000Y-314960000D03*
X218440000Y-332740000D03*
X233680000Y-317500000D03*
X218440000Y-330200000D03*
X233680000Y-320040000D03*
X218440000Y-327660000D03*
X233680000Y-322580000D03*
X218440000Y-325120000D03*
X233680000Y-325120000D03*
X218440000Y-322580000D03*
X233680000Y-327660000D03*
X218440000Y-320040000D03*
X233680000Y-330200000D03*
X218440000Y-317500000D03*
X233680000Y-332740000D03*
X218440000Y-314960000D03*
X233680000Y-335280000D03*
X218440000Y-312420000D03*
X233680000Y-337820000D03*
D12*
X218440000Y-309880000D03*
D10*
X254000000Y-309880000D03*
X238760000Y-337820000D03*
X254000000Y-312420000D03*
X238760000Y-335280000D03*
X254000000Y-314960000D03*
X238760000Y-332740000D03*
X254000000Y-317500000D03*
X238760000Y-330200000D03*
X254000000Y-320040000D03*
X238760000Y-327660000D03*
X254000000Y-322580000D03*
X238760000Y-325120000D03*
X254000000Y-325120000D03*
X238760000Y-322580000D03*
X254000000Y-327660000D03*
X238760000Y-320040000D03*
X254000000Y-330200000D03*
X238760000Y-317500000D03*
X254000000Y-332740000D03*
X238760000Y-314960000D03*
X254000000Y-335280000D03*
X238760000Y-312420000D03*
X254000000Y-337820000D03*
D12*
X238760000Y-309880000D03*
D10*
X284480000Y-340360000D03*
X261620000Y-332740000D03*
X281940000Y-340360000D03*
X264160000Y-332740000D03*
X279400000Y-340360000D03*
X266700000Y-332740000D03*
X276860000Y-340360000D03*
X269240000Y-332740000D03*
X274320000Y-340360000D03*
X271780000Y-332740000D03*
X271780000Y-340360000D03*
X274320000Y-332740000D03*
X269240000Y-340360000D03*
X276860000Y-332740000D03*
X266700000Y-340360000D03*
X279400000Y-332740000D03*
X264160000Y-340360000D03*
X281940000Y-332740000D03*
X261620000Y-340360000D03*
D12*
X284480000Y-332740000D03*
D10*
X284480000Y-320040000D03*
X261620000Y-312420000D03*
X281940000Y-320040000D03*
X264160000Y-312420000D03*
X279400000Y-320040000D03*
X266700000Y-312420000D03*
X276860000Y-320040000D03*
X269240000Y-312420000D03*
X274320000Y-320040000D03*
X271780000Y-312420000D03*
X271780000Y-320040000D03*
X274320000Y-312420000D03*
X269240000Y-320040000D03*
X276860000Y-312420000D03*
X266700000Y-320040000D03*
X279400000Y-312420000D03*
X264160000Y-320040000D03*
X281940000Y-312420000D03*
X261620000Y-320040000D03*
D12*
X284480000Y-312420000D03*
D10*
X284480000Y-299720000D03*
X261620000Y-292100000D03*
X281940000Y-299720000D03*
X264160000Y-292100000D03*
X279400000Y-299720000D03*
X266700000Y-292100000D03*
X276860000Y-299720000D03*
X269240000Y-292100000D03*
X274320000Y-299720000D03*
X271780000Y-292100000D03*
X271780000Y-299720000D03*
X274320000Y-292100000D03*
X269240000Y-299720000D03*
X276860000Y-292100000D03*
X266700000Y-299720000D03*
X279400000Y-292100000D03*
X264160000Y-299720000D03*
X281940000Y-292100000D03*
X261620000Y-299720000D03*
D12*
X284480000Y-292100000D03*
D10*
X281940000Y-259080000D03*
X274320000Y-281940000D03*
X281940000Y-261620000D03*
X274320000Y-279400000D03*
X281940000Y-264160000D03*
X274320000Y-276860000D03*
X281940000Y-266700000D03*
X274320000Y-274320000D03*
X281940000Y-269240000D03*
X274320000Y-271780000D03*
X281940000Y-271780000D03*
X274320000Y-269240000D03*
X281940000Y-274320000D03*
X274320000Y-266700000D03*
X281940000Y-276860000D03*
X274320000Y-264160000D03*
X281940000Y-279400000D03*
X274320000Y-261620000D03*
X281940000Y-281940000D03*
D12*
X274320000Y-259080000D03*
D10*
X284480000Y-165100000D03*
X261620000Y-157480000D03*
X281940000Y-165100000D03*
X264160000Y-157480000D03*
X279400000Y-165100000D03*
X266700000Y-157480000D03*
X276860000Y-165100000D03*
X269240000Y-157480000D03*
X274320000Y-165100000D03*
X271780000Y-157480000D03*
X271780000Y-165100000D03*
X274320000Y-157480000D03*
X269240000Y-165100000D03*
X276860000Y-157480000D03*
X266700000Y-165100000D03*
X279400000Y-157480000D03*
X264160000Y-165100000D03*
X281940000Y-157480000D03*
X261620000Y-165100000D03*
D12*
X284480000Y-157480000D03*
D10*
X284480000Y-177800000D03*
X261620000Y-170180000D03*
X281940000Y-177800000D03*
X264160000Y-170180000D03*
X279400000Y-177800000D03*
X266700000Y-170180000D03*
X276860000Y-177800000D03*
X269240000Y-170180000D03*
X274320000Y-177800000D03*
X271780000Y-170180000D03*
X271780000Y-177800000D03*
X274320000Y-170180000D03*
X269240000Y-177800000D03*
X276860000Y-170180000D03*
X266700000Y-177800000D03*
X279400000Y-170180000D03*
X264160000Y-177800000D03*
X281940000Y-170180000D03*
X261620000Y-177800000D03*
D12*
X284480000Y-170180000D03*
D10*
X248615800Y-165100000D03*
X215595800Y-157480000D03*
X246075800Y-165100000D03*
X218135800Y-157480000D03*
X243535800Y-165100000D03*
X220675800Y-157480000D03*
X240995800Y-165100000D03*
X223215800Y-157480000D03*
X238455800Y-165100000D03*
X225755800Y-157480000D03*
X235915800Y-165100000D03*
X228295800Y-157480000D03*
X233375800Y-165100000D03*
X230835800Y-157480000D03*
X230835800Y-165100000D03*
X233375800Y-157480000D03*
X228295800Y-165100000D03*
X235915800Y-157480000D03*
X225755800Y-165100000D03*
X238455800Y-157480000D03*
X223215800Y-165100000D03*
X240995800Y-157480000D03*
X220675800Y-165100000D03*
X243535800Y-157480000D03*
X218135800Y-165100000D03*
X246075800Y-157480000D03*
X215595800Y-165100000D03*
D12*
X248615800Y-157480000D03*
D10*
X248920000Y-177800000D03*
X215900000Y-170180000D03*
X246380000Y-177800000D03*
X218440000Y-170180000D03*
X243840000Y-177800000D03*
X220980000Y-170180000D03*
X241300000Y-177800000D03*
X223520000Y-170180000D03*
X238760000Y-177800000D03*
X226060000Y-170180000D03*
X236220000Y-177800000D03*
X228600000Y-170180000D03*
X233680000Y-177800000D03*
X231140000Y-170180000D03*
X231140000Y-177800000D03*
X233680000Y-170180000D03*
X228600000Y-177800000D03*
X236220000Y-170180000D03*
X226060000Y-177800000D03*
X238760000Y-170180000D03*
X223520000Y-177800000D03*
X241300000Y-170180000D03*
X220980000Y-177800000D03*
X243840000Y-170180000D03*
X218440000Y-177800000D03*
X246380000Y-170180000D03*
X215900000Y-177800000D03*
D12*
X248920000Y-170180000D03*
D13*
X248920000Y-279400000D03*
X248920000Y-276860000D03*
X248920000Y-274320000D03*
X248920000Y-271780000D03*
X248920000Y-269240000D03*
X248920000Y-266700000D03*
X248920000Y-264160000D03*
X248920000Y-261620000D03*
D14*
X248920000Y-259080000D03*
D13*
X228600000Y-279400000D03*
X228600000Y-276860000D03*
X228600000Y-274320000D03*
X228600000Y-271780000D03*
X228600000Y-269240000D03*
X228600000Y-266700000D03*
X228600000Y-264160000D03*
X228600000Y-261620000D03*
D14*
X228600000Y-259080000D03*
D13*
X208280000Y-279400000D03*
X208280000Y-276860000D03*
X208280000Y-274320000D03*
X208280000Y-271780000D03*
X208280000Y-269240000D03*
X208280000Y-266700000D03*
X208280000Y-264160000D03*
X208280000Y-261620000D03*
D14*
X208280000Y-259080000D03*
D13*
X187960000Y-279400000D03*
X187960000Y-276860000D03*
X187960000Y-274320000D03*
X187960000Y-271780000D03*
X187960000Y-269240000D03*
X187960000Y-266700000D03*
X187960000Y-264160000D03*
X187960000Y-261620000D03*
D14*
X187960000Y-259080000D03*
D10*
X203200000Y-258922000D03*
X195580000Y-281782000D03*
X203200000Y-261462000D03*
X195580000Y-279242000D03*
X203200000Y-264002000D03*
X195580000Y-276702000D03*
X203200000Y-266542000D03*
X195580000Y-274162000D03*
X203200000Y-269082000D03*
X195580000Y-271622000D03*
X203200000Y-271622000D03*
X195580000Y-269082000D03*
X203200000Y-274162000D03*
X195580000Y-266542000D03*
X203200000Y-276702000D03*
X195580000Y-264002000D03*
X203200000Y-279242000D03*
X195580000Y-261462000D03*
X203200000Y-281782000D03*
D12*
X195580000Y-258922000D03*
D10*
X182880000Y-258922000D03*
X175260000Y-281782000D03*
X182880000Y-261462000D03*
X175260000Y-279242000D03*
X182880000Y-264002000D03*
X175260000Y-276702000D03*
X182880000Y-266542000D03*
X175260000Y-274162000D03*
X182880000Y-269082000D03*
X175260000Y-271622000D03*
X182880000Y-271622000D03*
X175260000Y-269082000D03*
X182880000Y-274162000D03*
X175260000Y-266542000D03*
X182880000Y-276702000D03*
X175260000Y-264002000D03*
X182880000Y-279242000D03*
X175260000Y-261462000D03*
X182880000Y-281782000D03*
D12*
X175260000Y-258922000D03*
D10*
X210820000Y-208280000D03*
X195580000Y-246380000D03*
X210820000Y-210820000D03*
X195580000Y-243840000D03*
X210820000Y-213360000D03*
X195580000Y-241300000D03*
X210820000Y-215900000D03*
X195580000Y-238760000D03*
X210820000Y-218440000D03*
X195580000Y-236220000D03*
X210820000Y-220980000D03*
X195580000Y-233680000D03*
X210820000Y-223520000D03*
X195580000Y-231140000D03*
X210820000Y-226060000D03*
X195580000Y-228600000D03*
X210820000Y-228600000D03*
X195580000Y-226060000D03*
X210820000Y-231140000D03*
X195580000Y-223520000D03*
X210820000Y-233680000D03*
X195580000Y-220980000D03*
X210820000Y-236220000D03*
X195580000Y-218440000D03*
X210820000Y-238760000D03*
X195580000Y-215900000D03*
X210820000Y-241300000D03*
X195580000Y-213360000D03*
X210820000Y-243840000D03*
X195580000Y-210820000D03*
X210820000Y-246380000D03*
D12*
X195580000Y-208280000D03*
D10*
X190500000Y-208172000D03*
X175260000Y-246272000D03*
X190500000Y-210712000D03*
X175260000Y-243732000D03*
X190500000Y-213252000D03*
X175260000Y-241192000D03*
X190500000Y-215792000D03*
X175260000Y-238652000D03*
X190500000Y-218332000D03*
X175260000Y-236112000D03*
X190500000Y-220872000D03*
X175260000Y-233572000D03*
X190500000Y-223412000D03*
X175260000Y-231032000D03*
X190500000Y-225952000D03*
X175260000Y-228492000D03*
X190500000Y-228492000D03*
X175260000Y-225952000D03*
X190500000Y-231032000D03*
X175260000Y-223412000D03*
X190500000Y-233572000D03*
X175260000Y-220872000D03*
X190500000Y-236112000D03*
X175260000Y-218332000D03*
X190500000Y-238652000D03*
X175260000Y-215792000D03*
X190500000Y-241192000D03*
X175260000Y-213252000D03*
X190500000Y-243732000D03*
X175260000Y-210712000D03*
X190500000Y-246272000D03*
D12*
X175260000Y-208172000D03*
D11*
X180420000Y-201930000D03*
X185420000Y-201930000D03*
X196930000Y-252730000D03*
X201930000Y-252730000D03*
X176610000Y-252730000D03*
X181610000Y-252730000D03*
X200740000Y-201930000D03*
X205740000Y-201930000D03*
D10*
X378460000Y-175260000D03*
X396240000Y-182880000D03*
X381000000Y-175260000D03*
X393700000Y-182880000D03*
X383540000Y-175260000D03*
X391160000Y-182880000D03*
X386080000Y-175260000D03*
X388620000Y-182880000D03*
X388620000Y-175260000D03*
X386080000Y-182880000D03*
X391160000Y-175260000D03*
X383540000Y-182880000D03*
X393700000Y-175260000D03*
X381000000Y-182880000D03*
X396240000Y-175260000D03*
D12*
X378460000Y-182880000D03*
D15*
X396748000Y-270430000D03*
D16*
X396748000Y-265430000D03*
D17*
X396240000Y-341630000D03*
X396240000Y-77470000D03*
X176530000Y-341630000D03*
X176530000Y-77470000D03*
D10*
X208280000Y-162560000D03*
X200660000Y-177800000D03*
X208280000Y-165100000D03*
X200660000Y-175260000D03*
X208280000Y-167640000D03*
X200660000Y-172720000D03*
X208280000Y-170180000D03*
X200660000Y-170180000D03*
X208280000Y-172720000D03*
X200660000Y-167640000D03*
X208280000Y-175260000D03*
X200660000Y-165100000D03*
X208280000Y-177800000D03*
D12*
X200660000Y-162560000D03*
D10*
X195580000Y-162560000D03*
X187960000Y-177800000D03*
X195580000Y-165100000D03*
X187960000Y-175260000D03*
X195580000Y-167640000D03*
X187960000Y-172720000D03*
X195580000Y-170180000D03*
X187960000Y-170180000D03*
X195580000Y-172720000D03*
X187960000Y-167640000D03*
X195580000Y-175260000D03*
X187960000Y-165100000D03*
X195580000Y-177800000D03*
D12*
X187960000Y-162560000D03*
D11*
X290830000Y-158830000D03*
X290830000Y-163830000D03*
X372110000Y-181530000D03*
X372110000Y-176530000D03*
D13*
X347980000Y-116840000D03*
X347980000Y-119380000D03*
X350520000Y-116840000D03*
X350520000Y-119380000D03*
X353060000Y-116840000D03*
X353060000Y-119380000D03*
X355600000Y-116840000D03*
X355600000Y-119380000D03*
X358140000Y-116840000D03*
X358140000Y-119380000D03*
X360680000Y-116840000D03*
X360680000Y-119380000D03*
X363220000Y-116840000D03*
X363220000Y-119380000D03*
X365760000Y-116840000D03*
X365760000Y-119380000D03*
X368300000Y-116840000D03*
X368300000Y-119380000D03*
X370840000Y-116840000D03*
X370840000Y-119380000D03*
X373380000Y-116840000D03*
X373380000Y-119380000D03*
X375920000Y-116840000D03*
X375920000Y-119380000D03*
X378460000Y-116840000D03*
X378460000Y-119380000D03*
X381000000Y-116840000D03*
X381000000Y-119380000D03*
X383540000Y-116840000D03*
X383540000Y-119380000D03*
X386080000Y-116840000D03*
X386080000Y-119380000D03*
X388620000Y-116840000D03*
X388620000Y-119380000D03*
X391160000Y-116840000D03*
X391160000Y-119380000D03*
X393700000Y-116840000D03*
X393700000Y-119380000D03*
X396240000Y-116840000D03*
D14*
X396240000Y-119380000D03*
D13*
X347980000Y-147320000D03*
X347980000Y-149860000D03*
X350520000Y-147320000D03*
X350520000Y-149860000D03*
X353060000Y-147320000D03*
X353060000Y-149860000D03*
X355600000Y-147320000D03*
X355600000Y-149860000D03*
X358140000Y-147320000D03*
X358140000Y-149860000D03*
X360680000Y-147320000D03*
X360680000Y-149860000D03*
X363220000Y-147320000D03*
X363220000Y-149860000D03*
X365760000Y-147320000D03*
X365760000Y-149860000D03*
X368300000Y-147320000D03*
X368300000Y-149860000D03*
X370840000Y-147320000D03*
X370840000Y-149860000D03*
X373380000Y-147320000D03*
X373380000Y-149860000D03*
X375920000Y-147320000D03*
X375920000Y-149860000D03*
X378460000Y-147320000D03*
X378460000Y-149860000D03*
X381000000Y-147320000D03*
X381000000Y-149860000D03*
X383540000Y-147320000D03*
X383540000Y-149860000D03*
X386080000Y-147320000D03*
X386080000Y-149860000D03*
X388620000Y-147320000D03*
X388620000Y-149860000D03*
X391160000Y-147320000D03*
X391160000Y-149860000D03*
X393700000Y-147320000D03*
X393700000Y-149860000D03*
X396240000Y-147320000D03*
D14*
X396240000Y-149860000D03*
D13*
X347980000Y-162560000D03*
X347980000Y-165100000D03*
X350520000Y-162560000D03*
X350520000Y-165100000D03*
X353060000Y-162560000D03*
X353060000Y-165100000D03*
X355600000Y-162560000D03*
X355600000Y-165100000D03*
X358140000Y-162560000D03*
X358140000Y-165100000D03*
X360680000Y-162560000D03*
X360680000Y-165100000D03*
X363220000Y-162560000D03*
X363220000Y-165100000D03*
X365760000Y-162560000D03*
X365760000Y-165100000D03*
X368300000Y-162560000D03*
X368300000Y-165100000D03*
X370840000Y-162560000D03*
X370840000Y-165100000D03*
X373380000Y-162560000D03*
X373380000Y-165100000D03*
X375920000Y-162560000D03*
X375920000Y-165100000D03*
X378460000Y-162560000D03*
X378460000Y-165100000D03*
X381000000Y-162560000D03*
X381000000Y-165100000D03*
X383540000Y-162560000D03*
X383540000Y-165100000D03*
X386080000Y-162560000D03*
X386080000Y-165100000D03*
X388620000Y-162560000D03*
X388620000Y-165100000D03*
X391160000Y-162560000D03*
X391160000Y-165100000D03*
X393700000Y-162560000D03*
X393700000Y-165100000D03*
X396240000Y-162560000D03*
D14*
X396240000Y-165100000D03*
D13*
X347980000Y-132080000D03*
X347980000Y-134620000D03*
X350520000Y-132080000D03*
X350520000Y-134620000D03*
X353060000Y-132080000D03*
X353060000Y-134620000D03*
X355600000Y-132080000D03*
X355600000Y-134620000D03*
X358140000Y-132080000D03*
X358140000Y-134620000D03*
X360680000Y-132080000D03*
X360680000Y-134620000D03*
X363220000Y-132080000D03*
X363220000Y-134620000D03*
X365760000Y-132080000D03*
X365760000Y-134620000D03*
X368300000Y-132080000D03*
X368300000Y-134620000D03*
X370840000Y-132080000D03*
X370840000Y-134620000D03*
X373380000Y-132080000D03*
X373380000Y-134620000D03*
X375920000Y-132080000D03*
X375920000Y-134620000D03*
X378460000Y-132080000D03*
X378460000Y-134620000D03*
X381000000Y-132080000D03*
X381000000Y-134620000D03*
X383540000Y-132080000D03*
X383540000Y-134620000D03*
X386080000Y-132080000D03*
X386080000Y-134620000D03*
X388620000Y-132080000D03*
X388620000Y-134620000D03*
X391160000Y-132080000D03*
X391160000Y-134620000D03*
X393700000Y-132080000D03*
X393700000Y-134620000D03*
X396240000Y-132080000D03*
D14*
X396240000Y-134620000D03*
D13*
X347980000Y-101600000D03*
X347980000Y-104140000D03*
X350520000Y-101600000D03*
X350520000Y-104140000D03*
X353060000Y-101600000D03*
X353060000Y-104140000D03*
X355600000Y-101600000D03*
X355600000Y-104140000D03*
X358140000Y-101600000D03*
X358140000Y-104140000D03*
X360680000Y-101600000D03*
X360680000Y-104140000D03*
X363220000Y-101600000D03*
X363220000Y-104140000D03*
X365760000Y-101600000D03*
X365760000Y-104140000D03*
X368300000Y-101600000D03*
X368300000Y-104140000D03*
X370840000Y-101600000D03*
X370840000Y-104140000D03*
X373380000Y-101600000D03*
X373380000Y-104140000D03*
X375920000Y-101600000D03*
X375920000Y-104140000D03*
X378460000Y-101600000D03*
X378460000Y-104140000D03*
X381000000Y-101600000D03*
X381000000Y-104140000D03*
X383540000Y-101600000D03*
X383540000Y-104140000D03*
X386080000Y-101600000D03*
X386080000Y-104140000D03*
X388620000Y-101600000D03*
X388620000Y-104140000D03*
X391160000Y-101600000D03*
X391160000Y-104140000D03*
X393700000Y-101600000D03*
X393700000Y-104140000D03*
X396240000Y-101600000D03*
D14*
X396240000Y-104140000D03*
D10*
X243835800Y-259080000D03*
X236215800Y-281940000D03*
X243835800Y-261620000D03*
X236215800Y-279400000D03*
X243835800Y-264160000D03*
X236215800Y-276860000D03*
X243835800Y-266700000D03*
X236215800Y-274320000D03*
X243835800Y-269240000D03*
X236215800Y-271780000D03*
X243835800Y-271780000D03*
X236215800Y-269240000D03*
X243835800Y-274320000D03*
X236215800Y-266700000D03*
X243835800Y-276860000D03*
X236215800Y-264160000D03*
X243835800Y-279400000D03*
X236215800Y-261620000D03*
X243835800Y-281940000D03*
D12*
X236215800Y-259080000D03*
D11*
X369650000Y-245110000D03*
X374650000Y-245110000D03*
X386080000Y-290830000D03*
X386080000Y-283210000D03*
X370840000Y-283210000D03*
D12*
X370840000Y-290830000D03*
D10*
X383540000Y-266700000D03*
D11*
X375920000Y-266700000D03*
D10*
X378460000Y-246380000D03*
D11*
X386080000Y-246380000D03*
D10*
X397510000Y-257810000D03*
D11*
X389890000Y-257810000D03*
X383460000Y-252730000D03*
X378460000Y-252730000D03*
X383460000Y-259080000D03*
X378460000Y-259080000D03*
D10*
X318770000Y-251460000D03*
D11*
X326390000Y-251460000D03*
D10*
X318770000Y-245110000D03*
D11*
X326390000Y-245110000D03*
X325040000Y-266700000D03*
X320040000Y-266700000D03*
X323310000Y-259080000D03*
D12*
X321310000Y-259080000D03*
D10*
X251460000Y-208280000D03*
X236220000Y-246380000D03*
X251460000Y-210820000D03*
X236220000Y-243840000D03*
X251460000Y-213360000D03*
X236220000Y-241300000D03*
X251460000Y-215900000D03*
X236220000Y-238760000D03*
X251460000Y-218440000D03*
X236220000Y-236220000D03*
X251460000Y-220980000D03*
X236220000Y-233680000D03*
X251460000Y-223520000D03*
X236220000Y-231140000D03*
X251460000Y-226060000D03*
X236220000Y-228600000D03*
X251460000Y-228600000D03*
X236220000Y-226060000D03*
X251460000Y-231140000D03*
X236220000Y-223520000D03*
X251460000Y-233680000D03*
X236220000Y-220980000D03*
X251460000Y-236220000D03*
X236220000Y-218440000D03*
X251460000Y-238760000D03*
X236220000Y-215900000D03*
X251460000Y-241300000D03*
X236220000Y-213360000D03*
X251460000Y-243840000D03*
X236220000Y-210820000D03*
X251460000Y-246380000D03*
D12*
X236220000Y-208280000D03*
D13*
X177800000Y-182880000D03*
X180340000Y-182880000D03*
X182880000Y-182880000D03*
X185420000Y-182880000D03*
X187960000Y-182880000D03*
X190500000Y-182880000D03*
X193040000Y-182880000D03*
D14*
X195580000Y-182880000D03*
D13*
X213360000Y-182880000D03*
X215900000Y-182880000D03*
X218440000Y-182880000D03*
X220980000Y-182880000D03*
X223520000Y-182880000D03*
X226060000Y-182880000D03*
X228600000Y-182880000D03*
D14*
X231140000Y-182880000D03*
D13*
X177800000Y-139700000D03*
X180340000Y-139700000D03*
X182880000Y-139700000D03*
X185420000Y-139700000D03*
X187960000Y-139700000D03*
X190500000Y-139700000D03*
X193040000Y-139700000D03*
X195580000Y-139700000D03*
D14*
X198120000Y-139700000D03*
D13*
X213360000Y-139700000D03*
X215900000Y-139700000D03*
X218440000Y-139700000D03*
X220980000Y-139700000D03*
X223520000Y-139700000D03*
X226060000Y-139700000D03*
X228600000Y-139700000D03*
X231140000Y-139700000D03*
D14*
X233680000Y-139700000D03*
D10*
X213360000Y-309880000D03*
X205740000Y-332740000D03*
X213360000Y-312420000D03*
X205740000Y-330200000D03*
X213360000Y-314960000D03*
X205740000Y-327660000D03*
X213360000Y-317500000D03*
X205740000Y-325120000D03*
X213360000Y-320040000D03*
X205740000Y-322580000D03*
X213360000Y-322580000D03*
X205740000Y-320040000D03*
X213360000Y-325120000D03*
X205740000Y-317500000D03*
X213360000Y-327660000D03*
X205740000Y-314960000D03*
X213360000Y-330200000D03*
X205740000Y-312420000D03*
X213360000Y-332740000D03*
D12*
X205740000Y-309880000D03*
D10*
X248920000Y-297180000D03*
X226060000Y-289560000D03*
X246380000Y-297180000D03*
X228600000Y-289560000D03*
X243840000Y-297180000D03*
X231140000Y-289560000D03*
X241300000Y-297180000D03*
X233680000Y-289560000D03*
X238760000Y-297180000D03*
X236220000Y-289560000D03*
X236220000Y-297180000D03*
X238760000Y-289560000D03*
X233680000Y-297180000D03*
X241300000Y-289560000D03*
X231140000Y-297180000D03*
X243840000Y-289560000D03*
X228600000Y-297180000D03*
X246380000Y-289560000D03*
X226060000Y-297180000D03*
D12*
X248920000Y-289560000D03*
D10*
X213360000Y-297180000D03*
X190500000Y-289560000D03*
X210820000Y-297180000D03*
X193040000Y-289560000D03*
X208280000Y-297180000D03*
X195580000Y-289560000D03*
X205740000Y-297180000D03*
X198120000Y-289560000D03*
X203200000Y-297180000D03*
X200660000Y-289560000D03*
X200660000Y-297180000D03*
X203200000Y-289560000D03*
X198120000Y-297180000D03*
X205740000Y-289560000D03*
X195580000Y-297180000D03*
X208280000Y-289560000D03*
X193040000Y-297180000D03*
X210820000Y-289560000D03*
X190500000Y-297180000D03*
D12*
X213360000Y-289560000D03*
D10*
X337820000Y-251460000D03*
X330200000Y-269240000D03*
X337820000Y-254000000D03*
X330200000Y-266700000D03*
X337820000Y-256540000D03*
X330200000Y-264160000D03*
X337820000Y-259080000D03*
X330200000Y-261620000D03*
X337820000Y-261620000D03*
X330200000Y-259080000D03*
X337820000Y-264160000D03*
X330200000Y-256540000D03*
X337820000Y-266700000D03*
X330200000Y-254000000D03*
X337820000Y-269240000D03*
D12*
X330200000Y-251460000D03*
D10*
X350520000Y-251460000D03*
X342900000Y-266700000D03*
X350520000Y-254000000D03*
X342900000Y-264160000D03*
X350520000Y-256540000D03*
X342900000Y-261620000D03*
X350520000Y-259080000D03*
X342900000Y-259080000D03*
X350520000Y-261620000D03*
X342900000Y-256540000D03*
X350520000Y-264160000D03*
X342900000Y-254000000D03*
X350520000Y-266700000D03*
D12*
X342900000Y-251460000D03*
D10*
X363220000Y-251460000D03*
X355600000Y-266700000D03*
X363220000Y-254000000D03*
X355600000Y-264160000D03*
X363220000Y-256540000D03*
X355600000Y-261620000D03*
X363220000Y-259080000D03*
X355600000Y-259080000D03*
X363220000Y-261620000D03*
X355600000Y-256540000D03*
X363220000Y-264160000D03*
X355600000Y-254000000D03*
X363220000Y-266700000D03*
D12*
X355600000Y-251460000D03*
D18*
X369570000Y-266700000D03*
D19*
X372110000Y-266700000D03*
X370840000Y-265430000D03*
D10*
X375920000Y-251460000D03*
X368300000Y-259080000D03*
X375920000Y-254000000D03*
X368300000Y-256540000D03*
X375920000Y-256540000D03*
X368300000Y-254000000D03*
X375920000Y-259080000D03*
D12*
X368300000Y-251460000D03*
D10*
X337820000Y-281940000D03*
X330200000Y-297180000D03*
X337820000Y-284480000D03*
X330200000Y-294640000D03*
X337820000Y-287020000D03*
X330200000Y-292100000D03*
X337820000Y-289560000D03*
X330200000Y-289560000D03*
X337820000Y-292100000D03*
X330200000Y-287020000D03*
X337820000Y-294640000D03*
X330200000Y-284480000D03*
X337820000Y-297180000D03*
D12*
X330200000Y-281940000D03*
D10*
X350520000Y-281940000D03*
X342900000Y-297180000D03*
X350520000Y-284480000D03*
X342900000Y-294640000D03*
X350520000Y-287020000D03*
X342900000Y-292100000D03*
X350520000Y-289560000D03*
X342900000Y-289560000D03*
X350520000Y-292100000D03*
X342900000Y-287020000D03*
X350520000Y-294640000D03*
X342900000Y-284480000D03*
X350520000Y-297180000D03*
D12*
X342900000Y-281940000D03*
D10*
X325120000Y-281940000D03*
X317500000Y-299720000D03*
X325120000Y-284480000D03*
X317500000Y-297180000D03*
X325120000Y-287020000D03*
X317500000Y-294640000D03*
X325120000Y-289560000D03*
X317500000Y-292100000D03*
X325120000Y-292100000D03*
X317500000Y-289560000D03*
X325120000Y-294640000D03*
X317500000Y-287020000D03*
X325120000Y-297180000D03*
X317500000Y-284480000D03*
X325120000Y-299720000D03*
D12*
X317500000Y-281940000D03*
D10*
X363220000Y-281940000D03*
X355600000Y-297180000D03*
X363220000Y-284480000D03*
X355600000Y-294640000D03*
X363220000Y-287020000D03*
X355600000Y-292100000D03*
X363220000Y-289560000D03*
X355600000Y-289560000D03*
X363220000Y-292100000D03*
X355600000Y-287020000D03*
X363220000Y-294640000D03*
X355600000Y-284480000D03*
X363220000Y-297180000D03*
D12*
X355600000Y-281940000D03*
D10*
X314960000Y-251460000D03*
X307340000Y-259080000D03*
X314960000Y-254000000D03*
X307340000Y-256540000D03*
X314960000Y-256540000D03*
X307340000Y-254000000D03*
X314960000Y-259080000D03*
D12*
X307340000Y-251460000D03*
D10*
X312420000Y-281940000D03*
X304800000Y-297180000D03*
X312420000Y-284480000D03*
X304800000Y-294640000D03*
X312420000Y-287020000D03*
X304800000Y-292100000D03*
X312420000Y-289560000D03*
X304800000Y-289560000D03*
X312420000Y-292100000D03*
X304800000Y-287020000D03*
X312420000Y-294640000D03*
X304800000Y-284480000D03*
X312420000Y-297180000D03*
D12*
X304800000Y-281940000D03*
D10*
X379730000Y-334010000D03*
X372110000Y-341630000D03*
X379730000Y-336550000D03*
X372110000Y-339090000D03*
X379730000Y-339090000D03*
X372110000Y-336550000D03*
X379730000Y-341630000D03*
D12*
X372110000Y-334010000D03*
D10*
X359410000Y-334010000D03*
X351790000Y-341630000D03*
X359410000Y-336550000D03*
X351790000Y-339090000D03*
X359410000Y-339090000D03*
X351790000Y-336550000D03*
X359410000Y-341630000D03*
D12*
X351790000Y-334010000D03*
D10*
X388616200Y-318768200D03*
X350516200Y-303528200D03*
X386076200Y-318768200D03*
X353056200Y-303528200D03*
X383536200Y-318768200D03*
X355596200Y-303528200D03*
X380996200Y-318768200D03*
X358136200Y-303528200D03*
X378456200Y-318768200D03*
X360676200Y-303528200D03*
X375916200Y-318768200D03*
X363216200Y-303528200D03*
X373376200Y-318768200D03*
X365756200Y-303528200D03*
X370836200Y-318768200D03*
X368296200Y-303528200D03*
X368296200Y-318768200D03*
X370836200Y-303528200D03*
X365756200Y-318768200D03*
X373376200Y-303528200D03*
X363216200Y-318768200D03*
X375916200Y-303528200D03*
X360676200Y-318768200D03*
X378456200Y-303528200D03*
X358136200Y-318768200D03*
X380996200Y-303528200D03*
X355596200Y-318768200D03*
X383536200Y-303528200D03*
X353056200Y-318768200D03*
X386076200Y-303528200D03*
X350516200Y-318768200D03*
D12*
X388616200Y-303528200D03*
D10*
X328930000Y-334010000D03*
X321310000Y-341630000D03*
X328930000Y-336550000D03*
X321310000Y-339090000D03*
X328930000Y-339090000D03*
X321310000Y-336550000D03*
X328930000Y-341630000D03*
D12*
X321310000Y-334010000D03*
D10*
X334010000Y-313690000D03*
X326390000Y-321310000D03*
X334010000Y-316230000D03*
X326390000Y-318770000D03*
X334010000Y-318770000D03*
X326390000Y-316230000D03*
X334010000Y-321310000D03*
D12*
X326390000Y-313690000D03*
D10*
X284489000Y-248915800D03*
X261629000Y-241295800D03*
X281949000Y-248915800D03*
X264169000Y-241295800D03*
X279409000Y-248915800D03*
X266709000Y-241295800D03*
X276869000Y-248915800D03*
X269249000Y-241295800D03*
X274329000Y-248915800D03*
X271789000Y-241295800D03*
X271789000Y-248915800D03*
X274329000Y-241295800D03*
X269249000Y-248915800D03*
X276869000Y-241295800D03*
X266709000Y-248915800D03*
X279409000Y-241295800D03*
X264169000Y-248915800D03*
X281949000Y-241295800D03*
X261629000Y-248915800D03*
D12*
X284489000Y-241295800D03*
D10*
X223515800Y-259071000D03*
X215895800Y-281931000D03*
X223515800Y-261611000D03*
X215895800Y-279391000D03*
X223515800Y-264151000D03*
X215895800Y-276851000D03*
X223515800Y-266691000D03*
X215895800Y-274311000D03*
X223515800Y-269231000D03*
X215895800Y-271771000D03*
X223515800Y-271771000D03*
X215895800Y-269231000D03*
X223515800Y-274311000D03*
X215895800Y-266691000D03*
X223515800Y-276851000D03*
X215895800Y-264151000D03*
X223515800Y-279391000D03*
X215895800Y-261611000D03*
X223515800Y-281931000D03*
D12*
X215895800Y-259071000D03*
D10*
X231140000Y-208280000D03*
X215900000Y-246380000D03*
X231140000Y-210820000D03*
X215900000Y-243840000D03*
X231140000Y-213360000D03*
X215900000Y-241300000D03*
X231140000Y-215900000D03*
X215900000Y-238760000D03*
X231140000Y-218440000D03*
X215900000Y-236220000D03*
X231140000Y-220980000D03*
X215900000Y-233680000D03*
X231140000Y-223520000D03*
X215900000Y-231140000D03*
X231140000Y-226060000D03*
X215900000Y-228600000D03*
X231140000Y-228600000D03*
X215900000Y-226060000D03*
X231140000Y-231140000D03*
X215900000Y-223520000D03*
X231140000Y-233680000D03*
X215900000Y-220980000D03*
X231140000Y-236220000D03*
X215900000Y-218440000D03*
X231140000Y-238760000D03*
X215900000Y-215900000D03*
X231140000Y-241300000D03*
X215900000Y-213360000D03*
X231140000Y-243840000D03*
X215900000Y-210820000D03*
X231140000Y-246380000D03*
D12*
X215900000Y-208280000D03*
D10*
X284480000Y-210820000D03*
X261620000Y-203200000D03*
X281940000Y-210820000D03*
X264160000Y-203200000D03*
X279400000Y-210820000D03*
X266700000Y-203200000D03*
X276860000Y-210820000D03*
X269240000Y-203200000D03*
X274320000Y-210820000D03*
X271780000Y-203200000D03*
X271780000Y-210820000D03*
X274320000Y-203200000D03*
X269240000Y-210820000D03*
X276860000Y-203200000D03*
X266700000Y-210820000D03*
X279400000Y-203200000D03*
X264160000Y-210820000D03*
X281940000Y-203200000D03*
X261620000Y-210820000D03*
D12*
X284480000Y-203200000D03*
D10*
X193040000Y-195580000D03*
X175260000Y-187960000D03*
X190500000Y-195580000D03*
X177800000Y-187960000D03*
X187960000Y-195580000D03*
X180340000Y-187960000D03*
X185420000Y-195580000D03*
X182880000Y-187960000D03*
X182880000Y-195580000D03*
X185420000Y-187960000D03*
X180340000Y-195580000D03*
X187960000Y-187960000D03*
X177800000Y-195580000D03*
X190500000Y-187960000D03*
X175260000Y-195580000D03*
D12*
X193040000Y-187960000D03*
D10*
X223520000Y-195580000D03*
X205740000Y-187960000D03*
X220980000Y-195580000D03*
X208280000Y-187960000D03*
X218440000Y-195580000D03*
X210820000Y-187960000D03*
X215900000Y-195580000D03*
X213360000Y-187960000D03*
X213360000Y-195580000D03*
X215900000Y-187960000D03*
X210820000Y-195580000D03*
X218440000Y-187960000D03*
X208280000Y-195580000D03*
X220980000Y-187960000D03*
X205740000Y-195580000D03*
D12*
X223520000Y-187960000D03*
D10*
X284480000Y-228600000D03*
X261620000Y-220980000D03*
X281940000Y-228600000D03*
X264160000Y-220980000D03*
X279400000Y-228600000D03*
X266700000Y-220980000D03*
X276860000Y-228600000D03*
X269240000Y-220980000D03*
X274320000Y-228600000D03*
X271780000Y-220980000D03*
X271780000Y-228600000D03*
X274320000Y-220980000D03*
X269240000Y-228600000D03*
X276860000Y-220980000D03*
X266700000Y-228600000D03*
X279400000Y-220980000D03*
X264160000Y-228600000D03*
X281940000Y-220980000D03*
X261620000Y-228600000D03*
D12*
X284480000Y-220980000D03*
D10*
X254000000Y-195580000D03*
X236220000Y-187960000D03*
X251460000Y-195580000D03*
X238760000Y-187960000D03*
X248920000Y-195580000D03*
X241300000Y-187960000D03*
X246380000Y-195580000D03*
X243840000Y-187960000D03*
X243840000Y-195580000D03*
X246380000Y-187960000D03*
X241300000Y-195580000D03*
X248920000Y-187960000D03*
X238760000Y-195580000D03*
X251460000Y-187960000D03*
X236220000Y-195580000D03*
D12*
X254000000Y-187960000D03*
D10*
X284480000Y-195580000D03*
X266700000Y-187960000D03*
X281940000Y-195580000D03*
X269240000Y-187960000D03*
X279400000Y-195580000D03*
X271780000Y-187960000D03*
X276860000Y-195580000D03*
X274320000Y-187960000D03*
X274320000Y-195580000D03*
X276860000Y-187960000D03*
X271780000Y-195580000D03*
X279400000Y-187960000D03*
X269240000Y-195580000D03*
X281940000Y-187960000D03*
X266700000Y-195580000D03*
D12*
X284480000Y-187960000D03*
D10*
X193062000Y-152355200D03*
X175282000Y-144735200D03*
X190522000Y-152355200D03*
X177822000Y-144735200D03*
X187982000Y-152355200D03*
X180362000Y-144735200D03*
X185442000Y-152355200D03*
X182902000Y-144735200D03*
X182902000Y-152355200D03*
X185442000Y-144735200D03*
X180362000Y-152355200D03*
X187982000Y-144735200D03*
X177822000Y-152355200D03*
X190522000Y-144735200D03*
X175282000Y-152355200D03*
D12*
X193062000Y-144735200D03*
D10*
X223542000Y-152355200D03*
X205762000Y-144735200D03*
X221002000Y-152355200D03*
X208302000Y-144735200D03*
X218462000Y-152355200D03*
X210842000Y-144735200D03*
X215922000Y-152355200D03*
X213382000Y-144735200D03*
X213382000Y-152355200D03*
X215922000Y-144735200D03*
X210842000Y-152355200D03*
X218462000Y-144735200D03*
X208302000Y-152355200D03*
X221002000Y-144735200D03*
X205762000Y-152355200D03*
D12*
X223542000Y-144735200D03*
D10*
X254022000Y-152355200D03*
X236242000Y-144735200D03*
X251482000Y-152355200D03*
X238782000Y-144735200D03*
X248942000Y-152355200D03*
X241322000Y-144735200D03*
X246402000Y-152355200D03*
X243862000Y-144735200D03*
X243862000Y-152355200D03*
X246402000Y-144735200D03*
X241322000Y-152355200D03*
X248942000Y-144735200D03*
X238782000Y-152355200D03*
X251482000Y-144735200D03*
X236242000Y-152355200D03*
D12*
X254022000Y-144735200D03*
D10*
X284502000Y-152355200D03*
X266722000Y-144735200D03*
X281962000Y-152355200D03*
X269262000Y-144735200D03*
X279422000Y-152355200D03*
X271802000Y-144735200D03*
X276882000Y-152355200D03*
X274342000Y-144735200D03*
X274342000Y-152355200D03*
X276882000Y-144735200D03*
X271802000Y-152355200D03*
X279422000Y-144735200D03*
X269262000Y-152355200D03*
X281962000Y-144735200D03*
X266722000Y-152355200D03*
D12*
X284502000Y-144735200D03*
D10*
X198114000Y-134626000D03*
X175254000Y-127006000D03*
X195574000Y-134626000D03*
X177794000Y-127006000D03*
X193034000Y-134626000D03*
X180334000Y-127006000D03*
X190494000Y-134626000D03*
X182874000Y-127006000D03*
X187954000Y-134626000D03*
X185414000Y-127006000D03*
X185414000Y-134626000D03*
X187954000Y-127006000D03*
X182874000Y-134626000D03*
X190494000Y-127006000D03*
X180334000Y-134626000D03*
X193034000Y-127006000D03*
X177794000Y-134626000D03*
X195574000Y-127006000D03*
X175254000Y-134626000D03*
D12*
X198114000Y-127006000D03*
D10*
X233674000Y-134626000D03*
X210814000Y-127006000D03*
X231134000Y-134626000D03*
X213354000Y-127006000D03*
X228594000Y-134626000D03*
X215894000Y-127006000D03*
X226054000Y-134626000D03*
X218434000Y-127006000D03*
X223514000Y-134626000D03*
X220974000Y-127006000D03*
X220974000Y-134626000D03*
X223514000Y-127006000D03*
X218434000Y-134626000D03*
X226054000Y-127006000D03*
X215894000Y-134626000D03*
X228594000Y-127006000D03*
X213354000Y-134626000D03*
X231134000Y-127006000D03*
X210814000Y-134626000D03*
D12*
X233674000Y-127006000D03*
D10*
X193040000Y-104140000D03*
X175260000Y-96520000D03*
X190500000Y-104140000D03*
X177800000Y-96520000D03*
X187960000Y-104140000D03*
X180340000Y-96520000D03*
X185420000Y-104140000D03*
X182880000Y-96520000D03*
X182880000Y-104140000D03*
X185420000Y-96520000D03*
X180340000Y-104140000D03*
X187960000Y-96520000D03*
X177800000Y-104140000D03*
X190500000Y-96520000D03*
X175260000Y-104140000D03*
D12*
X193040000Y-96520000D03*
D10*
X223520000Y-104140000D03*
X205740000Y-96520000D03*
X220980000Y-104140000D03*
X208280000Y-96520000D03*
X218440000Y-104140000D03*
X210820000Y-96520000D03*
X215900000Y-104140000D03*
X213360000Y-96520000D03*
X213360000Y-104140000D03*
X215900000Y-96520000D03*
X210820000Y-104140000D03*
X218440000Y-96520000D03*
X208280000Y-104140000D03*
X220980000Y-96520000D03*
X205740000Y-104140000D03*
D12*
X223520000Y-96520000D03*
D10*
X254000000Y-104140000D03*
X236220000Y-96520000D03*
X251460000Y-104140000D03*
X238760000Y-96520000D03*
X248920000Y-104140000D03*
X241300000Y-96520000D03*
X246380000Y-104140000D03*
X243840000Y-96520000D03*
X243840000Y-104140000D03*
X246380000Y-96520000D03*
X241300000Y-104140000D03*
X248920000Y-96520000D03*
X238760000Y-104140000D03*
X251460000Y-96520000D03*
X236220000Y-104140000D03*
D12*
X254000000Y-96520000D03*
D10*
X284480000Y-104140000D03*
X266700000Y-96520000D03*
X281940000Y-104140000D03*
X269240000Y-96520000D03*
X279400000Y-104140000D03*
X271780000Y-96520000D03*
X276860000Y-104140000D03*
X274320000Y-96520000D03*
X274320000Y-104140000D03*
X276860000Y-96520000D03*
X271780000Y-104140000D03*
X279400000Y-96520000D03*
X269240000Y-104140000D03*
X281940000Y-96520000D03*
X266700000Y-104140000D03*
D12*
X284480000Y-96520000D03*
D10*
X347980000Y-175260000D03*
X365760000Y-182880000D03*
X350520000Y-175260000D03*
X363220000Y-182880000D03*
X353060000Y-175260000D03*
X360680000Y-182880000D03*
X355600000Y-175260000D03*
X358140000Y-182880000D03*
X358140000Y-175260000D03*
X355600000Y-182880000D03*
X360680000Y-175260000D03*
X353060000Y-182880000D03*
X363220000Y-175260000D03*
X350520000Y-182880000D03*
X365760000Y-175260000D03*
D12*
X347980000Y-182880000D03*
D10*
X312420000Y-175260000D03*
X335280000Y-182880000D03*
X314960000Y-175260000D03*
X332740000Y-182880000D03*
X317500000Y-175260000D03*
X330200000Y-182880000D03*
X320040000Y-175260000D03*
X327660000Y-182880000D03*
X322580000Y-175260000D03*
X325120000Y-182880000D03*
X325120000Y-175260000D03*
X322580000Y-182880000D03*
X327660000Y-175260000D03*
X320040000Y-182880000D03*
X330200000Y-175260000D03*
X317500000Y-182880000D03*
X332740000Y-175260000D03*
X314960000Y-182880000D03*
X335280000Y-175260000D03*
D12*
X312420000Y-182880000D03*
D20*
X396390000Y-246380000D03*
X396390000Y-250880000D03*
X389890000Y-246380000D03*
X389890000Y-250880000D03*
X313840000Y-264922000D03*
X313840000Y-269422000D03*
X307340000Y-264922000D03*
X307340000Y-269422000D03*
D21*
X307340000Y-308610000D03*
X309840000Y-311110000D03*
X307340000Y-313610000D03*
D10*
X295910000Y-325120000D03*
X298450000Y-325120000D03*
X300990000Y-325120000D03*
X303530000Y-325120000D03*
X306070000Y-325120000D03*
X308610000Y-325120000D03*
X311150000Y-325120000D03*
X313690000Y-325120000D03*
D12*
X316230000Y-325120000D03*
D10*
X200660000Y-323850000D03*
D11*
X193040000Y-323850000D03*
D10*
X200660000Y-318770000D03*
D11*
X193040000Y-318770000D03*
D10*
X200660000Y-313690000D03*
D11*
X193040000Y-313690000D03*
D10*
X386080000Y-297180000D03*
D11*
X393700000Y-297180000D03*
D10*
X389890000Y-341630000D03*
D11*
X382270000Y-341630000D03*
D10*
X389890000Y-337820000D03*
D11*
X382270000Y-337820000D03*
D10*
X389890000Y-334010000D03*
D11*
X382270000Y-334010000D03*
D10*
X369570000Y-341630000D03*
D11*
X361950000Y-341630000D03*
D10*
X369570000Y-337820000D03*
D11*
X361950000Y-337820000D03*
D10*
X369570000Y-334010000D03*
D11*
X361950000Y-334010000D03*
D10*
X349250000Y-341630000D03*
D11*
X341630000Y-341630000D03*
D10*
X349250000Y-337820000D03*
D11*
X341630000Y-337820000D03*
D10*
X349250000Y-334010000D03*
D11*
X341630000Y-334010000D03*
D10*
X339090000Y-341630000D03*
D11*
X331470000Y-341630000D03*
D10*
X339090000Y-337820000D03*
D11*
X331470000Y-337820000D03*
D10*
X339090000Y-334010000D03*
D11*
X331470000Y-334010000D03*
D10*
X318770000Y-341630000D03*
D11*
X311150000Y-341630000D03*
D10*
X318770000Y-337820000D03*
D11*
X311150000Y-337820000D03*
D10*
X318770000Y-334010000D03*
D11*
X311150000Y-334010000D03*
D10*
X344170000Y-321310000D03*
D11*
X336550000Y-321310000D03*
D10*
X344170000Y-317500000D03*
D11*
X336550000Y-317500000D03*
D10*
X344170000Y-313690000D03*
D11*
X336550000Y-313690000D03*
D10*
X323850000Y-321310000D03*
D11*
X316230000Y-321310000D03*
D10*
X323850000Y-317500000D03*
D11*
X316230000Y-317500000D03*
D10*
X323850000Y-313690000D03*
D11*
X316230000Y-313690000D03*
D13*
X295910000Y-328930000D03*
X298450000Y-328930000D03*
X300990000Y-328930000D03*
X303530000Y-328930000D03*
X306070000Y-328930000D03*
X308610000Y-328930000D03*
X311150000Y-328930000D03*
X313690000Y-328930000D03*
D14*
X316230000Y-328930000D03*
D13*
X264160000Y-328930000D03*
X266700000Y-328930000D03*
X269240000Y-328930000D03*
X271780000Y-328930000D03*
X274320000Y-328930000D03*
X276860000Y-328930000D03*
X279400000Y-328930000D03*
X281940000Y-328930000D03*
D14*
X284480000Y-328930000D03*
D13*
X264160000Y-308610000D03*
X266700000Y-308610000D03*
X269240000Y-308610000D03*
X271780000Y-308610000D03*
X274320000Y-308610000D03*
X276860000Y-308610000D03*
X279400000Y-308610000D03*
X281940000Y-308610000D03*
D14*
X284480000Y-308610000D03*
D13*
X264160000Y-288290000D03*
X266700000Y-288290000D03*
X269240000Y-288290000D03*
X271780000Y-288290000D03*
X274320000Y-288290000D03*
X276860000Y-288290000D03*
X279400000Y-288290000D03*
X281940000Y-288290000D03*
D14*
X284480000Y-288290000D03*
D13*
X368300000Y-323850000D03*
X370840000Y-323850000D03*
X373380000Y-323850000D03*
X375920000Y-323850000D03*
X378460000Y-323850000D03*
X381000000Y-323850000D03*
X383540000Y-323850000D03*
X386080000Y-323850000D03*
D14*
X388620000Y-323850000D03*
D13*
X270510000Y-279400000D03*
X270510000Y-276860000D03*
X270510000Y-274320000D03*
X270510000Y-271780000D03*
X270510000Y-269240000D03*
X270510000Y-266700000D03*
X270510000Y-264160000D03*
X270510000Y-261620000D03*
D14*
X270510000Y-259080000D03*
D13*
X243840000Y-109220000D03*
X246380000Y-109220000D03*
X248920000Y-109220000D03*
X251460000Y-109220000D03*
X254000000Y-109220000D03*
X256540000Y-109220000D03*
X259080000Y-109220000D03*
X261620000Y-109220000D03*
X264160000Y-109220000D03*
X266700000Y-109220000D03*
X269240000Y-109220000D03*
X271780000Y-109220000D03*
X274320000Y-109220000D03*
X276860000Y-109220000D03*
X279400000Y-109220000D03*
X281940000Y-109220000D03*
D14*
X284480000Y-109220000D03*
D13*
X315087000Y-171450000D03*
X317627000Y-171450000D03*
X320167000Y-171450000D03*
X322707000Y-171450000D03*
X325247000Y-171450000D03*
X327787000Y-171450000D03*
X330327000Y-171450000D03*
X332867000Y-171450000D03*
D14*
X335407000Y-171450000D03*
D22*
X201930000Y-306070000D03*
D23*
X199390000Y-306070000D03*
D22*
X195326000Y-306070000D03*
D23*
X192786000Y-306070000D03*
D22*
X381000000Y-273050000D03*
D23*
X383540000Y-273050000D03*
D22*
X393700000Y-290830000D03*
D23*
X396240000Y-290830000D03*
D11*
X223600000Y-303530000D03*
X228600000Y-303530000D03*
X207090000Y-303530000D03*
X212090000Y-303530000D03*
X290830000Y-339010000D03*
X290830000Y-334010000D03*
X243920000Y-303530000D03*
X248920000Y-303530000D03*
X255270000Y-290910000D03*
X255270000Y-295910000D03*
X290830000Y-313770000D03*
X290830000Y-318770000D03*
X219710000Y-290910000D03*
X219710000Y-295910000D03*
X290830000Y-293450000D03*
X290830000Y-298450000D03*
X331550000Y-245110000D03*
X336550000Y-245110000D03*
X344250000Y-245110000D03*
X349250000Y-245110000D03*
X356950000Y-245110000D03*
X361950000Y-245110000D03*
X306150000Y-275590000D03*
X311150000Y-275590000D03*
X308690000Y-245110000D03*
X313690000Y-245110000D03*
X370920000Y-275590000D03*
X375920000Y-275590000D03*
X331550000Y-275590000D03*
X336550000Y-275590000D03*
X344250000Y-275590000D03*
X349250000Y-275590000D03*
X318850000Y-275590000D03*
X323850000Y-275590000D03*
X356950000Y-275590000D03*
X361950000Y-275590000D03*
X373460000Y-327660000D03*
X378460000Y-327660000D03*
X353140000Y-327660000D03*
X358140000Y-327660000D03*
X394970000Y-308690000D03*
X394970000Y-313690000D03*
X322660000Y-327660000D03*
X327660000Y-327660000D03*
X327660000Y-307340000D03*
X332660000Y-307340000D03*
X290830000Y-242650000D03*
X290830000Y-247650000D03*
X237515800Y-252730000D03*
X242515800Y-252730000D03*
X217250000Y-252730000D03*
X222250000Y-252730000D03*
X241345000Y-201930000D03*
X246345000Y-201930000D03*
X221025000Y-201930000D03*
X226025000Y-201930000D03*
X290830000Y-204550000D03*
X290830000Y-209550000D03*
X199390000Y-189260000D03*
X199390000Y-194260000D03*
X229870000Y-189260000D03*
X229870000Y-194260000D03*
X290830000Y-222330000D03*
X290830000Y-227330000D03*
X260350000Y-189260000D03*
X260350000Y-194260000D03*
X290830000Y-189260000D03*
X290830000Y-194260000D03*
X290830000Y-171567200D03*
X290830000Y-176567200D03*
X255270000Y-158780000D03*
X255270000Y-163780000D03*
X255270000Y-171480000D03*
X255270000Y-176480000D03*
X201885800Y-156895800D03*
X206885800Y-156895800D03*
X189310000Y-156946600D03*
X194310000Y-156946600D03*
X199390000Y-146130000D03*
X199390000Y-151130000D03*
X229870000Y-146130000D03*
X229870000Y-151130000D03*
X290830000Y-146050000D03*
X290830000Y-151050000D03*
X260350000Y-146130000D03*
X260350000Y-151130000D03*
X204470000Y-128270000D03*
X204470000Y-133270000D03*
X240030000Y-128350000D03*
X240030000Y-133350000D03*
X199390000Y-97870000D03*
X199390000Y-102870000D03*
X229870000Y-102790000D03*
X229870000Y-97790000D03*
X260350000Y-102790000D03*
X260350000Y-97790000D03*
X290830000Y-102790000D03*
X290830000Y-97790000D03*
X229870000Y-85170000D03*
X229870000Y-90170000D03*
X290830000Y-85170000D03*
X290830000Y-90170000D03*
X199390000Y-85170000D03*
X199390000Y-90170000D03*
X260350000Y-85170000D03*
X260350000Y-90170000D03*
X341630000Y-181530000D03*
X341630000Y-176530000D03*
X306070000Y-181530000D03*
X306070000Y-176530000D03*
X395700000Y-280670000D03*
D12*
X393700000Y-280670000D03*
D24*
X211201000Y-299212000D03*
X303530000Y-177673000D03*
X302996501Y-295630501D03*
X293243000Y-86614000D03*
X303530000Y-205994000D03*
X295402000Y-177673000D03*
X191135000Y-116332000D03*
X303114490Y-181102000D03*
X303114490Y-272669000D03*
X258318000Y-315087000D03*
X258318000Y-269459490D03*
X247015000Y-291211000D03*
X258826000Y-264414000D03*
X259691303Y-298680303D03*
X205867000Y-278384000D03*
X257810000Y-277241000D03*
X257810000Y-337185000D03*
X209296000Y-102235000D03*
X212090000Y-87630000D03*
X219456000Y-88646000D03*
X209677000Y-90033989D03*
X173355000Y-261620000D03*
X279781000Y-269875000D03*
X232156000Y-342357490D03*
X219837000Y-339471000D03*
X219837000Y-340106000D03*
X219837000Y-340741000D03*
X240538000Y-335280000D03*
X240284000Y-332740000D03*
X304673000Y-248920000D03*
X304453510Y-169383490D03*
X220980000Y-101346000D03*
X332232000Y-281940000D03*
X260731000Y-281940000D03*
X212217000Y-209550000D03*
X193167000Y-98425000D03*
X293878000Y-249047000D03*
X293243000Y-96520000D03*
X319532000Y-278384000D03*
X287909000Y-160147000D03*
X295910000Y-304419000D03*
X208280000Y-295148000D03*
X316611000Y-177292000D03*
X295910000Y-178689000D03*
X295910000Y-281940000D03*
X295910000Y-160147000D03*
X295910000Y-159512000D03*
X295910000Y-192024000D03*
X295910000Y-204597000D03*
X295910000Y-224536000D03*
X360680000Y-203962000D03*
X359434487Y-191550541D03*
X358140000Y-191516000D03*
X296545000Y-303911000D03*
X205740000Y-295494490D03*
X287909000Y-160782000D03*
X316611000Y-177927000D03*
X296546825Y-179104510D03*
X296545000Y-279400000D03*
X296546825Y-160783825D03*
X296546825Y-159513825D03*
X182880000Y-82413999D03*
X296546825Y-191608490D03*
X296545000Y-204308490D03*
X296545000Y-224824510D03*
X358140000Y-204216000D03*
X355600000Y-191897000D03*
X287909000Y-161417000D03*
X297180000Y-303403000D03*
X198120000Y-295773987D03*
X297180000Y-179358510D03*
X297180000Y-276860000D03*
X297180000Y-161417000D03*
X316611000Y-178562000D03*
X297180000Y-159512000D03*
X185420000Y-82159989D03*
X297180000Y-191354490D03*
X297180000Y-204054490D03*
X297180000Y-225078510D03*
X355600000Y-204597000D03*
X353020190Y-191936810D03*
X287909000Y-162052000D03*
X297815000Y-302895000D03*
X297815000Y-179612510D03*
X297815000Y-274320000D03*
X297815000Y-162052000D03*
X316611000Y-179162479D03*
X297815000Y-159512000D03*
X187960000Y-81905979D03*
X297815000Y-191100490D03*
X297815000Y-203800490D03*
X297815000Y-225332510D03*
X353020190Y-204636810D03*
X391160000Y-192405000D03*
X287909000Y-162687000D03*
X298450000Y-179866510D03*
X298446681Y-302390319D03*
X298450000Y-271780000D03*
X298450000Y-162687000D03*
X298450000Y-159512000D03*
X210820000Y-81651969D03*
X298450000Y-190846490D03*
X298450000Y-203546490D03*
X298450000Y-225586510D03*
X391160000Y-205105000D03*
X388620000Y-192820510D03*
X287909000Y-163322000D03*
X198120000Y-291084000D03*
X299085000Y-301752000D03*
X299085000Y-269240000D03*
X299085000Y-163322000D03*
X299085000Y-180213000D03*
X299085000Y-159512000D03*
X213360000Y-81372500D03*
X299085000Y-190592490D03*
X299085000Y-203292490D03*
X299085000Y-225840510D03*
X388620000Y-205520510D03*
X386080000Y-193074521D03*
X287909000Y-163957000D03*
X299720000Y-301244000D03*
X205740000Y-291338000D03*
X299720000Y-266700000D03*
X299720000Y-163957000D03*
X299742555Y-180397065D03*
X299720000Y-159512000D03*
X215900000Y-81118500D03*
X299720000Y-190338490D03*
X299720000Y-203038490D03*
X299720000Y-226094510D03*
X386080000Y-205774521D03*
X383540000Y-193328532D03*
X287909000Y-164592000D03*
X300355000Y-300736000D03*
X208278664Y-291499499D03*
X300355000Y-264160000D03*
X300355000Y-164465000D03*
X300355000Y-180628521D03*
X300355000Y-159512000D03*
X218440000Y-80864500D03*
X300355000Y-190084490D03*
X300355000Y-202784490D03*
X300355000Y-226348510D03*
X383540000Y-206028532D03*
X247396000Y-183896000D03*
X276098000Y-276860000D03*
X276259500Y-274320000D03*
X276513500Y-271780000D03*
X268291969Y-271780000D03*
X220726000Y-327660000D03*
X241681000Y-314960000D03*
X268545979Y-269240000D03*
X276767500Y-269240000D03*
X242316000Y-317500000D03*
X268799989Y-266700000D03*
X277021500Y-266700000D03*
X242570000Y-320040000D03*
X269053999Y-264160000D03*
X277284500Y-264160000D03*
X242824000Y-322580000D03*
X277538510Y-261620000D03*
X229904510Y-322580000D03*
X229870000Y-317500000D03*
X228981000Y-314833000D03*
X220980000Y-312420000D03*
X248342980Y-308419500D03*
X249393500Y-317500000D03*
X248758479Y-309521262D03*
X249139500Y-312420000D03*
X247396276Y-310607490D03*
X242374281Y-308366887D03*
X245618000Y-310896000D03*
X231047521Y-320167000D03*
X231013000Y-314960000D03*
X228473000Y-313436000D03*
X256794000Y-315087000D03*
X256794000Y-314452000D03*
X243967000Y-309880000D03*
X256794000Y-311150000D03*
X248666000Y-306578000D03*
X185937703Y-149698500D03*
X180268955Y-146748511D03*
X174556617Y-146939772D03*
X174676472Y-146375346D03*
X207038617Y-148936470D03*
X215900000Y-148590000D03*
X246380000Y-148726061D03*
X269655500Y-146939000D03*
X277275500Y-146395211D03*
X265938000Y-151257000D03*
X265972500Y-150674695D03*
X206271867Y-193578259D03*
X205867000Y-192786000D03*
X212487895Y-192723275D03*
X206668828Y-193159494D03*
X212895904Y-193131284D03*
X206248000Y-194183000D03*
X208788000Y-194183000D03*
X260731000Y-176022000D03*
X213106000Y-179959000D03*
X261464766Y-175875855D03*
X214122000Y-180086000D03*
X215138000Y-180594000D03*
X264414000Y-173828490D03*
X214664510Y-181009510D03*
X266201282Y-173801420D03*
X268019835Y-171982867D03*
X328168000Y-313690000D03*
X375920000Y-306705000D03*
X373380000Y-306451000D03*
X370840000Y-306197000D03*
X368300000Y-305943000D03*
X365760000Y-305689000D03*
X363220000Y-305435000D03*
X217008490Y-177331401D03*
X215854415Y-175831489D03*
X189611000Y-176276000D03*
X255651000Y-205740000D03*
X279400000Y-205740000D03*
X255651000Y-206375000D03*
X274320000Y-206375000D03*
X217590166Y-191735490D03*
X255651000Y-205105000D03*
X255651000Y-207010000D03*
X276860000Y-207010000D03*
X184658000Y-197866000D03*
X176657000Y-197612000D03*
X335280000Y-291084000D03*
X332867000Y-287782000D03*
X231775000Y-328930000D03*
X220726000Y-325374000D03*
X220726000Y-326517000D03*
X240792000Y-336550000D03*
X220980000Y-330581000D03*
X269240000Y-150114000D03*
X266700000Y-150587500D03*
X276860000Y-150841500D03*
X274320000Y-149977268D03*
X251841000Y-146050000D03*
X241427000Y-154523248D03*
X253111000Y-146558000D03*
X246507000Y-154559000D03*
X238988900Y-154523244D03*
X252476000Y-146050000D03*
X243967000Y-154523246D03*
X238506000Y-161925000D03*
X226883116Y-161734936D03*
X215865422Y-160689578D03*
X187071000Y-150749000D03*
X215392000Y-161417000D03*
X302514000Y-181102000D03*
X302514000Y-272669000D03*
X301879000Y-181102000D03*
X301879000Y-275336000D03*
X190627000Y-180848000D03*
X186944000Y-180848000D03*
X203327000Y-177800000D03*
X212378510Y-178689000D03*
X290824696Y-173302316D03*
X290830000Y-172720000D03*
X202692000Y-165862000D03*
X217297000Y-176784000D03*
X216789000Y-176022000D03*
X198628000Y-172593000D03*
X265430000Y-262001000D03*
X304038000Y-280289000D03*
X295148000Y-223520000D03*
X295021000Y-255270000D03*
X211709000Y-255270000D03*
X294513000Y-220218000D03*
X294386000Y-255778000D03*
X211074000Y-255905000D03*
X204597000Y-88392000D03*
X292100000Y-197104000D03*
X291338000Y-268478000D03*
X292481000Y-267970000D03*
X292862000Y-187071000D03*
X232918000Y-254254000D03*
X288290000Y-254254000D03*
X289052000Y-191135000D03*
X293023510Y-262890000D03*
X293233989Y-200025000D03*
X289052000Y-199644000D03*
X288798000Y-254762000D03*
X231902000Y-254762000D03*
X208534000Y-86868000D03*
X250825000Y-86868000D03*
X363596367Y-223300510D03*
X371221000Y-224155000D03*
X376301000Y-224790000D03*
X368681000Y-225044000D03*
X366141000Y-225298000D03*
X349377000Y-199253989D03*
X189357000Y-325628000D03*
D25*
X212560001Y-331940001D02*
X213360000Y-332740000D01*
X210976001Y-330356001D02*
X212560001Y-331940001D01*
X210976001Y-299436999D02*
X210976001Y-330356001D01*
X211201000Y-299212000D02*
X210976001Y-299436999D01*
X303530000Y-295097002D02*
X302996501Y-295630501D01*
X293243000Y-86614000D02*
X294132000Y-87503000D01*
X351510501Y-196570501D02*
X351319999Y-196379999D01*
X351510501Y-207289499D02*
X351510501Y-196570501D01*
X351319999Y-196379999D02*
X350520000Y-195580000D01*
X350520000Y-208280000D02*
X351510501Y-207289499D01*
X350520000Y-195580000D02*
X351510501Y-194589499D01*
X381990501Y-207289499D02*
X381799999Y-207480001D01*
X381799999Y-207480001D02*
X381000000Y-208280000D01*
X381990501Y-196570501D02*
X381990501Y-207289499D01*
X381000000Y-195580000D02*
X381990501Y-196570501D01*
X303530000Y-205994000D02*
X303530000Y-295097002D01*
X303530000Y-177673000D02*
X303530000Y-205994000D01*
X294132000Y-87503000D02*
X294132000Y-91059000D01*
X294132000Y-91059000D02*
X295910000Y-92837000D01*
X295910000Y-92837000D02*
X295910000Y-158496000D01*
X295910000Y-158496000D02*
X295275000Y-159131000D01*
X295275000Y-177546000D02*
X295402000Y-177673000D01*
X295275000Y-159131000D02*
X295275000Y-177546000D01*
X191490501Y-84810501D02*
X191490501Y-115976499D01*
X190500000Y-83820000D02*
X191490501Y-84810501D01*
X191490501Y-115976499D02*
X191135000Y-116332000D01*
X303114490Y-181102000D02*
X303114490Y-181420198D01*
X303114490Y-181420198D02*
X303114490Y-272669000D01*
X248920000Y-288633000D02*
X248920000Y-289560000D01*
X249960501Y-287592499D02*
X248920000Y-288633000D01*
X249960501Y-267740501D02*
X249960501Y-287592499D01*
X248920000Y-266700000D02*
X249960501Y-267740501D01*
X258318000Y-315087000D02*
X258318000Y-269459490D01*
X247879499Y-290346501D02*
X247015000Y-291211000D01*
X247879499Y-262660501D02*
X247879499Y-290346501D01*
X248920000Y-261620000D02*
X247879499Y-262660501D01*
X258826000Y-264414000D02*
X258826000Y-270129000D01*
X258826000Y-297815000D02*
X259691303Y-298680303D01*
X258826000Y-270129000D02*
X258826000Y-297815000D01*
X258826000Y-270129000D02*
X258826000Y-270256000D01*
X204749499Y-279501501D02*
X204749499Y-307962499D01*
X205740000Y-308953000D02*
X205740000Y-309880000D01*
X205867000Y-278384000D02*
X204749499Y-279501501D01*
X204749499Y-307962499D02*
X205740000Y-308953000D01*
X257810000Y-277241000D02*
X257810000Y-337185000D01*
X209677000Y-260223000D02*
X208280000Y-261620000D01*
X209677000Y-258445000D02*
X209677000Y-260223000D01*
X209296000Y-102235000D02*
X209296000Y-103612521D01*
X209296000Y-103612521D02*
X209315479Y-103632000D01*
X209315479Y-258072577D02*
X209320501Y-258077599D01*
X209315479Y-103632000D02*
X209315479Y-258072577D01*
X209550000Y-258318000D02*
X209677000Y-258445000D01*
X209320501Y-258088501D02*
X209550000Y-258318000D01*
X209320501Y-258077599D02*
X209320501Y-258088501D01*
X209823499Y-246780499D02*
X209823499Y-246849441D01*
X209823499Y-257873049D02*
X210185022Y-258234572D01*
X210185022Y-258234572D02*
X210185022Y-264794978D01*
X210185022Y-264794978D02*
X209613500Y-265366500D01*
X208280000Y-266700000D02*
X209613500Y-265366500D01*
X209613500Y-265366500D02*
X209804000Y-265176000D01*
X209823499Y-248646501D02*
X209823499Y-257873049D01*
X209823499Y-246780499D02*
X209823499Y-248646501D01*
X209823499Y-241700499D02*
X209823499Y-242208499D01*
X209823499Y-242208499D02*
X209823499Y-248646501D01*
X209823499Y-239033499D02*
X209823499Y-239160499D01*
X209823499Y-239033499D02*
X209823499Y-240264501D01*
X209823499Y-240264501D02*
X209823499Y-240938499D01*
X209823499Y-240938499D02*
X209823499Y-242208499D01*
X209823499Y-239033499D02*
X209823499Y-103670559D01*
X211835989Y-101658069D02*
X211835989Y-87884011D01*
X211835989Y-87884011D02*
X211865001Y-87854999D01*
X209823499Y-103670559D02*
X211835989Y-101658069D01*
X211865001Y-87854999D02*
X212090000Y-87630000D01*
X222715801Y-278591001D02*
X223515800Y-279391000D01*
X219685299Y-275560499D02*
X222715801Y-278591001D01*
X219685299Y-88875299D02*
X219456000Y-88646000D01*
X219685299Y-157123701D02*
X219685299Y-88875299D01*
X219685299Y-157123701D02*
X219685299Y-275560499D01*
X209129999Y-263310001D02*
X208280000Y-264160000D01*
X209931011Y-262508989D02*
X209129999Y-263310001D01*
X209711501Y-90386688D02*
X209677000Y-90352187D01*
X209677000Y-90352187D02*
X209677000Y-90033989D01*
X209711501Y-103423332D02*
X209711501Y-103285501D01*
X209711501Y-103285501D02*
X209711501Y-90386688D01*
X209931011Y-258339787D02*
X209931011Y-258698989D01*
X209569489Y-103565345D02*
X209569489Y-257978265D01*
X209711501Y-103423333D02*
X209569489Y-103565345D01*
X209711501Y-103285501D02*
X209711501Y-103423333D01*
X209569489Y-257978265D02*
X209931011Y-258339787D01*
X209931011Y-258698989D02*
X209931011Y-262508989D01*
X209931011Y-258339786D02*
X209931011Y-258698989D01*
X173355000Y-106045000D02*
X175260000Y-104140000D01*
X173355000Y-254635000D02*
X173355000Y-106045000D01*
X173355000Y-254889000D02*
X173355000Y-254635000D01*
X173355000Y-261620000D02*
X173355000Y-254635000D01*
X279781000Y-263779000D02*
X281940000Y-261620000D01*
X279781000Y-269875000D02*
X279781000Y-263779000D01*
X201676000Y-312420000D02*
X195326000Y-306070000D01*
X205740000Y-312420000D02*
X201676000Y-312420000D01*
X191299999Y-224211999D02*
X190500000Y-223412000D01*
X191490501Y-300961709D02*
X191490501Y-224402501D01*
X195326000Y-304797208D02*
X191490501Y-300961709D01*
X191490501Y-224402501D02*
X191299999Y-224211999D01*
X195326000Y-306070000D02*
X195326000Y-304797208D01*
X201930000Y-306070000D02*
X200025000Y-304165000D01*
X200025000Y-304165000D02*
X195072000Y-304165000D01*
X195072000Y-304165000D02*
X191770000Y-300863000D01*
X191770000Y-222142000D02*
X190500000Y-220872000D01*
X191770000Y-300863000D02*
X191770000Y-222142000D01*
X206248000Y-311277000D02*
X205194098Y-311277000D01*
X201930000Y-308012902D02*
X201930000Y-306070000D01*
X205194098Y-311277000D02*
X201930000Y-308012902D01*
X206730501Y-311759501D02*
X206248000Y-311277000D01*
X206730501Y-319049499D02*
X206730501Y-311759501D01*
X205740000Y-320040000D02*
X206730501Y-319049499D01*
X304453510Y-248700510D02*
X304673000Y-248920000D01*
X304453510Y-169383490D02*
X304453510Y-248700510D01*
X220980000Y-101346000D02*
X220980000Y-104140000D01*
X330999999Y-259879999D02*
X330200000Y-259080000D01*
X332540501Y-261420501D02*
X330999999Y-259879999D01*
X332540501Y-281631499D02*
X332540501Y-261420501D01*
X332232000Y-281940000D02*
X332540501Y-281631499D01*
X260731000Y-281940000D02*
X261629000Y-281042000D01*
X261629000Y-281042000D02*
X261629000Y-248915800D01*
X262419999Y-229399999D02*
X261620000Y-228600000D01*
X262619501Y-229599501D02*
X262419999Y-229399999D01*
X262619501Y-247925299D02*
X262619501Y-229599501D01*
X261629000Y-248915800D02*
X262619501Y-247925299D01*
X262610501Y-211810501D02*
X262419999Y-211619999D01*
X262419999Y-211619999D02*
X261620000Y-210820000D01*
X262610501Y-227609499D02*
X262610501Y-211810501D01*
X261620000Y-228600000D02*
X262610501Y-227609499D01*
X286893000Y-101473000D02*
X281940000Y-96520000D01*
X189357000Y-97663000D02*
X182811058Y-97663000D01*
X182811058Y-97663000D02*
X176803499Y-103670559D01*
X190500000Y-96520000D02*
X189357000Y-97663000D01*
X176803499Y-133076501D02*
X175254000Y-134626000D01*
X176803499Y-103670559D02*
X176803499Y-133076501D01*
X210814000Y-135757370D02*
X210820000Y-135763370D01*
X210814000Y-134626000D02*
X210814000Y-135757370D01*
X210820000Y-135763370D02*
X212217000Y-137160370D01*
X211963009Y-137414361D02*
X211963009Y-209296009D01*
X212217000Y-137160370D02*
X211963009Y-137414361D01*
X211963009Y-209296009D02*
X212217000Y-209550000D01*
X293649499Y-108940501D02*
X293649499Y-248818499D01*
X293649499Y-248818499D02*
X293653001Y-248822001D01*
X293653001Y-248822001D02*
X293878000Y-249047000D01*
X293649499Y-96926499D02*
X293243000Y-96520000D01*
X293649499Y-108940501D02*
X293649499Y-96926499D01*
X247396000Y-183896000D02*
X247396000Y-176784000D01*
X247396000Y-177419000D02*
X247396000Y-176784000D01*
X247396000Y-174117000D02*
X247396000Y-177419000D01*
X247396000Y-178816000D02*
X247396000Y-177419000D01*
X247396000Y-174244000D02*
X247396000Y-174117000D01*
X191999499Y-185992499D02*
X191999499Y-122960501D01*
X192240001Y-122719999D02*
X193040000Y-121920000D01*
X191999499Y-122960501D02*
X192240001Y-122719999D01*
X193040000Y-187033000D02*
X191999499Y-185992499D01*
X193040000Y-187960000D02*
X193040000Y-187033000D01*
X218440000Y-127000000D02*
X218434000Y-127006000D01*
X218440000Y-121920000D02*
X218440000Y-127000000D01*
X185442000Y-150194203D02*
X185442000Y-152355200D01*
X185937703Y-149698500D02*
X185442000Y-150194203D01*
X208302000Y-150199853D02*
X208302000Y-152355200D01*
X207038617Y-148936470D02*
X208302000Y-150199853D01*
X215900000Y-152333200D02*
X215922000Y-152355200D01*
X215900000Y-148590000D02*
X215900000Y-152333200D01*
X246402000Y-148748061D02*
X246380000Y-148726061D01*
X246402000Y-152355200D02*
X246402000Y-148748061D01*
X269655500Y-151961700D02*
X269262000Y-152355200D01*
X269655500Y-146939000D02*
X269655500Y-151961700D01*
X277275500Y-151961700D02*
X276882000Y-152355200D01*
X277275500Y-146395211D02*
X277275500Y-151961700D01*
X302514000Y-181102000D02*
X302514000Y-272669000D01*
X301879000Y-274193000D02*
X301879000Y-274701000D01*
X301879000Y-275336000D02*
X301879000Y-274193000D01*
X301879000Y-181102000D02*
X301879000Y-274193000D01*
X187960000Y-163487000D02*
X187960000Y-162560000D01*
X190627000Y-166154000D02*
X187960000Y-163487000D01*
X190627000Y-180848000D02*
X190627000Y-166154000D01*
X186944000Y-171196000D02*
X187960000Y-170180000D01*
X186944000Y-180848000D02*
X186944000Y-171196000D01*
X265430000Y-123190000D02*
X266700000Y-121920000D01*
X265430000Y-262001000D02*
X265430000Y-123190000D01*
X302260000Y-121920000D02*
X302260000Y-175387000D01*
X302260000Y-175387000D02*
X304038000Y-177165000D01*
X304038000Y-280289000D02*
X304038000Y-278257000D01*
X304038000Y-177165000D02*
X304038000Y-278257000D01*
X200025000Y-114300000D02*
X198120000Y-114300000D01*
X203107501Y-177404557D02*
X203107501Y-156651559D01*
X202209499Y-275711499D02*
X202209499Y-258446559D01*
X202692000Y-252026058D02*
X202692000Y-177820058D01*
X202692000Y-177820058D02*
X203107501Y-177404557D01*
X203200000Y-276702000D02*
X202209499Y-275711499D01*
X202920501Y-252254559D02*
X202692000Y-252026058D01*
X202920501Y-257735557D02*
X202920501Y-252254559D01*
X203059971Y-117334971D02*
X200025000Y-114300000D01*
X203059971Y-156604029D02*
X203059971Y-117334971D01*
X202209499Y-258446559D02*
X202920501Y-257735557D01*
X203107501Y-156651559D02*
X203059971Y-156604029D01*
X295148000Y-224409000D02*
X295148000Y-254889000D01*
X295148000Y-223520000D02*
X295148000Y-224409000D01*
X295148000Y-255143000D02*
X295021000Y-255270000D01*
X295148000Y-254889000D02*
X295148000Y-255143000D01*
X211709000Y-270891000D02*
X208280000Y-274320000D01*
X211709000Y-255270000D02*
X211709000Y-270891000D01*
X294513000Y-220218000D02*
X294513000Y-224663000D01*
X294513000Y-255651000D02*
X294386000Y-255778000D01*
X294513000Y-224663000D02*
X294513000Y-255651000D01*
X211074000Y-268986000D02*
X208280000Y-271780000D01*
X211074000Y-255905000D02*
X211074000Y-268986000D01*
X269240000Y-83820000D02*
X269240000Y-91440000D01*
X205460501Y-127794559D02*
X205460501Y-143570757D01*
X205460501Y-143570757D02*
X204190501Y-144840757D01*
X204190501Y-144840757D02*
X204190501Y-268091499D01*
X203999999Y-268282001D02*
X203200000Y-269082000D01*
X204190501Y-268091499D02*
X203999999Y-268282001D01*
X204470000Y-88519000D02*
X204597000Y-88392000D01*
X204470000Y-104335942D02*
X204470000Y-92583000D01*
X205460501Y-105326443D02*
X204470000Y-104335942D01*
X205460501Y-127794559D02*
X205460501Y-105326443D01*
X204470000Y-92583000D02*
X204470000Y-88519000D01*
X204470000Y-93218000D02*
X204470000Y-92583000D01*
X393700000Y-187960000D02*
X393700000Y-195580000D01*
X292100000Y-197104000D02*
X292100000Y-200914000D01*
X292100000Y-267716000D02*
X291338000Y-268478000D01*
X292100000Y-200914000D02*
X292100000Y-267716000D01*
X292608000Y-199898000D02*
X292608000Y-203835000D01*
X292608000Y-267843000D02*
X292481000Y-267970000D01*
X292608000Y-203835000D02*
X292608000Y-267843000D01*
X292608000Y-199898000D02*
X292608000Y-188087000D01*
X292608000Y-187325000D02*
X292862000Y-187071000D01*
X292608000Y-188087000D02*
X292608000Y-187325000D01*
X232410000Y-262890000D02*
X232410000Y-254762000D01*
X228600000Y-266700000D02*
X232410000Y-262890000D01*
X232410000Y-254762000D02*
X232918000Y-254254000D01*
X288514999Y-254029001D02*
X288514999Y-253521001D01*
X288290000Y-254254000D02*
X288514999Y-254029001D01*
X288514999Y-253521001D02*
X288514999Y-251997001D01*
X288636499Y-199444559D02*
X289052000Y-199029058D01*
X288636499Y-251875501D02*
X288636499Y-199444559D01*
X288514999Y-251997001D02*
X288636499Y-251875501D01*
X289052000Y-199029058D02*
X289052000Y-191135000D01*
X293023510Y-262890000D02*
X293023510Y-200235479D01*
X293023510Y-200235479D02*
X293233989Y-200025000D01*
X289052000Y-199644000D02*
X289052000Y-200406000D01*
X289052000Y-254508000D02*
X288798000Y-254762000D01*
X289052000Y-200406000D02*
X289052000Y-254508000D01*
X231677001Y-254986999D02*
X231677001Y-258542999D01*
X231677001Y-258542999D02*
X228600000Y-261620000D01*
X231902000Y-254762000D02*
X231677001Y-254986999D01*
X208280000Y-87122000D02*
X208534000Y-86868000D01*
X208280000Y-91440000D02*
X208280000Y-87122000D01*
X251460000Y-87503000D02*
X251460000Y-91440000D01*
X250825000Y-86868000D02*
X251460000Y-87503000D01*
X334130501Y-254316443D02*
X337370058Y-257556000D01*
X334130501Y-221970501D02*
X334130501Y-254316443D01*
X333140000Y-220980000D02*
X334130501Y-221970501D01*
X354584000Y-257556000D02*
X355600000Y-256540000D01*
X337370058Y-257556000D02*
X354584000Y-257556000D01*
X330200000Y-208280000D02*
X328930000Y-207010000D01*
X312820000Y-227673000D02*
X312820000Y-228600000D01*
X314764058Y-207010000D02*
X313810501Y-207963557D01*
X313810501Y-226682499D02*
X312820000Y-227673000D01*
X313810501Y-207963557D02*
X313810501Y-226682499D01*
X328930000Y-207010000D02*
X314764058Y-207010000D01*
X316509499Y-219589499D02*
X317100001Y-220180001D01*
X316509499Y-207804559D02*
X316509499Y-219589499D01*
X317024559Y-207289499D02*
X316509499Y-207804559D01*
X317100001Y-220180001D02*
X317900000Y-220980000D01*
X326669499Y-207289499D02*
X317024559Y-207289499D01*
X327660000Y-208280000D02*
X326669499Y-207289499D01*
X316350501Y-227609499D02*
X316159999Y-227800001D01*
X320356443Y-227609499D02*
X316350501Y-227609499D01*
X316159999Y-227800001D02*
X315360000Y-228600000D01*
X326510501Y-221455441D02*
X320356443Y-227609499D01*
X326510501Y-209670501D02*
X326510501Y-221455441D01*
X325120000Y-208280000D02*
X326510501Y-209670501D01*
X325501000Y-220961000D02*
X325520000Y-220980000D01*
X322580000Y-218040000D02*
X325520000Y-220980000D01*
X322580000Y-208280000D02*
X322580000Y-218040000D01*
X361670501Y-186969499D02*
X361479999Y-187160001D01*
X361479999Y-187160001D02*
X360680000Y-187960000D01*
X375920000Y-213360000D02*
X375863777Y-213360000D01*
X373252989Y-188954213D02*
X371268275Y-186969499D01*
X375863777Y-213360000D02*
X373252989Y-210749212D01*
X373252989Y-210749212D02*
X373252989Y-188954213D01*
X371268275Y-186969499D02*
X361670501Y-186969499D01*
X377419499Y-212319499D02*
X375182501Y-212319499D01*
X378460000Y-213360000D02*
X377419499Y-212319499D01*
X375182501Y-212319499D02*
X373507000Y-210643998D01*
X373507000Y-210643998D02*
X373507000Y-188849000D01*
X373507000Y-188849000D02*
X371348000Y-186690000D01*
X359410000Y-186690000D02*
X358140000Y-187960000D01*
X371348000Y-186690000D02*
X359410000Y-186690000D01*
X355600000Y-187960000D02*
X357124000Y-186436000D01*
X357124000Y-186436000D02*
X371475000Y-186436000D01*
X371475000Y-186436000D02*
X373761000Y-188722000D01*
X373761000Y-188722000D02*
X373761000Y-210439000D01*
X373761000Y-210439000D02*
X375387489Y-212065489D01*
X379705489Y-212065489D02*
X381000000Y-213360000D01*
X375387489Y-212065489D02*
X379705489Y-212065489D01*
X383540000Y-213360000D02*
X381889000Y-211709000D01*
X381889000Y-211709000D02*
X375412000Y-211709000D01*
X375412000Y-211709000D02*
X374015000Y-210312000D01*
X374015000Y-210312000D02*
X374015000Y-188595000D01*
X374015000Y-188595000D02*
X371602000Y-186182000D01*
X354838000Y-186182000D02*
X353060000Y-187960000D01*
X371602000Y-186182000D02*
X354838000Y-186182000D01*
X349377000Y-198935791D02*
X349377000Y-199253989D01*
X349377000Y-189103000D02*
X349377000Y-198935791D01*
X350520000Y-187960000D02*
X349377000Y-189103000D01*
X189103000Y-267843000D02*
X187960000Y-266700000D01*
X189103000Y-324485000D02*
X189103000Y-267843000D01*
X189103000Y-325374000D02*
X189357000Y-325628000D01*
X189103000Y-324485000D02*
X189103000Y-325374000D01*
X356590501Y-258089499D02*
X356399999Y-258280001D01*
X375836443Y-258089499D02*
X356590501Y-258089499D01*
X377469499Y-222370501D02*
X377469499Y-256456443D01*
X356399999Y-258280001D02*
X355600000Y-259080000D01*
X377469499Y-256456443D02*
X375836443Y-258089499D01*
X378860000Y-220980000D02*
X377469499Y-222370501D01*
M02*
