M48
; DRILL file {KiCad (5.1.0-0)} date Saturday, October 26, 2019 at 12:33:51 PM
; FORMAT={-:-/ absolute / inch / decimal}
; #@! TF.CreationDate,2019-10-26T12:33:51-07:00
; #@! TF.GenerationSoftware,Kicad,Pcbnew,(5.1.0-0)
FMAT,2
INCH
T1C0.0079
T2C0.0295
T3C0.0315
T4C0.0354
T5C0.0394
T6C0.0433
T7C0.0512
T8C0.1260
%
G90
G05
T1
X6.825Y-10.3
X6.8723Y-5.785
X6.877Y-5.7628
X6.955Y-7.78
X7.0972Y-5.7775
X7.2Y-3.2446
X7.27Y-7.79
X7.3Y-3.2346
X7.3204Y-5.8936
X7.36Y-7.12
X7.365Y-5.935
X7.4Y-3.2246
X7.455Y-12.82
X7.465Y-6.94
X7.505Y-7.12
X7.525Y-4.58
X7.605Y-3.875
X7.8Y-11.46
X7.8Y-11.6446
X7.82Y-6.795
X7.98Y-6.53
X8.005Y-7.0
X8.055Y-3.48
X8.1Y-11.47
X8.1Y-11.6336
X8.105Y-7.59
X8.105Y-10.96
X8.12Y-7.645
X8.1209Y-7.6212
X8.1366Y-7.6047
X8.1511Y-5.8636
X8.1999Y-11.4764
X8.2Y-11.62
X8.21Y-3.42
X8.22Y-7.645
X8.24Y-4.025
X8.255Y-3.5446
X8.3Y-3.2146
X8.31Y-10.075
X8.315Y-11.78
X8.335Y-10.05
X8.35Y-3.45
X8.355Y-8.25
X8.3614Y-7.035
X8.3657Y-7.5875
X8.3817Y-7.6036
X8.39Y-7.085
X8.4Y-3.2036
X8.43Y-7.09
X8.4514Y-7.1264
X8.47Y-7.11
X8.48Y-6.355
X8.4982Y-6.9225
X8.4986Y-6.3264
X8.5Y-3.1936
X8.5Y-5.85
X8.535Y-6.93
X8.5436Y-6.9816
X8.555Y-6.96
X8.5665Y-7.5486
X8.6Y-3.1836
X8.64Y-3.49
X8.655Y-13.365
X8.655Y-13.39
X8.655Y-13.415
X8.69Y-12.81
X8.69Y-12.855
X8.69Y-12.9
X8.7Y-3.99
X8.7Y-12.3
X8.7Y-13.015
X8.9324Y-6.3675
X8.995Y-12.34
X9.015Y-12.395
X9.05Y-12.5
X9.0514Y-12.7
X9.095Y-12.4
X9.0964Y-12.605
X9.125Y-12.95
X9.13Y-10.03
X9.14Y-13.4786
X9.17Y-10.01
X9.39Y-6.375
X9.409Y-6.0836
X9.46Y-13.1
X9.47Y-13.2
X9.48Y-13.25
X9.505Y-6.0836
X9.515Y-12.4
X9.54Y-12.5
X9.5423Y-12.1404
X9.55Y-12.6
X9.56Y-12.7
X9.605Y-6.0836
X9.605Y-12.2
X9.67Y-12.24
X9.7Y-5.8554
X9.705Y-6.085
X9.725Y-11.465
X9.74Y-7.24
X9.74Y-12.2286
X9.7773Y-12.1425
X9.79Y-12.07
X9.7936Y-12.1859
X9.8086Y-12.3
X9.8186Y-12.5
X9.875Y-3.42
X9.915Y-5.75
X9.94Y-5.75
X9.965Y-5.77
X10.065Y-8.075
X10.065Y-8.1
X10.065Y-8.125
X10.065Y-8.15
X10.11Y-12.25
X10.11Y-12.38
X10.11Y-12.405
X10.15Y-10.915
X10.15Y-13.275
X10.17Y-10.6086
X10.17Y-12.405
X10.19Y-10.41
X10.2241Y-11.7591
X10.265Y-6.93
X10.265Y-11.1
X10.2939Y-6.9242
X10.41Y-6.8436
X10.45Y-10.315
X10.47Y-5.955
X10.4714Y-5.9321
X10.4804Y-6.8426
X10.5Y-5.9286
X10.552Y-6.771
X10.5627Y-10.7
X10.5727Y-10.6
X10.5827Y-10.5
X10.5927Y-10.4
X10.6Y-5.91
X10.6164Y-5.785
X10.8Y-5.9046
X10.8Y-8.125
X10.87Y-10.9
X10.8764Y-10.8
X10.8864Y-10.7
X10.8964Y-10.6
X10.9Y-5.9386
X10.9Y-8.15
X10.9064Y-10.5
X10.9164Y-5.7636
X10.9167Y-10.4
X10.9267Y-10.3
X11.0Y-8.1
X11.015Y-10.625
X11.335Y-6.305
X11.335Y-6.33
X11.335Y-6.355
X11.335Y-6.38
X11.335Y-6.405
X11.335Y-6.43
X11.335Y-6.455
X11.335Y-6.48
X11.35Y-10.01
X11.37Y-10.03
X11.38Y-7.525
X11.38Y-7.86
X11.4498Y-6.8229
X11.45Y-6.8
X11.47Y-10.57
X11.5Y-7.76
X11.515Y-10.55
X11.53Y-7.365
X11.5364Y-10.35
X11.5446Y-7.875
X11.545Y-3.41
X11.545Y-3.8
X11.57Y-9.805
X11.59Y-10.07
X11.595Y-8.67
X11.615Y-10.05
X11.62Y-8.8
X11.63Y-6.995
X11.65Y-6.28
X11.65Y-6.305
X11.65Y-7.035
X11.65Y-7.56
X11.65Y-8.055
X11.65Y-8.84
X11.65Y-11.1
X11.65Y-11.985
X11.675Y-8.0436
X11.675Y-8.8514
X11.675Y-11.0
X11.675Y-11.965
X11.6751Y-6.2801
X11.6751Y-6.3301
X11.6751Y-7.0514
X11.6751Y-7.5436
X11.7Y-6.28
X11.7Y-6.355
X11.7Y-7.0614
X11.7Y-7.5336
X11.7Y-8.0336
X11.7Y-8.8614
X11.7Y-10.9
X11.7Y-11.945
X11.725Y-6.28
X11.725Y-6.38
X11.725Y-7.0714
X11.725Y-7.5236
X11.725Y-8.0236
X11.725Y-8.8714
X11.725Y-10.8
X11.725Y-11.925
X11.7499Y-11.9051
X11.75Y-6.28
X11.75Y-6.405
X11.75Y-7.0814
X11.75Y-7.5136
X11.75Y-8.0136
X11.75Y-8.8814
X11.75Y-10.7
X11.775Y-6.28
X11.775Y-6.43
X11.775Y-7.095
X11.775Y-7.5036
X11.775Y-8.0036
X11.775Y-8.8914
X11.775Y-10.6
X11.775Y-11.88
X11.8Y-6.28
X11.8Y-6.455
X11.8Y-7.4936
X11.8Y-7.9936
X11.8Y-8.9014
X11.8Y-10.5
X11.8Y-11.86
X11.8009Y-7.1022
X11.825Y-6.28
X11.825Y-6.475
X11.825Y-7.1114
X11.825Y-7.4836
X11.825Y-7.9836
X11.825Y-8.9114
X11.825Y-10.4
X11.825Y-11.84
X11.885Y-7.13
X11.885Y-10.84
X11.91Y-7.13
X11.91Y-10.735
X11.929Y-11.639
X11.9336Y-7.13
X11.9336Y-10.735
X11.95Y-6.995
X11.95Y-8.11
X11.97Y-11.035
X11.9864Y-6.6686
X11.995Y-9.8
X12.465Y-6.98
X12.465Y-7.005
X12.465Y-7.03
X12.465Y-7.0536
X12.58Y-10.96
X12.92Y-12.35
X13.08Y-11.1
X13.105Y-11.33
X13.2Y-11.46
X13.755Y-7.8446
X13.8984Y-7.5566
X13.8984Y-8.0566
X14.0Y-7.555
X14.0Y-8.055
X14.1Y-7.54
X14.1Y-8.04
X14.151Y-7.5414
X14.2Y-8.03
X14.3Y-12.025
X14.3148Y-8.7914
X14.4Y-12.035
X14.415Y-8.87
X14.5Y-12.045
X14.515Y-8.86
X14.6Y-12.055
X14.615Y-8.825
X14.7Y-12.065
X14.8Y-12.075
X14.815Y-8.85
X15.1Y-7.6114
X15.1Y-8.1114
X15.2Y-7.6014
X15.2Y-8.1014
X15.3Y-7.5914
X15.3Y-8.0914
X15.4Y-7.575
X15.4Y-8.075
T2
X14.55Y-10.5
X14.6Y-10.45
X14.65Y-10.5
T3
X11.45Y-13.15
X14.65Y-6.95
X11.45Y-13.3469
X12.5531Y-10.85
X12.75Y-10.85
X15.5Y-11.05
X15.5787Y-11.05
X11.45Y-6.2531
X11.45Y-6.45
X9.3Y-8.2
X9.3Y-8.3
X9.3Y-8.4
X9.3Y-8.5
X9.3Y-8.6
X9.3Y-8.7
X9.3Y-8.8
X9.3Y-8.9
X9.3Y-9.0
X9.3Y-9.1
X9.3Y-9.2
X14.65Y-7.1469
X10.5009Y-5.9982
X10.6009Y-5.6982
X10.6009Y-5.9982
X10.7009Y-5.6982
X10.8009Y-5.6982
X10.8009Y-5.9982
X10.9009Y-5.6982
X10.9009Y-5.9982
X11.0009Y-5.6982
X11.0009Y-5.9982
X11.1009Y-5.6982
X11.1009Y-5.9982
X11.2009Y-5.6982
X11.2009Y-5.9982
X8.65Y-11.4531
X8.65Y-11.65
X11.45Y-3.85
X11.45Y-4.0469
X13.5Y-9.9
X13.5Y-10.0
X13.5Y-10.1
X13.5Y-10.2
X13.5Y-10.3
X13.5Y-10.4
X13.5Y-10.5
X13.8Y-9.9
X13.8Y-10.0
X13.8Y-10.1
X13.8Y-10.2
X13.8Y-10.3
X13.8Y-10.4
X13.8Y-10.5
X9.3Y-9.3
X10.5009Y-5.6982
X9.3Y-9.4
X9.3Y-9.5
X9.3Y-9.6
X9.3Y-9.7
X9.9Y-8.2
X9.9Y-8.3
X9.9Y-8.4
X9.9Y-8.5
X9.9Y-8.6
X9.9Y-8.7
X9.9Y-8.8
X9.9Y-8.9
X9.9Y-9.0
X9.9Y-9.1
X10.7009Y-5.9982
X9.9Y-9.2
X9.9Y-9.3
X9.9Y-9.4
X9.9Y-9.5
X9.9Y-9.6
X9.9Y-9.7
X13.45Y-13.45
X13.75Y-13.45
X9.5018Y-7.95
X9.6986Y-7.95
X10.25Y-3.85
X10.25Y-4.0469
X13.25Y-12.35
X13.55Y-12.35
X12.05Y-7.45
X12.05Y-7.6469
X10.8531Y-9.95
X11.05Y-9.95
X15.05Y-13.3
X15.35Y-13.3
X6.9Y-10.1938
X6.9Y-10.2938
X6.9Y-10.3938
X6.9Y-10.4938
X6.9Y-10.5938
X6.9Y-10.6938
X6.9Y-10.7938
X6.9Y-10.8938
X6.9Y-10.9938
X6.9Y-11.0938
X14.9Y-7.9
X14.9Y-8.2
X15.0Y-7.9
X15.0Y-8.2
X15.1Y-7.9
X15.1Y-8.2
X15.2Y-7.9
X15.2Y-8.2
X15.3Y-7.9
X15.3Y-8.2
X15.4Y-7.9
X15.4Y-8.2
X15.5Y-7.9
X15.5Y-8.2
X15.6Y-7.9
X15.6Y-8.2
X7.7Y-8.2
X7.7Y-8.3
X7.7Y-8.4
X7.7Y-8.5
X7.7Y-8.6
X7.7Y-8.7
X7.7Y-8.8
X7.7Y-8.9
X7.7Y-9.0
X7.7Y-9.1
X7.7Y-9.2
X7.7Y-9.3
X7.7Y-9.4
X7.7Y-9.5
X7.7Y-9.6
X7.7Y-9.7
X8.3Y-8.2
X8.3Y-8.3
X8.3Y-8.4
X8.3Y-8.5
X8.3Y-8.6
X8.3Y-8.7
X8.3Y-8.8
X8.3Y-8.9
X8.3Y-9.0
X8.3Y-9.1
X8.3Y-9.2
X8.3Y-9.3
X8.3Y-9.4
X8.3Y-9.5
X8.3Y-9.6
X8.3Y-9.7
X12.65Y-13.15
X12.65Y-13.25
X12.65Y-13.35
X12.65Y-13.45
X12.95Y-13.15
X12.95Y-13.25
X12.95Y-13.35
X12.95Y-13.45
X6.9Y-3.8
X6.9Y-4.1
X7.0Y-3.8
X7.0Y-4.1
X7.1Y-3.8
X7.1Y-4.1
X7.2Y-3.8
X7.2Y-4.1
X7.3Y-3.8
X7.3Y-4.1
X7.4Y-3.8
X7.4Y-4.1
X7.5Y-3.8
X7.5Y-4.1
X7.6Y-3.8
X7.6Y-4.1
X13.45Y-13.15
X13.75Y-13.15
X9.05Y-5.7531
X9.05Y-5.95
X14.65Y-7.45
X14.65Y-7.6469
X6.9Y-3.3
X6.9Y-3.6
X7.0Y-3.3
X7.0Y-3.6
X7.1Y-3.3
X7.1Y-3.6
X7.2Y-3.3
X7.2Y-3.6
X7.3Y-3.3
X7.3Y-3.6
X7.4Y-3.3
X7.4Y-3.6
X7.5Y-3.3
X7.5Y-3.6
X7.6Y-3.3
X7.6Y-3.6
X8.2998Y-5.3002
X8.3998Y-5.0002
X8.3998Y-5.3002
X8.4998Y-5.0002
X8.4998Y-5.3002
X8.5998Y-5.0002
X8.5998Y-5.3002
X8.6998Y-5.0002
X8.6998Y-5.3002
X8.7998Y-5.0002
X8.7998Y-5.3002
X8.8998Y-5.0002
X8.8998Y-5.3002
X8.9998Y-5.0002
X8.9998Y-5.3002
X9.0998Y-5.0002
X9.0998Y-5.3002
X9.1998Y-5.0002
X9.1998Y-5.3002
X14.25Y-13.45
X14.55Y-13.45
X10.5Y-3.3
X10.5Y-3.6
X10.6Y-3.3
X10.6Y-3.6
X10.7Y-3.3
X10.7Y-3.6
X10.8Y-3.3
X10.8Y-3.6
X10.9Y-3.3
X10.9Y-3.6
X11.0Y-3.3
X11.0Y-3.6
X11.1Y-3.3
X11.1Y-3.6
X11.2Y-3.3
X11.2Y-3.6
X8.2009Y-5.6982
X14.9Y-10.2
X10.05Y-11.4531
X10.05Y-11.65
X15.35Y-10.15
X15.65Y-10.15
X6.9009Y-5.6982
X6.9009Y-5.9982
X7.0009Y-5.6982
X7.1009Y-5.6982
X7.1009Y-5.9982
X7.2009Y-5.6982
X7.2009Y-5.9982
X7.3009Y-5.6982
X7.3009Y-5.9982
X7.4009Y-5.6982
X7.4009Y-5.9982
X7.5009Y-5.6982
X7.5009Y-5.9982
X7.6009Y-5.6982
X7.6009Y-5.9982
X15.0969Y-10.2
X7.0009Y-5.9982
X11.65Y-12.8
X11.75Y-12.8
X11.85Y-12.8
X11.95Y-12.8
X12.05Y-12.8
X12.15Y-12.8
X12.25Y-12.8
X12.35Y-12.8
X12.45Y-12.8
X9.2998Y-10.2
X9.2998Y-10.3
X9.2998Y-10.4
X9.2998Y-10.5
X9.2998Y-10.6
X9.2998Y-10.7
X9.2998Y-10.8
X11.45Y-11.5531
X11.45Y-11.75
X9.05Y-3.3531
X9.05Y-3.55
X10.05Y-6.2512
X10.05Y-6.448
X9.2998Y-10.9
X9.2998Y-11.0
X9.2998Y-11.1
X9.5998Y-10.2
X9.5998Y-10.3
X9.5998Y-10.4
X9.5998Y-10.5
X9.5998Y-10.6
X9.5998Y-10.7
X9.5998Y-10.8
X9.5998Y-10.9
X9.5998Y-11.0
X9.5998Y-11.1
X12.65Y-10.2
X12.7287Y-10.2
X14.0Y-11.1
X14.0Y-11.2
X14.0Y-11.3
X14.0Y-11.4
X14.0Y-11.5
X14.0Y-11.6
X14.0Y-11.7
X14.3Y-11.1
X14.3Y-11.2
X14.3Y-11.3
X14.3Y-11.4
X14.3Y-11.5
X14.3Y-11.6
X14.3Y-11.7
X7.6Y-12.35
X7.9Y-12.35
X12.45Y-12.65
X12.75Y-12.65
X12.05Y-8.75
X12.05Y-8.9469
X15.05Y-13.15
X15.35Y-13.15
X11.45Y-12.3531
X11.45Y-12.55
X12.25Y-13.3
X12.55Y-13.3
X13.0531Y-9.65
X13.25Y-9.65
X11.45Y-3.3531
X11.45Y-3.55
X12.7031Y-12.9
X12.9Y-12.9
X11.45Y-7.4512
X11.45Y-7.648
X10.05Y-6.7512
X10.05Y-6.948
X7.85Y-5.7531
X7.85Y-5.95
X10.25Y-5.7531
X10.25Y-5.95
X12.3Y-7.9
X12.3Y-8.2
X12.4Y-7.9
X12.4Y-8.2
X12.5Y-7.9
X12.5Y-8.2
X12.6Y-7.9
X12.6Y-8.2
X12.7Y-7.9
X12.7Y-8.2
X12.8Y-7.9
X12.8Y-8.2
X12.9Y-7.9
X12.9Y-8.2
X13.0Y-7.9
X13.0Y-8.2
X13.1Y-7.9
X13.1Y-8.2
X13.2Y-7.9
X13.2Y-8.2
X13.45Y-7.95
X13.45Y-8.1469
X11.45Y-5.75
X11.45Y-5.9469
X14.65Y-7.95
X8.1Y-7.4
X9.7Y-4.5
X9.7Y-4.8
X9.8Y-4.5
X9.9Y-4.5
X9.9Y-4.8
X10.0Y-4.5
X10.0Y-4.8
X10.1Y-4.5
X10.1Y-4.8
X14.65Y-8.1469
X8.1Y-7.7
X8.2Y-7.4
X8.2Y-7.7
X8.3Y-7.4
X8.3Y-7.7
X8.4Y-7.4
X8.4Y-7.7
X8.5Y-7.4
X8.5Y-7.7
X8.6Y-7.4
X8.2998Y-5.0002
X8.6Y-7.7
X8.7Y-7.4
X8.7Y-7.7
X8.8Y-7.4
X8.8Y-7.7
X13.05Y-13.3
X13.35Y-13.3
X14.9Y-9.7
X15.2Y-9.7
X8.488Y-6.2
X8.488Y-6.5
X8.588Y-6.2
X8.588Y-6.5
X8.688Y-6.2
X8.688Y-6.5
X8.788Y-6.2
X8.788Y-6.5
X8.888Y-6.2
X8.888Y-6.5
X8.988Y-6.2
X8.988Y-6.5
X9.8Y-4.8
X9.088Y-6.2
X9.088Y-6.5
X9.188Y-6.2
X9.188Y-6.5
X9.288Y-6.2
X9.288Y-6.5
X9.388Y-6.2
X9.388Y-6.5
X9.488Y-6.2
X9.488Y-6.5
X9.588Y-6.2
X9.588Y-6.5
X9.688Y-6.2
X9.688Y-6.5
X9.788Y-6.2
X9.788Y-6.5
X12.55Y-9.9
X12.85Y-9.9
X6.9Y-7.4
X6.9Y-7.7
X7.0Y-7.4
X7.0Y-7.7
X7.1Y-7.4
X7.1Y-7.7
X7.2Y-7.4
X7.2Y-7.7
X7.3Y-7.4
X7.3Y-7.7
X7.4Y-7.4
X7.4Y-7.7
X7.5Y-7.4
X7.5Y-7.7
X7.6Y-7.4
X7.6Y-7.7
X8.05Y-4.5531
X8.05Y-4.75
X7.1031Y-7.95
X7.3Y-7.95
X14.65Y-13.15
X14.65Y-13.25
X14.65Y-13.35
X14.65Y-13.45
X14.95Y-13.15
X14.95Y-13.25
X14.95Y-13.35
X14.95Y-13.45
X8.1Y-3.8
X8.1Y-4.1
X8.2Y-3.8
X8.2Y-4.1
X8.3Y-3.8
X8.3Y-4.1
X8.4Y-3.8
X8.4Y-4.1
X8.5Y-3.8
X8.6Y-3.8
X8.6Y-4.1
X8.7Y-3.8
X8.7Y-4.1
X8.8Y-3.8
X8.8Y-4.1
X12.45Y-12.35
X12.75Y-12.35
X10.2Y-4.5
X10.2Y-4.8
X10.3Y-4.5
X10.3Y-4.8
X10.4Y-4.5
X10.4Y-4.8
X10.5Y-4.5
X10.5Y-4.8
X10.6Y-4.5
X10.6Y-4.8
X14.9Y-9.95
X15.0969Y-9.95
X7.6Y-12.75
X7.9Y-12.75
X9.4Y-12.2
X9.4Y-12.3
X9.4Y-12.4
X9.4Y-12.5
X9.4Y-12.6
X9.4Y-12.7
X9.4Y-12.8
X9.4Y-12.9
X9.4Y-13.0
X9.4Y-13.1
X9.4Y-13.2
X9.4Y-13.3
X10.0Y-12.2
X10.0Y-12.3
X10.0Y-12.4
X10.0Y-12.5
X10.0Y-12.6
X10.0Y-12.7
X10.0Y-12.8
X10.0Y-12.9
X10.0Y-13.0
X10.0Y-13.1
X10.0Y-13.2
X10.0Y-13.3
X7.9Y-6.4
X7.9Y-6.5
X7.9Y-6.6
X7.9Y-6.7
X7.9Y-6.8
X7.9Y-6.9
X7.9Y-7.0
X8.2Y-6.4
X8.2Y-6.5
X8.2Y-6.6
X8.2Y-6.7
X8.2Y-6.8
X8.5Y-4.1
X8.2Y-6.9
X8.2Y-7.0
X10.3004Y-9.4998
X10.3004Y-9.7998
X10.4004Y-9.4998
X10.4004Y-9.7998
X10.5004Y-9.4998
X10.5004Y-9.7998
X10.6004Y-9.4998
X10.6004Y-9.7998
X10.7004Y-9.4998
X10.7004Y-9.7998
X10.8004Y-9.4998
X10.8004Y-9.7998
X10.9004Y-9.4998
X10.9004Y-9.7998
X11.0004Y-9.4998
X11.0004Y-9.7998
X11.1004Y-9.4998
X11.1004Y-9.7998
X11.2004Y-9.4998
X11.2004Y-9.7998
X8.1009Y-5.6982
X8.1009Y-5.9982
X8.2009Y-5.9982
X8.3009Y-5.6982
X8.3009Y-5.9982
X8.4009Y-5.6982
X8.4009Y-5.9982
X8.5009Y-5.6982
X8.5009Y-5.9982
X8.6009Y-5.6982
X8.6009Y-5.9982
X8.7009Y-5.6982
X12.7969Y-10.5
X7.2Y-10.1938
X7.2Y-10.2938
X7.2Y-10.3938
X7.2Y-10.4938
X7.2Y-10.5938
X7.2Y-10.6938
X7.2Y-10.7938
X7.2Y-10.8938
X7.2Y-10.9938
X7.2Y-11.0938
X9.3Y-3.8
X9.3Y-4.1
X9.4Y-3.8
X9.4Y-4.1
X9.5Y-3.8
X9.5Y-4.1
X9.6Y-3.8
X9.6Y-4.1
X9.7Y-3.8
X9.7Y-4.1
X9.8Y-3.8
X9.8Y-4.1
X9.9Y-3.8
X9.9Y-4.1
X10.0Y-3.8
X10.0Y-4.1
X14.1157Y-8.7
X14.1157Y-9.0
X14.2157Y-8.7
X14.2157Y-9.0
X14.3157Y-8.7
X14.3157Y-9.0
X14.4157Y-8.7
X14.4157Y-9.0
X14.5157Y-8.7
X14.5157Y-9.0
X14.6157Y-8.7
X14.6157Y-9.0
X14.7157Y-8.7
X14.7157Y-9.0
X14.8157Y-8.7
X14.8157Y-9.0
X14.9157Y-8.7
X14.9157Y-9.0
X15.0157Y-8.7
X15.0157Y-9.0
X15.1157Y-8.7
X15.1157Y-9.0
X15.2157Y-8.7
X15.2157Y-9.0
X15.3157Y-8.7
X15.3157Y-9.0
X15.4157Y-8.7
X15.4157Y-9.0
X10.8Y-10.2
X10.8Y-10.3
X10.8Y-10.4
X10.8Y-10.5
X10.8Y-10.6
X10.8Y-10.7
X10.8Y-10.8
X10.8Y-10.9
X10.8Y-11.0
X10.8Y-11.1
X11.1Y-10.2
X11.1Y-10.3
X11.1Y-10.4
X11.1Y-10.5
X11.1Y-10.6
X11.1Y-10.7
X11.1Y-10.8
X11.1Y-10.9
X11.1Y-11.0
X11.1Y-11.1
X13.25Y-12.5
X13.55Y-12.5
X12.6Y-10.5
X13.0Y-11.1
X13.0Y-11.2
X13.0Y-11.3
X13.0Y-11.4
X13.0Y-11.5
X13.0Y-11.6
X13.0Y-11.7
X13.3Y-11.1
X13.3Y-11.2
X13.3Y-11.3
X13.3Y-11.4
X13.3Y-11.5
X10.8Y-7.0
X8.7009Y-5.9982
X8.8009Y-5.6982
X8.8009Y-5.9982
X10.85Y-4.5531
X10.85Y-4.75
X7.7531Y-9.95
X7.95Y-9.95
X13.05Y-13.15
X13.35Y-13.15
X10.3Y-6.7
X10.3Y-7.0
X10.4Y-6.7
X10.4Y-7.0
X10.5Y-6.7
X10.5Y-7.0
X10.6Y-6.7
X10.6Y-7.0
X10.7Y-6.7
X10.7Y-7.0
X10.8Y-6.7
X10.9Y-6.7
X10.9Y-7.0
X11.0Y-6.7
X11.0Y-7.0
X11.1Y-6.7
X11.1Y-7.0
X11.2Y-6.7
X11.2Y-7.0
X10.3Y-8.7
X10.3Y-9.0
X10.4Y-8.7
X10.4Y-9.0
X10.5Y-8.7
X10.5Y-9.0
X10.6Y-8.7
X10.6Y-9.0
X10.7Y-8.7
X10.7Y-9.0
X10.8Y-8.7
X10.8Y-9.0
X10.9Y-8.7
X10.9Y-9.0
X11.0Y-9.0
X11.1Y-8.7
X11.1Y-9.0
X11.2Y-8.7
X11.2Y-9.0
X14.0531Y-9.65
X14.25Y-9.65
X14.6031Y-10.85
X14.8Y-10.85
X13.3Y-11.6
X10.25Y-3.3531
X13.3Y-11.7
X11.0Y-8.7
X10.25Y-3.55
X9.3Y-6.7
X14.9Y-7.4
X14.9Y-7.7
X15.0Y-7.4
X15.0Y-7.7
X15.1Y-7.4
X15.1Y-7.7
X15.2Y-7.4
X15.2Y-7.7
X15.3Y-7.4
X15.3Y-7.7
X15.4Y-7.4
X15.4Y-7.7
X15.5Y-7.4
X15.5Y-7.7
X15.6Y-7.4
X15.6Y-7.7
X14.5Y-9.9
X14.5Y-10.0
X14.5Y-10.1
X14.5Y-10.2
X14.8Y-9.9
X14.8Y-10.0
X14.8Y-10.1
X12.55Y-9.65
X12.85Y-9.65
X14.8Y-10.2
X14.25Y-13.3
X14.55Y-13.3
X12.5Y-11.1
X13.5531Y-9.65
X12.5Y-11.2
X12.5Y-11.3
X12.5Y-11.4
X12.5Y-11.5
X12.5Y-11.6
X12.5Y-11.7
X12.5Y-11.8
X12.8Y-11.1
X12.8Y-11.2
X12.8Y-11.3
X12.8Y-11.4
X12.8Y-11.5
X12.8Y-11.6
X12.8Y-11.7
X12.8Y-11.8
X13.75Y-9.65
X12.1531Y-9.65
X12.35Y-9.65
X7.85Y-3.3531
X7.85Y-3.55
X12.9Y-12.1
X13.0969Y-12.1
X11.45Y-8.7531
X11.45Y-8.95
X15.55Y-12.1531
X15.55Y-12.35
X11.45Y-9.5531
X11.45Y-9.75
X7.85Y-7.4512
X7.85Y-7.648
X10.25Y-7.4512
X10.25Y-7.648
X7.65Y-6.179
X9.45Y-5.0531
X9.45Y-5.25
X10.3Y-12.3
X10.3Y-12.6
X10.4Y-12.3
X10.4Y-12.6
X10.5Y-12.3
X10.6Y-12.3
X10.7Y-12.3
X10.7Y-12.6
X10.8Y-12.3
X10.8Y-12.6
X10.9Y-12.3
X10.9Y-12.6
X11.0Y-12.3
X11.0Y-12.6
X11.1Y-12.3
X11.1Y-12.6
X11.45Y-6.7546
X10.5Y-12.6
X11.45Y-6.9515
X10.6Y-12.6
X7.9483Y-6.177
X7.4531Y-6.179
X8.1451Y-6.177
X8.05Y-5.05
X8.05Y-5.2469
X9.45Y-4.5531
X9.45Y-4.75
X12.05Y-7.95
X12.05Y-8.1469
X9.3Y-3.3
X9.3Y-3.6
X9.4Y-3.3
X9.4Y-3.6
X9.5Y-3.3
X9.5Y-3.6
X9.6Y-3.3
X9.6Y-3.6
X9.7Y-3.3
X9.7Y-3.6
X9.8Y-3.3
X9.8Y-3.6
X9.9Y-3.3
X9.9Y-3.6
X10.0Y-3.3
X10.0Y-3.6
X11.2Y-12.3
X11.2Y-12.6
X8.4998Y-10.1996
X8.4998Y-10.2996
X8.4998Y-10.3996
X8.4998Y-10.4996
X8.4998Y-10.5996
X8.4998Y-10.6996
X8.4998Y-10.7996
X8.4998Y-10.8996
X8.4998Y-10.9996
X8.4998Y-11.0996
X8.7998Y-10.1996
X8.7998Y-10.2996
X8.7998Y-10.3996
X8.7998Y-10.4996
X8.7998Y-10.5996
X8.7998Y-10.6996
X8.7998Y-10.7996
X8.7998Y-10.8996
X8.7998Y-10.9996
X8.7998Y-11.0996
X8.1Y-12.2
X8.1Y-12.3
X8.1Y-12.4
X8.1Y-12.5
X8.1Y-12.6
X8.1Y-12.7
X8.1Y-12.8
X8.1Y-12.9
X8.1Y-13.0
X8.1Y-13.1
X8.4Y-12.2
X8.4Y-12.3
X8.4Y-12.4
X8.4Y-12.5
X8.4Y-12.6
X8.4Y-12.7
X8.4Y-12.8
X8.4Y-12.9
X8.4Y-13.0
X8.4Y-13.1
X11.1Y-11.8
X12.85Y-3.3531
X12.85Y-3.55
X10.3Y-6.2
X10.3Y-6.5
X10.4Y-6.2
X10.4Y-6.5
X10.5Y-6.2
X10.5Y-6.5
X10.6Y-6.2
X10.6Y-6.5
X10.7Y-6.2
X10.7Y-6.5
X10.8Y-6.2
X10.8Y-6.5
X10.9Y-6.2
X10.9Y-6.5
X11.0Y-6.2
X11.0Y-6.5
X11.1Y-6.2
X11.1Y-6.5
X11.2Y-6.2
X11.2Y-6.5
X15.2Y-11.7
X15.5Y-11.7
X12.45Y-12.5
X12.75Y-12.5
X6.9Y-4.5
X6.9Y-4.8
X14.5531Y-9.65
X14.75Y-9.65
X12.1Y-9.9
X12.1Y-10.0
X12.1Y-10.1
X12.1Y-10.2
X12.4Y-9.9
X12.4Y-10.0
X12.4Y-10.1
X12.4Y-10.2
X7.0Y-4.5
X7.0Y-4.8
X7.1Y-4.5
X7.1Y-4.8
X7.2Y-4.5
X7.2Y-4.8
X7.3Y-4.5
X7.3Y-4.8
X7.4Y-4.5
X7.4Y-4.8
X7.5Y-4.5
X7.5Y-4.8
X7.6Y-4.5
X7.6Y-4.8
X7.7Y-4.5
X7.7Y-4.8
X7.8Y-4.5
X7.8Y-4.8
X8.3Y-4.5
X8.3Y-4.8
X13.5Y-11.1
X13.5Y-11.2
X13.5Y-11.3
X13.5Y-11.4
X13.5Y-11.5
X13.5Y-11.6
X13.5Y-11.7
X13.8Y-11.1
X13.8Y-11.2
X13.8Y-11.3
X13.8Y-11.4
X8.4Y-4.5
X8.4Y-4.8
X8.5Y-4.5
X8.5Y-4.8
X8.6Y-4.5
X8.6Y-4.8
X13.8Y-11.5
X13.8Y-11.6
X13.8Y-11.7
X10.3Y-13.1
X10.3Y-13.4
X10.4Y-13.1
X10.4Y-13.4
X10.5Y-13.1
X10.5Y-13.4
X10.6Y-13.1
X10.6Y-13.4
X10.7Y-13.1
X10.7Y-13.4
X10.8Y-13.1
X10.8Y-13.4
X10.9Y-13.1
X10.9Y-13.4
X11.0Y-13.1
X11.0Y-13.4
X11.1Y-13.1
X11.1Y-13.4
X11.2Y-13.1
X11.2Y-13.4
X12.25Y-13.15
X12.55Y-13.15
X6.9531Y-9.95
X7.15Y-9.95
X10.3Y-8.0
X10.3Y-8.3
X10.4Y-8.0
X8.7Y-4.5
X8.7Y-4.8
X8.8Y-4.5
X8.8Y-4.8
X8.9Y-4.5
X8.9Y-4.8
X9.0Y-4.5
X9.0Y-4.8
X9.1Y-4.5
X9.1Y-4.8
X9.2Y-4.5
X9.2Y-4.8
X14.25Y-13.15
X11.1Y-4.5
X11.1Y-4.8
X11.2Y-4.5
X11.2Y-4.8
X11.3Y-4.5
X11.3Y-4.8
X11.4Y-4.5
X11.4Y-4.8
X11.5Y-4.5
X11.5Y-4.8
X11.6Y-4.5
X11.6Y-4.8
X11.7Y-4.5
X11.7Y-4.8
X11.8Y-4.5
X11.8Y-4.8
X11.9Y-4.5
X11.9Y-4.8
X12.0Y-4.5
X12.0Y-4.8
X11.7Y-3.3
X11.7Y-3.6
X11.8Y-3.3
X11.8Y-3.6
X11.9Y-3.3
X11.9Y-3.6
X12.0Y-3.3
X12.0Y-3.6
X12.1Y-3.3
X12.1Y-3.6
X12.2Y-3.3
X12.2Y-3.6
X12.3Y-3.3
X12.3Y-3.6
X12.4Y-3.3
X12.4Y-3.6
X12.5Y-3.3
X12.5Y-3.6
X12.6Y-3.3
X12.6Y-3.6
X13.85Y-13.15
X13.85Y-13.25
X13.85Y-13.35
X13.85Y-13.45
X14.15Y-13.15
X14.15Y-13.25
X14.15Y-13.35
X14.15Y-13.45
X6.8998Y-5.0002
X6.8998Y-5.3002
X6.9998Y-5.0002
X6.9998Y-5.3002
X7.0998Y-5.0002
X7.0998Y-5.3002
X7.1998Y-5.0002
X7.1998Y-5.3002
X7.2998Y-5.0002
X7.2998Y-5.3002
X7.3998Y-5.0002
X7.3998Y-5.3002
X7.4998Y-5.0002
X7.4998Y-5.3002
X7.5998Y-5.0002
X7.5998Y-5.3002
X7.6998Y-5.0002
X7.6998Y-5.3002
X7.7998Y-5.0002
X7.7998Y-5.3002
X7.5Y-11.4
X7.5Y-11.7
X7.6Y-11.4
X7.6Y-11.7
X7.7Y-11.4
X7.7Y-11.7
X7.8Y-11.4
X7.8Y-11.7
X7.9Y-11.4
X7.9Y-11.7
X8.0Y-11.4
X8.0Y-11.7
X8.1Y-11.4
X8.1Y-11.7
X8.2Y-11.4
X8.2Y-11.7
X8.3Y-11.4
X8.3Y-11.7
X8.4Y-11.4
X8.4Y-11.7
X8.6Y-12.2
X8.6Y-12.3
X8.6Y-12.4
X8.6Y-12.5
X8.6Y-12.6
X8.6Y-12.7
X8.6Y-12.8
X8.6Y-12.9
X8.6Y-13.0
X8.6Y-13.1
X8.6Y-13.2
X8.6Y-13.3
X9.2Y-12.2
X9.2Y-12.3
X9.2Y-12.4
X9.2Y-12.5
X9.2Y-12.6
X9.2Y-12.7
X9.2Y-12.8
X9.2Y-12.9
X9.2Y-13.0
X9.2Y-13.1
X9.2Y-13.2
X9.2Y-13.3
X7.9031Y-7.95
X8.1Y-7.95
X12.3Y-6.9
X12.3Y-7.2
X12.4Y-6.9
X12.4Y-7.2
X12.5Y-6.9
X12.5Y-7.2
X12.6Y-6.9
X12.6Y-7.2
X12.7Y-6.9
X12.7Y-7.2
X12.8Y-6.9
X12.8Y-7.2
X12.9Y-6.9
X12.9Y-7.2
X13.0Y-6.9
X13.0Y-7.2
X13.1Y-6.9
X13.1Y-7.2
X13.2Y-6.9
X13.2Y-7.2
X15.05Y-13.45
X15.35Y-13.45
X10.4Y-8.3
X10.5Y-8.0
X10.5Y-8.3
X10.6Y-8.0
X10.6Y-8.3
X10.7Y-8.0
X10.7Y-8.3
X10.8Y-8.0
X10.8Y-8.3
X10.9Y-8.0
X10.9Y-8.3
X11.0Y-8.0
X11.0Y-8.3
X11.1Y-8.0
X11.1Y-8.3
X11.2Y-8.0
X11.2Y-8.3
X12.3Y-7.4
X12.3Y-7.7
X12.4Y-7.4
X12.4Y-7.7
X12.5Y-7.4
X14.55Y-13.15
X12.5Y-7.7
X12.6Y-7.4
X12.6Y-7.7
X12.7Y-7.4
X12.7Y-7.7
X12.8Y-7.4
X12.8Y-7.7
X12.9Y-7.4
X12.9Y-7.7
X13.0Y-7.4
X13.0Y-7.7
X13.1Y-7.4
X13.1Y-7.7
X13.2Y-7.4
X13.2Y-7.7
X8.8031Y-11.95
X9.0Y-11.95
X12.0531Y-10.85
X12.25Y-10.85
X13.0531Y-10.85
X13.25Y-10.85
X14.0531Y-10.85
X14.25Y-10.85
X13.45Y-6.95
X13.45Y-7.1469
X6.9Y-8.1957
X6.9Y-8.2957
X6.9Y-8.3957
X6.9Y-8.4957
X6.9Y-8.5957
X6.9Y-8.6957
X6.9Y-8.7957
X6.9Y-8.8957
X6.9Y-8.9957
X6.9Y-9.0957
X6.9Y-9.1957
X6.9Y-9.2957
X6.9Y-9.3957
X6.9Y-9.4957
X6.9Y-9.5957
X6.9Y-9.6957
X7.5Y-8.1957
X7.5Y-8.2957
X7.5Y-8.3957
X7.5Y-8.4957
X7.5Y-8.5957
X7.5Y-8.6957
X7.5Y-8.7957
X7.5Y-8.8957
X7.5Y-8.9957
X7.5Y-9.0957
X7.5Y-9.1957
X7.5Y-9.2957
X7.5Y-9.3957
X7.5Y-9.4957
X7.5Y-9.5957
X7.5Y-9.6957
X12.0Y-11.1
X12.0Y-11.2
X12.0Y-11.3
X12.0Y-11.4
X12.0Y-11.5
X12.0Y-11.6
X12.0Y-11.7
X12.3Y-11.1
X12.3Y-11.2
X12.3Y-11.3
X12.3Y-11.4
X12.3Y-11.5
X12.3Y-11.6
X8.1Y-3.3
X8.1Y-3.6
X8.2Y-3.3
X8.2Y-3.6
X8.3Y-3.3
X8.3Y-3.6
X8.4Y-3.3
X8.4Y-3.6
X8.5Y-3.3
X8.5Y-3.6
X8.6Y-3.3
X8.6Y-3.6
X8.7Y-3.3
X8.7Y-3.6
X8.8Y-3.3
X8.8Y-3.6
X11.7Y-3.8
X11.7Y-4.1
X11.8Y-3.8
X11.8Y-4.1
X11.9Y-3.8
X11.9Y-4.1
X12.0Y-3.8
X12.0Y-4.1
X12.1Y-3.8
X12.1Y-4.1
X12.2Y-3.8
X12.2Y-4.1
X12.3Y-3.8
X12.3Y-4.1
X12.4Y-3.8
X12.4Y-4.1
X12.5Y-3.8
X12.5Y-4.1
X12.6Y-3.8
X12.6Y-4.1
X12.85Y-12.35
X12.85Y-12.45
X12.85Y-12.55
X12.85Y-12.65
X13.15Y-12.35
X13.15Y-12.45
X13.15Y-12.55
X13.15Y-12.65
X8.1531Y-11.95
X8.35Y-11.95
X13.5531Y-10.85
X13.75Y-10.85
X14.7031Y-12.9
X14.9Y-12.9
X12.05Y-6.95
X12.05Y-7.1469
X8.5Y-6.7
X8.5Y-7.0
X8.6Y-6.7
X8.6Y-7.0
X8.7Y-6.7
X8.7Y-7.0
X8.8Y-6.7
X8.8Y-7.0
X8.9Y-6.7
X8.9Y-7.0
X9.0Y-6.7
X9.0Y-7.0
X9.1Y-6.7
X9.1Y-7.0
X9.2Y-6.7
X9.2Y-7.0
X9.3Y-7.0
X9.4Y-6.7
X9.4Y-7.0
X9.5Y-6.7
X9.5Y-7.0
X9.6Y-6.7
X9.6Y-7.0
X9.7Y-6.7
X9.7Y-7.0
X9.8Y-6.7
X9.8Y-7.0
X13.7Y-6.9
X13.7Y-7.2
X13.8Y-6.9
X13.8Y-7.2
X13.9Y-6.9
X13.9Y-7.2
X14.0Y-6.9
X14.0Y-7.2
X14.1Y-6.9
X14.1Y-7.2
X14.2Y-6.9
X14.2Y-7.2
X14.3Y-6.9
X14.3Y-7.2
X14.4Y-6.9
X14.4Y-7.2
X13.25Y-12.65
X13.55Y-12.65
X13.9031Y-12.9
X14.1Y-12.9
X8.5531Y-9.95
X8.75Y-9.95
X11.45Y-8.0531
X11.45Y-8.25
X9.05Y-3.85
X9.05Y-4.0469
X12.3Y-11.7
X7.6Y-12.55
X7.9Y-12.55
X9.351Y-9.95
X9.5479Y-9.95
X8.7018Y-7.95
X8.8986Y-7.95
X9.05Y-7.4512
X9.05Y-7.648
X7.85Y-3.8531
X7.85Y-4.05
X14.6Y-11.15
X14.6Y-11.45
X15.2Y-11.15
X15.2Y-11.45
X14.0Y-9.9
X14.0Y-10.0
X14.0Y-10.1
X14.0Y-10.2
X14.0Y-10.3
X14.0Y-10.4
X14.0Y-10.5
X14.3Y-9.9
X14.3Y-10.0
X14.3Y-10.1
X14.3Y-10.2
X14.3Y-10.3
X14.3Y-10.4
X14.3Y-10.5
X13.7999Y-11.9499
X13.7999Y-12.5499
X13.8999Y-11.9499
X13.8999Y-12.5499
X13.9999Y-11.9499
X13.9999Y-12.5499
X14.0999Y-11.9499
X14.0999Y-12.5499
X14.1999Y-11.9499
X14.1999Y-12.5499
X14.2999Y-11.9499
X14.2999Y-12.5499
X14.3999Y-11.9499
X14.3999Y-12.5499
X14.4999Y-11.9499
X14.4999Y-12.5499
X14.5999Y-11.9499
X14.5999Y-12.5499
X14.6999Y-11.9499
X14.6999Y-12.5499
X14.7999Y-11.9499
X14.7999Y-12.5499
X14.8999Y-11.9499
X14.8999Y-12.5499
X14.9999Y-11.9499
X14.9999Y-12.5499
X15.0999Y-11.9499
X15.0999Y-12.5499
X15.1999Y-11.9499
X15.1999Y-12.5499
X15.2999Y-11.9499
X15.2999Y-12.5499
X13.45Y-7.45
X13.45Y-7.6469
X12.845Y-3.8531
X12.845Y-4.05
X7.4Y-6.4
X7.4Y-6.5
X7.4Y-6.6
X7.4Y-6.7
X7.4Y-6.8
X7.4Y-6.9
X7.4Y-7.0
X7.7Y-6.4
X7.7Y-6.5
X7.7Y-6.6
X7.7Y-6.7
X7.7Y-6.8
X7.7Y-6.9
X7.7Y-7.0
X10.5Y-7.4
X10.5Y-7.7
X10.6Y-7.4
X10.6Y-7.7
X10.7Y-7.4
X10.7Y-7.7
X10.8Y-7.4
X10.8Y-7.7
X10.9Y-7.4
X10.9Y-7.7
X11.0Y-7.4
X11.0Y-7.7
X11.1Y-7.4
X11.1Y-7.7
X11.2Y-7.4
X11.2Y-7.7
X10.5Y-3.8
X10.5Y-4.1
X10.6Y-3.8
X10.6Y-4.1
X10.7Y-3.8
X10.7Y-4.1
X10.8Y-3.8
X10.8Y-4.1
X10.9Y-3.8
X10.9Y-4.1
X11.0Y-3.8
X11.0Y-4.1
X11.1Y-3.8
X11.1Y-4.1
X11.2Y-3.8
X11.2Y-4.1
X9.3009Y-5.6982
X9.3009Y-5.9982
X9.4009Y-5.6982
X9.4009Y-5.9982
X9.5009Y-5.6982
X9.5009Y-5.9982
X9.6009Y-5.6982
X9.6009Y-5.9982
X9.7009Y-5.6982
X9.7009Y-5.9982
X9.8009Y-5.6982
X9.8009Y-5.9982
X9.9009Y-5.6982
X9.9009Y-5.9982
X10.0009Y-5.6982
X10.0009Y-5.9982
X12.25Y-13.45
X12.55Y-13.45
X13.0Y-9.9
X13.0Y-10.0
X13.0Y-10.1
X13.0Y-10.2
X13.0Y-10.3
X13.0Y-10.4
X13.0Y-10.5
X13.0Y-10.6
X13.3Y-9.9
X13.3Y-10.0
X13.3Y-10.1
X13.3Y-10.2
X13.3Y-10.3
X13.3Y-10.4
X13.3Y-10.5
X13.3Y-10.6
X12.25Y-4.5531
X12.25Y-4.75
X13.7Y-7.9
X13.7Y-8.2
X13.8Y-7.9
X13.8Y-8.2
X13.9Y-7.9
X13.9Y-8.2
X14.0Y-7.9
X14.0Y-8.2
X14.1Y-7.9
X14.1Y-8.2
X14.2Y-7.9
X14.2Y-8.2
X14.3Y-7.9
X14.3Y-8.2
X14.4Y-7.9
X14.4Y-8.2
X13.7Y-7.4
X13.7Y-7.7
X13.8Y-7.4
X13.8Y-7.7
X13.9Y-7.4
X13.9Y-7.7
X14.0Y-7.4
X14.0Y-7.7
X14.1Y-7.4
X14.1Y-7.7
X14.2Y-7.4
X14.2Y-7.7
X14.3Y-7.4
X14.3Y-7.7
X14.4Y-7.4
X14.4Y-7.7
X13.45Y-13.3
X9.3Y-7.4
X9.3Y-7.7
X9.4Y-7.4
X9.4Y-7.7
X9.5Y-7.4
X9.5Y-7.7
X13.75Y-13.3
X12.3157Y-8.7
X12.3157Y-9.0
X12.4157Y-8.7
X12.4157Y-9.0
X12.5157Y-8.7
X12.5157Y-9.0
X12.6157Y-8.7
X12.6157Y-9.0
X12.7157Y-8.7
X12.7157Y-9.0
X12.8157Y-8.7
X12.8157Y-9.0
X12.9157Y-8.7
X12.9157Y-9.0
X13.0157Y-8.7
X13.0157Y-9.0
X13.1157Y-8.7
X13.1157Y-9.0
X13.2157Y-8.7
X13.2157Y-9.0
X13.3157Y-8.7
X13.3157Y-9.0
X13.4157Y-8.7
X13.4157Y-9.0
X13.5157Y-8.7
X13.5157Y-9.0
X13.6157Y-9.0
X14.9Y-6.9
X14.9Y-7.2
X15.0Y-6.9
X15.0Y-7.2
X15.1Y-6.9
X15.1Y-7.2
X15.2Y-6.9
X15.2Y-7.2
X15.3Y-6.9
X15.3Y-7.2
X15.4Y-6.9
X15.4Y-7.2
X15.5Y-6.9
X15.5Y-7.2
X15.6Y-6.9
X15.6Y-7.2
X9.6Y-7.4
X13.6157Y-8.7
X9.6Y-7.7
X9.7Y-7.4
X9.7Y-7.7
X9.8Y-7.4
X9.8Y-7.7
X9.9Y-7.4
X9.9Y-7.7
X10.0Y-7.4
X10.0Y-7.7
X7.7Y-10.1938
X7.7Y-10.2938
X7.7Y-10.3938
X7.7Y-10.4938
X7.7Y-10.5938
X7.7Y-10.6938
X7.7Y-10.7938
X7.7Y-10.8938
X7.7Y-10.9938
X7.7Y-11.0938
X8.0Y-10.1938
X8.0Y-10.2938
X8.0Y-10.3938
X8.0Y-10.4938
X8.0Y-10.5938
X8.0Y-10.6938
X8.0Y-10.7938
X8.0Y-10.8938
X8.0Y-10.9938
X8.0Y-11.0938
X13.05Y-13.45
X13.35Y-13.45
X15.05Y-13.005
X15.35Y-13.005
X10.3Y-11.5
X10.3Y-11.8
X10.4Y-11.5
X10.4Y-11.8
X10.5Y-11.5
X10.5Y-11.8
X10.6Y-11.5
X10.6Y-11.8
X10.7Y-11.5
X10.7Y-11.8
X10.8Y-11.5
X10.8Y-11.8
X10.9Y-11.5
X10.9Y-11.8
X11.0Y-11.5
X11.0Y-11.8
X11.1Y-11.5
X11.2Y-11.5
X11.2Y-11.8
X14.8Y-10.5
X15.1Y-10.5
X8.5Y-8.2
X8.5Y-8.3
X8.5Y-8.4
X8.5Y-8.5
X8.5Y-8.6
X8.5Y-8.7
X8.5Y-8.8
X8.5Y-8.9
X8.5Y-9.0
X8.5Y-9.1
X8.5Y-9.2
X8.5Y-9.3
X8.5Y-9.4
X8.5Y-9.5
X8.5Y-9.6
X8.5Y-9.7
X9.1Y-8.2
X9.1Y-8.3
X9.1Y-8.4
X9.1Y-8.5
X9.1Y-8.6
X9.1Y-8.7
X9.1Y-8.8
X9.1Y-8.9
X9.1Y-9.0
X9.1Y-9.1
X9.1Y-9.2
X9.1Y-9.3
X9.1Y-9.4
X9.1Y-9.5
X9.1Y-9.6
X9.1Y-9.7
X9.6031Y-11.95
X9.8Y-11.95
X8.9Y-11.4
X8.9Y-11.7
X9.0Y-11.4
X9.0Y-11.7
X9.1Y-11.4
X9.1Y-11.7
X9.2Y-11.4
X9.2Y-11.7
X9.3Y-11.4
X9.3Y-11.7
X9.4Y-11.4
X9.4Y-11.7
X9.5Y-11.4
X9.5Y-11.7
X9.6Y-11.4
X9.6Y-11.7
X9.7Y-11.4
X9.7Y-11.7
X9.8Y-11.4
X9.8Y-11.7
X13.85Y-8.75
X13.85Y-8.9469
T4
X15.5Y-11.45
X15.6Y-11.45
X7.59Y-12.05
X7.69Y-12.05
X15.0Y-10.75
X15.1Y-10.75
X7.85Y-12.05
X7.95Y-12.05
X12.1Y-12.15
X12.1Y-12.3469
X12.1984Y-12.2484
T5
X13.7Y-4.6
X10.4Y-8.5
X10.5Y-8.5
X10.7Y-8.5
X10.8Y-8.5
X10.9Y-8.5
X11.0Y-8.5
X11.1Y-8.5
X11.2Y-8.5
X13.7Y-4.7
X13.8Y-4.6
X13.8Y-4.7
X13.9Y-4.6
X13.9Y-4.7
X14.0Y-4.6
X14.1Y-4.6
X14.1Y-4.7
X14.2Y-4.6
X14.2Y-4.7
X14.3Y-4.6
X14.3Y-4.7
X14.4Y-4.6
X14.4Y-4.7
X14.5Y-4.6
X14.5Y-4.7
X14.6Y-4.6
X14.6Y-4.7
X14.7Y-4.6
X14.7Y-4.7
X10.6Y-8.5
X14.8Y-4.6
X14.8Y-4.7
X14.9Y-4.6
X14.9Y-4.7
X15.0Y-4.6
X15.0Y-4.7
X15.1Y-4.6
X15.1Y-4.7
X15.2Y-4.6
X15.2Y-4.7
X15.3Y-4.6
X15.3Y-4.7
X15.4Y-4.6
X15.4Y-4.7
X15.5Y-4.6
X15.5Y-4.7
X15.6Y-4.6
X15.6Y-4.7
X13.7Y-5.8
X13.7Y-5.9
X13.8Y-5.8
X13.8Y-5.9
X13.9Y-5.9
X14.0Y-5.8
X14.0Y-5.9
X14.1Y-5.8
X14.1Y-5.9
X14.2Y-5.8
X14.5Y-12.75
X14.6Y-12.75
X14.7Y-12.75
X14.8Y-12.75
X14.9Y-12.75
X15.0Y-12.75
X15.1Y-12.75
X15.2Y-12.75
X15.3Y-12.75
X9.0Y-10.2
X9.0Y-10.3
X9.0Y-10.4
X9.0Y-10.5
X9.0Y-10.7
X9.0Y-10.8
X9.0Y-10.9
X9.0Y-11.0
X12.405Y-6.75
X12.505Y-6.75
X12.605Y-6.75
X12.705Y-6.75
X12.805Y-6.75
X12.905Y-6.75
X13.005Y-6.75
X13.105Y-6.75
X13.205Y-6.75
X10.4Y-12.15
X10.5Y-12.15
X10.6Y-12.15
X10.7Y-12.15
X10.8Y-12.15
X10.9Y-12.15
X11.0Y-12.15
X14.2Y-5.9
X9.0Y-10.6
X14.3Y-5.8
X14.3Y-5.9
X11.1Y-12.15
X13.9Y-5.8
X11.2Y-12.15
X7.0Y-5.5
X7.1Y-5.5
X7.2Y-5.5
X7.3Y-5.5
X7.4Y-5.5
X14.4Y-5.8
X14.4Y-5.9
X14.5Y-5.8
X14.5Y-5.9
X14.6Y-5.8
X14.6Y-5.9
X14.7Y-5.8
X14.7Y-5.9
X14.8Y-5.8
X14.8Y-5.9
X14.9Y-5.8
X14.9Y-5.9
X15.0Y-5.8
X15.0Y-5.9
X15.1Y-5.8
X15.1Y-5.9
X15.2Y-5.8
X15.2Y-5.9
X15.3Y-5.8
X15.3Y-5.9
X15.4Y-5.8
X15.4Y-5.9
X15.5Y-5.8
X15.5Y-5.9
X15.6Y-5.8
X15.6Y-5.9
X14.0Y-8.4
X14.1Y-8.4
X14.2Y-8.4
X14.3Y-8.4
X14.4Y-8.4
X14.5Y-8.4
X14.6Y-8.4
X14.7Y-8.4
X14.8Y-8.4
X14.9Y-8.4
X15.0Y-8.4
X15.1Y-8.4
X15.2Y-8.4
X15.3Y-8.4
X15.4Y-8.4
X15.5Y-8.4
X15.6Y-8.4
X13.7Y-4.0
X13.7Y-4.1
X13.8Y-4.0
X13.8Y-4.1
X13.9Y-4.0
X13.9Y-4.1
X14.0Y-4.0
X14.0Y-4.1
X14.1Y-4.0
X14.1Y-4.1
X14.2Y-4.0
X14.2Y-4.1
X14.3Y-4.0
X14.3Y-4.1
X14.4Y-4.0
X14.4Y-4.1
X14.5Y-4.0
X14.5Y-4.1
X14.6Y-4.0
X14.6Y-4.1
X14.7Y-4.0
X14.7Y-4.1
X14.8Y-4.0
X14.8Y-4.1
X14.9Y-4.0
X14.9Y-4.1
X15.0Y-4.0
X15.0Y-4.1
X15.1Y-4.0
X15.1Y-4.1
X15.2Y-4.1
X15.3Y-4.0
X15.3Y-4.1
X15.4Y-4.0
X15.4Y-4.1
X15.5Y-4.0
X15.5Y-4.1
X15.6Y-4.0
X15.6Y-4.1
X14.0Y-6.75
X14.1Y-6.75
X14.2Y-6.75
X14.3Y-6.75
X14.4Y-6.75
X14.5Y-6.75
X14.6Y-6.75
X14.7Y-6.75
X14.8Y-6.75
X14.9Y-6.75
X15.0Y-6.75
X15.1Y-6.75
X15.2Y-6.75
X15.3Y-6.75
X15.4Y-6.75
X15.5Y-6.75
X15.6Y-6.75
X9.8Y-10.2
X9.8Y-10.3
X9.8Y-10.4
X9.8Y-10.5
X9.8Y-10.6
X9.8Y-10.7
X9.8Y-10.8
X9.8Y-10.9
X9.8Y-11.0
X7.5Y-5.5
X7.6Y-5.5
X15.2Y-4.0
X7.7Y-5.5
X7.8Y-5.5
X10.4Y-9.3
X10.5Y-9.3
X10.6Y-9.3
X10.7Y-9.3
X10.8Y-9.3
X10.9Y-9.3
X11.0Y-9.3
X11.1Y-9.3
X11.2Y-9.3
X13.7Y-3.4
X13.7Y-3.5
X7.4Y-10.2
X7.4Y-10.3
X7.4Y-10.4
X7.4Y-10.5
X7.4Y-10.6
X7.4Y-10.7
X7.4Y-10.8
X7.4Y-10.9
X7.4Y-11.0
X13.8Y-3.4
X13.8Y-3.5
X13.9Y-3.4
X13.9Y-3.5
X14.0Y-3.4
X14.0Y-3.5
X14.1Y-3.4
X9.8Y-5.1
X10.4Y-12.95
X10.5Y-12.95
X10.6Y-12.95
X10.7Y-12.95
X10.8Y-12.95
X9.6Y-4.3
X9.7Y-4.3
X9.8Y-4.3
X9.9Y-4.3
X10.0Y-4.3
X10.1Y-4.3
X10.2Y-4.3
X10.3Y-4.3
X10.4Y-4.3
X10.5Y-4.3
X10.6Y-4.3
X10.7Y-4.3
X10.8Y-4.3
X10.9Y-4.3
X11.0Y-4.3
X11.1Y-4.3
X11.2Y-4.3
X10.9Y-12.95
X11.0Y-12.95
X11.1Y-12.95
X11.2Y-12.95
X13.7Y-5.2
X11.65Y-12.95
X11.75Y-12.95
X11.85Y-12.95
X11.95Y-12.95
X12.05Y-12.95
X12.15Y-12.95
X12.25Y-12.95
X12.35Y-12.95
X12.45Y-12.95
X13.7Y-5.3
X13.8Y-5.2
X13.8Y-5.3
X13.9Y-5.2
X13.9Y-5.3
X14.0Y-5.2
X14.0Y-5.3
X14.1Y-5.2
X14.1Y-5.3
X14.2Y-5.2
X14.2Y-5.3
X14.3Y-5.2
X14.3Y-5.3
X14.4Y-5.2
X14.4Y-5.3
X14.5Y-5.2
X14.5Y-5.3
X14.6Y-5.2
X14.6Y-5.3
X14.7Y-5.2
X14.7Y-5.3
X14.8Y-5.2
X14.8Y-5.3
X14.9Y-5.2
X14.9Y-5.3
X15.0Y-5.2
X15.0Y-5.3
X15.1Y-5.2
X15.1Y-5.3
X15.2Y-5.2
X15.2Y-5.3
X15.3Y-5.2
X15.3Y-5.3
X15.4Y-5.2
X15.4Y-5.3
X15.5Y-5.2
X15.5Y-5.3
X15.6Y-5.2
X15.6Y-5.3
X7.0Y-7.2
X7.1Y-7.2
X7.2Y-7.2
X7.3Y-7.2
X7.4Y-7.2
X7.5Y-7.2
X7.6Y-7.2
X7.7Y-7.2
X8.4Y-7.2
X8.5Y-7.2
X8.6Y-7.2
X8.7Y-7.2
X8.8Y-7.2
X8.9Y-7.2
X9.0Y-7.2
X9.1Y-7.2
X10.65Y-10.2
X10.65Y-10.3
X10.65Y-10.4
X10.65Y-10.5
X10.65Y-10.6
X10.65Y-10.7
X10.65Y-10.8
X10.65Y-10.9
X10.65Y-11.0
X8.2Y-10.2
X8.2Y-10.3
X8.2Y-10.4
X8.2Y-10.5
X8.2Y-10.6
X8.2Y-10.7
X8.2Y-10.8
X8.2Y-10.9
X8.2Y-11.0
X10.4Y-11.35
X10.5Y-11.35
X10.6Y-11.35
X10.7Y-11.35
X10.8Y-11.35
X10.9Y-11.35
X14.0Y-4.7
X11.0Y-11.35
X11.1Y-11.35
X11.2Y-11.35
X8.4Y-5.5
X8.5Y-5.5
X8.6Y-5.5
X8.7Y-5.5
X14.1Y-3.5
X14.2Y-3.4
X14.2Y-3.5
X14.3Y-3.4
X14.3Y-3.5
X14.4Y-3.4
X14.4Y-3.5
X14.5Y-3.4
X14.5Y-3.5
X14.6Y-3.4
X14.6Y-3.5
X14.7Y-3.4
X14.7Y-3.5
X14.8Y-3.4
X14.8Y-3.5
X14.9Y-3.4
X14.9Y-3.5
X15.0Y-3.4
X15.0Y-3.5
X15.1Y-3.4
X15.1Y-3.5
X15.2Y-3.4
X15.2Y-3.5
X15.3Y-3.4
X15.3Y-3.5
X15.4Y-3.4
X15.4Y-3.5
X15.5Y-3.4
X15.5Y-3.5
X15.6Y-3.4
X15.6Y-3.5
X13.7Y-6.4
X13.7Y-6.5
X13.8Y-6.4
X13.8Y-6.5
X13.9Y-6.4
X13.9Y-6.5
X14.0Y-6.4
X14.0Y-6.5
X14.1Y-6.4
X14.1Y-6.5
X14.2Y-6.4
X14.2Y-6.5
X14.3Y-6.4
X14.3Y-6.5
X14.4Y-6.4
X14.4Y-6.5
X14.5Y-6.4
X14.5Y-6.5
X14.6Y-6.4
X14.6Y-6.5
X14.7Y-6.4
X14.7Y-6.5
X14.8Y-6.4
X14.8Y-6.5
X14.9Y-6.4
X14.9Y-6.5
X15.0Y-6.4
X15.0Y-6.5
X15.1Y-6.4
X15.1Y-6.5
X15.2Y-6.4
X15.2Y-6.5
X15.3Y-6.4
X15.3Y-6.5
X15.4Y-6.4
X15.4Y-6.5
X15.5Y-6.4
X8.8Y-5.5
X8.9Y-5.5
X15.6Y-6.5
X15.5Y-6.5
X10.8Y-5.1
X9.0Y-5.5
X9.1Y-5.5
X9.2Y-5.5
X9.6Y-5.1
X9.7Y-5.1
X9.9Y-5.1
X10.0Y-5.1
X10.1Y-5.1
X10.2Y-5.1
X10.3Y-5.1
X10.4Y-5.1
X10.5Y-5.1
X10.6Y-5.1
X10.7Y-5.1
X15.6Y-6.4
X10.9Y-5.1
X11.0Y-5.1
X11.1Y-5.1
X11.2Y-5.1
T6
X12.1Y-10.43
X12.1Y-10.6072
X12.3559Y-10.43
X12.3559Y-10.6072
X15.35Y-9.7
X15.35Y-9.8772
X15.6059Y-9.7
X15.6059Y-9.8772
T7
X15.62Y-10.45
X15.62Y-10.6469
T8
X15.6Y-3.05
X6.95Y-13.45
X6.95Y-3.05
X15.6Y-13.45
T0
M30
