G04 #@! TF.GenerationSoftware,KiCad,Pcbnew,(5.1.0-0)*
G04 #@! TF.CreationDate,2019-11-14T15:36:09-08:00*
G04 #@! TF.ProjectId,MainBoard,4d61696e-426f-4617-9264-2e6b69636164,rev?*
G04 #@! TF.SameCoordinates,Original*
G04 #@! TF.FileFunction,Copper,L6,Bot*
G04 #@! TF.FilePolarity,Positive*
%FSLAX46Y46*%
G04 Gerber Fmt 4.6, Leading zero omitted, Abs format (unit mm)*
G04 Created by KiCad (PCBNEW (5.1.0-0)) date 2019-11-14 15:36:09*
%MOMM*%
%LPD*%
G04 APERTURE LIST*
%ADD10O,1.600000X1.600000*%
%ADD11C,1.600000*%
%ADD12R,1.600000X1.600000*%
%ADD13O,1.700000X1.700000*%
%ADD14R,1.700000X1.700000*%
%ADD15C,2.500000*%
%ADD16R,2.500000X2.500000*%
%ADD17C,6.400000*%
%ADD18R,1.300000X1.300000*%
%ADD19C,1.300000*%
%ADD20C,2.000000*%
%ADD21C,1.620000*%
%ADD22C,1.800000*%
%ADD23R,1.800000X1.800000*%
%ADD24C,0.450000*%
%ADD25C,0.127000*%
G04 APERTURE END LIST*
D10*
X389890000Y-330327000D03*
D11*
X382270000Y-330327000D03*
D10*
X304800000Y-121920000D03*
X281940000Y-114300000D03*
X302260000Y-121920000D03*
X284480000Y-114300000D03*
X299720000Y-121920000D03*
X287020000Y-114300000D03*
X297180000Y-121920000D03*
X289560000Y-114300000D03*
X294640000Y-121920000D03*
X292100000Y-114300000D03*
X292100000Y-121920000D03*
X294640000Y-114300000D03*
X289560000Y-121920000D03*
X297180000Y-114300000D03*
X287020000Y-121920000D03*
X299720000Y-114300000D03*
X284480000Y-121920000D03*
X302260000Y-114300000D03*
X281940000Y-121920000D03*
D12*
X304800000Y-114300000D03*
D10*
X269240000Y-121920000D03*
X246380000Y-114300000D03*
X266700000Y-121920000D03*
X248920000Y-114300000D03*
X264160000Y-121920000D03*
X251460000Y-114300000D03*
X261620000Y-121920000D03*
X254000000Y-114300000D03*
X259080000Y-121920000D03*
X256540000Y-114300000D03*
X256540000Y-121920000D03*
X259080000Y-114300000D03*
X254000000Y-121920000D03*
X261620000Y-114300000D03*
X251460000Y-121920000D03*
X264160000Y-114300000D03*
X248920000Y-121920000D03*
X266700000Y-114300000D03*
X246380000Y-121920000D03*
D12*
X269240000Y-114300000D03*
D10*
X233680000Y-121920000D03*
X210820000Y-114300000D03*
X231140000Y-121920000D03*
X213360000Y-114300000D03*
X228600000Y-121920000D03*
X215900000Y-114300000D03*
X226060000Y-121920000D03*
X218440000Y-114300000D03*
X223520000Y-121920000D03*
X220980000Y-114300000D03*
X220980000Y-121920000D03*
X223520000Y-114300000D03*
X218440000Y-121920000D03*
X226060000Y-114300000D03*
X215900000Y-121920000D03*
X228600000Y-114300000D03*
X213360000Y-121920000D03*
X231140000Y-114300000D03*
X210820000Y-121920000D03*
D12*
X233680000Y-114300000D03*
D10*
X198120000Y-121920000D03*
X175260000Y-114300000D03*
X195580000Y-121920000D03*
X177800000Y-114300000D03*
X193040000Y-121920000D03*
X180340000Y-114300000D03*
X190500000Y-121920000D03*
X182880000Y-114300000D03*
X187960000Y-121920000D03*
X185420000Y-114300000D03*
X185420000Y-121920000D03*
X187960000Y-114300000D03*
X182880000Y-121920000D03*
X190500000Y-114300000D03*
X180340000Y-121920000D03*
X193040000Y-114300000D03*
X177800000Y-121920000D03*
X195580000Y-114300000D03*
X175260000Y-121920000D03*
D12*
X198120000Y-114300000D03*
D13*
X248840000Y-129540000D03*
X251380000Y-129540000D03*
X253920000Y-129540000D03*
X256460000Y-129540000D03*
X259000000Y-129540000D03*
X261540000Y-129540000D03*
X264080000Y-129540000D03*
X266620000Y-129540000D03*
X269160000Y-129540000D03*
X271700000Y-129540000D03*
X274240000Y-129540000D03*
X276780000Y-129540000D03*
X279320000Y-129540000D03*
X281860000Y-129540000D03*
X284400000Y-129540000D03*
X286940000Y-129540000D03*
D14*
X289480000Y-129540000D03*
D11*
X311150000Y-115650000D03*
X311150000Y-120650000D03*
X275590000Y-115650000D03*
X275590000Y-120650000D03*
X240030000Y-115650000D03*
X240030000Y-120650000D03*
X204470000Y-115650000D03*
X204470000Y-120650000D03*
D10*
X358540000Y-220980000D03*
X391560000Y-228600000D03*
X361080000Y-220980000D03*
X389020000Y-228600000D03*
X363620000Y-220980000D03*
X386480000Y-228600000D03*
X366160000Y-220980000D03*
X383940000Y-228600000D03*
X368700000Y-220980000D03*
X381400000Y-228600000D03*
X371240000Y-220980000D03*
X378860000Y-228600000D03*
X373780000Y-220980000D03*
X376320000Y-228600000D03*
X376320000Y-220980000D03*
X373780000Y-228600000D03*
X378860000Y-220980000D03*
X371240000Y-228600000D03*
X381400000Y-220980000D03*
X368700000Y-228600000D03*
X383940000Y-220980000D03*
X366160000Y-228600000D03*
X386480000Y-220980000D03*
X363620000Y-228600000D03*
X389020000Y-220980000D03*
X361080000Y-228600000D03*
X391560000Y-220980000D03*
D12*
X358540000Y-228600000D03*
D10*
X312820000Y-220980000D03*
X345840000Y-228600000D03*
X315360000Y-220980000D03*
X343300000Y-228600000D03*
X317900000Y-220980000D03*
X340760000Y-228600000D03*
X320440000Y-220980000D03*
X338220000Y-228600000D03*
X322980000Y-220980000D03*
X335680000Y-228600000D03*
X325520000Y-220980000D03*
X333140000Y-228600000D03*
X328060000Y-220980000D03*
X330600000Y-228600000D03*
X330600000Y-220980000D03*
X328060000Y-228600000D03*
X333140000Y-220980000D03*
X325520000Y-228600000D03*
X335680000Y-220980000D03*
X322980000Y-228600000D03*
X338220000Y-220980000D03*
X320440000Y-228600000D03*
X340760000Y-220980000D03*
X317900000Y-228600000D03*
X343300000Y-220980000D03*
X315360000Y-228600000D03*
X345840000Y-220980000D03*
D12*
X312820000Y-228600000D03*
D13*
X347980000Y-86360000D03*
X347980000Y-88900000D03*
X350520000Y-86360000D03*
X350520000Y-88900000D03*
X353060000Y-86360000D03*
X353060000Y-88900000D03*
X355600000Y-86360000D03*
X355600000Y-88900000D03*
X358140000Y-86360000D03*
X358140000Y-88900000D03*
X360680000Y-86360000D03*
X360680000Y-88900000D03*
X363220000Y-86360000D03*
X363220000Y-88900000D03*
X365760000Y-86360000D03*
X365760000Y-88900000D03*
X368300000Y-86360000D03*
X368300000Y-88900000D03*
X370840000Y-86360000D03*
X370840000Y-88900000D03*
X373380000Y-86360000D03*
X373380000Y-88900000D03*
X375920000Y-86360000D03*
X375920000Y-88900000D03*
X378460000Y-86360000D03*
X378460000Y-88900000D03*
X381000000Y-86360000D03*
X381000000Y-88900000D03*
X383540000Y-86360000D03*
X383540000Y-88900000D03*
X386080000Y-86360000D03*
X386080000Y-88900000D03*
X388620000Y-86360000D03*
X388620000Y-88900000D03*
X391160000Y-86360000D03*
X391160000Y-88900000D03*
X393700000Y-86360000D03*
X393700000Y-88900000D03*
X396240000Y-86360000D03*
D14*
X396240000Y-88900000D03*
D11*
X351790000Y-227250000D03*
X351790000Y-222250000D03*
X306070000Y-227250000D03*
X306070000Y-222250000D03*
D13*
X355600000Y-171450000D03*
X358140000Y-171450000D03*
X360680000Y-171450000D03*
X363220000Y-171450000D03*
X365760000Y-171450000D03*
X368300000Y-171450000D03*
X370840000Y-171450000D03*
X373380000Y-171450000D03*
X375920000Y-171450000D03*
X378460000Y-171450000D03*
X381000000Y-171450000D03*
X383540000Y-171450000D03*
X386080000Y-171450000D03*
X388620000Y-171450000D03*
X391160000Y-171450000D03*
X393700000Y-171450000D03*
D14*
X396240000Y-171450000D03*
D10*
X347980000Y-200660000D03*
X365760000Y-208280000D03*
X350520000Y-200660000D03*
X363220000Y-208280000D03*
X353060000Y-200660000D03*
X360680000Y-208280000D03*
X355600000Y-200660000D03*
X358140000Y-208280000D03*
X358140000Y-200660000D03*
X355600000Y-208280000D03*
X360680000Y-200660000D03*
X353060000Y-208280000D03*
X363220000Y-200660000D03*
X350520000Y-208280000D03*
X365760000Y-200660000D03*
D12*
X347980000Y-208280000D03*
D10*
X378460000Y-200660000D03*
X396240000Y-208280000D03*
X381000000Y-200660000D03*
X393700000Y-208280000D03*
X383540000Y-200660000D03*
X391160000Y-208280000D03*
X386080000Y-200660000D03*
X388620000Y-208280000D03*
X388620000Y-200660000D03*
X386080000Y-208280000D03*
X391160000Y-200660000D03*
X383540000Y-208280000D03*
X393700000Y-200660000D03*
X381000000Y-208280000D03*
X396240000Y-200660000D03*
D12*
X378460000Y-208280000D03*
D10*
X312420000Y-187960000D03*
X335280000Y-195580000D03*
X314960000Y-187960000D03*
X332740000Y-195580000D03*
X317500000Y-187960000D03*
X330200000Y-195580000D03*
X320040000Y-187960000D03*
X327660000Y-195580000D03*
X322580000Y-187960000D03*
X325120000Y-195580000D03*
X325120000Y-187960000D03*
X322580000Y-195580000D03*
X327660000Y-187960000D03*
X320040000Y-195580000D03*
X330200000Y-187960000D03*
X317500000Y-195580000D03*
X332740000Y-187960000D03*
X314960000Y-195580000D03*
X335280000Y-187960000D03*
D12*
X312420000Y-195580000D03*
D10*
X347980000Y-187960000D03*
X365760000Y-195580000D03*
X350520000Y-187960000D03*
X363220000Y-195580000D03*
X353060000Y-187960000D03*
X360680000Y-195580000D03*
X355600000Y-187960000D03*
X358140000Y-195580000D03*
X358140000Y-187960000D03*
X355600000Y-195580000D03*
X360680000Y-187960000D03*
X353060000Y-195580000D03*
X363220000Y-187960000D03*
X350520000Y-195580000D03*
X365760000Y-187960000D03*
D12*
X347980000Y-195580000D03*
D10*
X312420000Y-200660000D03*
X335280000Y-208280000D03*
X314960000Y-200660000D03*
X332740000Y-208280000D03*
X317500000Y-200660000D03*
X330200000Y-208280000D03*
X320040000Y-200660000D03*
X327660000Y-208280000D03*
X322580000Y-200660000D03*
X325120000Y-208280000D03*
X325120000Y-200660000D03*
X322580000Y-208280000D03*
X327660000Y-200660000D03*
X320040000Y-208280000D03*
X330200000Y-200660000D03*
X317500000Y-208280000D03*
X332740000Y-200660000D03*
X314960000Y-208280000D03*
X335280000Y-200660000D03*
D12*
X312420000Y-208280000D03*
D10*
X378460000Y-187960000D03*
X396240000Y-195580000D03*
X381000000Y-187960000D03*
X393700000Y-195580000D03*
X383540000Y-187960000D03*
X391160000Y-195580000D03*
X386080000Y-187960000D03*
X388620000Y-195580000D03*
X388620000Y-187960000D03*
X386080000Y-195580000D03*
X391160000Y-187960000D03*
X383540000Y-195580000D03*
X393700000Y-187960000D03*
X381000000Y-195580000D03*
X396240000Y-187960000D03*
D12*
X378460000Y-195580000D03*
D13*
X355600000Y-213360000D03*
X358140000Y-213360000D03*
X360680000Y-213360000D03*
X363220000Y-213360000D03*
X365760000Y-213360000D03*
X368300000Y-213360000D03*
X370840000Y-213360000D03*
X373380000Y-213360000D03*
X375920000Y-213360000D03*
X378460000Y-213360000D03*
X381000000Y-213360000D03*
X383540000Y-213360000D03*
X386080000Y-213360000D03*
X388620000Y-213360000D03*
X391160000Y-213360000D03*
X393700000Y-213360000D03*
D14*
X396240000Y-213360000D03*
D11*
X306070000Y-206930000D03*
X306070000Y-201930000D03*
X372110000Y-206930000D03*
X372110000Y-201930000D03*
X341630000Y-206930000D03*
X341630000Y-201930000D03*
X372110000Y-194230000D03*
X372110000Y-189230000D03*
X341630000Y-194230000D03*
X341630000Y-189230000D03*
X306070000Y-194230000D03*
X306070000Y-189230000D03*
D10*
X193040000Y-91440000D03*
X175260000Y-83820000D03*
X190500000Y-91440000D03*
X177800000Y-83820000D03*
X187960000Y-91440000D03*
X180340000Y-83820000D03*
X185420000Y-91440000D03*
X182880000Y-83820000D03*
X182880000Y-91440000D03*
X185420000Y-83820000D03*
X180340000Y-91440000D03*
X187960000Y-83820000D03*
X177800000Y-91440000D03*
X190500000Y-83820000D03*
X175260000Y-91440000D03*
D12*
X193040000Y-83820000D03*
D10*
X223520000Y-91440000D03*
X205740000Y-83820000D03*
X220980000Y-91440000D03*
X208280000Y-83820000D03*
X218440000Y-91440000D03*
X210820000Y-83820000D03*
X215900000Y-91440000D03*
X213360000Y-83820000D03*
X213360000Y-91440000D03*
X215900000Y-83820000D03*
X210820000Y-91440000D03*
X218440000Y-83820000D03*
X208280000Y-91440000D03*
X220980000Y-83820000D03*
X205740000Y-91440000D03*
D12*
X223520000Y-83820000D03*
D10*
X320040000Y-91440000D03*
X297180000Y-83820000D03*
X317500000Y-91440000D03*
X299720000Y-83820000D03*
X314960000Y-91440000D03*
X302260000Y-83820000D03*
X312420000Y-91440000D03*
X304800000Y-83820000D03*
X309880000Y-91440000D03*
X307340000Y-83820000D03*
X307340000Y-91440000D03*
X309880000Y-83820000D03*
X304800000Y-91440000D03*
X312420000Y-83820000D03*
X302260000Y-91440000D03*
X314960000Y-83820000D03*
X299720000Y-91440000D03*
X317500000Y-83820000D03*
X297180000Y-91440000D03*
D12*
X320040000Y-83820000D03*
D10*
X254000000Y-91440000D03*
X236220000Y-83820000D03*
X251460000Y-91440000D03*
X238760000Y-83820000D03*
X248920000Y-91440000D03*
X241300000Y-83820000D03*
X246380000Y-91440000D03*
X243840000Y-83820000D03*
X243840000Y-91440000D03*
X246380000Y-83820000D03*
X241300000Y-91440000D03*
X248920000Y-83820000D03*
X238760000Y-91440000D03*
X251460000Y-83820000D03*
X236220000Y-91440000D03*
D12*
X254000000Y-83820000D03*
D10*
X320040000Y-104140000D03*
X297180000Y-96520000D03*
X317500000Y-104140000D03*
X299720000Y-96520000D03*
X314960000Y-104140000D03*
X302260000Y-96520000D03*
X312420000Y-104140000D03*
X304800000Y-96520000D03*
X309880000Y-104140000D03*
X307340000Y-96520000D03*
X307340000Y-104140000D03*
X309880000Y-96520000D03*
X304800000Y-104140000D03*
X312420000Y-96520000D03*
X302260000Y-104140000D03*
X314960000Y-96520000D03*
X299720000Y-104140000D03*
X317500000Y-96520000D03*
X297180000Y-104140000D03*
D12*
X320040000Y-96520000D03*
D10*
X284480000Y-91440000D03*
X266700000Y-83820000D03*
X281940000Y-91440000D03*
X269240000Y-83820000D03*
X279400000Y-91440000D03*
X271780000Y-83820000D03*
X276860000Y-91440000D03*
X274320000Y-83820000D03*
X274320000Y-91440000D03*
X276860000Y-83820000D03*
X271780000Y-91440000D03*
X279400000Y-83820000D03*
X269240000Y-91440000D03*
X281940000Y-83820000D03*
X266700000Y-91440000D03*
D12*
X284480000Y-83820000D03*
D11*
X326390000Y-85170000D03*
X326390000Y-90170000D03*
X326263000Y-97870000D03*
X326263000Y-102870000D03*
X275670000Y-252730000D03*
X280670000Y-252730000D03*
D13*
X264160000Y-236220000D03*
X266700000Y-236220000D03*
X269240000Y-236220000D03*
X271780000Y-236220000D03*
X274320000Y-236220000D03*
X276860000Y-236220000D03*
X279400000Y-236220000D03*
X281940000Y-236220000D03*
D14*
X284480000Y-236220000D03*
D13*
X264160000Y-215900000D03*
X266700000Y-215900000D03*
X269240000Y-215900000D03*
X271780000Y-215900000D03*
X274320000Y-215900000D03*
X276860000Y-215900000D03*
X279400000Y-215900000D03*
X281940000Y-215900000D03*
D14*
X284480000Y-215900000D03*
D10*
X233680000Y-309880000D03*
X218440000Y-337820000D03*
X233680000Y-312420000D03*
X218440000Y-335280000D03*
X233680000Y-314960000D03*
X218440000Y-332740000D03*
X233680000Y-317500000D03*
X218440000Y-330200000D03*
X233680000Y-320040000D03*
X218440000Y-327660000D03*
X233680000Y-322580000D03*
X218440000Y-325120000D03*
X233680000Y-325120000D03*
X218440000Y-322580000D03*
X233680000Y-327660000D03*
X218440000Y-320040000D03*
X233680000Y-330200000D03*
X218440000Y-317500000D03*
X233680000Y-332740000D03*
X218440000Y-314960000D03*
X233680000Y-335280000D03*
X218440000Y-312420000D03*
X233680000Y-337820000D03*
D12*
X218440000Y-309880000D03*
D10*
X254000000Y-309880000D03*
X238760000Y-337820000D03*
X254000000Y-312420000D03*
X238760000Y-335280000D03*
X254000000Y-314960000D03*
X238760000Y-332740000D03*
X254000000Y-317500000D03*
X238760000Y-330200000D03*
X254000000Y-320040000D03*
X238760000Y-327660000D03*
X254000000Y-322580000D03*
X238760000Y-325120000D03*
X254000000Y-325120000D03*
X238760000Y-322580000D03*
X254000000Y-327660000D03*
X238760000Y-320040000D03*
X254000000Y-330200000D03*
X238760000Y-317500000D03*
X254000000Y-332740000D03*
X238760000Y-314960000D03*
X254000000Y-335280000D03*
X238760000Y-312420000D03*
X254000000Y-337820000D03*
D12*
X238760000Y-309880000D03*
D10*
X284480000Y-340360000D03*
X261620000Y-332740000D03*
X281940000Y-340360000D03*
X264160000Y-332740000D03*
X279400000Y-340360000D03*
X266700000Y-332740000D03*
X276860000Y-340360000D03*
X269240000Y-332740000D03*
X274320000Y-340360000D03*
X271780000Y-332740000D03*
X271780000Y-340360000D03*
X274320000Y-332740000D03*
X269240000Y-340360000D03*
X276860000Y-332740000D03*
X266700000Y-340360000D03*
X279400000Y-332740000D03*
X264160000Y-340360000D03*
X281940000Y-332740000D03*
X261620000Y-340360000D03*
D12*
X284480000Y-332740000D03*
D10*
X284480000Y-320040000D03*
X261620000Y-312420000D03*
X281940000Y-320040000D03*
X264160000Y-312420000D03*
X279400000Y-320040000D03*
X266700000Y-312420000D03*
X276860000Y-320040000D03*
X269240000Y-312420000D03*
X274320000Y-320040000D03*
X271780000Y-312420000D03*
X271780000Y-320040000D03*
X274320000Y-312420000D03*
X269240000Y-320040000D03*
X276860000Y-312420000D03*
X266700000Y-320040000D03*
X279400000Y-312420000D03*
X264160000Y-320040000D03*
X281940000Y-312420000D03*
X261620000Y-320040000D03*
D12*
X284480000Y-312420000D03*
D10*
X284480000Y-299720000D03*
X261620000Y-292100000D03*
X281940000Y-299720000D03*
X264160000Y-292100000D03*
X279400000Y-299720000D03*
X266700000Y-292100000D03*
X276860000Y-299720000D03*
X269240000Y-292100000D03*
X274320000Y-299720000D03*
X271780000Y-292100000D03*
X271780000Y-299720000D03*
X274320000Y-292100000D03*
X269240000Y-299720000D03*
X276860000Y-292100000D03*
X266700000Y-299720000D03*
X279400000Y-292100000D03*
X264160000Y-299720000D03*
X281940000Y-292100000D03*
X261620000Y-299720000D03*
D12*
X284480000Y-292100000D03*
D10*
X281940000Y-259080000D03*
X274320000Y-281940000D03*
X281940000Y-261620000D03*
X274320000Y-279400000D03*
X281940000Y-264160000D03*
X274320000Y-276860000D03*
X281940000Y-266700000D03*
X274320000Y-274320000D03*
X281940000Y-269240000D03*
X274320000Y-271780000D03*
X281940000Y-271780000D03*
X274320000Y-269240000D03*
X281940000Y-274320000D03*
X274320000Y-266700000D03*
X281940000Y-276860000D03*
X274320000Y-264160000D03*
X281940000Y-279400000D03*
X274320000Y-261620000D03*
X281940000Y-281940000D03*
D12*
X274320000Y-259080000D03*
D10*
X284480000Y-165100000D03*
X261620000Y-157480000D03*
X281940000Y-165100000D03*
X264160000Y-157480000D03*
X279400000Y-165100000D03*
X266700000Y-157480000D03*
X276860000Y-165100000D03*
X269240000Y-157480000D03*
X274320000Y-165100000D03*
X271780000Y-157480000D03*
X271780000Y-165100000D03*
X274320000Y-157480000D03*
X269240000Y-165100000D03*
X276860000Y-157480000D03*
X266700000Y-165100000D03*
X279400000Y-157480000D03*
X264160000Y-165100000D03*
X281940000Y-157480000D03*
X261620000Y-165100000D03*
D12*
X284480000Y-157480000D03*
D10*
X284480000Y-177800000D03*
X261620000Y-170180000D03*
X281940000Y-177800000D03*
X264160000Y-170180000D03*
X279400000Y-177800000D03*
X266700000Y-170180000D03*
X276860000Y-177800000D03*
X269240000Y-170180000D03*
X274320000Y-177800000D03*
X271780000Y-170180000D03*
X271780000Y-177800000D03*
X274320000Y-170180000D03*
X269240000Y-177800000D03*
X276860000Y-170180000D03*
X266700000Y-177800000D03*
X279400000Y-170180000D03*
X264160000Y-177800000D03*
X281940000Y-170180000D03*
X261620000Y-177800000D03*
D12*
X284480000Y-170180000D03*
D10*
X248615800Y-165100000D03*
X215595800Y-157480000D03*
X246075800Y-165100000D03*
X218135800Y-157480000D03*
X243535800Y-165100000D03*
X220675800Y-157480000D03*
X240995800Y-165100000D03*
X223215800Y-157480000D03*
X238455800Y-165100000D03*
X225755800Y-157480000D03*
X235915800Y-165100000D03*
X228295800Y-157480000D03*
X233375800Y-165100000D03*
X230835800Y-157480000D03*
X230835800Y-165100000D03*
X233375800Y-157480000D03*
X228295800Y-165100000D03*
X235915800Y-157480000D03*
X225755800Y-165100000D03*
X238455800Y-157480000D03*
X223215800Y-165100000D03*
X240995800Y-157480000D03*
X220675800Y-165100000D03*
X243535800Y-157480000D03*
X218135800Y-165100000D03*
X246075800Y-157480000D03*
X215595800Y-165100000D03*
D12*
X248615800Y-157480000D03*
D10*
X248920000Y-177800000D03*
X215900000Y-170180000D03*
X246380000Y-177800000D03*
X218440000Y-170180000D03*
X243840000Y-177800000D03*
X220980000Y-170180000D03*
X241300000Y-177800000D03*
X223520000Y-170180000D03*
X238760000Y-177800000D03*
X226060000Y-170180000D03*
X236220000Y-177800000D03*
X228600000Y-170180000D03*
X233680000Y-177800000D03*
X231140000Y-170180000D03*
X231140000Y-177800000D03*
X233680000Y-170180000D03*
X228600000Y-177800000D03*
X236220000Y-170180000D03*
X226060000Y-177800000D03*
X238760000Y-170180000D03*
X223520000Y-177800000D03*
X241300000Y-170180000D03*
X220980000Y-177800000D03*
X243840000Y-170180000D03*
X218440000Y-177800000D03*
X246380000Y-170180000D03*
X215900000Y-177800000D03*
D12*
X248920000Y-170180000D03*
D13*
X248920000Y-279400000D03*
X248920000Y-276860000D03*
X248920000Y-274320000D03*
X248920000Y-271780000D03*
X248920000Y-269240000D03*
X248920000Y-266700000D03*
X248920000Y-264160000D03*
X248920000Y-261620000D03*
D14*
X248920000Y-259080000D03*
D13*
X228600000Y-279400000D03*
X228600000Y-276860000D03*
X228600000Y-274320000D03*
X228600000Y-271780000D03*
X228600000Y-269240000D03*
X228600000Y-266700000D03*
X228600000Y-264160000D03*
X228600000Y-261620000D03*
D14*
X228600000Y-259080000D03*
D13*
X208280000Y-279400000D03*
X208280000Y-276860000D03*
X208280000Y-274320000D03*
X208280000Y-271780000D03*
X208280000Y-269240000D03*
X208280000Y-266700000D03*
X208280000Y-264160000D03*
X208280000Y-261620000D03*
D14*
X208280000Y-259080000D03*
D13*
X187960000Y-279400000D03*
X187960000Y-276860000D03*
X187960000Y-274320000D03*
X187960000Y-271780000D03*
X187960000Y-269240000D03*
X187960000Y-266700000D03*
X187960000Y-264160000D03*
X187960000Y-261620000D03*
D14*
X187960000Y-259080000D03*
D10*
X203200000Y-258922000D03*
X195580000Y-281782000D03*
X203200000Y-261462000D03*
X195580000Y-279242000D03*
X203200000Y-264002000D03*
X195580000Y-276702000D03*
X203200000Y-266542000D03*
X195580000Y-274162000D03*
X203200000Y-269082000D03*
X195580000Y-271622000D03*
X203200000Y-271622000D03*
X195580000Y-269082000D03*
X203200000Y-274162000D03*
X195580000Y-266542000D03*
X203200000Y-276702000D03*
X195580000Y-264002000D03*
X203200000Y-279242000D03*
X195580000Y-261462000D03*
X203200000Y-281782000D03*
D12*
X195580000Y-258922000D03*
D10*
X182880000Y-258922000D03*
X175260000Y-281782000D03*
X182880000Y-261462000D03*
X175260000Y-279242000D03*
X182880000Y-264002000D03*
X175260000Y-276702000D03*
X182880000Y-266542000D03*
X175260000Y-274162000D03*
X182880000Y-269082000D03*
X175260000Y-271622000D03*
X182880000Y-271622000D03*
X175260000Y-269082000D03*
X182880000Y-274162000D03*
X175260000Y-266542000D03*
X182880000Y-276702000D03*
X175260000Y-264002000D03*
X182880000Y-279242000D03*
X175260000Y-261462000D03*
X182880000Y-281782000D03*
D12*
X175260000Y-258922000D03*
D10*
X210820000Y-208280000D03*
X195580000Y-246380000D03*
X210820000Y-210820000D03*
X195580000Y-243840000D03*
X210820000Y-213360000D03*
X195580000Y-241300000D03*
X210820000Y-215900000D03*
X195580000Y-238760000D03*
X210820000Y-218440000D03*
X195580000Y-236220000D03*
X210820000Y-220980000D03*
X195580000Y-233680000D03*
X210820000Y-223520000D03*
X195580000Y-231140000D03*
X210820000Y-226060000D03*
X195580000Y-228600000D03*
X210820000Y-228600000D03*
X195580000Y-226060000D03*
X210820000Y-231140000D03*
X195580000Y-223520000D03*
X210820000Y-233680000D03*
X195580000Y-220980000D03*
X210820000Y-236220000D03*
X195580000Y-218440000D03*
X210820000Y-238760000D03*
X195580000Y-215900000D03*
X210820000Y-241300000D03*
X195580000Y-213360000D03*
X210820000Y-243840000D03*
X195580000Y-210820000D03*
X210820000Y-246380000D03*
D12*
X195580000Y-208280000D03*
D10*
X190500000Y-208172000D03*
X175260000Y-246272000D03*
X190500000Y-210712000D03*
X175260000Y-243732000D03*
X190500000Y-213252000D03*
X175260000Y-241192000D03*
X190500000Y-215792000D03*
X175260000Y-238652000D03*
X190500000Y-218332000D03*
X175260000Y-236112000D03*
X190500000Y-220872000D03*
X175260000Y-233572000D03*
X190500000Y-223412000D03*
X175260000Y-231032000D03*
X190500000Y-225952000D03*
X175260000Y-228492000D03*
X190500000Y-228492000D03*
X175260000Y-225952000D03*
X190500000Y-231032000D03*
X175260000Y-223412000D03*
X190500000Y-233572000D03*
X175260000Y-220872000D03*
X190500000Y-236112000D03*
X175260000Y-218332000D03*
X190500000Y-238652000D03*
X175260000Y-215792000D03*
X190500000Y-241192000D03*
X175260000Y-213252000D03*
X190500000Y-243732000D03*
X175260000Y-210712000D03*
X190500000Y-246272000D03*
D12*
X175260000Y-208172000D03*
D11*
X180420000Y-201930000D03*
X185420000Y-201930000D03*
X196930000Y-252730000D03*
X201930000Y-252730000D03*
X176610000Y-252730000D03*
X181610000Y-252730000D03*
X200740000Y-201930000D03*
X205740000Y-201930000D03*
D10*
X378460000Y-175260000D03*
X396240000Y-182880000D03*
X381000000Y-175260000D03*
X393700000Y-182880000D03*
X383540000Y-175260000D03*
X391160000Y-182880000D03*
X386080000Y-175260000D03*
X388620000Y-182880000D03*
X388620000Y-175260000D03*
X386080000Y-182880000D03*
X391160000Y-175260000D03*
X383540000Y-182880000D03*
X393700000Y-175260000D03*
X381000000Y-182880000D03*
X396240000Y-175260000D03*
D12*
X378460000Y-182880000D03*
D15*
X396748000Y-270430000D03*
D16*
X396748000Y-265430000D03*
D17*
X396240000Y-341630000D03*
X396240000Y-77470000D03*
X176530000Y-341630000D03*
X176530000Y-77470000D03*
D10*
X208280000Y-162560000D03*
X200660000Y-177800000D03*
X208280000Y-165100000D03*
X200660000Y-175260000D03*
X208280000Y-167640000D03*
X200660000Y-172720000D03*
X208280000Y-170180000D03*
X200660000Y-170180000D03*
X208280000Y-172720000D03*
X200660000Y-167640000D03*
X208280000Y-175260000D03*
X200660000Y-165100000D03*
X208280000Y-177800000D03*
D12*
X200660000Y-162560000D03*
D10*
X195580000Y-162560000D03*
X187960000Y-177800000D03*
X195580000Y-165100000D03*
X187960000Y-175260000D03*
X195580000Y-167640000D03*
X187960000Y-172720000D03*
X195580000Y-170180000D03*
X187960000Y-170180000D03*
X195580000Y-172720000D03*
X187960000Y-167640000D03*
X195580000Y-175260000D03*
X187960000Y-165100000D03*
X195580000Y-177800000D03*
D12*
X187960000Y-162560000D03*
D11*
X290830000Y-158830000D03*
X290830000Y-163830000D03*
X372110000Y-181530000D03*
X372110000Y-176530000D03*
D13*
X347980000Y-116840000D03*
X347980000Y-119380000D03*
X350520000Y-116840000D03*
X350520000Y-119380000D03*
X353060000Y-116840000D03*
X353060000Y-119380000D03*
X355600000Y-116840000D03*
X355600000Y-119380000D03*
X358140000Y-116840000D03*
X358140000Y-119380000D03*
X360680000Y-116840000D03*
X360680000Y-119380000D03*
X363220000Y-116840000D03*
X363220000Y-119380000D03*
X365760000Y-116840000D03*
X365760000Y-119380000D03*
X368300000Y-116840000D03*
X368300000Y-119380000D03*
X370840000Y-116840000D03*
X370840000Y-119380000D03*
X373380000Y-116840000D03*
X373380000Y-119380000D03*
X375920000Y-116840000D03*
X375920000Y-119380000D03*
X378460000Y-116840000D03*
X378460000Y-119380000D03*
X381000000Y-116840000D03*
X381000000Y-119380000D03*
X383540000Y-116840000D03*
X383540000Y-119380000D03*
X386080000Y-116840000D03*
X386080000Y-119380000D03*
X388620000Y-116840000D03*
X388620000Y-119380000D03*
X391160000Y-116840000D03*
X391160000Y-119380000D03*
X393700000Y-116840000D03*
X393700000Y-119380000D03*
X396240000Y-116840000D03*
D14*
X396240000Y-119380000D03*
D13*
X347980000Y-147320000D03*
X347980000Y-149860000D03*
X350520000Y-147320000D03*
X350520000Y-149860000D03*
X353060000Y-147320000D03*
X353060000Y-149860000D03*
X355600000Y-147320000D03*
X355600000Y-149860000D03*
X358140000Y-147320000D03*
X358140000Y-149860000D03*
X360680000Y-147320000D03*
X360680000Y-149860000D03*
X363220000Y-147320000D03*
X363220000Y-149860000D03*
X365760000Y-147320000D03*
X365760000Y-149860000D03*
X368300000Y-147320000D03*
X368300000Y-149860000D03*
X370840000Y-147320000D03*
X370840000Y-149860000D03*
X373380000Y-147320000D03*
X373380000Y-149860000D03*
X375920000Y-147320000D03*
X375920000Y-149860000D03*
X378460000Y-147320000D03*
X378460000Y-149860000D03*
X381000000Y-147320000D03*
X381000000Y-149860000D03*
X383540000Y-147320000D03*
X383540000Y-149860000D03*
X386080000Y-147320000D03*
X386080000Y-149860000D03*
X388620000Y-147320000D03*
X388620000Y-149860000D03*
X391160000Y-147320000D03*
X391160000Y-149860000D03*
X393700000Y-147320000D03*
X393700000Y-149860000D03*
X396240000Y-147320000D03*
D14*
X396240000Y-149860000D03*
D13*
X347980000Y-162560000D03*
X347980000Y-165100000D03*
X350520000Y-162560000D03*
X350520000Y-165100000D03*
X353060000Y-162560000D03*
X353060000Y-165100000D03*
X355600000Y-162560000D03*
X355600000Y-165100000D03*
X358140000Y-162560000D03*
X358140000Y-165100000D03*
X360680000Y-162560000D03*
X360680000Y-165100000D03*
X363220000Y-162560000D03*
X363220000Y-165100000D03*
X365760000Y-162560000D03*
X365760000Y-165100000D03*
X368300000Y-162560000D03*
X368300000Y-165100000D03*
X370840000Y-162560000D03*
X370840000Y-165100000D03*
X373380000Y-162560000D03*
X373380000Y-165100000D03*
X375920000Y-162560000D03*
X375920000Y-165100000D03*
X378460000Y-162560000D03*
X378460000Y-165100000D03*
X381000000Y-162560000D03*
X381000000Y-165100000D03*
X383540000Y-162560000D03*
X383540000Y-165100000D03*
X386080000Y-162560000D03*
X386080000Y-165100000D03*
X388620000Y-162560000D03*
X388620000Y-165100000D03*
X391160000Y-162560000D03*
X391160000Y-165100000D03*
X393700000Y-162560000D03*
X393700000Y-165100000D03*
X396240000Y-162560000D03*
D14*
X396240000Y-165100000D03*
D13*
X347980000Y-132080000D03*
X347980000Y-134620000D03*
X350520000Y-132080000D03*
X350520000Y-134620000D03*
X353060000Y-132080000D03*
X353060000Y-134620000D03*
X355600000Y-132080000D03*
X355600000Y-134620000D03*
X358140000Y-132080000D03*
X358140000Y-134620000D03*
X360680000Y-132080000D03*
X360680000Y-134620000D03*
X363220000Y-132080000D03*
X363220000Y-134620000D03*
X365760000Y-132080000D03*
X365760000Y-134620000D03*
X368300000Y-132080000D03*
X368300000Y-134620000D03*
X370840000Y-132080000D03*
X370840000Y-134620000D03*
X373380000Y-132080000D03*
X373380000Y-134620000D03*
X375920000Y-132080000D03*
X375920000Y-134620000D03*
X378460000Y-132080000D03*
X378460000Y-134620000D03*
X381000000Y-132080000D03*
X381000000Y-134620000D03*
X383540000Y-132080000D03*
X383540000Y-134620000D03*
X386080000Y-132080000D03*
X386080000Y-134620000D03*
X388620000Y-132080000D03*
X388620000Y-134620000D03*
X391160000Y-132080000D03*
X391160000Y-134620000D03*
X393700000Y-132080000D03*
X393700000Y-134620000D03*
X396240000Y-132080000D03*
D14*
X396240000Y-134620000D03*
D13*
X347980000Y-101600000D03*
X347980000Y-104140000D03*
X350520000Y-101600000D03*
X350520000Y-104140000D03*
X353060000Y-101600000D03*
X353060000Y-104140000D03*
X355600000Y-101600000D03*
X355600000Y-104140000D03*
X358140000Y-101600000D03*
X358140000Y-104140000D03*
X360680000Y-101600000D03*
X360680000Y-104140000D03*
X363220000Y-101600000D03*
X363220000Y-104140000D03*
X365760000Y-101600000D03*
X365760000Y-104140000D03*
X368300000Y-101600000D03*
X368300000Y-104140000D03*
X370840000Y-101600000D03*
X370840000Y-104140000D03*
X373380000Y-101600000D03*
X373380000Y-104140000D03*
X375920000Y-101600000D03*
X375920000Y-104140000D03*
X378460000Y-101600000D03*
X378460000Y-104140000D03*
X381000000Y-101600000D03*
X381000000Y-104140000D03*
X383540000Y-101600000D03*
X383540000Y-104140000D03*
X386080000Y-101600000D03*
X386080000Y-104140000D03*
X388620000Y-101600000D03*
X388620000Y-104140000D03*
X391160000Y-101600000D03*
X391160000Y-104140000D03*
X393700000Y-101600000D03*
X393700000Y-104140000D03*
X396240000Y-101600000D03*
D14*
X396240000Y-104140000D03*
D10*
X243835800Y-259080000D03*
X236215800Y-281940000D03*
X243835800Y-261620000D03*
X236215800Y-279400000D03*
X243835800Y-264160000D03*
X236215800Y-276860000D03*
X243835800Y-266700000D03*
X236215800Y-274320000D03*
X243835800Y-269240000D03*
X236215800Y-271780000D03*
X243835800Y-271780000D03*
X236215800Y-269240000D03*
X243835800Y-274320000D03*
X236215800Y-266700000D03*
X243835800Y-276860000D03*
X236215800Y-264160000D03*
X243835800Y-279400000D03*
X236215800Y-261620000D03*
X243835800Y-281940000D03*
D12*
X236215800Y-259080000D03*
D11*
X369650000Y-245110000D03*
X374650000Y-245110000D03*
X386080000Y-290830000D03*
X386080000Y-283210000D03*
X370840000Y-283210000D03*
D12*
X370840000Y-290830000D03*
D10*
X383540000Y-266700000D03*
D11*
X375920000Y-266700000D03*
D10*
X378460000Y-246380000D03*
D11*
X386080000Y-246380000D03*
D10*
X397510000Y-257810000D03*
D11*
X389890000Y-257810000D03*
X383460000Y-252730000D03*
X378460000Y-252730000D03*
X383460000Y-259080000D03*
X378460000Y-259080000D03*
D10*
X318770000Y-251460000D03*
D11*
X326390000Y-251460000D03*
D10*
X318770000Y-245110000D03*
D11*
X326390000Y-245110000D03*
X325040000Y-266700000D03*
X320040000Y-266700000D03*
X323310000Y-259080000D03*
D12*
X321310000Y-259080000D03*
D10*
X251460000Y-208280000D03*
X236220000Y-246380000D03*
X251460000Y-210820000D03*
X236220000Y-243840000D03*
X251460000Y-213360000D03*
X236220000Y-241300000D03*
X251460000Y-215900000D03*
X236220000Y-238760000D03*
X251460000Y-218440000D03*
X236220000Y-236220000D03*
X251460000Y-220980000D03*
X236220000Y-233680000D03*
X251460000Y-223520000D03*
X236220000Y-231140000D03*
X251460000Y-226060000D03*
X236220000Y-228600000D03*
X251460000Y-228600000D03*
X236220000Y-226060000D03*
X251460000Y-231140000D03*
X236220000Y-223520000D03*
X251460000Y-233680000D03*
X236220000Y-220980000D03*
X251460000Y-236220000D03*
X236220000Y-218440000D03*
X251460000Y-238760000D03*
X236220000Y-215900000D03*
X251460000Y-241300000D03*
X236220000Y-213360000D03*
X251460000Y-243840000D03*
X236220000Y-210820000D03*
X251460000Y-246380000D03*
D12*
X236220000Y-208280000D03*
D13*
X177800000Y-182880000D03*
X180340000Y-182880000D03*
X182880000Y-182880000D03*
X185420000Y-182880000D03*
X187960000Y-182880000D03*
X190500000Y-182880000D03*
X193040000Y-182880000D03*
D14*
X195580000Y-182880000D03*
D13*
X213360000Y-182880000D03*
X215900000Y-182880000D03*
X218440000Y-182880000D03*
X220980000Y-182880000D03*
X223520000Y-182880000D03*
X226060000Y-182880000D03*
X228600000Y-182880000D03*
D14*
X231140000Y-182880000D03*
D13*
X177800000Y-139700000D03*
X180340000Y-139700000D03*
X182880000Y-139700000D03*
X185420000Y-139700000D03*
X187960000Y-139700000D03*
X190500000Y-139700000D03*
X193040000Y-139700000D03*
X195580000Y-139700000D03*
D14*
X198120000Y-139700000D03*
D13*
X213360000Y-139700000D03*
X215900000Y-139700000D03*
X218440000Y-139700000D03*
X220980000Y-139700000D03*
X223520000Y-139700000D03*
X226060000Y-139700000D03*
X228600000Y-139700000D03*
X231140000Y-139700000D03*
D14*
X233680000Y-139700000D03*
D10*
X213360000Y-309880000D03*
X205740000Y-332740000D03*
X213360000Y-312420000D03*
X205740000Y-330200000D03*
X213360000Y-314960000D03*
X205740000Y-327660000D03*
X213360000Y-317500000D03*
X205740000Y-325120000D03*
X213360000Y-320040000D03*
X205740000Y-322580000D03*
X213360000Y-322580000D03*
X205740000Y-320040000D03*
X213360000Y-325120000D03*
X205740000Y-317500000D03*
X213360000Y-327660000D03*
X205740000Y-314960000D03*
X213360000Y-330200000D03*
X205740000Y-312420000D03*
X213360000Y-332740000D03*
D12*
X205740000Y-309880000D03*
D10*
X248920000Y-297180000D03*
X226060000Y-289560000D03*
X246380000Y-297180000D03*
X228600000Y-289560000D03*
X243840000Y-297180000D03*
X231140000Y-289560000D03*
X241300000Y-297180000D03*
X233680000Y-289560000D03*
X238760000Y-297180000D03*
X236220000Y-289560000D03*
X236220000Y-297180000D03*
X238760000Y-289560000D03*
X233680000Y-297180000D03*
X241300000Y-289560000D03*
X231140000Y-297180000D03*
X243840000Y-289560000D03*
X228600000Y-297180000D03*
X246380000Y-289560000D03*
X226060000Y-297180000D03*
D12*
X248920000Y-289560000D03*
D10*
X213360000Y-297180000D03*
X190500000Y-289560000D03*
X210820000Y-297180000D03*
X193040000Y-289560000D03*
X208280000Y-297180000D03*
X195580000Y-289560000D03*
X205740000Y-297180000D03*
X198120000Y-289560000D03*
X203200000Y-297180000D03*
X200660000Y-289560000D03*
X200660000Y-297180000D03*
X203200000Y-289560000D03*
X198120000Y-297180000D03*
X205740000Y-289560000D03*
X195580000Y-297180000D03*
X208280000Y-289560000D03*
X193040000Y-297180000D03*
X210820000Y-289560000D03*
X190500000Y-297180000D03*
D12*
X213360000Y-289560000D03*
D10*
X337820000Y-251460000D03*
X330200000Y-269240000D03*
X337820000Y-254000000D03*
X330200000Y-266700000D03*
X337820000Y-256540000D03*
X330200000Y-264160000D03*
X337820000Y-259080000D03*
X330200000Y-261620000D03*
X337820000Y-261620000D03*
X330200000Y-259080000D03*
X337820000Y-264160000D03*
X330200000Y-256540000D03*
X337820000Y-266700000D03*
X330200000Y-254000000D03*
X337820000Y-269240000D03*
D12*
X330200000Y-251460000D03*
D10*
X350520000Y-251460000D03*
X342900000Y-266700000D03*
X350520000Y-254000000D03*
X342900000Y-264160000D03*
X350520000Y-256540000D03*
X342900000Y-261620000D03*
X350520000Y-259080000D03*
X342900000Y-259080000D03*
X350520000Y-261620000D03*
X342900000Y-256540000D03*
X350520000Y-264160000D03*
X342900000Y-254000000D03*
X350520000Y-266700000D03*
D12*
X342900000Y-251460000D03*
D10*
X363220000Y-251460000D03*
X355600000Y-266700000D03*
X363220000Y-254000000D03*
X355600000Y-264160000D03*
X363220000Y-256540000D03*
X355600000Y-261620000D03*
X363220000Y-259080000D03*
X355600000Y-259080000D03*
X363220000Y-261620000D03*
X355600000Y-256540000D03*
X363220000Y-264160000D03*
X355600000Y-254000000D03*
X363220000Y-266700000D03*
D12*
X355600000Y-251460000D03*
D18*
X369570000Y-266700000D03*
D19*
X372110000Y-266700000D03*
X370840000Y-265430000D03*
D10*
X375920000Y-251460000D03*
X368300000Y-259080000D03*
X375920000Y-254000000D03*
X368300000Y-256540000D03*
X375920000Y-256540000D03*
X368300000Y-254000000D03*
X375920000Y-259080000D03*
D12*
X368300000Y-251460000D03*
D10*
X337820000Y-281940000D03*
X330200000Y-297180000D03*
X337820000Y-284480000D03*
X330200000Y-294640000D03*
X337820000Y-287020000D03*
X330200000Y-292100000D03*
X337820000Y-289560000D03*
X330200000Y-289560000D03*
X337820000Y-292100000D03*
X330200000Y-287020000D03*
X337820000Y-294640000D03*
X330200000Y-284480000D03*
X337820000Y-297180000D03*
D12*
X330200000Y-281940000D03*
D10*
X350520000Y-281940000D03*
X342900000Y-297180000D03*
X350520000Y-284480000D03*
X342900000Y-294640000D03*
X350520000Y-287020000D03*
X342900000Y-292100000D03*
X350520000Y-289560000D03*
X342900000Y-289560000D03*
X350520000Y-292100000D03*
X342900000Y-287020000D03*
X350520000Y-294640000D03*
X342900000Y-284480000D03*
X350520000Y-297180000D03*
D12*
X342900000Y-281940000D03*
D10*
X325120000Y-281940000D03*
X317500000Y-299720000D03*
X325120000Y-284480000D03*
X317500000Y-297180000D03*
X325120000Y-287020000D03*
X317500000Y-294640000D03*
X325120000Y-289560000D03*
X317500000Y-292100000D03*
X325120000Y-292100000D03*
X317500000Y-289560000D03*
X325120000Y-294640000D03*
X317500000Y-287020000D03*
X325120000Y-297180000D03*
X317500000Y-284480000D03*
X325120000Y-299720000D03*
D12*
X317500000Y-281940000D03*
D10*
X363220000Y-281940000D03*
X355600000Y-297180000D03*
X363220000Y-284480000D03*
X355600000Y-294640000D03*
X363220000Y-287020000D03*
X355600000Y-292100000D03*
X363220000Y-289560000D03*
X355600000Y-289560000D03*
X363220000Y-292100000D03*
X355600000Y-287020000D03*
X363220000Y-294640000D03*
X355600000Y-284480000D03*
X363220000Y-297180000D03*
D12*
X355600000Y-281940000D03*
D10*
X314960000Y-251460000D03*
X307340000Y-259080000D03*
X314960000Y-254000000D03*
X307340000Y-256540000D03*
X314960000Y-256540000D03*
X307340000Y-254000000D03*
X314960000Y-259080000D03*
D12*
X307340000Y-251460000D03*
D10*
X312420000Y-281940000D03*
X304800000Y-297180000D03*
X312420000Y-284480000D03*
X304800000Y-294640000D03*
X312420000Y-287020000D03*
X304800000Y-292100000D03*
X312420000Y-289560000D03*
X304800000Y-289560000D03*
X312420000Y-292100000D03*
X304800000Y-287020000D03*
X312420000Y-294640000D03*
X304800000Y-284480000D03*
X312420000Y-297180000D03*
D12*
X304800000Y-281940000D03*
D10*
X379730000Y-334010000D03*
X372110000Y-341630000D03*
X379730000Y-336550000D03*
X372110000Y-339090000D03*
X379730000Y-339090000D03*
X372110000Y-336550000D03*
X379730000Y-341630000D03*
D12*
X372110000Y-334010000D03*
D10*
X359410000Y-334010000D03*
X351790000Y-341630000D03*
X359410000Y-336550000D03*
X351790000Y-339090000D03*
X359410000Y-339090000D03*
X351790000Y-336550000D03*
X359410000Y-341630000D03*
D12*
X351790000Y-334010000D03*
D10*
X388616200Y-318768200D03*
X350516200Y-303528200D03*
X386076200Y-318768200D03*
X353056200Y-303528200D03*
X383536200Y-318768200D03*
X355596200Y-303528200D03*
X380996200Y-318768200D03*
X358136200Y-303528200D03*
X378456200Y-318768200D03*
X360676200Y-303528200D03*
X375916200Y-318768200D03*
X363216200Y-303528200D03*
X373376200Y-318768200D03*
X365756200Y-303528200D03*
X370836200Y-318768200D03*
X368296200Y-303528200D03*
X368296200Y-318768200D03*
X370836200Y-303528200D03*
X365756200Y-318768200D03*
X373376200Y-303528200D03*
X363216200Y-318768200D03*
X375916200Y-303528200D03*
X360676200Y-318768200D03*
X378456200Y-303528200D03*
X358136200Y-318768200D03*
X380996200Y-303528200D03*
X355596200Y-318768200D03*
X383536200Y-303528200D03*
X353056200Y-318768200D03*
X386076200Y-303528200D03*
X350516200Y-318768200D03*
D12*
X388616200Y-303528200D03*
D10*
X328930000Y-334010000D03*
X321310000Y-341630000D03*
X328930000Y-336550000D03*
X321310000Y-339090000D03*
X328930000Y-339090000D03*
X321310000Y-336550000D03*
X328930000Y-341630000D03*
D12*
X321310000Y-334010000D03*
D10*
X334010000Y-313690000D03*
X326390000Y-321310000D03*
X334010000Y-316230000D03*
X326390000Y-318770000D03*
X334010000Y-318770000D03*
X326390000Y-316230000D03*
X334010000Y-321310000D03*
D12*
X326390000Y-313690000D03*
D10*
X284489000Y-248915800D03*
X261629000Y-241295800D03*
X281949000Y-248915800D03*
X264169000Y-241295800D03*
X279409000Y-248915800D03*
X266709000Y-241295800D03*
X276869000Y-248915800D03*
X269249000Y-241295800D03*
X274329000Y-248915800D03*
X271789000Y-241295800D03*
X271789000Y-248915800D03*
X274329000Y-241295800D03*
X269249000Y-248915800D03*
X276869000Y-241295800D03*
X266709000Y-248915800D03*
X279409000Y-241295800D03*
X264169000Y-248915800D03*
X281949000Y-241295800D03*
X261629000Y-248915800D03*
D12*
X284489000Y-241295800D03*
D10*
X223515800Y-259071000D03*
X215895800Y-281931000D03*
X223515800Y-261611000D03*
X215895800Y-279391000D03*
X223515800Y-264151000D03*
X215895800Y-276851000D03*
X223515800Y-266691000D03*
X215895800Y-274311000D03*
X223515800Y-269231000D03*
X215895800Y-271771000D03*
X223515800Y-271771000D03*
X215895800Y-269231000D03*
X223515800Y-274311000D03*
X215895800Y-266691000D03*
X223515800Y-276851000D03*
X215895800Y-264151000D03*
X223515800Y-279391000D03*
X215895800Y-261611000D03*
X223515800Y-281931000D03*
D12*
X215895800Y-259071000D03*
D10*
X231140000Y-208280000D03*
X215900000Y-246380000D03*
X231140000Y-210820000D03*
X215900000Y-243840000D03*
X231140000Y-213360000D03*
X215900000Y-241300000D03*
X231140000Y-215900000D03*
X215900000Y-238760000D03*
X231140000Y-218440000D03*
X215900000Y-236220000D03*
X231140000Y-220980000D03*
X215900000Y-233680000D03*
X231140000Y-223520000D03*
X215900000Y-231140000D03*
X231140000Y-226060000D03*
X215900000Y-228600000D03*
X231140000Y-228600000D03*
X215900000Y-226060000D03*
X231140000Y-231140000D03*
X215900000Y-223520000D03*
X231140000Y-233680000D03*
X215900000Y-220980000D03*
X231140000Y-236220000D03*
X215900000Y-218440000D03*
X231140000Y-238760000D03*
X215900000Y-215900000D03*
X231140000Y-241300000D03*
X215900000Y-213360000D03*
X231140000Y-243840000D03*
X215900000Y-210820000D03*
X231140000Y-246380000D03*
D12*
X215900000Y-208280000D03*
D10*
X284480000Y-210820000D03*
X261620000Y-203200000D03*
X281940000Y-210820000D03*
X264160000Y-203200000D03*
X279400000Y-210820000D03*
X266700000Y-203200000D03*
X276860000Y-210820000D03*
X269240000Y-203200000D03*
X274320000Y-210820000D03*
X271780000Y-203200000D03*
X271780000Y-210820000D03*
X274320000Y-203200000D03*
X269240000Y-210820000D03*
X276860000Y-203200000D03*
X266700000Y-210820000D03*
X279400000Y-203200000D03*
X264160000Y-210820000D03*
X281940000Y-203200000D03*
X261620000Y-210820000D03*
D12*
X284480000Y-203200000D03*
D10*
X193040000Y-195580000D03*
X175260000Y-187960000D03*
X190500000Y-195580000D03*
X177800000Y-187960000D03*
X187960000Y-195580000D03*
X180340000Y-187960000D03*
X185420000Y-195580000D03*
X182880000Y-187960000D03*
X182880000Y-195580000D03*
X185420000Y-187960000D03*
X180340000Y-195580000D03*
X187960000Y-187960000D03*
X177800000Y-195580000D03*
X190500000Y-187960000D03*
X175260000Y-195580000D03*
D12*
X193040000Y-187960000D03*
D10*
X223520000Y-195580000D03*
X205740000Y-187960000D03*
X220980000Y-195580000D03*
X208280000Y-187960000D03*
X218440000Y-195580000D03*
X210820000Y-187960000D03*
X215900000Y-195580000D03*
X213360000Y-187960000D03*
X213360000Y-195580000D03*
X215900000Y-187960000D03*
X210820000Y-195580000D03*
X218440000Y-187960000D03*
X208280000Y-195580000D03*
X220980000Y-187960000D03*
X205740000Y-195580000D03*
D12*
X223520000Y-187960000D03*
D10*
X284480000Y-228600000D03*
X261620000Y-220980000D03*
X281940000Y-228600000D03*
X264160000Y-220980000D03*
X279400000Y-228600000D03*
X266700000Y-220980000D03*
X276860000Y-228600000D03*
X269240000Y-220980000D03*
X274320000Y-228600000D03*
X271780000Y-220980000D03*
X271780000Y-228600000D03*
X274320000Y-220980000D03*
X269240000Y-228600000D03*
X276860000Y-220980000D03*
X266700000Y-228600000D03*
X279400000Y-220980000D03*
X264160000Y-228600000D03*
X281940000Y-220980000D03*
X261620000Y-228600000D03*
D12*
X284480000Y-220980000D03*
D10*
X254000000Y-195580000D03*
X236220000Y-187960000D03*
X251460000Y-195580000D03*
X238760000Y-187960000D03*
X248920000Y-195580000D03*
X241300000Y-187960000D03*
X246380000Y-195580000D03*
X243840000Y-187960000D03*
X243840000Y-195580000D03*
X246380000Y-187960000D03*
X241300000Y-195580000D03*
X248920000Y-187960000D03*
X238760000Y-195580000D03*
X251460000Y-187960000D03*
X236220000Y-195580000D03*
D12*
X254000000Y-187960000D03*
D10*
X284480000Y-195580000D03*
X266700000Y-187960000D03*
X281940000Y-195580000D03*
X269240000Y-187960000D03*
X279400000Y-195580000D03*
X271780000Y-187960000D03*
X276860000Y-195580000D03*
X274320000Y-187960000D03*
X274320000Y-195580000D03*
X276860000Y-187960000D03*
X271780000Y-195580000D03*
X279400000Y-187960000D03*
X269240000Y-195580000D03*
X281940000Y-187960000D03*
X266700000Y-195580000D03*
D12*
X284480000Y-187960000D03*
D10*
X193062000Y-152355200D03*
X175282000Y-144735200D03*
X190522000Y-152355200D03*
X177822000Y-144735200D03*
X187982000Y-152355200D03*
X180362000Y-144735200D03*
X185442000Y-152355200D03*
X182902000Y-144735200D03*
X182902000Y-152355200D03*
X185442000Y-144735200D03*
X180362000Y-152355200D03*
X187982000Y-144735200D03*
X177822000Y-152355200D03*
X190522000Y-144735200D03*
X175282000Y-152355200D03*
D12*
X193062000Y-144735200D03*
D10*
X223542000Y-152355200D03*
X205762000Y-144735200D03*
X221002000Y-152355200D03*
X208302000Y-144735200D03*
X218462000Y-152355200D03*
X210842000Y-144735200D03*
X215922000Y-152355200D03*
X213382000Y-144735200D03*
X213382000Y-152355200D03*
X215922000Y-144735200D03*
X210842000Y-152355200D03*
X218462000Y-144735200D03*
X208302000Y-152355200D03*
X221002000Y-144735200D03*
X205762000Y-152355200D03*
D12*
X223542000Y-144735200D03*
D10*
X254022000Y-152355200D03*
X236242000Y-144735200D03*
X251482000Y-152355200D03*
X238782000Y-144735200D03*
X248942000Y-152355200D03*
X241322000Y-144735200D03*
X246402000Y-152355200D03*
X243862000Y-144735200D03*
X243862000Y-152355200D03*
X246402000Y-144735200D03*
X241322000Y-152355200D03*
X248942000Y-144735200D03*
X238782000Y-152355200D03*
X251482000Y-144735200D03*
X236242000Y-152355200D03*
D12*
X254022000Y-144735200D03*
D10*
X284502000Y-152355200D03*
X266722000Y-144735200D03*
X281962000Y-152355200D03*
X269262000Y-144735200D03*
X279422000Y-152355200D03*
X271802000Y-144735200D03*
X276882000Y-152355200D03*
X274342000Y-144735200D03*
X274342000Y-152355200D03*
X276882000Y-144735200D03*
X271802000Y-152355200D03*
X279422000Y-144735200D03*
X269262000Y-152355200D03*
X281962000Y-144735200D03*
X266722000Y-152355200D03*
D12*
X284502000Y-144735200D03*
D10*
X198114000Y-134626000D03*
X175254000Y-127006000D03*
X195574000Y-134626000D03*
X177794000Y-127006000D03*
X193034000Y-134626000D03*
X180334000Y-127006000D03*
X190494000Y-134626000D03*
X182874000Y-127006000D03*
X187954000Y-134626000D03*
X185414000Y-127006000D03*
X185414000Y-134626000D03*
X187954000Y-127006000D03*
X182874000Y-134626000D03*
X190494000Y-127006000D03*
X180334000Y-134626000D03*
X193034000Y-127006000D03*
X177794000Y-134626000D03*
X195574000Y-127006000D03*
X175254000Y-134626000D03*
D12*
X198114000Y-127006000D03*
D10*
X233674000Y-134626000D03*
X210814000Y-127006000D03*
X231134000Y-134626000D03*
X213354000Y-127006000D03*
X228594000Y-134626000D03*
X215894000Y-127006000D03*
X226054000Y-134626000D03*
X218434000Y-127006000D03*
X223514000Y-134626000D03*
X220974000Y-127006000D03*
X220974000Y-134626000D03*
X223514000Y-127006000D03*
X218434000Y-134626000D03*
X226054000Y-127006000D03*
X215894000Y-134626000D03*
X228594000Y-127006000D03*
X213354000Y-134626000D03*
X231134000Y-127006000D03*
X210814000Y-134626000D03*
D12*
X233674000Y-127006000D03*
D10*
X193040000Y-104140000D03*
X175260000Y-96520000D03*
X190500000Y-104140000D03*
X177800000Y-96520000D03*
X187960000Y-104140000D03*
X180340000Y-96520000D03*
X185420000Y-104140000D03*
X182880000Y-96520000D03*
X182880000Y-104140000D03*
X185420000Y-96520000D03*
X180340000Y-104140000D03*
X187960000Y-96520000D03*
X177800000Y-104140000D03*
X190500000Y-96520000D03*
X175260000Y-104140000D03*
D12*
X193040000Y-96520000D03*
D10*
X223520000Y-104140000D03*
X205740000Y-96520000D03*
X220980000Y-104140000D03*
X208280000Y-96520000D03*
X218440000Y-104140000D03*
X210820000Y-96520000D03*
X215900000Y-104140000D03*
X213360000Y-96520000D03*
X213360000Y-104140000D03*
X215900000Y-96520000D03*
X210820000Y-104140000D03*
X218440000Y-96520000D03*
X208280000Y-104140000D03*
X220980000Y-96520000D03*
X205740000Y-104140000D03*
D12*
X223520000Y-96520000D03*
D10*
X254000000Y-104140000D03*
X236220000Y-96520000D03*
X251460000Y-104140000D03*
X238760000Y-96520000D03*
X248920000Y-104140000D03*
X241300000Y-96520000D03*
X246380000Y-104140000D03*
X243840000Y-96520000D03*
X243840000Y-104140000D03*
X246380000Y-96520000D03*
X241300000Y-104140000D03*
X248920000Y-96520000D03*
X238760000Y-104140000D03*
X251460000Y-96520000D03*
X236220000Y-104140000D03*
D12*
X254000000Y-96520000D03*
D10*
X284480000Y-104140000D03*
X266700000Y-96520000D03*
X281940000Y-104140000D03*
X269240000Y-96520000D03*
X279400000Y-104140000D03*
X271780000Y-96520000D03*
X276860000Y-104140000D03*
X274320000Y-96520000D03*
X274320000Y-104140000D03*
X276860000Y-96520000D03*
X271780000Y-104140000D03*
X279400000Y-96520000D03*
X269240000Y-104140000D03*
X281940000Y-96520000D03*
X266700000Y-104140000D03*
D12*
X284480000Y-96520000D03*
D10*
X347980000Y-175260000D03*
X365760000Y-182880000D03*
X350520000Y-175260000D03*
X363220000Y-182880000D03*
X353060000Y-175260000D03*
X360680000Y-182880000D03*
X355600000Y-175260000D03*
X358140000Y-182880000D03*
X358140000Y-175260000D03*
X355600000Y-182880000D03*
X360680000Y-175260000D03*
X353060000Y-182880000D03*
X363220000Y-175260000D03*
X350520000Y-182880000D03*
X365760000Y-175260000D03*
D12*
X347980000Y-182880000D03*
D10*
X312420000Y-175260000D03*
X335280000Y-182880000D03*
X314960000Y-175260000D03*
X332740000Y-182880000D03*
X317500000Y-175260000D03*
X330200000Y-182880000D03*
X320040000Y-175260000D03*
X327660000Y-182880000D03*
X322580000Y-175260000D03*
X325120000Y-182880000D03*
X325120000Y-175260000D03*
X322580000Y-182880000D03*
X327660000Y-175260000D03*
X320040000Y-182880000D03*
X330200000Y-175260000D03*
X317500000Y-182880000D03*
X332740000Y-175260000D03*
X314960000Y-182880000D03*
X335280000Y-175260000D03*
D12*
X312420000Y-182880000D03*
D20*
X396390000Y-246380000D03*
X396390000Y-250880000D03*
X389890000Y-246380000D03*
X389890000Y-250880000D03*
X313840000Y-264922000D03*
X313840000Y-269422000D03*
X307340000Y-264922000D03*
X307340000Y-269422000D03*
D21*
X307340000Y-308610000D03*
X309840000Y-311110000D03*
X307340000Y-313610000D03*
D10*
X295910000Y-325120000D03*
X298450000Y-325120000D03*
X300990000Y-325120000D03*
X303530000Y-325120000D03*
X306070000Y-325120000D03*
X308610000Y-325120000D03*
X311150000Y-325120000D03*
X313690000Y-325120000D03*
D12*
X316230000Y-325120000D03*
D10*
X200660000Y-323850000D03*
D11*
X193040000Y-323850000D03*
D10*
X200660000Y-318770000D03*
D11*
X193040000Y-318770000D03*
D10*
X200660000Y-313690000D03*
D11*
X193040000Y-313690000D03*
D10*
X386080000Y-297180000D03*
D11*
X393700000Y-297180000D03*
D10*
X389890000Y-341630000D03*
D11*
X382270000Y-341630000D03*
D10*
X389890000Y-337820000D03*
D11*
X382270000Y-337820000D03*
D10*
X389890000Y-334010000D03*
D11*
X382270000Y-334010000D03*
D10*
X369570000Y-341630000D03*
D11*
X361950000Y-341630000D03*
D10*
X369570000Y-337820000D03*
D11*
X361950000Y-337820000D03*
D10*
X369570000Y-334010000D03*
D11*
X361950000Y-334010000D03*
D10*
X349250000Y-341630000D03*
D11*
X341630000Y-341630000D03*
D10*
X349250000Y-337820000D03*
D11*
X341630000Y-337820000D03*
D10*
X349250000Y-334010000D03*
D11*
X341630000Y-334010000D03*
D10*
X339090000Y-341630000D03*
D11*
X331470000Y-341630000D03*
D10*
X339090000Y-337820000D03*
D11*
X331470000Y-337820000D03*
D10*
X339090000Y-334010000D03*
D11*
X331470000Y-334010000D03*
D10*
X318770000Y-341630000D03*
D11*
X311150000Y-341630000D03*
D10*
X318770000Y-337820000D03*
D11*
X311150000Y-337820000D03*
D10*
X318770000Y-334010000D03*
D11*
X311150000Y-334010000D03*
D10*
X344170000Y-321310000D03*
D11*
X336550000Y-321310000D03*
D10*
X344170000Y-317500000D03*
D11*
X336550000Y-317500000D03*
D10*
X344170000Y-313690000D03*
D11*
X336550000Y-313690000D03*
D10*
X323850000Y-321310000D03*
D11*
X316230000Y-321310000D03*
D10*
X323850000Y-317500000D03*
D11*
X316230000Y-317500000D03*
D10*
X323850000Y-313690000D03*
D11*
X316230000Y-313690000D03*
D13*
X295910000Y-328930000D03*
X298450000Y-328930000D03*
X300990000Y-328930000D03*
X303530000Y-328930000D03*
X306070000Y-328930000D03*
X308610000Y-328930000D03*
X311150000Y-328930000D03*
X313690000Y-328930000D03*
D14*
X316230000Y-328930000D03*
D13*
X264160000Y-328930000D03*
X266700000Y-328930000D03*
X269240000Y-328930000D03*
X271780000Y-328930000D03*
X274320000Y-328930000D03*
X276860000Y-328930000D03*
X279400000Y-328930000D03*
X281940000Y-328930000D03*
D14*
X284480000Y-328930000D03*
D13*
X264160000Y-308610000D03*
X266700000Y-308610000D03*
X269240000Y-308610000D03*
X271780000Y-308610000D03*
X274320000Y-308610000D03*
X276860000Y-308610000D03*
X279400000Y-308610000D03*
X281940000Y-308610000D03*
D14*
X284480000Y-308610000D03*
D13*
X264160000Y-288290000D03*
X266700000Y-288290000D03*
X269240000Y-288290000D03*
X271780000Y-288290000D03*
X274320000Y-288290000D03*
X276860000Y-288290000D03*
X279400000Y-288290000D03*
X281940000Y-288290000D03*
D14*
X284480000Y-288290000D03*
D13*
X368300000Y-323850000D03*
X370840000Y-323850000D03*
X373380000Y-323850000D03*
X375920000Y-323850000D03*
X378460000Y-323850000D03*
X381000000Y-323850000D03*
X383540000Y-323850000D03*
X386080000Y-323850000D03*
D14*
X388620000Y-323850000D03*
D13*
X270510000Y-279400000D03*
X270510000Y-276860000D03*
X270510000Y-274320000D03*
X270510000Y-271780000D03*
X270510000Y-269240000D03*
X270510000Y-266700000D03*
X270510000Y-264160000D03*
X270510000Y-261620000D03*
D14*
X270510000Y-259080000D03*
D13*
X248840000Y-109220000D03*
X251380000Y-109220000D03*
X253920000Y-109220000D03*
X256460000Y-109220000D03*
X259000000Y-109220000D03*
X261540000Y-109220000D03*
X264080000Y-109220000D03*
X266620000Y-109220000D03*
X269160000Y-109220000D03*
X271700000Y-109220000D03*
X274240000Y-109220000D03*
X276780000Y-109220000D03*
X279320000Y-109220000D03*
X281860000Y-109220000D03*
X284400000Y-109220000D03*
X286940000Y-109220000D03*
D14*
X289480000Y-109220000D03*
D13*
X315087000Y-171450000D03*
X317627000Y-171450000D03*
X320167000Y-171450000D03*
X322707000Y-171450000D03*
X325247000Y-171450000D03*
X327787000Y-171450000D03*
X330327000Y-171450000D03*
X332867000Y-171450000D03*
D14*
X335407000Y-171450000D03*
D22*
X201930000Y-306070000D03*
D23*
X199390000Y-306070000D03*
D22*
X195326000Y-306070000D03*
D23*
X192786000Y-306070000D03*
D22*
X381000000Y-273050000D03*
D23*
X383540000Y-273050000D03*
D22*
X393700000Y-290830000D03*
D23*
X396240000Y-290830000D03*
D11*
X223600000Y-303530000D03*
X228600000Y-303530000D03*
X207090000Y-303530000D03*
X212090000Y-303530000D03*
X290830000Y-339010000D03*
X290830000Y-334010000D03*
X243920000Y-303530000D03*
X248920000Y-303530000D03*
X255270000Y-290910000D03*
X255270000Y-295910000D03*
X290830000Y-313770000D03*
X290830000Y-318770000D03*
X219710000Y-290910000D03*
X219710000Y-295910000D03*
X290830000Y-293450000D03*
X290830000Y-298450000D03*
X331550000Y-245110000D03*
X336550000Y-245110000D03*
X344250000Y-245110000D03*
X349250000Y-245110000D03*
X356950000Y-245110000D03*
X361950000Y-245110000D03*
X306150000Y-275590000D03*
X311150000Y-275590000D03*
X308690000Y-245110000D03*
X313690000Y-245110000D03*
X370920000Y-275590000D03*
X375920000Y-275590000D03*
X331550000Y-275590000D03*
X336550000Y-275590000D03*
X344250000Y-275590000D03*
X349250000Y-275590000D03*
X318850000Y-275590000D03*
X323850000Y-275590000D03*
X356950000Y-275590000D03*
X361950000Y-275590000D03*
X373460000Y-327660000D03*
X378460000Y-327660000D03*
X353140000Y-327660000D03*
X358140000Y-327660000D03*
X394970000Y-308690000D03*
X394970000Y-313690000D03*
X322660000Y-327660000D03*
X327660000Y-327660000D03*
X327660000Y-307340000D03*
X332660000Y-307340000D03*
X290830000Y-242650000D03*
X290830000Y-247650000D03*
X237515800Y-252730000D03*
X242515800Y-252730000D03*
X217250000Y-252730000D03*
X222250000Y-252730000D03*
X241345000Y-201930000D03*
X246345000Y-201930000D03*
X221025000Y-201930000D03*
X226025000Y-201930000D03*
X290830000Y-204550000D03*
X290830000Y-209550000D03*
X199390000Y-189260000D03*
X199390000Y-194260000D03*
X229870000Y-189260000D03*
X229870000Y-194260000D03*
X290830000Y-222330000D03*
X290830000Y-227330000D03*
X260350000Y-189260000D03*
X260350000Y-194260000D03*
X290830000Y-189260000D03*
X290830000Y-194260000D03*
X290830000Y-171567200D03*
X290830000Y-176567200D03*
X255270000Y-158780000D03*
X255270000Y-163780000D03*
X255270000Y-171480000D03*
X255270000Y-176480000D03*
X201885800Y-156895800D03*
X206885800Y-156895800D03*
X189310000Y-156946600D03*
X194310000Y-156946600D03*
X199390000Y-146130000D03*
X199390000Y-151130000D03*
X229870000Y-146130000D03*
X229870000Y-151130000D03*
X290830000Y-146050000D03*
X290830000Y-151050000D03*
X260350000Y-146130000D03*
X260350000Y-151130000D03*
X204470000Y-128270000D03*
X204470000Y-133270000D03*
X240030000Y-128350000D03*
X240030000Y-133350000D03*
X199390000Y-97870000D03*
X199390000Y-102870000D03*
X229870000Y-102790000D03*
X229870000Y-97790000D03*
X260350000Y-102790000D03*
X260350000Y-97790000D03*
X290830000Y-102790000D03*
X290830000Y-97790000D03*
X229870000Y-85170000D03*
X229870000Y-90170000D03*
X290830000Y-85170000D03*
X290830000Y-90170000D03*
X199390000Y-85170000D03*
X199390000Y-90170000D03*
X260350000Y-85170000D03*
X260350000Y-90170000D03*
X341630000Y-181530000D03*
X341630000Y-176530000D03*
X306070000Y-181530000D03*
X306070000Y-176530000D03*
X395700000Y-280670000D03*
D12*
X393700000Y-280670000D03*
D24*
X211201000Y-299212000D03*
X303530000Y-177673000D03*
X302996501Y-295630501D03*
X303530000Y-205994000D03*
X295402000Y-177673000D03*
X293243000Y-86614000D03*
X303114490Y-181102000D03*
X303114490Y-272669000D03*
X258318000Y-315087000D03*
X258318000Y-269459490D03*
X247015000Y-291211000D03*
X258826000Y-264414000D03*
X259691303Y-298680303D03*
X205867000Y-278384000D03*
X257810000Y-277241000D03*
X257810000Y-337185000D03*
X209296000Y-102235000D03*
X212090000Y-87630000D03*
X219456000Y-88646000D03*
X209677000Y-90033989D03*
X173355000Y-261620000D03*
X279781000Y-269875000D03*
X232156000Y-342357490D03*
X219837000Y-339471000D03*
X219837000Y-340106000D03*
X219837000Y-340741000D03*
X240538000Y-335280000D03*
X240284000Y-332740000D03*
X304673000Y-248920000D03*
X304453510Y-169383490D03*
X220980000Y-101346000D03*
X332232000Y-281940000D03*
X260731000Y-281940000D03*
X212217000Y-209550000D03*
X193167000Y-98425000D03*
X293878000Y-249047000D03*
X293243000Y-96520000D03*
X319532000Y-278384000D03*
X287909000Y-160147000D03*
X295910000Y-304419000D03*
X208280000Y-295148000D03*
X316611000Y-177292000D03*
X295910000Y-178689000D03*
X295910000Y-281940000D03*
X295910000Y-160147000D03*
X295910000Y-159512000D03*
X295910000Y-192024000D03*
X295910000Y-204597000D03*
X295910000Y-224536000D03*
X360680000Y-203962000D03*
X359434487Y-191550541D03*
X358140000Y-191516000D03*
X296545000Y-303911000D03*
X205740000Y-295494490D03*
X287909000Y-160782000D03*
X316611000Y-177927000D03*
X296546825Y-179104510D03*
X296545000Y-279400000D03*
X296546825Y-160783825D03*
X296546825Y-159513825D03*
X182880000Y-82413999D03*
X296546825Y-191608490D03*
X296545000Y-204308490D03*
X296545000Y-224824510D03*
X358140000Y-204216000D03*
X355600000Y-191897000D03*
X287909000Y-161417000D03*
X297180000Y-303403000D03*
X198120000Y-295773987D03*
X297180000Y-179358510D03*
X297180000Y-276860000D03*
X297180000Y-161417000D03*
X316611000Y-178562000D03*
X297180000Y-159512000D03*
X185420000Y-82159989D03*
X297180000Y-191354490D03*
X297180000Y-204054490D03*
X297180000Y-225078510D03*
X355600000Y-204597000D03*
X353020190Y-191936810D03*
X287909000Y-162052000D03*
X297815000Y-302895000D03*
X297815000Y-179612510D03*
X297815000Y-274320000D03*
X297815000Y-162052000D03*
X316611000Y-179162479D03*
X297815000Y-159512000D03*
X187960000Y-81905979D03*
X297815000Y-191100490D03*
X297815000Y-203800490D03*
X297815000Y-225332510D03*
X353020190Y-204636810D03*
X391160000Y-192405000D03*
X287909000Y-162687000D03*
X298450000Y-179866510D03*
X298446681Y-302390319D03*
X298450000Y-271780000D03*
X298450000Y-162687000D03*
X298450000Y-159512000D03*
X210820000Y-81651969D03*
X298450000Y-190846490D03*
X298450000Y-203546490D03*
X298450000Y-225586510D03*
X391160000Y-205105000D03*
X388620000Y-192820510D03*
X287909000Y-163322000D03*
X198120000Y-291084000D03*
X299085000Y-301752000D03*
X299085000Y-269240000D03*
X299085000Y-163322000D03*
X299085000Y-180213000D03*
X299085000Y-159512000D03*
X213360000Y-81372500D03*
X299085000Y-190592490D03*
X299085000Y-203292490D03*
X299085000Y-225840510D03*
X388620000Y-205520510D03*
X386080000Y-193074521D03*
X287909000Y-163957000D03*
X299720000Y-301244000D03*
X205740000Y-291338000D03*
X299720000Y-266700000D03*
X299720000Y-163957000D03*
X299742555Y-180397065D03*
X299720000Y-159512000D03*
X215900000Y-81118500D03*
X299720000Y-190338490D03*
X299720000Y-203038490D03*
X299720000Y-226094510D03*
X386080000Y-205774521D03*
X383540000Y-193328532D03*
X287909000Y-164592000D03*
X300355000Y-300736000D03*
X208278664Y-291499499D03*
X300355000Y-264160000D03*
X300355000Y-164465000D03*
X300355000Y-180628521D03*
X300355000Y-159512000D03*
X218440000Y-80864500D03*
X300355000Y-190084490D03*
X300355000Y-202784490D03*
X300355000Y-226348510D03*
X383540000Y-206028532D03*
X247396000Y-183896000D03*
X276098000Y-276860000D03*
X276259500Y-274320000D03*
X276513500Y-271780000D03*
X268291969Y-271780000D03*
X220726000Y-327660000D03*
X241681000Y-314960000D03*
X268545979Y-269240000D03*
X276767500Y-269240000D03*
X242316000Y-317500000D03*
X268799989Y-266700000D03*
X277021500Y-266700000D03*
X242570000Y-320040000D03*
X269053999Y-264160000D03*
X277284500Y-264160000D03*
X242824000Y-322580000D03*
X277538510Y-261620000D03*
X229904510Y-322580000D03*
X229870000Y-317500000D03*
X228981000Y-314833000D03*
X220980000Y-312420000D03*
X248342980Y-308419500D03*
X249393500Y-317500000D03*
X248758479Y-309521262D03*
X249139500Y-312420000D03*
X247396276Y-310607490D03*
X242374281Y-308366887D03*
X245618000Y-310896000D03*
X231047521Y-320167000D03*
X231013000Y-314960000D03*
X228473000Y-313436000D03*
X256794000Y-315087000D03*
X256794000Y-314452000D03*
X243967000Y-309880000D03*
X256794000Y-311150000D03*
X248666000Y-306578000D03*
X185937703Y-149698500D03*
X180268955Y-146748511D03*
X174556617Y-146939772D03*
X174676472Y-146375346D03*
X207038617Y-148936470D03*
X215900000Y-148590000D03*
X246380000Y-148726061D03*
X269655500Y-146939000D03*
X277275500Y-146395211D03*
X265938000Y-151257000D03*
X265972500Y-150674695D03*
X206271867Y-193578259D03*
X205867000Y-192786000D03*
X212487895Y-192723275D03*
X206668828Y-193159494D03*
X212895904Y-193131284D03*
X206248000Y-194183000D03*
X208788000Y-194183000D03*
X260731000Y-176022000D03*
X213106000Y-179959000D03*
X261464766Y-175875855D03*
X214122000Y-180086000D03*
X215138000Y-180594000D03*
X264414000Y-173828490D03*
X214664510Y-181009510D03*
X266201282Y-173801420D03*
X268019835Y-171982867D03*
X328168000Y-313690000D03*
X375920000Y-306705000D03*
X373380000Y-306451000D03*
X370840000Y-306197000D03*
X368300000Y-305943000D03*
X365760000Y-305689000D03*
X363220000Y-305435000D03*
X217008490Y-177331401D03*
X215854415Y-175831489D03*
X189611000Y-176276000D03*
X255651000Y-205740000D03*
X279400000Y-205740000D03*
X255651000Y-206375000D03*
X274320000Y-206375000D03*
X217590166Y-191735490D03*
X255651000Y-205105000D03*
X255651000Y-207010000D03*
X276860000Y-207010000D03*
X184658000Y-197866000D03*
X176657000Y-197612000D03*
X335280000Y-291084000D03*
X332867000Y-287782000D03*
X231775000Y-328930000D03*
X220726000Y-325374000D03*
X220726000Y-326517000D03*
X240792000Y-336550000D03*
X220980000Y-330581000D03*
X269240000Y-150114000D03*
X266700000Y-150587500D03*
X276860000Y-150841500D03*
X274320000Y-149977268D03*
X251841000Y-146050000D03*
X241427000Y-154523248D03*
X253111000Y-146558000D03*
X246507000Y-154559000D03*
X238988900Y-154523244D03*
X252476000Y-146050000D03*
X243967000Y-154523246D03*
X238506000Y-161925000D03*
X226883116Y-161734936D03*
X215865422Y-160689578D03*
X187071000Y-150749000D03*
X215392000Y-161417000D03*
X302514000Y-181102000D03*
X302514000Y-272669000D03*
X301879000Y-181102000D03*
X301879000Y-275336000D03*
X190627000Y-180848000D03*
X186944000Y-180848000D03*
X203327000Y-177800000D03*
X212378510Y-178689000D03*
X290824696Y-173302316D03*
X290830000Y-172720000D03*
X202692000Y-165862000D03*
X217297000Y-176784000D03*
X216789000Y-176022000D03*
X198628000Y-172593000D03*
X265430000Y-262001000D03*
X304038000Y-280289000D03*
X295148000Y-223520000D03*
X295021000Y-255270000D03*
X211709000Y-255270000D03*
X294513000Y-220218000D03*
X294386000Y-255778000D03*
X211074000Y-255905000D03*
X292481000Y-267970000D03*
X292862000Y-187071000D03*
X232918000Y-254254000D03*
X288290000Y-254254000D03*
X289052000Y-191135000D03*
X293023510Y-262890000D03*
X293233989Y-200025000D03*
X289052000Y-199644000D03*
X288798000Y-254762000D03*
X231902000Y-254762000D03*
X208534000Y-86868000D03*
X250825000Y-86868000D03*
X363596367Y-223300510D03*
X371221000Y-224155000D03*
X376301000Y-224790000D03*
X368681000Y-225044000D03*
X366141000Y-225298000D03*
X349377000Y-199253989D03*
X189357000Y-325628000D03*
X204597000Y-88392000D03*
X292100000Y-197104000D03*
X291338000Y-268478000D03*
D25*
X353060000Y-284480000D02*
X350520000Y-287020000D01*
X355600000Y-284480000D02*
X353060000Y-284480000D01*
X340360000Y-284480000D02*
X337820000Y-287020000D01*
X342900000Y-284480000D02*
X340360000Y-284480000D01*
X269240000Y-104140000D02*
X269240000Y-96520000D01*
X268440001Y-97319999D02*
X269240000Y-96520000D01*
X266979499Y-98780501D02*
X268440001Y-97319999D01*
X241020501Y-98780501D02*
X266979499Y-98780501D01*
X238760000Y-96520000D02*
X241020501Y-98780501D01*
X209079999Y-97319999D02*
X208280000Y-96520000D01*
X210566000Y-98806000D02*
X209079999Y-97319999D01*
X236474000Y-98806000D02*
X210566000Y-98806000D01*
X238760000Y-96520000D02*
X236474000Y-98806000D01*
X208280000Y-96520000D02*
X205939499Y-98860501D01*
X205939499Y-98860501D02*
X180140501Y-98860501D01*
X180140501Y-98860501D02*
X178599999Y-97319999D01*
X178599999Y-97319999D02*
X177800000Y-96520000D01*
X232156000Y-339344000D02*
X232156000Y-342357490D01*
X233680000Y-337820000D02*
X232156000Y-339344000D01*
X219837000Y-339471000D02*
X219837000Y-336677000D01*
X219837000Y-336677000D02*
X218440000Y-335280000D01*
X220091000Y-334391000D02*
X218440000Y-332740000D01*
X220091000Y-338963000D02*
X220091000Y-334391000D01*
X220281500Y-339661500D02*
X220281500Y-339153500D01*
X220281500Y-339153500D02*
X220091000Y-338963000D01*
X219837000Y-340106000D02*
X220281500Y-339661500D01*
X219837000Y-340741000D02*
X220599000Y-339979000D01*
X220599000Y-339979000D02*
X220599000Y-339090000D01*
X220599000Y-339090000D02*
X220345000Y-338836000D01*
X220345000Y-332105000D02*
X218440000Y-330200000D01*
X220345000Y-338836000D02*
X220345000Y-332105000D01*
X270383000Y-336677000D02*
X274320000Y-332740000D01*
X260985000Y-337820000D02*
X262128000Y-336677000D01*
X262128000Y-336677000D02*
X270383000Y-336677000D01*
X254000000Y-337820000D02*
X260985000Y-337820000D01*
X276860000Y-332740000D02*
X272669000Y-336931000D01*
X272669000Y-336931000D02*
X262255000Y-336931000D01*
X262255000Y-336931000D02*
X257302000Y-341884000D01*
X257302000Y-341884000D02*
X243078000Y-341884000D01*
X243078000Y-341884000D02*
X240284000Y-339090000D01*
X240284000Y-335534000D02*
X240538000Y-335280000D01*
X240284000Y-339090000D02*
X240284000Y-335534000D01*
X257429000Y-342138000D02*
X242951000Y-342138000D01*
X240030000Y-332994000D02*
X240284000Y-332740000D01*
X240030000Y-339217000D02*
X240030000Y-332994000D01*
X262382000Y-337185000D02*
X257429000Y-342138000D01*
X274955000Y-337185000D02*
X262382000Y-337185000D01*
X242951000Y-342138000D02*
X240030000Y-339217000D01*
X279400000Y-332740000D02*
X274955000Y-337185000D01*
X239775989Y-339322214D02*
X239775989Y-331215989D01*
X239775989Y-331215989D02*
X239559999Y-330999999D01*
X277241000Y-337439000D02*
X262509000Y-337439000D01*
X281940000Y-332740000D02*
X277241000Y-337439000D01*
X242845786Y-342392011D02*
X239775989Y-339322214D01*
X239559999Y-330999999D02*
X238760000Y-330200000D01*
X257555989Y-342392011D02*
X242845786Y-342392011D01*
X262509000Y-337439000D02*
X257555989Y-342392011D01*
X331470000Y-316230000D02*
X334010000Y-318770000D01*
X326390000Y-316230000D02*
X331470000Y-316230000D01*
X326390000Y-336550000D02*
X328930000Y-339090000D01*
X321310000Y-336550000D02*
X326390000Y-336550000D01*
X326390000Y-335084058D02*
X326390000Y-336550000D01*
X333019499Y-328454559D02*
X326390000Y-335084058D01*
X333019499Y-319760501D02*
X333019499Y-328454559D01*
X334010000Y-318770000D02*
X333019499Y-319760501D01*
X354330000Y-339090000D02*
X351790000Y-336550000D01*
X359410000Y-339090000D02*
X354330000Y-339090000D01*
X352780501Y-333057599D02*
X348177461Y-328454559D01*
X348177461Y-328454559D02*
X333019499Y-328454559D01*
X352780501Y-335559499D02*
X352780501Y-333057599D01*
X351790000Y-336550000D02*
X352780501Y-335559499D01*
X364685942Y-336550000D02*
X372110000Y-336550000D01*
X362145942Y-339090000D02*
X364685942Y-336550000D01*
X359410000Y-339090000D02*
X362145942Y-339090000D01*
X317500000Y-287020000D02*
X315849000Y-285369000D01*
X327787000Y-269350873D02*
X327787000Y-256413000D01*
X327787000Y-256413000D02*
X330200000Y-254000000D01*
X315849000Y-285369000D02*
X315849000Y-281288873D01*
X315849000Y-281288873D02*
X327787000Y-269350873D01*
X180594000Y-101346000D02*
X177800000Y-104140000D01*
X220980000Y-101346000D02*
X180594000Y-101346000D01*
X193167000Y-96647000D02*
X193040000Y-96520000D01*
X193167000Y-98425000D02*
X193167000Y-96647000D01*
X353056200Y-303528200D02*
X351025989Y-301497989D01*
X325919999Y-300519999D02*
X325120000Y-299720000D01*
X351025989Y-301497989D02*
X326897989Y-301497989D01*
X326897989Y-301497989D02*
X325919999Y-300519999D01*
X326135989Y-299825214D02*
X326135989Y-298195989D01*
X326135989Y-298195989D02*
X325919999Y-297979999D01*
X355596200Y-303528200D02*
X353311978Y-301243978D01*
X327554753Y-301243978D02*
X326135989Y-299825214D01*
X353311978Y-301243978D02*
X327554753Y-301243978D01*
X325919999Y-297979999D02*
X325120000Y-297180000D01*
X325120000Y-294640000D02*
X326390000Y-295910000D01*
X327659967Y-300989967D02*
X355597967Y-300989967D01*
X357336201Y-302728201D02*
X358136200Y-303528200D01*
X355597967Y-300989967D02*
X357336201Y-302728201D01*
X326390000Y-295910000D02*
X326390000Y-299720000D01*
X326390000Y-299720000D02*
X327659967Y-300989967D01*
X319756999Y-278159001D02*
X319756999Y-277778001D01*
X319532000Y-278384000D02*
X319756999Y-278159001D01*
X319756999Y-277778001D02*
X328041000Y-269494000D01*
X328041000Y-258699000D02*
X330200000Y-256540000D01*
X328041000Y-269494000D02*
X328041000Y-258699000D01*
X313436000Y-87884000D02*
X317500000Y-83820000D01*
X312140501Y-89179499D02*
X313436000Y-87884000D01*
X281660501Y-89179499D02*
X312140501Y-89179499D01*
X279400000Y-91440000D02*
X281660501Y-89179499D01*
X278238908Y-172084967D02*
X268505355Y-172084967D01*
X265557066Y-169037066D02*
X285245718Y-169037066D01*
X261620000Y-165100000D02*
X265557066Y-169037066D01*
X265176000Y-174244000D02*
X262419999Y-177000001D01*
X285876934Y-171834718D02*
X285626717Y-172084934D01*
X262419999Y-177000001D02*
X261620000Y-177800000D01*
X285876934Y-169668282D02*
X285876934Y-171834718D01*
X268505355Y-172084967D02*
X266346322Y-174244000D01*
X278238941Y-172084934D02*
X278238908Y-172084967D01*
X266346322Y-174244000D02*
X265176000Y-174244000D01*
X285245718Y-169037066D02*
X285876934Y-169668282D01*
X285626717Y-172084934D02*
X278238941Y-172084934D01*
X266573000Y-160147000D02*
X287909000Y-160147000D01*
X261620000Y-165100000D02*
X266573000Y-160147000D01*
X208280000Y-295148000D02*
X208280000Y-297180000D01*
X261620000Y-299720000D02*
X246380000Y-299720000D01*
X246380000Y-299720000D02*
X244639999Y-297979999D01*
X244639999Y-297979999D02*
X243840000Y-297180000D01*
X317500000Y-175260000D02*
X317500000Y-176403000D01*
X317500000Y-176403000D02*
X316611000Y-177292000D01*
X295910000Y-160147000D02*
X295910000Y-193954426D01*
X295910000Y-160147000D02*
X295910000Y-159512000D01*
X295910000Y-325120000D02*
X295910000Y-321310000D01*
X295910000Y-321310000D02*
X295910000Y-324739000D01*
X295910000Y-281940000D02*
X295910000Y-321310000D01*
X295910000Y-186334426D02*
X295910000Y-204597000D01*
X295910000Y-204597000D02*
X295910000Y-281940000D01*
X335280000Y-200660000D02*
X336079999Y-201459999D01*
X352552000Y-203708000D02*
X360426000Y-203708000D01*
X360426000Y-203708000D02*
X360680000Y-203962000D01*
X352171000Y-204089000D02*
X352552000Y-203708000D01*
X338709000Y-204089000D02*
X352171000Y-204089000D01*
X336079999Y-201459999D02*
X338709000Y-204089000D01*
X350374908Y-218947967D02*
X346056930Y-223265945D01*
X336479999Y-221779999D02*
X335680000Y-220980000D01*
X337965945Y-223265945D02*
X336479999Y-221779999D01*
X381400000Y-220980000D02*
X379367967Y-218947967D01*
X346056930Y-223265945D02*
X337965945Y-223265945D01*
X379367967Y-218947967D02*
X350374908Y-218947967D01*
X338328000Y-191008000D02*
X358891946Y-191008000D01*
X359209488Y-191325542D02*
X359434487Y-191550541D01*
X335280000Y-187960000D02*
X338328000Y-191008000D01*
X358891946Y-191008000D02*
X359209488Y-191325542D01*
X297180000Y-104140000D02*
X305816000Y-112776000D01*
X305790501Y-115252401D02*
X303186902Y-117856000D01*
X305790501Y-112801499D02*
X305790501Y-115252401D01*
X305816000Y-112776000D02*
X305790501Y-112801499D01*
X303186902Y-117856000D02*
X301244000Y-117856000D01*
X301244000Y-117856000D02*
X299720000Y-119380000D01*
X284480000Y-119380000D02*
X281940000Y-121920000D01*
X299720000Y-119380000D02*
X284480000Y-119380000D01*
X283210000Y-123190000D02*
X281940000Y-121920000D01*
X295783010Y-124333010D02*
X284353010Y-124333010D01*
X295910000Y-124460000D02*
X295783010Y-124333010D01*
X284353010Y-124333010D02*
X283210000Y-123190000D01*
X295910000Y-159512000D02*
X295910000Y-124460000D01*
X357915001Y-191291001D02*
X358140000Y-191516000D01*
X336423011Y-191643011D02*
X352276214Y-191643011D01*
X357886000Y-191262000D02*
X357915001Y-191291001D01*
X332740000Y-187960000D02*
X336423011Y-191643011D01*
X352276214Y-191643011D02*
X352657225Y-191262000D01*
X352657225Y-191262000D02*
X357886000Y-191262000D01*
X278344155Y-172338945D02*
X285731931Y-172338945D01*
X286130945Y-171939932D02*
X286130945Y-169563068D01*
X278344133Y-172338967D02*
X278344155Y-172338945D01*
X267843055Y-168783055D02*
X264959999Y-165899999D01*
X264959999Y-165899999D02*
X264160000Y-165100000D01*
X269621033Y-172338967D02*
X278344133Y-172338967D01*
X264160000Y-177800000D02*
X269621033Y-172338967D01*
X285731931Y-172338945D02*
X286130945Y-171939932D01*
X286130945Y-169563068D02*
X285350932Y-168783055D01*
X285350932Y-168783055D02*
X267843055Y-168783055D01*
X205740000Y-297180000D02*
X205740000Y-295494490D01*
X263017066Y-298577066D02*
X263360001Y-298920001D01*
X256921066Y-294640066D02*
X260858066Y-298577066D01*
X260858066Y-298577066D02*
X263017066Y-298577066D01*
X263360001Y-298920001D02*
X264160000Y-299720000D01*
X243839934Y-294640066D02*
X256921066Y-294640066D01*
X241300000Y-297180000D02*
X243839934Y-294640066D01*
X268478000Y-160782000D02*
X264160000Y-165100000D01*
X287909000Y-160782000D02*
X268478000Y-160782000D01*
X317373000Y-177927000D02*
X316611000Y-177927000D01*
X320040000Y-175260000D02*
X317373000Y-177927000D01*
X296545000Y-193678650D02*
X296546825Y-193676825D01*
X296546825Y-193676825D02*
X296546825Y-159513825D01*
X296545000Y-323215000D02*
X298450000Y-325120000D01*
X296545000Y-279400000D02*
X296545000Y-323215000D01*
X182880000Y-82413999D02*
X182880000Y-83820000D01*
X296545000Y-279400000D02*
X296545000Y-224824510D01*
X296545000Y-186058650D02*
X296545000Y-224824510D01*
X352276214Y-204343011D02*
X352657225Y-203962000D01*
X352657225Y-203962000D02*
X357886000Y-203962000D01*
X357915001Y-203991001D02*
X358140000Y-204216000D01*
X357886000Y-203962000D02*
X357915001Y-203991001D01*
X332740000Y-200660000D02*
X336423011Y-204343011D01*
X336423011Y-204343011D02*
X352276214Y-204343011D01*
X339019999Y-221779999D02*
X338220000Y-220980000D01*
X383940000Y-220980000D02*
X381653956Y-218693956D01*
X340251934Y-223011934D02*
X339019999Y-221779999D01*
X345951716Y-223011934D02*
X340251934Y-223011934D01*
X350269694Y-218693956D02*
X345951716Y-223011934D01*
X381653956Y-218693956D02*
X350269694Y-218693956D01*
X301371000Y-118110000D02*
X299847000Y-119634000D01*
X303292127Y-118110000D02*
X301371000Y-118110000D01*
X306070000Y-114972902D02*
X306044512Y-114998390D01*
X306044512Y-114998390D02*
X306044512Y-115357615D01*
X306044512Y-115357615D02*
X303292127Y-118110000D01*
X306070000Y-110490000D02*
X306070000Y-114972902D01*
X286766000Y-119634000D02*
X285279999Y-121120001D01*
X299847000Y-119634000D02*
X286766000Y-119634000D01*
X285279999Y-121120001D02*
X284480000Y-121920000D01*
X299720000Y-104140000D02*
X306070000Y-110490000D01*
X286385000Y-123825000D02*
X284480000Y-121920000D01*
X296164000Y-124079000D02*
X286639000Y-124079000D01*
X286639000Y-124079000D02*
X286385000Y-123825000D01*
X296546825Y-124461825D02*
X296164000Y-124079000D01*
X296546825Y-159513825D02*
X296546825Y-124461825D01*
X334137022Y-191897022D02*
X352381428Y-191897022D01*
X355219011Y-191516011D02*
X355375001Y-191672001D01*
X352762439Y-191516011D02*
X355219011Y-191516011D01*
X352381428Y-191897022D02*
X352762439Y-191516011D01*
X330200000Y-187960000D02*
X334137022Y-191897022D01*
X355375001Y-191672001D02*
X355600000Y-191897000D01*
X278449369Y-172592956D02*
X278449347Y-172592978D01*
X286384956Y-172045146D02*
X285837146Y-172592956D01*
X267499999Y-177000001D02*
X266700000Y-177800000D01*
X285837146Y-172592956D02*
X278449369Y-172592956D01*
X271907022Y-172592978D02*
X267499999Y-177000001D01*
X266700000Y-165100000D02*
X270129044Y-168529044D01*
X278449347Y-172592978D02*
X271907022Y-172592978D01*
X286384956Y-169457854D02*
X286384956Y-172045146D01*
X270129044Y-168529044D02*
X285456146Y-168529044D01*
X285456146Y-168529044D02*
X286384956Y-169457854D01*
X287909000Y-161417000D02*
X270383000Y-161417000D01*
X270383000Y-161417000D02*
X266700000Y-165100000D01*
X198120000Y-295773987D02*
X198120000Y-297180000D01*
X257048055Y-294386055D02*
X260985055Y-298323055D01*
X260985055Y-298323055D02*
X265303055Y-298323055D01*
X233680000Y-297180000D02*
X236473945Y-294386055D01*
X265303055Y-298323055D02*
X265900001Y-298920001D01*
X265900001Y-298920001D02*
X266700000Y-299720000D01*
X236473945Y-294386055D02*
X257048055Y-294386055D01*
X297180000Y-193402876D02*
X297180000Y-161417000D01*
X327660000Y-175260000D02*
X324358000Y-178562000D01*
X324358000Y-178562000D02*
X316611000Y-178562000D01*
X297180000Y-161417000D02*
X297180000Y-159512000D01*
X299858630Y-325120000D02*
X300990000Y-325120000D01*
X298475499Y-324129499D02*
X298868129Y-324129499D01*
X298868129Y-324129499D02*
X299858630Y-325120000D01*
X297180000Y-322834000D02*
X298475499Y-324129499D01*
X297180000Y-276860000D02*
X297180000Y-322834000D01*
X185420000Y-82159989D02*
X185420000Y-83820000D01*
X297180000Y-185782876D02*
X297180000Y-204054490D01*
X297180000Y-204054490D02*
X297180000Y-225078510D01*
X297180000Y-276860000D02*
X297180000Y-225078510D01*
X330200000Y-200660000D02*
X334137022Y-204597022D01*
X352762439Y-204216011D02*
X355219011Y-204216011D01*
X355219011Y-204216011D02*
X355375001Y-204372001D01*
X334137022Y-204597022D02*
X352381428Y-204597022D01*
X355375001Y-204372001D02*
X355600000Y-204597000D01*
X352381428Y-204597022D02*
X352762439Y-204216011D01*
X350164480Y-218439945D02*
X345846502Y-222757923D01*
X342537923Y-222757923D02*
X341559999Y-221779999D01*
X345846502Y-222757923D02*
X342537923Y-222757923D01*
X341559999Y-221779999D02*
X340760000Y-220980000D01*
X386480000Y-220980000D02*
X383939945Y-218439945D01*
X383939945Y-218439945D02*
X350164480Y-218439945D01*
X306298523Y-115462829D02*
X303397341Y-118364011D01*
X301476214Y-118364011D02*
X299952214Y-119888011D01*
X287819999Y-121120001D02*
X287020000Y-121920000D01*
X299952214Y-119888011D02*
X289051989Y-119888011D01*
X306324011Y-115078116D02*
X306298523Y-115103604D01*
X306324011Y-108204011D02*
X306324011Y-115078116D01*
X303397341Y-118364011D02*
X301476214Y-118364011D01*
X289051989Y-119888011D02*
X287819999Y-121120001D01*
X302260000Y-104140000D02*
X306324011Y-108204011D01*
X306298523Y-115103604D02*
X306298523Y-115462829D01*
X288925000Y-123825000D02*
X288671000Y-123571000D01*
X296545000Y-123825000D02*
X288925000Y-123825000D01*
X288671000Y-123571000D02*
X287020000Y-121920000D01*
X297180000Y-124460000D02*
X296545000Y-123825000D01*
X297180000Y-159512000D02*
X297180000Y-124460000D01*
X327660000Y-187960000D02*
X331851022Y-192151022D01*
X352701992Y-191936810D02*
X353020190Y-191936810D01*
X352487780Y-192151022D02*
X352701992Y-191936810D01*
X331851022Y-192151022D02*
X352487780Y-192151022D01*
X278554583Y-172846967D02*
X285942360Y-172846967D01*
X272415033Y-168275033D02*
X270039999Y-165899999D01*
X286638967Y-169352640D02*
X285561360Y-168275033D01*
X270039999Y-165899999D02*
X269240000Y-165100000D01*
X285942360Y-172846967D02*
X286638967Y-172150360D01*
X278554561Y-172846989D02*
X278554583Y-172846967D01*
X269240000Y-177800000D02*
X274193011Y-172846989D01*
X285561360Y-168275033D02*
X272415033Y-168275033D01*
X286638967Y-172150360D02*
X286638967Y-169352640D01*
X274193011Y-172846989D02*
X278554561Y-172846989D01*
X272288000Y-162052000D02*
X269240000Y-165100000D01*
X287909000Y-162052000D02*
X272288000Y-162052000D01*
X257175044Y-294132044D02*
X261112044Y-298069044D01*
X261112044Y-298069044D02*
X267589044Y-298069044D01*
X231140000Y-297180000D02*
X234187956Y-294132044D01*
X234187956Y-294132044D02*
X257175044Y-294132044D01*
X267589044Y-298069044D02*
X268440001Y-298920001D01*
X268440001Y-298920001D02*
X269240000Y-299720000D01*
X297815000Y-193127100D02*
X297815000Y-162052000D01*
X326297521Y-179162479D02*
X316611000Y-179162479D01*
X330200000Y-175260000D02*
X326297521Y-179162479D01*
X297815000Y-159512000D02*
X297815000Y-162052000D01*
X302730001Y-324320001D02*
X303530000Y-325120000D01*
X302539499Y-324129499D02*
X302730001Y-324320001D01*
X299237499Y-324129499D02*
X302539499Y-324129499D01*
X297815000Y-322707000D02*
X299237499Y-324129499D01*
X297815000Y-274320000D02*
X297815000Y-322707000D01*
X187960000Y-81905979D02*
X187960000Y-83820000D01*
X297815000Y-185507100D02*
X297815000Y-225332510D01*
X297815000Y-274320000D02*
X297815000Y-225332510D01*
X352487780Y-204851022D02*
X352701992Y-204636810D01*
X327660000Y-200660000D02*
X331851022Y-204851022D01*
X331851022Y-204851022D02*
X352487780Y-204851022D01*
X352701992Y-204636810D02*
X353020190Y-204636810D01*
X344823912Y-222503912D02*
X344099999Y-221779999D01*
X344099999Y-221779999D02*
X343300000Y-220980000D01*
X389020000Y-220980000D02*
X386225934Y-218185934D01*
X386225934Y-218185934D02*
X350059266Y-218185934D01*
X350059266Y-218185934D02*
X345741288Y-222503912D01*
X345741288Y-222503912D02*
X344823912Y-222503912D01*
X300057428Y-120142022D02*
X291337978Y-120142022D01*
X301581428Y-118618022D02*
X300057428Y-120142022D01*
X303502555Y-118618022D02*
X301581428Y-118618022D01*
X306552534Y-115568043D02*
X303502555Y-118618022D01*
X306552534Y-115208818D02*
X306552534Y-115568043D01*
X306578022Y-115183330D02*
X306552534Y-115208818D01*
X306578022Y-105918022D02*
X306578022Y-115183330D01*
X304800000Y-104140000D02*
X306578022Y-105918022D01*
X291337978Y-120142022D02*
X290359999Y-121120001D01*
X290359999Y-121120001D02*
X289560000Y-121920000D01*
X291211000Y-123571000D02*
X290830000Y-123190000D01*
X296926000Y-123571000D02*
X291211000Y-123571000D01*
X290830000Y-123190000D02*
X289560000Y-121920000D01*
X297815000Y-124460000D02*
X296926000Y-123571000D01*
X297815000Y-159512000D02*
X297815000Y-124460000D01*
X352593027Y-192405000D02*
X390841802Y-192405000D01*
X325120000Y-187960000D02*
X329565033Y-192405033D01*
X329565033Y-192405033D02*
X352592994Y-192405033D01*
X390841802Y-192405000D02*
X391160000Y-192405000D01*
X352592994Y-192405033D02*
X352593027Y-192405000D01*
X278659797Y-173100978D02*
X278659775Y-173101000D01*
X278659775Y-173101000D02*
X276479000Y-173101000D01*
X276479000Y-173101000D02*
X272579999Y-177000001D01*
X272579999Y-177000001D02*
X271780000Y-177800000D01*
X285666574Y-168021022D02*
X286892978Y-169247426D01*
X286047574Y-173100978D02*
X278659797Y-173100978D01*
X286892978Y-172255574D02*
X286047574Y-173100978D01*
X286892978Y-169247426D02*
X286892978Y-172255574D01*
X271780000Y-165100000D02*
X274701022Y-168021022D01*
X274701022Y-168021022D02*
X285666574Y-168021022D01*
X287909000Y-162687000D02*
X274193000Y-162687000D01*
X274193000Y-162687000D02*
X271780000Y-165100000D01*
X261239044Y-297815044D02*
X269875044Y-297815044D01*
X270980001Y-298920001D02*
X271780000Y-299720000D01*
X235458033Y-293878033D02*
X257302033Y-293878033D01*
X269875044Y-297815044D02*
X270980001Y-298920001D01*
X231140000Y-289560000D02*
X235458033Y-293878033D01*
X257302033Y-293878033D02*
X261239044Y-297815044D01*
X298450000Y-159512000D02*
X298450000Y-192851326D01*
X305270001Y-324320001D02*
X306070000Y-325120000D01*
X304825488Y-323875488D02*
X305270001Y-324320001D01*
X299872488Y-323875488D02*
X304825488Y-323875488D01*
X298450000Y-322453000D02*
X299872488Y-323875488D01*
X298450000Y-271780000D02*
X298450000Y-322453000D01*
X210820000Y-81651969D02*
X210820000Y-83820000D01*
X298450000Y-185231326D02*
X298450000Y-190846490D01*
X298450000Y-271780000D02*
X298450000Y-203546490D01*
X298450000Y-190846490D02*
X298450000Y-203546490D01*
X325120000Y-200660000D02*
X329565033Y-205105033D01*
X352592994Y-205105033D02*
X352593027Y-205105000D01*
X390841802Y-205105000D02*
X391160000Y-205105000D01*
X329565033Y-205105033D02*
X352592994Y-205105033D01*
X352593027Y-205105000D02*
X390841802Y-205105000D01*
X348888077Y-217931923D02*
X346639999Y-220180001D01*
X346639999Y-220180001D02*
X345840000Y-220980000D01*
X388511923Y-217931923D02*
X348888077Y-217931923D01*
X391560000Y-220980000D02*
X388511923Y-217931923D01*
X307340000Y-114780576D02*
X306806545Y-115314031D01*
X307340000Y-104140000D02*
X307340000Y-114780576D01*
X301686631Y-118872044D02*
X300162642Y-120396033D01*
X293623967Y-120396033D02*
X292899999Y-121120001D01*
X303607758Y-118872044D02*
X301686631Y-118872044D01*
X306806545Y-115673257D02*
X303607758Y-118872044D01*
X292899999Y-121120001D02*
X292100000Y-121920000D01*
X306806545Y-115314031D02*
X306806545Y-115673257D01*
X300162642Y-120396033D02*
X293623967Y-120396033D01*
X292989000Y-122809000D02*
X292100000Y-121920000D01*
X297307000Y-123317000D02*
X293497000Y-123317000D01*
X293497000Y-123317000D02*
X292989000Y-122809000D01*
X298450000Y-124460000D02*
X297307000Y-123317000D01*
X298450000Y-159512000D02*
X298450000Y-124460000D01*
X352698208Y-192659044D02*
X352698241Y-192659011D01*
X327279044Y-192659044D02*
X352698208Y-192659044D01*
X352698241Y-192659011D02*
X388140303Y-192659011D01*
X388301802Y-192820510D02*
X388620000Y-192820510D01*
X388140303Y-192659011D02*
X388301802Y-192820510D01*
X322580000Y-187960000D02*
X327279044Y-192659044D01*
X286152787Y-173354989D02*
X278765011Y-173354989D01*
X274320000Y-165100000D02*
X276987000Y-167767000D01*
X287146989Y-172360787D02*
X286152787Y-173354989D01*
X276987000Y-167767000D02*
X285771776Y-167767000D01*
X285771776Y-167767000D02*
X287146989Y-169142213D01*
X287146989Y-169142213D02*
X287146989Y-172360787D01*
X278765011Y-173354989D02*
X274320000Y-177800000D01*
X276098000Y-163322000D02*
X287909000Y-163322000D01*
X274320000Y-165100000D02*
X276098000Y-163322000D01*
X198120000Y-291084000D02*
X198120000Y-289560000D01*
X237744022Y-293624022D02*
X257429022Y-293624022D01*
X261366044Y-297561044D02*
X272161044Y-297561044D01*
X272161044Y-297561044D02*
X273520001Y-298920001D01*
X233680000Y-289560000D02*
X237744022Y-293624022D01*
X273520001Y-298920001D02*
X274320000Y-299720000D01*
X257429022Y-293624022D02*
X261366044Y-297561044D01*
X299085000Y-301752000D02*
X299085000Y-269240000D01*
X299085000Y-192575552D02*
X299085000Y-180213000D01*
X299085000Y-180213000D02*
X299085000Y-163322000D01*
X299085000Y-163322000D02*
X299085000Y-159512000D01*
X307848000Y-324358000D02*
X308610000Y-325120000D01*
X307111477Y-323621477D02*
X307848000Y-324358000D01*
X300507477Y-323621477D02*
X307111477Y-323621477D01*
X299085000Y-322199000D02*
X300507477Y-323621477D01*
X299085000Y-301752000D02*
X299085000Y-322199000D01*
X213360000Y-83820000D02*
X213360000Y-81372500D01*
X299085000Y-184785000D02*
X299085000Y-203292490D01*
X299085000Y-269240000D02*
X299085000Y-203292490D01*
X388301802Y-205520510D02*
X388620000Y-205520510D01*
X352698241Y-205359011D02*
X388140303Y-205359011D01*
X388140303Y-205359011D02*
X388301802Y-205520510D01*
X322580000Y-200660000D02*
X327279044Y-205359044D01*
X352698208Y-205359044D02*
X352698241Y-205359011D01*
X327279044Y-205359044D02*
X352698208Y-205359044D01*
X344052500Y-229352500D02*
X343300000Y-228600000D01*
X351282119Y-233045119D02*
X347980000Y-229743000D01*
X344443000Y-229743000D02*
X344052500Y-229352500D01*
X389020000Y-228600000D02*
X384574881Y-233045119D01*
X347980000Y-229743000D02*
X344443000Y-229743000D01*
X384574881Y-233045119D02*
X351282119Y-233045119D01*
X307060556Y-115419236D02*
X307060556Y-115778471D01*
X309880000Y-104140000D02*
X309880000Y-112599792D01*
X295439999Y-121120001D02*
X294640000Y-121920000D01*
X301791845Y-119126055D02*
X300267856Y-120650044D01*
X295909956Y-120650044D02*
X295439999Y-121120001D01*
X309880000Y-112599792D02*
X307060556Y-115419236D01*
X300267856Y-120650044D02*
X295909956Y-120650044D01*
X303712972Y-119126055D02*
X301791845Y-119126055D01*
X307060556Y-115778471D02*
X303712972Y-119126055D01*
X295783000Y-123063000D02*
X295592500Y-122872500D01*
X297688000Y-123063000D02*
X295783000Y-123063000D01*
X299085000Y-124460000D02*
X297688000Y-123063000D01*
X295592500Y-122872500D02*
X294640000Y-121920000D01*
X299085000Y-159512000D02*
X299085000Y-124460000D01*
X352803455Y-192913022D02*
X385600303Y-192913022D01*
X324993055Y-192913055D02*
X352803422Y-192913055D01*
X352803422Y-192913055D02*
X352803455Y-192913022D01*
X385761802Y-193074521D02*
X386080000Y-193074521D01*
X320040000Y-187960000D02*
X324993055Y-192913055D01*
X385600303Y-192913022D02*
X385761802Y-193074521D01*
X281051000Y-173609000D02*
X276860000Y-177800000D01*
X286258000Y-173609000D02*
X281051000Y-173609000D01*
X287401000Y-172466000D02*
X286258000Y-173609000D01*
X287401000Y-169037000D02*
X287401000Y-172466000D01*
X285877000Y-167513000D02*
X287401000Y-169037000D01*
X279273000Y-167513000D02*
X285877000Y-167513000D01*
X276860000Y-165100000D02*
X279273000Y-167513000D01*
X285118713Y-163855488D02*
X285220225Y-163957000D01*
X285220225Y-163957000D02*
X287909000Y-163957000D01*
X278104512Y-163855488D02*
X285118713Y-163855488D01*
X276860000Y-165100000D02*
X278104512Y-163855488D01*
X205740000Y-291338000D02*
X205740000Y-289560000D01*
X241300000Y-289560000D02*
X245110011Y-293370011D01*
X245110011Y-293370011D02*
X257556011Y-293370011D01*
X274447033Y-297307033D02*
X276060001Y-298920001D01*
X261493033Y-297307033D02*
X274447033Y-297307033D01*
X276060001Y-298920001D02*
X276860000Y-299720000D01*
X257556011Y-293370011D02*
X261493033Y-297307033D01*
X299720000Y-192299776D02*
X299720000Y-163957000D01*
X299720000Y-159385000D02*
X299720000Y-159512000D01*
X299720000Y-159512000D02*
X299720000Y-163957000D01*
X310007000Y-323977000D02*
X311150000Y-325120000D01*
X309397466Y-323367466D02*
X310007000Y-323977000D01*
X301142466Y-323367466D02*
X309397466Y-323367466D01*
X299720000Y-321945000D02*
X301142466Y-323367466D01*
X299720000Y-266700000D02*
X299720000Y-321945000D01*
X215900000Y-81118500D02*
X215900000Y-83820000D01*
X299720000Y-184679776D02*
X299720000Y-266700000D01*
X352803455Y-205613022D02*
X385600303Y-205613022D01*
X324993055Y-205613055D02*
X352803422Y-205613055D01*
X385600303Y-205613022D02*
X385761802Y-205774521D01*
X352803422Y-205613055D02*
X352803455Y-205613022D01*
X320040000Y-200660000D02*
X324993055Y-205613055D01*
X385761802Y-205774521D02*
X386080000Y-205774521D01*
X341559999Y-227800001D02*
X340760000Y-228600000D01*
X351452660Y-232791108D02*
X346271051Y-227609499D01*
X382288892Y-232791108D02*
X351452660Y-232791108D01*
X341750501Y-227609499D02*
X341559999Y-227800001D01*
X346271051Y-227609499D02*
X341750501Y-227609499D01*
X386480000Y-228600000D02*
X382288892Y-232791108D01*
X299720000Y-124460000D02*
X297180000Y-121920000D01*
X299720000Y-159512000D02*
X299720000Y-124460000D01*
X307314567Y-115883685D02*
X303818186Y-119380066D01*
X301897059Y-119380066D02*
X300373070Y-120904055D01*
X312420000Y-110419016D02*
X307314567Y-115524449D01*
X303818186Y-119380066D02*
X301897059Y-119380066D01*
X297979999Y-121120001D02*
X297180000Y-121920000D01*
X312420000Y-104140000D02*
X312420000Y-110419016D01*
X307314567Y-115524449D02*
X307314567Y-115883685D01*
X300373070Y-120904055D02*
X298195945Y-120904055D01*
X298195945Y-120904055D02*
X297979999Y-121120001D01*
X317500000Y-187960000D02*
X322707055Y-193167055D01*
X383060325Y-193167055D02*
X383221802Y-193328532D01*
X383221802Y-193328532D02*
X383540000Y-193328532D01*
X322707055Y-193167055D02*
X383060325Y-193167055D01*
X285982224Y-167259000D02*
X281559000Y-167259000D01*
X281559000Y-167259000D02*
X279400000Y-165100000D01*
X287655009Y-168931785D02*
X285982224Y-167259000D01*
X287655000Y-172593000D02*
X287655000Y-172571224D01*
X287655010Y-172571214D02*
X287655009Y-168931785D01*
X287655000Y-172571224D02*
X287655010Y-172571214D01*
X286385000Y-173863000D02*
X287655000Y-172593000D01*
X283337000Y-173863000D02*
X286385000Y-173863000D01*
X279400000Y-177800000D02*
X283337000Y-173863000D01*
X280390501Y-164109499D02*
X285013499Y-164109499D01*
X279400000Y-165100000D02*
X280390501Y-164109499D01*
X285496000Y-164592000D02*
X287909000Y-164592000D01*
X285013499Y-164109499D02*
X285496000Y-164592000D01*
X208280000Y-289560000D02*
X208280000Y-291498163D01*
X208280000Y-291498163D02*
X208278664Y-291499499D01*
X278600001Y-298920001D02*
X279400000Y-299720000D01*
X243840000Y-289560000D02*
X247396000Y-293116000D01*
X276733033Y-297053033D02*
X278600001Y-298920001D01*
X257683000Y-293116000D02*
X261620033Y-297053033D01*
X247396000Y-293116000D02*
X257683000Y-293116000D01*
X261620033Y-297053033D02*
X276733033Y-297053033D01*
X300355000Y-164465000D02*
X300355000Y-178088510D01*
X312039000Y-323469000D02*
X313690000Y-325120000D01*
X311658000Y-323088000D02*
X312039000Y-323469000D01*
X301752000Y-323088000D02*
X311658000Y-323088000D01*
X300355000Y-321691000D02*
X301752000Y-323088000D01*
X300355000Y-264160000D02*
X300355000Y-321691000D01*
X218440000Y-83820000D02*
X218440000Y-80864500D01*
X300355000Y-159512000D02*
X300355000Y-164465000D01*
X300355000Y-170468510D02*
X300355000Y-190084490D01*
X300355000Y-190084490D02*
X300355000Y-202784490D01*
X300355000Y-202784490D02*
X300355000Y-226348510D01*
X300355000Y-264160000D02*
X300355000Y-226348510D01*
X322707055Y-205867055D02*
X383060325Y-205867055D01*
X317500000Y-200660000D02*
X322707055Y-205867055D01*
X383060325Y-205867055D02*
X383221802Y-206028532D01*
X383221802Y-206028532D02*
X383540000Y-206028532D01*
X339019999Y-227800001D02*
X338220000Y-228600000D01*
X351557873Y-232537097D02*
X346376264Y-227355488D01*
X346376264Y-227355488D02*
X339464512Y-227355488D01*
X339464512Y-227355488D02*
X339019999Y-227800001D01*
X383940000Y-228600000D02*
X380002903Y-232537097D01*
X380002903Y-232537097D02*
X351557873Y-232537097D01*
X300355000Y-122555000D02*
X299720000Y-121920000D01*
X300355000Y-159512000D02*
X300355000Y-122555000D01*
X314960000Y-108238240D02*
X314960000Y-105271370D01*
X308102033Y-115096207D02*
X314960000Y-108238240D01*
X314960000Y-105271370D02*
X314960000Y-104140000D01*
X303923400Y-119634077D02*
X308102033Y-115455444D01*
X308102033Y-115455444D02*
X308102033Y-115096207D01*
X299720000Y-121920000D02*
X302005923Y-119634077D01*
X302005923Y-119634077D02*
X303923400Y-119634077D01*
X185414000Y-126994000D02*
X185414000Y-127006000D01*
X180340000Y-121920000D02*
X185414000Y-126994000D01*
X187154001Y-126206001D02*
X187954000Y-127006000D01*
X185509557Y-126015499D02*
X186963499Y-126015499D01*
X181889499Y-122395441D02*
X185509557Y-126015499D01*
X181889499Y-116980869D02*
X181889499Y-122395441D01*
X180340000Y-115431370D02*
X181889499Y-116980869D01*
X186963499Y-126015499D02*
X187154001Y-126206001D01*
X180340000Y-114300000D02*
X180340000Y-115431370D01*
X182118000Y-112522000D02*
X180340000Y-114300000D01*
X202438000Y-112522000D02*
X182118000Y-112522000D01*
X210820000Y-104140000D02*
X202438000Y-112522000D01*
X189694001Y-126206001D02*
X190494000Y-127006000D01*
X189503499Y-126015499D02*
X189694001Y-126206001D01*
X183870501Y-121836443D02*
X188049557Y-126015499D01*
X183870501Y-115290501D02*
X183870501Y-121836443D01*
X188049557Y-126015499D02*
X189503499Y-126015499D01*
X182880000Y-114300000D02*
X183870501Y-115290501D01*
X213360000Y-104140000D02*
X204724000Y-112776000D01*
X184404000Y-112776000D02*
X182880000Y-114300000D01*
X204724000Y-112776000D02*
X184404000Y-112776000D01*
X192234001Y-126206001D02*
X193034000Y-127006000D01*
X191897000Y-125869000D02*
X192234001Y-126206001D01*
X191897000Y-115697000D02*
X191897000Y-125869000D01*
X190500000Y-114300000D02*
X191897000Y-115697000D01*
X207010000Y-113030000D02*
X191770000Y-113030000D01*
X191770000Y-113030000D02*
X190500000Y-114300000D01*
X215900000Y-104140000D02*
X207010000Y-113030000D01*
X194774001Y-126206001D02*
X195574000Y-127006000D01*
X194589499Y-126021499D02*
X194774001Y-126206001D01*
X194589499Y-115849499D02*
X194589499Y-126021499D01*
X193040000Y-114300000D02*
X194589499Y-115849499D01*
X193839999Y-113500001D02*
X193040000Y-114300000D01*
X194030501Y-113309499D02*
X193839999Y-113500001D01*
X208139131Y-113309499D02*
X194030501Y-113309499D01*
X217308630Y-104140000D02*
X208139131Y-113309499D01*
X218440000Y-104140000D02*
X217308630Y-104140000D01*
X222523499Y-126015499D02*
X222714001Y-126206001D01*
X215900000Y-114300000D02*
X214909499Y-115290501D01*
X214909499Y-115290501D02*
X214909499Y-122395441D01*
X222714001Y-126206001D02*
X223514000Y-127006000D01*
X214909499Y-122395441D02*
X218529557Y-126015499D01*
X218529557Y-126015499D02*
X222523499Y-126015499D01*
X218440000Y-114300000D02*
X217449499Y-115290501D01*
X225254001Y-126206001D02*
X226054000Y-127006000D01*
X225063499Y-126015499D02*
X225254001Y-126206001D01*
X222628713Y-125761488D02*
X222882723Y-126015499D01*
X217449499Y-115290501D02*
X217449499Y-122395441D01*
X217449499Y-122395441D02*
X220815546Y-125761488D01*
X222882723Y-126015499D02*
X225063499Y-126015499D01*
X220815546Y-125761488D02*
X222628713Y-125761488D01*
X225069499Y-123481499D02*
X227794001Y-126206001D01*
X226060000Y-114300000D02*
X225069499Y-115290501D01*
X225069499Y-115290501D02*
X225069499Y-123481499D01*
X227794001Y-126206001D02*
X228594000Y-127006000D01*
X230334001Y-126206001D02*
X231134000Y-127006000D01*
X228600000Y-114300000D02*
X227609499Y-115290501D01*
X227609499Y-115290501D02*
X227609499Y-123481499D01*
X227609499Y-123481499D02*
X230334001Y-126206001D01*
X276098000Y-276860000D02*
X274320000Y-276860000D01*
X276259500Y-274320000D02*
X274320000Y-274320000D01*
X276513500Y-271780000D02*
X274320000Y-271780000D01*
X270510000Y-271780000D02*
X268291969Y-271780000D01*
X220726000Y-327660000D02*
X218440000Y-327660000D01*
X241681000Y-314960000D02*
X238760000Y-314960000D01*
X268545979Y-269240000D02*
X270510000Y-269240000D01*
X276767500Y-269240000D02*
X274320000Y-269240000D01*
X242316000Y-317500000D02*
X238760000Y-317500000D01*
X268799989Y-266700000D02*
X270510000Y-266700000D01*
X277021500Y-266700000D02*
X274320000Y-266700000D01*
X242570000Y-320040000D02*
X238760000Y-320040000D01*
X269053999Y-264160000D02*
X270510000Y-264160000D01*
X277284500Y-264160000D02*
X274320000Y-264160000D01*
X242824000Y-322580000D02*
X238760000Y-322580000D01*
X277538510Y-261620000D02*
X274320000Y-261620000D01*
X219963969Y-301476193D02*
X219963969Y-312737363D01*
X211963000Y-296037000D02*
X214524776Y-296037000D01*
X219963969Y-312737363D02*
X220570130Y-313343524D01*
X214524776Y-296037000D02*
X219963969Y-301476193D01*
X210820000Y-297180000D02*
X211963000Y-296037000D01*
X232283000Y-321183000D02*
X232283000Y-313436000D01*
X232283000Y-321183000D02*
X233680000Y-322580000D01*
X232283000Y-313436000D02*
X231775000Y-312928000D01*
X222123000Y-312928000D02*
X221707476Y-313343524D01*
X231775000Y-312928000D02*
X222123000Y-312928000D01*
X220570130Y-313343524D02*
X221707476Y-313343524D01*
X229904510Y-343442510D02*
X229904510Y-322580000D01*
X288035978Y-342138022D02*
X284988022Y-345185978D01*
X282977809Y-296799033D02*
X288035978Y-301857202D01*
X268859033Y-296799033D02*
X282977809Y-296799033D01*
X231647978Y-345185978D02*
X229904510Y-343442510D01*
X264160000Y-292100000D02*
X268859033Y-296799033D01*
X284988022Y-345185978D02*
X231647978Y-345185978D01*
X288035978Y-301857202D02*
X288035978Y-342138022D01*
X220221715Y-301331163D02*
X219817052Y-300926500D01*
X207137000Y-293243000D02*
X203200000Y-297180000D01*
X212090000Y-293243000D02*
X207137000Y-293243000D01*
X218735724Y-299888724D02*
X212090000Y-293243000D01*
X218735724Y-299888724D02*
X218779276Y-299888724D01*
X218779276Y-299888724D02*
X220221715Y-301331163D01*
X232537000Y-313309000D02*
X232537000Y-316357000D01*
X231902000Y-312674000D02*
X232537000Y-313309000D01*
X221580487Y-313089513D02*
X221996000Y-312674000D01*
X220675344Y-313089513D02*
X221580487Y-313089513D01*
X232537000Y-316357000D02*
X233680000Y-317500000D01*
X221996000Y-312674000D02*
X231902000Y-312674000D01*
X220221715Y-312635884D02*
X220675344Y-313089513D01*
X220221715Y-301331163D02*
X220221715Y-312635884D01*
X229489000Y-343408000D02*
X229489000Y-317881000D01*
X266700000Y-292100000D02*
X271145022Y-296545022D01*
X283083022Y-296545022D02*
X288289989Y-301751989D01*
X229489000Y-317881000D02*
X229870000Y-317500000D01*
X231520989Y-345439989D02*
X229489000Y-343408000D01*
X285115011Y-345439989D02*
X231520989Y-345439989D01*
X271145022Y-296545022D02*
X283083022Y-296545022D01*
X288289989Y-342265011D02*
X285115011Y-345439989D01*
X288289989Y-301751989D02*
X288289989Y-342265011D01*
X200660000Y-297180000D02*
X204851000Y-292989000D01*
X204851000Y-292989000D02*
X212217000Y-292989000D01*
X213614000Y-294386000D02*
X213635776Y-294386000D01*
X212217000Y-292989000D02*
X213614000Y-294386000D01*
X220112807Y-300863031D02*
X220178133Y-300863031D01*
X213635776Y-294386000D02*
X219911388Y-300661612D01*
X219911388Y-300661612D02*
X220112807Y-300863031D01*
X219911388Y-300661612D02*
X220475725Y-301225949D01*
X220475725Y-312530669D02*
X220780558Y-312835502D01*
X220780558Y-312835502D02*
X221431722Y-312835502D01*
X220475725Y-301225949D02*
X220475725Y-312530669D01*
X221847224Y-312420000D02*
X233680000Y-312420000D01*
X221431722Y-312835502D02*
X221847224Y-312420000D01*
X273431011Y-296291011D02*
X283188235Y-296291011D01*
X288544000Y-342392000D02*
X285242000Y-345694000D01*
X269240000Y-292100000D02*
X273431011Y-296291011D01*
X288544000Y-301646776D02*
X288544000Y-342392000D01*
X231394000Y-345694000D02*
X228981000Y-343281000D01*
X228981000Y-343281000D02*
X228981000Y-314833000D01*
X285242000Y-345694000D02*
X231394000Y-345694000D01*
X283188235Y-296291011D02*
X288544000Y-301646776D01*
X197485000Y-292735000D02*
X193040000Y-297180000D01*
X212344000Y-292735000D02*
X197485000Y-292735000D01*
X220218021Y-300609021D02*
X212344000Y-292735000D01*
X220283347Y-300609021D02*
X220729735Y-301055409D01*
X220218021Y-300609021D02*
X220283347Y-300609021D01*
X220729735Y-301055409D02*
X220729735Y-311908265D01*
X220729735Y-311908265D02*
X220980000Y-312158530D01*
X220980000Y-312158530D02*
X220980000Y-312420000D01*
X271780000Y-292100000D02*
X275717000Y-296037000D01*
X275717000Y-296037000D02*
X283337000Y-296037000D01*
X283337000Y-296037000D02*
X288798000Y-301498000D01*
X288798000Y-301498000D02*
X288798000Y-342519000D01*
X288798000Y-342519000D02*
X285369000Y-345948000D01*
X285369000Y-345948000D02*
X231267000Y-345948000D01*
X231267000Y-345948000D02*
X228473000Y-343154000D01*
X228473000Y-343154000D02*
X228473000Y-314198000D01*
X228473000Y-314198000D02*
X227965000Y-313690000D01*
X219710000Y-313690000D02*
X218440000Y-312420000D01*
X227965000Y-313690000D02*
X219710000Y-313690000D01*
X216281000Y-295148000D02*
X220726000Y-299593000D01*
X193040000Y-289560000D02*
X195834000Y-286766000D01*
X216281000Y-289179000D02*
X216281000Y-295148000D01*
X249809000Y-309885520D02*
X248342980Y-308419500D01*
X234950000Y-299593000D02*
X243776500Y-308419500D01*
X243776500Y-308419500D02*
X248342980Y-308419500D01*
X254000000Y-322580000D02*
X249809000Y-318389000D01*
X213868000Y-286766000D02*
X216281000Y-289179000D01*
X220726000Y-299593000D02*
X234950000Y-299593000D01*
X195834000Y-286766000D02*
X213868000Y-286766000D01*
X249809000Y-318389000D02*
X249809000Y-309885520D01*
X249393500Y-317181802D02*
X249393500Y-317500000D01*
X249555000Y-317020302D02*
X249393500Y-317181802D01*
X249555000Y-310642000D02*
X249555000Y-317020302D01*
X248758479Y-309845479D02*
X248758479Y-309521262D01*
X216027000Y-289306000D02*
X216027000Y-295275000D01*
X247974217Y-308737000D02*
X248758479Y-309521262D01*
X249555000Y-310642000D02*
X248758479Y-309845479D01*
X200660000Y-289560000D02*
X203200000Y-287020000D01*
X220599000Y-299847000D02*
X234844776Y-299847000D01*
X213741000Y-287020000D02*
X216027000Y-289306000D01*
X234844776Y-299847000D02*
X243734776Y-308737000D01*
X203200000Y-287020000D02*
X213741000Y-287020000D01*
X216027000Y-295275000D02*
X220599000Y-299847000D01*
X243734776Y-308737000D02*
X247974217Y-308737000D01*
X243586000Y-308991000D02*
X245779786Y-308991000D01*
X220493786Y-300101011D02*
X234696011Y-300101011D01*
X249139500Y-312420000D02*
X247396276Y-310676776D01*
X247396276Y-310676776D02*
X247396276Y-310607490D01*
X213614011Y-287274011D02*
X215772989Y-289432989D01*
X245779786Y-308991000D02*
X247396276Y-310607490D01*
X203200000Y-289560000D02*
X205485989Y-287274011D01*
X215772989Y-289432989D02*
X215772989Y-295380214D01*
X205485989Y-287274011D02*
X213614011Y-287274011D01*
X215772989Y-295380214D02*
X220493786Y-300101011D01*
X234696011Y-300101011D02*
X243586000Y-308991000D01*
X234569011Y-300355011D02*
X240919000Y-306705000D01*
X220388561Y-300355011D02*
X234569011Y-300355011D01*
X213487011Y-287528011D02*
X215518978Y-289559978D01*
X212851989Y-287528011D02*
X213487011Y-287528011D01*
X215518978Y-295485428D02*
X220388561Y-300355011D01*
X215518978Y-289559978D02*
X215518978Y-295485428D01*
X210820000Y-289560000D02*
X212851989Y-287528011D01*
X241606612Y-307392612D02*
X240866397Y-306652397D01*
X241606612Y-307599218D02*
X241768197Y-307760803D01*
X241606612Y-307392612D02*
X241606612Y-307599218D01*
X241768197Y-307760803D02*
X242374281Y-308366887D01*
X241628388Y-307620994D02*
X241768197Y-307760803D01*
X244094000Y-312420000D02*
X238760000Y-312420000D01*
X245618000Y-310896000D02*
X244094000Y-312420000D01*
X287019934Y-341630066D02*
X284480066Y-344169934D01*
X231140033Y-327659967D02*
X232880001Y-325919999D01*
X287019934Y-319912934D02*
X287019934Y-341630066D01*
X264160000Y-312420000D02*
X269240033Y-317500033D01*
X231140033Y-343154033D02*
X231140033Y-327659967D01*
X284607033Y-317500033D02*
X287019934Y-319912934D01*
X232155934Y-344169934D02*
X231140033Y-343154033D01*
X269240033Y-317500033D02*
X284607033Y-317500033D01*
X284480066Y-344169934D02*
X232155934Y-344169934D01*
X232880001Y-325919999D02*
X233680000Y-325120000D01*
X287273945Y-319785945D02*
X287273945Y-341757055D01*
X266700000Y-312420000D02*
X271526022Y-317246022D01*
X230886022Y-343281022D02*
X230886022Y-320646697D01*
X230886022Y-320646697D02*
X231047521Y-320485198D01*
X284607055Y-344423945D02*
X232028945Y-344423945D01*
X232028945Y-344423945D02*
X230886022Y-343281022D01*
X284734022Y-317246022D02*
X287273945Y-319785945D01*
X287273945Y-341757055D02*
X284607055Y-344423945D01*
X271526022Y-317246022D02*
X284734022Y-317246022D01*
X231047521Y-320485198D02*
X231047521Y-320167000D01*
X287527956Y-319658956D02*
X287527956Y-341884044D01*
X287527956Y-341884044D02*
X284734044Y-344677956D01*
X230632011Y-343408011D02*
X230632011Y-315340989D01*
X231901956Y-344677956D02*
X230632011Y-343408011D01*
X269240000Y-312420000D02*
X273812011Y-316992011D01*
X273812011Y-316992011D02*
X284861011Y-316992011D01*
X284734044Y-344677956D02*
X231901956Y-344677956D01*
X230632011Y-315340989D02*
X231013000Y-314960000D01*
X284861011Y-316992011D02*
X287527956Y-319658956D01*
X230378000Y-315341000D02*
X228473000Y-313436000D01*
X271780000Y-312420000D02*
X276098000Y-316738000D01*
X284988000Y-316738000D02*
X287781967Y-319531967D01*
X276098000Y-316738000D02*
X284988000Y-316738000D01*
X287781967Y-319531967D02*
X287781967Y-342011033D01*
X284861033Y-344931967D02*
X231774967Y-344931967D01*
X231774967Y-344931967D02*
X230378000Y-343535000D01*
X287781967Y-342011033D02*
X284861033Y-344931967D01*
X230378000Y-343535000D02*
X230378000Y-315341000D01*
X223774022Y-294385978D02*
X223774022Y-296359964D01*
X249489664Y-305561989D02*
X252327214Y-305561989D01*
X225610025Y-298195967D02*
X242123642Y-298195967D01*
X228600000Y-289560000D02*
X223774022Y-294385978D01*
X223774022Y-296359964D02*
X225610025Y-298195967D01*
X254799999Y-324320001D02*
X254000000Y-325120000D01*
X242123642Y-298195967D02*
X249489664Y-305561989D01*
X256286011Y-322833989D02*
X254799999Y-324320001D01*
X252327214Y-305561989D02*
X256286011Y-309520786D01*
X256286011Y-316288047D02*
X256286011Y-322706989D01*
X273329499Y-311429499D02*
X261144559Y-311429499D01*
X261144559Y-311429499D02*
X256286011Y-316288047D01*
X274320000Y-312420000D02*
X273329499Y-311429499D01*
X256286011Y-322706989D02*
X256286011Y-322833989D01*
X256286011Y-309520786D02*
X256286011Y-322706989D01*
X256032000Y-318008000D02*
X254635000Y-319405000D01*
X256032000Y-318008000D02*
X254000000Y-320040000D01*
X225424989Y-288290011D02*
X223520011Y-290194989D01*
X223520011Y-296545011D02*
X225424978Y-298449978D01*
X249384439Y-305815989D02*
X252200214Y-305815989D01*
X256032000Y-309647775D02*
X256032000Y-318008000D01*
X234950011Y-288290011D02*
X225424989Y-288290011D01*
X252200214Y-305815989D02*
X256032000Y-309647775D01*
X242018428Y-298449978D02*
X249384439Y-305815989D01*
X223520011Y-290194989D02*
X223520011Y-296545011D01*
X236220000Y-289560000D02*
X234950011Y-288290011D01*
X225424978Y-298449978D02*
X242018428Y-298449978D01*
X276860000Y-312420000D02*
X275590000Y-311150000D01*
X260731000Y-311150000D02*
X256794000Y-315087000D01*
X275590000Y-311150000D02*
X260731000Y-311150000D01*
X237960001Y-288760001D02*
X238760000Y-289560000D01*
X254000000Y-314960000D02*
X255778000Y-313182000D01*
X255778000Y-313182000D02*
X255778000Y-309753000D01*
X252095000Y-306070000D02*
X249279225Y-306070000D01*
X249279225Y-306070000D02*
X241913214Y-298703989D01*
X223266000Y-290068000D02*
X225298000Y-288036000D01*
X223266000Y-296672000D02*
X223266000Y-290068000D01*
X225298000Y-288036000D02*
X237236000Y-288036000D01*
X237236000Y-288036000D02*
X237960001Y-288760001D01*
X255778000Y-309753000D02*
X252095000Y-306070000D01*
X225297989Y-298703989D02*
X223266000Y-296672000D01*
X241913214Y-298703989D02*
X225297989Y-298703989D01*
X277876000Y-310896000D02*
X260350000Y-310896000D01*
X279400000Y-312420000D02*
X277876000Y-310896000D01*
X260350000Y-310896000D02*
X256794000Y-314452000D01*
X243967000Y-309880000D02*
X238760000Y-309880000D01*
X281940000Y-312420000D02*
X280162000Y-310642000D01*
X257302000Y-310642000D02*
X256794000Y-311150000D01*
X280162000Y-310642000D02*
X257302000Y-310642000D01*
X248666000Y-305816000D02*
X241808000Y-298958000D01*
X248666000Y-306578000D02*
X248666000Y-305816000D01*
X241808000Y-298958000D02*
X225171000Y-298958000D01*
X223012000Y-289941000D02*
X225171000Y-287782000D01*
X223012000Y-296799000D02*
X223012000Y-289941000D01*
X225171000Y-287782000D02*
X244602000Y-287782000D01*
X244602000Y-287782000D02*
X246380000Y-289560000D01*
X225171000Y-298958000D02*
X223012000Y-296799000D01*
X180043956Y-146973510D02*
X174590355Y-146973510D01*
X174590355Y-146973510D02*
X174556617Y-146939772D01*
X180268955Y-146748511D02*
X180043956Y-146973510D01*
X175037015Y-146333001D02*
X174994670Y-146375346D01*
X186384199Y-146333001D02*
X175037015Y-146333001D01*
X174994670Y-146375346D02*
X174676472Y-146375346D01*
X187982000Y-144735200D02*
X186384199Y-146333001D01*
X368808000Y-171196000D02*
X368808000Y-171069000D01*
X245338571Y-87401429D02*
X247519347Y-87401429D01*
X299720000Y-83820000D02*
X296138571Y-87401429D01*
X296138571Y-87401429D02*
X245338571Y-87401429D01*
X245338571Y-87401429D02*
X244919500Y-87820500D01*
X241300000Y-91440000D02*
X244919500Y-87820500D01*
X302260000Y-83820000D02*
X298424561Y-87655439D01*
X247624561Y-87655439D02*
X243840000Y-91440000D01*
X298424561Y-87655439D02*
X247624561Y-87655439D01*
X300710551Y-87909449D02*
X304800000Y-83820000D01*
X249910551Y-87909449D02*
X300710551Y-87909449D01*
X246380000Y-91440000D02*
X249910551Y-87909449D01*
X252196541Y-88163459D02*
X248920000Y-91440000D01*
X302996541Y-88163459D02*
X252196541Y-88163459D01*
X307340000Y-83820000D02*
X302996541Y-88163459D01*
X309880000Y-83820000D02*
X305282531Y-88417469D01*
X274802531Y-88417469D02*
X271780000Y-91440000D01*
X305282531Y-88417469D02*
X274802531Y-88417469D01*
X307568521Y-88671479D02*
X312420000Y-83820000D01*
X277088521Y-88671479D02*
X307568521Y-88671479D01*
X274320000Y-91440000D02*
X277088521Y-88671479D01*
X314960000Y-83820000D02*
X309854511Y-88925489D01*
X279374511Y-88925489D02*
X276860000Y-91440000D01*
X309854511Y-88925489D02*
X279374511Y-88925489D01*
X270703800Y-151257000D02*
X271802000Y-152355200D01*
X265938000Y-151257000D02*
X270703800Y-151257000D01*
X278622001Y-151555201D02*
X279422000Y-152355200D01*
X278431499Y-151364699D02*
X278622001Y-151555201D01*
X271887699Y-151364699D02*
X278431499Y-151364699D01*
X271526000Y-151003000D02*
X271887699Y-151364699D01*
X266300805Y-151003000D02*
X271526000Y-151003000D01*
X265972500Y-150674695D02*
X266300805Y-151003000D01*
X283575000Y-144735200D02*
X284502000Y-144735200D01*
X254022000Y-144735200D02*
X254949000Y-144735200D01*
X254949000Y-144735200D02*
X255939501Y-143744699D01*
X255939501Y-143744699D02*
X282584499Y-143744699D01*
X282584499Y-143744699D02*
X283575000Y-144735200D01*
X224469000Y-144735200D02*
X223542000Y-144735200D01*
X254022000Y-144735200D02*
X252947942Y-144735200D01*
X252947942Y-144735200D02*
X251957441Y-143744699D01*
X251957441Y-143744699D02*
X225459501Y-143744699D01*
X225459501Y-143744699D02*
X224469000Y-144735200D01*
X193989000Y-144735200D02*
X193062000Y-144735200D01*
X223542000Y-144735200D02*
X222615000Y-144735200D01*
X222615000Y-144735200D02*
X221624499Y-143744699D01*
X194979501Y-143744699D02*
X193989000Y-144735200D01*
X221624499Y-143744699D02*
X194979501Y-143744699D01*
X205359011Y-192934787D02*
X205777484Y-193353260D01*
X205359011Y-192405011D02*
X205359011Y-192934787D01*
X205777484Y-193353260D02*
X206046868Y-193353260D01*
X192913000Y-185293000D02*
X198247000Y-185293000D01*
X190500000Y-182880000D02*
X192913000Y-185293000D01*
X198247000Y-185293000D02*
X205359011Y-192405011D01*
X206046868Y-193353260D02*
X206271867Y-193578259D01*
X193040000Y-182880000D02*
X195199000Y-185039000D01*
X195199000Y-185039000D02*
X198374000Y-185039000D01*
X205867000Y-192532000D02*
X205867000Y-192786000D01*
X198374000Y-185039000D02*
X205867000Y-192532000D01*
X213360000Y-191851170D02*
X212487895Y-192723275D01*
X213360000Y-187960000D02*
X213360000Y-191851170D01*
X196574225Y-182880000D02*
X206443829Y-192749604D01*
X206443829Y-192934495D02*
X206668828Y-193159494D01*
X206443829Y-192749604D02*
X206443829Y-192934495D01*
X195580000Y-182880000D02*
X196574225Y-182880000D01*
X214707199Y-191319989D02*
X212895904Y-193131284D01*
X220980000Y-187960000D02*
X217620011Y-191319989D01*
X217620011Y-191319989D02*
X214707199Y-191319989D01*
X176784000Y-186436000D02*
X180340000Y-182880000D01*
X175260000Y-186436000D02*
X176784000Y-186436000D01*
X174117000Y-189357000D02*
X174117000Y-187579000D01*
X174117000Y-187579000D02*
X175260000Y-186436000D01*
X180340000Y-195580000D02*
X174117000Y-189357000D01*
X182880000Y-182880000D02*
X182880000Y-187960000D01*
X185420000Y-182880000D02*
X190500000Y-187960000D01*
X187960000Y-182880000D02*
X190627000Y-185547000D01*
X190627000Y-185547000D02*
X198120000Y-185547000D01*
X198120000Y-185547000D02*
X205105000Y-192532000D01*
X205105000Y-192532000D02*
X205105000Y-193040000D01*
X205105000Y-193040000D02*
X206248000Y-194183000D01*
X217043000Y-194183000D02*
X218440000Y-195580000D01*
X208788000Y-194183000D02*
X217043000Y-194183000D01*
X217640001Y-170979999D02*
X218440000Y-170180000D01*
X208280000Y-195580000D02*
X208280000Y-194155724D01*
X204377502Y-190300558D02*
X204377502Y-184242498D01*
X204377502Y-184242498D02*
X217640001Y-170979999D01*
X208280000Y-194155724D02*
X206868269Y-192743993D01*
X206868269Y-192743993D02*
X206820937Y-192743993D01*
X206820937Y-192743993D02*
X204377502Y-190300558D01*
X219848630Y-170180000D02*
X220980000Y-170180000D01*
X210820000Y-187960000D02*
X210820000Y-179208630D01*
X210820000Y-179208630D02*
X219848630Y-170180000D01*
X221869000Y-171831000D02*
X219246709Y-171831000D01*
X217640001Y-187160001D02*
X218440000Y-187960000D01*
X223520000Y-170180000D02*
X221869000Y-171831000D01*
X212804211Y-178273498D02*
X212144558Y-178273498D01*
X219246709Y-171831000D02*
X212804211Y-178273498D01*
X211074000Y-179344056D02*
X211074000Y-184277000D01*
X212144558Y-178273498D02*
X211074000Y-179344056D01*
X212471000Y-185674000D02*
X216154000Y-185674000D01*
X211074000Y-184277000D02*
X212471000Y-185674000D01*
X216154000Y-185674000D02*
X217640001Y-187160001D01*
X264160000Y-172593000D02*
X260731000Y-176022000D01*
X264160000Y-170180000D02*
X264160000Y-172593000D01*
X213867990Y-180593990D02*
X213233000Y-179959000D01*
X215138000Y-181737000D02*
X214375998Y-181736998D01*
X213233000Y-179959000D02*
X213106000Y-179959000D01*
X213867990Y-181228990D02*
X213867990Y-180593990D01*
X214375998Y-181736998D02*
X213867990Y-181228990D01*
X224536000Y-179324000D02*
X217551000Y-179324000D01*
X225260001Y-178599999D02*
X224536000Y-179324000D01*
X226060000Y-177800000D02*
X225260001Y-178599999D01*
X217551000Y-179324000D02*
X215138000Y-181737000D01*
X264414011Y-172926610D02*
X261464766Y-175875855D01*
X266700000Y-170180000D02*
X264414011Y-172465989D01*
X264414011Y-172465989D02*
X264414011Y-172926610D01*
X214122000Y-180086000D02*
X214122000Y-181123776D01*
X214122000Y-181123776D02*
X214481213Y-181482989D01*
X217424000Y-179070000D02*
X222250000Y-179070000D01*
X222250000Y-179070000D02*
X222720001Y-178599999D01*
X214481213Y-181482989D02*
X215011011Y-181482989D01*
X222720001Y-178599999D02*
X223520000Y-177800000D01*
X215011011Y-181482989D02*
X217424000Y-179070000D01*
X219964011Y-178815989D02*
X220180001Y-178599999D01*
X215138000Y-180594000D02*
X216916011Y-178815989D01*
X220180001Y-178599999D02*
X220980000Y-177800000D01*
X216916011Y-178815989D02*
X219964011Y-178815989D01*
X269240000Y-170180000D02*
X268108630Y-170180000D01*
X264460140Y-173828490D02*
X264414000Y-173828490D01*
X268108630Y-170180000D02*
X264460140Y-173828490D01*
X214664510Y-180444120D02*
X214664510Y-181009510D01*
X217308630Y-177800000D02*
X214664510Y-180444120D01*
X218440000Y-177800000D02*
X217308630Y-177800000D01*
X270392635Y-171567365D02*
X267820393Y-171567365D01*
X266201282Y-173186476D02*
X266201282Y-173801420D01*
X267820393Y-171567365D02*
X266201282Y-173186476D01*
X271780000Y-170180000D02*
X270392635Y-171567365D01*
X274320000Y-170180000D02*
X272669055Y-171830945D01*
X268171757Y-171830945D02*
X268019835Y-171982867D01*
X272669055Y-171830945D02*
X268171757Y-171830945D01*
X263017000Y-156337000D02*
X264160000Y-157480000D01*
X225755800Y-165100000D02*
X226898789Y-163957011D01*
X226898789Y-163957011D02*
X253627047Y-163957011D01*
X253627047Y-163957011D02*
X261247058Y-156337000D01*
X261247058Y-156337000D02*
X263017000Y-156337000D01*
X246380000Y-195580000D02*
X245110000Y-196850000D01*
X236024058Y-196850000D02*
X234950000Y-195775942D01*
X245110000Y-196850000D02*
X236024058Y-196850000D01*
X234950000Y-195775942D02*
X234950000Y-187071000D01*
X234950000Y-187071000D02*
X236982000Y-185039000D01*
X236982000Y-185039000D02*
X250698000Y-185039000D01*
X250698000Y-185039000D02*
X259080000Y-176657000D01*
X259080000Y-176657000D02*
X259080000Y-165100000D01*
X259080000Y-165100000D02*
X264160000Y-160020000D01*
X264160000Y-160020000D02*
X264160000Y-157480000D01*
X265303000Y-156083000D02*
X261112000Y-156083000D01*
X253492000Y-163703000D02*
X224612800Y-163703000D01*
X224612800Y-163703000D02*
X223215800Y-165100000D01*
X261112000Y-156083000D02*
X253492000Y-163703000D01*
X266700000Y-157480000D02*
X265303000Y-156083000D01*
X238760000Y-195580000D02*
X235229499Y-192049499D01*
X237109000Y-185293000D02*
X250825000Y-185293000D01*
X250825000Y-185293000D02*
X259334000Y-176784000D01*
X235229499Y-192049499D02*
X235229499Y-187172501D01*
X259334000Y-176784000D02*
X259334000Y-165227000D01*
X265900001Y-158279999D02*
X266700000Y-157480000D01*
X235229499Y-187172501D02*
X237109000Y-185293000D01*
X259334000Y-165227000D02*
X264414011Y-160146989D01*
X264414011Y-160146989D02*
X264414011Y-159765989D01*
X264414011Y-159765989D02*
X265900001Y-158279999D01*
X269240000Y-157480000D02*
X267589000Y-155829000D01*
X253365000Y-163449000D02*
X222326800Y-163449000D01*
X222326800Y-163449000D02*
X220675800Y-165100000D01*
X260985000Y-155829000D02*
X253365000Y-163449000D01*
X267589000Y-155829000D02*
X260985000Y-155829000D01*
X268440001Y-158279999D02*
X269240000Y-157480000D01*
X241300000Y-187960000D02*
X243713000Y-185547000D01*
X250930225Y-185547000D02*
X259588011Y-176889214D01*
X243713000Y-185547000D02*
X250930225Y-185547000D01*
X268091196Y-158628804D02*
X268440001Y-158279999D01*
X266291420Y-158628804D02*
X268091196Y-158628804D01*
X259588011Y-176889214D02*
X259588011Y-165332213D01*
X259588011Y-165332213D02*
X266291420Y-158628804D01*
X270980001Y-156680001D02*
X271780000Y-157480000D01*
X253238000Y-163195000D02*
X260985011Y-155447989D01*
X260985011Y-155447989D02*
X269747989Y-155447989D01*
X220040800Y-163195000D02*
X253238000Y-163195000D01*
X218135800Y-165100000D02*
X220040800Y-163195000D01*
X269747989Y-155447989D02*
X270980001Y-156680001D01*
X259842022Y-177037978D02*
X248920000Y-187960000D01*
X266396635Y-158882815D02*
X259842022Y-165437427D01*
X259842022Y-165437427D02*
X259842022Y-177037978D01*
X269245815Y-158882815D02*
X266396635Y-158882815D01*
X270648630Y-157480000D02*
X269245815Y-158882815D01*
X271780000Y-157480000D02*
X270648630Y-157480000D01*
X272033978Y-155193978D02*
X260858022Y-155193978D01*
X274320000Y-157480000D02*
X272033978Y-155193978D01*
X260858022Y-155193978D02*
X253111000Y-162941000D01*
X253111000Y-162941000D02*
X217754800Y-162941000D01*
X217754800Y-162941000D02*
X216395799Y-164300001D01*
X216395799Y-164300001D02*
X215595800Y-165100000D01*
X250660001Y-103340001D02*
X251460000Y-104140000D01*
X210620501Y-101799499D02*
X249119499Y-101799499D01*
X249119499Y-101799499D02*
X250660001Y-103340001D01*
X208280000Y-104140000D02*
X210620501Y-101799499D01*
X239559999Y-104939999D02*
X238760000Y-104140000D01*
X240157000Y-105537000D02*
X239559999Y-104939999D01*
X280543000Y-105537000D02*
X240157000Y-105537000D01*
X281940000Y-104140000D02*
X280543000Y-105537000D01*
X316230000Y-321310000D02*
X316230000Y-317500000D01*
X325463000Y-313690000D02*
X326390000Y-313690000D01*
X317029999Y-316700001D02*
X322452999Y-316700001D01*
X322452999Y-316700001D02*
X325463000Y-313690000D01*
X316230000Y-317500000D02*
X317029999Y-316700001D01*
X328168000Y-313690000D02*
X326390000Y-313690000D01*
X375920000Y-303532000D02*
X375916200Y-303528200D01*
X375920000Y-306705000D02*
X375920000Y-303532000D01*
X373380000Y-303532000D02*
X373376200Y-303528200D01*
X373380000Y-306451000D02*
X373380000Y-303532000D01*
X316573000Y-337820000D02*
X311150000Y-337820000D01*
X320383000Y-334010000D02*
X316573000Y-337820000D01*
X321310000Y-334010000D02*
X320383000Y-334010000D01*
X370840000Y-303532000D02*
X370836200Y-303528200D01*
X370840000Y-306197000D02*
X370840000Y-303532000D01*
X311150000Y-337820000D02*
X311150000Y-341630000D01*
X368300000Y-303532000D02*
X368296200Y-303528200D01*
X368300000Y-305943000D02*
X368300000Y-303532000D01*
X350715942Y-334010000D02*
X351790000Y-334010000D01*
X346905942Y-337820000D02*
X350715942Y-334010000D01*
X341630000Y-337820000D02*
X346905942Y-337820000D01*
X365760000Y-303532000D02*
X365756200Y-303528200D01*
X365760000Y-305689000D02*
X365760000Y-303532000D01*
X363220000Y-303532000D02*
X363216200Y-303528200D01*
X363220000Y-305435000D02*
X363220000Y-303532000D01*
X376847000Y-337820000D02*
X382270000Y-337820000D01*
X373037000Y-334010000D02*
X376847000Y-337820000D01*
X372110000Y-334010000D02*
X373037000Y-334010000D01*
X382270000Y-337820000D02*
X382270000Y-341630000D01*
X246888000Y-192532000D02*
X255270000Y-192532000D01*
X257730274Y-219989499D02*
X263169499Y-219989499D01*
X243840000Y-195580000D02*
X246888000Y-192532000D01*
X263169499Y-219989499D02*
X263360001Y-220180001D01*
X255270000Y-192532000D02*
X256158989Y-193420989D01*
X263360001Y-220180001D02*
X264160000Y-220980000D01*
X256233388Y-218492612D02*
X257730274Y-219989499D01*
X256158989Y-218418213D02*
X256233388Y-218492612D01*
X256158989Y-193420989D02*
X256158989Y-218418213D01*
X256158989Y-218418214D02*
X256233388Y-218492612D01*
X250190000Y-191770000D02*
X246380000Y-187960000D01*
X255016000Y-191770000D02*
X250190000Y-191770000D01*
X255270000Y-191770000D02*
X255016000Y-191770000D01*
X258064000Y-219202000D02*
X256921000Y-218059000D01*
X270002000Y-219202000D02*
X258064000Y-219202000D01*
X255651000Y-191770000D02*
X255016000Y-191770000D01*
X271780000Y-220980000D02*
X270002000Y-219202000D01*
X256921000Y-193040000D02*
X255651000Y-191770000D01*
X256921000Y-218059000D02*
X256921000Y-193040000D01*
X237019999Y-196379999D02*
X236220000Y-195580000D01*
X239235441Y-196570501D02*
X237210501Y-196570501D01*
X243136058Y-192278000D02*
X239750501Y-195663557D01*
X239750501Y-196055441D02*
X239235441Y-196570501D01*
X237210501Y-196570501D02*
X237019999Y-196379999D01*
X239750501Y-195663557D02*
X239750501Y-196055441D01*
X255143000Y-192278000D02*
X243136058Y-192278000D01*
X255270000Y-192278000D02*
X255143000Y-192278000D01*
X256413000Y-193294000D02*
X255397000Y-192278000D01*
X266700000Y-220980000D02*
X265455488Y-219735488D01*
X257835488Y-219735488D02*
X256413000Y-218313000D01*
X255397000Y-192278000D02*
X255143000Y-192278000D01*
X256413000Y-218313000D02*
X256413000Y-193294000D01*
X265455488Y-219735488D02*
X257835488Y-219735488D01*
X336829499Y-288569499D02*
X337020001Y-288760001D01*
X337020001Y-288760001D02*
X337820000Y-289560000D01*
X325056499Y-288569499D02*
X336829499Y-288569499D01*
X318427000Y-281940000D02*
X325056499Y-288569499D01*
X317500000Y-281940000D02*
X318427000Y-281940000D01*
X378460000Y-246380000D02*
X378460000Y-252730000D01*
X343370001Y-320510001D02*
X344170000Y-321310000D01*
X335153000Y-320167000D02*
X343027000Y-320167000D01*
X343027000Y-320167000D02*
X343370001Y-320510001D01*
X334010000Y-321310000D02*
X335153000Y-320167000D01*
X316230000Y-245110000D02*
X307340000Y-254000000D01*
X318770000Y-245110000D02*
X316230000Y-245110000D01*
X308139999Y-254799999D02*
X307340000Y-254000000D01*
X308610000Y-255270000D02*
X308139999Y-254799999D01*
X308610000Y-268152000D02*
X308610000Y-255270000D01*
X307340000Y-269422000D02*
X308610000Y-268152000D01*
X217008490Y-177331401D02*
X215854415Y-176177326D01*
X215854415Y-176177326D02*
X215854415Y-175831489D01*
X189611000Y-169291000D02*
X187960000Y-167640000D01*
X189611000Y-176276000D02*
X189611000Y-169291000D01*
X270039999Y-188759999D02*
X269240000Y-187960000D01*
X273431000Y-192151000D02*
X270039999Y-188759999D01*
X273431000Y-192151000D02*
X284353000Y-192151000D01*
X281051000Y-219329000D02*
X279400000Y-220980000D01*
X283845000Y-219329000D02*
X281051000Y-219329000D01*
X285993113Y-217159111D02*
X286004000Y-217170000D01*
X286131009Y-217021215D02*
X285993113Y-217159111D01*
X284353000Y-192151000D02*
X285877000Y-193675000D01*
X286004000Y-217170000D02*
X283845000Y-219329000D01*
X285877000Y-193675000D02*
X286131010Y-193929010D01*
X286131000Y-217043000D02*
X286004000Y-217170000D01*
X286131010Y-193929010D02*
X286131009Y-217021215D01*
X285877000Y-193675000D02*
X286131000Y-193929000D01*
X276479000Y-218821000D02*
X274320000Y-220980000D01*
X285520501Y-216902401D02*
X283601902Y-218821000D01*
X284099022Y-192659022D02*
X285520501Y-194080501D01*
X277240978Y-192659022D02*
X284099022Y-192659022D01*
X283601902Y-218821000D02*
X276479000Y-218821000D01*
X274320000Y-195580000D02*
X277240978Y-192659022D01*
X285520501Y-194080501D02*
X285520501Y-216902401D01*
X280797000Y-191897000D02*
X276860000Y-187960000D01*
X284480000Y-191897000D02*
X280797000Y-191897000D01*
X282739999Y-220180001D02*
X281940000Y-220980000D01*
X283337000Y-219583000D02*
X282739999Y-220180001D01*
X283972000Y-219583000D02*
X283337000Y-219583000D01*
X286385009Y-217126439D02*
X286385018Y-217126428D01*
X286258000Y-217297000D02*
X286258000Y-217275224D01*
X286385009Y-217148215D02*
X286385009Y-217126439D01*
X286258000Y-217275224D02*
X286385009Y-217148215D01*
X286385000Y-217170000D02*
X286258000Y-217297000D01*
X286258000Y-217297000D02*
X283972000Y-219583000D01*
X286385018Y-217126428D02*
X286385018Y-193802018D01*
X286131000Y-193548000D02*
X286385000Y-193802000D01*
X286385018Y-193802018D02*
X286131000Y-193548000D01*
X284480000Y-191897000D02*
X286131000Y-193548000D01*
X266700000Y-195580000D02*
X269874989Y-192405011D01*
X276860000Y-220980000D02*
X278765000Y-219075000D01*
X278765000Y-219075000D02*
X283718000Y-219075000D01*
X284226011Y-192405011D02*
X269874989Y-192405011D01*
X285750000Y-217032127D02*
X285877000Y-216905127D01*
X285750000Y-217043000D02*
X285750000Y-217032127D01*
X283718000Y-219075000D02*
X285750000Y-217043000D01*
X285750000Y-217043000D02*
X285877000Y-216916000D01*
X285644776Y-193802000D02*
X285623000Y-193802000D01*
X285877000Y-194034224D02*
X285644776Y-193802000D01*
X285877000Y-194056000D02*
X285623000Y-193802000D01*
X285877000Y-194056000D02*
X284670500Y-192849500D01*
X285877000Y-216905127D02*
X285877000Y-195199000D01*
X284670500Y-192849500D02*
X284226011Y-192405011D01*
X285877000Y-195199000D02*
X285877000Y-194056000D01*
X285623000Y-193802000D02*
X284670500Y-192849500D01*
X285877000Y-195199000D02*
X285877000Y-194034224D01*
X242824000Y-192024000D02*
X238760000Y-187960000D01*
X255270000Y-192024000D02*
X255143000Y-192024000D01*
X255143000Y-192024000D02*
X242824000Y-192024000D01*
X267741477Y-219481477D02*
X268440001Y-220180001D01*
X268440001Y-220180001D02*
X269240000Y-220980000D01*
X255524000Y-192024000D02*
X256667000Y-193167000D01*
X257962477Y-219481477D02*
X267741477Y-219481477D01*
X256667000Y-218186000D02*
X257962477Y-219481477D01*
X256667000Y-193167000D02*
X256667000Y-218186000D01*
X255143000Y-192024000D02*
X255524000Y-192024000D01*
X231140000Y-197358000D02*
X225933000Y-192151000D01*
X225933000Y-192151000D02*
X214884000Y-192151000D01*
X214884000Y-192151000D02*
X213487000Y-193548000D01*
X213487000Y-193548000D02*
X212725000Y-193548000D01*
X208280000Y-189103000D02*
X208280000Y-187960000D01*
X212725000Y-193548000D02*
X208280000Y-189103000D01*
X279400000Y-205740000D02*
X279400000Y-203200000D01*
X255143000Y-205232000D02*
X255143000Y-201803000D01*
X240284000Y-197358000D02*
X231140000Y-197358000D01*
X255143000Y-201803000D02*
X250698000Y-197358000D01*
X255651000Y-205740000D02*
X255143000Y-205232000D01*
X250698000Y-197358000D02*
X240284000Y-197358000D01*
X240538000Y-197358000D02*
X240284000Y-197358000D01*
X214757000Y-196977000D02*
X230378000Y-196977000D01*
X213360000Y-195580000D02*
X214757000Y-196977000D01*
X230378000Y-196977000D02*
X231013000Y-197612000D01*
X274320000Y-206375000D02*
X274320000Y-203200000D01*
X231013000Y-197612000D02*
X240157000Y-197612000D01*
X240157000Y-197612000D02*
X240411000Y-197612000D01*
X254889000Y-205613000D02*
X255651000Y-206375000D01*
X254889000Y-201930000D02*
X254889000Y-205613000D01*
X250571000Y-197612000D02*
X254889000Y-201930000D01*
X240157000Y-197612000D02*
X250571000Y-197612000D01*
X255397000Y-204851000D02*
X255651000Y-205105000D01*
X225879548Y-191735490D02*
X231248058Y-197104000D01*
X255397000Y-201676000D02*
X255397000Y-204851000D01*
X250825000Y-197104000D02*
X255397000Y-201676000D01*
X231248058Y-197104000D02*
X250825000Y-197104000D01*
X217590166Y-191735490D02*
X225879548Y-191735490D01*
X230251000Y-197231000D02*
X207391000Y-197231000D01*
X207391000Y-197231000D02*
X205740000Y-195580000D01*
X230251000Y-197231000D02*
X230886000Y-197866000D01*
X276860000Y-207010000D02*
X276860000Y-203200000D01*
X254635000Y-202057000D02*
X250444000Y-197866000D01*
X255651000Y-207010000D02*
X254635000Y-205994000D01*
X254635000Y-205994000D02*
X254635000Y-202057000D01*
X239776000Y-197866000D02*
X240284000Y-197866000D01*
X250444000Y-197866000D02*
X239776000Y-197866000D01*
X230886000Y-197866000D02*
X239776000Y-197866000D01*
X184658000Y-197866000D02*
X182880000Y-196088000D01*
X182880000Y-196088000D02*
X182880000Y-195580000D01*
X175260000Y-196215000D02*
X175260000Y-195580000D01*
X176657000Y-197612000D02*
X175260000Y-196215000D01*
X232918000Y-237998000D02*
X231140000Y-236220000D01*
X231521000Y-248666000D02*
X232918000Y-247269000D01*
X232918000Y-247269000D02*
X232918000Y-237998000D01*
X224282000Y-254762000D02*
X230378000Y-248666000D01*
X230378000Y-248666000D02*
X231521000Y-248666000D01*
X218186000Y-277109800D02*
X218186000Y-257048000D01*
X220472000Y-254762000D02*
X224282000Y-254762000D01*
X218186000Y-257048000D02*
X220472000Y-254762000D01*
X215895800Y-279400000D02*
X218186000Y-277109800D01*
X231394000Y-248412000D02*
X230251000Y-248412000D01*
X231140000Y-238760000D02*
X232664000Y-240284000D01*
X217932000Y-274823800D02*
X215895800Y-276860000D01*
X232664000Y-247142000D02*
X231394000Y-248412000D01*
X220345000Y-254508000D02*
X217932000Y-256921000D01*
X230251000Y-248412000D02*
X224155000Y-254508000D01*
X217932000Y-256921000D02*
X217932000Y-274823800D01*
X224155000Y-254508000D02*
X220345000Y-254508000D01*
X232664000Y-240284000D02*
X232664000Y-247142000D01*
X217678000Y-256794000D02*
X220218000Y-254254000D01*
X231267000Y-248158000D02*
X232410000Y-247015000D01*
X220218000Y-254254000D02*
X224028000Y-254254000D01*
X232410000Y-242570000D02*
X231140000Y-241300000D01*
X232410000Y-247015000D02*
X232410000Y-242570000D01*
X224028000Y-254254000D02*
X230124000Y-248158000D01*
X215895800Y-274320000D02*
X217678000Y-272537800D01*
X217678000Y-272537800D02*
X217678000Y-256794000D01*
X230124000Y-248158000D02*
X231267000Y-248158000D01*
X217424000Y-256667000D02*
X217424000Y-270251800D01*
X217424000Y-270251800D02*
X215895800Y-271780000D01*
X220091000Y-254000000D02*
X217424000Y-256667000D01*
X223901000Y-254000000D02*
X220091000Y-254000000D01*
X229997000Y-247904000D02*
X223901000Y-254000000D01*
X232130501Y-246855441D02*
X231081942Y-247904000D01*
X232130501Y-244830501D02*
X232130501Y-246855441D01*
X231081942Y-247904000D02*
X229997000Y-247904000D01*
X231140000Y-243840000D02*
X232130501Y-244830501D01*
X231140000Y-246380000D02*
X223774000Y-253746000D01*
X223774000Y-253746000D02*
X219964000Y-253746000D01*
X219964000Y-253746000D02*
X217170000Y-256540000D01*
X217170000Y-267965800D02*
X215895800Y-269240000D01*
X217170000Y-256540000D02*
X217170000Y-267965800D01*
X236215800Y-279400000D02*
X238506000Y-277109800D01*
X253238000Y-247269000D02*
X253238000Y-237998000D01*
X253238000Y-237998000D02*
X251460000Y-236220000D01*
X251841000Y-248666000D02*
X253238000Y-247269000D01*
X250698000Y-248666000D02*
X251841000Y-248666000D01*
X244602000Y-254762000D02*
X250698000Y-248666000D01*
X240792000Y-254762000D02*
X244602000Y-254762000D01*
X238506000Y-257048000D02*
X240792000Y-254762000D01*
X238506000Y-277109800D02*
X238506000Y-257048000D01*
X251460000Y-238760000D02*
X252984000Y-240284000D01*
X238252000Y-256921000D02*
X238252000Y-274823800D01*
X238252000Y-274823800D02*
X236215800Y-276860000D01*
X240665000Y-254508000D02*
X238252000Y-256921000D01*
X244475000Y-254508000D02*
X240665000Y-254508000D01*
X250571000Y-248412000D02*
X244475000Y-254508000D01*
X251714000Y-248412000D02*
X250571000Y-248412000D01*
X252984000Y-247142000D02*
X251714000Y-248412000D01*
X252984000Y-240284000D02*
X252984000Y-247142000D01*
X236215800Y-274320000D02*
X237998000Y-272537800D01*
X252730000Y-247015000D02*
X252730000Y-242570000D01*
X252730000Y-242570000D02*
X251460000Y-241300000D01*
X251587000Y-248158000D02*
X252730000Y-247015000D01*
X250444000Y-248158000D02*
X251587000Y-248158000D01*
X244348000Y-254254000D02*
X250444000Y-248158000D01*
X240538000Y-254254000D02*
X244348000Y-254254000D01*
X237998000Y-256794000D02*
X240538000Y-254254000D01*
X237998000Y-272537800D02*
X237998000Y-256794000D01*
X252450501Y-246855441D02*
X251401942Y-247904000D01*
X237744000Y-256667000D02*
X237744000Y-270251800D01*
X237744000Y-270251800D02*
X236215800Y-271780000D01*
X240411000Y-254000000D02*
X237744000Y-256667000D01*
X244221000Y-254000000D02*
X240411000Y-254000000D01*
X250317000Y-247904000D02*
X244221000Y-254000000D01*
X251401942Y-247904000D02*
X250317000Y-247904000D01*
X251460000Y-243840000D02*
X252450501Y-244830501D01*
X252450501Y-244830501D02*
X252450501Y-246855441D01*
X251460000Y-246380000D02*
X244094000Y-253746000D01*
X237490000Y-256540000D02*
X237490000Y-267965800D01*
X237490000Y-267965800D02*
X236215800Y-269240000D01*
X240284000Y-253746000D02*
X237490000Y-256540000D01*
X244094000Y-253746000D02*
X240284000Y-253746000D01*
X317500000Y-297180000D02*
X313944000Y-293624000D01*
X308165500Y-289311442D02*
X308165500Y-287845500D01*
X313944000Y-293624000D02*
X312478058Y-293624000D01*
X312478058Y-293624000D02*
X308165500Y-289311442D01*
X308165500Y-287845500D02*
X304800000Y-284480000D01*
X316103000Y-283083000D02*
X316103000Y-281432000D01*
X317500000Y-284480000D02*
X316103000Y-283083000D01*
X340982499Y-280949499D02*
X341973000Y-281940000D01*
X316585501Y-280949499D02*
X340982499Y-280949499D01*
X341973000Y-281940000D02*
X342900000Y-281940000D01*
X316103000Y-281432000D02*
X316585501Y-280949499D01*
X331724000Y-294640000D02*
X335280000Y-291084000D01*
X330200000Y-294640000D02*
X331724000Y-294640000D01*
X334518000Y-287782000D02*
X337820000Y-284480000D01*
X332867000Y-287782000D02*
X334518000Y-287782000D01*
X254000000Y-330200000D02*
X240665000Y-330200000D01*
X240665000Y-330200000D02*
X239395000Y-328930000D01*
X239395000Y-328930000D02*
X231775000Y-328930000D01*
X220472000Y-325120000D02*
X218440000Y-325120000D01*
X220726000Y-325374000D02*
X220472000Y-325120000D01*
X220726000Y-326517000D02*
X213291058Y-326517000D01*
X209515529Y-318735529D02*
X205740000Y-314960000D01*
X209515529Y-322741471D02*
X209515529Y-318735529D01*
X213291058Y-326517000D02*
X209515529Y-322741471D01*
X204940001Y-318299999D02*
X205740000Y-317500000D01*
X201459999Y-321780001D02*
X204940001Y-318299999D01*
X201459999Y-323050001D02*
X201459999Y-321780001D01*
X200660000Y-323850000D02*
X201459999Y-323050001D01*
X242062000Y-335280000D02*
X240792000Y-336550000D01*
X254000000Y-335280000D02*
X242062000Y-335280000D01*
X220980000Y-330581000D02*
X219329000Y-328930000D01*
X219329000Y-328930000D02*
X212090000Y-328930000D01*
X212090000Y-328930000D02*
X208407000Y-325247000D01*
X208407000Y-320167000D02*
X205740000Y-317500000D01*
X208407000Y-325247000D02*
X208407000Y-320167000D01*
X214804288Y-168910088D02*
X227330088Y-168910088D01*
X228295800Y-157480000D02*
X227025876Y-158749924D01*
X212216912Y-161462571D02*
X212216912Y-166322712D01*
X227800001Y-169380001D02*
X228600000Y-170180000D01*
X227025876Y-158749924D02*
X214929559Y-158749924D01*
X214929559Y-158749924D02*
X212216912Y-161462571D01*
X227330088Y-168910088D02*
X227800001Y-169380001D01*
X212216912Y-166322712D02*
X214804288Y-168910088D01*
X285749987Y-152869238D02*
X285019513Y-153599712D01*
X229095799Y-156680001D02*
X228295800Y-157480000D01*
X284364734Y-150392768D02*
X284847966Y-150876000D01*
X285749987Y-151764987D02*
X285749987Y-152869238D01*
X285019513Y-153599712D02*
X232176088Y-153599712D01*
X284847966Y-150876000D02*
X284861000Y-150876000D01*
X284861000Y-150876000D02*
X285749987Y-151764987D01*
X232176088Y-153599712D02*
X229095799Y-156680001D01*
X271501232Y-150392768D02*
X284364734Y-150392768D01*
X269518768Y-150392768D02*
X269240000Y-150114000D01*
X271501232Y-150392768D02*
X269518768Y-150392768D01*
X215014716Y-168402066D02*
X231902066Y-168402066D01*
X233375800Y-157480000D02*
X231597854Y-159257946D01*
X212724934Y-161672999D02*
X212724934Y-166112284D01*
X232880001Y-169380001D02*
X233680000Y-170180000D01*
X215139987Y-159257946D02*
X212724934Y-161672999D01*
X231597854Y-159257946D02*
X215139987Y-159257946D01*
X212724934Y-166112284D02*
X215014716Y-168402066D01*
X231902066Y-168402066D02*
X232880001Y-169380001D01*
X233375800Y-157480000D02*
X236748066Y-154107734D01*
X285229940Y-154107734D02*
X286258009Y-153079665D01*
X236748066Y-154107734D02*
X285229940Y-154107734D01*
X286258009Y-152018991D02*
X286258008Y-151532784D01*
X286258008Y-151532784D02*
X286109212Y-151383988D01*
X286258009Y-153079665D02*
X286258009Y-152018991D01*
X286258009Y-152018991D02*
X286258009Y-151532785D01*
X286087436Y-151383988D02*
X284426706Y-149723258D01*
X286109212Y-151383988D02*
X286087436Y-151383988D01*
X267725733Y-149561767D02*
X266700000Y-150587500D01*
X284265215Y-149561767D02*
X267725733Y-149561767D01*
X284426706Y-149723258D02*
X284265215Y-149561767D01*
X211962901Y-166427926D02*
X211962901Y-161357357D01*
X214824345Y-158495913D02*
X224739887Y-158495913D01*
X214699074Y-169164099D02*
X211962901Y-166427926D01*
X225044099Y-169164099D02*
X214699074Y-169164099D01*
X224739887Y-158495913D02*
X224955801Y-158279999D01*
X224955801Y-158279999D02*
X225755800Y-157480000D01*
X211962901Y-161357357D02*
X214824345Y-158495913D01*
X226060000Y-170180000D02*
X225044099Y-169164099D01*
X285492501Y-151879759D02*
X285492501Y-152767499D01*
X229890099Y-153345701D02*
X226555799Y-156680001D01*
X285492501Y-152767499D02*
X284914299Y-153345701D01*
X284914299Y-153345701D02*
X229890099Y-153345701D01*
X226555799Y-156680001D02*
X225755800Y-157480000D01*
X284454242Y-150841500D02*
X276860000Y-150841500D01*
X285492501Y-151879759D02*
X284454242Y-150841500D01*
X214909502Y-168656077D02*
X229616077Y-168656077D01*
X230835800Y-157480000D02*
X229311865Y-159003935D01*
X230340001Y-169380001D02*
X231140000Y-170180000D01*
X215034773Y-159003935D02*
X212470923Y-161567785D01*
X229311865Y-159003935D02*
X215034773Y-159003935D01*
X212470923Y-166217498D02*
X214909502Y-168656077D01*
X229616077Y-168656077D02*
X230340001Y-169380001D01*
X212470923Y-161567785D02*
X212470923Y-166217498D01*
X234462077Y-153853723D02*
X231635799Y-156680001D01*
X285124726Y-153853723D02*
X234462077Y-153853723D01*
X286003998Y-152974451D02*
X285124726Y-153853723D01*
X231635799Y-156680001D02*
X230835800Y-157480000D01*
X286003998Y-152145998D02*
X286003996Y-151659772D01*
X286003998Y-151637998D02*
X286003998Y-152145998D01*
X286003998Y-152145998D02*
X286003998Y-152974451D01*
X284321492Y-149977268D02*
X274320000Y-149977268D01*
X286003996Y-151659772D02*
X284321492Y-149977268D01*
X240096800Y-146050000D02*
X251841000Y-146050000D01*
X238782000Y-144735200D02*
X240096800Y-146050000D01*
X213232956Y-165901856D02*
X215225144Y-167894044D01*
X238455800Y-157480000D02*
X236169832Y-159765968D01*
X236169832Y-159765968D02*
X215350415Y-159765968D01*
X215225144Y-167894044D02*
X236474044Y-167894044D01*
X237960001Y-169380001D02*
X238760000Y-170180000D01*
X236474044Y-167894044D02*
X237960001Y-169380001D01*
X213232956Y-161883427D02*
X213232956Y-165901856D01*
X215350415Y-159765968D02*
X213232956Y-161883427D01*
X241412552Y-154523248D02*
X241427000Y-154523248D01*
X238455800Y-157480000D02*
X241412552Y-154523248D01*
X236242000Y-152355200D02*
X237594200Y-151003000D01*
X237594200Y-151003000D02*
X248920000Y-151003000D01*
X248920000Y-151003000D02*
X253111000Y-146812000D01*
X253111000Y-146812000D02*
X253111000Y-146558000D01*
X237124169Y-167386044D02*
X241046044Y-167386044D01*
X240741810Y-160273990D02*
X215560843Y-160273990D01*
X215435571Y-167386021D02*
X237124147Y-167386022D01*
X243535800Y-157480000D02*
X240741810Y-160273990D01*
X215560843Y-160273990D02*
X213740978Y-162093855D01*
X213740978Y-162093855D02*
X213740978Y-165691428D01*
X243040001Y-169380001D02*
X243840000Y-170180000D01*
X237124147Y-167386022D02*
X237124169Y-167386044D01*
X241046044Y-167386044D02*
X243040001Y-169380001D01*
X213740978Y-165691428D02*
X215435571Y-167386021D01*
X246456800Y-154559000D02*
X246507000Y-154559000D01*
X243535800Y-157480000D02*
X246456800Y-154559000D01*
X235915800Y-157480000D02*
X233883843Y-159511957D01*
X235420001Y-169380001D02*
X236220000Y-170180000D01*
X215119930Y-168148055D02*
X234188055Y-168148055D01*
X212978945Y-166007070D02*
X215119930Y-168148055D01*
X233883843Y-159511957D02*
X215245201Y-159511957D01*
X212978945Y-161778213D02*
X212978945Y-166007070D01*
X234188055Y-168148055D02*
X235420001Y-169380001D01*
X215245201Y-159511957D02*
X212978945Y-161778213D01*
X235915800Y-157480000D02*
X238872556Y-154523244D01*
X238872556Y-154523244D02*
X238988900Y-154523244D01*
X253526502Y-146358558D02*
X253217944Y-146050000D01*
X243862000Y-152355200D02*
X244852501Y-151364699D01*
X253217944Y-146050000D02*
X252476000Y-146050000D01*
X244852501Y-151364699D02*
X248917525Y-151364699D01*
X248917525Y-151364699D02*
X253526502Y-146755722D01*
X253526502Y-146755722D02*
X253526502Y-146358558D01*
X240995800Y-157480000D02*
X238455821Y-160019979D01*
X215330358Y-167640033D02*
X237018933Y-167640033D01*
X215455629Y-160019979D02*
X213486967Y-161988641D01*
X213486967Y-165796642D02*
X215330358Y-167640033D01*
X213486967Y-161988641D02*
X213486967Y-165796642D01*
X240500001Y-169380001D02*
X241300000Y-170180000D01*
X238760055Y-167640055D02*
X240500001Y-169380001D01*
X238455821Y-160019979D02*
X215455629Y-160019979D01*
X237018933Y-167640033D02*
X237018955Y-167640055D01*
X237018955Y-167640055D02*
X238760055Y-167640055D01*
X240995800Y-157480000D02*
X243952554Y-154523246D01*
X243952554Y-154523246D02*
X243967000Y-154523246D01*
X246804550Y-174117000D02*
X242443000Y-174117000D01*
X242726600Y-166115966D02*
X243742656Y-167132022D01*
X238455800Y-165100000D02*
X239471766Y-166115966D01*
X248539022Y-167132022D02*
X250443978Y-169036980D01*
X250443978Y-169036980D02*
X250443978Y-171317376D01*
X243742656Y-167132022D02*
X248539022Y-167132022D01*
X250443978Y-171317376D02*
X247644376Y-174116978D01*
X246804572Y-174116978D02*
X246804550Y-174117000D01*
X247644376Y-174116978D02*
X246804572Y-174116978D01*
X242443000Y-174117000D02*
X239559999Y-177000001D01*
X239471766Y-166115966D02*
X242726600Y-166115966D01*
X239559999Y-177000001D02*
X238760000Y-177800000D01*
X250164512Y-169122385D02*
X250164512Y-171221489D01*
X237185777Y-166369977D02*
X242621386Y-166369977D01*
X248428160Y-167386033D02*
X250164512Y-169122385D01*
X235915800Y-165100000D02*
X237185777Y-166369977D01*
X242621386Y-166369977D02*
X243637442Y-167386033D01*
X237019999Y-177000001D02*
X236220000Y-177800000D01*
X243637442Y-167386033D02*
X248428160Y-167386033D01*
X250164512Y-171221489D02*
X247523023Y-173862978D01*
X247523023Y-173862978D02*
X240157022Y-173862978D01*
X240157022Y-173862978D02*
X237019999Y-177000001D01*
X244728989Y-174371011D02*
X246909764Y-174371011D01*
X246909764Y-174371011D02*
X246909786Y-174370989D01*
X241300000Y-177800000D02*
X244728989Y-174371011D01*
X247749589Y-174370989D02*
X250697989Y-171422589D01*
X250697989Y-168931766D02*
X248644236Y-166878011D01*
X242127170Y-165100000D02*
X240995800Y-165100000D01*
X246909786Y-174370989D02*
X247749589Y-174370989D01*
X250697989Y-171422589D02*
X250697989Y-168931766D01*
X243905181Y-166878011D02*
X242127170Y-165100000D01*
X248644236Y-166878011D02*
X243905181Y-166878011D01*
X248306819Y-167640044D02*
X249910501Y-169243726D01*
X247417809Y-173608967D02*
X235331033Y-173608967D01*
X242516172Y-166623988D02*
X243532228Y-167640044D01*
X230835800Y-165100000D02*
X232359788Y-166623988D01*
X232359788Y-166623988D02*
X242516172Y-166623988D01*
X249910501Y-169243726D02*
X249910501Y-171116275D01*
X235331033Y-173608967D02*
X231939999Y-177000001D01*
X231939999Y-177000001D02*
X231140000Y-177800000D01*
X243532228Y-167640044D02*
X248306819Y-167640044D01*
X249910501Y-171116275D02*
X247417809Y-173608967D01*
X238315936Y-161734936D02*
X238506000Y-161925000D01*
X238315936Y-161734936D02*
X226883116Y-161734936D01*
X245059800Y-166624000D02*
X243535800Y-165100000D01*
X250952000Y-168783000D02*
X248793000Y-166624000D01*
X247854802Y-174625000D02*
X250952000Y-171527802D01*
X247015000Y-174625000D02*
X247854802Y-174625000D01*
X248793000Y-166624000D02*
X245059800Y-166624000D01*
X243840000Y-177800000D02*
X247015000Y-174625000D01*
X250952000Y-171527802D02*
X250952000Y-168783000D01*
X245275801Y-158279999D02*
X246075800Y-157480000D01*
X216026999Y-160528001D02*
X243027799Y-160528001D01*
X243027799Y-160528001D02*
X245275801Y-158279999D01*
X216026999Y-160528001D02*
X215865422Y-160689578D01*
X215666057Y-160528001D02*
X216026999Y-160528001D01*
X245248630Y-170180000D02*
X242200640Y-167132010D01*
X246380000Y-170180000D02*
X245248630Y-170180000D01*
X242200640Y-167132010D02*
X215540785Y-167132010D01*
X213995000Y-165586224D02*
X213995000Y-162199058D01*
X213995000Y-162199058D02*
X215666057Y-160528001D01*
X215540785Y-167132010D02*
X213995000Y-165586224D01*
X184508200Y-150749000D02*
X187071000Y-150749000D01*
X182902000Y-152355200D02*
X184508200Y-150749000D01*
X247688800Y-157480000D02*
X248615800Y-157480000D01*
X244367400Y-160801400D02*
X216388600Y-160801400D01*
X244367400Y-160801400D02*
X247688800Y-157480000D01*
X216388600Y-160801400D02*
X215773000Y-161417000D01*
X215265000Y-161417000D02*
X214249000Y-162433000D01*
X214249000Y-162433000D02*
X214249000Y-165481000D01*
X214249000Y-165481000D02*
X215645999Y-166877999D01*
X247993000Y-170180000D02*
X248920000Y-170180000D01*
X247002499Y-169189499D02*
X247993000Y-170180000D01*
X244722458Y-169189499D02*
X247002499Y-169189499D01*
X215645999Y-166877999D02*
X242410958Y-166877999D01*
X242410958Y-166877999D02*
X244722458Y-169189499D01*
X215392000Y-161417000D02*
X215265000Y-161417000D01*
X215773000Y-161417000D02*
X215392000Y-161417000D01*
X315087000Y-175133000D02*
X314960000Y-175260000D01*
X315087000Y-171450000D02*
X315087000Y-175133000D01*
X321780001Y-174460001D02*
X322580000Y-175260000D01*
X318667501Y-172490501D02*
X319810501Y-172490501D01*
X319810501Y-172490501D02*
X321780001Y-174460001D01*
X317627000Y-171450000D02*
X318667501Y-172490501D01*
X324320001Y-174460001D02*
X325120000Y-175260000D01*
X322350501Y-172490501D02*
X324320001Y-174460001D01*
X321207501Y-172490501D02*
X322350501Y-172490501D01*
X320167000Y-171450000D02*
X321207501Y-172490501D01*
X331940001Y-174460001D02*
X332740000Y-175260000D01*
X331724031Y-174244031D02*
X331940001Y-174460001D01*
X322707000Y-171450000D02*
X325501031Y-174244031D01*
X325501031Y-174244031D02*
X331724031Y-174244031D01*
X333730501Y-181889499D02*
X332740000Y-182880000D01*
X333730501Y-174809950D02*
X333730501Y-181889499D01*
X332910571Y-173990020D02*
X333730501Y-174809950D01*
X327787020Y-173990020D02*
X332910571Y-173990020D01*
X325247000Y-171450000D02*
X327787020Y-173990020D01*
X333984512Y-183181264D02*
X333015776Y-184150000D01*
X333015776Y-184150000D02*
X326390000Y-184150000D01*
X327787000Y-171450000D02*
X330073011Y-173736011D01*
X330073011Y-173736011D02*
X333015787Y-173736011D01*
X333015787Y-173736011D02*
X333984512Y-174704736D01*
X326390000Y-184150000D02*
X325919999Y-183679999D01*
X333984512Y-174704736D02*
X333984512Y-183181264D01*
X325919999Y-183679999D02*
X325120000Y-182880000D01*
X334264000Y-174625000D02*
X334264000Y-183261000D01*
X333121000Y-173482000D02*
X334264000Y-174625000D01*
X333121000Y-184404000D02*
X324104000Y-184404000D01*
X330327000Y-171450000D02*
X330327000Y-172847000D01*
X334264000Y-183261000D02*
X333121000Y-184404000D01*
X324104000Y-184404000D02*
X322580000Y-182880000D01*
X330962000Y-173482000D02*
X333121000Y-173482000D01*
X330327000Y-172847000D02*
X330962000Y-173482000D01*
X316103000Y-184023000D02*
X314960000Y-182880000D01*
X323215000Y-184023000D02*
X316103000Y-184023000D01*
X336042000Y-184658000D02*
X323850000Y-184658000D01*
X323850000Y-184658000D02*
X323215000Y-184023000D01*
X337058000Y-183642000D02*
X336042000Y-184658000D01*
X337058000Y-175572058D02*
X337058000Y-183642000D01*
X333976443Y-172490501D02*
X337058000Y-175572058D01*
X333907501Y-172490501D02*
X333976443Y-172490501D01*
X332867000Y-171450000D02*
X333907501Y-172490501D01*
X354673000Y-281940000D02*
X355600000Y-281940000D01*
X353682499Y-282930501D02*
X354673000Y-281940000D01*
X350603557Y-282930501D02*
X353682499Y-282930501D01*
X342983557Y-288010501D02*
X345523557Y-288010501D01*
X345523557Y-288010501D02*
X350603557Y-282930501D01*
X340443557Y-290550501D02*
X342983557Y-288010501D01*
X318490501Y-290550501D02*
X340443557Y-290550501D01*
X317500000Y-289560000D02*
X318490501Y-290550501D01*
X386080000Y-175260000D02*
X387858000Y-177038000D01*
X387858000Y-177038000D02*
X397002000Y-177038000D01*
X397002000Y-177038000D02*
X398653000Y-175387000D01*
X361720501Y-88940443D02*
X363458058Y-90678000D01*
X361720501Y-87400501D02*
X361720501Y-88940443D01*
X360680000Y-86360000D02*
X361720501Y-87400501D01*
X397891000Y-90678000D02*
X398653000Y-91440000D01*
X363458058Y-90678000D02*
X397891000Y-90678000D01*
X398653000Y-175387000D02*
X398653000Y-91440000D01*
X343154000Y-93853000D02*
X346329000Y-90678000D01*
X346329000Y-90678000D02*
X358902000Y-90678000D01*
X358902000Y-90678000D02*
X360680000Y-88900000D01*
X343154000Y-165481000D02*
X343154000Y-165735000D01*
X343154000Y-165481000D02*
X343154000Y-93853000D01*
X343154000Y-165735000D02*
X351028000Y-173609000D01*
X353949000Y-173609000D02*
X355600000Y-175260000D01*
X351028000Y-173609000D02*
X353949000Y-173609000D01*
X394690501Y-176250501D02*
X393700000Y-175260000D01*
X396668275Y-176250501D02*
X394690501Y-176250501D01*
X397891000Y-175027776D02*
X396668275Y-176250501D01*
X396748000Y-129540000D02*
X397891000Y-130683000D01*
X397891000Y-130683000D02*
X397891000Y-175027776D01*
X363220000Y-129540000D02*
X396748000Y-129540000D01*
X360680000Y-132080000D02*
X363220000Y-129540000D01*
X359830001Y-135469999D02*
X360680000Y-134620000D01*
X360806978Y-172846978D02*
X351365426Y-172846978D01*
X363220000Y-175260000D02*
X360806978Y-172846978D01*
X343916011Y-165397563D02*
X343916011Y-139064989D01*
X351365426Y-172846978D02*
X343916011Y-165397563D01*
X343916011Y-139064989D02*
X346456000Y-136525000D01*
X358775000Y-136525000D02*
X359830001Y-135469999D01*
X346456000Y-136525000D02*
X358775000Y-136525000D01*
X388620000Y-175260000D02*
X390144000Y-176784000D01*
X390144000Y-176784000D02*
X396875000Y-176784000D01*
X396875000Y-176784000D02*
X398399000Y-175260000D01*
X398399000Y-175260000D02*
X398399000Y-99949000D01*
X398399000Y-99949000D02*
X397510000Y-99060000D01*
X363220000Y-99060000D02*
X360680000Y-101600000D01*
X397510000Y-99060000D02*
X363220000Y-99060000D01*
X343408000Y-108712000D02*
X346202000Y-105918000D01*
X346202000Y-105918000D02*
X358902000Y-105918000D01*
X358902000Y-105918000D02*
X360680000Y-104140000D01*
X358140000Y-175260000D02*
X356235000Y-173355000D01*
X356235000Y-173355000D02*
X351155000Y-173355000D01*
X343408000Y-165608000D02*
X343408000Y-165227000D01*
X351155000Y-173355000D02*
X343408000Y-165608000D01*
X343408000Y-165227000D02*
X343408000Y-108712000D01*
X396240000Y-175260000D02*
X397637000Y-173863000D01*
X397637000Y-173863000D02*
X397637000Y-146050000D01*
X397637000Y-146050000D02*
X396367000Y-144780000D01*
X363220000Y-144780000D02*
X360680000Y-147320000D01*
X396367000Y-144780000D02*
X363220000Y-144780000D01*
X344170022Y-165292349D02*
X351368174Y-172490501D01*
X344170022Y-153669978D02*
X344170022Y-165292349D01*
X358902000Y-151638000D02*
X346202000Y-151638000D01*
X362990501Y-172490501D02*
X364960001Y-174460001D01*
X346202000Y-151638000D02*
X344170022Y-153669978D01*
X360680000Y-149860000D02*
X358902000Y-151638000D01*
X351368174Y-172490501D02*
X362990501Y-172490501D01*
X364960001Y-174460001D02*
X365760000Y-175260000D01*
X391160000Y-175260000D02*
X392430000Y-176530000D01*
X392430000Y-176530000D02*
X396748000Y-176530000D01*
X396748000Y-176530000D02*
X398145000Y-175133000D01*
X398145000Y-175133000D02*
X398145000Y-115189000D01*
X398145000Y-115189000D02*
X397256000Y-114300000D01*
X363220000Y-114300000D02*
X360680000Y-116840000D01*
X397256000Y-114300000D02*
X363220000Y-114300000D01*
X358521000Y-173101000D02*
X359880001Y-174460001D01*
X343662000Y-123825000D02*
X343662000Y-165502776D01*
X343662000Y-165502776D02*
X351260224Y-173101000D01*
X358902000Y-121158000D02*
X346329000Y-121158000D01*
X360680000Y-119380000D02*
X358902000Y-121158000D01*
X346329000Y-121158000D02*
X343662000Y-123825000D01*
X351260224Y-173101000D02*
X358521000Y-173101000D01*
X359880001Y-174460001D02*
X360680000Y-175260000D01*
X367259499Y-171409557D02*
X367259499Y-178410499D01*
X361720501Y-163600501D02*
X361720501Y-165870559D01*
X360680000Y-162560000D02*
X361720501Y-163600501D01*
X361720501Y-165870559D02*
X367259499Y-171409557D01*
X367259499Y-178410499D02*
X369316000Y-180467000D01*
X391287000Y-180467000D02*
X393700000Y-182880000D01*
X369316000Y-180467000D02*
X391287000Y-180467000D01*
X366903000Y-174132942D02*
X364260501Y-171490443D01*
X363220000Y-182880000D02*
X366903000Y-179197000D01*
X364260501Y-171490443D02*
X364260501Y-169882582D01*
X364260501Y-169882582D02*
X360680000Y-166302081D01*
X366903000Y-179197000D02*
X366903000Y-174132942D01*
X360680000Y-166302081D02*
X360680000Y-165100000D01*
X203327000Y-163957000D02*
X203327000Y-177800000D01*
X201930000Y-162560000D02*
X203327000Y-163957000D01*
X200660000Y-162560000D02*
X201930000Y-162560000D01*
X217678000Y-179578000D02*
X215265000Y-181991000D01*
X212378510Y-180120510D02*
X212378510Y-178689000D01*
X246380000Y-177800000D02*
X244602000Y-179578000D01*
X244602000Y-179578000D02*
X217678000Y-179578000D01*
X214249000Y-181991000D02*
X212378510Y-180120510D01*
X215265000Y-181991000D02*
X214249000Y-181991000D01*
X202692000Y-168148000D02*
X200660000Y-170180000D01*
X202692000Y-165862000D02*
X202692000Y-168148000D01*
X217297000Y-176530000D02*
X216789000Y-176022000D01*
X217297000Y-176784000D02*
X217297000Y-176530000D01*
X198628000Y-167132000D02*
X200660000Y-165100000D01*
X198628000Y-172593000D02*
X198628000Y-167132000D01*
X232753000Y-114300000D02*
X233680000Y-114300000D01*
X231762499Y-113309499D02*
X232753000Y-114300000D01*
X209354058Y-114300000D02*
X210344559Y-113309499D01*
X210344559Y-113309499D02*
X231762499Y-113309499D01*
X198120000Y-114300000D02*
X209354058Y-114300000D01*
X192278000Y-237998000D02*
X190500000Y-236220000D01*
X190881000Y-248666000D02*
X192278000Y-247269000D01*
X192278000Y-247269000D02*
X192278000Y-237998000D01*
X183642000Y-254762000D02*
X189738000Y-248666000D01*
X189738000Y-248666000D02*
X190881000Y-248666000D01*
X177546000Y-277109800D02*
X177546000Y-257048000D01*
X179832000Y-254762000D02*
X183642000Y-254762000D01*
X177546000Y-257048000D02*
X179832000Y-254762000D01*
X175255800Y-279400000D02*
X177546000Y-277109800D01*
X190754000Y-248412000D02*
X189611000Y-248412000D01*
X190500000Y-238760000D02*
X192024000Y-240284000D01*
X177292000Y-274823800D02*
X175255800Y-276860000D01*
X192024000Y-247142000D02*
X190754000Y-248412000D01*
X179705000Y-254508000D02*
X177292000Y-256921000D01*
X189611000Y-248412000D02*
X183515000Y-254508000D01*
X177292000Y-256921000D02*
X177292000Y-274823800D01*
X183515000Y-254508000D02*
X179705000Y-254508000D01*
X192024000Y-240284000D02*
X192024000Y-247142000D01*
X177038000Y-256794000D02*
X179578000Y-254254000D01*
X190627000Y-248158000D02*
X191770000Y-247015000D01*
X179578000Y-254254000D02*
X183388000Y-254254000D01*
X191770000Y-242570000D02*
X190500000Y-241300000D01*
X191770000Y-247015000D02*
X191770000Y-242570000D01*
X183388000Y-254254000D02*
X189484000Y-248158000D01*
X175255800Y-274320000D02*
X177038000Y-272537800D01*
X177038000Y-272537800D02*
X177038000Y-256794000D01*
X189484000Y-248158000D02*
X190627000Y-248158000D01*
X176784000Y-256667000D02*
X176784000Y-270251800D01*
X176784000Y-270251800D02*
X175255800Y-271780000D01*
X179451000Y-254000000D02*
X176784000Y-256667000D01*
X183261000Y-254000000D02*
X179451000Y-254000000D01*
X189357000Y-247904000D02*
X183261000Y-254000000D01*
X191490501Y-246855441D02*
X190441942Y-247904000D01*
X191490501Y-244830501D02*
X191490501Y-246855441D01*
X190441942Y-247904000D02*
X189357000Y-247904000D01*
X190500000Y-243840000D02*
X191490501Y-244830501D01*
X190500000Y-246380000D02*
X183134000Y-253746000D01*
X183134000Y-253746000D02*
X179324000Y-253746000D01*
X179324000Y-253746000D02*
X176530000Y-256540000D01*
X176530000Y-267965800D02*
X175255800Y-269240000D01*
X176530000Y-256540000D02*
X176530000Y-267965800D01*
X212598000Y-237998000D02*
X210820000Y-236220000D01*
X211201000Y-248666000D02*
X212598000Y-247269000D01*
X212598000Y-247269000D02*
X212598000Y-237998000D01*
X203962000Y-254762000D02*
X210058000Y-248666000D01*
X210058000Y-248666000D02*
X211201000Y-248666000D01*
X197866000Y-277109800D02*
X197866000Y-257048000D01*
X200152000Y-254762000D02*
X203962000Y-254762000D01*
X197866000Y-257048000D02*
X200152000Y-254762000D01*
X195575800Y-279400000D02*
X197866000Y-277109800D01*
X211074000Y-248412000D02*
X209931000Y-248412000D01*
X210820000Y-238760000D02*
X212344000Y-240284000D01*
X197612000Y-274823800D02*
X195575800Y-276860000D01*
X212344000Y-247142000D02*
X211074000Y-248412000D01*
X200025000Y-254508000D02*
X197612000Y-256921000D01*
X209931000Y-248412000D02*
X203835000Y-254508000D01*
X197612000Y-256921000D02*
X197612000Y-274823800D01*
X203835000Y-254508000D02*
X200025000Y-254508000D01*
X212344000Y-240284000D02*
X212344000Y-247142000D01*
X197358000Y-256794000D02*
X199898000Y-254254000D01*
X210947000Y-248158000D02*
X212090000Y-247015000D01*
X199898000Y-254254000D02*
X203708000Y-254254000D01*
X212090000Y-242570000D02*
X210820000Y-241300000D01*
X212090000Y-247015000D02*
X212090000Y-242570000D01*
X203708000Y-254254000D02*
X209804000Y-248158000D01*
X195575800Y-274320000D02*
X197358000Y-272537800D01*
X197358000Y-272537800D02*
X197358000Y-256794000D01*
X209804000Y-248158000D02*
X210947000Y-248158000D01*
X197104000Y-256667000D02*
X197104000Y-270251800D01*
X197104000Y-270251800D02*
X195575800Y-271780000D01*
X199771000Y-254000000D02*
X197104000Y-256667000D01*
X203581000Y-254000000D02*
X199771000Y-254000000D01*
X209677000Y-247904000D02*
X203581000Y-254000000D01*
X211810501Y-246855441D02*
X210761942Y-247904000D01*
X211810501Y-244830501D02*
X211810501Y-246855441D01*
X210761942Y-247904000D02*
X209677000Y-247904000D01*
X210820000Y-243840000D02*
X211810501Y-244830501D01*
X210820000Y-246380000D02*
X203454000Y-253746000D01*
X203454000Y-253746000D02*
X199644000Y-253746000D01*
X199644000Y-253746000D02*
X196850000Y-256540000D01*
X196850000Y-267965800D02*
X195575800Y-269240000D01*
X196850000Y-256540000D02*
X196850000Y-267965800D01*
X313747000Y-228600000D02*
X312820000Y-228600000D01*
X317531622Y-224815378D02*
X313747000Y-228600000D01*
X347497378Y-224815378D02*
X317531622Y-224815378D01*
X352679000Y-229997000D02*
X347497378Y-224815378D01*
X356216000Y-229997000D02*
X352679000Y-229997000D01*
X357613000Y-228600000D02*
X356216000Y-229997000D01*
X358540000Y-228600000D02*
X357613000Y-228600000D01*
X363620000Y-220980000D02*
X363620000Y-223276877D01*
X363620000Y-223276877D02*
X363596367Y-223300510D01*
X362488630Y-220980000D02*
X358932630Y-224536000D01*
X363620000Y-220980000D02*
X362488630Y-220980000D01*
X358932630Y-224536000D02*
X321456000Y-224536000D01*
X321456000Y-224536000D02*
X317900000Y-220980000D01*
X352549193Y-230251000D02*
X359429000Y-230251000D01*
X360280001Y-229399999D02*
X361080000Y-228600000D01*
X347367581Y-225069389D02*
X352549193Y-230251000D01*
X318890611Y-225069389D02*
X347367581Y-225069389D01*
X359429000Y-230251000D02*
X360280001Y-229399999D01*
X315360000Y-228600000D02*
X318890611Y-225069389D01*
X371221000Y-220999000D02*
X371240000Y-220980000D01*
X371221000Y-224155000D02*
X371221000Y-220999000D01*
X369715978Y-219455978D02*
X370440001Y-220180001D01*
X328313967Y-223773967D02*
X346267358Y-223773967D01*
X346267358Y-223773967D02*
X350585347Y-219455978D01*
X325520000Y-220980000D02*
X328313967Y-223773967D01*
X350585347Y-219455978D02*
X369715978Y-219455978D01*
X370440001Y-220180001D02*
X371240000Y-220980000D01*
X376301000Y-220999000D02*
X376320000Y-220980000D01*
X376301000Y-224790000D02*
X376301000Y-220999000D01*
X330600000Y-220980000D02*
X333139956Y-223519956D01*
X333139956Y-223519956D02*
X346162144Y-223519956D01*
X350480122Y-219201978D02*
X369821203Y-219201978D01*
X369821203Y-219201978D02*
X369821214Y-219201989D01*
X374541989Y-219201989D02*
X375520001Y-220180001D01*
X346162144Y-223519956D02*
X350480122Y-219201978D01*
X375520001Y-220180001D02*
X376320000Y-220980000D01*
X369821214Y-219201989D02*
X374541989Y-219201989D01*
X368681000Y-220999000D02*
X368700000Y-220980000D01*
X368681000Y-225044000D02*
X368681000Y-220999000D01*
X367429989Y-219709989D02*
X350690561Y-219709989D01*
X326027978Y-224027978D02*
X323779999Y-221779999D01*
X368700000Y-220980000D02*
X367429989Y-219709989D01*
X350690561Y-219709989D02*
X346372572Y-224027978D01*
X323779999Y-221779999D02*
X322980000Y-220980000D01*
X346372572Y-224027978D02*
X326027978Y-224027978D01*
X366141000Y-220999000D02*
X366160000Y-220980000D01*
X366141000Y-225298000D02*
X366141000Y-220999000D01*
X323741989Y-224281989D02*
X346477786Y-224281989D01*
X346477786Y-224281989D02*
X350795775Y-219964000D01*
X350795775Y-219964000D02*
X365144000Y-219964000D01*
X365360001Y-220180001D02*
X366160000Y-220980000D01*
X365144000Y-219964000D02*
X365360001Y-220180001D01*
X320440000Y-220980000D02*
X323741989Y-224281989D01*
X352443979Y-230505011D02*
X347262368Y-225323400D01*
X318699999Y-227800001D02*
X317900000Y-228600000D01*
X363620000Y-228600000D02*
X361714989Y-230505011D01*
X347262368Y-225323400D02*
X321176600Y-225323400D01*
X321176600Y-225323400D02*
X318699999Y-227800001D01*
X361714989Y-230505011D02*
X352443979Y-230505011D01*
X352338763Y-230759020D02*
X364000980Y-230759020D01*
X347157154Y-225577411D02*
X352338763Y-230759020D01*
X365360001Y-229399999D02*
X366160000Y-228600000D01*
X364000980Y-230759020D02*
X365360001Y-229399999D01*
X323462589Y-225577411D02*
X347157154Y-225577411D01*
X320440000Y-228600000D02*
X323462589Y-225577411D01*
X366286969Y-231013031D02*
X352233549Y-231013031D01*
X325748578Y-225831422D02*
X323779999Y-227800001D01*
X352233549Y-231013031D02*
X347051940Y-225831422D01*
X368700000Y-228600000D02*
X366286969Y-231013031D01*
X323779999Y-227800001D02*
X322980000Y-228600000D01*
X347051940Y-225831422D02*
X325748578Y-225831422D01*
X352128335Y-231267042D02*
X368572958Y-231267042D01*
X346946726Y-226085433D02*
X352128335Y-231267042D01*
X325520000Y-228600000D02*
X328034567Y-226085433D01*
X328034567Y-226085433D02*
X346946726Y-226085433D01*
X368572958Y-231267042D02*
X370440001Y-229399999D01*
X370440001Y-229399999D02*
X371240000Y-228600000D01*
X352023121Y-231521053D02*
X346841512Y-226339444D01*
X328859999Y-227800001D02*
X328060000Y-228600000D01*
X330320556Y-226339444D02*
X328859999Y-227800001D01*
X346841512Y-226339444D02*
X330320556Y-226339444D01*
X370858947Y-231521053D02*
X352023121Y-231521053D01*
X373780000Y-228600000D02*
X370858947Y-231521053D01*
X375520001Y-229399999D02*
X376320000Y-228600000D01*
X351917907Y-231775064D02*
X373144936Y-231775064D01*
X332606545Y-226593455D02*
X346736298Y-226593455D01*
X330600000Y-228600000D02*
X332606545Y-226593455D01*
X346736298Y-226593455D02*
X351917907Y-231775064D01*
X373144936Y-231775064D02*
X375520001Y-229399999D01*
X346630242Y-226847466D02*
X334892534Y-226847466D01*
X334892534Y-226847466D02*
X333939999Y-227800001D01*
X333939999Y-227800001D02*
X333140000Y-228600000D01*
X378860000Y-228600000D02*
X375430925Y-232029075D01*
X351811851Y-232029075D02*
X346630242Y-226847466D01*
X375430925Y-232029075D02*
X351811851Y-232029075D01*
X351663086Y-232283086D02*
X346481477Y-227101477D01*
X381400000Y-228600000D02*
X377716914Y-232283086D01*
X337178523Y-227101477D02*
X336479999Y-227800001D01*
X346481477Y-227101477D02*
X337178523Y-227101477D01*
X377716914Y-232283086D02*
X351663086Y-232283086D01*
X336479999Y-227800001D02*
X335680000Y-228600000D01*
X380200001Y-188759999D02*
X381000000Y-187960000D01*
X378739499Y-190220501D02*
X380200001Y-188759999D01*
X365480501Y-190220501D02*
X378739499Y-190220501D01*
X363220000Y-187960000D02*
X365480501Y-190220501D01*
X380200001Y-201459999D02*
X381000000Y-200660000D01*
X378739499Y-202920501D02*
X380200001Y-201459999D01*
X365480501Y-202920501D02*
X378739499Y-202920501D01*
X363220000Y-200660000D02*
X365480501Y-202920501D01*
X247929499Y-128629499D02*
X247990001Y-128690001D01*
X247929499Y-115290501D02*
X247929499Y-128629499D01*
X247990001Y-128690001D02*
X248840000Y-129540000D01*
X248920000Y-114300000D02*
X247929499Y-115290501D01*
X250530001Y-128690001D02*
X251380000Y-129540000D01*
X250469499Y-128629499D02*
X250530001Y-128690001D01*
X250469499Y-115290501D02*
X250469499Y-128629499D01*
X251460000Y-114300000D02*
X250469499Y-115290501D01*
X253070001Y-128690001D02*
X253920000Y-129540000D01*
X253009499Y-115290501D02*
X253009499Y-128629499D01*
X253009499Y-128629499D02*
X253070001Y-128690001D01*
X254000000Y-114300000D02*
X253009499Y-115290501D01*
X255610001Y-128690001D02*
X256460000Y-129540000D01*
X255549499Y-115290501D02*
X255549499Y-128629499D01*
X255549499Y-128629499D02*
X255610001Y-128690001D01*
X256540000Y-114300000D02*
X255549499Y-115290501D01*
X258150001Y-128690001D02*
X259000000Y-129540000D01*
X258089499Y-128629499D02*
X258150001Y-128690001D01*
X258089499Y-115290501D02*
X258089499Y-128629499D01*
X259080000Y-114300000D02*
X258089499Y-115290501D01*
X260690001Y-128690001D02*
X261540000Y-129540000D01*
X260629499Y-115290501D02*
X260629499Y-128629499D01*
X260629499Y-128629499D02*
X260690001Y-128690001D01*
X261620000Y-114300000D02*
X260629499Y-115290501D01*
X263230001Y-128690001D02*
X264080000Y-129540000D01*
X263169499Y-128629499D02*
X263230001Y-128690001D01*
X263169499Y-115290501D02*
X263169499Y-128629499D01*
X264160000Y-114300000D02*
X263169499Y-115290501D01*
X265770001Y-128690001D02*
X266620000Y-129540000D01*
X265709499Y-128629499D02*
X265770001Y-128690001D01*
X265709499Y-115290501D02*
X265709499Y-128629499D01*
X266700000Y-114300000D02*
X265709499Y-115290501D01*
X283166500Y-115613500D02*
X283166500Y-116712990D01*
X284480000Y-114300000D02*
X283166500Y-115613500D01*
X283166500Y-116712990D02*
X279060745Y-120818745D01*
X279060745Y-127339255D02*
X279060745Y-120818745D01*
X278638000Y-127762000D02*
X279060745Y-127339255D01*
X273050000Y-127762000D02*
X278638000Y-127762000D01*
X272312501Y-128499499D02*
X273050000Y-127762000D01*
X270200501Y-128499499D02*
X272312501Y-128499499D01*
X269160000Y-129540000D02*
X270200501Y-128499499D01*
X279314756Y-120923958D02*
X279314756Y-127466244D01*
X279314756Y-127466244D02*
X278765000Y-128016000D01*
X272549999Y-128690001D02*
X271700000Y-129540000D01*
X284353000Y-116967000D02*
X283271714Y-116967000D01*
X287020000Y-114300000D02*
X284353000Y-116967000D01*
X273224000Y-128016000D02*
X272549999Y-128690001D01*
X278765000Y-128016000D02*
X273224000Y-128016000D01*
X283271714Y-116967000D02*
X279314756Y-120923958D01*
X289560000Y-114300000D02*
X286638989Y-117221011D01*
X279568767Y-121029171D02*
X279568767Y-127571458D01*
X283376927Y-117221011D02*
X279568767Y-121029171D01*
X275509989Y-128270011D02*
X275089999Y-128690001D01*
X279568767Y-127571458D02*
X278870214Y-128270011D01*
X286638989Y-117221011D02*
X283376927Y-117221011D01*
X278870214Y-128270011D02*
X275509989Y-128270011D01*
X275089999Y-128690001D02*
X274240000Y-129540000D01*
X279822778Y-127698447D02*
X278997214Y-128524011D01*
X283482140Y-117475022D02*
X279822778Y-121134384D01*
X277795989Y-128524011D02*
X277629999Y-128690001D01*
X292100000Y-114300000D02*
X288924978Y-117475022D01*
X288924978Y-117475022D02*
X283482140Y-117475022D01*
X278997214Y-128524011D02*
X277795989Y-128524011D01*
X277629999Y-128690001D02*
X276780000Y-129540000D01*
X279822778Y-121134384D02*
X279822778Y-127698447D01*
X279320000Y-129540000D02*
X280076789Y-128783211D01*
X280076789Y-128783211D02*
X280076789Y-121239597D01*
X293840001Y-115099999D02*
X294640000Y-114300000D01*
X280076789Y-121239597D02*
X283587353Y-117729033D01*
X291210967Y-117729033D02*
X293840001Y-115099999D01*
X283587353Y-117729033D02*
X291210967Y-117729033D01*
X280330800Y-121344810D02*
X280330800Y-128010800D01*
X297180000Y-114300000D02*
X293496956Y-117983044D01*
X283692566Y-117983044D02*
X280330800Y-121344810D01*
X293496956Y-117983044D02*
X283692566Y-117983044D01*
X281010001Y-128690001D02*
X281860000Y-129540000D01*
X280330800Y-128010800D02*
X281010001Y-128690001D01*
X283550001Y-128690001D02*
X284400000Y-129540000D01*
X295782945Y-118237055D02*
X283797779Y-118237055D01*
X299720000Y-114300000D02*
X295782945Y-118237055D01*
X283797779Y-118237055D02*
X280584811Y-121450023D01*
X280584811Y-125724811D02*
X283550001Y-128690001D01*
X280584811Y-121450023D02*
X280584811Y-125724811D01*
X298068934Y-118491066D02*
X283902992Y-118491066D01*
X302260000Y-114300000D02*
X298068934Y-118491066D01*
X280838822Y-123438822D02*
X286090001Y-128690001D01*
X283902992Y-118491066D02*
X280838822Y-121555236D01*
X280838822Y-121555236D02*
X280838822Y-123438822D01*
X286090001Y-128690001D02*
X286940000Y-129540000D01*
M02*
