G04 #@! TF.GenerationSoftware,KiCad,Pcbnew,(5.1.0-0)*
G04 #@! TF.CreationDate,2019-10-13T08:07:34-07:00*
G04 #@! TF.ProjectId,ArduinoSerialCard,41726475-696e-46f5-9365-7269616c4361,rev?*
G04 #@! TF.SameCoordinates,Original*
G04 #@! TF.FileFunction,Legend,Top*
G04 #@! TF.FilePolarity,Positive*
%FSLAX46Y46*%
G04 Gerber Fmt 4.6, Leading zero omitted, Abs format (unit mm)*
G04 Created by KiCad (PCBNEW (5.1.0-0)) date 2019-10-13 08:07:34*
%MOMM*%
%LPD*%
G04 APERTURE LIST*
%ADD10C,0.120000*%
%ADD11C,0.150000*%
G04 APERTURE END LIST*
D10*
X186690000Y-77470000D02*
X186690000Y-78740000D01*
X185420000Y-77470000D02*
X186690000Y-77470000D01*
X136780000Y-79782929D02*
X136780000Y-80237071D01*
X137540000Y-79782929D02*
X137540000Y-80237071D01*
X136780000Y-82322929D02*
X136780000Y-82720000D01*
X137540000Y-82322929D02*
X137540000Y-82720000D01*
X136780000Y-91380000D02*
X136780000Y-85380000D01*
X137540000Y-91380000D02*
X136780000Y-91380000D01*
X137540000Y-85380000D02*
X137540000Y-91380000D01*
X138430000Y-82720000D02*
X138430000Y-85380000D01*
X139320000Y-79782929D02*
X139320000Y-80237071D01*
X140080000Y-79782929D02*
X140080000Y-80237071D01*
X139320000Y-82322929D02*
X139320000Y-82720000D01*
X140080000Y-82322929D02*
X140080000Y-82720000D01*
X139320000Y-91380000D02*
X139320000Y-85380000D01*
X140080000Y-91380000D02*
X139320000Y-91380000D01*
X140080000Y-85380000D02*
X140080000Y-91380000D01*
X140970000Y-82720000D02*
X140970000Y-85380000D01*
X141860000Y-79782929D02*
X141860000Y-80237071D01*
X142620000Y-79782929D02*
X142620000Y-80237071D01*
X141860000Y-82322929D02*
X141860000Y-82720000D01*
X142620000Y-82322929D02*
X142620000Y-82720000D01*
X141860000Y-91380000D02*
X141860000Y-85380000D01*
X142620000Y-91380000D02*
X141860000Y-91380000D01*
X142620000Y-85380000D02*
X142620000Y-91380000D01*
X143510000Y-82720000D02*
X143510000Y-85380000D01*
X144400000Y-79782929D02*
X144400000Y-80237071D01*
X145160000Y-79782929D02*
X145160000Y-80237071D01*
X144400000Y-82322929D02*
X144400000Y-82720000D01*
X145160000Y-82322929D02*
X145160000Y-82720000D01*
X144400000Y-91380000D02*
X144400000Y-85380000D01*
X145160000Y-91380000D02*
X144400000Y-91380000D01*
X145160000Y-85380000D02*
X145160000Y-91380000D01*
X146050000Y-82720000D02*
X146050000Y-85380000D01*
X146940000Y-79782929D02*
X146940000Y-80237071D01*
X147700000Y-79782929D02*
X147700000Y-80237071D01*
X146940000Y-82322929D02*
X146940000Y-82720000D01*
X147700000Y-82322929D02*
X147700000Y-82720000D01*
X146940000Y-91380000D02*
X146940000Y-85380000D01*
X147700000Y-91380000D02*
X146940000Y-91380000D01*
X147700000Y-85380000D02*
X147700000Y-91380000D01*
X148590000Y-82720000D02*
X148590000Y-85380000D01*
X149480000Y-79782929D02*
X149480000Y-80237071D01*
X150240000Y-79782929D02*
X150240000Y-80237071D01*
X149480000Y-82322929D02*
X149480000Y-82720000D01*
X150240000Y-82322929D02*
X150240000Y-82720000D01*
X149480000Y-91380000D02*
X149480000Y-85380000D01*
X150240000Y-91380000D02*
X149480000Y-91380000D01*
X150240000Y-85380000D02*
X150240000Y-91380000D01*
X151130000Y-82720000D02*
X151130000Y-85380000D01*
X152020000Y-79782929D02*
X152020000Y-80237071D01*
X152780000Y-79782929D02*
X152780000Y-80237071D01*
X152020000Y-82322929D02*
X152020000Y-82720000D01*
X152780000Y-82322929D02*
X152780000Y-82720000D01*
X152020000Y-91380000D02*
X152020000Y-85380000D01*
X152780000Y-91380000D02*
X152020000Y-91380000D01*
X152780000Y-85380000D02*
X152780000Y-91380000D01*
X153670000Y-82720000D02*
X153670000Y-85380000D01*
X154560000Y-79782929D02*
X154560000Y-80237071D01*
X155320000Y-79782929D02*
X155320000Y-80237071D01*
X154560000Y-82322929D02*
X154560000Y-82720000D01*
X155320000Y-82322929D02*
X155320000Y-82720000D01*
X154560000Y-91380000D02*
X154560000Y-85380000D01*
X155320000Y-91380000D02*
X154560000Y-91380000D01*
X155320000Y-85380000D02*
X155320000Y-91380000D01*
X156210000Y-82720000D02*
X156210000Y-85380000D01*
X157100000Y-79782929D02*
X157100000Y-80237071D01*
X157860000Y-79782929D02*
X157860000Y-80237071D01*
X157100000Y-82322929D02*
X157100000Y-82720000D01*
X157860000Y-82322929D02*
X157860000Y-82720000D01*
X157100000Y-91380000D02*
X157100000Y-85380000D01*
X157860000Y-91380000D02*
X157100000Y-91380000D01*
X157860000Y-85380000D02*
X157860000Y-91380000D01*
X158750000Y-82720000D02*
X158750000Y-85380000D01*
X159640000Y-79782929D02*
X159640000Y-80237071D01*
X160400000Y-79782929D02*
X160400000Y-80237071D01*
X159640000Y-82322929D02*
X159640000Y-82720000D01*
X160400000Y-82322929D02*
X160400000Y-82720000D01*
X159640000Y-91380000D02*
X159640000Y-85380000D01*
X160400000Y-91380000D02*
X159640000Y-91380000D01*
X160400000Y-85380000D02*
X160400000Y-91380000D01*
X161290000Y-82720000D02*
X161290000Y-85380000D01*
X162180000Y-79782929D02*
X162180000Y-80237071D01*
X162940000Y-79782929D02*
X162940000Y-80237071D01*
X162180000Y-82322929D02*
X162180000Y-82720000D01*
X162940000Y-82322929D02*
X162940000Y-82720000D01*
X162180000Y-91380000D02*
X162180000Y-85380000D01*
X162940000Y-91380000D02*
X162180000Y-91380000D01*
X162940000Y-85380000D02*
X162940000Y-91380000D01*
X163830000Y-82720000D02*
X163830000Y-85380000D01*
X164720000Y-79782929D02*
X164720000Y-80237071D01*
X165480000Y-79782929D02*
X165480000Y-80237071D01*
X164720000Y-82322929D02*
X164720000Y-82720000D01*
X165480000Y-82322929D02*
X165480000Y-82720000D01*
X164720000Y-91380000D02*
X164720000Y-85380000D01*
X165480000Y-91380000D02*
X164720000Y-91380000D01*
X165480000Y-85380000D02*
X165480000Y-91380000D01*
X166370000Y-82720000D02*
X166370000Y-85380000D01*
X167260000Y-79782929D02*
X167260000Y-80237071D01*
X168020000Y-79782929D02*
X168020000Y-80237071D01*
X167260000Y-82322929D02*
X167260000Y-82720000D01*
X168020000Y-82322929D02*
X168020000Y-82720000D01*
X167260000Y-91380000D02*
X167260000Y-85380000D01*
X168020000Y-91380000D02*
X167260000Y-91380000D01*
X168020000Y-85380000D02*
X168020000Y-91380000D01*
X168910000Y-82720000D02*
X168910000Y-85380000D01*
X169800000Y-79782929D02*
X169800000Y-80237071D01*
X170560000Y-79782929D02*
X170560000Y-80237071D01*
X169800000Y-82322929D02*
X169800000Y-82720000D01*
X170560000Y-82322929D02*
X170560000Y-82720000D01*
X169800000Y-91380000D02*
X169800000Y-85380000D01*
X170560000Y-91380000D02*
X169800000Y-91380000D01*
X170560000Y-85380000D02*
X170560000Y-91380000D01*
X171450000Y-82720000D02*
X171450000Y-85380000D01*
X172340000Y-79782929D02*
X172340000Y-80237071D01*
X173100000Y-79782929D02*
X173100000Y-80237071D01*
X172340000Y-82322929D02*
X172340000Y-82720000D01*
X173100000Y-82322929D02*
X173100000Y-82720000D01*
X172340000Y-91380000D02*
X172340000Y-85380000D01*
X173100000Y-91380000D02*
X172340000Y-91380000D01*
X173100000Y-85380000D02*
X173100000Y-91380000D01*
X173990000Y-82720000D02*
X173990000Y-85380000D01*
X174880000Y-79782929D02*
X174880000Y-80237071D01*
X175640000Y-79782929D02*
X175640000Y-80237071D01*
X174880000Y-82322929D02*
X174880000Y-82720000D01*
X175640000Y-82322929D02*
X175640000Y-82720000D01*
X174880000Y-91380000D02*
X174880000Y-85380000D01*
X175640000Y-91380000D02*
X174880000Y-91380000D01*
X175640000Y-85380000D02*
X175640000Y-91380000D01*
X176530000Y-82720000D02*
X176530000Y-85380000D01*
X177420000Y-79782929D02*
X177420000Y-80237071D01*
X178180000Y-79782929D02*
X178180000Y-80237071D01*
X177420000Y-82322929D02*
X177420000Y-82720000D01*
X178180000Y-82322929D02*
X178180000Y-82720000D01*
X177420000Y-91380000D02*
X177420000Y-85380000D01*
X178180000Y-91380000D02*
X177420000Y-91380000D01*
X178180000Y-85380000D02*
X178180000Y-91380000D01*
X179070000Y-82720000D02*
X179070000Y-85380000D01*
X179960000Y-79782929D02*
X179960000Y-80237071D01*
X180720000Y-79782929D02*
X180720000Y-80237071D01*
X179960000Y-82322929D02*
X179960000Y-82720000D01*
X180720000Y-82322929D02*
X180720000Y-82720000D01*
X179960000Y-91380000D02*
X179960000Y-85380000D01*
X180720000Y-91380000D02*
X179960000Y-91380000D01*
X180720000Y-85380000D02*
X180720000Y-91380000D01*
X181610000Y-82720000D02*
X181610000Y-85380000D01*
X182500000Y-79782929D02*
X182500000Y-80237071D01*
X183260000Y-79782929D02*
X183260000Y-80237071D01*
X182500000Y-82322929D02*
X182500000Y-82720000D01*
X183260000Y-82322929D02*
X183260000Y-82720000D01*
X182500000Y-91380000D02*
X182500000Y-85380000D01*
X183260000Y-91380000D02*
X182500000Y-91380000D01*
X183260000Y-85380000D02*
X183260000Y-91380000D01*
X184150000Y-82720000D02*
X184150000Y-85380000D01*
X185040000Y-79850000D02*
X185040000Y-80237071D01*
X185800000Y-79850000D02*
X185800000Y-80237071D01*
X185040000Y-82322929D02*
X185040000Y-82720000D01*
X185800000Y-82322929D02*
X185800000Y-82720000D01*
X185140000Y-85380000D02*
X185140000Y-91380000D01*
X185260000Y-85380000D02*
X185260000Y-91380000D01*
X185380000Y-85380000D02*
X185380000Y-91380000D01*
X185500000Y-85380000D02*
X185500000Y-91380000D01*
X185620000Y-85380000D02*
X185620000Y-91380000D01*
X185740000Y-85380000D02*
X185740000Y-91380000D01*
X185040000Y-91380000D02*
X185040000Y-85380000D01*
X185800000Y-91380000D02*
X185040000Y-91380000D01*
X185800000Y-85380000D02*
X185800000Y-91380000D01*
X186750000Y-85380000D02*
X186750000Y-82720000D01*
X135830000Y-85380000D02*
X186750000Y-85380000D01*
X135830000Y-82720000D02*
X135830000Y-85380000D01*
X186750000Y-82720000D02*
X135830000Y-82720000D01*
X143380000Y-57020000D02*
X143380000Y-75060000D01*
X186820000Y-57020000D02*
X143380000Y-57020000D01*
X186820000Y-75060000D02*
X186820000Y-57020000D01*
X184150000Y-72390000D02*
X184150000Y-75060000D01*
X148590000Y-72390000D02*
X184150000Y-72390000D01*
X148590000Y-72390000D02*
X148590000Y-75060000D01*
X184150000Y-59690000D02*
X184150000Y-57020000D01*
X146050000Y-59690000D02*
X184150000Y-59690000D01*
X146050000Y-59690000D02*
X146050000Y-57020000D01*
X143380000Y-75060000D02*
X146050000Y-75060000D01*
X148590000Y-75060000D02*
X186820000Y-75060000D01*
X146050000Y-72390000D02*
X146050000Y-75060000D01*
X148590000Y-72390000D02*
X146050000Y-72390000D01*
D11*
X187142380Y-84728333D02*
X187856666Y-84728333D01*
X187999523Y-84775952D01*
X188094761Y-84871190D01*
X188142380Y-85014047D01*
X188142380Y-85109285D01*
X188142380Y-83728333D02*
X188142380Y-84299761D01*
X188142380Y-84014047D02*
X187142380Y-84014047D01*
X187285238Y-84109285D01*
X187380476Y-84204523D01*
X187428095Y-84299761D01*
X142406666Y-66754285D02*
X142406666Y-66278095D01*
X142692380Y-66849523D02*
X141692380Y-66516190D01*
X142692380Y-66182857D01*
X142692380Y-65325714D02*
X142692380Y-65897142D01*
X142692380Y-65611428D02*
X141692380Y-65611428D01*
X141835238Y-65706666D01*
X141930476Y-65801904D01*
X141978095Y-65897142D01*
M02*
