M48
; DRILL file {KiCad (5.1.0-0)} date Sunday, October 13, 2019 at 08:07:32 AM
; FORMAT={-:-/ absolute / inch / decimal}
; #@! TF.CreationDate,2019-10-13T08:07:32-07:00
; #@! TF.GenerationSoftware,Kicad,Pcbnew,(5.1.0-0)
FMAT,2
INCH
T1C0.0315
T2C0.0394
%
G90
G05
T1
X5.8Y-2.3
X5.8Y-2.9
X5.9Y-2.3
X5.9Y-2.9
X6.0Y-2.3
X6.0Y-2.9
X6.1Y-2.3
X6.1Y-2.9
X6.2Y-2.3
X6.2Y-2.9
X6.3Y-2.3
X6.3Y-2.9
X6.4Y-2.3
X6.4Y-2.9
X6.5Y-2.3
X6.5Y-2.9
X6.6Y-2.3
X6.6Y-2.9
X6.7Y-2.3
X6.7Y-2.9
X6.8Y-2.3
X6.8Y-2.9
X6.9Y-2.3
X6.9Y-2.9
X7.0Y-2.3
X7.0Y-2.9
X7.1Y-2.3
X7.1Y-2.9
X7.2Y-2.3
X7.2Y-2.9
T2
X5.4Y-3.1
X5.4Y-3.2
X5.5Y-3.1
X5.5Y-3.2
X5.6Y-3.1
X5.6Y-3.2
X5.7Y-3.1
X5.7Y-3.2
X5.8Y-3.1
X5.8Y-3.2
X5.9Y-3.1
X5.9Y-3.2
X6.0Y-3.1
X6.0Y-3.2
X6.1Y-3.1
X6.1Y-3.2
X6.2Y-3.1
X6.2Y-3.2
X6.3Y-3.1
X6.3Y-3.2
X6.4Y-3.1
X6.4Y-3.2
X6.5Y-3.1
X6.5Y-3.2
X6.6Y-3.1
X6.6Y-3.2
X6.7Y-3.1
X6.7Y-3.2
X6.8Y-3.1
X6.8Y-3.2
X6.9Y-3.1
X6.9Y-3.2
X7.0Y-3.1
X7.0Y-3.2
X7.1Y-3.1
X7.1Y-3.2
X7.2Y-3.1
X7.2Y-3.2
X7.3Y-3.1
X7.3Y-3.2
T0
M30
