G04 #@! TF.GenerationSoftware,KiCad,Pcbnew,(5.1.0-0)*
G04 #@! TF.CreationDate,2019-11-12T00:37:01-08:00*
G04 #@! TF.ProjectId,ArduinoSerialCard,41726475-696e-46f5-9365-7269616c4361,rev?*
G04 #@! TF.SameCoordinates,Original*
G04 #@! TF.FileFunction,Soldermask,Bot*
G04 #@! TF.FilePolarity,Negative*
%FSLAX46Y46*%
G04 Gerber Fmt 4.6, Leading zero omitted, Abs format (unit mm)*
G04 Created by KiCad (PCBNEW (5.1.0-0)) date 2019-11-12 00:37:01*
%MOMM*%
%LPD*%
G04 APERTURE LIST*
%ADD10C,0.100000*%
G04 APERTURE END LIST*
D10*
G36*
X143141000Y-112661000D02*
G01*
X141339000Y-112661000D01*
X141339000Y-110859000D01*
X143141000Y-110859000D01*
X143141000Y-112661000D01*
X143141000Y-112661000D01*
G37*
G36*
X139810442Y-110865518D02*
G01*
X139876627Y-110872037D01*
X140046466Y-110923557D01*
X140202991Y-111007222D01*
X140238729Y-111036552D01*
X140340186Y-111119814D01*
X140423448Y-111221271D01*
X140452778Y-111257009D01*
X140536443Y-111413534D01*
X140587963Y-111583373D01*
X140605359Y-111760000D01*
X140587963Y-111936627D01*
X140536443Y-112106466D01*
X140452778Y-112262991D01*
X140423448Y-112298729D01*
X140340186Y-112400186D01*
X140238729Y-112483448D01*
X140202991Y-112512778D01*
X140046466Y-112596443D01*
X139876627Y-112647963D01*
X139810442Y-112654482D01*
X139744260Y-112661000D01*
X139655740Y-112661000D01*
X139589558Y-112654482D01*
X139523373Y-112647963D01*
X139353534Y-112596443D01*
X139197009Y-112512778D01*
X139161271Y-112483448D01*
X139059814Y-112400186D01*
X138976552Y-112298729D01*
X138947222Y-112262991D01*
X138863557Y-112106466D01*
X138812037Y-111936627D01*
X138794641Y-111760000D01*
X138812037Y-111583373D01*
X138863557Y-111413534D01*
X138947222Y-111257009D01*
X138976552Y-111221271D01*
X139059814Y-111119814D01*
X139161271Y-111036552D01*
X139197009Y-111007222D01*
X139353534Y-110923557D01*
X139523373Y-110872037D01*
X139589558Y-110865518D01*
X139655740Y-110859000D01*
X139744260Y-110859000D01*
X139810442Y-110865518D01*
X139810442Y-110865518D01*
G37*
G36*
X137270442Y-110865518D02*
G01*
X137336627Y-110872037D01*
X137506466Y-110923557D01*
X137662991Y-111007222D01*
X137698729Y-111036552D01*
X137800186Y-111119814D01*
X137883448Y-111221271D01*
X137912778Y-111257009D01*
X137996443Y-111413534D01*
X138047963Y-111583373D01*
X138065359Y-111760000D01*
X138047963Y-111936627D01*
X137996443Y-112106466D01*
X137912778Y-112262991D01*
X137883448Y-112298729D01*
X137800186Y-112400186D01*
X137698729Y-112483448D01*
X137662991Y-112512778D01*
X137506466Y-112596443D01*
X137336627Y-112647963D01*
X137270442Y-112654482D01*
X137204260Y-112661000D01*
X137115740Y-112661000D01*
X137049558Y-112654482D01*
X136983373Y-112647963D01*
X136813534Y-112596443D01*
X136657009Y-112512778D01*
X136621271Y-112483448D01*
X136519814Y-112400186D01*
X136436552Y-112298729D01*
X136407222Y-112262991D01*
X136323557Y-112106466D01*
X136272037Y-111936627D01*
X136254641Y-111760000D01*
X136272037Y-111583373D01*
X136323557Y-111413534D01*
X136407222Y-111257009D01*
X136436552Y-111221271D01*
X136519814Y-111119814D01*
X136621271Y-111036552D01*
X136657009Y-111007222D01*
X136813534Y-110923557D01*
X136983373Y-110872037D01*
X137049558Y-110865518D01*
X137115740Y-110859000D01*
X137204260Y-110859000D01*
X137270442Y-110865518D01*
X137270442Y-110865518D01*
G37*
G36*
X134730442Y-110865518D02*
G01*
X134796627Y-110872037D01*
X134966466Y-110923557D01*
X135122991Y-111007222D01*
X135158729Y-111036552D01*
X135260186Y-111119814D01*
X135343448Y-111221271D01*
X135372778Y-111257009D01*
X135456443Y-111413534D01*
X135507963Y-111583373D01*
X135525359Y-111760000D01*
X135507963Y-111936627D01*
X135456443Y-112106466D01*
X135372778Y-112262991D01*
X135343448Y-112298729D01*
X135260186Y-112400186D01*
X135158729Y-112483448D01*
X135122991Y-112512778D01*
X134966466Y-112596443D01*
X134796627Y-112647963D01*
X134730442Y-112654482D01*
X134664260Y-112661000D01*
X134575740Y-112661000D01*
X134509558Y-112654482D01*
X134443373Y-112647963D01*
X134273534Y-112596443D01*
X134117009Y-112512778D01*
X134081271Y-112483448D01*
X133979814Y-112400186D01*
X133896552Y-112298729D01*
X133867222Y-112262991D01*
X133783557Y-112106466D01*
X133732037Y-111936627D01*
X133714641Y-111760000D01*
X133732037Y-111583373D01*
X133783557Y-111413534D01*
X133867222Y-111257009D01*
X133896552Y-111221271D01*
X133979814Y-111119814D01*
X134081271Y-111036552D01*
X134117009Y-111007222D01*
X134273534Y-110923557D01*
X134443373Y-110872037D01*
X134509558Y-110865518D01*
X134575740Y-110859000D01*
X134664260Y-110859000D01*
X134730442Y-110865518D01*
X134730442Y-110865518D01*
G37*
G36*
X132190442Y-110865518D02*
G01*
X132256627Y-110872037D01*
X132426466Y-110923557D01*
X132582991Y-111007222D01*
X132618729Y-111036552D01*
X132720186Y-111119814D01*
X132803448Y-111221271D01*
X132832778Y-111257009D01*
X132916443Y-111413534D01*
X132967963Y-111583373D01*
X132985359Y-111760000D01*
X132967963Y-111936627D01*
X132916443Y-112106466D01*
X132832778Y-112262991D01*
X132803448Y-112298729D01*
X132720186Y-112400186D01*
X132618729Y-112483448D01*
X132582991Y-112512778D01*
X132426466Y-112596443D01*
X132256627Y-112647963D01*
X132190442Y-112654482D01*
X132124260Y-112661000D01*
X132035740Y-112661000D01*
X131969558Y-112654482D01*
X131903373Y-112647963D01*
X131733534Y-112596443D01*
X131577009Y-112512778D01*
X131541271Y-112483448D01*
X131439814Y-112400186D01*
X131356552Y-112298729D01*
X131327222Y-112262991D01*
X131243557Y-112106466D01*
X131192037Y-111936627D01*
X131174641Y-111760000D01*
X131192037Y-111583373D01*
X131243557Y-111413534D01*
X131327222Y-111257009D01*
X131356552Y-111221271D01*
X131439814Y-111119814D01*
X131541271Y-111036552D01*
X131577009Y-111007222D01*
X131733534Y-110923557D01*
X131903373Y-110872037D01*
X131969558Y-110865518D01*
X132035740Y-110859000D01*
X132124260Y-110859000D01*
X132190442Y-110865518D01*
X132190442Y-110865518D01*
G37*
G36*
X129650442Y-110865518D02*
G01*
X129716627Y-110872037D01*
X129886466Y-110923557D01*
X130042991Y-111007222D01*
X130078729Y-111036552D01*
X130180186Y-111119814D01*
X130263448Y-111221271D01*
X130292778Y-111257009D01*
X130376443Y-111413534D01*
X130427963Y-111583373D01*
X130445359Y-111760000D01*
X130427963Y-111936627D01*
X130376443Y-112106466D01*
X130292778Y-112262991D01*
X130263448Y-112298729D01*
X130180186Y-112400186D01*
X130078729Y-112483448D01*
X130042991Y-112512778D01*
X129886466Y-112596443D01*
X129716627Y-112647963D01*
X129650442Y-112654482D01*
X129584260Y-112661000D01*
X129495740Y-112661000D01*
X129429558Y-112654482D01*
X129363373Y-112647963D01*
X129193534Y-112596443D01*
X129037009Y-112512778D01*
X129001271Y-112483448D01*
X128899814Y-112400186D01*
X128816552Y-112298729D01*
X128787222Y-112262991D01*
X128703557Y-112106466D01*
X128652037Y-111936627D01*
X128634641Y-111760000D01*
X128652037Y-111583373D01*
X128703557Y-111413534D01*
X128787222Y-111257009D01*
X128816552Y-111221271D01*
X128899814Y-111119814D01*
X129001271Y-111036552D01*
X129037009Y-111007222D01*
X129193534Y-110923557D01*
X129363373Y-110872037D01*
X129429558Y-110865518D01*
X129495740Y-110859000D01*
X129584260Y-110859000D01*
X129650442Y-110865518D01*
X129650442Y-110865518D01*
G37*
G36*
X127110442Y-110865518D02*
G01*
X127176627Y-110872037D01*
X127346466Y-110923557D01*
X127502991Y-111007222D01*
X127538729Y-111036552D01*
X127640186Y-111119814D01*
X127723448Y-111221271D01*
X127752778Y-111257009D01*
X127836443Y-111413534D01*
X127887963Y-111583373D01*
X127905359Y-111760000D01*
X127887963Y-111936627D01*
X127836443Y-112106466D01*
X127752778Y-112262991D01*
X127723448Y-112298729D01*
X127640186Y-112400186D01*
X127538729Y-112483448D01*
X127502991Y-112512778D01*
X127346466Y-112596443D01*
X127176627Y-112647963D01*
X127110442Y-112654482D01*
X127044260Y-112661000D01*
X126955740Y-112661000D01*
X126889558Y-112654482D01*
X126823373Y-112647963D01*
X126653534Y-112596443D01*
X126497009Y-112512778D01*
X126461271Y-112483448D01*
X126359814Y-112400186D01*
X126276552Y-112298729D01*
X126247222Y-112262991D01*
X126163557Y-112106466D01*
X126112037Y-111936627D01*
X126094641Y-111760000D01*
X126112037Y-111583373D01*
X126163557Y-111413534D01*
X126247222Y-111257009D01*
X126276552Y-111221271D01*
X126359814Y-111119814D01*
X126461271Y-111036552D01*
X126497009Y-111007222D01*
X126653534Y-110923557D01*
X126823373Y-110872037D01*
X126889558Y-110865518D01*
X126955740Y-110859000D01*
X127044260Y-110859000D01*
X127110442Y-110865518D01*
X127110442Y-110865518D01*
G37*
G36*
X124570442Y-110865518D02*
G01*
X124636627Y-110872037D01*
X124806466Y-110923557D01*
X124962991Y-111007222D01*
X124998729Y-111036552D01*
X125100186Y-111119814D01*
X125183448Y-111221271D01*
X125212778Y-111257009D01*
X125296443Y-111413534D01*
X125347963Y-111583373D01*
X125365359Y-111760000D01*
X125347963Y-111936627D01*
X125296443Y-112106466D01*
X125212778Y-112262991D01*
X125183448Y-112298729D01*
X125100186Y-112400186D01*
X124998729Y-112483448D01*
X124962991Y-112512778D01*
X124806466Y-112596443D01*
X124636627Y-112647963D01*
X124570442Y-112654482D01*
X124504260Y-112661000D01*
X124415740Y-112661000D01*
X124349558Y-112654482D01*
X124283373Y-112647963D01*
X124113534Y-112596443D01*
X123957009Y-112512778D01*
X123921271Y-112483448D01*
X123819814Y-112400186D01*
X123736552Y-112298729D01*
X123707222Y-112262991D01*
X123623557Y-112106466D01*
X123572037Y-111936627D01*
X123554641Y-111760000D01*
X123572037Y-111583373D01*
X123623557Y-111413534D01*
X123707222Y-111257009D01*
X123736552Y-111221271D01*
X123819814Y-111119814D01*
X123921271Y-111036552D01*
X123957009Y-111007222D01*
X124113534Y-110923557D01*
X124283373Y-110872037D01*
X124349558Y-110865518D01*
X124415740Y-110859000D01*
X124504260Y-110859000D01*
X124570442Y-110865518D01*
X124570442Y-110865518D01*
G37*
G36*
X122030442Y-110865518D02*
G01*
X122096627Y-110872037D01*
X122266466Y-110923557D01*
X122422991Y-111007222D01*
X122458729Y-111036552D01*
X122560186Y-111119814D01*
X122643448Y-111221271D01*
X122672778Y-111257009D01*
X122756443Y-111413534D01*
X122807963Y-111583373D01*
X122825359Y-111760000D01*
X122807963Y-111936627D01*
X122756443Y-112106466D01*
X122672778Y-112262991D01*
X122643448Y-112298729D01*
X122560186Y-112400186D01*
X122458729Y-112483448D01*
X122422991Y-112512778D01*
X122266466Y-112596443D01*
X122096627Y-112647963D01*
X122030442Y-112654482D01*
X121964260Y-112661000D01*
X121875740Y-112661000D01*
X121809558Y-112654482D01*
X121743373Y-112647963D01*
X121573534Y-112596443D01*
X121417009Y-112512778D01*
X121381271Y-112483448D01*
X121279814Y-112400186D01*
X121196552Y-112298729D01*
X121167222Y-112262991D01*
X121083557Y-112106466D01*
X121032037Y-111936627D01*
X121014641Y-111760000D01*
X121032037Y-111583373D01*
X121083557Y-111413534D01*
X121167222Y-111257009D01*
X121196552Y-111221271D01*
X121279814Y-111119814D01*
X121381271Y-111036552D01*
X121417009Y-111007222D01*
X121573534Y-110923557D01*
X121743373Y-110872037D01*
X121809558Y-110865518D01*
X121875740Y-110859000D01*
X121964260Y-110859000D01*
X122030442Y-110865518D01*
X122030442Y-110865518D01*
G37*
G36*
X119490442Y-110865518D02*
G01*
X119556627Y-110872037D01*
X119726466Y-110923557D01*
X119882991Y-111007222D01*
X119918729Y-111036552D01*
X120020186Y-111119814D01*
X120103448Y-111221271D01*
X120132778Y-111257009D01*
X120216443Y-111413534D01*
X120267963Y-111583373D01*
X120285359Y-111760000D01*
X120267963Y-111936627D01*
X120216443Y-112106466D01*
X120132778Y-112262991D01*
X120103448Y-112298729D01*
X120020186Y-112400186D01*
X119918729Y-112483448D01*
X119882991Y-112512778D01*
X119726466Y-112596443D01*
X119556627Y-112647963D01*
X119490442Y-112654482D01*
X119424260Y-112661000D01*
X119335740Y-112661000D01*
X119269558Y-112654482D01*
X119203373Y-112647963D01*
X119033534Y-112596443D01*
X118877009Y-112512778D01*
X118841271Y-112483448D01*
X118739814Y-112400186D01*
X118656552Y-112298729D01*
X118627222Y-112262991D01*
X118543557Y-112106466D01*
X118492037Y-111936627D01*
X118474641Y-111760000D01*
X118492037Y-111583373D01*
X118543557Y-111413534D01*
X118627222Y-111257009D01*
X118656552Y-111221271D01*
X118739814Y-111119814D01*
X118841271Y-111036552D01*
X118877009Y-111007222D01*
X119033534Y-110923557D01*
X119203373Y-110872037D01*
X119269558Y-110865518D01*
X119335740Y-110859000D01*
X119424260Y-110859000D01*
X119490442Y-110865518D01*
X119490442Y-110865518D01*
G37*
G36*
X116950442Y-110865518D02*
G01*
X117016627Y-110872037D01*
X117186466Y-110923557D01*
X117342991Y-111007222D01*
X117378729Y-111036552D01*
X117480186Y-111119814D01*
X117563448Y-111221271D01*
X117592778Y-111257009D01*
X117676443Y-111413534D01*
X117727963Y-111583373D01*
X117745359Y-111760000D01*
X117727963Y-111936627D01*
X117676443Y-112106466D01*
X117592778Y-112262991D01*
X117563448Y-112298729D01*
X117480186Y-112400186D01*
X117378729Y-112483448D01*
X117342991Y-112512778D01*
X117186466Y-112596443D01*
X117016627Y-112647963D01*
X116950442Y-112654482D01*
X116884260Y-112661000D01*
X116795740Y-112661000D01*
X116729558Y-112654482D01*
X116663373Y-112647963D01*
X116493534Y-112596443D01*
X116337009Y-112512778D01*
X116301271Y-112483448D01*
X116199814Y-112400186D01*
X116116552Y-112298729D01*
X116087222Y-112262991D01*
X116003557Y-112106466D01*
X115952037Y-111936627D01*
X115934641Y-111760000D01*
X115952037Y-111583373D01*
X116003557Y-111413534D01*
X116087222Y-111257009D01*
X116116552Y-111221271D01*
X116199814Y-111119814D01*
X116301271Y-111036552D01*
X116337009Y-111007222D01*
X116493534Y-110923557D01*
X116663373Y-110872037D01*
X116729558Y-110865518D01*
X116795740Y-110859000D01*
X116884260Y-110859000D01*
X116950442Y-110865518D01*
X116950442Y-110865518D01*
G37*
G36*
X114410442Y-110865518D02*
G01*
X114476627Y-110872037D01*
X114646466Y-110923557D01*
X114802991Y-111007222D01*
X114838729Y-111036552D01*
X114940186Y-111119814D01*
X115023448Y-111221271D01*
X115052778Y-111257009D01*
X115136443Y-111413534D01*
X115187963Y-111583373D01*
X115205359Y-111760000D01*
X115187963Y-111936627D01*
X115136443Y-112106466D01*
X115052778Y-112262991D01*
X115023448Y-112298729D01*
X114940186Y-112400186D01*
X114838729Y-112483448D01*
X114802991Y-112512778D01*
X114646466Y-112596443D01*
X114476627Y-112647963D01*
X114410442Y-112654482D01*
X114344260Y-112661000D01*
X114255740Y-112661000D01*
X114189558Y-112654482D01*
X114123373Y-112647963D01*
X113953534Y-112596443D01*
X113797009Y-112512778D01*
X113761271Y-112483448D01*
X113659814Y-112400186D01*
X113576552Y-112298729D01*
X113547222Y-112262991D01*
X113463557Y-112106466D01*
X113412037Y-111936627D01*
X113394641Y-111760000D01*
X113412037Y-111583373D01*
X113463557Y-111413534D01*
X113547222Y-111257009D01*
X113576552Y-111221271D01*
X113659814Y-111119814D01*
X113761271Y-111036552D01*
X113797009Y-111007222D01*
X113953534Y-110923557D01*
X114123373Y-110872037D01*
X114189558Y-110865518D01*
X114255740Y-110859000D01*
X114344260Y-110859000D01*
X114410442Y-110865518D01*
X114410442Y-110865518D01*
G37*
G36*
X111870442Y-110865518D02*
G01*
X111936627Y-110872037D01*
X112106466Y-110923557D01*
X112262991Y-111007222D01*
X112298729Y-111036552D01*
X112400186Y-111119814D01*
X112483448Y-111221271D01*
X112512778Y-111257009D01*
X112596443Y-111413534D01*
X112647963Y-111583373D01*
X112665359Y-111760000D01*
X112647963Y-111936627D01*
X112596443Y-112106466D01*
X112512778Y-112262991D01*
X112483448Y-112298729D01*
X112400186Y-112400186D01*
X112298729Y-112483448D01*
X112262991Y-112512778D01*
X112106466Y-112596443D01*
X111936627Y-112647963D01*
X111870442Y-112654482D01*
X111804260Y-112661000D01*
X111715740Y-112661000D01*
X111649558Y-112654482D01*
X111583373Y-112647963D01*
X111413534Y-112596443D01*
X111257009Y-112512778D01*
X111221271Y-112483448D01*
X111119814Y-112400186D01*
X111036552Y-112298729D01*
X111007222Y-112262991D01*
X110923557Y-112106466D01*
X110872037Y-111936627D01*
X110854641Y-111760000D01*
X110872037Y-111583373D01*
X110923557Y-111413534D01*
X111007222Y-111257009D01*
X111036552Y-111221271D01*
X111119814Y-111119814D01*
X111221271Y-111036552D01*
X111257009Y-111007222D01*
X111413534Y-110923557D01*
X111583373Y-110872037D01*
X111649558Y-110865518D01*
X111715740Y-110859000D01*
X111804260Y-110859000D01*
X111870442Y-110865518D01*
X111870442Y-110865518D01*
G37*
G36*
X109330442Y-110865518D02*
G01*
X109396627Y-110872037D01*
X109566466Y-110923557D01*
X109722991Y-111007222D01*
X109758729Y-111036552D01*
X109860186Y-111119814D01*
X109943448Y-111221271D01*
X109972778Y-111257009D01*
X110056443Y-111413534D01*
X110107963Y-111583373D01*
X110125359Y-111760000D01*
X110107963Y-111936627D01*
X110056443Y-112106466D01*
X109972778Y-112262991D01*
X109943448Y-112298729D01*
X109860186Y-112400186D01*
X109758729Y-112483448D01*
X109722991Y-112512778D01*
X109566466Y-112596443D01*
X109396627Y-112647963D01*
X109330442Y-112654482D01*
X109264260Y-112661000D01*
X109175740Y-112661000D01*
X109109558Y-112654482D01*
X109043373Y-112647963D01*
X108873534Y-112596443D01*
X108717009Y-112512778D01*
X108681271Y-112483448D01*
X108579814Y-112400186D01*
X108496552Y-112298729D01*
X108467222Y-112262991D01*
X108383557Y-112106466D01*
X108332037Y-111936627D01*
X108314641Y-111760000D01*
X108332037Y-111583373D01*
X108383557Y-111413534D01*
X108467222Y-111257009D01*
X108496552Y-111221271D01*
X108579814Y-111119814D01*
X108681271Y-111036552D01*
X108717009Y-111007222D01*
X108873534Y-110923557D01*
X109043373Y-110872037D01*
X109109558Y-110865518D01*
X109175740Y-110859000D01*
X109264260Y-110859000D01*
X109330442Y-110865518D01*
X109330442Y-110865518D01*
G37*
G36*
X106790442Y-110865518D02*
G01*
X106856627Y-110872037D01*
X107026466Y-110923557D01*
X107182991Y-111007222D01*
X107218729Y-111036552D01*
X107320186Y-111119814D01*
X107403448Y-111221271D01*
X107432778Y-111257009D01*
X107516443Y-111413534D01*
X107567963Y-111583373D01*
X107585359Y-111760000D01*
X107567963Y-111936627D01*
X107516443Y-112106466D01*
X107432778Y-112262991D01*
X107403448Y-112298729D01*
X107320186Y-112400186D01*
X107218729Y-112483448D01*
X107182991Y-112512778D01*
X107026466Y-112596443D01*
X106856627Y-112647963D01*
X106790442Y-112654482D01*
X106724260Y-112661000D01*
X106635740Y-112661000D01*
X106569558Y-112654482D01*
X106503373Y-112647963D01*
X106333534Y-112596443D01*
X106177009Y-112512778D01*
X106141271Y-112483448D01*
X106039814Y-112400186D01*
X105956552Y-112298729D01*
X105927222Y-112262991D01*
X105843557Y-112106466D01*
X105792037Y-111936627D01*
X105774641Y-111760000D01*
X105792037Y-111583373D01*
X105843557Y-111413534D01*
X105927222Y-111257009D01*
X105956552Y-111221271D01*
X106039814Y-111119814D01*
X106141271Y-111036552D01*
X106177009Y-111007222D01*
X106333534Y-110923557D01*
X106503373Y-110872037D01*
X106569558Y-110865518D01*
X106635740Y-110859000D01*
X106724260Y-110859000D01*
X106790442Y-110865518D01*
X106790442Y-110865518D01*
G37*
G36*
X104250442Y-110865518D02*
G01*
X104316627Y-110872037D01*
X104486466Y-110923557D01*
X104642991Y-111007222D01*
X104678729Y-111036552D01*
X104780186Y-111119814D01*
X104863448Y-111221271D01*
X104892778Y-111257009D01*
X104976443Y-111413534D01*
X105027963Y-111583373D01*
X105045359Y-111760000D01*
X105027963Y-111936627D01*
X104976443Y-112106466D01*
X104892778Y-112262991D01*
X104863448Y-112298729D01*
X104780186Y-112400186D01*
X104678729Y-112483448D01*
X104642991Y-112512778D01*
X104486466Y-112596443D01*
X104316627Y-112647963D01*
X104250442Y-112654482D01*
X104184260Y-112661000D01*
X104095740Y-112661000D01*
X104029558Y-112654482D01*
X103963373Y-112647963D01*
X103793534Y-112596443D01*
X103637009Y-112512778D01*
X103601271Y-112483448D01*
X103499814Y-112400186D01*
X103416552Y-112298729D01*
X103387222Y-112262991D01*
X103303557Y-112106466D01*
X103252037Y-111936627D01*
X103234641Y-111760000D01*
X103252037Y-111583373D01*
X103303557Y-111413534D01*
X103387222Y-111257009D01*
X103416552Y-111221271D01*
X103499814Y-111119814D01*
X103601271Y-111036552D01*
X103637009Y-111007222D01*
X103793534Y-110923557D01*
X103963373Y-110872037D01*
X104029558Y-110865518D01*
X104095740Y-110859000D01*
X104184260Y-110859000D01*
X104250442Y-110865518D01*
X104250442Y-110865518D01*
G37*
G36*
X101710442Y-110865518D02*
G01*
X101776627Y-110872037D01*
X101946466Y-110923557D01*
X102102991Y-111007222D01*
X102138729Y-111036552D01*
X102240186Y-111119814D01*
X102323448Y-111221271D01*
X102352778Y-111257009D01*
X102436443Y-111413534D01*
X102487963Y-111583373D01*
X102505359Y-111760000D01*
X102487963Y-111936627D01*
X102436443Y-112106466D01*
X102352778Y-112262991D01*
X102323448Y-112298729D01*
X102240186Y-112400186D01*
X102138729Y-112483448D01*
X102102991Y-112512778D01*
X101946466Y-112596443D01*
X101776627Y-112647963D01*
X101710442Y-112654482D01*
X101644260Y-112661000D01*
X101555740Y-112661000D01*
X101489558Y-112654482D01*
X101423373Y-112647963D01*
X101253534Y-112596443D01*
X101097009Y-112512778D01*
X101061271Y-112483448D01*
X100959814Y-112400186D01*
X100876552Y-112298729D01*
X100847222Y-112262991D01*
X100763557Y-112106466D01*
X100712037Y-111936627D01*
X100694641Y-111760000D01*
X100712037Y-111583373D01*
X100763557Y-111413534D01*
X100847222Y-111257009D01*
X100876552Y-111221271D01*
X100959814Y-111119814D01*
X101061271Y-111036552D01*
X101097009Y-111007222D01*
X101253534Y-110923557D01*
X101423373Y-110872037D01*
X101489558Y-110865518D01*
X101555740Y-110859000D01*
X101644260Y-110859000D01*
X101710442Y-110865518D01*
X101710442Y-110865518D01*
G37*
G36*
X99170442Y-110865518D02*
G01*
X99236627Y-110872037D01*
X99406466Y-110923557D01*
X99562991Y-111007222D01*
X99598729Y-111036552D01*
X99700186Y-111119814D01*
X99783448Y-111221271D01*
X99812778Y-111257009D01*
X99896443Y-111413534D01*
X99947963Y-111583373D01*
X99965359Y-111760000D01*
X99947963Y-111936627D01*
X99896443Y-112106466D01*
X99812778Y-112262991D01*
X99783448Y-112298729D01*
X99700186Y-112400186D01*
X99598729Y-112483448D01*
X99562991Y-112512778D01*
X99406466Y-112596443D01*
X99236627Y-112647963D01*
X99170442Y-112654482D01*
X99104260Y-112661000D01*
X99015740Y-112661000D01*
X98949558Y-112654482D01*
X98883373Y-112647963D01*
X98713534Y-112596443D01*
X98557009Y-112512778D01*
X98521271Y-112483448D01*
X98419814Y-112400186D01*
X98336552Y-112298729D01*
X98307222Y-112262991D01*
X98223557Y-112106466D01*
X98172037Y-111936627D01*
X98154641Y-111760000D01*
X98172037Y-111583373D01*
X98223557Y-111413534D01*
X98307222Y-111257009D01*
X98336552Y-111221271D01*
X98419814Y-111119814D01*
X98521271Y-111036552D01*
X98557009Y-111007222D01*
X98713534Y-110923557D01*
X98883373Y-110872037D01*
X98949558Y-110865518D01*
X99015740Y-110859000D01*
X99104260Y-110859000D01*
X99170442Y-110865518D01*
X99170442Y-110865518D01*
G37*
G36*
X96630442Y-110865518D02*
G01*
X96696627Y-110872037D01*
X96866466Y-110923557D01*
X97022991Y-111007222D01*
X97058729Y-111036552D01*
X97160186Y-111119814D01*
X97243448Y-111221271D01*
X97272778Y-111257009D01*
X97356443Y-111413534D01*
X97407963Y-111583373D01*
X97425359Y-111760000D01*
X97407963Y-111936627D01*
X97356443Y-112106466D01*
X97272778Y-112262991D01*
X97243448Y-112298729D01*
X97160186Y-112400186D01*
X97058729Y-112483448D01*
X97022991Y-112512778D01*
X96866466Y-112596443D01*
X96696627Y-112647963D01*
X96630442Y-112654482D01*
X96564260Y-112661000D01*
X96475740Y-112661000D01*
X96409558Y-112654482D01*
X96343373Y-112647963D01*
X96173534Y-112596443D01*
X96017009Y-112512778D01*
X95981271Y-112483448D01*
X95879814Y-112400186D01*
X95796552Y-112298729D01*
X95767222Y-112262991D01*
X95683557Y-112106466D01*
X95632037Y-111936627D01*
X95614641Y-111760000D01*
X95632037Y-111583373D01*
X95683557Y-111413534D01*
X95767222Y-111257009D01*
X95796552Y-111221271D01*
X95879814Y-111119814D01*
X95981271Y-111036552D01*
X96017009Y-111007222D01*
X96173534Y-110923557D01*
X96343373Y-110872037D01*
X96409558Y-110865518D01*
X96475740Y-110859000D01*
X96564260Y-110859000D01*
X96630442Y-110865518D01*
X96630442Y-110865518D01*
G37*
G36*
X94090442Y-110865518D02*
G01*
X94156627Y-110872037D01*
X94326466Y-110923557D01*
X94482991Y-111007222D01*
X94518729Y-111036552D01*
X94620186Y-111119814D01*
X94703448Y-111221271D01*
X94732778Y-111257009D01*
X94816443Y-111413534D01*
X94867963Y-111583373D01*
X94885359Y-111760000D01*
X94867963Y-111936627D01*
X94816443Y-112106466D01*
X94732778Y-112262991D01*
X94703448Y-112298729D01*
X94620186Y-112400186D01*
X94518729Y-112483448D01*
X94482991Y-112512778D01*
X94326466Y-112596443D01*
X94156627Y-112647963D01*
X94090442Y-112654482D01*
X94024260Y-112661000D01*
X93935740Y-112661000D01*
X93869558Y-112654482D01*
X93803373Y-112647963D01*
X93633534Y-112596443D01*
X93477009Y-112512778D01*
X93441271Y-112483448D01*
X93339814Y-112400186D01*
X93256552Y-112298729D01*
X93227222Y-112262991D01*
X93143557Y-112106466D01*
X93092037Y-111936627D01*
X93074641Y-111760000D01*
X93092037Y-111583373D01*
X93143557Y-111413534D01*
X93227222Y-111257009D01*
X93256552Y-111221271D01*
X93339814Y-111119814D01*
X93441271Y-111036552D01*
X93477009Y-111007222D01*
X93633534Y-110923557D01*
X93803373Y-110872037D01*
X93869558Y-110865518D01*
X93935740Y-110859000D01*
X94024260Y-110859000D01*
X94090442Y-110865518D01*
X94090442Y-110865518D01*
G37*
G36*
X106790443Y-108325519D02*
G01*
X106856627Y-108332037D01*
X107026466Y-108383557D01*
X107182991Y-108467222D01*
X107218729Y-108496552D01*
X107320186Y-108579814D01*
X107403448Y-108681271D01*
X107432778Y-108717009D01*
X107516443Y-108873534D01*
X107567963Y-109043373D01*
X107585359Y-109220000D01*
X107567963Y-109396627D01*
X107516443Y-109566466D01*
X107432778Y-109722991D01*
X107403448Y-109758729D01*
X107320186Y-109860186D01*
X107218729Y-109943448D01*
X107182991Y-109972778D01*
X107026466Y-110056443D01*
X106856627Y-110107963D01*
X106790443Y-110114481D01*
X106724260Y-110121000D01*
X106635740Y-110121000D01*
X106569557Y-110114481D01*
X106503373Y-110107963D01*
X106333534Y-110056443D01*
X106177009Y-109972778D01*
X106141271Y-109943448D01*
X106039814Y-109860186D01*
X105956552Y-109758729D01*
X105927222Y-109722991D01*
X105843557Y-109566466D01*
X105792037Y-109396627D01*
X105774641Y-109220000D01*
X105792037Y-109043373D01*
X105843557Y-108873534D01*
X105927222Y-108717009D01*
X105956552Y-108681271D01*
X106039814Y-108579814D01*
X106141271Y-108496552D01*
X106177009Y-108467222D01*
X106333534Y-108383557D01*
X106503373Y-108332037D01*
X106569557Y-108325519D01*
X106635740Y-108319000D01*
X106724260Y-108319000D01*
X106790443Y-108325519D01*
X106790443Y-108325519D01*
G37*
G36*
X104250443Y-108325519D02*
G01*
X104316627Y-108332037D01*
X104486466Y-108383557D01*
X104642991Y-108467222D01*
X104678729Y-108496552D01*
X104780186Y-108579814D01*
X104863448Y-108681271D01*
X104892778Y-108717009D01*
X104976443Y-108873534D01*
X105027963Y-109043373D01*
X105045359Y-109220000D01*
X105027963Y-109396627D01*
X104976443Y-109566466D01*
X104892778Y-109722991D01*
X104863448Y-109758729D01*
X104780186Y-109860186D01*
X104678729Y-109943448D01*
X104642991Y-109972778D01*
X104486466Y-110056443D01*
X104316627Y-110107963D01*
X104250443Y-110114481D01*
X104184260Y-110121000D01*
X104095740Y-110121000D01*
X104029557Y-110114481D01*
X103963373Y-110107963D01*
X103793534Y-110056443D01*
X103637009Y-109972778D01*
X103601271Y-109943448D01*
X103499814Y-109860186D01*
X103416552Y-109758729D01*
X103387222Y-109722991D01*
X103303557Y-109566466D01*
X103252037Y-109396627D01*
X103234641Y-109220000D01*
X103252037Y-109043373D01*
X103303557Y-108873534D01*
X103387222Y-108717009D01*
X103416552Y-108681271D01*
X103499814Y-108579814D01*
X103601271Y-108496552D01*
X103637009Y-108467222D01*
X103793534Y-108383557D01*
X103963373Y-108332037D01*
X104029557Y-108325519D01*
X104095740Y-108319000D01*
X104184260Y-108319000D01*
X104250443Y-108325519D01*
X104250443Y-108325519D01*
G37*
G36*
X101710443Y-108325519D02*
G01*
X101776627Y-108332037D01*
X101946466Y-108383557D01*
X102102991Y-108467222D01*
X102138729Y-108496552D01*
X102240186Y-108579814D01*
X102323448Y-108681271D01*
X102352778Y-108717009D01*
X102436443Y-108873534D01*
X102487963Y-109043373D01*
X102505359Y-109220000D01*
X102487963Y-109396627D01*
X102436443Y-109566466D01*
X102352778Y-109722991D01*
X102323448Y-109758729D01*
X102240186Y-109860186D01*
X102138729Y-109943448D01*
X102102991Y-109972778D01*
X101946466Y-110056443D01*
X101776627Y-110107963D01*
X101710443Y-110114481D01*
X101644260Y-110121000D01*
X101555740Y-110121000D01*
X101489557Y-110114481D01*
X101423373Y-110107963D01*
X101253534Y-110056443D01*
X101097009Y-109972778D01*
X101061271Y-109943448D01*
X100959814Y-109860186D01*
X100876552Y-109758729D01*
X100847222Y-109722991D01*
X100763557Y-109566466D01*
X100712037Y-109396627D01*
X100694641Y-109220000D01*
X100712037Y-109043373D01*
X100763557Y-108873534D01*
X100847222Y-108717009D01*
X100876552Y-108681271D01*
X100959814Y-108579814D01*
X101061271Y-108496552D01*
X101097009Y-108467222D01*
X101253534Y-108383557D01*
X101423373Y-108332037D01*
X101489557Y-108325519D01*
X101555740Y-108319000D01*
X101644260Y-108319000D01*
X101710443Y-108325519D01*
X101710443Y-108325519D01*
G37*
G36*
X99170443Y-108325519D02*
G01*
X99236627Y-108332037D01*
X99406466Y-108383557D01*
X99562991Y-108467222D01*
X99598729Y-108496552D01*
X99700186Y-108579814D01*
X99783448Y-108681271D01*
X99812778Y-108717009D01*
X99896443Y-108873534D01*
X99947963Y-109043373D01*
X99965359Y-109220000D01*
X99947963Y-109396627D01*
X99896443Y-109566466D01*
X99812778Y-109722991D01*
X99783448Y-109758729D01*
X99700186Y-109860186D01*
X99598729Y-109943448D01*
X99562991Y-109972778D01*
X99406466Y-110056443D01*
X99236627Y-110107963D01*
X99170443Y-110114481D01*
X99104260Y-110121000D01*
X99015740Y-110121000D01*
X98949557Y-110114481D01*
X98883373Y-110107963D01*
X98713534Y-110056443D01*
X98557009Y-109972778D01*
X98521271Y-109943448D01*
X98419814Y-109860186D01*
X98336552Y-109758729D01*
X98307222Y-109722991D01*
X98223557Y-109566466D01*
X98172037Y-109396627D01*
X98154641Y-109220000D01*
X98172037Y-109043373D01*
X98223557Y-108873534D01*
X98307222Y-108717009D01*
X98336552Y-108681271D01*
X98419814Y-108579814D01*
X98521271Y-108496552D01*
X98557009Y-108467222D01*
X98713534Y-108383557D01*
X98883373Y-108332037D01*
X98949557Y-108325519D01*
X99015740Y-108319000D01*
X99104260Y-108319000D01*
X99170443Y-108325519D01*
X99170443Y-108325519D01*
G37*
G36*
X96630443Y-108325519D02*
G01*
X96696627Y-108332037D01*
X96866466Y-108383557D01*
X97022991Y-108467222D01*
X97058729Y-108496552D01*
X97160186Y-108579814D01*
X97243448Y-108681271D01*
X97272778Y-108717009D01*
X97356443Y-108873534D01*
X97407963Y-109043373D01*
X97425359Y-109220000D01*
X97407963Y-109396627D01*
X97356443Y-109566466D01*
X97272778Y-109722991D01*
X97243448Y-109758729D01*
X97160186Y-109860186D01*
X97058729Y-109943448D01*
X97022991Y-109972778D01*
X96866466Y-110056443D01*
X96696627Y-110107963D01*
X96630443Y-110114481D01*
X96564260Y-110121000D01*
X96475740Y-110121000D01*
X96409557Y-110114481D01*
X96343373Y-110107963D01*
X96173534Y-110056443D01*
X96017009Y-109972778D01*
X95981271Y-109943448D01*
X95879814Y-109860186D01*
X95796552Y-109758729D01*
X95767222Y-109722991D01*
X95683557Y-109566466D01*
X95632037Y-109396627D01*
X95614641Y-109220000D01*
X95632037Y-109043373D01*
X95683557Y-108873534D01*
X95767222Y-108717009D01*
X95796552Y-108681271D01*
X95879814Y-108579814D01*
X95981271Y-108496552D01*
X96017009Y-108467222D01*
X96173534Y-108383557D01*
X96343373Y-108332037D01*
X96409557Y-108325519D01*
X96475740Y-108319000D01*
X96564260Y-108319000D01*
X96630443Y-108325519D01*
X96630443Y-108325519D01*
G37*
G36*
X94090443Y-108325519D02*
G01*
X94156627Y-108332037D01*
X94326466Y-108383557D01*
X94482991Y-108467222D01*
X94518729Y-108496552D01*
X94620186Y-108579814D01*
X94703448Y-108681271D01*
X94732778Y-108717009D01*
X94816443Y-108873534D01*
X94867963Y-109043373D01*
X94885359Y-109220000D01*
X94867963Y-109396627D01*
X94816443Y-109566466D01*
X94732778Y-109722991D01*
X94703448Y-109758729D01*
X94620186Y-109860186D01*
X94518729Y-109943448D01*
X94482991Y-109972778D01*
X94326466Y-110056443D01*
X94156627Y-110107963D01*
X94090443Y-110114481D01*
X94024260Y-110121000D01*
X93935740Y-110121000D01*
X93869557Y-110114481D01*
X93803373Y-110107963D01*
X93633534Y-110056443D01*
X93477009Y-109972778D01*
X93441271Y-109943448D01*
X93339814Y-109860186D01*
X93256552Y-109758729D01*
X93227222Y-109722991D01*
X93143557Y-109566466D01*
X93092037Y-109396627D01*
X93074641Y-109220000D01*
X93092037Y-109043373D01*
X93143557Y-108873534D01*
X93227222Y-108717009D01*
X93256552Y-108681271D01*
X93339814Y-108579814D01*
X93441271Y-108496552D01*
X93477009Y-108467222D01*
X93633534Y-108383557D01*
X93803373Y-108332037D01*
X93869557Y-108325519D01*
X93935740Y-108319000D01*
X94024260Y-108319000D01*
X94090443Y-108325519D01*
X94090443Y-108325519D01*
G37*
G36*
X109330443Y-108325519D02*
G01*
X109396627Y-108332037D01*
X109566466Y-108383557D01*
X109722991Y-108467222D01*
X109758729Y-108496552D01*
X109860186Y-108579814D01*
X109943448Y-108681271D01*
X109972778Y-108717009D01*
X110056443Y-108873534D01*
X110107963Y-109043373D01*
X110125359Y-109220000D01*
X110107963Y-109396627D01*
X110056443Y-109566466D01*
X109972778Y-109722991D01*
X109943448Y-109758729D01*
X109860186Y-109860186D01*
X109758729Y-109943448D01*
X109722991Y-109972778D01*
X109566466Y-110056443D01*
X109396627Y-110107963D01*
X109330443Y-110114481D01*
X109264260Y-110121000D01*
X109175740Y-110121000D01*
X109109557Y-110114481D01*
X109043373Y-110107963D01*
X108873534Y-110056443D01*
X108717009Y-109972778D01*
X108681271Y-109943448D01*
X108579814Y-109860186D01*
X108496552Y-109758729D01*
X108467222Y-109722991D01*
X108383557Y-109566466D01*
X108332037Y-109396627D01*
X108314641Y-109220000D01*
X108332037Y-109043373D01*
X108383557Y-108873534D01*
X108467222Y-108717009D01*
X108496552Y-108681271D01*
X108579814Y-108579814D01*
X108681271Y-108496552D01*
X108717009Y-108467222D01*
X108873534Y-108383557D01*
X109043373Y-108332037D01*
X109109557Y-108325519D01*
X109175740Y-108319000D01*
X109264260Y-108319000D01*
X109330443Y-108325519D01*
X109330443Y-108325519D01*
G37*
G36*
X111870443Y-108325519D02*
G01*
X111936627Y-108332037D01*
X112106466Y-108383557D01*
X112262991Y-108467222D01*
X112298729Y-108496552D01*
X112400186Y-108579814D01*
X112483448Y-108681271D01*
X112512778Y-108717009D01*
X112596443Y-108873534D01*
X112647963Y-109043373D01*
X112665359Y-109220000D01*
X112647963Y-109396627D01*
X112596443Y-109566466D01*
X112512778Y-109722991D01*
X112483448Y-109758729D01*
X112400186Y-109860186D01*
X112298729Y-109943448D01*
X112262991Y-109972778D01*
X112106466Y-110056443D01*
X111936627Y-110107963D01*
X111870443Y-110114481D01*
X111804260Y-110121000D01*
X111715740Y-110121000D01*
X111649557Y-110114481D01*
X111583373Y-110107963D01*
X111413534Y-110056443D01*
X111257009Y-109972778D01*
X111221271Y-109943448D01*
X111119814Y-109860186D01*
X111036552Y-109758729D01*
X111007222Y-109722991D01*
X110923557Y-109566466D01*
X110872037Y-109396627D01*
X110854641Y-109220000D01*
X110872037Y-109043373D01*
X110923557Y-108873534D01*
X111007222Y-108717009D01*
X111036552Y-108681271D01*
X111119814Y-108579814D01*
X111221271Y-108496552D01*
X111257009Y-108467222D01*
X111413534Y-108383557D01*
X111583373Y-108332037D01*
X111649557Y-108325519D01*
X111715740Y-108319000D01*
X111804260Y-108319000D01*
X111870443Y-108325519D01*
X111870443Y-108325519D01*
G37*
G36*
X114410443Y-108325519D02*
G01*
X114476627Y-108332037D01*
X114646466Y-108383557D01*
X114802991Y-108467222D01*
X114838729Y-108496552D01*
X114940186Y-108579814D01*
X115023448Y-108681271D01*
X115052778Y-108717009D01*
X115136443Y-108873534D01*
X115187963Y-109043373D01*
X115205359Y-109220000D01*
X115187963Y-109396627D01*
X115136443Y-109566466D01*
X115052778Y-109722991D01*
X115023448Y-109758729D01*
X114940186Y-109860186D01*
X114838729Y-109943448D01*
X114802991Y-109972778D01*
X114646466Y-110056443D01*
X114476627Y-110107963D01*
X114410443Y-110114481D01*
X114344260Y-110121000D01*
X114255740Y-110121000D01*
X114189557Y-110114481D01*
X114123373Y-110107963D01*
X113953534Y-110056443D01*
X113797009Y-109972778D01*
X113761271Y-109943448D01*
X113659814Y-109860186D01*
X113576552Y-109758729D01*
X113547222Y-109722991D01*
X113463557Y-109566466D01*
X113412037Y-109396627D01*
X113394641Y-109220000D01*
X113412037Y-109043373D01*
X113463557Y-108873534D01*
X113547222Y-108717009D01*
X113576552Y-108681271D01*
X113659814Y-108579814D01*
X113761271Y-108496552D01*
X113797009Y-108467222D01*
X113953534Y-108383557D01*
X114123373Y-108332037D01*
X114189557Y-108325519D01*
X114255740Y-108319000D01*
X114344260Y-108319000D01*
X114410443Y-108325519D01*
X114410443Y-108325519D01*
G37*
G36*
X116950443Y-108325519D02*
G01*
X117016627Y-108332037D01*
X117186466Y-108383557D01*
X117342991Y-108467222D01*
X117378729Y-108496552D01*
X117480186Y-108579814D01*
X117563448Y-108681271D01*
X117592778Y-108717009D01*
X117676443Y-108873534D01*
X117727963Y-109043373D01*
X117745359Y-109220000D01*
X117727963Y-109396627D01*
X117676443Y-109566466D01*
X117592778Y-109722991D01*
X117563448Y-109758729D01*
X117480186Y-109860186D01*
X117378729Y-109943448D01*
X117342991Y-109972778D01*
X117186466Y-110056443D01*
X117016627Y-110107963D01*
X116950443Y-110114481D01*
X116884260Y-110121000D01*
X116795740Y-110121000D01*
X116729557Y-110114481D01*
X116663373Y-110107963D01*
X116493534Y-110056443D01*
X116337009Y-109972778D01*
X116301271Y-109943448D01*
X116199814Y-109860186D01*
X116116552Y-109758729D01*
X116087222Y-109722991D01*
X116003557Y-109566466D01*
X115952037Y-109396627D01*
X115934641Y-109220000D01*
X115952037Y-109043373D01*
X116003557Y-108873534D01*
X116087222Y-108717009D01*
X116116552Y-108681271D01*
X116199814Y-108579814D01*
X116301271Y-108496552D01*
X116337009Y-108467222D01*
X116493534Y-108383557D01*
X116663373Y-108332037D01*
X116729557Y-108325519D01*
X116795740Y-108319000D01*
X116884260Y-108319000D01*
X116950443Y-108325519D01*
X116950443Y-108325519D01*
G37*
G36*
X119490443Y-108325519D02*
G01*
X119556627Y-108332037D01*
X119726466Y-108383557D01*
X119882991Y-108467222D01*
X119918729Y-108496552D01*
X120020186Y-108579814D01*
X120103448Y-108681271D01*
X120132778Y-108717009D01*
X120216443Y-108873534D01*
X120267963Y-109043373D01*
X120285359Y-109220000D01*
X120267963Y-109396627D01*
X120216443Y-109566466D01*
X120132778Y-109722991D01*
X120103448Y-109758729D01*
X120020186Y-109860186D01*
X119918729Y-109943448D01*
X119882991Y-109972778D01*
X119726466Y-110056443D01*
X119556627Y-110107963D01*
X119490443Y-110114481D01*
X119424260Y-110121000D01*
X119335740Y-110121000D01*
X119269557Y-110114481D01*
X119203373Y-110107963D01*
X119033534Y-110056443D01*
X118877009Y-109972778D01*
X118841271Y-109943448D01*
X118739814Y-109860186D01*
X118656552Y-109758729D01*
X118627222Y-109722991D01*
X118543557Y-109566466D01*
X118492037Y-109396627D01*
X118474641Y-109220000D01*
X118492037Y-109043373D01*
X118543557Y-108873534D01*
X118627222Y-108717009D01*
X118656552Y-108681271D01*
X118739814Y-108579814D01*
X118841271Y-108496552D01*
X118877009Y-108467222D01*
X119033534Y-108383557D01*
X119203373Y-108332037D01*
X119269557Y-108325519D01*
X119335740Y-108319000D01*
X119424260Y-108319000D01*
X119490443Y-108325519D01*
X119490443Y-108325519D01*
G37*
G36*
X122030443Y-108325519D02*
G01*
X122096627Y-108332037D01*
X122266466Y-108383557D01*
X122422991Y-108467222D01*
X122458729Y-108496552D01*
X122560186Y-108579814D01*
X122643448Y-108681271D01*
X122672778Y-108717009D01*
X122756443Y-108873534D01*
X122807963Y-109043373D01*
X122825359Y-109220000D01*
X122807963Y-109396627D01*
X122756443Y-109566466D01*
X122672778Y-109722991D01*
X122643448Y-109758729D01*
X122560186Y-109860186D01*
X122458729Y-109943448D01*
X122422991Y-109972778D01*
X122266466Y-110056443D01*
X122096627Y-110107963D01*
X122030443Y-110114481D01*
X121964260Y-110121000D01*
X121875740Y-110121000D01*
X121809557Y-110114481D01*
X121743373Y-110107963D01*
X121573534Y-110056443D01*
X121417009Y-109972778D01*
X121381271Y-109943448D01*
X121279814Y-109860186D01*
X121196552Y-109758729D01*
X121167222Y-109722991D01*
X121083557Y-109566466D01*
X121032037Y-109396627D01*
X121014641Y-109220000D01*
X121032037Y-109043373D01*
X121083557Y-108873534D01*
X121167222Y-108717009D01*
X121196552Y-108681271D01*
X121279814Y-108579814D01*
X121381271Y-108496552D01*
X121417009Y-108467222D01*
X121573534Y-108383557D01*
X121743373Y-108332037D01*
X121809557Y-108325519D01*
X121875740Y-108319000D01*
X121964260Y-108319000D01*
X122030443Y-108325519D01*
X122030443Y-108325519D01*
G37*
G36*
X124570443Y-108325519D02*
G01*
X124636627Y-108332037D01*
X124806466Y-108383557D01*
X124962991Y-108467222D01*
X124998729Y-108496552D01*
X125100186Y-108579814D01*
X125183448Y-108681271D01*
X125212778Y-108717009D01*
X125296443Y-108873534D01*
X125347963Y-109043373D01*
X125365359Y-109220000D01*
X125347963Y-109396627D01*
X125296443Y-109566466D01*
X125212778Y-109722991D01*
X125183448Y-109758729D01*
X125100186Y-109860186D01*
X124998729Y-109943448D01*
X124962991Y-109972778D01*
X124806466Y-110056443D01*
X124636627Y-110107963D01*
X124570443Y-110114481D01*
X124504260Y-110121000D01*
X124415740Y-110121000D01*
X124349557Y-110114481D01*
X124283373Y-110107963D01*
X124113534Y-110056443D01*
X123957009Y-109972778D01*
X123921271Y-109943448D01*
X123819814Y-109860186D01*
X123736552Y-109758729D01*
X123707222Y-109722991D01*
X123623557Y-109566466D01*
X123572037Y-109396627D01*
X123554641Y-109220000D01*
X123572037Y-109043373D01*
X123623557Y-108873534D01*
X123707222Y-108717009D01*
X123736552Y-108681271D01*
X123819814Y-108579814D01*
X123921271Y-108496552D01*
X123957009Y-108467222D01*
X124113534Y-108383557D01*
X124283373Y-108332037D01*
X124349557Y-108325519D01*
X124415740Y-108319000D01*
X124504260Y-108319000D01*
X124570443Y-108325519D01*
X124570443Y-108325519D01*
G37*
G36*
X127110443Y-108325519D02*
G01*
X127176627Y-108332037D01*
X127346466Y-108383557D01*
X127502991Y-108467222D01*
X127538729Y-108496552D01*
X127640186Y-108579814D01*
X127723448Y-108681271D01*
X127752778Y-108717009D01*
X127836443Y-108873534D01*
X127887963Y-109043373D01*
X127905359Y-109220000D01*
X127887963Y-109396627D01*
X127836443Y-109566466D01*
X127752778Y-109722991D01*
X127723448Y-109758729D01*
X127640186Y-109860186D01*
X127538729Y-109943448D01*
X127502991Y-109972778D01*
X127346466Y-110056443D01*
X127176627Y-110107963D01*
X127110443Y-110114481D01*
X127044260Y-110121000D01*
X126955740Y-110121000D01*
X126889557Y-110114481D01*
X126823373Y-110107963D01*
X126653534Y-110056443D01*
X126497009Y-109972778D01*
X126461271Y-109943448D01*
X126359814Y-109860186D01*
X126276552Y-109758729D01*
X126247222Y-109722991D01*
X126163557Y-109566466D01*
X126112037Y-109396627D01*
X126094641Y-109220000D01*
X126112037Y-109043373D01*
X126163557Y-108873534D01*
X126247222Y-108717009D01*
X126276552Y-108681271D01*
X126359814Y-108579814D01*
X126461271Y-108496552D01*
X126497009Y-108467222D01*
X126653534Y-108383557D01*
X126823373Y-108332037D01*
X126889557Y-108325519D01*
X126955740Y-108319000D01*
X127044260Y-108319000D01*
X127110443Y-108325519D01*
X127110443Y-108325519D01*
G37*
G36*
X129650443Y-108325519D02*
G01*
X129716627Y-108332037D01*
X129886466Y-108383557D01*
X130042991Y-108467222D01*
X130078729Y-108496552D01*
X130180186Y-108579814D01*
X130263448Y-108681271D01*
X130292778Y-108717009D01*
X130376443Y-108873534D01*
X130427963Y-109043373D01*
X130445359Y-109220000D01*
X130427963Y-109396627D01*
X130376443Y-109566466D01*
X130292778Y-109722991D01*
X130263448Y-109758729D01*
X130180186Y-109860186D01*
X130078729Y-109943448D01*
X130042991Y-109972778D01*
X129886466Y-110056443D01*
X129716627Y-110107963D01*
X129650443Y-110114481D01*
X129584260Y-110121000D01*
X129495740Y-110121000D01*
X129429557Y-110114481D01*
X129363373Y-110107963D01*
X129193534Y-110056443D01*
X129037009Y-109972778D01*
X129001271Y-109943448D01*
X128899814Y-109860186D01*
X128816552Y-109758729D01*
X128787222Y-109722991D01*
X128703557Y-109566466D01*
X128652037Y-109396627D01*
X128634641Y-109220000D01*
X128652037Y-109043373D01*
X128703557Y-108873534D01*
X128787222Y-108717009D01*
X128816552Y-108681271D01*
X128899814Y-108579814D01*
X129001271Y-108496552D01*
X129037009Y-108467222D01*
X129193534Y-108383557D01*
X129363373Y-108332037D01*
X129429557Y-108325519D01*
X129495740Y-108319000D01*
X129584260Y-108319000D01*
X129650443Y-108325519D01*
X129650443Y-108325519D01*
G37*
G36*
X132190443Y-108325519D02*
G01*
X132256627Y-108332037D01*
X132426466Y-108383557D01*
X132582991Y-108467222D01*
X132618729Y-108496552D01*
X132720186Y-108579814D01*
X132803448Y-108681271D01*
X132832778Y-108717009D01*
X132916443Y-108873534D01*
X132967963Y-109043373D01*
X132985359Y-109220000D01*
X132967963Y-109396627D01*
X132916443Y-109566466D01*
X132832778Y-109722991D01*
X132803448Y-109758729D01*
X132720186Y-109860186D01*
X132618729Y-109943448D01*
X132582991Y-109972778D01*
X132426466Y-110056443D01*
X132256627Y-110107963D01*
X132190443Y-110114481D01*
X132124260Y-110121000D01*
X132035740Y-110121000D01*
X131969557Y-110114481D01*
X131903373Y-110107963D01*
X131733534Y-110056443D01*
X131577009Y-109972778D01*
X131541271Y-109943448D01*
X131439814Y-109860186D01*
X131356552Y-109758729D01*
X131327222Y-109722991D01*
X131243557Y-109566466D01*
X131192037Y-109396627D01*
X131174641Y-109220000D01*
X131192037Y-109043373D01*
X131243557Y-108873534D01*
X131327222Y-108717009D01*
X131356552Y-108681271D01*
X131439814Y-108579814D01*
X131541271Y-108496552D01*
X131577009Y-108467222D01*
X131733534Y-108383557D01*
X131903373Y-108332037D01*
X131969557Y-108325519D01*
X132035740Y-108319000D01*
X132124260Y-108319000D01*
X132190443Y-108325519D01*
X132190443Y-108325519D01*
G37*
G36*
X134730443Y-108325519D02*
G01*
X134796627Y-108332037D01*
X134966466Y-108383557D01*
X135122991Y-108467222D01*
X135158729Y-108496552D01*
X135260186Y-108579814D01*
X135343448Y-108681271D01*
X135372778Y-108717009D01*
X135456443Y-108873534D01*
X135507963Y-109043373D01*
X135525359Y-109220000D01*
X135507963Y-109396627D01*
X135456443Y-109566466D01*
X135372778Y-109722991D01*
X135343448Y-109758729D01*
X135260186Y-109860186D01*
X135158729Y-109943448D01*
X135122991Y-109972778D01*
X134966466Y-110056443D01*
X134796627Y-110107963D01*
X134730443Y-110114481D01*
X134664260Y-110121000D01*
X134575740Y-110121000D01*
X134509557Y-110114481D01*
X134443373Y-110107963D01*
X134273534Y-110056443D01*
X134117009Y-109972778D01*
X134081271Y-109943448D01*
X133979814Y-109860186D01*
X133896552Y-109758729D01*
X133867222Y-109722991D01*
X133783557Y-109566466D01*
X133732037Y-109396627D01*
X133714641Y-109220000D01*
X133732037Y-109043373D01*
X133783557Y-108873534D01*
X133867222Y-108717009D01*
X133896552Y-108681271D01*
X133979814Y-108579814D01*
X134081271Y-108496552D01*
X134117009Y-108467222D01*
X134273534Y-108383557D01*
X134443373Y-108332037D01*
X134509557Y-108325519D01*
X134575740Y-108319000D01*
X134664260Y-108319000D01*
X134730443Y-108325519D01*
X134730443Y-108325519D01*
G37*
G36*
X137270443Y-108325519D02*
G01*
X137336627Y-108332037D01*
X137506466Y-108383557D01*
X137662991Y-108467222D01*
X137698729Y-108496552D01*
X137800186Y-108579814D01*
X137883448Y-108681271D01*
X137912778Y-108717009D01*
X137996443Y-108873534D01*
X138047963Y-109043373D01*
X138065359Y-109220000D01*
X138047963Y-109396627D01*
X137996443Y-109566466D01*
X137912778Y-109722991D01*
X137883448Y-109758729D01*
X137800186Y-109860186D01*
X137698729Y-109943448D01*
X137662991Y-109972778D01*
X137506466Y-110056443D01*
X137336627Y-110107963D01*
X137270443Y-110114481D01*
X137204260Y-110121000D01*
X137115740Y-110121000D01*
X137049557Y-110114481D01*
X136983373Y-110107963D01*
X136813534Y-110056443D01*
X136657009Y-109972778D01*
X136621271Y-109943448D01*
X136519814Y-109860186D01*
X136436552Y-109758729D01*
X136407222Y-109722991D01*
X136323557Y-109566466D01*
X136272037Y-109396627D01*
X136254641Y-109220000D01*
X136272037Y-109043373D01*
X136323557Y-108873534D01*
X136407222Y-108717009D01*
X136436552Y-108681271D01*
X136519814Y-108579814D01*
X136621271Y-108496552D01*
X136657009Y-108467222D01*
X136813534Y-108383557D01*
X136983373Y-108332037D01*
X137049557Y-108325519D01*
X137115740Y-108319000D01*
X137204260Y-108319000D01*
X137270443Y-108325519D01*
X137270443Y-108325519D01*
G37*
G36*
X139810443Y-108325519D02*
G01*
X139876627Y-108332037D01*
X140046466Y-108383557D01*
X140202991Y-108467222D01*
X140238729Y-108496552D01*
X140340186Y-108579814D01*
X140423448Y-108681271D01*
X140452778Y-108717009D01*
X140536443Y-108873534D01*
X140587963Y-109043373D01*
X140605359Y-109220000D01*
X140587963Y-109396627D01*
X140536443Y-109566466D01*
X140452778Y-109722991D01*
X140423448Y-109758729D01*
X140340186Y-109860186D01*
X140238729Y-109943448D01*
X140202991Y-109972778D01*
X140046466Y-110056443D01*
X139876627Y-110107963D01*
X139810443Y-110114481D01*
X139744260Y-110121000D01*
X139655740Y-110121000D01*
X139589557Y-110114481D01*
X139523373Y-110107963D01*
X139353534Y-110056443D01*
X139197009Y-109972778D01*
X139161271Y-109943448D01*
X139059814Y-109860186D01*
X138976552Y-109758729D01*
X138947222Y-109722991D01*
X138863557Y-109566466D01*
X138812037Y-109396627D01*
X138794641Y-109220000D01*
X138812037Y-109043373D01*
X138863557Y-108873534D01*
X138947222Y-108717009D01*
X138976552Y-108681271D01*
X139059814Y-108579814D01*
X139161271Y-108496552D01*
X139197009Y-108467222D01*
X139353534Y-108383557D01*
X139523373Y-108332037D01*
X139589557Y-108325519D01*
X139655740Y-108319000D01*
X139744260Y-108319000D01*
X139810443Y-108325519D01*
X139810443Y-108325519D01*
G37*
G36*
X142350443Y-108325519D02*
G01*
X142416627Y-108332037D01*
X142586466Y-108383557D01*
X142742991Y-108467222D01*
X142778729Y-108496552D01*
X142880186Y-108579814D01*
X142963448Y-108681271D01*
X142992778Y-108717009D01*
X143076443Y-108873534D01*
X143127963Y-109043373D01*
X143145359Y-109220000D01*
X143127963Y-109396627D01*
X143076443Y-109566466D01*
X142992778Y-109722991D01*
X142963448Y-109758729D01*
X142880186Y-109860186D01*
X142778729Y-109943448D01*
X142742991Y-109972778D01*
X142586466Y-110056443D01*
X142416627Y-110107963D01*
X142350443Y-110114481D01*
X142284260Y-110121000D01*
X142195740Y-110121000D01*
X142129557Y-110114481D01*
X142063373Y-110107963D01*
X141893534Y-110056443D01*
X141737009Y-109972778D01*
X141701271Y-109943448D01*
X141599814Y-109860186D01*
X141516552Y-109758729D01*
X141487222Y-109722991D01*
X141403557Y-109566466D01*
X141352037Y-109396627D01*
X141334641Y-109220000D01*
X141352037Y-109043373D01*
X141403557Y-108873534D01*
X141487222Y-108717009D01*
X141516552Y-108681271D01*
X141599814Y-108579814D01*
X141701271Y-108496552D01*
X141737009Y-108467222D01*
X141893534Y-108383557D01*
X142063373Y-108332037D01*
X142129557Y-108325519D01*
X142195740Y-108319000D01*
X142284260Y-108319000D01*
X142350443Y-108325519D01*
X142350443Y-108325519D01*
G37*
G36*
X142406823Y-100761313D02*
G01*
X142567242Y-100809976D01*
X142699906Y-100880886D01*
X142715078Y-100888996D01*
X142844659Y-100995341D01*
X142951004Y-101124922D01*
X142951005Y-101124924D01*
X143030024Y-101272758D01*
X143078687Y-101433177D01*
X143095117Y-101600000D01*
X143078687Y-101766823D01*
X143030024Y-101927242D01*
X142959114Y-102059906D01*
X142951004Y-102075078D01*
X142844659Y-102204659D01*
X142715078Y-102311004D01*
X142715076Y-102311005D01*
X142567242Y-102390024D01*
X142406823Y-102438687D01*
X142281804Y-102451000D01*
X142198196Y-102451000D01*
X142073177Y-102438687D01*
X141912758Y-102390024D01*
X141764924Y-102311005D01*
X141764922Y-102311004D01*
X141635341Y-102204659D01*
X141528996Y-102075078D01*
X141520886Y-102059906D01*
X141449976Y-101927242D01*
X141401313Y-101766823D01*
X141384883Y-101600000D01*
X141401313Y-101433177D01*
X141449976Y-101272758D01*
X141528995Y-101124924D01*
X141528996Y-101124922D01*
X141635341Y-100995341D01*
X141764922Y-100888996D01*
X141780094Y-100880886D01*
X141912758Y-100809976D01*
X142073177Y-100761313D01*
X142198196Y-100749000D01*
X142281804Y-100749000D01*
X142406823Y-100761313D01*
X142406823Y-100761313D01*
G37*
G36*
X94146823Y-100761313D02*
G01*
X94307242Y-100809976D01*
X94439906Y-100880886D01*
X94455078Y-100888996D01*
X94584659Y-100995341D01*
X94691004Y-101124922D01*
X94691005Y-101124924D01*
X94770024Y-101272758D01*
X94818687Y-101433177D01*
X94835117Y-101600000D01*
X94818687Y-101766823D01*
X94770024Y-101927242D01*
X94699114Y-102059906D01*
X94691004Y-102075078D01*
X94584659Y-102204659D01*
X94455078Y-102311004D01*
X94455076Y-102311005D01*
X94307242Y-102390024D01*
X94146823Y-102438687D01*
X94021804Y-102451000D01*
X93938196Y-102451000D01*
X93813177Y-102438687D01*
X93652758Y-102390024D01*
X93504924Y-102311005D01*
X93504922Y-102311004D01*
X93375341Y-102204659D01*
X93268996Y-102075078D01*
X93260886Y-102059906D01*
X93189976Y-101927242D01*
X93141313Y-101766823D01*
X93124883Y-101600000D01*
X93141313Y-101433177D01*
X93189976Y-101272758D01*
X93268995Y-101124924D01*
X93268996Y-101124922D01*
X93375341Y-100995341D01*
X93504922Y-100888996D01*
X93520094Y-100880886D01*
X93652758Y-100809976D01*
X93813177Y-100761313D01*
X93938196Y-100749000D01*
X94021804Y-100749000D01*
X94146823Y-100761313D01*
X94146823Y-100761313D01*
G37*
G36*
X109386823Y-100761313D02*
G01*
X109547242Y-100809976D01*
X109679906Y-100880886D01*
X109695078Y-100888996D01*
X109824659Y-100995341D01*
X109931004Y-101124922D01*
X109931005Y-101124924D01*
X110010024Y-101272758D01*
X110058687Y-101433177D01*
X110075117Y-101600000D01*
X110058687Y-101766823D01*
X110010024Y-101927242D01*
X109939114Y-102059906D01*
X109931004Y-102075078D01*
X109824659Y-102204659D01*
X109695078Y-102311004D01*
X109695076Y-102311005D01*
X109547242Y-102390024D01*
X109386823Y-102438687D01*
X109261804Y-102451000D01*
X109178196Y-102451000D01*
X109053177Y-102438687D01*
X108892758Y-102390024D01*
X108744924Y-102311005D01*
X108744922Y-102311004D01*
X108615341Y-102204659D01*
X108508996Y-102075078D01*
X108500886Y-102059906D01*
X108429976Y-101927242D01*
X108381313Y-101766823D01*
X108364883Y-101600000D01*
X108381313Y-101433177D01*
X108429976Y-101272758D01*
X108508995Y-101124924D01*
X108508996Y-101124922D01*
X108615341Y-100995341D01*
X108744922Y-100888996D01*
X108760094Y-100880886D01*
X108892758Y-100809976D01*
X109053177Y-100761313D01*
X109178196Y-100749000D01*
X109261804Y-100749000D01*
X109386823Y-100761313D01*
X109386823Y-100761313D01*
G37*
G36*
X111926823Y-100761313D02*
G01*
X112087242Y-100809976D01*
X112219906Y-100880886D01*
X112235078Y-100888996D01*
X112364659Y-100995341D01*
X112471004Y-101124922D01*
X112471005Y-101124924D01*
X112550024Y-101272758D01*
X112598687Y-101433177D01*
X112615117Y-101600000D01*
X112598687Y-101766823D01*
X112550024Y-101927242D01*
X112479114Y-102059906D01*
X112471004Y-102075078D01*
X112364659Y-102204659D01*
X112235078Y-102311004D01*
X112235076Y-102311005D01*
X112087242Y-102390024D01*
X111926823Y-102438687D01*
X111801804Y-102451000D01*
X111718196Y-102451000D01*
X111593177Y-102438687D01*
X111432758Y-102390024D01*
X111284924Y-102311005D01*
X111284922Y-102311004D01*
X111155341Y-102204659D01*
X111048996Y-102075078D01*
X111040886Y-102059906D01*
X110969976Y-101927242D01*
X110921313Y-101766823D01*
X110904883Y-101600000D01*
X110921313Y-101433177D01*
X110969976Y-101272758D01*
X111048995Y-101124924D01*
X111048996Y-101124922D01*
X111155341Y-100995341D01*
X111284922Y-100888996D01*
X111300094Y-100880886D01*
X111432758Y-100809976D01*
X111593177Y-100761313D01*
X111718196Y-100749000D01*
X111801804Y-100749000D01*
X111926823Y-100761313D01*
X111926823Y-100761313D01*
G37*
G36*
X114466823Y-100761313D02*
G01*
X114627242Y-100809976D01*
X114759906Y-100880886D01*
X114775078Y-100888996D01*
X114904659Y-100995341D01*
X115011004Y-101124922D01*
X115011005Y-101124924D01*
X115090024Y-101272758D01*
X115138687Y-101433177D01*
X115155117Y-101600000D01*
X115138687Y-101766823D01*
X115090024Y-101927242D01*
X115019114Y-102059906D01*
X115011004Y-102075078D01*
X114904659Y-102204659D01*
X114775078Y-102311004D01*
X114775076Y-102311005D01*
X114627242Y-102390024D01*
X114466823Y-102438687D01*
X114341804Y-102451000D01*
X114258196Y-102451000D01*
X114133177Y-102438687D01*
X113972758Y-102390024D01*
X113824924Y-102311005D01*
X113824922Y-102311004D01*
X113695341Y-102204659D01*
X113588996Y-102075078D01*
X113580886Y-102059906D01*
X113509976Y-101927242D01*
X113461313Y-101766823D01*
X113444883Y-101600000D01*
X113461313Y-101433177D01*
X113509976Y-101272758D01*
X113588995Y-101124924D01*
X113588996Y-101124922D01*
X113695341Y-100995341D01*
X113824922Y-100888996D01*
X113840094Y-100880886D01*
X113972758Y-100809976D01*
X114133177Y-100761313D01*
X114258196Y-100749000D01*
X114341804Y-100749000D01*
X114466823Y-100761313D01*
X114466823Y-100761313D01*
G37*
G36*
X117006823Y-100761313D02*
G01*
X117167242Y-100809976D01*
X117299906Y-100880886D01*
X117315078Y-100888996D01*
X117444659Y-100995341D01*
X117551004Y-101124922D01*
X117551005Y-101124924D01*
X117630024Y-101272758D01*
X117678687Y-101433177D01*
X117695117Y-101600000D01*
X117678687Y-101766823D01*
X117630024Y-101927242D01*
X117559114Y-102059906D01*
X117551004Y-102075078D01*
X117444659Y-102204659D01*
X117315078Y-102311004D01*
X117315076Y-102311005D01*
X117167242Y-102390024D01*
X117006823Y-102438687D01*
X116881804Y-102451000D01*
X116798196Y-102451000D01*
X116673177Y-102438687D01*
X116512758Y-102390024D01*
X116364924Y-102311005D01*
X116364922Y-102311004D01*
X116235341Y-102204659D01*
X116128996Y-102075078D01*
X116120886Y-102059906D01*
X116049976Y-101927242D01*
X116001313Y-101766823D01*
X115984883Y-101600000D01*
X116001313Y-101433177D01*
X116049976Y-101272758D01*
X116128995Y-101124924D01*
X116128996Y-101124922D01*
X116235341Y-100995341D01*
X116364922Y-100888996D01*
X116380094Y-100880886D01*
X116512758Y-100809976D01*
X116673177Y-100761313D01*
X116798196Y-100749000D01*
X116881804Y-100749000D01*
X117006823Y-100761313D01*
X117006823Y-100761313D01*
G37*
G36*
X119546823Y-100761313D02*
G01*
X119707242Y-100809976D01*
X119839906Y-100880886D01*
X119855078Y-100888996D01*
X119984659Y-100995341D01*
X120091004Y-101124922D01*
X120091005Y-101124924D01*
X120170024Y-101272758D01*
X120218687Y-101433177D01*
X120235117Y-101600000D01*
X120218687Y-101766823D01*
X120170024Y-101927242D01*
X120099114Y-102059906D01*
X120091004Y-102075078D01*
X119984659Y-102204659D01*
X119855078Y-102311004D01*
X119855076Y-102311005D01*
X119707242Y-102390024D01*
X119546823Y-102438687D01*
X119421804Y-102451000D01*
X119338196Y-102451000D01*
X119213177Y-102438687D01*
X119052758Y-102390024D01*
X118904924Y-102311005D01*
X118904922Y-102311004D01*
X118775341Y-102204659D01*
X118668996Y-102075078D01*
X118660886Y-102059906D01*
X118589976Y-101927242D01*
X118541313Y-101766823D01*
X118524883Y-101600000D01*
X118541313Y-101433177D01*
X118589976Y-101272758D01*
X118668995Y-101124924D01*
X118668996Y-101124922D01*
X118775341Y-100995341D01*
X118904922Y-100888996D01*
X118920094Y-100880886D01*
X119052758Y-100809976D01*
X119213177Y-100761313D01*
X119338196Y-100749000D01*
X119421804Y-100749000D01*
X119546823Y-100761313D01*
X119546823Y-100761313D01*
G37*
G36*
X122086823Y-100761313D02*
G01*
X122247242Y-100809976D01*
X122379906Y-100880886D01*
X122395078Y-100888996D01*
X122524659Y-100995341D01*
X122631004Y-101124922D01*
X122631005Y-101124924D01*
X122710024Y-101272758D01*
X122758687Y-101433177D01*
X122775117Y-101600000D01*
X122758687Y-101766823D01*
X122710024Y-101927242D01*
X122639114Y-102059906D01*
X122631004Y-102075078D01*
X122524659Y-102204659D01*
X122395078Y-102311004D01*
X122395076Y-102311005D01*
X122247242Y-102390024D01*
X122086823Y-102438687D01*
X121961804Y-102451000D01*
X121878196Y-102451000D01*
X121753177Y-102438687D01*
X121592758Y-102390024D01*
X121444924Y-102311005D01*
X121444922Y-102311004D01*
X121315341Y-102204659D01*
X121208996Y-102075078D01*
X121200886Y-102059906D01*
X121129976Y-101927242D01*
X121081313Y-101766823D01*
X121064883Y-101600000D01*
X121081313Y-101433177D01*
X121129976Y-101272758D01*
X121208995Y-101124924D01*
X121208996Y-101124922D01*
X121315341Y-100995341D01*
X121444922Y-100888996D01*
X121460094Y-100880886D01*
X121592758Y-100809976D01*
X121753177Y-100761313D01*
X121878196Y-100749000D01*
X121961804Y-100749000D01*
X122086823Y-100761313D01*
X122086823Y-100761313D01*
G37*
G36*
X124626823Y-100761313D02*
G01*
X124787242Y-100809976D01*
X124919906Y-100880886D01*
X124935078Y-100888996D01*
X125064659Y-100995341D01*
X125171004Y-101124922D01*
X125171005Y-101124924D01*
X125250024Y-101272758D01*
X125298687Y-101433177D01*
X125315117Y-101600000D01*
X125298687Y-101766823D01*
X125250024Y-101927242D01*
X125179114Y-102059906D01*
X125171004Y-102075078D01*
X125064659Y-102204659D01*
X124935078Y-102311004D01*
X124935076Y-102311005D01*
X124787242Y-102390024D01*
X124626823Y-102438687D01*
X124501804Y-102451000D01*
X124418196Y-102451000D01*
X124293177Y-102438687D01*
X124132758Y-102390024D01*
X123984924Y-102311005D01*
X123984922Y-102311004D01*
X123855341Y-102204659D01*
X123748996Y-102075078D01*
X123740886Y-102059906D01*
X123669976Y-101927242D01*
X123621313Y-101766823D01*
X123604883Y-101600000D01*
X123621313Y-101433177D01*
X123669976Y-101272758D01*
X123748995Y-101124924D01*
X123748996Y-101124922D01*
X123855341Y-100995341D01*
X123984922Y-100888996D01*
X124000094Y-100880886D01*
X124132758Y-100809976D01*
X124293177Y-100761313D01*
X124418196Y-100749000D01*
X124501804Y-100749000D01*
X124626823Y-100761313D01*
X124626823Y-100761313D01*
G37*
G36*
X127166823Y-100761313D02*
G01*
X127327242Y-100809976D01*
X127459906Y-100880886D01*
X127475078Y-100888996D01*
X127604659Y-100995341D01*
X127711004Y-101124922D01*
X127711005Y-101124924D01*
X127790024Y-101272758D01*
X127838687Y-101433177D01*
X127855117Y-101600000D01*
X127838687Y-101766823D01*
X127790024Y-101927242D01*
X127719114Y-102059906D01*
X127711004Y-102075078D01*
X127604659Y-102204659D01*
X127475078Y-102311004D01*
X127475076Y-102311005D01*
X127327242Y-102390024D01*
X127166823Y-102438687D01*
X127041804Y-102451000D01*
X126958196Y-102451000D01*
X126833177Y-102438687D01*
X126672758Y-102390024D01*
X126524924Y-102311005D01*
X126524922Y-102311004D01*
X126395341Y-102204659D01*
X126288996Y-102075078D01*
X126280886Y-102059906D01*
X126209976Y-101927242D01*
X126161313Y-101766823D01*
X126144883Y-101600000D01*
X126161313Y-101433177D01*
X126209976Y-101272758D01*
X126288995Y-101124924D01*
X126288996Y-101124922D01*
X126395341Y-100995341D01*
X126524922Y-100888996D01*
X126540094Y-100880886D01*
X126672758Y-100809976D01*
X126833177Y-100761313D01*
X126958196Y-100749000D01*
X127041804Y-100749000D01*
X127166823Y-100761313D01*
X127166823Y-100761313D01*
G37*
G36*
X139866823Y-100761313D02*
G01*
X140027242Y-100809976D01*
X140159906Y-100880886D01*
X140175078Y-100888996D01*
X140304659Y-100995341D01*
X140411004Y-101124922D01*
X140411005Y-101124924D01*
X140490024Y-101272758D01*
X140538687Y-101433177D01*
X140555117Y-101600000D01*
X140538687Y-101766823D01*
X140490024Y-101927242D01*
X140419114Y-102059906D01*
X140411004Y-102075078D01*
X140304659Y-102204659D01*
X140175078Y-102311004D01*
X140175076Y-102311005D01*
X140027242Y-102390024D01*
X139866823Y-102438687D01*
X139741804Y-102451000D01*
X139658196Y-102451000D01*
X139533177Y-102438687D01*
X139372758Y-102390024D01*
X139224924Y-102311005D01*
X139224922Y-102311004D01*
X139095341Y-102204659D01*
X138988996Y-102075078D01*
X138980886Y-102059906D01*
X138909976Y-101927242D01*
X138861313Y-101766823D01*
X138844883Y-101600000D01*
X138861313Y-101433177D01*
X138909976Y-101272758D01*
X138988995Y-101124924D01*
X138988996Y-101124922D01*
X139095341Y-100995341D01*
X139224922Y-100888996D01*
X139240094Y-100880886D01*
X139372758Y-100809976D01*
X139533177Y-100761313D01*
X139658196Y-100749000D01*
X139741804Y-100749000D01*
X139866823Y-100761313D01*
X139866823Y-100761313D01*
G37*
G36*
X137326823Y-100761313D02*
G01*
X137487242Y-100809976D01*
X137619906Y-100880886D01*
X137635078Y-100888996D01*
X137764659Y-100995341D01*
X137871004Y-101124922D01*
X137871005Y-101124924D01*
X137950024Y-101272758D01*
X137998687Y-101433177D01*
X138015117Y-101600000D01*
X137998687Y-101766823D01*
X137950024Y-101927242D01*
X137879114Y-102059906D01*
X137871004Y-102075078D01*
X137764659Y-102204659D01*
X137635078Y-102311004D01*
X137635076Y-102311005D01*
X137487242Y-102390024D01*
X137326823Y-102438687D01*
X137201804Y-102451000D01*
X137118196Y-102451000D01*
X136993177Y-102438687D01*
X136832758Y-102390024D01*
X136684924Y-102311005D01*
X136684922Y-102311004D01*
X136555341Y-102204659D01*
X136448996Y-102075078D01*
X136440886Y-102059906D01*
X136369976Y-101927242D01*
X136321313Y-101766823D01*
X136304883Y-101600000D01*
X136321313Y-101433177D01*
X136369976Y-101272758D01*
X136448995Y-101124924D01*
X136448996Y-101124922D01*
X136555341Y-100995341D01*
X136684922Y-100888996D01*
X136700094Y-100880886D01*
X136832758Y-100809976D01*
X136993177Y-100761313D01*
X137118196Y-100749000D01*
X137201804Y-100749000D01*
X137326823Y-100761313D01*
X137326823Y-100761313D01*
G37*
G36*
X134786823Y-100761313D02*
G01*
X134947242Y-100809976D01*
X135079906Y-100880886D01*
X135095078Y-100888996D01*
X135224659Y-100995341D01*
X135331004Y-101124922D01*
X135331005Y-101124924D01*
X135410024Y-101272758D01*
X135458687Y-101433177D01*
X135475117Y-101600000D01*
X135458687Y-101766823D01*
X135410024Y-101927242D01*
X135339114Y-102059906D01*
X135331004Y-102075078D01*
X135224659Y-102204659D01*
X135095078Y-102311004D01*
X135095076Y-102311005D01*
X134947242Y-102390024D01*
X134786823Y-102438687D01*
X134661804Y-102451000D01*
X134578196Y-102451000D01*
X134453177Y-102438687D01*
X134292758Y-102390024D01*
X134144924Y-102311005D01*
X134144922Y-102311004D01*
X134015341Y-102204659D01*
X133908996Y-102075078D01*
X133900886Y-102059906D01*
X133829976Y-101927242D01*
X133781313Y-101766823D01*
X133764883Y-101600000D01*
X133781313Y-101433177D01*
X133829976Y-101272758D01*
X133908995Y-101124924D01*
X133908996Y-101124922D01*
X134015341Y-100995341D01*
X134144922Y-100888996D01*
X134160094Y-100880886D01*
X134292758Y-100809976D01*
X134453177Y-100761313D01*
X134578196Y-100749000D01*
X134661804Y-100749000D01*
X134786823Y-100761313D01*
X134786823Y-100761313D01*
G37*
G36*
X132246823Y-100761313D02*
G01*
X132407242Y-100809976D01*
X132539906Y-100880886D01*
X132555078Y-100888996D01*
X132684659Y-100995341D01*
X132791004Y-101124922D01*
X132791005Y-101124924D01*
X132870024Y-101272758D01*
X132918687Y-101433177D01*
X132935117Y-101600000D01*
X132918687Y-101766823D01*
X132870024Y-101927242D01*
X132799114Y-102059906D01*
X132791004Y-102075078D01*
X132684659Y-102204659D01*
X132555078Y-102311004D01*
X132555076Y-102311005D01*
X132407242Y-102390024D01*
X132246823Y-102438687D01*
X132121804Y-102451000D01*
X132038196Y-102451000D01*
X131913177Y-102438687D01*
X131752758Y-102390024D01*
X131604924Y-102311005D01*
X131604922Y-102311004D01*
X131475341Y-102204659D01*
X131368996Y-102075078D01*
X131360886Y-102059906D01*
X131289976Y-101927242D01*
X131241313Y-101766823D01*
X131224883Y-101600000D01*
X131241313Y-101433177D01*
X131289976Y-101272758D01*
X131368995Y-101124924D01*
X131368996Y-101124922D01*
X131475341Y-100995341D01*
X131604922Y-100888996D01*
X131620094Y-100880886D01*
X131752758Y-100809976D01*
X131913177Y-100761313D01*
X132038196Y-100749000D01*
X132121804Y-100749000D01*
X132246823Y-100761313D01*
X132246823Y-100761313D01*
G37*
G36*
X129706823Y-100761313D02*
G01*
X129867242Y-100809976D01*
X129999906Y-100880886D01*
X130015078Y-100888996D01*
X130144659Y-100995341D01*
X130251004Y-101124922D01*
X130251005Y-101124924D01*
X130330024Y-101272758D01*
X130378687Y-101433177D01*
X130395117Y-101600000D01*
X130378687Y-101766823D01*
X130330024Y-101927242D01*
X130259114Y-102059906D01*
X130251004Y-102075078D01*
X130144659Y-102204659D01*
X130015078Y-102311004D01*
X130015076Y-102311005D01*
X129867242Y-102390024D01*
X129706823Y-102438687D01*
X129581804Y-102451000D01*
X129498196Y-102451000D01*
X129373177Y-102438687D01*
X129212758Y-102390024D01*
X129064924Y-102311005D01*
X129064922Y-102311004D01*
X128935341Y-102204659D01*
X128828996Y-102075078D01*
X128820886Y-102059906D01*
X128749976Y-101927242D01*
X128701313Y-101766823D01*
X128684883Y-101600000D01*
X128701313Y-101433177D01*
X128749976Y-101272758D01*
X128828995Y-101124924D01*
X128828996Y-101124922D01*
X128935341Y-100995341D01*
X129064922Y-100888996D01*
X129080094Y-100880886D01*
X129212758Y-100809976D01*
X129373177Y-100761313D01*
X129498196Y-100749000D01*
X129581804Y-100749000D01*
X129706823Y-100761313D01*
X129706823Y-100761313D01*
G37*
G36*
X84671000Y-102451000D02*
G01*
X82969000Y-102451000D01*
X82969000Y-100749000D01*
X84671000Y-100749000D01*
X84671000Y-102451000D01*
X84671000Y-102451000D01*
G37*
G36*
X86526823Y-100761313D02*
G01*
X86687242Y-100809976D01*
X86819906Y-100880886D01*
X86835078Y-100888996D01*
X86964659Y-100995341D01*
X87071004Y-101124922D01*
X87071005Y-101124924D01*
X87150024Y-101272758D01*
X87198687Y-101433177D01*
X87215117Y-101600000D01*
X87198687Y-101766823D01*
X87150024Y-101927242D01*
X87079114Y-102059906D01*
X87071004Y-102075078D01*
X86964659Y-102204659D01*
X86835078Y-102311004D01*
X86835076Y-102311005D01*
X86687242Y-102390024D01*
X86526823Y-102438687D01*
X86401804Y-102451000D01*
X86318196Y-102451000D01*
X86193177Y-102438687D01*
X86032758Y-102390024D01*
X85884924Y-102311005D01*
X85884922Y-102311004D01*
X85755341Y-102204659D01*
X85648996Y-102075078D01*
X85640886Y-102059906D01*
X85569976Y-101927242D01*
X85521313Y-101766823D01*
X85504883Y-101600000D01*
X85521313Y-101433177D01*
X85569976Y-101272758D01*
X85648995Y-101124924D01*
X85648996Y-101124922D01*
X85755341Y-100995341D01*
X85884922Y-100888996D01*
X85900094Y-100880886D01*
X86032758Y-100809976D01*
X86193177Y-100761313D01*
X86318196Y-100749000D01*
X86401804Y-100749000D01*
X86526823Y-100761313D01*
X86526823Y-100761313D01*
G37*
G36*
X104306823Y-100761313D02*
G01*
X104467242Y-100809976D01*
X104599906Y-100880886D01*
X104615078Y-100888996D01*
X104744659Y-100995341D01*
X104851004Y-101124922D01*
X104851005Y-101124924D01*
X104930024Y-101272758D01*
X104978687Y-101433177D01*
X104995117Y-101600000D01*
X104978687Y-101766823D01*
X104930024Y-101927242D01*
X104859114Y-102059906D01*
X104851004Y-102075078D01*
X104744659Y-102204659D01*
X104615078Y-102311004D01*
X104615076Y-102311005D01*
X104467242Y-102390024D01*
X104306823Y-102438687D01*
X104181804Y-102451000D01*
X104098196Y-102451000D01*
X103973177Y-102438687D01*
X103812758Y-102390024D01*
X103664924Y-102311005D01*
X103664922Y-102311004D01*
X103535341Y-102204659D01*
X103428996Y-102075078D01*
X103420886Y-102059906D01*
X103349976Y-101927242D01*
X103301313Y-101766823D01*
X103284883Y-101600000D01*
X103301313Y-101433177D01*
X103349976Y-101272758D01*
X103428995Y-101124924D01*
X103428996Y-101124922D01*
X103535341Y-100995341D01*
X103664922Y-100888996D01*
X103680094Y-100880886D01*
X103812758Y-100809976D01*
X103973177Y-100761313D01*
X104098196Y-100749000D01*
X104181804Y-100749000D01*
X104306823Y-100761313D01*
X104306823Y-100761313D01*
G37*
G36*
X101766823Y-100761313D02*
G01*
X101927242Y-100809976D01*
X102059906Y-100880886D01*
X102075078Y-100888996D01*
X102204659Y-100995341D01*
X102311004Y-101124922D01*
X102311005Y-101124924D01*
X102390024Y-101272758D01*
X102438687Y-101433177D01*
X102455117Y-101600000D01*
X102438687Y-101766823D01*
X102390024Y-101927242D01*
X102319114Y-102059906D01*
X102311004Y-102075078D01*
X102204659Y-102204659D01*
X102075078Y-102311004D01*
X102075076Y-102311005D01*
X101927242Y-102390024D01*
X101766823Y-102438687D01*
X101641804Y-102451000D01*
X101558196Y-102451000D01*
X101433177Y-102438687D01*
X101272758Y-102390024D01*
X101124924Y-102311005D01*
X101124922Y-102311004D01*
X100995341Y-102204659D01*
X100888996Y-102075078D01*
X100880886Y-102059906D01*
X100809976Y-101927242D01*
X100761313Y-101766823D01*
X100744883Y-101600000D01*
X100761313Y-101433177D01*
X100809976Y-101272758D01*
X100888995Y-101124924D01*
X100888996Y-101124922D01*
X100995341Y-100995341D01*
X101124922Y-100888996D01*
X101140094Y-100880886D01*
X101272758Y-100809976D01*
X101433177Y-100761313D01*
X101558196Y-100749000D01*
X101641804Y-100749000D01*
X101766823Y-100761313D01*
X101766823Y-100761313D01*
G37*
G36*
X106846823Y-100761313D02*
G01*
X107007242Y-100809976D01*
X107139906Y-100880886D01*
X107155078Y-100888996D01*
X107284659Y-100995341D01*
X107391004Y-101124922D01*
X107391005Y-101124924D01*
X107470024Y-101272758D01*
X107518687Y-101433177D01*
X107535117Y-101600000D01*
X107518687Y-101766823D01*
X107470024Y-101927242D01*
X107399114Y-102059906D01*
X107391004Y-102075078D01*
X107284659Y-102204659D01*
X107155078Y-102311004D01*
X107155076Y-102311005D01*
X107007242Y-102390024D01*
X106846823Y-102438687D01*
X106721804Y-102451000D01*
X106638196Y-102451000D01*
X106513177Y-102438687D01*
X106352758Y-102390024D01*
X106204924Y-102311005D01*
X106204922Y-102311004D01*
X106075341Y-102204659D01*
X105968996Y-102075078D01*
X105960886Y-102059906D01*
X105889976Y-101927242D01*
X105841313Y-101766823D01*
X105824883Y-101600000D01*
X105841313Y-101433177D01*
X105889976Y-101272758D01*
X105968995Y-101124924D01*
X105968996Y-101124922D01*
X106075341Y-100995341D01*
X106204922Y-100888996D01*
X106220094Y-100880886D01*
X106352758Y-100809976D01*
X106513177Y-100761313D01*
X106638196Y-100749000D01*
X106721804Y-100749000D01*
X106846823Y-100761313D01*
X106846823Y-100761313D01*
G37*
G36*
X99226823Y-100761313D02*
G01*
X99387242Y-100809976D01*
X99519906Y-100880886D01*
X99535078Y-100888996D01*
X99664659Y-100995341D01*
X99771004Y-101124922D01*
X99771005Y-101124924D01*
X99850024Y-101272758D01*
X99898687Y-101433177D01*
X99915117Y-101600000D01*
X99898687Y-101766823D01*
X99850024Y-101927242D01*
X99779114Y-102059906D01*
X99771004Y-102075078D01*
X99664659Y-102204659D01*
X99535078Y-102311004D01*
X99535076Y-102311005D01*
X99387242Y-102390024D01*
X99226823Y-102438687D01*
X99101804Y-102451000D01*
X99018196Y-102451000D01*
X98893177Y-102438687D01*
X98732758Y-102390024D01*
X98584924Y-102311005D01*
X98584922Y-102311004D01*
X98455341Y-102204659D01*
X98348996Y-102075078D01*
X98340886Y-102059906D01*
X98269976Y-101927242D01*
X98221313Y-101766823D01*
X98204883Y-101600000D01*
X98221313Y-101433177D01*
X98269976Y-101272758D01*
X98348995Y-101124924D01*
X98348996Y-101124922D01*
X98455341Y-100995341D01*
X98584922Y-100888996D01*
X98600094Y-100880886D01*
X98732758Y-100809976D01*
X98893177Y-100761313D01*
X99018196Y-100749000D01*
X99101804Y-100749000D01*
X99226823Y-100761313D01*
X99226823Y-100761313D01*
G37*
G36*
X96686823Y-100761313D02*
G01*
X96847242Y-100809976D01*
X96979906Y-100880886D01*
X96995078Y-100888996D01*
X97124659Y-100995341D01*
X97231004Y-101124922D01*
X97231005Y-101124924D01*
X97310024Y-101272758D01*
X97358687Y-101433177D01*
X97375117Y-101600000D01*
X97358687Y-101766823D01*
X97310024Y-101927242D01*
X97239114Y-102059906D01*
X97231004Y-102075078D01*
X97124659Y-102204659D01*
X96995078Y-102311004D01*
X96995076Y-102311005D01*
X96847242Y-102390024D01*
X96686823Y-102438687D01*
X96561804Y-102451000D01*
X96478196Y-102451000D01*
X96353177Y-102438687D01*
X96192758Y-102390024D01*
X96044924Y-102311005D01*
X96044922Y-102311004D01*
X95915341Y-102204659D01*
X95808996Y-102075078D01*
X95800886Y-102059906D01*
X95729976Y-101927242D01*
X95681313Y-101766823D01*
X95664883Y-101600000D01*
X95681313Y-101433177D01*
X95729976Y-101272758D01*
X95808995Y-101124924D01*
X95808996Y-101124922D01*
X95915341Y-100995341D01*
X96044922Y-100888996D01*
X96060094Y-100880886D01*
X96192758Y-100809976D01*
X96353177Y-100761313D01*
X96478196Y-100749000D01*
X96561804Y-100749000D01*
X96686823Y-100761313D01*
X96686823Y-100761313D01*
G37*
G36*
X89066823Y-100761313D02*
G01*
X89227242Y-100809976D01*
X89359906Y-100880886D01*
X89375078Y-100888996D01*
X89504659Y-100995341D01*
X89611004Y-101124922D01*
X89611005Y-101124924D01*
X89690024Y-101272758D01*
X89738687Y-101433177D01*
X89755117Y-101600000D01*
X89738687Y-101766823D01*
X89690024Y-101927242D01*
X89619114Y-102059906D01*
X89611004Y-102075078D01*
X89504659Y-102204659D01*
X89375078Y-102311004D01*
X89375076Y-102311005D01*
X89227242Y-102390024D01*
X89066823Y-102438687D01*
X88941804Y-102451000D01*
X88858196Y-102451000D01*
X88733177Y-102438687D01*
X88572758Y-102390024D01*
X88424924Y-102311005D01*
X88424922Y-102311004D01*
X88295341Y-102204659D01*
X88188996Y-102075078D01*
X88180886Y-102059906D01*
X88109976Y-101927242D01*
X88061313Y-101766823D01*
X88044883Y-101600000D01*
X88061313Y-101433177D01*
X88109976Y-101272758D01*
X88188995Y-101124924D01*
X88188996Y-101124922D01*
X88295341Y-100995341D01*
X88424922Y-100888996D01*
X88440094Y-100880886D01*
X88572758Y-100809976D01*
X88733177Y-100761313D01*
X88858196Y-100749000D01*
X88941804Y-100749000D01*
X89066823Y-100761313D01*
X89066823Y-100761313D01*
G37*
G36*
X91606823Y-100761313D02*
G01*
X91767242Y-100809976D01*
X91899906Y-100880886D01*
X91915078Y-100888996D01*
X92044659Y-100995341D01*
X92151004Y-101124922D01*
X92151005Y-101124924D01*
X92230024Y-101272758D01*
X92278687Y-101433177D01*
X92295117Y-101600000D01*
X92278687Y-101766823D01*
X92230024Y-101927242D01*
X92159114Y-102059906D01*
X92151004Y-102075078D01*
X92044659Y-102204659D01*
X91915078Y-102311004D01*
X91915076Y-102311005D01*
X91767242Y-102390024D01*
X91606823Y-102438687D01*
X91481804Y-102451000D01*
X91398196Y-102451000D01*
X91273177Y-102438687D01*
X91112758Y-102390024D01*
X90964924Y-102311005D01*
X90964922Y-102311004D01*
X90835341Y-102204659D01*
X90728996Y-102075078D01*
X90720886Y-102059906D01*
X90649976Y-101927242D01*
X90601313Y-101766823D01*
X90584883Y-101600000D01*
X90601313Y-101433177D01*
X90649976Y-101272758D01*
X90728995Y-101124924D01*
X90728996Y-101124922D01*
X90835341Y-100995341D01*
X90964922Y-100888996D01*
X90980094Y-100880886D01*
X91112758Y-100809976D01*
X91273177Y-100761313D01*
X91398196Y-100749000D01*
X91481804Y-100749000D01*
X91606823Y-100761313D01*
X91606823Y-100761313D01*
G37*
G36*
X77718228Y-95621703D02*
G01*
X77873100Y-95685853D01*
X78012481Y-95778985D01*
X78131015Y-95897519D01*
X78224147Y-96036900D01*
X78288297Y-96191772D01*
X78321000Y-96356184D01*
X78321000Y-96523816D01*
X78288297Y-96688228D01*
X78224147Y-96843100D01*
X78131015Y-96982481D01*
X78012481Y-97101015D01*
X77873100Y-97194147D01*
X77718228Y-97258297D01*
X77553816Y-97291000D01*
X77386184Y-97291000D01*
X77221772Y-97258297D01*
X77066900Y-97194147D01*
X76927519Y-97101015D01*
X76808985Y-96982481D01*
X76715853Y-96843100D01*
X76651703Y-96688228D01*
X76619000Y-96523816D01*
X76619000Y-96356184D01*
X76651703Y-96191772D01*
X76715853Y-96036900D01*
X76808985Y-95897519D01*
X76927519Y-95778985D01*
X77066900Y-95685853D01*
X77221772Y-95621703D01*
X77386184Y-95589000D01*
X77553816Y-95589000D01*
X77718228Y-95621703D01*
X77718228Y-95621703D01*
G37*
G36*
X77718228Y-90621703D02*
G01*
X77873100Y-90685853D01*
X78012481Y-90778985D01*
X78131015Y-90897519D01*
X78224147Y-91036900D01*
X78288297Y-91191772D01*
X78321000Y-91356184D01*
X78321000Y-91523816D01*
X78288297Y-91688228D01*
X78224147Y-91843100D01*
X78131015Y-91982481D01*
X78012481Y-92101015D01*
X77873100Y-92194147D01*
X77718228Y-92258297D01*
X77553816Y-92291000D01*
X77386184Y-92291000D01*
X77221772Y-92258297D01*
X77066900Y-92194147D01*
X76927519Y-92101015D01*
X76808985Y-91982481D01*
X76715853Y-91843100D01*
X76651703Y-91688228D01*
X76619000Y-91523816D01*
X76619000Y-91356184D01*
X76651703Y-91191772D01*
X76715853Y-91036900D01*
X76808985Y-90897519D01*
X76927519Y-90778985D01*
X77066900Y-90685853D01*
X77221772Y-90621703D01*
X77386184Y-90589000D01*
X77553816Y-90589000D01*
X77718228Y-90621703D01*
X77718228Y-90621703D01*
G37*
G36*
X137326823Y-85521313D02*
G01*
X137487242Y-85569976D01*
X137619906Y-85640886D01*
X137635078Y-85648996D01*
X137764659Y-85755341D01*
X137871004Y-85884922D01*
X137871005Y-85884924D01*
X137950024Y-86032758D01*
X137998687Y-86193177D01*
X138015117Y-86360000D01*
X137998687Y-86526823D01*
X137950024Y-86687242D01*
X137879114Y-86819906D01*
X137871004Y-86835078D01*
X137764659Y-86964659D01*
X137635078Y-87071004D01*
X137635076Y-87071005D01*
X137487242Y-87150024D01*
X137326823Y-87198687D01*
X137201804Y-87211000D01*
X137118196Y-87211000D01*
X136993177Y-87198687D01*
X136832758Y-87150024D01*
X136684924Y-87071005D01*
X136684922Y-87071004D01*
X136555341Y-86964659D01*
X136448996Y-86835078D01*
X136440886Y-86819906D01*
X136369976Y-86687242D01*
X136321313Y-86526823D01*
X136304883Y-86360000D01*
X136321313Y-86193177D01*
X136369976Y-86032758D01*
X136448995Y-85884924D01*
X136448996Y-85884922D01*
X136555341Y-85755341D01*
X136684922Y-85648996D01*
X136700094Y-85640886D01*
X136832758Y-85569976D01*
X136993177Y-85521313D01*
X137118196Y-85509000D01*
X137201804Y-85509000D01*
X137326823Y-85521313D01*
X137326823Y-85521313D01*
G37*
G36*
X132246823Y-85521313D02*
G01*
X132407242Y-85569976D01*
X132539906Y-85640886D01*
X132555078Y-85648996D01*
X132684659Y-85755341D01*
X132791004Y-85884922D01*
X132791005Y-85884924D01*
X132870024Y-86032758D01*
X132918687Y-86193177D01*
X132935117Y-86360000D01*
X132918687Y-86526823D01*
X132870024Y-86687242D01*
X132799114Y-86819906D01*
X132791004Y-86835078D01*
X132684659Y-86964659D01*
X132555078Y-87071004D01*
X132555076Y-87071005D01*
X132407242Y-87150024D01*
X132246823Y-87198687D01*
X132121804Y-87211000D01*
X132038196Y-87211000D01*
X131913177Y-87198687D01*
X131752758Y-87150024D01*
X131604924Y-87071005D01*
X131604922Y-87071004D01*
X131475341Y-86964659D01*
X131368996Y-86835078D01*
X131360886Y-86819906D01*
X131289976Y-86687242D01*
X131241313Y-86526823D01*
X131224883Y-86360000D01*
X131241313Y-86193177D01*
X131289976Y-86032758D01*
X131368995Y-85884924D01*
X131368996Y-85884922D01*
X131475341Y-85755341D01*
X131604922Y-85648996D01*
X131620094Y-85640886D01*
X131752758Y-85569976D01*
X131913177Y-85521313D01*
X132038196Y-85509000D01*
X132121804Y-85509000D01*
X132246823Y-85521313D01*
X132246823Y-85521313D01*
G37*
G36*
X142406823Y-85521313D02*
G01*
X142567242Y-85569976D01*
X142699906Y-85640886D01*
X142715078Y-85648996D01*
X142844659Y-85755341D01*
X142951004Y-85884922D01*
X142951005Y-85884924D01*
X143030024Y-86032758D01*
X143078687Y-86193177D01*
X143095117Y-86360000D01*
X143078687Y-86526823D01*
X143030024Y-86687242D01*
X142959114Y-86819906D01*
X142951004Y-86835078D01*
X142844659Y-86964659D01*
X142715078Y-87071004D01*
X142715076Y-87071005D01*
X142567242Y-87150024D01*
X142406823Y-87198687D01*
X142281804Y-87211000D01*
X142198196Y-87211000D01*
X142073177Y-87198687D01*
X141912758Y-87150024D01*
X141764924Y-87071005D01*
X141764922Y-87071004D01*
X141635341Y-86964659D01*
X141528996Y-86835078D01*
X141520886Y-86819906D01*
X141449976Y-86687242D01*
X141401313Y-86526823D01*
X141384883Y-86360000D01*
X141401313Y-86193177D01*
X141449976Y-86032758D01*
X141528995Y-85884924D01*
X141528996Y-85884922D01*
X141635341Y-85755341D01*
X141764922Y-85648996D01*
X141780094Y-85640886D01*
X141912758Y-85569976D01*
X142073177Y-85521313D01*
X142198196Y-85509000D01*
X142281804Y-85509000D01*
X142406823Y-85521313D01*
X142406823Y-85521313D01*
G37*
G36*
X139866823Y-85521313D02*
G01*
X140027242Y-85569976D01*
X140159906Y-85640886D01*
X140175078Y-85648996D01*
X140304659Y-85755341D01*
X140411004Y-85884922D01*
X140411005Y-85884924D01*
X140490024Y-86032758D01*
X140538687Y-86193177D01*
X140555117Y-86360000D01*
X140538687Y-86526823D01*
X140490024Y-86687242D01*
X140419114Y-86819906D01*
X140411004Y-86835078D01*
X140304659Y-86964659D01*
X140175078Y-87071004D01*
X140175076Y-87071005D01*
X140027242Y-87150024D01*
X139866823Y-87198687D01*
X139741804Y-87211000D01*
X139658196Y-87211000D01*
X139533177Y-87198687D01*
X139372758Y-87150024D01*
X139224924Y-87071005D01*
X139224922Y-87071004D01*
X139095341Y-86964659D01*
X138988996Y-86835078D01*
X138980886Y-86819906D01*
X138909976Y-86687242D01*
X138861313Y-86526823D01*
X138844883Y-86360000D01*
X138861313Y-86193177D01*
X138909976Y-86032758D01*
X138988995Y-85884924D01*
X138988996Y-85884922D01*
X139095341Y-85755341D01*
X139224922Y-85648996D01*
X139240094Y-85640886D01*
X139372758Y-85569976D01*
X139533177Y-85521313D01*
X139658196Y-85509000D01*
X139741804Y-85509000D01*
X139866823Y-85521313D01*
X139866823Y-85521313D01*
G37*
G36*
X129706823Y-85521313D02*
G01*
X129867242Y-85569976D01*
X129999906Y-85640886D01*
X130015078Y-85648996D01*
X130144659Y-85755341D01*
X130251004Y-85884922D01*
X130251005Y-85884924D01*
X130330024Y-86032758D01*
X130378687Y-86193177D01*
X130395117Y-86360000D01*
X130378687Y-86526823D01*
X130330024Y-86687242D01*
X130259114Y-86819906D01*
X130251004Y-86835078D01*
X130144659Y-86964659D01*
X130015078Y-87071004D01*
X130015076Y-87071005D01*
X129867242Y-87150024D01*
X129706823Y-87198687D01*
X129581804Y-87211000D01*
X129498196Y-87211000D01*
X129373177Y-87198687D01*
X129212758Y-87150024D01*
X129064924Y-87071005D01*
X129064922Y-87071004D01*
X128935341Y-86964659D01*
X128828996Y-86835078D01*
X128820886Y-86819906D01*
X128749976Y-86687242D01*
X128701313Y-86526823D01*
X128684883Y-86360000D01*
X128701313Y-86193177D01*
X128749976Y-86032758D01*
X128828995Y-85884924D01*
X128828996Y-85884922D01*
X128935341Y-85755341D01*
X129064922Y-85648996D01*
X129080094Y-85640886D01*
X129212758Y-85569976D01*
X129373177Y-85521313D01*
X129498196Y-85509000D01*
X129581804Y-85509000D01*
X129706823Y-85521313D01*
X129706823Y-85521313D01*
G37*
G36*
X134786823Y-85521313D02*
G01*
X134947242Y-85569976D01*
X135079906Y-85640886D01*
X135095078Y-85648996D01*
X135224659Y-85755341D01*
X135331004Y-85884922D01*
X135331005Y-85884924D01*
X135410024Y-86032758D01*
X135458687Y-86193177D01*
X135475117Y-86360000D01*
X135458687Y-86526823D01*
X135410024Y-86687242D01*
X135339114Y-86819906D01*
X135331004Y-86835078D01*
X135224659Y-86964659D01*
X135095078Y-87071004D01*
X135095076Y-87071005D01*
X134947242Y-87150024D01*
X134786823Y-87198687D01*
X134661804Y-87211000D01*
X134578196Y-87211000D01*
X134453177Y-87198687D01*
X134292758Y-87150024D01*
X134144924Y-87071005D01*
X134144922Y-87071004D01*
X134015341Y-86964659D01*
X133908996Y-86835078D01*
X133900886Y-86819906D01*
X133829976Y-86687242D01*
X133781313Y-86526823D01*
X133764883Y-86360000D01*
X133781313Y-86193177D01*
X133829976Y-86032758D01*
X133908995Y-85884924D01*
X133908996Y-85884922D01*
X134015341Y-85755341D01*
X134144922Y-85648996D01*
X134160094Y-85640886D01*
X134292758Y-85569976D01*
X134453177Y-85521313D01*
X134578196Y-85509000D01*
X134661804Y-85509000D01*
X134786823Y-85521313D01*
X134786823Y-85521313D01*
G37*
G36*
X127166823Y-85521313D02*
G01*
X127327242Y-85569976D01*
X127459906Y-85640886D01*
X127475078Y-85648996D01*
X127604659Y-85755341D01*
X127711004Y-85884922D01*
X127711005Y-85884924D01*
X127790024Y-86032758D01*
X127838687Y-86193177D01*
X127855117Y-86360000D01*
X127838687Y-86526823D01*
X127790024Y-86687242D01*
X127719114Y-86819906D01*
X127711004Y-86835078D01*
X127604659Y-86964659D01*
X127475078Y-87071004D01*
X127475076Y-87071005D01*
X127327242Y-87150024D01*
X127166823Y-87198687D01*
X127041804Y-87211000D01*
X126958196Y-87211000D01*
X126833177Y-87198687D01*
X126672758Y-87150024D01*
X126524924Y-87071005D01*
X126524922Y-87071004D01*
X126395341Y-86964659D01*
X126288996Y-86835078D01*
X126280886Y-86819906D01*
X126209976Y-86687242D01*
X126161313Y-86526823D01*
X126144883Y-86360000D01*
X126161313Y-86193177D01*
X126209976Y-86032758D01*
X126288995Y-85884924D01*
X126288996Y-85884922D01*
X126395341Y-85755341D01*
X126524922Y-85648996D01*
X126540094Y-85640886D01*
X126672758Y-85569976D01*
X126833177Y-85521313D01*
X126958196Y-85509000D01*
X127041804Y-85509000D01*
X127166823Y-85521313D01*
X127166823Y-85521313D01*
G37*
G36*
X124626823Y-85521313D02*
G01*
X124787242Y-85569976D01*
X124919906Y-85640886D01*
X124935078Y-85648996D01*
X125064659Y-85755341D01*
X125171004Y-85884922D01*
X125171005Y-85884924D01*
X125250024Y-86032758D01*
X125298687Y-86193177D01*
X125315117Y-86360000D01*
X125298687Y-86526823D01*
X125250024Y-86687242D01*
X125179114Y-86819906D01*
X125171004Y-86835078D01*
X125064659Y-86964659D01*
X124935078Y-87071004D01*
X124935076Y-87071005D01*
X124787242Y-87150024D01*
X124626823Y-87198687D01*
X124501804Y-87211000D01*
X124418196Y-87211000D01*
X124293177Y-87198687D01*
X124132758Y-87150024D01*
X123984924Y-87071005D01*
X123984922Y-87071004D01*
X123855341Y-86964659D01*
X123748996Y-86835078D01*
X123740886Y-86819906D01*
X123669976Y-86687242D01*
X123621313Y-86526823D01*
X123604883Y-86360000D01*
X123621313Y-86193177D01*
X123669976Y-86032758D01*
X123748995Y-85884924D01*
X123748996Y-85884922D01*
X123855341Y-85755341D01*
X123984922Y-85648996D01*
X124000094Y-85640886D01*
X124132758Y-85569976D01*
X124293177Y-85521313D01*
X124418196Y-85509000D01*
X124501804Y-85509000D01*
X124626823Y-85521313D01*
X124626823Y-85521313D01*
G37*
G36*
X122086823Y-85521313D02*
G01*
X122247242Y-85569976D01*
X122379906Y-85640886D01*
X122395078Y-85648996D01*
X122524659Y-85755341D01*
X122631004Y-85884922D01*
X122631005Y-85884924D01*
X122710024Y-86032758D01*
X122758687Y-86193177D01*
X122775117Y-86360000D01*
X122758687Y-86526823D01*
X122710024Y-86687242D01*
X122639114Y-86819906D01*
X122631004Y-86835078D01*
X122524659Y-86964659D01*
X122395078Y-87071004D01*
X122395076Y-87071005D01*
X122247242Y-87150024D01*
X122086823Y-87198687D01*
X121961804Y-87211000D01*
X121878196Y-87211000D01*
X121753177Y-87198687D01*
X121592758Y-87150024D01*
X121444924Y-87071005D01*
X121444922Y-87071004D01*
X121315341Y-86964659D01*
X121208996Y-86835078D01*
X121200886Y-86819906D01*
X121129976Y-86687242D01*
X121081313Y-86526823D01*
X121064883Y-86360000D01*
X121081313Y-86193177D01*
X121129976Y-86032758D01*
X121208995Y-85884924D01*
X121208996Y-85884922D01*
X121315341Y-85755341D01*
X121444922Y-85648996D01*
X121460094Y-85640886D01*
X121592758Y-85569976D01*
X121753177Y-85521313D01*
X121878196Y-85509000D01*
X121961804Y-85509000D01*
X122086823Y-85521313D01*
X122086823Y-85521313D01*
G37*
G36*
X119546823Y-85521313D02*
G01*
X119707242Y-85569976D01*
X119839906Y-85640886D01*
X119855078Y-85648996D01*
X119984659Y-85755341D01*
X120091004Y-85884922D01*
X120091005Y-85884924D01*
X120170024Y-86032758D01*
X120218687Y-86193177D01*
X120235117Y-86360000D01*
X120218687Y-86526823D01*
X120170024Y-86687242D01*
X120099114Y-86819906D01*
X120091004Y-86835078D01*
X119984659Y-86964659D01*
X119855078Y-87071004D01*
X119855076Y-87071005D01*
X119707242Y-87150024D01*
X119546823Y-87198687D01*
X119421804Y-87211000D01*
X119338196Y-87211000D01*
X119213177Y-87198687D01*
X119052758Y-87150024D01*
X118904924Y-87071005D01*
X118904922Y-87071004D01*
X118775341Y-86964659D01*
X118668996Y-86835078D01*
X118660886Y-86819906D01*
X118589976Y-86687242D01*
X118541313Y-86526823D01*
X118524883Y-86360000D01*
X118541313Y-86193177D01*
X118589976Y-86032758D01*
X118668995Y-85884924D01*
X118668996Y-85884922D01*
X118775341Y-85755341D01*
X118904922Y-85648996D01*
X118920094Y-85640886D01*
X119052758Y-85569976D01*
X119213177Y-85521313D01*
X119338196Y-85509000D01*
X119421804Y-85509000D01*
X119546823Y-85521313D01*
X119546823Y-85521313D01*
G37*
G36*
X117006823Y-85521313D02*
G01*
X117167242Y-85569976D01*
X117299906Y-85640886D01*
X117315078Y-85648996D01*
X117444659Y-85755341D01*
X117551004Y-85884922D01*
X117551005Y-85884924D01*
X117630024Y-86032758D01*
X117678687Y-86193177D01*
X117695117Y-86360000D01*
X117678687Y-86526823D01*
X117630024Y-86687242D01*
X117559114Y-86819906D01*
X117551004Y-86835078D01*
X117444659Y-86964659D01*
X117315078Y-87071004D01*
X117315076Y-87071005D01*
X117167242Y-87150024D01*
X117006823Y-87198687D01*
X116881804Y-87211000D01*
X116798196Y-87211000D01*
X116673177Y-87198687D01*
X116512758Y-87150024D01*
X116364924Y-87071005D01*
X116364922Y-87071004D01*
X116235341Y-86964659D01*
X116128996Y-86835078D01*
X116120886Y-86819906D01*
X116049976Y-86687242D01*
X116001313Y-86526823D01*
X115984883Y-86360000D01*
X116001313Y-86193177D01*
X116049976Y-86032758D01*
X116128995Y-85884924D01*
X116128996Y-85884922D01*
X116235341Y-85755341D01*
X116364922Y-85648996D01*
X116380094Y-85640886D01*
X116512758Y-85569976D01*
X116673177Y-85521313D01*
X116798196Y-85509000D01*
X116881804Y-85509000D01*
X117006823Y-85521313D01*
X117006823Y-85521313D01*
G37*
G36*
X114466823Y-85521313D02*
G01*
X114627242Y-85569976D01*
X114759906Y-85640886D01*
X114775078Y-85648996D01*
X114904659Y-85755341D01*
X115011004Y-85884922D01*
X115011005Y-85884924D01*
X115090024Y-86032758D01*
X115138687Y-86193177D01*
X115155117Y-86360000D01*
X115138687Y-86526823D01*
X115090024Y-86687242D01*
X115019114Y-86819906D01*
X115011004Y-86835078D01*
X114904659Y-86964659D01*
X114775078Y-87071004D01*
X114775076Y-87071005D01*
X114627242Y-87150024D01*
X114466823Y-87198687D01*
X114341804Y-87211000D01*
X114258196Y-87211000D01*
X114133177Y-87198687D01*
X113972758Y-87150024D01*
X113824924Y-87071005D01*
X113824922Y-87071004D01*
X113695341Y-86964659D01*
X113588996Y-86835078D01*
X113580886Y-86819906D01*
X113509976Y-86687242D01*
X113461313Y-86526823D01*
X113444883Y-86360000D01*
X113461313Y-86193177D01*
X113509976Y-86032758D01*
X113588995Y-85884924D01*
X113588996Y-85884922D01*
X113695341Y-85755341D01*
X113824922Y-85648996D01*
X113840094Y-85640886D01*
X113972758Y-85569976D01*
X114133177Y-85521313D01*
X114258196Y-85509000D01*
X114341804Y-85509000D01*
X114466823Y-85521313D01*
X114466823Y-85521313D01*
G37*
G36*
X83986823Y-85521313D02*
G01*
X84147242Y-85569976D01*
X84279906Y-85640886D01*
X84295078Y-85648996D01*
X84424659Y-85755341D01*
X84531004Y-85884922D01*
X84531005Y-85884924D01*
X84610024Y-86032758D01*
X84658687Y-86193177D01*
X84675117Y-86360000D01*
X84658687Y-86526823D01*
X84610024Y-86687242D01*
X84539114Y-86819906D01*
X84531004Y-86835078D01*
X84424659Y-86964659D01*
X84295078Y-87071004D01*
X84295076Y-87071005D01*
X84147242Y-87150024D01*
X83986823Y-87198687D01*
X83861804Y-87211000D01*
X83778196Y-87211000D01*
X83653177Y-87198687D01*
X83492758Y-87150024D01*
X83344924Y-87071005D01*
X83344922Y-87071004D01*
X83215341Y-86964659D01*
X83108996Y-86835078D01*
X83100886Y-86819906D01*
X83029976Y-86687242D01*
X82981313Y-86526823D01*
X82964883Y-86360000D01*
X82981313Y-86193177D01*
X83029976Y-86032758D01*
X83108995Y-85884924D01*
X83108996Y-85884922D01*
X83215341Y-85755341D01*
X83344922Y-85648996D01*
X83360094Y-85640886D01*
X83492758Y-85569976D01*
X83653177Y-85521313D01*
X83778196Y-85509000D01*
X83861804Y-85509000D01*
X83986823Y-85521313D01*
X83986823Y-85521313D01*
G37*
G36*
X111926823Y-85521313D02*
G01*
X112087242Y-85569976D01*
X112219906Y-85640886D01*
X112235078Y-85648996D01*
X112364659Y-85755341D01*
X112471004Y-85884922D01*
X112471005Y-85884924D01*
X112550024Y-86032758D01*
X112598687Y-86193177D01*
X112615117Y-86360000D01*
X112598687Y-86526823D01*
X112550024Y-86687242D01*
X112479114Y-86819906D01*
X112471004Y-86835078D01*
X112364659Y-86964659D01*
X112235078Y-87071004D01*
X112235076Y-87071005D01*
X112087242Y-87150024D01*
X111926823Y-87198687D01*
X111801804Y-87211000D01*
X111718196Y-87211000D01*
X111593177Y-87198687D01*
X111432758Y-87150024D01*
X111284924Y-87071005D01*
X111284922Y-87071004D01*
X111155341Y-86964659D01*
X111048996Y-86835078D01*
X111040886Y-86819906D01*
X110969976Y-86687242D01*
X110921313Y-86526823D01*
X110904883Y-86360000D01*
X110921313Y-86193177D01*
X110969976Y-86032758D01*
X111048995Y-85884924D01*
X111048996Y-85884922D01*
X111155341Y-85755341D01*
X111284922Y-85648996D01*
X111300094Y-85640886D01*
X111432758Y-85569976D01*
X111593177Y-85521313D01*
X111718196Y-85509000D01*
X111801804Y-85509000D01*
X111926823Y-85521313D01*
X111926823Y-85521313D01*
G37*
G36*
X86526823Y-85521313D02*
G01*
X86687242Y-85569976D01*
X86819906Y-85640886D01*
X86835078Y-85648996D01*
X86964659Y-85755341D01*
X87071004Y-85884922D01*
X87071005Y-85884924D01*
X87150024Y-86032758D01*
X87198687Y-86193177D01*
X87215117Y-86360000D01*
X87198687Y-86526823D01*
X87150024Y-86687242D01*
X87079114Y-86819906D01*
X87071004Y-86835078D01*
X86964659Y-86964659D01*
X86835078Y-87071004D01*
X86835076Y-87071005D01*
X86687242Y-87150024D01*
X86526823Y-87198687D01*
X86401804Y-87211000D01*
X86318196Y-87211000D01*
X86193177Y-87198687D01*
X86032758Y-87150024D01*
X85884924Y-87071005D01*
X85884922Y-87071004D01*
X85755341Y-86964659D01*
X85648996Y-86835078D01*
X85640886Y-86819906D01*
X85569976Y-86687242D01*
X85521313Y-86526823D01*
X85504883Y-86360000D01*
X85521313Y-86193177D01*
X85569976Y-86032758D01*
X85648995Y-85884924D01*
X85648996Y-85884922D01*
X85755341Y-85755341D01*
X85884922Y-85648996D01*
X85900094Y-85640886D01*
X86032758Y-85569976D01*
X86193177Y-85521313D01*
X86318196Y-85509000D01*
X86401804Y-85509000D01*
X86526823Y-85521313D01*
X86526823Y-85521313D01*
G37*
G36*
X109386823Y-85521313D02*
G01*
X109547242Y-85569976D01*
X109679906Y-85640886D01*
X109695078Y-85648996D01*
X109824659Y-85755341D01*
X109931004Y-85884922D01*
X109931005Y-85884924D01*
X110010024Y-86032758D01*
X110058687Y-86193177D01*
X110075117Y-86360000D01*
X110058687Y-86526823D01*
X110010024Y-86687242D01*
X109939114Y-86819906D01*
X109931004Y-86835078D01*
X109824659Y-86964659D01*
X109695078Y-87071004D01*
X109695076Y-87071005D01*
X109547242Y-87150024D01*
X109386823Y-87198687D01*
X109261804Y-87211000D01*
X109178196Y-87211000D01*
X109053177Y-87198687D01*
X108892758Y-87150024D01*
X108744924Y-87071005D01*
X108744922Y-87071004D01*
X108615341Y-86964659D01*
X108508996Y-86835078D01*
X108500886Y-86819906D01*
X108429976Y-86687242D01*
X108381313Y-86526823D01*
X108364883Y-86360000D01*
X108381313Y-86193177D01*
X108429976Y-86032758D01*
X108508995Y-85884924D01*
X108508996Y-85884922D01*
X108615341Y-85755341D01*
X108744922Y-85648996D01*
X108760094Y-85640886D01*
X108892758Y-85569976D01*
X109053177Y-85521313D01*
X109178196Y-85509000D01*
X109261804Y-85509000D01*
X109386823Y-85521313D01*
X109386823Y-85521313D01*
G37*
G36*
X89066823Y-85521313D02*
G01*
X89227242Y-85569976D01*
X89359906Y-85640886D01*
X89375078Y-85648996D01*
X89504659Y-85755341D01*
X89611004Y-85884922D01*
X89611005Y-85884924D01*
X89690024Y-86032758D01*
X89738687Y-86193177D01*
X89755117Y-86360000D01*
X89738687Y-86526823D01*
X89690024Y-86687242D01*
X89619114Y-86819906D01*
X89611004Y-86835078D01*
X89504659Y-86964659D01*
X89375078Y-87071004D01*
X89375076Y-87071005D01*
X89227242Y-87150024D01*
X89066823Y-87198687D01*
X88941804Y-87211000D01*
X88858196Y-87211000D01*
X88733177Y-87198687D01*
X88572758Y-87150024D01*
X88424924Y-87071005D01*
X88424922Y-87071004D01*
X88295341Y-86964659D01*
X88188996Y-86835078D01*
X88180886Y-86819906D01*
X88109976Y-86687242D01*
X88061313Y-86526823D01*
X88044883Y-86360000D01*
X88061313Y-86193177D01*
X88109976Y-86032758D01*
X88188995Y-85884924D01*
X88188996Y-85884922D01*
X88295341Y-85755341D01*
X88424922Y-85648996D01*
X88440094Y-85640886D01*
X88572758Y-85569976D01*
X88733177Y-85521313D01*
X88858196Y-85509000D01*
X88941804Y-85509000D01*
X89066823Y-85521313D01*
X89066823Y-85521313D01*
G37*
G36*
X91606823Y-85521313D02*
G01*
X91767242Y-85569976D01*
X91899906Y-85640886D01*
X91915078Y-85648996D01*
X92044659Y-85755341D01*
X92151004Y-85884922D01*
X92151005Y-85884924D01*
X92230024Y-86032758D01*
X92278687Y-86193177D01*
X92295117Y-86360000D01*
X92278687Y-86526823D01*
X92230024Y-86687242D01*
X92159114Y-86819906D01*
X92151004Y-86835078D01*
X92044659Y-86964659D01*
X91915078Y-87071004D01*
X91915076Y-87071005D01*
X91767242Y-87150024D01*
X91606823Y-87198687D01*
X91481804Y-87211000D01*
X91398196Y-87211000D01*
X91273177Y-87198687D01*
X91112758Y-87150024D01*
X90964924Y-87071005D01*
X90964922Y-87071004D01*
X90835341Y-86964659D01*
X90728996Y-86835078D01*
X90720886Y-86819906D01*
X90649976Y-86687242D01*
X90601313Y-86526823D01*
X90584883Y-86360000D01*
X90601313Y-86193177D01*
X90649976Y-86032758D01*
X90728995Y-85884924D01*
X90728996Y-85884922D01*
X90835341Y-85755341D01*
X90964922Y-85648996D01*
X90980094Y-85640886D01*
X91112758Y-85569976D01*
X91273177Y-85521313D01*
X91398196Y-85509000D01*
X91481804Y-85509000D01*
X91606823Y-85521313D01*
X91606823Y-85521313D01*
G37*
G36*
X94146823Y-85521313D02*
G01*
X94307242Y-85569976D01*
X94439906Y-85640886D01*
X94455078Y-85648996D01*
X94584659Y-85755341D01*
X94691004Y-85884922D01*
X94691005Y-85884924D01*
X94770024Y-86032758D01*
X94818687Y-86193177D01*
X94835117Y-86360000D01*
X94818687Y-86526823D01*
X94770024Y-86687242D01*
X94699114Y-86819906D01*
X94691004Y-86835078D01*
X94584659Y-86964659D01*
X94455078Y-87071004D01*
X94455076Y-87071005D01*
X94307242Y-87150024D01*
X94146823Y-87198687D01*
X94021804Y-87211000D01*
X93938196Y-87211000D01*
X93813177Y-87198687D01*
X93652758Y-87150024D01*
X93504924Y-87071005D01*
X93504922Y-87071004D01*
X93375341Y-86964659D01*
X93268996Y-86835078D01*
X93260886Y-86819906D01*
X93189976Y-86687242D01*
X93141313Y-86526823D01*
X93124883Y-86360000D01*
X93141313Y-86193177D01*
X93189976Y-86032758D01*
X93268995Y-85884924D01*
X93268996Y-85884922D01*
X93375341Y-85755341D01*
X93504922Y-85648996D01*
X93520094Y-85640886D01*
X93652758Y-85569976D01*
X93813177Y-85521313D01*
X93938196Y-85509000D01*
X94021804Y-85509000D01*
X94146823Y-85521313D01*
X94146823Y-85521313D01*
G37*
G36*
X96686823Y-85521313D02*
G01*
X96847242Y-85569976D01*
X96979906Y-85640886D01*
X96995078Y-85648996D01*
X97124659Y-85755341D01*
X97231004Y-85884922D01*
X97231005Y-85884924D01*
X97310024Y-86032758D01*
X97358687Y-86193177D01*
X97375117Y-86360000D01*
X97358687Y-86526823D01*
X97310024Y-86687242D01*
X97239114Y-86819906D01*
X97231004Y-86835078D01*
X97124659Y-86964659D01*
X96995078Y-87071004D01*
X96995076Y-87071005D01*
X96847242Y-87150024D01*
X96686823Y-87198687D01*
X96561804Y-87211000D01*
X96478196Y-87211000D01*
X96353177Y-87198687D01*
X96192758Y-87150024D01*
X96044924Y-87071005D01*
X96044922Y-87071004D01*
X95915341Y-86964659D01*
X95808996Y-86835078D01*
X95800886Y-86819906D01*
X95729976Y-86687242D01*
X95681313Y-86526823D01*
X95664883Y-86360000D01*
X95681313Y-86193177D01*
X95729976Y-86032758D01*
X95808995Y-85884924D01*
X95808996Y-85884922D01*
X95915341Y-85755341D01*
X96044922Y-85648996D01*
X96060094Y-85640886D01*
X96192758Y-85569976D01*
X96353177Y-85521313D01*
X96478196Y-85509000D01*
X96561804Y-85509000D01*
X96686823Y-85521313D01*
X96686823Y-85521313D01*
G37*
G36*
X106846823Y-85521313D02*
G01*
X107007242Y-85569976D01*
X107139906Y-85640886D01*
X107155078Y-85648996D01*
X107284659Y-85755341D01*
X107391004Y-85884922D01*
X107391005Y-85884924D01*
X107470024Y-86032758D01*
X107518687Y-86193177D01*
X107535117Y-86360000D01*
X107518687Y-86526823D01*
X107470024Y-86687242D01*
X107399114Y-86819906D01*
X107391004Y-86835078D01*
X107284659Y-86964659D01*
X107155078Y-87071004D01*
X107155076Y-87071005D01*
X107007242Y-87150024D01*
X106846823Y-87198687D01*
X106721804Y-87211000D01*
X106638196Y-87211000D01*
X106513177Y-87198687D01*
X106352758Y-87150024D01*
X106204924Y-87071005D01*
X106204922Y-87071004D01*
X106075341Y-86964659D01*
X105968996Y-86835078D01*
X105960886Y-86819906D01*
X105889976Y-86687242D01*
X105841313Y-86526823D01*
X105824883Y-86360000D01*
X105841313Y-86193177D01*
X105889976Y-86032758D01*
X105968995Y-85884924D01*
X105968996Y-85884922D01*
X106075341Y-85755341D01*
X106204922Y-85648996D01*
X106220094Y-85640886D01*
X106352758Y-85569976D01*
X106513177Y-85521313D01*
X106638196Y-85509000D01*
X106721804Y-85509000D01*
X106846823Y-85521313D01*
X106846823Y-85521313D01*
G37*
G36*
X99226823Y-85521313D02*
G01*
X99387242Y-85569976D01*
X99519906Y-85640886D01*
X99535078Y-85648996D01*
X99664659Y-85755341D01*
X99771004Y-85884922D01*
X99771005Y-85884924D01*
X99850024Y-86032758D01*
X99898687Y-86193177D01*
X99915117Y-86360000D01*
X99898687Y-86526823D01*
X99850024Y-86687242D01*
X99779114Y-86819906D01*
X99771004Y-86835078D01*
X99664659Y-86964659D01*
X99535078Y-87071004D01*
X99535076Y-87071005D01*
X99387242Y-87150024D01*
X99226823Y-87198687D01*
X99101804Y-87211000D01*
X99018196Y-87211000D01*
X98893177Y-87198687D01*
X98732758Y-87150024D01*
X98584924Y-87071005D01*
X98584922Y-87071004D01*
X98455341Y-86964659D01*
X98348996Y-86835078D01*
X98340886Y-86819906D01*
X98269976Y-86687242D01*
X98221313Y-86526823D01*
X98204883Y-86360000D01*
X98221313Y-86193177D01*
X98269976Y-86032758D01*
X98348995Y-85884924D01*
X98348996Y-85884922D01*
X98455341Y-85755341D01*
X98584922Y-85648996D01*
X98600094Y-85640886D01*
X98732758Y-85569976D01*
X98893177Y-85521313D01*
X99018196Y-85509000D01*
X99101804Y-85509000D01*
X99226823Y-85521313D01*
X99226823Y-85521313D01*
G37*
G36*
X101766823Y-85521313D02*
G01*
X101927242Y-85569976D01*
X102059906Y-85640886D01*
X102075078Y-85648996D01*
X102204659Y-85755341D01*
X102311004Y-85884922D01*
X102311005Y-85884924D01*
X102390024Y-86032758D01*
X102438687Y-86193177D01*
X102455117Y-86360000D01*
X102438687Y-86526823D01*
X102390024Y-86687242D01*
X102319114Y-86819906D01*
X102311004Y-86835078D01*
X102204659Y-86964659D01*
X102075078Y-87071004D01*
X102075076Y-87071005D01*
X101927242Y-87150024D01*
X101766823Y-87198687D01*
X101641804Y-87211000D01*
X101558196Y-87211000D01*
X101433177Y-87198687D01*
X101272758Y-87150024D01*
X101124924Y-87071005D01*
X101124922Y-87071004D01*
X100995341Y-86964659D01*
X100888996Y-86835078D01*
X100880886Y-86819906D01*
X100809976Y-86687242D01*
X100761313Y-86526823D01*
X100744883Y-86360000D01*
X100761313Y-86193177D01*
X100809976Y-86032758D01*
X100888995Y-85884924D01*
X100888996Y-85884922D01*
X100995341Y-85755341D01*
X101124922Y-85648996D01*
X101140094Y-85640886D01*
X101272758Y-85569976D01*
X101433177Y-85521313D01*
X101558196Y-85509000D01*
X101641804Y-85509000D01*
X101766823Y-85521313D01*
X101766823Y-85521313D01*
G37*
G36*
X104306823Y-85521313D02*
G01*
X104467242Y-85569976D01*
X104599906Y-85640886D01*
X104615078Y-85648996D01*
X104744659Y-85755341D01*
X104851004Y-85884922D01*
X104851005Y-85884924D01*
X104930024Y-86032758D01*
X104978687Y-86193177D01*
X104995117Y-86360000D01*
X104978687Y-86526823D01*
X104930024Y-86687242D01*
X104859114Y-86819906D01*
X104851004Y-86835078D01*
X104744659Y-86964659D01*
X104615078Y-87071004D01*
X104615076Y-87071005D01*
X104467242Y-87150024D01*
X104306823Y-87198687D01*
X104181804Y-87211000D01*
X104098196Y-87211000D01*
X103973177Y-87198687D01*
X103812758Y-87150024D01*
X103664924Y-87071005D01*
X103664922Y-87071004D01*
X103535341Y-86964659D01*
X103428996Y-86835078D01*
X103420886Y-86819906D01*
X103349976Y-86687242D01*
X103301313Y-86526823D01*
X103284883Y-86360000D01*
X103301313Y-86193177D01*
X103349976Y-86032758D01*
X103428995Y-85884924D01*
X103428996Y-85884922D01*
X103535341Y-85755341D01*
X103664922Y-85648996D01*
X103680094Y-85640886D01*
X103812758Y-85569976D01*
X103973177Y-85521313D01*
X104098196Y-85509000D01*
X104181804Y-85509000D01*
X104306823Y-85521313D01*
X104306823Y-85521313D01*
G37*
G36*
X104991000Y-80861000D02*
G01*
X103289000Y-80861000D01*
X103289000Y-79159000D01*
X104991000Y-79159000D01*
X104991000Y-80861000D01*
X104991000Y-80861000D01*
G37*
G36*
X106846823Y-79171313D02*
G01*
X107007242Y-79219976D01*
X107139906Y-79290886D01*
X107155078Y-79298996D01*
X107284659Y-79405341D01*
X107391004Y-79534922D01*
X107391005Y-79534924D01*
X107470024Y-79682758D01*
X107518687Y-79843177D01*
X107535117Y-80010000D01*
X107518687Y-80176823D01*
X107470024Y-80337242D01*
X107399114Y-80469906D01*
X107391004Y-80485078D01*
X107284659Y-80614659D01*
X107155078Y-80721004D01*
X107155076Y-80721005D01*
X107007242Y-80800024D01*
X106846823Y-80848687D01*
X106721804Y-80861000D01*
X106638196Y-80861000D01*
X106513177Y-80848687D01*
X106352758Y-80800024D01*
X106204924Y-80721005D01*
X106204922Y-80721004D01*
X106075341Y-80614659D01*
X105968996Y-80485078D01*
X105960886Y-80469906D01*
X105889976Y-80337242D01*
X105841313Y-80176823D01*
X105824883Y-80010000D01*
X105841313Y-79843177D01*
X105889976Y-79682758D01*
X105968995Y-79534924D01*
X105968996Y-79534922D01*
X106075341Y-79405341D01*
X106204922Y-79298996D01*
X106220094Y-79290886D01*
X106352758Y-79219976D01*
X106513177Y-79171313D01*
X106638196Y-79159000D01*
X106721804Y-79159000D01*
X106846823Y-79171313D01*
X106846823Y-79171313D01*
G37*
G36*
X109386823Y-79171313D02*
G01*
X109547242Y-79219976D01*
X109679906Y-79290886D01*
X109695078Y-79298996D01*
X109824659Y-79405341D01*
X109931004Y-79534922D01*
X109931005Y-79534924D01*
X110010024Y-79682758D01*
X110058687Y-79843177D01*
X110075117Y-80010000D01*
X110058687Y-80176823D01*
X110010024Y-80337242D01*
X109939114Y-80469906D01*
X109931004Y-80485078D01*
X109824659Y-80614659D01*
X109695078Y-80721004D01*
X109695076Y-80721005D01*
X109547242Y-80800024D01*
X109386823Y-80848687D01*
X109261804Y-80861000D01*
X109178196Y-80861000D01*
X109053177Y-80848687D01*
X108892758Y-80800024D01*
X108744924Y-80721005D01*
X108744922Y-80721004D01*
X108615341Y-80614659D01*
X108508996Y-80485078D01*
X108500886Y-80469906D01*
X108429976Y-80337242D01*
X108381313Y-80176823D01*
X108364883Y-80010000D01*
X108381313Y-79843177D01*
X108429976Y-79682758D01*
X108508995Y-79534924D01*
X108508996Y-79534922D01*
X108615341Y-79405341D01*
X108744922Y-79298996D01*
X108760094Y-79290886D01*
X108892758Y-79219976D01*
X109053177Y-79171313D01*
X109178196Y-79159000D01*
X109261804Y-79159000D01*
X109386823Y-79171313D01*
X109386823Y-79171313D01*
G37*
G36*
X111926823Y-79171313D02*
G01*
X112087242Y-79219976D01*
X112219906Y-79290886D01*
X112235078Y-79298996D01*
X112364659Y-79405341D01*
X112471004Y-79534922D01*
X112471005Y-79534924D01*
X112550024Y-79682758D01*
X112598687Y-79843177D01*
X112615117Y-80010000D01*
X112598687Y-80176823D01*
X112550024Y-80337242D01*
X112479114Y-80469906D01*
X112471004Y-80485078D01*
X112364659Y-80614659D01*
X112235078Y-80721004D01*
X112235076Y-80721005D01*
X112087242Y-80800024D01*
X111926823Y-80848687D01*
X111801804Y-80861000D01*
X111718196Y-80861000D01*
X111593177Y-80848687D01*
X111432758Y-80800024D01*
X111284924Y-80721005D01*
X111284922Y-80721004D01*
X111155341Y-80614659D01*
X111048996Y-80485078D01*
X111040886Y-80469906D01*
X110969976Y-80337242D01*
X110921313Y-80176823D01*
X110904883Y-80010000D01*
X110921313Y-79843177D01*
X110969976Y-79682758D01*
X111048995Y-79534924D01*
X111048996Y-79534922D01*
X111155341Y-79405341D01*
X111284922Y-79298996D01*
X111300094Y-79290886D01*
X111432758Y-79219976D01*
X111593177Y-79171313D01*
X111718196Y-79159000D01*
X111801804Y-79159000D01*
X111926823Y-79171313D01*
X111926823Y-79171313D01*
G37*
G36*
X114466823Y-79171313D02*
G01*
X114627242Y-79219976D01*
X114759906Y-79290886D01*
X114775078Y-79298996D01*
X114904659Y-79405341D01*
X115011004Y-79534922D01*
X115011005Y-79534924D01*
X115090024Y-79682758D01*
X115138687Y-79843177D01*
X115155117Y-80010000D01*
X115138687Y-80176823D01*
X115090024Y-80337242D01*
X115019114Y-80469906D01*
X115011004Y-80485078D01*
X114904659Y-80614659D01*
X114775078Y-80721004D01*
X114775076Y-80721005D01*
X114627242Y-80800024D01*
X114466823Y-80848687D01*
X114341804Y-80861000D01*
X114258196Y-80861000D01*
X114133177Y-80848687D01*
X113972758Y-80800024D01*
X113824924Y-80721005D01*
X113824922Y-80721004D01*
X113695341Y-80614659D01*
X113588996Y-80485078D01*
X113580886Y-80469906D01*
X113509976Y-80337242D01*
X113461313Y-80176823D01*
X113444883Y-80010000D01*
X113461313Y-79843177D01*
X113509976Y-79682758D01*
X113588995Y-79534924D01*
X113588996Y-79534922D01*
X113695341Y-79405341D01*
X113824922Y-79298996D01*
X113840094Y-79290886D01*
X113972758Y-79219976D01*
X114133177Y-79171313D01*
X114258196Y-79159000D01*
X114341804Y-79159000D01*
X114466823Y-79171313D01*
X114466823Y-79171313D01*
G37*
G36*
X117006823Y-79171313D02*
G01*
X117167242Y-79219976D01*
X117299906Y-79290886D01*
X117315078Y-79298996D01*
X117444659Y-79405341D01*
X117551004Y-79534922D01*
X117551005Y-79534924D01*
X117630024Y-79682758D01*
X117678687Y-79843177D01*
X117695117Y-80010000D01*
X117678687Y-80176823D01*
X117630024Y-80337242D01*
X117559114Y-80469906D01*
X117551004Y-80485078D01*
X117444659Y-80614659D01*
X117315078Y-80721004D01*
X117315076Y-80721005D01*
X117167242Y-80800024D01*
X117006823Y-80848687D01*
X116881804Y-80861000D01*
X116798196Y-80861000D01*
X116673177Y-80848687D01*
X116512758Y-80800024D01*
X116364924Y-80721005D01*
X116364922Y-80721004D01*
X116235341Y-80614659D01*
X116128996Y-80485078D01*
X116120886Y-80469906D01*
X116049976Y-80337242D01*
X116001313Y-80176823D01*
X115984883Y-80010000D01*
X116001313Y-79843177D01*
X116049976Y-79682758D01*
X116128995Y-79534924D01*
X116128996Y-79534922D01*
X116235341Y-79405341D01*
X116364922Y-79298996D01*
X116380094Y-79290886D01*
X116512758Y-79219976D01*
X116673177Y-79171313D01*
X116798196Y-79159000D01*
X116881804Y-79159000D01*
X117006823Y-79171313D01*
X117006823Y-79171313D01*
G37*
G36*
X119546823Y-79171313D02*
G01*
X119707242Y-79219976D01*
X119839906Y-79290886D01*
X119855078Y-79298996D01*
X119984659Y-79405341D01*
X120091004Y-79534922D01*
X120091005Y-79534924D01*
X120170024Y-79682758D01*
X120218687Y-79843177D01*
X120235117Y-80010000D01*
X120218687Y-80176823D01*
X120170024Y-80337242D01*
X120099114Y-80469906D01*
X120091004Y-80485078D01*
X119984659Y-80614659D01*
X119855078Y-80721004D01*
X119855076Y-80721005D01*
X119707242Y-80800024D01*
X119546823Y-80848687D01*
X119421804Y-80861000D01*
X119338196Y-80861000D01*
X119213177Y-80848687D01*
X119052758Y-80800024D01*
X118904924Y-80721005D01*
X118904922Y-80721004D01*
X118775341Y-80614659D01*
X118668996Y-80485078D01*
X118660886Y-80469906D01*
X118589976Y-80337242D01*
X118541313Y-80176823D01*
X118524883Y-80010000D01*
X118541313Y-79843177D01*
X118589976Y-79682758D01*
X118668995Y-79534924D01*
X118668996Y-79534922D01*
X118775341Y-79405341D01*
X118904922Y-79298996D01*
X118920094Y-79290886D01*
X119052758Y-79219976D01*
X119213177Y-79171313D01*
X119338196Y-79159000D01*
X119421804Y-79159000D01*
X119546823Y-79171313D01*
X119546823Y-79171313D01*
G37*
G36*
X122086823Y-79171313D02*
G01*
X122247242Y-79219976D01*
X122379906Y-79290886D01*
X122395078Y-79298996D01*
X122524659Y-79405341D01*
X122631004Y-79534922D01*
X122631005Y-79534924D01*
X122710024Y-79682758D01*
X122758687Y-79843177D01*
X122775117Y-80010000D01*
X122758687Y-80176823D01*
X122710024Y-80337242D01*
X122639114Y-80469906D01*
X122631004Y-80485078D01*
X122524659Y-80614659D01*
X122395078Y-80721004D01*
X122395076Y-80721005D01*
X122247242Y-80800024D01*
X122086823Y-80848687D01*
X121961804Y-80861000D01*
X121878196Y-80861000D01*
X121753177Y-80848687D01*
X121592758Y-80800024D01*
X121444924Y-80721005D01*
X121444922Y-80721004D01*
X121315341Y-80614659D01*
X121208996Y-80485078D01*
X121200886Y-80469906D01*
X121129976Y-80337242D01*
X121081313Y-80176823D01*
X121064883Y-80010000D01*
X121081313Y-79843177D01*
X121129976Y-79682758D01*
X121208995Y-79534924D01*
X121208996Y-79534922D01*
X121315341Y-79405341D01*
X121444922Y-79298996D01*
X121460094Y-79290886D01*
X121592758Y-79219976D01*
X121753177Y-79171313D01*
X121878196Y-79159000D01*
X121961804Y-79159000D01*
X122086823Y-79171313D01*
X122086823Y-79171313D01*
G37*
G36*
X124626823Y-79171313D02*
G01*
X124787242Y-79219976D01*
X124919906Y-79290886D01*
X124935078Y-79298996D01*
X125064659Y-79405341D01*
X125171004Y-79534922D01*
X125171005Y-79534924D01*
X125250024Y-79682758D01*
X125298687Y-79843177D01*
X125315117Y-80010000D01*
X125298687Y-80176823D01*
X125250024Y-80337242D01*
X125179114Y-80469906D01*
X125171004Y-80485078D01*
X125064659Y-80614659D01*
X124935078Y-80721004D01*
X124935076Y-80721005D01*
X124787242Y-80800024D01*
X124626823Y-80848687D01*
X124501804Y-80861000D01*
X124418196Y-80861000D01*
X124293177Y-80848687D01*
X124132758Y-80800024D01*
X123984924Y-80721005D01*
X123984922Y-80721004D01*
X123855341Y-80614659D01*
X123748996Y-80485078D01*
X123740886Y-80469906D01*
X123669976Y-80337242D01*
X123621313Y-80176823D01*
X123604883Y-80010000D01*
X123621313Y-79843177D01*
X123669976Y-79682758D01*
X123748995Y-79534924D01*
X123748996Y-79534922D01*
X123855341Y-79405341D01*
X123984922Y-79298996D01*
X124000094Y-79290886D01*
X124132758Y-79219976D01*
X124293177Y-79171313D01*
X124418196Y-79159000D01*
X124501804Y-79159000D01*
X124626823Y-79171313D01*
X124626823Y-79171313D01*
G37*
G36*
X127166823Y-79171313D02*
G01*
X127327242Y-79219976D01*
X127459906Y-79290886D01*
X127475078Y-79298996D01*
X127604659Y-79405341D01*
X127711004Y-79534922D01*
X127711005Y-79534924D01*
X127790024Y-79682758D01*
X127838687Y-79843177D01*
X127855117Y-80010000D01*
X127838687Y-80176823D01*
X127790024Y-80337242D01*
X127719114Y-80469906D01*
X127711004Y-80485078D01*
X127604659Y-80614659D01*
X127475078Y-80721004D01*
X127475076Y-80721005D01*
X127327242Y-80800024D01*
X127166823Y-80848687D01*
X127041804Y-80861000D01*
X126958196Y-80861000D01*
X126833177Y-80848687D01*
X126672758Y-80800024D01*
X126524924Y-80721005D01*
X126524922Y-80721004D01*
X126395341Y-80614659D01*
X126288996Y-80485078D01*
X126280886Y-80469906D01*
X126209976Y-80337242D01*
X126161313Y-80176823D01*
X126144883Y-80010000D01*
X126161313Y-79843177D01*
X126209976Y-79682758D01*
X126288995Y-79534924D01*
X126288996Y-79534922D01*
X126395341Y-79405341D01*
X126524922Y-79298996D01*
X126540094Y-79290886D01*
X126672758Y-79219976D01*
X126833177Y-79171313D01*
X126958196Y-79159000D01*
X127041804Y-79159000D01*
X127166823Y-79171313D01*
X127166823Y-79171313D01*
G37*
G36*
X129706823Y-79171313D02*
G01*
X129867242Y-79219976D01*
X129999906Y-79290886D01*
X130015078Y-79298996D01*
X130144659Y-79405341D01*
X130251004Y-79534922D01*
X130251005Y-79534924D01*
X130330024Y-79682758D01*
X130378687Y-79843177D01*
X130395117Y-80010000D01*
X130378687Y-80176823D01*
X130330024Y-80337242D01*
X130259114Y-80469906D01*
X130251004Y-80485078D01*
X130144659Y-80614659D01*
X130015078Y-80721004D01*
X130015076Y-80721005D01*
X129867242Y-80800024D01*
X129706823Y-80848687D01*
X129581804Y-80861000D01*
X129498196Y-80861000D01*
X129373177Y-80848687D01*
X129212758Y-80800024D01*
X129064924Y-80721005D01*
X129064922Y-80721004D01*
X128935341Y-80614659D01*
X128828996Y-80485078D01*
X128820886Y-80469906D01*
X128749976Y-80337242D01*
X128701313Y-80176823D01*
X128684883Y-80010000D01*
X128701313Y-79843177D01*
X128749976Y-79682758D01*
X128828995Y-79534924D01*
X128828996Y-79534922D01*
X128935341Y-79405341D01*
X129064922Y-79298996D01*
X129080094Y-79290886D01*
X129212758Y-79219976D01*
X129373177Y-79171313D01*
X129498196Y-79159000D01*
X129581804Y-79159000D01*
X129706823Y-79171313D01*
X129706823Y-79171313D01*
G37*
G36*
X132246823Y-79171313D02*
G01*
X132407242Y-79219976D01*
X132539906Y-79290886D01*
X132555078Y-79298996D01*
X132684659Y-79405341D01*
X132791004Y-79534922D01*
X132791005Y-79534924D01*
X132870024Y-79682758D01*
X132918687Y-79843177D01*
X132935117Y-80010000D01*
X132918687Y-80176823D01*
X132870024Y-80337242D01*
X132799114Y-80469906D01*
X132791004Y-80485078D01*
X132684659Y-80614659D01*
X132555078Y-80721004D01*
X132555076Y-80721005D01*
X132407242Y-80800024D01*
X132246823Y-80848687D01*
X132121804Y-80861000D01*
X132038196Y-80861000D01*
X131913177Y-80848687D01*
X131752758Y-80800024D01*
X131604924Y-80721005D01*
X131604922Y-80721004D01*
X131475341Y-80614659D01*
X131368996Y-80485078D01*
X131360886Y-80469906D01*
X131289976Y-80337242D01*
X131241313Y-80176823D01*
X131224883Y-80010000D01*
X131241313Y-79843177D01*
X131289976Y-79682758D01*
X131368995Y-79534924D01*
X131368996Y-79534922D01*
X131475341Y-79405341D01*
X131604922Y-79298996D01*
X131620094Y-79290886D01*
X131752758Y-79219976D01*
X131913177Y-79171313D01*
X132038196Y-79159000D01*
X132121804Y-79159000D01*
X132246823Y-79171313D01*
X132246823Y-79171313D01*
G37*
G36*
X137326823Y-79171313D02*
G01*
X137487242Y-79219976D01*
X137619906Y-79290886D01*
X137635078Y-79298996D01*
X137764659Y-79405341D01*
X137871004Y-79534922D01*
X137871005Y-79534924D01*
X137950024Y-79682758D01*
X137998687Y-79843177D01*
X138015117Y-80010000D01*
X137998687Y-80176823D01*
X137950024Y-80337242D01*
X137879114Y-80469906D01*
X137871004Y-80485078D01*
X137764659Y-80614659D01*
X137635078Y-80721004D01*
X137635076Y-80721005D01*
X137487242Y-80800024D01*
X137326823Y-80848687D01*
X137201804Y-80861000D01*
X137118196Y-80861000D01*
X136993177Y-80848687D01*
X136832758Y-80800024D01*
X136684924Y-80721005D01*
X136684922Y-80721004D01*
X136555341Y-80614659D01*
X136448996Y-80485078D01*
X136440886Y-80469906D01*
X136369976Y-80337242D01*
X136321313Y-80176823D01*
X136304883Y-80010000D01*
X136321313Y-79843177D01*
X136369976Y-79682758D01*
X136448995Y-79534924D01*
X136448996Y-79534922D01*
X136555341Y-79405341D01*
X136684922Y-79298996D01*
X136700094Y-79290886D01*
X136832758Y-79219976D01*
X136993177Y-79171313D01*
X137118196Y-79159000D01*
X137201804Y-79159000D01*
X137326823Y-79171313D01*
X137326823Y-79171313D01*
G37*
G36*
X139866823Y-79171313D02*
G01*
X140027242Y-79219976D01*
X140159906Y-79290886D01*
X140175078Y-79298996D01*
X140304659Y-79405341D01*
X140411004Y-79534922D01*
X140411005Y-79534924D01*
X140490024Y-79682758D01*
X140538687Y-79843177D01*
X140555117Y-80010000D01*
X140538687Y-80176823D01*
X140490024Y-80337242D01*
X140419114Y-80469906D01*
X140411004Y-80485078D01*
X140304659Y-80614659D01*
X140175078Y-80721004D01*
X140175076Y-80721005D01*
X140027242Y-80800024D01*
X139866823Y-80848687D01*
X139741804Y-80861000D01*
X139658196Y-80861000D01*
X139533177Y-80848687D01*
X139372758Y-80800024D01*
X139224924Y-80721005D01*
X139224922Y-80721004D01*
X139095341Y-80614659D01*
X138988996Y-80485078D01*
X138980886Y-80469906D01*
X138909976Y-80337242D01*
X138861313Y-80176823D01*
X138844883Y-80010000D01*
X138861313Y-79843177D01*
X138909976Y-79682758D01*
X138988995Y-79534924D01*
X138988996Y-79534922D01*
X139095341Y-79405341D01*
X139224922Y-79298996D01*
X139240094Y-79290886D01*
X139372758Y-79219976D01*
X139533177Y-79171313D01*
X139658196Y-79159000D01*
X139741804Y-79159000D01*
X139866823Y-79171313D01*
X139866823Y-79171313D01*
G37*
G36*
X134786823Y-79171313D02*
G01*
X134947242Y-79219976D01*
X135079906Y-79290886D01*
X135095078Y-79298996D01*
X135224659Y-79405341D01*
X135331004Y-79534922D01*
X135331005Y-79534924D01*
X135410024Y-79682758D01*
X135458687Y-79843177D01*
X135475117Y-80010000D01*
X135458687Y-80176823D01*
X135410024Y-80337242D01*
X135339114Y-80469906D01*
X135331004Y-80485078D01*
X135224659Y-80614659D01*
X135095078Y-80721004D01*
X135095076Y-80721005D01*
X134947242Y-80800024D01*
X134786823Y-80848687D01*
X134661804Y-80861000D01*
X134578196Y-80861000D01*
X134453177Y-80848687D01*
X134292758Y-80800024D01*
X134144924Y-80721005D01*
X134144922Y-80721004D01*
X134015341Y-80614659D01*
X133908996Y-80485078D01*
X133900886Y-80469906D01*
X133829976Y-80337242D01*
X133781313Y-80176823D01*
X133764883Y-80010000D01*
X133781313Y-79843177D01*
X133829976Y-79682758D01*
X133908995Y-79534924D01*
X133908996Y-79534922D01*
X134015341Y-79405341D01*
X134144922Y-79298996D01*
X134160094Y-79290886D01*
X134292758Y-79219976D01*
X134453177Y-79171313D01*
X134578196Y-79159000D01*
X134661804Y-79159000D01*
X134786823Y-79171313D01*
X134786823Y-79171313D01*
G37*
G36*
X137326823Y-63931313D02*
G01*
X137487242Y-63979976D01*
X137619906Y-64050886D01*
X137635078Y-64058996D01*
X137764659Y-64165341D01*
X137871004Y-64294922D01*
X137871005Y-64294924D01*
X137950024Y-64442758D01*
X137998687Y-64603177D01*
X138015117Y-64770000D01*
X137998687Y-64936823D01*
X137950024Y-65097242D01*
X137879114Y-65229906D01*
X137871004Y-65245078D01*
X137764659Y-65374659D01*
X137635078Y-65481004D01*
X137635076Y-65481005D01*
X137487242Y-65560024D01*
X137326823Y-65608687D01*
X137201804Y-65621000D01*
X137118196Y-65621000D01*
X136993177Y-65608687D01*
X136832758Y-65560024D01*
X136684924Y-65481005D01*
X136684922Y-65481004D01*
X136555341Y-65374659D01*
X136448996Y-65245078D01*
X136440886Y-65229906D01*
X136369976Y-65097242D01*
X136321313Y-64936823D01*
X136304883Y-64770000D01*
X136321313Y-64603177D01*
X136369976Y-64442758D01*
X136448995Y-64294924D01*
X136448996Y-64294922D01*
X136555341Y-64165341D01*
X136684922Y-64058996D01*
X136700094Y-64050886D01*
X136832758Y-63979976D01*
X136993177Y-63931313D01*
X137118196Y-63919000D01*
X137201804Y-63919000D01*
X137326823Y-63931313D01*
X137326823Y-63931313D01*
G37*
G36*
X134786823Y-63931313D02*
G01*
X134947242Y-63979976D01*
X135079906Y-64050886D01*
X135095078Y-64058996D01*
X135224659Y-64165341D01*
X135331004Y-64294922D01*
X135331005Y-64294924D01*
X135410024Y-64442758D01*
X135458687Y-64603177D01*
X135475117Y-64770000D01*
X135458687Y-64936823D01*
X135410024Y-65097242D01*
X135339114Y-65229906D01*
X135331004Y-65245078D01*
X135224659Y-65374659D01*
X135095078Y-65481004D01*
X135095076Y-65481005D01*
X134947242Y-65560024D01*
X134786823Y-65608687D01*
X134661804Y-65621000D01*
X134578196Y-65621000D01*
X134453177Y-65608687D01*
X134292758Y-65560024D01*
X134144924Y-65481005D01*
X134144922Y-65481004D01*
X134015341Y-65374659D01*
X133908996Y-65245078D01*
X133900886Y-65229906D01*
X133829976Y-65097242D01*
X133781313Y-64936823D01*
X133764883Y-64770000D01*
X133781313Y-64603177D01*
X133829976Y-64442758D01*
X133908995Y-64294924D01*
X133908996Y-64294922D01*
X134015341Y-64165341D01*
X134144922Y-64058996D01*
X134160094Y-64050886D01*
X134292758Y-63979976D01*
X134453177Y-63931313D01*
X134578196Y-63919000D01*
X134661804Y-63919000D01*
X134786823Y-63931313D01*
X134786823Y-63931313D01*
G37*
G36*
X132246823Y-63931313D02*
G01*
X132407242Y-63979976D01*
X132539906Y-64050886D01*
X132555078Y-64058996D01*
X132684659Y-64165341D01*
X132791004Y-64294922D01*
X132791005Y-64294924D01*
X132870024Y-64442758D01*
X132918687Y-64603177D01*
X132935117Y-64770000D01*
X132918687Y-64936823D01*
X132870024Y-65097242D01*
X132799114Y-65229906D01*
X132791004Y-65245078D01*
X132684659Y-65374659D01*
X132555078Y-65481004D01*
X132555076Y-65481005D01*
X132407242Y-65560024D01*
X132246823Y-65608687D01*
X132121804Y-65621000D01*
X132038196Y-65621000D01*
X131913177Y-65608687D01*
X131752758Y-65560024D01*
X131604924Y-65481005D01*
X131604922Y-65481004D01*
X131475341Y-65374659D01*
X131368996Y-65245078D01*
X131360886Y-65229906D01*
X131289976Y-65097242D01*
X131241313Y-64936823D01*
X131224883Y-64770000D01*
X131241313Y-64603177D01*
X131289976Y-64442758D01*
X131368995Y-64294924D01*
X131368996Y-64294922D01*
X131475341Y-64165341D01*
X131604922Y-64058996D01*
X131620094Y-64050886D01*
X131752758Y-63979976D01*
X131913177Y-63931313D01*
X132038196Y-63919000D01*
X132121804Y-63919000D01*
X132246823Y-63931313D01*
X132246823Y-63931313D01*
G37*
G36*
X129706823Y-63931313D02*
G01*
X129867242Y-63979976D01*
X129999906Y-64050886D01*
X130015078Y-64058996D01*
X130144659Y-64165341D01*
X130251004Y-64294922D01*
X130251005Y-64294924D01*
X130330024Y-64442758D01*
X130378687Y-64603177D01*
X130395117Y-64770000D01*
X130378687Y-64936823D01*
X130330024Y-65097242D01*
X130259114Y-65229906D01*
X130251004Y-65245078D01*
X130144659Y-65374659D01*
X130015078Y-65481004D01*
X130015076Y-65481005D01*
X129867242Y-65560024D01*
X129706823Y-65608687D01*
X129581804Y-65621000D01*
X129498196Y-65621000D01*
X129373177Y-65608687D01*
X129212758Y-65560024D01*
X129064924Y-65481005D01*
X129064922Y-65481004D01*
X128935341Y-65374659D01*
X128828996Y-65245078D01*
X128820886Y-65229906D01*
X128749976Y-65097242D01*
X128701313Y-64936823D01*
X128684883Y-64770000D01*
X128701313Y-64603177D01*
X128749976Y-64442758D01*
X128828995Y-64294924D01*
X128828996Y-64294922D01*
X128935341Y-64165341D01*
X129064922Y-64058996D01*
X129080094Y-64050886D01*
X129212758Y-63979976D01*
X129373177Y-63931313D01*
X129498196Y-63919000D01*
X129581804Y-63919000D01*
X129706823Y-63931313D01*
X129706823Y-63931313D01*
G37*
G36*
X127166823Y-63931313D02*
G01*
X127327242Y-63979976D01*
X127459906Y-64050886D01*
X127475078Y-64058996D01*
X127604659Y-64165341D01*
X127711004Y-64294922D01*
X127711005Y-64294924D01*
X127790024Y-64442758D01*
X127838687Y-64603177D01*
X127855117Y-64770000D01*
X127838687Y-64936823D01*
X127790024Y-65097242D01*
X127719114Y-65229906D01*
X127711004Y-65245078D01*
X127604659Y-65374659D01*
X127475078Y-65481004D01*
X127475076Y-65481005D01*
X127327242Y-65560024D01*
X127166823Y-65608687D01*
X127041804Y-65621000D01*
X126958196Y-65621000D01*
X126833177Y-65608687D01*
X126672758Y-65560024D01*
X126524924Y-65481005D01*
X126524922Y-65481004D01*
X126395341Y-65374659D01*
X126288996Y-65245078D01*
X126280886Y-65229906D01*
X126209976Y-65097242D01*
X126161313Y-64936823D01*
X126144883Y-64770000D01*
X126161313Y-64603177D01*
X126209976Y-64442758D01*
X126288995Y-64294924D01*
X126288996Y-64294922D01*
X126395341Y-64165341D01*
X126524922Y-64058996D01*
X126540094Y-64050886D01*
X126672758Y-63979976D01*
X126833177Y-63931313D01*
X126958196Y-63919000D01*
X127041804Y-63919000D01*
X127166823Y-63931313D01*
X127166823Y-63931313D01*
G37*
G36*
X124626823Y-63931313D02*
G01*
X124787242Y-63979976D01*
X124919906Y-64050886D01*
X124935078Y-64058996D01*
X125064659Y-64165341D01*
X125171004Y-64294922D01*
X125171005Y-64294924D01*
X125250024Y-64442758D01*
X125298687Y-64603177D01*
X125315117Y-64770000D01*
X125298687Y-64936823D01*
X125250024Y-65097242D01*
X125179114Y-65229906D01*
X125171004Y-65245078D01*
X125064659Y-65374659D01*
X124935078Y-65481004D01*
X124935076Y-65481005D01*
X124787242Y-65560024D01*
X124626823Y-65608687D01*
X124501804Y-65621000D01*
X124418196Y-65621000D01*
X124293177Y-65608687D01*
X124132758Y-65560024D01*
X123984924Y-65481005D01*
X123984922Y-65481004D01*
X123855341Y-65374659D01*
X123748996Y-65245078D01*
X123740886Y-65229906D01*
X123669976Y-65097242D01*
X123621313Y-64936823D01*
X123604883Y-64770000D01*
X123621313Y-64603177D01*
X123669976Y-64442758D01*
X123748995Y-64294924D01*
X123748996Y-64294922D01*
X123855341Y-64165341D01*
X123984922Y-64058996D01*
X124000094Y-64050886D01*
X124132758Y-63979976D01*
X124293177Y-63931313D01*
X124418196Y-63919000D01*
X124501804Y-63919000D01*
X124626823Y-63931313D01*
X124626823Y-63931313D01*
G37*
G36*
X122086823Y-63931313D02*
G01*
X122247242Y-63979976D01*
X122379906Y-64050886D01*
X122395078Y-64058996D01*
X122524659Y-64165341D01*
X122631004Y-64294922D01*
X122631005Y-64294924D01*
X122710024Y-64442758D01*
X122758687Y-64603177D01*
X122775117Y-64770000D01*
X122758687Y-64936823D01*
X122710024Y-65097242D01*
X122639114Y-65229906D01*
X122631004Y-65245078D01*
X122524659Y-65374659D01*
X122395078Y-65481004D01*
X122395076Y-65481005D01*
X122247242Y-65560024D01*
X122086823Y-65608687D01*
X121961804Y-65621000D01*
X121878196Y-65621000D01*
X121753177Y-65608687D01*
X121592758Y-65560024D01*
X121444924Y-65481005D01*
X121444922Y-65481004D01*
X121315341Y-65374659D01*
X121208996Y-65245078D01*
X121200886Y-65229906D01*
X121129976Y-65097242D01*
X121081313Y-64936823D01*
X121064883Y-64770000D01*
X121081313Y-64603177D01*
X121129976Y-64442758D01*
X121208995Y-64294924D01*
X121208996Y-64294922D01*
X121315341Y-64165341D01*
X121444922Y-64058996D01*
X121460094Y-64050886D01*
X121592758Y-63979976D01*
X121753177Y-63931313D01*
X121878196Y-63919000D01*
X121961804Y-63919000D01*
X122086823Y-63931313D01*
X122086823Y-63931313D01*
G37*
G36*
X119546823Y-63931313D02*
G01*
X119707242Y-63979976D01*
X119839906Y-64050886D01*
X119855078Y-64058996D01*
X119984659Y-64165341D01*
X120091004Y-64294922D01*
X120091005Y-64294924D01*
X120170024Y-64442758D01*
X120218687Y-64603177D01*
X120235117Y-64770000D01*
X120218687Y-64936823D01*
X120170024Y-65097242D01*
X120099114Y-65229906D01*
X120091004Y-65245078D01*
X119984659Y-65374659D01*
X119855078Y-65481004D01*
X119855076Y-65481005D01*
X119707242Y-65560024D01*
X119546823Y-65608687D01*
X119421804Y-65621000D01*
X119338196Y-65621000D01*
X119213177Y-65608687D01*
X119052758Y-65560024D01*
X118904924Y-65481005D01*
X118904922Y-65481004D01*
X118775341Y-65374659D01*
X118668996Y-65245078D01*
X118660886Y-65229906D01*
X118589976Y-65097242D01*
X118541313Y-64936823D01*
X118524883Y-64770000D01*
X118541313Y-64603177D01*
X118589976Y-64442758D01*
X118668995Y-64294924D01*
X118668996Y-64294922D01*
X118775341Y-64165341D01*
X118904922Y-64058996D01*
X118920094Y-64050886D01*
X119052758Y-63979976D01*
X119213177Y-63931313D01*
X119338196Y-63919000D01*
X119421804Y-63919000D01*
X119546823Y-63931313D01*
X119546823Y-63931313D01*
G37*
G36*
X117006823Y-63931313D02*
G01*
X117167242Y-63979976D01*
X117299906Y-64050886D01*
X117315078Y-64058996D01*
X117444659Y-64165341D01*
X117551004Y-64294922D01*
X117551005Y-64294924D01*
X117630024Y-64442758D01*
X117678687Y-64603177D01*
X117695117Y-64770000D01*
X117678687Y-64936823D01*
X117630024Y-65097242D01*
X117559114Y-65229906D01*
X117551004Y-65245078D01*
X117444659Y-65374659D01*
X117315078Y-65481004D01*
X117315076Y-65481005D01*
X117167242Y-65560024D01*
X117006823Y-65608687D01*
X116881804Y-65621000D01*
X116798196Y-65621000D01*
X116673177Y-65608687D01*
X116512758Y-65560024D01*
X116364924Y-65481005D01*
X116364922Y-65481004D01*
X116235341Y-65374659D01*
X116128996Y-65245078D01*
X116120886Y-65229906D01*
X116049976Y-65097242D01*
X116001313Y-64936823D01*
X115984883Y-64770000D01*
X116001313Y-64603177D01*
X116049976Y-64442758D01*
X116128995Y-64294924D01*
X116128996Y-64294922D01*
X116235341Y-64165341D01*
X116364922Y-64058996D01*
X116380094Y-64050886D01*
X116512758Y-63979976D01*
X116673177Y-63931313D01*
X116798196Y-63919000D01*
X116881804Y-63919000D01*
X117006823Y-63931313D01*
X117006823Y-63931313D01*
G37*
G36*
X114466823Y-63931313D02*
G01*
X114627242Y-63979976D01*
X114759906Y-64050886D01*
X114775078Y-64058996D01*
X114904659Y-64165341D01*
X115011004Y-64294922D01*
X115011005Y-64294924D01*
X115090024Y-64442758D01*
X115138687Y-64603177D01*
X115155117Y-64770000D01*
X115138687Y-64936823D01*
X115090024Y-65097242D01*
X115019114Y-65229906D01*
X115011004Y-65245078D01*
X114904659Y-65374659D01*
X114775078Y-65481004D01*
X114775076Y-65481005D01*
X114627242Y-65560024D01*
X114466823Y-65608687D01*
X114341804Y-65621000D01*
X114258196Y-65621000D01*
X114133177Y-65608687D01*
X113972758Y-65560024D01*
X113824924Y-65481005D01*
X113824922Y-65481004D01*
X113695341Y-65374659D01*
X113588996Y-65245078D01*
X113580886Y-65229906D01*
X113509976Y-65097242D01*
X113461313Y-64936823D01*
X113444883Y-64770000D01*
X113461313Y-64603177D01*
X113509976Y-64442758D01*
X113588995Y-64294924D01*
X113588996Y-64294922D01*
X113695341Y-64165341D01*
X113824922Y-64058996D01*
X113840094Y-64050886D01*
X113972758Y-63979976D01*
X114133177Y-63931313D01*
X114258196Y-63919000D01*
X114341804Y-63919000D01*
X114466823Y-63931313D01*
X114466823Y-63931313D01*
G37*
G36*
X111926823Y-63931313D02*
G01*
X112087242Y-63979976D01*
X112219906Y-64050886D01*
X112235078Y-64058996D01*
X112364659Y-64165341D01*
X112471004Y-64294922D01*
X112471005Y-64294924D01*
X112550024Y-64442758D01*
X112598687Y-64603177D01*
X112615117Y-64770000D01*
X112598687Y-64936823D01*
X112550024Y-65097242D01*
X112479114Y-65229906D01*
X112471004Y-65245078D01*
X112364659Y-65374659D01*
X112235078Y-65481004D01*
X112235076Y-65481005D01*
X112087242Y-65560024D01*
X111926823Y-65608687D01*
X111801804Y-65621000D01*
X111718196Y-65621000D01*
X111593177Y-65608687D01*
X111432758Y-65560024D01*
X111284924Y-65481005D01*
X111284922Y-65481004D01*
X111155341Y-65374659D01*
X111048996Y-65245078D01*
X111040886Y-65229906D01*
X110969976Y-65097242D01*
X110921313Y-64936823D01*
X110904883Y-64770000D01*
X110921313Y-64603177D01*
X110969976Y-64442758D01*
X111048995Y-64294924D01*
X111048996Y-64294922D01*
X111155341Y-64165341D01*
X111284922Y-64058996D01*
X111300094Y-64050886D01*
X111432758Y-63979976D01*
X111593177Y-63931313D01*
X111718196Y-63919000D01*
X111801804Y-63919000D01*
X111926823Y-63931313D01*
X111926823Y-63931313D01*
G37*
G36*
X109386823Y-63931313D02*
G01*
X109547242Y-63979976D01*
X109679906Y-64050886D01*
X109695078Y-64058996D01*
X109824659Y-64165341D01*
X109931004Y-64294922D01*
X109931005Y-64294924D01*
X110010024Y-64442758D01*
X110058687Y-64603177D01*
X110075117Y-64770000D01*
X110058687Y-64936823D01*
X110010024Y-65097242D01*
X109939114Y-65229906D01*
X109931004Y-65245078D01*
X109824659Y-65374659D01*
X109695078Y-65481004D01*
X109695076Y-65481005D01*
X109547242Y-65560024D01*
X109386823Y-65608687D01*
X109261804Y-65621000D01*
X109178196Y-65621000D01*
X109053177Y-65608687D01*
X108892758Y-65560024D01*
X108744924Y-65481005D01*
X108744922Y-65481004D01*
X108615341Y-65374659D01*
X108508996Y-65245078D01*
X108500886Y-65229906D01*
X108429976Y-65097242D01*
X108381313Y-64936823D01*
X108364883Y-64770000D01*
X108381313Y-64603177D01*
X108429976Y-64442758D01*
X108508995Y-64294924D01*
X108508996Y-64294922D01*
X108615341Y-64165341D01*
X108744922Y-64058996D01*
X108760094Y-64050886D01*
X108892758Y-63979976D01*
X109053177Y-63931313D01*
X109178196Y-63919000D01*
X109261804Y-63919000D01*
X109386823Y-63931313D01*
X109386823Y-63931313D01*
G37*
G36*
X106846823Y-63931313D02*
G01*
X107007242Y-63979976D01*
X107139906Y-64050886D01*
X107155078Y-64058996D01*
X107284659Y-64165341D01*
X107391004Y-64294922D01*
X107391005Y-64294924D01*
X107470024Y-64442758D01*
X107518687Y-64603177D01*
X107535117Y-64770000D01*
X107518687Y-64936823D01*
X107470024Y-65097242D01*
X107399114Y-65229906D01*
X107391004Y-65245078D01*
X107284659Y-65374659D01*
X107155078Y-65481004D01*
X107155076Y-65481005D01*
X107007242Y-65560024D01*
X106846823Y-65608687D01*
X106721804Y-65621000D01*
X106638196Y-65621000D01*
X106513177Y-65608687D01*
X106352758Y-65560024D01*
X106204924Y-65481005D01*
X106204922Y-65481004D01*
X106075341Y-65374659D01*
X105968996Y-65245078D01*
X105960886Y-65229906D01*
X105889976Y-65097242D01*
X105841313Y-64936823D01*
X105824883Y-64770000D01*
X105841313Y-64603177D01*
X105889976Y-64442758D01*
X105968995Y-64294924D01*
X105968996Y-64294922D01*
X106075341Y-64165341D01*
X106204922Y-64058996D01*
X106220094Y-64050886D01*
X106352758Y-63979976D01*
X106513177Y-63931313D01*
X106638196Y-63919000D01*
X106721804Y-63919000D01*
X106846823Y-63931313D01*
X106846823Y-63931313D01*
G37*
G36*
X104306823Y-63931313D02*
G01*
X104467242Y-63979976D01*
X104599906Y-64050886D01*
X104615078Y-64058996D01*
X104744659Y-64165341D01*
X104851004Y-64294922D01*
X104851005Y-64294924D01*
X104930024Y-64442758D01*
X104978687Y-64603177D01*
X104995117Y-64770000D01*
X104978687Y-64936823D01*
X104930024Y-65097242D01*
X104859114Y-65229906D01*
X104851004Y-65245078D01*
X104744659Y-65374659D01*
X104615078Y-65481004D01*
X104615076Y-65481005D01*
X104467242Y-65560024D01*
X104306823Y-65608687D01*
X104181804Y-65621000D01*
X104098196Y-65621000D01*
X103973177Y-65608687D01*
X103812758Y-65560024D01*
X103664924Y-65481005D01*
X103664922Y-65481004D01*
X103535341Y-65374659D01*
X103428996Y-65245078D01*
X103420886Y-65229906D01*
X103349976Y-65097242D01*
X103301313Y-64936823D01*
X103284883Y-64770000D01*
X103301313Y-64603177D01*
X103349976Y-64442758D01*
X103428995Y-64294924D01*
X103428996Y-64294922D01*
X103535341Y-64165341D01*
X103664922Y-64058996D01*
X103680094Y-64050886D01*
X103812758Y-63979976D01*
X103973177Y-63931313D01*
X104098196Y-63919000D01*
X104181804Y-63919000D01*
X104306823Y-63931313D01*
X104306823Y-63931313D01*
G37*
G36*
X139866823Y-63931313D02*
G01*
X140027242Y-63979976D01*
X140159906Y-64050886D01*
X140175078Y-64058996D01*
X140304659Y-64165341D01*
X140411004Y-64294922D01*
X140411005Y-64294924D01*
X140490024Y-64442758D01*
X140538687Y-64603177D01*
X140555117Y-64770000D01*
X140538687Y-64936823D01*
X140490024Y-65097242D01*
X140419114Y-65229906D01*
X140411004Y-65245078D01*
X140304659Y-65374659D01*
X140175078Y-65481004D01*
X140175076Y-65481005D01*
X140027242Y-65560024D01*
X139866823Y-65608687D01*
X139741804Y-65621000D01*
X139658196Y-65621000D01*
X139533177Y-65608687D01*
X139372758Y-65560024D01*
X139224924Y-65481005D01*
X139224922Y-65481004D01*
X139095341Y-65374659D01*
X138988996Y-65245078D01*
X138980886Y-65229906D01*
X138909976Y-65097242D01*
X138861313Y-64936823D01*
X138844883Y-64770000D01*
X138861313Y-64603177D01*
X138909976Y-64442758D01*
X138988995Y-64294924D01*
X138988996Y-64294922D01*
X139095341Y-64165341D01*
X139224922Y-64058996D01*
X139240094Y-64050886D01*
X139372758Y-63979976D01*
X139533177Y-63931313D01*
X139658196Y-63919000D01*
X139741804Y-63919000D01*
X139866823Y-63931313D01*
X139866823Y-63931313D01*
G37*
M02*
