G04 #@! TF.GenerationSoftware,KiCad,Pcbnew,(5.1.0-0)*
G04 #@! TF.CreationDate,2019-10-13T08:07:34-07:00*
G04 #@! TF.ProjectId,ArduinoSerialCard,41726475-696e-46f5-9365-7269616c4361,rev?*
G04 #@! TF.SameCoordinates,Original*
G04 #@! TF.FileFunction,Copper,L1,Top*
G04 #@! TF.FilePolarity,Positive*
%FSLAX46Y46*%
G04 Gerber Fmt 4.6, Leading zero omitted, Abs format (unit mm)*
G04 Created by KiCad (PCBNEW (5.1.0-0)) date 2019-10-13 08:07:34*
%MOMM*%
%LPD*%
G04 APERTURE LIST*
%ADD10O,1.700000X1.700000*%
%ADD11R,1.700000X1.700000*%
%ADD12O,1.600000X1.600000*%
%ADD13R,1.600000X1.600000*%
%ADD14C,0.250000*%
G04 APERTURE END LIST*
D10*
X137160000Y-81280000D03*
X137160000Y-78740000D03*
X139700000Y-81280000D03*
X139700000Y-78740000D03*
X142240000Y-81280000D03*
X142240000Y-78740000D03*
X144780000Y-81280000D03*
X144780000Y-78740000D03*
X147320000Y-81280000D03*
X147320000Y-78740000D03*
X149860000Y-81280000D03*
X149860000Y-78740000D03*
X152400000Y-81280000D03*
X152400000Y-78740000D03*
X154940000Y-81280000D03*
X154940000Y-78740000D03*
X157480000Y-81280000D03*
X157480000Y-78740000D03*
X160020000Y-81280000D03*
X160020000Y-78740000D03*
X162560000Y-81280000D03*
X162560000Y-78740000D03*
X165100000Y-81280000D03*
X165100000Y-78740000D03*
X167640000Y-81280000D03*
X167640000Y-78740000D03*
X170180000Y-81280000D03*
X170180000Y-78740000D03*
X172720000Y-81280000D03*
X172720000Y-78740000D03*
X175260000Y-81280000D03*
X175260000Y-78740000D03*
X177800000Y-81280000D03*
X177800000Y-78740000D03*
X180340000Y-81280000D03*
X180340000Y-78740000D03*
X182880000Y-81280000D03*
X182880000Y-78740000D03*
X185420000Y-81280000D03*
D11*
X185420000Y-78740000D03*
D12*
X182880000Y-58420000D03*
X182880000Y-73660000D03*
X147320000Y-58420000D03*
X180340000Y-73660000D03*
X149860000Y-58420000D03*
X177800000Y-73660000D03*
X152400000Y-58420000D03*
X175260000Y-73660000D03*
X154940000Y-58420000D03*
X172720000Y-73660000D03*
X157480000Y-58420000D03*
X170180000Y-73660000D03*
X160020000Y-58420000D03*
X167640000Y-73660000D03*
X162560000Y-58420000D03*
X165100000Y-73660000D03*
X165100000Y-58420000D03*
X162560000Y-73660000D03*
X167640000Y-58420000D03*
X160020000Y-73660000D03*
X170180000Y-58420000D03*
X157480000Y-73660000D03*
X172720000Y-58420000D03*
X154940000Y-73660000D03*
X175260000Y-58420000D03*
X152400000Y-73660000D03*
X177800000Y-58420000D03*
X149860000Y-73660000D03*
X180340000Y-58420000D03*
D13*
X147320000Y-73660000D03*
D14*
X144780000Y-63500000D02*
X144780000Y-78740000D01*
X149860000Y-58420000D02*
X144780000Y-63500000D01*
X151130000Y-73264998D02*
X151130000Y-80010000D01*
X151130000Y-80010000D02*
X151550001Y-80430001D01*
X180340000Y-73660000D02*
X177864966Y-71184966D01*
X177864966Y-71184966D02*
X153210032Y-71184966D01*
X153210032Y-71184966D02*
X151130000Y-73264998D01*
X151550001Y-80430001D02*
X152400000Y-81280000D01*
X177800000Y-73660000D02*
X175774977Y-71634977D01*
X155300021Y-71634977D02*
X153814999Y-73119999D01*
X175774977Y-71634977D02*
X155300021Y-71634977D01*
X153814999Y-73119999D02*
X153814999Y-73910003D01*
X153814999Y-73910003D02*
X152400000Y-75325002D01*
X152400000Y-75325002D02*
X152400000Y-77537919D01*
X152400000Y-77537919D02*
X152400000Y-78740000D01*
X157390010Y-72084988D02*
X173684988Y-72084988D01*
X173684988Y-72084988D02*
X174460001Y-72860001D01*
X174460001Y-72860001D02*
X175260000Y-73660000D01*
X154940000Y-81280000D02*
X153670000Y-80010000D01*
X153670000Y-80010000D02*
X153670000Y-77470000D01*
X153670000Y-77470000D02*
X156210000Y-74930000D01*
X156210000Y-74930000D02*
X156210000Y-73264998D01*
X156210000Y-73264998D02*
X157390010Y-72084988D01*
X171594999Y-72534999D02*
X172720000Y-73660000D01*
X158894999Y-73119999D02*
X159479999Y-72534999D01*
X158894999Y-74785001D02*
X158894999Y-73119999D01*
X154940000Y-78740000D02*
X158894999Y-74785001D01*
X159479999Y-72534999D02*
X171594999Y-72534999D01*
X169380001Y-74459999D02*
X170180000Y-73660000D01*
X164325986Y-75235012D02*
X168604988Y-75235012D01*
X157480000Y-81280000D02*
X158844999Y-79915001D01*
X160584001Y-79915001D02*
X161195001Y-79304001D01*
X161195001Y-79304001D02*
X161195001Y-78365997D01*
X158844999Y-79915001D02*
X160584001Y-79915001D01*
X161195001Y-78365997D02*
X164325986Y-75235012D01*
X168604988Y-75235012D02*
X169380001Y-74459999D01*
X166840001Y-74459999D02*
X167640000Y-73660000D01*
X166514999Y-74785001D02*
X166840001Y-74459999D01*
X157480000Y-78740000D02*
X161434999Y-74785001D01*
X161434999Y-74785001D02*
X166514999Y-74785001D01*
X181754999Y-73910003D02*
X179973002Y-75692000D01*
X181754999Y-64914999D02*
X181754999Y-73910003D01*
X175260000Y-58420000D02*
X181754999Y-64914999D01*
X165608000Y-75692000D02*
X162560000Y-78740000D01*
X179973002Y-75692000D02*
X165608000Y-75692000D01*
M02*
