G04 #@! TF.GenerationSoftware,KiCad,Pcbnew,(5.1.0-0)*
G04 #@! TF.CreationDate,2019-11-12T18:04:14-08:00*
G04 #@! TF.ProjectId,ArduinoSerialCard,41726475-696e-46f5-9365-7269616c4361,rev?*
G04 #@! TF.SameCoordinates,Original*
G04 #@! TF.FileFunction,Copper,L2,Bot*
G04 #@! TF.FilePolarity,Positive*
%FSLAX46Y46*%
G04 Gerber Fmt 4.6, Leading zero omitted, Abs format (unit mm)*
G04 Created by KiCad (PCBNEW (5.1.0-0)) date 2019-11-12 18:04:14*
%MOMM*%
%LPD*%
G04 APERTURE LIST*
%ADD10O,1.700000X1.700000*%
%ADD11R,1.700000X1.700000*%
%ADD12O,1.600000X1.600000*%
%ADD13R,1.600000X1.600000*%
%ADD14C,0.250000*%
G04 APERTURE END LIST*
D10*
X137160000Y-78740000D03*
X137160000Y-81280000D03*
X139700000Y-78740000D03*
X139700000Y-81280000D03*
X142240000Y-78740000D03*
X142240000Y-81280000D03*
X144780000Y-78740000D03*
X144780000Y-81280000D03*
X147320000Y-78740000D03*
X147320000Y-81280000D03*
X149860000Y-78740000D03*
X149860000Y-81280000D03*
X152400000Y-78740000D03*
X152400000Y-81280000D03*
X154940000Y-78740000D03*
X154940000Y-81280000D03*
X157480000Y-78740000D03*
X157480000Y-81280000D03*
X160020000Y-78740000D03*
X160020000Y-81280000D03*
X162560000Y-78740000D03*
X162560000Y-81280000D03*
X165100000Y-78740000D03*
X165100000Y-81280000D03*
X167640000Y-78740000D03*
X167640000Y-81280000D03*
X170180000Y-78740000D03*
X170180000Y-81280000D03*
X172720000Y-78740000D03*
X172720000Y-81280000D03*
X175260000Y-78740000D03*
X175260000Y-81280000D03*
X177800000Y-78740000D03*
X177800000Y-81280000D03*
X180340000Y-78740000D03*
X180340000Y-81280000D03*
X182880000Y-78740000D03*
X182880000Y-81280000D03*
X185420000Y-78740000D03*
D11*
X185420000Y-81280000D03*
D12*
X182880000Y-58420000D03*
X182880000Y-73660000D03*
X147320000Y-58420000D03*
X180340000Y-73660000D03*
X149860000Y-58420000D03*
X177800000Y-73660000D03*
X152400000Y-58420000D03*
X175260000Y-73660000D03*
X154940000Y-58420000D03*
X172720000Y-73660000D03*
X157480000Y-58420000D03*
X170180000Y-73660000D03*
X160020000Y-58420000D03*
X167640000Y-73660000D03*
X162560000Y-58420000D03*
X165100000Y-73660000D03*
X165100000Y-58420000D03*
X162560000Y-73660000D03*
X167640000Y-58420000D03*
X160020000Y-73660000D03*
X170180000Y-58420000D03*
X157480000Y-73660000D03*
X172720000Y-58420000D03*
X154940000Y-73660000D03*
X175260000Y-58420000D03*
X152400000Y-73660000D03*
X177800000Y-58420000D03*
X149860000Y-73660000D03*
X180340000Y-58420000D03*
D13*
X147320000Y-73660000D03*
D14*
X147320000Y-81280000D02*
X147320000Y-78740000D01*
X144780000Y-81280000D02*
X147320000Y-81280000D01*
X146117919Y-78740000D02*
X144780000Y-78740000D01*
X147320000Y-78740000D02*
X146117919Y-78740000D01*
X143577919Y-78740000D02*
X142240000Y-78740000D01*
X144780000Y-78740000D02*
X143577919Y-78740000D01*
X142240000Y-78740000D02*
X139700000Y-78740000D01*
X139700000Y-78740000D02*
X137160000Y-78740000D01*
X137160000Y-81280000D02*
X139700000Y-81280000D01*
X139700000Y-81280000D02*
X142240000Y-81280000D01*
X143442081Y-81280000D02*
X144780000Y-81280000D01*
X142240000Y-81280000D02*
X143442081Y-81280000D01*
X144780000Y-80077919D02*
X144780000Y-78740000D01*
X144780000Y-81280000D02*
X144780000Y-80077919D01*
X142240000Y-79942081D02*
X142240000Y-81280000D01*
X142240000Y-78740000D02*
X142240000Y-79942081D01*
X139700000Y-79942081D02*
X139700000Y-81280000D01*
X139700000Y-78740000D02*
X139700000Y-79942081D01*
X137160000Y-81280000D02*
X137160000Y-78740000D01*
X148495001Y-82455001D02*
X148169999Y-82129999D01*
X148169999Y-82129999D02*
X147320000Y-81280000D01*
X184244999Y-82455001D02*
X148495001Y-82455001D01*
X185420000Y-81280000D02*
X184244999Y-82455001D01*
X144780000Y-63500000D02*
X144780000Y-78740000D01*
X149860000Y-58420000D02*
X144780000Y-63500000D01*
X148169999Y-77890001D02*
X147320000Y-78740000D01*
X148495001Y-77564999D02*
X148169999Y-77890001D01*
X151035001Y-77564999D02*
X148495001Y-77564999D01*
X154940000Y-73660000D02*
X151035001Y-77564999D01*
M02*
