M48
; DRILL file {KiCad (5.1.0-0)} date Tuesday, November 12, 2019 at 12:36:59 AM
; FORMAT={-:-/ absolute / inch / decimal}
; #@! TF.CreationDate,2019-11-12T00:36:59-08:00
; #@! TF.GenerationSoftware,Kicad,Pcbnew,(5.1.0-0)
FMAT,2
INCH
T1C0.0315
T2C0.0394
%
G90
G05
T1
X3.05Y-3.6
X3.05Y-3.7969
X4.1Y-2.55
X4.1Y-3.15
X4.2Y-2.55
X4.2Y-3.15
X4.3Y-2.55
X4.3Y-3.15
X4.4Y-2.55
X4.4Y-3.15
X4.5Y-2.55
X4.5Y-3.15
X4.6Y-2.55
X4.6Y-3.15
X4.7Y-2.55
X4.7Y-3.15
X4.8Y-2.55
X4.8Y-3.15
X3.3Y-3.4
X4.9Y-2.55
X4.9Y-3.15
X5.0Y-2.55
X5.0Y-3.15
X5.1Y-2.55
X5.1Y-3.15
X5.2Y-2.55
X5.2Y-3.15
X5.3Y-2.55
X5.3Y-3.15
X5.4Y-2.55
X5.4Y-3.15
X3.3Y-4.0
X3.4Y-3.4
X3.4Y-4.0
X3.5Y-3.4
X3.5Y-4.0
X3.6Y-3.4
X3.6Y-4.0
X3.7Y-3.4
X3.7Y-4.0
X3.8Y-3.4
X3.8Y-4.0
X3.9Y-3.4
X3.9Y-4.0
X4.0Y-3.4
X4.0Y-4.0
X4.1Y-3.4
X4.1Y-4.0
X4.2Y-3.4
X4.2Y-4.0
X4.3Y-3.4
X4.3Y-4.0
X4.4Y-3.4
X4.4Y-4.0
X4.5Y-3.4
X4.5Y-4.0
X4.6Y-3.4
X4.6Y-4.0
X4.7Y-3.4
X4.7Y-4.0
X4.8Y-3.4
X4.8Y-4.0
X4.9Y-3.4
X4.9Y-4.0
X5.0Y-3.4
X5.0Y-4.0
X5.1Y-3.4
X5.1Y-4.0
X5.2Y-3.4
X5.2Y-4.0
X5.3Y-3.4
X5.3Y-4.0
X5.4Y-3.4
X5.4Y-4.0
X5.5Y-3.4
X5.5Y-4.0
X5.6Y-3.4
X5.6Y-4.0
X5.5Y-2.55
X5.5Y-3.15
T2
X3.7Y-4.3
X3.7Y-4.4
X3.8Y-4.3
X3.8Y-4.4
X3.9Y-4.3
X3.9Y-4.4
X4.0Y-4.3
X4.0Y-4.4
X4.1Y-4.3
X4.1Y-4.4
X4.2Y-4.3
X4.2Y-4.4
X4.3Y-4.3
X4.3Y-4.4
X4.4Y-4.3
X4.4Y-4.4
X4.5Y-4.3
X4.5Y-4.4
X4.6Y-4.3
X4.6Y-4.4
X4.7Y-4.3
X4.7Y-4.4
X4.8Y-4.3
X4.8Y-4.4
X4.9Y-4.3
X4.9Y-4.4
X5.0Y-4.3
X5.0Y-4.4
X5.1Y-4.3
X5.1Y-4.4
X5.2Y-4.3
X5.2Y-4.4
X5.3Y-4.3
X5.3Y-4.4
X5.4Y-4.3
X5.4Y-4.4
X5.5Y-4.3
X5.5Y-4.4
X5.6Y-4.3
X5.6Y-4.4
T0
M30
