G04 #@! TF.GenerationSoftware,KiCad,Pcbnew,(5.1.0-0)*
G04 #@! TF.CreationDate,2019-10-13T08:07:34-07:00*
G04 #@! TF.ProjectId,ArduinoSerialCard,41726475-696e-46f5-9365-7269616c4361,rev?*
G04 #@! TF.SameCoordinates,Original*
G04 #@! TF.FileFunction,Legend,Bot*
G04 #@! TF.FilePolarity,Positive*
%FSLAX46Y46*%
G04 Gerber Fmt 4.6, Leading zero omitted, Abs format (unit mm)*
G04 Created by KiCad (PCBNEW (5.1.0-0)) date 2019-10-13 08:07:34*
%MOMM*%
%LPD*%
G04 APERTURE LIST*
%ADD10C,0.300000*%
G04 APERTURE END LIST*
D10*
X174921000Y-66158000D02*
X174206714Y-66158000D01*
X175063857Y-66586571D02*
X174563857Y-65086571D01*
X174063857Y-66586571D01*
X173563857Y-66586571D02*
X173563857Y-65586571D01*
X173563857Y-65872285D02*
X173492428Y-65729428D01*
X173421000Y-65658000D01*
X173278142Y-65586571D01*
X173135285Y-65586571D01*
X171992428Y-66586571D02*
X171992428Y-65086571D01*
X171992428Y-66515142D02*
X172135285Y-66586571D01*
X172421000Y-66586571D01*
X172563857Y-66515142D01*
X172635285Y-66443714D01*
X172706714Y-66300857D01*
X172706714Y-65872285D01*
X172635285Y-65729428D01*
X172563857Y-65658000D01*
X172421000Y-65586571D01*
X172135285Y-65586571D01*
X171992428Y-65658000D01*
X170635285Y-65586571D02*
X170635285Y-66586571D01*
X171278142Y-65586571D02*
X171278142Y-66372285D01*
X171206714Y-66515142D01*
X171063857Y-66586571D01*
X170849571Y-66586571D01*
X170706714Y-66515142D01*
X170635285Y-66443714D01*
X169920999Y-66586571D02*
X169920999Y-65586571D01*
X169920999Y-65086571D02*
X169992428Y-65158000D01*
X169920999Y-65229428D01*
X169849571Y-65158000D01*
X169920999Y-65086571D01*
X169920999Y-65229428D01*
X169206714Y-65586571D02*
X169206714Y-66586571D01*
X169206714Y-65729428D02*
X169135285Y-65658000D01*
X168992428Y-65586571D01*
X168778142Y-65586571D01*
X168635285Y-65658000D01*
X168563857Y-65800857D01*
X168563857Y-66586571D01*
X167635285Y-66586571D02*
X167778142Y-66515142D01*
X167849571Y-66443714D01*
X167920999Y-66300857D01*
X167920999Y-65872285D01*
X167849571Y-65729428D01*
X167778142Y-65658000D01*
X167635285Y-65586571D01*
X167420999Y-65586571D01*
X167278142Y-65658000D01*
X167206714Y-65729428D01*
X167135285Y-65872285D01*
X167135285Y-66300857D01*
X167206714Y-66443714D01*
X167278142Y-66515142D01*
X167420999Y-66586571D01*
X167635285Y-66586571D01*
X165420999Y-66515142D02*
X165206714Y-66586571D01*
X164849571Y-66586571D01*
X164706714Y-66515142D01*
X164635285Y-66443714D01*
X164563857Y-66300857D01*
X164563857Y-66158000D01*
X164635285Y-66015142D01*
X164706714Y-65943714D01*
X164849571Y-65872285D01*
X165135285Y-65800857D01*
X165278142Y-65729428D01*
X165349571Y-65658000D01*
X165420999Y-65515142D01*
X165420999Y-65372285D01*
X165349571Y-65229428D01*
X165278142Y-65158000D01*
X165135285Y-65086571D01*
X164778142Y-65086571D01*
X164563857Y-65158000D01*
X163349571Y-66515142D02*
X163492428Y-66586571D01*
X163778142Y-66586571D01*
X163920999Y-66515142D01*
X163992428Y-66372285D01*
X163992428Y-65800857D01*
X163920999Y-65658000D01*
X163778142Y-65586571D01*
X163492428Y-65586571D01*
X163349571Y-65658000D01*
X163278142Y-65800857D01*
X163278142Y-65943714D01*
X163992428Y-66086571D01*
X162635285Y-66586571D02*
X162635285Y-65586571D01*
X162635285Y-65872285D02*
X162563857Y-65729428D01*
X162492428Y-65658000D01*
X162349571Y-65586571D01*
X162206714Y-65586571D01*
X161706714Y-66586571D02*
X161706714Y-65586571D01*
X161706714Y-65086571D02*
X161778142Y-65158000D01*
X161706714Y-65229428D01*
X161635285Y-65158000D01*
X161706714Y-65086571D01*
X161706714Y-65229428D01*
X160349571Y-66586571D02*
X160349571Y-65800857D01*
X160420999Y-65658000D01*
X160563857Y-65586571D01*
X160849571Y-65586571D01*
X160992428Y-65658000D01*
X160349571Y-66515142D02*
X160492428Y-66586571D01*
X160849571Y-66586571D01*
X160992428Y-66515142D01*
X161063857Y-66372285D01*
X161063857Y-66229428D01*
X160992428Y-66086571D01*
X160849571Y-66015142D01*
X160492428Y-66015142D01*
X160349571Y-65943714D01*
X159420999Y-66586571D02*
X159563857Y-66515142D01*
X159635285Y-66372285D01*
X159635285Y-65086571D01*
X157706714Y-66586571D02*
X157706714Y-65086571D01*
X156992428Y-65586571D02*
X156992428Y-66586571D01*
X156992428Y-65729428D02*
X156920999Y-65658000D01*
X156778142Y-65586571D01*
X156563857Y-65586571D01*
X156420999Y-65658000D01*
X156349571Y-65800857D01*
X156349571Y-66586571D01*
X155849571Y-65586571D02*
X155278142Y-65586571D01*
X155635285Y-65086571D02*
X155635285Y-66372285D01*
X155563857Y-66515142D01*
X155420999Y-66586571D01*
X155278142Y-66586571D01*
X154206714Y-66515142D02*
X154349571Y-66586571D01*
X154635285Y-66586571D01*
X154778142Y-66515142D01*
X154849571Y-66372285D01*
X154849571Y-65800857D01*
X154778142Y-65658000D01*
X154635285Y-65586571D01*
X154349571Y-65586571D01*
X154206714Y-65658000D01*
X154135285Y-65800857D01*
X154135285Y-65943714D01*
X154849571Y-66086571D01*
X153492428Y-66586571D02*
X153492428Y-65586571D01*
X153492428Y-65872285D02*
X153420999Y-65729428D01*
X153349571Y-65658000D01*
X153206714Y-65586571D01*
X153063857Y-65586571D01*
X152778142Y-65586571D02*
X152206714Y-65586571D01*
X152563857Y-66586571D02*
X152563857Y-65300857D01*
X152492428Y-65158000D01*
X152349571Y-65086571D01*
X152206714Y-65086571D01*
X151063857Y-66586571D02*
X151063857Y-65800857D01*
X151135285Y-65658000D01*
X151278142Y-65586571D01*
X151563857Y-65586571D01*
X151706714Y-65658000D01*
X151063857Y-66515142D02*
X151206714Y-66586571D01*
X151563857Y-66586571D01*
X151706714Y-66515142D01*
X151778142Y-66372285D01*
X151778142Y-66229428D01*
X151706714Y-66086571D01*
X151563857Y-66015142D01*
X151206714Y-66015142D01*
X151063857Y-65943714D01*
X149706714Y-66515142D02*
X149849571Y-66586571D01*
X150135285Y-66586571D01*
X150278142Y-66515142D01*
X150349571Y-66443714D01*
X150420999Y-66300857D01*
X150420999Y-65872285D01*
X150349571Y-65729428D01*
X150278142Y-65658000D01*
X150135285Y-65586571D01*
X149849571Y-65586571D01*
X149706714Y-65658000D01*
X148492428Y-66515142D02*
X148635285Y-66586571D01*
X148920999Y-66586571D01*
X149063857Y-66515142D01*
X149135285Y-66372285D01*
X149135285Y-65800857D01*
X149063857Y-65658000D01*
X148920999Y-65586571D01*
X148635285Y-65586571D01*
X148492428Y-65658000D01*
X148420999Y-65800857D01*
X148420999Y-65943714D01*
X149135285Y-66086571D01*
X175956714Y-67993714D02*
X176099571Y-67922285D01*
X176385285Y-67922285D01*
X176528142Y-67993714D01*
X176671000Y-68136571D01*
X176742428Y-68279428D01*
X176742428Y-68565142D01*
X176671000Y-68708000D01*
X176528142Y-68850857D01*
X176385285Y-68922285D01*
X176099571Y-68922285D01*
X175956714Y-68850857D01*
X176242428Y-67422285D02*
X176599571Y-67493714D01*
X176956714Y-67708000D01*
X177171000Y-68065142D01*
X177242428Y-68422285D01*
X177171000Y-68779428D01*
X176956714Y-69136571D01*
X176599571Y-69350857D01*
X176242428Y-69422285D01*
X175885285Y-69350857D01*
X175528142Y-69136571D01*
X175313857Y-68779428D01*
X175242428Y-68422285D01*
X175313857Y-68065142D01*
X175528142Y-67708000D01*
X175885285Y-67493714D01*
X176242428Y-67422285D01*
X173528142Y-67779428D02*
X173456714Y-67708000D01*
X173313857Y-67636571D01*
X172956714Y-67636571D01*
X172813857Y-67708000D01*
X172742428Y-67779428D01*
X172671000Y-67922285D01*
X172671000Y-68065142D01*
X172742428Y-68279428D01*
X173599571Y-69136571D01*
X172671000Y-69136571D01*
X171742428Y-67636571D02*
X171599571Y-67636571D01*
X171456714Y-67708000D01*
X171385285Y-67779428D01*
X171313857Y-67922285D01*
X171242428Y-68208000D01*
X171242428Y-68565142D01*
X171313857Y-68850857D01*
X171385285Y-68993714D01*
X171456714Y-69065142D01*
X171599571Y-69136571D01*
X171742428Y-69136571D01*
X171885285Y-69065142D01*
X171956714Y-68993714D01*
X172028142Y-68850857D01*
X172099571Y-68565142D01*
X172099571Y-68208000D01*
X172028142Y-67922285D01*
X171956714Y-67779428D01*
X171885285Y-67708000D01*
X171742428Y-67636571D01*
X169813857Y-69136571D02*
X170671000Y-69136571D01*
X170242428Y-69136571D02*
X170242428Y-67636571D01*
X170385285Y-67850857D01*
X170528142Y-67993714D01*
X170671000Y-68065142D01*
X169099571Y-69136571D02*
X168813857Y-69136571D01*
X168671000Y-69065142D01*
X168599571Y-68993714D01*
X168456714Y-68779428D01*
X168385285Y-68493714D01*
X168385285Y-67922285D01*
X168456714Y-67779428D01*
X168528142Y-67708000D01*
X168671000Y-67636571D01*
X168956714Y-67636571D01*
X169099571Y-67708000D01*
X169171000Y-67779428D01*
X169242428Y-67922285D01*
X169242428Y-68279428D01*
X169171000Y-68422285D01*
X169099571Y-68493714D01*
X168956714Y-68565142D01*
X168671000Y-68565142D01*
X168528142Y-68493714D01*
X168456714Y-68422285D01*
X168385285Y-68279428D01*
X166671000Y-68708000D02*
X165956714Y-68708000D01*
X166813857Y-69136571D02*
X166313857Y-67636571D01*
X165813857Y-69136571D01*
X165313857Y-68136571D02*
X165313857Y-69136571D01*
X165313857Y-68279428D02*
X165242428Y-68208000D01*
X165099571Y-68136571D01*
X164885285Y-68136571D01*
X164742428Y-68208000D01*
X164671000Y-68350857D01*
X164671000Y-69136571D01*
X163313857Y-69136571D02*
X163313857Y-67636571D01*
X163313857Y-69065142D02*
X163456714Y-69136571D01*
X163742428Y-69136571D01*
X163885285Y-69065142D01*
X163956714Y-68993714D01*
X164028142Y-68850857D01*
X164028142Y-68422285D01*
X163956714Y-68279428D01*
X163885285Y-68208000D01*
X163742428Y-68136571D01*
X163456714Y-68136571D01*
X163313857Y-68208000D01*
X162599571Y-69136571D02*
X162599571Y-68136571D01*
X162599571Y-68422285D02*
X162528142Y-68279428D01*
X162456714Y-68208000D01*
X162313857Y-68136571D01*
X162171000Y-68136571D01*
X161099571Y-69065142D02*
X161242428Y-69136571D01*
X161528142Y-69136571D01*
X161671000Y-69065142D01*
X161742428Y-68922285D01*
X161742428Y-68350857D01*
X161671000Y-68208000D01*
X161528142Y-68136571D01*
X161242428Y-68136571D01*
X161099571Y-68208000D01*
X161028142Y-68350857D01*
X161028142Y-68493714D01*
X161742428Y-68636571D01*
X160528142Y-68136571D02*
X160242428Y-69136571D01*
X159956714Y-68422285D01*
X159671000Y-69136571D01*
X159385285Y-68136571D01*
X157171000Y-68350857D02*
X157671000Y-68350857D01*
X157671000Y-69136571D02*
X157671000Y-67636571D01*
X156956714Y-67636571D01*
X156171000Y-69136571D02*
X156313857Y-69065142D01*
X156385285Y-68993714D01*
X156456714Y-68850857D01*
X156456714Y-68422285D01*
X156385285Y-68279428D01*
X156313857Y-68208000D01*
X156171000Y-68136571D01*
X155956714Y-68136571D01*
X155813857Y-68208000D01*
X155742428Y-68279428D01*
X155671000Y-68422285D01*
X155671000Y-68850857D01*
X155742428Y-68993714D01*
X155813857Y-69065142D01*
X155956714Y-69136571D01*
X156171000Y-69136571D01*
X155171000Y-69136571D02*
X154385285Y-68136571D01*
X155171000Y-68136571D02*
X154385285Y-69136571D01*
X153742428Y-69065142D02*
X153742428Y-69136571D01*
X153813857Y-69279428D01*
X153885285Y-69350857D01*
X151099571Y-69136571D02*
X151599571Y-68422285D01*
X151956714Y-69136571D02*
X151956714Y-67636571D01*
X151385285Y-67636571D01*
X151242428Y-67708000D01*
X151171000Y-67779428D01*
X151099571Y-67922285D01*
X151099571Y-68136571D01*
X151171000Y-68279428D01*
X151242428Y-68350857D01*
X151385285Y-68422285D01*
X151956714Y-68422285D01*
X149885285Y-69065142D02*
X150028142Y-69136571D01*
X150313857Y-69136571D01*
X150456714Y-69065142D01*
X150528142Y-68922285D01*
X150528142Y-68350857D01*
X150456714Y-68208000D01*
X150313857Y-68136571D01*
X150028142Y-68136571D01*
X149885285Y-68208000D01*
X149813857Y-68350857D01*
X149813857Y-68493714D01*
X150528142Y-68636571D01*
X149313857Y-68136571D02*
X148956714Y-69136571D01*
X148599571Y-68136571D01*
X146099571Y-69136571D02*
X146956714Y-69136571D01*
X146528142Y-69136571D02*
X146528142Y-67636571D01*
X146671000Y-67850857D01*
X146813857Y-67993714D01*
X146956714Y-68065142D01*
M02*
