G04 #@! TF.GenerationSoftware,KiCad,Pcbnew,(5.1.0-0)*
G04 #@! TF.CreationDate,2019-10-08T22:08:56-07:00*
G04 #@! TF.ProjectId,InstructionROMDaughterBoard,496e7374-7275-4637-9469-6f6e524f4d44,rev?*
G04 #@! TF.SameCoordinates,Original*
G04 #@! TF.FileFunction,Soldermask,Bot*
G04 #@! TF.FilePolarity,Negative*
%FSLAX46Y46*%
G04 Gerber Fmt 4.6, Leading zero omitted, Abs format (unit mm)*
G04 Created by KiCad (PCBNEW (5.1.0-0)) date 2019-10-08 22:08:56*
%MOMM*%
%LPD*%
G04 APERTURE LIST*
%ADD10C,0.100000*%
G04 APERTURE END LIST*
D10*
G36*
X168541000Y-99961000D02*
G01*
X166739000Y-99961000D01*
X166739000Y-98159000D01*
X168541000Y-98159000D01*
X168541000Y-99961000D01*
X168541000Y-99961000D01*
G37*
G36*
X165210443Y-98165519D02*
G01*
X165276627Y-98172037D01*
X165446466Y-98223557D01*
X165602991Y-98307222D01*
X165638729Y-98336552D01*
X165740186Y-98419814D01*
X165823448Y-98521271D01*
X165852778Y-98557009D01*
X165936443Y-98713534D01*
X165987963Y-98883373D01*
X166005359Y-99060000D01*
X165987963Y-99236627D01*
X165936443Y-99406466D01*
X165852778Y-99562991D01*
X165823448Y-99598729D01*
X165740186Y-99700186D01*
X165638729Y-99783448D01*
X165602991Y-99812778D01*
X165446466Y-99896443D01*
X165276627Y-99947963D01*
X165210443Y-99954481D01*
X165144260Y-99961000D01*
X165055740Y-99961000D01*
X164989557Y-99954481D01*
X164923373Y-99947963D01*
X164753534Y-99896443D01*
X164597009Y-99812778D01*
X164561271Y-99783448D01*
X164459814Y-99700186D01*
X164376552Y-99598729D01*
X164347222Y-99562991D01*
X164263557Y-99406466D01*
X164212037Y-99236627D01*
X164194641Y-99060000D01*
X164212037Y-98883373D01*
X164263557Y-98713534D01*
X164347222Y-98557009D01*
X164376552Y-98521271D01*
X164459814Y-98419814D01*
X164561271Y-98336552D01*
X164597009Y-98307222D01*
X164753534Y-98223557D01*
X164923373Y-98172037D01*
X164989557Y-98165519D01*
X165055740Y-98159000D01*
X165144260Y-98159000D01*
X165210443Y-98165519D01*
X165210443Y-98165519D01*
G37*
G36*
X162670443Y-98165519D02*
G01*
X162736627Y-98172037D01*
X162906466Y-98223557D01*
X163062991Y-98307222D01*
X163098729Y-98336552D01*
X163200186Y-98419814D01*
X163283448Y-98521271D01*
X163312778Y-98557009D01*
X163396443Y-98713534D01*
X163447963Y-98883373D01*
X163465359Y-99060000D01*
X163447963Y-99236627D01*
X163396443Y-99406466D01*
X163312778Y-99562991D01*
X163283448Y-99598729D01*
X163200186Y-99700186D01*
X163098729Y-99783448D01*
X163062991Y-99812778D01*
X162906466Y-99896443D01*
X162736627Y-99947963D01*
X162670443Y-99954481D01*
X162604260Y-99961000D01*
X162515740Y-99961000D01*
X162449557Y-99954481D01*
X162383373Y-99947963D01*
X162213534Y-99896443D01*
X162057009Y-99812778D01*
X162021271Y-99783448D01*
X161919814Y-99700186D01*
X161836552Y-99598729D01*
X161807222Y-99562991D01*
X161723557Y-99406466D01*
X161672037Y-99236627D01*
X161654641Y-99060000D01*
X161672037Y-98883373D01*
X161723557Y-98713534D01*
X161807222Y-98557009D01*
X161836552Y-98521271D01*
X161919814Y-98419814D01*
X162021271Y-98336552D01*
X162057009Y-98307222D01*
X162213534Y-98223557D01*
X162383373Y-98172037D01*
X162449557Y-98165519D01*
X162515740Y-98159000D01*
X162604260Y-98159000D01*
X162670443Y-98165519D01*
X162670443Y-98165519D01*
G37*
G36*
X160130443Y-98165519D02*
G01*
X160196627Y-98172037D01*
X160366466Y-98223557D01*
X160522991Y-98307222D01*
X160558729Y-98336552D01*
X160660186Y-98419814D01*
X160743448Y-98521271D01*
X160772778Y-98557009D01*
X160856443Y-98713534D01*
X160907963Y-98883373D01*
X160925359Y-99060000D01*
X160907963Y-99236627D01*
X160856443Y-99406466D01*
X160772778Y-99562991D01*
X160743448Y-99598729D01*
X160660186Y-99700186D01*
X160558729Y-99783448D01*
X160522991Y-99812778D01*
X160366466Y-99896443D01*
X160196627Y-99947963D01*
X160130443Y-99954481D01*
X160064260Y-99961000D01*
X159975740Y-99961000D01*
X159909557Y-99954481D01*
X159843373Y-99947963D01*
X159673534Y-99896443D01*
X159517009Y-99812778D01*
X159481271Y-99783448D01*
X159379814Y-99700186D01*
X159296552Y-99598729D01*
X159267222Y-99562991D01*
X159183557Y-99406466D01*
X159132037Y-99236627D01*
X159114641Y-99060000D01*
X159132037Y-98883373D01*
X159183557Y-98713534D01*
X159267222Y-98557009D01*
X159296552Y-98521271D01*
X159379814Y-98419814D01*
X159481271Y-98336552D01*
X159517009Y-98307222D01*
X159673534Y-98223557D01*
X159843373Y-98172037D01*
X159909557Y-98165519D01*
X159975740Y-98159000D01*
X160064260Y-98159000D01*
X160130443Y-98165519D01*
X160130443Y-98165519D01*
G37*
G36*
X157590443Y-98165519D02*
G01*
X157656627Y-98172037D01*
X157826466Y-98223557D01*
X157982991Y-98307222D01*
X158018729Y-98336552D01*
X158120186Y-98419814D01*
X158203448Y-98521271D01*
X158232778Y-98557009D01*
X158316443Y-98713534D01*
X158367963Y-98883373D01*
X158385359Y-99060000D01*
X158367963Y-99236627D01*
X158316443Y-99406466D01*
X158232778Y-99562991D01*
X158203448Y-99598729D01*
X158120186Y-99700186D01*
X158018729Y-99783448D01*
X157982991Y-99812778D01*
X157826466Y-99896443D01*
X157656627Y-99947963D01*
X157590443Y-99954481D01*
X157524260Y-99961000D01*
X157435740Y-99961000D01*
X157369557Y-99954481D01*
X157303373Y-99947963D01*
X157133534Y-99896443D01*
X156977009Y-99812778D01*
X156941271Y-99783448D01*
X156839814Y-99700186D01*
X156756552Y-99598729D01*
X156727222Y-99562991D01*
X156643557Y-99406466D01*
X156592037Y-99236627D01*
X156574641Y-99060000D01*
X156592037Y-98883373D01*
X156643557Y-98713534D01*
X156727222Y-98557009D01*
X156756552Y-98521271D01*
X156839814Y-98419814D01*
X156941271Y-98336552D01*
X156977009Y-98307222D01*
X157133534Y-98223557D01*
X157303373Y-98172037D01*
X157369557Y-98165519D01*
X157435740Y-98159000D01*
X157524260Y-98159000D01*
X157590443Y-98165519D01*
X157590443Y-98165519D01*
G37*
G36*
X155050443Y-98165519D02*
G01*
X155116627Y-98172037D01*
X155286466Y-98223557D01*
X155442991Y-98307222D01*
X155478729Y-98336552D01*
X155580186Y-98419814D01*
X155663448Y-98521271D01*
X155692778Y-98557009D01*
X155776443Y-98713534D01*
X155827963Y-98883373D01*
X155845359Y-99060000D01*
X155827963Y-99236627D01*
X155776443Y-99406466D01*
X155692778Y-99562991D01*
X155663448Y-99598729D01*
X155580186Y-99700186D01*
X155478729Y-99783448D01*
X155442991Y-99812778D01*
X155286466Y-99896443D01*
X155116627Y-99947963D01*
X155050443Y-99954481D01*
X154984260Y-99961000D01*
X154895740Y-99961000D01*
X154829557Y-99954481D01*
X154763373Y-99947963D01*
X154593534Y-99896443D01*
X154437009Y-99812778D01*
X154401271Y-99783448D01*
X154299814Y-99700186D01*
X154216552Y-99598729D01*
X154187222Y-99562991D01*
X154103557Y-99406466D01*
X154052037Y-99236627D01*
X154034641Y-99060000D01*
X154052037Y-98883373D01*
X154103557Y-98713534D01*
X154187222Y-98557009D01*
X154216552Y-98521271D01*
X154299814Y-98419814D01*
X154401271Y-98336552D01*
X154437009Y-98307222D01*
X154593534Y-98223557D01*
X154763373Y-98172037D01*
X154829557Y-98165519D01*
X154895740Y-98159000D01*
X154984260Y-98159000D01*
X155050443Y-98165519D01*
X155050443Y-98165519D01*
G37*
G36*
X152510443Y-98165519D02*
G01*
X152576627Y-98172037D01*
X152746466Y-98223557D01*
X152902991Y-98307222D01*
X152938729Y-98336552D01*
X153040186Y-98419814D01*
X153123448Y-98521271D01*
X153152778Y-98557009D01*
X153236443Y-98713534D01*
X153287963Y-98883373D01*
X153305359Y-99060000D01*
X153287963Y-99236627D01*
X153236443Y-99406466D01*
X153152778Y-99562991D01*
X153123448Y-99598729D01*
X153040186Y-99700186D01*
X152938729Y-99783448D01*
X152902991Y-99812778D01*
X152746466Y-99896443D01*
X152576627Y-99947963D01*
X152510443Y-99954481D01*
X152444260Y-99961000D01*
X152355740Y-99961000D01*
X152289557Y-99954481D01*
X152223373Y-99947963D01*
X152053534Y-99896443D01*
X151897009Y-99812778D01*
X151861271Y-99783448D01*
X151759814Y-99700186D01*
X151676552Y-99598729D01*
X151647222Y-99562991D01*
X151563557Y-99406466D01*
X151512037Y-99236627D01*
X151494641Y-99060000D01*
X151512037Y-98883373D01*
X151563557Y-98713534D01*
X151647222Y-98557009D01*
X151676552Y-98521271D01*
X151759814Y-98419814D01*
X151861271Y-98336552D01*
X151897009Y-98307222D01*
X152053534Y-98223557D01*
X152223373Y-98172037D01*
X152289557Y-98165519D01*
X152355740Y-98159000D01*
X152444260Y-98159000D01*
X152510443Y-98165519D01*
X152510443Y-98165519D01*
G37*
G36*
X149970443Y-98165519D02*
G01*
X150036627Y-98172037D01*
X150206466Y-98223557D01*
X150362991Y-98307222D01*
X150398729Y-98336552D01*
X150500186Y-98419814D01*
X150583448Y-98521271D01*
X150612778Y-98557009D01*
X150696443Y-98713534D01*
X150747963Y-98883373D01*
X150765359Y-99060000D01*
X150747963Y-99236627D01*
X150696443Y-99406466D01*
X150612778Y-99562991D01*
X150583448Y-99598729D01*
X150500186Y-99700186D01*
X150398729Y-99783448D01*
X150362991Y-99812778D01*
X150206466Y-99896443D01*
X150036627Y-99947963D01*
X149970443Y-99954481D01*
X149904260Y-99961000D01*
X149815740Y-99961000D01*
X149749557Y-99954481D01*
X149683373Y-99947963D01*
X149513534Y-99896443D01*
X149357009Y-99812778D01*
X149321271Y-99783448D01*
X149219814Y-99700186D01*
X149136552Y-99598729D01*
X149107222Y-99562991D01*
X149023557Y-99406466D01*
X148972037Y-99236627D01*
X148954641Y-99060000D01*
X148972037Y-98883373D01*
X149023557Y-98713534D01*
X149107222Y-98557009D01*
X149136552Y-98521271D01*
X149219814Y-98419814D01*
X149321271Y-98336552D01*
X149357009Y-98307222D01*
X149513534Y-98223557D01*
X149683373Y-98172037D01*
X149749557Y-98165519D01*
X149815740Y-98159000D01*
X149904260Y-98159000D01*
X149970443Y-98165519D01*
X149970443Y-98165519D01*
G37*
G36*
X132981000Y-99961000D02*
G01*
X131179000Y-99961000D01*
X131179000Y-98159000D01*
X132981000Y-98159000D01*
X132981000Y-99961000D01*
X132981000Y-99961000D01*
G37*
G36*
X129650443Y-98165519D02*
G01*
X129716627Y-98172037D01*
X129886466Y-98223557D01*
X130042991Y-98307222D01*
X130078729Y-98336552D01*
X130180186Y-98419814D01*
X130263448Y-98521271D01*
X130292778Y-98557009D01*
X130376443Y-98713534D01*
X130427963Y-98883373D01*
X130445359Y-99060000D01*
X130427963Y-99236627D01*
X130376443Y-99406466D01*
X130292778Y-99562991D01*
X130263448Y-99598729D01*
X130180186Y-99700186D01*
X130078729Y-99783448D01*
X130042991Y-99812778D01*
X129886466Y-99896443D01*
X129716627Y-99947963D01*
X129650443Y-99954481D01*
X129584260Y-99961000D01*
X129495740Y-99961000D01*
X129429557Y-99954481D01*
X129363373Y-99947963D01*
X129193534Y-99896443D01*
X129037009Y-99812778D01*
X129001271Y-99783448D01*
X128899814Y-99700186D01*
X128816552Y-99598729D01*
X128787222Y-99562991D01*
X128703557Y-99406466D01*
X128652037Y-99236627D01*
X128634641Y-99060000D01*
X128652037Y-98883373D01*
X128703557Y-98713534D01*
X128787222Y-98557009D01*
X128816552Y-98521271D01*
X128899814Y-98419814D01*
X129001271Y-98336552D01*
X129037009Y-98307222D01*
X129193534Y-98223557D01*
X129363373Y-98172037D01*
X129429557Y-98165519D01*
X129495740Y-98159000D01*
X129584260Y-98159000D01*
X129650443Y-98165519D01*
X129650443Y-98165519D01*
G37*
G36*
X127110443Y-98165519D02*
G01*
X127176627Y-98172037D01*
X127346466Y-98223557D01*
X127502991Y-98307222D01*
X127538729Y-98336552D01*
X127640186Y-98419814D01*
X127723448Y-98521271D01*
X127752778Y-98557009D01*
X127836443Y-98713534D01*
X127887963Y-98883373D01*
X127905359Y-99060000D01*
X127887963Y-99236627D01*
X127836443Y-99406466D01*
X127752778Y-99562991D01*
X127723448Y-99598729D01*
X127640186Y-99700186D01*
X127538729Y-99783448D01*
X127502991Y-99812778D01*
X127346466Y-99896443D01*
X127176627Y-99947963D01*
X127110443Y-99954481D01*
X127044260Y-99961000D01*
X126955740Y-99961000D01*
X126889557Y-99954481D01*
X126823373Y-99947963D01*
X126653534Y-99896443D01*
X126497009Y-99812778D01*
X126461271Y-99783448D01*
X126359814Y-99700186D01*
X126276552Y-99598729D01*
X126247222Y-99562991D01*
X126163557Y-99406466D01*
X126112037Y-99236627D01*
X126094641Y-99060000D01*
X126112037Y-98883373D01*
X126163557Y-98713534D01*
X126247222Y-98557009D01*
X126276552Y-98521271D01*
X126359814Y-98419814D01*
X126461271Y-98336552D01*
X126497009Y-98307222D01*
X126653534Y-98223557D01*
X126823373Y-98172037D01*
X126889557Y-98165519D01*
X126955740Y-98159000D01*
X127044260Y-98159000D01*
X127110443Y-98165519D01*
X127110443Y-98165519D01*
G37*
G36*
X124570443Y-98165519D02*
G01*
X124636627Y-98172037D01*
X124806466Y-98223557D01*
X124962991Y-98307222D01*
X124998729Y-98336552D01*
X125100186Y-98419814D01*
X125183448Y-98521271D01*
X125212778Y-98557009D01*
X125296443Y-98713534D01*
X125347963Y-98883373D01*
X125365359Y-99060000D01*
X125347963Y-99236627D01*
X125296443Y-99406466D01*
X125212778Y-99562991D01*
X125183448Y-99598729D01*
X125100186Y-99700186D01*
X124998729Y-99783448D01*
X124962991Y-99812778D01*
X124806466Y-99896443D01*
X124636627Y-99947963D01*
X124570443Y-99954481D01*
X124504260Y-99961000D01*
X124415740Y-99961000D01*
X124349557Y-99954481D01*
X124283373Y-99947963D01*
X124113534Y-99896443D01*
X123957009Y-99812778D01*
X123921271Y-99783448D01*
X123819814Y-99700186D01*
X123736552Y-99598729D01*
X123707222Y-99562991D01*
X123623557Y-99406466D01*
X123572037Y-99236627D01*
X123554641Y-99060000D01*
X123572037Y-98883373D01*
X123623557Y-98713534D01*
X123707222Y-98557009D01*
X123736552Y-98521271D01*
X123819814Y-98419814D01*
X123921271Y-98336552D01*
X123957009Y-98307222D01*
X124113534Y-98223557D01*
X124283373Y-98172037D01*
X124349557Y-98165519D01*
X124415740Y-98159000D01*
X124504260Y-98159000D01*
X124570443Y-98165519D01*
X124570443Y-98165519D01*
G37*
G36*
X122030443Y-98165519D02*
G01*
X122096627Y-98172037D01*
X122266466Y-98223557D01*
X122422991Y-98307222D01*
X122458729Y-98336552D01*
X122560186Y-98419814D01*
X122643448Y-98521271D01*
X122672778Y-98557009D01*
X122756443Y-98713534D01*
X122807963Y-98883373D01*
X122825359Y-99060000D01*
X122807963Y-99236627D01*
X122756443Y-99406466D01*
X122672778Y-99562991D01*
X122643448Y-99598729D01*
X122560186Y-99700186D01*
X122458729Y-99783448D01*
X122422991Y-99812778D01*
X122266466Y-99896443D01*
X122096627Y-99947963D01*
X122030443Y-99954481D01*
X121964260Y-99961000D01*
X121875740Y-99961000D01*
X121809557Y-99954481D01*
X121743373Y-99947963D01*
X121573534Y-99896443D01*
X121417009Y-99812778D01*
X121381271Y-99783448D01*
X121279814Y-99700186D01*
X121196552Y-99598729D01*
X121167222Y-99562991D01*
X121083557Y-99406466D01*
X121032037Y-99236627D01*
X121014641Y-99060000D01*
X121032037Y-98883373D01*
X121083557Y-98713534D01*
X121167222Y-98557009D01*
X121196552Y-98521271D01*
X121279814Y-98419814D01*
X121381271Y-98336552D01*
X121417009Y-98307222D01*
X121573534Y-98223557D01*
X121743373Y-98172037D01*
X121809557Y-98165519D01*
X121875740Y-98159000D01*
X121964260Y-98159000D01*
X122030443Y-98165519D01*
X122030443Y-98165519D01*
G37*
G36*
X119490443Y-98165519D02*
G01*
X119556627Y-98172037D01*
X119726466Y-98223557D01*
X119882991Y-98307222D01*
X119918729Y-98336552D01*
X120020186Y-98419814D01*
X120103448Y-98521271D01*
X120132778Y-98557009D01*
X120216443Y-98713534D01*
X120267963Y-98883373D01*
X120285359Y-99060000D01*
X120267963Y-99236627D01*
X120216443Y-99406466D01*
X120132778Y-99562991D01*
X120103448Y-99598729D01*
X120020186Y-99700186D01*
X119918729Y-99783448D01*
X119882991Y-99812778D01*
X119726466Y-99896443D01*
X119556627Y-99947963D01*
X119490443Y-99954481D01*
X119424260Y-99961000D01*
X119335740Y-99961000D01*
X119269557Y-99954481D01*
X119203373Y-99947963D01*
X119033534Y-99896443D01*
X118877009Y-99812778D01*
X118841271Y-99783448D01*
X118739814Y-99700186D01*
X118656552Y-99598729D01*
X118627222Y-99562991D01*
X118543557Y-99406466D01*
X118492037Y-99236627D01*
X118474641Y-99060000D01*
X118492037Y-98883373D01*
X118543557Y-98713534D01*
X118627222Y-98557009D01*
X118656552Y-98521271D01*
X118739814Y-98419814D01*
X118841271Y-98336552D01*
X118877009Y-98307222D01*
X119033534Y-98223557D01*
X119203373Y-98172037D01*
X119269557Y-98165519D01*
X119335740Y-98159000D01*
X119424260Y-98159000D01*
X119490443Y-98165519D01*
X119490443Y-98165519D01*
G37*
G36*
X116950443Y-98165519D02*
G01*
X117016627Y-98172037D01*
X117186466Y-98223557D01*
X117342991Y-98307222D01*
X117378729Y-98336552D01*
X117480186Y-98419814D01*
X117563448Y-98521271D01*
X117592778Y-98557009D01*
X117676443Y-98713534D01*
X117727963Y-98883373D01*
X117745359Y-99060000D01*
X117727963Y-99236627D01*
X117676443Y-99406466D01*
X117592778Y-99562991D01*
X117563448Y-99598729D01*
X117480186Y-99700186D01*
X117378729Y-99783448D01*
X117342991Y-99812778D01*
X117186466Y-99896443D01*
X117016627Y-99947963D01*
X116950443Y-99954481D01*
X116884260Y-99961000D01*
X116795740Y-99961000D01*
X116729557Y-99954481D01*
X116663373Y-99947963D01*
X116493534Y-99896443D01*
X116337009Y-99812778D01*
X116301271Y-99783448D01*
X116199814Y-99700186D01*
X116116552Y-99598729D01*
X116087222Y-99562991D01*
X116003557Y-99406466D01*
X115952037Y-99236627D01*
X115934641Y-99060000D01*
X115952037Y-98883373D01*
X116003557Y-98713534D01*
X116087222Y-98557009D01*
X116116552Y-98521271D01*
X116199814Y-98419814D01*
X116301271Y-98336552D01*
X116337009Y-98307222D01*
X116493534Y-98223557D01*
X116663373Y-98172037D01*
X116729557Y-98165519D01*
X116795740Y-98159000D01*
X116884260Y-98159000D01*
X116950443Y-98165519D01*
X116950443Y-98165519D01*
G37*
G36*
X114410443Y-98165519D02*
G01*
X114476627Y-98172037D01*
X114646466Y-98223557D01*
X114802991Y-98307222D01*
X114838729Y-98336552D01*
X114940186Y-98419814D01*
X115023448Y-98521271D01*
X115052778Y-98557009D01*
X115136443Y-98713534D01*
X115187963Y-98883373D01*
X115205359Y-99060000D01*
X115187963Y-99236627D01*
X115136443Y-99406466D01*
X115052778Y-99562991D01*
X115023448Y-99598729D01*
X114940186Y-99700186D01*
X114838729Y-99783448D01*
X114802991Y-99812778D01*
X114646466Y-99896443D01*
X114476627Y-99947963D01*
X114410443Y-99954481D01*
X114344260Y-99961000D01*
X114255740Y-99961000D01*
X114189557Y-99954481D01*
X114123373Y-99947963D01*
X113953534Y-99896443D01*
X113797009Y-99812778D01*
X113761271Y-99783448D01*
X113659814Y-99700186D01*
X113576552Y-99598729D01*
X113547222Y-99562991D01*
X113463557Y-99406466D01*
X113412037Y-99236627D01*
X113394641Y-99060000D01*
X113412037Y-98883373D01*
X113463557Y-98713534D01*
X113547222Y-98557009D01*
X113576552Y-98521271D01*
X113659814Y-98419814D01*
X113761271Y-98336552D01*
X113797009Y-98307222D01*
X113953534Y-98223557D01*
X114123373Y-98172037D01*
X114189557Y-98165519D01*
X114255740Y-98159000D01*
X114344260Y-98159000D01*
X114410443Y-98165519D01*
X114410443Y-98165519D01*
G37*
G36*
X129706823Y-94411313D02*
G01*
X129867242Y-94459976D01*
X129999906Y-94530886D01*
X130015078Y-94538996D01*
X130144659Y-94645341D01*
X130251004Y-94774922D01*
X130251005Y-94774924D01*
X130330024Y-94922758D01*
X130378687Y-95083177D01*
X130395117Y-95250000D01*
X130378687Y-95416823D01*
X130330024Y-95577242D01*
X130259114Y-95709906D01*
X130251004Y-95725078D01*
X130144659Y-95854659D01*
X130015078Y-95961004D01*
X130015076Y-95961005D01*
X129867242Y-96040024D01*
X129706823Y-96088687D01*
X129581804Y-96101000D01*
X129498196Y-96101000D01*
X129373177Y-96088687D01*
X129212758Y-96040024D01*
X129064924Y-95961005D01*
X129064922Y-95961004D01*
X128935341Y-95854659D01*
X128828996Y-95725078D01*
X128820886Y-95709906D01*
X128749976Y-95577242D01*
X128701313Y-95416823D01*
X128684883Y-95250000D01*
X128701313Y-95083177D01*
X128749976Y-94922758D01*
X128828995Y-94774924D01*
X128828996Y-94774922D01*
X128935341Y-94645341D01*
X129064922Y-94538996D01*
X129080094Y-94530886D01*
X129212758Y-94459976D01*
X129373177Y-94411313D01*
X129498196Y-94399000D01*
X129581804Y-94399000D01*
X129706823Y-94411313D01*
X129706823Y-94411313D01*
G37*
G36*
X157646823Y-94411313D02*
G01*
X157807242Y-94459976D01*
X157939906Y-94530886D01*
X157955078Y-94538996D01*
X158084659Y-94645341D01*
X158191004Y-94774922D01*
X158191005Y-94774924D01*
X158270024Y-94922758D01*
X158318687Y-95083177D01*
X158335117Y-95250000D01*
X158318687Y-95416823D01*
X158270024Y-95577242D01*
X158199114Y-95709906D01*
X158191004Y-95725078D01*
X158084659Y-95854659D01*
X157955078Y-95961004D01*
X157955076Y-95961005D01*
X157807242Y-96040024D01*
X157646823Y-96088687D01*
X157521804Y-96101000D01*
X157438196Y-96101000D01*
X157313177Y-96088687D01*
X157152758Y-96040024D01*
X157004924Y-95961005D01*
X157004922Y-95961004D01*
X156875341Y-95854659D01*
X156768996Y-95725078D01*
X156760886Y-95709906D01*
X156689976Y-95577242D01*
X156641313Y-95416823D01*
X156624883Y-95250000D01*
X156641313Y-95083177D01*
X156689976Y-94922758D01*
X156768995Y-94774924D01*
X156768996Y-94774922D01*
X156875341Y-94645341D01*
X157004922Y-94538996D01*
X157020094Y-94530886D01*
X157152758Y-94459976D01*
X157313177Y-94411313D01*
X157438196Y-94399000D01*
X157521804Y-94399000D01*
X157646823Y-94411313D01*
X157646823Y-94411313D01*
G37*
G36*
X132246823Y-94411313D02*
G01*
X132407242Y-94459976D01*
X132539906Y-94530886D01*
X132555078Y-94538996D01*
X132684659Y-94645341D01*
X132791004Y-94774922D01*
X132791005Y-94774924D01*
X132870024Y-94922758D01*
X132918687Y-95083177D01*
X132935117Y-95250000D01*
X132918687Y-95416823D01*
X132870024Y-95577242D01*
X132799114Y-95709906D01*
X132791004Y-95725078D01*
X132684659Y-95854659D01*
X132555078Y-95961004D01*
X132555076Y-95961005D01*
X132407242Y-96040024D01*
X132246823Y-96088687D01*
X132121804Y-96101000D01*
X132038196Y-96101000D01*
X131913177Y-96088687D01*
X131752758Y-96040024D01*
X131604924Y-95961005D01*
X131604922Y-95961004D01*
X131475341Y-95854659D01*
X131368996Y-95725078D01*
X131360886Y-95709906D01*
X131289976Y-95577242D01*
X131241313Y-95416823D01*
X131224883Y-95250000D01*
X131241313Y-95083177D01*
X131289976Y-94922758D01*
X131368995Y-94774924D01*
X131368996Y-94774922D01*
X131475341Y-94645341D01*
X131604922Y-94538996D01*
X131620094Y-94530886D01*
X131752758Y-94459976D01*
X131913177Y-94411313D01*
X132038196Y-94399000D01*
X132121804Y-94399000D01*
X132246823Y-94411313D01*
X132246823Y-94411313D01*
G37*
G36*
X134786823Y-94411313D02*
G01*
X134947242Y-94459976D01*
X135079906Y-94530886D01*
X135095078Y-94538996D01*
X135224659Y-94645341D01*
X135331004Y-94774922D01*
X135331005Y-94774924D01*
X135410024Y-94922758D01*
X135458687Y-95083177D01*
X135475117Y-95250000D01*
X135458687Y-95416823D01*
X135410024Y-95577242D01*
X135339114Y-95709906D01*
X135331004Y-95725078D01*
X135224659Y-95854659D01*
X135095078Y-95961004D01*
X135095076Y-95961005D01*
X134947242Y-96040024D01*
X134786823Y-96088687D01*
X134661804Y-96101000D01*
X134578196Y-96101000D01*
X134453177Y-96088687D01*
X134292758Y-96040024D01*
X134144924Y-95961005D01*
X134144922Y-95961004D01*
X134015341Y-95854659D01*
X133908996Y-95725078D01*
X133900886Y-95709906D01*
X133829976Y-95577242D01*
X133781313Y-95416823D01*
X133764883Y-95250000D01*
X133781313Y-95083177D01*
X133829976Y-94922758D01*
X133908995Y-94774924D01*
X133908996Y-94774922D01*
X134015341Y-94645341D01*
X134144922Y-94538996D01*
X134160094Y-94530886D01*
X134292758Y-94459976D01*
X134453177Y-94411313D01*
X134578196Y-94399000D01*
X134661804Y-94399000D01*
X134786823Y-94411313D01*
X134786823Y-94411313D01*
G37*
G36*
X137326823Y-94411313D02*
G01*
X137487242Y-94459976D01*
X137619906Y-94530886D01*
X137635078Y-94538996D01*
X137764659Y-94645341D01*
X137871004Y-94774922D01*
X137871005Y-94774924D01*
X137950024Y-94922758D01*
X137998687Y-95083177D01*
X138015117Y-95250000D01*
X137998687Y-95416823D01*
X137950024Y-95577242D01*
X137879114Y-95709906D01*
X137871004Y-95725078D01*
X137764659Y-95854659D01*
X137635078Y-95961004D01*
X137635076Y-95961005D01*
X137487242Y-96040024D01*
X137326823Y-96088687D01*
X137201804Y-96101000D01*
X137118196Y-96101000D01*
X136993177Y-96088687D01*
X136832758Y-96040024D01*
X136684924Y-95961005D01*
X136684922Y-95961004D01*
X136555341Y-95854659D01*
X136448996Y-95725078D01*
X136440886Y-95709906D01*
X136369976Y-95577242D01*
X136321313Y-95416823D01*
X136304883Y-95250000D01*
X136321313Y-95083177D01*
X136369976Y-94922758D01*
X136448995Y-94774924D01*
X136448996Y-94774922D01*
X136555341Y-94645341D01*
X136684922Y-94538996D01*
X136700094Y-94530886D01*
X136832758Y-94459976D01*
X136993177Y-94411313D01*
X137118196Y-94399000D01*
X137201804Y-94399000D01*
X137326823Y-94411313D01*
X137326823Y-94411313D01*
G37*
G36*
X139866823Y-94411313D02*
G01*
X140027242Y-94459976D01*
X140159906Y-94530886D01*
X140175078Y-94538996D01*
X140304659Y-94645341D01*
X140411004Y-94774922D01*
X140411005Y-94774924D01*
X140490024Y-94922758D01*
X140538687Y-95083177D01*
X140555117Y-95250000D01*
X140538687Y-95416823D01*
X140490024Y-95577242D01*
X140419114Y-95709906D01*
X140411004Y-95725078D01*
X140304659Y-95854659D01*
X140175078Y-95961004D01*
X140175076Y-95961005D01*
X140027242Y-96040024D01*
X139866823Y-96088687D01*
X139741804Y-96101000D01*
X139658196Y-96101000D01*
X139533177Y-96088687D01*
X139372758Y-96040024D01*
X139224924Y-95961005D01*
X139224922Y-95961004D01*
X139095341Y-95854659D01*
X138988996Y-95725078D01*
X138980886Y-95709906D01*
X138909976Y-95577242D01*
X138861313Y-95416823D01*
X138844883Y-95250000D01*
X138861313Y-95083177D01*
X138909976Y-94922758D01*
X138988995Y-94774924D01*
X138988996Y-94774922D01*
X139095341Y-94645341D01*
X139224922Y-94538996D01*
X139240094Y-94530886D01*
X139372758Y-94459976D01*
X139533177Y-94411313D01*
X139658196Y-94399000D01*
X139741804Y-94399000D01*
X139866823Y-94411313D01*
X139866823Y-94411313D01*
G37*
G36*
X142406823Y-94411313D02*
G01*
X142567242Y-94459976D01*
X142699906Y-94530886D01*
X142715078Y-94538996D01*
X142844659Y-94645341D01*
X142951004Y-94774922D01*
X142951005Y-94774924D01*
X143030024Y-94922758D01*
X143078687Y-95083177D01*
X143095117Y-95250000D01*
X143078687Y-95416823D01*
X143030024Y-95577242D01*
X142959114Y-95709906D01*
X142951004Y-95725078D01*
X142844659Y-95854659D01*
X142715078Y-95961004D01*
X142715076Y-95961005D01*
X142567242Y-96040024D01*
X142406823Y-96088687D01*
X142281804Y-96101000D01*
X142198196Y-96101000D01*
X142073177Y-96088687D01*
X141912758Y-96040024D01*
X141764924Y-95961005D01*
X141764922Y-95961004D01*
X141635341Y-95854659D01*
X141528996Y-95725078D01*
X141520886Y-95709906D01*
X141449976Y-95577242D01*
X141401313Y-95416823D01*
X141384883Y-95250000D01*
X141401313Y-95083177D01*
X141449976Y-94922758D01*
X141528995Y-94774924D01*
X141528996Y-94774922D01*
X141635341Y-94645341D01*
X141764922Y-94538996D01*
X141780094Y-94530886D01*
X141912758Y-94459976D01*
X142073177Y-94411313D01*
X142198196Y-94399000D01*
X142281804Y-94399000D01*
X142406823Y-94411313D01*
X142406823Y-94411313D01*
G37*
G36*
X144946823Y-94411313D02*
G01*
X145107242Y-94459976D01*
X145239906Y-94530886D01*
X145255078Y-94538996D01*
X145384659Y-94645341D01*
X145491004Y-94774922D01*
X145491005Y-94774924D01*
X145570024Y-94922758D01*
X145618687Y-95083177D01*
X145635117Y-95250000D01*
X145618687Y-95416823D01*
X145570024Y-95577242D01*
X145499114Y-95709906D01*
X145491004Y-95725078D01*
X145384659Y-95854659D01*
X145255078Y-95961004D01*
X145255076Y-95961005D01*
X145107242Y-96040024D01*
X144946823Y-96088687D01*
X144821804Y-96101000D01*
X144738196Y-96101000D01*
X144613177Y-96088687D01*
X144452758Y-96040024D01*
X144304924Y-95961005D01*
X144304922Y-95961004D01*
X144175341Y-95854659D01*
X144068996Y-95725078D01*
X144060886Y-95709906D01*
X143989976Y-95577242D01*
X143941313Y-95416823D01*
X143924883Y-95250000D01*
X143941313Y-95083177D01*
X143989976Y-94922758D01*
X144068995Y-94774924D01*
X144068996Y-94774922D01*
X144175341Y-94645341D01*
X144304922Y-94538996D01*
X144320094Y-94530886D01*
X144452758Y-94459976D01*
X144613177Y-94411313D01*
X144738196Y-94399000D01*
X144821804Y-94399000D01*
X144946823Y-94411313D01*
X144946823Y-94411313D01*
G37*
G36*
X147486823Y-94411313D02*
G01*
X147647242Y-94459976D01*
X147779906Y-94530886D01*
X147795078Y-94538996D01*
X147924659Y-94645341D01*
X148031004Y-94774922D01*
X148031005Y-94774924D01*
X148110024Y-94922758D01*
X148158687Y-95083177D01*
X148175117Y-95250000D01*
X148158687Y-95416823D01*
X148110024Y-95577242D01*
X148039114Y-95709906D01*
X148031004Y-95725078D01*
X147924659Y-95854659D01*
X147795078Y-95961004D01*
X147795076Y-95961005D01*
X147647242Y-96040024D01*
X147486823Y-96088687D01*
X147361804Y-96101000D01*
X147278196Y-96101000D01*
X147153177Y-96088687D01*
X146992758Y-96040024D01*
X146844924Y-95961005D01*
X146844922Y-95961004D01*
X146715341Y-95854659D01*
X146608996Y-95725078D01*
X146600886Y-95709906D01*
X146529976Y-95577242D01*
X146481313Y-95416823D01*
X146464883Y-95250000D01*
X146481313Y-95083177D01*
X146529976Y-94922758D01*
X146608995Y-94774924D01*
X146608996Y-94774922D01*
X146715341Y-94645341D01*
X146844922Y-94538996D01*
X146860094Y-94530886D01*
X146992758Y-94459976D01*
X147153177Y-94411313D01*
X147278196Y-94399000D01*
X147361804Y-94399000D01*
X147486823Y-94411313D01*
X147486823Y-94411313D01*
G37*
G36*
X150026823Y-94411313D02*
G01*
X150187242Y-94459976D01*
X150319906Y-94530886D01*
X150335078Y-94538996D01*
X150464659Y-94645341D01*
X150571004Y-94774922D01*
X150571005Y-94774924D01*
X150650024Y-94922758D01*
X150698687Y-95083177D01*
X150715117Y-95250000D01*
X150698687Y-95416823D01*
X150650024Y-95577242D01*
X150579114Y-95709906D01*
X150571004Y-95725078D01*
X150464659Y-95854659D01*
X150335078Y-95961004D01*
X150335076Y-95961005D01*
X150187242Y-96040024D01*
X150026823Y-96088687D01*
X149901804Y-96101000D01*
X149818196Y-96101000D01*
X149693177Y-96088687D01*
X149532758Y-96040024D01*
X149384924Y-95961005D01*
X149384922Y-95961004D01*
X149255341Y-95854659D01*
X149148996Y-95725078D01*
X149140886Y-95709906D01*
X149069976Y-95577242D01*
X149021313Y-95416823D01*
X149004883Y-95250000D01*
X149021313Y-95083177D01*
X149069976Y-94922758D01*
X149148995Y-94774924D01*
X149148996Y-94774922D01*
X149255341Y-94645341D01*
X149384922Y-94538996D01*
X149400094Y-94530886D01*
X149532758Y-94459976D01*
X149693177Y-94411313D01*
X149818196Y-94399000D01*
X149901804Y-94399000D01*
X150026823Y-94411313D01*
X150026823Y-94411313D01*
G37*
G36*
X152566823Y-94411313D02*
G01*
X152727242Y-94459976D01*
X152859906Y-94530886D01*
X152875078Y-94538996D01*
X153004659Y-94645341D01*
X153111004Y-94774922D01*
X153111005Y-94774924D01*
X153190024Y-94922758D01*
X153238687Y-95083177D01*
X153255117Y-95250000D01*
X153238687Y-95416823D01*
X153190024Y-95577242D01*
X153119114Y-95709906D01*
X153111004Y-95725078D01*
X153004659Y-95854659D01*
X152875078Y-95961004D01*
X152875076Y-95961005D01*
X152727242Y-96040024D01*
X152566823Y-96088687D01*
X152441804Y-96101000D01*
X152358196Y-96101000D01*
X152233177Y-96088687D01*
X152072758Y-96040024D01*
X151924924Y-95961005D01*
X151924922Y-95961004D01*
X151795341Y-95854659D01*
X151688996Y-95725078D01*
X151680886Y-95709906D01*
X151609976Y-95577242D01*
X151561313Y-95416823D01*
X151544883Y-95250000D01*
X151561313Y-95083177D01*
X151609976Y-94922758D01*
X151688995Y-94774924D01*
X151688996Y-94774922D01*
X151795341Y-94645341D01*
X151924922Y-94538996D01*
X151940094Y-94530886D01*
X152072758Y-94459976D01*
X152233177Y-94411313D01*
X152358196Y-94399000D01*
X152441804Y-94399000D01*
X152566823Y-94411313D01*
X152566823Y-94411313D01*
G37*
G36*
X155106823Y-94411313D02*
G01*
X155267242Y-94459976D01*
X155399906Y-94530886D01*
X155415078Y-94538996D01*
X155544659Y-94645341D01*
X155651004Y-94774922D01*
X155651005Y-94774924D01*
X155730024Y-94922758D01*
X155778687Y-95083177D01*
X155795117Y-95250000D01*
X155778687Y-95416823D01*
X155730024Y-95577242D01*
X155659114Y-95709906D01*
X155651004Y-95725078D01*
X155544659Y-95854659D01*
X155415078Y-95961004D01*
X155415076Y-95961005D01*
X155267242Y-96040024D01*
X155106823Y-96088687D01*
X154981804Y-96101000D01*
X154898196Y-96101000D01*
X154773177Y-96088687D01*
X154612758Y-96040024D01*
X154464924Y-95961005D01*
X154464922Y-95961004D01*
X154335341Y-95854659D01*
X154228996Y-95725078D01*
X154220886Y-95709906D01*
X154149976Y-95577242D01*
X154101313Y-95416823D01*
X154084883Y-95250000D01*
X154101313Y-95083177D01*
X154149976Y-94922758D01*
X154228995Y-94774924D01*
X154228996Y-94774922D01*
X154335341Y-94645341D01*
X154464922Y-94538996D01*
X154480094Y-94530886D01*
X154612758Y-94459976D01*
X154773177Y-94411313D01*
X154898196Y-94399000D01*
X154981804Y-94399000D01*
X155106823Y-94411313D01*
X155106823Y-94411313D01*
G37*
G36*
X160186823Y-94411313D02*
G01*
X160347242Y-94459976D01*
X160479906Y-94530886D01*
X160495078Y-94538996D01*
X160624659Y-94645341D01*
X160731004Y-94774922D01*
X160731005Y-94774924D01*
X160810024Y-94922758D01*
X160858687Y-95083177D01*
X160875117Y-95250000D01*
X160858687Y-95416823D01*
X160810024Y-95577242D01*
X160739114Y-95709906D01*
X160731004Y-95725078D01*
X160624659Y-95854659D01*
X160495078Y-95961004D01*
X160495076Y-95961005D01*
X160347242Y-96040024D01*
X160186823Y-96088687D01*
X160061804Y-96101000D01*
X159978196Y-96101000D01*
X159853177Y-96088687D01*
X159692758Y-96040024D01*
X159544924Y-95961005D01*
X159544922Y-95961004D01*
X159415341Y-95854659D01*
X159308996Y-95725078D01*
X159300886Y-95709906D01*
X159229976Y-95577242D01*
X159181313Y-95416823D01*
X159164883Y-95250000D01*
X159181313Y-95083177D01*
X159229976Y-94922758D01*
X159308995Y-94774924D01*
X159308996Y-94774922D01*
X159415341Y-94645341D01*
X159544922Y-94538996D01*
X159560094Y-94530886D01*
X159692758Y-94459976D01*
X159853177Y-94411313D01*
X159978196Y-94399000D01*
X160061804Y-94399000D01*
X160186823Y-94411313D01*
X160186823Y-94411313D01*
G37*
G36*
X162726823Y-94411313D02*
G01*
X162887242Y-94459976D01*
X163019906Y-94530886D01*
X163035078Y-94538996D01*
X163164659Y-94645341D01*
X163271004Y-94774922D01*
X163271005Y-94774924D01*
X163350024Y-94922758D01*
X163398687Y-95083177D01*
X163415117Y-95250000D01*
X163398687Y-95416823D01*
X163350024Y-95577242D01*
X163279114Y-95709906D01*
X163271004Y-95725078D01*
X163164659Y-95854659D01*
X163035078Y-95961004D01*
X163035076Y-95961005D01*
X162887242Y-96040024D01*
X162726823Y-96088687D01*
X162601804Y-96101000D01*
X162518196Y-96101000D01*
X162393177Y-96088687D01*
X162232758Y-96040024D01*
X162084924Y-95961005D01*
X162084922Y-95961004D01*
X161955341Y-95854659D01*
X161848996Y-95725078D01*
X161840886Y-95709906D01*
X161769976Y-95577242D01*
X161721313Y-95416823D01*
X161704883Y-95250000D01*
X161721313Y-95083177D01*
X161769976Y-94922758D01*
X161848995Y-94774924D01*
X161848996Y-94774922D01*
X161955341Y-94645341D01*
X162084922Y-94538996D01*
X162100094Y-94530886D01*
X162232758Y-94459976D01*
X162393177Y-94411313D01*
X162518196Y-94399000D01*
X162601804Y-94399000D01*
X162726823Y-94411313D01*
X162726823Y-94411313D01*
G37*
G36*
X127166823Y-94411313D02*
G01*
X127327242Y-94459976D01*
X127459906Y-94530886D01*
X127475078Y-94538996D01*
X127604659Y-94645341D01*
X127711004Y-94774922D01*
X127711005Y-94774924D01*
X127790024Y-94922758D01*
X127838687Y-95083177D01*
X127855117Y-95250000D01*
X127838687Y-95416823D01*
X127790024Y-95577242D01*
X127719114Y-95709906D01*
X127711004Y-95725078D01*
X127604659Y-95854659D01*
X127475078Y-95961004D01*
X127475076Y-95961005D01*
X127327242Y-96040024D01*
X127166823Y-96088687D01*
X127041804Y-96101000D01*
X126958196Y-96101000D01*
X126833177Y-96088687D01*
X126672758Y-96040024D01*
X126524924Y-95961005D01*
X126524922Y-95961004D01*
X126395341Y-95854659D01*
X126288996Y-95725078D01*
X126280886Y-95709906D01*
X126209976Y-95577242D01*
X126161313Y-95416823D01*
X126144883Y-95250000D01*
X126161313Y-95083177D01*
X126209976Y-94922758D01*
X126288995Y-94774924D01*
X126288996Y-94774922D01*
X126395341Y-94645341D01*
X126524922Y-94538996D01*
X126540094Y-94530886D01*
X126672758Y-94459976D01*
X126833177Y-94411313D01*
X126958196Y-94399000D01*
X127041804Y-94399000D01*
X127166823Y-94411313D01*
X127166823Y-94411313D01*
G37*
G36*
X125311000Y-96101000D02*
G01*
X123609000Y-96101000D01*
X123609000Y-94399000D01*
X125311000Y-94399000D01*
X125311000Y-96101000D01*
X125311000Y-96101000D01*
G37*
G36*
X118358228Y-89271703D02*
G01*
X118513100Y-89335853D01*
X118652481Y-89428985D01*
X118771015Y-89547519D01*
X118864147Y-89686900D01*
X118928297Y-89841772D01*
X118961000Y-90006184D01*
X118961000Y-90173816D01*
X118928297Y-90338228D01*
X118864147Y-90493100D01*
X118771015Y-90632481D01*
X118652481Y-90751015D01*
X118513100Y-90844147D01*
X118358228Y-90908297D01*
X118193816Y-90941000D01*
X118026184Y-90941000D01*
X117861772Y-90908297D01*
X117706900Y-90844147D01*
X117567519Y-90751015D01*
X117448985Y-90632481D01*
X117355853Y-90493100D01*
X117291703Y-90338228D01*
X117259000Y-90173816D01*
X117259000Y-90006184D01*
X117291703Y-89841772D01*
X117355853Y-89686900D01*
X117448985Y-89547519D01*
X117567519Y-89428985D01*
X117706900Y-89335853D01*
X117861772Y-89271703D01*
X118026184Y-89239000D01*
X118193816Y-89239000D01*
X118358228Y-89271703D01*
X118358228Y-89271703D01*
G37*
G36*
X118358228Y-84271703D02*
G01*
X118513100Y-84335853D01*
X118652481Y-84428985D01*
X118771015Y-84547519D01*
X118864147Y-84686900D01*
X118928297Y-84841772D01*
X118961000Y-85006184D01*
X118961000Y-85173816D01*
X118928297Y-85338228D01*
X118864147Y-85493100D01*
X118771015Y-85632481D01*
X118652481Y-85751015D01*
X118513100Y-85844147D01*
X118358228Y-85908297D01*
X118193816Y-85941000D01*
X118026184Y-85941000D01*
X117861772Y-85908297D01*
X117706900Y-85844147D01*
X117567519Y-85751015D01*
X117448985Y-85632481D01*
X117355853Y-85493100D01*
X117291703Y-85338228D01*
X117259000Y-85173816D01*
X117259000Y-85006184D01*
X117291703Y-84841772D01*
X117355853Y-84686900D01*
X117448985Y-84547519D01*
X117567519Y-84428985D01*
X117706900Y-84335853D01*
X117861772Y-84271703D01*
X118026184Y-84239000D01*
X118193816Y-84239000D01*
X118358228Y-84271703D01*
X118358228Y-84271703D01*
G37*
G36*
X157646823Y-79171313D02*
G01*
X157807242Y-79219976D01*
X157939906Y-79290886D01*
X157955078Y-79298996D01*
X158084659Y-79405341D01*
X158191004Y-79534922D01*
X158191005Y-79534924D01*
X158270024Y-79682758D01*
X158318687Y-79843177D01*
X158335117Y-80010000D01*
X158318687Y-80176823D01*
X158270024Y-80337242D01*
X158199114Y-80469906D01*
X158191004Y-80485078D01*
X158084659Y-80614659D01*
X157955078Y-80721004D01*
X157955076Y-80721005D01*
X157807242Y-80800024D01*
X157646823Y-80848687D01*
X157521804Y-80861000D01*
X157438196Y-80861000D01*
X157313177Y-80848687D01*
X157152758Y-80800024D01*
X157004924Y-80721005D01*
X157004922Y-80721004D01*
X156875341Y-80614659D01*
X156768996Y-80485078D01*
X156760886Y-80469906D01*
X156689976Y-80337242D01*
X156641313Y-80176823D01*
X156624883Y-80010000D01*
X156641313Y-79843177D01*
X156689976Y-79682758D01*
X156768995Y-79534924D01*
X156768996Y-79534922D01*
X156875341Y-79405341D01*
X157004922Y-79298996D01*
X157020094Y-79290886D01*
X157152758Y-79219976D01*
X157313177Y-79171313D01*
X157438196Y-79159000D01*
X157521804Y-79159000D01*
X157646823Y-79171313D01*
X157646823Y-79171313D01*
G37*
G36*
X162726823Y-79171313D02*
G01*
X162887242Y-79219976D01*
X163019906Y-79290886D01*
X163035078Y-79298996D01*
X163164659Y-79405341D01*
X163271004Y-79534922D01*
X163271005Y-79534924D01*
X163350024Y-79682758D01*
X163398687Y-79843177D01*
X163415117Y-80010000D01*
X163398687Y-80176823D01*
X163350024Y-80337242D01*
X163279114Y-80469906D01*
X163271004Y-80485078D01*
X163164659Y-80614659D01*
X163035078Y-80721004D01*
X163035076Y-80721005D01*
X162887242Y-80800024D01*
X162726823Y-80848687D01*
X162601804Y-80861000D01*
X162518196Y-80861000D01*
X162393177Y-80848687D01*
X162232758Y-80800024D01*
X162084924Y-80721005D01*
X162084922Y-80721004D01*
X161955341Y-80614659D01*
X161848996Y-80485078D01*
X161840886Y-80469906D01*
X161769976Y-80337242D01*
X161721313Y-80176823D01*
X161704883Y-80010000D01*
X161721313Y-79843177D01*
X161769976Y-79682758D01*
X161848995Y-79534924D01*
X161848996Y-79534922D01*
X161955341Y-79405341D01*
X162084922Y-79298996D01*
X162100094Y-79290886D01*
X162232758Y-79219976D01*
X162393177Y-79171313D01*
X162518196Y-79159000D01*
X162601804Y-79159000D01*
X162726823Y-79171313D01*
X162726823Y-79171313D01*
G37*
G36*
X155106823Y-79171313D02*
G01*
X155267242Y-79219976D01*
X155399906Y-79290886D01*
X155415078Y-79298996D01*
X155544659Y-79405341D01*
X155651004Y-79534922D01*
X155651005Y-79534924D01*
X155730024Y-79682758D01*
X155778687Y-79843177D01*
X155795117Y-80010000D01*
X155778687Y-80176823D01*
X155730024Y-80337242D01*
X155659114Y-80469906D01*
X155651004Y-80485078D01*
X155544659Y-80614659D01*
X155415078Y-80721004D01*
X155415076Y-80721005D01*
X155267242Y-80800024D01*
X155106823Y-80848687D01*
X154981804Y-80861000D01*
X154898196Y-80861000D01*
X154773177Y-80848687D01*
X154612758Y-80800024D01*
X154464924Y-80721005D01*
X154464922Y-80721004D01*
X154335341Y-80614659D01*
X154228996Y-80485078D01*
X154220886Y-80469906D01*
X154149976Y-80337242D01*
X154101313Y-80176823D01*
X154084883Y-80010000D01*
X154101313Y-79843177D01*
X154149976Y-79682758D01*
X154228995Y-79534924D01*
X154228996Y-79534922D01*
X154335341Y-79405341D01*
X154464922Y-79298996D01*
X154480094Y-79290886D01*
X154612758Y-79219976D01*
X154773177Y-79171313D01*
X154898196Y-79159000D01*
X154981804Y-79159000D01*
X155106823Y-79171313D01*
X155106823Y-79171313D01*
G37*
G36*
X160186823Y-79171313D02*
G01*
X160347242Y-79219976D01*
X160479906Y-79290886D01*
X160495078Y-79298996D01*
X160624659Y-79405341D01*
X160731004Y-79534922D01*
X160731005Y-79534924D01*
X160810024Y-79682758D01*
X160858687Y-79843177D01*
X160875117Y-80010000D01*
X160858687Y-80176823D01*
X160810024Y-80337242D01*
X160739114Y-80469906D01*
X160731004Y-80485078D01*
X160624659Y-80614659D01*
X160495078Y-80721004D01*
X160495076Y-80721005D01*
X160347242Y-80800024D01*
X160186823Y-80848687D01*
X160061804Y-80861000D01*
X159978196Y-80861000D01*
X159853177Y-80848687D01*
X159692758Y-80800024D01*
X159544924Y-80721005D01*
X159544922Y-80721004D01*
X159415341Y-80614659D01*
X159308996Y-80485078D01*
X159300886Y-80469906D01*
X159229976Y-80337242D01*
X159181313Y-80176823D01*
X159164883Y-80010000D01*
X159181313Y-79843177D01*
X159229976Y-79682758D01*
X159308995Y-79534924D01*
X159308996Y-79534922D01*
X159415341Y-79405341D01*
X159544922Y-79298996D01*
X159560094Y-79290886D01*
X159692758Y-79219976D01*
X159853177Y-79171313D01*
X159978196Y-79159000D01*
X160061804Y-79159000D01*
X160186823Y-79171313D01*
X160186823Y-79171313D01*
G37*
G36*
X152566823Y-79171313D02*
G01*
X152727242Y-79219976D01*
X152859906Y-79290886D01*
X152875078Y-79298996D01*
X153004659Y-79405341D01*
X153111004Y-79534922D01*
X153111005Y-79534924D01*
X153190024Y-79682758D01*
X153238687Y-79843177D01*
X153255117Y-80010000D01*
X153238687Y-80176823D01*
X153190024Y-80337242D01*
X153119114Y-80469906D01*
X153111004Y-80485078D01*
X153004659Y-80614659D01*
X152875078Y-80721004D01*
X152875076Y-80721005D01*
X152727242Y-80800024D01*
X152566823Y-80848687D01*
X152441804Y-80861000D01*
X152358196Y-80861000D01*
X152233177Y-80848687D01*
X152072758Y-80800024D01*
X151924924Y-80721005D01*
X151924922Y-80721004D01*
X151795341Y-80614659D01*
X151688996Y-80485078D01*
X151680886Y-80469906D01*
X151609976Y-80337242D01*
X151561313Y-80176823D01*
X151544883Y-80010000D01*
X151561313Y-79843177D01*
X151609976Y-79682758D01*
X151688995Y-79534924D01*
X151688996Y-79534922D01*
X151795341Y-79405341D01*
X151924922Y-79298996D01*
X151940094Y-79290886D01*
X152072758Y-79219976D01*
X152233177Y-79171313D01*
X152358196Y-79159000D01*
X152441804Y-79159000D01*
X152566823Y-79171313D01*
X152566823Y-79171313D01*
G37*
G36*
X150026823Y-79171313D02*
G01*
X150187242Y-79219976D01*
X150319906Y-79290886D01*
X150335078Y-79298996D01*
X150464659Y-79405341D01*
X150571004Y-79534922D01*
X150571005Y-79534924D01*
X150650024Y-79682758D01*
X150698687Y-79843177D01*
X150715117Y-80010000D01*
X150698687Y-80176823D01*
X150650024Y-80337242D01*
X150579114Y-80469906D01*
X150571004Y-80485078D01*
X150464659Y-80614659D01*
X150335078Y-80721004D01*
X150335076Y-80721005D01*
X150187242Y-80800024D01*
X150026823Y-80848687D01*
X149901804Y-80861000D01*
X149818196Y-80861000D01*
X149693177Y-80848687D01*
X149532758Y-80800024D01*
X149384924Y-80721005D01*
X149384922Y-80721004D01*
X149255341Y-80614659D01*
X149148996Y-80485078D01*
X149140886Y-80469906D01*
X149069976Y-80337242D01*
X149021313Y-80176823D01*
X149004883Y-80010000D01*
X149021313Y-79843177D01*
X149069976Y-79682758D01*
X149148995Y-79534924D01*
X149148996Y-79534922D01*
X149255341Y-79405341D01*
X149384922Y-79298996D01*
X149400094Y-79290886D01*
X149532758Y-79219976D01*
X149693177Y-79171313D01*
X149818196Y-79159000D01*
X149901804Y-79159000D01*
X150026823Y-79171313D01*
X150026823Y-79171313D01*
G37*
G36*
X147486823Y-79171313D02*
G01*
X147647242Y-79219976D01*
X147779906Y-79290886D01*
X147795078Y-79298996D01*
X147924659Y-79405341D01*
X148031004Y-79534922D01*
X148031005Y-79534924D01*
X148110024Y-79682758D01*
X148158687Y-79843177D01*
X148175117Y-80010000D01*
X148158687Y-80176823D01*
X148110024Y-80337242D01*
X148039114Y-80469906D01*
X148031004Y-80485078D01*
X147924659Y-80614659D01*
X147795078Y-80721004D01*
X147795076Y-80721005D01*
X147647242Y-80800024D01*
X147486823Y-80848687D01*
X147361804Y-80861000D01*
X147278196Y-80861000D01*
X147153177Y-80848687D01*
X146992758Y-80800024D01*
X146844924Y-80721005D01*
X146844922Y-80721004D01*
X146715341Y-80614659D01*
X146608996Y-80485078D01*
X146600886Y-80469906D01*
X146529976Y-80337242D01*
X146481313Y-80176823D01*
X146464883Y-80010000D01*
X146481313Y-79843177D01*
X146529976Y-79682758D01*
X146608995Y-79534924D01*
X146608996Y-79534922D01*
X146715341Y-79405341D01*
X146844922Y-79298996D01*
X146860094Y-79290886D01*
X146992758Y-79219976D01*
X147153177Y-79171313D01*
X147278196Y-79159000D01*
X147361804Y-79159000D01*
X147486823Y-79171313D01*
X147486823Y-79171313D01*
G37*
G36*
X144946823Y-79171313D02*
G01*
X145107242Y-79219976D01*
X145239906Y-79290886D01*
X145255078Y-79298996D01*
X145384659Y-79405341D01*
X145491004Y-79534922D01*
X145491005Y-79534924D01*
X145570024Y-79682758D01*
X145618687Y-79843177D01*
X145635117Y-80010000D01*
X145618687Y-80176823D01*
X145570024Y-80337242D01*
X145499114Y-80469906D01*
X145491004Y-80485078D01*
X145384659Y-80614659D01*
X145255078Y-80721004D01*
X145255076Y-80721005D01*
X145107242Y-80800024D01*
X144946823Y-80848687D01*
X144821804Y-80861000D01*
X144738196Y-80861000D01*
X144613177Y-80848687D01*
X144452758Y-80800024D01*
X144304924Y-80721005D01*
X144304922Y-80721004D01*
X144175341Y-80614659D01*
X144068996Y-80485078D01*
X144060886Y-80469906D01*
X143989976Y-80337242D01*
X143941313Y-80176823D01*
X143924883Y-80010000D01*
X143941313Y-79843177D01*
X143989976Y-79682758D01*
X144068995Y-79534924D01*
X144068996Y-79534922D01*
X144175341Y-79405341D01*
X144304922Y-79298996D01*
X144320094Y-79290886D01*
X144452758Y-79219976D01*
X144613177Y-79171313D01*
X144738196Y-79159000D01*
X144821804Y-79159000D01*
X144946823Y-79171313D01*
X144946823Y-79171313D01*
G37*
G36*
X142406823Y-79171313D02*
G01*
X142567242Y-79219976D01*
X142699906Y-79290886D01*
X142715078Y-79298996D01*
X142844659Y-79405341D01*
X142951004Y-79534922D01*
X142951005Y-79534924D01*
X143030024Y-79682758D01*
X143078687Y-79843177D01*
X143095117Y-80010000D01*
X143078687Y-80176823D01*
X143030024Y-80337242D01*
X142959114Y-80469906D01*
X142951004Y-80485078D01*
X142844659Y-80614659D01*
X142715078Y-80721004D01*
X142715076Y-80721005D01*
X142567242Y-80800024D01*
X142406823Y-80848687D01*
X142281804Y-80861000D01*
X142198196Y-80861000D01*
X142073177Y-80848687D01*
X141912758Y-80800024D01*
X141764924Y-80721005D01*
X141764922Y-80721004D01*
X141635341Y-80614659D01*
X141528996Y-80485078D01*
X141520886Y-80469906D01*
X141449976Y-80337242D01*
X141401313Y-80176823D01*
X141384883Y-80010000D01*
X141401313Y-79843177D01*
X141449976Y-79682758D01*
X141528995Y-79534924D01*
X141528996Y-79534922D01*
X141635341Y-79405341D01*
X141764922Y-79298996D01*
X141780094Y-79290886D01*
X141912758Y-79219976D01*
X142073177Y-79171313D01*
X142198196Y-79159000D01*
X142281804Y-79159000D01*
X142406823Y-79171313D01*
X142406823Y-79171313D01*
G37*
G36*
X139866823Y-79171313D02*
G01*
X140027242Y-79219976D01*
X140159906Y-79290886D01*
X140175078Y-79298996D01*
X140304659Y-79405341D01*
X140411004Y-79534922D01*
X140411005Y-79534924D01*
X140490024Y-79682758D01*
X140538687Y-79843177D01*
X140555117Y-80010000D01*
X140538687Y-80176823D01*
X140490024Y-80337242D01*
X140419114Y-80469906D01*
X140411004Y-80485078D01*
X140304659Y-80614659D01*
X140175078Y-80721004D01*
X140175076Y-80721005D01*
X140027242Y-80800024D01*
X139866823Y-80848687D01*
X139741804Y-80861000D01*
X139658196Y-80861000D01*
X139533177Y-80848687D01*
X139372758Y-80800024D01*
X139224924Y-80721005D01*
X139224922Y-80721004D01*
X139095341Y-80614659D01*
X138988996Y-80485078D01*
X138980886Y-80469906D01*
X138909976Y-80337242D01*
X138861313Y-80176823D01*
X138844883Y-80010000D01*
X138861313Y-79843177D01*
X138909976Y-79682758D01*
X138988995Y-79534924D01*
X138988996Y-79534922D01*
X139095341Y-79405341D01*
X139224922Y-79298996D01*
X139240094Y-79290886D01*
X139372758Y-79219976D01*
X139533177Y-79171313D01*
X139658196Y-79159000D01*
X139741804Y-79159000D01*
X139866823Y-79171313D01*
X139866823Y-79171313D01*
G37*
G36*
X137326823Y-79171313D02*
G01*
X137487242Y-79219976D01*
X137619906Y-79290886D01*
X137635078Y-79298996D01*
X137764659Y-79405341D01*
X137871004Y-79534922D01*
X137871005Y-79534924D01*
X137950024Y-79682758D01*
X137998687Y-79843177D01*
X138015117Y-80010000D01*
X137998687Y-80176823D01*
X137950024Y-80337242D01*
X137879114Y-80469906D01*
X137871004Y-80485078D01*
X137764659Y-80614659D01*
X137635078Y-80721004D01*
X137635076Y-80721005D01*
X137487242Y-80800024D01*
X137326823Y-80848687D01*
X137201804Y-80861000D01*
X137118196Y-80861000D01*
X136993177Y-80848687D01*
X136832758Y-80800024D01*
X136684924Y-80721005D01*
X136684922Y-80721004D01*
X136555341Y-80614659D01*
X136448996Y-80485078D01*
X136440886Y-80469906D01*
X136369976Y-80337242D01*
X136321313Y-80176823D01*
X136304883Y-80010000D01*
X136321313Y-79843177D01*
X136369976Y-79682758D01*
X136448995Y-79534924D01*
X136448996Y-79534922D01*
X136555341Y-79405341D01*
X136684922Y-79298996D01*
X136700094Y-79290886D01*
X136832758Y-79219976D01*
X136993177Y-79171313D01*
X137118196Y-79159000D01*
X137201804Y-79159000D01*
X137326823Y-79171313D01*
X137326823Y-79171313D01*
G37*
G36*
X124626823Y-79171313D02*
G01*
X124787242Y-79219976D01*
X124919906Y-79290886D01*
X124935078Y-79298996D01*
X125064659Y-79405341D01*
X125171004Y-79534922D01*
X125171005Y-79534924D01*
X125250024Y-79682758D01*
X125298687Y-79843177D01*
X125315117Y-80010000D01*
X125298687Y-80176823D01*
X125250024Y-80337242D01*
X125179114Y-80469906D01*
X125171004Y-80485078D01*
X125064659Y-80614659D01*
X124935078Y-80721004D01*
X124935076Y-80721005D01*
X124787242Y-80800024D01*
X124626823Y-80848687D01*
X124501804Y-80861000D01*
X124418196Y-80861000D01*
X124293177Y-80848687D01*
X124132758Y-80800024D01*
X123984924Y-80721005D01*
X123984922Y-80721004D01*
X123855341Y-80614659D01*
X123748996Y-80485078D01*
X123740886Y-80469906D01*
X123669976Y-80337242D01*
X123621313Y-80176823D01*
X123604883Y-80010000D01*
X123621313Y-79843177D01*
X123669976Y-79682758D01*
X123748995Y-79534924D01*
X123748996Y-79534922D01*
X123855341Y-79405341D01*
X123984922Y-79298996D01*
X124000094Y-79290886D01*
X124132758Y-79219976D01*
X124293177Y-79171313D01*
X124418196Y-79159000D01*
X124501804Y-79159000D01*
X124626823Y-79171313D01*
X124626823Y-79171313D01*
G37*
G36*
X134786823Y-79171313D02*
G01*
X134947242Y-79219976D01*
X135079906Y-79290886D01*
X135095078Y-79298996D01*
X135224659Y-79405341D01*
X135331004Y-79534922D01*
X135331005Y-79534924D01*
X135410024Y-79682758D01*
X135458687Y-79843177D01*
X135475117Y-80010000D01*
X135458687Y-80176823D01*
X135410024Y-80337242D01*
X135339114Y-80469906D01*
X135331004Y-80485078D01*
X135224659Y-80614659D01*
X135095078Y-80721004D01*
X135095076Y-80721005D01*
X134947242Y-80800024D01*
X134786823Y-80848687D01*
X134661804Y-80861000D01*
X134578196Y-80861000D01*
X134453177Y-80848687D01*
X134292758Y-80800024D01*
X134144924Y-80721005D01*
X134144922Y-80721004D01*
X134015341Y-80614659D01*
X133908996Y-80485078D01*
X133900886Y-80469906D01*
X133829976Y-80337242D01*
X133781313Y-80176823D01*
X133764883Y-80010000D01*
X133781313Y-79843177D01*
X133829976Y-79682758D01*
X133908995Y-79534924D01*
X133908996Y-79534922D01*
X134015341Y-79405341D01*
X134144922Y-79298996D01*
X134160094Y-79290886D01*
X134292758Y-79219976D01*
X134453177Y-79171313D01*
X134578196Y-79159000D01*
X134661804Y-79159000D01*
X134786823Y-79171313D01*
X134786823Y-79171313D01*
G37*
G36*
X132246823Y-79171313D02*
G01*
X132407242Y-79219976D01*
X132539906Y-79290886D01*
X132555078Y-79298996D01*
X132684659Y-79405341D01*
X132791004Y-79534922D01*
X132791005Y-79534924D01*
X132870024Y-79682758D01*
X132918687Y-79843177D01*
X132935117Y-80010000D01*
X132918687Y-80176823D01*
X132870024Y-80337242D01*
X132799114Y-80469906D01*
X132791004Y-80485078D01*
X132684659Y-80614659D01*
X132555078Y-80721004D01*
X132555076Y-80721005D01*
X132407242Y-80800024D01*
X132246823Y-80848687D01*
X132121804Y-80861000D01*
X132038196Y-80861000D01*
X131913177Y-80848687D01*
X131752758Y-80800024D01*
X131604924Y-80721005D01*
X131604922Y-80721004D01*
X131475341Y-80614659D01*
X131368996Y-80485078D01*
X131360886Y-80469906D01*
X131289976Y-80337242D01*
X131241313Y-80176823D01*
X131224883Y-80010000D01*
X131241313Y-79843177D01*
X131289976Y-79682758D01*
X131368995Y-79534924D01*
X131368996Y-79534922D01*
X131475341Y-79405341D01*
X131604922Y-79298996D01*
X131620094Y-79290886D01*
X131752758Y-79219976D01*
X131913177Y-79171313D01*
X132038196Y-79159000D01*
X132121804Y-79159000D01*
X132246823Y-79171313D01*
X132246823Y-79171313D01*
G37*
G36*
X129706823Y-79171313D02*
G01*
X129867242Y-79219976D01*
X129999906Y-79290886D01*
X130015078Y-79298996D01*
X130144659Y-79405341D01*
X130251004Y-79534922D01*
X130251005Y-79534924D01*
X130330024Y-79682758D01*
X130378687Y-79843177D01*
X130395117Y-80010000D01*
X130378687Y-80176823D01*
X130330024Y-80337242D01*
X130259114Y-80469906D01*
X130251004Y-80485078D01*
X130144659Y-80614659D01*
X130015078Y-80721004D01*
X130015076Y-80721005D01*
X129867242Y-80800024D01*
X129706823Y-80848687D01*
X129581804Y-80861000D01*
X129498196Y-80861000D01*
X129373177Y-80848687D01*
X129212758Y-80800024D01*
X129064924Y-80721005D01*
X129064922Y-80721004D01*
X128935341Y-80614659D01*
X128828996Y-80485078D01*
X128820886Y-80469906D01*
X128749976Y-80337242D01*
X128701313Y-80176823D01*
X128684883Y-80010000D01*
X128701313Y-79843177D01*
X128749976Y-79682758D01*
X128828995Y-79534924D01*
X128828996Y-79534922D01*
X128935341Y-79405341D01*
X129064922Y-79298996D01*
X129080094Y-79290886D01*
X129212758Y-79219976D01*
X129373177Y-79171313D01*
X129498196Y-79159000D01*
X129581804Y-79159000D01*
X129706823Y-79171313D01*
X129706823Y-79171313D01*
G37*
G36*
X127166823Y-79171313D02*
G01*
X127327242Y-79219976D01*
X127459906Y-79290886D01*
X127475078Y-79298996D01*
X127604659Y-79405341D01*
X127711004Y-79534922D01*
X127711005Y-79534924D01*
X127790024Y-79682758D01*
X127838687Y-79843177D01*
X127855117Y-80010000D01*
X127838687Y-80176823D01*
X127790024Y-80337242D01*
X127719114Y-80469906D01*
X127711004Y-80485078D01*
X127604659Y-80614659D01*
X127475078Y-80721004D01*
X127475076Y-80721005D01*
X127327242Y-80800024D01*
X127166823Y-80848687D01*
X127041804Y-80861000D01*
X126958196Y-80861000D01*
X126833177Y-80848687D01*
X126672758Y-80800024D01*
X126524924Y-80721005D01*
X126524922Y-80721004D01*
X126395341Y-80614659D01*
X126288996Y-80485078D01*
X126280886Y-80469906D01*
X126209976Y-80337242D01*
X126161313Y-80176823D01*
X126144883Y-80010000D01*
X126161313Y-79843177D01*
X126209976Y-79682758D01*
X126288995Y-79534924D01*
X126288996Y-79534922D01*
X126395341Y-79405341D01*
X126524922Y-79298996D01*
X126540094Y-79290886D01*
X126672758Y-79219976D01*
X126833177Y-79171313D01*
X126958196Y-79159000D01*
X127041804Y-79159000D01*
X127166823Y-79171313D01*
X127166823Y-79171313D01*
G37*
G36*
X160186823Y-74091313D02*
G01*
X160347242Y-74139976D01*
X160479906Y-74210886D01*
X160495078Y-74218996D01*
X160624659Y-74325341D01*
X160731004Y-74454922D01*
X160731005Y-74454924D01*
X160810024Y-74602758D01*
X160858687Y-74763177D01*
X160875117Y-74930000D01*
X160858687Y-75096823D01*
X160810024Y-75257242D01*
X160739114Y-75389906D01*
X160731004Y-75405078D01*
X160624659Y-75534659D01*
X160495078Y-75641004D01*
X160495076Y-75641005D01*
X160347242Y-75720024D01*
X160186823Y-75768687D01*
X160061804Y-75781000D01*
X159978196Y-75781000D01*
X159853177Y-75768687D01*
X159692758Y-75720024D01*
X159544924Y-75641005D01*
X159544922Y-75641004D01*
X159415341Y-75534659D01*
X159308996Y-75405078D01*
X159300886Y-75389906D01*
X159229976Y-75257242D01*
X159181313Y-75096823D01*
X159164883Y-74930000D01*
X159181313Y-74763177D01*
X159229976Y-74602758D01*
X159308995Y-74454924D01*
X159308996Y-74454922D01*
X159415341Y-74325341D01*
X159544922Y-74218996D01*
X159560094Y-74210886D01*
X159692758Y-74139976D01*
X159853177Y-74091313D01*
X159978196Y-74079000D01*
X160061804Y-74079000D01*
X160186823Y-74091313D01*
X160186823Y-74091313D01*
G37*
G36*
X162726823Y-74091313D02*
G01*
X162887242Y-74139976D01*
X163019906Y-74210886D01*
X163035078Y-74218996D01*
X163164659Y-74325341D01*
X163271004Y-74454922D01*
X163271005Y-74454924D01*
X163350024Y-74602758D01*
X163398687Y-74763177D01*
X163415117Y-74930000D01*
X163398687Y-75096823D01*
X163350024Y-75257242D01*
X163279114Y-75389906D01*
X163271004Y-75405078D01*
X163164659Y-75534659D01*
X163035078Y-75641004D01*
X163035076Y-75641005D01*
X162887242Y-75720024D01*
X162726823Y-75768687D01*
X162601804Y-75781000D01*
X162518196Y-75781000D01*
X162393177Y-75768687D01*
X162232758Y-75720024D01*
X162084924Y-75641005D01*
X162084922Y-75641004D01*
X161955341Y-75534659D01*
X161848996Y-75405078D01*
X161840886Y-75389906D01*
X161769976Y-75257242D01*
X161721313Y-75096823D01*
X161704883Y-74930000D01*
X161721313Y-74763177D01*
X161769976Y-74602758D01*
X161848995Y-74454924D01*
X161848996Y-74454922D01*
X161955341Y-74325341D01*
X162084922Y-74218996D01*
X162100094Y-74210886D01*
X162232758Y-74139976D01*
X162393177Y-74091313D01*
X162518196Y-74079000D01*
X162601804Y-74079000D01*
X162726823Y-74091313D01*
X162726823Y-74091313D01*
G37*
G36*
X157646823Y-74091313D02*
G01*
X157807242Y-74139976D01*
X157939906Y-74210886D01*
X157955078Y-74218996D01*
X158084659Y-74325341D01*
X158191004Y-74454922D01*
X158191005Y-74454924D01*
X158270024Y-74602758D01*
X158318687Y-74763177D01*
X158335117Y-74930000D01*
X158318687Y-75096823D01*
X158270024Y-75257242D01*
X158199114Y-75389906D01*
X158191004Y-75405078D01*
X158084659Y-75534659D01*
X157955078Y-75641004D01*
X157955076Y-75641005D01*
X157807242Y-75720024D01*
X157646823Y-75768687D01*
X157521804Y-75781000D01*
X157438196Y-75781000D01*
X157313177Y-75768687D01*
X157152758Y-75720024D01*
X157004924Y-75641005D01*
X157004922Y-75641004D01*
X156875341Y-75534659D01*
X156768996Y-75405078D01*
X156760886Y-75389906D01*
X156689976Y-75257242D01*
X156641313Y-75096823D01*
X156624883Y-74930000D01*
X156641313Y-74763177D01*
X156689976Y-74602758D01*
X156768995Y-74454924D01*
X156768996Y-74454922D01*
X156875341Y-74325341D01*
X157004922Y-74218996D01*
X157020094Y-74210886D01*
X157152758Y-74139976D01*
X157313177Y-74091313D01*
X157438196Y-74079000D01*
X157521804Y-74079000D01*
X157646823Y-74091313D01*
X157646823Y-74091313D01*
G37*
G36*
X155106823Y-74091313D02*
G01*
X155267242Y-74139976D01*
X155399906Y-74210886D01*
X155415078Y-74218996D01*
X155544659Y-74325341D01*
X155651004Y-74454922D01*
X155651005Y-74454924D01*
X155730024Y-74602758D01*
X155778687Y-74763177D01*
X155795117Y-74930000D01*
X155778687Y-75096823D01*
X155730024Y-75257242D01*
X155659114Y-75389906D01*
X155651004Y-75405078D01*
X155544659Y-75534659D01*
X155415078Y-75641004D01*
X155415076Y-75641005D01*
X155267242Y-75720024D01*
X155106823Y-75768687D01*
X154981804Y-75781000D01*
X154898196Y-75781000D01*
X154773177Y-75768687D01*
X154612758Y-75720024D01*
X154464924Y-75641005D01*
X154464922Y-75641004D01*
X154335341Y-75534659D01*
X154228996Y-75405078D01*
X154220886Y-75389906D01*
X154149976Y-75257242D01*
X154101313Y-75096823D01*
X154084883Y-74930000D01*
X154101313Y-74763177D01*
X154149976Y-74602758D01*
X154228995Y-74454924D01*
X154228996Y-74454922D01*
X154335341Y-74325341D01*
X154464922Y-74218996D01*
X154480094Y-74210886D01*
X154612758Y-74139976D01*
X154773177Y-74091313D01*
X154898196Y-74079000D01*
X154981804Y-74079000D01*
X155106823Y-74091313D01*
X155106823Y-74091313D01*
G37*
G36*
X152566823Y-74091313D02*
G01*
X152727242Y-74139976D01*
X152859906Y-74210886D01*
X152875078Y-74218996D01*
X153004659Y-74325341D01*
X153111004Y-74454922D01*
X153111005Y-74454924D01*
X153190024Y-74602758D01*
X153238687Y-74763177D01*
X153255117Y-74930000D01*
X153238687Y-75096823D01*
X153190024Y-75257242D01*
X153119114Y-75389906D01*
X153111004Y-75405078D01*
X153004659Y-75534659D01*
X152875078Y-75641004D01*
X152875076Y-75641005D01*
X152727242Y-75720024D01*
X152566823Y-75768687D01*
X152441804Y-75781000D01*
X152358196Y-75781000D01*
X152233177Y-75768687D01*
X152072758Y-75720024D01*
X151924924Y-75641005D01*
X151924922Y-75641004D01*
X151795341Y-75534659D01*
X151688996Y-75405078D01*
X151680886Y-75389906D01*
X151609976Y-75257242D01*
X151561313Y-75096823D01*
X151544883Y-74930000D01*
X151561313Y-74763177D01*
X151609976Y-74602758D01*
X151688995Y-74454924D01*
X151688996Y-74454922D01*
X151795341Y-74325341D01*
X151924922Y-74218996D01*
X151940094Y-74210886D01*
X152072758Y-74139976D01*
X152233177Y-74091313D01*
X152358196Y-74079000D01*
X152441804Y-74079000D01*
X152566823Y-74091313D01*
X152566823Y-74091313D01*
G37*
G36*
X150026823Y-74091313D02*
G01*
X150187242Y-74139976D01*
X150319906Y-74210886D01*
X150335078Y-74218996D01*
X150464659Y-74325341D01*
X150571004Y-74454922D01*
X150571005Y-74454924D01*
X150650024Y-74602758D01*
X150698687Y-74763177D01*
X150715117Y-74930000D01*
X150698687Y-75096823D01*
X150650024Y-75257242D01*
X150579114Y-75389906D01*
X150571004Y-75405078D01*
X150464659Y-75534659D01*
X150335078Y-75641004D01*
X150335076Y-75641005D01*
X150187242Y-75720024D01*
X150026823Y-75768687D01*
X149901804Y-75781000D01*
X149818196Y-75781000D01*
X149693177Y-75768687D01*
X149532758Y-75720024D01*
X149384924Y-75641005D01*
X149384922Y-75641004D01*
X149255341Y-75534659D01*
X149148996Y-75405078D01*
X149140886Y-75389906D01*
X149069976Y-75257242D01*
X149021313Y-75096823D01*
X149004883Y-74930000D01*
X149021313Y-74763177D01*
X149069976Y-74602758D01*
X149148995Y-74454924D01*
X149148996Y-74454922D01*
X149255341Y-74325341D01*
X149384922Y-74218996D01*
X149400094Y-74210886D01*
X149532758Y-74139976D01*
X149693177Y-74091313D01*
X149818196Y-74079000D01*
X149901804Y-74079000D01*
X150026823Y-74091313D01*
X150026823Y-74091313D01*
G37*
G36*
X147486823Y-74091313D02*
G01*
X147647242Y-74139976D01*
X147779906Y-74210886D01*
X147795078Y-74218996D01*
X147924659Y-74325341D01*
X148031004Y-74454922D01*
X148031005Y-74454924D01*
X148110024Y-74602758D01*
X148158687Y-74763177D01*
X148175117Y-74930000D01*
X148158687Y-75096823D01*
X148110024Y-75257242D01*
X148039114Y-75389906D01*
X148031004Y-75405078D01*
X147924659Y-75534659D01*
X147795078Y-75641004D01*
X147795076Y-75641005D01*
X147647242Y-75720024D01*
X147486823Y-75768687D01*
X147361804Y-75781000D01*
X147278196Y-75781000D01*
X147153177Y-75768687D01*
X146992758Y-75720024D01*
X146844924Y-75641005D01*
X146844922Y-75641004D01*
X146715341Y-75534659D01*
X146608996Y-75405078D01*
X146600886Y-75389906D01*
X146529976Y-75257242D01*
X146481313Y-75096823D01*
X146464883Y-74930000D01*
X146481313Y-74763177D01*
X146529976Y-74602758D01*
X146608995Y-74454924D01*
X146608996Y-74454922D01*
X146715341Y-74325341D01*
X146844922Y-74218996D01*
X146860094Y-74210886D01*
X146992758Y-74139976D01*
X147153177Y-74091313D01*
X147278196Y-74079000D01*
X147361804Y-74079000D01*
X147486823Y-74091313D01*
X147486823Y-74091313D01*
G37*
G36*
X144946823Y-74091313D02*
G01*
X145107242Y-74139976D01*
X145239906Y-74210886D01*
X145255078Y-74218996D01*
X145384659Y-74325341D01*
X145491004Y-74454922D01*
X145491005Y-74454924D01*
X145570024Y-74602758D01*
X145618687Y-74763177D01*
X145635117Y-74930000D01*
X145618687Y-75096823D01*
X145570024Y-75257242D01*
X145499114Y-75389906D01*
X145491004Y-75405078D01*
X145384659Y-75534659D01*
X145255078Y-75641004D01*
X145255076Y-75641005D01*
X145107242Y-75720024D01*
X144946823Y-75768687D01*
X144821804Y-75781000D01*
X144738196Y-75781000D01*
X144613177Y-75768687D01*
X144452758Y-75720024D01*
X144304924Y-75641005D01*
X144304922Y-75641004D01*
X144175341Y-75534659D01*
X144068996Y-75405078D01*
X144060886Y-75389906D01*
X143989976Y-75257242D01*
X143941313Y-75096823D01*
X143924883Y-74930000D01*
X143941313Y-74763177D01*
X143989976Y-74602758D01*
X144068995Y-74454924D01*
X144068996Y-74454922D01*
X144175341Y-74325341D01*
X144304922Y-74218996D01*
X144320094Y-74210886D01*
X144452758Y-74139976D01*
X144613177Y-74091313D01*
X144738196Y-74079000D01*
X144821804Y-74079000D01*
X144946823Y-74091313D01*
X144946823Y-74091313D01*
G37*
G36*
X142406823Y-74091313D02*
G01*
X142567242Y-74139976D01*
X142699906Y-74210886D01*
X142715078Y-74218996D01*
X142844659Y-74325341D01*
X142951004Y-74454922D01*
X142951005Y-74454924D01*
X143030024Y-74602758D01*
X143078687Y-74763177D01*
X143095117Y-74930000D01*
X143078687Y-75096823D01*
X143030024Y-75257242D01*
X142959114Y-75389906D01*
X142951004Y-75405078D01*
X142844659Y-75534659D01*
X142715078Y-75641004D01*
X142715076Y-75641005D01*
X142567242Y-75720024D01*
X142406823Y-75768687D01*
X142281804Y-75781000D01*
X142198196Y-75781000D01*
X142073177Y-75768687D01*
X141912758Y-75720024D01*
X141764924Y-75641005D01*
X141764922Y-75641004D01*
X141635341Y-75534659D01*
X141528996Y-75405078D01*
X141520886Y-75389906D01*
X141449976Y-75257242D01*
X141401313Y-75096823D01*
X141384883Y-74930000D01*
X141401313Y-74763177D01*
X141449976Y-74602758D01*
X141528995Y-74454924D01*
X141528996Y-74454922D01*
X141635341Y-74325341D01*
X141764922Y-74218996D01*
X141780094Y-74210886D01*
X141912758Y-74139976D01*
X142073177Y-74091313D01*
X142198196Y-74079000D01*
X142281804Y-74079000D01*
X142406823Y-74091313D01*
X142406823Y-74091313D01*
G37*
G36*
X139866823Y-74091313D02*
G01*
X140027242Y-74139976D01*
X140159906Y-74210886D01*
X140175078Y-74218996D01*
X140304659Y-74325341D01*
X140411004Y-74454922D01*
X140411005Y-74454924D01*
X140490024Y-74602758D01*
X140538687Y-74763177D01*
X140555117Y-74930000D01*
X140538687Y-75096823D01*
X140490024Y-75257242D01*
X140419114Y-75389906D01*
X140411004Y-75405078D01*
X140304659Y-75534659D01*
X140175078Y-75641004D01*
X140175076Y-75641005D01*
X140027242Y-75720024D01*
X139866823Y-75768687D01*
X139741804Y-75781000D01*
X139658196Y-75781000D01*
X139533177Y-75768687D01*
X139372758Y-75720024D01*
X139224924Y-75641005D01*
X139224922Y-75641004D01*
X139095341Y-75534659D01*
X138988996Y-75405078D01*
X138980886Y-75389906D01*
X138909976Y-75257242D01*
X138861313Y-75096823D01*
X138844883Y-74930000D01*
X138861313Y-74763177D01*
X138909976Y-74602758D01*
X138988995Y-74454924D01*
X138988996Y-74454922D01*
X139095341Y-74325341D01*
X139224922Y-74218996D01*
X139240094Y-74210886D01*
X139372758Y-74139976D01*
X139533177Y-74091313D01*
X139658196Y-74079000D01*
X139741804Y-74079000D01*
X139866823Y-74091313D01*
X139866823Y-74091313D01*
G37*
G36*
X137326823Y-74091313D02*
G01*
X137487242Y-74139976D01*
X137619906Y-74210886D01*
X137635078Y-74218996D01*
X137764659Y-74325341D01*
X137871004Y-74454922D01*
X137871005Y-74454924D01*
X137950024Y-74602758D01*
X137998687Y-74763177D01*
X138015117Y-74930000D01*
X137998687Y-75096823D01*
X137950024Y-75257242D01*
X137879114Y-75389906D01*
X137871004Y-75405078D01*
X137764659Y-75534659D01*
X137635078Y-75641004D01*
X137635076Y-75641005D01*
X137487242Y-75720024D01*
X137326823Y-75768687D01*
X137201804Y-75781000D01*
X137118196Y-75781000D01*
X136993177Y-75768687D01*
X136832758Y-75720024D01*
X136684924Y-75641005D01*
X136684922Y-75641004D01*
X136555341Y-75534659D01*
X136448996Y-75405078D01*
X136440886Y-75389906D01*
X136369976Y-75257242D01*
X136321313Y-75096823D01*
X136304883Y-74930000D01*
X136321313Y-74763177D01*
X136369976Y-74602758D01*
X136448995Y-74454924D01*
X136448996Y-74454922D01*
X136555341Y-74325341D01*
X136684922Y-74218996D01*
X136700094Y-74210886D01*
X136832758Y-74139976D01*
X136993177Y-74091313D01*
X137118196Y-74079000D01*
X137201804Y-74079000D01*
X137326823Y-74091313D01*
X137326823Y-74091313D01*
G37*
G36*
X134786823Y-74091313D02*
G01*
X134947242Y-74139976D01*
X135079906Y-74210886D01*
X135095078Y-74218996D01*
X135224659Y-74325341D01*
X135331004Y-74454922D01*
X135331005Y-74454924D01*
X135410024Y-74602758D01*
X135458687Y-74763177D01*
X135475117Y-74930000D01*
X135458687Y-75096823D01*
X135410024Y-75257242D01*
X135339114Y-75389906D01*
X135331004Y-75405078D01*
X135224659Y-75534659D01*
X135095078Y-75641004D01*
X135095076Y-75641005D01*
X134947242Y-75720024D01*
X134786823Y-75768687D01*
X134661804Y-75781000D01*
X134578196Y-75781000D01*
X134453177Y-75768687D01*
X134292758Y-75720024D01*
X134144924Y-75641005D01*
X134144922Y-75641004D01*
X134015341Y-75534659D01*
X133908996Y-75405078D01*
X133900886Y-75389906D01*
X133829976Y-75257242D01*
X133781313Y-75096823D01*
X133764883Y-74930000D01*
X133781313Y-74763177D01*
X133829976Y-74602758D01*
X133908995Y-74454924D01*
X133908996Y-74454922D01*
X134015341Y-74325341D01*
X134144922Y-74218996D01*
X134160094Y-74210886D01*
X134292758Y-74139976D01*
X134453177Y-74091313D01*
X134578196Y-74079000D01*
X134661804Y-74079000D01*
X134786823Y-74091313D01*
X134786823Y-74091313D01*
G37*
G36*
X132246823Y-74091313D02*
G01*
X132407242Y-74139976D01*
X132539906Y-74210886D01*
X132555078Y-74218996D01*
X132684659Y-74325341D01*
X132791004Y-74454922D01*
X132791005Y-74454924D01*
X132870024Y-74602758D01*
X132918687Y-74763177D01*
X132935117Y-74930000D01*
X132918687Y-75096823D01*
X132870024Y-75257242D01*
X132799114Y-75389906D01*
X132791004Y-75405078D01*
X132684659Y-75534659D01*
X132555078Y-75641004D01*
X132555076Y-75641005D01*
X132407242Y-75720024D01*
X132246823Y-75768687D01*
X132121804Y-75781000D01*
X132038196Y-75781000D01*
X131913177Y-75768687D01*
X131752758Y-75720024D01*
X131604924Y-75641005D01*
X131604922Y-75641004D01*
X131475341Y-75534659D01*
X131368996Y-75405078D01*
X131360886Y-75389906D01*
X131289976Y-75257242D01*
X131241313Y-75096823D01*
X131224883Y-74930000D01*
X131241313Y-74763177D01*
X131289976Y-74602758D01*
X131368995Y-74454924D01*
X131368996Y-74454922D01*
X131475341Y-74325341D01*
X131604922Y-74218996D01*
X131620094Y-74210886D01*
X131752758Y-74139976D01*
X131913177Y-74091313D01*
X132038196Y-74079000D01*
X132121804Y-74079000D01*
X132246823Y-74091313D01*
X132246823Y-74091313D01*
G37*
G36*
X129706823Y-74091313D02*
G01*
X129867242Y-74139976D01*
X129999906Y-74210886D01*
X130015078Y-74218996D01*
X130144659Y-74325341D01*
X130251004Y-74454922D01*
X130251005Y-74454924D01*
X130330024Y-74602758D01*
X130378687Y-74763177D01*
X130395117Y-74930000D01*
X130378687Y-75096823D01*
X130330024Y-75257242D01*
X130259114Y-75389906D01*
X130251004Y-75405078D01*
X130144659Y-75534659D01*
X130015078Y-75641004D01*
X130015076Y-75641005D01*
X129867242Y-75720024D01*
X129706823Y-75768687D01*
X129581804Y-75781000D01*
X129498196Y-75781000D01*
X129373177Y-75768687D01*
X129212758Y-75720024D01*
X129064924Y-75641005D01*
X129064922Y-75641004D01*
X128935341Y-75534659D01*
X128828996Y-75405078D01*
X128820886Y-75389906D01*
X128749976Y-75257242D01*
X128701313Y-75096823D01*
X128684883Y-74930000D01*
X128701313Y-74763177D01*
X128749976Y-74602758D01*
X128828995Y-74454924D01*
X128828996Y-74454922D01*
X128935341Y-74325341D01*
X129064922Y-74218996D01*
X129080094Y-74210886D01*
X129212758Y-74139976D01*
X129373177Y-74091313D01*
X129498196Y-74079000D01*
X129581804Y-74079000D01*
X129706823Y-74091313D01*
X129706823Y-74091313D01*
G37*
G36*
X127166823Y-74091313D02*
G01*
X127327242Y-74139976D01*
X127459906Y-74210886D01*
X127475078Y-74218996D01*
X127604659Y-74325341D01*
X127711004Y-74454922D01*
X127711005Y-74454924D01*
X127790024Y-74602758D01*
X127838687Y-74763177D01*
X127855117Y-74930000D01*
X127838687Y-75096823D01*
X127790024Y-75257242D01*
X127719114Y-75389906D01*
X127711004Y-75405078D01*
X127604659Y-75534659D01*
X127475078Y-75641004D01*
X127475076Y-75641005D01*
X127327242Y-75720024D01*
X127166823Y-75768687D01*
X127041804Y-75781000D01*
X126958196Y-75781000D01*
X126833177Y-75768687D01*
X126672758Y-75720024D01*
X126524924Y-75641005D01*
X126524922Y-75641004D01*
X126395341Y-75534659D01*
X126288996Y-75405078D01*
X126280886Y-75389906D01*
X126209976Y-75257242D01*
X126161313Y-75096823D01*
X126144883Y-74930000D01*
X126161313Y-74763177D01*
X126209976Y-74602758D01*
X126288995Y-74454924D01*
X126288996Y-74454922D01*
X126395341Y-74325341D01*
X126524922Y-74218996D01*
X126540094Y-74210886D01*
X126672758Y-74139976D01*
X126833177Y-74091313D01*
X126958196Y-74079000D01*
X127041804Y-74079000D01*
X127166823Y-74091313D01*
X127166823Y-74091313D01*
G37*
G36*
X125311000Y-75781000D02*
G01*
X123609000Y-75781000D01*
X123609000Y-74079000D01*
X125311000Y-74079000D01*
X125311000Y-75781000D01*
X125311000Y-75781000D01*
G37*
G36*
X118358228Y-68951703D02*
G01*
X118513100Y-69015853D01*
X118652481Y-69108985D01*
X118771015Y-69227519D01*
X118864147Y-69366900D01*
X118928297Y-69521772D01*
X118961000Y-69686184D01*
X118961000Y-69853816D01*
X118928297Y-70018228D01*
X118864147Y-70173100D01*
X118771015Y-70312481D01*
X118652481Y-70431015D01*
X118513100Y-70524147D01*
X118358228Y-70588297D01*
X118193816Y-70621000D01*
X118026184Y-70621000D01*
X117861772Y-70588297D01*
X117706900Y-70524147D01*
X117567519Y-70431015D01*
X117448985Y-70312481D01*
X117355853Y-70173100D01*
X117291703Y-70018228D01*
X117259000Y-69853816D01*
X117259000Y-69686184D01*
X117291703Y-69521772D01*
X117355853Y-69366900D01*
X117448985Y-69227519D01*
X117567519Y-69108985D01*
X117706900Y-69015853D01*
X117861772Y-68951703D01*
X118026184Y-68919000D01*
X118193816Y-68919000D01*
X118358228Y-68951703D01*
X118358228Y-68951703D01*
G37*
G36*
X118358228Y-63951703D02*
G01*
X118513100Y-64015853D01*
X118652481Y-64108985D01*
X118771015Y-64227519D01*
X118864147Y-64366900D01*
X118928297Y-64521772D01*
X118961000Y-64686184D01*
X118961000Y-64853816D01*
X118928297Y-65018228D01*
X118864147Y-65173100D01*
X118771015Y-65312481D01*
X118652481Y-65431015D01*
X118513100Y-65524147D01*
X118358228Y-65588297D01*
X118193816Y-65621000D01*
X118026184Y-65621000D01*
X117861772Y-65588297D01*
X117706900Y-65524147D01*
X117567519Y-65431015D01*
X117448985Y-65312481D01*
X117355853Y-65173100D01*
X117291703Y-65018228D01*
X117259000Y-64853816D01*
X117259000Y-64686184D01*
X117291703Y-64521772D01*
X117355853Y-64366900D01*
X117448985Y-64227519D01*
X117567519Y-64108985D01*
X117706900Y-64015853D01*
X117861772Y-63951703D01*
X118026184Y-63919000D01*
X118193816Y-63919000D01*
X118358228Y-63951703D01*
X118358228Y-63951703D01*
G37*
G36*
X170428228Y-62268703D02*
G01*
X170583100Y-62332853D01*
X170722481Y-62425985D01*
X170841015Y-62544519D01*
X170934147Y-62683900D01*
X170998297Y-62838772D01*
X171031000Y-63003184D01*
X171031000Y-63170816D01*
X170998297Y-63335228D01*
X170934147Y-63490100D01*
X170841015Y-63629481D01*
X170722481Y-63748015D01*
X170583100Y-63841147D01*
X170428228Y-63905297D01*
X170263816Y-63938000D01*
X170096184Y-63938000D01*
X169931772Y-63905297D01*
X169776900Y-63841147D01*
X169637519Y-63748015D01*
X169518985Y-63629481D01*
X169425853Y-63490100D01*
X169361703Y-63335228D01*
X169329000Y-63170816D01*
X169329000Y-63003184D01*
X169361703Y-62838772D01*
X169425853Y-62683900D01*
X169518985Y-62544519D01*
X169637519Y-62425985D01*
X169776900Y-62332853D01*
X169931772Y-62268703D01*
X170096184Y-62236000D01*
X170263816Y-62236000D01*
X170428228Y-62268703D01*
X170428228Y-62268703D01*
G37*
G36*
X171031000Y-61938000D02*
G01*
X169329000Y-61938000D01*
X169329000Y-60236000D01*
X171031000Y-60236000D01*
X171031000Y-61938000D01*
X171031000Y-61938000D01*
G37*
G36*
X127166823Y-58851313D02*
G01*
X127327242Y-58899976D01*
X127459906Y-58970886D01*
X127475078Y-58978996D01*
X127604659Y-59085341D01*
X127711004Y-59214922D01*
X127711005Y-59214924D01*
X127790024Y-59362758D01*
X127838687Y-59523177D01*
X127855117Y-59690000D01*
X127838687Y-59856823D01*
X127790024Y-60017242D01*
X127719114Y-60149906D01*
X127711004Y-60165078D01*
X127604659Y-60294659D01*
X127475078Y-60401004D01*
X127475076Y-60401005D01*
X127327242Y-60480024D01*
X127166823Y-60528687D01*
X127041804Y-60541000D01*
X126958196Y-60541000D01*
X126833177Y-60528687D01*
X126672758Y-60480024D01*
X126524924Y-60401005D01*
X126524922Y-60401004D01*
X126395341Y-60294659D01*
X126288996Y-60165078D01*
X126280886Y-60149906D01*
X126209976Y-60017242D01*
X126161313Y-59856823D01*
X126144883Y-59690000D01*
X126161313Y-59523177D01*
X126209976Y-59362758D01*
X126288995Y-59214924D01*
X126288996Y-59214922D01*
X126395341Y-59085341D01*
X126524922Y-58978996D01*
X126540094Y-58970886D01*
X126672758Y-58899976D01*
X126833177Y-58851313D01*
X126958196Y-58839000D01*
X127041804Y-58839000D01*
X127166823Y-58851313D01*
X127166823Y-58851313D01*
G37*
G36*
X134786823Y-58851313D02*
G01*
X134947242Y-58899976D01*
X135079906Y-58970886D01*
X135095078Y-58978996D01*
X135224659Y-59085341D01*
X135331004Y-59214922D01*
X135331005Y-59214924D01*
X135410024Y-59362758D01*
X135458687Y-59523177D01*
X135475117Y-59690000D01*
X135458687Y-59856823D01*
X135410024Y-60017242D01*
X135339114Y-60149906D01*
X135331004Y-60165078D01*
X135224659Y-60294659D01*
X135095078Y-60401004D01*
X135095076Y-60401005D01*
X134947242Y-60480024D01*
X134786823Y-60528687D01*
X134661804Y-60541000D01*
X134578196Y-60541000D01*
X134453177Y-60528687D01*
X134292758Y-60480024D01*
X134144924Y-60401005D01*
X134144922Y-60401004D01*
X134015341Y-60294659D01*
X133908996Y-60165078D01*
X133900886Y-60149906D01*
X133829976Y-60017242D01*
X133781313Y-59856823D01*
X133764883Y-59690000D01*
X133781313Y-59523177D01*
X133829976Y-59362758D01*
X133908995Y-59214924D01*
X133908996Y-59214922D01*
X134015341Y-59085341D01*
X134144922Y-58978996D01*
X134160094Y-58970886D01*
X134292758Y-58899976D01*
X134453177Y-58851313D01*
X134578196Y-58839000D01*
X134661804Y-58839000D01*
X134786823Y-58851313D01*
X134786823Y-58851313D01*
G37*
G36*
X129706823Y-58851313D02*
G01*
X129867242Y-58899976D01*
X129999906Y-58970886D01*
X130015078Y-58978996D01*
X130144659Y-59085341D01*
X130251004Y-59214922D01*
X130251005Y-59214924D01*
X130330024Y-59362758D01*
X130378687Y-59523177D01*
X130395117Y-59690000D01*
X130378687Y-59856823D01*
X130330024Y-60017242D01*
X130259114Y-60149906D01*
X130251004Y-60165078D01*
X130144659Y-60294659D01*
X130015078Y-60401004D01*
X130015076Y-60401005D01*
X129867242Y-60480024D01*
X129706823Y-60528687D01*
X129581804Y-60541000D01*
X129498196Y-60541000D01*
X129373177Y-60528687D01*
X129212758Y-60480024D01*
X129064924Y-60401005D01*
X129064922Y-60401004D01*
X128935341Y-60294659D01*
X128828996Y-60165078D01*
X128820886Y-60149906D01*
X128749976Y-60017242D01*
X128701313Y-59856823D01*
X128684883Y-59690000D01*
X128701313Y-59523177D01*
X128749976Y-59362758D01*
X128828995Y-59214924D01*
X128828996Y-59214922D01*
X128935341Y-59085341D01*
X129064922Y-58978996D01*
X129080094Y-58970886D01*
X129212758Y-58899976D01*
X129373177Y-58851313D01*
X129498196Y-58839000D01*
X129581804Y-58839000D01*
X129706823Y-58851313D01*
X129706823Y-58851313D01*
G37*
G36*
X132246823Y-58851313D02*
G01*
X132407242Y-58899976D01*
X132539906Y-58970886D01*
X132555078Y-58978996D01*
X132684659Y-59085341D01*
X132791004Y-59214922D01*
X132791005Y-59214924D01*
X132870024Y-59362758D01*
X132918687Y-59523177D01*
X132935117Y-59690000D01*
X132918687Y-59856823D01*
X132870024Y-60017242D01*
X132799114Y-60149906D01*
X132791004Y-60165078D01*
X132684659Y-60294659D01*
X132555078Y-60401004D01*
X132555076Y-60401005D01*
X132407242Y-60480024D01*
X132246823Y-60528687D01*
X132121804Y-60541000D01*
X132038196Y-60541000D01*
X131913177Y-60528687D01*
X131752758Y-60480024D01*
X131604924Y-60401005D01*
X131604922Y-60401004D01*
X131475341Y-60294659D01*
X131368996Y-60165078D01*
X131360886Y-60149906D01*
X131289976Y-60017242D01*
X131241313Y-59856823D01*
X131224883Y-59690000D01*
X131241313Y-59523177D01*
X131289976Y-59362758D01*
X131368995Y-59214924D01*
X131368996Y-59214922D01*
X131475341Y-59085341D01*
X131604922Y-58978996D01*
X131620094Y-58970886D01*
X131752758Y-58899976D01*
X131913177Y-58851313D01*
X132038196Y-58839000D01*
X132121804Y-58839000D01*
X132246823Y-58851313D01*
X132246823Y-58851313D01*
G37*
G36*
X162726823Y-58851313D02*
G01*
X162887242Y-58899976D01*
X163019906Y-58970886D01*
X163035078Y-58978996D01*
X163164659Y-59085341D01*
X163271004Y-59214922D01*
X163271005Y-59214924D01*
X163350024Y-59362758D01*
X163398687Y-59523177D01*
X163415117Y-59690000D01*
X163398687Y-59856823D01*
X163350024Y-60017242D01*
X163279114Y-60149906D01*
X163271004Y-60165078D01*
X163164659Y-60294659D01*
X163035078Y-60401004D01*
X163035076Y-60401005D01*
X162887242Y-60480024D01*
X162726823Y-60528687D01*
X162601804Y-60541000D01*
X162518196Y-60541000D01*
X162393177Y-60528687D01*
X162232758Y-60480024D01*
X162084924Y-60401005D01*
X162084922Y-60401004D01*
X161955341Y-60294659D01*
X161848996Y-60165078D01*
X161840886Y-60149906D01*
X161769976Y-60017242D01*
X161721313Y-59856823D01*
X161704883Y-59690000D01*
X161721313Y-59523177D01*
X161769976Y-59362758D01*
X161848995Y-59214924D01*
X161848996Y-59214922D01*
X161955341Y-59085341D01*
X162084922Y-58978996D01*
X162100094Y-58970886D01*
X162232758Y-58899976D01*
X162393177Y-58851313D01*
X162518196Y-58839000D01*
X162601804Y-58839000D01*
X162726823Y-58851313D01*
X162726823Y-58851313D01*
G37*
G36*
X160186823Y-58851313D02*
G01*
X160347242Y-58899976D01*
X160479906Y-58970886D01*
X160495078Y-58978996D01*
X160624659Y-59085341D01*
X160731004Y-59214922D01*
X160731005Y-59214924D01*
X160810024Y-59362758D01*
X160858687Y-59523177D01*
X160875117Y-59690000D01*
X160858687Y-59856823D01*
X160810024Y-60017242D01*
X160739114Y-60149906D01*
X160731004Y-60165078D01*
X160624659Y-60294659D01*
X160495078Y-60401004D01*
X160495076Y-60401005D01*
X160347242Y-60480024D01*
X160186823Y-60528687D01*
X160061804Y-60541000D01*
X159978196Y-60541000D01*
X159853177Y-60528687D01*
X159692758Y-60480024D01*
X159544924Y-60401005D01*
X159544922Y-60401004D01*
X159415341Y-60294659D01*
X159308996Y-60165078D01*
X159300886Y-60149906D01*
X159229976Y-60017242D01*
X159181313Y-59856823D01*
X159164883Y-59690000D01*
X159181313Y-59523177D01*
X159229976Y-59362758D01*
X159308995Y-59214924D01*
X159308996Y-59214922D01*
X159415341Y-59085341D01*
X159544922Y-58978996D01*
X159560094Y-58970886D01*
X159692758Y-58899976D01*
X159853177Y-58851313D01*
X159978196Y-58839000D01*
X160061804Y-58839000D01*
X160186823Y-58851313D01*
X160186823Y-58851313D01*
G37*
G36*
X137326823Y-58851313D02*
G01*
X137487242Y-58899976D01*
X137619906Y-58970886D01*
X137635078Y-58978996D01*
X137764659Y-59085341D01*
X137871004Y-59214922D01*
X137871005Y-59214924D01*
X137950024Y-59362758D01*
X137998687Y-59523177D01*
X138015117Y-59690000D01*
X137998687Y-59856823D01*
X137950024Y-60017242D01*
X137879114Y-60149906D01*
X137871004Y-60165078D01*
X137764659Y-60294659D01*
X137635078Y-60401004D01*
X137635076Y-60401005D01*
X137487242Y-60480024D01*
X137326823Y-60528687D01*
X137201804Y-60541000D01*
X137118196Y-60541000D01*
X136993177Y-60528687D01*
X136832758Y-60480024D01*
X136684924Y-60401005D01*
X136684922Y-60401004D01*
X136555341Y-60294659D01*
X136448996Y-60165078D01*
X136440886Y-60149906D01*
X136369976Y-60017242D01*
X136321313Y-59856823D01*
X136304883Y-59690000D01*
X136321313Y-59523177D01*
X136369976Y-59362758D01*
X136448995Y-59214924D01*
X136448996Y-59214922D01*
X136555341Y-59085341D01*
X136684922Y-58978996D01*
X136700094Y-58970886D01*
X136832758Y-58899976D01*
X136993177Y-58851313D01*
X137118196Y-58839000D01*
X137201804Y-58839000D01*
X137326823Y-58851313D01*
X137326823Y-58851313D01*
G37*
G36*
X157646823Y-58851313D02*
G01*
X157807242Y-58899976D01*
X157939906Y-58970886D01*
X157955078Y-58978996D01*
X158084659Y-59085341D01*
X158191004Y-59214922D01*
X158191005Y-59214924D01*
X158270024Y-59362758D01*
X158318687Y-59523177D01*
X158335117Y-59690000D01*
X158318687Y-59856823D01*
X158270024Y-60017242D01*
X158199114Y-60149906D01*
X158191004Y-60165078D01*
X158084659Y-60294659D01*
X157955078Y-60401004D01*
X157955076Y-60401005D01*
X157807242Y-60480024D01*
X157646823Y-60528687D01*
X157521804Y-60541000D01*
X157438196Y-60541000D01*
X157313177Y-60528687D01*
X157152758Y-60480024D01*
X157004924Y-60401005D01*
X157004922Y-60401004D01*
X156875341Y-60294659D01*
X156768996Y-60165078D01*
X156760886Y-60149906D01*
X156689976Y-60017242D01*
X156641313Y-59856823D01*
X156624883Y-59690000D01*
X156641313Y-59523177D01*
X156689976Y-59362758D01*
X156768995Y-59214924D01*
X156768996Y-59214922D01*
X156875341Y-59085341D01*
X157004922Y-58978996D01*
X157020094Y-58970886D01*
X157152758Y-58899976D01*
X157313177Y-58851313D01*
X157438196Y-58839000D01*
X157521804Y-58839000D01*
X157646823Y-58851313D01*
X157646823Y-58851313D01*
G37*
G36*
X139866823Y-58851313D02*
G01*
X140027242Y-58899976D01*
X140159906Y-58970886D01*
X140175078Y-58978996D01*
X140304659Y-59085341D01*
X140411004Y-59214922D01*
X140411005Y-59214924D01*
X140490024Y-59362758D01*
X140538687Y-59523177D01*
X140555117Y-59690000D01*
X140538687Y-59856823D01*
X140490024Y-60017242D01*
X140419114Y-60149906D01*
X140411004Y-60165078D01*
X140304659Y-60294659D01*
X140175078Y-60401004D01*
X140175076Y-60401005D01*
X140027242Y-60480024D01*
X139866823Y-60528687D01*
X139741804Y-60541000D01*
X139658196Y-60541000D01*
X139533177Y-60528687D01*
X139372758Y-60480024D01*
X139224924Y-60401005D01*
X139224922Y-60401004D01*
X139095341Y-60294659D01*
X138988996Y-60165078D01*
X138980886Y-60149906D01*
X138909976Y-60017242D01*
X138861313Y-59856823D01*
X138844883Y-59690000D01*
X138861313Y-59523177D01*
X138909976Y-59362758D01*
X138988995Y-59214924D01*
X138988996Y-59214922D01*
X139095341Y-59085341D01*
X139224922Y-58978996D01*
X139240094Y-58970886D01*
X139372758Y-58899976D01*
X139533177Y-58851313D01*
X139658196Y-58839000D01*
X139741804Y-58839000D01*
X139866823Y-58851313D01*
X139866823Y-58851313D01*
G37*
G36*
X155106823Y-58851313D02*
G01*
X155267242Y-58899976D01*
X155399906Y-58970886D01*
X155415078Y-58978996D01*
X155544659Y-59085341D01*
X155651004Y-59214922D01*
X155651005Y-59214924D01*
X155730024Y-59362758D01*
X155778687Y-59523177D01*
X155795117Y-59690000D01*
X155778687Y-59856823D01*
X155730024Y-60017242D01*
X155659114Y-60149906D01*
X155651004Y-60165078D01*
X155544659Y-60294659D01*
X155415078Y-60401004D01*
X155415076Y-60401005D01*
X155267242Y-60480024D01*
X155106823Y-60528687D01*
X154981804Y-60541000D01*
X154898196Y-60541000D01*
X154773177Y-60528687D01*
X154612758Y-60480024D01*
X154464924Y-60401005D01*
X154464922Y-60401004D01*
X154335341Y-60294659D01*
X154228996Y-60165078D01*
X154220886Y-60149906D01*
X154149976Y-60017242D01*
X154101313Y-59856823D01*
X154084883Y-59690000D01*
X154101313Y-59523177D01*
X154149976Y-59362758D01*
X154228995Y-59214924D01*
X154228996Y-59214922D01*
X154335341Y-59085341D01*
X154464922Y-58978996D01*
X154480094Y-58970886D01*
X154612758Y-58899976D01*
X154773177Y-58851313D01*
X154898196Y-58839000D01*
X154981804Y-58839000D01*
X155106823Y-58851313D01*
X155106823Y-58851313D01*
G37*
G36*
X142406823Y-58851313D02*
G01*
X142567242Y-58899976D01*
X142699906Y-58970886D01*
X142715078Y-58978996D01*
X142844659Y-59085341D01*
X142951004Y-59214922D01*
X142951005Y-59214924D01*
X143030024Y-59362758D01*
X143078687Y-59523177D01*
X143095117Y-59690000D01*
X143078687Y-59856823D01*
X143030024Y-60017242D01*
X142959114Y-60149906D01*
X142951004Y-60165078D01*
X142844659Y-60294659D01*
X142715078Y-60401004D01*
X142715076Y-60401005D01*
X142567242Y-60480024D01*
X142406823Y-60528687D01*
X142281804Y-60541000D01*
X142198196Y-60541000D01*
X142073177Y-60528687D01*
X141912758Y-60480024D01*
X141764924Y-60401005D01*
X141764922Y-60401004D01*
X141635341Y-60294659D01*
X141528996Y-60165078D01*
X141520886Y-60149906D01*
X141449976Y-60017242D01*
X141401313Y-59856823D01*
X141384883Y-59690000D01*
X141401313Y-59523177D01*
X141449976Y-59362758D01*
X141528995Y-59214924D01*
X141528996Y-59214922D01*
X141635341Y-59085341D01*
X141764922Y-58978996D01*
X141780094Y-58970886D01*
X141912758Y-58899976D01*
X142073177Y-58851313D01*
X142198196Y-58839000D01*
X142281804Y-58839000D01*
X142406823Y-58851313D01*
X142406823Y-58851313D01*
G37*
G36*
X152566823Y-58851313D02*
G01*
X152727242Y-58899976D01*
X152859906Y-58970886D01*
X152875078Y-58978996D01*
X153004659Y-59085341D01*
X153111004Y-59214922D01*
X153111005Y-59214924D01*
X153190024Y-59362758D01*
X153238687Y-59523177D01*
X153255117Y-59690000D01*
X153238687Y-59856823D01*
X153190024Y-60017242D01*
X153119114Y-60149906D01*
X153111004Y-60165078D01*
X153004659Y-60294659D01*
X152875078Y-60401004D01*
X152875076Y-60401005D01*
X152727242Y-60480024D01*
X152566823Y-60528687D01*
X152441804Y-60541000D01*
X152358196Y-60541000D01*
X152233177Y-60528687D01*
X152072758Y-60480024D01*
X151924924Y-60401005D01*
X151924922Y-60401004D01*
X151795341Y-60294659D01*
X151688996Y-60165078D01*
X151680886Y-60149906D01*
X151609976Y-60017242D01*
X151561313Y-59856823D01*
X151544883Y-59690000D01*
X151561313Y-59523177D01*
X151609976Y-59362758D01*
X151688995Y-59214924D01*
X151688996Y-59214922D01*
X151795341Y-59085341D01*
X151924922Y-58978996D01*
X151940094Y-58970886D01*
X152072758Y-58899976D01*
X152233177Y-58851313D01*
X152358196Y-58839000D01*
X152441804Y-58839000D01*
X152566823Y-58851313D01*
X152566823Y-58851313D01*
G37*
G36*
X144946823Y-58851313D02*
G01*
X145107242Y-58899976D01*
X145239906Y-58970886D01*
X145255078Y-58978996D01*
X145384659Y-59085341D01*
X145491004Y-59214922D01*
X145491005Y-59214924D01*
X145570024Y-59362758D01*
X145618687Y-59523177D01*
X145635117Y-59690000D01*
X145618687Y-59856823D01*
X145570024Y-60017242D01*
X145499114Y-60149906D01*
X145491004Y-60165078D01*
X145384659Y-60294659D01*
X145255078Y-60401004D01*
X145255076Y-60401005D01*
X145107242Y-60480024D01*
X144946823Y-60528687D01*
X144821804Y-60541000D01*
X144738196Y-60541000D01*
X144613177Y-60528687D01*
X144452758Y-60480024D01*
X144304924Y-60401005D01*
X144304922Y-60401004D01*
X144175341Y-60294659D01*
X144068996Y-60165078D01*
X144060886Y-60149906D01*
X143989976Y-60017242D01*
X143941313Y-59856823D01*
X143924883Y-59690000D01*
X143941313Y-59523177D01*
X143989976Y-59362758D01*
X144068995Y-59214924D01*
X144068996Y-59214922D01*
X144175341Y-59085341D01*
X144304922Y-58978996D01*
X144320094Y-58970886D01*
X144452758Y-58899976D01*
X144613177Y-58851313D01*
X144738196Y-58839000D01*
X144821804Y-58839000D01*
X144946823Y-58851313D01*
X144946823Y-58851313D01*
G37*
G36*
X150026823Y-58851313D02*
G01*
X150187242Y-58899976D01*
X150319906Y-58970886D01*
X150335078Y-58978996D01*
X150464659Y-59085341D01*
X150571004Y-59214922D01*
X150571005Y-59214924D01*
X150650024Y-59362758D01*
X150698687Y-59523177D01*
X150715117Y-59690000D01*
X150698687Y-59856823D01*
X150650024Y-60017242D01*
X150579114Y-60149906D01*
X150571004Y-60165078D01*
X150464659Y-60294659D01*
X150335078Y-60401004D01*
X150335076Y-60401005D01*
X150187242Y-60480024D01*
X150026823Y-60528687D01*
X149901804Y-60541000D01*
X149818196Y-60541000D01*
X149693177Y-60528687D01*
X149532758Y-60480024D01*
X149384924Y-60401005D01*
X149384922Y-60401004D01*
X149255341Y-60294659D01*
X149148996Y-60165078D01*
X149140886Y-60149906D01*
X149069976Y-60017242D01*
X149021313Y-59856823D01*
X149004883Y-59690000D01*
X149021313Y-59523177D01*
X149069976Y-59362758D01*
X149148995Y-59214924D01*
X149148996Y-59214922D01*
X149255341Y-59085341D01*
X149384922Y-58978996D01*
X149400094Y-58970886D01*
X149532758Y-58899976D01*
X149693177Y-58851313D01*
X149818196Y-58839000D01*
X149901804Y-58839000D01*
X150026823Y-58851313D01*
X150026823Y-58851313D01*
G37*
G36*
X147486823Y-58851313D02*
G01*
X147647242Y-58899976D01*
X147779906Y-58970886D01*
X147795078Y-58978996D01*
X147924659Y-59085341D01*
X148031004Y-59214922D01*
X148031005Y-59214924D01*
X148110024Y-59362758D01*
X148158687Y-59523177D01*
X148175117Y-59690000D01*
X148158687Y-59856823D01*
X148110024Y-60017242D01*
X148039114Y-60149906D01*
X148031004Y-60165078D01*
X147924659Y-60294659D01*
X147795078Y-60401004D01*
X147795076Y-60401005D01*
X147647242Y-60480024D01*
X147486823Y-60528687D01*
X147361804Y-60541000D01*
X147278196Y-60541000D01*
X147153177Y-60528687D01*
X146992758Y-60480024D01*
X146844924Y-60401005D01*
X146844922Y-60401004D01*
X146715341Y-60294659D01*
X146608996Y-60165078D01*
X146600886Y-60149906D01*
X146529976Y-60017242D01*
X146481313Y-59856823D01*
X146464883Y-59690000D01*
X146481313Y-59523177D01*
X146529976Y-59362758D01*
X146608995Y-59214924D01*
X146608996Y-59214922D01*
X146715341Y-59085341D01*
X146844922Y-58978996D01*
X146860094Y-58970886D01*
X146992758Y-58899976D01*
X147153177Y-58851313D01*
X147278196Y-58839000D01*
X147361804Y-58839000D01*
X147486823Y-58851313D01*
X147486823Y-58851313D01*
G37*
G36*
X124626823Y-58851313D02*
G01*
X124787242Y-58899976D01*
X124919906Y-58970886D01*
X124935078Y-58978996D01*
X125064659Y-59085341D01*
X125171004Y-59214922D01*
X125171005Y-59214924D01*
X125250024Y-59362758D01*
X125298687Y-59523177D01*
X125315117Y-59690000D01*
X125298687Y-59856823D01*
X125250024Y-60017242D01*
X125179114Y-60149906D01*
X125171004Y-60165078D01*
X125064659Y-60294659D01*
X124935078Y-60401004D01*
X124935076Y-60401005D01*
X124787242Y-60480024D01*
X124626823Y-60528687D01*
X124501804Y-60541000D01*
X124418196Y-60541000D01*
X124293177Y-60528687D01*
X124132758Y-60480024D01*
X123984924Y-60401005D01*
X123984922Y-60401004D01*
X123855341Y-60294659D01*
X123748996Y-60165078D01*
X123740886Y-60149906D01*
X123669976Y-60017242D01*
X123621313Y-59856823D01*
X123604883Y-59690000D01*
X123621313Y-59523177D01*
X123669976Y-59362758D01*
X123748995Y-59214924D01*
X123748996Y-59214922D01*
X123855341Y-59085341D01*
X123984922Y-58978996D01*
X124000094Y-58970886D01*
X124132758Y-58899976D01*
X124293177Y-58851313D01*
X124418196Y-58839000D01*
X124501804Y-58839000D01*
X124626823Y-58851313D01*
X124626823Y-58851313D01*
G37*
G36*
X171081000Y-56781000D02*
G01*
X169279000Y-56781000D01*
X169279000Y-54979000D01*
X171081000Y-54979000D01*
X171081000Y-56781000D01*
X171081000Y-56781000D01*
G37*
G36*
X167750443Y-54985519D02*
G01*
X167816627Y-54992037D01*
X167986466Y-55043557D01*
X168142991Y-55127222D01*
X168178729Y-55156552D01*
X168280186Y-55239814D01*
X168363448Y-55341271D01*
X168392778Y-55377009D01*
X168476443Y-55533534D01*
X168527963Y-55703373D01*
X168545359Y-55880000D01*
X168527963Y-56056627D01*
X168476443Y-56226466D01*
X168392778Y-56382991D01*
X168363448Y-56418729D01*
X168280186Y-56520186D01*
X168178729Y-56603448D01*
X168142991Y-56632778D01*
X167986466Y-56716443D01*
X167816627Y-56767963D01*
X167750443Y-56774481D01*
X167684260Y-56781000D01*
X167595740Y-56781000D01*
X167529557Y-56774481D01*
X167463373Y-56767963D01*
X167293534Y-56716443D01*
X167137009Y-56632778D01*
X167101271Y-56603448D01*
X166999814Y-56520186D01*
X166916552Y-56418729D01*
X166887222Y-56382991D01*
X166803557Y-56226466D01*
X166752037Y-56056627D01*
X166734641Y-55880000D01*
X166752037Y-55703373D01*
X166803557Y-55533534D01*
X166887222Y-55377009D01*
X166916552Y-55341271D01*
X166999814Y-55239814D01*
X167101271Y-55156552D01*
X167137009Y-55127222D01*
X167293534Y-55043557D01*
X167463373Y-54992037D01*
X167529557Y-54985519D01*
X167595740Y-54979000D01*
X167684260Y-54979000D01*
X167750443Y-54985519D01*
X167750443Y-54985519D01*
G37*
G36*
X122030443Y-54985519D02*
G01*
X122096627Y-54992037D01*
X122266466Y-55043557D01*
X122422991Y-55127222D01*
X122458729Y-55156552D01*
X122560186Y-55239814D01*
X122643448Y-55341271D01*
X122672778Y-55377009D01*
X122756443Y-55533534D01*
X122807963Y-55703373D01*
X122825359Y-55880000D01*
X122807963Y-56056627D01*
X122756443Y-56226466D01*
X122672778Y-56382991D01*
X122643448Y-56418729D01*
X122560186Y-56520186D01*
X122458729Y-56603448D01*
X122422991Y-56632778D01*
X122266466Y-56716443D01*
X122096627Y-56767963D01*
X122030443Y-56774481D01*
X121964260Y-56781000D01*
X121875740Y-56781000D01*
X121809557Y-56774481D01*
X121743373Y-56767963D01*
X121573534Y-56716443D01*
X121417009Y-56632778D01*
X121381271Y-56603448D01*
X121279814Y-56520186D01*
X121196552Y-56418729D01*
X121167222Y-56382991D01*
X121083557Y-56226466D01*
X121032037Y-56056627D01*
X121014641Y-55880000D01*
X121032037Y-55703373D01*
X121083557Y-55533534D01*
X121167222Y-55377009D01*
X121196552Y-55341271D01*
X121279814Y-55239814D01*
X121381271Y-55156552D01*
X121417009Y-55127222D01*
X121573534Y-55043557D01*
X121743373Y-54992037D01*
X121809557Y-54985519D01*
X121875740Y-54979000D01*
X121964260Y-54979000D01*
X122030443Y-54985519D01*
X122030443Y-54985519D01*
G37*
G36*
X165210443Y-54985519D02*
G01*
X165276627Y-54992037D01*
X165446466Y-55043557D01*
X165602991Y-55127222D01*
X165638729Y-55156552D01*
X165740186Y-55239814D01*
X165823448Y-55341271D01*
X165852778Y-55377009D01*
X165936443Y-55533534D01*
X165987963Y-55703373D01*
X166005359Y-55880000D01*
X165987963Y-56056627D01*
X165936443Y-56226466D01*
X165852778Y-56382991D01*
X165823448Y-56418729D01*
X165740186Y-56520186D01*
X165638729Y-56603448D01*
X165602991Y-56632778D01*
X165446466Y-56716443D01*
X165276627Y-56767963D01*
X165210443Y-56774481D01*
X165144260Y-56781000D01*
X165055740Y-56781000D01*
X164989557Y-56774481D01*
X164923373Y-56767963D01*
X164753534Y-56716443D01*
X164597009Y-56632778D01*
X164561271Y-56603448D01*
X164459814Y-56520186D01*
X164376552Y-56418729D01*
X164347222Y-56382991D01*
X164263557Y-56226466D01*
X164212037Y-56056627D01*
X164194641Y-55880000D01*
X164212037Y-55703373D01*
X164263557Y-55533534D01*
X164347222Y-55377009D01*
X164376552Y-55341271D01*
X164459814Y-55239814D01*
X164561271Y-55156552D01*
X164597009Y-55127222D01*
X164753534Y-55043557D01*
X164923373Y-54992037D01*
X164989557Y-54985519D01*
X165055740Y-54979000D01*
X165144260Y-54979000D01*
X165210443Y-54985519D01*
X165210443Y-54985519D01*
G37*
G36*
X162670443Y-54985519D02*
G01*
X162736627Y-54992037D01*
X162906466Y-55043557D01*
X163062991Y-55127222D01*
X163098729Y-55156552D01*
X163200186Y-55239814D01*
X163283448Y-55341271D01*
X163312778Y-55377009D01*
X163396443Y-55533534D01*
X163447963Y-55703373D01*
X163465359Y-55880000D01*
X163447963Y-56056627D01*
X163396443Y-56226466D01*
X163312778Y-56382991D01*
X163283448Y-56418729D01*
X163200186Y-56520186D01*
X163098729Y-56603448D01*
X163062991Y-56632778D01*
X162906466Y-56716443D01*
X162736627Y-56767963D01*
X162670443Y-56774481D01*
X162604260Y-56781000D01*
X162515740Y-56781000D01*
X162449557Y-56774481D01*
X162383373Y-56767963D01*
X162213534Y-56716443D01*
X162057009Y-56632778D01*
X162021271Y-56603448D01*
X161919814Y-56520186D01*
X161836552Y-56418729D01*
X161807222Y-56382991D01*
X161723557Y-56226466D01*
X161672037Y-56056627D01*
X161654641Y-55880000D01*
X161672037Y-55703373D01*
X161723557Y-55533534D01*
X161807222Y-55377009D01*
X161836552Y-55341271D01*
X161919814Y-55239814D01*
X162021271Y-55156552D01*
X162057009Y-55127222D01*
X162213534Y-55043557D01*
X162383373Y-54992037D01*
X162449557Y-54985519D01*
X162515740Y-54979000D01*
X162604260Y-54979000D01*
X162670443Y-54985519D01*
X162670443Y-54985519D01*
G37*
G36*
X160130443Y-54985519D02*
G01*
X160196627Y-54992037D01*
X160366466Y-55043557D01*
X160522991Y-55127222D01*
X160558729Y-55156552D01*
X160660186Y-55239814D01*
X160743448Y-55341271D01*
X160772778Y-55377009D01*
X160856443Y-55533534D01*
X160907963Y-55703373D01*
X160925359Y-55880000D01*
X160907963Y-56056627D01*
X160856443Y-56226466D01*
X160772778Y-56382991D01*
X160743448Y-56418729D01*
X160660186Y-56520186D01*
X160558729Y-56603448D01*
X160522991Y-56632778D01*
X160366466Y-56716443D01*
X160196627Y-56767963D01*
X160130443Y-56774481D01*
X160064260Y-56781000D01*
X159975740Y-56781000D01*
X159909557Y-56774481D01*
X159843373Y-56767963D01*
X159673534Y-56716443D01*
X159517009Y-56632778D01*
X159481271Y-56603448D01*
X159379814Y-56520186D01*
X159296552Y-56418729D01*
X159267222Y-56382991D01*
X159183557Y-56226466D01*
X159132037Y-56056627D01*
X159114641Y-55880000D01*
X159132037Y-55703373D01*
X159183557Y-55533534D01*
X159267222Y-55377009D01*
X159296552Y-55341271D01*
X159379814Y-55239814D01*
X159481271Y-55156552D01*
X159517009Y-55127222D01*
X159673534Y-55043557D01*
X159843373Y-54992037D01*
X159909557Y-54985519D01*
X159975740Y-54979000D01*
X160064260Y-54979000D01*
X160130443Y-54985519D01*
X160130443Y-54985519D01*
G37*
G36*
X157590443Y-54985519D02*
G01*
X157656627Y-54992037D01*
X157826466Y-55043557D01*
X157982991Y-55127222D01*
X158018729Y-55156552D01*
X158120186Y-55239814D01*
X158203448Y-55341271D01*
X158232778Y-55377009D01*
X158316443Y-55533534D01*
X158367963Y-55703373D01*
X158385359Y-55880000D01*
X158367963Y-56056627D01*
X158316443Y-56226466D01*
X158232778Y-56382991D01*
X158203448Y-56418729D01*
X158120186Y-56520186D01*
X158018729Y-56603448D01*
X157982991Y-56632778D01*
X157826466Y-56716443D01*
X157656627Y-56767963D01*
X157590443Y-56774481D01*
X157524260Y-56781000D01*
X157435740Y-56781000D01*
X157369557Y-56774481D01*
X157303373Y-56767963D01*
X157133534Y-56716443D01*
X156977009Y-56632778D01*
X156941271Y-56603448D01*
X156839814Y-56520186D01*
X156756552Y-56418729D01*
X156727222Y-56382991D01*
X156643557Y-56226466D01*
X156592037Y-56056627D01*
X156574641Y-55880000D01*
X156592037Y-55703373D01*
X156643557Y-55533534D01*
X156727222Y-55377009D01*
X156756552Y-55341271D01*
X156839814Y-55239814D01*
X156941271Y-55156552D01*
X156977009Y-55127222D01*
X157133534Y-55043557D01*
X157303373Y-54992037D01*
X157369557Y-54985519D01*
X157435740Y-54979000D01*
X157524260Y-54979000D01*
X157590443Y-54985519D01*
X157590443Y-54985519D01*
G37*
G36*
X155050443Y-54985519D02*
G01*
X155116627Y-54992037D01*
X155286466Y-55043557D01*
X155442991Y-55127222D01*
X155478729Y-55156552D01*
X155580186Y-55239814D01*
X155663448Y-55341271D01*
X155692778Y-55377009D01*
X155776443Y-55533534D01*
X155827963Y-55703373D01*
X155845359Y-55880000D01*
X155827963Y-56056627D01*
X155776443Y-56226466D01*
X155692778Y-56382991D01*
X155663448Y-56418729D01*
X155580186Y-56520186D01*
X155478729Y-56603448D01*
X155442991Y-56632778D01*
X155286466Y-56716443D01*
X155116627Y-56767963D01*
X155050443Y-56774481D01*
X154984260Y-56781000D01*
X154895740Y-56781000D01*
X154829557Y-56774481D01*
X154763373Y-56767963D01*
X154593534Y-56716443D01*
X154437009Y-56632778D01*
X154401271Y-56603448D01*
X154299814Y-56520186D01*
X154216552Y-56418729D01*
X154187222Y-56382991D01*
X154103557Y-56226466D01*
X154052037Y-56056627D01*
X154034641Y-55880000D01*
X154052037Y-55703373D01*
X154103557Y-55533534D01*
X154187222Y-55377009D01*
X154216552Y-55341271D01*
X154299814Y-55239814D01*
X154401271Y-55156552D01*
X154437009Y-55127222D01*
X154593534Y-55043557D01*
X154763373Y-54992037D01*
X154829557Y-54985519D01*
X154895740Y-54979000D01*
X154984260Y-54979000D01*
X155050443Y-54985519D01*
X155050443Y-54985519D01*
G37*
G36*
X152510443Y-54985519D02*
G01*
X152576627Y-54992037D01*
X152746466Y-55043557D01*
X152902991Y-55127222D01*
X152938729Y-55156552D01*
X153040186Y-55239814D01*
X153123448Y-55341271D01*
X153152778Y-55377009D01*
X153236443Y-55533534D01*
X153287963Y-55703373D01*
X153305359Y-55880000D01*
X153287963Y-56056627D01*
X153236443Y-56226466D01*
X153152778Y-56382991D01*
X153123448Y-56418729D01*
X153040186Y-56520186D01*
X152938729Y-56603448D01*
X152902991Y-56632778D01*
X152746466Y-56716443D01*
X152576627Y-56767963D01*
X152510443Y-56774481D01*
X152444260Y-56781000D01*
X152355740Y-56781000D01*
X152289557Y-56774481D01*
X152223373Y-56767963D01*
X152053534Y-56716443D01*
X151897009Y-56632778D01*
X151861271Y-56603448D01*
X151759814Y-56520186D01*
X151676552Y-56418729D01*
X151647222Y-56382991D01*
X151563557Y-56226466D01*
X151512037Y-56056627D01*
X151494641Y-55880000D01*
X151512037Y-55703373D01*
X151563557Y-55533534D01*
X151647222Y-55377009D01*
X151676552Y-55341271D01*
X151759814Y-55239814D01*
X151861271Y-55156552D01*
X151897009Y-55127222D01*
X152053534Y-55043557D01*
X152223373Y-54992037D01*
X152289557Y-54985519D01*
X152355740Y-54979000D01*
X152444260Y-54979000D01*
X152510443Y-54985519D01*
X152510443Y-54985519D01*
G37*
G36*
X149970443Y-54985519D02*
G01*
X150036627Y-54992037D01*
X150206466Y-55043557D01*
X150362991Y-55127222D01*
X150398729Y-55156552D01*
X150500186Y-55239814D01*
X150583448Y-55341271D01*
X150612778Y-55377009D01*
X150696443Y-55533534D01*
X150747963Y-55703373D01*
X150765359Y-55880000D01*
X150747963Y-56056627D01*
X150696443Y-56226466D01*
X150612778Y-56382991D01*
X150583448Y-56418729D01*
X150500186Y-56520186D01*
X150398729Y-56603448D01*
X150362991Y-56632778D01*
X150206466Y-56716443D01*
X150036627Y-56767963D01*
X149970443Y-56774481D01*
X149904260Y-56781000D01*
X149815740Y-56781000D01*
X149749557Y-56774481D01*
X149683373Y-56767963D01*
X149513534Y-56716443D01*
X149357009Y-56632778D01*
X149321271Y-56603448D01*
X149219814Y-56520186D01*
X149136552Y-56418729D01*
X149107222Y-56382991D01*
X149023557Y-56226466D01*
X148972037Y-56056627D01*
X148954641Y-55880000D01*
X148972037Y-55703373D01*
X149023557Y-55533534D01*
X149107222Y-55377009D01*
X149136552Y-55341271D01*
X149219814Y-55239814D01*
X149321271Y-55156552D01*
X149357009Y-55127222D01*
X149513534Y-55043557D01*
X149683373Y-54992037D01*
X149749557Y-54985519D01*
X149815740Y-54979000D01*
X149904260Y-54979000D01*
X149970443Y-54985519D01*
X149970443Y-54985519D01*
G37*
G36*
X135521000Y-56781000D02*
G01*
X133719000Y-56781000D01*
X133719000Y-54979000D01*
X135521000Y-54979000D01*
X135521000Y-56781000D01*
X135521000Y-56781000D01*
G37*
G36*
X132190443Y-54985519D02*
G01*
X132256627Y-54992037D01*
X132426466Y-55043557D01*
X132582991Y-55127222D01*
X132618729Y-55156552D01*
X132720186Y-55239814D01*
X132803448Y-55341271D01*
X132832778Y-55377009D01*
X132916443Y-55533534D01*
X132967963Y-55703373D01*
X132985359Y-55880000D01*
X132967963Y-56056627D01*
X132916443Y-56226466D01*
X132832778Y-56382991D01*
X132803448Y-56418729D01*
X132720186Y-56520186D01*
X132618729Y-56603448D01*
X132582991Y-56632778D01*
X132426466Y-56716443D01*
X132256627Y-56767963D01*
X132190443Y-56774481D01*
X132124260Y-56781000D01*
X132035740Y-56781000D01*
X131969557Y-56774481D01*
X131903373Y-56767963D01*
X131733534Y-56716443D01*
X131577009Y-56632778D01*
X131541271Y-56603448D01*
X131439814Y-56520186D01*
X131356552Y-56418729D01*
X131327222Y-56382991D01*
X131243557Y-56226466D01*
X131192037Y-56056627D01*
X131174641Y-55880000D01*
X131192037Y-55703373D01*
X131243557Y-55533534D01*
X131327222Y-55377009D01*
X131356552Y-55341271D01*
X131439814Y-55239814D01*
X131541271Y-55156552D01*
X131577009Y-55127222D01*
X131733534Y-55043557D01*
X131903373Y-54992037D01*
X131969557Y-54985519D01*
X132035740Y-54979000D01*
X132124260Y-54979000D01*
X132190443Y-54985519D01*
X132190443Y-54985519D01*
G37*
G36*
X129650443Y-54985519D02*
G01*
X129716627Y-54992037D01*
X129886466Y-55043557D01*
X130042991Y-55127222D01*
X130078729Y-55156552D01*
X130180186Y-55239814D01*
X130263448Y-55341271D01*
X130292778Y-55377009D01*
X130376443Y-55533534D01*
X130427963Y-55703373D01*
X130445359Y-55880000D01*
X130427963Y-56056627D01*
X130376443Y-56226466D01*
X130292778Y-56382991D01*
X130263448Y-56418729D01*
X130180186Y-56520186D01*
X130078729Y-56603448D01*
X130042991Y-56632778D01*
X129886466Y-56716443D01*
X129716627Y-56767963D01*
X129650443Y-56774481D01*
X129584260Y-56781000D01*
X129495740Y-56781000D01*
X129429557Y-56774481D01*
X129363373Y-56767963D01*
X129193534Y-56716443D01*
X129037009Y-56632778D01*
X129001271Y-56603448D01*
X128899814Y-56520186D01*
X128816552Y-56418729D01*
X128787222Y-56382991D01*
X128703557Y-56226466D01*
X128652037Y-56056627D01*
X128634641Y-55880000D01*
X128652037Y-55703373D01*
X128703557Y-55533534D01*
X128787222Y-55377009D01*
X128816552Y-55341271D01*
X128899814Y-55239814D01*
X129001271Y-55156552D01*
X129037009Y-55127222D01*
X129193534Y-55043557D01*
X129363373Y-54992037D01*
X129429557Y-54985519D01*
X129495740Y-54979000D01*
X129584260Y-54979000D01*
X129650443Y-54985519D01*
X129650443Y-54985519D01*
G37*
G36*
X127110443Y-54985519D02*
G01*
X127176627Y-54992037D01*
X127346466Y-55043557D01*
X127502991Y-55127222D01*
X127538729Y-55156552D01*
X127640186Y-55239814D01*
X127723448Y-55341271D01*
X127752778Y-55377009D01*
X127836443Y-55533534D01*
X127887963Y-55703373D01*
X127905359Y-55880000D01*
X127887963Y-56056627D01*
X127836443Y-56226466D01*
X127752778Y-56382991D01*
X127723448Y-56418729D01*
X127640186Y-56520186D01*
X127538729Y-56603448D01*
X127502991Y-56632778D01*
X127346466Y-56716443D01*
X127176627Y-56767963D01*
X127110443Y-56774481D01*
X127044260Y-56781000D01*
X126955740Y-56781000D01*
X126889557Y-56774481D01*
X126823373Y-56767963D01*
X126653534Y-56716443D01*
X126497009Y-56632778D01*
X126461271Y-56603448D01*
X126359814Y-56520186D01*
X126276552Y-56418729D01*
X126247222Y-56382991D01*
X126163557Y-56226466D01*
X126112037Y-56056627D01*
X126094641Y-55880000D01*
X126112037Y-55703373D01*
X126163557Y-55533534D01*
X126247222Y-55377009D01*
X126276552Y-55341271D01*
X126359814Y-55239814D01*
X126461271Y-55156552D01*
X126497009Y-55127222D01*
X126653534Y-55043557D01*
X126823373Y-54992037D01*
X126889557Y-54985519D01*
X126955740Y-54979000D01*
X127044260Y-54979000D01*
X127110443Y-54985519D01*
X127110443Y-54985519D01*
G37*
G36*
X114410443Y-54985519D02*
G01*
X114476627Y-54992037D01*
X114646466Y-55043557D01*
X114802991Y-55127222D01*
X114838729Y-55156552D01*
X114940186Y-55239814D01*
X115023448Y-55341271D01*
X115052778Y-55377009D01*
X115136443Y-55533534D01*
X115187963Y-55703373D01*
X115205359Y-55880000D01*
X115187963Y-56056627D01*
X115136443Y-56226466D01*
X115052778Y-56382991D01*
X115023448Y-56418729D01*
X114940186Y-56520186D01*
X114838729Y-56603448D01*
X114802991Y-56632778D01*
X114646466Y-56716443D01*
X114476627Y-56767963D01*
X114410443Y-56774481D01*
X114344260Y-56781000D01*
X114255740Y-56781000D01*
X114189557Y-56774481D01*
X114123373Y-56767963D01*
X113953534Y-56716443D01*
X113797009Y-56632778D01*
X113761271Y-56603448D01*
X113659814Y-56520186D01*
X113576552Y-56418729D01*
X113547222Y-56382991D01*
X113463557Y-56226466D01*
X113412037Y-56056627D01*
X113394641Y-55880000D01*
X113412037Y-55703373D01*
X113463557Y-55533534D01*
X113547222Y-55377009D01*
X113576552Y-55341271D01*
X113659814Y-55239814D01*
X113761271Y-55156552D01*
X113797009Y-55127222D01*
X113953534Y-55043557D01*
X114123373Y-54992037D01*
X114189557Y-54985519D01*
X114255740Y-54979000D01*
X114344260Y-54979000D01*
X114410443Y-54985519D01*
X114410443Y-54985519D01*
G37*
G36*
X116950443Y-54985519D02*
G01*
X117016627Y-54992037D01*
X117186466Y-55043557D01*
X117342991Y-55127222D01*
X117378729Y-55156552D01*
X117480186Y-55239814D01*
X117563448Y-55341271D01*
X117592778Y-55377009D01*
X117676443Y-55533534D01*
X117727963Y-55703373D01*
X117745359Y-55880000D01*
X117727963Y-56056627D01*
X117676443Y-56226466D01*
X117592778Y-56382991D01*
X117563448Y-56418729D01*
X117480186Y-56520186D01*
X117378729Y-56603448D01*
X117342991Y-56632778D01*
X117186466Y-56716443D01*
X117016627Y-56767963D01*
X116950443Y-56774481D01*
X116884260Y-56781000D01*
X116795740Y-56781000D01*
X116729557Y-56774481D01*
X116663373Y-56767963D01*
X116493534Y-56716443D01*
X116337009Y-56632778D01*
X116301271Y-56603448D01*
X116199814Y-56520186D01*
X116116552Y-56418729D01*
X116087222Y-56382991D01*
X116003557Y-56226466D01*
X115952037Y-56056627D01*
X115934641Y-55880000D01*
X115952037Y-55703373D01*
X116003557Y-55533534D01*
X116087222Y-55377009D01*
X116116552Y-55341271D01*
X116199814Y-55239814D01*
X116301271Y-55156552D01*
X116337009Y-55127222D01*
X116493534Y-55043557D01*
X116663373Y-54992037D01*
X116729557Y-54985519D01*
X116795740Y-54979000D01*
X116884260Y-54979000D01*
X116950443Y-54985519D01*
X116950443Y-54985519D01*
G37*
G36*
X119490443Y-54985519D02*
G01*
X119556627Y-54992037D01*
X119726466Y-55043557D01*
X119882991Y-55127222D01*
X119918729Y-55156552D01*
X120020186Y-55239814D01*
X120103448Y-55341271D01*
X120132778Y-55377009D01*
X120216443Y-55533534D01*
X120267963Y-55703373D01*
X120285359Y-55880000D01*
X120267963Y-56056627D01*
X120216443Y-56226466D01*
X120132778Y-56382991D01*
X120103448Y-56418729D01*
X120020186Y-56520186D01*
X119918729Y-56603448D01*
X119882991Y-56632778D01*
X119726466Y-56716443D01*
X119556627Y-56767963D01*
X119490443Y-56774481D01*
X119424260Y-56781000D01*
X119335740Y-56781000D01*
X119269557Y-56774481D01*
X119203373Y-56767963D01*
X119033534Y-56716443D01*
X118877009Y-56632778D01*
X118841271Y-56603448D01*
X118739814Y-56520186D01*
X118656552Y-56418729D01*
X118627222Y-56382991D01*
X118543557Y-56226466D01*
X118492037Y-56056627D01*
X118474641Y-55880000D01*
X118492037Y-55703373D01*
X118543557Y-55533534D01*
X118627222Y-55377009D01*
X118656552Y-55341271D01*
X118739814Y-55239814D01*
X118841271Y-55156552D01*
X118877009Y-55127222D01*
X119033534Y-55043557D01*
X119203373Y-54992037D01*
X119269557Y-54985519D01*
X119335740Y-54979000D01*
X119424260Y-54979000D01*
X119490443Y-54985519D01*
X119490443Y-54985519D01*
G37*
G36*
X124570443Y-54985519D02*
G01*
X124636627Y-54992037D01*
X124806466Y-55043557D01*
X124962991Y-55127222D01*
X124998729Y-55156552D01*
X125100186Y-55239814D01*
X125183448Y-55341271D01*
X125212778Y-55377009D01*
X125296443Y-55533534D01*
X125347963Y-55703373D01*
X125365359Y-55880000D01*
X125347963Y-56056627D01*
X125296443Y-56226466D01*
X125212778Y-56382991D01*
X125183448Y-56418729D01*
X125100186Y-56520186D01*
X124998729Y-56603448D01*
X124962991Y-56632778D01*
X124806466Y-56716443D01*
X124636627Y-56767963D01*
X124570443Y-56774481D01*
X124504260Y-56781000D01*
X124415740Y-56781000D01*
X124349557Y-56774481D01*
X124283373Y-56767963D01*
X124113534Y-56716443D01*
X123957009Y-56632778D01*
X123921271Y-56603448D01*
X123819814Y-56520186D01*
X123736552Y-56418729D01*
X123707222Y-56382991D01*
X123623557Y-56226466D01*
X123572037Y-56056627D01*
X123554641Y-55880000D01*
X123572037Y-55703373D01*
X123623557Y-55533534D01*
X123707222Y-55377009D01*
X123736552Y-55341271D01*
X123819814Y-55239814D01*
X123921271Y-55156552D01*
X123957009Y-55127222D01*
X124113534Y-55043557D01*
X124283373Y-54992037D01*
X124349557Y-54985519D01*
X124415740Y-54979000D01*
X124504260Y-54979000D01*
X124570443Y-54985519D01*
X124570443Y-54985519D01*
G37*
M02*
