G04 #@! TF.GenerationSoftware,KiCad,Pcbnew,(5.1.0-0)*
G04 #@! TF.CreationDate,2019-10-13T08:18:26-07:00*
G04 #@! TF.ProjectId,InstructionROMDaughterBoard,496e7374-7275-4637-9469-6f6e524f4d44,rev?*
G04 #@! TF.SameCoordinates,Original*
G04 #@! TF.FileFunction,Copper,L4,Bot*
G04 #@! TF.FilePolarity,Positive*
%FSLAX46Y46*%
G04 Gerber Fmt 4.6, Leading zero omitted, Abs format (unit mm)*
G04 Created by KiCad (PCBNEW (5.1.0-0)) date 2019-10-13 08:18:26*
%MOMM*%
%LPD*%
G04 APERTURE LIST*
%ADD10C,1.600000*%
%ADD11R,1.600000X1.600000*%
%ADD12O,1.600000X1.600000*%
%ADD13O,1.700000X1.700000*%
%ADD14R,1.700000X1.700000*%
%ADD15C,0.450000*%
%ADD16C,0.127000*%
G04 APERTURE END LIST*
D10*
X170180000Y-63087000D03*
D11*
X170180000Y-61087000D03*
D12*
X124460000Y-80010000D03*
X162560000Y-95250000D03*
X127000000Y-80010000D03*
X160020000Y-95250000D03*
X129540000Y-80010000D03*
X157480000Y-95250000D03*
X132080000Y-80010000D03*
X154940000Y-95250000D03*
X134620000Y-80010000D03*
X152400000Y-95250000D03*
X137160000Y-80010000D03*
X149860000Y-95250000D03*
X139700000Y-80010000D03*
X147320000Y-95250000D03*
X142240000Y-80010000D03*
X144780000Y-95250000D03*
X144780000Y-80010000D03*
X142240000Y-95250000D03*
X147320000Y-80010000D03*
X139700000Y-95250000D03*
X149860000Y-80010000D03*
X137160000Y-95250000D03*
X152400000Y-80010000D03*
X134620000Y-95250000D03*
X154940000Y-80010000D03*
X132080000Y-95250000D03*
X157480000Y-80010000D03*
X129540000Y-95250000D03*
X160020000Y-80010000D03*
X127000000Y-95250000D03*
X162560000Y-80010000D03*
D11*
X124460000Y-95250000D03*
D12*
X124460000Y-59690000D03*
X162560000Y-74930000D03*
X127000000Y-59690000D03*
X160020000Y-74930000D03*
X129540000Y-59690000D03*
X157480000Y-74930000D03*
X132080000Y-59690000D03*
X154940000Y-74930000D03*
X134620000Y-59690000D03*
X152400000Y-74930000D03*
X137160000Y-59690000D03*
X149860000Y-74930000D03*
X139700000Y-59690000D03*
X147320000Y-74930000D03*
X142240000Y-59690000D03*
X144780000Y-74930000D03*
X144780000Y-59690000D03*
X142240000Y-74930000D03*
X147320000Y-59690000D03*
X139700000Y-74930000D03*
X149860000Y-59690000D03*
X137160000Y-74930000D03*
X152400000Y-59690000D03*
X134620000Y-74930000D03*
X154940000Y-59690000D03*
X132080000Y-74930000D03*
X157480000Y-59690000D03*
X129540000Y-74930000D03*
X160020000Y-59690000D03*
X127000000Y-74930000D03*
X162560000Y-59690000D03*
D11*
X124460000Y-74930000D03*
D13*
X114300000Y-99060000D03*
X116840000Y-99060000D03*
X119380000Y-99060000D03*
X121920000Y-99060000D03*
X124460000Y-99060000D03*
X127000000Y-99060000D03*
X129540000Y-99060000D03*
D14*
X132080000Y-99060000D03*
D13*
X149860000Y-99060000D03*
X152400000Y-99060000D03*
X154940000Y-99060000D03*
X157480000Y-99060000D03*
X160020000Y-99060000D03*
X162560000Y-99060000D03*
X165100000Y-99060000D03*
D14*
X167640000Y-99060000D03*
D13*
X114300000Y-55880000D03*
X116840000Y-55880000D03*
X119380000Y-55880000D03*
X121920000Y-55880000D03*
X124460000Y-55880000D03*
X127000000Y-55880000D03*
X129540000Y-55880000D03*
X132080000Y-55880000D03*
D14*
X134620000Y-55880000D03*
D13*
X149860000Y-55880000D03*
X152400000Y-55880000D03*
X154940000Y-55880000D03*
X157480000Y-55880000D03*
X160020000Y-55880000D03*
X162560000Y-55880000D03*
X165100000Y-55880000D03*
X167640000Y-55880000D03*
D14*
X170180000Y-55880000D03*
D10*
X118110000Y-90090000D03*
X118110000Y-85090000D03*
X118110000Y-69770000D03*
X118110000Y-64770000D03*
D15*
X139700000Y-57150000D03*
X137160000Y-56896000D03*
X156464000Y-72136000D03*
X157480000Y-72390000D03*
X157988000Y-72009000D03*
X160020000Y-71882000D03*
X162560000Y-71628000D03*
D16*
X131089499Y-79019499D02*
X131280001Y-79210001D01*
X122453499Y-79019499D02*
X131089499Y-79019499D01*
X120795071Y-77361071D02*
X122453499Y-79019499D01*
X120776947Y-77361071D02*
X120795071Y-77361071D01*
X120776946Y-59816946D02*
X120776947Y-77361071D01*
X116840000Y-55880000D02*
X120776946Y-59816946D01*
X131280001Y-79210001D02*
X132080000Y-80010000D01*
X131194713Y-78765488D02*
X131423268Y-78994044D01*
X134620000Y-59690000D02*
X133629499Y-60680501D01*
X133629499Y-60680501D02*
X122961499Y-60680501D01*
X121030956Y-77237731D02*
X122558713Y-78765488D01*
X122558713Y-78765488D02*
X131194713Y-78765488D01*
X131423268Y-78994044D02*
X133604044Y-78994044D01*
X133820001Y-79210001D02*
X134620000Y-80010000D01*
X121030956Y-62611044D02*
X121030956Y-77237731D01*
X133604044Y-78994044D02*
X133820001Y-79210001D01*
X122961499Y-60680501D02*
X121030956Y-62611044D01*
X140208011Y-77978011D02*
X141440001Y-79210001D01*
X122957786Y-77978011D02*
X140208011Y-77978011D01*
X141440001Y-79210001D02*
X142240000Y-80010000D01*
X142240000Y-59690000D02*
X140462011Y-61467989D01*
X123338786Y-61467989D02*
X121792989Y-63013786D01*
X140462011Y-61467989D02*
X123338786Y-61467989D01*
X121792989Y-63013786D02*
X121792989Y-76813214D01*
X121792989Y-76813214D02*
X122957786Y-77978011D01*
X145034001Y-77724001D02*
X147320000Y-80010000D01*
X123063001Y-77724001D02*
X145034001Y-77724001D01*
X122047000Y-76708000D02*
X123063001Y-77724001D01*
X122047000Y-63119000D02*
X122047000Y-76708000D01*
X147320000Y-59690000D02*
X145288000Y-61722000D01*
X123444000Y-61722000D02*
X122047000Y-63119000D01*
X145288000Y-61722000D02*
X123444000Y-61722000D01*
X139700000Y-57150000D02*
X139700000Y-59690000D01*
X138176022Y-61213978D02*
X123190022Y-61213978D01*
X121538978Y-62865022D02*
X121538978Y-76940203D01*
X123190022Y-61213978D02*
X121538978Y-62865022D01*
X139700000Y-59690000D02*
X138176022Y-61213978D01*
X137922022Y-78232022D02*
X138900001Y-79210001D01*
X138900001Y-79210001D02*
X139700000Y-80010000D01*
X122830797Y-78232022D02*
X137922022Y-78232022D01*
X121538978Y-76940203D02*
X122830797Y-78232022D01*
X137160000Y-56896000D02*
X137160000Y-59690000D01*
X121284967Y-62738033D02*
X121284967Y-77088967D01*
X122682033Y-78486033D02*
X135636033Y-78486033D01*
X136360001Y-79210001D02*
X137160000Y-80010000D01*
X137160000Y-59690000D02*
X135890033Y-60959967D01*
X135890033Y-60959967D02*
X123063033Y-60959967D01*
X123063033Y-60959967D02*
X121284967Y-62738033D01*
X121284967Y-77088967D02*
X122682033Y-78486033D01*
X135636033Y-78486033D02*
X136360001Y-79210001D01*
X152400000Y-68072000D02*
X152400000Y-59690000D01*
X156464000Y-72136000D02*
X152400000Y-68072000D01*
X154940000Y-69850000D02*
X157480000Y-72390000D01*
X154940000Y-59690000D02*
X154940000Y-69850000D01*
X157480000Y-71501000D02*
X157480000Y-59690000D01*
X157988000Y-72009000D02*
X157480000Y-71501000D01*
X160020000Y-59690000D02*
X160020000Y-71882000D01*
X162560000Y-59690000D02*
X162560000Y-71628000D01*
X163830000Y-97790000D02*
X162560000Y-99060000D01*
X163322000Y-73914000D02*
X165354000Y-73914000D01*
X167386000Y-96393000D02*
X165989000Y-97790000D01*
X165989000Y-97790000D02*
X163830000Y-97790000D01*
X160020000Y-74930000D02*
X161010501Y-73939499D01*
X167386000Y-75946000D02*
X167386000Y-96393000D01*
X161010501Y-73939499D02*
X163296501Y-73939499D01*
X163296501Y-73939499D02*
X163322000Y-73914000D01*
X165354000Y-73914000D02*
X167386000Y-75946000D01*
X165949999Y-98188226D02*
X165949999Y-98210001D01*
X167640011Y-75840786D02*
X167640011Y-96498214D01*
X165332215Y-73532991D02*
X167640011Y-75840786D01*
X165949999Y-98210001D02*
X165100000Y-99060000D01*
X158877009Y-73532991D02*
X165332215Y-73532991D01*
X167640011Y-96498214D02*
X165949999Y-98188226D01*
X157480000Y-74930000D02*
X158877009Y-73532991D01*
X167894022Y-96603428D02*
X167894022Y-75735572D01*
X167640000Y-99060000D02*
X167640000Y-96857449D01*
X165437429Y-73278980D02*
X156591020Y-73278980D01*
X167640000Y-96857449D02*
X167894022Y-96603428D01*
X155739999Y-74130001D02*
X154940000Y-74930000D01*
X156591020Y-73278980D02*
X155739999Y-74130001D01*
X167894022Y-75735572D02*
X165437429Y-73278980D01*
X116205000Y-97155000D02*
X116078000Y-97282000D01*
X116078000Y-97282000D02*
X114300000Y-99060000D01*
X122047000Y-97155000D02*
X116205000Y-97155000D01*
X122344550Y-96857450D02*
X122047000Y-97155000D01*
X152400000Y-80010000D02*
X151003044Y-81406956D01*
X151003044Y-81406956D02*
X130643144Y-81406956D01*
X122344550Y-89705550D02*
X122344550Y-96857450D01*
X130643144Y-81406956D02*
X122344550Y-89705550D01*
X153289033Y-81660967D02*
X154940000Y-80010000D01*
X130748358Y-81660967D02*
X153289033Y-81660967D01*
X122651163Y-89758163D02*
X130748358Y-81660967D01*
X122651163Y-97058837D02*
X122651163Y-89758163D01*
X122301000Y-97409000D02*
X122651163Y-97058837D01*
X118491000Y-97409000D02*
X122301000Y-97409000D01*
X116840000Y-99060000D02*
X118491000Y-97409000D01*
X155575022Y-81914978D02*
X157480000Y-80010000D01*
X130853572Y-81914978D02*
X155575022Y-81914978D01*
X120777000Y-97663000D02*
X122428000Y-97663000D01*
X122957775Y-89810775D02*
X130853572Y-81914978D01*
X122957775Y-97133225D02*
X122957775Y-89810775D01*
X122428000Y-97663000D02*
X122957775Y-97133225D01*
X119380000Y-99060000D02*
X120777000Y-97663000D01*
X157861011Y-82168989D02*
X130958786Y-82168989D01*
X123211786Y-89915988D02*
X123211786Y-97768214D01*
X160020000Y-80010000D02*
X157861011Y-82168989D01*
X130958786Y-82168989D02*
X123211786Y-89915988D01*
X123211786Y-97768214D02*
X122769999Y-98210001D01*
X122769999Y-98210001D02*
X121920000Y-99060000D01*
X162560000Y-80010000D02*
X160147000Y-82423000D01*
X160147000Y-82423000D02*
X131064000Y-82423000D01*
X123610001Y-98210001D02*
X124460000Y-99060000D01*
X123469499Y-98069499D02*
X123610001Y-98210001D01*
X123469499Y-90017501D02*
X123469499Y-98069499D01*
X131064000Y-82423000D02*
X123469499Y-90017501D01*
X128905020Y-97154980D02*
X127000000Y-99060000D01*
X158115020Y-97154980D02*
X128905020Y-97154980D01*
X160020000Y-95250000D02*
X158115020Y-97154980D01*
X163829989Y-95398787D02*
X161819787Y-97408989D01*
X157480000Y-95250000D02*
X158750000Y-93980000D01*
X158750000Y-93980000D02*
X163195000Y-93980000D01*
X131191011Y-97408989D02*
X130389999Y-98210001D01*
X163195000Y-93980000D02*
X163829989Y-94614989D01*
X163829989Y-94614989D02*
X163829989Y-95398787D01*
X161819787Y-97408989D02*
X131191011Y-97408989D01*
X130389999Y-98210001D02*
X129540000Y-99060000D01*
X154940000Y-95250000D02*
X156464000Y-93726000D01*
X156464000Y-93726000D02*
X163322000Y-93726000D01*
X163322000Y-93726000D02*
X164084000Y-94488000D01*
X164084000Y-94488000D02*
X164084000Y-95504000D01*
X133057000Y-99060000D02*
X132080000Y-99060000D01*
X161925000Y-97663000D02*
X134454000Y-97663000D01*
X164084000Y-95504000D02*
X161925000Y-97663000D01*
X134454000Y-97663000D02*
X133057000Y-99060000D01*
M02*
