M48
; DRILL file {KiCad (5.1.0-0)} date Sunday, October 13, 2019 at 08:18:28 AM
; FORMAT={-:-/ absolute / inch / decimal}
; #@! TF.CreationDate,2019-10-13T08:18:28-07:00
; #@! TF.GenerationSoftware,Kicad,Pcbnew,(5.1.0-0)
FMAT,2
INCH
T1C0.0118
T2C0.0315
T3C0.0394
%
G90
G05
T1
X5.4Y-2.24
X5.5Y-2.25
X6.16Y-2.84
X6.2Y-2.85
X6.22Y-2.835
X6.3Y-2.83
X6.4Y-2.82
T2
X4.65Y-3.35
X4.65Y-3.5469
X6.7Y-2.405
X6.7Y-2.4837
X4.9Y-3.15
X4.9Y-3.75
X5.0Y-3.15
X5.0Y-3.75
X5.1Y-3.15
X5.1Y-3.75
X5.2Y-3.15
X5.2Y-3.75
X5.3Y-3.15
X5.3Y-3.75
X5.4Y-3.15
X5.4Y-3.75
X5.5Y-3.15
X5.5Y-3.75
X5.6Y-3.15
X5.6Y-3.75
X5.7Y-3.15
X5.7Y-3.75
X5.8Y-3.15
X5.8Y-3.75
X5.9Y-3.15
X5.9Y-3.75
X6.0Y-3.15
X6.0Y-3.75
X6.1Y-3.15
X6.1Y-3.75
X6.2Y-3.15
X6.2Y-3.75
X6.3Y-3.15
X6.3Y-3.75
X6.4Y-3.15
X6.4Y-3.75
X4.9Y-2.35
X4.9Y-2.95
X5.0Y-2.35
X5.0Y-2.95
X5.1Y-2.35
X5.1Y-2.95
X5.2Y-2.35
X5.2Y-2.95
X5.3Y-2.35
X5.3Y-2.95
X5.4Y-2.35
X5.4Y-2.95
X5.5Y-2.35
X5.5Y-2.95
X5.6Y-2.35
X5.6Y-2.95
X5.7Y-2.35
X5.7Y-2.95
X5.8Y-2.35
X5.8Y-2.95
X5.9Y-2.35
X5.9Y-2.95
X6.0Y-2.35
X6.0Y-2.95
X6.1Y-2.35
X6.1Y-2.95
X6.2Y-2.35
X6.2Y-2.95
X6.3Y-2.35
X6.3Y-2.95
X6.4Y-2.35
X6.4Y-2.95
X4.65Y-2.55
X4.65Y-2.7469
T3
X5.9Y-3.9
X6.0Y-3.9
X6.1Y-3.9
X6.2Y-3.9
X6.3Y-3.9
X6.4Y-3.9
X6.5Y-3.9
X6.6Y-3.9
X4.5Y-3.9
X4.6Y-3.9
X4.7Y-3.9
X4.8Y-3.9
X4.9Y-3.9
X5.0Y-3.9
X5.1Y-3.9
X5.2Y-3.9
X4.5Y-2.2
X4.6Y-2.2
X4.7Y-2.2
X4.8Y-2.2
X4.9Y-2.2
X5.0Y-2.2
X5.1Y-2.2
X5.2Y-2.2
X5.3Y-2.2
X5.9Y-2.2
X6.0Y-2.2
X6.1Y-2.2
X6.2Y-2.2
X6.3Y-2.2
X6.4Y-2.2
X6.5Y-2.2
X6.6Y-2.2
X6.7Y-2.2
T0
M30
