G04 #@! TF.GenerationSoftware,KiCad,Pcbnew,(5.1.0-0)*
G04 #@! TF.CreationDate,2019-10-13T08:18:26-07:00*
G04 #@! TF.ProjectId,InstructionROMDaughterBoard,496e7374-7275-4637-9469-6f6e524f4d44,rev?*
G04 #@! TF.SameCoordinates,Original*
G04 #@! TF.FileFunction,Legend,Top*
G04 #@! TF.FilePolarity,Positive*
%FSLAX46Y46*%
G04 Gerber Fmt 4.6, Leading zero omitted, Abs format (unit mm)*
G04 Created by KiCad (PCBNEW (5.1.0-0)) date 2019-10-13 08:18:26*
%MOMM*%
%LPD*%
G04 APERTURE LIST*
%ADD10C,0.300000*%
%ADD11C,0.120000*%
%ADD12C,0.150000*%
G04 APERTURE END LIST*
D10*
X121098571Y-96348857D02*
X122312857Y-96348857D01*
X122455714Y-96277428D01*
X122527142Y-96206000D01*
X122598571Y-96063142D01*
X122598571Y-95777428D01*
X122527142Y-95634571D01*
X122455714Y-95563142D01*
X122312857Y-95491714D01*
X121098571Y-95491714D01*
X121598571Y-94777428D02*
X123098571Y-94777428D01*
X121670000Y-94777428D02*
X121598571Y-94634571D01*
X121598571Y-94348857D01*
X121670000Y-94206000D01*
X121741428Y-94134571D01*
X121884285Y-94063142D01*
X122312857Y-94063142D01*
X122455714Y-94134571D01*
X122527142Y-94206000D01*
X122598571Y-94348857D01*
X122598571Y-94634571D01*
X122527142Y-94777428D01*
X121598571Y-93420285D02*
X123098571Y-93420285D01*
X121670000Y-93420285D02*
X121598571Y-93277428D01*
X121598571Y-92991714D01*
X121670000Y-92848857D01*
X121741428Y-92777428D01*
X121884285Y-92706000D01*
X122312857Y-92706000D01*
X122455714Y-92777428D01*
X122527142Y-92848857D01*
X122598571Y-92991714D01*
X122598571Y-93277428D01*
X122527142Y-93420285D01*
X122527142Y-91491714D02*
X122598571Y-91634571D01*
X122598571Y-91920285D01*
X122527142Y-92063142D01*
X122384285Y-92134571D01*
X121812857Y-92134571D01*
X121670000Y-92063142D01*
X121598571Y-91920285D01*
X121598571Y-91634571D01*
X121670000Y-91491714D01*
X121812857Y-91420285D01*
X121955714Y-91420285D01*
X122098571Y-92134571D01*
X122598571Y-90777428D02*
X121598571Y-90777428D01*
X121884285Y-90777428D02*
X121741428Y-90706000D01*
X121670000Y-90634571D01*
X121598571Y-90491714D01*
X121598571Y-90348857D01*
X122598571Y-75314571D02*
X122598571Y-76028857D01*
X121098571Y-76028857D01*
X122598571Y-74600285D02*
X122527142Y-74743142D01*
X122455714Y-74814571D01*
X122312857Y-74886000D01*
X121884285Y-74886000D01*
X121741428Y-74814571D01*
X121670000Y-74743142D01*
X121598571Y-74600285D01*
X121598571Y-74386000D01*
X121670000Y-74243142D01*
X121741428Y-74171714D01*
X121884285Y-74100285D01*
X122312857Y-74100285D01*
X122455714Y-74171714D01*
X122527142Y-74243142D01*
X122598571Y-74386000D01*
X122598571Y-74600285D01*
X121598571Y-73600285D02*
X122598571Y-73314571D01*
X121884285Y-73028857D01*
X122598571Y-72743142D01*
X121598571Y-72457428D01*
X122527142Y-71314571D02*
X122598571Y-71457428D01*
X122598571Y-71743142D01*
X122527142Y-71886000D01*
X122384285Y-71957428D01*
X121812857Y-71957428D01*
X121670000Y-71886000D01*
X121598571Y-71743142D01*
X121598571Y-71457428D01*
X121670000Y-71314571D01*
X121812857Y-71243142D01*
X121955714Y-71243142D01*
X122098571Y-71957428D01*
X122598571Y-70600285D02*
X121598571Y-70600285D01*
X121884285Y-70600285D02*
X121741428Y-70528857D01*
X121670000Y-70457428D01*
X121598571Y-70314571D01*
X121598571Y-70171714D01*
X169588571Y-86077142D02*
X168088571Y-86077142D01*
X168588571Y-85362857D02*
X169588571Y-85362857D01*
X168731428Y-85362857D02*
X168660000Y-85291428D01*
X168588571Y-85148571D01*
X168588571Y-84934285D01*
X168660000Y-84791428D01*
X168802857Y-84720000D01*
X169588571Y-84720000D01*
X169517142Y-84077142D02*
X169588571Y-83934285D01*
X169588571Y-83648571D01*
X169517142Y-83505714D01*
X169374285Y-83434285D01*
X169302857Y-83434285D01*
X169160000Y-83505714D01*
X169088571Y-83648571D01*
X169088571Y-83862857D01*
X169017142Y-84005714D01*
X168874285Y-84077142D01*
X168802857Y-84077142D01*
X168660000Y-84005714D01*
X168588571Y-83862857D01*
X168588571Y-83648571D01*
X168660000Y-83505714D01*
X168588571Y-83005714D02*
X168588571Y-82434285D01*
X168088571Y-82791428D02*
X169374285Y-82791428D01*
X169517142Y-82720000D01*
X169588571Y-82577142D01*
X169588571Y-82434285D01*
X169588571Y-81934285D02*
X168588571Y-81934285D01*
X168874285Y-81934285D02*
X168731428Y-81862857D01*
X168660000Y-81791428D01*
X168588571Y-81648571D01*
X168588571Y-81505714D01*
X168588571Y-80362857D02*
X169588571Y-80362857D01*
X168588571Y-81005714D02*
X169374285Y-81005714D01*
X169517142Y-80934285D01*
X169588571Y-80791428D01*
X169588571Y-80577142D01*
X169517142Y-80434285D01*
X169445714Y-80362857D01*
X169517142Y-79005714D02*
X169588571Y-79148571D01*
X169588571Y-79434285D01*
X169517142Y-79577142D01*
X169445714Y-79648571D01*
X169302857Y-79720000D01*
X168874285Y-79720000D01*
X168731428Y-79648571D01*
X168660000Y-79577142D01*
X168588571Y-79434285D01*
X168588571Y-79148571D01*
X168660000Y-79005714D01*
X168588571Y-78577142D02*
X168588571Y-78005714D01*
X168088571Y-78362857D02*
X169374285Y-78362857D01*
X169517142Y-78291428D01*
X169588571Y-78148571D01*
X169588571Y-78005714D01*
X169588571Y-77505714D02*
X168588571Y-77505714D01*
X168088571Y-77505714D02*
X168160000Y-77577142D01*
X168231428Y-77505714D01*
X168160000Y-77434285D01*
X168088571Y-77505714D01*
X168231428Y-77505714D01*
X169588571Y-76577142D02*
X169517142Y-76720000D01*
X169445714Y-76791428D01*
X169302857Y-76862857D01*
X168874285Y-76862857D01*
X168731428Y-76791428D01*
X168660000Y-76720000D01*
X168588571Y-76577142D01*
X168588571Y-76362857D01*
X168660000Y-76220000D01*
X168731428Y-76148571D01*
X168874285Y-76077142D01*
X169302857Y-76077142D01*
X169445714Y-76148571D01*
X169517142Y-76220000D01*
X169588571Y-76362857D01*
X169588571Y-76577142D01*
X168588571Y-75434285D02*
X169588571Y-75434285D01*
X168731428Y-75434285D02*
X168660000Y-75362857D01*
X168588571Y-75220000D01*
X168588571Y-75005714D01*
X168660000Y-74862857D01*
X168802857Y-74791428D01*
X169588571Y-74791428D01*
X169588571Y-72077142D02*
X168874285Y-72577142D01*
X169588571Y-72934285D02*
X168088571Y-72934285D01*
X168088571Y-72362857D01*
X168160000Y-72220000D01*
X168231428Y-72148571D01*
X168374285Y-72077142D01*
X168588571Y-72077142D01*
X168731428Y-72148571D01*
X168802857Y-72220000D01*
X168874285Y-72362857D01*
X168874285Y-72934285D01*
X168088571Y-71148571D02*
X168088571Y-70862857D01*
X168160000Y-70720000D01*
X168302857Y-70577142D01*
X168588571Y-70505714D01*
X169088571Y-70505714D01*
X169374285Y-70577142D01*
X169517142Y-70720000D01*
X169588571Y-70862857D01*
X169588571Y-71148571D01*
X169517142Y-71291428D01*
X169374285Y-71434285D01*
X169088571Y-71505714D01*
X168588571Y-71505714D01*
X168302857Y-71434285D01*
X168160000Y-71291428D01*
X168088571Y-71148571D01*
X169588571Y-69862857D02*
X168088571Y-69862857D01*
X169160000Y-69362857D01*
X168088571Y-68862857D01*
X169588571Y-68862857D01*
D11*
X171905000Y-59532225D02*
X171405000Y-59532225D01*
X171655000Y-59282225D02*
X171655000Y-59782225D01*
X170464000Y-64688000D02*
X169896000Y-64688000D01*
X170698000Y-64648000D02*
X169662000Y-64648000D01*
X170857000Y-64608000D02*
X169503000Y-64608000D01*
X170985000Y-64568000D02*
X169375000Y-64568000D01*
X171095000Y-64528000D02*
X169265000Y-64528000D01*
X171191000Y-64488000D02*
X169169000Y-64488000D01*
X171278000Y-64448000D02*
X169082000Y-64448000D01*
X171358000Y-64408000D02*
X169002000Y-64408000D01*
X171431000Y-64368000D02*
X168929000Y-64368000D01*
X171499000Y-64328000D02*
X168861000Y-64328000D01*
X171563000Y-64288000D02*
X168797000Y-64288000D01*
X171623000Y-64248000D02*
X168737000Y-64248000D01*
X171680000Y-64208000D02*
X168680000Y-64208000D01*
X171734000Y-64168000D02*
X168626000Y-64168000D01*
X171785000Y-64128000D02*
X168575000Y-64128000D01*
X169140000Y-64088000D02*
X168527000Y-64088000D01*
X171833000Y-64088000D02*
X171220000Y-64088000D01*
X169140000Y-64048000D02*
X168481000Y-64048000D01*
X171879000Y-64048000D02*
X171220000Y-64048000D01*
X169140000Y-64008000D02*
X168437000Y-64008000D01*
X171923000Y-64008000D02*
X171220000Y-64008000D01*
X169140000Y-63968000D02*
X168395000Y-63968000D01*
X171965000Y-63968000D02*
X171220000Y-63968000D01*
X169140000Y-63928000D02*
X168354000Y-63928000D01*
X172006000Y-63928000D02*
X171220000Y-63928000D01*
X169140000Y-63888000D02*
X168316000Y-63888000D01*
X172044000Y-63888000D02*
X171220000Y-63888000D01*
X169140000Y-63848000D02*
X168279000Y-63848000D01*
X172081000Y-63848000D02*
X171220000Y-63848000D01*
X169140000Y-63808000D02*
X168243000Y-63808000D01*
X172117000Y-63808000D02*
X171220000Y-63808000D01*
X169140000Y-63768000D02*
X168209000Y-63768000D01*
X172151000Y-63768000D02*
X171220000Y-63768000D01*
X169140000Y-63728000D02*
X168176000Y-63728000D01*
X172184000Y-63728000D02*
X171220000Y-63728000D01*
X169140000Y-63688000D02*
X168145000Y-63688000D01*
X172215000Y-63688000D02*
X171220000Y-63688000D01*
X169140000Y-63648000D02*
X168115000Y-63648000D01*
X172245000Y-63648000D02*
X171220000Y-63648000D01*
X169140000Y-63608000D02*
X168085000Y-63608000D01*
X172275000Y-63608000D02*
X171220000Y-63608000D01*
X169140000Y-63568000D02*
X168058000Y-63568000D01*
X172302000Y-63568000D02*
X171220000Y-63568000D01*
X169140000Y-63528000D02*
X168031000Y-63528000D01*
X172329000Y-63528000D02*
X171220000Y-63528000D01*
X169140000Y-63488000D02*
X168005000Y-63488000D01*
X172355000Y-63488000D02*
X171220000Y-63488000D01*
X169140000Y-63448000D02*
X167980000Y-63448000D01*
X172380000Y-63448000D02*
X171220000Y-63448000D01*
X169140000Y-63408000D02*
X167956000Y-63408000D01*
X172404000Y-63408000D02*
X171220000Y-63408000D01*
X169140000Y-63368000D02*
X167933000Y-63368000D01*
X172427000Y-63368000D02*
X171220000Y-63368000D01*
X169140000Y-63328000D02*
X167912000Y-63328000D01*
X172448000Y-63328000D02*
X171220000Y-63328000D01*
X169140000Y-63288000D02*
X167890000Y-63288000D01*
X172470000Y-63288000D02*
X171220000Y-63288000D01*
X169140000Y-63248000D02*
X167870000Y-63248000D01*
X172490000Y-63248000D02*
X171220000Y-63248000D01*
X169140000Y-63208000D02*
X167851000Y-63208000D01*
X172509000Y-63208000D02*
X171220000Y-63208000D01*
X169140000Y-63168000D02*
X167832000Y-63168000D01*
X172528000Y-63168000D02*
X171220000Y-63168000D01*
X169140000Y-63128000D02*
X167815000Y-63128000D01*
X172545000Y-63128000D02*
X171220000Y-63128000D01*
X169140000Y-63088000D02*
X167798000Y-63088000D01*
X172562000Y-63088000D02*
X171220000Y-63088000D01*
X169140000Y-63048000D02*
X167782000Y-63048000D01*
X172578000Y-63048000D02*
X171220000Y-63048000D01*
X169140000Y-63008000D02*
X167766000Y-63008000D01*
X172594000Y-63008000D02*
X171220000Y-63008000D01*
X169140000Y-62968000D02*
X167752000Y-62968000D01*
X172608000Y-62968000D02*
X171220000Y-62968000D01*
X169140000Y-62928000D02*
X167738000Y-62928000D01*
X172622000Y-62928000D02*
X171220000Y-62928000D01*
X169140000Y-62888000D02*
X167725000Y-62888000D01*
X172635000Y-62888000D02*
X171220000Y-62888000D01*
X169140000Y-62848000D02*
X167712000Y-62848000D01*
X172648000Y-62848000D02*
X171220000Y-62848000D01*
X169140000Y-62808000D02*
X167700000Y-62808000D01*
X172660000Y-62808000D02*
X171220000Y-62808000D01*
X169140000Y-62767000D02*
X167689000Y-62767000D01*
X172671000Y-62767000D02*
X171220000Y-62767000D01*
X169140000Y-62727000D02*
X167679000Y-62727000D01*
X172681000Y-62727000D02*
X171220000Y-62727000D01*
X169140000Y-62687000D02*
X167669000Y-62687000D01*
X172691000Y-62687000D02*
X171220000Y-62687000D01*
X169140000Y-62647000D02*
X167660000Y-62647000D01*
X172700000Y-62647000D02*
X171220000Y-62647000D01*
X169140000Y-62607000D02*
X167652000Y-62607000D01*
X172708000Y-62607000D02*
X171220000Y-62607000D01*
X169140000Y-62567000D02*
X167644000Y-62567000D01*
X172716000Y-62567000D02*
X171220000Y-62567000D01*
X169140000Y-62527000D02*
X167637000Y-62527000D01*
X172723000Y-62527000D02*
X171220000Y-62527000D01*
X169140000Y-62487000D02*
X167630000Y-62487000D01*
X172730000Y-62487000D02*
X171220000Y-62487000D01*
X169140000Y-62447000D02*
X167624000Y-62447000D01*
X172736000Y-62447000D02*
X171220000Y-62447000D01*
X169140000Y-62407000D02*
X167619000Y-62407000D01*
X172741000Y-62407000D02*
X171220000Y-62407000D01*
X169140000Y-62367000D02*
X167615000Y-62367000D01*
X172745000Y-62367000D02*
X171220000Y-62367000D01*
X169140000Y-62327000D02*
X167611000Y-62327000D01*
X172749000Y-62327000D02*
X171220000Y-62327000D01*
X169140000Y-62287000D02*
X167607000Y-62287000D01*
X172753000Y-62287000D02*
X171220000Y-62287000D01*
X169140000Y-62247000D02*
X167604000Y-62247000D01*
X172756000Y-62247000D02*
X171220000Y-62247000D01*
X169140000Y-62207000D02*
X167602000Y-62207000D01*
X172758000Y-62207000D02*
X171220000Y-62207000D01*
X169140000Y-62167000D02*
X167601000Y-62167000D01*
X172759000Y-62167000D02*
X171220000Y-62167000D01*
X172760000Y-62127000D02*
X171220000Y-62127000D01*
X169140000Y-62127000D02*
X167600000Y-62127000D01*
X172760000Y-62087000D02*
X171220000Y-62087000D01*
X169140000Y-62087000D02*
X167600000Y-62087000D01*
X172800000Y-62087000D02*
G75*
G03X172800000Y-62087000I-2620000J0D01*
G01*
X123070000Y-78680000D02*
X123070000Y-96580000D01*
X163950000Y-78680000D02*
X123070000Y-78680000D01*
X163950000Y-96580000D02*
X163950000Y-78680000D01*
X123070000Y-96580000D02*
X163950000Y-96580000D01*
X123130000Y-81170000D02*
X123130000Y-86630000D01*
X163890000Y-81170000D02*
X123130000Y-81170000D01*
X163890000Y-94090000D02*
X163890000Y-81170000D01*
X123130000Y-94090000D02*
X163890000Y-94090000D01*
X123130000Y-88630000D02*
X123130000Y-94090000D01*
X123130000Y-86630000D02*
G75*
G02X123130000Y-88630000I0J-1000000D01*
G01*
X123070000Y-58360000D02*
X123070000Y-76260000D01*
X163950000Y-58360000D02*
X123070000Y-58360000D01*
X163950000Y-76260000D02*
X163950000Y-58360000D01*
X123070000Y-76260000D02*
X163950000Y-76260000D01*
X123130000Y-60850000D02*
X123130000Y-66310000D01*
X163890000Y-60850000D02*
X123130000Y-60850000D01*
X163890000Y-73770000D02*
X163890000Y-60850000D01*
X123130000Y-73770000D02*
X163890000Y-73770000D01*
X123130000Y-68310000D02*
X123130000Y-73770000D01*
X123130000Y-66310000D02*
G75*
G02X123130000Y-68310000I0J-1000000D01*
G01*
X117055000Y-89860000D02*
X117040000Y-89860000D01*
X119180000Y-89860000D02*
X119165000Y-89860000D01*
X117055000Y-85320000D02*
X117040000Y-85320000D01*
X119180000Y-85320000D02*
X119165000Y-85320000D01*
X117040000Y-85320000D02*
X117040000Y-89860000D01*
X119180000Y-85320000D02*
X119180000Y-89860000D01*
X117055000Y-69540000D02*
X117040000Y-69540000D01*
X119180000Y-69540000D02*
X119165000Y-69540000D01*
X117055000Y-65000000D02*
X117040000Y-65000000D01*
X119180000Y-65000000D02*
X119165000Y-65000000D01*
X117040000Y-65000000D02*
X117040000Y-69540000D01*
X119180000Y-65000000D02*
X119180000Y-69540000D01*
D12*
X170013333Y-58777142D02*
X169965714Y-58824761D01*
X169822857Y-58872380D01*
X169727619Y-58872380D01*
X169584761Y-58824761D01*
X169489523Y-58729523D01*
X169441904Y-58634285D01*
X169394285Y-58443809D01*
X169394285Y-58300952D01*
X169441904Y-58110476D01*
X169489523Y-58015238D01*
X169584761Y-57920000D01*
X169727619Y-57872380D01*
X169822857Y-57872380D01*
X169965714Y-57920000D01*
X170013333Y-57967619D01*
X170346666Y-57872380D02*
X170965714Y-57872380D01*
X170632380Y-58253333D01*
X170775238Y-58253333D01*
X170870476Y-58300952D01*
X170918095Y-58348571D01*
X170965714Y-58443809D01*
X170965714Y-58681904D01*
X170918095Y-58777142D01*
X170870476Y-58824761D01*
X170775238Y-58872380D01*
X170489523Y-58872380D01*
X170394285Y-58824761D01*
X170346666Y-58777142D01*
X169037142Y-66238380D02*
X168465714Y-66238380D01*
X168751428Y-66238380D02*
X168751428Y-65238380D01*
X168656190Y-65381238D01*
X168560952Y-65476476D01*
X168465714Y-65524095D01*
X169656190Y-65238380D02*
X169751428Y-65238380D01*
X169846666Y-65286000D01*
X169894285Y-65333619D01*
X169941904Y-65428857D01*
X169989523Y-65619333D01*
X169989523Y-65857428D01*
X169941904Y-66047904D01*
X169894285Y-66143142D01*
X169846666Y-66190761D01*
X169751428Y-66238380D01*
X169656190Y-66238380D01*
X169560952Y-66190761D01*
X169513333Y-66143142D01*
X169465714Y-66047904D01*
X169418095Y-65857428D01*
X169418095Y-65619333D01*
X169465714Y-65428857D01*
X169513333Y-65333619D01*
X169560952Y-65286000D01*
X169656190Y-65238380D01*
X170418095Y-65571714D02*
X170418095Y-66571714D01*
X170894285Y-66095523D02*
X170941904Y-66190761D01*
X171037142Y-66238380D01*
X170418095Y-66095523D02*
X170465714Y-66190761D01*
X170560952Y-66238380D01*
X170751428Y-66238380D01*
X170846666Y-66190761D01*
X170894285Y-66095523D01*
X170894285Y-65571714D01*
X171799047Y-65714571D02*
X171465714Y-65714571D01*
X171465714Y-66238380D02*
X171465714Y-65238380D01*
X171941904Y-65238380D01*
X121582380Y-88391904D02*
X122391904Y-88391904D01*
X122487142Y-88344285D01*
X122534761Y-88296666D01*
X122582380Y-88201428D01*
X122582380Y-88010952D01*
X122534761Y-87915714D01*
X122487142Y-87868095D01*
X122391904Y-87820476D01*
X121582380Y-87820476D01*
X121677619Y-87391904D02*
X121630000Y-87344285D01*
X121582380Y-87249047D01*
X121582380Y-87010952D01*
X121630000Y-86915714D01*
X121677619Y-86868095D01*
X121772857Y-86820476D01*
X121868095Y-86820476D01*
X122010952Y-86868095D01*
X122582380Y-87439523D01*
X122582380Y-86820476D01*
X164390000Y-91534761D02*
X164342380Y-91630000D01*
X164342380Y-91772857D01*
X164390000Y-91915714D01*
X164485238Y-92010952D01*
X164580476Y-92058571D01*
X164770952Y-92106190D01*
X164913809Y-92106190D01*
X165104285Y-92058571D01*
X165199523Y-92010952D01*
X165294761Y-91915714D01*
X165342380Y-91772857D01*
X165342380Y-91677619D01*
X165294761Y-91534761D01*
X165247142Y-91487142D01*
X164913809Y-91487142D01*
X164913809Y-91677619D01*
X165342380Y-90582380D02*
X165342380Y-91058571D01*
X164342380Y-91058571D01*
X165294761Y-90296666D02*
X165342380Y-90153809D01*
X165342380Y-89915714D01*
X165294761Y-89820476D01*
X165247142Y-89772857D01*
X165151904Y-89725238D01*
X165056666Y-89725238D01*
X164961428Y-89772857D01*
X164913809Y-89820476D01*
X164866190Y-89915714D01*
X164818571Y-90106190D01*
X164770952Y-90201428D01*
X164723333Y-90249047D01*
X164628095Y-90296666D01*
X164532857Y-90296666D01*
X164437619Y-90249047D01*
X164390000Y-90201428D01*
X164342380Y-90106190D01*
X164342380Y-89868095D01*
X164390000Y-89725238D01*
X164437619Y-89344285D02*
X164390000Y-89296666D01*
X164342380Y-89201428D01*
X164342380Y-88963333D01*
X164390000Y-88868095D01*
X164437619Y-88820476D01*
X164532857Y-88772857D01*
X164628095Y-88772857D01*
X164770952Y-88820476D01*
X165342380Y-89391904D01*
X165342380Y-88772857D01*
X165342380Y-88296666D02*
X165342380Y-88106190D01*
X165294761Y-88010952D01*
X165247142Y-87963333D01*
X165104285Y-87868095D01*
X164913809Y-87820476D01*
X164532857Y-87820476D01*
X164437619Y-87868095D01*
X164390000Y-87915714D01*
X164342380Y-88010952D01*
X164342380Y-88201428D01*
X164390000Y-88296666D01*
X164437619Y-88344285D01*
X164532857Y-88391904D01*
X164770952Y-88391904D01*
X164866190Y-88344285D01*
X164913809Y-88296666D01*
X164961428Y-88201428D01*
X164961428Y-88010952D01*
X164913809Y-87915714D01*
X164866190Y-87868095D01*
X164770952Y-87820476D01*
X164818571Y-87391904D02*
X164818571Y-87058571D01*
X165342380Y-86915714D02*
X165342380Y-87391904D01*
X164342380Y-87391904D01*
X164342380Y-86915714D01*
X164818571Y-86487142D02*
X164818571Y-86153809D01*
X165342380Y-86010952D02*
X165342380Y-86487142D01*
X164342380Y-86487142D01*
X164342380Y-86010952D01*
X164342380Y-85391904D02*
X164342380Y-85296666D01*
X164390000Y-85201428D01*
X164437619Y-85153809D01*
X164532857Y-85106190D01*
X164723333Y-85058571D01*
X164961428Y-85058571D01*
X165151904Y-85106190D01*
X165247142Y-85153809D01*
X165294761Y-85201428D01*
X165342380Y-85296666D01*
X165342380Y-85391904D01*
X165294761Y-85487142D01*
X165247142Y-85534761D01*
X165151904Y-85582380D01*
X164961428Y-85630000D01*
X164723333Y-85630000D01*
X164532857Y-85582380D01*
X164437619Y-85534761D01*
X164390000Y-85487142D01*
X164342380Y-85391904D01*
X165342380Y-84106190D02*
X165342380Y-84677619D01*
X165342380Y-84391904D02*
X164342380Y-84391904D01*
X164485238Y-84487142D01*
X164580476Y-84582380D01*
X164628095Y-84677619D01*
X164342380Y-83487142D02*
X164342380Y-83391904D01*
X164390000Y-83296666D01*
X164437619Y-83249047D01*
X164532857Y-83201428D01*
X164723333Y-83153809D01*
X164961428Y-83153809D01*
X165151904Y-83201428D01*
X165247142Y-83249047D01*
X165294761Y-83296666D01*
X165342380Y-83391904D01*
X165342380Y-83487142D01*
X165294761Y-83582380D01*
X165247142Y-83630000D01*
X165151904Y-83677619D01*
X164961428Y-83725238D01*
X164723333Y-83725238D01*
X164532857Y-83677619D01*
X164437619Y-83630000D01*
X164390000Y-83582380D01*
X164342380Y-83487142D01*
X121582380Y-68071904D02*
X122391904Y-68071904D01*
X122487142Y-68024285D01*
X122534761Y-67976666D01*
X122582380Y-67881428D01*
X122582380Y-67690952D01*
X122534761Y-67595714D01*
X122487142Y-67548095D01*
X122391904Y-67500476D01*
X121582380Y-67500476D01*
X122582380Y-66500476D02*
X122582380Y-67071904D01*
X122582380Y-66786190D02*
X121582380Y-66786190D01*
X121725238Y-66881428D01*
X121820476Y-66976666D01*
X121868095Y-67071904D01*
X164390000Y-71214761D02*
X164342380Y-71310000D01*
X164342380Y-71452857D01*
X164390000Y-71595714D01*
X164485238Y-71690952D01*
X164580476Y-71738571D01*
X164770952Y-71786190D01*
X164913809Y-71786190D01*
X165104285Y-71738571D01*
X165199523Y-71690952D01*
X165294761Y-71595714D01*
X165342380Y-71452857D01*
X165342380Y-71357619D01*
X165294761Y-71214761D01*
X165247142Y-71167142D01*
X164913809Y-71167142D01*
X164913809Y-71357619D01*
X165342380Y-70262380D02*
X165342380Y-70738571D01*
X164342380Y-70738571D01*
X165294761Y-69976666D02*
X165342380Y-69833809D01*
X165342380Y-69595714D01*
X165294761Y-69500476D01*
X165247142Y-69452857D01*
X165151904Y-69405238D01*
X165056666Y-69405238D01*
X164961428Y-69452857D01*
X164913809Y-69500476D01*
X164866190Y-69595714D01*
X164818571Y-69786190D01*
X164770952Y-69881428D01*
X164723333Y-69929047D01*
X164628095Y-69976666D01*
X164532857Y-69976666D01*
X164437619Y-69929047D01*
X164390000Y-69881428D01*
X164342380Y-69786190D01*
X164342380Y-69548095D01*
X164390000Y-69405238D01*
X164437619Y-69024285D02*
X164390000Y-68976666D01*
X164342380Y-68881428D01*
X164342380Y-68643333D01*
X164390000Y-68548095D01*
X164437619Y-68500476D01*
X164532857Y-68452857D01*
X164628095Y-68452857D01*
X164770952Y-68500476D01*
X165342380Y-69071904D01*
X165342380Y-68452857D01*
X165342380Y-67976666D02*
X165342380Y-67786190D01*
X165294761Y-67690952D01*
X165247142Y-67643333D01*
X165104285Y-67548095D01*
X164913809Y-67500476D01*
X164532857Y-67500476D01*
X164437619Y-67548095D01*
X164390000Y-67595714D01*
X164342380Y-67690952D01*
X164342380Y-67881428D01*
X164390000Y-67976666D01*
X164437619Y-68024285D01*
X164532857Y-68071904D01*
X164770952Y-68071904D01*
X164866190Y-68024285D01*
X164913809Y-67976666D01*
X164961428Y-67881428D01*
X164961428Y-67690952D01*
X164913809Y-67595714D01*
X164866190Y-67548095D01*
X164770952Y-67500476D01*
X164818571Y-67071904D02*
X164818571Y-66738571D01*
X165342380Y-66595714D02*
X165342380Y-67071904D01*
X164342380Y-67071904D01*
X164342380Y-66595714D01*
X164818571Y-66167142D02*
X164818571Y-65833809D01*
X165342380Y-65690952D02*
X165342380Y-66167142D01*
X164342380Y-66167142D01*
X164342380Y-65690952D01*
X164342380Y-65071904D02*
X164342380Y-64976666D01*
X164390000Y-64881428D01*
X164437619Y-64833809D01*
X164532857Y-64786190D01*
X164723333Y-64738571D01*
X164961428Y-64738571D01*
X165151904Y-64786190D01*
X165247142Y-64833809D01*
X165294761Y-64881428D01*
X165342380Y-64976666D01*
X165342380Y-65071904D01*
X165294761Y-65167142D01*
X165247142Y-65214761D01*
X165151904Y-65262380D01*
X164961428Y-65310000D01*
X164723333Y-65310000D01*
X164532857Y-65262380D01*
X164437619Y-65214761D01*
X164390000Y-65167142D01*
X164342380Y-65071904D01*
X165342380Y-63786190D02*
X165342380Y-64357619D01*
X165342380Y-64071904D02*
X164342380Y-64071904D01*
X164485238Y-64167142D01*
X164580476Y-64262380D01*
X164628095Y-64357619D01*
X164342380Y-63167142D02*
X164342380Y-63071904D01*
X164390000Y-62976666D01*
X164437619Y-62929047D01*
X164532857Y-62881428D01*
X164723333Y-62833809D01*
X164961428Y-62833809D01*
X165151904Y-62881428D01*
X165247142Y-62929047D01*
X165294761Y-62976666D01*
X165342380Y-63071904D01*
X165342380Y-63167142D01*
X165294761Y-63262380D01*
X165247142Y-63310000D01*
X165151904Y-63357619D01*
X164961428Y-63405238D01*
X164723333Y-63405238D01*
X164532857Y-63357619D01*
X164437619Y-63310000D01*
X164390000Y-63262380D01*
X164342380Y-63167142D01*
X120667142Y-87756666D02*
X120714761Y-87804285D01*
X120762380Y-87947142D01*
X120762380Y-88042380D01*
X120714761Y-88185238D01*
X120619523Y-88280476D01*
X120524285Y-88328095D01*
X120333809Y-88375714D01*
X120190952Y-88375714D01*
X120000476Y-88328095D01*
X119905238Y-88280476D01*
X119810000Y-88185238D01*
X119762380Y-88042380D01*
X119762380Y-87947142D01*
X119810000Y-87804285D01*
X119857619Y-87756666D01*
X119857619Y-87375714D02*
X119810000Y-87328095D01*
X119762380Y-87232857D01*
X119762380Y-86994761D01*
X119810000Y-86899523D01*
X119857619Y-86851904D01*
X119952857Y-86804285D01*
X120048095Y-86804285D01*
X120190952Y-86851904D01*
X120762380Y-87423333D01*
X120762380Y-86804285D01*
X116362380Y-89137619D02*
X116362380Y-89709047D01*
X116362380Y-89423333D02*
X115362380Y-89423333D01*
X115505238Y-89518571D01*
X115600476Y-89613809D01*
X115648095Y-89709047D01*
X115362380Y-88518571D02*
X115362380Y-88423333D01*
X115410000Y-88328095D01*
X115457619Y-88280476D01*
X115552857Y-88232857D01*
X115743333Y-88185238D01*
X115981428Y-88185238D01*
X116171904Y-88232857D01*
X116267142Y-88280476D01*
X116314761Y-88328095D01*
X116362380Y-88423333D01*
X116362380Y-88518571D01*
X116314761Y-88613809D01*
X116267142Y-88661428D01*
X116171904Y-88709047D01*
X115981428Y-88756666D01*
X115743333Y-88756666D01*
X115552857Y-88709047D01*
X115457619Y-88661428D01*
X115410000Y-88613809D01*
X115362380Y-88518571D01*
X115362380Y-87566190D02*
X115362380Y-87470952D01*
X115410000Y-87375714D01*
X115457619Y-87328095D01*
X115552857Y-87280476D01*
X115743333Y-87232857D01*
X115981428Y-87232857D01*
X116171904Y-87280476D01*
X116267142Y-87328095D01*
X116314761Y-87375714D01*
X116362380Y-87470952D01*
X116362380Y-87566190D01*
X116314761Y-87661428D01*
X116267142Y-87709047D01*
X116171904Y-87756666D01*
X115981428Y-87804285D01*
X115743333Y-87804285D01*
X115552857Y-87756666D01*
X115457619Y-87709047D01*
X115410000Y-87661428D01*
X115362380Y-87566190D01*
X115695714Y-86804285D02*
X116362380Y-86804285D01*
X115790952Y-86804285D02*
X115743333Y-86756666D01*
X115695714Y-86661428D01*
X115695714Y-86518571D01*
X115743333Y-86423333D01*
X115838571Y-86375714D01*
X116362380Y-86375714D01*
X115838571Y-85566190D02*
X115838571Y-85899523D01*
X116362380Y-85899523D02*
X115362380Y-85899523D01*
X115362380Y-85423333D01*
X120667142Y-67436666D02*
X120714761Y-67484285D01*
X120762380Y-67627142D01*
X120762380Y-67722380D01*
X120714761Y-67865238D01*
X120619523Y-67960476D01*
X120524285Y-68008095D01*
X120333809Y-68055714D01*
X120190952Y-68055714D01*
X120000476Y-68008095D01*
X119905238Y-67960476D01*
X119810000Y-67865238D01*
X119762380Y-67722380D01*
X119762380Y-67627142D01*
X119810000Y-67484285D01*
X119857619Y-67436666D01*
X120762380Y-66484285D02*
X120762380Y-67055714D01*
X120762380Y-66770000D02*
X119762380Y-66770000D01*
X119905238Y-66865238D01*
X120000476Y-66960476D01*
X120048095Y-67055714D01*
X116362380Y-68817619D02*
X116362380Y-69389047D01*
X116362380Y-69103333D02*
X115362380Y-69103333D01*
X115505238Y-69198571D01*
X115600476Y-69293809D01*
X115648095Y-69389047D01*
X115362380Y-68198571D02*
X115362380Y-68103333D01*
X115410000Y-68008095D01*
X115457619Y-67960476D01*
X115552857Y-67912857D01*
X115743333Y-67865238D01*
X115981428Y-67865238D01*
X116171904Y-67912857D01*
X116267142Y-67960476D01*
X116314761Y-68008095D01*
X116362380Y-68103333D01*
X116362380Y-68198571D01*
X116314761Y-68293809D01*
X116267142Y-68341428D01*
X116171904Y-68389047D01*
X115981428Y-68436666D01*
X115743333Y-68436666D01*
X115552857Y-68389047D01*
X115457619Y-68341428D01*
X115410000Y-68293809D01*
X115362380Y-68198571D01*
X115362380Y-67246190D02*
X115362380Y-67150952D01*
X115410000Y-67055714D01*
X115457619Y-67008095D01*
X115552857Y-66960476D01*
X115743333Y-66912857D01*
X115981428Y-66912857D01*
X116171904Y-66960476D01*
X116267142Y-67008095D01*
X116314761Y-67055714D01*
X116362380Y-67150952D01*
X116362380Y-67246190D01*
X116314761Y-67341428D01*
X116267142Y-67389047D01*
X116171904Y-67436666D01*
X115981428Y-67484285D01*
X115743333Y-67484285D01*
X115552857Y-67436666D01*
X115457619Y-67389047D01*
X115410000Y-67341428D01*
X115362380Y-67246190D01*
X115695714Y-66484285D02*
X116362380Y-66484285D01*
X115790952Y-66484285D02*
X115743333Y-66436666D01*
X115695714Y-66341428D01*
X115695714Y-66198571D01*
X115743333Y-66103333D01*
X115838571Y-66055714D01*
X116362380Y-66055714D01*
X115838571Y-65246190D02*
X115838571Y-65579523D01*
X116362380Y-65579523D02*
X115362380Y-65579523D01*
X115362380Y-65103333D01*
M02*
